<?xml version="1.0" encoding="UTF-8" standalone="no"?>
<!DOCTYPE svg PUBLIC "-//W3C//DTD SVG 1.1//EN"
 "http://www.w3.org/Graphics/SVG/1.1/DTD/svg11.dtd">
<!-- Generated by graphviz version 2.43.0 (0)
 -->
<!-- Title: sources/APU/Instructions/8bitShiftRotation.cpp Pages: 1 -->
<svg width="637pt" height="319pt"
 viewBox="0.00 0.00 637.00 319.00" xmlns="http://www.w3.org/2000/svg" xmlns:xlink="http://www.w3.org/1999/xlink">
<g id="graph0" class="graph" transform="scale(1 1) rotate(0) translate(4 315)">
<title>sources/APU/Instructions/8bitShiftRotation.cpp</title>
<polygon fill="white" stroke="transparent" points="-4,4 -4,-315 633,-315 633,4 -4,4"/>
<!-- Node1 -->
<g id="node1" class="node">
<title>Node1</title>
<g id="a_node1"><a xlink:title=" ">
<polygon fill="#bfbfbf" stroke="black" points="158.5,-280.5 158.5,-310.5 295.5,-310.5 295.5,-280.5 158.5,-280.5"/>
<text text-anchor="start" x="166.5" y="-298.5" font-family="Helvetica,sans-Serif" font-size="10.00">sources/APU/Instructions</text>
<text text-anchor="middle" x="227" y="-287.5" font-family="Helvetica,sans-Serif" font-size="10.00">/8bitShiftRotation.cpp</text>
</a>
</g>
</g>
<!-- Node2 -->
<g id="node2" class="node">
<title>Node2</title>
<g id="a_node2"><a xlink:href="APU_8hpp.html" target="_top" xlink:title=" ">
<polygon fill="white" stroke="black" points="193.5,-224.5 193.5,-243.5 260.5,-243.5 260.5,-224.5 193.5,-224.5"/>
<text text-anchor="middle" x="227" y="-231.5" font-family="Helvetica,sans-Serif" font-size="10.00">../APU.hpp</text>
</a>
</g>
</g>
<!-- Node1&#45;&gt;Node2 -->
<g id="edge1" class="edge">
<title>Node1&#45;&gt;Node2</title>
<path fill="none" stroke="midnightblue" d="M227,-280.4C227,-272.47 227,-262.46 227,-253.86"/>
<polygon fill="midnightblue" stroke="midnightblue" points="230.5,-253.66 227,-243.66 223.5,-253.66 230.5,-253.66"/>
</g>
<!-- Node3 -->
<g id="node3" class="node">
<title>Node3</title>
<g id="a_node3"><a xlink:title=" ">
<polygon fill="white" stroke="#bfbfbf" points="0,-0.5 0,-19.5 58,-19.5 58,-0.5 0,-0.5"/>
<text text-anchor="middle" x="29" y="-7.5" font-family="Helvetica,sans-Serif" font-size="10.00">memory</text>
</a>
</g>
</g>
<!-- Node2&#45;&gt;Node3 -->
<g id="edge2" class="edge">
<title>Node2&#45;&gt;Node3</title>
<path fill="none" stroke="midnightblue" d="M193.23,-232.92C157.29,-230.94 101.25,-222.08 69,-188 27.19,-143.81 25.69,-65.58 27.49,-29.8"/>
<polygon fill="midnightblue" stroke="midnightblue" points="30.98,-29.98 28.13,-19.78 24,-29.53 30.98,-29.98"/>
</g>
<!-- Node4 -->
<g id="node4" class="node">
<title>Node4</title>
<g id="a_node4"><a xlink:href="DSP_8hpp.html" target="_top" xlink:title=" ">
<polygon fill="white" stroke="black" points="78,-168.5 78,-187.5 156,-187.5 156,-168.5 78,-168.5"/>
<text text-anchor="middle" x="117" y="-175.5" font-family="Helvetica,sans-Serif" font-size="10.00">DSP/DSP.hpp</text>
</a>
</g>
</g>
<!-- Node2&#45;&gt;Node4 -->
<g id="edge3" class="edge">
<title>Node2&#45;&gt;Node4</title>
<path fill="none" stroke="midnightblue" d="M209.33,-224.32C191.61,-215.62 164.1,-202.12 143.71,-192.11"/>
<polygon fill="midnightblue" stroke="midnightblue" points="145.15,-188.92 134.63,-187.65 142.06,-195.2 145.15,-188.92"/>
</g>
<!-- Node7 -->
<g id="node7" class="node">
<title>Node7</title>
<g id="a_node7"><a xlink:href="AMemory_8hpp.html" target="_top" xlink:title=" ">
<polygon fill="white" stroke="black" points="145.5,-112.5 145.5,-131.5 290.5,-131.5 290.5,-112.5 145.5,-112.5"/>
<text text-anchor="middle" x="218" y="-119.5" font-family="Helvetica,sans-Serif" font-size="10.00">../../Memory/AMemory.hpp</text>
</a>
</g>
</g>
<!-- Node2&#45;&gt;Node7 -->
<g id="edge20" class="edge">
<title>Node2&#45;&gt;Node7</title>
<path fill="none" stroke="midnightblue" d="M224.27,-224.49C221.55,-215.52 217.56,-200.94 216,-188 214.14,-172.57 214.86,-154.94 215.92,-141.93"/>
<polygon fill="midnightblue" stroke="midnightblue" points="219.42,-142.16 216.89,-131.87 212.45,-141.49 219.42,-142.16"/>
</g>
<!-- Node13 -->
<g id="node13" class="node">
<title>Node13</title>
<g id="a_node13"><a xlink:href="Ram_8hpp.html" target="_top" xlink:title=" ">
<polygon fill="white" stroke="black" points="353.5,-168.5 353.5,-187.5 448.5,-187.5 448.5,-168.5 353.5,-168.5"/>
<text text-anchor="middle" x="401" y="-175.5" font-family="Helvetica,sans-Serif" font-size="10.00">../Ram/Ram.hpp</text>
</a>
</g>
</g>
<!-- Node2&#45;&gt;Node13 -->
<g id="edge21" class="edge">
<title>Node2&#45;&gt;Node13</title>
<path fill="none" stroke="midnightblue" d="M254.57,-224.44C284.1,-215.28 331.12,-200.69 363.88,-190.52"/>
<polygon fill="midnightblue" stroke="midnightblue" points="365.04,-193.82 373.56,-187.52 362.97,-187.14 365.04,-193.82"/>
</g>
<!-- Node15 -->
<g id="node15" class="node">
<title>Node15</title>
<g id="a_node15"><a xlink:href="IPL_8hpp.html" target="_top" xlink:title=" ">
<polygon fill="white" stroke="black" points="224.5,-168.5 224.5,-187.5 293.5,-187.5 293.5,-168.5 224.5,-168.5"/>
<text text-anchor="middle" x="259" y="-175.5" font-family="Helvetica,sans-Serif" font-size="10.00">IPL/IPL.hpp</text>
</a>
</g>
</g>
<!-- Node2&#45;&gt;Node15 -->
<g id="edge25" class="edge">
<title>Node2&#45;&gt;Node15</title>
<path fill="none" stroke="midnightblue" d="M232.28,-224.08C236.71,-216.61 243.16,-205.72 248.62,-196.52"/>
<polygon fill="midnightblue" stroke="midnightblue" points="251.73,-198.14 253.81,-187.75 245.71,-194.57 251.73,-198.14"/>
</g>
<!-- Node16 -->
<g id="node16" class="node">
<title>Node16</title>
<g id="a_node16"><a xlink:href="IRenderer_8hpp.html" target="_top" xlink:title=" ">
<polygon fill="white" stroke="black" points="489,-168.5 489,-187.5 629,-187.5 629,-168.5 489,-168.5"/>
<text text-anchor="middle" x="559" y="-175.5" font-family="Helvetica,sans-Serif" font-size="10.00">../Renderer/IRenderer.hpp</text>
</a>
</g>
</g>
<!-- Node2&#45;&gt;Node16 -->
<g id="edge27" class="edge">
<title>Node2&#45;&gt;Node16</title>
<path fill="none" stroke="midnightblue" d="M260.66,-227.53C315.89,-218.54 426.58,-200.54 496.5,-189.17"/>
<polygon fill="midnightblue" stroke="midnightblue" points="497.2,-192.6 506.51,-187.54 496.08,-185.69 497.2,-192.6"/>
</g>
<!-- Node5 -->
<g id="node5" class="node">
<title>Node5</title>
<g id="a_node5"><a xlink:title=" ">
<polygon fill="white" stroke="#bfbfbf" points="76,-0.5 76,-19.5 126,-19.5 126,-0.5 76,-0.5"/>
<text text-anchor="middle" x="101" y="-7.5" font-family="Helvetica,sans-Serif" font-size="10.00">cstdint</text>
</a>
</g>
</g>
<!-- Node4&#45;&gt;Node5 -->
<g id="edge4" class="edge">
<title>Node4&#45;&gt;Node5</title>
<path fill="none" stroke="midnightblue" d="M105.46,-168.49C95.52,-160.38 81.88,-147.18 76,-132 62.38,-96.82 79.27,-52.87 91.18,-28.8"/>
<polygon fill="midnightblue" stroke="midnightblue" points="94.36,-30.27 95.88,-19.79 88.15,-27.04 94.36,-30.27"/>
</g>
<!-- Node6 -->
<g id="node6" class="node">
<title>Node6</title>
<g id="a_node6"><a xlink:title=" ">
<polygon fill="white" stroke="#bfbfbf" points="85,-112.5 85,-131.5 127,-131.5 127,-112.5 85,-112.5"/>
<text text-anchor="middle" x="106" y="-119.5" font-family="Helvetica,sans-Serif" font-size="10.00">array</text>
</a>
</g>
</g>
<!-- Node4&#45;&gt;Node6 -->
<g id="edge5" class="edge">
<title>Node4&#45;&gt;Node6</title>
<path fill="none" stroke="midnightblue" d="M115.18,-168.08C113.73,-160.93 111.63,-150.64 109.81,-141.69"/>
<polygon fill="midnightblue" stroke="midnightblue" points="113.21,-140.85 107.78,-131.75 106.35,-142.25 113.21,-140.85"/>
</g>
<!-- Node4&#45;&gt;Node7 -->
<g id="edge6" class="edge">
<title>Node4&#45;&gt;Node7</title>
<path fill="none" stroke="midnightblue" d="M133.23,-168.32C149.35,-159.7 174.3,-146.36 192.96,-136.39"/>
<polygon fill="midnightblue" stroke="midnightblue" points="194.64,-139.46 201.81,-131.65 191.34,-133.28 194.64,-139.46"/>
</g>
<!-- Node7&#45;&gt;Node3 -->
<g id="edge9" class="edge">
<title>Node7&#45;&gt;Node3</title>
<path fill="none" stroke="midnightblue" d="M203.17,-112.37C170.46,-93.33 91.91,-47.62 52.45,-24.65"/>
<polygon fill="midnightblue" stroke="midnightblue" points="54.16,-21.6 43.76,-19.59 50.64,-27.65 54.16,-21.6"/>
</g>
<!-- Node7&#45;&gt;Node5 -->
<g id="edge7" class="edge">
<title>Node7&#45;&gt;Node5</title>
<path fill="none" stroke="midnightblue" d="M208.82,-112.37C189.17,-93.89 142.79,-50.29 117.75,-26.74"/>
<polygon fill="midnightblue" stroke="midnightblue" points="119.82,-23.89 110.14,-19.59 115.03,-28.99 119.82,-23.89"/>
</g>
<!-- Node8 -->
<g id="node8" class="node">
<title>Node8</title>
<g id="a_node8"><a xlink:title=" ">
<polygon fill="white" stroke="#bfbfbf" points="144.5,-0.5 144.5,-19.5 191.5,-19.5 191.5,-0.5 144.5,-0.5"/>
<text text-anchor="middle" x="168" y="-7.5" font-family="Helvetica,sans-Serif" font-size="10.00">vector</text>
</a>
</g>
</g>
<!-- Node7&#45;&gt;Node8 -->
<g id="edge8" class="edge">
<title>Node7&#45;&gt;Node8</title>
<path fill="none" stroke="midnightblue" d="M214.08,-112.37C205.93,-94.46 187.06,-52.92 176.16,-28.95"/>
<polygon fill="midnightblue" stroke="midnightblue" points="179.23,-27.25 171.91,-19.59 172.86,-30.14 179.23,-27.25"/>
</g>
<!-- Node9 -->
<g id="node9" class="node">
<title>Node9</title>
<g id="a_node9"><a xlink:title=" ">
<polygon fill="white" stroke="#bfbfbf" points="502,-0.5 502,-19.5 546,-19.5 546,-0.5 502,-0.5"/>
<text text-anchor="middle" x="524" y="-7.5" font-family="Helvetica,sans-Serif" font-size="10.00">string</text>
</a>
</g>
</g>
<!-- Node7&#45;&gt;Node9 -->
<g id="edge10" class="edge">
<title>Node7&#45;&gt;Node9</title>
<path fill="none" stroke="midnightblue" d="M246.54,-112.5C275.16,-103.83 320.39,-89.75 359,-76 406.71,-59.01 461.23,-37.02 494.11,-23.47"/>
<polygon fill="midnightblue" stroke="midnightblue" points="495.68,-26.6 503.59,-19.55 493.01,-20.14 495.68,-26.6"/>
</g>
<!-- Node10 -->
<g id="node10" class="node">
<title>Node10</title>
<g id="a_node10"><a xlink:href="Int24_8hpp.html" target="_top" xlink:title=" ">
<polygon fill="white" stroke="black" points="210,-0.5 210,-19.5 320,-19.5 320,-0.5 210,-0.5"/>
<text text-anchor="middle" x="265" y="-7.5" font-family="Helvetica,sans-Serif" font-size="10.00">../Models/Int24.hpp</text>
</a>
</g>
</g>
<!-- Node7&#45;&gt;Node10 -->
<g id="edge11" class="edge">
<title>Node7&#45;&gt;Node10</title>
<path fill="none" stroke="midnightblue" d="M218.92,-112.24C220.51,-99.42 224.45,-75.01 233,-56 237.56,-45.85 244.56,-35.66 250.85,-27.55"/>
<polygon fill="midnightblue" stroke="midnightblue" points="253.67,-29.63 257.25,-19.66 248.23,-25.22 253.67,-29.63"/>
</g>
<!-- Node11 -->
<g id="node11" class="node">
<title>Node11</title>
<g id="a_node11"><a xlink:href="Components_8hpp.html" target="_top" xlink:title=" ">
<polygon fill="white" stroke="black" points="338,-0.5 338,-19.5 484,-19.5 484,-0.5 338,-0.5"/>
<text text-anchor="middle" x="411" y="-7.5" font-family="Helvetica,sans-Serif" font-size="10.00">../Models/Components.hpp</text>
</a>
</g>
</g>
<!-- Node7&#45;&gt;Node11 -->
<g id="edge12" class="edge">
<title>Node7&#45;&gt;Node11</title>
<path fill="none" stroke="midnightblue" d="M246.03,-112.49C269.58,-104.72 303.68,-92.03 331,-76 354.96,-61.94 379.28,-41.03 394.71,-26.75"/>
<polygon fill="midnightblue" stroke="midnightblue" points="397.44,-28.99 402.31,-19.58 392.64,-23.89 397.44,-28.99"/>
</g>
<!-- Node12 -->
<g id="node12" class="node">
<title>Node12</title>
<g id="a_node12"><a xlink:href="IMemory_8hpp.html" target="_top" xlink:title=" ">
<polygon fill="white" stroke="black" points="242,-56.5 242,-75.5 322,-75.5 322,-56.5 242,-56.5"/>
<text text-anchor="middle" x="282" y="-63.5" font-family="Helvetica,sans-Serif" font-size="10.00">IMemory.hpp</text>
</a>
</g>
</g>
<!-- Node7&#45;&gt;Node12 -->
<g id="edge13" class="edge">
<title>Node7&#45;&gt;Node12</title>
<path fill="none" stroke="midnightblue" d="M228.28,-112.32C237.84,-104.26 252.28,-92.08 263.78,-82.37"/>
<polygon fill="midnightblue" stroke="midnightblue" points="266.14,-84.96 271.53,-75.83 261.63,-79.61 266.14,-84.96"/>
</g>
<!-- Node12&#45;&gt;Node3 -->
<g id="edge16" class="edge">
<title>Node12&#45;&gt;Node3</title>
<path fill="none" stroke="midnightblue" d="M241.91,-56.94C200.7,-48.58 134.43,-34.93 67.85,-20.15"/>
<polygon fill="midnightblue" stroke="midnightblue" points="68.55,-16.72 58.03,-17.96 67.03,-23.55 68.55,-16.72"/>
</g>
<!-- Node12&#45;&gt;Node5 -->
<g id="edge14" class="edge">
<title>Node12&#45;&gt;Node5</title>
<path fill="none" stroke="midnightblue" d="M253.32,-56.44C221.52,-46.96 170.22,-31.65 136.06,-21.46"/>
<polygon fill="midnightblue" stroke="midnightblue" points="136.63,-17.98 126.05,-18.47 134.63,-24.69 136.63,-17.98"/>
</g>
<!-- Node12&#45;&gt;Node8 -->
<g id="edge15" class="edge">
<title>Node12&#45;&gt;Node8</title>
<path fill="none" stroke="midnightblue" d="M263.94,-56.44C245.43,-47.68 216.42,-33.94 195.14,-23.86"/>
<polygon fill="midnightblue" stroke="midnightblue" points="196.51,-20.63 185.98,-19.52 193.52,-26.96 196.51,-20.63"/>
</g>
<!-- Node12&#45;&gt;Node9 -->
<g id="edge17" class="edge">
<title>Node12&#45;&gt;Node9</title>
<path fill="none" stroke="midnightblue" d="M322.26,-57.32C362.78,-49.38 427.29,-36.21 491.77,-20.17"/>
<polygon fill="midnightblue" stroke="midnightblue" points="492.85,-23.51 501.7,-17.68 491.15,-16.72 492.85,-23.51"/>
</g>
<!-- Node12&#45;&gt;Node10 -->
<g id="edge18" class="edge">
<title>Node12&#45;&gt;Node10</title>
<path fill="none" stroke="midnightblue" d="M279.19,-56.08C276.92,-48.85 273.63,-38.41 270.79,-29.4"/>
<polygon fill="midnightblue" stroke="midnightblue" points="274.1,-28.24 267.75,-19.75 267.42,-30.34 274.1,-28.24"/>
</g>
<!-- Node12&#45;&gt;Node11 -->
<g id="edge19" class="edge">
<title>Node12&#45;&gt;Node11</title>
<path fill="none" stroke="midnightblue" d="M302.44,-56.44C323.67,-47.56 357.1,-33.56 381.25,-23.45"/>
<polygon fill="midnightblue" stroke="midnightblue" points="382.78,-26.61 390.66,-19.52 380.08,-20.15 382.78,-26.61"/>
</g>
<!-- Node13&#45;&gt;Node9 -->
<g id="edge24" class="edge">
<title>Node13&#45;&gt;Node9</title>
<path fill="none" stroke="midnightblue" d="M442.86,-168.45C464.02,-161.97 488.28,-150.83 503,-132 526.23,-102.29 527.38,-55.86 525.88,-30"/>
<polygon fill="midnightblue" stroke="midnightblue" points="529.34,-29.4 525.07,-19.71 522.36,-29.95 529.34,-29.4"/>
</g>
<!-- Node14 -->
<g id="node14" class="node">
<title>Node14</title>
<g id="a_node14"><a xlink:href="ARectangleMemory_8hpp.html" target="_top" xlink:title=" ">
<polygon fill="white" stroke="black" points="308.5,-112.5 308.5,-131.5 493.5,-131.5 493.5,-112.5 308.5,-112.5"/>
<text text-anchor="middle" x="401" y="-119.5" font-family="Helvetica,sans-Serif" font-size="10.00">../Memory/ARectangleMemory.hpp</text>
</a>
</g>
</g>
<!-- Node13&#45;&gt;Node14 -->
<g id="edge22" class="edge">
<title>Node13&#45;&gt;Node14</title>
<path fill="none" stroke="midnightblue" d="M401,-168.08C401,-161.01 401,-150.86 401,-141.99"/>
<polygon fill="midnightblue" stroke="midnightblue" points="404.5,-141.75 401,-131.75 397.5,-141.75 404.5,-141.75"/>
</g>
<!-- Node14&#45;&gt;Node12 -->
<g id="edge23" class="edge">
<title>Node14&#45;&gt;Node12</title>
<path fill="none" stroke="midnightblue" d="M382.14,-112.44C362.73,-103.64 332.27,-89.81 310.04,-79.72"/>
<polygon fill="midnightblue" stroke="midnightblue" points="311.32,-76.46 300.77,-75.52 308.43,-82.84 311.32,-76.46"/>
</g>
<!-- Node15&#45;&gt;Node7 -->
<g id="edge26" class="edge">
<title>Node15&#45;&gt;Node7</title>
<path fill="none" stroke="midnightblue" d="M252.23,-168.08C246.44,-160.46 237.94,-149.26 230.86,-139.94"/>
<polygon fill="midnightblue" stroke="midnightblue" points="233.48,-137.6 224.64,-131.75 227.9,-141.83 233.48,-137.6"/>
</g>
<!-- Node16&#45;&gt;Node9 -->
<g id="edge28" class="edge">
<title>Node16&#45;&gt;Node9</title>
<path fill="none" stroke="midnightblue" d="M557.44,-168.46C553.79,-148.65 544.3,-98.03 535,-56 533.06,-47.25 530.73,-37.6 528.71,-29.49"/>
<polygon fill="midnightblue" stroke="midnightblue" points="532.06,-28.44 526.22,-19.6 525.27,-30.15 532.06,-28.44"/>
</g>
<!-- Node17 -->
<g id="node17" class="node">
<title>Node17</title>
<g id="a_node17"><a xlink:title=" ">
<polygon fill="white" stroke="#bfbfbf" points="587,-112.5 587,-131.5 627,-131.5 627,-112.5 587,-112.5"/>
<text text-anchor="middle" x="607" y="-119.5" font-family="Helvetica,sans-Serif" font-size="10.00">span</text>
</a>
</g>
</g>
<!-- Node16&#45;&gt;Node17 -->
<g id="edge29" class="edge">
<title>Node16&#45;&gt;Node17</title>
<path fill="none" stroke="midnightblue" d="M566.93,-168.08C573.85,-160.3 584.07,-148.8 592.45,-139.37"/>
<polygon fill="midnightblue" stroke="midnightblue" points="595.19,-141.55 599.22,-131.75 589.96,-136.9 595.19,-141.55"/>
</g>
</g>
</svg>
