<?xml version="1.0" encoding="UTF-8" standalone="no"?>
<!DOCTYPE svg PUBLIC "-//W3C//DTD SVG 1.1//EN"
 "http://www.w3.org/Graphics/SVG/1.1/DTD/svg11.dtd">
<!-- Generated by graphviz version 2.43.0 (0)
 -->
<!-- Title: sources/CPU/AddressingModes.cpp Pages: 1 -->
<svg width="868pt" height="364pt"
 viewBox="0.00 0.00 868.00 364.00" xmlns="http://www.w3.org/2000/svg" xmlns:xlink="http://www.w3.org/1999/xlink">
<g id="graph0" class="graph" transform="scale(1 1) rotate(0) translate(4 360)">
<title>sources/CPU/AddressingModes.cpp</title>
<polygon fill="white" stroke="transparent" points="-4,4 -4,-360 864,-360 864,4 -4,4"/>
<!-- Node1 -->
<g id="node1" class="node">
<title>Node1</title>
<g id="a_node1"><a xlink:title=" ">
<polygon fill="#bfbfbf" stroke="black" points="68.5,-336.5 68.5,-355.5 255.5,-355.5 255.5,-336.5 68.5,-336.5"/>
<text text-anchor="middle" x="162" y="-343.5" font-family="Helvetica,sans-Serif" font-size="10.00">sources/CPU/AddressingModes.cpp</text>
</a>
</g>
</g>
<!-- Node2 -->
<g id="node2" class="node">
<title>Node2</title>
<g id="a_node2"><a xlink:href="Int24_8hpp.html" target="_top" xlink:title=" ">
<polygon fill="white" stroke="black" points="129,-0.5 129,-19.5 239,-19.5 239,-0.5 129,-0.5"/>
<text text-anchor="middle" x="184" y="-7.5" font-family="Helvetica,sans-Serif" font-size="10.00">../Models/Int24.hpp</text>
</a>
</g>
</g>
<!-- Node1&#45;&gt;Node2 -->
<g id="edge1" class="edge">
<title>Node1&#45;&gt;Node2</title>
<path fill="none" stroke="midnightblue" d="M122.37,-336.47C74.41,-323.54 0,-293.98 0,-235 0,-235 0,-235 0,-121 0,-63.19 67.74,-35.04 121.02,-21.83"/>
<polygon fill="midnightblue" stroke="midnightblue" points="121.85,-25.23 130.78,-19.54 120.24,-18.42 121.85,-25.23"/>
</g>
<!-- Node3 -->
<g id="node3" class="node">
<title>Node3</title>
<g id="a_node3"><a xlink:href="CPU_8hpp.html" target="_top" xlink:title=" ">
<polygon fill="white" stroke="black" points="333,-280.5 333,-299.5 391,-299.5 391,-280.5 333,-280.5"/>
<text text-anchor="middle" x="362" y="-287.5" font-family="Helvetica,sans-Serif" font-size="10.00">CPU.hpp</text>
</a>
</g>
</g>
<!-- Node1&#45;&gt;Node3 -->
<g id="edge2" class="edge">
<title>Node1&#45;&gt;Node3</title>
<path fill="none" stroke="midnightblue" d="M193.69,-336.44C228.63,-327.01 284.87,-311.83 322.61,-301.63"/>
<polygon fill="midnightblue" stroke="midnightblue" points="323.99,-304.89 332.74,-298.9 322.17,-298.13 323.99,-304.89"/>
</g>
<!-- Node3&#45;&gt;Node2 -->
<g id="edge22" class="edge">
<title>Node3&#45;&gt;Node2</title>
<path fill="none" stroke="midnightblue" d="M332.96,-285.48C253.44,-275.03 38,-241 38,-179 38,-179 38,-179 38,-121 38,-90.9 36.32,-77.87 57,-56 73.38,-38.68 96.84,-28.01 119.16,-21.45"/>
<polygon fill="midnightblue" stroke="midnightblue" points="120.22,-24.79 128.96,-18.8 118.4,-18.03 120.22,-24.79"/>
</g>
<!-- Node4 -->
<g id="node4" class="node">
<title>Node4</title>
<g id="a_node4"><a xlink:href="AMemory_8hpp.html" target="_top" xlink:title=" ">
<polygon fill="white" stroke="black" points="577,-112.5 577,-131.5 713,-131.5 713,-112.5 577,-112.5"/>
<text text-anchor="middle" x="645" y="-119.5" font-family="Helvetica,sans-Serif" font-size="10.00">../Memory/AMemory.hpp</text>
</a>
</g>
</g>
<!-- Node3&#45;&gt;Node4 -->
<g id="edge3" class="edge">
<title>Node3&#45;&gt;Node4</title>
<path fill="none" stroke="midnightblue" d="M377.19,-280.45C393.13,-271.46 418.89,-256.85 441,-244 506.97,-205.65 584.31,-159.43 622.01,-136.82"/>
<polygon fill="midnightblue" stroke="midnightblue" points="623.93,-139.74 630.71,-131.6 620.33,-133.74 623.93,-139.74"/>
</g>
<!-- Node11 -->
<g id="node11" class="node">
<title>Node11</title>
<g id="a_node11"><a xlink:href="MemoryBus_8hpp.html" target="_top" xlink:title=" ">
<polygon fill="white" stroke="black" points="640.5,-168.5 640.5,-187.5 789.5,-187.5 789.5,-168.5 640.5,-168.5"/>
<text text-anchor="middle" x="715" y="-175.5" font-family="Helvetica,sans-Serif" font-size="10.00">../Memory/MemoryBus.hpp</text>
</a>
</g>
</g>
<!-- Node3&#45;&gt;Node11 -->
<g id="edge17" class="edge">
<title>Node3&#45;&gt;Node11</title>
<path fill="none" stroke="midnightblue" d="M391.09,-285.44C433.79,-279.68 515.57,-266.62 582,-244 622.09,-230.35 665.67,-207.35 691.64,-192.68"/>
<polygon fill="midnightblue" stroke="midnightblue" points="693.43,-195.69 700.37,-187.69 689.95,-189.61 693.43,-195.69"/>
</g>
<!-- Node12 -->
<g id="node12" class="node">
<title>Node12</title>
<g id="a_node12"><a xlink:href="Cartridge_8hpp.html" target="_top" xlink:title=" ">
<polygon fill="white" stroke="black" points="292,-224.5 292,-243.5 432,-243.5 432,-224.5 292,-224.5"/>
<text text-anchor="middle" x="362" y="-231.5" font-family="Helvetica,sans-Serif" font-size="10.00">../Cartridge/Cartridge.hpp</text>
</a>
</g>
</g>
<!-- Node3&#45;&gt;Node12 -->
<g id="edge23" class="edge">
<title>Node3&#45;&gt;Node12</title>
<path fill="none" stroke="midnightblue" d="M362,-280.08C362,-273.01 362,-262.86 362,-253.99"/>
<polygon fill="midnightblue" stroke="midnightblue" points="365.5,-253.75 362,-243.75 358.5,-253.75 365.5,-253.75"/>
</g>
<!-- Node16 -->
<g id="node16" class="node">
<title>Node16</title>
<g id="a_node16"><a xlink:href="Instruction_8hpp.html" target="_top" xlink:title=" ">
<polygon fill="white" stroke="black" points="66.5,-56.5 66.5,-75.5 155.5,-75.5 155.5,-56.5 66.5,-56.5"/>
<text text-anchor="middle" x="111" y="-63.5" font-family="Helvetica,sans-Serif" font-size="10.00">Instruction.hpp</text>
</a>
</g>
</g>
<!-- Node3&#45;&gt;Node16 -->
<g id="edge33" class="edge">
<title>Node3&#45;&gt;Node16</title>
<path fill="none" stroke="midnightblue" d="M332.89,-286.2C280.92,-279.5 172.84,-257.51 122,-188 99.87,-157.75 103.16,-111.19 107.25,-85.54"/>
<polygon fill="midnightblue" stroke="midnightblue" points="110.7,-86.11 109.03,-75.65 103.81,-84.87 110.7,-86.11"/>
</g>
<!-- Node17 -->
<g id="node17" class="node">
<title>Node17</title>
<g id="a_node17"><a xlink:href="DMA_8hpp.html" target="_top" xlink:title=" ">
<polygon fill="white" stroke="black" points="671.5,-224.5 671.5,-243.5 758.5,-243.5 758.5,-224.5 671.5,-224.5"/>
<text text-anchor="middle" x="715" y="-231.5" font-family="Helvetica,sans-Serif" font-size="10.00">DMA/DMA.hpp</text>
</a>
</g>
</g>
<!-- Node3&#45;&gt;Node17 -->
<g id="edge36" class="edge">
<title>Node3&#45;&gt;Node17</title>
<path fill="none" stroke="midnightblue" d="M391.19,-284.54C450.43,-275.47 585.55,-254.8 661.19,-243.23"/>
<polygon fill="midnightblue" stroke="midnightblue" points="662.1,-246.63 671.45,-241.66 661.04,-239.71 662.1,-246.63"/>
</g>
<!-- Node4&#45;&gt;Node2 -->
<g id="edge8" class="edge">
<title>Node4&#45;&gt;Node2</title>
<path fill="none" stroke="midnightblue" d="M598.89,-112.43C554.25,-103.92 484.75,-90.15 425,-76 353.5,-59.06 270.99,-36.05 223.42,-22.43"/>
<polygon fill="midnightblue" stroke="midnightblue" points="224.11,-18.99 213.53,-19.6 222.18,-25.72 224.11,-18.99"/>
</g>
<!-- Node5 -->
<g id="node5" class="node">
<title>Node5</title>
<g id="a_node5"><a xlink:title=" ">
<polygon fill="white" stroke="#bfbfbf" points="810,-0.5 810,-19.5 860,-19.5 860,-0.5 810,-0.5"/>
<text text-anchor="middle" x="835" y="-7.5" font-family="Helvetica,sans-Serif" font-size="10.00">cstdint</text>
</a>
</g>
</g>
<!-- Node4&#45;&gt;Node5 -->
<g id="edge4" class="edge">
<title>Node4&#45;&gt;Node5</title>
<path fill="none" stroke="midnightblue" d="M659.91,-112.37C692.79,-93.33 771.76,-47.62 811.42,-24.65"/>
<polygon fill="midnightblue" stroke="midnightblue" points="813.26,-27.63 820.16,-19.59 809.75,-21.57 813.26,-27.63"/>
</g>
<!-- Node6 -->
<g id="node6" class="node">
<title>Node6</title>
<g id="a_node6"><a xlink:title=" ">
<polygon fill="white" stroke="#bfbfbf" points="612.5,-0.5 612.5,-19.5 659.5,-19.5 659.5,-0.5 612.5,-0.5"/>
<text text-anchor="middle" x="636" y="-7.5" font-family="Helvetica,sans-Serif" font-size="10.00">vector</text>
</a>
</g>
</g>
<!-- Node4&#45;&gt;Node6 -->
<g id="edge5" class="edge">
<title>Node4&#45;&gt;Node6</title>
<path fill="none" stroke="midnightblue" d="M644.29,-112.37C642.84,-94.62 639.49,-53.67 637.52,-29.6"/>
<polygon fill="midnightblue" stroke="midnightblue" points="641.01,-29.27 636.7,-19.59 634.03,-29.84 641.01,-29.27"/>
</g>
<!-- Node7 -->
<g id="node7" class="node">
<title>Node7</title>
<g id="a_node7"><a xlink:title=" ">
<polygon fill="white" stroke="#bfbfbf" points="714,-0.5 714,-19.5 772,-19.5 772,-0.5 714,-0.5"/>
<text text-anchor="middle" x="743" y="-7.5" font-family="Helvetica,sans-Serif" font-size="10.00">memory</text>
</a>
</g>
</g>
<!-- Node4&#45;&gt;Node7 -->
<g id="edge6" class="edge">
<title>Node4&#45;&gt;Node7</title>
<path fill="none" stroke="midnightblue" d="M649.73,-112.46C657.14,-99.48 672.36,-74.39 689,-56 698.98,-44.97 711.7,-34.25 722.28,-26.03"/>
<polygon fill="midnightblue" stroke="midnightblue" points="724.7,-28.59 730.57,-19.77 720.48,-23.01 724.7,-28.59"/>
</g>
<!-- Node8 -->
<g id="node8" class="node">
<title>Node8</title>
<g id="a_node8"><a xlink:title=" ">
<polygon fill="white" stroke="#bfbfbf" points="324,-0.5 324,-19.5 368,-19.5 368,-0.5 324,-0.5"/>
<text text-anchor="middle" x="346" y="-7.5" font-family="Helvetica,sans-Serif" font-size="10.00">string</text>
</a>
</g>
</g>
<!-- Node4&#45;&gt;Node8 -->
<g id="edge7" class="edge">
<title>Node4&#45;&gt;Node8</title>
<path fill="none" stroke="midnightblue" d="M601.51,-112.49C566.02,-104.89 514.9,-92.41 472,-76 434.49,-61.65 393.61,-39.19 368.9,-24.79"/>
<polygon fill="midnightblue" stroke="midnightblue" points="370.65,-21.75 360.26,-19.69 367.09,-27.79 370.65,-21.75"/>
</g>
<!-- Node9 -->
<g id="node9" class="node">
<title>Node9</title>
<g id="a_node9"><a xlink:href="Components_8hpp.html" target="_top" xlink:title=" ">
<polygon fill="white" stroke="black" points="448,-0.5 448,-19.5 594,-19.5 594,-0.5 448,-0.5"/>
<text text-anchor="middle" x="521" y="-7.5" font-family="Helvetica,sans-Serif" font-size="10.00">../Models/Components.hpp</text>
</a>
</g>
</g>
<!-- Node4&#45;&gt;Node9 -->
<g id="edge9" class="edge">
<title>Node4&#45;&gt;Node9</title>
<path fill="none" stroke="midnightblue" d="M635.27,-112.37C614.35,-93.81 564.87,-49.91 538.4,-26.44"/>
<polygon fill="midnightblue" stroke="midnightblue" points="540.49,-23.61 530.68,-19.59 535.84,-28.85 540.49,-23.61"/>
</g>
<!-- Node10 -->
<g id="node10" class="node">
<title>Node10</title>
<g id="a_node10"><a xlink:href="IMemory_8hpp.html" target="_top" xlink:title=" ">
<polygon fill="white" stroke="black" points="481,-56.5 481,-75.5 561,-75.5 561,-56.5 481,-56.5"/>
<text text-anchor="middle" x="521" y="-63.5" font-family="Helvetica,sans-Serif" font-size="10.00">IMemory.hpp</text>
</a>
</g>
</g>
<!-- Node4&#45;&gt;Node10 -->
<g id="edge10" class="edge">
<title>Node4&#45;&gt;Node10</title>
<path fill="none" stroke="midnightblue" d="M625.35,-112.44C605.04,-103.6 573.1,-89.69 549.9,-79.59"/>
<polygon fill="midnightblue" stroke="midnightblue" points="551.12,-76.3 540.56,-75.52 548.33,-82.72 551.12,-76.3"/>
</g>
<!-- Node10&#45;&gt;Node2 -->
<g id="edge15" class="edge">
<title>Node10&#45;&gt;Node2</title>
<path fill="none" stroke="midnightblue" d="M480.68,-58.54C422.85,-49.27 315.8,-32.12 247.33,-21.15"/>
<polygon fill="midnightblue" stroke="midnightblue" points="247.53,-17.64 237.11,-19.51 246.43,-24.55 247.53,-17.64"/>
</g>
<!-- Node10&#45;&gt;Node5 -->
<g id="edge11" class="edge">
<title>Node10&#45;&gt;Node5</title>
<path fill="none" stroke="midnightblue" d="M561.09,-58.11C623.01,-47.46 740.9,-27.18 799.75,-17.06"/>
<polygon fill="midnightblue" stroke="midnightblue" points="800.42,-20.5 809.69,-15.35 799.24,-13.6 800.42,-20.5"/>
</g>
<!-- Node10&#45;&gt;Node6 -->
<g id="edge12" class="edge">
<title>Node10&#45;&gt;Node6</title>
<path fill="none" stroke="midnightblue" d="M539.22,-56.44C557.9,-47.68 587.16,-33.94 608.62,-23.86"/>
<polygon fill="midnightblue" stroke="midnightblue" points="610.3,-26.93 617.86,-19.52 607.32,-20.6 610.3,-26.93"/>
</g>
<!-- Node10&#45;&gt;Node7 -->
<g id="edge13" class="edge">
<title>Node10&#45;&gt;Node7</title>
<path fill="none" stroke="midnightblue" d="M556.18,-56.44C596.39,-46.66 662.02,-30.7 703.83,-20.53"/>
<polygon fill="midnightblue" stroke="midnightblue" points="704.77,-23.9 713.66,-18.14 703.12,-17.1 704.77,-23.9"/>
</g>
<!-- Node10&#45;&gt;Node8 -->
<g id="edge14" class="edge">
<title>Node10&#45;&gt;Node8</title>
<path fill="none" stroke="midnightblue" d="M493.27,-56.44C461.83,-46.74 410.66,-30.95 377.67,-20.77"/>
<polygon fill="midnightblue" stroke="midnightblue" points="378.65,-17.41 368.06,-17.81 376.58,-24.1 378.65,-17.41"/>
</g>
<!-- Node10&#45;&gt;Node9 -->
<g id="edge16" class="edge">
<title>Node10&#45;&gt;Node9</title>
<path fill="none" stroke="midnightblue" d="M521,-56.08C521,-49.01 521,-38.86 521,-29.99"/>
<polygon fill="midnightblue" stroke="midnightblue" points="524.5,-29.75 521,-19.75 517.5,-29.75 524.5,-29.75"/>
</g>
<!-- Node11&#45;&gt;Node4 -->
<g id="edge21" class="edge">
<title>Node11&#45;&gt;Node4</title>
<path fill="none" stroke="midnightblue" d="M703.75,-168.32C693.2,-160.18 677.2,-147.84 664.56,-138.09"/>
<polygon fill="midnightblue" stroke="midnightblue" points="666.51,-135.17 656.45,-131.83 662.23,-140.71 666.51,-135.17"/>
</g>
<!-- Node11&#45;&gt;Node5 -->
<g id="edge18" class="edge">
<title>Node11&#45;&gt;Node5</title>
<path fill="none" stroke="midnightblue" d="M728.76,-168.32C740.99,-160.09 758.77,-146.81 771,-132 797.76,-99.6 818.09,-54.22 828.1,-29.26"/>
<polygon fill="midnightblue" stroke="midnightblue" points="831.48,-30.22 831.86,-19.63 824.96,-27.67 831.48,-30.22"/>
</g>
<!-- Node11&#45;&gt;Node6 -->
<g id="edge19" class="edge">
<title>Node11&#45;&gt;Node6</title>
<path fill="none" stroke="midnightblue" d="M718.35,-168.28C722.73,-155.52 729.06,-131.17 722,-112 708.79,-76.1 676.51,-44.26 655.47,-26.33"/>
<polygon fill="midnightblue" stroke="midnightblue" points="657.44,-23.41 647.5,-19.74 652.98,-28.81 657.44,-23.41"/>
</g>
<!-- Node11&#45;&gt;Node7 -->
<g id="edge20" class="edge">
<title>Node11&#45;&gt;Node7</title>
<path fill="none" stroke="midnightblue" d="M726.27,-168.43C735.97,-160.27 749.28,-147.05 755,-132 768.14,-97.44 757.68,-53.52 749.76,-29.23"/>
<polygon fill="midnightblue" stroke="midnightblue" points="752.99,-27.86 746.4,-19.56 746.38,-30.15 752.99,-27.86"/>
</g>
<!-- Node12&#45;&gt;Node2 -->
<g id="edge26" class="edge">
<title>Node12&#45;&gt;Node2</title>
<path fill="none" stroke="midnightblue" d="M291.93,-228.79C232.18,-223.56 152.88,-212.17 133,-188 116.55,-168 128.32,-186.72 164,-76 169.04,-60.37 174.5,-42.54 178.45,-29.52"/>
<polygon fill="midnightblue" stroke="midnightblue" points="181.82,-30.44 181.36,-19.85 175.12,-28.42 181.82,-30.44"/>
</g>
<!-- Node12&#45;&gt;Node4 -->
<g id="edge25" class="edge">
<title>Node12&#45;&gt;Node4</title>
<path fill="none" stroke="midnightblue" d="M384.21,-224.37C434.22,-204.93 555.79,-157.67 613.54,-135.23"/>
<polygon fill="midnightblue" stroke="midnightblue" points="614.84,-138.48 622.9,-131.59 612.31,-131.95 614.84,-138.48"/>
</g>
<!-- Node12&#45;&gt;Node8 -->
<g id="edge24" class="edge">
<title>Node12&#45;&gt;Node8</title>
<path fill="none" stroke="midnightblue" d="M357.12,-224.37C352.44,-215.55 345.69,-201.3 343,-188 331.54,-131.39 338.52,-62.52 343.04,-29.88"/>
<polygon fill="midnightblue" stroke="midnightblue" points="346.57,-30 344.56,-19.59 339.64,-28.98 346.57,-30"/>
</g>
<!-- Node13 -->
<g id="node13" class="node">
<title>Node13</title>
<g id="a_node13"><a xlink:href="ARectangleMemory_8hpp.html" target="_top" xlink:title=" ">
<polygon fill="white" stroke="black" points="373.5,-112.5 373.5,-131.5 558.5,-131.5 558.5,-112.5 373.5,-112.5"/>
<text text-anchor="middle" x="466" y="-119.5" font-family="Helvetica,sans-Serif" font-size="10.00">../Memory/ARectangleMemory.hpp</text>
</a>
</g>
</g>
<!-- Node12&#45;&gt;Node13 -->
<g id="edge27" class="edge">
<title>Node12&#45;&gt;Node13</title>
<path fill="none" stroke="midnightblue" d="M399.61,-224.47C419.8,-217.91 443.29,-206.69 457,-188 466.69,-174.8 468.33,-155.93 467.91,-141.92"/>
<polygon fill="midnightblue" stroke="midnightblue" points="471.38,-141.26 467.21,-131.52 464.39,-141.74 471.38,-141.26"/>
</g>
<!-- Node14 -->
<g id="node14" class="node">
<title>Node14</title>
<g id="a_node14"><a xlink:href="InterruptVectors_8hpp.html" target="_top" xlink:title=" ">
<polygon fill="white" stroke="black" points="142,-168.5 142,-187.5 258,-187.5 258,-168.5 142,-168.5"/>
<text text-anchor="middle" x="200" y="-175.5" font-family="Helvetica,sans-Serif" font-size="10.00">InterruptVectors.hpp</text>
</a>
</g>
</g>
<!-- Node12&#45;&gt;Node14 -->
<g id="edge29" class="edge">
<title>Node12&#45;&gt;Node14</title>
<path fill="none" stroke="midnightblue" d="M336.33,-224.44C309.08,-215.36 265.82,-200.94 235.35,-190.78"/>
<polygon fill="midnightblue" stroke="midnightblue" points="236.14,-187.36 225.55,-187.52 233.93,-194 236.14,-187.36"/>
</g>
<!-- Node15 -->
<g id="node15" class="node">
<title>Node15</title>
<g id="a_node15"><a xlink:href="Ram_8hpp.html" target="_top" xlink:title=" ">
<polygon fill="white" stroke="black" points="352.5,-168.5 352.5,-187.5 447.5,-187.5 447.5,-168.5 352.5,-168.5"/>
<text text-anchor="middle" x="400" y="-175.5" font-family="Helvetica,sans-Serif" font-size="10.00">../Ram/Ram.hpp</text>
</a>
</g>
</g>
<!-- Node12&#45;&gt;Node15 -->
<g id="edge30" class="edge">
<title>Node12&#45;&gt;Node15</title>
<path fill="none" stroke="midnightblue" d="M368.27,-224.08C373.64,-216.46 381.52,-205.26 388.08,-195.94"/>
<polygon fill="midnightblue" stroke="midnightblue" points="390.95,-197.94 393.84,-187.75 385.22,-193.91 390.95,-197.94"/>
</g>
<!-- Node13&#45;&gt;Node10 -->
<g id="edge28" class="edge">
<title>Node13&#45;&gt;Node10</title>
<path fill="none" stroke="midnightblue" d="M475.08,-112.08C483.17,-104.14 495.2,-92.34 504.91,-82.8"/>
<polygon fill="midnightblue" stroke="midnightblue" points="507.4,-85.25 512.09,-75.75 502.5,-80.26 507.4,-85.25"/>
</g>
<!-- Node15&#45;&gt;Node8 -->
<g id="edge32" class="edge">
<title>Node15&#45;&gt;Node8</title>
<path fill="none" stroke="midnightblue" d="M390.96,-168.25C382.79,-159.78 371.13,-146.17 365,-132 350.27,-97.97 346.79,-54.15 346.07,-29.68"/>
<polygon fill="midnightblue" stroke="midnightblue" points="349.57,-29.56 345.9,-19.62 342.57,-29.68 349.57,-29.56"/>
</g>
<!-- Node15&#45;&gt;Node13 -->
<g id="edge31" class="edge">
<title>Node15&#45;&gt;Node13</title>
<path fill="none" stroke="midnightblue" d="M410.6,-168.32C420.46,-160.26 435.35,-148.08 447.22,-138.37"/>
<polygon fill="midnightblue" stroke="midnightblue" points="449.68,-140.88 455.2,-131.83 445.25,-135.46 449.68,-140.88"/>
</g>
<!-- Node16&#45;&gt;Node2 -->
<g id="edge35" class="edge">
<title>Node16&#45;&gt;Node2</title>
<path fill="none" stroke="midnightblue" d="M122.73,-56.32C133.84,-48.11 150.74,-35.6 163.98,-25.81"/>
<polygon fill="midnightblue" stroke="midnightblue" points="166.1,-28.59 172.06,-19.83 161.94,-22.97 166.1,-28.59"/>
</g>
<!-- Node16&#45;&gt;Node8 -->
<g id="edge34" class="edge">
<title>Node16&#45;&gt;Node8</title>
<path fill="none" stroke="midnightblue" d="M148.24,-56.44C193.91,-45.95 270.58,-28.33 313.81,-18.4"/>
<polygon fill="midnightblue" stroke="midnightblue" points="314.83,-21.75 323.79,-16.1 313.26,-14.93 314.83,-21.75"/>
</g>
<!-- Node17&#45;&gt;Node2 -->
<g id="edge39" class="edge">
<title>Node17&#45;&gt;Node2</title>
<path fill="none" stroke="midnightblue" d="M671.29,-231.54C585.66,-228.06 399.27,-217.27 343,-188 270.65,-150.36 215.32,-65.5 193.8,-28.64"/>
<polygon fill="midnightblue" stroke="midnightblue" points="196.63,-26.55 188.63,-19.6 190.55,-30.02 196.63,-26.55"/>
</g>
<!-- Node17&#45;&gt;Node5 -->
<g id="edge37" class="edge">
<title>Node17&#45;&gt;Node5</title>
<path fill="none" stroke="midnightblue" d="M758.69,-224.46C779.69,-218.04 803.23,-206.95 817,-188 851.74,-140.18 844.6,-64.95 838.78,-30.01"/>
<polygon fill="midnightblue" stroke="midnightblue" points="842.16,-29.01 836.92,-19.8 835.27,-30.26 842.16,-29.01"/>
</g>
<!-- Node17&#45;&gt;Node7 -->
<g id="edge38" class="edge">
<title>Node17&#45;&gt;Node7</title>
<path fill="none" stroke="midnightblue" d="M747.99,-224.44C766.46,-217.77 787.95,-206.45 799,-188 831.08,-134.41 782.51,-60.53 757,-27.79"/>
<polygon fill="midnightblue" stroke="midnightblue" points="759.49,-25.3 750.5,-19.69 754.03,-29.68 759.49,-25.3"/>
</g>
<!-- Node17&#45;&gt;Node11 -->
<g id="edge40" class="edge">
<title>Node17&#45;&gt;Node11</title>
<path fill="none" stroke="midnightblue" d="M715,-224.08C715,-217.01 715,-206.86 715,-197.99"/>
<polygon fill="midnightblue" stroke="midnightblue" points="718.5,-197.75 715,-187.75 711.5,-197.75 718.5,-197.75"/>
</g>
</g>
</svg>
