<?xml version="1.0" encoding="UTF-8" standalone="no"?>
<!DOCTYPE svg PUBLIC "-//W3C//DTD SVG 1.1//EN"
 "http://www.w3.org/Graphics/SVG/1.1/DTD/svg11.dtd">
<!-- Generated by graphviz version 2.43.0 (0)
 -->
<!-- Title: sources/Memory/AMemory.hpp Pages: 1 -->
<svg width="554pt" height="140pt"
 viewBox="0.00 0.00 554.00 140.00" xmlns="http://www.w3.org/2000/svg" xmlns:xlink="http://www.w3.org/1999/xlink">
<g id="graph0" class="graph" transform="scale(1 1) rotate(0) translate(4 136)">
<title>sources/Memory/AMemory.hpp</title>
<polygon fill="white" stroke="transparent" points="-4,4 -4,-136 550,-136 550,4 -4,4"/>
<!-- Node1 -->
<g id="node1" class="node">
<title>Node1</title>
<g id="a_node1"><a xlink:title=" ">
<polygon fill="#bfbfbf" stroke="black" points="128.5,-112.5 128.5,-131.5 295.5,-131.5 295.5,-112.5 128.5,-112.5"/>
<text text-anchor="middle" x="212" y="-119.5" font-family="Helvetica,sans-Serif" font-size="10.00">sources/Memory/AMemory.hpp</text>
</a>
</g>
</g>
<!-- Node2 -->
<g id="node2" class="node">
<title>Node2</title>
<g id="a_node2"><a xlink:title=" ">
<polygon fill="white" stroke="#bfbfbf" points="0,-0.5 0,-19.5 50,-19.5 50,-0.5 0,-0.5"/>
<text text-anchor="middle" x="25" y="-7.5" font-family="Helvetica,sans-Serif" font-size="10.00">cstdint</text>
</a>
</g>
</g>
<!-- Node1&#45;&gt;Node2 -->
<g id="edge1" class="edge">
<title>Node1&#45;&gt;Node2</title>
<path fill="none" stroke="midnightblue" d="M196.28,-112.36C180.08,-103.41 154.15,-88.95 132,-76 102.58,-58.8 69.06,-38.28 47.5,-24.97"/>
<polygon fill="midnightblue" stroke="midnightblue" points="49.11,-21.85 38.76,-19.56 45.42,-27.8 49.11,-21.85"/>
</g>
<!-- Node3 -->
<g id="node3" class="node">
<title>Node3</title>
<g id="a_node3"><a xlink:title=" ">
<polygon fill="white" stroke="#bfbfbf" points="68.5,-0.5 68.5,-19.5 115.5,-19.5 115.5,-0.5 68.5,-0.5"/>
<text text-anchor="middle" x="92" y="-7.5" font-family="Helvetica,sans-Serif" font-size="10.00">vector</text>
</a>
</g>
</g>
<!-- Node1&#45;&gt;Node3 -->
<g id="edge2" class="edge">
<title>Node1&#45;&gt;Node3</title>
<path fill="none" stroke="midnightblue" d="M200.28,-112.47C188.49,-103.72 169.97,-89.52 155,-76 137.62,-60.3 119.12,-40.84 106.7,-27.33"/>
<polygon fill="midnightblue" stroke="midnightblue" points="109.13,-24.81 99.81,-19.77 103.96,-29.52 109.13,-24.81"/>
</g>
<!-- Node4 -->
<g id="node4" class="node">
<title>Node4</title>
<g id="a_node4"><a xlink:title=" ">
<polygon fill="white" stroke="#bfbfbf" points="134,-0.5 134,-19.5 192,-19.5 192,-0.5 134,-0.5"/>
<text text-anchor="middle" x="163" y="-7.5" font-family="Helvetica,sans-Serif" font-size="10.00">memory</text>
</a>
</g>
</g>
<!-- Node1&#45;&gt;Node4 -->
<g id="edge3" class="edge">
<title>Node1&#45;&gt;Node4</title>
<path fill="none" stroke="midnightblue" d="M197.34,-112.4C185.59,-104.58 169.97,-91.86 163,-76 156.62,-61.47 157.25,-43.29 159.11,-29.85"/>
<polygon fill="midnightblue" stroke="midnightblue" points="162.58,-30.32 160.84,-19.87 155.68,-29.12 162.58,-30.32"/>
</g>
<!-- Node5 -->
<g id="node5" class="node">
<title>Node5</title>
<g id="a_node5"><a xlink:title=" ">
<polygon fill="white" stroke="#bfbfbf" points="210,-0.5 210,-19.5 254,-19.5 254,-0.5 210,-0.5"/>
<text text-anchor="middle" x="232" y="-7.5" font-family="Helvetica,sans-Serif" font-size="10.00">string</text>
</a>
</g>
</g>
<!-- Node1&#45;&gt;Node5 -->
<g id="edge4" class="edge">
<title>Node1&#45;&gt;Node5</title>
<path fill="none" stroke="midnightblue" d="M226.66,-112.4C238.41,-104.58 254.03,-91.86 261,-76 268.26,-59.48 257.8,-40.66 247.48,-27.54"/>
<polygon fill="midnightblue" stroke="midnightblue" points="250.05,-25.16 240.9,-19.82 244.72,-29.7 250.05,-25.16"/>
</g>
<!-- Node6 -->
<g id="node6" class="node">
<title>Node6</title>
<g id="a_node6"><a xlink:href="Int24_8hpp.html" target="_top" xlink:title=" ">
<polygon fill="white" stroke="black" points="272,-0.5 272,-19.5 382,-19.5 382,-0.5 272,-0.5"/>
<text text-anchor="middle" x="327" y="-7.5" font-family="Helvetica,sans-Serif" font-size="10.00">../Models/Int24.hpp</text>
</a>
</g>
</g>
<!-- Node1&#45;&gt;Node6 -->
<g id="edge5" class="edge">
<title>Node1&#45;&gt;Node6</title>
<path fill="none" stroke="midnightblue" d="M227.17,-112.36C241.01,-104.07 261.58,-90.66 277,-76 292.26,-61.49 306.57,-42.06 315.94,-28.23"/>
<polygon fill="midnightblue" stroke="midnightblue" points="319,-29.95 321.59,-19.68 313.16,-26.09 319,-29.95"/>
</g>
<!-- Node7 -->
<g id="node7" class="node">
<title>Node7</title>
<g id="a_node7"><a xlink:href="Components_8hpp.html" target="_top" xlink:title=" ">
<polygon fill="white" stroke="black" points="400,-0.5 400,-19.5 546,-19.5 546,-0.5 400,-0.5"/>
<text text-anchor="middle" x="473" y="-7.5" font-family="Helvetica,sans-Serif" font-size="10.00">../Models/Components.hpp</text>
</a>
</g>
</g>
<!-- Node1&#45;&gt;Node7 -->
<g id="edge6" class="edge">
<title>Node1&#45;&gt;Node7</title>
<path fill="none" stroke="midnightblue" d="M232.48,-112.37C278.41,-93.01 389.8,-46.06 443.32,-23.51"/>
<polygon fill="midnightblue" stroke="midnightblue" points="444.76,-26.7 452.61,-19.59 442.04,-20.25 444.76,-26.7"/>
</g>
<!-- Node8 -->
<g id="node8" class="node">
<title>Node8</title>
<g id="a_node8"><a xlink:href="IMemory_8hpp.html" target="_top" xlink:title=" ">
<polygon fill="white" stroke="black" points="172,-56.5 172,-75.5 252,-75.5 252,-56.5 172,-56.5"/>
<text text-anchor="middle" x="212" y="-63.5" font-family="Helvetica,sans-Serif" font-size="10.00">IMemory.hpp</text>
</a>
</g>
</g>
<!-- Node1&#45;&gt;Node8 -->
<g id="edge7" class="edge">
<title>Node1&#45;&gt;Node8</title>
<path fill="none" stroke="midnightblue" d="M212,-112.08C212,-105.01 212,-94.86 212,-85.99"/>
<polygon fill="midnightblue" stroke="midnightblue" points="215.5,-85.75 212,-75.75 208.5,-85.75 215.5,-85.75"/>
</g>
<!-- Node8&#45;&gt;Node2 -->
<g id="edge8" class="edge">
<title>Node8&#45;&gt;Node2</title>
<path fill="none" stroke="midnightblue" d="M182.37,-56.44C149.09,-46.83 95.15,-31.26 59.87,-21.07"/>
<polygon fill="midnightblue" stroke="midnightblue" points="60.58,-17.63 50,-18.22 58.64,-24.36 60.58,-17.63"/>
</g>
<!-- Node8&#45;&gt;Node3 -->
<g id="edge9" class="edge">
<title>Node8&#45;&gt;Node3</title>
<path fill="none" stroke="midnightblue" d="M192.99,-56.44C173.41,-47.64 142.69,-33.81 120.27,-23.72"/>
<polygon fill="midnightblue" stroke="midnightblue" points="121.48,-20.43 110.93,-19.52 118.61,-26.81 121.48,-20.43"/>
</g>
<!-- Node8&#45;&gt;Node4 -->
<g id="edge10" class="edge">
<title>Node8&#45;&gt;Node4</title>
<path fill="none" stroke="midnightblue" d="M203.91,-56.08C196.84,-48.3 186.41,-36.8 177.85,-27.37"/>
<polygon fill="midnightblue" stroke="midnightblue" points="180.25,-24.8 170.94,-19.75 175.07,-29.51 180.25,-24.8"/>
</g>
<!-- Node8&#45;&gt;Node5 -->
<g id="edge11" class="edge">
<title>Node8&#45;&gt;Node5</title>
<path fill="none" stroke="midnightblue" d="M215.3,-56.08C217.98,-48.85 221.85,-38.41 225.19,-29.4"/>
<polygon fill="midnightblue" stroke="midnightblue" points="228.57,-30.34 228.76,-19.75 222,-27.91 228.57,-30.34"/>
</g>
<!-- Node8&#45;&gt;Node6 -->
<g id="edge12" class="edge">
<title>Node8&#45;&gt;Node6</title>
<path fill="none" stroke="midnightblue" d="M230.22,-56.44C248.9,-47.68 278.16,-33.94 299.62,-23.86"/>
<polygon fill="midnightblue" stroke="midnightblue" points="301.3,-26.93 308.86,-19.52 298.32,-20.6 301.3,-26.93"/>
</g>
<!-- Node8&#45;&gt;Node7 -->
<g id="edge13" class="edge">
<title>Node8&#45;&gt;Node7</title>
<path fill="none" stroke="midnightblue" d="M252.21,-56.68C297.83,-47.24 372.32,-31.83 421.99,-21.55"/>
<polygon fill="midnightblue" stroke="midnightblue" points="422.8,-24.96 431.88,-19.51 421.38,-18.11 422.8,-24.96"/>
</g>
</g>
</svg>
