<?xml version="1.0" encoding="UTF-8" standalone="no"?>
<!DOCTYPE svg PUBLIC "-//W3C//DTD SVG 1.1//EN"
 "http://www.w3.org/Graphics/SVG/1.1/DTD/svg11.dtd">
<!-- Generated by graphviz version 2.43.0 (0)
 -->
<!-- Title: sources/Memory/AMemory.hpp Pages: 1 -->
<svg width="4589pt" height="263pt"
 viewBox="0.00 0.00 4589.00 263.00" xmlns="http://www.w3.org/2000/svg" xmlns:xlink="http://www.w3.org/1999/xlink">
<g id="graph0" class="graph" transform="scale(1 1) rotate(0) translate(4 259)">
<title>sources/Memory/AMemory.hpp</title>
<polygon fill="white" stroke="transparent" points="-4,4 -4,-259 4585,-259 4585,4 -4,4"/>
<!-- Node1 -->
<g id="node1" class="node">
<title>Node1</title>
<g id="a_node1"><a xlink:title=" ">
<polygon fill="#bfbfbf" stroke="black" points="2510,-235.5 2510,-254.5 2677,-254.5 2677,-235.5 2510,-235.5"/>
<text text-anchor="middle" x="2593.5" y="-242.5" font-family="Helvetica,sans-Serif" font-size="10.00">sources/Memory/AMemory.hpp</text>
</a>
</g>
</g>
<!-- Node2 -->
<g id="node2" class="node">
<title>Node2</title>
<g id="a_node2"><a xlink:href="DSP_8hpp.html" target="_top" xlink:title=" ">
<polygon fill="white" stroke="black" points="2982.5,-179.5 2982.5,-198.5 3124.5,-198.5 3124.5,-179.5 2982.5,-179.5"/>
<text text-anchor="middle" x="3053.5" y="-186.5" font-family="Helvetica,sans-Serif" font-size="10.00">sources/APU/DSP/DSP.hpp</text>
</a>
</g>
</g>
<!-- Node1&#45;&gt;Node2 -->
<g id="edge1" class="edge">
<title>Node1&#45;&gt;Node2</title>
<path fill="none" stroke="midnightblue" d="M2676.27,-234.28C2763.59,-224.03 2899.74,-208.05 2982.38,-198.35"/>
<polygon fill="midnightblue" stroke="midnightblue" points="2675.66,-230.83 2666.13,-235.47 2676.47,-237.78 2675.66,-230.83"/>
</g>
<!-- Node3 -->
<g id="node3" class="node">
<title>Node3</title>
<g id="a_node3"><a xlink:href="APU_8hpp.html" target="_top" xlink:title=" ">
<polygon fill="white" stroke="black" points="2665.5,-123.5 2665.5,-142.5 2787.5,-142.5 2787.5,-123.5 2665.5,-123.5"/>
<text text-anchor="middle" x="2726.5" y="-130.5" font-family="Helvetica,sans-Serif" font-size="10.00">sources/APU/APU.hpp</text>
</a>
</g>
</g>
<!-- Node1&#45;&gt;Node3 -->
<g id="edge38" class="edge">
<title>Node1&#45;&gt;Node3</title>
<path fill="none" stroke="midnightblue" d="M2620.34,-230.81C2635.54,-222.7 2654.45,-211.49 2669.5,-199 2690.52,-181.55 2710.46,-156.06 2720.23,-142.78"/>
<polygon fill="midnightblue" stroke="midnightblue" points="2618.69,-227.73 2611.43,-235.44 2621.91,-233.94 2618.69,-227.73"/>
</g>
<!-- Node67 -->
<g id="node33" class="node">
<title>Node67</title>
<g id="a_node33"><a xlink:href="IPL_8hpp.html" target="_top" xlink:title=" ">
<polygon fill="white" stroke="black" points="2527,-179.5 2527,-198.5 2660,-198.5 2660,-179.5 2527,-179.5"/>
<text text-anchor="middle" x="2593.5" y="-186.5" font-family="Helvetica,sans-Serif" font-size="10.00">sources/APU/IPL/IPL.hpp</text>
</a>
</g>
</g>
<!-- Node1&#45;&gt;Node67 -->
<g id="edge39" class="edge">
<title>Node1&#45;&gt;Node67</title>
<path fill="none" stroke="midnightblue" d="M2593.5,-224.8C2593.5,-215.91 2593.5,-205.78 2593.5,-198.75"/>
<polygon fill="midnightblue" stroke="midnightblue" points="2590,-225.08 2593.5,-235.08 2597,-225.08 2590,-225.08"/>
</g>
<!-- Node69 -->
<g id="node35" class="node">
<title>Node69</title>
<g id="a_node35"><a xlink:href="Cartridge_8hpp.html" target="_top" xlink:title=" ">
<polygon fill="white" stroke="black" points="959,-179.5 959,-198.5 1130,-198.5 1130,-179.5 959,-179.5"/>
<text text-anchor="middle" x="1044.5" y="-186.5" font-family="Helvetica,sans-Serif" font-size="10.00">sources/Cartridge/Cartridge.hpp</text>
</a>
</g>
</g>
<!-- Node1&#45;&gt;Node69 -->
<g id="edge42" class="edge">
<title>Node1&#45;&gt;Node69</title>
<path fill="none" stroke="midnightblue" d="M2499.56,-241.74C2275.32,-236.18 1691.08,-220.69 1203.5,-199 1179.75,-197.94 1154.01,-196.58 1130.3,-195.24"/>
<polygon fill="midnightblue" stroke="midnightblue" points="2499.56,-245.24 2509.65,-241.99 2499.74,-238.25 2499.56,-245.24"/>
</g>
<!-- Node71 -->
<g id="node37" class="node">
<title>Node71</title>
<g id="a_node37"><a xlink:href="CPU_8hpp.html" target="_top" xlink:title=" ">
<polygon fill="white" stroke="red" points="983.5,-123.5 983.5,-142.5 1105.5,-142.5 1105.5,-123.5 983.5,-123.5"/>
<text text-anchor="middle" x="1044.5" y="-130.5" font-family="Helvetica,sans-Serif" font-size="10.00">sources/CPU/CPU.hpp</text>
</a>
</g>
</g>
<!-- Node1&#45;&gt;Node71 -->
<g id="edge56" class="edge">
<title>Node1&#45;&gt;Node71</title>
<path fill="none" stroke="midnightblue" d="M2499.92,-243.41C2242.6,-241.37 1528.09,-232.73 1295.5,-199 1211.3,-186.79 1114.62,-157.18 1069.78,-142.52"/>
<polygon fill="midnightblue" stroke="midnightblue" points="2499.96,-246.91 2509.99,-243.49 2500.01,-239.91 2499.96,-246.91"/>
</g>
<!-- Node81 -->
<g id="node47" class="node">
<title>Node81</title>
<g id="a_node47"><a xlink:href="MemoryBus_8hpp.html" target="_top" xlink:title=" ">
<polygon fill="white" stroke="red" points="1304.5,-179.5 1304.5,-198.5 1484.5,-198.5 1484.5,-179.5 1304.5,-179.5"/>
<text text-anchor="middle" x="1394.5" y="-186.5" font-family="Helvetica,sans-Serif" font-size="10.00">sources/Memory/MemoryBus.hpp</text>
</a>
</g>
</g>
<!-- Node1&#45;&gt;Node81 -->
<g id="edge57" class="edge">
<title>Node1&#45;&gt;Node81</title>
<path fill="none" stroke="midnightblue" d="M2499.53,-239.77C2274.38,-229.63 1706.38,-204.05 1484.9,-194.07"/>
<polygon fill="midnightblue" stroke="midnightblue" points="2499.52,-243.27 2509.67,-240.22 2499.83,-236.28 2499.52,-243.27"/>
</g>
<!-- Node84 -->
<g id="node48" class="node">
<title>Node84</title>
<g id="a_node48"><a xlink:href="PPU_8hpp.html" target="_top" xlink:title=" ">
<polygon fill="white" stroke="red" points="1378.5,-123.5 1378.5,-142.5 1498.5,-142.5 1498.5,-123.5 1378.5,-123.5"/>
<text text-anchor="middle" x="1438.5" y="-130.5" font-family="Helvetica,sans-Serif" font-size="10.00">sources/PPU/PPU.hpp</text>
</a>
</g>
</g>
<!-- Node1&#45;&gt;Node84 -->
<g id="edge62" class="edge">
<title>Node1&#45;&gt;Node84</title>
<path fill="none" stroke="midnightblue" d="M2500,-235.1C2271.14,-213.3 1687.75,-157.74 1498.66,-139.73"/>
<polygon fill="midnightblue" stroke="midnightblue" points="2499.68,-238.58 2509.97,-236.04 2500.35,-231.61 2499.68,-238.58"/>
</g>
<!-- Node91 -->
<g id="node49" class="node">
<title>Node91</title>
<g id="a_node49"><a xlink:href="MemoryShadow_8hpp.html" target="_top" xlink:title=" ">
<polygon fill="white" stroke="red" points="3142.5,-179.5 3142.5,-198.5 3342.5,-198.5 3342.5,-179.5 3142.5,-179.5"/>
<text text-anchor="middle" x="3242.5" y="-186.5" font-family="Helvetica,sans-Serif" font-size="10.00">sources/Memory/MemoryShadow.hpp</text>
</a>
</g>
</g>
<!-- Node1&#45;&gt;Node91 -->
<g id="edge63" class="edge">
<title>Node1&#45;&gt;Node91</title>
<path fill="none" stroke="midnightblue" d="M2687.01,-236.22C2808.03,-226.15 3018.07,-208.67 3142.28,-198.34"/>
<polygon fill="midnightblue" stroke="midnightblue" points="2686.69,-232.73 2677.02,-237.05 2687.27,-239.71 2686.69,-232.73"/>
</g>
<!-- Node95 -->
<g id="node50" class="node">
<title>Node95</title>
<g id="a_node50"><a xlink:href="AMemory_8cpp.html" target="_top" xlink:title=" ">
<polygon fill="white" stroke="black" points="3361,-179.5 3361,-198.5 3528,-198.5 3528,-179.5 3361,-179.5"/>
<text text-anchor="middle" x="3444.5" y="-186.5" font-family="Helvetica,sans-Serif" font-size="10.00">sources/Memory/AMemory.cpp</text>
</a>
</g>
</g>
<!-- Node1&#45;&gt;Node95 -->
<g id="edge64" class="edge">
<title>Node1&#45;&gt;Node95</title>
<path fill="none" stroke="midnightblue" d="M2687.2,-239.56C2830.45,-232.52 3112.45,-217.66 3351.5,-199 3354.57,-198.76 3357.7,-198.51 3360.86,-198.24"/>
<polygon fill="midnightblue" stroke="midnightblue" points="2686.95,-236.07 2677.13,-240.05 2687.29,-243.06 2686.95,-236.07"/>
</g>
<!-- Node2&#45;&gt;Node3 -->
<g id="edge2" class="edge">
<title>Node2&#45;&gt;Node3</title>
<path fill="none" stroke="midnightblue" d="M2991.68,-177.79C2929.89,-167.59 2835.97,-152.08 2778.07,-142.52"/>
<polygon fill="midnightblue" stroke="midnightblue" points="2991.25,-181.27 3001.69,-179.44 2992.39,-174.36 2991.25,-181.27"/>
</g>
<!-- Node5 -->
<g id="node5" class="node">
<title>Node5</title>
<g id="a_node5"><a xlink:href="DSP_8cpp.html" target="_top" xlink:title=" ">
<polygon fill="white" stroke="black" points="4273,-62 4273,-81 4414,-81 4414,-62 4273,-62"/>
<text text-anchor="middle" x="4343.5" y="-69" font-family="Helvetica,sans-Serif" font-size="10.00">sources/APU/DSP/DSP.cpp</text>
</a>
</g>
</g>
<!-- Node2&#45;&gt;Node5 -->
<g id="edge32" class="edge">
<title>Node2&#45;&gt;Node5</title>
<path fill="none" stroke="midnightblue" d="M3134.67,-178.92C3292.61,-163.07 3338.14,-184.07 3487.5,-143 3507.82,-137.41 3510.04,-128.05 3530.5,-123 3847.58,-44.67 3940.05,-124.56 4264.5,-87 4276.97,-85.56 4290.43,-83.34 4302.65,-81.06"/>
<polygon fill="midnightblue" stroke="midnightblue" points="3134.18,-175.45 3124.6,-179.96 3134.9,-182.41 3134.18,-175.45"/>
</g>
<!-- Node6 -->
<g id="node6" class="node">
<title>Node6</title>
<g id="a_node6"><a xlink:href="Voice_8cpp.html" target="_top" xlink:title=" ">
<polygon fill="white" stroke="black" points="4432,-62 4432,-81 4581,-81 4581,-62 4432,-62"/>
<text text-anchor="middle" x="4506.5" y="-69" font-family="Helvetica,sans-Serif" font-size="10.00">sources/APU/DSP/Voice.cpp</text>
</a>
</g>
</g>
<!-- Node2&#45;&gt;Node6 -->
<g id="edge37" class="edge">
<title>Node2&#45;&gt;Node6</title>
<path fill="none" stroke="midnightblue" d="M3134.57,-178.94C3308.08,-162.3 3358.19,-188.18 3522.5,-143 3542.44,-137.52 3544.43,-127.98 3564.5,-123 3749.94,-77 4233.54,-107.48 4423.5,-87 4436.73,-85.57 4451.05,-83.33 4464,-81.03"/>
<polygon fill="midnightblue" stroke="midnightblue" points="3134.2,-175.46 3124.59,-179.93 3134.89,-182.42 3134.2,-175.46"/>
</g>
<!-- Node62 -->
<g id="node28" class="node">
<title>Node62</title>
<g id="a_node28"><a xlink:href="BRR_8cpp.html" target="_top" xlink:title=" ">
<polygon fill="white" stroke="black" points="3573,-123.5 3573,-142.5 3716,-142.5 3716,-123.5 3573,-123.5"/>
<text text-anchor="middle" x="3644.5" y="-130.5" font-family="Helvetica,sans-Serif" font-size="10.00">sources/APU/DSP/BRR.cpp</text>
</a>
</g>
</g>
<!-- Node2&#45;&gt;Node62 -->
<g id="edge31" class="edge">
<title>Node2&#45;&gt;Node62</title>
<path fill="none" stroke="midnightblue" d="M3134.59,-178.92C3323.82,-160.41 3373,-160.56 3558.5,-143 3563.13,-142.56 3567.91,-142.1 3572.71,-141.62"/>
<polygon fill="midnightblue" stroke="midnightblue" points="3134.2,-175.44 3124.59,-179.9 3134.88,-182.41 3134.2,-175.44"/>
</g>
<!-- Node63 -->
<g id="node29" class="node">
<title>Node63</title>
<g id="a_node29"><a xlink:href="Echo_8cpp.html" target="_top" xlink:title=" ">
<polygon fill="white" stroke="black" points="2805.5,-123.5 2805.5,-142.5 2951.5,-142.5 2951.5,-123.5 2805.5,-123.5"/>
<text text-anchor="middle" x="2878.5" y="-130.5" font-family="Helvetica,sans-Serif" font-size="10.00">sources/APU/DSP/Echo.cpp</text>
</a>
</g>
</g>
<!-- Node2&#45;&gt;Node63 -->
<g id="edge33" class="edge">
<title>Node2&#45;&gt;Node63</title>
<path fill="none" stroke="midnightblue" d="M3016.03,-176.44C2983.03,-166.26 2935.74,-151.66 2906.1,-142.52"/>
<polygon fill="midnightblue" stroke="midnightblue" points="3015.18,-179.84 3025.77,-179.44 3017.25,-173.15 3015.18,-179.84"/>
</g>
<!-- Node64 -->
<g id="node30" class="node">
<title>Node64</title>
<g id="a_node30"><a xlink:href="Envelope_8cpp.html" target="_top" xlink:title=" ">
<polygon fill="white" stroke="black" points="2969.5,-123.5 2969.5,-142.5 3137.5,-142.5 3137.5,-123.5 2969.5,-123.5"/>
<text text-anchor="middle" x="3053.5" y="-130.5" font-family="Helvetica,sans-Serif" font-size="10.00">sources/APU/DSP/Envelope.cpp</text>
</a>
</g>
</g>
<!-- Node2&#45;&gt;Node64 -->
<g id="edge34" class="edge">
<title>Node2&#45;&gt;Node64</title>
<path fill="none" stroke="midnightblue" d="M3053.5,-168.8C3053.5,-159.91 3053.5,-149.78 3053.5,-142.75"/>
<polygon fill="midnightblue" stroke="midnightblue" points="3050,-169.08 3053.5,-179.08 3057,-169.08 3050,-169.08"/>
</g>
<!-- Node65 -->
<g id="node31" class="node">
<title>Node65</title>
<g id="a_node31"><a xlink:href="Gauss_8cpp.html" target="_top" xlink:title=" ">
<polygon fill="white" stroke="black" points="3156,-123.5 3156,-142.5 3309,-142.5 3309,-123.5 3156,-123.5"/>
<text text-anchor="middle" x="3232.5" y="-130.5" font-family="Helvetica,sans-Serif" font-size="10.00">sources/APU/DSP/Gauss.cpp</text>
</a>
</g>
</g>
<!-- Node2&#45;&gt;Node65 -->
<g id="edge35" class="edge">
<title>Node2&#45;&gt;Node65</title>
<path fill="none" stroke="midnightblue" d="M3091.83,-176.44C3125.58,-166.26 3173.95,-151.66 3204.27,-142.52"/>
<polygon fill="midnightblue" stroke="midnightblue" points="3090.43,-173.2 3081.86,-179.44 3092.45,-179.91 3090.43,-173.2"/>
</g>
<!-- Node66 -->
<g id="node32" class="node">
<title>Node66</title>
<g id="a_node32"><a xlink:href="Timer_8cpp.html" target="_top" xlink:title=" ">
<polygon fill="white" stroke="black" points="3327,-123.5 3327,-142.5 3478,-142.5 3478,-123.5 3327,-123.5"/>
<text text-anchor="middle" x="3402.5" y="-130.5" font-family="Helvetica,sans-Serif" font-size="10.00">sources/APU/DSP/Timer.cpp</text>
</a>
</g>
</g>
<!-- Node2&#45;&gt;Node66 -->
<g id="edge36" class="edge">
<title>Node2&#45;&gt;Node66</title>
<path fill="none" stroke="midnightblue" d="M3119.07,-177.85C3185.02,-167.65 3285.54,-152.1 3347.46,-142.52"/>
<polygon fill="midnightblue" stroke="midnightblue" points="3118.15,-174.46 3108.8,-179.44 3119.22,-181.37 3118.15,-174.46"/>
</g>
<!-- Node4 -->
<g id="node4" class="node">
<title>Node4</title>
<g id="a_node4"><a xlink:href="APU_8cpp.html" target="_top" xlink:title=" ">
<polygon fill="white" stroke="black" points="2843,-62 2843,-81 2964,-81 2964,-62 2843,-62"/>
<text text-anchor="middle" x="2903.5" y="-69" font-family="Helvetica,sans-Serif" font-size="10.00">sources/APU/APU.cpp</text>
</a>
</g>
</g>
<!-- Node3&#45;&gt;Node4 -->
<g id="edge3" class="edge">
<title>Node3&#45;&gt;Node4</title>
<path fill="none" stroke="midnightblue" d="M2761.51,-120.23C2795.91,-108.67 2847.58,-91.3 2878.19,-81.01"/>
<polygon fill="midnightblue" stroke="midnightblue" points="2760.22,-116.97 2751.86,-123.48 2762.45,-123.61 2760.22,-116.97"/>
</g>
<!-- Node3&#45;&gt;Node5 -->
<g id="edge4" class="edge">
<title>Node3&#45;&gt;Node5</title>
<path fill="none" stroke="midnightblue" d="M2797.65,-123.01C3448.98,-74.15 3618.65,-153.77 4264.5,-87 4277.4,-85.67 4291.35,-83.39 4303.89,-81.03"/>
<polygon fill="midnightblue" stroke="midnightblue" points="2797.25,-119.53 2787.55,-123.77 2797.78,-126.51 2797.25,-119.53"/>
</g>
<!-- Node3&#45;&gt;Node6 -->
<g id="edge5" class="edge">
<title>Node3&#45;&gt;Node6</title>
<path fill="none" stroke="midnightblue" d="M2797.67,-123.01C3519.49,-69.63 3706.99,-157.11 4423.5,-87 4437.04,-85.68 4451.7,-83.4 4464.87,-81.04"/>
<polygon fill="midnightblue" stroke="midnightblue" points="2797.26,-119.53 2787.54,-123.77 2797.78,-126.51 2797.26,-119.53"/>
</g>
<!-- Node7 -->
<g id="node7" class="node">
<title>Node7</title>
<g id="a_node7"><a xlink:href="16bitArithmetic_8cpp.html" target="_top" xlink:title=" ">
<polygon fill="white" stroke="black" points="2982,-56.5 2982,-86.5 3119,-86.5 3119,-56.5 2982,-56.5"/>
<text text-anchor="start" x="2990" y="-74.5" font-family="Helvetica,sans-Serif" font-size="10.00">sources/APU/Instructions</text>
<text text-anchor="middle" x="3050.5" y="-63.5" font-family="Helvetica,sans-Serif" font-size="10.00">/16bitArithmetic.cpp</text>
</a>
</g>
</g>
<!-- Node3&#45;&gt;Node7 -->
<g id="edge6" class="edge">
<title>Node3&#45;&gt;Node7</title>
<path fill="none" stroke="midnightblue" d="M2783.86,-121.65C2833.93,-112.59 2908.54,-99.03 2973.5,-87 2976.18,-86.5 2978.9,-86 2981.66,-85.48"/>
<polygon fill="midnightblue" stroke="midnightblue" points="2783.08,-118.23 2773.87,-123.46 2784.33,-125.12 2783.08,-118.23"/>
</g>
<!-- Node8 -->
<g id="node8" class="node">
<title>Node8</title>
<g id="a_node8"><a xlink:href="16bitDataTransmission_8cpp.html" target="_top" xlink:title=" ">
<polygon fill="white" stroke="black" points="3137.5,-56.5 3137.5,-86.5 3289.5,-86.5 3289.5,-56.5 3137.5,-56.5"/>
<text text-anchor="start" x="3145.5" y="-74.5" font-family="Helvetica,sans-Serif" font-size="10.00">sources/APU/Instructions</text>
<text text-anchor="middle" x="3213.5" y="-63.5" font-family="Helvetica,sans-Serif" font-size="10.00">/16bitDataTransmission.cpp</text>
</a>
</g>
</g>
<!-- Node3&#45;&gt;Node8 -->
<g id="edge7" class="edge">
<title>Node3&#45;&gt;Node8</title>
<path fill="none" stroke="midnightblue" d="M2797.93,-122.86C2945.63,-105.61 2984.8,-107.03 3128.5,-87 3131.32,-86.61 3134.18,-86.19 3137.08,-85.76"/>
<polygon fill="midnightblue" stroke="midnightblue" points="2797.1,-119.43 2787.57,-124.08 2797.92,-126.38 2797.1,-119.43"/>
</g>
<!-- Node9 -->
<g id="node9" class="node">
<title>Node9</title>
<g id="a_node9"><a xlink:href="8bitArithmetic_8cpp.html" target="_top" xlink:title=" ">
<polygon fill="white" stroke="black" points="3308,-56.5 3308,-86.5 3445,-86.5 3445,-56.5 3308,-56.5"/>
<text text-anchor="start" x="3316" y="-74.5" font-family="Helvetica,sans-Serif" font-size="10.00">sources/APU/Instructions</text>
<text text-anchor="middle" x="3376.5" y="-63.5" font-family="Helvetica,sans-Serif" font-size="10.00">/8bitArithmetic.cpp</text>
</a>
</g>
</g>
<!-- Node3&#45;&gt;Node9 -->
<g id="edge8" class="edge">
<title>Node3&#45;&gt;Node9</title>
<path fill="none" stroke="midnightblue" d="M2797.62,-122.95C3020.79,-101.15 3079.89,-115.07 3298.5,-87 3301.51,-86.61 3304.57,-86.19 3307.66,-85.73"/>
<polygon fill="midnightblue" stroke="midnightblue" points="2797.17,-119.48 2787.56,-123.94 2797.86,-126.44 2797.17,-119.48"/>
</g>
<!-- Node10 -->
<g id="node10" class="node">
<title>Node10</title>
<g id="a_node10"><a xlink:href="8bitDataTransmission_8cpp.html" target="_top" xlink:title=" ">
<polygon fill="white" stroke="black" points="3463.5,-56.5 3463.5,-86.5 3609.5,-86.5 3609.5,-56.5 3463.5,-56.5"/>
<text text-anchor="start" x="3471.5" y="-74.5" font-family="Helvetica,sans-Serif" font-size="10.00">sources/APU/Instructions</text>
<text text-anchor="middle" x="3536.5" y="-63.5" font-family="Helvetica,sans-Serif" font-size="10.00">/8bitDataTransmission.cpp</text>
</a>
</g>
</g>
<!-- Node3&#45;&gt;Node10 -->
<g id="edge9" class="edge">
<title>Node3&#45;&gt;Node10</title>
<path fill="none" stroke="midnightblue" d="M2797.6,-122.97C3089.88,-96.85 3166.81,-120.18 3454.5,-87 3457.37,-86.67 3460.3,-86.3 3463.25,-85.9"/>
<polygon fill="midnightblue" stroke="midnightblue" points="2797.2,-119.5 2787.55,-123.88 2797.83,-126.47 2797.2,-119.5"/>
</g>
<!-- Node11 -->
<g id="node11" class="node">
<title>Node11</title>
<g id="a_node11"><a xlink:href="8bitIncrementDecrement_8cpp.html" target="_top" xlink:title=" ">
<polygon fill="white" stroke="black" points="3627.5,-56.5 3627.5,-86.5 3789.5,-86.5 3789.5,-56.5 3627.5,-56.5"/>
<text text-anchor="start" x="3635.5" y="-74.5" font-family="Helvetica,sans-Serif" font-size="10.00">sources/APU/Instructions</text>
<text text-anchor="middle" x="3708.5" y="-63.5" font-family="Helvetica,sans-Serif" font-size="10.00">/8bitIncrementDecrement.cpp</text>
</a>
</g>
</g>
<!-- Node3&#45;&gt;Node11 -->
<g id="edge10" class="edge">
<title>Node3&#45;&gt;Node11</title>
<path fill="none" stroke="midnightblue" d="M2797.6,-122.99C3162.56,-92.24 3257.99,-123.81 3618.5,-87 3621.33,-86.71 3624.21,-86.39 3627.12,-86.04"/>
<polygon fill="midnightblue" stroke="midnightblue" points="2797.22,-119.51 2787.55,-123.84 2797.81,-126.48 2797.22,-119.51"/>
</g>
<!-- Node12 -->
<g id="node12" class="node">
<title>Node12</title>
<g id="a_node12"><a xlink:href="8bitLogical_8cpp.html" target="_top" xlink:title=" ">
<polygon fill="white" stroke="black" points="3808,-56.5 3808,-86.5 3945,-86.5 3945,-56.5 3808,-56.5"/>
<text text-anchor="start" x="3816" y="-74.5" font-family="Helvetica,sans-Serif" font-size="10.00">sources/APU/Instructions</text>
<text text-anchor="middle" x="3876.5" y="-63.5" font-family="Helvetica,sans-Serif" font-size="10.00">/8bitLogical.cpp</text>
</a>
</g>
</g>
<!-- Node3&#45;&gt;Node12 -->
<g id="edge11" class="edge">
<title>Node3&#45;&gt;Node12</title>
<path fill="none" stroke="midnightblue" d="M2797.78,-122.98C3242.39,-87.29 3358.92,-135.49 3798.5,-87 3801.51,-86.67 3804.58,-86.29 3807.68,-85.86"/>
<polygon fill="midnightblue" stroke="midnightblue" points="2797.23,-119.52 2787.55,-123.82 2797.8,-126.49 2797.23,-119.52"/>
</g>
<!-- Node13 -->
<g id="node13" class="node">
<title>Node13</title>
<g id="a_node13"><a xlink:href="8bitShiftRotation_8cpp.html" target="_top" xlink:title=" ">
<polygon fill="white" stroke="black" points="3963,-56.5 3963,-86.5 4100,-86.5 4100,-56.5 3963,-56.5"/>
<text text-anchor="start" x="3971" y="-74.5" font-family="Helvetica,sans-Serif" font-size="10.00">sources/APU/Instructions</text>
<text text-anchor="middle" x="4031.5" y="-63.5" font-family="Helvetica,sans-Serif" font-size="10.00">/8bitShiftRotation.cpp</text>
</a>
</g>
</g>
<!-- Node3&#45;&gt;Node13 -->
<g id="edge12" class="edge">
<title>Node3&#45;&gt;Node13</title>
<path fill="none" stroke="midnightblue" d="M2797.82,-122.99C3311.56,-82.92 3445.99,-142.44 3954.5,-87 3957.2,-86.71 3959.96,-86.37 3962.73,-86"/>
<polygon fill="midnightblue" stroke="midnightblue" points="2797.24,-119.52 2787.55,-123.8 2797.79,-126.5 2797.24,-119.52"/>
</g>
<!-- Node14 -->
<g id="node14" class="node">
<title>Node14</title>
<g id="a_node14"><a xlink:href="Bit_8cpp.html" target="_top" xlink:title=" ">
<polygon fill="white" stroke="black" points="4118,-56.5 4118,-86.5 4255,-86.5 4255,-56.5 4118,-56.5"/>
<text text-anchor="start" x="4126" y="-74.5" font-family="Helvetica,sans-Serif" font-size="10.00">sources/APU/Instructions</text>
<text text-anchor="middle" x="4186.5" y="-63.5" font-family="Helvetica,sans-Serif" font-size="10.00">/Bit.cpp</text>
</a>
</g>
</g>
<!-- Node3&#45;&gt;Node14 -->
<g id="edge13" class="edge">
<title>Node3&#45;&gt;Node14</title>
<path fill="none" stroke="midnightblue" d="M2797.89,-122.99C3380.3,-78.55 3532.45,-148.85 4109.5,-87 4112.21,-86.71 4114.96,-86.38 4117.73,-86.01"/>
<polygon fill="midnightblue" stroke="midnightblue" points="2797.25,-119.53 2787.55,-123.78 2797.79,-126.51 2797.25,-119.53"/>
</g>
<!-- Node15 -->
<g id="node15" class="node">
<title>Node15</title>
<g id="a_node15"><a xlink:href="DecimalCompensation_8cpp.html" target="_top" xlink:title=" ">
<polygon fill="white" stroke="black" points="1497,-56.5 1497,-86.5 1648,-86.5 1648,-56.5 1497,-56.5"/>
<text text-anchor="start" x="1505" y="-74.5" font-family="Helvetica,sans-Serif" font-size="10.00">sources/APU/Instructions</text>
<text text-anchor="middle" x="1572.5" y="-63.5" font-family="Helvetica,sans-Serif" font-size="10.00">/DecimalCompensation.cpp</text>
</a>
</g>
</g>
<!-- Node3&#45;&gt;Node15 -->
<g id="edge14" class="edge">
<title>Node3&#45;&gt;Node15</title>
<path fill="none" stroke="midnightblue" d="M2655.25,-122.99C2211.95,-87.32 2096.11,-132.11 1657.5,-87 1654.52,-86.69 1651.49,-86.35 1648.43,-85.97"/>
<polygon fill="midnightblue" stroke="midnightblue" points="2655.2,-126.49 2665.45,-123.82 2655.77,-119.52 2655.2,-126.49"/>
</g>
<!-- Node16 -->
<g id="node16" class="node">
<title>Node16</title>
<g id="a_node16"><a xlink:href="MultiplicationDivision_8cpp.html" target="_top" xlink:title=" ">
<polygon fill="white" stroke="black" points="1666.5,-56.5 1666.5,-86.5 1812.5,-86.5 1812.5,-56.5 1666.5,-56.5"/>
<text text-anchor="start" x="1674.5" y="-74.5" font-family="Helvetica,sans-Serif" font-size="10.00">sources/APU/Instructions</text>
<text text-anchor="middle" x="1739.5" y="-63.5" font-family="Helvetica,sans-Serif" font-size="10.00">/MultiplicationDivision.cpp</text>
</a>
</g>
</g>
<!-- Node3&#45;&gt;Node16 -->
<g id="edge15" class="edge">
<title>Node3&#45;&gt;Node16</title>
<path fill="none" stroke="midnightblue" d="M2655.25,-122.98C2284.65,-91.93 2187.41,-127.06 1821.5,-87 1818.63,-86.69 1815.7,-86.33 1812.75,-85.95"/>
<polygon fill="midnightblue" stroke="midnightblue" points="2655.19,-126.48 2665.45,-123.84 2655.78,-119.51 2655.19,-126.48"/>
</g>
<!-- Node17 -->
<g id="node17" class="node">
<title>Node17</title>
<g id="a_node17"><a xlink:href="ProgramFlow_8cpp.html" target="_top" xlink:title=" ">
<polygon fill="white" stroke="black" points="1831,-56.5 1831,-86.5 1968,-86.5 1968,-56.5 1831,-56.5"/>
<text text-anchor="start" x="1839" y="-74.5" font-family="Helvetica,sans-Serif" font-size="10.00">sources/APU/Instructions</text>
<text text-anchor="middle" x="1899.5" y="-63.5" font-family="Helvetica,sans-Serif" font-size="10.00">/ProgramFlow.cpp</text>
</a>
</g>
</g>
<!-- Node3&#45;&gt;Node17 -->
<g id="edge16" class="edge">
<title>Node3&#45;&gt;Node17</title>
<path fill="none" stroke="midnightblue" d="M2655.08,-122.95C2353.31,-96.29 2273.61,-122.68 1976.5,-87 1973.8,-86.68 1971.05,-86.31 1968.28,-85.92"/>
<polygon fill="midnightblue" stroke="midnightblue" points="2655.17,-126.47 2665.45,-123.88 2655.8,-119.5 2655.17,-126.47"/>
</g>
<!-- Node18 -->
<g id="node18" class="node">
<title>Node18</title>
<g id="a_node18"><a xlink:href="ProgramStatusWord_8cpp.html" target="_top" xlink:title=" ">
<polygon fill="white" stroke="black" points="1986,-56.5 1986,-86.5 2123,-86.5 2123,-56.5 1986,-56.5"/>
<text text-anchor="start" x="1994" y="-74.5" font-family="Helvetica,sans-Serif" font-size="10.00">sources/APU/Instructions</text>
<text text-anchor="middle" x="2054.5" y="-63.5" font-family="Helvetica,sans-Serif" font-size="10.00">/ProgramStatusWord.cpp</text>
</a>
</g>
</g>
<!-- Node3&#45;&gt;Node18 -->
<g id="edge17" class="edge">
<title>Node3&#45;&gt;Node18</title>
<path fill="none" stroke="midnightblue" d="M2655.28,-122.94C2422,-100.54 2360.2,-116.27 2131.5,-87 2128.8,-86.65 2126.05,-86.27 2123.28,-85.87"/>
<polygon fill="midnightblue" stroke="midnightblue" points="2655.15,-126.45 2665.44,-123.93 2655.83,-119.48 2655.15,-126.45"/>
</g>
<!-- Node19 -->
<g id="node19" class="node">
<title>Node19</title>
<g id="a_node19"><a xlink:href="Stack_8cpp.html" target="_top" xlink:title=" ">
<polygon fill="white" stroke="black" points="2141,-56.5 2141,-86.5 2278,-86.5 2278,-56.5 2141,-56.5"/>
<text text-anchor="start" x="2149" y="-74.5" font-family="Helvetica,sans-Serif" font-size="10.00">sources/APU/Instructions</text>
<text text-anchor="middle" x="2209.5" y="-63.5" font-family="Helvetica,sans-Serif" font-size="10.00">/Stack.cpp</text>
</a>
</g>
</g>
<!-- Node3&#45;&gt;Node19 -->
<g id="edge18" class="edge">
<title>Node3&#45;&gt;Node19</title>
<path fill="none" stroke="midnightblue" d="M2655.43,-122.92C2490.63,-104.68 2446.87,-109.86 2286.5,-87 2283.81,-86.62 2281.06,-86.2 2278.3,-85.77"/>
<polygon fill="midnightblue" stroke="midnightblue" points="2655.1,-126.4 2665.43,-124.04 2655.88,-119.45 2655.1,-126.4"/>
</g>
<!-- Node20 -->
<g id="node20" class="node">
<title>Node20</title>
<g id="a_node20"><a xlink:href="Standbys_8cpp.html" target="_top" xlink:title=" ">
<polygon fill="white" stroke="black" points="2296,-56.5 2296,-86.5 2433,-86.5 2433,-56.5 2296,-56.5"/>
<text text-anchor="start" x="2304" y="-74.5" font-family="Helvetica,sans-Serif" font-size="10.00">sources/APU/Instructions</text>
<text text-anchor="middle" x="2364.5" y="-63.5" font-family="Helvetica,sans-Serif" font-size="10.00">/Standbys.cpp</text>
</a>
</g>
</g>
<!-- Node3&#45;&gt;Node20 -->
<g id="edge19" class="edge">
<title>Node3&#45;&gt;Node20</title>
<path fill="none" stroke="midnightblue" d="M2659.27,-121.96C2601.46,-113.18 2515.88,-99.87 2441.5,-87 2438.82,-86.54 2436.09,-86.06 2433.33,-85.57"/>
<polygon fill="midnightblue" stroke="midnightblue" points="2658.96,-125.45 2669.37,-123.49 2660.01,-118.53 2658.96,-125.45"/>
</g>
<!-- Node21 -->
<g id="node21" class="node">
<title>Node21</title>
<g id="a_node21"><a xlink:href="Subroutine_8cpp.html" target="_top" xlink:title=" ">
<polygon fill="white" stroke="black" points="2451,-56.5 2451,-86.5 2588,-86.5 2588,-56.5 2451,-56.5"/>
<text text-anchor="start" x="2459" y="-74.5" font-family="Helvetica,sans-Serif" font-size="10.00">sources/APU/Instructions</text>
<text text-anchor="middle" x="2519.5" y="-63.5" font-family="Helvetica,sans-Serif" font-size="10.00">/Subroutine.cpp</text>
</a>
</g>
</g>
<!-- Node3&#45;&gt;Node21 -->
<g id="edge20" class="edge">
<title>Node3&#45;&gt;Node21</title>
<path fill="none" stroke="midnightblue" d="M2686.87,-120.61C2653.1,-110.9 2604.44,-96.92 2568.29,-86.52"/>
<polygon fill="midnightblue" stroke="midnightblue" points="2686.26,-124.08 2696.84,-123.48 2688.2,-117.35 2686.26,-124.08"/>
</g>
<!-- Node22 -->
<g id="node22" class="node">
<title>Node22</title>
<g id="a_node22"><a xlink:href="Operand_8cpp.html" target="_top" xlink:title=" ">
<polygon fill="white" stroke="black" points="2606.5,-62 2606.5,-81 2748.5,-81 2748.5,-62 2606.5,-62"/>
<text text-anchor="middle" x="2677.5" y="-69" font-family="Helvetica,sans-Serif" font-size="10.00">sources/APU/Operand.cpp</text>
</a>
</g>
</g>
<!-- Node3&#45;&gt;Node22 -->
<g id="edge21" class="edge">
<title>Node3&#45;&gt;Node22</title>
<path fill="none" stroke="midnightblue" d="M2713.05,-115.67C2703.81,-104.45 2691.93,-90.02 2684.51,-81.01"/>
<polygon fill="midnightblue" stroke="midnightblue" points="2710.42,-117.98 2719.48,-123.48 2715.82,-113.53 2710.42,-117.98"/>
</g>
<!-- Node23 -->
<g id="node23" class="node">
<title>Node23</title>
<g id="a_node23"><a xlink:href="APUDebug_8hpp.html" target="_top" xlink:title=" ">
<polygon fill="white" stroke="red" points="2505.5,-0.5 2505.5,-19.5 2685.5,-19.5 2685.5,-0.5 2505.5,-0.5"/>
<text text-anchor="middle" x="2595.5" y="-7.5" font-family="Helvetica,sans-Serif" font-size="10.00">sources/Debugger/APUDebug.hpp</text>
</a>
</g>
</g>
<!-- Node3&#45;&gt;Node23 -->
<g id="edge22" class="edge">
<title>Node3&#45;&gt;Node23</title>
<path fill="none" stroke="midnightblue" d="M2757.05,-118.56C2769.83,-111.22 2783.35,-100.77 2790.5,-87 2796.85,-74.77 2799.08,-66.78 2790.5,-56 2776.01,-37.78 2723.26,-26.31 2676.28,-19.51"/>
<polygon fill="midnightblue" stroke="midnightblue" points="2755.18,-115.59 2747.98,-123.36 2758.46,-121.77 2755.18,-115.59"/>
</g>
<!-- Node25 -->
<g id="node24" class="node">
<title>Node25</title>
<g id="a_node24"><a xlink:href="SNES_8hpp.html" target="_top" xlink:title=" ">
<polygon fill="white" stroke="red" points="1298.5,-62 1298.5,-81 1402.5,-81 1402.5,-62 1298.5,-62"/>
<text text-anchor="middle" x="1350.5" y="-69" font-family="Helvetica,sans-Serif" font-size="10.00">sources/SNES.hpp</text>
</a>
</g>
</g>
<!-- Node3&#45;&gt;Node25 -->
<g id="edge23" class="edge">
<title>Node3&#45;&gt;Node25</title>
<path fill="none" stroke="midnightblue" d="M2655.27,-123C2105.09,-80.7 1960.36,-154.04 1416.5,-87 1405.67,-85.67 1394,-83.39 1383.53,-81.03"/>
<polygon fill="midnightblue" stroke="midnightblue" points="2655.21,-126.5 2665.45,-123.79 2655.76,-119.52 2655.21,-126.5"/>
</g>
<!-- Node44 -->
<g id="node25" class="node">
<title>Node44</title>
<g id="a_node25"><a xlink:href="testAPU_8cpp.html" target="_top" xlink:title=" ">
<polygon fill="white" stroke="black" points="1259.5,-0.5 1259.5,-19.5 1385.5,-19.5 1385.5,-0.5 1259.5,-0.5"/>
<text text-anchor="middle" x="1322.5" y="-7.5" font-family="Helvetica,sans-Serif" font-size="10.00">tests/APU/testAPU.cpp</text>
</a>
</g>
</g>
<!-- Node3&#45;&gt;Node44 -->
<g id="edge28" class="edge">
<title>Node3&#45;&gt;Node44</title>
<path fill="none" stroke="midnightblue" d="M2655.37,-123.04C2378.59,-103.4 1727.07,-150.1 1475.5,-87 1471.87,-86.09 1378.71,-39.3 1339.57,-19.6"/>
<polygon fill="midnightblue" stroke="midnightblue" points="2655.22,-126.54 2665.45,-123.8 2655.74,-119.56 2655.22,-126.54"/>
</g>
<!-- Node45 -->
<g id="node26" class="node">
<title>Node45</title>
<g id="a_node26"><a xlink:href="testAPUInstructions_8cpp.html" target="_top" xlink:title=" ">
<polygon fill="white" stroke="black" points="1404,-0.5 1404,-19.5 1587,-19.5 1587,-0.5 1404,-0.5"/>
<text text-anchor="middle" x="1495.5" y="-7.5" font-family="Helvetica,sans-Serif" font-size="10.00">tests/APU/testAPUInstructions.cpp</text>
</a>
</g>
</g>
<!-- Node3&#45;&gt;Node45 -->
<g id="edge29" class="edge">
<title>Node3&#45;&gt;Node45</title>
<path fill="none" stroke="midnightblue" d="M2655.32,-123.29C2524.53,-118.8 1531.27,-132.14 1487.5,-87 1469.86,-68.81 1483,-35.46 1490.8,-19.69"/>
<polygon fill="midnightblue" stroke="midnightblue" points="2655.29,-126.79 2665.45,-123.8 2655.64,-119.8 2655.29,-126.79"/>
</g>
<!-- Node46 -->
<g id="node27" class="node">
<title>Node46</title>
<g id="a_node27"><a xlink:href="testOperand_8cpp.html" target="_top" xlink:title=" ">
<polygon fill="white" stroke="black" points="2095,-0.5 2095,-19.5 2242,-19.5 2242,-0.5 2095,-0.5"/>
<text text-anchor="middle" x="2168.5" y="-7.5" font-family="Helvetica,sans-Serif" font-size="10.00">tests/APU/testOperand.cpp</text>
</a>
</g>
</g>
<!-- Node3&#45;&gt;Node46 -->
<g id="edge30" class="edge">
<title>Node3&#45;&gt;Node46</title>
<path fill="none" stroke="midnightblue" d="M2742.37,-115.57C2756.65,-98.81 2773.17,-72.91 2757.5,-56 2740.23,-37.36 2396.47,-20.6 2242.26,-13.99"/>
<polygon fill="midnightblue" stroke="midnightblue" points="2739.39,-113.64 2735.29,-123.41 2744.59,-118.34 2739.39,-113.64"/>
</g>
<!-- Node25&#45;&gt;Node23 -->
<g id="edge24" class="edge">
<title>Node25&#45;&gt;Node23</title>
<path fill="none" stroke="midnightblue" d="M1412.93,-63.03C1436.29,-60.46 1463.08,-57.79 1487.5,-56 1684.55,-41.59 2277.87,-21.36 2505.36,-13.9"/>
<polygon fill="midnightblue" stroke="midnightblue" points="1412.35,-59.57 1402.8,-64.16 1413.12,-66.53 1412.35,-59.57"/>
</g>
<!-- Node25&#45;&gt;Node44 -->
<g id="edge25" class="edge">
<title>Node25&#45;&gt;Node44</title>
<path fill="none" stroke="midnightblue" d="M1342.19,-52.83C1337.01,-41.83 1330.58,-28.16 1326.5,-19.51"/>
<polygon fill="midnightblue" stroke="midnightblue" points="1339.06,-54.42 1346.49,-61.98 1345.4,-51.44 1339.06,-54.42"/>
</g>
<!-- Node25&#45;&gt;Node45 -->
<g id="edge26" class="edge">
<title>Node25&#45;&gt;Node45</title>
<path fill="none" stroke="midnightblue" d="M1380.64,-58.13C1408.81,-46.57 1450.12,-29.62 1474.76,-19.51"/>
<polygon fill="midnightblue" stroke="midnightblue" points="1379.2,-54.94 1371.27,-61.98 1381.86,-61.42 1379.2,-54.94"/>
</g>
<!-- Node25&#45;&gt;Node46 -->
<g id="edge27" class="edge">
<title>Node25&#45;&gt;Node46</title>
<path fill="none" stroke="midnightblue" d="M1412.95,-63.37C1436.32,-60.83 1463.11,-58.1 1487.5,-56 1708.26,-37.03 1969.87,-21.76 2094.86,-14.91"/>
<polygon fill="midnightblue" stroke="midnightblue" points="1412.38,-59.91 1402.82,-64.47 1413.14,-66.86 1412.38,-59.91"/>
</g>
<!-- Node67&#45;&gt;Node3 -->
<g id="edge40" class="edge">
<title>Node67&#45;&gt;Node3</title>
<path fill="none" stroke="midnightblue" d="M2623.95,-175.64C2648.91,-165.5 2683.58,-151.43 2705.52,-142.52"/>
<polygon fill="midnightblue" stroke="midnightblue" points="2622.52,-172.44 2614.57,-179.44 2625.16,-178.92 2622.52,-172.44"/>
</g>
<!-- Node68 -->
<g id="node34" class="node">
<title>Node68</title>
<g id="a_node34"><a xlink:href="IPL_8cpp.html" target="_top" xlink:title=" ">
<polygon fill="white" stroke="black" points="2515.5,-123.5 2515.5,-142.5 2647.5,-142.5 2647.5,-123.5 2515.5,-123.5"/>
<text text-anchor="middle" x="2581.5" y="-130.5" font-family="Helvetica,sans-Serif" font-size="10.00">sources/APU/IPL/IPL.cpp</text>
</a>
</g>
</g>
<!-- Node67&#45;&gt;Node68 -->
<g id="edge41" class="edge">
<title>Node67&#45;&gt;Node68</title>
<path fill="none" stroke="midnightblue" d="M2589.3,-169.1C2587.31,-160.14 2585.02,-149.86 2583.44,-142.75"/>
<polygon fill="midnightblue" stroke="midnightblue" points="2585.93,-170.08 2591.52,-179.08 2592.77,-168.56 2585.93,-170.08"/>
</g>
<!-- Node69&#45;&gt;Node25 -->
<g id="edge54" class="edge">
<title>Node69&#45;&gt;Node25</title>
<path fill="none" stroke="midnightblue" d="M1077.22,-175.65C1139.56,-152.12 1273.95,-101.39 1327.65,-81.12"/>
<polygon fill="midnightblue" stroke="midnightblue" points="1075.62,-172.51 1067.5,-179.32 1078.09,-179.06 1075.62,-172.51"/>
</g>
<!-- Node70 -->
<g id="node36" class="node">
<title>Node70</title>
<g id="a_node36"><a xlink:href="Cartridge_8cpp.html" target="_top" xlink:title=" ">
<polygon fill="white" stroke="black" points="579.5,-123.5 579.5,-142.5 749.5,-142.5 749.5,-123.5 579.5,-123.5"/>
<text text-anchor="middle" x="664.5" y="-130.5" font-family="Helvetica,sans-Serif" font-size="10.00">sources/Cartridge/Cartridge.cpp</text>
</a>
</g>
</g>
<!-- Node69&#45;&gt;Node70 -->
<g id="edge43" class="edge">
<title>Node69&#45;&gt;Node70</title>
<path fill="none" stroke="midnightblue" d="M973.98,-177.98C902.2,-167.78 792.13,-152.14 724.43,-142.52"/>
<polygon fill="midnightblue" stroke="midnightblue" points="973.89,-181.5 984.29,-179.44 974.88,-174.57 973.89,-181.5"/>
</g>
<!-- Node69&#45;&gt;Node71 -->
<g id="edge44" class="edge">
<title>Node69&#45;&gt;Node71</title>
<path fill="none" stroke="midnightblue" d="M1044.5,-168.8C1044.5,-159.91 1044.5,-149.78 1044.5,-142.75"/>
<polygon fill="midnightblue" stroke="midnightblue" points="1041,-169.08 1044.5,-179.08 1048,-169.08 1041,-169.08"/>
</g>
<!-- Node80 -->
<g id="node46" class="node">
<title>Node80</title>
<g id="a_node46"><a xlink:href="HeaderViewer_8hpp.html" target="_top" xlink:title=" ">
<polygon fill="white" stroke="red" points="768,-123.5 768,-142.5 965,-142.5 965,-123.5 768,-123.5"/>
<text text-anchor="middle" x="866.5" y="-130.5" font-family="Helvetica,sans-Serif" font-size="10.00">sources/Debugger/HeaderViewer.hpp</text>
</a>
</g>
</g>
<!-- Node69&#45;&gt;Node80 -->
<g id="edge55" class="edge">
<title>Node69&#45;&gt;Node80</title>
<path fill="none" stroke="midnightblue" d="M1006.38,-176.44C972.82,-166.26 924.73,-151.66 894.57,-142.52"/>
<polygon fill="midnightblue" stroke="midnightblue" points="1005.71,-179.89 1016.3,-179.44 1007.74,-173.19 1005.71,-179.89"/>
</g>
<!-- Node71&#45;&gt;Node25 -->
<g id="edge53" class="edge">
<title>Node71&#45;&gt;Node25</title>
<path fill="none" stroke="midnightblue" d="M1104.53,-121.74C1154.02,-113.1 1225.98,-100.07 1288.5,-87 1297.16,-85.19 1306.46,-83.1 1315.15,-81.07"/>
<polygon fill="midnightblue" stroke="midnightblue" points="1103.89,-118.3 1094.64,-123.47 1105.09,-125.2 1103.89,-118.3"/>
</g>
<!-- Node72 -->
<g id="node38" class="node">
<title>Node72</title>
<g id="a_node38"><a xlink:href="AddressingModes_8cpp.html" target="_top" xlink:title=" ">
<polygon fill="white" stroke="black" points="155,-62 155,-81 342,-81 342,-62 155,-62"/>
<text text-anchor="middle" x="248.5" y="-69" font-family="Helvetica,sans-Serif" font-size="10.00">sources/CPU/AddressingModes.cpp</text>
</a>
</g>
</g>
<!-- Node71&#45;&gt;Node72 -->
<g id="edge45" class="edge">
<title>Node71&#45;&gt;Node72</title>
<path fill="none" stroke="midnightblue" d="M973.37,-123.07C695.63,-97.94 623.25,-114.22 350.5,-87 334.84,-85.44 317.89,-83.24 302.39,-81.02"/>
<polygon fill="midnightblue" stroke="midnightblue" points="973.06,-126.55 983.34,-123.98 973.7,-119.58 973.06,-126.55"/>
</g>
<!-- Node73 -->
<g id="node39" class="node">
<title>Node73</title>
<g id="a_node39"><a xlink:href="CPU_8cpp.html" target="_top" xlink:title=" ">
<polygon fill="white" stroke="black" points="360,-62 360,-81 481,-81 481,-62 360,-62"/>
<text text-anchor="middle" x="420.5" y="-69" font-family="Helvetica,sans-Serif" font-size="10.00">sources/CPU/CPU.cpp</text>
</a>
</g>
</g>
<!-- Node71&#45;&gt;Node73 -->
<g id="edge46" class="edge">
<title>Node71&#45;&gt;Node73</title>
<path fill="none" stroke="midnightblue" d="M973.25,-123.04C757.15,-101.9 699.84,-116.79 489.5,-87 478.71,-85.47 467.09,-83.25 456.51,-81.01"/>
<polygon fill="midnightblue" stroke="midnightblue" points="973.04,-126.54 983.33,-124.04 973.73,-119.57 973.04,-126.54"/>
</g>
<!-- Node74 -->
<g id="node40" class="node">
<title>Node74</title>
<g id="a_node40"><a xlink:href="BitsInstructions_8cpp.html" target="_top" xlink:title=" ">
<polygon fill="white" stroke="black" points="499,-56.5 499,-86.5 636,-86.5 636,-56.5 499,-56.5"/>
<text text-anchor="start" x="507" y="-74.5" font-family="Helvetica,sans-Serif" font-size="10.00">sources/CPU/Instructions</text>
<text text-anchor="middle" x="567.5" y="-63.5" font-family="Helvetica,sans-Serif" font-size="10.00">/BitsInstructions.cpp</text>
</a>
</g>
</g>
<!-- Node71&#45;&gt;Node74 -->
<g id="edge47" class="edge">
<title>Node71&#45;&gt;Node74</title>
<path fill="none" stroke="midnightblue" d="M972.99,-122.97C825.68,-105.87 786.73,-108.14 644.5,-87 641.81,-86.6 639.07,-86.17 636.3,-85.73"/>
<polygon fill="midnightblue" stroke="midnightblue" points="972.98,-126.49 983.32,-124.18 973.79,-119.54 972.98,-126.49"/>
</g>
<!-- Node75 -->
<g id="node41" class="node">
<title>Node75</title>
<g id="a_node41"><a xlink:href="InternalInstruction_8cpp.html" target="_top" xlink:title=" ">
<polygon fill="white" stroke="black" points="654,-56.5 654,-86.5 791,-86.5 791,-56.5 654,-56.5"/>
<text text-anchor="start" x="662" y="-74.5" font-family="Helvetica,sans-Serif" font-size="10.00">sources/CPU/Instructions</text>
<text text-anchor="middle" x="722.5" y="-63.5" font-family="Helvetica,sans-Serif" font-size="10.00">/InternalInstruction.cpp</text>
</a>
</g>
</g>
<!-- Node71&#45;&gt;Node75 -->
<g id="edge48" class="edge">
<title>Node71&#45;&gt;Node75</title>
<path fill="none" stroke="midnightblue" d="M987.61,-121.63C937.95,-112.55 863.94,-98.98 799.5,-87 796.83,-86.5 794.1,-85.99 791.34,-85.48"/>
<polygon fill="midnightblue" stroke="midnightblue" points="987.05,-125.08 997.52,-123.44 988.31,-118.2 987.05,-125.08"/>
</g>
<!-- Node76 -->
<g id="node42" class="node">
<title>Node76</title>
<g id="a_node42"><a xlink:href="Interrupts_8cpp.html" target="_top" xlink:title=" ">
<polygon fill="white" stroke="black" points="809,-56.5 809,-86.5 946,-86.5 946,-56.5 809,-56.5"/>
<text text-anchor="start" x="817" y="-74.5" font-family="Helvetica,sans-Serif" font-size="10.00">sources/CPU/Instructions</text>
<text text-anchor="middle" x="877.5" y="-63.5" font-family="Helvetica,sans-Serif" font-size="10.00">/Interrupts.cpp</text>
</a>
</g>
</g>
<!-- Node71&#45;&gt;Node76 -->
<g id="edge49" class="edge">
<title>Node71&#45;&gt;Node76</title>
<path fill="none" stroke="midnightblue" d="M1011.11,-120.1C983.94,-110.42 945.53,-96.74 916.86,-86.52"/>
<polygon fill="midnightblue" stroke="midnightblue" points="1009.98,-123.42 1020.57,-123.48 1012.33,-116.82 1009.98,-123.42"/>
</g>
<!-- Node77 -->
<g id="node43" class="node">
<title>Node77</title>
<g id="a_node43"><a xlink:href="MathematicalOperations_8cpp.html" target="_top" xlink:title=" ">
<polygon fill="white" stroke="black" points="964,-56.5 964,-86.5 1125,-86.5 1125,-56.5 964,-56.5"/>
<text text-anchor="start" x="972" y="-74.5" font-family="Helvetica,sans-Serif" font-size="10.00">sources/CPU/Instructions</text>
<text text-anchor="middle" x="1044.5" y="-63.5" font-family="Helvetica,sans-Serif" font-size="10.00">/MathematicalOperations.cpp</text>
</a>
</g>
</g>
<!-- Node71&#45;&gt;Node77 -->
<g id="edge50" class="edge">
<title>Node71&#45;&gt;Node77</title>
<path fill="none" stroke="midnightblue" d="M1044.5,-113.23C1044.5,-104.59 1044.5,-94.5 1044.5,-86.52"/>
<polygon fill="midnightblue" stroke="midnightblue" points="1041,-113.48 1044.5,-123.48 1048,-113.48 1041,-113.48"/>
</g>
<!-- Node78 -->
<g id="node44" class="node">
<title>Node78</title>
<g id="a_node44"><a xlink:href="MemoryInstructions_8cpp.html" target="_top" xlink:title=" ">
<polygon fill="white" stroke="black" points="1143,-56.5 1143,-86.5 1280,-86.5 1280,-56.5 1143,-56.5"/>
<text text-anchor="start" x="1151" y="-74.5" font-family="Helvetica,sans-Serif" font-size="10.00">sources/CPU/Instructions</text>
<text text-anchor="middle" x="1211.5" y="-63.5" font-family="Helvetica,sans-Serif" font-size="10.00">/MemoryInstructions.cpp</text>
</a>
</g>
</g>
<!-- Node71&#45;&gt;Node78 -->
<g id="edge51" class="edge">
<title>Node71&#45;&gt;Node78</title>
<path fill="none" stroke="midnightblue" d="M1077.89,-120.1C1105.06,-110.42 1143.47,-96.74 1172.14,-86.52"/>
<polygon fill="midnightblue" stroke="midnightblue" points="1076.67,-116.82 1068.43,-123.48 1079.02,-123.42 1076.67,-116.82"/>
</g>
<!-- Node79 -->
<g id="node45" class="node">
<title>Node79</title>
<g id="a_node45"><a xlink:href="TransferRegisters_8cpp.html" target="_top" xlink:title=" ">
<polygon fill="white" stroke="black" points="0,-56.5 0,-86.5 137,-86.5 137,-56.5 0,-56.5"/>
<text text-anchor="start" x="8" y="-74.5" font-family="Helvetica,sans-Serif" font-size="10.00">sources/CPU/Instructions</text>
<text text-anchor="middle" x="68.5" y="-63.5" font-family="Helvetica,sans-Serif" font-size="10.00">/TransferRegisters.cpp</text>
</a>
</g>
</g>
<!-- Node71&#45;&gt;Node79 -->
<g id="edge52" class="edge">
<title>Node71&#45;&gt;Node79</title>
<path fill="none" stroke="midnightblue" d="M973.2,-123.07C604.74,-92.48 508.12,-128.81 145.5,-87 142.8,-86.69 140.05,-86.34 137.27,-85.95"/>
<polygon fill="midnightblue" stroke="midnightblue" points="973.08,-126.57 983.34,-123.92 973.67,-119.6 973.08,-126.57"/>
</g>
<!-- Node81&#45;&gt;Node25 -->
<g id="edge59" class="edge">
<title>Node81&#45;&gt;Node25</title>
<path fill="none" stroke="midnightblue" d="M1383.62,-170.75C1378.8,-162.57 1373.36,-152.52 1369.5,-143 1360.83,-121.62 1354.89,-95.01 1352.17,-81.41"/>
<polygon fill="midnightblue" stroke="midnightblue" points="1380.66,-172.63 1388.86,-179.35 1386.64,-168.99 1380.66,-172.63"/>
</g>
<!-- Node81&#45;&gt;Node71 -->
<g id="edge58" class="edge">
<title>Node81&#45;&gt;Node71</title>
<path fill="none" stroke="midnightblue" d="M1329.14,-177.92C1263.02,-167.71 1161.93,-152.12 1099.7,-142.52"/>
<polygon fill="midnightblue" stroke="midnightblue" points="1328.62,-181.38 1339.04,-179.44 1329.69,-174.46 1328.62,-181.38"/>
</g>
<!-- Node81&#45;&gt;Node84 -->
<g id="edge60" class="edge">
<title>Node81&#45;&gt;Node84</title>
<path fill="none" stroke="midnightblue" d="M1408.23,-171.14C1415.9,-161.74 1425.13,-150.4 1431.37,-142.75"/>
<polygon fill="midnightblue" stroke="midnightblue" points="1405.37,-169.12 1401.77,-179.08 1410.8,-173.54 1405.37,-169.12"/>
</g>
<!-- Node84&#45;&gt;Node25 -->
<g id="edge61" class="edge">
<title>Node84&#45;&gt;Node25</title>
<path fill="none" stroke="midnightblue" d="M1417.22,-117.61C1400.3,-106.17 1377.19,-90.55 1363.08,-81.01"/>
<polygon fill="midnightblue" stroke="midnightblue" points="1415.65,-120.77 1425.89,-123.48 1419.57,-114.97 1415.65,-120.77"/>
</g>
</g>
</svg>
