<?xml version="1.0" encoding="UTF-8" standalone="no"?>
<!DOCTYPE svg PUBLIC "-//W3C//DTD SVG 1.1//EN"
 "http://www.w3.org/Graphics/SVG/1.1/DTD/svg11.dtd">
<!-- Generated by graphviz version 2.43.0 (0)
 -->
<!-- Title: sources/APU/APU.cpp Pages: 1 -->
<svg width="1168pt" height="319pt"
 viewBox="0.00 0.00 1167.50 319.00" xmlns="http://www.w3.org/2000/svg" xmlns:xlink="http://www.w3.org/1999/xlink">
<g id="graph0" class="graph" transform="scale(1 1) rotate(0) translate(4 315)">
<title>sources/APU/APU.cpp</title>
<polygon fill="white" stroke="transparent" points="-4,4 -4,-315 1163.5,-315 1163.5,4 -4,4"/>
<!-- Node1 -->
<g id="node1" class="node">
<title>Node1</title>
<g id="a_node1"><a xlink:title=" ">
<polygon fill="#bfbfbf" stroke="black" points="575.5,-291.5 575.5,-310.5 696.5,-310.5 696.5,-291.5 575.5,-291.5"/>
<text text-anchor="middle" x="636" y="-298.5" font-family="Helvetica,sans-Serif" font-size="10.00">sources/APU/APU.cpp</text>
</a>
</g>
</g>
<!-- Node2 -->
<g id="node2" class="node">
<title>Node2</title>
<g id="a_node2"><a xlink:title=" ">
<polygon fill="white" stroke="#bfbfbf" points="343,-230 343,-249 403,-249 403,-230 343,-230"/>
<text text-anchor="middle" x="373" y="-237" font-family="Helvetica,sans-Serif" font-size="10.00">iostream</text>
</a>
</g>
</g>
<!-- Node1&#45;&gt;Node2 -->
<g id="edge1" class="edge">
<title>Node1&#45;&gt;Node2</title>
<path fill="none" stroke="midnightblue" d="M581.11,-291.46C535.4,-283.76 468.85,-271.17 412,-255 409.36,-254.25 406.64,-253.4 403.92,-252.5"/>
<polygon fill="midnightblue" stroke="midnightblue" points="404.85,-249.11 394.25,-249.09 402.52,-255.72 404.85,-249.11"/>
</g>
<!-- Node3 -->
<g id="node3" class="node">
<title>Node3</title>
<g id="a_node3"><a xlink:href="APU_8hpp.html" target="_top" xlink:title=" ">
<polygon fill="white" stroke="black" points="421,-230 421,-249 479,-249 479,-230 421,-230"/>
<text text-anchor="middle" x="450" y="-237" font-family="Helvetica,sans-Serif" font-size="10.00">APU.hpp</text>
</a>
</g>
</g>
<!-- Node1&#45;&gt;Node3 -->
<g id="edge2" class="edge">
<title>Node1&#45;&gt;Node3</title>
<path fill="none" stroke="midnightblue" d="M609.35,-291.48C577.03,-281.14 522.4,-263.66 486.27,-252.1"/>
<polygon fill="midnightblue" stroke="midnightblue" points="487.19,-248.72 476.6,-249.01 485.06,-255.39 487.19,-248.72"/>
</g>
<!-- Node19 -->
<g id="node19" class="node">
<title>Node19</title>
<g id="a_node19"><a xlink:href="NotImplementedException_8hpp.html" target="_top" xlink:title=" ">
<polygon fill="white" stroke="black" points="554,-224.5 554,-254.5 718,-254.5 718,-224.5 554,-224.5"/>
<text text-anchor="start" x="562" y="-242.5" font-family="Helvetica,sans-Serif" font-size="10.00">../Exceptions/NotImplemented</text>
<text text-anchor="middle" x="636" y="-231.5" font-family="Helvetica,sans-Serif" font-size="10.00">Exception.hpp</text>
</a>
</g>
</g>
<!-- Node1&#45;&gt;Node19 -->
<g id="edge31" class="edge">
<title>Node1&#45;&gt;Node19</title>
<path fill="none" stroke="midnightblue" d="M636,-291.48C636,-284.47 636,-274.19 636,-264.7"/>
<polygon fill="midnightblue" stroke="midnightblue" points="639.5,-264.52 636,-254.52 632.5,-264.52 639.5,-264.52"/>
</g>
<!-- Node21 -->
<g id="node21" class="node">
<title>Node21</title>
<g id="a_node21"><a xlink:href="InvalidAddress_8hpp.html" target="_top" xlink:title=" ">
<polygon fill="white" stroke="black" points="927.5,-230 927.5,-249 1102.5,-249 1102.5,-230 927.5,-230"/>
<text text-anchor="middle" x="1015" y="-237" font-family="Helvetica,sans-Serif" font-size="10.00">../Exceptions/InvalidAddress.hpp</text>
</a>
</g>
</g>
<!-- Node1&#45;&gt;Node21 -->
<g id="edge33" class="edge">
<title>Node1&#45;&gt;Node21</title>
<path fill="none" stroke="midnightblue" d="M690.3,-291.48C759.11,-280.67 877.55,-262.08 950.78,-250.58"/>
<polygon fill="midnightblue" stroke="midnightblue" points="951.46,-254.02 960.8,-249.01 950.38,-247.1 951.46,-254.02"/>
</g>
<!-- Node26 -->
<g id="node26" class="node">
<title>Node26</title>
<g id="a_node26"><a xlink:href="InvalidOpcode_8hpp.html" target="_top" xlink:title=" ">
<polygon fill="white" stroke="black" points="736.5,-230 736.5,-249 909.5,-249 909.5,-230 736.5,-230"/>
<text text-anchor="middle" x="823" y="-237" font-family="Helvetica,sans-Serif" font-size="10.00">../Exceptions/InvalidOpcode.hpp</text>
</a>
</g>
</g>
<!-- Node1&#45;&gt;Node26 -->
<g id="edge40" class="edge">
<title>Node1&#45;&gt;Node26</title>
<path fill="none" stroke="midnightblue" d="M662.79,-291.48C695.29,-281.14 750.21,-263.66 786.54,-252.1"/>
<polygon fill="midnightblue" stroke="midnightblue" points="787.79,-255.38 796.26,-249.01 785.67,-248.71 787.79,-255.38"/>
</g>
<!-- Node4 -->
<g id="node4" class="node">
<title>Node4</title>
<g id="a_node4"><a xlink:title=" ">
<polygon fill="white" stroke="#bfbfbf" points="0,-0.5 0,-19.5 58,-19.5 58,-0.5 0,-0.5"/>
<text text-anchor="middle" x="29" y="-7.5" font-family="Helvetica,sans-Serif" font-size="10.00">memory</text>
</a>
</g>
</g>
<!-- Node3&#45;&gt;Node4 -->
<g id="edge3" class="edge">
<title>Node3&#45;&gt;Node4</title>
<path fill="none" stroke="midnightblue" d="M429.3,-229.9C423.75,-227.78 417.7,-225.65 412,-224 334.91,-201.62 309.28,-218.44 235,-188 148.12,-152.4 71.76,-65.09 42.12,-28.06"/>
<polygon fill="midnightblue" stroke="midnightblue" points="44.55,-25.48 35.61,-19.78 39.05,-29.81 44.55,-25.48"/>
</g>
<!-- Node5 -->
<g id="node5" class="node">
<title>Node5</title>
<g id="a_node5"><a xlink:href="DSP_8hpp.html" target="_top" xlink:title=" ">
<polygon fill="white" stroke="black" points="350,-168.5 350,-187.5 428,-187.5 428,-168.5 350,-168.5"/>
<text text-anchor="middle" x="389" y="-175.5" font-family="Helvetica,sans-Serif" font-size="10.00">DSP/DSP.hpp</text>
</a>
</g>
</g>
<!-- Node3&#45;&gt;Node5 -->
<g id="edge4" class="edge">
<title>Node3&#45;&gt;Node5</title>
<path fill="none" stroke="midnightblue" d="M441.26,-229.98C431.84,-220.78 416.64,-205.96 405.05,-194.66"/>
<polygon fill="midnightblue" stroke="midnightblue" points="407.33,-191.99 397.72,-187.51 402.44,-197 407.33,-191.99"/>
</g>
<!-- Node8 -->
<g id="node8" class="node">
<title>Node8</title>
<g id="a_node8"><a xlink:href="AMemory_8hpp.html" target="_top" xlink:title=" ">
<polygon fill="white" stroke="black" points="158.5,-112.5 158.5,-131.5 303.5,-131.5 303.5,-112.5 158.5,-112.5"/>
<text text-anchor="middle" x="231" y="-119.5" font-family="Helvetica,sans-Serif" font-size="10.00">../../Memory/AMemory.hpp</text>
</a>
</g>
</g>
<!-- Node3&#45;&gt;Node8 -->
<g id="edge21" class="edge">
<title>Node3&#45;&gt;Node8</title>
<path fill="none" stroke="midnightblue" d="M429.28,-229.98C423.72,-227.87 417.68,-225.72 412,-224 342.65,-203.03 306.82,-236.51 253,-188 239.88,-176.18 234.58,-156.26 232.44,-141.58"/>
<polygon fill="midnightblue" stroke="midnightblue" points="235.91,-141.15 231.34,-131.59 228.96,-141.92 235.91,-141.15"/>
</g>
<!-- Node14 -->
<g id="node14" class="node">
<title>Node14</title>
<g id="a_node14"><a xlink:href="Ram_8hpp.html" target="_top" xlink:title=" ">
<polygon fill="white" stroke="black" points="464.5,-168.5 464.5,-187.5 559.5,-187.5 559.5,-168.5 464.5,-168.5"/>
<text text-anchor="middle" x="512" y="-175.5" font-family="Helvetica,sans-Serif" font-size="10.00">../Ram/Ram.hpp</text>
</a>
</g>
</g>
<!-- Node3&#45;&gt;Node14 -->
<g id="edge22" class="edge">
<title>Node3&#45;&gt;Node14</title>
<path fill="none" stroke="midnightblue" d="M458.88,-229.98C468.46,-220.78 483.91,-205.96 495.69,-194.66"/>
<polygon fill="midnightblue" stroke="midnightblue" points="498.34,-196.96 503.13,-187.51 493.49,-191.91 498.34,-196.96"/>
</g>
<!-- Node16 -->
<g id="node16" class="node">
<title>Node16</title>
<g id="a_node16"><a xlink:href="IPL_8hpp.html" target="_top" xlink:title=" ">
<polygon fill="white" stroke="black" points="261.5,-168.5 261.5,-187.5 330.5,-187.5 330.5,-168.5 261.5,-168.5"/>
<text text-anchor="middle" x="296" y="-175.5" font-family="Helvetica,sans-Serif" font-size="10.00">IPL/IPL.hpp</text>
</a>
</g>
</g>
<!-- Node3&#45;&gt;Node16 -->
<g id="edge26" class="edge">
<title>Node3&#45;&gt;Node16</title>
<path fill="none" stroke="midnightblue" d="M427.94,-229.98C401.63,-219.81 357.49,-202.76 327.58,-191.2"/>
<polygon fill="midnightblue" stroke="midnightblue" points="328.61,-187.85 318.02,-187.51 326.09,-194.38 328.61,-187.85"/>
</g>
<!-- Node17 -->
<g id="node17" class="node">
<title>Node17</title>
<g id="a_node17"><a xlink:href="IRenderer_8hpp.html" target="_top" xlink:title=" ">
<polygon fill="white" stroke="black" points="598,-168.5 598,-187.5 738,-187.5 738,-168.5 598,-168.5"/>
<text text-anchor="middle" x="668" y="-175.5" font-family="Helvetica,sans-Serif" font-size="10.00">../Renderer/IRenderer.hpp</text>
</a>
</g>
</g>
<!-- Node3&#45;&gt;Node17 -->
<g id="edge28" class="edge">
<title>Node3&#45;&gt;Node17</title>
<path fill="none" stroke="midnightblue" d="M479.4,-230.48C517.38,-220.11 583.71,-202 626.73,-190.26"/>
<polygon fill="midnightblue" stroke="midnightblue" points="627.88,-193.58 636.6,-187.57 626.03,-186.83 627.88,-193.58"/>
</g>
<!-- Node6 -->
<g id="node6" class="node">
<title>Node6</title>
<g id="a_node6"><a xlink:title=" ">
<polygon fill="white" stroke="#bfbfbf" points="434,-0.5 434,-19.5 484,-19.5 484,-0.5 434,-0.5"/>
<text text-anchor="middle" x="459" y="-7.5" font-family="Helvetica,sans-Serif" font-size="10.00">cstdint</text>
</a>
</g>
</g>
<!-- Node5&#45;&gt;Node6 -->
<g id="edge5" class="edge">
<title>Node5&#45;&gt;Node6</title>
<path fill="none" stroke="midnightblue" d="M391.54,-168.47C395.34,-155.94 402.95,-131.87 411,-112 423.05,-82.27 439.53,-48.85 449.71,-28.89"/>
<polygon fill="midnightblue" stroke="midnightblue" points="452.95,-30.25 454.41,-19.76 446.72,-27.05 452.95,-30.25"/>
</g>
<!-- Node7 -->
<g id="node7" class="node">
<title>Node7</title>
<g id="a_node7"><a xlink:title=" ">
<polygon fill="white" stroke="#bfbfbf" points="322,-112.5 322,-131.5 364,-131.5 364,-112.5 322,-112.5"/>
<text text-anchor="middle" x="343" y="-119.5" font-family="Helvetica,sans-Serif" font-size="10.00">array</text>
</a>
</g>
</g>
<!-- Node5&#45;&gt;Node7 -->
<g id="edge6" class="edge">
<title>Node5&#45;&gt;Node7</title>
<path fill="none" stroke="midnightblue" d="M381.4,-168.08C374.77,-160.3 364.98,-148.8 356.94,-139.37"/>
<polygon fill="midnightblue" stroke="midnightblue" points="359.6,-137.09 350.45,-131.75 354.27,-141.63 359.6,-137.09"/>
</g>
<!-- Node5&#45;&gt;Node8 -->
<g id="edge7" class="edge">
<title>Node5&#45;&gt;Node8</title>
<path fill="none" stroke="midnightblue" d="M363.96,-168.44C337.38,-159.36 295.19,-144.94 265.48,-134.78"/>
<polygon fill="midnightblue" stroke="midnightblue" points="266.51,-131.44 255.92,-131.52 264.25,-138.06 266.51,-131.44"/>
</g>
<!-- Node8&#45;&gt;Node4 -->
<g id="edge10" class="edge">
<title>Node8&#45;&gt;Node4</title>
<path fill="none" stroke="midnightblue" d="M215.15,-112.37C180.12,-93.29 95.88,-47.42 53.8,-24.51"/>
<polygon fill="midnightblue" stroke="midnightblue" points="55.23,-21.3 44.78,-19.59 51.89,-27.45 55.23,-21.3"/>
</g>
<!-- Node8&#45;&gt;Node6 -->
<g id="edge8" class="edge">
<title>Node8&#45;&gt;Node6</title>
<path fill="none" stroke="midnightblue" d="M257.07,-112.34C281.12,-104.04 317.6,-90.63 348,-76 380.22,-60.5 415.56,-38.96 437.51,-25"/>
<polygon fill="midnightblue" stroke="midnightblue" points="439.53,-27.87 446.05,-19.52 435.75,-21.97 439.53,-27.87"/>
</g>
<!-- Node9 -->
<g id="node9" class="node">
<title>Node9</title>
<g id="a_node9"><a xlink:title=" ">
<polygon fill="white" stroke="#bfbfbf" points="76.5,-0.5 76.5,-19.5 123.5,-19.5 123.5,-0.5 76.5,-0.5"/>
<text text-anchor="middle" x="100" y="-7.5" font-family="Helvetica,sans-Serif" font-size="10.00">vector</text>
</a>
</g>
</g>
<!-- Node8&#45;&gt;Node9 -->
<g id="edge9" class="edge">
<title>Node8&#45;&gt;Node9</title>
<path fill="none" stroke="midnightblue" d="M220.72,-112.37C198.53,-93.73 145.89,-49.53 118.02,-26.13"/>
<polygon fill="midnightblue" stroke="midnightblue" points="120.14,-23.34 110.23,-19.59 115.64,-28.7 120.14,-23.34"/>
</g>
<!-- Node10 -->
<g id="node10" class="node">
<title>Node10</title>
<g id="a_node10"><a xlink:title=" ">
<polygon fill="white" stroke="#bfbfbf" points="658,-0.5 658,-19.5 702,-19.5 702,-0.5 658,-0.5"/>
<text text-anchor="middle" x="680" y="-7.5" font-family="Helvetica,sans-Serif" font-size="10.00">string</text>
</a>
</g>
</g>
<!-- Node8&#45;&gt;Node10 -->
<g id="edge11" class="edge">
<title>Node8&#45;&gt;Node10</title>
<path fill="none" stroke="midnightblue" d="M265.86,-112.46C350.54,-91.71 566.12,-38.9 647.89,-18.87"/>
<polygon fill="midnightblue" stroke="midnightblue" points="648.97,-22.21 657.85,-16.43 647.3,-15.41 648.97,-22.21"/>
</g>
<!-- Node11 -->
<g id="node11" class="node">
<title>Node11</title>
<g id="a_node11"><a xlink:href="Int24_8hpp.html" target="_top" xlink:title=" ">
<polygon fill="white" stroke="black" points="142,-0.5 142,-19.5 252,-19.5 252,-0.5 142,-0.5"/>
<text text-anchor="middle" x="197" y="-7.5" font-family="Helvetica,sans-Serif" font-size="10.00">../Models/Int24.hpp</text>
</a>
</g>
</g>
<!-- Node8&#45;&gt;Node11 -->
<g id="edge12" class="edge">
<title>Node8&#45;&gt;Node11</title>
<path fill="none" stroke="midnightblue" d="M228.31,-112.38C225.48,-103.32 220.92,-88.66 217,-76 212.15,-60.31 206.66,-42.49 202.67,-29.48"/>
<polygon fill="midnightblue" stroke="midnightblue" points="205.99,-28.37 199.71,-19.83 199.3,-30.42 205.99,-28.37"/>
</g>
<!-- Node12 -->
<g id="node12" class="node">
<title>Node12</title>
<g id="a_node12"><a xlink:href="Components_8hpp.html" target="_top" xlink:title=" ">
<polygon fill="white" stroke="black" points="270,-0.5 270,-19.5 416,-19.5 416,-0.5 270,-0.5"/>
<text text-anchor="middle" x="343" y="-7.5" font-family="Helvetica,sans-Serif" font-size="10.00">../Models/Components.hpp</text>
</a>
</g>
</g>
<!-- Node8&#45;&gt;Node12 -->
<g id="edge13" class="edge">
<title>Node8&#45;&gt;Node12</title>
<path fill="none" stroke="midnightblue" d="M231.35,-112.39C232.32,-98.87 236.03,-72.51 250,-56 263,-40.63 282.48,-30.09 300.25,-23.1"/>
<polygon fill="midnightblue" stroke="midnightblue" points="301.71,-26.29 309.9,-19.57 299.3,-19.72 301.71,-26.29"/>
</g>
<!-- Node13 -->
<g id="node13" class="node">
<title>Node13</title>
<g id="a_node13"><a xlink:href="IMemory_8hpp.html" target="_top" xlink:title=" ">
<polygon fill="white" stroke="black" points="259,-56.5 259,-75.5 339,-75.5 339,-56.5 259,-56.5"/>
<text text-anchor="middle" x="299" y="-63.5" font-family="Helvetica,sans-Serif" font-size="10.00">IMemory.hpp</text>
</a>
</g>
</g>
<!-- Node8&#45;&gt;Node13 -->
<g id="edge14" class="edge">
<title>Node8&#45;&gt;Node13</title>
<path fill="none" stroke="midnightblue" d="M241.93,-112.32C252.17,-104.18 267.72,-91.84 280,-82.09"/>
<polygon fill="midnightblue" stroke="midnightblue" points="282.22,-84.79 287.88,-75.83 277.87,-79.31 282.22,-84.79"/>
</g>
<!-- Node13&#45;&gt;Node4 -->
<g id="edge17" class="edge">
<title>Node13&#45;&gt;Node4</title>
<path fill="none" stroke="midnightblue" d="M258.66,-57.69C214.29,-49.54 140.65,-35.68 67.82,-20.11"/>
<polygon fill="midnightblue" stroke="midnightblue" points="68.53,-16.68 58.02,-18 67.06,-23.53 68.53,-16.68"/>
</g>
<!-- Node13&#45;&gt;Node6 -->
<g id="edge15" class="edge">
<title>Node13&#45;&gt;Node6</title>
<path fill="none" stroke="midnightblue" d="M324.35,-56.44C351.27,-47.36 394,-32.94 424.09,-22.78"/>
<polygon fill="midnightblue" stroke="midnightblue" points="425.41,-26.03 433.77,-19.52 423.17,-19.4 425.41,-26.03"/>
</g>
<!-- Node13&#45;&gt;Node9 -->
<g id="edge16" class="edge">
<title>Node13&#45;&gt;Node9</title>
<path fill="none" stroke="midnightblue" d="M267.48,-56.47C236.04,-47.96 186.11,-34.43 133.62,-20.17"/>
<polygon fill="midnightblue" stroke="midnightblue" points="134.36,-16.74 123.79,-17.49 132.52,-23.49 134.36,-16.74"/>
</g>
<!-- Node13&#45;&gt;Node10 -->
<g id="edge18" class="edge">
<title>Node13&#45;&gt;Node10</title>
<path fill="none" stroke="midnightblue" d="M339.05,-59.32C415.02,-48.56 578.6,-25.37 647.91,-15.55"/>
<polygon fill="midnightblue" stroke="midnightblue" points="648.41,-19.01 657.82,-14.14 647.43,-12.08 648.41,-19.01"/>
</g>
<!-- Node13&#45;&gt;Node11 -->
<g id="edge19" class="edge">
<title>Node13&#45;&gt;Node11</title>
<path fill="none" stroke="midnightblue" d="M282.61,-56.32C266.33,-47.7 241.13,-34.36 222.28,-24.39"/>
<polygon fill="midnightblue" stroke="midnightblue" points="223.82,-21.24 213.35,-19.65 220.55,-27.43 223.82,-21.24"/>
</g>
<!-- Node13&#45;&gt;Node12 -->
<g id="edge20" class="edge">
<title>Node13&#45;&gt;Node12</title>
<path fill="none" stroke="midnightblue" d="M306.27,-56.08C312.54,-48.38 321.79,-37.03 329.43,-27.65"/>
<polygon fill="midnightblue" stroke="midnightblue" points="332.27,-29.71 335.87,-19.75 326.84,-25.29 332.27,-29.71"/>
</g>
<!-- Node14&#45;&gt;Node10 -->
<g id="edge25" class="edge">
<title>Node14&#45;&gt;Node10</title>
<path fill="none" stroke="midnightblue" d="M545.45,-168.35C567.05,-161.4 594.62,-149.82 614,-132 645.6,-102.95 665.32,-55.2 674.29,-29.22"/>
<polygon fill="midnightblue" stroke="midnightblue" points="677.68,-30.13 677.48,-19.54 671.03,-27.94 677.68,-30.13"/>
</g>
<!-- Node15 -->
<g id="node15" class="node">
<title>Node15</title>
<g id="a_node15"><a xlink:href="ARectangleMemory_8hpp.html" target="_top" xlink:title=" ">
<polygon fill="white" stroke="black" points="419.5,-112.5 419.5,-131.5 604.5,-131.5 604.5,-112.5 419.5,-112.5"/>
<text text-anchor="middle" x="512" y="-119.5" font-family="Helvetica,sans-Serif" font-size="10.00">../Memory/ARectangleMemory.hpp</text>
</a>
</g>
</g>
<!-- Node14&#45;&gt;Node15 -->
<g id="edge23" class="edge">
<title>Node14&#45;&gt;Node15</title>
<path fill="none" stroke="midnightblue" d="M512,-168.08C512,-161.01 512,-150.86 512,-141.99"/>
<polygon fill="midnightblue" stroke="midnightblue" points="515.5,-141.75 512,-131.75 508.5,-141.75 515.5,-141.75"/>
</g>
<!-- Node15&#45;&gt;Node13 -->
<g id="edge24" class="edge">
<title>Node15&#45;&gt;Node13</title>
<path fill="none" stroke="midnightblue" d="M478.25,-112.44C441.48,-103.12 382.55,-88.18 342.38,-78"/>
<polygon fill="midnightblue" stroke="midnightblue" points="343.15,-74.58 332.59,-75.52 341.43,-81.37 343.15,-74.58"/>
</g>
<!-- Node16&#45;&gt;Node8 -->
<g id="edge27" class="edge">
<title>Node16&#45;&gt;Node8</title>
<path fill="none" stroke="midnightblue" d="M285.56,-168.32C275.85,-160.26 261.18,-148.08 249.5,-138.37"/>
<polygon fill="midnightblue" stroke="midnightblue" points="251.56,-135.53 241.63,-131.83 247.09,-140.92 251.56,-135.53"/>
</g>
<!-- Node17&#45;&gt;Node10 -->
<g id="edge29" class="edge">
<title>Node17&#45;&gt;Node10</title>
<path fill="none" stroke="midnightblue" d="M679.54,-168.49C689.48,-160.38 703.12,-147.18 709,-132 722.72,-96.57 703.9,-52.71 690.78,-28.73"/>
<polygon fill="midnightblue" stroke="midnightblue" points="693.63,-26.67 685.61,-19.75 687.56,-30.16 693.63,-26.67"/>
</g>
<!-- Node18 -->
<g id="node18" class="node">
<title>Node18</title>
<g id="a_node18"><a xlink:title=" ">
<polygon fill="white" stroke="#bfbfbf" points="660,-112.5 660,-131.5 700,-131.5 700,-112.5 660,-112.5"/>
<text text-anchor="middle" x="680" y="-119.5" font-family="Helvetica,sans-Serif" font-size="10.00">span</text>
</a>
</g>
</g>
<!-- Node17&#45;&gt;Node18 -->
<g id="edge30" class="edge">
<title>Node17&#45;&gt;Node18</title>
<path fill="none" stroke="midnightblue" d="M669.98,-168.08C671.57,-160.93 673.86,-150.64 675.85,-141.69"/>
<polygon fill="midnightblue" stroke="midnightblue" points="679.3,-142.27 678.06,-131.75 672.47,-140.75 679.3,-142.27"/>
</g>
<!-- Node20 -->
<g id="node20" class="node">
<title>Node20</title>
<g id="a_node20"><a xlink:title=" ">
<polygon fill="white" stroke="#bfbfbf" points="794.5,-168.5 794.5,-187.5 859.5,-187.5 859.5,-168.5 794.5,-168.5"/>
<text text-anchor="middle" x="827" y="-175.5" font-family="Helvetica,sans-Serif" font-size="10.00">exception</text>
</a>
</g>
</g>
<!-- Node19&#45;&gt;Node20 -->
<g id="edge32" class="edge">
<title>Node19&#45;&gt;Node20</title>
<path fill="none" stroke="midnightblue" d="M681.26,-224.4C714.41,-214.07 758.85,-200.23 789.9,-190.56"/>
<polygon fill="midnightblue" stroke="midnightblue" points="790.98,-193.89 799.49,-187.57 788.9,-187.2 790.98,-193.89"/>
</g>
<!-- Node21&#45;&gt;Node10 -->
<g id="edge35" class="edge">
<title>Node21&#45;&gt;Node10</title>
<path fill="none" stroke="midnightblue" d="M1034.33,-229.84C1050.12,-221.59 1071.35,-207.53 1081,-188 1090.62,-168.52 1078.69,-122.12 1069,-112 1019.13,-59.94 796.27,-26.11 712.22,-15.01"/>
<polygon fill="midnightblue" stroke="midnightblue" points="712.59,-11.53 702.22,-13.71 711.69,-18.47 712.59,-11.53"/>
</g>
<!-- Node21&#45;&gt;Node20 -->
<g id="edge34" class="edge">
<title>Node21&#45;&gt;Node20</title>
<path fill="none" stroke="midnightblue" d="M988.06,-229.98C955.4,-219.64 900.18,-202.16 863.66,-190.6"/>
<polygon fill="midnightblue" stroke="midnightblue" points="864.48,-187.19 853.89,-187.51 862.36,-193.86 864.48,-187.19"/>
</g>
<!-- Node22 -->
<g id="node22" class="node">
<title>Node22</title>
<g id="a_node22"><a xlink:title=" ">
<polygon fill="white" stroke="#bfbfbf" points="1128.5,-168.5 1128.5,-187.5 1159.5,-187.5 1159.5,-168.5 1128.5,-168.5"/>
<text text-anchor="middle" x="1144" y="-175.5" font-family="Helvetica,sans-Serif" font-size="10.00">ios</text>
</a>
</g>
</g>
<!-- Node21&#45;&gt;Node22 -->
<g id="edge36" class="edge">
<title>Node21&#45;&gt;Node22</title>
<path fill="none" stroke="midnightblue" d="M1033.48,-229.98C1055.99,-219.59 1094.11,-202.01 1119.16,-190.46"/>
<polygon fill="midnightblue" stroke="midnightblue" points="1120.77,-193.57 1128.39,-186.2 1117.84,-187.21 1120.77,-193.57"/>
</g>
<!-- Node23 -->
<g id="node23" class="node">
<title>Node23</title>
<g id="a_node23"><a xlink:title=" ">
<polygon fill="white" stroke="#bfbfbf" points="878,-168.5 878,-187.5 934,-187.5 934,-168.5 878,-168.5"/>
<text text-anchor="middle" x="906" y="-175.5" font-family="Helvetica,sans-Serif" font-size="10.00">sstream</text>
</a>
</g>
</g>
<!-- Node21&#45;&gt;Node23 -->
<g id="edge37" class="edge">
<title>Node21&#45;&gt;Node23</title>
<path fill="none" stroke="midnightblue" d="M999.38,-229.98C981.41,-220.17 951.68,-203.93 930.59,-192.42"/>
<polygon fill="midnightblue" stroke="midnightblue" points="932.04,-189.23 921.59,-187.51 928.69,-195.37 932.04,-189.23"/>
</g>
<!-- Node24 -->
<g id="node24" class="node">
<title>Node24</title>
<g id="a_node24"><a xlink:href="DebuggableError_8hpp.html" target="_top" xlink:title=" ">
<polygon fill="white" stroke="black" points="952.5,-168.5 952.5,-187.5 1071.5,-187.5 1071.5,-168.5 952.5,-168.5"/>
<text text-anchor="middle" x="1012" y="-175.5" font-family="Helvetica,sans-Serif" font-size="10.00">DebuggableError.hpp</text>
</a>
</g>
</g>
<!-- Node21&#45;&gt;Node24 -->
<g id="edge38" class="edge">
<title>Node21&#45;&gt;Node24</title>
<path fill="none" stroke="midnightblue" d="M1014.57,-229.98C1014.15,-221.58 1013.49,-208.48 1012.94,-197.66"/>
<polygon fill="midnightblue" stroke="midnightblue" points="1016.43,-197.32 1012.43,-187.51 1009.44,-197.67 1016.43,-197.32"/>
</g>
<!-- Node25 -->
<g id="node25" class="node">
<title>Node25</title>
<g id="a_node25"><a xlink:title=" ">
<polygon fill="white" stroke="#bfbfbf" points="964.5,-112.5 964.5,-131.5 1059.5,-131.5 1059.5,-112.5 964.5,-112.5"/>
<text text-anchor="middle" x="1012" y="-119.5" font-family="Helvetica,sans-Serif" font-size="10.00">bits/exception.h</text>
</a>
</g>
</g>
<!-- Node24&#45;&gt;Node25 -->
<g id="edge39" class="edge">
<title>Node24&#45;&gt;Node25</title>
<path fill="none" stroke="midnightblue" d="M1012,-168.08C1012,-161.01 1012,-150.86 1012,-141.99"/>
<polygon fill="midnightblue" stroke="midnightblue" points="1015.5,-141.75 1012,-131.75 1008.5,-141.75 1015.5,-141.75"/>
</g>
<!-- Node26&#45;&gt;Node10 -->
<g id="edge42" class="edge">
<title>Node26&#45;&gt;Node10</title>
<path fill="none" stroke="midnightblue" d="M815.98,-229.87C808.17,-220.06 795.4,-203.4 786,-188 751.83,-132.01 756.77,-110.31 720,-56 713.06,-45.74 703.97,-35.34 696.21,-27.12"/>
<polygon fill="midnightblue" stroke="midnightblue" points="698.5,-24.46 689.03,-19.72 693.48,-29.34 698.5,-24.46"/>
</g>
<!-- Node26&#45;&gt;Node20 -->
<g id="edge41" class="edge">
<title>Node26&#45;&gt;Node20</title>
<path fill="none" stroke="midnightblue" d="M823.57,-229.98C824.14,-221.58 825.02,-208.48 825.75,-197.66"/>
<polygon fill="midnightblue" stroke="midnightblue" points="829.25,-197.72 826.43,-187.51 822.26,-197.25 829.25,-197.72"/>
</g>
<!-- Node26&#45;&gt;Node23 -->
<g id="edge43" class="edge">
<title>Node26&#45;&gt;Node23</title>
<path fill="none" stroke="midnightblue" d="M834.89,-229.98C848.2,-220.43 870,-204.81 885.96,-193.37"/>
<polygon fill="midnightblue" stroke="midnightblue" points="888.04,-196.18 894.13,-187.51 883.96,-190.49 888.04,-196.18"/>
</g>
<!-- Node26&#45;&gt;Node24 -->
<g id="edge44" class="edge">
<title>Node26&#45;&gt;Node24</title>
<path fill="none" stroke="midnightblue" d="M850.08,-229.98C882.92,-219.64 938.43,-202.16 975.15,-190.6"/>
<polygon fill="midnightblue" stroke="midnightblue" points="976.48,-193.85 984.97,-187.51 974.38,-187.17 976.48,-193.85"/>
</g>
</g>
</svg>
