<?xml version="1.0" encoding="UTF-8" standalone="no"?>
<!DOCTYPE svg PUBLIC "-//W3C//DTD SVG 1.1//EN"
 "http://www.w3.org/Graphics/SVG/1.1/DTD/svg11.dtd">
<!-- Generated by graphviz version 2.43.0 (0)
 -->
<!-- Title: sources/Debugger/APUDebug.cpp Pages: 1 -->
<svg width="1840pt" height="476pt"
 viewBox="0.00 0.00 1840.37 476.00" xmlns="http://www.w3.org/2000/svg" xmlns:xlink="http://www.w3.org/1999/xlink">
<g id="graph0" class="graph" transform="scale(1 1) rotate(0) translate(4 472)">
<title>sources/Debugger/APUDebug.cpp</title>
<polygon fill="white" stroke="transparent" points="-4,4 -4,-472 1836.37,-472 1836.37,4 -4,4"/>
<!-- Node1 -->
<g id="node1" class="node">
<title>Node1</title>
<g id="a_node1"><a xlink:title=" ">
<polygon fill="#bfbfbf" stroke="black" points="1373.49,-448.5 1373.49,-467.5 1552.49,-467.5 1552.49,-448.5 1373.49,-448.5"/>
<text text-anchor="middle" x="1462.99" y="-455.5" font-family="Helvetica,sans-Serif" font-size="10.00">sources/Debugger/APUDebug.cpp</text>
</a>
</g>
</g>
<!-- Node2 -->
<g id="node2" class="node">
<title>Node2</title>
<g id="a_node2"><a xlink:href="APUDebug_8hpp.html" target="_top" xlink:title=" ">
<polygon fill="white" stroke="black" points="898.49,-392.5 898.49,-411.5 987.49,-411.5 987.49,-392.5 898.49,-392.5"/>
<text text-anchor="middle" x="942.99" y="-399.5" font-family="Helvetica,sans-Serif" font-size="10.00">APUDebug.hpp</text>
</a>
</g>
</g>
<!-- Node1&#45;&gt;Node2 -->
<g id="edge1" class="edge">
<title>Node1&#45;&gt;Node2</title>
<path fill="none" stroke="midnightblue" d="M1380.88,-448.47C1273.82,-437.36 1089.45,-418.21 997.89,-408.7"/>
<polygon fill="midnightblue" stroke="midnightblue" points="998.03,-405.2 987.72,-407.65 997.31,-412.16 998.03,-405.2"/>
</g>
<!-- Node33 -->
<g id="node33" class="node">
<title>Node33</title>
<g id="a_node33"><a xlink:href="Utility_8hpp.html" target="_top" xlink:title=" ">
<polygon fill="white" stroke="black" points="1408.99,-336.5 1408.99,-355.5 1516.99,-355.5 1516.99,-336.5 1408.99,-336.5"/>
<text text-anchor="middle" x="1462.99" y="-343.5" font-family="Helvetica,sans-Serif" font-size="10.00">../Utility/Utility.hpp</text>
</a>
</g>
</g>
<!-- Node1&#45;&gt;Node33 -->
<g id="edge72" class="edge">
<title>Node1&#45;&gt;Node33</title>
<path fill="none" stroke="midnightblue" d="M1462.99,-448.37C1462.99,-430.62 1462.99,-389.67 1462.99,-365.6"/>
<polygon fill="midnightblue" stroke="midnightblue" points="1466.49,-365.59 1462.99,-355.59 1459.49,-365.59 1466.49,-365.59"/>
</g>
<!-- Node36 -->
<g id="node36" class="node">
<title>Node36</title>
<g id="a_node36"><a xlink:href="InvalidOpcode_8hpp.html" target="_top" xlink:title=" ">
<polygon fill="white" stroke="black" points="1605.49,-336.5 1605.49,-355.5 1778.49,-355.5 1778.49,-336.5 1605.49,-336.5"/>
<text text-anchor="middle" x="1691.99" y="-343.5" font-family="Helvetica,sans-Serif" font-size="10.00">../Exceptions/InvalidOpcode.hpp</text>
</a>
</g>
</g>
<!-- Node1&#45;&gt;Node36 -->
<g id="edge77" class="edge">
<title>Node1&#45;&gt;Node36</title>
<path fill="none" stroke="midnightblue" d="M1480.96,-448.37C1521.01,-429.13 1617.78,-382.65 1665.07,-359.93"/>
<polygon fill="midnightblue" stroke="midnightblue" points="1666.61,-363.08 1674.1,-355.59 1663.58,-356.77 1666.61,-363.08"/>
</g>
<!-- Node3 -->
<g id="node3" class="node">
<title>Node3</title>
<g id="a_node3"><a xlink:href="APU_8hpp.html" target="_top" xlink:title=" ">
<polygon fill="white" stroke="black" points="661.99,-224.5 661.99,-243.5 751.99,-243.5 751.99,-224.5 661.99,-224.5"/>
<text text-anchor="middle" x="706.99" y="-231.5" font-family="Helvetica,sans-Serif" font-size="10.00">../APU/APU.hpp</text>
</a>
</g>
</g>
<!-- Node2&#45;&gt;Node3 -->
<g id="edge2" class="edge">
<title>Node2&#45;&gt;Node3</title>
<path fill="none" stroke="midnightblue" d="M919,-392.4C898.12,-384.42 867.46,-371.45 842.99,-356 794.01,-325.07 745.46,-276.41 721.82,-251.26"/>
<polygon fill="midnightblue" stroke="midnightblue" points="724.17,-248.64 714.8,-243.69 719.03,-253.4 724.17,-248.64"/>
</g>
<!-- Node19 -->
<g id="node19" class="node">
<title>Node19</title>
<g id="a_node19"><a xlink:href="SNES_8hpp.html" target="_top" xlink:title=" ">
<polygon fill="white" stroke="black" points="851.99,-336.5 851.99,-355.5 923.99,-355.5 923.99,-336.5 851.99,-336.5"/>
<text text-anchor="middle" x="887.99" y="-343.5" font-family="Helvetica,sans-Serif" font-size="10.00">../SNES.hpp</text>
</a>
</g>
</g>
<!-- Node2&#45;&gt;Node19 -->
<g id="edge31" class="edge">
<title>Node2&#45;&gt;Node19</title>
<path fill="none" stroke="midnightblue" d="M933.91,-392.08C925.82,-384.14 913.79,-372.34 904.08,-362.8"/>
<polygon fill="midnightblue" stroke="midnightblue" points="906.49,-360.26 896.9,-355.75 901.59,-365.25 906.49,-360.26"/>
</g>
<!-- Node32 -->
<g id="node32" class="node">
<title>Node32</title>
<g id="a_node32"><a xlink:title=" ">
<polygon fill="white" stroke="#bfbfbf" points="942.49,-336.5 942.49,-355.5 1053.49,-355.5 1053.49,-336.5 942.49,-336.5"/>
<text text-anchor="middle" x="997.99" y="-343.5" font-family="Helvetica,sans-Serif" font-size="10.00">../../ui/ui_apuView.h</text>
</a>
</g>
</g>
<!-- Node2&#45;&gt;Node32 -->
<g id="edge71" class="edge">
<title>Node2&#45;&gt;Node32</title>
<path fill="none" stroke="midnightblue" d="M952.07,-392.08C960.16,-384.14 972.19,-372.34 981.9,-362.8"/>
<polygon fill="midnightblue" stroke="midnightblue" points="984.39,-365.25 989.08,-355.75 979.49,-360.26 984.39,-365.25"/>
</g>
<!-- Node4 -->
<g id="node4" class="node">
<title>Node4</title>
<g id="a_node4"><a xlink:title=" ">
<polygon fill="white" stroke="#bfbfbf" points="458.99,-0.5 458.99,-19.5 516.99,-19.5 516.99,-0.5 458.99,-0.5"/>
<text text-anchor="middle" x="487.99" y="-7.5" font-family="Helvetica,sans-Serif" font-size="10.00">memory</text>
</a>
</g>
</g>
<!-- Node3&#45;&gt;Node4 -->
<g id="edge3" class="edge">
<title>Node3&#45;&gt;Node4</title>
<path fill="none" stroke="midnightblue" d="M691.85,-224.49C664.76,-208.75 607.17,-172.95 567.99,-132 536.93,-99.53 510.31,-53.55 497.02,-28.66"/>
<polygon fill="midnightblue" stroke="midnightblue" points="500.05,-26.9 492.31,-19.66 493.85,-30.14 500.05,-26.9"/>
</g>
<!-- Node5 -->
<g id="node5" class="node">
<title>Node5</title>
<g id="a_node5"><a xlink:href="DSP_8hpp.html" target="_top" xlink:title=" ">
<polygon fill="white" stroke="black" points="28.99,-168.5 28.99,-187.5 106.99,-187.5 106.99,-168.5 28.99,-168.5"/>
<text text-anchor="middle" x="67.99" y="-175.5" font-family="Helvetica,sans-Serif" font-size="10.00">DSP/DSP.hpp</text>
</a>
</g>
</g>
<!-- Node3&#45;&gt;Node5 -->
<g id="edge4" class="edge">
<title>Node3&#45;&gt;Node5</title>
<path fill="none" stroke="midnightblue" d="M661.8,-225.38C658.15,-224.87 654.51,-224.4 650.99,-224 421.72,-197.66 362.53,-211.84 132.99,-188 127.88,-187.47 122.55,-186.85 117.25,-186.18"/>
<polygon fill="midnightblue" stroke="midnightblue" points="117.49,-182.68 107.12,-184.86 116.58,-189.62 117.49,-182.68"/>
</g>
<!-- Node8 -->
<g id="node8" class="node">
<title>Node8</title>
<g id="a_node8"><a xlink:href="AMemory_8hpp.html" target="_top" xlink:title=" ">
<polygon fill="white" stroke="black" points="577.49,-112.5 577.49,-131.5 722.49,-131.5 722.49,-112.5 577.49,-112.5"/>
<text text-anchor="middle" x="649.99" y="-119.5" font-family="Helvetica,sans-Serif" font-size="10.00">../../Memory/AMemory.hpp</text>
</a>
</g>
</g>
<!-- Node3&#45;&gt;Node8 -->
<g id="edge21" class="edge">
<title>Node3&#45;&gt;Node8</title>
<path fill="none" stroke="midnightblue" d="M693.95,-224.3C683,-216.24 667.92,-203.23 659.99,-188 652.5,-173.6 650.24,-155.14 649.72,-141.58"/>
<polygon fill="midnightblue" stroke="midnightblue" points="653.22,-141.49 649.61,-131.53 646.22,-141.57 653.22,-141.49"/>
</g>
<!-- Node14 -->
<g id="node14" class="node">
<title>Node14</title>
<g id="a_node14"><a xlink:href="Ram_8hpp.html" target="_top" xlink:title=" ">
<polygon fill="white" stroke="black" points="990.49,-168.5 990.49,-187.5 1085.49,-187.5 1085.49,-168.5 990.49,-168.5"/>
<text text-anchor="middle" x="1037.99" y="-175.5" font-family="Helvetica,sans-Serif" font-size="10.00">../Ram/Ram.hpp</text>
</a>
</g>
</g>
<!-- Node3&#45;&gt;Node14 -->
<g id="edge22" class="edge">
<title>Node3&#45;&gt;Node14</title>
<path fill="none" stroke="midnightblue" d="M752.32,-225.6C811.56,-215.94 915.38,-199 980.21,-188.43"/>
<polygon fill="midnightblue" stroke="midnightblue" points="980.96,-191.85 990.26,-186.79 979.83,-184.94 980.96,-191.85"/>
</g>
<!-- Node16 -->
<g id="node16" class="node">
<title>Node16</title>
<g id="a_node16"><a xlink:href="IPL_8hpp.html" target="_top" xlink:title=" ">
<polygon fill="white" stroke="black" points="668.49,-168.5 668.49,-187.5 737.49,-187.5 737.49,-168.5 668.49,-168.5"/>
<text text-anchor="middle" x="702.99" y="-175.5" font-family="Helvetica,sans-Serif" font-size="10.00">IPL/IPL.hpp</text>
</a>
</g>
</g>
<!-- Node3&#45;&gt;Node16 -->
<g id="edge26" class="edge">
<title>Node3&#45;&gt;Node16</title>
<path fill="none" stroke="midnightblue" d="M706.33,-224.08C705.81,-217.01 705.05,-206.86 704.4,-197.99"/>
<polygon fill="midnightblue" stroke="midnightblue" points="707.87,-197.47 703.64,-187.75 700.89,-197.98 707.87,-197.47"/>
</g>
<!-- Node17 -->
<g id="node17" class="node">
<title>Node17</title>
<g id="a_node17"><a xlink:href="IRenderer_8hpp.html" target="_top" xlink:title=" ">
<polygon fill="white" stroke="black" points="755.99,-168.5 755.99,-187.5 895.99,-187.5 895.99,-168.5 755.99,-168.5"/>
<text text-anchor="middle" x="825.99" y="-175.5" font-family="Helvetica,sans-Serif" font-size="10.00">../Renderer/IRenderer.hpp</text>
</a>
</g>
</g>
<!-- Node3&#45;&gt;Node17 -->
<g id="edge28" class="edge">
<title>Node3&#45;&gt;Node17</title>
<path fill="none" stroke="midnightblue" d="M725.85,-224.44C745.26,-215.64 775.72,-201.81 797.95,-191.72"/>
<polygon fill="midnightblue" stroke="midnightblue" points="799.56,-194.84 807.22,-187.52 796.67,-188.46 799.56,-194.84"/>
</g>
<!-- Node6 -->
<g id="node6" class="node">
<title>Node6</title>
<g id="a_node6"><a xlink:title=" ">
<polygon fill="white" stroke="#bfbfbf" points="329.99,-0.5 329.99,-19.5 379.99,-19.5 379.99,-0.5 329.99,-0.5"/>
<text text-anchor="middle" x="354.99" y="-7.5" font-family="Helvetica,sans-Serif" font-size="10.00">cstdint</text>
</a>
</g>
</g>
<!-- Node5&#45;&gt;Node6 -->
<g id="edge5" class="edge">
<title>Node5&#45;&gt;Node6</title>
<path fill="none" stroke="midnightblue" d="M53.51,-168.37C34.45,-155.9 5.02,-132.16 19.99,-112 56.28,-63.16 240.91,-28.91 319.5,-16.32"/>
<polygon fill="midnightblue" stroke="midnightblue" points="320.53,-19.7 329.86,-14.69 319.44,-12.79 320.53,-19.7"/>
</g>
<!-- Node7 -->
<g id="node7" class="node">
<title>Node7</title>
<g id="a_node7"><a xlink:title=" ">
<polygon fill="white" stroke="#bfbfbf" points="28.99,-112.5 28.99,-131.5 70.99,-131.5 70.99,-112.5 28.99,-112.5"/>
<text text-anchor="middle" x="49.99" y="-119.5" font-family="Helvetica,sans-Serif" font-size="10.00">array</text>
</a>
</g>
</g>
<!-- Node5&#45;&gt;Node7 -->
<g id="edge6" class="edge">
<title>Node5&#45;&gt;Node7</title>
<path fill="none" stroke="midnightblue" d="M65.02,-168.08C62.61,-160.85 59.13,-150.41 56.12,-141.4"/>
<polygon fill="midnightblue" stroke="midnightblue" points="59.39,-140.13 52.91,-131.75 52.75,-142.34 59.39,-140.13"/>
</g>
<!-- Node5&#45;&gt;Node8 -->
<g id="edge7" class="edge">
<title>Node5&#45;&gt;Node8</title>
<path fill="none" stroke="midnightblue" d="M107.13,-171.25C115.65,-170.09 124.61,-168.94 132.99,-168 285.76,-150.79 464.58,-136.53 566.84,-128.93"/>
<polygon fill="midnightblue" stroke="midnightblue" points="567.38,-132.4 577.1,-128.17 566.87,-125.42 567.38,-132.4"/>
</g>
<!-- Node8&#45;&gt;Node4 -->
<g id="edge10" class="edge">
<title>Node8&#45;&gt;Node4</title>
<path fill="none" stroke="midnightblue" d="M641.77,-112.18C629.02,-98.84 603.3,-73.28 577.99,-56 559.24,-43.2 536.34,-31.8 518.33,-23.68"/>
<polygon fill="midnightblue" stroke="midnightblue" points="519.45,-20.35 508.89,-19.51 516.62,-26.75 519.45,-20.35"/>
</g>
<!-- Node8&#45;&gt;Node6 -->
<g id="edge8" class="edge">
<title>Node8&#45;&gt;Node6</title>
<path fill="none" stroke="midnightblue" d="M626.84,-112.37C574.6,-92.89 447.46,-45.48 387.41,-23.09"/>
<polygon fill="midnightblue" stroke="midnightblue" points="388.62,-19.81 378.03,-19.59 386.18,-26.36 388.62,-19.81"/>
</g>
<!-- Node9 -->
<g id="node9" class="node">
<title>Node9</title>
<g id="a_node9"><a xlink:title=" ">
<polygon fill="white" stroke="#bfbfbf" points="607.49,-0.5 607.49,-19.5 654.49,-19.5 654.49,-0.5 607.49,-0.5"/>
<text text-anchor="middle" x="630.99" y="-7.5" font-family="Helvetica,sans-Serif" font-size="10.00">vector</text>
</a>
</g>
</g>
<!-- Node8&#45;&gt;Node9 -->
<g id="edge9" class="edge">
<title>Node8&#45;&gt;Node9</title>
<path fill="none" stroke="midnightblue" d="M648.5,-112.37C645.43,-94.62 638.36,-53.67 634.2,-29.6"/>
<polygon fill="midnightblue" stroke="midnightblue" points="637.63,-28.85 632.47,-19.59 630.73,-30.04 637.63,-28.85"/>
</g>
<!-- Node10 -->
<g id="node10" class="node">
<title>Node10</title>
<g id="a_node10"><a xlink:title=" ">
<polygon fill="white" stroke="#bfbfbf" points="1309.99,-0.5 1309.99,-19.5 1353.99,-19.5 1353.99,-0.5 1309.99,-0.5"/>
<text text-anchor="middle" x="1331.99" y="-7.5" font-family="Helvetica,sans-Serif" font-size="10.00">string</text>
</a>
</g>
</g>
<!-- Node8&#45;&gt;Node10 -->
<g id="edge11" class="edge">
<title>Node8&#45;&gt;Node10</title>
<path fill="none" stroke="midnightblue" d="M702.94,-112.46C837.87,-90.7 1191.61,-33.64 1299.98,-16.16"/>
<polygon fill="midnightblue" stroke="midnightblue" points="1300.65,-19.6 1309.97,-14.55 1299.54,-12.69 1300.65,-19.6"/>
</g>
<!-- Node11 -->
<g id="node11" class="node">
<title>Node11</title>
<g id="a_node11"><a xlink:href="Int24_8hpp.html" target="_top" xlink:title=" ">
<polygon fill="white" stroke="black" points="872.99,-0.5 872.99,-19.5 982.99,-19.5 982.99,-0.5 872.99,-0.5"/>
<text text-anchor="middle" x="927.99" y="-7.5" font-family="Helvetica,sans-Serif" font-size="10.00">../Models/Int24.hpp</text>
</a>
</g>
</g>
<!-- Node8&#45;&gt;Node11 -->
<g id="edge12" class="edge">
<title>Node8&#45;&gt;Node11</title>
<path fill="none" stroke="midnightblue" d="M682.45,-112.47C712.16,-104.3 757.14,-91.02 794.99,-76 805.64,-71.78 865.93,-41.92 901.58,-24.18"/>
<polygon fill="midnightblue" stroke="midnightblue" points="903.53,-27.12 910.92,-19.53 900.41,-20.85 903.53,-27.12"/>
</g>
<!-- Node12 -->
<g id="node12" class="node">
<title>Node12</title>
<g id="a_node12"><a xlink:href="Components_8hpp.html" target="_top" xlink:title=" ">
<polygon fill="white" stroke="black" points="672.99,-0.5 672.99,-19.5 818.99,-19.5 818.99,-0.5 672.99,-0.5"/>
<text text-anchor="middle" x="745.99" y="-7.5" font-family="Helvetica,sans-Serif" font-size="10.00">../Models/Components.hpp</text>
</a>
</g>
</g>
<!-- Node8&#45;&gt;Node12 -->
<g id="edge13" class="edge">
<title>Node8&#45;&gt;Node12</title>
<path fill="none" stroke="midnightblue" d="M655.55,-112.17C663.86,-99.26 680.33,-74.73 696.99,-56 706.37,-45.45 717.96,-34.72 727.51,-26.39"/>
<polygon fill="midnightblue" stroke="midnightblue" points="729.96,-28.9 735.28,-19.74 725.41,-23.58 729.96,-28.9"/>
</g>
<!-- Node13 -->
<g id="node13" class="node">
<title>Node13</title>
<g id="a_node13"><a xlink:href="IMemory_8hpp.html" target="_top" xlink:title=" ">
<polygon fill="white" stroke="black" points="705.99,-56.5 705.99,-75.5 785.99,-75.5 785.99,-56.5 705.99,-56.5"/>
<text text-anchor="middle" x="745.99" y="-63.5" font-family="Helvetica,sans-Serif" font-size="10.00">IMemory.hpp</text>
</a>
</g>
</g>
<!-- Node8&#45;&gt;Node13 -->
<g id="edge14" class="edge">
<title>Node8&#45;&gt;Node13</title>
<path fill="none" stroke="midnightblue" d="M665.41,-112.32C680.53,-103.82 703.81,-90.73 721.46,-80.8"/>
<polygon fill="midnightblue" stroke="midnightblue" points="723.6,-83.61 730.6,-75.65 720.17,-77.51 723.6,-83.61"/>
</g>
<!-- Node13&#45;&gt;Node4 -->
<g id="edge17" class="edge">
<title>Node13&#45;&gt;Node4</title>
<path fill="none" stroke="midnightblue" d="M705.96,-56.62C657.3,-46.44 575.72,-29.36 527.36,-19.24"/>
<polygon fill="midnightblue" stroke="midnightblue" points="527.78,-15.75 517.28,-17.13 526.35,-22.6 527.78,-15.75"/>
</g>
<!-- Node13&#45;&gt;Node6 -->
<g id="edge15" class="edge">
<title>Node13&#45;&gt;Node6</title>
<path fill="none" stroke="midnightblue" d="M705.98,-59.47C629.37,-48.89 463.09,-25.93 390.31,-15.88"/>
<polygon fill="midnightblue" stroke="midnightblue" points="390.65,-12.39 380.27,-14.49 389.7,-19.33 390.65,-12.39"/>
</g>
<!-- Node13&#45;&gt;Node9 -->
<g id="edge16" class="edge">
<title>Node13&#45;&gt;Node9</title>
<path fill="none" stroke="midnightblue" d="M727.77,-56.44C709.09,-47.68 679.83,-33.94 658.37,-23.86"/>
<polygon fill="midnightblue" stroke="midnightblue" points="659.67,-20.6 649.13,-19.52 656.69,-26.93 659.67,-20.6"/>
</g>
<!-- Node13&#45;&gt;Node10 -->
<g id="edge18" class="edge">
<title>Node13&#45;&gt;Node10</title>
<path fill="none" stroke="midnightblue" d="M786.29,-61C802.37,-59.42 821.05,-57.6 837.99,-56 1012,-39.56 1220.59,-20.91 1299.56,-13.88"/>
<polygon fill="midnightblue" stroke="midnightblue" points="1300.18,-17.34 1309.83,-12.97 1299.56,-10.37 1300.18,-17.34"/>
</g>
<!-- Node13&#45;&gt;Node11 -->
<g id="edge19" class="edge">
<title>Node13&#45;&gt;Node11</title>
<path fill="none" stroke="midnightblue" d="M774.83,-56.44C805.85,-47.24 855.32,-32.56 889.61,-22.39"/>
<polygon fill="midnightblue" stroke="midnightblue" points="890.7,-25.72 899.29,-19.52 888.7,-19.01 890.7,-25.72"/>
</g>
<!-- Node13&#45;&gt;Node12 -->
<g id="edge20" class="edge">
<title>Node13&#45;&gt;Node12</title>
<path fill="none" stroke="midnightblue" d="M745.99,-56.08C745.99,-49.01 745.99,-38.86 745.99,-29.99"/>
<polygon fill="midnightblue" stroke="midnightblue" points="749.49,-29.75 745.99,-19.75 742.49,-29.75 749.49,-29.75"/>
</g>
<!-- Node14&#45;&gt;Node10 -->
<g id="edge25" class="edge">
<title>Node14&#45;&gt;Node10</title>
<path fill="none" stroke="midnightblue" d="M1076.27,-168.44C1107.18,-160.85 1151.4,-148.41 1187.99,-132 1231.32,-112.57 1243.26,-107.28 1278.99,-76 1295.34,-61.68 1310.65,-41.95 1320.57,-28"/>
<polygon fill="midnightblue" stroke="midnightblue" points="1323.45,-29.99 1326.26,-19.78 1317.69,-26 1323.45,-29.99"/>
</g>
<!-- Node15 -->
<g id="node15" class="node">
<title>Node15</title>
<g id="a_node15"><a xlink:href="ARectangleMemory_8hpp.html" target="_top" xlink:title=" ">
<polygon fill="white" stroke="black" points="993.49,-112.5 993.49,-131.5 1178.49,-131.5 1178.49,-112.5 993.49,-112.5"/>
<text text-anchor="middle" x="1085.99" y="-119.5" font-family="Helvetica,sans-Serif" font-size="10.00">../Memory/ARectangleMemory.hpp</text>
</a>
</g>
</g>
<!-- Node14&#45;&gt;Node15 -->
<g id="edge23" class="edge">
<title>Node14&#45;&gt;Node15</title>
<path fill="none" stroke="midnightblue" d="M1045.92,-168.08C1052.84,-160.3 1063.06,-148.8 1071.44,-139.37"/>
<polygon fill="midnightblue" stroke="midnightblue" points="1074.18,-141.55 1078.21,-131.75 1068.95,-136.9 1074.18,-141.55"/>
</g>
<!-- Node15&#45;&gt;Node13 -->
<g id="edge24" class="edge">
<title>Node15&#45;&gt;Node13</title>
<path fill="none" stroke="midnightblue" d="M1032.12,-112.44C967.29,-102.15 859.3,-85 796.16,-74.97"/>
<polygon fill="midnightblue" stroke="midnightblue" points="796.48,-71.47 786.05,-73.36 795.38,-78.39 796.48,-71.47"/>
</g>
<!-- Node16&#45;&gt;Node8 -->
<g id="edge27" class="edge">
<title>Node16&#45;&gt;Node8</title>
<path fill="none" stroke="midnightblue" d="M694.24,-168.08C686.52,-160.22 675.09,-148.57 665.77,-139.08"/>
<polygon fill="midnightblue" stroke="midnightblue" points="668.08,-136.44 658.58,-131.75 663.09,-141.34 668.08,-136.44"/>
</g>
<!-- Node17&#45;&gt;Node10 -->
<g id="edge29" class="edge">
<title>Node17&#45;&gt;Node10</title>
<path fill="none" stroke="midnightblue" d="M845.32,-168.33C875,-155.19 933.74,-129.88 984.99,-112 1099.23,-72.15 1238.27,-35.02 1299.91,-19.13"/>
<polygon fill="midnightblue" stroke="midnightblue" points="1301,-22.47 1309.81,-16.59 1299.26,-15.69 1301,-22.47"/>
</g>
<!-- Node18 -->
<g id="node18" class="node">
<title>Node18</title>
<g id="a_node18"><a xlink:title=" ">
<polygon fill="white" stroke="#bfbfbf" points="805.99,-112.5 805.99,-131.5 845.99,-131.5 845.99,-112.5 805.99,-112.5"/>
<text text-anchor="middle" x="825.99" y="-119.5" font-family="Helvetica,sans-Serif" font-size="10.00">span</text>
</a>
</g>
</g>
<!-- Node17&#45;&gt;Node18 -->
<g id="edge30" class="edge">
<title>Node17&#45;&gt;Node18</title>
<path fill="none" stroke="midnightblue" d="M825.99,-168.08C825.99,-161.01 825.99,-150.86 825.99,-141.99"/>
<polygon fill="midnightblue" stroke="midnightblue" points="829.49,-141.75 825.99,-131.75 822.49,-141.75 829.49,-141.75"/>
</g>
<!-- Node19&#45;&gt;Node3 -->
<g id="edge67" class="edge">
<title>Node19&#45;&gt;Node3</title>
<path fill="none" stroke="midnightblue" d="M873.79,-336.37C842.6,-317.41 767.87,-272 729.93,-248.94"/>
<polygon fill="midnightblue" stroke="midnightblue" points="731.49,-245.79 721.13,-243.59 727.86,-251.78 731.49,-245.79"/>
</g>
<!-- Node19&#45;&gt;Node14 -->
<g id="edge57" class="edge">
<title>Node19&#45;&gt;Node14</title>
<path fill="none" stroke="midnightblue" d="M913.48,-336.37C932.08,-329.05 956.91,-317 973.99,-300 1004.05,-270.07 1023.31,-223.05 1032.21,-197.33"/>
<polygon fill="midnightblue" stroke="midnightblue" points="1035.57,-198.31 1035.39,-187.72 1028.93,-196.11 1035.57,-198.31"/>
</g>
<!-- Node19&#45;&gt;Node17 -->
<g id="edge68" class="edge">
<title>Node19&#45;&gt;Node17</title>
<path fill="none" stroke="midnightblue" d="M884.66,-336.08C874.86,-309.83 845.99,-232.55 832.76,-197.12"/>
<polygon fill="midnightblue" stroke="midnightblue" points="835.97,-195.71 829.19,-187.57 829.41,-198.16 835.97,-195.71"/>
</g>
<!-- Node20 -->
<g id="node20" class="node">
<title>Node20</title>
<g id="a_node20"><a xlink:href="MemoryBus_8hpp.html" target="_top" xlink:title=" ">
<polygon fill="white" stroke="black" points="319.99,-168.5 319.99,-187.5 459.99,-187.5 459.99,-168.5 319.99,-168.5"/>
<text text-anchor="middle" x="389.99" y="-175.5" font-family="Helvetica,sans-Serif" font-size="10.00">Memory/MemoryBus.hpp</text>
</a>
</g>
</g>
<!-- Node19&#45;&gt;Node20 -->
<g id="edge32" class="edge">
<title>Node19&#45;&gt;Node20</title>
<path fill="none" stroke="midnightblue" d="M851.8,-341.44C753.83,-331.14 486.26,-298.58 418.99,-244 404.77,-232.46 397.29,-212.49 393.52,-197.73"/>
<polygon fill="midnightblue" stroke="midnightblue" points="396.87,-196.69 391.31,-187.67 390.04,-198.19 396.87,-196.69"/>
</g>
<!-- Node21 -->
<g id="node21" class="node">
<title>Node21</title>
<g id="a_node21"><a xlink:href="CPU_8hpp.html" target="_top" xlink:title=" ">
<polygon fill="white" stroke="black" points="883.49,-280.5 883.49,-299.5 964.49,-299.5 964.49,-280.5 883.49,-280.5"/>
<text text-anchor="middle" x="923.99" y="-287.5" font-family="Helvetica,sans-Serif" font-size="10.00">CPU/CPU.hpp</text>
</a>
</g>
</g>
<!-- Node19&#45;&gt;Node21 -->
<g id="edge37" class="edge">
<title>Node19&#45;&gt;Node21</title>
<path fill="none" stroke="midnightblue" d="M893.94,-336.08C898.97,-328.53 906.33,-317.49 912.5,-308.23"/>
<polygon fill="midnightblue" stroke="midnightblue" points="915.52,-310.01 918.16,-299.75 909.7,-306.13 915.52,-310.01"/>
</g>
<!-- Node22 -->
<g id="node22" class="node">
<title>Node22</title>
<g id="a_node22"><a xlink:href="Cartridge_8hpp.html" target="_top" xlink:title=" ">
<polygon fill="white" stroke="black" points="1058.99,-224.5 1058.99,-243.5 1198.99,-243.5 1198.99,-224.5 1058.99,-224.5"/>
<text text-anchor="middle" x="1128.99" y="-231.5" font-family="Helvetica,sans-Serif" font-size="10.00">../Cartridge/Cartridge.hpp</text>
</a>
</g>
</g>
<!-- Node19&#45;&gt;Node22 -->
<g id="edge56" class="edge">
<title>Node19&#45;&gt;Node22</title>
<path fill="none" stroke="midnightblue" d="M924.12,-337.53C955.07,-330.34 1000.32,-317.9 1036.99,-300 1064.93,-286.36 1093.65,-264.59 1111.4,-250.05"/>
<polygon fill="midnightblue" stroke="midnightblue" points="1113.75,-252.65 1119.19,-243.56 1109.27,-247.28 1113.75,-252.65"/>
</g>
<!-- Node26 -->
<g id="node26" class="node">
<title>Node26</title>
<g id="a_node26"><a xlink:href="PPU_8hpp.html" target="_top" xlink:title=" ">
<polygon fill="white" stroke="black" points="561.99,-224.5 561.99,-243.5 641.99,-243.5 641.99,-224.5 561.99,-224.5"/>
<text text-anchor="middle" x="601.99" y="-231.5" font-family="Helvetica,sans-Serif" font-size="10.00">PPU/PPU.hpp</text>
</a>
</g>
</g>
<!-- Node19&#45;&gt;Node26 -->
<g id="edge58" class="edge">
<title>Node19&#45;&gt;Node26</title>
<path fill="none" stroke="midnightblue" d="M865.55,-336.37C815.01,-316.93 692.14,-269.67 633.78,-247.23"/>
<polygon fill="midnightblue" stroke="midnightblue" points="634.92,-243.91 624.33,-243.59 632.41,-250.45 634.92,-243.91"/>
</g>
<!-- Node30 -->
<g id="node30" class="node">
<title>Node30</title>
<g id="a_node30"><a xlink:href="DebuggableError_8hpp.html" target="_top" xlink:title=" ">
<polygon fill="white" stroke="black" points="1432.49,-280.5 1432.49,-299.5 1607.49,-299.5 1607.49,-280.5 1432.49,-280.5"/>
<text text-anchor="middle" x="1519.99" y="-287.5" font-family="Helvetica,sans-Serif" font-size="10.00">Exceptions/DebuggableError.hpp</text>
</a>
</g>
</g>
<!-- Node19&#45;&gt;Node30 -->
<g id="edge69" class="edge">
<title>Node19&#45;&gt;Node30</title>
<path fill="none" stroke="midnightblue" d="M924.08,-337.51C927.42,-336.95 930.76,-336.43 933.99,-336 1147.14,-307.42 1204.65,-317.86 1422.22,-300.13"/>
<polygon fill="midnightblue" stroke="midnightblue" points="1422.68,-303.6 1432.36,-299.29 1422.11,-296.62 1422.68,-303.6"/>
</g>
<!-- Node20&#45;&gt;Node4 -->
<g id="edge35" class="edge">
<title>Node20&#45;&gt;Node4</title>
<path fill="none" stroke="midnightblue" d="M391.73,-168.4C396.24,-147.56 409.84,-93.38 435.99,-56 444.22,-44.23 456.2,-33.58 466.59,-25.6"/>
<polygon fill="midnightblue" stroke="midnightblue" points="468.83,-28.3 474.82,-19.56 464.69,-22.66 468.83,-28.3"/>
</g>
<!-- Node20&#45;&gt;Node6 -->
<g id="edge33" class="edge">
<title>Node20&#45;&gt;Node6</title>
<path fill="none" stroke="midnightblue" d="M388.11,-168.08C382.6,-141.95 366.42,-65.21 358.91,-29.58"/>
<polygon fill="midnightblue" stroke="midnightblue" points="362.28,-28.63 356.8,-19.57 355.44,-30.08 362.28,-28.63"/>
</g>
<!-- Node20&#45;&gt;Node8 -->
<g id="edge36" class="edge">
<title>Node20&#45;&gt;Node8</title>
<path fill="none" stroke="midnightblue" d="M431.19,-168.44C476.64,-159 549.83,-143.8 598.9,-133.61"/>
<polygon fill="midnightblue" stroke="midnightblue" points="599.91,-136.98 608.99,-131.52 598.48,-130.12 599.91,-136.98"/>
</g>
<!-- Node20&#45;&gt;Node9 -->
<g id="edge34" class="edge">
<title>Node20&#45;&gt;Node9</title>
<path fill="none" stroke="midnightblue" d="M402.61,-168.31C441.73,-141.36 561.29,-59.01 610,-25.46"/>
<polygon fill="midnightblue" stroke="midnightblue" points="612.25,-28.16 618.5,-19.61 608.28,-22.4 612.25,-28.16"/>
</g>
<!-- Node21&#45;&gt;Node8 -->
<g id="edge38" class="edge">
<title>Node21&#45;&gt;Node8</title>
<path fill="none" stroke="midnightblue" d="M925.66,-280.21C929.34,-257.99 935.52,-199.11 904.99,-168 881.38,-143.94 797.91,-132.62 732.83,-127.38"/>
<polygon fill="midnightblue" stroke="midnightblue" points="732.79,-123.87 722.55,-126.59 732.25,-130.85 732.79,-123.87"/>
</g>
<!-- Node21&#45;&gt;Node11 -->
<g id="edge40" class="edge">
<title>Node21&#45;&gt;Node11</title>
<path fill="none" stroke="midnightblue" d="M928.61,-280.34C933.05,-271.49 939.44,-257.22 941.99,-244 943.67,-235.27 942.28,-232.88 941.99,-224 939.63,-152.14 932.81,-66.87 929.64,-29.78"/>
<polygon fill="midnightblue" stroke="midnightblue" points="933.1,-29.17 928.75,-19.51 926.13,-29.78 933.1,-29.17"/>
</g>
<!-- Node21&#45;&gt;Node20 -->
<g id="edge39" class="edge">
<title>Node21&#45;&gt;Node20</title>
<path fill="none" stroke="midnightblue" d="M883.41,-288.97C782.48,-288.3 522.82,-282.75 446.99,-244 426.18,-233.37 409.6,-211.63 399.8,-196.22"/>
<polygon fill="midnightblue" stroke="midnightblue" points="402.77,-194.36 394.6,-187.6 396.77,-197.97 402.77,-194.36"/>
</g>
<!-- Node21&#45;&gt;Node22 -->
<g id="edge41" class="edge">
<title>Node21&#45;&gt;Node22</title>
<path fill="none" stroke="midnightblue" d="M956.47,-280.44C991.71,-271.16 1048.09,-256.31 1086.75,-246.13"/>
<polygon fill="midnightblue" stroke="midnightblue" points="1087.88,-249.45 1096.66,-243.52 1086.1,-242.68 1087.88,-249.45"/>
</g>
<!-- Node24 -->
<g id="node24" class="node">
<title>Node24</title>
<g id="a_node24"><a xlink:href="Instruction_8hpp.html" target="_top" xlink:title=" ">
<polygon fill="white" stroke="black" points="1390.49,-56.5 1390.49,-75.5 1479.49,-75.5 1479.49,-56.5 1390.49,-56.5"/>
<text text-anchor="middle" x="1434.99" y="-63.5" font-family="Helvetica,sans-Serif" font-size="10.00">Instruction.hpp</text>
</a>
</g>
</g>
<!-- Node21&#45;&gt;Node24 -->
<g id="edge48" class="edge">
<title>Node21&#45;&gt;Node24</title>
<path fill="none" stroke="midnightblue" d="M964.94,-285C1020.59,-279.01 1122.93,-265.99 1207.99,-244 1278.5,-225.77 1305.75,-234.27 1361.99,-188 1396.13,-159.92 1418.37,-111.43 1428.56,-85.17"/>
<polygon fill="midnightblue" stroke="midnightblue" points="1431.88,-86.28 1432.08,-75.69 1425.31,-83.84 1431.88,-86.28"/>
</g>
<!-- Node25 -->
<g id="node25" class="node">
<title>Node25</title>
<g id="a_node25"><a xlink:href="DMA_8hpp.html" target="_top" xlink:title=" ">
<polygon fill="white" stroke="black" points="456.49,-224.5 456.49,-243.5 543.49,-243.5 543.49,-224.5 456.49,-224.5"/>
<text text-anchor="middle" x="499.99" y="-231.5" font-family="Helvetica,sans-Serif" font-size="10.00">DMA/DMA.hpp</text>
</a>
</g>
</g>
<!-- Node21&#45;&gt;Node25 -->
<g id="edge51" class="edge">
<title>Node21&#45;&gt;Node25</title>
<path fill="none" stroke="midnightblue" d="M883.28,-284.7C816.71,-277.54 680.18,-262.25 553.87,-244.06"/>
<polygon fill="midnightblue" stroke="midnightblue" points="554.04,-240.55 543.64,-242.58 553.03,-247.48 554.04,-240.55"/>
</g>
<!-- Node22&#45;&gt;Node8 -->
<g id="edge43" class="edge">
<title>Node22&#45;&gt;Node8</title>
<path fill="none" stroke="midnightblue" d="M1127.15,-224.06C1123.67,-209.57 1114.61,-181.27 1094.99,-168 1080.23,-158.01 857.78,-139.21 733.12,-129.37"/>
<polygon fill="midnightblue" stroke="midnightblue" points="733.09,-125.85 722.84,-128.56 732.54,-132.83 733.09,-125.85"/>
</g>
<!-- Node22&#45;&gt;Node10 -->
<g id="edge42" class="edge">
<title>Node22&#45;&gt;Node10</title>
<path fill="none" stroke="midnightblue" d="M1199.17,-227.64C1254.43,-221.8 1325.02,-210.15 1342.99,-188 1380.62,-141.64 1354.92,-63.94 1340.25,-28.99"/>
<polygon fill="midnightblue" stroke="midnightblue" points="1343.35,-27.35 1336.13,-19.6 1336.94,-30.16 1343.35,-27.35"/>
</g>
<!-- Node22&#45;&gt;Node11 -->
<g id="edge44" class="edge">
<title>Node22&#45;&gt;Node11</title>
<path fill="none" stroke="midnightblue" d="M1139.32,-224.32C1162.5,-203.77 1214.65,-150.96 1187.99,-112 1144.53,-48.5 1054.85,-24.91 993.07,-16.16"/>
<polygon fill="midnightblue" stroke="midnightblue" points="993.4,-12.67 983.02,-14.83 992.48,-19.61 993.4,-12.67"/>
</g>
<!-- Node22&#45;&gt;Node14 -->
<g id="edge47" class="edge">
<title>Node22&#45;&gt;Node14</title>
<path fill="none" stroke="midnightblue" d="M1114.37,-224.32C1100.04,-215.82 1077.98,-202.73 1061.24,-192.8"/>
<polygon fill="midnightblue" stroke="midnightblue" points="1062.96,-189.75 1052.57,-187.65 1059.39,-195.77 1062.96,-189.75"/>
</g>
<!-- Node22&#45;&gt;Node15 -->
<g id="edge45" class="edge">
<title>Node22&#45;&gt;Node15</title>
<path fill="none" stroke="midnightblue" d="M1130.79,-224.2C1132.99,-211.32 1135.59,-186.84 1127.99,-168 1123.39,-156.58 1114.42,-146.33 1105.96,-138.5"/>
<polygon fill="midnightblue" stroke="midnightblue" points="1108.01,-135.65 1098.15,-131.79 1103.45,-140.96 1108.01,-135.65"/>
</g>
<!-- Node23 -->
<g id="node23" class="node">
<title>Node23</title>
<g id="a_node23"><a xlink:href="InterruptVectors_8hpp.html" target="_top" xlink:title=" ">
<polygon fill="white" stroke="black" points="1217.99,-168.5 1217.99,-187.5 1333.99,-187.5 1333.99,-168.5 1217.99,-168.5"/>
<text text-anchor="middle" x="1275.99" y="-175.5" font-family="Helvetica,sans-Serif" font-size="10.00">InterruptVectors.hpp</text>
</a>
</g>
</g>
<!-- Node22&#45;&gt;Node23 -->
<g id="edge46" class="edge">
<title>Node22&#45;&gt;Node23</title>
<path fill="none" stroke="midnightblue" d="M1152.28,-224.44C1176.8,-215.44 1215.59,-201.19 1243.19,-191.05"/>
<polygon fill="midnightblue" stroke="midnightblue" points="1244.63,-194.25 1252.81,-187.52 1242.21,-187.68 1244.63,-194.25"/>
</g>
<!-- Node24&#45;&gt;Node10 -->
<g id="edge49" class="edge">
<title>Node24&#45;&gt;Node10</title>
<path fill="none" stroke="midnightblue" d="M1418.44,-56.32C1402,-47.7 1376.56,-34.36 1357.52,-24.39"/>
<polygon fill="midnightblue" stroke="midnightblue" points="1358.98,-21.2 1348.5,-19.65 1355.73,-27.4 1358.98,-21.2"/>
</g>
<!-- Node24&#45;&gt;Node11 -->
<g id="edge50" class="edge">
<title>Node24&#45;&gt;Node11</title>
<path fill="none" stroke="midnightblue" d="M1390.44,-60.26C1300.76,-50.7 1098.1,-29.12 993.37,-17.96"/>
<polygon fill="midnightblue" stroke="midnightblue" points="993.56,-14.46 983.25,-16.89 992.82,-21.42 993.56,-14.46"/>
</g>
<!-- Node25&#45;&gt;Node4 -->
<g id="edge53" class="edge">
<title>Node25&#45;&gt;Node4</title>
<path fill="none" stroke="midnightblue" d="M496.82,-224.16C487.96,-198.28 464.19,-120.48 473.99,-56 475.36,-47 478.18,-37.33 480.94,-29.26"/>
<polygon fill="midnightblue" stroke="midnightblue" points="484.26,-30.37 484.39,-19.78 477.68,-27.98 484.26,-30.37"/>
</g>
<!-- Node25&#45;&gt;Node6 -->
<g id="edge52" class="edge">
<title>Node25&#45;&gt;Node6</title>
<path fill="none" stroke="midnightblue" d="M456.35,-228.79C406.28,-222.96 328.76,-210.5 310.99,-188 301.06,-175.43 334.33,-72.11 348.7,-29.39"/>
<polygon fill="midnightblue" stroke="midnightblue" points="352.09,-30.3 351.98,-19.71 345.46,-28.05 352.09,-30.3"/>
</g>
<!-- Node25&#45;&gt;Node11 -->
<g id="edge54" class="edge">
<title>Node25&#45;&gt;Node11</title>
<path fill="none" stroke="midnightblue" d="M521.81,-224.5C563.39,-208.08 656.57,-170.25 731.99,-132 776.04,-109.66 785.94,-101.91 827.99,-76 855.51,-59.04 886.65,-38.6 906.76,-25.23"/>
<polygon fill="midnightblue" stroke="midnightblue" points="908.79,-28.08 915.17,-19.62 904.91,-22.25 908.79,-28.08"/>
</g>
<!-- Node25&#45;&gt;Node20 -->
<g id="edge55" class="edge">
<title>Node25&#45;&gt;Node20</title>
<path fill="none" stroke="midnightblue" d="M482.32,-224.32C464.6,-215.62 437.09,-202.12 416.7,-192.11"/>
<polygon fill="midnightblue" stroke="midnightblue" points="418.14,-188.92 407.62,-187.65 415.05,-195.2 418.14,-188.92"/>
</g>
<!-- Node26&#45;&gt;Node6 -->
<g id="edge59" class="edge">
<title>Node26&#45;&gt;Node6</title>
<path fill="none" stroke="midnightblue" d="M561.93,-225.39C558.58,-224.87 555.23,-224.4 551.99,-224 493.19,-216.74 63.41,-228.31 19.99,-188 -26.46,-144.88 16.82,-83.38 73.99,-56 155.66,-16.88 264.42,-10.71 319.62,-10.36"/>
<polygon fill="midnightblue" stroke="midnightblue" points="319.92,-13.86 329.92,-10.36 319.92,-6.86 319.92,-13.86"/>
</g>
<!-- Node26&#45;&gt;Node8 -->
<g id="edge60" class="edge">
<title>Node26&#45;&gt;Node8</title>
<path fill="none" stroke="midnightblue" d="M604.74,-224.44C608.86,-211.86 617.13,-187.75 625.99,-168 630.11,-158.81 635.31,-148.9 639.81,-140.73"/>
<polygon fill="midnightblue" stroke="midnightblue" points="642.99,-142.22 644.84,-131.79 636.89,-138.79 642.99,-142.22"/>
</g>
<!-- Node26&#45;&gt;Node14 -->
<g id="edge63" class="edge">
<title>Node26&#45;&gt;Node14</title>
<path fill="none" stroke="midnightblue" d="M642.04,-225.7C645.74,-225.1 649.43,-224.52 652.99,-224 768.73,-207.04 904.8,-192.36 980.22,-184.69"/>
<polygon fill="midnightblue" stroke="midnightblue" points="980.86,-188.14 990.46,-183.65 980.16,-181.18 980.86,-188.14"/>
</g>
<!-- Node26&#45;&gt;Node17 -->
<g id="edge62" class="edge">
<title>Node26&#45;&gt;Node17</title>
<path fill="none" stroke="midnightblue" d="M637.48,-224.44C676.31,-215.08 738.65,-200.06 780.91,-189.87"/>
<polygon fill="midnightblue" stroke="midnightblue" points="781.76,-193.26 790.66,-187.52 780.12,-186.46 781.76,-193.26"/>
</g>
<!-- Node26&#45;&gt;Node20 -->
<g id="edge61" class="edge">
<title>Node26&#45;&gt;Node20</title>
<path fill="none" stroke="midnightblue" d="M568.4,-224.44C531.8,-215.12 473.15,-200.18 433.16,-190"/>
<polygon fill="midnightblue" stroke="midnightblue" points="433.98,-186.59 423.43,-187.52 432.25,-193.38 433.98,-186.59"/>
</g>
<!-- Node27 -->
<g id="node27" class="node">
<title>Node27</title>
<g id="a_node27"><a xlink:href="Vector2_8hpp.html" target="_top" xlink:title=" ">
<polygon fill="white" stroke="black" points="141.99,-168.5 141.99,-187.5 263.99,-187.5 263.99,-168.5 141.99,-168.5"/>
<text text-anchor="middle" x="202.99" y="-175.5" font-family="Helvetica,sans-Serif" font-size="10.00">../Models/Vector2.hpp</text>
</a>
</g>
</g>
<!-- Node26&#45;&gt;Node27 -->
<g id="edge64" class="edge">
<title>Node26&#45;&gt;Node27</title>
<path fill="none" stroke="midnightblue" d="M561.9,-225.6C558.55,-225.04 555.22,-224.5 551.99,-224 456.18,-209.21 345.04,-195.46 274.4,-187.15"/>
<polygon fill="midnightblue" stroke="midnightblue" points="274.61,-183.65 264.27,-185.96 273.8,-190.6 274.61,-183.65"/>
</g>
<!-- Node28 -->
<g id="node28" class="node">
<title>Node28</title>
<g id="a_node28"><a xlink:title=" ">
<polygon fill="white" stroke="#bfbfbf" points="89.49,-112.5 89.49,-131.5 146.49,-131.5 146.49,-112.5 89.49,-112.5"/>
<text text-anchor="middle" x="117.99" y="-119.5" font-family="Helvetica,sans-Serif" font-size="10.00">ostream</text>
</a>
</g>
</g>
<!-- Node27&#45;&gt;Node28 -->
<g id="edge65" class="edge">
<title>Node27&#45;&gt;Node28</title>
<path fill="none" stroke="midnightblue" d="M189.33,-168.32C176.07,-159.9 155.72,-146.97 140.14,-137.07"/>
<polygon fill="midnightblue" stroke="midnightblue" points="141.93,-134.06 131.61,-131.65 138.18,-139.97 141.93,-134.06"/>
</g>
<!-- Node29 -->
<g id="node29" class="node">
<title>Node29</title>
<g id="a_node29"><a xlink:title=" ">
<polygon fill="white" stroke="#bfbfbf" points="164.49,-112.5 164.49,-131.5 307.49,-131.5 307.49,-112.5 164.49,-112.5"/>
<text text-anchor="middle" x="235.99" y="-119.5" font-family="Helvetica,sans-Serif" font-size="10.00">SFML/System/Vector2.hpp</text>
</a>
</g>
</g>
<!-- Node27&#45;&gt;Node29 -->
<g id="edge66" class="edge">
<title>Node27&#45;&gt;Node29</title>
<path fill="none" stroke="midnightblue" d="M208.44,-168.08C213,-160.61 219.66,-149.72 225.28,-140.52"/>
<polygon fill="midnightblue" stroke="midnightblue" points="228.41,-142.11 230.64,-131.75 222.44,-138.46 228.41,-142.11"/>
</g>
<!-- Node31 -->
<g id="node31" class="node">
<title>Node31</title>
<g id="a_node31"><a xlink:title=" ">
<polygon fill="white" stroke="#bfbfbf" points="1472.49,-224.5 1472.49,-243.5 1567.49,-243.5 1567.49,-224.5 1472.49,-224.5"/>
<text text-anchor="middle" x="1519.99" y="-231.5" font-family="Helvetica,sans-Serif" font-size="10.00">bits/exception.h</text>
</a>
</g>
</g>
<!-- Node30&#45;&gt;Node31 -->
<g id="edge70" class="edge">
<title>Node30&#45;&gt;Node31</title>
<path fill="none" stroke="midnightblue" d="M1519.99,-280.08C1519.99,-273.01 1519.99,-262.86 1519.99,-253.99"/>
<polygon fill="midnightblue" stroke="midnightblue" points="1523.49,-253.75 1519.99,-243.75 1516.49,-253.75 1523.49,-253.75"/>
</g>
<!-- Node33&#45;&gt;Node10 -->
<g id="edge73" class="edge">
<title>Node33&#45;&gt;Node10</title>
<path fill="none" stroke="midnightblue" d="M1517.34,-341.96C1550.25,-337.32 1590.79,-326.19 1616.99,-300 1638.27,-278.72 1635.99,-265.1 1635.99,-235 1635.99,-235 1635.99,-235 1635.99,-121 1635.99,-63.78 1443.12,-27.92 1364.63,-15.7"/>
<polygon fill="midnightblue" stroke="midnightblue" points="1364.76,-12.18 1354.34,-14.13 1363.7,-19.1 1364.76,-12.18"/>
</g>
<!-- Node33&#45;&gt;Node11 -->
<g id="edge76" class="edge">
<title>Node33&#45;&gt;Node11</title>
<path fill="none" stroke="midnightblue" d="M1431.79,-336.38C1412.68,-329.54 1389.23,-318.05 1374.99,-300 1337.6,-252.61 1378.94,-216.49 1342.99,-168 1284.61,-89.26 1244.56,-90.99 1152.99,-56 1101.1,-36.17 1038.97,-24.59 993.17,-18.16"/>
<polygon fill="midnightblue" stroke="midnightblue" points="993.44,-14.66 983.06,-16.79 992.5,-21.6 993.44,-14.66"/>
</g>
<!-- Node34 -->
<g id="node34" class="node">
<title>Node34</title>
<g id="a_node34"><a xlink:title=" ">
<polygon fill="white" stroke="#bfbfbf" points="1383.49,-280.5 1383.49,-299.5 1414.49,-299.5 1414.49,-280.5 1383.49,-280.5"/>
<text text-anchor="middle" x="1398.99" y="-287.5" font-family="Helvetica,sans-Serif" font-size="10.00">ios</text>
</a>
</g>
</g>
<!-- Node33&#45;&gt;Node34 -->
<g id="edge74" class="edge">
<title>Node33&#45;&gt;Node34</title>
<path fill="none" stroke="midnightblue" d="M1452.71,-336.32C1443.15,-328.26 1428.71,-316.08 1417.21,-306.37"/>
<polygon fill="midnightblue" stroke="midnightblue" points="1419.36,-303.61 1409.46,-299.83 1414.85,-308.96 1419.36,-303.61"/>
</g>
<!-- Node35 -->
<g id="node35" class="node">
<title>Node35</title>
<g id="a_node35"><a xlink:title=" ">
<polygon fill="white" stroke="#bfbfbf" points="1663.99,-280.5 1663.99,-299.5 1719.99,-299.5 1719.99,-280.5 1663.99,-280.5"/>
<text text-anchor="middle" x="1691.99" y="-287.5" font-family="Helvetica,sans-Serif" font-size="10.00">sstream</text>
</a>
</g>
</g>
<!-- Node33&#45;&gt;Node35 -->
<g id="edge75" class="edge">
<title>Node33&#45;&gt;Node35</title>
<path fill="none" stroke="midnightblue" d="M1499.28,-336.44C1541.54,-326.48 1611.04,-310.09 1654.02,-299.95"/>
<polygon fill="midnightblue" stroke="midnightblue" points="1654.89,-303.35 1663.82,-297.64 1653.28,-296.53 1654.89,-303.35"/>
</g>
<!-- Node36&#45;&gt;Node10 -->
<g id="edge79" class="edge">
<title>Node36&#45;&gt;Node10</title>
<path fill="none" stroke="midnightblue" d="M1745.08,-336.42C1768.77,-330.05 1795.28,-319.03 1812.99,-300 1833.5,-277.97 1831.99,-265.1 1831.99,-235 1831.99,-235 1831.99,-235 1831.99,-121 1831.99,-24.88 1475.05,-12.66 1364.34,-11.18"/>
<polygon fill="midnightblue" stroke="midnightblue" points="1364.16,-7.68 1354.12,-11.07 1364.08,-14.68 1364.16,-7.68"/>
</g>
<!-- Node36&#45;&gt;Node30 -->
<g id="edge81" class="edge">
<title>Node36&#45;&gt;Node30</title>
<path fill="none" stroke="midnightblue" d="M1664.74,-336.44C1635.55,-327.28 1589.07,-312.69 1556.68,-302.52"/>
<polygon fill="midnightblue" stroke="midnightblue" points="1557.71,-299.17 1547.12,-299.52 1555.61,-305.85 1557.71,-299.17"/>
</g>
<!-- Node36&#45;&gt;Node35 -->
<g id="edge80" class="edge">
<title>Node36&#45;&gt;Node35</title>
<path fill="none" stroke="midnightblue" d="M1691.99,-336.08C1691.99,-329.01 1691.99,-318.86 1691.99,-309.99"/>
<polygon fill="midnightblue" stroke="midnightblue" points="1695.49,-309.75 1691.99,-299.75 1688.49,-309.75 1695.49,-309.75"/>
</g>
<!-- Node37 -->
<g id="node37" class="node">
<title>Node37</title>
<g id="a_node37"><a xlink:title=" ">
<polygon fill="white" stroke="#bfbfbf" points="1738.49,-280.5 1738.49,-299.5 1803.49,-299.5 1803.49,-280.5 1738.49,-280.5"/>
<text text-anchor="middle" x="1770.99" y="-287.5" font-family="Helvetica,sans-Serif" font-size="10.00">exception</text>
</a>
</g>
</g>
<!-- Node36&#45;&gt;Node37 -->
<g id="edge78" class="edge">
<title>Node36&#45;&gt;Node37</title>
<path fill="none" stroke="midnightblue" d="M1704.68,-336.32C1716.89,-327.98 1735.57,-315.21 1749.99,-305.35"/>
<polygon fill="midnightblue" stroke="midnightblue" points="1752.05,-308.19 1758.33,-299.65 1748.1,-302.41 1752.05,-308.19"/>
</g>
</g>
</svg>
