<?xml version="1.0" encoding="UTF-8" standalone="no"?>
<!DOCTYPE svg PUBLIC "-//W3C//DTD SVG 1.1//EN"
 "http://www.w3.org/Graphics/SVG/1.1/DTD/svg11.dtd">
<!-- Generated by graphviz version 2.43.0 (0)
 -->
<!-- Title: sources/Debugger/APUDebug.hpp Pages: 1 -->
<svg width="1468pt" height="420pt"
 viewBox="0.00 0.00 1468.11 420.00" xmlns="http://www.w3.org/2000/svg" xmlns:xlink="http://www.w3.org/1999/xlink">
<g id="graph0" class="graph" transform="scale(1 1) rotate(0) translate(4 416)">
<title>sources/Debugger/APUDebug.hpp</title>
<polygon fill="white" stroke="transparent" points="-4,4 -4,-416 1464.11,-416 1464.11,4 -4,4"/>
<!-- Node1 -->
<g id="node1" class="node">
<title>Node1</title>
<g id="a_node1"><a xlink:title=" ">
<polygon fill="#bfbfbf" stroke="black" points="710.5,-392.5 710.5,-411.5 890.5,-411.5 890.5,-392.5 710.5,-392.5"/>
<text text-anchor="middle" x="800.5" y="-399.5" font-family="Helvetica,sans-Serif" font-size="10.00">sources/Debugger/APUDebug.hpp</text>
</a>
</g>
</g>
<!-- Node2 -->
<g id="node2" class="node">
<title>Node2</title>
<g id="a_node2"><a xlink:href="APU_8hpp.html" target="_top" xlink:title=" ">
<polygon fill="white" stroke="black" points="749.5,-224.5 749.5,-243.5 839.5,-243.5 839.5,-224.5 749.5,-224.5"/>
<text text-anchor="middle" x="794.5" y="-231.5" font-family="Helvetica,sans-Serif" font-size="10.00">../APU/APU.hpp</text>
</a>
</g>
</g>
<!-- Node1&#45;&gt;Node2 -->
<g id="edge1" class="edge">
<title>Node1&#45;&gt;Node2</title>
<path fill="none" stroke="midnightblue" d="M787.44,-392.44C776.59,-384.47 761.93,-371.52 755.5,-356 740.51,-319.82 765.04,-275.66 781.5,-251.97"/>
<polygon fill="midnightblue" stroke="midnightblue" points="784.48,-253.83 787.52,-243.68 778.81,-249.71 784.48,-253.83"/>
</g>
<!-- Node18 -->
<g id="node18" class="node">
<title>Node18</title>
<g id="a_node18"><a xlink:href="SNES_8hpp.html" target="_top" xlink:title=" ">
<polygon fill="white" stroke="black" points="764.5,-336.5 764.5,-355.5 836.5,-355.5 836.5,-336.5 764.5,-336.5"/>
<text text-anchor="middle" x="800.5" y="-343.5" font-family="Helvetica,sans-Serif" font-size="10.00">../SNES.hpp</text>
</a>
</g>
</g>
<!-- Node1&#45;&gt;Node18 -->
<g id="edge30" class="edge">
<title>Node1&#45;&gt;Node18</title>
<path fill="none" stroke="midnightblue" d="M800.5,-392.08C800.5,-385.01 800.5,-374.86 800.5,-365.99"/>
<polygon fill="midnightblue" stroke="midnightblue" points="804,-365.75 800.5,-355.75 797,-365.75 804,-365.75"/>
</g>
<!-- Node31 -->
<g id="node31" class="node">
<title>Node31</title>
<g id="a_node31"><a xlink:title=" ">
<polygon fill="white" stroke="#bfbfbf" points="855,-336.5 855,-355.5 966,-355.5 966,-336.5 855,-336.5"/>
<text text-anchor="middle" x="910.5" y="-343.5" font-family="Helvetica,sans-Serif" font-size="10.00">../../ui/ui_apuView.h</text>
</a>
</g>
</g>
<!-- Node1&#45;&gt;Node31 -->
<g id="edge70" class="edge">
<title>Node1&#45;&gt;Node31</title>
<path fill="none" stroke="midnightblue" d="M818.17,-392.32C835.89,-383.62 863.4,-370.12 883.79,-360.11"/>
<polygon fill="midnightblue" stroke="midnightblue" points="885.44,-363.2 892.87,-355.65 882.35,-356.92 885.44,-363.2"/>
</g>
<!-- Node3 -->
<g id="node3" class="node">
<title>Node3</title>
<g id="a_node3"><a xlink:title=" ">
<polygon fill="white" stroke="#bfbfbf" points="543.5,-0.5 543.5,-19.5 601.5,-19.5 601.5,-0.5 543.5,-0.5"/>
<text text-anchor="middle" x="572.5" y="-7.5" font-family="Helvetica,sans-Serif" font-size="10.00">memory</text>
</a>
</g>
</g>
<!-- Node2&#45;&gt;Node3 -->
<g id="edge2" class="edge">
<title>Node2&#45;&gt;Node3</title>
<path fill="none" stroke="midnightblue" d="M749.49,-229.07C696.23,-223.43 612.14,-211.07 591.5,-188 551.71,-143.52 561.14,-65.43 568.17,-29.75"/>
<polygon fill="midnightblue" stroke="midnightblue" points="571.64,-30.26 570.31,-19.75 564.8,-28.8 571.64,-30.26"/>
</g>
<!-- Node4 -->
<g id="node4" class="node">
<title>Node4</title>
<g id="a_node4"><a xlink:href="DSP_8hpp.html" target="_top" xlink:title=" ">
<polygon fill="white" stroke="black" points="600.5,-168.5 600.5,-187.5 678.5,-187.5 678.5,-168.5 600.5,-168.5"/>
<text text-anchor="middle" x="639.5" y="-175.5" font-family="Helvetica,sans-Serif" font-size="10.00">DSP/DSP.hpp</text>
</a>
</g>
</g>
<!-- Node2&#45;&gt;Node4 -->
<g id="edge3" class="edge">
<title>Node2&#45;&gt;Node4</title>
<path fill="none" stroke="midnightblue" d="M769.94,-224.44C743.98,-215.4 702.83,-201.06 673.7,-190.92"/>
<polygon fill="midnightblue" stroke="midnightblue" points="674.54,-187.5 663.95,-187.52 672.24,-194.11 674.54,-187.5"/>
</g>
<!-- Node7 -->
<g id="node7" class="node">
<title>Node7</title>
<g id="a_node7"><a xlink:href="AMemory_8hpp.html" target="_top" xlink:title=" ">
<polygon fill="white" stroke="black" points="699,-112.5 699,-131.5 844,-131.5 844,-112.5 699,-112.5"/>
<text text-anchor="middle" x="771.5" y="-119.5" font-family="Helvetica,sans-Serif" font-size="10.00">../../Memory/AMemory.hpp</text>
</a>
</g>
</g>
<!-- Node2&#45;&gt;Node7 -->
<g id="edge20" class="edge">
<title>Node2&#45;&gt;Node7</title>
<path fill="none" stroke="midnightblue" d="M792.7,-224.37C788.98,-206.62 780.42,-165.67 775.39,-141.6"/>
<polygon fill="midnightblue" stroke="midnightblue" points="778.77,-140.66 773.3,-131.59 771.92,-142.1 778.77,-140.66"/>
</g>
<!-- Node13 -->
<g id="node13" class="node">
<title>Node13</title>
<g id="a_node13"><a xlink:href="Ram_8hpp.html" target="_top" xlink:title=" ">
<polygon fill="white" stroke="black" points="1095,-168.5 1095,-187.5 1190,-187.5 1190,-168.5 1095,-168.5"/>
<text text-anchor="middle" x="1142.5" y="-175.5" font-family="Helvetica,sans-Serif" font-size="10.00">../Ram/Ram.hpp</text>
</a>
</g>
</g>
<!-- Node2&#45;&gt;Node13 -->
<g id="edge21" class="edge">
<title>Node2&#45;&gt;Node13</title>
<path fill="none" stroke="midnightblue" d="M839.64,-226C902.35,-216.26 1015.87,-198.65 1084.7,-187.97"/>
<polygon fill="midnightblue" stroke="midnightblue" points="1085.59,-191.37 1094.93,-186.38 1084.52,-184.46 1085.59,-191.37"/>
</g>
<!-- Node15 -->
<g id="node15" class="node">
<title>Node15</title>
<g id="a_node15"><a xlink:href="IPL_8hpp.html" target="_top" xlink:title=" ">
<polygon fill="white" stroke="black" points="811,-168.5 811,-187.5 880,-187.5 880,-168.5 811,-168.5"/>
<text text-anchor="middle" x="845.5" y="-175.5" font-family="Helvetica,sans-Serif" font-size="10.00">IPL/IPL.hpp</text>
</a>
</g>
</g>
<!-- Node2&#45;&gt;Node15 -->
<g id="edge25" class="edge">
<title>Node2&#45;&gt;Node15</title>
<path fill="none" stroke="midnightblue" d="M802.92,-224.08C810.35,-216.22 821.35,-204.57 830.31,-195.08"/>
<polygon fill="midnightblue" stroke="midnightblue" points="832.91,-197.42 837.24,-187.75 827.82,-192.62 832.91,-197.42"/>
</g>
<!-- Node16 -->
<g id="node16" class="node">
<title>Node16</title>
<g id="a_node16"><a xlink:href="IRenderer_8hpp.html" target="_top" xlink:title=" ">
<polygon fill="white" stroke="black" points="898.5,-168.5 898.5,-187.5 1038.5,-187.5 1038.5,-168.5 898.5,-168.5"/>
<text text-anchor="middle" x="968.5" y="-175.5" font-family="Helvetica,sans-Serif" font-size="10.00">../Renderer/IRenderer.hpp</text>
</a>
</g>
</g>
<!-- Node2&#45;&gt;Node16 -->
<g id="edge27" class="edge">
<title>Node2&#45;&gt;Node16</title>
<path fill="none" stroke="midnightblue" d="M822.07,-224.44C851.6,-215.28 898.62,-200.69 931.38,-190.52"/>
<polygon fill="midnightblue" stroke="midnightblue" points="932.54,-193.82 941.06,-187.52 930.47,-187.14 932.54,-193.82"/>
</g>
<!-- Node5 -->
<g id="node5" class="node">
<title>Node5</title>
<g id="a_node5"><a xlink:title=" ">
<polygon fill="white" stroke="#bfbfbf" points="454.5,-0.5 454.5,-19.5 504.5,-19.5 504.5,-0.5 454.5,-0.5"/>
<text text-anchor="middle" x="479.5" y="-7.5" font-family="Helvetica,sans-Serif" font-size="10.00">cstdint</text>
</a>
</g>
</g>
<!-- Node4&#45;&gt;Node5 -->
<g id="edge4" class="edge">
<title>Node4&#45;&gt;Node5</title>
<path fill="none" stroke="midnightblue" d="M630.9,-168.08C605.06,-141.27 527.88,-61.19 494.81,-26.89"/>
<polygon fill="midnightblue" stroke="midnightblue" points="497.22,-24.34 487.76,-19.57 492.18,-29.2 497.22,-24.34"/>
</g>
<!-- Node6 -->
<g id="node6" class="node">
<title>Node6</title>
<g id="a_node6"><a xlink:title=" ">
<polygon fill="white" stroke="#bfbfbf" points="638.5,-112.5 638.5,-131.5 680.5,-131.5 680.5,-112.5 638.5,-112.5"/>
<text text-anchor="middle" x="659.5" y="-119.5" font-family="Helvetica,sans-Serif" font-size="10.00">array</text>
</a>
</g>
</g>
<!-- Node4&#45;&gt;Node6 -->
<g id="edge5" class="edge">
<title>Node4&#45;&gt;Node6</title>
<path fill="none" stroke="midnightblue" d="M642.8,-168.08C645.48,-160.85 649.35,-150.41 652.69,-141.4"/>
<polygon fill="midnightblue" stroke="midnightblue" points="656.07,-142.34 656.26,-131.75 649.5,-139.91 656.07,-142.34"/>
</g>
<!-- Node4&#45;&gt;Node7 -->
<g id="edge6" class="edge">
<title>Node4&#45;&gt;Node7</title>
<path fill="none" stroke="midnightblue" d="M660.42,-168.44C682.24,-159.52 716.65,-145.44 741.39,-135.32"/>
<polygon fill="midnightblue" stroke="midnightblue" points="742.75,-138.54 750.68,-131.52 740.1,-132.06 742.75,-138.54"/>
</g>
<!-- Node7&#45;&gt;Node3 -->
<g id="edge9" class="edge">
<title>Node7&#45;&gt;Node3</title>
<path fill="none" stroke="midnightblue" d="M757.92,-112.46C737.49,-99.71 697.48,-75.14 662.5,-56 641.81,-44.68 617.91,-32.78 599.95,-24.07"/>
<polygon fill="midnightblue" stroke="midnightblue" points="601.16,-20.77 590.63,-19.58 598.12,-27.07 601.16,-20.77"/>
</g>
<!-- Node7&#45;&gt;Node5 -->
<g id="edge7" class="edge">
<title>Node7&#45;&gt;Node5</title>
<path fill="none" stroke="midnightblue" d="M748.59,-112.37C696.99,-92.93 571.54,-45.67 511.96,-23.23"/>
<polygon fill="midnightblue" stroke="midnightblue" points="512.9,-19.84 502.31,-19.59 510.43,-26.39 512.9,-19.84"/>
</g>
<!-- Node8 -->
<g id="node8" class="node">
<title>Node8</title>
<g id="a_node8"><a xlink:title=" ">
<polygon fill="white" stroke="#bfbfbf" points="692,-0.5 692,-19.5 739,-19.5 739,-0.5 692,-0.5"/>
<text text-anchor="middle" x="715.5" y="-7.5" font-family="Helvetica,sans-Serif" font-size="10.00">vector</text>
</a>
</g>
</g>
<!-- Node7&#45;&gt;Node8 -->
<g id="edge8" class="edge">
<title>Node7&#45;&gt;Node8</title>
<path fill="none" stroke="midnightblue" d="M767.08,-112.38C762.45,-103.32 754.95,-88.67 748.5,-76 740.43,-60.16 731.28,-42.14 724.67,-29.09"/>
<polygon fill="midnightblue" stroke="midnightblue" points="727.62,-27.17 719.98,-19.84 721.38,-30.34 727.62,-27.17"/>
</g>
<!-- Node9 -->
<g id="node9" class="node">
<title>Node9</title>
<g id="a_node9"><a xlink:title=" ">
<polygon fill="white" stroke="#bfbfbf" points="1159.5,-0.5 1159.5,-19.5 1203.5,-19.5 1203.5,-0.5 1159.5,-0.5"/>
<text text-anchor="middle" x="1181.5" y="-7.5" font-family="Helvetica,sans-Serif" font-size="10.00">string</text>
</a>
</g>
</g>
<!-- Node7&#45;&gt;Node9 -->
<g id="edge10" class="edge">
<title>Node7&#45;&gt;Node9</title>
<path fill="none" stroke="midnightblue" d="M844.34,-115.67C945.54,-107.74 1119.06,-92.05 1143.5,-76 1159.85,-65.26 1170.07,-44.86 1175.74,-29.77"/>
<polygon fill="midnightblue" stroke="midnightblue" points="1179.18,-30.52 1179.09,-19.93 1172.56,-28.27 1179.18,-30.52"/>
</g>
<!-- Node10 -->
<g id="node10" class="node">
<title>Node10</title>
<g id="a_node10"><a xlink:href="Int24_8hpp.html" target="_top" xlink:title=" ">
<polygon fill="white" stroke="black" points="922.5,-0.5 922.5,-19.5 1032.5,-19.5 1032.5,-0.5 922.5,-0.5"/>
<text text-anchor="middle" x="977.5" y="-7.5" font-family="Helvetica,sans-Serif" font-size="10.00">../Models/Int24.hpp</text>
</a>
</g>
</g>
<!-- Node7&#45;&gt;Node10 -->
<g id="edge11" class="edge">
<title>Node7&#45;&gt;Node10</title>
<path fill="none" stroke="midnightblue" d="M795.7,-112.44C817.99,-104.19 851.72,-90.82 879.5,-76 907.95,-60.81 938.61,-39.62 957.92,-25.61"/>
<polygon fill="midnightblue" stroke="midnightblue" points="960.19,-28.29 966.18,-19.55 956.05,-22.64 960.19,-28.29"/>
</g>
<!-- Node11 -->
<g id="node11" class="node">
<title>Node11</title>
<g id="a_node11"><a xlink:href="Components_8hpp.html" target="_top" xlink:title=" ">
<polygon fill="white" stroke="black" points="757.5,-0.5 757.5,-19.5 903.5,-19.5 903.5,-0.5 757.5,-0.5"/>
<text text-anchor="middle" x="830.5" y="-7.5" font-family="Helvetica,sans-Serif" font-size="10.00">../Models/Components.hpp</text>
</a>
</g>
</g>
<!-- Node7&#45;&gt;Node11 -->
<g id="edge12" class="edge">
<title>Node7&#45;&gt;Node11</title>
<path fill="none" stroke="midnightblue" d="M771.07,-112.44C770.79,-99.45 771.72,-74.33 781.5,-56 787.89,-44.02 798.75,-33.55 808.62,-25.74"/>
<polygon fill="midnightblue" stroke="midnightblue" points="810.97,-28.35 816.9,-19.58 806.79,-22.74 810.97,-28.35"/>
</g>
<!-- Node12 -->
<g id="node12" class="node">
<title>Node12</title>
<g id="a_node12"><a xlink:href="IMemory_8hpp.html" target="_top" xlink:title=" ">
<polygon fill="white" stroke="black" points="790.5,-56.5 790.5,-75.5 870.5,-75.5 870.5,-56.5 790.5,-56.5"/>
<text text-anchor="middle" x="830.5" y="-63.5" font-family="Helvetica,sans-Serif" font-size="10.00">IMemory.hpp</text>
</a>
</g>
</g>
<!-- Node7&#45;&gt;Node12 -->
<g id="edge13" class="edge">
<title>Node7&#45;&gt;Node12</title>
<path fill="none" stroke="midnightblue" d="M780.98,-112.32C789.7,-104.34 802.84,-92.31 813.4,-82.65"/>
<polygon fill="midnightblue" stroke="midnightblue" points="815.83,-85.17 820.85,-75.83 811.11,-80 815.83,-85.17"/>
</g>
<!-- Node12&#45;&gt;Node3 -->
<g id="edge16" class="edge">
<title>Node12&#45;&gt;Node3</title>
<path fill="none" stroke="midnightblue" d="M790.47,-56.62C741.81,-46.44 660.23,-29.36 611.87,-19.24"/>
<polygon fill="midnightblue" stroke="midnightblue" points="612.29,-15.75 601.79,-17.13 610.86,-22.6 612.29,-15.75"/>
</g>
<!-- Node12&#45;&gt;Node5 -->
<g id="edge14" class="edge">
<title>Node12&#45;&gt;Node5</title>
<path fill="none" stroke="midnightblue" d="M790.26,-59.03C733.3,-50.55 625.89,-34.42 534.5,-20 528.1,-18.99 521.29,-17.89 514.72,-16.82"/>
<polygon fill="midnightblue" stroke="midnightblue" points="515.11,-13.34 504.68,-15.18 513.98,-20.25 515.11,-13.34"/>
</g>
<!-- Node12&#45;&gt;Node8 -->
<g id="edge15" class="edge">
<title>Node12&#45;&gt;Node8</title>
<path fill="none" stroke="midnightblue" d="M812.28,-56.44C793.6,-47.68 764.34,-33.94 742.88,-23.86"/>
<polygon fill="midnightblue" stroke="midnightblue" points="744.18,-20.6 733.64,-19.52 741.2,-26.93 744.18,-20.6"/>
</g>
<!-- Node12&#45;&gt;Node9 -->
<g id="edge17" class="edge">
<title>Node12&#45;&gt;Node9</title>
<path fill="none" stroke="midnightblue" d="M870.76,-58.81C941.21,-47.97 1085.43,-25.78 1149.54,-15.92"/>
<polygon fill="midnightblue" stroke="midnightblue" points="1150.13,-19.37 1159.48,-14.39 1149.07,-12.45 1150.13,-19.37"/>
</g>
<!-- Node12&#45;&gt;Node10 -->
<g id="edge18" class="edge">
<title>Node12&#45;&gt;Node10</title>
<path fill="none" stroke="midnightblue" d="M853.79,-56.44C878.31,-47.44 917.1,-33.19 944.7,-23.05"/>
<polygon fill="midnightblue" stroke="midnightblue" points="946.14,-26.25 954.32,-19.52 943.72,-19.68 946.14,-26.25"/>
</g>
<!-- Node12&#45;&gt;Node11 -->
<g id="edge19" class="edge">
<title>Node12&#45;&gt;Node11</title>
<path fill="none" stroke="midnightblue" d="M830.5,-56.08C830.5,-49.01 830.5,-38.86 830.5,-29.99"/>
<polygon fill="midnightblue" stroke="midnightblue" points="834,-29.75 830.5,-19.75 827,-29.75 834,-29.75"/>
</g>
<!-- Node13&#45;&gt;Node9 -->
<g id="edge24" class="edge">
<title>Node13&#45;&gt;Node9</title>
<path fill="none" stroke="midnightblue" d="M1183.97,-168.5C1204.09,-162.06 1226.45,-150.95 1238.5,-132 1261.11,-96.43 1223.01,-50.48 1198.92,-26.75"/>
<polygon fill="midnightblue" stroke="midnightblue" points="1201.06,-23.95 1191.4,-19.6 1196.24,-29.02 1201.06,-23.95"/>
</g>
<!-- Node14 -->
<g id="node14" class="node">
<title>Node14</title>
<g id="a_node14"><a xlink:href="ARectangleMemory_8hpp.html" target="_top" xlink:title=" ">
<polygon fill="white" stroke="black" points="1044,-112.5 1044,-131.5 1229,-131.5 1229,-112.5 1044,-112.5"/>
<text text-anchor="middle" x="1136.5" y="-119.5" font-family="Helvetica,sans-Serif" font-size="10.00">../Memory/ARectangleMemory.hpp</text>
</a>
</g>
</g>
<!-- Node13&#45;&gt;Node14 -->
<g id="edge22" class="edge">
<title>Node13&#45;&gt;Node14</title>
<path fill="none" stroke="midnightblue" d="M1141.51,-168.08C1140.71,-160.93 1139.57,-150.64 1138.58,-141.69"/>
<polygon fill="midnightblue" stroke="midnightblue" points="1142.06,-141.3 1137.47,-131.75 1135.1,-142.08 1142.06,-141.3"/>
</g>
<!-- Node14&#45;&gt;Node12 -->
<g id="edge23" class="edge">
<title>Node14&#45;&gt;Node12</title>
<path fill="none" stroke="midnightblue" d="M1088.01,-112.44C1031.42,-102.46 938.27,-86.02 880.88,-75.89"/>
<polygon fill="midnightblue" stroke="midnightblue" points="881.4,-72.43 870.94,-74.14 880.18,-79.32 881.4,-72.43"/>
</g>
<!-- Node15&#45;&gt;Node7 -->
<g id="edge26" class="edge">
<title>Node15&#45;&gt;Node7</title>
<path fill="none" stroke="midnightblue" d="M833.61,-168.32C822.35,-160.11 805.21,-147.6 791.79,-137.81"/>
<polygon fill="midnightblue" stroke="midnightblue" points="793.75,-134.9 783.61,-131.83 789.62,-140.56 793.75,-134.9"/>
</g>
<!-- Node16&#45;&gt;Node9 -->
<g id="edge28" class="edge">
<title>Node16&#45;&gt;Node9</title>
<path fill="none" stroke="midnightblue" d="M974.92,-168.43C985.82,-154.49 1009.33,-126.96 1035.5,-112 1087.92,-82.04 1124.7,-119.57 1166.5,-76 1178.14,-63.87 1181.4,-44.59 1182.05,-30.17"/>
<polygon fill="midnightblue" stroke="midnightblue" points="1185.55,-29.91 1182.11,-19.88 1178.55,-29.86 1185.55,-29.91"/>
</g>
<!-- Node17 -->
<g id="node17" class="node">
<title>Node17</title>
<g id="a_node17"><a xlink:title=" ">
<polygon fill="white" stroke="#bfbfbf" points="910.5,-112.5 910.5,-131.5 950.5,-131.5 950.5,-112.5 910.5,-112.5"/>
<text text-anchor="middle" x="930.5" y="-119.5" font-family="Helvetica,sans-Serif" font-size="10.00">span</text>
</a>
</g>
</g>
<!-- Node16&#45;&gt;Node17 -->
<g id="edge29" class="edge">
<title>Node16&#45;&gt;Node17</title>
<path fill="none" stroke="midnightblue" d="M962.23,-168.08C956.86,-160.46 948.98,-149.26 942.42,-139.94"/>
<polygon fill="midnightblue" stroke="midnightblue" points="945.28,-137.91 936.66,-131.75 939.55,-141.94 945.28,-137.91"/>
</g>
<!-- Node18&#45;&gt;Node2 -->
<g id="edge66" class="edge">
<title>Node18&#45;&gt;Node2</title>
<path fill="none" stroke="midnightblue" d="M800.03,-336.37C799.06,-318.62 796.83,-277.67 795.51,-253.6"/>
<polygon fill="midnightblue" stroke="midnightblue" points="799.01,-253.39 794.97,-243.59 792.02,-253.77 799.01,-253.39"/>
</g>
<!-- Node18&#45;&gt;Node13 -->
<g id="edge56" class="edge">
<title>Node18&#45;&gt;Node13</title>
<path fill="none" stroke="midnightblue" d="M836.71,-337.97C892.75,-325.83 1002.17,-296.99 1080.5,-244 1100.18,-230.69 1118.4,-210.19 1129.92,-195.78"/>
<polygon fill="midnightblue" stroke="midnightblue" points="1132.82,-197.76 1136.19,-187.72 1127.29,-193.47 1132.82,-197.76"/>
</g>
<!-- Node18&#45;&gt;Node16 -->
<g id="edge67" class="edge">
<title>Node18&#45;&gt;Node16</title>
<path fill="none" stroke="midnightblue" d="M831.11,-336.48C861.9,-327.38 906.62,-312.58 919.5,-300 948.45,-271.72 960.85,-224.01 965.71,-197.75"/>
<polygon fill="midnightblue" stroke="midnightblue" points="969.2,-198.07 967.4,-187.63 962.3,-196.92 969.2,-198.07"/>
</g>
<!-- Node19 -->
<g id="node19" class="node">
<title>Node19</title>
<g id="a_node19"><a xlink:href="MemoryBus_8hpp.html" target="_top" xlink:title=" ">
<polygon fill="white" stroke="black" points="290.5,-168.5 290.5,-187.5 430.5,-187.5 430.5,-168.5 290.5,-168.5"/>
<text text-anchor="middle" x="360.5" y="-175.5" font-family="Helvetica,sans-Serif" font-size="10.00">Memory/MemoryBus.hpp</text>
</a>
</g>
</g>
<!-- Node18&#45;&gt;Node19 -->
<g id="edge31" class="edge">
<title>Node18&#45;&gt;Node19</title>
<path fill="none" stroke="midnightblue" d="M764.41,-339.8C698.11,-329.18 553.79,-301.02 445.5,-244 419.74,-230.44 393.67,-209.13 377.32,-194.63"/>
<polygon fill="midnightblue" stroke="midnightblue" points="379.48,-191.86 369.71,-187.75 374.78,-197.06 379.48,-191.86"/>
</g>
<!-- Node20 -->
<g id="node20" class="node">
<title>Node20</title>
<g id="a_node20"><a xlink:href="CPU_8hpp.html" target="_top" xlink:title=" ">
<polygon fill="white" stroke="black" points="829,-280.5 829,-299.5 910,-299.5 910,-280.5 829,-280.5"/>
<text text-anchor="middle" x="869.5" y="-287.5" font-family="Helvetica,sans-Serif" font-size="10.00">CPU/CPU.hpp</text>
</a>
</g>
</g>
<!-- Node18&#45;&gt;Node20 -->
<g id="edge36" class="edge">
<title>Node18&#45;&gt;Node20</title>
<path fill="none" stroke="midnightblue" d="M811.59,-336.32C821.99,-328.18 837.76,-315.84 850.22,-306.09"/>
<polygon fill="midnightblue" stroke="midnightblue" points="852.49,-308.75 858.21,-299.83 848.18,-303.24 852.49,-308.75"/>
</g>
<!-- Node21 -->
<g id="node21" class="node">
<title>Node21</title>
<g id="a_node21"><a xlink:href="Cartridge_8hpp.html" target="_top" xlink:title=" ">
<polygon fill="white" stroke="black" points="1169.5,-224.5 1169.5,-243.5 1309.5,-243.5 1309.5,-224.5 1169.5,-224.5"/>
<text text-anchor="middle" x="1239.5" y="-231.5" font-family="Helvetica,sans-Serif" font-size="10.00">../Cartridge/Cartridge.hpp</text>
</a>
</g>
</g>
<!-- Node18&#45;&gt;Node21 -->
<g id="edge55" class="edge">
<title>Node18&#45;&gt;Node21</title>
<path fill="none" stroke="midnightblue" d="M836.62,-337.69C839.95,-337.08 843.29,-336.51 846.5,-336 975.19,-315.48 1014.87,-344.1 1137.5,-300 1169.54,-288.48 1201.92,-265.47 1221.35,-250.15"/>
<polygon fill="midnightblue" stroke="midnightblue" points="1223.73,-252.73 1229.32,-243.72 1219.34,-247.28 1223.73,-252.73"/>
</g>
<!-- Node25 -->
<g id="node25" class="node">
<title>Node25</title>
<g id="a_node25"><a xlink:href="PPU_8hpp.html" target="_top" xlink:title=" ">
<polygon fill="white" stroke="black" points="454.5,-224.5 454.5,-243.5 534.5,-243.5 534.5,-224.5 454.5,-224.5"/>
<text text-anchor="middle" x="494.5" y="-231.5" font-family="Helvetica,sans-Serif" font-size="10.00">PPU/PPU.hpp</text>
</a>
</g>
</g>
<!-- Node18&#45;&gt;Node25 -->
<g id="edge57" class="edge">
<title>Node18&#45;&gt;Node25</title>
<path fill="none" stroke="midnightblue" d="M776.74,-336.46C722.74,-317.05 590.62,-269.55 528.2,-247.12"/>
<polygon fill="midnightblue" stroke="midnightblue" points="529.05,-243.7 518.45,-243.61 526.68,-250.29 529.05,-243.7"/>
</g>
<!-- Node29 -->
<g id="node29" class="node">
<title>Node29</title>
<g id="a_node29"><a xlink:href="DebuggableError_8hpp.html" target="_top" xlink:title=" ">
<polygon fill="white" stroke="black" points="223,-280.5 223,-299.5 398,-299.5 398,-280.5 223,-280.5"/>
<text text-anchor="middle" x="310.5" y="-287.5" font-family="Helvetica,sans-Serif" font-size="10.00">Exceptions/DebuggableError.hpp</text>
</a>
</g>
</g>
<!-- Node18&#45;&gt;Node29 -->
<g id="edge68" class="edge">
<title>Node18&#45;&gt;Node29</title>
<path fill="none" stroke="midnightblue" d="M764.47,-341.03C687.85,-332.59 506.86,-312.64 397.96,-300.64"/>
<polygon fill="midnightblue" stroke="midnightblue" points="398.3,-297.16 387.98,-299.54 397.54,-304.11 398.3,-297.16"/>
</g>
<!-- Node19&#45;&gt;Node3 -->
<g id="edge34" class="edge">
<title>Node19&#45;&gt;Node3</title>
<path fill="none" stroke="midnightblue" d="M367.44,-168.44C384.94,-147.25 433.06,-91.48 482.5,-56 500.7,-42.94 523.25,-31.67 541.23,-23.68"/>
<polygon fill="midnightblue" stroke="midnightblue" points="542.9,-26.77 550.69,-19.58 540.12,-20.34 542.9,-26.77"/>
</g>
<!-- Node19&#45;&gt;Node5 -->
<g id="edge32" class="edge">
<title>Node19&#45;&gt;Node5</title>
<path fill="none" stroke="midnightblue" d="M360.77,-168.34C361.87,-146.93 367.44,-90.68 395.5,-56 408.11,-40.41 427.61,-29.5 444.65,-22.32"/>
<polygon fill="midnightblue" stroke="midnightblue" points="446.3,-25.44 454.33,-18.53 443.74,-18.92 446.3,-25.44"/>
</g>
<!-- Node19&#45;&gt;Node7 -->
<g id="edge35" class="edge">
<title>Node19&#45;&gt;Node7</title>
<path fill="none" stroke="midnightblue" d="M425.62,-168.44C499.28,-158.77 619.01,-143.04 696.51,-132.85"/>
<polygon fill="midnightblue" stroke="midnightblue" points="697.22,-136.29 706.68,-131.52 696.31,-129.35 697.22,-136.29"/>
</g>
<!-- Node19&#45;&gt;Node8 -->
<g id="edge33" class="edge">
<title>Node19&#45;&gt;Node8</title>
<path fill="none" stroke="midnightblue" d="M379.09,-168.31C437.56,-140.97 617.98,-56.6 687.65,-24.02"/>
<polygon fill="midnightblue" stroke="midnightblue" points="689.52,-27.01 697.1,-19.61 686.56,-20.67 689.52,-27.01"/>
</g>
<!-- Node20&#45;&gt;Node7 -->
<g id="edge37" class="edge">
<title>Node20&#45;&gt;Node7</title>
<path fill="none" stroke="midnightblue" d="M828.7,-286.73C798.89,-282.68 760.35,-271.94 740.5,-244 717.9,-212.18 742.41,-165.28 758.95,-140.25"/>
<polygon fill="midnightblue" stroke="midnightblue" points="761.98,-142.01 764.79,-131.8 756.22,-138.04 761.98,-142.01"/>
</g>
<!-- Node20&#45;&gt;Node10 -->
<g id="edge39" class="edge">
<title>Node20&#45;&gt;Node10</title>
<path fill="none" stroke="midnightblue" d="M904.85,-280.46C947.37,-268.09 1016.83,-240.66 1047.5,-188 1051.97,-180.32 1049.35,-176.69 1047.5,-168 1047.45,-167.77 1003.94,-70.26 985.55,-29.05"/>
<polygon fill="midnightblue" stroke="midnightblue" points="988.73,-27.58 981.46,-19.88 982.34,-30.43 988.73,-27.58"/>
</g>
<!-- Node20&#45;&gt;Node19 -->
<g id="edge38" class="edge">
<title>Node20&#45;&gt;Node19</title>
<path fill="none" stroke="midnightblue" d="M828.92,-286.87C772.25,-282.95 666.77,-272.23 581.5,-244 563.38,-238 561.34,-230.77 543.5,-224 502.96,-208.61 455.34,-197.09 418.85,-189.57"/>
<polygon fill="midnightblue" stroke="midnightblue" points="419.36,-186.1 408.86,-187.55 417.97,-192.96 419.36,-186.1"/>
</g>
<!-- Node20&#45;&gt;Node21 -->
<g id="edge40" class="edge">
<title>Node20&#45;&gt;Node21</title>
<path fill="none" stroke="midnightblue" d="M910.15,-283.07C973.04,-273.89 1094.6,-256.15 1171.15,-244.97"/>
<polygon fill="midnightblue" stroke="midnightblue" points="1171.79,-248.42 1181.18,-243.51 1170.78,-241.49 1171.79,-248.42"/>
</g>
<!-- Node23 -->
<g id="node23" class="node">
<title>Node23</title>
<g id="a_node23"><a xlink:href="Instruction_8hpp.html" target="_top" xlink:title=" ">
<polygon fill="white" stroke="black" points="1045,-56.5 1045,-75.5 1134,-75.5 1134,-56.5 1045,-56.5"/>
<text text-anchor="middle" x="1089.5" y="-63.5" font-family="Helvetica,sans-Serif" font-size="10.00">Instruction.hpp</text>
</a>
</g>
</g>
<!-- Node20&#45;&gt;Node23 -->
<g id="edge47" class="edge">
<title>Node20&#45;&gt;Node23</title>
<path fill="none" stroke="midnightblue" d="M910.04,-289.07C1031.59,-288.28 1388.34,-278.18 1447.5,-188 1519.38,-78.44 1261.2,-66.18 1144.22,-66.09"/>
<polygon fill="midnightblue" stroke="midnightblue" points="1144.02,-62.59 1134.02,-66.11 1144.03,-69.59 1144.02,-62.59"/>
</g>
<!-- Node24 -->
<g id="node24" class="node">
<title>Node24</title>
<g id="a_node24"><a xlink:href="DMA_8hpp.html" target="_top" xlink:title=" ">
<polygon fill="white" stroke="black" points="591,-224.5 591,-243.5 678,-243.5 678,-224.5 591,-224.5"/>
<text text-anchor="middle" x="634.5" y="-231.5" font-family="Helvetica,sans-Serif" font-size="10.00">DMA/DMA.hpp</text>
</a>
</g>
</g>
<!-- Node20&#45;&gt;Node24 -->
<g id="edge50" class="edge">
<title>Node20&#45;&gt;Node24</title>
<path fill="none" stroke="midnightblue" d="M832.26,-280.44C791.44,-271.06 725.86,-255.99 681.52,-245.8"/>
<polygon fill="midnightblue" stroke="midnightblue" points="682.09,-242.34 671.56,-243.52 680.52,-249.17 682.09,-242.34"/>
</g>
<!-- Node21&#45;&gt;Node7 -->
<g id="edge42" class="edge">
<title>Node21&#45;&gt;Node7</title>
<path fill="none" stroke="midnightblue" d="M1236.99,-224.49C1232.27,-210.11 1220.58,-181.27 1199.5,-168 1185.12,-158.95 974.98,-140.03 854.61,-129.84"/>
<polygon fill="midnightblue" stroke="midnightblue" points="854.58,-126.33 844.32,-128.98 853.99,-133.31 854.58,-126.33"/>
</g>
<!-- Node21&#45;&gt;Node9 -->
<g id="edge41" class="edge">
<title>Node21&#45;&gt;Node9</title>
<path fill="none" stroke="midnightblue" d="M1309.62,-227.15C1363.04,-221.07 1430.27,-209.35 1447.5,-188 1453.08,-181.08 1451.91,-175.72 1447.5,-168 1396.46,-78.6 1272.38,-34.99 1213.51,-18.77"/>
<polygon fill="midnightblue" stroke="midnightblue" points="1214.21,-15.34 1203.65,-16.14 1212.41,-22.1 1214.21,-15.34"/>
</g>
<!-- Node21&#45;&gt;Node10 -->
<g id="edge43" class="edge">
<title>Node21&#45;&gt;Node10</title>
<path fill="none" stroke="midnightblue" d="M1242.96,-224.4C1251.31,-202.09 1269.63,-142.06 1238.5,-112 1172.91,-48.65 1116.31,-120.12 1036.5,-76 1015.96,-64.64 998.77,-43.42 988.35,-28.32"/>
<polygon fill="midnightblue" stroke="midnightblue" points="991.19,-26.26 982.76,-19.85 985.34,-30.12 991.19,-26.26"/>
</g>
<!-- Node21&#45;&gt;Node13 -->
<g id="edge46" class="edge">
<title>Node21&#45;&gt;Node13</title>
<path fill="none" stroke="midnightblue" d="M1223.92,-224.32C1208.5,-215.74 1184.69,-202.49 1166.79,-192.52"/>
<polygon fill="midnightblue" stroke="midnightblue" points="1168.49,-189.46 1158.05,-187.65 1165.08,-195.58 1168.49,-189.46"/>
</g>
<!-- Node21&#45;&gt;Node14 -->
<g id="edge44" class="edge">
<title>Node21&#45;&gt;Node14</title>
<path fill="none" stroke="midnightblue" d="M1241.09,-224.06C1242.98,-210.57 1244.5,-184.81 1232.5,-168 1221.22,-152.2 1202.94,-141.78 1185.34,-134.99"/>
<polygon fill="midnightblue" stroke="midnightblue" points="1186.28,-131.61 1175.69,-131.58 1183.95,-138.21 1186.28,-131.61"/>
</g>
<!-- Node22 -->
<g id="node22" class="node">
<title>Node22</title>
<g id="a_node22"><a xlink:href="InterruptVectors_8hpp.html" target="_top" xlink:title=" ">
<polygon fill="white" stroke="black" points="1322.5,-168.5 1322.5,-187.5 1438.5,-187.5 1438.5,-168.5 1322.5,-168.5"/>
<text text-anchor="middle" x="1380.5" y="-175.5" font-family="Helvetica,sans-Serif" font-size="10.00">InterruptVectors.hpp</text>
</a>
</g>
</g>
<!-- Node21&#45;&gt;Node22 -->
<g id="edge45" class="edge">
<title>Node21&#45;&gt;Node22</title>
<path fill="none" stroke="midnightblue" d="M1261.84,-224.44C1285.25,-215.48 1322.24,-201.31 1348.69,-191.18"/>
<polygon fill="midnightblue" stroke="midnightblue" points="1350.18,-194.36 1358.26,-187.52 1347.67,-187.82 1350.18,-194.36"/>
</g>
<!-- Node23&#45;&gt;Node9 -->
<g id="edge48" class="edge">
<title>Node23&#45;&gt;Node9</title>
<path fill="none" stroke="midnightblue" d="M1104.28,-56.32C1118.77,-47.82 1141.07,-34.73 1157.99,-24.8"/>
<polygon fill="midnightblue" stroke="midnightblue" points="1159.9,-27.74 1166.76,-19.65 1156.36,-21.7 1159.9,-27.74"/>
</g>
<!-- Node23&#45;&gt;Node10 -->
<g id="edge49" class="edge">
<title>Node23&#45;&gt;Node10</title>
<path fill="none" stroke="midnightblue" d="M1071.51,-56.32C1053.46,-47.62 1025.45,-34.12 1004.7,-24.11"/>
<polygon fill="midnightblue" stroke="midnightblue" points="1005.98,-20.84 995.45,-19.65 1002.94,-27.15 1005.98,-20.84"/>
</g>
<!-- Node24&#45;&gt;Node3 -->
<g id="edge52" class="edge">
<title>Node24&#45;&gt;Node3</title>
<path fill="none" stroke="midnightblue" d="M606.48,-224.4C589.33,-217.51 568.75,-205.98 558.5,-188 529.3,-136.77 551.56,-63.27 564.67,-29.39"/>
<polygon fill="midnightblue" stroke="midnightblue" points="568.02,-30.44 568.53,-19.86 561.53,-27.81 568.02,-30.44"/>
</g>
<!-- Node24&#45;&gt;Node5 -->
<g id="edge51" class="edge">
<title>Node24&#45;&gt;Node5</title>
<path fill="none" stroke="midnightblue" d="M605.71,-224.38C586.63,-217.34 562.29,-205.65 546.5,-188 504.57,-141.14 487.89,-65.43 482.14,-30.19"/>
<polygon fill="midnightblue" stroke="midnightblue" points="485.54,-29.26 480.59,-19.89 478.61,-30.3 485.54,-29.26"/>
</g>
<!-- Node24&#45;&gt;Node10 -->
<g id="edge53" class="edge">
<title>Node24&#45;&gt;Node10</title>
<path fill="none" stroke="midnightblue" d="M659.93,-224.5C702.34,-209.64 789.17,-176.26 853.5,-132 898.72,-100.89 942.48,-52.65 963.88,-27.51"/>
<polygon fill="midnightblue" stroke="midnightblue" points="966.74,-29.55 970.49,-19.64 961.38,-25.05 966.74,-29.55"/>
</g>
<!-- Node24&#45;&gt;Node19 -->
<g id="edge54" class="edge">
<title>Node24&#45;&gt;Node19</title>
<path fill="none" stroke="midnightblue" d="M591.08,-224.44C542.98,-214.96 465.41,-199.67 413.69,-189.48"/>
<polygon fill="midnightblue" stroke="midnightblue" points="414.2,-186.02 403.71,-187.52 412.85,-192.88 414.2,-186.02"/>
</g>
<!-- Node25&#45;&gt;Node5 -->
<g id="edge58" class="edge">
<title>Node25&#45;&gt;Node5</title>
<path fill="none" stroke="midnightblue" d="M454.06,-230.37C398.45,-225.81 302.8,-214.28 281.5,-188 223.95,-117.02 374.16,-49.86 444.95,-23.15"/>
<polygon fill="midnightblue" stroke="midnightblue" points="446.23,-26.41 454.38,-19.65 443.79,-19.85 446.23,-26.41"/>
</g>
<!-- Node25&#45;&gt;Node7 -->
<g id="edge59" class="edge">
<title>Node25&#45;&gt;Node7</title>
<path fill="none" stroke="midnightblue" d="M504.83,-224.28C521.83,-210.38 557.22,-183.21 591.5,-168 628.21,-151.71 671.87,-140.61 706.99,-133.51"/>
<polygon fill="midnightblue" stroke="midnightblue" points="707.98,-136.88 717.12,-131.53 706.64,-130.01 707.98,-136.88"/>
</g>
<!-- Node25&#45;&gt;Node13 -->
<g id="edge62" class="edge">
<title>Node25&#45;&gt;Node13</title>
<path fill="none" stroke="midnightblue" d="M534.76,-228.61C549.46,-227.07 566.23,-225.38 581.5,-224 788.39,-205.31 840.54,-205.8 1047.5,-188 1059.49,-186.97 1072.33,-185.8 1084.57,-184.65"/>
<polygon fill="midnightblue" stroke="midnightblue" points="1085.05,-188.12 1094.67,-183.69 1084.39,-181.15 1085.05,-188.12"/>
</g>
<!-- Node25&#45;&gt;Node16 -->
<g id="edge61" class="edge">
<title>Node25&#45;&gt;Node16</title>
<path fill="none" stroke="midnightblue" d="M534.5,-228.44C612.37,-219.57 785.63,-199.83 888.13,-188.16"/>
<polygon fill="midnightblue" stroke="midnightblue" points="888.59,-191.63 898.13,-187.02 887.79,-184.67 888.59,-191.63"/>
</g>
<!-- Node25&#45;&gt;Node19 -->
<g id="edge60" class="edge">
<title>Node25&#45;&gt;Node19</title>
<path fill="none" stroke="midnightblue" d="M473.27,-224.44C451.12,-215.52 416.18,-201.44 391.06,-191.32"/>
<polygon fill="midnightblue" stroke="midnightblue" points="392.22,-188.01 381.63,-187.52 389.6,-194.5 392.22,-188.01"/>
</g>
<!-- Node26 -->
<g id="node26" class="node">
<title>Node26</title>
<g id="a_node26"><a xlink:href="Vector2_8hpp.html" target="_top" xlink:title=" ">
<polygon fill="white" stroke="black" points="112.5,-168.5 112.5,-187.5 234.5,-187.5 234.5,-168.5 112.5,-168.5"/>
<text text-anchor="middle" x="173.5" y="-175.5" font-family="Helvetica,sans-Serif" font-size="10.00">../Models/Vector2.hpp</text>
</a>
</g>
</g>
<!-- Node25&#45;&gt;Node26 -->
<g id="edge63" class="edge">
<title>Node25&#45;&gt;Node26</title>
<path fill="none" stroke="midnightblue" d="M454.49,-226.27C399.14,-216.96 298.71,-200.06 234.12,-189.2"/>
<polygon fill="midnightblue" stroke="midnightblue" points="234.51,-185.71 224.07,-187.51 233.35,-192.62 234.51,-185.71"/>
</g>
<!-- Node27 -->
<g id="node27" class="node">
<title>Node27</title>
<g id="a_node27"><a xlink:title=" ">
<polygon fill="white" stroke="#bfbfbf" points="161,-112.5 161,-131.5 218,-131.5 218,-112.5 161,-112.5"/>
<text text-anchor="middle" x="189.5" y="-119.5" font-family="Helvetica,sans-Serif" font-size="10.00">ostream</text>
</a>
</g>
</g>
<!-- Node26&#45;&gt;Node27 -->
<g id="edge64" class="edge">
<title>Node26&#45;&gt;Node27</title>
<path fill="none" stroke="midnightblue" d="M176.14,-168.08C178.29,-160.85 181.38,-150.41 184.05,-141.4"/>
<polygon fill="midnightblue" stroke="midnightblue" points="187.42,-142.33 186.91,-131.75 180.71,-140.34 187.42,-142.33"/>
</g>
<!-- Node28 -->
<g id="node28" class="node">
<title>Node28</title>
<g id="a_node28"><a xlink:title=" ">
<polygon fill="white" stroke="#bfbfbf" points="0,-112.5 0,-131.5 143,-131.5 143,-112.5 0,-112.5"/>
<text text-anchor="middle" x="71.5" y="-119.5" font-family="Helvetica,sans-Serif" font-size="10.00">SFML/System/Vector2.hpp</text>
</a>
</g>
</g>
<!-- Node26&#45;&gt;Node28 -->
<g id="edge65" class="edge">
<title>Node26&#45;&gt;Node28</title>
<path fill="none" stroke="midnightblue" d="M157.11,-168.32C140.83,-159.7 115.63,-146.36 96.78,-136.39"/>
<polygon fill="midnightblue" stroke="midnightblue" points="98.32,-133.24 87.85,-131.65 95.05,-139.43 98.32,-133.24"/>
</g>
<!-- Node30 -->
<g id="node30" class="node">
<title>Node30</title>
<g id="a_node30"><a xlink:title=" ">
<polygon fill="white" stroke="#bfbfbf" points="263,-224.5 263,-243.5 358,-243.5 358,-224.5 263,-224.5"/>
<text text-anchor="middle" x="310.5" y="-231.5" font-family="Helvetica,sans-Serif" font-size="10.00">bits/exception.h</text>
</a>
</g>
</g>
<!-- Node29&#45;&gt;Node30 -->
<g id="edge69" class="edge">
<title>Node29&#45;&gt;Node30</title>
<path fill="none" stroke="midnightblue" d="M310.5,-280.08C310.5,-273.01 310.5,-262.86 310.5,-253.99"/>
<polygon fill="midnightblue" stroke="midnightblue" points="314,-253.75 310.5,-243.75 307,-253.75 314,-253.75"/>
</g>
</g>
</svg>
