<?xml version="1.0" encoding="UTF-8" standalone="no"?>
<!DOCTYPE svg PUBLIC "-//W3C//DTD SVG 1.1//EN"
 "http://www.w3.org/Graphics/SVG/1.1/DTD/svg11.dtd">
<!-- Generated by graphviz version 2.43.0 (0)
 -->
<!-- Title: sources/Memory/ARectangleMemory.hpp Pages: 1 -->
<svg width="4173pt" height="419pt"
 viewBox="0.00 0.00 4172.50 419.00" xmlns="http://www.w3.org/2000/svg" xmlns:xlink="http://www.w3.org/1999/xlink">
<g id="graph0" class="graph" transform="scale(1 1) rotate(0) translate(4 415)">
<title>sources/Memory/ARectangleMemory.hpp</title>
<polygon fill="white" stroke="transparent" points="-4,4 -4,-415 4168.5,-415 4168.5,4 -4,4"/>
<!-- Node1 -->
<g id="node1" class="node">
<title>Node1</title>
<g id="a_node1"><a xlink:title=" ">
<polygon fill="#bfbfbf" stroke="black" points="928,-380.5 928,-410.5 1084,-410.5 1084,-380.5 928,-380.5"/>
<text text-anchor="start" x="936" y="-398.5" font-family="Helvetica,sans-Serif" font-size="10.00">sources/Memory/ARectangle</text>
<text text-anchor="middle" x="1006" y="-387.5" font-family="Helvetica,sans-Serif" font-size="10.00">Memory.hpp</text>
</a>
</g>
</g>
<!-- Node2 -->
<g id="node2" class="node">
<title>Node2</title>
<g id="a_node2"><a xlink:href="Ram_8hpp.html" target="_top" xlink:title=" ">
<polygon fill="white" stroke="black" points="864,-319 864,-338 990,-338 990,-319 864,-319"/>
<text text-anchor="middle" x="927" y="-326" font-family="Helvetica,sans-Serif" font-size="10.00">sources/Ram/Ram.hpp</text>
</a>
</g>
</g>
<!-- Node1&#45;&gt;Node2 -->
<g id="edge1" class="edge">
<title>Node1&#45;&gt;Node2</title>
<path fill="none" stroke="midnightblue" d="M981.09,-374.01C966.43,-361.94 948.64,-347.3 937.57,-338.19"/>
<polygon fill="midnightblue" stroke="midnightblue" points="978.91,-376.75 988.86,-380.4 983.36,-371.34 978.91,-376.75"/>
</g>
<!-- Node62 -->
<g id="node41" class="node">
<title>Node62</title>
<g id="a_node41"><a xlink:href="Cartridge_8hpp.html" target="_top" xlink:title=" ">
<polygon fill="white" stroke="black" points="550.5,-257.5 550.5,-276.5 721.5,-276.5 721.5,-257.5 550.5,-257.5"/>
<text text-anchor="middle" x="636" y="-264.5" font-family="Helvetica,sans-Serif" font-size="10.00">sources/Cartridge/Cartridge.hpp</text>
</a>
</g>
</g>
<!-- Node1&#45;&gt;Node62 -->
<g id="edge64" class="edge">
<title>Node1&#45;&gt;Node62</title>
<path fill="none" stroke="midnightblue" d="M954.08,-377.3C924.93,-367.6 887.91,-355.21 855,-344 784.14,-319.86 700.64,-290.68 660.27,-276.52"/>
<polygon fill="midnightblue" stroke="midnightblue" points="953.06,-380.64 963.65,-380.48 955.26,-374 953.06,-380.64"/>
</g>
<!-- Node80 -->
<g id="node48" class="node">
<title>Node80</title>
<g id="a_node48"><a xlink:href="ARectangleMemory_8cpp.html" target="_top" xlink:title=" ">
<polygon fill="white" stroke="black" points="1008,-313.5 1008,-343.5 1164,-343.5 1164,-313.5 1008,-313.5"/>
<text text-anchor="start" x="1016" y="-331.5" font-family="Helvetica,sans-Serif" font-size="10.00">sources/Memory/ARectangle</text>
<text text-anchor="middle" x="1086" y="-320.5" font-family="Helvetica,sans-Serif" font-size="10.00">Memory.cpp</text>
</a>
</g>
</g>
<!-- Node1&#45;&gt;Node80 -->
<g id="edge65" class="edge">
<title>Node1&#45;&gt;Node80</title>
<path fill="none" stroke="midnightblue" d="M1031.37,-373.88C1043.53,-364.01 1057.78,-352.43 1068.68,-343.58"/>
<polygon fill="midnightblue" stroke="midnightblue" points="1028.91,-371.37 1023.36,-380.4 1033.33,-376.81 1028.91,-371.37"/>
</g>
<!-- Node81 -->
<g id="node49" class="node">
<title>Node81</title>
<g id="a_node49"><a xlink:href="RectangleShadow_8hpp.html" target="_top" xlink:title=" ">
<polygon fill="white" stroke="black" points="4015.5,-134.5 4015.5,-164.5 4164.5,-164.5 4164.5,-134.5 4015.5,-134.5"/>
<text text-anchor="start" x="4023.5" y="-152.5" font-family="Helvetica,sans-Serif" font-size="10.00">sources/Memory/Rectangle</text>
<text text-anchor="middle" x="4090" y="-141.5" font-family="Helvetica,sans-Serif" font-size="10.00">Shadow.hpp</text>
</a>
</g>
</g>
<!-- Node1&#45;&gt;Node81 -->
<g id="edge66" class="edge">
<title>Node1&#45;&gt;Node81</title>
<path fill="none" stroke="midnightblue" d="M1094.08,-389.6C1373.42,-373.98 2264.55,-323.7 3002,-277 3369.22,-253.74 3465.06,-281.54 3828,-221 3906.99,-207.83 3996.61,-181.06 4047.9,-164.56"/>
<polygon fill="midnightblue" stroke="midnightblue" points="1093.8,-386.11 1084.01,-390.16 1094.19,-393.09 1093.8,-386.11"/>
</g>
<!-- Node3 -->
<g id="node3" class="node">
<title>Node3</title>
<g id="a_node3"><a xlink:href="APU_8hpp.html" target="_top" xlink:title=" ">
<polygon fill="white" stroke="black" points="2300,-201.5 2300,-220.5 2422,-220.5 2422,-201.5 2300,-201.5"/>
<text text-anchor="middle" x="2361" y="-208.5" font-family="Helvetica,sans-Serif" font-size="10.00">sources/APU/APU.hpp</text>
</a>
</g>
</g>
<!-- Node2&#45;&gt;Node3 -->
<g id="edge2" class="edge">
<title>Node2&#45;&gt;Node3</title>
<path fill="none" stroke="midnightblue" d="M974.93,-316.98C982.94,-315.47 991.18,-314.07 999,-313 1498.47,-244.46 2107.82,-220.1 2299.97,-213.81"/>
<polygon fill="midnightblue" stroke="midnightblue" points="974.1,-313.58 964.96,-318.93 975.45,-320.45 974.1,-313.58"/>
</g>
<!-- Node25 -->
<g id="node24" class="node">
<title>Node25</title>
<g id="a_node24"><a xlink:href="SNES_8hpp.html" target="_top" xlink:title=" ">
<polygon fill="white" stroke="red" points="678,-140 678,-159 782,-159 782,-140 678,-140"/>
<text text-anchor="middle" x="730" y="-147" font-family="Helvetica,sans-Serif" font-size="10.00">sources/SNES.hpp</text>
</a>
</g>
</g>
<!-- Node2&#45;&gt;Node25 -->
<g id="edge58" class="edge">
<title>Node2&#45;&gt;Node25</title>
<path fill="none" stroke="midnightblue" d="M864.54,-316.32C838.01,-308.91 808.35,-296.77 787,-277 750.58,-243.29 735.87,-181.92 731.51,-159.23"/>
<polygon fill="midnightblue" stroke="midnightblue" points="863.96,-319.79 874.52,-318.93 865.74,-313.02 863.96,-319.79"/>
</g>
<!-- Node2&#45;&gt;Node62 -->
<g id="edge50" class="edge">
<title>Node2&#45;&gt;Node62</title>
<path fill="none" stroke="midnightblue" d="M875.17,-316.9C818.75,-305.37 729.66,-287.15 677.62,-276.51"/>
<polygon fill="midnightblue" stroke="midnightblue" points="874.81,-320.4 885.31,-318.98 876.21,-313.54 874.81,-320.4"/>
</g>
<!-- Node74 -->
<g id="node45" class="node">
<title>Node74</title>
<g id="a_node45"><a xlink:href="PPU_8hpp.html" target="_top" xlink:title=" ">
<polygon fill="white" stroke="red" points="796,-257.5 796,-276.5 916,-276.5 916,-257.5 796,-257.5"/>
<text text-anchor="middle" x="856" y="-264.5" font-family="Helvetica,sans-Serif" font-size="10.00">sources/PPU/PPU.hpp</text>
</a>
</g>
</g>
<!-- Node2&#45;&gt;Node74 -->
<g id="edge59" class="edge">
<title>Node2&#45;&gt;Node74</title>
<path fill="none" stroke="midnightblue" d="M909.07,-312.47C895.49,-301.09 877.32,-285.87 866.15,-276.51"/>
<polygon fill="midnightblue" stroke="midnightblue" points="906.91,-315.23 916.83,-318.98 911.41,-309.87 906.91,-315.23"/>
</g>
<!-- Node78 -->
<g id="node46" class="node">
<title>Node78</title>
<g id="a_node46"><a xlink:href="MemoryViewer_8hpp.html" target="_top" xlink:title=" ">
<polygon fill="white" stroke="black" points="2791,-257.5 2791,-276.5 2993,-276.5 2993,-257.5 2791,-257.5"/>
<text text-anchor="middle" x="2892" y="-264.5" font-family="Helvetica,sans-Serif" font-size="10.00">sources/Debugger/MemoryViewer.hpp</text>
</a>
</g>
</g>
<!-- Node2&#45;&gt;Node78 -->
<g id="edge61" class="edge">
<title>Node2&#45;&gt;Node78</title>
<path fill="none" stroke="midnightblue" d="M972.96,-317C981.57,-315.39 990.53,-313.95 999,-313 1350.92,-273.69 2451.17,-268.67 2790.99,-268.07"/>
<polygon fill="midnightblue" stroke="midnightblue" points="972.2,-313.58 963.06,-318.95 973.55,-320.45 972.2,-313.58"/>
</g>
<!-- Node79 -->
<g id="node47" class="node">
<title>Node79</title>
<g id="a_node47"><a xlink:href="Ram_8cpp.html" target="_top" xlink:title=" ">
<polygon fill="white" stroke="black" points="934.5,-257.5 934.5,-276.5 1059.5,-276.5 1059.5,-257.5 934.5,-257.5"/>
<text text-anchor="middle" x="997" y="-264.5" font-family="Helvetica,sans-Serif" font-size="10.00">sources/Ram/Ram.cpp</text>
</a>
</g>
</g>
<!-- Node2&#45;&gt;Node79 -->
<g id="edge63" class="edge">
<title>Node2&#45;&gt;Node79</title>
<path fill="none" stroke="midnightblue" d="M944.68,-312.47C958.07,-301.09 975.98,-285.87 986.99,-276.51"/>
<polygon fill="midnightblue" stroke="midnightblue" points="942.38,-309.83 937.03,-318.98 946.92,-315.17 942.38,-309.83"/>
</g>
<!-- Node4 -->
<g id="node4" class="node">
<title>Node4</title>
<g id="a_node4"><a xlink:href="APU_8cpp.html" target="_top" xlink:title=" ">
<polygon fill="white" stroke="black" points="3187.5,-140 3187.5,-159 3308.5,-159 3308.5,-140 3187.5,-140"/>
<text text-anchor="middle" x="3248" y="-147" font-family="Helvetica,sans-Serif" font-size="10.00">sources/APU/APU.cpp</text>
</a>
</g>
</g>
<!-- Node3&#45;&gt;Node4 -->
<g id="edge3" class="edge">
<title>Node3&#45;&gt;Node4</title>
<path fill="none" stroke="midnightblue" d="M2432.4,-209.29C2574.13,-207.17 2900.8,-198.7 3173,-165 3184.85,-163.53 3197.63,-161.31 3209.23,-159.03"/>
<polygon fill="midnightblue" stroke="midnightblue" points="2432.06,-205.79 2422.11,-209.44 2432.16,-212.79 2432.06,-205.79"/>
</g>
<!-- Node5 -->
<g id="node5" class="node">
<title>Node5</title>
<g id="a_node5"><a xlink:href="DSP_8cpp.html" target="_top" xlink:title=" ">
<polygon fill="white" stroke="black" points="3326.5,-140 3326.5,-159 3467.5,-159 3467.5,-140 3326.5,-140"/>
<text text-anchor="middle" x="3397" y="-147" font-family="Helvetica,sans-Serif" font-size="10.00">sources/APU/DSP/DSP.cpp</text>
</a>
</g>
</g>
<!-- Node3&#45;&gt;Node5 -->
<g id="edge4" class="edge">
<title>Node3&#45;&gt;Node5</title>
<path fill="none" stroke="midnightblue" d="M2432.4,-209.92C2591.8,-209.02 2988.55,-202.81 3318,-165 3330.61,-163.55 3344.23,-161.3 3356.56,-159"/>
<polygon fill="midnightblue" stroke="midnightblue" points="2432.23,-206.42 2422.25,-209.97 2432.27,-213.42 2432.23,-206.42"/>
</g>
<!-- Node6 -->
<g id="node6" class="node">
<title>Node6</title>
<g id="a_node6"><a xlink:href="Voice_8cpp.html" target="_top" xlink:title=" ">
<polygon fill="white" stroke="black" points="3485.5,-140 3485.5,-159 3634.5,-159 3634.5,-140 3485.5,-140"/>
<text text-anchor="middle" x="3560" y="-147" font-family="Helvetica,sans-Serif" font-size="10.00">sources/APU/DSP/Voice.cpp</text>
</a>
</g>
</g>
<!-- Node3&#45;&gt;Node6 -->
<g id="edge5" class="edge">
<title>Node3&#45;&gt;Node6</title>
<path fill="none" stroke="midnightblue" d="M2432.55,-210.4C2609.97,-210.67 3084.27,-207.04 3477,-165 3490.24,-163.58 3504.55,-161.34 3517.5,-159.04"/>
<polygon fill="midnightblue" stroke="midnightblue" points="2432.31,-206.9 2422.3,-210.38 2432.29,-213.9 2432.31,-206.9"/>
</g>
<!-- Node7 -->
<g id="node7" class="node">
<title>Node7</title>
<g id="a_node7"><a xlink:href="16bitArithmetic_8cpp.html" target="_top" xlink:title=" ">
<polygon fill="white" stroke="black" points="3652.5,-134.5 3652.5,-164.5 3789.5,-164.5 3789.5,-134.5 3652.5,-134.5"/>
<text text-anchor="start" x="3660.5" y="-152.5" font-family="Helvetica,sans-Serif" font-size="10.00">sources/APU/Instructions</text>
<text text-anchor="middle" x="3721" y="-141.5" font-family="Helvetica,sans-Serif" font-size="10.00">/16bitArithmetic.cpp</text>
</a>
</g>
</g>
<!-- Node3&#45;&gt;Node7 -->
<g id="edge6" class="edge">
<title>Node3&#45;&gt;Node7</title>
<path fill="none" stroke="midnightblue" d="M2432.29,-208.92C2665.81,-205.15 3406.35,-191.39 3644,-165 3646.7,-164.7 3649.46,-164.36 3652.23,-163.98"/>
<polygon fill="midnightblue" stroke="midnightblue" points="2432.16,-205.42 2422.22,-209.08 2432.27,-212.42 2432.16,-205.42"/>
</g>
<!-- Node8 -->
<g id="node8" class="node">
<title>Node8</title>
<g id="a_node8"><a xlink:href="16bitDataTransmission_8cpp.html" target="_top" xlink:title=" ">
<polygon fill="white" stroke="black" points="3808,-134.5 3808,-164.5 3960,-164.5 3960,-134.5 3808,-134.5"/>
<text text-anchor="start" x="3816" y="-152.5" font-family="Helvetica,sans-Serif" font-size="10.00">sources/APU/Instructions</text>
<text text-anchor="middle" x="3884" y="-141.5" font-family="Helvetica,sans-Serif" font-size="10.00">/16bitDataTransmission.cpp</text>
</a>
</g>
</g>
<!-- Node3&#45;&gt;Node8 -->
<g id="edge7" class="edge">
<title>Node3&#45;&gt;Node8</title>
<path fill="none" stroke="midnightblue" d="M2432.21,-209.07C2683.67,-205.59 3529.36,-192.09 3799,-165 3801.83,-164.72 3804.71,-164.39 3807.61,-164.04"/>
<polygon fill="midnightblue" stroke="midnightblue" points="2432.05,-205.57 2422.09,-209.21 2432.14,-212.57 2432.05,-205.57"/>
</g>
<!-- Node9 -->
<g id="node9" class="node">
<title>Node9</title>
<g id="a_node9"><a xlink:href="8bitArithmetic_8cpp.html" target="_top" xlink:title=" ">
<polygon fill="white" stroke="black" points="838.5,-134.5 838.5,-164.5 975.5,-164.5 975.5,-134.5 838.5,-134.5"/>
<text text-anchor="start" x="846.5" y="-152.5" font-family="Helvetica,sans-Serif" font-size="10.00">sources/APU/Instructions</text>
<text text-anchor="middle" x="907" y="-141.5" font-family="Helvetica,sans-Serif" font-size="10.00">/8bitArithmetic.cpp</text>
</a>
</g>
</g>
<!-- Node3&#45;&gt;Node9 -->
<g id="edge8" class="edge">
<title>Node3&#45;&gt;Node9</title>
<path fill="none" stroke="midnightblue" d="M2289.59,-209.09C2044.95,-205.75 1241.65,-192.89 985,-165 981.99,-164.67 978.92,-164.29 975.82,-163.88"/>
<polygon fill="midnightblue" stroke="midnightblue" points="2289.73,-212.59 2299.78,-209.23 2289.83,-205.59 2289.73,-212.59"/>
</g>
<!-- Node10 -->
<g id="node10" class="node">
<title>Node10</title>
<g id="a_node10"><a xlink:href="8bitDataTransmission_8cpp.html" target="_top" xlink:title=" ">
<polygon fill="white" stroke="black" points="994,-134.5 994,-164.5 1140,-164.5 1140,-134.5 994,-134.5"/>
<text text-anchor="start" x="1002" y="-152.5" font-family="Helvetica,sans-Serif" font-size="10.00">sources/APU/Instructions</text>
<text text-anchor="middle" x="1067" y="-141.5" font-family="Helvetica,sans-Serif" font-size="10.00">/8bitDataTransmission.cpp</text>
</a>
</g>
</g>
<!-- Node3&#45;&gt;Node10 -->
<g id="edge9" class="edge">
<title>Node3&#45;&gt;Node10</title>
<path fill="none" stroke="midnightblue" d="M2289.87,-208.65C2065.19,-204.18 1372.35,-188.78 1149,-165 1146.12,-164.69 1143.2,-164.35 1140.25,-163.97"/>
<polygon fill="midnightblue" stroke="midnightblue" points="2289.83,-212.15 2299.9,-208.85 2289.97,-205.15 2289.83,-212.15"/>
</g>
<!-- Node11 -->
<g id="node11" class="node">
<title>Node11</title>
<g id="a_node11"><a xlink:href="8bitIncrementDecrement_8cpp.html" target="_top" xlink:title=" ">
<polygon fill="white" stroke="black" points="1158,-134.5 1158,-164.5 1320,-164.5 1320,-134.5 1158,-134.5"/>
<text text-anchor="start" x="1166" y="-152.5" font-family="Helvetica,sans-Serif" font-size="10.00">sources/APU/Instructions</text>
<text text-anchor="middle" x="1239" y="-141.5" font-family="Helvetica,sans-Serif" font-size="10.00">/8bitIncrementDecrement.cpp</text>
</a>
</g>
</g>
<!-- Node3&#45;&gt;Node11 -->
<g id="edge10" class="edge">
<title>Node3&#45;&gt;Node11</title>
<path fill="none" stroke="midnightblue" d="M2289.63,-209.69C2121.81,-208.35 1689.24,-201.34 1330,-165 1326.82,-164.68 1323.58,-164.32 1320.3,-163.93"/>
<polygon fill="midnightblue" stroke="midnightblue" points="2289.79,-213.19 2299.82,-209.77 2289.84,-206.19 2289.79,-213.19"/>
</g>
<!-- Node12 -->
<g id="node12" class="node">
<title>Node12</title>
<g id="a_node12"><a xlink:href="8bitLogical_8cpp.html" target="_top" xlink:title=" ">
<polygon fill="white" stroke="black" points="1338.5,-134.5 1338.5,-164.5 1475.5,-164.5 1475.5,-134.5 1338.5,-134.5"/>
<text text-anchor="start" x="1346.5" y="-152.5" font-family="Helvetica,sans-Serif" font-size="10.00">sources/APU/Instructions</text>
<text text-anchor="middle" x="1407" y="-141.5" font-family="Helvetica,sans-Serif" font-size="10.00">/8bitLogical.cpp</text>
</a>
</g>
</g>
<!-- Node3&#45;&gt;Node12 -->
<g id="edge11" class="edge">
<title>Node3&#45;&gt;Node12</title>
<path fill="none" stroke="midnightblue" d="M2289.55,-209.53C2139.82,-207.84 1782.41,-200.13 1485,-165 1481.99,-164.64 1478.92,-164.24 1475.83,-163.81"/>
<polygon fill="midnightblue" stroke="midnightblue" points="2289.93,-213.03 2299.97,-209.64 2290,-206.03 2289.93,-213.03"/>
</g>
<!-- Node13 -->
<g id="node13" class="node">
<title>Node13</title>
<g id="a_node13"><a xlink:href="8bitShiftRotation_8cpp.html" target="_top" xlink:title=" ">
<polygon fill="white" stroke="black" points="1493.5,-134.5 1493.5,-164.5 1630.5,-164.5 1630.5,-134.5 1493.5,-134.5"/>
<text text-anchor="start" x="1501.5" y="-152.5" font-family="Helvetica,sans-Serif" font-size="10.00">sources/APU/Instructions</text>
<text text-anchor="middle" x="1562" y="-141.5" font-family="Helvetica,sans-Serif" font-size="10.00">/8bitShiftRotation.cpp</text>
</a>
</g>
</g>
<!-- Node3&#45;&gt;Node13 -->
<g id="edge12" class="edge">
<title>Node3&#45;&gt;Node13</title>
<path fill="none" stroke="midnightblue" d="M2289.81,-208.42C2160.12,-204.91 1876.92,-194.3 1640,-165 1636.99,-164.63 1633.93,-164.21 1630.83,-163.76"/>
<polygon fill="midnightblue" stroke="midnightblue" points="2289.91,-211.93 2300,-208.69 2290.1,-204.93 2289.91,-211.93"/>
</g>
<!-- Node14 -->
<g id="node14" class="node">
<title>Node14</title>
<g id="a_node14"><a xlink:href="Bit_8cpp.html" target="_top" xlink:title=" ">
<polygon fill="white" stroke="black" points="1648.5,-134.5 1648.5,-164.5 1785.5,-164.5 1785.5,-134.5 1648.5,-134.5"/>
<text text-anchor="start" x="1656.5" y="-152.5" font-family="Helvetica,sans-Serif" font-size="10.00">sources/APU/Instructions</text>
<text text-anchor="middle" x="1717" y="-141.5" font-family="Helvetica,sans-Serif" font-size="10.00">/Bit.cpp</text>
</a>
</g>
</g>
<!-- Node3&#45;&gt;Node14 -->
<g id="edge13" class="edge">
<title>Node3&#45;&gt;Node14</title>
<path fill="none" stroke="midnightblue" d="M2289.55,-206.72C2181.94,-201.23 1972.03,-188.43 1795,-165 1792,-164.6 1788.93,-164.17 1785.84,-163.7"/>
<polygon fill="midnightblue" stroke="midnightblue" points="2289.47,-210.22 2299.64,-207.23 2289.83,-203.23 2289.47,-210.22"/>
</g>
<!-- Node15 -->
<g id="node15" class="node">
<title>Node15</title>
<g id="a_node15"><a xlink:href="DecimalCompensation_8cpp.html" target="_top" xlink:title=" ">
<polygon fill="white" stroke="black" points="1803.5,-134.5 1803.5,-164.5 1954.5,-164.5 1954.5,-134.5 1803.5,-134.5"/>
<text text-anchor="start" x="1811.5" y="-152.5" font-family="Helvetica,sans-Serif" font-size="10.00">sources/APU/Instructions</text>
<text text-anchor="middle" x="1879" y="-141.5" font-family="Helvetica,sans-Serif" font-size="10.00">/DecimalCompensation.cpp</text>
</a>
</g>
</g>
<!-- Node3&#45;&gt;Node15 -->
<g id="edge14" class="edge">
<title>Node3&#45;&gt;Node15</title>
<path fill="none" stroke="midnightblue" d="M2289.6,-203.12C2210.01,-195.18 2077.54,-181.11 1964,-165 1960.89,-164.56 1957.71,-164.09 1954.51,-163.61"/>
<polygon fill="midnightblue" stroke="midnightblue" points="2289.7,-206.65 2299.99,-204.16 2290.39,-199.69 2289.7,-206.65"/>
</g>
<!-- Node16 -->
<g id="node16" class="node">
<title>Node16</title>
<g id="a_node16"><a xlink:href="MultiplicationDivision_8cpp.html" target="_top" xlink:title=" ">
<polygon fill="white" stroke="black" points="1973,-134.5 1973,-164.5 2119,-164.5 2119,-134.5 1973,-134.5"/>
<text text-anchor="start" x="1981" y="-152.5" font-family="Helvetica,sans-Serif" font-size="10.00">sources/APU/Instructions</text>
<text text-anchor="middle" x="2046" y="-141.5" font-family="Helvetica,sans-Serif" font-size="10.00">/MultiplicationDivision.cpp</text>
</a>
</g>
</g>
<!-- Node3&#45;&gt;Node16 -->
<g id="edge15" class="edge">
<title>Node3&#45;&gt;Node16</title>
<path fill="none" stroke="midnightblue" d="M2305.86,-199.58C2254,-189.79 2176.03,-175.06 2119.03,-164.29"/>
<polygon fill="midnightblue" stroke="midnightblue" points="2305.39,-203.06 2315.87,-201.48 2306.69,-196.18 2305.39,-203.06"/>
</g>
<!-- Node17 -->
<g id="node17" class="node">
<title>Node17</title>
<g id="a_node17"><a xlink:href="ProgramFlow_8cpp.html" target="_top" xlink:title=" ">
<polygon fill="white" stroke="black" points="2137.5,-134.5 2137.5,-164.5 2274.5,-164.5 2274.5,-134.5 2137.5,-134.5"/>
<text text-anchor="start" x="2145.5" y="-152.5" font-family="Helvetica,sans-Serif" font-size="10.00">sources/APU/Instructions</text>
<text text-anchor="middle" x="2206" y="-141.5" font-family="Helvetica,sans-Serif" font-size="10.00">/ProgramFlow.cpp</text>
</a>
</g>
</g>
<!-- Node3&#45;&gt;Node17 -->
<g id="edge16" class="edge">
<title>Node3&#45;&gt;Node17</title>
<path fill="none" stroke="midnightblue" d="M2329.34,-197.85C2304.16,-188.18 2268.9,-174.65 2242.53,-164.52"/>
<polygon fill="midnightblue" stroke="midnightblue" points="2328.2,-201.16 2338.79,-201.48 2330.71,-194.62 2328.2,-201.16"/>
</g>
<!-- Node18 -->
<g id="node18" class="node">
<title>Node18</title>
<g id="a_node18"><a xlink:href="ProgramStatusWord_8cpp.html" target="_top" xlink:title=" ">
<polygon fill="white" stroke="black" points="2292.5,-134.5 2292.5,-164.5 2429.5,-164.5 2429.5,-134.5 2292.5,-134.5"/>
<text text-anchor="start" x="2300.5" y="-152.5" font-family="Helvetica,sans-Serif" font-size="10.00">sources/APU/Instructions</text>
<text text-anchor="middle" x="2361" y="-141.5" font-family="Helvetica,sans-Serif" font-size="10.00">/ProgramStatusWord.cpp</text>
</a>
</g>
</g>
<!-- Node3&#45;&gt;Node18 -->
<g id="edge17" class="edge">
<title>Node3&#45;&gt;Node18</title>
<path fill="none" stroke="midnightblue" d="M2361,-191.23C2361,-182.59 2361,-172.5 2361,-164.52"/>
<polygon fill="midnightblue" stroke="midnightblue" points="2357.5,-191.48 2361,-201.48 2364.5,-191.48 2357.5,-191.48"/>
</g>
<!-- Node19 -->
<g id="node19" class="node">
<title>Node19</title>
<g id="a_node19"><a xlink:href="Stack_8cpp.html" target="_top" xlink:title=" ">
<polygon fill="white" stroke="black" points="2447.5,-134.5 2447.5,-164.5 2584.5,-164.5 2584.5,-134.5 2447.5,-134.5"/>
<text text-anchor="start" x="2455.5" y="-152.5" font-family="Helvetica,sans-Serif" font-size="10.00">sources/APU/Instructions</text>
<text text-anchor="middle" x="2516" y="-141.5" font-family="Helvetica,sans-Serif" font-size="10.00">/Stack.cpp</text>
</a>
</g>
</g>
<!-- Node3&#45;&gt;Node19 -->
<g id="edge18" class="edge">
<title>Node3&#45;&gt;Node19</title>
<path fill="none" stroke="midnightblue" d="M2392.66,-197.85C2417.84,-188.18 2453.1,-174.65 2479.47,-164.52"/>
<polygon fill="midnightblue" stroke="midnightblue" points="2391.29,-194.62 2383.21,-201.48 2393.8,-201.16 2391.29,-194.62"/>
</g>
<!-- Node20 -->
<g id="node20" class="node">
<title>Node20</title>
<g id="a_node20"><a xlink:href="Standbys_8cpp.html" target="_top" xlink:title=" ">
<polygon fill="white" stroke="black" points="2602.5,-134.5 2602.5,-164.5 2739.5,-164.5 2739.5,-134.5 2602.5,-134.5"/>
<text text-anchor="start" x="2610.5" y="-152.5" font-family="Helvetica,sans-Serif" font-size="10.00">sources/APU/Instructions</text>
<text text-anchor="middle" x="2671" y="-141.5" font-family="Helvetica,sans-Serif" font-size="10.00">/Standbys.cpp</text>
</a>
</g>
</g>
<!-- Node3&#45;&gt;Node20 -->
<g id="edge19" class="edge">
<title>Node3&#45;&gt;Node20</title>
<path fill="none" stroke="midnightblue" d="M2415.45,-199.55C2467.48,-189.56 2546.09,-174.47 2602.38,-163.67"/>
<polygon fill="midnightblue" stroke="midnightblue" points="2414.58,-196.15 2405.42,-201.48 2415.9,-203.03 2414.58,-196.15"/>
</g>
<!-- Node21 -->
<g id="node21" class="node">
<title>Node21</title>
<g id="a_node21"><a xlink:href="Subroutine_8cpp.html" target="_top" xlink:title=" ">
<polygon fill="white" stroke="black" points="2757.5,-134.5 2757.5,-164.5 2894.5,-164.5 2894.5,-134.5 2757.5,-134.5"/>
<text text-anchor="start" x="2765.5" y="-152.5" font-family="Helvetica,sans-Serif" font-size="10.00">sources/APU/Instructions</text>
<text text-anchor="middle" x="2826" y="-141.5" font-family="Helvetica,sans-Serif" font-size="10.00">/Subroutine.cpp</text>
</a>
</g>
</g>
<!-- Node3&#45;&gt;Node21 -->
<g id="edge20" class="edge">
<title>Node3&#45;&gt;Node21</title>
<path fill="none" stroke="midnightblue" d="M2432.53,-203.23C2510.53,-195.5 2638.96,-181.72 2749,-165 2751.69,-164.59 2754.43,-164.16 2757.19,-163.71"/>
<polygon fill="midnightblue" stroke="midnightblue" points="2431.94,-199.77 2422.33,-204.24 2432.63,-206.74 2431.94,-199.77"/>
</g>
<!-- Node22 -->
<g id="node22" class="node">
<title>Node22</title>
<g id="a_node22"><a xlink:href="Operand_8cpp.html" target="_top" xlink:title=" ">
<polygon fill="white" stroke="black" points="2913,-140 2913,-159 3055,-159 3055,-140 2913,-140"/>
<text text-anchor="middle" x="2984" y="-147" font-family="Helvetica,sans-Serif" font-size="10.00">sources/APU/Operand.cpp</text>
</a>
</g>
</g>
<!-- Node3&#45;&gt;Node22 -->
<g id="edge21" class="edge">
<title>Node3&#45;&gt;Node22</title>
<path fill="none" stroke="midnightblue" d="M2432.35,-206.29C2536.38,-200.38 2735.64,-187.18 2904,-165 2916.17,-163.4 2929.31,-161.21 2941.36,-159.02"/>
<polygon fill="midnightblue" stroke="midnightblue" points="2432.07,-202.8 2422.28,-206.86 2432.46,-209.79 2432.07,-202.8"/>
</g>
<!-- Node23 -->
<g id="node23" class="node">
<title>Node23</title>
<g id="a_node23"><a xlink:href="APUDebug_8hpp.html" target="_top" xlink:title=" ">
<polygon fill="white" stroke="red" points="2731,-73 2731,-92 2911,-92 2911,-73 2731,-73"/>
<text text-anchor="middle" x="2821" y="-80" font-family="Helvetica,sans-Serif" font-size="10.00">sources/Debugger/APUDebug.hpp</text>
</a>
</g>
</g>
<!-- Node3&#45;&gt;Node23 -->
<g id="edge22" class="edge">
<title>Node3&#45;&gt;Node23</title>
<path fill="none" stroke="midnightblue" d="M2432.32,-208.25C2612.7,-203.48 3074.44,-188.98 3097,-165 3106.44,-154.96 3105.82,-144.58 3097,-134 3089.99,-125.59 2956.75,-104.09 2878.01,-92.03"/>
<polygon fill="midnightblue" stroke="midnightblue" points="2432.04,-204.76 2422.14,-208.52 2432.22,-211.76 2432.04,-204.76"/>
</g>
<!-- Node3&#45;&gt;Node25 -->
<g id="edge23" class="edge">
<title>Node3&#45;&gt;Node25</title>
<path fill="none" stroke="midnightblue" d="M2289.36,-209.72C2023.11,-208.42 1090.84,-201.3 796,-165 785.17,-163.67 773.5,-161.39 763.03,-159.03"/>
<polygon fill="midnightblue" stroke="midnightblue" points="2289.65,-213.22 2299.67,-209.77 2289.69,-206.22 2289.65,-213.22"/>
</g>
<!-- Node44 -->
<g id="node36" class="node">
<title>Node44</title>
<g id="a_node36"><a xlink:href="testAPU_8cpp.html" target="_top" xlink:title=" ">
<polygon fill="white" stroke="black" points="2609,-6 2609,-25 2735,-25 2735,-6 2609,-6"/>
<text text-anchor="middle" x="2672" y="-13" font-family="Helvetica,sans-Serif" font-size="10.00">tests/APU/testAPU.cpp</text>
</a>
</g>
</g>
<!-- Node3&#45;&gt;Node44 -->
<g id="edge47" class="edge">
<title>Node3&#45;&gt;Node44</title>
<path fill="none" stroke="midnightblue" d="M2432.24,-210.06C2609.44,-209.62 3059.77,-204.55 3114,-165 3150.41,-138.45 3170.11,-100.53 3140,-67 3113.45,-37.43 2857.09,-23.64 2735.45,-18.72"/>
<polygon fill="midnightblue" stroke="midnightblue" points="2432.23,-206.56 2422.23,-210.08 2432.24,-213.56 2432.23,-206.56"/>
</g>
<!-- Node45 -->
<g id="node37" class="node">
<title>Node45</title>
<g id="a_node37"><a xlink:href="testAPUInstructions_8cpp.html" target="_top" xlink:title=" ">
<polygon fill="white" stroke="black" points="1167.5,-6 1167.5,-25 1350.5,-25 1350.5,-6 1167.5,-6"/>
<text text-anchor="middle" x="1259" y="-13" font-family="Helvetica,sans-Serif" font-size="10.00">tests/APU/testAPUInstructions.cpp</text>
</a>
</g>
</g>
<!-- Node3&#45;&gt;Node45 -->
<g id="edge48" class="edge">
<title>Node3&#45;&gt;Node45</title>
<path fill="none" stroke="midnightblue" d="M2289.49,-209.24C1990.61,-205.9 855.73,-191.5 830,-165 820.4,-155.12 820.69,-144.16 830,-134 891.78,-66.56 1170.92,-157.94 1240,-98 1261.4,-79.43 1261.22,-41.86 1259.92,-25.01"/>
<polygon fill="midnightblue" stroke="midnightblue" points="2289.72,-212.74 2299.76,-209.36 2289.8,-205.74 2289.72,-212.74"/>
</g>
<!-- Node46 -->
<g id="node38" class="node">
<title>Node46</title>
<g id="a_node38"><a xlink:href="testOperand_8cpp.html" target="_top" xlink:title=" ">
<polygon fill="white" stroke="black" points="2443.5,-6 2443.5,-25 2590.5,-25 2590.5,-6 2443.5,-6"/>
<text text-anchor="middle" x="2517" y="-13" font-family="Helvetica,sans-Serif" font-size="10.00">tests/APU/testOperand.cpp</text>
</a>
</g>
</g>
<!-- Node3&#45;&gt;Node46 -->
<g id="edge49" class="edge">
<title>Node3&#45;&gt;Node46</title>
<path fill="none" stroke="midnightblue" d="M2432.18,-208.04C2606.58,-202.9 3042.61,-187.81 3064,-165 3073.43,-154.95 3073.36,-144.11 3064,-134 2993.29,-57.62 2691.36,-141.94 2597,-98 2561.77,-81.6 2533.59,-42.54 2522.32,-25.13"/>
<polygon fill="midnightblue" stroke="midnightblue" points="2431.97,-204.55 2422.07,-208.34 2432.17,-211.54 2431.97,-204.55"/>
</g>
<!-- Node25&#45;&gt;Node23 -->
<g id="edge24" class="edge">
<title>Node25&#45;&gt;Node23</title>
<path fill="none" stroke="midnightblue" d="M790.47,-138.49C803.48,-136.69 817.17,-135.05 830,-134 1668.25,-65.52 1883.8,-167.08 2722,-98 2738.1,-96.67 2755.57,-94.4 2771.29,-92.04"/>
<polygon fill="midnightblue" stroke="midnightblue" points="789.62,-135.08 780.22,-139.97 790.62,-142.01 789.62,-135.08"/>
</g>
<!-- Node26 -->
<g id="node25" class="node">
<title>Node26</title>
<g id="a_node25"><a xlink:href="CGramDebug_8cpp.html" target="_top" xlink:title=" ">
<polygon fill="white" stroke="black" points="290.5,-73 290.5,-92 483.5,-92 483.5,-73 290.5,-73"/>
<text text-anchor="middle" x="387" y="-80" font-family="Helvetica,sans-Serif" font-size="10.00">sources/Debugger/CGramDebug.cpp</text>
</a>
</g>
</g>
<!-- Node25&#45;&gt;Node26 -->
<g id="edge25" class="edge">
<title>Node25&#45;&gt;Node26</title>
<path fill="none" stroke="midnightblue" d="M674.79,-138.04C607.33,-125.25 494.48,-103.87 432.02,-92.03"/>
<polygon fill="midnightblue" stroke="midnightblue" points="674.33,-141.51 684.81,-139.94 675.63,-134.63 674.33,-141.51"/>
</g>
<!-- Node27 -->
<g id="node26" class="node">
<title>Node27</title>
<g id="a_node26"><a xlink:href="SFRenderer_8hpp.html" target="_top" xlink:title=" ">
<polygon fill="white" stroke="red" points="501.5,-73 501.5,-92 682.5,-92 682.5,-73 501.5,-73"/>
<text text-anchor="middle" x="592" y="-80" font-family="Helvetica,sans-Serif" font-size="10.00">sources/Renderer/SFRenderer.hpp</text>
</a>
</g>
</g>
<!-- Node25&#45;&gt;Node27 -->
<g id="edge26" class="edge">
<title>Node25&#45;&gt;Node27</title>
<path fill="none" stroke="midnightblue" d="M702.28,-135.44C674.95,-122.57 633.95,-103.26 610.4,-92.17"/>
<polygon fill="midnightblue" stroke="midnightblue" points="701.14,-138.77 711.67,-139.87 704.12,-132.44 701.14,-138.77"/>
</g>
<!-- Node28 -->
<g id="node27" class="node">
<title>Node28</title>
<g id="a_node27"><a xlink:href="CPUDebug_8hpp.html" target="_top" xlink:title=" ">
<polygon fill="white" stroke="red" points="198,-0.5 198,-30.5 326,-30.5 326,-0.5 198,-0.5"/>
<text text-anchor="start" x="206" y="-18.5" font-family="Helvetica,sans-Serif" font-size="10.00">sources/Debugger/CPU</text>
<text text-anchor="middle" x="262" y="-7.5" font-family="Helvetica,sans-Serif" font-size="10.00">/CPUDebug.hpp</text>
</a>
</g>
</g>
<!-- Node25&#45;&gt;Node28 -->
<g id="edge29" class="edge">
<title>Node25&#45;&gt;Node28</title>
<path fill="none" stroke="midnightblue" d="M667.69,-145.44C551.15,-139.15 309.34,-123.21 281,-98 262,-81.1 260.1,-49.22 260.8,-30.74"/>
<polygon fill="midnightblue" stroke="midnightblue" points="667.72,-148.95 677.89,-145.98 668.09,-141.96 667.72,-148.95"/>
</g>
<!-- Node31 -->
<g id="node28" class="node">
<title>Node31</title>
<g id="a_node28"><a xlink:href="main_8cpp.html" target="_top" xlink:title=" ">
<polygon fill="white" stroke="black" points="601,-6 601,-25 703,-25 703,-6 601,-6"/>
<text text-anchor="middle" x="652" y="-13" font-family="Helvetica,sans-Serif" font-size="10.00">sources/main.cpp</text>
</a>
</g>
</g>
<!-- Node25&#45;&gt;Node31 -->
<g id="edge34" class="edge">
<title>Node25&#45;&gt;Node31</title>
<path fill="none" stroke="midnightblue" d="M722.63,-130.34C715.46,-113.44 703.81,-87.79 691,-67 681.36,-51.34 667.82,-34.76 659.5,-25.03"/>
<polygon fill="midnightblue" stroke="midnightblue" points="719.41,-131.73 726.48,-139.62 725.88,-129.04 719.41,-131.73"/>
</g>
<!-- Node37 -->
<g id="node29" class="node">
<title>Node37</title>
<g id="a_node29"><a xlink:href="HeaderViewer_8cpp.html" target="_top" xlink:title=" ">
<polygon fill="white" stroke="black" points="0,-73 0,-92 196,-92 196,-73 0,-73"/>
<text text-anchor="middle" x="98" y="-80" font-family="Helvetica,sans-Serif" font-size="10.00">sources/Debugger/HeaderViewer.cpp</text>
</a>
</g>
</g>
<!-- Node25&#45;&gt;Node37 -->
<g id="edge30" class="edge">
<title>Node25&#45;&gt;Node37</title>
<path fill="none" stroke="midnightblue" d="M667.73,-142.1C553.18,-130.31 309.04,-105.21 180.72,-92.01"/>
<polygon fill="midnightblue" stroke="midnightblue" points="667.44,-145.58 677.74,-143.13 668.15,-138.62 667.44,-145.58"/>
</g>
<!-- Node38 -->
<g id="node30" class="node">
<title>Node38</title>
<g id="a_node30"><a xlink:href="MemoryBusDebug_8cpp.html" target="_top" xlink:title=" ">
<polygon fill="white" stroke="black" points="777,-67.5 777,-97.5 943,-97.5 943,-67.5 777,-67.5"/>
<text text-anchor="start" x="785" y="-85.5" font-family="Helvetica,sans-Serif" font-size="10.00">sources/Debugger/MemoryBus</text>
<text text-anchor="middle" x="860" y="-74.5" font-family="Helvetica,sans-Serif" font-size="10.00">Debug.cpp</text>
</a>
</g>
</g>
<!-- Node25&#45;&gt;Node38 -->
<g id="edge31" class="edge">
<title>Node25&#45;&gt;Node38</title>
<path fill="none" stroke="midnightblue" d="M756.32,-135.34C778.2,-124.4 809.28,-108.86 831.7,-97.65"/>
<polygon fill="midnightblue" stroke="midnightblue" points="754.64,-132.27 747.26,-139.87 757.77,-138.53 754.64,-132.27"/>
</g>
<!-- Node39 -->
<g id="node31" class="node">
<title>Node39</title>
<g id="a_node31"><a xlink:href="MemoryViewer_8cpp.html" target="_top" xlink:title=" ">
<polygon fill="white" stroke="black" points="2929.5,-73 2929.5,-92 3130.5,-92 3130.5,-73 2929.5,-73"/>
<text text-anchor="middle" x="3030" y="-80" font-family="Helvetica,sans-Serif" font-size="10.00">sources/Debugger/MemoryViewer.cpp</text>
</a>
</g>
</g>
<!-- Node25&#45;&gt;Node39 -->
<g id="edge32" class="edge">
<title>Node25&#45;&gt;Node39</title>
<path fill="none" stroke="midnightblue" d="M789.87,-138.56C803.06,-136.72 816.97,-135.05 830,-134 1756.01,-59.19 1993.53,-166.82 2920,-98 2937.86,-96.67 2957.27,-94.4 2974.73,-92.04"/>
<polygon fill="midnightblue" stroke="midnightblue" points="789.36,-135.09 779.96,-139.99 790.36,-142.02 789.36,-135.09"/>
</g>
<!-- Node40 -->
<g id="node32" class="node">
<title>Node40</title>
<g id="a_node32"><a xlink:href="RegisterViewer_8cpp.html" target="_top" xlink:title=" ">
<polygon fill="white" stroke="black" points="961,-67.5 961,-97.5 1109,-97.5 1109,-67.5 961,-67.5"/>
<text text-anchor="start" x="969" y="-85.5" font-family="Helvetica,sans-Serif" font-size="10.00">sources/Debugger/Register</text>
<text text-anchor="middle" x="1035" y="-74.5" font-family="Helvetica,sans-Serif" font-size="10.00">Viewer.cpp</text>
</a>
</g>
</g>
<!-- Node25&#45;&gt;Node40 -->
<g id="edge33" class="edge">
<title>Node25&#45;&gt;Node40</title>
<path fill="none" stroke="midnightblue" d="M778.53,-137.79C784.42,-136.51 790.34,-135.22 796,-134 854.04,-121.49 920.08,-107.56 968.01,-97.51"/>
<polygon fill="midnightblue" stroke="midnightblue" points="777.75,-134.38 768.73,-139.94 779.24,-141.22 777.75,-134.38"/>
</g>
<!-- Node41 -->
<g id="node33" class="node">
<title>Node41</title>
<g id="a_node33"><a xlink:href="MemoryBus_8cpp.html" target="_top" xlink:title=" ">
<polygon fill="white" stroke="black" points="3310.5,-73 3310.5,-92 3489.5,-92 3489.5,-73 3310.5,-73"/>
<text text-anchor="middle" x="3400" y="-80" font-family="Helvetica,sans-Serif" font-size="10.00">sources/Memory/MemoryBus.cpp</text>
</a>
</g>
</g>
<!-- Node25&#45;&gt;Node41 -->
<g id="edge35" class="edge">
<title>Node25&#45;&gt;Node41</title>
<path fill="none" stroke="midnightblue" d="M789.87,-138.54C803.06,-136.71 816.97,-135.04 830,-134 1341.76,-93.08 2626.93,-116.3 3140,-98 3196.7,-95.98 3260.29,-92.45 3310.4,-89.39"/>
<polygon fill="midnightblue" stroke="midnightblue" points="789.36,-135.08 779.96,-139.97 790.36,-142.01 789.36,-135.08"/>
</g>
<!-- Node42 -->
<g id="node34" class="node">
<title>Node42</title>
<g id="a_node34"><a xlink:href="SNES_8cpp.html" target="_top" xlink:title=" ">
<polygon fill="white" stroke="black" points="1127.5,-73 1127.5,-92 1230.5,-92 1230.5,-73 1127.5,-73"/>
<text text-anchor="middle" x="1179" y="-80" font-family="Helvetica,sans-Serif" font-size="10.00">sources/SNES.cpp</text>
</a>
</g>
</g>
<!-- Node25&#45;&gt;Node42 -->
<g id="edge36" class="edge">
<title>Node25&#45;&gt;Node42</title>
<path fill="none" stroke="midnightblue" d="M775.4,-137.87C782.28,-136.45 789.31,-135.11 796,-134 938.08,-110.52 976.13,-122.7 1118,-98 1127.22,-96.39 1137.13,-94.23 1146.23,-92.07"/>
<polygon fill="midnightblue" stroke="midnightblue" points="774.54,-134.48 765.49,-139.99 776,-141.32 774.54,-134.48"/>
</g>
<!-- Node43 -->
<g id="node35" class="node">
<title>Node43</title>
<g id="a_node35"><a xlink:href="tests_8hpp.html" target="_top" xlink:title=" ">
<polygon fill="white" stroke="red" points="2605.5,-73 2605.5,-92 2694.5,-92 2694.5,-73 2605.5,-73"/>
<text text-anchor="middle" x="2650" y="-80" font-family="Helvetica,sans-Serif" font-size="10.00">tests/tests.hpp</text>
</a>
</g>
</g>
<!-- Node25&#45;&gt;Node43 -->
<g id="edge37" class="edge">
<title>Node25&#45;&gt;Node43</title>
<path fill="none" stroke="midnightblue" d="M790.47,-138.51C803.48,-136.7 817.17,-135.06 830,-134 1220.09,-101.85 2202.92,-149.02 2591,-98 2600.83,-96.71 2611.4,-94.41 2620.83,-92.02"/>
<polygon fill="midnightblue" stroke="midnightblue" points="789.62,-135.09 780.22,-139.98 790.62,-142.02 789.62,-135.09"/>
</g>
<!-- Node25&#45;&gt;Node44 -->
<g id="edge44" class="edge">
<title>Node25&#45;&gt;Node44</title>
<path fill="none" stroke="midnightblue" d="M791.98,-138.63C804.54,-136.88 817.67,-135.23 830,-134 1121.44,-104.96 1195.6,-114.81 1488,-98 1982.3,-69.59 2109.02,-94.92 2600,-31 2611.38,-29.52 2623.66,-27.29 2634.79,-25.01"/>
<polygon fill="midnightblue" stroke="midnightblue" points="791.46,-135.17 782.05,-140.05 792.45,-142.1 791.46,-135.17"/>
</g>
<!-- Node25&#45;&gt;Node45 -->
<g id="edge45" class="edge">
<title>Node25&#45;&gt;Node45</title>
<path fill="none" stroke="midnightblue" d="M733.19,-129.89C737.53,-110.76 747.27,-81.76 768,-67 799.75,-44.41 1034.21,-28.43 1167.33,-21.07"/>
<polygon fill="midnightblue" stroke="midnightblue" points="729.73,-129.34 731.22,-139.83 736.6,-130.7 729.73,-129.34"/>
</g>
<!-- Node25&#45;&gt;Node46 -->
<g id="edge46" class="edge">
<title>Node25&#45;&gt;Node46</title>
<path fill="none" stroke="midnightblue" d="M791.99,-138.78C804.55,-137.02 817.68,-135.32 830,-134 1150.38,-99.66 2161.59,-37.83 2443.44,-20.89"/>
<polygon fill="midnightblue" stroke="midnightblue" points="791.47,-135.32 782.07,-140.2 792.46,-142.25 791.47,-135.32"/>
</g>
<!-- Node27&#45;&gt;Node28 -->
<g id="edge27" class="edge">
<title>Node27&#45;&gt;Node28</title>
<path fill="none" stroke="midnightblue" d="M538.47,-70.96C480.52,-59.54 388.12,-41.34 326.28,-29.16"/>
<polygon fill="midnightblue" stroke="midnightblue" points="538.03,-74.44 548.52,-72.94 539.38,-67.57 538.03,-74.44"/>
</g>
<!-- Node27&#45;&gt;Node31 -->
<g id="edge28" class="edge">
<title>Node27&#45;&gt;Node31</title>
<path fill="none" stroke="midnightblue" d="M607.11,-65.13C618.84,-52.42 634.65,-35.3 644.04,-25.13"/>
<polygon fill="midnightblue" stroke="midnightblue" points="604.3,-63.01 600.09,-72.73 609.45,-67.76 604.3,-63.01"/>
</g>
<!-- Node43&#45;&gt;Node43 -->
<g id="edge39" class="edge">
<title>Node43&#45;&gt;Node43</title>
<path fill="none" stroke="midnightblue" d="M2679.58,-94.2C2696.63,-96.58 2712.5,-92.68 2712.5,-82.5 2712.5,-70.32 2689.79,-67.13 2669.52,-72.94"/>
<polygon fill="midnightblue" stroke="midnightblue" points="2680.03,-90.71 2669.52,-92.06 2678.58,-97.56 2680.03,-90.71"/>
</g>
<!-- Node43&#45;&gt;Node44 -->
<g id="edge38" class="edge">
<title>Node43&#45;&gt;Node44</title>
<path fill="none" stroke="midnightblue" d="M2656.29,-62.91C2660.5,-50.49 2665.83,-34.72 2669.08,-25.13"/>
<polygon fill="midnightblue" stroke="midnightblue" points="2652.86,-62.14 2652.97,-72.73 2659.49,-64.38 2652.86,-62.14"/>
</g>
<!-- Node43&#45;&gt;Node45 -->
<g id="edge40" class="edge">
<title>Node43&#45;&gt;Node45</title>
<path fill="none" stroke="midnightblue" d="M2595.03,-78.93C2382.91,-69.02 1616.3,-33.2 1350.5,-20.78"/>
<polygon fill="midnightblue" stroke="midnightblue" points="2595.14,-82.44 2605.29,-79.41 2595.47,-75.45 2595.14,-82.44"/>
</g>
<!-- Node43&#45;&gt;Node46 -->
<g id="edge41" class="edge">
<title>Node43&#45;&gt;Node46</title>
<path fill="none" stroke="midnightblue" d="M2623.28,-68.44C2596.94,-55.57 2557.43,-36.26 2534.73,-25.17"/>
<polygon fill="midnightblue" stroke="midnightblue" points="2621.82,-71.62 2632.34,-72.87 2624.89,-65.33 2621.82,-71.62"/>
</g>
<!-- Node60 -->
<g id="node39" class="node">
<title>Node60</title>
<g id="a_node39"><a xlink:href="testMemoryBus_8cpp.html" target="_top" xlink:title=" ">
<polygon fill="white" stroke="black" points="3727.5,-6 3727.5,-25 3868.5,-25 3868.5,-6 3727.5,-6"/>
<text text-anchor="middle" x="3798" y="-13" font-family="Helvetica,sans-Serif" font-size="10.00">tests/testMemoryBus.cpp</text>
</a>
</g>
</g>
<!-- Node43&#45;&gt;Node60 -->
<g id="edge42" class="edge">
<title>Node43&#45;&gt;Node60</title>
<path fill="none" stroke="midnightblue" d="M2696.81,-71C2705.17,-69.44 2713.81,-68.01 2722,-67 2821.12,-54.76 3504.08,-27.78 3727.46,-19.19"/>
<polygon fill="midnightblue" stroke="midnightblue" points="2695.96,-67.6 2686.82,-72.97 2697.31,-74.47 2695.96,-67.6"/>
</g>
<!-- Node61 -->
<g id="node40" class="node">
<title>Node61</title>
<g id="a_node40"><a xlink:href="testRectangleMemory_8cpp.html" target="_top" xlink:title=" ">
<polygon fill="white" stroke="black" points="3226,-6 3226,-25 3396,-25 3396,-6 3226,-6"/>
<text text-anchor="middle" x="3311" y="-13" font-family="Helvetica,sans-Serif" font-size="10.00">tests/testRectangleMemory.cpp</text>
</a>
</g>
</g>
<!-- Node43&#45;&gt;Node61 -->
<g id="edge43" class="edge">
<title>Node43&#45;&gt;Node61</title>
<path fill="none" stroke="midnightblue" d="M2698.21,-71.01C2706.14,-69.51 2714.28,-68.1 2722,-67 2900.3,-41.49 3110.95,-27.22 3225.8,-20.77"/>
<polygon fill="midnightblue" stroke="midnightblue" points="2697.49,-67.58 2688.35,-72.94 2698.83,-74.45 2697.49,-67.58"/>
</g>
<!-- Node62&#45;&gt;Node25 -->
<g id="edge55" class="edge">
<title>Node62&#45;&gt;Node25</title>
<path fill="none" stroke="midnightblue" d="M669.05,-253.05C683.85,-245.7 700.34,-235.12 711,-221 725.21,-202.18 728.8,-173.49 729.7,-159.21"/>
<polygon fill="midnightblue" stroke="midnightblue" points="667.24,-250.03 659.64,-257.41 670.19,-256.38 667.24,-250.03"/>
</g>
<!-- Node63 -->
<g id="node42" class="node">
<title>Node63</title>
<g id="a_node42"><a xlink:href="Cartridge_8cpp.html" target="_top" xlink:title=" ">
<polygon fill="white" stroke="black" points="532,-201.5 532,-220.5 702,-220.5 702,-201.5 532,-201.5"/>
<text text-anchor="middle" x="617" y="-208.5" font-family="Helvetica,sans-Serif" font-size="10.00">sources/Cartridge/Cartridge.cpp</text>
</a>
</g>
</g>
<!-- Node62&#45;&gt;Node63 -->
<g id="edge51" class="edge">
<title>Node62&#45;&gt;Node63</title>
<path fill="none" stroke="midnightblue" d="M629.45,-247.4C626.28,-238.36 622.61,-227.94 620.08,-220.75"/>
<polygon fill="midnightblue" stroke="midnightblue" points="626.24,-248.81 632.86,-257.08 632.85,-246.49 626.24,-248.81"/>
</g>
<!-- Node64 -->
<g id="node43" class="node">
<title>Node64</title>
<g id="a_node43"><a xlink:href="CPU_8hpp.html" target="_top" xlink:title=" ">
<polygon fill="white" stroke="red" points="392,-201.5 392,-220.5 514,-220.5 514,-201.5 392,-201.5"/>
<text text-anchor="middle" x="453" y="-208.5" font-family="Helvetica,sans-Serif" font-size="10.00">sources/CPU/CPU.hpp</text>
</a>
</g>
</g>
<!-- Node62&#45;&gt;Node64 -->
<g id="edge52" class="edge">
<title>Node62&#45;&gt;Node64</title>
<path fill="none" stroke="midnightblue" d="M597.26,-254.57C562.74,-244.38 512.99,-229.7 481.86,-220.52"/>
<polygon fill="midnightblue" stroke="midnightblue" points="596.42,-257.97 607,-257.44 598.4,-251.26 596.42,-257.97"/>
</g>
<!-- Node73 -->
<g id="node44" class="node">
<title>Node73</title>
<g id="a_node44"><a xlink:href="HeaderViewer_8hpp.html" target="_top" xlink:title=" ">
<polygon fill="white" stroke="black" points="119.5,-201.5 119.5,-220.5 316.5,-220.5 316.5,-201.5 119.5,-201.5"/>
<text text-anchor="middle" x="218" y="-208.5" font-family="Helvetica,sans-Serif" font-size="10.00">sources/Debugger/HeaderViewer.hpp</text>
</a>
</g>
</g>
<!-- Node62&#45;&gt;Node73 -->
<g id="edge56" class="edge">
<title>Node62&#45;&gt;Node73</title>
<path fill="none" stroke="midnightblue" d="M559.4,-256.1C480.47,-245.91 358.7,-230.18 283.92,-220.52"/>
<polygon fill="midnightblue" stroke="midnightblue" points="559.4,-259.63 569.77,-257.44 560.3,-252.69 559.4,-259.63"/>
</g>
<!-- Node64&#45;&gt;Node25 -->
<g id="edge53" class="edge">
<title>Node64&#45;&gt;Node25</title>
<path fill="none" stroke="midnightblue" d="M502.67,-199.33C556.39,-187.79 640.95,-169.63 690.39,-159.01"/>
<polygon fill="midnightblue" stroke="midnightblue" points="501.73,-195.95 492.69,-201.48 503.2,-202.8 501.73,-195.95"/>
</g>
<!-- Node64&#45;&gt;Node28 -->
<g id="edge54" class="edge">
<title>Node64&#45;&gt;Node28</title>
<path fill="none" stroke="midnightblue" d="M409.01,-198.38C362.82,-183.57 292.6,-153.02 261,-98 248.95,-77.02 253.44,-47.7 257.76,-30.55"/>
<polygon fill="midnightblue" stroke="midnightblue" points="408.18,-201.79 418.77,-201.39 410.24,-195.1 408.18,-201.79"/>
</g>
<!-- Node73&#45;&gt;Node37 -->
<g id="edge57" class="edge">
<title>Node73&#45;&gt;Node37</title>
<path fill="none" stroke="midnightblue" d="M202.66,-193.83C177,-166.78 126.23,-113.26 106.31,-92.26"/>
<polygon fill="midnightblue" stroke="midnightblue" points="200.33,-196.46 209.75,-201.31 205.41,-191.64 200.33,-196.46"/>
</g>
<!-- Node74&#45;&gt;Node25 -->
<g id="edge60" class="edge">
<title>Node74&#45;&gt;Node25</title>
<path fill="none" stroke="midnightblue" d="M839.05,-250.47C812.23,-225.87 760.85,-178.78 739.58,-159.28"/>
<polygon fill="midnightblue" stroke="midnightblue" points="836.79,-253.14 846.53,-257.32 841.52,-247.98 836.79,-253.14"/>
</g>
<!-- Node78&#45;&gt;Node39 -->
<g id="edge62" class="edge">
<title>Node78&#45;&gt;Node39</title>
<path fill="none" stroke="midnightblue" d="M3003.45,-263.86C3265.75,-257.67 3904.86,-235.44 3969,-165 3978.28,-154.81 3978.48,-144 3969,-134 3969,-134 3373.46,-101.97 3130.94,-88.93"/>
<polygon fill="midnightblue" stroke="midnightblue" points="3003.06,-260.37 2993.15,-264.1 3003.22,-267.37 3003.06,-260.37"/>
</g>
<!-- Node81&#45;&gt;Node41 -->
<g id="edge67" class="edge">
<title>Node81&#45;&gt;Node41</title>
<path fill="none" stroke="midnightblue" d="M4005.25,-134.41C4004.16,-134.27 4003.08,-134.13 4002,-134 3820.77,-111.5 3607.57,-96.25 3489.73,-88.79"/>
<polygon fill="midnightblue" stroke="midnightblue" points="4004.79,-137.88 4015.17,-135.75 4005.73,-130.94 4004.79,-137.88"/>
</g>
<!-- Node81&#45;&gt;Node60 -->
<g id="edge69" class="edge">
<title>Node81&#45;&gt;Node60</title>
<path fill="none" stroke="midnightblue" d="M4091.31,-124.28C4090.91,-106 4087.18,-81.65 4072,-67 4043.6,-39.58 3939.99,-26.59 3868.65,-20.78"/>
<polygon fill="midnightblue" stroke="midnightblue" points="4087.81,-124.44 4091.21,-134.48 4094.81,-124.51 4087.81,-124.44"/>
</g>
<!-- Node81&#45;&gt;Node61 -->
<g id="edge70" class="edge">
<title>Node81&#45;&gt;Node61</title>
<path fill="none" stroke="midnightblue" d="M4005.35,-134.16C3842.85,-106.62 3491.73,-47.12 3361.2,-25.01"/>
<polygon fill="midnightblue" stroke="midnightblue" points="4004.86,-137.62 4015.31,-135.84 4006.03,-130.72 4004.86,-137.62"/>
</g>
<!-- Node82 -->
<g id="node50" class="node">
<title>Node82</title>
<g id="a_node50"><a xlink:href="RectangleShadow_8cpp.html" target="_top" xlink:title=" ">
<polygon fill="white" stroke="black" points="3913.5,-67.5 3913.5,-97.5 4062.5,-97.5 4062.5,-67.5 3913.5,-67.5"/>
<text text-anchor="start" x="3921.5" y="-85.5" font-family="Helvetica,sans-Serif" font-size="10.00">sources/Memory/Rectangle</text>
<text text-anchor="middle" x="3988" y="-74.5" font-family="Helvetica,sans-Serif" font-size="10.00">Shadow.cpp</text>
</a>
</g>
</g>
<!-- Node81&#45;&gt;Node82 -->
<g id="edge68" class="edge">
<title>Node81&#45;&gt;Node82</title>
<path fill="none" stroke="midnightblue" d="M4059.42,-129.02C4043.55,-118.9 4024.52,-106.77 4010.09,-97.58"/>
<polygon fill="midnightblue" stroke="midnightblue" points="4057.55,-131.97 4067.87,-134.4 4061.32,-126.07 4057.55,-131.97"/>
</g>
</g>
</svg>
