<?xml version="1.0" encoding="UTF-8" standalone="no"?>
<!DOCTYPE svg PUBLIC "-//W3C//DTD SVG 1.1//EN"
 "http://www.w3.org/Graphics/SVG/1.1/DTD/svg11.dtd">
<!-- Generated by graphviz version 2.43.0 (0)
 -->
<!-- Title: sources/CPU/Instructions/BitsInstructions.cpp Pages: 1 -->
<svg width="959pt" height="375pt"
 viewBox="0.00 0.00 959.00 375.00" xmlns="http://www.w3.org/2000/svg" xmlns:xlink="http://www.w3.org/1999/xlink">
<g id="graph0" class="graph" transform="scale(1 1) rotate(0) translate(4 371)">
<title>sources/CPU/Instructions/BitsInstructions.cpp</title>
<polygon fill="white" stroke="transparent" points="-4,4 -4,-371 955,-371 955,4 -4,4"/>
<!-- Node1 -->
<g id="node1" class="node">
<title>Node1</title>
<g id="a_node1"><a xlink:title=" ">
<polygon fill="#bfbfbf" stroke="black" points="19.5,-336.5 19.5,-366.5 156.5,-366.5 156.5,-336.5 19.5,-336.5"/>
<text text-anchor="start" x="27.5" y="-354.5" font-family="Helvetica,sans-Serif" font-size="10.00">sources/CPU/Instructions</text>
<text text-anchor="middle" x="88" y="-343.5" font-family="Helvetica,sans-Serif" font-size="10.00">/BitsInstructions.cpp</text>
</a>
</g>
</g>
<!-- Node2 -->
<g id="node2" class="node">
<title>Node2</title>
<g id="a_node2"><a xlink:title=" ">
<polygon fill="white" stroke="#bfbfbf" points="0,-280.5 0,-299.5 60,-299.5 60,-280.5 0,-280.5"/>
<text text-anchor="middle" x="30" y="-287.5" font-family="Helvetica,sans-Serif" font-size="10.00">iostream</text>
</a>
</g>
</g>
<!-- Node1&#45;&gt;Node2 -->
<g id="edge1" class="edge">
<title>Node1&#45;&gt;Node2</title>
<path fill="none" stroke="midnightblue" d="M74.25,-336.4C65.65,-327.58 54.55,-316.18 45.61,-307.02"/>
<polygon fill="midnightblue" stroke="midnightblue" points="47.93,-304.38 38.44,-299.66 42.91,-309.26 47.93,-304.38"/>
</g>
<!-- Node3 -->
<g id="node3" class="node">
<title>Node3</title>
<g id="a_node3"><a xlink:href="Int24_8hpp.html" target="_top" xlink:title=" ">
<polygon fill="white" stroke="black" points="212.5,-0.5 212.5,-19.5 331.5,-19.5 331.5,-0.5 212.5,-0.5"/>
<text text-anchor="middle" x="272" y="-7.5" font-family="Helvetica,sans-Serif" font-size="10.00">../../Models/Int24.hpp</text>
</a>
</g>
</g>
<!-- Node1&#45;&gt;Node3 -->
<g id="edge2" class="edge">
<title>Node1&#45;&gt;Node3</title>
<path fill="none" stroke="midnightblue" d="M88,-336.28C88,-314.48 88,-271.49 88,-235 88,-235 88,-235 88,-121 88,-63.19 155.74,-35.04 209.02,-21.83"/>
<polygon fill="midnightblue" stroke="midnightblue" points="209.85,-25.23 218.78,-19.54 208.24,-18.42 209.85,-25.23"/>
</g>
<!-- Node4 -->
<g id="node4" class="node">
<title>Node4</title>
<g id="a_node4"><a xlink:href="CPU_8hpp.html" target="_top" xlink:title=" ">
<polygon fill="white" stroke="black" points="416.5,-280.5 416.5,-299.5 483.5,-299.5 483.5,-280.5 416.5,-280.5"/>
<text text-anchor="middle" x="450" y="-287.5" font-family="Helvetica,sans-Serif" font-size="10.00">../CPU.hpp</text>
</a>
</g>
</g>
<!-- Node1&#45;&gt;Node4 -->
<g id="edge3" class="edge">
<title>Node1&#45;&gt;Node4</title>
<path fill="none" stroke="midnightblue" d="M156.52,-339.24C229.76,-327.2 343.72,-308.47 405.88,-298.25"/>
<polygon fill="midnightblue" stroke="midnightblue" points="406.84,-301.64 416.14,-296.57 405.7,-294.73 406.84,-301.64"/>
</g>
<!-- Node4&#45;&gt;Node3 -->
<g id="edge23" class="edge">
<title>Node4&#45;&gt;Node3</title>
<path fill="none" stroke="midnightblue" d="M416.24,-284.85C333.26,-273.72 126,-239.81 126,-179 126,-179 126,-179 126,-121 126,-90.9 124.32,-77.87 145,-56 160.68,-39.42 182.85,-28.94 204.29,-22.32"/>
<polygon fill="midnightblue" stroke="midnightblue" points="205.4,-25.64 214.06,-19.54 203.49,-18.91 205.4,-25.64"/>
</g>
<!-- Node5 -->
<g id="node5" class="node">
<title>Node5</title>
<g id="a_node5"><a xlink:href="AMemory_8hpp.html" target="_top" xlink:title=" ">
<polygon fill="white" stroke="black" points="665,-112.5 665,-131.5 801,-131.5 801,-112.5 665,-112.5"/>
<text text-anchor="middle" x="733" y="-119.5" font-family="Helvetica,sans-Serif" font-size="10.00">../Memory/AMemory.hpp</text>
</a>
</g>
</g>
<!-- Node4&#45;&gt;Node5 -->
<g id="edge4" class="edge">
<title>Node4&#45;&gt;Node5</title>
<path fill="none" stroke="midnightblue" d="M465.19,-280.45C481.13,-271.46 506.89,-256.85 529,-244 594.97,-205.65 672.31,-159.43 710.01,-136.82"/>
<polygon fill="midnightblue" stroke="midnightblue" points="711.93,-139.74 718.71,-131.6 708.33,-133.74 711.93,-139.74"/>
</g>
<!-- Node12 -->
<g id="node12" class="node">
<title>Node12</title>
<g id="a_node12"><a xlink:href="MemoryBus_8hpp.html" target="_top" xlink:title=" ">
<polygon fill="white" stroke="black" points="728.5,-168.5 728.5,-187.5 877.5,-187.5 877.5,-168.5 728.5,-168.5"/>
<text text-anchor="middle" x="803" y="-175.5" font-family="Helvetica,sans-Serif" font-size="10.00">../Memory/MemoryBus.hpp</text>
</a>
</g>
</g>
<!-- Node4&#45;&gt;Node12 -->
<g id="edge18" class="edge">
<title>Node4&#45;&gt;Node12</title>
<path fill="none" stroke="midnightblue" d="M483.87,-284.78C527.68,-278.72 605.97,-265.8 670,-244 710.09,-230.35 753.67,-207.35 779.64,-192.68"/>
<polygon fill="midnightblue" stroke="midnightblue" points="781.43,-195.69 788.37,-187.69 777.95,-189.61 781.43,-195.69"/>
</g>
<!-- Node13 -->
<g id="node13" class="node">
<title>Node13</title>
<g id="a_node13"><a xlink:href="Cartridge_8hpp.html" target="_top" xlink:title=" ">
<polygon fill="white" stroke="black" points="380,-224.5 380,-243.5 520,-243.5 520,-224.5 380,-224.5"/>
<text text-anchor="middle" x="450" y="-231.5" font-family="Helvetica,sans-Serif" font-size="10.00">../Cartridge/Cartridge.hpp</text>
</a>
</g>
</g>
<!-- Node4&#45;&gt;Node13 -->
<g id="edge24" class="edge">
<title>Node4&#45;&gt;Node13</title>
<path fill="none" stroke="midnightblue" d="M450,-280.08C450,-273.01 450,-262.86 450,-253.99"/>
<polygon fill="midnightblue" stroke="midnightblue" points="453.5,-253.75 450,-243.75 446.5,-253.75 453.5,-253.75"/>
</g>
<!-- Node17 -->
<g id="node17" class="node">
<title>Node17</title>
<g id="a_node17"><a xlink:href="Instruction_8hpp.html" target="_top" xlink:title=" ">
<polygon fill="white" stroke="black" points="154.5,-56.5 154.5,-75.5 243.5,-75.5 243.5,-56.5 154.5,-56.5"/>
<text text-anchor="middle" x="199" y="-63.5" font-family="Helvetica,sans-Serif" font-size="10.00">Instruction.hpp</text>
</a>
</g>
</g>
<!-- Node4&#45;&gt;Node17 -->
<g id="edge34" class="edge">
<title>Node4&#45;&gt;Node17</title>
<path fill="none" stroke="midnightblue" d="M416.25,-285.58C362.72,-278.19 259.38,-255.5 210,-188 187.87,-157.75 191.16,-111.19 195.25,-85.54"/>
<polygon fill="midnightblue" stroke="midnightblue" points="198.7,-86.11 197.03,-75.65 191.81,-84.87 198.7,-86.11"/>
</g>
<!-- Node18 -->
<g id="node18" class="node">
<title>Node18</title>
<g id="a_node18"><a xlink:href="DMA_8hpp.html" target="_top" xlink:title=" ">
<polygon fill="white" stroke="black" points="759.5,-224.5 759.5,-243.5 846.5,-243.5 846.5,-224.5 759.5,-224.5"/>
<text text-anchor="middle" x="803" y="-231.5" font-family="Helvetica,sans-Serif" font-size="10.00">DMA/DMA.hpp</text>
</a>
</g>
</g>
<!-- Node4&#45;&gt;Node18 -->
<g id="edge37" class="edge">
<title>Node4&#45;&gt;Node18</title>
<path fill="none" stroke="midnightblue" d="M483.53,-283.87C544.84,-274.49 675.49,-254.51 749.31,-243.21"/>
<polygon fill="midnightblue" stroke="midnightblue" points="749.98,-246.65 759.34,-241.68 748.93,-239.73 749.98,-246.65"/>
</g>
<!-- Node5&#45;&gt;Node3 -->
<g id="edge9" class="edge">
<title>Node5&#45;&gt;Node3</title>
<path fill="none" stroke="midnightblue" d="M686.89,-112.43C642.25,-103.92 572.75,-90.15 513,-76 441.5,-59.06 358.99,-36.05 311.42,-22.43"/>
<polygon fill="midnightblue" stroke="midnightblue" points="312.11,-18.99 301.53,-19.6 310.18,-25.72 312.11,-18.99"/>
</g>
<!-- Node6 -->
<g id="node6" class="node">
<title>Node6</title>
<g id="a_node6"><a xlink:title=" ">
<polygon fill="white" stroke="#bfbfbf" points="804,-0.5 804,-19.5 854,-19.5 854,-0.5 804,-0.5"/>
<text text-anchor="middle" x="829" y="-7.5" font-family="Helvetica,sans-Serif" font-size="10.00">cstdint</text>
</a>
</g>
</g>
<!-- Node5&#45;&gt;Node6 -->
<g id="edge5" class="edge">
<title>Node5&#45;&gt;Node6</title>
<path fill="none" stroke="midnightblue" d="M737.78,-112.49C745.24,-99.57 760.53,-74.54 777,-56 786.79,-44.98 799.23,-34.13 809.48,-25.84"/>
<polygon fill="midnightblue" stroke="midnightblue" points="811.79,-28.47 817.48,-19.53 807.46,-22.98 811.79,-28.47"/>
</g>
<!-- Node7 -->
<g id="node7" class="node">
<title>Node7</title>
<g id="a_node7"><a xlink:title=" ">
<polygon fill="white" stroke="#bfbfbf" points="700.5,-0.5 700.5,-19.5 747.5,-19.5 747.5,-0.5 700.5,-0.5"/>
<text text-anchor="middle" x="724" y="-7.5" font-family="Helvetica,sans-Serif" font-size="10.00">vector</text>
</a>
</g>
</g>
<!-- Node5&#45;&gt;Node7 -->
<g id="edge6" class="edge">
<title>Node5&#45;&gt;Node7</title>
<path fill="none" stroke="midnightblue" d="M732.29,-112.37C730.84,-94.62 727.49,-53.67 725.52,-29.6"/>
<polygon fill="midnightblue" stroke="midnightblue" points="729.01,-29.27 724.7,-19.59 722.03,-29.84 729.01,-29.27"/>
</g>
<!-- Node8 -->
<g id="node8" class="node">
<title>Node8</title>
<g id="a_node8"><a xlink:title=" ">
<polygon fill="white" stroke="#bfbfbf" points="893,-0.5 893,-19.5 951,-19.5 951,-0.5 893,-0.5"/>
<text text-anchor="middle" x="922" y="-7.5" font-family="Helvetica,sans-Serif" font-size="10.00">memory</text>
</a>
</g>
</g>
<!-- Node5&#45;&gt;Node8 -->
<g id="edge7" class="edge">
<title>Node5&#45;&gt;Node8</title>
<path fill="none" stroke="midnightblue" d="M747.83,-112.37C780.54,-93.33 859.09,-47.62 898.55,-24.65"/>
<polygon fill="midnightblue" stroke="midnightblue" points="900.36,-27.65 907.24,-19.59 896.84,-21.6 900.36,-27.65"/>
</g>
<!-- Node9 -->
<g id="node9" class="node">
<title>Node9</title>
<g id="a_node9"><a xlink:title=" ">
<polygon fill="white" stroke="#bfbfbf" points="412,-0.5 412,-19.5 456,-19.5 456,-0.5 412,-0.5"/>
<text text-anchor="middle" x="434" y="-7.5" font-family="Helvetica,sans-Serif" font-size="10.00">string</text>
</a>
</g>
</g>
<!-- Node5&#45;&gt;Node9 -->
<g id="edge8" class="edge">
<title>Node5&#45;&gt;Node9</title>
<path fill="none" stroke="midnightblue" d="M689.51,-112.49C654.02,-104.89 602.9,-92.41 560,-76 522.49,-61.65 481.61,-39.19 456.9,-24.79"/>
<polygon fill="midnightblue" stroke="midnightblue" points="458.65,-21.75 448.26,-19.69 455.09,-27.79 458.65,-21.75"/>
</g>
<!-- Node10 -->
<g id="node10" class="node">
<title>Node10</title>
<g id="a_node10"><a xlink:href="Components_8hpp.html" target="_top" xlink:title=" ">
<polygon fill="white" stroke="black" points="536,-0.5 536,-19.5 682,-19.5 682,-0.5 536,-0.5"/>
<text text-anchor="middle" x="609" y="-7.5" font-family="Helvetica,sans-Serif" font-size="10.00">../Models/Components.hpp</text>
</a>
</g>
</g>
<!-- Node5&#45;&gt;Node10 -->
<g id="edge10" class="edge">
<title>Node5&#45;&gt;Node10</title>
<path fill="none" stroke="midnightblue" d="M723.27,-112.37C702.35,-93.81 652.87,-49.91 626.4,-26.44"/>
<polygon fill="midnightblue" stroke="midnightblue" points="628.49,-23.61 618.68,-19.59 623.84,-28.85 628.49,-23.61"/>
</g>
<!-- Node11 -->
<g id="node11" class="node">
<title>Node11</title>
<g id="a_node11"><a xlink:href="IMemory_8hpp.html" target="_top" xlink:title=" ">
<polygon fill="white" stroke="black" points="569,-56.5 569,-75.5 649,-75.5 649,-56.5 569,-56.5"/>
<text text-anchor="middle" x="609" y="-63.5" font-family="Helvetica,sans-Serif" font-size="10.00">IMemory.hpp</text>
</a>
</g>
</g>
<!-- Node5&#45;&gt;Node11 -->
<g id="edge11" class="edge">
<title>Node5&#45;&gt;Node11</title>
<path fill="none" stroke="midnightblue" d="M713.35,-112.44C693.04,-103.6 661.1,-89.69 637.9,-79.59"/>
<polygon fill="midnightblue" stroke="midnightblue" points="639.12,-76.3 628.56,-75.52 636.33,-82.72 639.12,-76.3"/>
</g>
<!-- Node11&#45;&gt;Node3 -->
<g id="edge16" class="edge">
<title>Node11&#45;&gt;Node3</title>
<path fill="none" stroke="midnightblue" d="M568.68,-58.54C510.85,-49.27 403.8,-32.12 335.33,-21.15"/>
<polygon fill="midnightblue" stroke="midnightblue" points="335.53,-17.64 325.11,-19.51 334.43,-24.55 335.53,-17.64"/>
</g>
<!-- Node11&#45;&gt;Node6 -->
<g id="edge12" class="edge">
<title>Node11&#45;&gt;Node6</title>
<path fill="none" stroke="midnightblue" d="M643.86,-56.44C684.96,-46.35 752.88,-29.68 794.03,-19.58"/>
<polygon fill="midnightblue" stroke="midnightblue" points="795.01,-22.95 803.88,-17.16 793.34,-16.15 795.01,-22.95"/>
</g>
<!-- Node11&#45;&gt;Node7 -->
<g id="edge13" class="edge">
<title>Node11&#45;&gt;Node7</title>
<path fill="none" stroke="midnightblue" d="M627.22,-56.44C645.9,-47.68 675.16,-33.94 696.62,-23.86"/>
<polygon fill="midnightblue" stroke="midnightblue" points="698.3,-26.93 705.86,-19.52 695.32,-20.6 698.3,-26.93"/>
</g>
<!-- Node11&#45;&gt;Node8 -->
<g id="edge14" class="edge">
<title>Node11&#45;&gt;Node8</title>
<path fill="none" stroke="midnightblue" d="M649.28,-58.05C709.56,-47.65 822.53,-28.16 882.41,-17.83"/>
<polygon fill="midnightblue" stroke="midnightblue" points="883.34,-21.22 892.6,-16.07 882.15,-14.32 883.34,-21.22"/>
</g>
<!-- Node11&#45;&gt;Node9 -->
<g id="edge15" class="edge">
<title>Node11&#45;&gt;Node9</title>
<path fill="none" stroke="midnightblue" d="M581.27,-56.44C549.83,-46.74 498.66,-30.95 465.67,-20.77"/>
<polygon fill="midnightblue" stroke="midnightblue" points="466.65,-17.41 456.06,-17.81 464.58,-24.1 466.65,-17.41"/>
</g>
<!-- Node11&#45;&gt;Node10 -->
<g id="edge17" class="edge">
<title>Node11&#45;&gt;Node10</title>
<path fill="none" stroke="midnightblue" d="M609,-56.08C609,-49.01 609,-38.86 609,-29.99"/>
<polygon fill="midnightblue" stroke="midnightblue" points="612.5,-29.75 609,-19.75 605.5,-29.75 612.5,-29.75"/>
</g>
<!-- Node12&#45;&gt;Node5 -->
<g id="edge22" class="edge">
<title>Node12&#45;&gt;Node5</title>
<path fill="none" stroke="midnightblue" d="M791.75,-168.32C781.2,-160.18 765.2,-147.84 752.56,-138.09"/>
<polygon fill="midnightblue" stroke="midnightblue" points="754.51,-135.17 744.45,-131.83 750.23,-140.71 754.51,-135.17"/>
</g>
<!-- Node12&#45;&gt;Node6 -->
<g id="edge19" class="edge">
<title>Node12&#45;&gt;Node6</title>
<path fill="none" stroke="midnightblue" d="M814.27,-168.43C823.97,-160.27 837.28,-147.05 843,-132 856.16,-97.37 844.76,-53.48 836.24,-29.21"/>
<polygon fill="midnightblue" stroke="midnightblue" points="839.41,-27.69 832.63,-19.55 832.85,-30.14 839.41,-27.69"/>
</g>
<!-- Node12&#45;&gt;Node7 -->
<g id="edge20" class="edge">
<title>Node12&#45;&gt;Node7</title>
<path fill="none" stroke="midnightblue" d="M806.35,-168.28C810.73,-155.52 817.06,-131.17 810,-112 796.79,-76.1 764.51,-44.26 743.47,-26.33"/>
<polygon fill="midnightblue" stroke="midnightblue" points="745.44,-23.41 735.5,-19.74 740.98,-28.81 745.44,-23.41"/>
</g>
<!-- Node12&#45;&gt;Node8 -->
<g id="edge21" class="edge">
<title>Node12&#45;&gt;Node8</title>
<path fill="none" stroke="midnightblue" d="M816.78,-168.33C829.03,-160.12 846.82,-146.85 859,-132 885.56,-99.62 905.49,-54.24 915.27,-29.27"/>
<polygon fill="midnightblue" stroke="midnightblue" points="918.65,-30.22 918.94,-19.63 912.11,-27.73 918.65,-30.22"/>
</g>
<!-- Node13&#45;&gt;Node3 -->
<g id="edge27" class="edge">
<title>Node13&#45;&gt;Node3</title>
<path fill="none" stroke="midnightblue" d="M379.93,-228.79C320.18,-223.56 240.88,-212.17 221,-188 204.55,-168 216.32,-186.72 252,-76 257.04,-60.37 262.5,-42.54 266.45,-29.52"/>
<polygon fill="midnightblue" stroke="midnightblue" points="269.82,-30.44 269.36,-19.85 263.12,-28.42 269.82,-30.44"/>
</g>
<!-- Node13&#45;&gt;Node5 -->
<g id="edge26" class="edge">
<title>Node13&#45;&gt;Node5</title>
<path fill="none" stroke="midnightblue" d="M472.21,-224.37C522.22,-204.93 643.79,-157.67 701.54,-135.23"/>
<polygon fill="midnightblue" stroke="midnightblue" points="702.84,-138.48 710.9,-131.59 700.31,-131.95 702.84,-138.48"/>
</g>
<!-- Node13&#45;&gt;Node9 -->
<g id="edge25" class="edge">
<title>Node13&#45;&gt;Node9</title>
<path fill="none" stroke="midnightblue" d="M445.12,-224.37C440.44,-215.55 433.69,-201.3 431,-188 419.54,-131.39 426.52,-62.52 431.04,-29.88"/>
<polygon fill="midnightblue" stroke="midnightblue" points="434.57,-30 432.56,-19.59 427.64,-28.98 434.57,-30"/>
</g>
<!-- Node14 -->
<g id="node14" class="node">
<title>Node14</title>
<g id="a_node14"><a xlink:href="ARectangleMemory_8hpp.html" target="_top" xlink:title=" ">
<polygon fill="white" stroke="black" points="461.5,-112.5 461.5,-131.5 646.5,-131.5 646.5,-112.5 461.5,-112.5"/>
<text text-anchor="middle" x="554" y="-119.5" font-family="Helvetica,sans-Serif" font-size="10.00">../Memory/ARectangleMemory.hpp</text>
</a>
</g>
</g>
<!-- Node13&#45;&gt;Node14 -->
<g id="edge28" class="edge">
<title>Node13&#45;&gt;Node14</title>
<path fill="none" stroke="midnightblue" d="M487.61,-224.47C507.8,-217.91 531.29,-206.69 545,-188 554.69,-174.8 556.33,-155.93 555.91,-141.92"/>
<polygon fill="midnightblue" stroke="midnightblue" points="559.38,-141.26 555.21,-131.52 552.39,-141.74 559.38,-141.26"/>
</g>
<!-- Node15 -->
<g id="node15" class="node">
<title>Node15</title>
<g id="a_node15"><a xlink:href="InterruptVectors_8hpp.html" target="_top" xlink:title=" ">
<polygon fill="white" stroke="black" points="230,-168.5 230,-187.5 346,-187.5 346,-168.5 230,-168.5"/>
<text text-anchor="middle" x="288" y="-175.5" font-family="Helvetica,sans-Serif" font-size="10.00">InterruptVectors.hpp</text>
</a>
</g>
</g>
<!-- Node13&#45;&gt;Node15 -->
<g id="edge30" class="edge">
<title>Node13&#45;&gt;Node15</title>
<path fill="none" stroke="midnightblue" d="M424.33,-224.44C397.08,-215.36 353.82,-200.94 323.35,-190.78"/>
<polygon fill="midnightblue" stroke="midnightblue" points="324.14,-187.36 313.55,-187.52 321.93,-194 324.14,-187.36"/>
</g>
<!-- Node16 -->
<g id="node16" class="node">
<title>Node16</title>
<g id="a_node16"><a xlink:href="Ram_8hpp.html" target="_top" xlink:title=" ">
<polygon fill="white" stroke="black" points="440.5,-168.5 440.5,-187.5 535.5,-187.5 535.5,-168.5 440.5,-168.5"/>
<text text-anchor="middle" x="488" y="-175.5" font-family="Helvetica,sans-Serif" font-size="10.00">../Ram/Ram.hpp</text>
</a>
</g>
</g>
<!-- Node13&#45;&gt;Node16 -->
<g id="edge31" class="edge">
<title>Node13&#45;&gt;Node16</title>
<path fill="none" stroke="midnightblue" d="M456.27,-224.08C461.64,-216.46 469.52,-205.26 476.08,-195.94"/>
<polygon fill="midnightblue" stroke="midnightblue" points="478.95,-197.94 481.84,-187.75 473.22,-193.91 478.95,-197.94"/>
</g>
<!-- Node14&#45;&gt;Node11 -->
<g id="edge29" class="edge">
<title>Node14&#45;&gt;Node11</title>
<path fill="none" stroke="midnightblue" d="M563.08,-112.08C571.17,-104.14 583.2,-92.34 592.91,-82.8"/>
<polygon fill="midnightblue" stroke="midnightblue" points="595.4,-85.25 600.09,-75.75 590.5,-80.26 595.4,-85.25"/>
</g>
<!-- Node16&#45;&gt;Node9 -->
<g id="edge33" class="edge">
<title>Node16&#45;&gt;Node9</title>
<path fill="none" stroke="midnightblue" d="M478.96,-168.25C470.79,-159.78 459.13,-146.17 453,-132 438.27,-97.97 434.79,-54.15 434.07,-29.68"/>
<polygon fill="midnightblue" stroke="midnightblue" points="437.57,-29.56 433.9,-19.62 430.57,-29.68 437.57,-29.56"/>
</g>
<!-- Node16&#45;&gt;Node14 -->
<g id="edge32" class="edge">
<title>Node16&#45;&gt;Node14</title>
<path fill="none" stroke="midnightblue" d="M498.6,-168.32C508.46,-160.26 523.35,-148.08 535.22,-138.37"/>
<polygon fill="midnightblue" stroke="midnightblue" points="537.68,-140.88 543.2,-131.83 533.25,-135.46 537.68,-140.88"/>
</g>
<!-- Node17&#45;&gt;Node3 -->
<g id="edge36" class="edge">
<title>Node17&#45;&gt;Node3</title>
<path fill="none" stroke="midnightblue" d="M210.73,-56.32C221.84,-48.11 238.74,-35.6 251.98,-25.81"/>
<polygon fill="midnightblue" stroke="midnightblue" points="254.1,-28.59 260.06,-19.83 249.94,-22.97 254.1,-28.59"/>
</g>
<!-- Node17&#45;&gt;Node9 -->
<g id="edge35" class="edge">
<title>Node17&#45;&gt;Node9</title>
<path fill="none" stroke="midnightblue" d="M236.24,-56.44C281.91,-45.95 358.58,-28.33 401.81,-18.4"/>
<polygon fill="midnightblue" stroke="midnightblue" points="402.83,-21.75 411.79,-16.1 401.26,-14.93 402.83,-21.75"/>
</g>
<!-- Node18&#45;&gt;Node3 -->
<g id="edge40" class="edge">
<title>Node18&#45;&gt;Node3</title>
<path fill="none" stroke="midnightblue" d="M759.29,-231.54C673.66,-228.06 487.27,-217.27 431,-188 358.65,-150.36 303.32,-65.5 281.8,-28.64"/>
<polygon fill="midnightblue" stroke="midnightblue" points="284.63,-26.55 276.63,-19.6 278.55,-30.02 284.63,-26.55"/>
</g>
<!-- Node18&#45;&gt;Node6 -->
<g id="edge38" class="edge">
<title>Node18&#45;&gt;Node6</title>
<path fill="none" stroke="midnightblue" d="M835.99,-224.44C854.46,-217.77 875.95,-206.45 887,-188 919.19,-134.24 869.41,-60.45 843.32,-27.76"/>
<polygon fill="midnightblue" stroke="midnightblue" points="845.73,-25.18 836.67,-19.68 840.32,-29.62 845.73,-25.18"/>
</g>
<!-- Node18&#45;&gt;Node8 -->
<g id="edge39" class="edge">
<title>Node18&#45;&gt;Node8</title>
<path fill="none" stroke="midnightblue" d="M846.74,-224.5C867.75,-218.08 891.29,-206.99 905,-188 939.59,-140.11 931.97,-64.91 925.91,-29.99"/>
<polygon fill="midnightblue" stroke="midnightblue" points="929.28,-28.97 923.98,-19.79 922.4,-30.27 929.28,-28.97"/>
</g>
<!-- Node18&#45;&gt;Node12 -->
<g id="edge41" class="edge">
<title>Node18&#45;&gt;Node12</title>
<path fill="none" stroke="midnightblue" d="M803,-224.08C803,-217.01 803,-206.86 803,-197.99"/>
<polygon fill="midnightblue" stroke="midnightblue" points="806.5,-197.75 803,-187.75 799.5,-197.75 806.5,-197.75"/>
</g>
</g>
</svg>
