<?xml version="1.0" encoding="UTF-8" standalone="no"?>
<!DOCTYPE svg PUBLIC "-//W3C//DTD SVG 1.1//EN"
 "http://www.w3.org/Graphics/SVG/1.1/DTD/svg11.dtd">
<!-- Generated by graphviz version 2.43.0 (0)
 -->
<!-- Title: sources/APU/DSP/BRR.cpp Pages: 1 -->
<svg width="554pt" height="252pt"
 viewBox="0.00 0.00 554.00 252.00" xmlns="http://www.w3.org/2000/svg" xmlns:xlink="http://www.w3.org/1999/xlink">
<g id="graph0" class="graph" transform="scale(1 1) rotate(0) translate(4 248)">
<title>sources/APU/DSP/BRR.cpp</title>
<polygon fill="white" stroke="transparent" points="-4,4 -4,-248 550,-248 550,4 -4,4"/>
<!-- Node1 -->
<g id="node1" class="node">
<title>Node1</title>
<g id="a_node1"><a xlink:title=" ">
<polygon fill="#bfbfbf" stroke="black" points="62.5,-224.5 62.5,-243.5 205.5,-243.5 205.5,-224.5 62.5,-224.5"/>
<text text-anchor="middle" x="134" y="-231.5" font-family="Helvetica,sans-Serif" font-size="10.00">sources/APU/DSP/BRR.cpp</text>
</a>
</g>
</g>
<!-- Node2 -->
<g id="node2" class="node">
<title>Node2</title>
<g id="a_node2"><a xlink:title=" ">
<polygon fill="white" stroke="#bfbfbf" points="63,-168.5 63,-187.5 127,-187.5 127,-168.5 63,-168.5"/>
<text text-anchor="middle" x="95" y="-175.5" font-family="Helvetica,sans-Serif" font-size="10.00">algorithm</text>
</a>
</g>
</g>
<!-- Node1&#45;&gt;Node2 -->
<g id="edge1" class="edge">
<title>Node1&#45;&gt;Node2</title>
<path fill="none" stroke="midnightblue" d="M127.56,-224.08C122.05,-216.46 113.97,-205.26 107.24,-195.94"/>
<polygon fill="midnightblue" stroke="midnightblue" points="110.01,-193.81 101.32,-187.75 104.34,-197.91 110.01,-193.81"/>
</g>
<!-- Node3 -->
<g id="node3" class="node">
<title>Node3</title>
<g id="a_node3"><a xlink:href="DSP_8hpp.html" target="_top" xlink:title=" ">
<polygon fill="white" stroke="black" points="145,-168.5 145,-187.5 201,-187.5 201,-168.5 145,-168.5"/>
<text text-anchor="middle" x="173" y="-175.5" font-family="Helvetica,sans-Serif" font-size="10.00">DSP.hpp</text>
</a>
</g>
</g>
<!-- Node1&#45;&gt;Node3 -->
<g id="edge2" class="edge">
<title>Node1&#45;&gt;Node3</title>
<path fill="none" stroke="midnightblue" d="M140.44,-224.08C145.95,-216.46 154.03,-205.26 160.76,-195.94"/>
<polygon fill="midnightblue" stroke="midnightblue" points="163.66,-197.91 166.68,-187.75 157.99,-193.81 163.66,-197.91"/>
</g>
<!-- Node4 -->
<g id="node4" class="node">
<title>Node4</title>
<g id="a_node4"><a xlink:title=" ">
<polygon fill="white" stroke="#bfbfbf" points="0,-0.5 0,-19.5 50,-19.5 50,-0.5 0,-0.5"/>
<text text-anchor="middle" x="25" y="-7.5" font-family="Helvetica,sans-Serif" font-size="10.00">cstdint</text>
</a>
</g>
</g>
<!-- Node3&#45;&gt;Node4 -->
<g id="edge3" class="edge">
<title>Node3&#45;&gt;Node4</title>
<path fill="none" stroke="midnightblue" d="M149.5,-168.36C131.73,-160.89 107.63,-148.67 91,-132 60.84,-101.76 40.65,-54.86 31.19,-29.24"/>
<polygon fill="midnightblue" stroke="midnightblue" points="34.44,-27.93 27.8,-19.67 27.84,-30.27 34.44,-27.93"/>
</g>
<!-- Node5 -->
<g id="node5" class="node">
<title>Node5</title>
<g id="a_node5"><a xlink:title=" ">
<polygon fill="white" stroke="#bfbfbf" points="264,-112.5 264,-131.5 306,-131.5 306,-112.5 264,-112.5"/>
<text text-anchor="middle" x="285" y="-119.5" font-family="Helvetica,sans-Serif" font-size="10.00">array</text>
</a>
</g>
</g>
<!-- Node3&#45;&gt;Node5 -->
<g id="edge4" class="edge">
<title>Node3&#45;&gt;Node5</title>
<path fill="none" stroke="midnightblue" d="M190.99,-168.32C209.04,-159.62 237.05,-146.12 257.8,-136.11"/>
<polygon fill="midnightblue" stroke="midnightblue" points="259.56,-139.15 267.05,-131.65 256.52,-132.84 259.56,-139.15"/>
</g>
<!-- Node6 -->
<g id="node6" class="node">
<title>Node6</title>
<g id="a_node6"><a xlink:href="AMemory_8hpp.html" target="_top" xlink:title=" ">
<polygon fill="white" stroke="black" points="100.5,-112.5 100.5,-131.5 245.5,-131.5 245.5,-112.5 100.5,-112.5"/>
<text text-anchor="middle" x="173" y="-119.5" font-family="Helvetica,sans-Serif" font-size="10.00">../../Memory/AMemory.hpp</text>
</a>
</g>
</g>
<!-- Node3&#45;&gt;Node6 -->
<g id="edge5" class="edge">
<title>Node3&#45;&gt;Node6</title>
<path fill="none" stroke="midnightblue" d="M173,-168.08C173,-161.01 173,-150.86 173,-141.99"/>
<polygon fill="midnightblue" stroke="midnightblue" points="176.5,-141.75 173,-131.75 169.5,-141.75 176.5,-141.75"/>
</g>
<!-- Node6&#45;&gt;Node4 -->
<g id="edge6" class="edge">
<title>Node6&#45;&gt;Node4</title>
<path fill="none" stroke="midnightblue" d="M161.39,-112.37C136.21,-93.65 76.33,-49.15 44.96,-25.83"/>
<polygon fill="midnightblue" stroke="midnightblue" points="46.67,-22.75 36.56,-19.59 42.5,-28.37 46.67,-22.75"/>
</g>
<!-- Node7 -->
<g id="node7" class="node">
<title>Node7</title>
<g id="a_node7"><a xlink:title=" ">
<polygon fill="white" stroke="#bfbfbf" points="68.5,-0.5 68.5,-19.5 115.5,-19.5 115.5,-0.5 68.5,-0.5"/>
<text text-anchor="middle" x="92" y="-7.5" font-family="Helvetica,sans-Serif" font-size="10.00">vector</text>
</a>
</g>
</g>
<!-- Node6&#45;&gt;Node7 -->
<g id="edge7" class="edge">
<title>Node6&#45;&gt;Node7</title>
<path fill="none" stroke="midnightblue" d="M166.64,-112.37C153.22,-94.14 121.77,-51.43 104.28,-27.68"/>
<polygon fill="midnightblue" stroke="midnightblue" points="107.07,-25.57 98.33,-19.59 101.44,-29.72 107.07,-25.57"/>
</g>
<!-- Node8 -->
<g id="node8" class="node">
<title>Node8</title>
<g id="a_node8"><a xlink:title=" ">
<polygon fill="white" stroke="#bfbfbf" points="134,-0.5 134,-19.5 192,-19.5 192,-0.5 134,-0.5"/>
<text text-anchor="middle" x="163" y="-7.5" font-family="Helvetica,sans-Serif" font-size="10.00">memory</text>
</a>
</g>
</g>
<!-- Node6&#45;&gt;Node8 -->
<g id="edge8" class="edge">
<title>Node6&#45;&gt;Node8</title>
<path fill="none" stroke="midnightblue" d="M169.14,-112.25C165.44,-103.33 160.11,-89.01 158,-76 155.5,-60.62 157.14,-42.98 159.18,-29.97"/>
<polygon fill="midnightblue" stroke="midnightblue" points="162.67,-30.35 160.99,-19.89 155.78,-29.11 162.67,-30.35"/>
</g>
<!-- Node9 -->
<g id="node9" class="node">
<title>Node9</title>
<g id="a_node9"><a xlink:title=" ">
<polygon fill="white" stroke="#bfbfbf" points="210,-0.5 210,-19.5 254,-19.5 254,-0.5 210,-0.5"/>
<text text-anchor="middle" x="232" y="-7.5" font-family="Helvetica,sans-Serif" font-size="10.00">string</text>
</a>
</g>
</g>
<!-- Node6&#45;&gt;Node9 -->
<g id="edge9" class="edge">
<title>Node6&#45;&gt;Node9</title>
<path fill="none" stroke="midnightblue" d="M205.18,-112.49C223.54,-105.8 245.02,-94.45 256,-76 265.09,-60.74 255.71,-41.46 246.14,-27.87"/>
<polygon fill="midnightblue" stroke="midnightblue" points="248.87,-25.68 240.02,-19.87 243.31,-29.94 248.87,-25.68"/>
</g>
<!-- Node10 -->
<g id="node10" class="node">
<title>Node10</title>
<g id="a_node10"><a xlink:href="Int24_8hpp.html" target="_top" xlink:title=" ">
<polygon fill="white" stroke="black" points="272,-0.5 272,-19.5 382,-19.5 382,-0.5 272,-0.5"/>
<text text-anchor="middle" x="327" y="-7.5" font-family="Helvetica,sans-Serif" font-size="10.00">../Models/Int24.hpp</text>
</a>
</g>
</g>
<!-- Node6&#45;&gt;Node10 -->
<g id="edge10" class="edge">
<title>Node6&#45;&gt;Node10</title>
<path fill="none" stroke="midnightblue" d="M199.95,-112.43C220.91,-104.93 250.02,-92.63 272,-76 289.8,-62.54 305.73,-42.36 315.8,-28.06"/>
<polygon fill="midnightblue" stroke="midnightblue" points="318.8,-29.87 321.54,-19.64 313.02,-25.93 318.8,-29.87"/>
</g>
<!-- Node11 -->
<g id="node11" class="node">
<title>Node11</title>
<g id="a_node11"><a xlink:href="Components_8hpp.html" target="_top" xlink:title=" ">
<polygon fill="white" stroke="black" points="400,-0.5 400,-19.5 546,-19.5 546,-0.5 400,-0.5"/>
<text text-anchor="middle" x="473" y="-7.5" font-family="Helvetica,sans-Serif" font-size="10.00">../Models/Components.hpp</text>
</a>
</g>
</g>
<!-- Node6&#45;&gt;Node11 -->
<g id="edge11" class="edge">
<title>Node6&#45;&gt;Node11</title>
<path fill="none" stroke="midnightblue" d="M196.79,-112.41C221.76,-103.39 262.16,-88.75 297,-76 346.97,-57.71 404.84,-36.29 440.18,-23.19"/>
<polygon fill="midnightblue" stroke="midnightblue" points="441.79,-26.32 449.95,-19.56 439.36,-19.76 441.79,-26.32"/>
</g>
<!-- Node12 -->
<g id="node12" class="node">
<title>Node12</title>
<g id="a_node12"><a xlink:href="IMemory_8hpp.html" target="_top" xlink:title=" ">
<polygon fill="white" stroke="black" points="167,-56.5 167,-75.5 247,-75.5 247,-56.5 167,-56.5"/>
<text text-anchor="middle" x="207" y="-63.5" font-family="Helvetica,sans-Serif" font-size="10.00">IMemory.hpp</text>
</a>
</g>
</g>
<!-- Node6&#45;&gt;Node12 -->
<g id="edge12" class="edge">
<title>Node6&#45;&gt;Node12</title>
<path fill="none" stroke="midnightblue" d="M178.61,-112.08C183.37,-104.53 190.32,-93.49 196.15,-84.23"/>
<polygon fill="midnightblue" stroke="midnightblue" points="199.12,-86.08 201.49,-75.75 193.2,-82.35 199.12,-86.08"/>
</g>
<!-- Node12&#45;&gt;Node4 -->
<g id="edge13" class="edge">
<title>Node12&#45;&gt;Node4</title>
<path fill="none" stroke="midnightblue" d="M178.16,-56.44C146.05,-46.92 94.16,-31.52 59.81,-21.33"/>
<polygon fill="midnightblue" stroke="midnightblue" points="60.77,-17.96 50.19,-18.47 58.78,-24.67 60.77,-17.96"/>
</g>
<!-- Node12&#45;&gt;Node7 -->
<g id="edge14" class="edge">
<title>Node12&#45;&gt;Node7</title>
<path fill="none" stroke="midnightblue" d="M188.78,-56.44C170.1,-47.68 140.84,-33.94 119.38,-23.86"/>
<polygon fill="midnightblue" stroke="midnightblue" points="120.68,-20.6 110.14,-19.52 117.7,-26.93 120.68,-20.6"/>
</g>
<!-- Node12&#45;&gt;Node8 -->
<g id="edge15" class="edge">
<title>Node12&#45;&gt;Node8</title>
<path fill="none" stroke="midnightblue" d="M199.73,-56.08C193.46,-48.38 184.21,-37.03 176.57,-27.65"/>
<polygon fill="midnightblue" stroke="midnightblue" points="179.16,-25.29 170.13,-19.75 173.73,-29.71 179.16,-25.29"/>
</g>
<!-- Node12&#45;&gt;Node9 -->
<g id="edge16" class="edge">
<title>Node12&#45;&gt;Node9</title>
<path fill="none" stroke="midnightblue" d="M211.13,-56.08C214.51,-48.77 219.42,-38.18 223.62,-29.1"/>
<polygon fill="midnightblue" stroke="midnightblue" points="226.92,-30.3 227.95,-19.75 220.57,-27.36 226.92,-30.3"/>
</g>
<!-- Node12&#45;&gt;Node10 -->
<g id="edge17" class="edge">
<title>Node12&#45;&gt;Node10</title>
<path fill="none" stroke="midnightblue" d="M226.01,-56.44C245.59,-47.64 276.31,-33.81 298.73,-23.72"/>
<polygon fill="midnightblue" stroke="midnightblue" points="300.39,-26.81 308.07,-19.52 297.52,-20.43 300.39,-26.81"/>
</g>
<!-- Node12&#45;&gt;Node11 -->
<g id="edge18" class="edge">
<title>Node12&#45;&gt;Node11</title>
<path fill="none" stroke="midnightblue" d="M247.11,-56.86C293.51,-47.44 370.03,-31.9 420.97,-21.56"/>
<polygon fill="midnightblue" stroke="midnightblue" points="421.7,-24.99 430.8,-19.57 420.31,-18.13 421.7,-24.99"/>
</g>
</g>
</svg>
