<?xml version="1.0" encoding="UTF-8" standalone="no"?>
<!DOCTYPE svg PUBLIC "-//W3C//DTD SVG 1.1//EN"
 "http://www.w3.org/Graphics/SVG/1.1/DTD/svg11.dtd">
<!-- Generated by graphviz version 2.43.0 (0)
 -->
<!-- Title: sources/Cartridge/Cartridge.cpp Pages: 1 -->
<svg width="963pt" height="308pt"
 viewBox="0.00 0.00 963.41 308.00" xmlns="http://www.w3.org/2000/svg" xmlns:xlink="http://www.w3.org/1999/xlink">
<g id="graph0" class="graph" transform="scale(1 1) rotate(0) translate(4 304)">
<title>sources/Cartridge/Cartridge.cpp</title>
<polygon fill="white" stroke="transparent" points="-4,4 -4,-304 959.41,-304 959.41,4 -4,4"/>
<!-- Node1 -->
<g id="node1" class="node">
<title>Node1</title>
<g id="a_node1"><a xlink:title=" ">
<polygon fill="#bfbfbf" stroke="black" points="337,-280.5 337,-299.5 507,-299.5 507,-280.5 337,-280.5"/>
<text text-anchor="middle" x="422" y="-287.5" font-family="Helvetica,sans-Serif" font-size="10.00">sources/Cartridge/Cartridge.cpp</text>
</a>
</g>
</g>
<!-- Node2 -->
<g id="node2" class="node">
<title>Node2</title>
<g id="a_node2"><a xlink:title=" ">
<polygon fill="white" stroke="#bfbfbf" points="161,-224.5 161,-243.5 225,-243.5 225,-224.5 161,-224.5"/>
<text text-anchor="middle" x="193" y="-231.5" font-family="Helvetica,sans-Serif" font-size="10.00">sys/stat.h</text>
</a>
</g>
</g>
<!-- Node1&#45;&gt;Node2 -->
<g id="edge1" class="edge">
<title>Node1&#45;&gt;Node2</title>
<path fill="none" stroke="midnightblue" d="M385.71,-280.44C344.73,-270.78 278.14,-255.08 234.96,-244.89"/>
<polygon fill="midnightblue" stroke="midnightblue" points="235.59,-241.45 225.05,-242.56 233.98,-248.26 235.59,-241.45"/>
</g>
<!-- Node3 -->
<g id="node3" class="node">
<title>Node3</title>
<g id="a_node3"><a xlink:title=" ">
<polygon fill="white" stroke="#bfbfbf" points="243,-224.5 243,-243.5 293,-243.5 293,-224.5 243,-224.5"/>
<text text-anchor="middle" x="268" y="-231.5" font-family="Helvetica,sans-Serif" font-size="10.00">cstring</text>
</a>
</g>
</g>
<!-- Node1&#45;&gt;Node3 -->
<g id="edge2" class="edge">
<title>Node1&#45;&gt;Node3</title>
<path fill="none" stroke="midnightblue" d="M397.6,-280.44C371.8,-271.4 330.92,-257.06 301.98,-246.92"/>
<polygon fill="midnightblue" stroke="midnightblue" points="302.88,-243.52 292.29,-243.52 300.57,-250.13 302.88,-243.52"/>
</g>
<!-- Node4 -->
<g id="node4" class="node">
<title>Node4</title>
<g id="a_node4"><a xlink:href="Cartridge_8hpp.html" target="_top" xlink:title=" ">
<polygon fill="white" stroke="black" points="311.5,-224.5 311.5,-243.5 394.5,-243.5 394.5,-224.5 311.5,-224.5"/>
<text text-anchor="middle" x="353" y="-231.5" font-family="Helvetica,sans-Serif" font-size="10.00">Cartridge.hpp</text>
</a>
</g>
</g>
<!-- Node1&#45;&gt;Node4 -->
<g id="edge3" class="edge">
<title>Node1&#45;&gt;Node4</title>
<path fill="none" stroke="midnightblue" d="M410.91,-280.32C400.51,-272.18 384.74,-259.84 372.28,-250.09"/>
<polygon fill="midnightblue" stroke="midnightblue" points="374.32,-247.24 364.29,-243.83 370.01,-252.75 374.32,-247.24"/>
</g>
<!-- Node16 -->
<g id="node16" class="node">
<title>Node16</title>
<g id="a_node16"><a xlink:href="InvalidAddress_8hpp.html" target="_top" xlink:title=" ">
<polygon fill="white" stroke="black" points="773.5,-224.5 773.5,-243.5 948.5,-243.5 948.5,-224.5 773.5,-224.5"/>
<text text-anchor="middle" x="861" y="-231.5" font-family="Helvetica,sans-Serif" font-size="10.00">../Exceptions/InvalidAddress.hpp</text>
</a>
</g>
</g>
<!-- Node1&#45;&gt;Node16 -->
<g id="edge26" class="edge">
<title>Node1&#45;&gt;Node16</title>
<path fill="none" stroke="midnightblue" d="M491.56,-280.44C570.47,-270.74 698.91,-254.94 781.66,-244.76"/>
<polygon fill="midnightblue" stroke="midnightblue" points="782.27,-248.21 791.76,-243.52 781.41,-241.26 782.27,-248.21"/>
</g>
<!-- Node22 -->
<g id="node22" class="node">
<title>Node22</title>
<g id="a_node22"><a xlink:href="InvalidRom_8hpp.html" target="_top" xlink:title=" ">
<polygon fill="white" stroke="black" points="413,-224.5 413,-243.5 571,-243.5 571,-224.5 413,-224.5"/>
<text text-anchor="middle" x="492" y="-231.5" font-family="Helvetica,sans-Serif" font-size="10.00">../Exceptions/InvalidRom.hpp</text>
</a>
</g>
</g>
<!-- Node1&#45;&gt;Node22 -->
<g id="edge33" class="edge">
<title>Node1&#45;&gt;Node22</title>
<path fill="none" stroke="midnightblue" d="M433.25,-280.32C443.8,-272.18 459.8,-259.84 472.44,-250.09"/>
<polygon fill="midnightblue" stroke="midnightblue" points="474.77,-252.71 480.55,-243.83 470.49,-247.17 474.77,-252.71"/>
</g>
<!-- Node23 -->
<g id="node23" class="node">
<title>Node23</title>
<g id="a_node23"><a xlink:href="InvalidAction_8hpp.html" target="_top" xlink:title=" ">
<polygon fill="white" stroke="black" points="588.5,-224.5 588.5,-243.5 755.5,-243.5 755.5,-224.5 588.5,-224.5"/>
<text text-anchor="middle" x="672" y="-231.5" font-family="Helvetica,sans-Serif" font-size="10.00">../Exceptions/InvalidAction.hpp</text>
</a>
</g>
</g>
<!-- Node1&#45;&gt;Node23 -->
<g id="edge37" class="edge">
<title>Node1&#45;&gt;Node23</title>
<path fill="none" stroke="midnightblue" d="M461.61,-280.44C505.23,-271.02 575.4,-255.87 622.58,-245.68"/>
<polygon fill="midnightblue" stroke="midnightblue" points="623.54,-249.05 632.57,-243.52 622.06,-242.21 623.54,-249.05"/>
</g>
<!-- Node5 -->
<g id="node5" class="node">
<title>Node5</title>
<g id="a_node5"><a xlink:title=" ">
<polygon fill="white" stroke="#bfbfbf" points="502,-0.5 502,-19.5 546,-19.5 546,-0.5 502,-0.5"/>
<text text-anchor="middle" x="524" y="-7.5" font-family="Helvetica,sans-Serif" font-size="10.00">string</text>
</a>
</g>
</g>
<!-- Node4&#45;&gt;Node5 -->
<g id="edge4" class="edge">
<title>Node4&#45;&gt;Node5</title>
<path fill="none" stroke="midnightblue" d="M390.94,-224.45C425.26,-215.97 472.29,-202.21 485,-188 525.32,-142.9 527.08,-65.71 525.45,-30.06"/>
<polygon fill="midnightblue" stroke="midnightblue" points="528.92,-29.45 524.82,-19.68 521.93,-29.87 528.92,-29.45"/>
</g>
<!-- Node6 -->
<g id="node6" class="node">
<title>Node6</title>
<g id="a_node6"><a xlink:href="AMemory_8hpp.html" target="_top" xlink:title=" ">
<polygon fill="white" stroke="black" points="106,-112.5 106,-131.5 242,-131.5 242,-112.5 106,-112.5"/>
<text text-anchor="middle" x="174" y="-119.5" font-family="Helvetica,sans-Serif" font-size="10.00">../Memory/AMemory.hpp</text>
</a>
</g>
</g>
<!-- Node4&#45;&gt;Node6 -->
<g id="edge5" class="edge">
<title>Node4&#45;&gt;Node6</title>
<path fill="none" stroke="midnightblue" d="M347.41,-224.18C338.25,-210.38 318.76,-183.64 296,-168 273.45,-152.5 244.91,-141.6 221.11,-134.4"/>
<polygon fill="midnightblue" stroke="midnightblue" points="221.8,-130.96 211.23,-131.55 219.86,-137.69 221.8,-130.96"/>
</g>
<!-- Node10 -->
<g id="node10" class="node">
<title>Node10</title>
<g id="a_node10"><a xlink:href="Int24_8hpp.html" target="_top" xlink:title=" ">
<polygon fill="white" stroke="black" points="0,-0.5 0,-19.5 110,-19.5 110,-0.5 0,-0.5"/>
<text text-anchor="middle" x="55" y="-7.5" font-family="Helvetica,sans-Serif" font-size="10.00">../Models/Int24.hpp</text>
</a>
</g>
</g>
<!-- Node4&#45;&gt;Node10 -->
<g id="edge19" class="edge">
<title>Node4&#45;&gt;Node10</title>
<path fill="none" stroke="midnightblue" d="M311.13,-225.55C263.12,-216.59 187.73,-201.11 162,-188 128.02,-170.69 118.43,-163.54 97,-132 75,-99.62 63.4,-54.56 58.29,-29.56"/>
<polygon fill="midnightblue" stroke="midnightblue" points="61.71,-28.78 56.39,-19.61 54.83,-30.09 61.71,-28.78"/>
</g>
<!-- Node13 -->
<g id="node13" class="node">
<title>Node13</title>
<g id="a_node13"><a xlink:href="ARectangleMemory_8hpp.html" target="_top" xlink:title=" ">
<polygon fill="white" stroke="black" points="260.5,-112.5 260.5,-131.5 445.5,-131.5 445.5,-112.5 260.5,-112.5"/>
<text text-anchor="middle" x="353" y="-119.5" font-family="Helvetica,sans-Serif" font-size="10.00">../Memory/ARectangleMemory.hpp</text>
</a>
</g>
</g>
<!-- Node4&#45;&gt;Node13 -->
<g id="edge20" class="edge">
<title>Node4&#45;&gt;Node13</title>
<path fill="none" stroke="midnightblue" d="M353,-224.37C353,-206.62 353,-165.67 353,-141.6"/>
<polygon fill="midnightblue" stroke="midnightblue" points="356.5,-141.59 353,-131.59 349.5,-141.59 356.5,-141.59"/>
</g>
<!-- Node14 -->
<g id="node14" class="node">
<title>Node14</title>
<g id="a_node14"><a xlink:href="InterruptVectors_8hpp.html" target="_top" xlink:title=" ">
<polygon fill="white" stroke="black" points="171,-168.5 171,-187.5 287,-187.5 287,-168.5 171,-168.5"/>
<text text-anchor="middle" x="229" y="-175.5" font-family="Helvetica,sans-Serif" font-size="10.00">InterruptVectors.hpp</text>
</a>
</g>
</g>
<!-- Node4&#45;&gt;Node14 -->
<g id="edge22" class="edge">
<title>Node4&#45;&gt;Node14</title>
<path fill="none" stroke="midnightblue" d="M333.35,-224.44C313.04,-215.6 281.1,-201.69 257.9,-191.59"/>
<polygon fill="midnightblue" stroke="midnightblue" points="259.12,-188.3 248.56,-187.52 256.33,-194.72 259.12,-188.3"/>
</g>
<!-- Node15 -->
<g id="node15" class="node">
<title>Node15</title>
<g id="a_node15"><a xlink:href="Ram_8hpp.html" target="_top" xlink:title=" ">
<polygon fill="white" stroke="black" points="381.5,-168.5 381.5,-187.5 476.5,-187.5 476.5,-168.5 381.5,-168.5"/>
<text text-anchor="middle" x="429" y="-175.5" font-family="Helvetica,sans-Serif" font-size="10.00">../Ram/Ram.hpp</text>
</a>
</g>
</g>
<!-- Node4&#45;&gt;Node15 -->
<g id="edge23" class="edge">
<title>Node4&#45;&gt;Node15</title>
<path fill="none" stroke="midnightblue" d="M365.21,-224.32C376.78,-216.11 394.38,-203.6 408.16,-193.81"/>
<polygon fill="midnightblue" stroke="midnightblue" points="410.44,-196.48 416.57,-187.83 406.39,-190.77 410.44,-196.48"/>
</g>
<!-- Node6&#45;&gt;Node5 -->
<g id="edge9" class="edge">
<title>Node6&#45;&gt;Node5</title>
<path fill="none" stroke="midnightblue" d="M242.12,-113.19C288.68,-106.53 351.25,-94.95 404,-76 440.45,-62.91 479.28,-40.03 502.59,-25.2"/>
<polygon fill="midnightblue" stroke="midnightblue" points="504.79,-27.95 511.29,-19.58 500.99,-22.07 504.79,-27.95"/>
</g>
<!-- Node7 -->
<g id="node7" class="node">
<title>Node7</title>
<g id="a_node7"><a xlink:title=" ">
<polygon fill="white" stroke="#bfbfbf" points="434,-0.5 434,-19.5 484,-19.5 484,-0.5 434,-0.5"/>
<text text-anchor="middle" x="459" y="-7.5" font-family="Helvetica,sans-Serif" font-size="10.00">cstdint</text>
</a>
</g>
</g>
<!-- Node6&#45;&gt;Node7 -->
<g id="edge6" class="edge">
<title>Node6&#45;&gt;Node7</title>
<path fill="none" stroke="midnightblue" d="M242.2,-112.9C281.74,-106.44 331.72,-95.17 373,-76 399.89,-63.51 426.42,-41.6 442.75,-26.7"/>
<polygon fill="midnightblue" stroke="midnightblue" points="445.39,-29.02 450.31,-19.63 440.61,-23.91 445.39,-29.02"/>
</g>
<!-- Node8 -->
<g id="node8" class="node">
<title>Node8</title>
<g id="a_node8"><a xlink:title=" ">
<polygon fill="white" stroke="#bfbfbf" points="128.5,-0.5 128.5,-19.5 175.5,-19.5 175.5,-0.5 128.5,-0.5"/>
<text text-anchor="middle" x="152" y="-7.5" font-family="Helvetica,sans-Serif" font-size="10.00">vector</text>
</a>
</g>
</g>
<!-- Node6&#45;&gt;Node8 -->
<g id="edge7" class="edge">
<title>Node6&#45;&gt;Node8</title>
<path fill="none" stroke="midnightblue" d="M172.27,-112.37C168.72,-94.62 160.53,-53.67 155.72,-29.6"/>
<polygon fill="midnightblue" stroke="midnightblue" points="159.11,-28.71 153.72,-19.59 152.25,-30.08 159.11,-28.71"/>
</g>
<!-- Node9 -->
<g id="node9" class="node">
<title>Node9</title>
<g id="a_node9"><a xlink:title=" ">
<polygon fill="white" stroke="#bfbfbf" points="194,-0.5 194,-19.5 252,-19.5 252,-0.5 194,-0.5"/>
<text text-anchor="middle" x="223" y="-7.5" font-family="Helvetica,sans-Serif" font-size="10.00">memory</text>
</a>
</g>
</g>
<!-- Node6&#45;&gt;Node9 -->
<g id="edge8" class="edge">
<title>Node6&#45;&gt;Node9</title>
<path fill="none" stroke="midnightblue" d="M177.84,-112.37C185.82,-94.46 204.33,-52.92 215,-28.95"/>
<polygon fill="midnightblue" stroke="midnightblue" points="218.3,-30.15 219.17,-19.59 211.91,-27.3 218.3,-30.15"/>
</g>
<!-- Node6&#45;&gt;Node10 -->
<g id="edge10" class="edge">
<title>Node6&#45;&gt;Node10</title>
<path fill="none" stroke="midnightblue" d="M164.66,-112.37C144.59,-93.81 97.1,-49.91 71.7,-26.44"/>
<polygon fill="midnightblue" stroke="midnightblue" points="74.01,-23.81 64.29,-19.59 69.26,-28.95 74.01,-23.81"/>
</g>
<!-- Node11 -->
<g id="node11" class="node">
<title>Node11</title>
<g id="a_node11"><a xlink:href="Components_8hpp.html" target="_top" xlink:title=" ">
<polygon fill="white" stroke="black" points="270,-0.5 270,-19.5 416,-19.5 416,-0.5 270,-0.5"/>
<text text-anchor="middle" x="343" y="-7.5" font-family="Helvetica,sans-Serif" font-size="10.00">../Models/Components.hpp</text>
</a>
</g>
</g>
<!-- Node6&#45;&gt;Node11 -->
<g id="edge11" class="edge">
<title>Node6&#45;&gt;Node11</title>
<path fill="none" stroke="midnightblue" d="M187.26,-112.37C216.26,-93.49 285.56,-48.38 321.13,-25.24"/>
<polygon fill="midnightblue" stroke="midnightblue" points="323.33,-27.98 329.8,-19.59 319.51,-22.11 323.33,-27.98"/>
</g>
<!-- Node12 -->
<g id="node12" class="node">
<title>Node12</title>
<g id="a_node12"><a xlink:href="IMemory_8hpp.html" target="_top" xlink:title=" ">
<polygon fill="white" stroke="black" points="284,-56.5 284,-75.5 364,-75.5 364,-56.5 284,-56.5"/>
<text text-anchor="middle" x="324" y="-63.5" font-family="Helvetica,sans-Serif" font-size="10.00">IMemory.hpp</text>
</a>
</g>
</g>
<!-- Node6&#45;&gt;Node12 -->
<g id="edge12" class="edge">
<title>Node6&#45;&gt;Node12</title>
<path fill="none" stroke="midnightblue" d="M197.77,-112.44C222.89,-103.4 262.71,-89.06 290.9,-78.92"/>
<polygon fill="midnightblue" stroke="midnightblue" points="292.12,-82.2 300.34,-75.52 289.75,-75.61 292.12,-82.2"/>
</g>
<!-- Node12&#45;&gt;Node5 -->
<g id="edge16" class="edge">
<title>Node12&#45;&gt;Node5</title>
<path fill="none" stroke="midnightblue" d="M357.09,-56.42C389.2,-48.05 439.57,-34.78 491.88,-20.27"/>
<polygon fill="midnightblue" stroke="midnightblue" points="492.97,-23.6 501.67,-17.55 491.09,-16.86 492.97,-23.6"/>
</g>
<!-- Node12&#45;&gt;Node7 -->
<g id="edge13" class="edge">
<title>Node12&#45;&gt;Node7</title>
<path fill="none" stroke="midnightblue" d="M345.39,-56.44C367.71,-47.52 402.9,-33.44 428.21,-23.32"/>
<polygon fill="midnightblue" stroke="midnightblue" points="429.72,-26.48 437.71,-19.52 427.12,-19.98 429.72,-26.48"/>
</g>
<!-- Node12&#45;&gt;Node8 -->
<g id="edge14" class="edge">
<title>Node12&#45;&gt;Node8</title>
<path fill="none" stroke="midnightblue" d="M296.75,-56.44C266.57,-46.97 217.92,-31.7 185.46,-21.5"/>
<polygon fill="midnightblue" stroke="midnightblue" points="186.12,-18.04 175.53,-18.39 184.03,-24.72 186.12,-18.04"/>
</g>
<!-- Node12&#45;&gt;Node9 -->
<g id="edge15" class="edge">
<title>Node12&#45;&gt;Node9</title>
<path fill="none" stroke="midnightblue" d="M307.77,-56.32C291.65,-47.7 266.7,-34.36 248.04,-24.39"/>
<polygon fill="midnightblue" stroke="midnightblue" points="249.66,-21.28 239.19,-19.65 246.36,-27.46 249.66,-21.28"/>
</g>
<!-- Node12&#45;&gt;Node10 -->
<g id="edge17" class="edge">
<title>Node12&#45;&gt;Node10</title>
<path fill="none" stroke="midnightblue" d="M283.73,-56.92C236.87,-47.51 159.36,-31.95 107.74,-21.59"/>
<polygon fill="midnightblue" stroke="midnightblue" points="108.27,-18.12 97.77,-19.59 106.89,-24.99 108.27,-18.12"/>
</g>
<!-- Node12&#45;&gt;Node11 -->
<g id="edge18" class="edge">
<title>Node12&#45;&gt;Node11</title>
<path fill="none" stroke="midnightblue" d="M327.14,-56.08C329.68,-48.85 333.36,-38.41 336.53,-29.4"/>
<polygon fill="midnightblue" stroke="midnightblue" points="339.9,-30.35 339.92,-19.75 333.3,-28.02 339.9,-30.35"/>
</g>
<!-- Node13&#45;&gt;Node12 -->
<g id="edge21" class="edge">
<title>Node13&#45;&gt;Node12</title>
<path fill="none" stroke="midnightblue" d="M348.21,-112.08C344.24,-104.69 338.47,-93.95 333.57,-84.81"/>
<polygon fill="midnightblue" stroke="midnightblue" points="336.51,-82.91 328.7,-75.75 330.35,-86.22 336.51,-82.91"/>
</g>
<!-- Node15&#45;&gt;Node5 -->
<g id="edge25" class="edge">
<title>Node15&#45;&gt;Node5</title>
<path fill="none" stroke="midnightblue" d="M433.76,-168.46C447.03,-144.64 484.35,-77.77 497,-56 502.33,-46.83 508.4,-36.69 513.43,-28.36"/>
<polygon fill="midnightblue" stroke="midnightblue" points="516.56,-29.95 518.75,-19.58 510.57,-26.32 516.56,-29.95"/>
</g>
<!-- Node15&#45;&gt;Node13 -->
<g id="edge24" class="edge">
<title>Node15&#45;&gt;Node13</title>
<path fill="none" stroke="midnightblue" d="M416.79,-168.32C405.22,-160.11 387.62,-147.6 373.84,-137.81"/>
<polygon fill="midnightblue" stroke="midnightblue" points="375.61,-134.77 365.43,-131.83 371.56,-140.48 375.61,-134.77"/>
</g>
<!-- Node16&#45;&gt;Node5 -->
<g id="edge28" class="edge">
<title>Node16&#45;&gt;Node5</title>
<path fill="none" stroke="midnightblue" d="M893.14,-224.41C925.65,-214.04 968.77,-194.61 951,-168 860.65,-32.71 639.27,-13.49 556.2,-11.14"/>
<polygon fill="midnightblue" stroke="midnightblue" points="556.17,-7.64 546.09,-10.92 556.01,-14.64 556.17,-7.64"/>
</g>
<!-- Node17 -->
<g id="node17" class="node">
<title>Node17</title>
<g id="a_node17"><a xlink:title=" ">
<polygon fill="white" stroke="#bfbfbf" points="577.5,-168.5 577.5,-187.5 642.5,-187.5 642.5,-168.5 577.5,-168.5"/>
<text text-anchor="middle" x="610" y="-175.5" font-family="Helvetica,sans-Serif" font-size="10.00">exception</text>
</a>
</g>
</g>
<!-- Node16&#45;&gt;Node17 -->
<g id="edge27" class="edge">
<title>Node16&#45;&gt;Node17</title>
<path fill="none" stroke="midnightblue" d="M821.23,-224.44C775.25,-214.55 699.87,-198.34 652.69,-188.19"/>
<polygon fill="midnightblue" stroke="midnightblue" points="653.3,-184.74 642.79,-186.05 651.83,-191.58 653.3,-184.74"/>
</g>
<!-- Node18 -->
<g id="node18" class="node">
<title>Node18</title>
<g id="a_node18"><a xlink:title=" ">
<polygon fill="white" stroke="#bfbfbf" points="836.5,-168.5 836.5,-187.5 867.5,-187.5 867.5,-168.5 836.5,-168.5"/>
<text text-anchor="middle" x="852" y="-175.5" font-family="Helvetica,sans-Serif" font-size="10.00">ios</text>
</a>
</g>
</g>
<!-- Node16&#45;&gt;Node18 -->
<g id="edge29" class="edge">
<title>Node16&#45;&gt;Node18</title>
<path fill="none" stroke="midnightblue" d="M859.51,-224.08C858.32,-216.93 856.61,-206.64 855.12,-197.69"/>
<polygon fill="midnightblue" stroke="midnightblue" points="858.55,-197.04 853.46,-187.75 851.65,-198.19 858.55,-197.04"/>
</g>
<!-- Node19 -->
<g id="node19" class="node">
<title>Node19</title>
<g id="a_node19"><a xlink:title=" ">
<polygon fill="white" stroke="#bfbfbf" points="886,-168.5 886,-187.5 942,-187.5 942,-168.5 886,-168.5"/>
<text text-anchor="middle" x="914" y="-175.5" font-family="Helvetica,sans-Serif" font-size="10.00">sstream</text>
</a>
</g>
</g>
<!-- Node16&#45;&gt;Node19 -->
<g id="edge30" class="edge">
<title>Node16&#45;&gt;Node19</title>
<path fill="none" stroke="midnightblue" d="M869.75,-224.08C877.47,-216.22 888.9,-204.57 898.22,-195.08"/>
<polygon fill="midnightblue" stroke="midnightblue" points="900.9,-197.34 905.41,-187.75 895.91,-192.44 900.9,-197.34"/>
</g>
<!-- Node20 -->
<g id="node20" class="node">
<title>Node20</title>
<g id="a_node20"><a xlink:href="DebuggableError_8hpp.html" target="_top" xlink:title=" ">
<polygon fill="white" stroke="black" points="699.5,-168.5 699.5,-187.5 818.5,-187.5 818.5,-168.5 699.5,-168.5"/>
<text text-anchor="middle" x="759" y="-175.5" font-family="Helvetica,sans-Serif" font-size="10.00">DebuggableError.hpp</text>
</a>
</g>
</g>
<!-- Node16&#45;&gt;Node20 -->
<g id="edge31" class="edge">
<title>Node16&#45;&gt;Node20</title>
<path fill="none" stroke="midnightblue" d="M844.61,-224.32C828.33,-215.7 803.13,-202.36 784.28,-192.39"/>
<polygon fill="midnightblue" stroke="midnightblue" points="785.82,-189.24 775.35,-187.65 782.55,-195.43 785.82,-189.24"/>
</g>
<!-- Node21 -->
<g id="node21" class="node">
<title>Node21</title>
<g id="a_node21"><a xlink:title=" ">
<polygon fill="white" stroke="#bfbfbf" points="711.5,-112.5 711.5,-131.5 806.5,-131.5 806.5,-112.5 711.5,-112.5"/>
<text text-anchor="middle" x="759" y="-119.5" font-family="Helvetica,sans-Serif" font-size="10.00">bits/exception.h</text>
</a>
</g>
</g>
<!-- Node20&#45;&gt;Node21 -->
<g id="edge32" class="edge">
<title>Node20&#45;&gt;Node21</title>
<path fill="none" stroke="midnightblue" d="M759,-168.08C759,-161.01 759,-150.86 759,-141.99"/>
<polygon fill="midnightblue" stroke="midnightblue" points="762.5,-141.75 759,-131.75 755.5,-141.75 762.5,-141.75"/>
</g>
<!-- Node22&#45;&gt;Node5 -->
<g id="edge35" class="edge">
<title>Node22&#45;&gt;Node5</title>
<path fill="none" stroke="midnightblue" d="M501.02,-224.34C509.07,-215.93 520.3,-202.36 525,-188 543.05,-132.88 533.94,-62.82 527.91,-29.82"/>
<polygon fill="midnightblue" stroke="midnightblue" points="531.3,-28.92 525.95,-19.77 524.43,-30.26 531.3,-28.92"/>
</g>
<!-- Node22&#45;&gt;Node17 -->
<g id="edge34" class="edge">
<title>Node22&#45;&gt;Node17</title>
<path fill="none" stroke="midnightblue" d="M510.7,-224.44C529.94,-215.64 560.15,-201.81 582.2,-191.72"/>
<polygon fill="midnightblue" stroke="midnightblue" points="583.75,-194.86 591.39,-187.52 580.84,-188.5 583.75,-194.86"/>
</g>
<!-- Node22&#45;&gt;Node20 -->
<g id="edge36" class="edge">
<title>Node22&#45;&gt;Node20</title>
<path fill="none" stroke="midnightblue" d="M534.31,-224.44C581.08,-214.98 656.46,-199.74 706.85,-189.55"/>
<polygon fill="midnightblue" stroke="midnightblue" points="707.78,-192.93 716.89,-187.52 706.4,-186.07 707.78,-192.93"/>
</g>
<!-- Node23&#45;&gt;Node5 -->
<g id="edge39" class="edge">
<title>Node23&#45;&gt;Node5</title>
<path fill="none" stroke="midnightblue" d="M670.41,-224.17C667.84,-211.26 662.03,-186.74 652,-168 621.18,-110.39 567.68,-53.71 540.65,-26.95"/>
<polygon fill="midnightblue" stroke="midnightblue" points="542.77,-24.13 533.17,-19.64 537.87,-29.13 542.77,-24.13"/>
</g>
<!-- Node23&#45;&gt;Node17 -->
<g id="edge38" class="edge">
<title>Node23&#45;&gt;Node17</title>
<path fill="none" stroke="midnightblue" d="M662.04,-224.32C652.87,-216.34 639.06,-204.31 627.97,-194.65"/>
<polygon fill="midnightblue" stroke="midnightblue" points="629.98,-191.76 620.14,-187.83 625.38,-197.04 629.98,-191.76"/>
</g>
<!-- Node23&#45;&gt;Node20 -->
<g id="edge40" class="edge">
<title>Node23&#45;&gt;Node20</title>
<path fill="none" stroke="midnightblue" d="M685.98,-224.32C699.55,-215.9 720.38,-202.97 736.32,-193.07"/>
<polygon fill="midnightblue" stroke="midnightblue" points="738.41,-195.9 745.06,-187.65 734.71,-189.95 738.41,-195.9"/>
</g>
</g>
</svg>
