<?xml version="1.0" encoding="UTF-8" standalone="no"?>
<!DOCTYPE svg PUBLIC "-//W3C//DTD SVG 1.1//EN"
 "http://www.w3.org/Graphics/SVG/1.1/DTD/svg11.dtd">
<!-- Generated by graphviz version 2.43.0 (0)
 -->
<!-- Title: sources/Cartridge/Cartridge.hpp Pages: 1 -->
<svg width="554pt" height="252pt"
 viewBox="0.00 0.00 554.00 252.00" xmlns="http://www.w3.org/2000/svg" xmlns:xlink="http://www.w3.org/1999/xlink">
<g id="graph0" class="graph" transform="scale(1 1) rotate(0) translate(4 248)">
<title>sources/Cartridge/Cartridge.hpp</title>
<polygon fill="white" stroke="transparent" points="-4,4 -4,-248 550,-248 550,4 -4,4"/>
<!-- Node1 -->
<g id="node1" class="node">
<title>Node1</title>
<g id="a_node1"><a xlink:title=" ">
<polygon fill="#bfbfbf" stroke="black" points="113.5,-224.5 113.5,-243.5 284.5,-243.5 284.5,-224.5 113.5,-224.5"/>
<text text-anchor="middle" x="199" y="-231.5" font-family="Helvetica,sans-Serif" font-size="10.00">sources/Cartridge/Cartridge.hpp</text>
</a>
</g>
</g>
<!-- Node2 -->
<g id="node2" class="node">
<title>Node2</title>
<g id="a_node2"><a xlink:title=" ">
<polygon fill="white" stroke="#bfbfbf" points="0,-0.5 0,-19.5 44,-19.5 44,-0.5 0,-0.5"/>
<text text-anchor="middle" x="22" y="-7.5" font-family="Helvetica,sans-Serif" font-size="10.00">string</text>
</a>
</g>
</g>
<!-- Node1&#45;&gt;Node2 -->
<g id="edge1" class="edge">
<title>Node1&#45;&gt;Node2</title>
<path fill="none" stroke="midnightblue" d="M123.35,-224.5C96.79,-218.15 68.5,-207.13 48,-188 3.95,-146.89 11.73,-66.44 18.08,-29.88"/>
<polygon fill="midnightblue" stroke="midnightblue" points="21.6,-30.14 20.03,-19.66 14.72,-28.83 21.6,-30.14"/>
</g>
<!-- Node3 -->
<g id="node3" class="node">
<title>Node3</title>
<g id="a_node3"><a xlink:href="AMemory_8hpp.html" target="_top" xlink:title=" ">
<polygon fill="white" stroke="black" points="253,-112.5 253,-131.5 389,-131.5 389,-112.5 253,-112.5"/>
<text text-anchor="middle" x="321" y="-119.5" font-family="Helvetica,sans-Serif" font-size="10.00">../Memory/AMemory.hpp</text>
</a>
</g>
</g>
<!-- Node1&#45;&gt;Node3 -->
<g id="edge2" class="edge">
<title>Node1&#45;&gt;Node3</title>
<path fill="none" stroke="midnightblue" d="M202.22,-224.43C207.63,-210.97 219.68,-184.69 237,-168 251.54,-153.99 271.31,-143.11 288.02,-135.56"/>
<polygon fill="midnightblue" stroke="midnightblue" points="289.64,-138.67 297.44,-131.5 286.87,-132.25 289.64,-138.67"/>
</g>
<!-- Node7 -->
<g id="node7" class="node">
<title>Node7</title>
<g id="a_node7"><a xlink:href="Int24_8hpp.html" target="_top" xlink:title=" ">
<polygon fill="white" stroke="black" points="436,-0.5 436,-19.5 546,-19.5 546,-0.5 436,-0.5"/>
<text text-anchor="middle" x="491" y="-7.5" font-family="Helvetica,sans-Serif" font-size="10.00">../Models/Int24.hpp</text>
</a>
</g>
</g>
<!-- Node1&#45;&gt;Node7 -->
<g id="edge16" class="edge">
<title>Node1&#45;&gt;Node7</title>
<path fill="none" stroke="midnightblue" d="M278.13,-224.48C309.24,-218.16 343.91,-207.16 371,-188 430.06,-146.24 468.73,-65.51 483.84,-29.33"/>
<polygon fill="midnightblue" stroke="midnightblue" points="487.26,-30.2 487.77,-19.62 480.77,-27.58 487.26,-30.2"/>
</g>
<!-- Node10 -->
<g id="node10" class="node">
<title>Node10</title>
<g id="a_node10"><a xlink:href="ARectangleMemory_8hpp.html" target="_top" xlink:title=" ">
<polygon fill="white" stroke="black" points="49.5,-112.5 49.5,-131.5 234.5,-131.5 234.5,-112.5 49.5,-112.5"/>
<text text-anchor="middle" x="142" y="-119.5" font-family="Helvetica,sans-Serif" font-size="10.00">../Memory/ARectangleMemory.hpp</text>
</a>
</g>
</g>
<!-- Node1&#45;&gt;Node10 -->
<g id="edge17" class="edge">
<title>Node1&#45;&gt;Node10</title>
<path fill="none" stroke="midnightblue" d="M194.53,-224.37C185.2,-206.38 163.53,-164.55 151.13,-140.63"/>
<polygon fill="midnightblue" stroke="midnightblue" points="154.16,-138.86 146.45,-131.59 147.95,-142.08 154.16,-138.86"/>
</g>
<!-- Node11 -->
<g id="node11" class="node">
<title>Node11</title>
<g id="a_node11"><a xlink:href="InterruptVectors_8hpp.html" target="_top" xlink:title=" ">
<polygon fill="white" stroke="black" points="246,-168.5 246,-187.5 362,-187.5 362,-168.5 246,-168.5"/>
<text text-anchor="middle" x="304" y="-175.5" font-family="Helvetica,sans-Serif" font-size="10.00">InterruptVectors.hpp</text>
</a>
</g>
</g>
<!-- Node1&#45;&gt;Node11 -->
<g id="edge19" class="edge">
<title>Node1&#45;&gt;Node11</title>
<path fill="none" stroke="midnightblue" d="M215.87,-224.32C232.71,-215.66 258.81,-202.24 278.24,-192.25"/>
<polygon fill="midnightblue" stroke="midnightblue" points="279.88,-195.34 287.17,-187.65 276.68,-189.12 279.88,-195.34"/>
</g>
<!-- Node12 -->
<g id="node12" class="node">
<title>Node12</title>
<g id="a_node12"><a xlink:href="Ram_8hpp.html" target="_top" xlink:title=" ">
<polygon fill="white" stroke="black" points="56.5,-168.5 56.5,-187.5 151.5,-187.5 151.5,-168.5 56.5,-168.5"/>
<text text-anchor="middle" x="104" y="-175.5" font-family="Helvetica,sans-Serif" font-size="10.00">../Ram/Ram.hpp</text>
</a>
</g>
</g>
<!-- Node1&#45;&gt;Node12 -->
<g id="edge20" class="edge">
<title>Node1&#45;&gt;Node12</title>
<path fill="none" stroke="midnightblue" d="M183.74,-224.32C168.78,-215.82 145.75,-202.73 128.27,-192.8"/>
<polygon fill="midnightblue" stroke="midnightblue" points="129.65,-189.55 119.23,-187.65 126.19,-195.64 129.65,-189.55"/>
</g>
<!-- Node3&#45;&gt;Node2 -->
<g id="edge6" class="edge">
<title>Node3&#45;&gt;Node2</title>
<path fill="none" stroke="midnightblue" d="M252.94,-112.84C212.02,-106.3 159.6,-94.98 116,-76 86.92,-63.34 57.51,-41.15 39.52,-26.26"/>
<polygon fill="midnightblue" stroke="midnightblue" points="41.55,-23.4 31.65,-19.62 37.03,-28.75 41.55,-23.4"/>
</g>
<!-- Node4 -->
<g id="node4" class="node">
<title>Node4</title>
<g id="a_node4"><a xlink:title=" ">
<polygon fill="white" stroke="#bfbfbf" points="62,-0.5 62,-19.5 112,-19.5 112,-0.5 62,-0.5"/>
<text text-anchor="middle" x="87" y="-7.5" font-family="Helvetica,sans-Serif" font-size="10.00">cstdint</text>
</a>
</g>
</g>
<!-- Node3&#45;&gt;Node4 -->
<g id="edge3" class="edge">
<title>Node3&#45;&gt;Node4</title>
<path fill="none" stroke="midnightblue" d="M252.96,-113.46C218.38,-107.29 176.84,-96.13 144,-76 124.48,-64.03 107.98,-43.24 97.83,-28.39"/>
<polygon fill="midnightblue" stroke="midnightblue" points="100.52,-26.1 92.12,-19.65 94.66,-29.93 100.52,-26.1"/>
</g>
<!-- Node5 -->
<g id="node5" class="node">
<title>Node5</title>
<g id="a_node5"><a xlink:title=" ">
<polygon fill="white" stroke="#bfbfbf" points="130.5,-0.5 130.5,-19.5 177.5,-19.5 177.5,-0.5 130.5,-0.5"/>
<text text-anchor="middle" x="154" y="-7.5" font-family="Helvetica,sans-Serif" font-size="10.00">vector</text>
</a>
</g>
</g>
<!-- Node3&#45;&gt;Node5 -->
<g id="edge4" class="edge">
<title>Node3&#45;&gt;Node5</title>
<path fill="none" stroke="midnightblue" d="M311.79,-112.29C297.55,-99.1 269.03,-73.73 242,-56 223.11,-43.61 200.39,-32.07 182.76,-23.77"/>
<polygon fill="midnightblue" stroke="midnightblue" points="184.09,-20.53 173.55,-19.51 181.16,-26.89 184.09,-20.53"/>
</g>
<!-- Node6 -->
<g id="node6" class="node">
<title>Node6</title>
<g id="a_node6"><a xlink:title=" ">
<polygon fill="white" stroke="#bfbfbf" points="196,-0.5 196,-19.5 254,-19.5 254,-0.5 196,-0.5"/>
<text text-anchor="middle" x="225" y="-7.5" font-family="Helvetica,sans-Serif" font-size="10.00">memory</text>
</a>
</g>
</g>
<!-- Node3&#45;&gt;Node6 -->
<g id="edge5" class="edge">
<title>Node3&#45;&gt;Node6</title>
<path fill="none" stroke="midnightblue" d="M316.56,-112.43C309.6,-99.44 295.21,-74.31 279,-56 269.14,-44.87 256.43,-34.13 245.82,-25.95"/>
<polygon fill="midnightblue" stroke="midnightblue" points="247.6,-22.91 237.5,-19.71 243.4,-28.51 247.6,-22.91"/>
</g>
<!-- Node3&#45;&gt;Node7 -->
<g id="edge7" class="edge">
<title>Node3&#45;&gt;Node7</title>
<path fill="none" stroke="midnightblue" d="M334.34,-112.37C363.51,-93.49 433.22,-48.38 469,-25.24"/>
<polygon fill="midnightblue" stroke="midnightblue" points="471.23,-27.96 477.72,-19.59 467.43,-22.09 471.23,-27.96"/>
</g>
<!-- Node8 -->
<g id="node8" class="node">
<title>Node8</title>
<g id="a_node8"><a xlink:href="Components_8hpp.html" target="_top" xlink:title=" ">
<polygon fill="white" stroke="black" points="272,-0.5 272,-19.5 418,-19.5 418,-0.5 272,-0.5"/>
<text text-anchor="middle" x="345" y="-7.5" font-family="Helvetica,sans-Serif" font-size="10.00">../Models/Components.hpp</text>
</a>
</g>
</g>
<!-- Node3&#45;&gt;Node8 -->
<g id="edge8" class="edge">
<title>Node3&#45;&gt;Node8</title>
<path fill="none" stroke="midnightblue" d="M322.88,-112.37C326.76,-94.62 335.69,-53.67 340.94,-29.6"/>
<polygon fill="midnightblue" stroke="midnightblue" points="344.41,-30.11 343.13,-19.59 337.57,-28.62 344.41,-30.11"/>
</g>
<!-- Node9 -->
<g id="node9" class="node">
<title>Node9</title>
<g id="a_node9"><a xlink:href="IMemory_8hpp.html" target="_top" xlink:title=" ">
<polygon fill="white" stroke="black" points="153,-56.5 153,-75.5 233,-75.5 233,-56.5 153,-56.5"/>
<text text-anchor="middle" x="193" y="-63.5" font-family="Helvetica,sans-Serif" font-size="10.00">IMemory.hpp</text>
</a>
</g>
</g>
<!-- Node3&#45;&gt;Node9 -->
<g id="edge9" class="edge">
<title>Node3&#45;&gt;Node9</title>
<path fill="none" stroke="midnightblue" d="M300.72,-112.44C279.65,-103.56 246.48,-89.56 222.51,-79.45"/>
<polygon fill="midnightblue" stroke="midnightblue" points="223.76,-76.18 213.19,-75.52 221.04,-82.63 223.76,-76.18"/>
</g>
<!-- Node9&#45;&gt;Node2 -->
<g id="edge13" class="edge">
<title>Node9&#45;&gt;Node2</title>
<path fill="none" stroke="midnightblue" d="M165.9,-56.44C135.48,-46.84 86.16,-31.26 53.9,-21.07"/>
<polygon fill="midnightblue" stroke="midnightblue" points="54.66,-17.64 44.07,-17.97 52.56,-24.32 54.66,-17.64"/>
</g>
<!-- Node9&#45;&gt;Node4 -->
<g id="edge10" class="edge">
<title>Node9&#45;&gt;Node4</title>
<path fill="none" stroke="midnightblue" d="M175.97,-56.32C158.97,-47.66 132.62,-34.24 113.01,-24.25"/>
<polygon fill="midnightblue" stroke="midnightblue" points="114.49,-21.08 103.99,-19.65 111.31,-27.31 114.49,-21.08"/>
</g>
<!-- Node9&#45;&gt;Node5 -->
<g id="edge11" class="edge">
<title>Node9&#45;&gt;Node5</title>
<path fill="none" stroke="midnightblue" d="M186.56,-56.08C181.05,-48.46 172.97,-37.26 166.24,-27.94"/>
<polygon fill="midnightblue" stroke="midnightblue" points="169.01,-25.81 160.32,-19.75 163.34,-29.91 169.01,-25.81"/>
</g>
<!-- Node9&#45;&gt;Node6 -->
<g id="edge12" class="edge">
<title>Node9&#45;&gt;Node6</title>
<path fill="none" stroke="midnightblue" d="M198.28,-56.08C202.71,-48.61 209.16,-37.72 214.62,-28.52"/>
<polygon fill="midnightblue" stroke="midnightblue" points="217.73,-30.14 219.81,-19.75 211.71,-26.57 217.73,-30.14"/>
</g>
<!-- Node9&#45;&gt;Node7 -->
<g id="edge14" class="edge">
<title>Node9&#45;&gt;Node7</title>
<path fill="none" stroke="midnightblue" d="M233.19,-57.72C284.93,-48.34 375.15,-31.99 433.97,-21.33"/>
<polygon fill="midnightblue" stroke="midnightblue" points="434.63,-24.77 443.85,-19.54 433.39,-17.88 434.63,-24.77"/>
</g>
<!-- Node9&#45;&gt;Node8 -->
<g id="edge15" class="edge">
<title>Node9&#45;&gt;Node8</title>
<path fill="none" stroke="midnightblue" d="M217.08,-56.44C242.54,-47.4 282.89,-33.06 311.46,-22.92"/>
<polygon fill="midnightblue" stroke="midnightblue" points="312.78,-26.16 321.03,-19.52 310.43,-19.57 312.78,-26.16"/>
</g>
<!-- Node10&#45;&gt;Node9 -->
<g id="edge18" class="edge">
<title>Node10&#45;&gt;Node9</title>
<path fill="none" stroke="midnightblue" d="M150.42,-112.08C157.85,-104.22 168.85,-92.57 177.81,-83.08"/>
<polygon fill="midnightblue" stroke="midnightblue" points="180.41,-85.42 184.74,-75.75 175.32,-80.62 180.41,-85.42"/>
</g>
<!-- Node12&#45;&gt;Node2 -->
<g id="edge22" class="edge">
<title>Node12&#45;&gt;Node2</title>
<path fill="none" stroke="midnightblue" d="M84.81,-168.46C70.35,-160.99 51.31,-148.7 41,-132 21.33,-100.15 19.73,-54.89 20.65,-29.72"/>
<polygon fill="midnightblue" stroke="midnightblue" points="24.14,-29.86 21.19,-19.69 17.15,-29.48 24.14,-29.86"/>
</g>
<!-- Node12&#45;&gt;Node10 -->
<g id="edge21" class="edge">
<title>Node12&#45;&gt;Node10</title>
<path fill="none" stroke="midnightblue" d="M110.27,-168.08C115.64,-160.46 123.52,-149.26 130.08,-139.94"/>
<polygon fill="midnightblue" stroke="midnightblue" points="132.95,-141.94 135.84,-131.75 127.22,-137.91 132.95,-141.94"/>
</g>
</g>
</svg>
