<?xml version="1.0" encoding="UTF-8" standalone="no"?>
<!DOCTYPE svg PUBLIC "-//W3C//DTD SVG 1.1//EN"
 "http://www.w3.org/Graphics/SVG/1.1/DTD/svg11.dtd">
<!-- Generated by graphviz version 2.43.0 (0)
 -->
<!-- Title: sources/Debugger/CGramDebug.cpp Pages: 1 -->
<svg width="2302pt" height="420pt"
 viewBox="0.00 0.00 2301.68 420.00" xmlns="http://www.w3.org/2000/svg" xmlns:xlink="http://www.w3.org/1999/xlink">
<g id="graph0" class="graph" transform="scale(1 1) rotate(0) translate(4 416)">
<title>sources/Debugger/CGramDebug.cpp</title>
<polygon fill="white" stroke="transparent" points="-4,4 -4,-416 2297.68,-416 2297.68,4 -4,4"/>
<!-- Node1 -->
<g id="node1" class="node">
<title>Node1</title>
<g id="a_node1"><a xlink:title=" ">
<polygon fill="#bfbfbf" stroke="black" points="1463.18,-392.5 1463.18,-411.5 1656.18,-411.5 1656.18,-392.5 1463.18,-392.5"/>
<text text-anchor="middle" x="1559.68" y="-399.5" font-family="Helvetica,sans-Serif" font-size="10.00">sources/Debugger/CGramDebug.cpp</text>
</a>
</g>
</g>
<!-- Node2 -->
<g id="node2" class="node">
<title>Node2</title>
<g id="a_node2"><a xlink:href="CGramDebug_8hpp.html" target="_top" xlink:title=" ">
<polygon fill="white" stroke="black" points="1734.18,-280.5 1734.18,-299.5 1837.18,-299.5 1837.18,-280.5 1734.18,-280.5"/>
<text text-anchor="middle" x="1785.68" y="-287.5" font-family="Helvetica,sans-Serif" font-size="10.00">CGramDebug.hpp</text>
</a>
</g>
</g>
<!-- Node1&#45;&gt;Node2 -->
<g id="edge1" class="edge">
<title>Node1&#45;&gt;Node2</title>
<path fill="none" stroke="midnightblue" d="M1559.58,-392.42C1559.9,-378.47 1562.68,-350.91 1578.68,-336 1599.47,-316.62 1670.59,-304.24 1723.7,-297.47"/>
<polygon fill="midnightblue" stroke="midnightblue" points="1724.23,-300.93 1733.73,-296.23 1723.38,-293.99 1724.23,-300.93"/>
</g>
<!-- Node9 -->
<g id="node9" class="node">
<title>Node9</title>
<g id="a_node9"><a xlink:title=" ">
<polygon fill="white" stroke="#bfbfbf" points="1111.68,-0.5 1111.68,-19.5 1155.68,-19.5 1155.68,-0.5 1111.68,-0.5"/>
<text text-anchor="middle" x="1133.68" y="-7.5" font-family="Helvetica,sans-Serif" font-size="10.00">string</text>
</a>
</g>
</g>
<!-- Node1&#45;&gt;Node9 -->
<g id="edge80" class="edge">
<title>Node1&#45;&gt;Node9</title>
<path fill="none" stroke="midnightblue" d="M1548.14,-392.43C1526.87,-375.57 1483.68,-335.8 1483.68,-291 1483.68,-291 1483.68,-291 1483.68,-177 1483.68,-146.9 1485.84,-133.41 1464.68,-112 1381.87,-28.21 1231.72,-13.52 1165.98,-11.24"/>
<polygon fill="midnightblue" stroke="midnightblue" points="1165.9,-7.73 1155.81,-10.96 1165.71,-14.73 1165.9,-7.73"/>
</g>
<!-- Node27 -->
<g id="node27" class="node">
<title>Node27</title>
<g id="a_node27"><a xlink:href="SNES_8hpp.html" target="_top" xlink:title=" ">
<polygon fill="white" stroke="black" points="601.68,-336.5 601.68,-355.5 673.68,-355.5 673.68,-336.5 601.68,-336.5"/>
<text text-anchor="middle" x="637.68" y="-343.5" font-family="Helvetica,sans-Serif" font-size="10.00">../SNES.hpp</text>
</a>
</g>
</g>
<!-- Node1&#45;&gt;Node27 -->
<g id="edge41" class="edge">
<title>Node1&#45;&gt;Node27</title>
<path fill="none" stroke="midnightblue" d="M1462.75,-395.32C1266.32,-383.82 827.75,-358.13 684.16,-349.72"/>
<polygon fill="midnightblue" stroke="midnightblue" points="684.13,-346.21 673.95,-349.12 683.73,-353.2 684.13,-346.21"/>
</g>
<!-- Node39 -->
<g id="node39" class="node">
<title>Node39</title>
<g id="a_node39"><a xlink:title=" ">
<polygon fill="white" stroke="#bfbfbf" points="1587.68,-336.5 1587.68,-355.5 1637.68,-355.5 1637.68,-336.5 1587.68,-336.5"/>
<text text-anchor="middle" x="1612.68" y="-343.5" font-family="Helvetica,sans-Serif" font-size="10.00">QColor</text>
</a>
</g>
</g>
<!-- Node1&#45;&gt;Node39 -->
<g id="edge79" class="edge">
<title>Node1&#45;&gt;Node39</title>
<path fill="none" stroke="midnightblue" d="M1568.43,-392.08C1576.15,-384.22 1587.58,-372.57 1596.89,-363.08"/>
<polygon fill="midnightblue" stroke="midnightblue" points="1599.58,-365.34 1604.09,-355.75 1594.59,-360.44 1599.58,-365.34"/>
</g>
<!-- Node40 -->
<g id="node40" class="node">
<title>Node40</title>
<g id="a_node40"><a xlink:title=" ">
<polygon fill="white" stroke="#bfbfbf" points="1655.68,-336.5 1655.68,-355.5 1715.68,-355.5 1715.68,-336.5 1655.68,-336.5"/>
<text text-anchor="middle" x="1685.68" y="-343.5" font-family="Helvetica,sans-Serif" font-size="10.00">iostream</text>
</a>
</g>
</g>
<!-- Node1&#45;&gt;Node40 -->
<g id="edge81" class="edge">
<title>Node1&#45;&gt;Node40</title>
<path fill="none" stroke="midnightblue" d="M1579.64,-392.44C1600.29,-383.6 1632.74,-369.69 1656.31,-359.59"/>
<polygon fill="midnightblue" stroke="midnightblue" points="1657.99,-362.67 1665.81,-355.52 1655.24,-356.24 1657.99,-362.67"/>
</g>
<!-- Node41 -->
<g id="node41" class="node">
<title>Node41</title>
<g id="a_node41"><a xlink:title=" ">
<polygon fill="white" stroke="#bfbfbf" points="1733.68,-336.5 1733.68,-355.5 1871.68,-355.5 1871.68,-336.5 1733.68,-336.5"/>
<text text-anchor="middle" x="1802.68" y="-343.5" font-family="Helvetica,sans-Serif" font-size="10.00">QtWidgets/QTableWidget</text>
</a>
</g>
</g>
<!-- Node1&#45;&gt;Node41 -->
<g id="edge82" class="edge">
<title>Node1&#45;&gt;Node41</title>
<path fill="none" stroke="midnightblue" d="M1598.18,-392.44C1640.48,-383.04 1708.5,-367.93 1754.35,-357.74"/>
<polygon fill="midnightblue" stroke="midnightblue" points="1755.35,-361.1 1764.35,-355.52 1753.83,-354.27 1755.35,-361.1"/>
</g>
<!-- Node42 -->
<g id="node42" class="node">
<title>Node42</title>
<g id="a_node42"><a xlink:href="Utility_8hpp.html" target="_top" xlink:title=" ">
<polygon fill="white" stroke="black" points="1489.68,-56.5 1489.68,-75.5 1597.68,-75.5 1597.68,-56.5 1489.68,-56.5"/>
<text text-anchor="middle" x="1543.68" y="-63.5" font-family="Helvetica,sans-Serif" font-size="10.00">../Utility/Utility.hpp</text>
</a>
</g>
</g>
<!-- Node1&#45;&gt;Node42 -->
<g id="edge83" class="edge">
<title>Node1&#45;&gt;Node42</title>
<path fill="none" stroke="midnightblue" d="M1554.39,-392.23C1543.95,-374.04 1521.68,-330.6 1521.68,-291 1521.68,-291 1521.68,-291 1521.68,-177 1521.68,-144.33 1531.13,-107.24 1537.64,-85.55"/>
<polygon fill="midnightblue" stroke="midnightblue" points="1541.07,-86.31 1540.71,-75.72 1534.39,-84.22 1541.07,-86.31"/>
</g>
<!-- Node3 -->
<g id="node3" class="node">
<title>Node3</title>
<g id="a_node3"><a xlink:title=" ">
<polygon fill="white" stroke="#bfbfbf" points="1563.18,-168.5 1563.18,-187.5 1704.18,-187.5 1704.18,-168.5 1563.18,-168.5"/>
<text text-anchor="middle" x="1633.68" y="-175.5" font-family="Helvetica,sans-Serif" font-size="10.00">QtWidgets/QMainWindow</text>
</a>
</g>
</g>
<!-- Node2&#45;&gt;Node3 -->
<g id="edge2" class="edge">
<title>Node2&#45;&gt;Node3</title>
<path fill="none" stroke="midnightblue" d="M1734.02,-285.04C1679.18,-279.63 1597.83,-267.77 1578.68,-244 1564.21,-226.05 1587.77,-205.85 1608.4,-192.81"/>
<polygon fill="midnightblue" stroke="midnightblue" points="1610.46,-195.65 1617.24,-187.51 1606.86,-189.65 1610.46,-195.65"/>
</g>
<!-- Node4 -->
<g id="node4" class="node">
<title>Node4</title>
<g id="a_node4"><a xlink:href="PPU_8hpp.html" target="_top" xlink:title=" ">
<polygon fill="white" stroke="black" points="593.18,-224.5 593.18,-243.5 682.18,-243.5 682.18,-224.5 593.18,-224.5"/>
<text text-anchor="middle" x="637.68" y="-231.5" font-family="Helvetica,sans-Serif" font-size="10.00">../PPU/PPU.hpp</text>
</a>
</g>
</g>
<!-- Node2&#45;&gt;Node4 -->
<g id="edge3" class="edge">
<title>Node2&#45;&gt;Node4</title>
<path fill="none" stroke="midnightblue" d="M1733.99,-287.32C1583.28,-282.3 1131.3,-266.35 756.68,-244 735.62,-242.74 712.5,-241.06 692.27,-239.49"/>
<polygon fill="midnightblue" stroke="midnightblue" points="692.54,-236.01 682.3,-238.71 691.99,-242.98 692.54,-236.01"/>
</g>
<!-- Node21 -->
<g id="node21" class="node">
<title>Node21</title>
<g id="a_node21"><a xlink:title=" ">
<polygon fill="white" stroke="#bfbfbf" points="1723.68,-224.5 1723.68,-243.5 1847.68,-243.5 1847.68,-224.5 1723.68,-224.5"/>
<text text-anchor="middle" x="1785.68" y="-231.5" font-family="Helvetica,sans-Serif" font-size="10.00">../../ui/ui_cgramView.h</text>
</a>
</g>
</g>
<!-- Node2&#45;&gt;Node21 -->
<g id="edge34" class="edge">
<title>Node2&#45;&gt;Node21</title>
<path fill="none" stroke="midnightblue" d="M1785.68,-280.08C1785.68,-273.01 1785.68,-262.86 1785.68,-253.99"/>
<polygon fill="midnightblue" stroke="midnightblue" points="1789.18,-253.75 1785.68,-243.75 1782.18,-253.75 1789.18,-253.75"/>
</g>
<!-- Node22 -->
<g id="node22" class="node">
<title>Node22</title>
<g id="a_node22"><a xlink:title=" ">
<polygon fill="white" stroke="#bfbfbf" points="1866.18,-224.5 1866.18,-243.5 2029.18,-243.5 2029.18,-224.5 1866.18,-224.5"/>
<text text-anchor="middle" x="1947.68" y="-231.5" font-family="Helvetica,sans-Serif" font-size="10.00">QtCore/QSortFilterProxyModel</text>
</a>
</g>
</g>
<!-- Node2&#45;&gt;Node22 -->
<g id="edge35" class="edge">
<title>Node2&#45;&gt;Node22</title>
<path fill="none" stroke="midnightblue" d="M1811.35,-280.44C1838.6,-271.36 1881.86,-256.94 1912.33,-246.78"/>
<polygon fill="midnightblue" stroke="midnightblue" points="1913.75,-250 1922.13,-243.52 1911.54,-243.36 1913.75,-250"/>
</g>
<!-- Node23 -->
<g id="node23" class="node">
<title>Node23</title>
<g id="a_node23"><a xlink:title=" ">
<polygon fill="white" stroke="#bfbfbf" points="2047.68,-224.5 2047.68,-243.5 2099.68,-243.5 2099.68,-224.5 2047.68,-224.5"/>
<text text-anchor="middle" x="2073.68" y="-231.5" font-family="Helvetica,sans-Serif" font-size="10.00">QEvent</text>
</a>
</g>
</g>
<!-- Node2&#45;&gt;Node23 -->
<g id="edge36" class="edge">
<title>Node2&#45;&gt;Node23</title>
<path fill="none" stroke="midnightblue" d="M1837.27,-281C1886.35,-273.12 1962.47,-260.22 2037.29,-244.18"/>
<polygon fill="midnightblue" stroke="midnightblue" points="2038.32,-247.53 2047.36,-242 2036.84,-240.69 2038.32,-247.53"/>
</g>
<!-- Node24 -->
<g id="node24" class="node">
<title>Node24</title>
<g id="a_node24"><a xlink:title=" ">
<polygon fill="white" stroke="#bfbfbf" points="2117.68,-224.5 2117.68,-243.5 2201.68,-243.5 2201.68,-224.5 2117.68,-224.5"/>
<text text-anchor="middle" x="2159.68" y="-231.5" font-family="Helvetica,sans-Serif" font-size="10.00">QMouseEvent</text>
</a>
</g>
</g>
<!-- Node2&#45;&gt;Node24 -->
<g id="edge37" class="edge">
<title>Node2&#45;&gt;Node24</title>
<path fill="none" stroke="midnightblue" d="M1837.23,-282.4C1899,-274.37 2005.88,-260.06 2107.54,-244.13"/>
<polygon fill="midnightblue" stroke="midnightblue" points="2108.34,-247.55 2117.67,-242.54 2107.25,-240.63 2108.34,-247.55"/>
</g>
<!-- Node25 -->
<g id="node25" class="node">
<title>Node25</title>
<g id="a_node25"><a xlink:title=" ">
<polygon fill="white" stroke="#bfbfbf" points="2219.68,-224.5 2219.68,-243.5 2293.68,-243.5 2293.68,-224.5 2219.68,-224.5"/>
<text text-anchor="middle" x="2256.68" y="-231.5" font-family="Helvetica,sans-Serif" font-size="10.00">QTableView</text>
</a>
</g>
</g>
<!-- Node2&#45;&gt;Node25 -->
<g id="edge38" class="edge">
<title>Node2&#45;&gt;Node25</title>
<path fill="none" stroke="midnightblue" d="M1837.22,-285.01C1915.48,-278.63 2069.17,-264.84 2209.49,-244.06"/>
<polygon fill="midnightblue" stroke="midnightblue" points="2210.2,-247.49 2219.57,-242.55 2209.16,-240.57 2210.2,-247.49"/>
</g>
<!-- Node26 -->
<g id="node26" class="node">
<title>Node26</title>
<g id="a_node26"><a xlink:href="ClosableWindow_8hpp.html" target="_top" xlink:title=" ">
<polygon fill="white" stroke="black" points="1587.68,-224.5 1587.68,-243.5 1705.68,-243.5 1705.68,-224.5 1587.68,-224.5"/>
<text text-anchor="middle" x="1646.68" y="-231.5" font-family="Helvetica,sans-Serif" font-size="10.00">ClosableWindow.hpp</text>
</a>
</g>
</g>
<!-- Node2&#45;&gt;Node26 -->
<g id="edge39" class="edge">
<title>Node2&#45;&gt;Node26</title>
<path fill="none" stroke="midnightblue" d="M1763.65,-280.44C1740.57,-271.48 1704.12,-257.31 1678.04,-247.18"/>
<polygon fill="midnightblue" stroke="midnightblue" points="1679.19,-243.88 1668.6,-243.52 1676.65,-250.4 1679.19,-243.88"/>
</g>
<!-- Node5 -->
<g id="node5" class="node">
<title>Node5</title>
<g id="a_node5"><a xlink:title=" ">
<polygon fill="white" stroke="#bfbfbf" points="220.68,-0.5 220.68,-19.5 270.68,-19.5 270.68,-0.5 220.68,-0.5"/>
<text text-anchor="middle" x="245.68" y="-7.5" font-family="Helvetica,sans-Serif" font-size="10.00">cstdint</text>
</a>
</g>
</g>
<!-- Node4&#45;&gt;Node5 -->
<g id="edge4" class="edge">
<title>Node4&#45;&gt;Node5</title>
<path fill="none" stroke="midnightblue" d="M629.62,-224.27C609.32,-202.68 553.65,-146.08 497.68,-112 478,-100.02 341.36,-47.41 277.91,-23.23"/>
<polygon fill="midnightblue" stroke="midnightblue" points="278.98,-19.9 268.39,-19.61 276.49,-26.44 278.98,-19.9"/>
</g>
<!-- Node6 -->
<g id="node6" class="node">
<title>Node6</title>
<g id="a_node6"><a xlink:href="AMemory_8hpp.html" target="_top" xlink:title=" ">
<polygon fill="white" stroke="black" points="352.68,-112.5 352.68,-131.5 488.68,-131.5 488.68,-112.5 352.68,-112.5"/>
<text text-anchor="middle" x="420.68" y="-119.5" font-family="Helvetica,sans-Serif" font-size="10.00">../Memory/AMemory.hpp</text>
</a>
</g>
</g>
<!-- Node4&#45;&gt;Node6 -->
<g id="edge5" class="edge">
<title>Node4&#45;&gt;Node6</title>
<path fill="none" stroke="midnightblue" d="M620.65,-224.37C582.86,-205.21 491.77,-159.04 446.75,-136.22"/>
<polygon fill="midnightblue" stroke="midnightblue" points="448.13,-132.99 437.63,-131.59 444.96,-139.23 448.13,-132.99"/>
</g>
<!-- Node13 -->
<g id="node13" class="node">
<title>Node13</title>
<g id="a_node13"><a xlink:href="MemoryBus_8hpp.html" target="_top" xlink:title=" ">
<polygon fill="white" stroke="black" points="158.18,-168.5 158.18,-187.5 307.18,-187.5 307.18,-168.5 158.18,-168.5"/>
<text text-anchor="middle" x="232.68" y="-175.5" font-family="Helvetica,sans-Serif" font-size="10.00">../Memory/MemoryBus.hpp</text>
</a>
</g>
</g>
<!-- Node4&#45;&gt;Node13 -->
<g id="edge19" class="edge">
<title>Node4&#45;&gt;Node13</title>
<path fill="none" stroke="midnightblue" d="M593.18,-227.07C524.07,-217.85 390.2,-200 306.47,-188.84"/>
<polygon fill="midnightblue" stroke="midnightblue" points="306.89,-185.36 296.51,-187.51 305.96,-192.3 306.89,-185.36"/>
</g>
<!-- Node14 -->
<g id="node14" class="node">
<title>Node14</title>
<g id="a_node14"><a xlink:href="IRenderer_8hpp.html" target="_top" xlink:title=" ">
<polygon fill="white" stroke="black" points="640.68,-168.5 640.68,-187.5 780.68,-187.5 780.68,-168.5 640.68,-168.5"/>
<text text-anchor="middle" x="710.68" y="-175.5" font-family="Helvetica,sans-Serif" font-size="10.00">../Renderer/IRenderer.hpp</text>
</a>
</g>
</g>
<!-- Node4&#45;&gt;Node14 -->
<g id="edge24" class="edge">
<title>Node4&#45;&gt;Node14</title>
<path fill="none" stroke="midnightblue" d="M649.41,-224.32C660.52,-216.11 677.42,-203.6 690.66,-193.81"/>
<polygon fill="midnightblue" stroke="midnightblue" points="692.78,-196.59 698.74,-187.83 688.62,-190.97 692.78,-196.59"/>
</g>
<!-- Node16 -->
<g id="node16" class="node">
<title>Node16</title>
<g id="a_node16"><a xlink:href="Ram_8hpp.html" target="_top" xlink:title=" ">
<polygon fill="white" stroke="black" points="875.18,-168.5 875.18,-187.5 970.18,-187.5 970.18,-168.5 875.18,-168.5"/>
<text text-anchor="middle" x="922.68" y="-175.5" font-family="Helvetica,sans-Serif" font-size="10.00">../Ram/Ram.hpp</text>
</a>
</g>
</g>
<!-- Node4&#45;&gt;Node16 -->
<g id="edge27" class="edge">
<title>Node4&#45;&gt;Node16</title>
<path fill="none" stroke="midnightblue" d="M682.21,-224.56C732.22,-215.09 813.42,-199.7 867.43,-189.47"/>
<polygon fill="midnightblue" stroke="midnightblue" points="868.35,-192.86 877.52,-187.56 867.04,-185.98 868.35,-192.86"/>
</g>
<!-- Node18 -->
<g id="node18" class="node">
<title>Node18</title>
<g id="a_node18"><a xlink:href="Vector2_8hpp.html" target="_top" xlink:title=" ">
<polygon fill="white" stroke="black" points="1236.68,-168.5 1236.68,-187.5 1358.68,-187.5 1358.68,-168.5 1236.68,-168.5"/>
<text text-anchor="middle" x="1297.68" y="-175.5" font-family="Helvetica,sans-Serif" font-size="10.00">../Models/Vector2.hpp</text>
</a>
</g>
</g>
<!-- Node4&#45;&gt;Node18 -->
<g id="edge31" class="edge">
<title>Node4&#45;&gt;Node18</title>
<path fill="none" stroke="midnightblue" d="M682.27,-229.35C794.45,-220.17 1089.21,-196.06 1226.02,-184.86"/>
<polygon fill="midnightblue" stroke="midnightblue" points="1226.7,-188.32 1236.38,-184.02 1226.13,-181.34 1226.7,-188.32"/>
</g>
<!-- Node6&#45;&gt;Node5 -->
<g id="edge6" class="edge">
<title>Node6&#45;&gt;Node5</title>
<path fill="none" stroke="midnightblue" d="M405.92,-112.36C390.73,-103.41 366.41,-88.95 345.68,-76 318.27,-58.88 287.1,-38.47 266.96,-25.15"/>
<polygon fill="midnightblue" stroke="midnightblue" points="268.8,-22.17 258.53,-19.56 264.93,-28 268.8,-22.17"/>
</g>
<!-- Node7 -->
<g id="node7" class="node">
<title>Node7</title>
<g id="a_node7"><a xlink:title=" ">
<polygon fill="white" stroke="#bfbfbf" points="374.18,-0.5 374.18,-19.5 421.18,-19.5 421.18,-0.5 374.18,-0.5"/>
<text text-anchor="middle" x="397.68" y="-7.5" font-family="Helvetica,sans-Serif" font-size="10.00">vector</text>
</a>
</g>
</g>
<!-- Node6&#45;&gt;Node7 -->
<g id="edge7" class="edge">
<title>Node6&#45;&gt;Node7</title>
<path fill="none" stroke="midnightblue" d="M418.87,-112.37C415.16,-94.62 406.6,-53.67 401.57,-29.6"/>
<polygon fill="midnightblue" stroke="midnightblue" points="404.95,-28.66 399.47,-19.59 398.1,-30.1 404.95,-28.66"/>
</g>
<!-- Node8 -->
<g id="node8" class="node">
<title>Node8</title>
<g id="a_node8"><a xlink:title=" ">
<polygon fill="white" stroke="#bfbfbf" points="102.68,-0.5 102.68,-19.5 160.68,-19.5 160.68,-0.5 102.68,-0.5"/>
<text text-anchor="middle" x="131.68" y="-7.5" font-family="Helvetica,sans-Serif" font-size="10.00">memory</text>
</a>
</g>
</g>
<!-- Node6&#45;&gt;Node8 -->
<g id="edge8" class="edge">
<title>Node6&#45;&gt;Node8</title>
<path fill="none" stroke="midnightblue" d="M398,-112.37C346.93,-92.93 222.78,-45.67 163.8,-23.23"/>
<polygon fill="midnightblue" stroke="midnightblue" points="164.84,-19.88 154.25,-19.59 162.35,-26.42 164.84,-19.88"/>
</g>
<!-- Node6&#45;&gt;Node9 -->
<g id="edge9" class="edge">
<title>Node6&#45;&gt;Node9</title>
<path fill="none" stroke="midnightblue" d="M455.58,-112.48C512.46,-98.84 628.86,-72.04 728.68,-56 866.59,-33.84 1032.67,-19.09 1101.44,-13.51"/>
<polygon fill="midnightblue" stroke="midnightblue" points="1101.94,-16.98 1111.63,-12.69 1101.38,-10 1101.94,-16.98"/>
</g>
<!-- Node10 -->
<g id="node10" class="node">
<title>Node10</title>
<g id="a_node10"><a xlink:href="Int24_8hpp.html" target="_top" xlink:title=" ">
<polygon fill="white" stroke="black" points="630.68,-0.5 630.68,-19.5 740.68,-19.5 740.68,-0.5 630.68,-0.5"/>
<text text-anchor="middle" x="685.68" y="-7.5" font-family="Helvetica,sans-Serif" font-size="10.00">../Models/Int24.hpp</text>
</a>
</g>
</g>
<!-- Node6&#45;&gt;Node10 -->
<g id="edge10" class="edge">
<title>Node6&#45;&gt;Node10</title>
<path fill="none" stroke="midnightblue" d="M442.83,-112.37C465.66,-103.43 502.25,-88.97 533.68,-76 576.77,-58.21 626.37,-36.83 656.87,-23.58"/>
<polygon fill="midnightblue" stroke="midnightblue" points="658.3,-26.77 666.07,-19.57 655.5,-20.35 658.3,-26.77"/>
</g>
<!-- Node11 -->
<g id="node11" class="node">
<title>Node11</title>
<g id="a_node11"><a xlink:href="Components_8hpp.html" target="_top" xlink:title=" ">
<polygon fill="white" stroke="black" points="450.68,-0.5 450.68,-19.5 596.68,-19.5 596.68,-0.5 450.68,-0.5"/>
<text text-anchor="middle" x="523.68" y="-7.5" font-family="Helvetica,sans-Serif" font-size="10.00">../Models/Components.hpp</text>
</a>
</g>
</g>
<!-- Node6&#45;&gt;Node11 -->
<g id="edge11" class="edge">
<title>Node6&#45;&gt;Node11</title>
<path fill="none" stroke="midnightblue" d="M457.9,-112.37C477.88,-105.77 501.12,-94.55 514.68,-76 524.34,-62.78 525.99,-43.91 525.58,-29.9"/>
<polygon fill="midnightblue" stroke="midnightblue" points="529.04,-29.26 524.88,-19.52 522.06,-29.73 529.04,-29.26"/>
</g>
<!-- Node12 -->
<g id="node12" class="node">
<title>Node12</title>
<g id="a_node12"><a xlink:href="IMemory_8hpp.html" target="_top" xlink:title=" ">
<polygon fill="white" stroke="black" points="425.68,-56.5 425.68,-75.5 505.68,-75.5 505.68,-56.5 425.68,-56.5"/>
<text text-anchor="middle" x="465.68" y="-63.5" font-family="Helvetica,sans-Serif" font-size="10.00">IMemory.hpp</text>
</a>
</g>
</g>
<!-- Node6&#45;&gt;Node12 -->
<g id="edge12" class="edge">
<title>Node6&#45;&gt;Node12</title>
<path fill="none" stroke="midnightblue" d="M428.11,-112.08C434.53,-104.38 443.98,-93.03 451.8,-83.65"/>
<polygon fill="midnightblue" stroke="midnightblue" points="454.67,-85.67 458.39,-75.75 449.3,-81.19 454.67,-85.67"/>
</g>
<!-- Node12&#45;&gt;Node5 -->
<g id="edge13" class="edge">
<title>Node12&#45;&gt;Node5</title>
<path fill="none" stroke="midnightblue" d="M430.82,-56.44C389.72,-46.35 321.8,-29.68 280.65,-19.58"/>
<polygon fill="midnightblue" stroke="midnightblue" points="281.34,-16.15 270.79,-17.16 279.67,-22.95 281.34,-16.15"/>
</g>
<!-- Node12&#45;&gt;Node7 -->
<g id="edge14" class="edge">
<title>Node12&#45;&gt;Node7</title>
<path fill="none" stroke="midnightblue" d="M454.75,-56.32C444.5,-48.18 428.96,-35.84 416.68,-26.09"/>
<polygon fill="midnightblue" stroke="midnightblue" points="418.81,-23.31 408.8,-19.83 414.46,-28.79 418.81,-23.31"/>
</g>
<!-- Node12&#45;&gt;Node8 -->
<g id="edge15" class="edge">
<title>Node12&#45;&gt;Node8</title>
<path fill="none" stroke="midnightblue" d="M425.39,-58.49C360.8,-48.04 234.86,-27.68 170.93,-17.35"/>
<polygon fill="midnightblue" stroke="midnightblue" points="171.28,-13.86 160.85,-15.72 170.16,-20.77 171.28,-13.86"/>
</g>
<!-- Node12&#45;&gt;Node9 -->
<g id="edge16" class="edge">
<title>Node12&#45;&gt;Node9</title>
<path fill="none" stroke="midnightblue" d="M505.96,-61.74C627.85,-51.89 991.11,-22.53 1101.5,-13.6"/>
<polygon fill="midnightblue" stroke="midnightblue" points="1101.99,-17.07 1111.67,-12.78 1101.42,-10.1 1101.99,-17.07"/>
</g>
<!-- Node12&#45;&gt;Node10 -->
<g id="edge17" class="edge">
<title>Node12&#45;&gt;Node10</title>
<path fill="none" stroke="midnightblue" d="M500.54,-56.44C538.59,-47.1 599.64,-32.12 641.14,-21.93"/>
<polygon fill="midnightblue" stroke="midnightblue" points="642.1,-25.3 650.98,-19.52 640.44,-18.5 642.1,-25.3"/>
</g>
<!-- Node12&#45;&gt;Node11 -->
<g id="edge18" class="edge">
<title>Node12&#45;&gt;Node11</title>
<path fill="none" stroke="midnightblue" d="M475,-56.32C483.57,-48.34 496.49,-36.31 506.87,-26.65"/>
<polygon fill="midnightblue" stroke="midnightblue" points="509.26,-29.21 514.19,-19.83 504.49,-24.09 509.26,-29.21"/>
</g>
<!-- Node13&#45;&gt;Node5 -->
<g id="edge20" class="edge">
<title>Node13&#45;&gt;Node5</title>
<path fill="none" stroke="midnightblue" d="M233.38,-168.08C235.42,-141.95 241.43,-65.21 244.22,-29.58"/>
<polygon fill="midnightblue" stroke="midnightblue" points="247.72,-29.81 245.01,-19.57 240.74,-29.26 247.72,-29.81"/>
</g>
<!-- Node13&#45;&gt;Node6 -->
<g id="edge23" class="edge">
<title>Node13&#45;&gt;Node6</title>
<path fill="none" stroke="midnightblue" d="M262.47,-168.44C294.51,-159.24 345.61,-144.56 381.03,-134.39"/>
<polygon fill="midnightblue" stroke="midnightblue" points="382.38,-137.64 391.03,-131.52 380.45,-130.91 382.38,-137.64"/>
</g>
<!-- Node13&#45;&gt;Node7 -->
<g id="edge21" class="edge">
<title>Node13&#45;&gt;Node7</title>
<path fill="none" stroke="midnightblue" d="M241.55,-168.08C268.2,-141.27 347.79,-61.19 381.89,-26.89"/>
<polygon fill="midnightblue" stroke="midnightblue" points="384.59,-29.13 389.16,-19.57 379.63,-24.19 384.59,-29.13"/>
</g>
<!-- Node13&#45;&gt;Node8 -->
<g id="edge22" class="edge">
<title>Node13&#45;&gt;Node8</title>
<path fill="none" stroke="midnightblue" d="M227.25,-168.08C211.14,-141.61 163.44,-63.21 142.15,-28.21"/>
<polygon fill="midnightblue" stroke="midnightblue" points="145.08,-26.29 136.89,-19.57 139.1,-29.93 145.08,-26.29"/>
</g>
<!-- Node14&#45;&gt;Node9 -->
<g id="edge25" class="edge">
<title>Node14&#45;&gt;Node9</title>
<path fill="none" stroke="midnightblue" d="M714.91,-168.38C722.25,-154.37 738.67,-126.73 760.68,-112 870.76,-38.33 1032.91,-18.22 1101.33,-12.87"/>
<polygon fill="midnightblue" stroke="midnightblue" points="1101.77,-16.35 1111.49,-12.14 1101.26,-9.37 1101.77,-16.35"/>
</g>
<!-- Node15 -->
<g id="node15" class="node">
<title>Node15</title>
<g id="a_node15"><a xlink:title=" ">
<polygon fill="white" stroke="#bfbfbf" points="674.68,-112.5 674.68,-131.5 714.68,-131.5 714.68,-112.5 674.68,-112.5"/>
<text text-anchor="middle" x="694.68" y="-119.5" font-family="Helvetica,sans-Serif" font-size="10.00">span</text>
</a>
</g>
</g>
<!-- Node14&#45;&gt;Node15 -->
<g id="edge26" class="edge">
<title>Node14&#45;&gt;Node15</title>
<path fill="none" stroke="midnightblue" d="M708.04,-168.08C705.89,-160.85 702.8,-150.41 700.13,-141.4"/>
<polygon fill="midnightblue" stroke="midnightblue" points="703.47,-140.34 697.27,-131.75 696.76,-142.33 703.47,-140.34"/>
</g>
<!-- Node16&#45;&gt;Node9 -->
<g id="edge30" class="edge">
<title>Node16&#45;&gt;Node9</title>
<path fill="none" stroke="midnightblue" d="M951.86,-168.42C1008.03,-151.26 1127.71,-111.29 1150.68,-76 1160.09,-61.54 1152.95,-42.1 1145.25,-28.25"/>
<polygon fill="midnightblue" stroke="midnightblue" points="1148.22,-26.4 1140.02,-19.69 1142.25,-30.05 1148.22,-26.4"/>
</g>
<!-- Node17 -->
<g id="node17" class="node">
<title>Node17</title>
<g id="a_node17"><a xlink:href="ARectangleMemory_8hpp.html" target="_top" xlink:title=" ">
<polygon fill="white" stroke="black" points="770.18,-112.5 770.18,-131.5 955.18,-131.5 955.18,-112.5 770.18,-112.5"/>
<text text-anchor="middle" x="862.68" y="-119.5" font-family="Helvetica,sans-Serif" font-size="10.00">../Memory/ARectangleMemory.hpp</text>
</a>
</g>
</g>
<!-- Node16&#45;&gt;Node17 -->
<g id="edge28" class="edge">
<title>Node16&#45;&gt;Node17</title>
<path fill="none" stroke="midnightblue" d="M913.04,-168.32C904.17,-160.34 890.8,-148.31 880.07,-138.65"/>
<polygon fill="midnightblue" stroke="midnightblue" points="882.27,-135.92 872.49,-131.83 877.59,-141.13 882.27,-135.92"/>
</g>
<!-- Node17&#45;&gt;Node12 -->
<g id="edge29" class="edge">
<title>Node17&#45;&gt;Node12</title>
<path fill="none" stroke="midnightblue" d="M799.77,-112.44C721.21,-101.76 588.36,-83.69 516.12,-73.86"/>
<polygon fill="midnightblue" stroke="midnightblue" points="516.3,-70.35 505.92,-72.47 515.36,-77.29 516.3,-70.35"/>
</g>
<!-- Node19 -->
<g id="node19" class="node">
<title>Node19</title>
<g id="a_node19"><a xlink:title=" ">
<polygon fill="white" stroke="#bfbfbf" points="1237.18,-112.5 1237.18,-131.5 1294.18,-131.5 1294.18,-112.5 1237.18,-112.5"/>
<text text-anchor="middle" x="1265.68" y="-119.5" font-family="Helvetica,sans-Serif" font-size="10.00">ostream</text>
</a>
</g>
</g>
<!-- Node18&#45;&gt;Node19 -->
<g id="edge32" class="edge">
<title>Node18&#45;&gt;Node19</title>
<path fill="none" stroke="midnightblue" d="M1292.39,-168.08C1287.97,-160.61 1281.52,-149.72 1276.06,-140.52"/>
<polygon fill="midnightblue" stroke="midnightblue" points="1278.97,-138.57 1270.86,-131.75 1272.95,-142.14 1278.97,-138.57"/>
</g>
<!-- Node20 -->
<g id="node20" class="node">
<title>Node20</title>
<g id="a_node20"><a xlink:title=" ">
<polygon fill="white" stroke="#bfbfbf" points="1312.18,-112.5 1312.18,-131.5 1455.18,-131.5 1455.18,-112.5 1312.18,-112.5"/>
<text text-anchor="middle" x="1383.68" y="-119.5" font-family="Helvetica,sans-Serif" font-size="10.00">SFML/System/Vector2.hpp</text>
</a>
</g>
</g>
<!-- Node18&#45;&gt;Node20 -->
<g id="edge33" class="edge">
<title>Node18&#45;&gt;Node20</title>
<path fill="none" stroke="midnightblue" d="M1311.5,-168.32C1324.91,-159.9 1345.5,-146.97 1361.26,-137.07"/>
<polygon fill="midnightblue" stroke="midnightblue" points="1363.29,-139.94 1369.9,-131.65 1359.57,-134.01 1363.29,-139.94"/>
</g>
<!-- Node26&#45;&gt;Node3 -->
<g id="edge40" class="edge">
<title>Node26&#45;&gt;Node3</title>
<path fill="none" stroke="midnightblue" d="M1644.53,-224.08C1642.81,-216.93 1640.33,-206.64 1638.18,-197.69"/>
<polygon fill="midnightblue" stroke="midnightblue" points="1641.53,-196.65 1635.79,-187.75 1634.72,-198.29 1641.53,-196.65"/>
</g>
<!-- Node27&#45;&gt;Node4 -->
<g id="edge64" class="edge">
<title>Node27&#45;&gt;Node4</title>
<path fill="none" stroke="midnightblue" d="M637.68,-336.37C637.68,-318.62 637.68,-277.67 637.68,-253.6"/>
<polygon fill="midnightblue" stroke="midnightblue" points="641.18,-253.59 637.68,-243.59 634.18,-253.59 641.18,-253.59"/>
</g>
<!-- Node27&#45;&gt;Node13 -->
<g id="edge42" class="edge">
<title>Node27&#45;&gt;Node13</title>
<path fill="none" stroke="midnightblue" d="M601.52,-340.5C537.04,-331.14 399.76,-305.15 301.68,-244 280.2,-230.61 259.62,-209.84 246.62,-195.4"/>
<polygon fill="midnightblue" stroke="midnightblue" points="249.11,-192.94 239.88,-187.73 243.85,-197.56 249.11,-192.94"/>
</g>
<!-- Node27&#45;&gt;Node14 -->
<g id="edge76" class="edge">
<title>Node27&#45;&gt;Node14</title>
<path fill="none" stroke="midnightblue" d="M642.92,-336.35C653.15,-319.21 676.04,-279.52 690.68,-244 697,-228.65 702.42,-210.55 706.01,-197.35"/>
<polygon fill="midnightblue" stroke="midnightblue" points="709.42,-198.15 708.58,-187.59 702.65,-196.37 709.42,-198.15"/>
</g>
<!-- Node27&#45;&gt;Node16 -->
<g id="edge63" class="edge">
<title>Node27&#45;&gt;Node16</title>
<path fill="none" stroke="midnightblue" d="M673.73,-343.31C734.12,-338.38 854.94,-319.12 914.68,-244 924.95,-231.08 926.15,-211.91 925.25,-197.73"/>
<polygon fill="midnightblue" stroke="midnightblue" points="928.72,-197.24 924.23,-187.65 921.76,-197.95 928.72,-197.24"/>
</g>
<!-- Node28 -->
<g id="node28" class="node">
<title>Node28</title>
<g id="a_node28"><a xlink:href="CPU_8hpp.html" target="_top" xlink:title=" ">
<polygon fill="white" stroke="black" points="496.18,-280.5 496.18,-299.5 577.18,-299.5 577.18,-280.5 496.18,-280.5"/>
<text text-anchor="middle" x="536.68" y="-287.5" font-family="Helvetica,sans-Serif" font-size="10.00">CPU/CPU.hpp</text>
</a>
</g>
</g>
<!-- Node27&#45;&gt;Node28 -->
<g id="edge43" class="edge">
<title>Node27&#45;&gt;Node28</title>
<path fill="none" stroke="midnightblue" d="M621.45,-336.32C605.33,-327.7 580.38,-314.36 561.71,-304.39"/>
<polygon fill="midnightblue" stroke="midnightblue" points="563.33,-301.28 552.87,-299.65 560.03,-307.46 563.33,-301.28"/>
</g>
<!-- Node29 -->
<g id="node29" class="node">
<title>Node29</title>
<g id="a_node29"><a xlink:href="Cartridge_8hpp.html" target="_top" xlink:title=" ">
<polygon fill="white" stroke="black" points="765.68,-224.5 765.68,-243.5 905.68,-243.5 905.68,-224.5 765.68,-224.5"/>
<text text-anchor="middle" x="835.68" y="-231.5" font-family="Helvetica,sans-Serif" font-size="10.00">../Cartridge/Cartridge.hpp</text>
</a>
</g>
</g>
<!-- Node27&#45;&gt;Node29 -->
<g id="edge62" class="edge">
<title>Node27&#45;&gt;Node29</title>
<path fill="none" stroke="midnightblue" d="M654.82,-336.47C672.47,-327.6 700.7,-313.21 724.68,-300 755.49,-283.03 790.4,-262.34 812.71,-248.93"/>
<polygon fill="midnightblue" stroke="midnightblue" points="814.69,-251.82 821.45,-243.66 811.08,-245.82 814.69,-251.82"/>
</g>
<!-- Node33 -->
<g id="node33" class="node">
<title>Node33</title>
<g id="a_node33"><a xlink:href="APU_8hpp.html" target="_top" xlink:title=" ">
<polygon fill="white" stroke="black" points="354.18,-224.5 354.18,-243.5 435.18,-243.5 435.18,-224.5 354.18,-224.5"/>
<text text-anchor="middle" x="394.68" y="-231.5" font-family="Helvetica,sans-Serif" font-size="10.00">APU/APU.hpp</text>
</a>
</g>
</g>
<!-- Node27&#45;&gt;Node33 -->
<g id="edge65" class="edge">
<title>Node27&#45;&gt;Node33</title>
<path fill="none" stroke="midnightblue" d="M601.37,-337.68C569.99,-330.55 523.95,-318.11 486.68,-300 458.71,-286.41 430,-264.63 412.25,-250.07"/>
<polygon fill="midnightblue" stroke="midnightblue" points="414.39,-247.3 404.47,-243.58 409.91,-252.67 414.39,-247.3"/>
</g>
<!-- Node37 -->
<g id="node37" class="node">
<title>Node37</title>
<g id="a_node37"><a xlink:href="DebuggableError_8hpp.html" target="_top" xlink:title=" ">
<polygon fill="white" stroke="black" points="52.18,-280.5 52.18,-299.5 227.18,-299.5 227.18,-280.5 52.18,-280.5"/>
<text text-anchor="middle" x="139.68" y="-287.5" font-family="Helvetica,sans-Serif" font-size="10.00">Exceptions/DebuggableError.hpp</text>
</a>
</g>
</g>
<!-- Node27&#45;&gt;Node37 -->
<g id="edge77" class="edge">
<title>Node27&#45;&gt;Node37</title>
<path fill="none" stroke="midnightblue" d="M601.46,-341.07C523.76,-332.65 339.12,-312.63 228.29,-300.61"/>
<polygon fill="midnightblue" stroke="midnightblue" points="228.45,-297.11 218.13,-299.51 227.7,-304.06 228.45,-297.11"/>
</g>
<!-- Node28&#45;&gt;Node6 -->
<g id="edge44" class="edge">
<title>Node28&#45;&gt;Node6</title>
<path fill="none" stroke="midnightblue" d="M530.44,-280.08C511.95,-253.61 457.16,-175.21 432.7,-140.21"/>
<polygon fill="midnightblue" stroke="midnightblue" points="435.26,-137.76 426.67,-131.57 429.52,-141.77 435.26,-137.76"/>
</g>
<!-- Node28&#45;&gt;Node10 -->
<g id="edge46" class="edge">
<title>Node28&#45;&gt;Node10</title>
<path fill="none" stroke="midnightblue" d="M541.3,-280.38C562.16,-241.46 647.73,-81.81 676.32,-28.45"/>
<polygon fill="midnightblue" stroke="midnightblue" points="679.47,-29.99 681.11,-19.52 673.3,-26.68 679.47,-29.99"/>
</g>
<!-- Node28&#45;&gt;Node13 -->
<g id="edge45" class="edge">
<title>Node28&#45;&gt;Node13</title>
<path fill="none" stroke="midnightblue" d="M495.91,-283.04C456.31,-276.43 394.95,-263.97 344.68,-244 310.86,-230.57 275.03,-208.13 253.25,-193.45"/>
<polygon fill="midnightblue" stroke="midnightblue" points="255.05,-190.45 244.82,-187.68 251.1,-196.22 255.05,-190.45"/>
</g>
<!-- Node28&#45;&gt;Node29 -->
<g id="edge47" class="edge">
<title>Node28&#45;&gt;Node29</title>
<path fill="none" stroke="midnightblue" d="M577.31,-281.66C629.31,-272.27 719.69,-255.95 778.59,-245.31"/>
<polygon fill="midnightblue" stroke="midnightblue" points="779.26,-248.75 788.48,-243.52 778.01,-241.86 779.26,-248.75"/>
</g>
<!-- Node31 -->
<g id="node31" class="node">
<title>Node31</title>
<g id="a_node31"><a xlink:href="Instruction_8hpp.html" target="_top" xlink:title=" ">
<polygon fill="white" stroke="black" points="1053.18,-56.5 1053.18,-75.5 1142.18,-75.5 1142.18,-56.5 1053.18,-56.5"/>
<text text-anchor="middle" x="1097.68" y="-63.5" font-family="Helvetica,sans-Serif" font-size="10.00">Instruction.hpp</text>
</a>
</g>
</g>
<!-- Node28&#45;&gt;Node31 -->
<g id="edge54" class="edge">
<title>Node28&#45;&gt;Node31</title>
<path fill="none" stroke="midnightblue" d="M577.27,-288.85C699.99,-287.41 1062.82,-275.69 1130.68,-188 1154.89,-156.71 1128.11,-108.89 1110.53,-83.76"/>
<polygon fill="midnightblue" stroke="midnightblue" points="1113.3,-81.62 1104.57,-75.6 1107.64,-85.74 1113.3,-81.62"/>
</g>
<!-- Node32 -->
<g id="node32" class="node">
<title>Node32</title>
<g id="a_node32"><a xlink:href="DMA_8hpp.html" target="_top" xlink:title=" ">
<polygon fill="white" stroke="black" points="172.18,-224.5 172.18,-243.5 259.18,-243.5 259.18,-224.5 172.18,-224.5"/>
<text text-anchor="middle" x="215.68" y="-231.5" font-family="Helvetica,sans-Serif" font-size="10.00">DMA/DMA.hpp</text>
</a>
</g>
</g>
<!-- Node28&#45;&gt;Node32 -->
<g id="edge57" class="edge">
<title>Node28&#45;&gt;Node32</title>
<path fill="none" stroke="midnightblue" d="M496.02,-282.16C438.45,-272.48 333.09,-254.75 269.22,-244.01"/>
<polygon fill="midnightblue" stroke="midnightblue" points="269.78,-240.55 259.33,-242.34 268.61,-247.45 269.78,-240.55"/>
</g>
<!-- Node29&#45;&gt;Node6 -->
<g id="edge49" class="edge">
<title>Node29&#45;&gt;Node6</title>
<path fill="none" stroke="midnightblue" d="M832.39,-224.5C826.34,-210.13 812,-181.32 789.68,-168 742.14,-139.62 592.58,-129.07 499.1,-125.2"/>
<polygon fill="midnightblue" stroke="midnightblue" points="498.97,-121.69 488.84,-124.79 498.69,-128.68 498.97,-121.69"/>
</g>
<!-- Node29&#45;&gt;Node9 -->
<g id="edge48" class="edge">
<title>Node29&#45;&gt;Node9</title>
<path fill="none" stroke="midnightblue" d="M905.87,-230.59C982.16,-226.56 1097.63,-215.92 1130.68,-188 1177.22,-148.68 1187.05,-113.77 1167.68,-56 1164.07,-45.25 1156.78,-35.02 1149.86,-27.04"/>
<polygon fill="midnightblue" stroke="midnightblue" points="1152.33,-24.56 1142.97,-19.61 1147.2,-29.32 1152.33,-24.56"/>
</g>
<!-- Node29&#45;&gt;Node10 -->
<g id="edge50" class="edge">
<title>Node29&#45;&gt;Node10</title>
<path fill="none" stroke="midnightblue" d="M905.84,-231.64C979.28,-228.56 1087.49,-218.76 1113.68,-188 1119.44,-181.23 1118.75,-175.3 1113.68,-168 1031.3,-49.31 848.79,-20.06 750.83,-13.04"/>
<polygon fill="midnightblue" stroke="midnightblue" points="750.96,-9.55 740.76,-12.38 750.5,-16.53 750.96,-9.55"/>
</g>
<!-- Node29&#45;&gt;Node16 -->
<g id="edge53" class="edge">
<title>Node29&#45;&gt;Node16</title>
<path fill="none" stroke="midnightblue" d="M849.66,-224.32C863.23,-215.9 884.06,-202.97 900,-193.07"/>
<polygon fill="midnightblue" stroke="midnightblue" points="902.08,-195.9 908.74,-187.65 898.39,-189.95 902.08,-195.9"/>
</g>
<!-- Node29&#45;&gt;Node17 -->
<g id="edge51" class="edge">
<title>Node29&#45;&gt;Node17</title>
<path fill="none" stroke="midnightblue" d="M837.8,-224.37C842.15,-206.62 852.21,-165.67 858.11,-141.6"/>
<polygon fill="midnightblue" stroke="midnightblue" points="861.58,-142.14 860.57,-131.59 854.79,-140.47 861.58,-142.14"/>
</g>
<!-- Node30 -->
<g id="node30" class="node">
<title>Node30</title>
<g id="a_node30"><a xlink:href="InterruptVectors_8hpp.html" target="_top" xlink:title=" ">
<polygon fill="white" stroke="black" points="988.68,-168.5 988.68,-187.5 1104.68,-187.5 1104.68,-168.5 988.68,-168.5"/>
<text text-anchor="middle" x="1046.68" y="-175.5" font-family="Helvetica,sans-Serif" font-size="10.00">InterruptVectors.hpp</text>
</a>
</g>
</g>
<!-- Node29&#45;&gt;Node30 -->
<g id="edge52" class="edge">
<title>Node29&#45;&gt;Node30</title>
<path fill="none" stroke="midnightblue" d="M869.11,-224.44C905.53,-215.12 963.91,-200.18 1003.71,-190"/>
<polygon fill="midnightblue" stroke="midnightblue" points="1004.58,-193.39 1013.4,-187.52 1002.85,-186.61 1004.58,-193.39"/>
</g>
<!-- Node31&#45;&gt;Node9 -->
<g id="edge55" class="edge">
<title>Node31&#45;&gt;Node9</title>
<path fill="none" stroke="midnightblue" d="M1103.62,-56.08C1108.66,-48.53 1116.02,-37.49 1122.19,-28.23"/>
<polygon fill="midnightblue" stroke="midnightblue" points="1125.21,-30.01 1127.84,-19.75 1119.39,-26.13 1125.21,-30.01"/>
</g>
<!-- Node31&#45;&gt;Node10 -->
<g id="edge56" class="edge">
<title>Node31&#45;&gt;Node10</title>
<path fill="none" stroke="midnightblue" d="M1052.92,-58.05C1048.11,-57.34 1043.3,-56.65 1038.68,-56 938.37,-41.96 821.78,-27.45 750.88,-18.83"/>
<polygon fill="midnightblue" stroke="midnightblue" points="751.11,-15.33 740.76,-17.6 750.27,-22.28 751.11,-15.33"/>
</g>
<!-- Node32&#45;&gt;Node5 -->
<g id="edge58" class="edge">
<title>Node32&#45;&gt;Node5</title>
<path fill="none" stroke="midnightblue" d="M175.01,-224.45C129.23,-214.42 60.21,-197.9 52.68,-188 32.22,-161.12 35.19,-140.9 52.68,-112 87.09,-55.15 165.19,-28.76 210.79,-17.8"/>
<polygon fill="midnightblue" stroke="midnightblue" points="211.58,-21.21 220.54,-15.57 210.02,-14.38 211.58,-21.21"/>
</g>
<!-- Node32&#45;&gt;Node8 -->
<g id="edge59" class="edge">
<title>Node32&#45;&gt;Node8</title>
<path fill="none" stroke="midnightblue" d="M172.01,-224.56C122.32,-214.56 46.83,-197.99 37.68,-188 -2.3,-144.33 -13.48,-105.06 19.68,-56 35.87,-32.04 67.15,-20.84 92.54,-15.6"/>
<polygon fill="midnightblue" stroke="midnightblue" points="93.44,-18.99 102.65,-13.76 92.18,-12.11 93.44,-18.99"/>
</g>
<!-- Node32&#45;&gt;Node10 -->
<g id="edge60" class="edge">
<title>Node32&#45;&gt;Node10</title>
<path fill="none" stroke="midnightblue" d="M259.2,-229.82C305.76,-225.18 380.98,-214.05 440.68,-188 453.29,-182.5 609.75,-67.16 665.83,-25.69"/>
<polygon fill="midnightblue" stroke="midnightblue" points="667.98,-28.46 673.94,-19.7 663.82,-22.83 667.98,-28.46"/>
</g>
<!-- Node32&#45;&gt;Node13 -->
<g id="edge61" class="edge">
<title>Node32&#45;&gt;Node13</title>
<path fill="none" stroke="midnightblue" d="M218.49,-224.08C220.76,-216.85 224.05,-206.41 226.89,-197.4"/>
<polygon fill="midnightblue" stroke="midnightblue" points="230.26,-198.34 229.92,-187.75 223.58,-196.24 230.26,-198.34"/>
</g>
<!-- Node33&#45;&gt;Node6 -->
<g id="edge71" class="edge">
<title>Node33&#45;&gt;Node6</title>
<path fill="none" stroke="midnightblue" d="M382.47,-224.41C366.69,-212.2 342.51,-188.96 353.68,-168 361.23,-153.83 375.44,-143.33 388.84,-136.06"/>
<polygon fill="midnightblue" stroke="midnightblue" points="390.51,-139.13 397.89,-131.53 387.38,-132.87 390.51,-139.13"/>
</g>
<!-- Node33&#45;&gt;Node8 -->
<g id="edge66" class="edge">
<title>Node33&#45;&gt;Node8</title>
<path fill="none" stroke="midnightblue" d="M354.16,-229.1C265.74,-220.39 62.55,-199.26 52.68,-188 8.92,-138.11 79.45,-60.06 114.16,-26.83"/>
<polygon fill="midnightblue" stroke="midnightblue" points="116.83,-29.13 121.74,-19.74 112.05,-24.02 116.83,-29.13"/>
</g>
<!-- Node33&#45;&gt;Node14 -->
<g id="edge75" class="edge">
<title>Node33&#45;&gt;Node14</title>
<path fill="none" stroke="midnightblue" d="M435.34,-226.05C489.98,-216.71 587.49,-200.05 650.6,-189.27"/>
<polygon fill="midnightblue" stroke="midnightblue" points="651.54,-192.66 660.81,-187.52 650.36,-185.76 651.54,-192.66"/>
</g>
<!-- Node33&#45;&gt;Node16 -->
<g id="edge72" class="edge">
<title>Node33&#45;&gt;Node16</title>
<path fill="none" stroke="midnightblue" d="M435.23,-228.85C528.22,-219.34 757.07,-195.94 864.81,-184.92"/>
<polygon fill="midnightblue" stroke="midnightblue" points="865.26,-188.39 874.85,-183.89 864.55,-181.43 865.26,-188.39"/>
</g>
<!-- Node34 -->
<g id="node34" class="node">
<title>Node34</title>
<g id="a_node34"><a xlink:href="DSP_8hpp.html" target="_top" xlink:title=" ">
<polygon fill="white" stroke="black" points="61.68,-168.5 61.68,-187.5 139.68,-187.5 139.68,-168.5 61.68,-168.5"/>
<text text-anchor="middle" x="100.68" y="-175.5" font-family="Helvetica,sans-Serif" font-size="10.00">DSP/DSP.hpp</text>
</a>
</g>
</g>
<!-- Node33&#45;&gt;Node34 -->
<g id="edge67" class="edge">
<title>Node33&#45;&gt;Node34</title>
<path fill="none" stroke="midnightblue" d="M353.75,-225.57C306.93,-217.06 227.67,-202.61 149.7,-188.18"/>
<polygon fill="midnightblue" stroke="midnightblue" points="150.18,-184.71 139.71,-186.33 148.9,-191.6 150.18,-184.71"/>
</g>
<!-- Node36 -->
<g id="node36" class="node">
<title>Node36</title>
<g id="a_node36"><a xlink:href="IPL_8hpp.html" target="_top" xlink:title=" ">
<polygon fill="white" stroke="black" points="363.18,-168.5 363.18,-187.5 432.18,-187.5 432.18,-168.5 363.18,-168.5"/>
<text text-anchor="middle" x="397.68" y="-175.5" font-family="Helvetica,sans-Serif" font-size="10.00">IPL/IPL.hpp</text>
</a>
</g>
</g>
<!-- Node33&#45;&gt;Node36 -->
<g id="edge73" class="edge">
<title>Node33&#45;&gt;Node36</title>
<path fill="none" stroke="midnightblue" d="M395.17,-224.08C395.57,-217.01 396.13,-206.86 396.62,-197.99"/>
<polygon fill="midnightblue" stroke="midnightblue" points="400.13,-197.93 397.19,-187.75 393.14,-197.54 400.13,-197.93"/>
</g>
<!-- Node34&#45;&gt;Node5 -->
<g id="edge68" class="edge">
<title>Node34&#45;&gt;Node5</title>
<path fill="none" stroke="midnightblue" d="M108.47,-168.08C131.79,-141.38 201.25,-61.87 231.42,-27.32"/>
<polygon fill="midnightblue" stroke="midnightblue" points="234.25,-29.4 238.19,-19.57 228.98,-24.8 234.25,-29.4"/>
</g>
<!-- Node34&#45;&gt;Node6 -->
<g id="edge70" class="edge">
<title>Node34&#45;&gt;Node6</title>
<path fill="none" stroke="midnightblue" d="M139.7,-169.61C142.74,-169.06 145.76,-168.52 148.68,-168 220.01,-155.41 302.06,-141.98 357.22,-133.1"/>
<polygon fill="midnightblue" stroke="midnightblue" points="357.89,-136.54 367.2,-131.5 356.77,-129.63 357.89,-136.54"/>
</g>
<!-- Node35 -->
<g id="node35" class="node">
<title>Node35</title>
<g id="a_node35"><a xlink:title=" ">
<polygon fill="white" stroke="#bfbfbf" points="61.68,-112.5 61.68,-131.5 103.68,-131.5 103.68,-112.5 61.68,-112.5"/>
<text text-anchor="middle" x="82.68" y="-119.5" font-family="Helvetica,sans-Serif" font-size="10.00">array</text>
</a>
</g>
</g>
<!-- Node34&#45;&gt;Node35 -->
<g id="edge69" class="edge">
<title>Node34&#45;&gt;Node35</title>
<path fill="none" stroke="midnightblue" d="M97.71,-168.08C95.29,-160.85 91.81,-150.41 88.81,-141.4"/>
<polygon fill="midnightblue" stroke="midnightblue" points="92.08,-140.13 85.6,-131.75 85.44,-142.34 92.08,-140.13"/>
</g>
<!-- Node36&#45;&gt;Node6 -->
<g id="edge74" class="edge">
<title>Node36&#45;&gt;Node6</title>
<path fill="none" stroke="midnightblue" d="M401.48,-168.08C404.59,-160.77 409.1,-150.18 412.97,-141.1"/>
<polygon fill="midnightblue" stroke="midnightblue" points="416.25,-142.32 416.95,-131.75 409.81,-139.58 416.25,-142.32"/>
</g>
<!-- Node38 -->
<g id="node38" class="node">
<title>Node38</title>
<g id="a_node38"><a xlink:title=" ">
<polygon fill="white" stroke="#bfbfbf" points="59.18,-224.5 59.18,-243.5 154.18,-243.5 154.18,-224.5 59.18,-224.5"/>
<text text-anchor="middle" x="106.68" y="-231.5" font-family="Helvetica,sans-Serif" font-size="10.00">bits/exception.h</text>
</a>
</g>
</g>
<!-- Node37&#45;&gt;Node38 -->
<g id="edge78" class="edge">
<title>Node37&#45;&gt;Node38</title>
<path fill="none" stroke="midnightblue" d="M134.23,-280.08C129.66,-272.61 123.01,-261.72 117.38,-252.52"/>
<polygon fill="midnightblue" stroke="midnightblue" points="120.23,-250.46 112.03,-243.75 114.25,-254.11 120.23,-250.46"/>
</g>
<!-- Node42&#45;&gt;Node9 -->
<g id="edge84" class="edge">
<title>Node42&#45;&gt;Node9</title>
<path fill="none" stroke="midnightblue" d="M1489.49,-57.82C1484.82,-57.21 1480.16,-56.59 1475.68,-56 1361.7,-40.96 1226.34,-23.17 1165.77,-15.21"/>
<polygon fill="midnightblue" stroke="midnightblue" points="1166.06,-11.72 1155.69,-13.89 1165.14,-18.66 1166.06,-11.72"/>
</g>
<!-- Node42&#45;&gt;Node10 -->
<g id="edge87" class="edge">
<title>Node42&#45;&gt;Node10</title>
<path fill="none" stroke="midnightblue" d="M1489.36,-61.58C1338.5,-52.09 914.84,-25.42 751.26,-15.13"/>
<polygon fill="midnightblue" stroke="midnightblue" points="751.07,-11.61 740.87,-14.47 750.63,-18.59 751.07,-11.61"/>
</g>
<!-- Node43 -->
<g id="node43" class="node">
<title>Node43</title>
<g id="a_node43"><a xlink:title=" ">
<polygon fill="white" stroke="#bfbfbf" points="1497.18,-0.5 1497.18,-19.5 1528.18,-19.5 1528.18,-0.5 1497.18,-0.5"/>
<text text-anchor="middle" x="1512.68" y="-7.5" font-family="Helvetica,sans-Serif" font-size="10.00">ios</text>
</a>
</g>
</g>
<!-- Node42&#45;&gt;Node43 -->
<g id="edge85" class="edge">
<title>Node42&#45;&gt;Node43</title>
<path fill="none" stroke="midnightblue" d="M1538.56,-56.08C1534.27,-48.61 1528.02,-37.72 1522.74,-28.52"/>
<polygon fill="midnightblue" stroke="midnightblue" points="1525.72,-26.68 1517.7,-19.75 1519.65,-30.17 1525.72,-26.68"/>
</g>
<!-- Node44 -->
<g id="node44" class="node">
<title>Node44</title>
<g id="a_node44"><a xlink:title=" ">
<polygon fill="white" stroke="#bfbfbf" points="1546.68,-0.5 1546.68,-19.5 1602.68,-19.5 1602.68,-0.5 1546.68,-0.5"/>
<text text-anchor="middle" x="1574.68" y="-7.5" font-family="Helvetica,sans-Serif" font-size="10.00">sstream</text>
</a>
</g>
</g>
<!-- Node42&#45;&gt;Node44 -->
<g id="edge86" class="edge">
<title>Node42&#45;&gt;Node44</title>
<path fill="none" stroke="midnightblue" d="M1548.8,-56.08C1553.09,-48.61 1559.34,-37.72 1564.62,-28.52"/>
<polygon fill="midnightblue" stroke="midnightblue" points="1567.71,-30.17 1569.65,-19.75 1561.64,-26.68 1567.71,-30.17"/>
</g>
</g>
</svg>
