<?xml version="1.0" encoding="UTF-8" standalone="no"?>
<!DOCTYPE svg PUBLIC "-//W3C//DTD SVG 1.1//EN"
 "http://www.w3.org/Graphics/SVG/1.1/DTD/svg11.dtd">
<!-- Generated by graphviz version 2.43.0 (0)
 -->
<!-- Title: ComSquare::PPU::PPU Pages: 1 -->
<svg width="449pt" height="629pt"
 viewBox="0.00 0.00 448.50 629.00" xmlns="http://www.w3.org/2000/svg" xmlns:xlink="http://www.w3.org/1999/xlink">
<g id="graph0" class="graph" transform="scale(1 1) rotate(0) translate(4 625)">
<title>ComSquare::PPU::PPU</title>
<polygon fill="white" stroke="transparent" points="-4,4 -4,-625 444.5,-625 444.5,4 -4,4"/>
<!-- Node1 -->
<g id="node1" class="node">
<title>Node1</title>
<g id="a_node1"><a xlink:title="The class containing all the registers of the PPU.">
<polygon fill="#bfbfbf" stroke="black" points="148.5,-0.5 148.5,-189.5 272.5,-189.5 272.5,-0.5 148.5,-0.5"/>
<text text-anchor="middle" x="210.5" y="-177.5" font-family="Helvetica,sans-Serif" font-size="10.00">ComSquare::PPU::PPU</text>
<polyline fill="none" stroke="black" points="148.5,-170.5 272.5,-170.5 "/>
<text text-anchor="start" x="156.5" y="-158.5" font-family="Helvetica,sans-Serif" font-size="10.00">+ vram</text>
<text text-anchor="start" x="156.5" y="-147.5" font-family="Helvetica,sans-Serif" font-size="10.00">+ oamram</text>
<text text-anchor="start" x="156.5" y="-136.5" font-family="Helvetica,sans-Serif" font-size="10.00">+ cgram</text>
<polyline fill="none" stroke="black" points="148.5,-129.5 272.5,-129.5 "/>
<text text-anchor="start" x="156.5" y="-117.5" font-family="Helvetica,sans-Serif" font-size="10.00">+ PPU()</text>
<text text-anchor="start" x="156.5" y="-106.5" font-family="Helvetica,sans-Serif" font-size="10.00">+ PPU()</text>
<text text-anchor="start" x="156.5" y="-95.5" font-family="Helvetica,sans-Serif" font-size="10.00">+ operator=()</text>
<text text-anchor="start" x="156.5" y="-84.5" font-family="Helvetica,sans-Serif" font-size="10.00">+ ~PPU()</text>
<text text-anchor="start" x="156.5" y="-73.5" font-family="Helvetica,sans-Serif" font-size="10.00">+ read()</text>
<text text-anchor="start" x="156.5" y="-62.5" font-family="Helvetica,sans-Serif" font-size="10.00">+ write()</text>
<text text-anchor="start" x="156.5" y="-51.5" font-family="Helvetica,sans-Serif" font-size="10.00">+ getName()</text>
<text text-anchor="start" x="156.5" y="-40.5" font-family="Helvetica,sans-Serif" font-size="10.00">+ getComponent()</text>
<text text-anchor="start" x="156.5" y="-29.5" font-family="Helvetica,sans-Serif" font-size="10.00">+ getSize()</text>
<text text-anchor="start" x="156.5" y="-18.5" font-family="Helvetica,sans-Serif" font-size="10.00">+ update()</text>
<text text-anchor="start" x="156.5" y="-7.5" font-family="Helvetica,sans-Serif" font-size="10.00">and 11 more...</text>
</a>
</g>
</g>
<!-- Node2 -->
<g id="node2" class="node">
<title>Node2</title>
<g id="a_node2"><a xlink:href="classComSquare_1_1Memory_1_1AMemory.html" target="_top" xlink:title="Abstract class representing a continuous block of memory.">
<polygon fill="white" stroke="black" points="0,-248.5 0,-393.5 131,-393.5 131,-248.5 0,-248.5"/>
<text text-anchor="start" x="8" y="-381.5" font-family="Helvetica,sans-Serif" font-size="10.00">ComSquare::Memory::</text>
<text text-anchor="middle" x="65.5" y="-370.5" font-family="Helvetica,sans-Serif" font-size="10.00">AMemory</text>
<polyline fill="none" stroke="black" points="0,-363.5 131,-363.5 "/>
<text text-anchor="start" x="8" y="-351.5" font-family="Helvetica,sans-Serif" font-size="10.00"># _start</text>
<text text-anchor="start" x="8" y="-340.5" font-family="Helvetica,sans-Serif" font-size="10.00"># _end</text>
<polyline fill="none" stroke="black" points="0,-333.5 131,-333.5 "/>
<text text-anchor="start" x="8" y="-321.5" font-family="Helvetica,sans-Serif" font-size="10.00">+ getRelativeAddress()</text>
<text text-anchor="start" x="8" y="-310.5" font-family="Helvetica,sans-Serif" font-size="10.00">+ setMemoryRegion()</text>
<text text-anchor="start" x="8" y="-299.5" font-family="Helvetica,sans-Serif" font-size="10.00">+ hasMemoryAt()</text>
<text text-anchor="start" x="8" y="-288.5" font-family="Helvetica,sans-Serif" font-size="10.00">+ isMirror()</text>
<text text-anchor="start" x="8" y="-277.5" font-family="Helvetica,sans-Serif" font-size="10.00">+ getValueName()</text>
<text text-anchor="start" x="8" y="-266.5" font-family="Helvetica,sans-Serif" font-size="10.00">+ getMirrored()</text>
<text text-anchor="start" x="8" y="-255.5" font-family="Helvetica,sans-Serif" font-size="10.00">+ ~AMemory()</text>
</a>
</g>
</g>
<!-- Node2&#45;&gt;Node1 -->
<g id="edge1" class="edge">
<title>Node2&#45;&gt;Node1</title>
<path fill="none" stroke="midnightblue" d="M117.68,-239.39C128.07,-223.33 139.07,-206.35 149.72,-189.89"/>
<polygon fill="none" stroke="midnightblue" points="114.47,-237.9 111.98,-248.2 120.35,-241.71 114.47,-237.9"/>
</g>
<!-- Node3 -->
<g id="node3" class="node">
<title>Node3</title>
<g id="a_node3"><a xlink:href="classComSquare_1_1Memory_1_1IMemory.html" target="_top" xlink:title="Common interface implemented by all components mapping memory.">
<polygon fill="white" stroke="black" points="0,-442.5 0,-620.5 131,-620.5 131,-442.5 0,-442.5"/>
<text text-anchor="start" x="8" y="-608.5" font-family="Helvetica,sans-Serif" font-size="10.00">ComSquare::Memory::</text>
<text text-anchor="middle" x="65.5" y="-597.5" font-family="Helvetica,sans-Serif" font-size="10.00">IMemory</text>
<polyline fill="none" stroke="black" points="0,-590.5 131,-590.5 "/>
<text text-anchor="middle" x="65.5" y="-578.5" font-family="Helvetica,sans-Serif" font-size="10.00"> </text>
<polyline fill="none" stroke="black" points="0,-571.5 131,-571.5 "/>
<text text-anchor="start" x="8" y="-559.5" font-family="Helvetica,sans-Serif" font-size="10.00">+ read()</text>
<text text-anchor="start" x="8" y="-548.5" font-family="Helvetica,sans-Serif" font-size="10.00">+ write()</text>
<text text-anchor="start" x="8" y="-537.5" font-family="Helvetica,sans-Serif" font-size="10.00">+ hasMemoryAt()</text>
<text text-anchor="start" x="8" y="-526.5" font-family="Helvetica,sans-Serif" font-size="10.00">+ getRelativeAddress()</text>
<text text-anchor="start" x="8" y="-515.5" font-family="Helvetica,sans-Serif" font-size="10.00">+ getSize()</text>
<text text-anchor="start" x="8" y="-504.5" font-family="Helvetica,sans-Serif" font-size="10.00">+ isMirror()</text>
<text text-anchor="start" x="8" y="-493.5" font-family="Helvetica,sans-Serif" font-size="10.00">+ getName()</text>
<text text-anchor="start" x="8" y="-482.5" font-family="Helvetica,sans-Serif" font-size="10.00">+ getComponent()</text>
<text text-anchor="start" x="8" y="-471.5" font-family="Helvetica,sans-Serif" font-size="10.00">+ getValueName()</text>
<text text-anchor="start" x="8" y="-460.5" font-family="Helvetica,sans-Serif" font-size="10.00">+ getMirrored()</text>
<text text-anchor="start" x="8" y="-449.5" font-family="Helvetica,sans-Serif" font-size="10.00">+ ~IMemory()</text>
</a>
</g>
</g>
<!-- Node3&#45;&gt;Node2 -->
<g id="edge2" class="edge">
<title>Node3&#45;&gt;Node2</title>
<path fill="none" stroke="midnightblue" d="M65.5,-432.05C65.5,-419.13 65.5,-406.09 65.5,-393.72"/>
<polygon fill="none" stroke="midnightblue" points="62,-432.38 65.5,-442.38 69,-432.38 62,-432.38"/>
</g>
<!-- Node4 -->
<g id="node4" class="node">
<title>Node4</title>
<g id="a_node4"><a xlink:href="classComSquare_1_1Renderer_1_1IRenderer.html" target="_top" xlink:title=" ">
<polygon fill="white" stroke="black" points="149,-265 149,-377 272,-377 272,-265 149,-265"/>
<text text-anchor="start" x="157" y="-365" font-family="Helvetica,sans-Serif" font-size="10.00">ComSquare::Renderer</text>
<text text-anchor="middle" x="210.5" y="-354" font-family="Helvetica,sans-Serif" font-size="10.00">::IRenderer</text>
<polyline fill="none" stroke="black" points="149,-347 272,-347 "/>
<text text-anchor="middle" x="210.5" y="-335" font-family="Helvetica,sans-Serif" font-size="10.00"> </text>
<polyline fill="none" stroke="black" points="149,-328 272,-328 "/>
<text text-anchor="start" x="157" y="-316" font-family="Helvetica,sans-Serif" font-size="10.00">+ setWindowName()</text>
<text text-anchor="start" x="157" y="-305" font-family="Helvetica,sans-Serif" font-size="10.00">+ drawScreen()</text>
<text text-anchor="start" x="157" y="-294" font-family="Helvetica,sans-Serif" font-size="10.00">+ putPixel()</text>
<text text-anchor="start" x="157" y="-283" font-family="Helvetica,sans-Serif" font-size="10.00">+ createWindow()</text>
<text text-anchor="start" x="157" y="-272" font-family="Helvetica,sans-Serif" font-size="10.00">+ playAudio()</text>
</a>
</g>
</g>
<!-- Node4&#45;&gt;Node1 -->
<g id="edge3" class="edge">
<title>Node4&#45;&gt;Node1</title>
<path fill="none" stroke="#404040" d="M210.5,-264.92C210.5,-245.79 210.5,-223.65 210.5,-201.82"/>
<polygon fill="none" stroke="#404040" points="210.5,-201.74 206.5,-195.74 210.5,-189.74 214.5,-195.74 210.5,-201.74"/>
<text text-anchor="middle" x="237.5" y="-211" font-family="Helvetica,sans-Serif" font-size="10.00"> &#45;_renderer</text>
</g>
<!-- Node5 -->
<g id="node5" class="node">
<title>Node5</title>
<g id="a_node5"><a xlink:href="structComSquare_1_1PPU_1_1Registers.html" target="_top" xlink:title=" ">
<polygon fill="white" stroke="black" points="290.5,-237.5 290.5,-404.5 440.5,-404.5 440.5,-237.5 290.5,-237.5"/>
<text text-anchor="middle" x="365.5" y="-392.5" font-family="Helvetica,sans-Serif" font-size="10.00">ComSquare::PPU::Registers</text>
<polyline fill="none" stroke="black" points="290.5,-385.5 440.5,-385.5 "/>
<text text-anchor="start" x="298.5" y="-373.5" font-family="Helvetica,sans-Serif" font-size="10.00">+ brightness</text>
<text text-anchor="start" x="298.5" y="-362.5" font-family="Helvetica,sans-Serif" font-size="10.00">+ _</text>
<text text-anchor="start" x="298.5" y="-351.5" font-family="Helvetica,sans-Serif" font-size="10.00">+ fblank</text>
<text text-anchor="start" x="298.5" y="-340.5" font-family="Helvetica,sans-Serif" font-size="10.00">+ raw</text>
<text text-anchor="start" x="298.5" y="-329.5" font-family="Helvetica,sans-Serif" font-size="10.00">+ _inidisp</text>
<text text-anchor="start" x="298.5" y="-318.5" font-family="Helvetica,sans-Serif" font-size="10.00">+ nameBaseSelect</text>
<text text-anchor="start" x="298.5" y="-307.5" font-family="Helvetica,sans-Serif" font-size="10.00">+ nameSelect</text>
<text text-anchor="start" x="298.5" y="-296.5" font-family="Helvetica,sans-Serif" font-size="10.00">+ objectSize</text>
<text text-anchor="start" x="298.5" y="-285.5" font-family="Helvetica,sans-Serif" font-size="10.00">+ _obsel</text>
<text text-anchor="start" x="298.5" y="-274.5" font-family="Helvetica,sans-Serif" font-size="10.00">+ oamAddress</text>
<text text-anchor="start" x="298.5" y="-263.5" font-family="Helvetica,sans-Serif" font-size="10.00">and 149 more...</text>
<polyline fill="none" stroke="black" points="290.5,-256.5 440.5,-256.5 "/>
<text text-anchor="middle" x="365.5" y="-244.5" font-family="Helvetica,sans-Serif" font-size="10.00"> </text>
</a>
</g>
</g>
<!-- Node5&#45;&gt;Node1 -->
<g id="edge4" class="edge">
<title>Node5&#45;&gt;Node1</title>
<path fill="none" stroke="#404040" d="M308.22,-237.23C298.93,-223.79 289.21,-209.75 279.66,-195.95"/>
<polygon fill="none" stroke="#404040" points="279.58,-195.83 272.88,-193.17 272.75,-185.96 279.45,-188.62 279.58,-195.83"/>
<text text-anchor="middle" x="320" y="-211" font-family="Helvetica,sans-Serif" font-size="10.00"> &#45;_registers</text>
</g>
</g>
</svg>
