<?xml version="1.0" encoding="UTF-8" standalone="no"?>
<!DOCTYPE svg PUBLIC "-//W3C//DTD SVG 1.1//EN"
 "http://www.w3.org/Graphics/SVG/1.1/DTD/svg11.dtd">
<!-- Generated by graphviz version 2.43.0 (0)
 -->
<!-- Title: ComSquare::Debugger::HeaderViewer Pages: 1 -->
<svg width="466pt" height="1351pt"
 viewBox="0.00 0.00 465.50 1351.00" xmlns="http://www.w3.org/2000/svg" xmlns:xlink="http://www.w3.org/1999/xlink">
<g id="graph0" class="graph" transform="scale(1 1) rotate(0) translate(4 1347)">
<title>ComSquare::Debugger::HeaderViewer</title>
<polygon fill="white" stroke="transparent" points="-4,4 -4,-1347 461.5,-1347 461.5,4 -4,4"/>
<!-- Node1 -->
<g id="node1" class="node">
<title>Node1</title>
<g id="a_node1"><a xlink:title="Window that show the header of the currently running game.">
<polygon fill="#bfbfbf" stroke="black" points="105.5,-182.5 105.5,-305.5 231.5,-305.5 231.5,-182.5 105.5,-182.5"/>
<text text-anchor="start" x="113.5" y="-293.5" font-family="Helvetica,sans-Serif" font-size="10.00">ComSquare::Debugger</text>
<text text-anchor="middle" x="168.5" y="-282.5" font-family="Helvetica,sans-Serif" font-size="10.00">::HeaderViewer</text>
<polyline fill="none" stroke="black" points="105.5,-275.5 231.5,-275.5 "/>
<text text-anchor="start" x="113.5" y="-263.5" font-family="Helvetica,sans-Serif" font-size="10.00">&#45; _ui</text>
<polyline fill="none" stroke="black" points="105.5,-256.5 231.5,-256.5 "/>
<text text-anchor="start" x="113.5" y="-244.5" font-family="Helvetica,sans-Serif" font-size="10.00">+ focus()</text>
<text text-anchor="start" x="113.5" y="-233.5" font-family="Helvetica,sans-Serif" font-size="10.00">+ HeaderViewer()</text>
<text text-anchor="start" x="113.5" y="-222.5" font-family="Helvetica,sans-Serif" font-size="10.00">+ HeaderViewer()</text>
<text text-anchor="start" x="113.5" y="-211.5" font-family="Helvetica,sans-Serif" font-size="10.00">+ operator=()</text>
<text text-anchor="start" x="113.5" y="-200.5" font-family="Helvetica,sans-Serif" font-size="10.00">+ ~HeaderViewer()</text>
<text text-anchor="start" x="113.5" y="-189.5" font-family="Helvetica,sans-Serif" font-size="10.00">+ disableDebugger()</text>
</a>
</g>
</g>
<!-- Node3 -->
<g id="node3" class="node">
<title>Node3</title>
<g id="a_node3"><a xlink:href="classComSquare_1_1Debugger_1_1ClosableWindow.html" target="_top" xlink:title=" ">
<polygon fill="white" stroke="black" points="11,-0.5 11,-123.5 182,-123.5 182,-0.5 11,-0.5"/>
<text text-anchor="start" x="19" y="-111.5" font-family="Helvetica,sans-Serif" font-size="10.00">ComSquare::Debugger</text>
<text text-anchor="start" x="19" y="-100.5" font-family="Helvetica,sans-Serif" font-size="10.00">::ClosableWindow&lt; ComSquare</text>
<text text-anchor="middle" x="96.5" y="-89.5" font-family="Helvetica,sans-Serif" font-size="10.00">::Debugger::HeaderViewer &gt;</text>
<polyline fill="none" stroke="black" points="11,-82.5 182,-82.5 "/>
<text text-anchor="middle" x="96.5" y="-70.5" font-family="Helvetica,sans-Serif" font-size="10.00"> </text>
<polyline fill="none" stroke="black" points="11,-63.5 182,-63.5 "/>
<text text-anchor="start" x="19" y="-51.5" font-family="Helvetica,sans-Serif" font-size="10.00">+ ClosableWindow()</text>
<text text-anchor="start" x="19" y="-40.5" font-family="Helvetica,sans-Serif" font-size="10.00">+ ClosableWindow()</text>
<text text-anchor="start" x="19" y="-29.5" font-family="Helvetica,sans-Serif" font-size="10.00">+ operator=()</text>
<text text-anchor="start" x="19" y="-18.5" font-family="Helvetica,sans-Serif" font-size="10.00">+ ~ClosableWindow()</text>
<text text-anchor="start" x="19" y="-7.5" font-family="Helvetica,sans-Serif" font-size="10.00"># closeEvent()</text>
</a>
</g>
</g>
<!-- Node1&#45;&gt;Node3 -->
<g id="edge4" class="edge">
<title>Node1&#45;&gt;Node3</title>
<path fill="none" stroke="#404040" d="M105.4,-185.62C100.63,-178.8 96.51,-171.55 93.5,-164 89.98,-155.18 88.08,-145.57 87.28,-135.9"/>
<polygon fill="none" stroke="#404040" points="87.27,-135.67 83.04,-129.83 86.81,-123.68 91.04,-129.52 87.27,-135.67"/>
<text text-anchor="middle" x="118" y="-156" font-family="Helvetica,sans-Serif" font-size="10.00"> &#45;_obj</text>
<text text-anchor="middle" x="118" y="-145" font-family="Helvetica,sans-Serif" font-size="10.00">&#45;_onClose</text>
</g>
<!-- Node2 -->
<g id="node2" class="node">
<title>Node2</title>
<g id="a_node2"><a xlink:href="classComSquare_1_1SNES.html" target="_top" xlink:title="Container of all the components of the SNES.">
<polygon fill="white" stroke="black" points="17,-353.5 17,-586.5 204,-586.5 204,-353.5 17,-353.5"/>
<text text-anchor="middle" x="110.5" y="-574.5" font-family="Helvetica,sans-Serif" font-size="10.00">ComSquare::SNES</text>
<polyline fill="none" stroke="black" points="17,-567.5 204,-567.5 "/>
<text text-anchor="start" x="25" y="-555.5" font-family="Helvetica,sans-Serif" font-size="10.00">+ bus</text>
<text text-anchor="start" x="25" y="-544.5" font-family="Helvetica,sans-Serif" font-size="10.00">+ cartridge</text>
<text text-anchor="start" x="25" y="-533.5" font-family="Helvetica,sans-Serif" font-size="10.00">+ wram</text>
<text text-anchor="start" x="25" y="-522.5" font-family="Helvetica,sans-Serif" font-size="10.00">+ sram</text>
<text text-anchor="start" x="25" y="-511.5" font-family="Helvetica,sans-Serif" font-size="10.00">+ cpu</text>
<text text-anchor="start" x="25" y="-500.5" font-family="Helvetica,sans-Serif" font-size="10.00">+ ppu</text>
<text text-anchor="start" x="25" y="-489.5" font-family="Helvetica,sans-Serif" font-size="10.00">+ apu</text>
<polyline fill="none" stroke="black" points="17,-482.5 204,-482.5 "/>
<text text-anchor="start" x="25" y="-470.5" font-family="Helvetica,sans-Serif" font-size="10.00">+ update()</text>
<text text-anchor="start" x="25" y="-459.5" font-family="Helvetica,sans-Serif" font-size="10.00">+ disableCPUDebugging()</text>
<text text-anchor="start" x="25" y="-448.5" font-family="Helvetica,sans-Serif" font-size="10.00">+ enableCPUDebugging()</text>
<text text-anchor="start" x="25" y="-437.5" font-family="Helvetica,sans-Serif" font-size="10.00">+ enableCPUDebuggingWithError()</text>
<text text-anchor="start" x="25" y="-426.5" font-family="Helvetica,sans-Serif" font-size="10.00">+ disableRamViewer()</text>
<text text-anchor="start" x="25" y="-415.5" font-family="Helvetica,sans-Serif" font-size="10.00">+ enableRamViewer()</text>
<text text-anchor="start" x="25" y="-404.5" font-family="Helvetica,sans-Serif" font-size="10.00">+ disableHeaderViewer()</text>
<text text-anchor="start" x="25" y="-393.5" font-family="Helvetica,sans-Serif" font-size="10.00">+ enableHeaderViewer()</text>
<text text-anchor="start" x="25" y="-382.5" font-family="Helvetica,sans-Serif" font-size="10.00">+ disableAPUDebugging()</text>
<text text-anchor="start" x="25" y="-371.5" font-family="Helvetica,sans-Serif" font-size="10.00">+ enableAPUDebugging()</text>
<text text-anchor="start" x="25" y="-360.5" font-family="Helvetica,sans-Serif" font-size="10.00">and 10 more...</text>
</a>
</g>
</g>
<!-- Node2&#45;&gt;Node1 -->
<g id="edge1" class="edge">
<title>Node2&#45;&gt;Node1</title>
<path fill="none" stroke="#404040" d="M140.43,-353.39C143.6,-341.16 146.75,-328.99 149.74,-317.47"/>
<polygon fill="none" stroke="#404040" points="149.77,-317.33 147.4,-310.51 152.78,-305.71 155.15,-312.52 149.77,-317.33"/>
<text text-anchor="middle" x="164" y="-327" font-family="Helvetica,sans-Serif" font-size="10.00"> &#45;_snes</text>
</g>
<!-- Node3&#45;&gt;Node1 -->
<g id="edge2" class="edge">
<title>Node3&#45;&gt;Node1</title>
<path fill="none" stroke="#404040" d="M137.72,-123.54C140.97,-129.63 143.97,-135.84 146.5,-142 150.21,-151.03 153.33,-160.78 155.95,-170.54"/>
<polygon fill="none" stroke="#404040" points="156,-170.76 161.34,-175.61 158.91,-182.4 153.57,-177.55 156,-170.76"/>
<text text-anchor="middle" x="179.5" y="-150.5" font-family="Helvetica,sans-Serif" font-size="10.00"> &#45;_window</text>
</g>
<!-- Node4 -->
<g id="node4" class="node">
<title>Node4</title>
<g id="a_node4"><a xlink:title=" ">
<polygon fill="white" stroke="#bfbfbf" points="0,-215.5 0,-272.5 87,-272.5 87,-215.5 0,-215.5"/>
<text text-anchor="middle" x="43.5" y="-260.5" font-family="Helvetica,sans-Serif" font-size="10.00">QMainWindow</text>
<polyline fill="none" stroke="#bfbfbf" points="0,-253.5 87,-253.5 "/>
<text text-anchor="middle" x="43.5" y="-241.5" font-family="Helvetica,sans-Serif" font-size="10.00"> </text>
<polyline fill="none" stroke="#bfbfbf" points="0,-234.5 87,-234.5 "/>
<text text-anchor="middle" x="43.5" y="-222.5" font-family="Helvetica,sans-Serif" font-size="10.00"> </text>
</a>
</g>
</g>
<!-- Node4&#45;&gt;Node3 -->
<g id="edge3" class="edge">
<title>Node4&#45;&gt;Node3</title>
<path fill="none" stroke="midnightblue" d="M54.51,-205.61C61.48,-181.92 70.67,-150.74 78.66,-123.57"/>
<polygon fill="none" stroke="midnightblue" points="51.13,-204.69 51.67,-215.27 57.85,-206.67 51.13,-204.69"/>
</g>
<!-- Node5 -->
<g id="node5" class="node">
<title>Node5</title>
<g id="a_node5"><a xlink:href="classComSquare_1_1Cartridge_1_1Cartridge.html" target="_top" xlink:title="Contains the rom&#39;s memory/instructions.">
<polygon fill="white" stroke="black" points="222.5,-386.5 222.5,-553.5 348.5,-553.5 348.5,-386.5 222.5,-386.5"/>
<text text-anchor="start" x="230.5" y="-541.5" font-family="Helvetica,sans-Serif" font-size="10.00">ComSquare::Cartridge</text>
<text text-anchor="middle" x="285.5" y="-530.5" font-family="Helvetica,sans-Serif" font-size="10.00">::Cartridge</text>
<polyline fill="none" stroke="black" points="222.5,-523.5 348.5,-523.5 "/>
<text text-anchor="start" x="230.5" y="-511.5" font-family="Helvetica,sans-Serif" font-size="10.00">&#45; _romStart</text>
<polyline fill="none" stroke="black" points="222.5,-504.5 348.5,-504.5 "/>
<text text-anchor="start" x="230.5" y="-492.5" font-family="Helvetica,sans-Serif" font-size="10.00">+ Cartridge()</text>
<text text-anchor="start" x="230.5" y="-481.5" font-family="Helvetica,sans-Serif" font-size="10.00">+ Cartridge()</text>
<text text-anchor="start" x="230.5" y="-470.5" font-family="Helvetica,sans-Serif" font-size="10.00">+ operator=()</text>
<text text-anchor="start" x="230.5" y="-459.5" font-family="Helvetica,sans-Serif" font-size="10.00">+ ~Cartridge()</text>
<text text-anchor="start" x="230.5" y="-448.5" font-family="Helvetica,sans-Serif" font-size="10.00">+ read()</text>
<text text-anchor="start" x="230.5" y="-437.5" font-family="Helvetica,sans-Serif" font-size="10.00">+ write()</text>
<text text-anchor="start" x="230.5" y="-426.5" font-family="Helvetica,sans-Serif" font-size="10.00">&#45; _loadHeader()</text>
<text text-anchor="start" x="230.5" y="-415.5" font-family="Helvetica,sans-Serif" font-size="10.00">&#45; _getHeaderAddress()</text>
<text text-anchor="start" x="230.5" y="-404.5" font-family="Helvetica,sans-Serif" font-size="10.00">&#45; _mapHeader()</text>
<text text-anchor="start" x="230.5" y="-393.5" font-family="Helvetica,sans-Serif" font-size="10.00">&#45; getRomSize()</text>
</a>
</g>
</g>
<!-- Node5&#45;&gt;Node1 -->
<g id="edge5" class="edge">
<title>Node5&#45;&gt;Node1</title>
<path fill="none" stroke="#404040" d="M242.27,-386.23C230.29,-363.31 217.41,-338.63 205.8,-316.42"/>
<polygon fill="none" stroke="#404040" points="205.78,-316.37 199.45,-312.9 200.22,-305.73 206.54,-309.2 205.78,-316.37"/>
<text text-anchor="middle" x="241.5" y="-327" font-family="Helvetica,sans-Serif" font-size="10.00"> &#45;_cartridge</text>
</g>
<!-- Node6 -->
<g id="node6" class="node">
<title>Node6</title>
<g id="a_node6"><a xlink:href="classComSquare_1_1Ram_1_1Ram.html" target="_top" xlink:title=" ">
<polygon fill="white" stroke="black" points="127.5,-673 127.5,-851 257.5,-851 257.5,-673 127.5,-673"/>
<text text-anchor="middle" x="192.5" y="-839" font-family="Helvetica,sans-Serif" font-size="10.00">ComSquare::Ram::Ram</text>
<polyline fill="none" stroke="black" points="127.5,-832 257.5,-832 "/>
<text text-anchor="start" x="135.5" y="-820" font-family="Helvetica,sans-Serif" font-size="10.00"># _data</text>
<text text-anchor="start" x="135.5" y="-809" font-family="Helvetica,sans-Serif" font-size="10.00"># _size</text>
<text text-anchor="start" x="135.5" y="-798" font-family="Helvetica,sans-Serif" font-size="10.00"># _ramType</text>
<text text-anchor="start" x="135.5" y="-787" font-family="Helvetica,sans-Serif" font-size="10.00"># _ramName</text>
<polyline fill="none" stroke="black" points="127.5,-780 257.5,-780 "/>
<text text-anchor="start" x="135.5" y="-768" font-family="Helvetica,sans-Serif" font-size="10.00">+ Ram()</text>
<text text-anchor="start" x="135.5" y="-757" font-family="Helvetica,sans-Serif" font-size="10.00">+ Ram()</text>
<text text-anchor="start" x="135.5" y="-746" font-family="Helvetica,sans-Serif" font-size="10.00">+ operator=()</text>
<text text-anchor="start" x="135.5" y="-735" font-family="Helvetica,sans-Serif" font-size="10.00">+ ~Ram()</text>
<text text-anchor="start" x="135.5" y="-724" font-family="Helvetica,sans-Serif" font-size="10.00">+ read()</text>
<text text-anchor="start" x="135.5" y="-713" font-family="Helvetica,sans-Serif" font-size="10.00">+ write()</text>
<text text-anchor="start" x="135.5" y="-702" font-family="Helvetica,sans-Serif" font-size="10.00">+ getName()</text>
<text text-anchor="start" x="135.5" y="-691" font-family="Helvetica,sans-Serif" font-size="10.00">+ getComponent()</text>
<text text-anchor="start" x="135.5" y="-680" font-family="Helvetica,sans-Serif" font-size="10.00">+ getSize()</text>
</a>
</g>
</g>
<!-- Node6&#45;&gt;Node5 -->
<g id="edge6" class="edge">
<title>Node6&#45;&gt;Node5</title>
<path fill="none" stroke="midnightblue" d="M223.95,-662.93C235.32,-627.48 248.03,-587.83 258.94,-553.82"/>
<polygon fill="none" stroke="midnightblue" points="220.5,-662.22 220.78,-672.81 227.17,-664.36 220.5,-662.22"/>
</g>
<!-- Node7 -->
<g id="node7" class="node">
<title>Node7</title>
<g id="a_node7"><a xlink:href="classComSquare_1_1Memory_1_1ARectangleMemory.html" target="_top" xlink:title="Base memory class to map non continuous rectangle to the memory. (A rectangle that spam across more t...">
<polygon fill="white" stroke="black" points="122.5,-954 122.5,-1121 262.5,-1121 262.5,-954 122.5,-954"/>
<text text-anchor="start" x="130.5" y="-1109" font-family="Helvetica,sans-Serif" font-size="10.00">ComSquare::Memory::</text>
<text text-anchor="middle" x="192.5" y="-1098" font-family="Helvetica,sans-Serif" font-size="10.00">ARectangleMemory</text>
<polyline fill="none" stroke="black" points="122.5,-1091 262.5,-1091 "/>
<text text-anchor="start" x="130.5" y="-1079" font-family="Helvetica,sans-Serif" font-size="10.00"># _startBank</text>
<text text-anchor="start" x="130.5" y="-1068" font-family="Helvetica,sans-Serif" font-size="10.00"># _endBank</text>
<text text-anchor="start" x="130.5" y="-1057" font-family="Helvetica,sans-Serif" font-size="10.00"># _startPage</text>
<text text-anchor="start" x="130.5" y="-1046" font-family="Helvetica,sans-Serif" font-size="10.00"># _endPage</text>
<polyline fill="none" stroke="black" points="122.5,-1039 262.5,-1039 "/>
<text text-anchor="start" x="130.5" y="-1027" font-family="Helvetica,sans-Serif" font-size="10.00">+ getRelativeAddress()</text>
<text text-anchor="start" x="130.5" y="-1016" font-family="Helvetica,sans-Serif" font-size="10.00">+ hasMemoryAt()</text>
<text text-anchor="start" x="130.5" y="-1005" font-family="Helvetica,sans-Serif" font-size="10.00">+ setMemoryRegion()</text>
<text text-anchor="start" x="130.5" y="-994" font-family="Helvetica,sans-Serif" font-size="10.00">+ isMirror()</text>
<text text-anchor="start" x="130.5" y="-983" font-family="Helvetica,sans-Serif" font-size="10.00">+ getValueName()</text>
<text text-anchor="start" x="130.5" y="-972" font-family="Helvetica,sans-Serif" font-size="10.00">+ getMirrored()</text>
<text text-anchor="start" x="130.5" y="-961" font-family="Helvetica,sans-Serif" font-size="10.00">+ ~ARectangleMemory()</text>
</a>
</g>
</g>
<!-- Node7&#45;&gt;Node6 -->
<g id="edge7" class="edge">
<title>Node7&#45;&gt;Node6</title>
<path fill="none" stroke="midnightblue" d="M192.5,-943.69C192.5,-913.8 192.5,-880.77 192.5,-851.22"/>
<polygon fill="none" stroke="midnightblue" points="189,-943.7 192.5,-953.7 196,-943.7 189,-943.7"/>
</g>
<!-- Node8 -->
<g id="node8" class="node">
<title>Node8</title>
<g id="a_node8"><a xlink:href="classComSquare_1_1Memory_1_1IMemory.html" target="_top" xlink:title="Common interface implemented by all components mapping memory.">
<polygon fill="white" stroke="black" points="127,-1164.5 127,-1342.5 258,-1342.5 258,-1164.5 127,-1164.5"/>
<text text-anchor="start" x="135" y="-1330.5" font-family="Helvetica,sans-Serif" font-size="10.00">ComSquare::Memory::</text>
<text text-anchor="middle" x="192.5" y="-1319.5" font-family="Helvetica,sans-Serif" font-size="10.00">IMemory</text>
<polyline fill="none" stroke="black" points="127,-1312.5 258,-1312.5 "/>
<text text-anchor="middle" x="192.5" y="-1300.5" font-family="Helvetica,sans-Serif" font-size="10.00"> </text>
<polyline fill="none" stroke="black" points="127,-1293.5 258,-1293.5 "/>
<text text-anchor="start" x="135" y="-1281.5" font-family="Helvetica,sans-Serif" font-size="10.00">+ read()</text>
<text text-anchor="start" x="135" y="-1270.5" font-family="Helvetica,sans-Serif" font-size="10.00">+ write()</text>
<text text-anchor="start" x="135" y="-1259.5" font-family="Helvetica,sans-Serif" font-size="10.00">+ hasMemoryAt()</text>
<text text-anchor="start" x="135" y="-1248.5" font-family="Helvetica,sans-Serif" font-size="10.00">+ getRelativeAddress()</text>
<text text-anchor="start" x="135" y="-1237.5" font-family="Helvetica,sans-Serif" font-size="10.00">+ getSize()</text>
<text text-anchor="start" x="135" y="-1226.5" font-family="Helvetica,sans-Serif" font-size="10.00">+ isMirror()</text>
<text text-anchor="start" x="135" y="-1215.5" font-family="Helvetica,sans-Serif" font-size="10.00">+ getName()</text>
<text text-anchor="start" x="135" y="-1204.5" font-family="Helvetica,sans-Serif" font-size="10.00">+ getComponent()</text>
<text text-anchor="start" x="135" y="-1193.5" font-family="Helvetica,sans-Serif" font-size="10.00">+ getValueName()</text>
<text text-anchor="start" x="135" y="-1182.5" font-family="Helvetica,sans-Serif" font-size="10.00">+ getMirrored()</text>
<text text-anchor="start" x="135" y="-1171.5" font-family="Helvetica,sans-Serif" font-size="10.00">+ ~IMemory()</text>
</a>
</g>
</g>
<!-- Node8&#45;&gt;Node7 -->
<g id="edge8" class="edge">
<title>Node8&#45;&gt;Node7</title>
<path fill="none" stroke="midnightblue" d="M192.5,-1154.12C192.5,-1143.07 192.5,-1131.9 192.5,-1121.08"/>
<polygon fill="none" stroke="midnightblue" points="189,-1154.22 192.5,-1164.22 196,-1154.22 189,-1154.22"/>
</g>
<!-- Node9 -->
<g id="node9" class="node">
<title>Node9</title>
<g id="a_node9"><a xlink:href="structComSquare_1_1Cartridge_1_1Header.html" target="_top" xlink:title=" ">
<polygon fill="white" stroke="black" points="275.5,-634.5 275.5,-889.5 421.5,-889.5 421.5,-634.5 275.5,-634.5"/>
<text text-anchor="start" x="283.5" y="-877.5" font-family="Helvetica,sans-Serif" font-size="10.00">ComSquare::Cartridge</text>
<text text-anchor="middle" x="348.5" y="-866.5" font-family="Helvetica,sans-Serif" font-size="10.00">::Header</text>
<polyline fill="none" stroke="black" points="275.5,-859.5 421.5,-859.5 "/>
<text text-anchor="start" x="283.5" y="-847.5" font-family="Helvetica,sans-Serif" font-size="10.00">+ gameName</text>
<text text-anchor="start" x="283.5" y="-836.5" font-family="Helvetica,sans-Serif" font-size="10.00">+ mappingMode</text>
<text text-anchor="start" x="283.5" y="-825.5" font-family="Helvetica,sans-Serif" font-size="10.00">+ romType</text>
<text text-anchor="start" x="283.5" y="-814.5" font-family="Helvetica,sans-Serif" font-size="10.00">+ romSize</text>
<text text-anchor="start" x="283.5" y="-803.5" font-family="Helvetica,sans-Serif" font-size="10.00">+ sramSize</text>
<text text-anchor="start" x="283.5" y="-792.5" font-family="Helvetica,sans-Serif" font-size="10.00">+ creatorIDs</text>
<text text-anchor="start" x="283.5" y="-781.5" font-family="Helvetica,sans-Serif" font-size="10.00">+ creatorID</text>
<text text-anchor="start" x="283.5" y="-770.5" font-family="Helvetica,sans-Serif" font-size="10.00">+ @21</text>
<text text-anchor="start" x="283.5" y="-759.5" font-family="Helvetica,sans-Serif" font-size="10.00">+ version</text>
<text text-anchor="start" x="283.5" y="-748.5" font-family="Helvetica,sans-Serif" font-size="10.00">+ checksumComplements</text>
<text text-anchor="start" x="283.5" y="-737.5" font-family="Helvetica,sans-Serif" font-size="10.00">+ checksumComplement</text>
<text text-anchor="start" x="283.5" y="-726.5" font-family="Helvetica,sans-Serif" font-size="10.00">+ @23</text>
<text text-anchor="start" x="283.5" y="-715.5" font-family="Helvetica,sans-Serif" font-size="10.00">+ checksums</text>
<text text-anchor="start" x="283.5" y="-704.5" font-family="Helvetica,sans-Serif" font-size="10.00">+ checksum</text>
<text text-anchor="start" x="283.5" y="-693.5" font-family="Helvetica,sans-Serif" font-size="10.00">+ @25</text>
<polyline fill="none" stroke="black" points="275.5,-686.5 421.5,-686.5 "/>
<text text-anchor="start" x="283.5" y="-674.5" font-family="Helvetica,sans-Serif" font-size="10.00">+ Header()</text>
<text text-anchor="start" x="283.5" y="-663.5" font-family="Helvetica,sans-Serif" font-size="10.00">+ Header()</text>
<text text-anchor="start" x="283.5" y="-652.5" font-family="Helvetica,sans-Serif" font-size="10.00">+ operator=()</text>
<text text-anchor="start" x="283.5" y="-641.5" font-family="Helvetica,sans-Serif" font-size="10.00">+ ~Header()</text>
</a>
</g>
</g>
<!-- Node9&#45;&gt;Node5 -->
<g id="edge9" class="edge">
<title>Node9&#45;&gt;Node5</title>
<path fill="none" stroke="#404040" d="M320.96,-634.22C315.96,-611.2 310.82,-587.56 306.07,-565.67"/>
<polygon fill="none" stroke="#404040" points="306.01,-565.43 300.83,-560.41 303.47,-553.7 308.65,-558.72 306.01,-565.43"/>
<text text-anchor="middle" x="340.5" y="-608" font-family="Helvetica,sans-Serif" font-size="10.00"> +header</text>
</g>
<!-- Node10 -->
<g id="node10" class="node">
<title>Node10</title>
<g id="a_node10"><a xlink:href="structComSquare_1_1Cartridge_1_1InterruptVectors.html" target="_top" xlink:title=" ">
<polygon fill="white" stroke="black" points="286.5,-948.5 286.5,-1126.5 410.5,-1126.5 410.5,-948.5 286.5,-948.5"/>
<text text-anchor="start" x="294.5" y="-1114.5" font-family="Helvetica,sans-Serif" font-size="10.00">ComSquare::Cartridge</text>
<text text-anchor="middle" x="348.5" y="-1103.5" font-family="Helvetica,sans-Serif" font-size="10.00">::InterruptVectors</text>
<polyline fill="none" stroke="black" points="286.5,-1096.5 410.5,-1096.5 "/>
<text text-anchor="start" x="294.5" y="-1084.5" font-family="Helvetica,sans-Serif" font-size="10.00">+ cop8</text>
<text text-anchor="start" x="294.5" y="-1073.5" font-family="Helvetica,sans-Serif" font-size="10.00">+ cop</text>
<text text-anchor="start" x="294.5" y="-1062.5" font-family="Helvetica,sans-Serif" font-size="10.00">+ @27</text>
<text text-anchor="start" x="294.5" y="-1051.5" font-family="Helvetica,sans-Serif" font-size="10.00">+ brk8</text>
<text text-anchor="start" x="294.5" y="-1040.5" font-family="Helvetica,sans-Serif" font-size="10.00">+ brk</text>
<text text-anchor="start" x="294.5" y="-1029.5" font-family="Helvetica,sans-Serif" font-size="10.00">+ @29</text>
<text text-anchor="start" x="294.5" y="-1018.5" font-family="Helvetica,sans-Serif" font-size="10.00">+ abort8</text>
<text text-anchor="start" x="294.5" y="-1007.5" font-family="Helvetica,sans-Serif" font-size="10.00">+ abort</text>
<text text-anchor="start" x="294.5" y="-996.5" font-family="Helvetica,sans-Serif" font-size="10.00">+ @31</text>
<text text-anchor="start" x="294.5" y="-985.5" font-family="Helvetica,sans-Serif" font-size="10.00">+ nmi8</text>
<text text-anchor="start" x="294.5" y="-974.5" font-family="Helvetica,sans-Serif" font-size="10.00">and 8 more...</text>
<polyline fill="none" stroke="black" points="286.5,-967.5 410.5,-967.5 "/>
<text text-anchor="middle" x="348.5" y="-955.5" font-family="Helvetica,sans-Serif" font-size="10.00"> </text>
</a>
</g>
</g>
<!-- Node10&#45;&gt;Node9 -->
<g id="edge10" class="edge">
<title>Node10&#45;&gt;Node9</title>
<path fill="none" stroke="#404040" d="M348.5,-948.46C348.5,-933.52 348.5,-917.7 348.5,-901.84"/>
<polygon fill="none" stroke="#404040" points="348.5,-901.72 344.5,-895.72 348.5,-889.72 352.5,-895.72 348.5,-901.72"/>
<text text-anchor="middle" x="403" y="-922" font-family="Helvetica,sans-Serif" font-size="10.00"> +emulationInterrupts</text>
<text text-anchor="middle" x="403" y="-911" font-family="Helvetica,sans-Serif" font-size="10.00">+nativeInterrupts</text>
</g>
</g>
</svg>
