<?xml version="1.0" encoding="UTF-8" standalone="no"?>
<!DOCTYPE svg PUBLIC "-//W3C//DTD SVG 1.1//EN"
 "http://www.w3.org/Graphics/SVG/1.1/DTD/svg11.dtd">
<!-- Generated by graphviz version 2.43.0 (0)
 -->
<!-- Title: RowPainter Pages: 1 -->
<svg width="1088pt" height="1586pt"
 viewBox="0.00 0.00 1088.00 1586.00" xmlns="http://www.w3.org/2000/svg" xmlns:xlink="http://www.w3.org/1999/xlink">
<g id="graph0" class="graph" transform="scale(1 1) rotate(0) translate(4 1582)">
<title>RowPainter</title>
<polygon fill="white" stroke="transparent" points="-4,4 -4,-1582 1084,-1582 1084,4 -4,4"/>
<!-- Node1 -->
<g id="node1" class="node">
<title>Node1</title>
<g id="a_node1"><a xlink:title="The qt class that highlight breakpoints and the PC&#39;s position.">
<polygon fill="#bfbfbf" stroke="black" points="776,-771.5 776,-872.5 874,-872.5 874,-771.5 776,-771.5"/>
<text text-anchor="middle" x="825" y="-860.5" font-family="Helvetica,sans-Serif" font-size="10.00">RowPainter</text>
<polyline fill="none" stroke="black" points="776,-853.5 874,-853.5 "/>
<text text-anchor="middle" x="825" y="-841.5" font-family="Helvetica,sans-Serif" font-size="10.00"> </text>
<polyline fill="none" stroke="black" points="776,-834.5 874,-834.5 "/>
<text text-anchor="start" x="784" y="-822.5" font-family="Helvetica,sans-Serif" font-size="10.00">+ RowPainter()</text>
<text text-anchor="start" x="784" y="-811.5" font-family="Helvetica,sans-Serif" font-size="10.00">+ operator=()</text>
<text text-anchor="start" x="784" y="-800.5" font-family="Helvetica,sans-Serif" font-size="10.00">+ ~RowPainter()</text>
<text text-anchor="start" x="784" y="-789.5" font-family="Helvetica,sans-Serif" font-size="10.00"># sizeHint()</text>
<text text-anchor="start" x="784" y="-778.5" font-family="Helvetica,sans-Serif" font-size="10.00"># paint()</text>
</a>
</g>
</g>
<!-- Node3 -->
<g id="node3" class="node">
<title>Node3</title>
<g id="a_node3"><a xlink:href="classComSquare_1_1Debugger_1_1CPUDebug.html" target="_top" xlink:title="A custom CPU with a window that show it&#39;s registers and the disassembly.">
<polygon fill="white" stroke="black" points="271,-204.5 271,-558.5 429,-558.5 429,-204.5 271,-204.5"/>
<text text-anchor="start" x="279" y="-546.5" font-family="Helvetica,sans-Serif" font-size="10.00">ComSquare::Debugger</text>
<text text-anchor="middle" x="350" y="-535.5" font-family="Helvetica,sans-Serif" font-size="10.00">::CPUDebug</text>
<polyline fill="none" stroke="black" points="271,-528.5 429,-528.5 "/>
<text text-anchor="start" x="279" y="-516.5" font-family="Helvetica,sans-Serif" font-size="10.00">+ disassembledInstructions</text>
<text text-anchor="start" x="279" y="-505.5" font-family="Helvetica,sans-Serif" font-size="10.00">+ breakpoints</text>
<text text-anchor="start" x="279" y="-494.5" font-family="Helvetica,sans-Serif" font-size="10.00">+ initialStackPointer</text>
<text text-anchor="start" x="279" y="-483.5" font-family="Helvetica,sans-Serif" font-size="10.00">&#45; _ui</text>
<text text-anchor="start" x="279" y="-472.5" font-family="Helvetica,sans-Serif" font-size="10.00">&#45; _isPaused</text>
<text text-anchor="start" x="279" y="-461.5" font-family="Helvetica,sans-Serif" font-size="10.00">&#45; _isStepping</text>
<polyline fill="none" stroke="black" points="271,-454.5 429,-454.5 "/>
<text text-anchor="start" x="279" y="-442.5" font-family="Helvetica,sans-Serif" font-size="10.00">+ showError()</text>
<text text-anchor="start" x="279" y="-431.5" font-family="Helvetica,sans-Serif" font-size="10.00">+ pause()</text>
<text text-anchor="start" x="279" y="-420.5" font-family="Helvetica,sans-Serif" font-size="10.00">+ step()</text>
<text text-anchor="start" x="279" y="-409.5" font-family="Helvetica,sans-Serif" font-size="10.00">+ next()</text>
<text text-anchor="start" x="279" y="-398.5" font-family="Helvetica,sans-Serif" font-size="10.00">+ clearHistory()</text>
<text text-anchor="start" x="279" y="-387.5" font-family="Helvetica,sans-Serif" font-size="10.00">+ toggleBreakpoint()</text>
<text text-anchor="start" x="279" y="-376.5" font-family="Helvetica,sans-Serif" font-size="10.00">+ disableDebugger()</text>
<text text-anchor="start" x="279" y="-365.5" font-family="Helvetica,sans-Serif" font-size="10.00">+ getProceededParameters()</text>
<text text-anchor="start" x="279" y="-354.5" font-family="Helvetica,sans-Serif" font-size="10.00">+ getPC()</text>
<text text-anchor="start" x="279" y="-343.5" font-family="Helvetica,sans-Serif" font-size="10.00">+ getStackPointer()</text>
<text text-anchor="start" x="279" y="-332.5" font-family="Helvetica,sans-Serif" font-size="10.00">and 9 more...</text>
<text text-anchor="start" x="279" y="-321.5" font-family="Helvetica,sans-Serif" font-size="10.00">&#45; _executeInstruction()</text>
<text text-anchor="start" x="279" y="-310.5" font-family="Helvetica,sans-Serif" font-size="10.00">&#45; _getDisassemblyContext()</text>
<text text-anchor="start" x="279" y="-299.5" font-family="Helvetica,sans-Serif" font-size="10.00">&#45; _disassemble()</text>
<text text-anchor="start" x="279" y="-288.5" font-family="Helvetica,sans-Serif" font-size="10.00">&#45; _updateDisassembly()</text>
<text text-anchor="start" x="279" y="-277.5" font-family="Helvetica,sans-Serif" font-size="10.00">&#45; _parseInstruction()</text>
<text text-anchor="start" x="279" y="-266.5" font-family="Helvetica,sans-Serif" font-size="10.00">&#45; _getInstructionParameter()</text>
<text text-anchor="start" x="279" y="-255.5" font-family="Helvetica,sans-Serif" font-size="10.00">&#45; _getFlagsString()</text>
<text text-anchor="start" x="279" y="-244.5" font-family="Helvetica,sans-Serif" font-size="10.00">&#45; _updateRegistersPanel()</text>
<text text-anchor="start" x="279" y="-233.5" font-family="Helvetica,sans-Serif" font-size="10.00">&#45; _getImmediateValue()</text>
<text text-anchor="start" x="279" y="-222.5" font-family="Helvetica,sans-Serif" font-size="10.00">&#45; _getAbsoluteValue()</text>
<text text-anchor="start" x="279" y="-211.5" font-family="Helvetica,sans-Serif" font-size="10.00">and 17 more...</text>
</a>
</g>
</g>
<!-- Node1&#45;&gt;Node3 -->
<g id="edge22" class="edge">
<title>Node1&#45;&gt;Node3</title>
<path fill="none" stroke="#404040" d="M822.4,-771.39C817.63,-724.44 804.27,-654.15 767,-606 751.04,-585.38 740.95,-584.57 716,-577 662.7,-560.84 514.04,-587.19 466,-559 455.91,-553.08 446.53,-545.89 437.84,-537.84"/>
<polygon fill="none" stroke="#404040" points="437.58,-537.59 430.5,-536.22 429.04,-529.16 436.12,-530.53 437.58,-537.59"/>
<text text-anchor="middle" x="770.5" y="-580" font-family="Helvetica,sans-Serif" font-size="10.00"> &#45;_painter</text>
</g>
<!-- Node2 -->
<g id="node2" class="node">
<title>Node2</title>
<g id="a_node2"><a xlink:title=" ">
<polygon fill="white" stroke="#bfbfbf" points="958,-1184.5 958,-1241.5 1080,-1241.5 1080,-1184.5 958,-1184.5"/>
<text text-anchor="middle" x="1019" y="-1229.5" font-family="Helvetica,sans-Serif" font-size="10.00">QStyledItemDelegate</text>
<polyline fill="none" stroke="#bfbfbf" points="958,-1222.5 1080,-1222.5 "/>
<text text-anchor="middle" x="1019" y="-1210.5" font-family="Helvetica,sans-Serif" font-size="10.00"> </text>
<polyline fill="none" stroke="#bfbfbf" points="958,-1203.5 1080,-1203.5 "/>
<text text-anchor="middle" x="1019" y="-1191.5" font-family="Helvetica,sans-Serif" font-size="10.00"> </text>
</a>
</g>
</g>
<!-- Node2&#45;&gt;Node1 -->
<g id="edge1" class="edge">
<title>Node2&#45;&gt;Node1</title>
<path fill="none" stroke="midnightblue" d="M1000.54,-1174.98C965.49,-1104.71 889.31,-951.94 849.83,-872.79"/>
<polygon fill="none" stroke="midnightblue" points="997.61,-1176.95 1005.2,-1184.34 1003.87,-1173.83 997.61,-1176.95"/>
</g>
<!-- Node3&#45;&gt;Node1 -->
<g id="edge2" class="edge">
<title>Node3&#45;&gt;Node1</title>
<path fill="none" stroke="#404040" d="M429.37,-527.59C440.39,-539.57 452.59,-550.36 466,-559 494.46,-577.33 741.8,-583.4 767,-606 809.72,-644.31 822.4,-710.47 825.51,-759.31"/>
<polygon fill="none" stroke="#404040" points="825.51,-759.34 829.81,-765.13 826.11,-771.32 821.82,-765.53 825.51,-759.34"/>
<text text-anchor="middle" x="697" y="-580" font-family="Helvetica,sans-Serif" font-size="10.00"> &#45;_cpu</text>
</g>
<!-- Node14 -->
<g id="node14" class="node">
<title>Node14</title>
<g id="a_node14"><a xlink:href="classStackModel.html" target="_top" xlink:title="The qt model that show the stack.">
<polygon fill="white" stroke="black" points="182.5,-0.5 182.5,-145.5 291.5,-145.5 291.5,-0.5 182.5,-0.5"/>
<text text-anchor="middle" x="237" y="-133.5" font-family="Helvetica,sans-Serif" font-size="10.00">StackModel</text>
<polyline fill="none" stroke="black" points="182.5,-126.5 291.5,-126.5 "/>
<text text-anchor="start" x="190.5" y="-114.5" font-family="Helvetica,sans-Serif" font-size="10.00">&#45; _bus</text>
<polyline fill="none" stroke="black" points="182.5,-107.5 291.5,-107.5 "/>
<text text-anchor="start" x="190.5" y="-95.5" font-family="Helvetica,sans-Serif" font-size="10.00">+ StackModel()</text>
<text text-anchor="start" x="190.5" y="-84.5" font-family="Helvetica,sans-Serif" font-size="10.00">+ StackModel()</text>
<text text-anchor="start" x="190.5" y="-73.5" font-family="Helvetica,sans-Serif" font-size="10.00">+ operator=()</text>
<text text-anchor="start" x="190.5" y="-62.5" font-family="Helvetica,sans-Serif" font-size="10.00">+ ~StackModel()</text>
<text text-anchor="start" x="190.5" y="-51.5" font-family="Helvetica,sans-Serif" font-size="10.00">+ rowCount()</text>
<text text-anchor="start" x="190.5" y="-40.5" font-family="Helvetica,sans-Serif" font-size="10.00">+ columnCount()</text>
<text text-anchor="start" x="190.5" y="-29.5" font-family="Helvetica,sans-Serif" font-size="10.00">+ data()</text>
<text text-anchor="start" x="190.5" y="-18.5" font-family="Helvetica,sans-Serif" font-size="10.00">+ headerData()</text>
<text text-anchor="start" x="190.5" y="-7.5" font-family="Helvetica,sans-Serif" font-size="10.00">+ setMemoryBus()</text>
</a>
</g>
</g>
<!-- Node3&#45;&gt;Node14 -->
<g id="edge15" class="edge">
<title>Node3&#45;&gt;Node14</title>
<path fill="none" stroke="#404040" d="M270.98,-267.15C256.96,-241.55 244.47,-213.72 237,-186 234.56,-176.96 233.04,-167.35 232.18,-157.72"/>
<polygon fill="none" stroke="#404040" points="232.17,-157.51 227.8,-151.77 231.42,-145.54 235.79,-151.28 232.17,-157.51"/>
<text text-anchor="middle" x="252" y="-172.5" font-family="Helvetica,sans-Serif" font-size="10.00"> &#45;_cpu</text>
</g>
<!-- Node16 -->
<g id="node16" class="node">
<title>Node16</title>
<g id="a_node16"><a xlink:href="classComSquare_1_1Debugger_1_1ClosableWindow.html" target="_top" xlink:title=" ">
<polygon fill="white" stroke="black" points="368.5,-11.5 368.5,-134.5 539.5,-134.5 539.5,-11.5 368.5,-11.5"/>
<text text-anchor="start" x="376.5" y="-122.5" font-family="Helvetica,sans-Serif" font-size="10.00">ComSquare::Debugger</text>
<text text-anchor="start" x="376.5" y="-111.5" font-family="Helvetica,sans-Serif" font-size="10.00">::ClosableWindow&lt; ComSquare</text>
<text text-anchor="middle" x="454" y="-100.5" font-family="Helvetica,sans-Serif" font-size="10.00">::Debugger::CPUDebug &gt;</text>
<polyline fill="none" stroke="black" points="368.5,-93.5 539.5,-93.5 "/>
<text text-anchor="middle" x="454" y="-81.5" font-family="Helvetica,sans-Serif" font-size="10.00"> </text>
<polyline fill="none" stroke="black" points="368.5,-74.5 539.5,-74.5 "/>
<text text-anchor="start" x="376.5" y="-62.5" font-family="Helvetica,sans-Serif" font-size="10.00">+ ClosableWindow()</text>
<text text-anchor="start" x="376.5" y="-51.5" font-family="Helvetica,sans-Serif" font-size="10.00">+ ClosableWindow()</text>
<text text-anchor="start" x="376.5" y="-40.5" font-family="Helvetica,sans-Serif" font-size="10.00">+ operator=()</text>
<text text-anchor="start" x="376.5" y="-29.5" font-family="Helvetica,sans-Serif" font-size="10.00">+ ~ClosableWindow()</text>
<text text-anchor="start" x="376.5" y="-18.5" font-family="Helvetica,sans-Serif" font-size="10.00"># closeEvent()</text>
</a>
</g>
</g>
<!-- Node3&#45;&gt;Node16 -->
<g id="edge18" class="edge">
<title>Node3&#45;&gt;Node16</title>
<path fill="none" stroke="#404040" d="M364.97,-204.46C368.74,-190.5 373.36,-176.85 379,-164 381.86,-157.5 385.33,-151.1 389.2,-144.89"/>
<polygon fill="none" stroke="#404040" points="389.38,-144.62 389.38,-137.41 396.04,-134.64 396.03,-141.85 389.38,-144.62"/>
<text text-anchor="middle" x="403.5" y="-178" font-family="Helvetica,sans-Serif" font-size="10.00"> &#45;_obj</text>
<text text-anchor="middle" x="403.5" y="-167" font-family="Helvetica,sans-Serif" font-size="10.00">&#45;_onClose</text>
</g>
<!-- Node18 -->
<g id="node18" class="node">
<title>Node18</title>
<g id="a_node18"><a xlink:href="classDisassemblyModel.html" target="_top" xlink:title="The qt model that show the disassembly.">
<polygon fill="white" stroke="black" points="24.5,-6 24.5,-140 161.5,-140 161.5,-6 24.5,-6"/>
<text text-anchor="middle" x="93" y="-128" font-family="Helvetica,sans-Serif" font-size="10.00">DisassemblyModel</text>
<polyline fill="none" stroke="black" points="24.5,-121 161.5,-121 "/>
<text text-anchor="middle" x="93" y="-109" font-family="Helvetica,sans-Serif" font-size="10.00"> </text>
<polyline fill="none" stroke="black" points="24.5,-102 161.5,-102 "/>
<text text-anchor="start" x="32.5" y="-90" font-family="Helvetica,sans-Serif" font-size="10.00">+ DisassemblyModel()</text>
<text text-anchor="start" x="32.5" y="-79" font-family="Helvetica,sans-Serif" font-size="10.00">+ DisassemblyModel()</text>
<text text-anchor="start" x="32.5" y="-68" font-family="Helvetica,sans-Serif" font-size="10.00">+ operator=()</text>
<text text-anchor="start" x="32.5" y="-57" font-family="Helvetica,sans-Serif" font-size="10.00">+ ~DisassemblyModel()</text>
<text text-anchor="start" x="32.5" y="-46" font-family="Helvetica,sans-Serif" font-size="10.00">+ rowCount()</text>
<text text-anchor="start" x="32.5" y="-35" font-family="Helvetica,sans-Serif" font-size="10.00">+ columnCount()</text>
<text text-anchor="start" x="32.5" y="-24" font-family="Helvetica,sans-Serif" font-size="10.00">+ data()</text>
<text text-anchor="start" x="32.5" y="-13" font-family="Helvetica,sans-Serif" font-size="10.00">+ headerData()</text>
</a>
</g>
</g>
<!-- Node3&#45;&gt;Node18 -->
<g id="edge21" class="edge">
<title>Node3&#45;&gt;Node18</title>
<path fill="none" stroke="#404040" d="M270.97,-324.24C226.03,-288.85 171.58,-239.8 135,-186 127.88,-175.52 121.76,-163.68 116.58,-151.72"/>
<polygon fill="none" stroke="#404040" points="116.44,-151.36 110.47,-147.32 111.9,-140.25 117.87,-144.29 116.44,-151.36"/>
<text text-anchor="middle" x="150" y="-172.5" font-family="Helvetica,sans-Serif" font-size="10.00"> &#45;_cpu</text>
</g>
<!-- Node4 -->
<g id="node4" class="node">
<title>Node4</title>
<g id="a_node4"><a xlink:href="classComSquare_1_1CPU_1_1CPU.html" target="_top" xlink:title="The main CPU.">
<polygon fill="white" stroke="black" points="368,-606.5 368,-1037.5 554,-1037.5 554,-606.5 368,-606.5"/>
<text text-anchor="middle" x="461" y="-1025.5" font-family="Helvetica,sans-Serif" font-size="10.00">ComSquare::CPU::CPU</text>
<polyline fill="none" stroke="black" points="368,-1018.5 554,-1018.5 "/>
<text text-anchor="start" x="376" y="-1006.5" font-family="Helvetica,sans-Serif" font-size="10.00">+ IsNMIRequested</text>
<text text-anchor="start" x="376" y="-995.5" font-family="Helvetica,sans-Serif" font-size="10.00">+ IsIRQRequested</text>
<text text-anchor="start" x="376" y="-984.5" font-family="Helvetica,sans-Serif" font-size="10.00">+ IsAbortRequested</text>
<text text-anchor="start" x="376" y="-973.5" font-family="Helvetica,sans-Serif" font-size="10.00"># _isEmulationMode</text>
<text text-anchor="start" x="376" y="-962.5" font-family="Helvetica,sans-Serif" font-size="10.00"># _isStopped</text>
<text text-anchor="start" x="376" y="-951.5" font-family="Helvetica,sans-Serif" font-size="10.00"># _isWaitingForInterrupt</text>
<text text-anchor="start" x="376" y="-940.5" font-family="Helvetica,sans-Serif" font-size="10.00"># _bus</text>
<text text-anchor="start" x="376" y="-929.5" font-family="Helvetica,sans-Serif" font-size="10.00"># _dmaChannels</text>
<text text-anchor="start" x="376" y="-918.5" font-family="Helvetica,sans-Serif" font-size="10.00"># _hasIndexCrossedPageBoundary</text>
<polyline fill="none" stroke="black" points="368,-911.5 554,-911.5 "/>
<text text-anchor="start" x="376" y="-899.5" font-family="Helvetica,sans-Serif" font-size="10.00">+ CPU()</text>
<text text-anchor="start" x="376" y="-888.5" font-family="Helvetica,sans-Serif" font-size="10.00">+ CPU()</text>
<text text-anchor="start" x="376" y="-877.5" font-family="Helvetica,sans-Serif" font-size="10.00">+ operator=()</text>
<text text-anchor="start" x="376" y="-866.5" font-family="Helvetica,sans-Serif" font-size="10.00">+ ~CPU()</text>
<text text-anchor="start" x="376" y="-855.5" font-family="Helvetica,sans-Serif" font-size="10.00">+ update()</text>
<text text-anchor="start" x="376" y="-844.5" font-family="Helvetica,sans-Serif" font-size="10.00">+ read()</text>
<text text-anchor="start" x="376" y="-833.5" font-family="Helvetica,sans-Serif" font-size="10.00">+ write()</text>
<text text-anchor="start" x="376" y="-822.5" font-family="Helvetica,sans-Serif" font-size="10.00">+ getSize()</text>
<text text-anchor="start" x="376" y="-811.5" font-family="Helvetica,sans-Serif" font-size="10.00">+ getName()</text>
<text text-anchor="start" x="376" y="-800.5" font-family="Helvetica,sans-Serif" font-size="10.00">+ getComponent()</text>
<text text-anchor="start" x="376" y="-789.5" font-family="Helvetica,sans-Serif" font-size="10.00">+ RESB()</text>
<text text-anchor="start" x="376" y="-778.5" font-family="Helvetica,sans-Serif" font-size="10.00">+ isDebugger()</text>
<text text-anchor="start" x="376" y="-767.5" font-family="Helvetica,sans-Serif" font-size="10.00">+ setMemoryBus()</text>
<text text-anchor="start" x="376" y="-756.5" font-family="Helvetica,sans-Serif" font-size="10.00"># _getImmediateAddr8Bits()</text>
<text text-anchor="start" x="376" y="-745.5" font-family="Helvetica,sans-Serif" font-size="10.00"># _getImmediateAddr16Bits()</text>
<text text-anchor="start" x="376" y="-734.5" font-family="Helvetica,sans-Serif" font-size="10.00"># _getImmediateAddrForA()</text>
<text text-anchor="start" x="376" y="-723.5" font-family="Helvetica,sans-Serif" font-size="10.00"># _getImmediateAddrForX()</text>
<text text-anchor="start" x="376" y="-712.5" font-family="Helvetica,sans-Serif" font-size="10.00"># _getDirectAddr()</text>
<text text-anchor="start" x="376" y="-701.5" font-family="Helvetica,sans-Serif" font-size="10.00"># _getAbsoluteAddr()</text>
<text text-anchor="start" x="376" y="-690.5" font-family="Helvetica,sans-Serif" font-size="10.00"># _getAbsoluteLongAddr()</text>
<text text-anchor="start" x="376" y="-679.5" font-family="Helvetica,sans-Serif" font-size="10.00"># _getDirectIndirectIndexed</text>
<text text-anchor="start" x="376" y="-668.5" font-family="Helvetica,sans-Serif" font-size="10.00">YAddr()</text>
<text text-anchor="start" x="376" y="-657.5" font-family="Helvetica,sans-Serif" font-size="10.00"># _getDirectIndirectIndexed</text>
<text text-anchor="start" x="376" y="-646.5" font-family="Helvetica,sans-Serif" font-size="10.00">YLongAddr()</text>
<text text-anchor="start" x="376" y="-635.5" font-family="Helvetica,sans-Serif" font-size="10.00"># _getDirectIndirectIndexed</text>
<text text-anchor="start" x="376" y="-624.5" font-family="Helvetica,sans-Serif" font-size="10.00">XAddr()</text>
<text text-anchor="start" x="376" y="-613.5" font-family="Helvetica,sans-Serif" font-size="10.00">and 113 more...</text>
</a>
</g>
</g>
<!-- Node4&#45;&gt;Node3 -->
<g id="edge3" class="edge">
<title>Node4&#45;&gt;Node3</title>
<path fill="none" stroke="midnightblue" d="M404.18,-596.53C400.96,-583.82 397.75,-571.13 394.59,-558.64"/>
<polygon fill="none" stroke="midnightblue" points="400.79,-597.41 406.64,-606.25 407.58,-595.69 400.79,-597.41"/>
</g>
<!-- Node5 -->
<g id="node5" class="node">
<title>Node5</title>
<g id="a_node5"><a xlink:href="classComSquare_1_1Memory_1_1AMemory.html" target="_top" xlink:title="Abstract class representing a continuous block of memory.">
<polygon fill="white" stroke="black" points="138.5,-1140.5 138.5,-1285.5 269.5,-1285.5 269.5,-1140.5 138.5,-1140.5"/>
<text text-anchor="start" x="146.5" y="-1273.5" font-family="Helvetica,sans-Serif" font-size="10.00">ComSquare::Memory::</text>
<text text-anchor="middle" x="204" y="-1262.5" font-family="Helvetica,sans-Serif" font-size="10.00">AMemory</text>
<polyline fill="none" stroke="black" points="138.5,-1255.5 269.5,-1255.5 "/>
<text text-anchor="start" x="146.5" y="-1243.5" font-family="Helvetica,sans-Serif" font-size="10.00"># _start</text>
<text text-anchor="start" x="146.5" y="-1232.5" font-family="Helvetica,sans-Serif" font-size="10.00"># _end</text>
<polyline fill="none" stroke="black" points="138.5,-1225.5 269.5,-1225.5 "/>
<text text-anchor="start" x="146.5" y="-1213.5" font-family="Helvetica,sans-Serif" font-size="10.00">+ getRelativeAddress()</text>
<text text-anchor="start" x="146.5" y="-1202.5" font-family="Helvetica,sans-Serif" font-size="10.00">+ setMemoryRegion()</text>
<text text-anchor="start" x="146.5" y="-1191.5" font-family="Helvetica,sans-Serif" font-size="10.00">+ hasMemoryAt()</text>
<text text-anchor="start" x="146.5" y="-1180.5" font-family="Helvetica,sans-Serif" font-size="10.00">+ isMirror()</text>
<text text-anchor="start" x="146.5" y="-1169.5" font-family="Helvetica,sans-Serif" font-size="10.00">+ getValueName()</text>
<text text-anchor="start" x="146.5" y="-1158.5" font-family="Helvetica,sans-Serif" font-size="10.00">+ getMirrored()</text>
<text text-anchor="start" x="146.5" y="-1147.5" font-family="Helvetica,sans-Serif" font-size="10.00">+ ~AMemory()</text>
</a>
</g>
</g>
<!-- Node5&#45;&gt;Node4 -->
<g id="edge4" class="edge">
<title>Node5&#45;&gt;Node4</title>
<path fill="none" stroke="midnightblue" d="M243.1,-1131.62C253.36,-1115.05 265.42,-1098.55 279,-1085 308.19,-1055.87 331.15,-1068.42 359,-1038 362.07,-1034.65 365.06,-1031.19 367.98,-1027.63"/>
<polygon fill="none" stroke="midnightblue" points="240.05,-1129.89 237.9,-1140.27 246.05,-1133.5 240.05,-1129.89"/>
</g>
<!-- Node6 -->
<g id="node6" class="node">
<title>Node6</title>
<g id="a_node6"><a xlink:href="classComSquare_1_1Memory_1_1IMemory.html" target="_top" xlink:title="Common interface implemented by all components mapping memory.">
<polygon fill="white" stroke="black" points="138.5,-1399.5 138.5,-1577.5 269.5,-1577.5 269.5,-1399.5 138.5,-1399.5"/>
<text text-anchor="start" x="146.5" y="-1565.5" font-family="Helvetica,sans-Serif" font-size="10.00">ComSquare::Memory::</text>
<text text-anchor="middle" x="204" y="-1554.5" font-family="Helvetica,sans-Serif" font-size="10.00">IMemory</text>
<polyline fill="none" stroke="black" points="138.5,-1547.5 269.5,-1547.5 "/>
<text text-anchor="middle" x="204" y="-1535.5" font-family="Helvetica,sans-Serif" font-size="10.00"> </text>
<polyline fill="none" stroke="black" points="138.5,-1528.5 269.5,-1528.5 "/>
<text text-anchor="start" x="146.5" y="-1516.5" font-family="Helvetica,sans-Serif" font-size="10.00">+ read()</text>
<text text-anchor="start" x="146.5" y="-1505.5" font-family="Helvetica,sans-Serif" font-size="10.00">+ write()</text>
<text text-anchor="start" x="146.5" y="-1494.5" font-family="Helvetica,sans-Serif" font-size="10.00">+ hasMemoryAt()</text>
<text text-anchor="start" x="146.5" y="-1483.5" font-family="Helvetica,sans-Serif" font-size="10.00">+ getRelativeAddress()</text>
<text text-anchor="start" x="146.5" y="-1472.5" font-family="Helvetica,sans-Serif" font-size="10.00">+ getSize()</text>
<text text-anchor="start" x="146.5" y="-1461.5" font-family="Helvetica,sans-Serif" font-size="10.00">+ isMirror()</text>
<text text-anchor="start" x="146.5" y="-1450.5" font-family="Helvetica,sans-Serif" font-size="10.00">+ getName()</text>
<text text-anchor="start" x="146.5" y="-1439.5" font-family="Helvetica,sans-Serif" font-size="10.00">+ getComponent()</text>
<text text-anchor="start" x="146.5" y="-1428.5" font-family="Helvetica,sans-Serif" font-size="10.00">+ getValueName()</text>
<text text-anchor="start" x="146.5" y="-1417.5" font-family="Helvetica,sans-Serif" font-size="10.00">+ getMirrored()</text>
<text text-anchor="start" x="146.5" y="-1406.5" font-family="Helvetica,sans-Serif" font-size="10.00">+ ~IMemory()</text>
</a>
</g>
</g>
<!-- Node6&#45;&gt;Node5 -->
<g id="edge5" class="edge">
<title>Node6&#45;&gt;Node5</title>
<path fill="none" stroke="midnightblue" d="M204,-1389.45C204,-1355.26 204,-1317.55 204,-1285.89"/>
<polygon fill="none" stroke="midnightblue" points="200.5,-1389.46 204,-1399.46 207.5,-1389.46 200.5,-1389.46"/>
</g>
<!-- Node7 -->
<g id="node7" class="node">
<title>Node7</title>
<g id="a_node7"><a xlink:href="structComSquare_1_1Cartridge_1_1Header.html" target="_top" xlink:title=" ">
<polygon fill="white" stroke="black" points="288,-1085.5 288,-1340.5 434,-1340.5 434,-1085.5 288,-1085.5"/>
<text text-anchor="start" x="296" y="-1328.5" font-family="Helvetica,sans-Serif" font-size="10.00">ComSquare::Cartridge</text>
<text text-anchor="middle" x="361" y="-1317.5" font-family="Helvetica,sans-Serif" font-size="10.00">::Header</text>
<polyline fill="none" stroke="black" points="288,-1310.5 434,-1310.5 "/>
<text text-anchor="start" x="296" y="-1298.5" font-family="Helvetica,sans-Serif" font-size="10.00">+ gameName</text>
<text text-anchor="start" x="296" y="-1287.5" font-family="Helvetica,sans-Serif" font-size="10.00">+ mappingMode</text>
<text text-anchor="start" x="296" y="-1276.5" font-family="Helvetica,sans-Serif" font-size="10.00">+ romType</text>
<text text-anchor="start" x="296" y="-1265.5" font-family="Helvetica,sans-Serif" font-size="10.00">+ romSize</text>
<text text-anchor="start" x="296" y="-1254.5" font-family="Helvetica,sans-Serif" font-size="10.00">+ sramSize</text>
<text text-anchor="start" x="296" y="-1243.5" font-family="Helvetica,sans-Serif" font-size="10.00">+ creatorIDs</text>
<text text-anchor="start" x="296" y="-1232.5" font-family="Helvetica,sans-Serif" font-size="10.00">+ creatorID</text>
<text text-anchor="start" x="296" y="-1221.5" font-family="Helvetica,sans-Serif" font-size="10.00">+ @21</text>
<text text-anchor="start" x="296" y="-1210.5" font-family="Helvetica,sans-Serif" font-size="10.00">+ version</text>
<text text-anchor="start" x="296" y="-1199.5" font-family="Helvetica,sans-Serif" font-size="10.00">+ checksumComplements</text>
<text text-anchor="start" x="296" y="-1188.5" font-family="Helvetica,sans-Serif" font-size="10.00">+ checksumComplement</text>
<text text-anchor="start" x="296" y="-1177.5" font-family="Helvetica,sans-Serif" font-size="10.00">+ @23</text>
<text text-anchor="start" x="296" y="-1166.5" font-family="Helvetica,sans-Serif" font-size="10.00">+ checksums</text>
<text text-anchor="start" x="296" y="-1155.5" font-family="Helvetica,sans-Serif" font-size="10.00">+ checksum</text>
<text text-anchor="start" x="296" y="-1144.5" font-family="Helvetica,sans-Serif" font-size="10.00">+ @25</text>
<polyline fill="none" stroke="black" points="288,-1137.5 434,-1137.5 "/>
<text text-anchor="start" x="296" y="-1125.5" font-family="Helvetica,sans-Serif" font-size="10.00">+ Header()</text>
<text text-anchor="start" x="296" y="-1114.5" font-family="Helvetica,sans-Serif" font-size="10.00">+ Header()</text>
<text text-anchor="start" x="296" y="-1103.5" font-family="Helvetica,sans-Serif" font-size="10.00">+ operator=()</text>
<text text-anchor="start" x="296" y="-1092.5" font-family="Helvetica,sans-Serif" font-size="10.00">+ ~Header()</text>
</a>
</g>
</g>
<!-- Node7&#45;&gt;Node4 -->
<g id="edge6" class="edge">
<title>Node7&#45;&gt;Node4</title>
<path fill="none" stroke="#404040" d="M393.54,-1085.43C396.54,-1073.75 399.64,-1061.7 402.78,-1049.47"/>
<polygon fill="none" stroke="#404040" points="402.82,-1049.32 400.44,-1042.52 405.81,-1037.7 408.19,-1044.51 402.82,-1049.32"/>
<text text-anchor="middle" x="448" y="-1059" font-family="Helvetica,sans-Serif" font-size="10.00"> #_cartridgeHeader</text>
</g>
<!-- Node8 -->
<g id="node8" class="node">
<title>Node8</title>
<g id="a_node8"><a xlink:href="structComSquare_1_1Cartridge_1_1InterruptVectors.html" target="_top" xlink:title=" ">
<polygon fill="white" stroke="black" points="299,-1399.5 299,-1577.5 423,-1577.5 423,-1399.5 299,-1399.5"/>
<text text-anchor="start" x="307" y="-1565.5" font-family="Helvetica,sans-Serif" font-size="10.00">ComSquare::Cartridge</text>
<text text-anchor="middle" x="361" y="-1554.5" font-family="Helvetica,sans-Serif" font-size="10.00">::InterruptVectors</text>
<polyline fill="none" stroke="black" points="299,-1547.5 423,-1547.5 "/>
<text text-anchor="start" x="307" y="-1535.5" font-family="Helvetica,sans-Serif" font-size="10.00">+ cop8</text>
<text text-anchor="start" x="307" y="-1524.5" font-family="Helvetica,sans-Serif" font-size="10.00">+ cop</text>
<text text-anchor="start" x="307" y="-1513.5" font-family="Helvetica,sans-Serif" font-size="10.00">+ @27</text>
<text text-anchor="start" x="307" y="-1502.5" font-family="Helvetica,sans-Serif" font-size="10.00">+ brk8</text>
<text text-anchor="start" x="307" y="-1491.5" font-family="Helvetica,sans-Serif" font-size="10.00">+ brk</text>
<text text-anchor="start" x="307" y="-1480.5" font-family="Helvetica,sans-Serif" font-size="10.00">+ @29</text>
<text text-anchor="start" x="307" y="-1469.5" font-family="Helvetica,sans-Serif" font-size="10.00">+ abort8</text>
<text text-anchor="start" x="307" y="-1458.5" font-family="Helvetica,sans-Serif" font-size="10.00">+ abort</text>
<text text-anchor="start" x="307" y="-1447.5" font-family="Helvetica,sans-Serif" font-size="10.00">+ @31</text>
<text text-anchor="start" x="307" y="-1436.5" font-family="Helvetica,sans-Serif" font-size="10.00">+ nmi8</text>
<text text-anchor="start" x="307" y="-1425.5" font-family="Helvetica,sans-Serif" font-size="10.00">and 8 more...</text>
<polyline fill="none" stroke="black" points="299,-1418.5 423,-1418.5 "/>
<text text-anchor="middle" x="361" y="-1406.5" font-family="Helvetica,sans-Serif" font-size="10.00"> </text>
</a>
</g>
</g>
<!-- Node8&#45;&gt;Node7 -->
<g id="edge7" class="edge">
<title>Node8&#45;&gt;Node7</title>
<path fill="none" stroke="#404040" d="M361,-1399.46C361,-1384.52 361,-1368.7 361,-1352.84"/>
<polygon fill="none" stroke="#404040" points="361,-1352.72 357,-1346.72 361,-1340.72 365,-1346.72 361,-1352.72"/>
<text text-anchor="middle" x="415.5" y="-1373" font-family="Helvetica,sans-Serif" font-size="10.00"> +emulationInterrupts</text>
<text text-anchor="middle" x="415.5" y="-1362" font-family="Helvetica,sans-Serif" font-size="10.00">+nativeInterrupts</text>
</g>
<!-- Node9 -->
<g id="node9" class="node">
<title>Node9</title>
<g id="a_node9"><a xlink:href="structComSquare_1_1CPU_1_1Instruction.html" target="_top" xlink:title="Struct containing basic information about instructions.">
<polygon fill="white" stroke="black" points="452.5,-1162.5 452.5,-1263.5 609.5,-1263.5 609.5,-1162.5 452.5,-1162.5"/>
<text text-anchor="middle" x="531" y="-1251.5" font-family="Helvetica,sans-Serif" font-size="10.00">ComSquare::CPU::Instruction</text>
<polyline fill="none" stroke="black" points="452.5,-1244.5 609.5,-1244.5 "/>
<text text-anchor="start" x="460.5" y="-1232.5" font-family="Helvetica,sans-Serif" font-size="10.00">+ call</text>
<text text-anchor="start" x="460.5" y="-1221.5" font-family="Helvetica,sans-Serif" font-size="10.00">+ cycleCount</text>
<text text-anchor="start" x="460.5" y="-1210.5" font-family="Helvetica,sans-Serif" font-size="10.00">+ name</text>
<text text-anchor="start" x="460.5" y="-1199.5" font-family="Helvetica,sans-Serif" font-size="10.00">+ addressingMode</text>
<text text-anchor="start" x="460.5" y="-1188.5" font-family="Helvetica,sans-Serif" font-size="10.00">+ size</text>
<polyline fill="none" stroke="black" points="452.5,-1181.5 609.5,-1181.5 "/>
<text text-anchor="middle" x="531" y="-1169.5" font-family="Helvetica,sans-Serif" font-size="10.00"> </text>
</a>
</g>
</g>
<!-- Node9&#45;&gt;Node4 -->
<g id="edge8" class="edge">
<title>Node9&#45;&gt;Node4</title>
<path fill="none" stroke="#404040" d="M522.06,-1162.34C516.69,-1132.48 509.43,-1092.11 501.78,-1049.63"/>
<polygon fill="none" stroke="#404040" points="501.74,-1049.42 496.74,-1044.22 499.62,-1037.6 504.62,-1042.8 501.74,-1049.42"/>
<text text-anchor="middle" x="542" y="-1059" font-family="Helvetica,sans-Serif" font-size="10.00"> #_instructions</text>
</g>
<!-- Node10 -->
<g id="node10" class="node">
<title>Node10</title>
<g id="a_node10"><a xlink:href="structComSquare_1_1CPU_1_1InternalRegisters.html" target="_top" xlink:title="Struct containing internal registers of the CPU.">
<polygon fill="white" stroke="black" points="627.5,-1124 627.5,-1302 770.5,-1302 770.5,-1124 627.5,-1124"/>
<text text-anchor="start" x="635.5" y="-1290" font-family="Helvetica,sans-Serif" font-size="10.00">ComSquare::CPU::Internal</text>
<text text-anchor="middle" x="699" y="-1279" font-family="Helvetica,sans-Serif" font-size="10.00">Registers</text>
<polyline fill="none" stroke="black" points="627.5,-1272 770.5,-1272 "/>
<text text-anchor="start" x="635.5" y="-1260" font-family="Helvetica,sans-Serif" font-size="10.00">+ nmitimen</text>
<text text-anchor="start" x="635.5" y="-1249" font-family="Helvetica,sans-Serif" font-size="10.00">+ wrio</text>
<text text-anchor="start" x="635.5" y="-1238" font-family="Helvetica,sans-Serif" font-size="10.00">+ wrmpya</text>
<text text-anchor="start" x="635.5" y="-1227" font-family="Helvetica,sans-Serif" font-size="10.00">+ wrmpyb</text>
<text text-anchor="start" x="635.5" y="-1216" font-family="Helvetica,sans-Serif" font-size="10.00">+ wrdivl</text>
<text text-anchor="start" x="635.5" y="-1205" font-family="Helvetica,sans-Serif" font-size="10.00">+ wrdivh</text>
<text text-anchor="start" x="635.5" y="-1194" font-family="Helvetica,sans-Serif" font-size="10.00">+ wrdivb</text>
<text text-anchor="start" x="635.5" y="-1183" font-family="Helvetica,sans-Serif" font-size="10.00">+ htimel</text>
<text text-anchor="start" x="635.5" y="-1172" font-family="Helvetica,sans-Serif" font-size="10.00">+ htimeh</text>
<text text-anchor="start" x="635.5" y="-1161" font-family="Helvetica,sans-Serif" font-size="10.00">+ vtimel</text>
<text text-anchor="start" x="635.5" y="-1150" font-family="Helvetica,sans-Serif" font-size="10.00">and 19 more...</text>
<polyline fill="none" stroke="black" points="627.5,-1143 770.5,-1143 "/>
<text text-anchor="middle" x="699" y="-1131" font-family="Helvetica,sans-Serif" font-size="10.00"> </text>
</a>
</g>
</g>
<!-- Node10&#45;&gt;Node4 -->
<g id="edge9" class="edge">
<title>Node10&#45;&gt;Node4</title>
<path fill="none" stroke="#404040" d="M647.69,-1123.73C638.46,-1110.26 628.43,-1096.89 618,-1085 615.32,-1081.95 564.48,-1041.22 562,-1038 561.75,-1037.67 561.49,-1037.34 561.24,-1037.01"/>
<polygon fill="none" stroke="#404040" points="561.15,-1036.89 554.37,-1034.42 554.04,-1027.22 560.81,-1029.68 561.15,-1036.89"/>
<text text-anchor="middle" x="647" y="-1059" font-family="Helvetica,sans-Serif" font-size="10.00"> #_internalRegisters</text>
</g>
<!-- Node11 -->
<g id="node11" class="node">
<title>Node11</title>
<g id="a_node11"><a xlink:href="structComSquare_1_1CPU_1_1Registers.html" target="_top" xlink:title="Struct containing registers for the main CPU.">
<polygon fill="white" stroke="black" points="788.5,-1129.5 788.5,-1296.5 939.5,-1296.5 939.5,-1129.5 788.5,-1129.5"/>
<text text-anchor="middle" x="864" y="-1284.5" font-family="Helvetica,sans-Serif" font-size="10.00">ComSquare::CPU::Registers</text>
<polyline fill="none" stroke="black" points="788.5,-1277.5 939.5,-1277.5 "/>
<text text-anchor="start" x="796.5" y="-1265.5" font-family="Helvetica,sans-Serif" font-size="10.00">+ al</text>
<text text-anchor="start" x="796.5" y="-1254.5" font-family="Helvetica,sans-Serif" font-size="10.00">+ ah</text>
<text text-anchor="start" x="796.5" y="-1243.5" font-family="Helvetica,sans-Serif" font-size="10.00">+ a</text>
<text text-anchor="start" x="796.5" y="-1232.5" font-family="Helvetica,sans-Serif" font-size="10.00">+ @39</text>
<text text-anchor="start" x="796.5" y="-1221.5" font-family="Helvetica,sans-Serif" font-size="10.00">+ dbr</text>
<text text-anchor="start" x="796.5" y="-1210.5" font-family="Helvetica,sans-Serif" font-size="10.00">+ dl</text>
<text text-anchor="start" x="796.5" y="-1199.5" font-family="Helvetica,sans-Serif" font-size="10.00">+ dh</text>
<text text-anchor="start" x="796.5" y="-1188.5" font-family="Helvetica,sans-Serif" font-size="10.00">+ d</text>
<text text-anchor="start" x="796.5" y="-1177.5" font-family="Helvetica,sans-Serif" font-size="10.00">+ @41</text>
<text text-anchor="start" x="796.5" y="-1166.5" font-family="Helvetica,sans-Serif" font-size="10.00">+ pcl</text>
<text text-anchor="start" x="796.5" y="-1155.5" font-family="Helvetica,sans-Serif" font-size="10.00">and 27 more...</text>
<polyline fill="none" stroke="black" points="788.5,-1148.5 939.5,-1148.5 "/>
<text text-anchor="middle" x="864" y="-1136.5" font-family="Helvetica,sans-Serif" font-size="10.00"> </text>
</a>
</g>
</g>
<!-- Node11&#45;&gt;Node4 -->
<g id="edge10" class="edge">
<title>Node11&#45;&gt;Node4</title>
<path fill="none" stroke="#404040" d="M819.8,-1129.48C808.19,-1113.13 794.51,-1097.25 779,-1085 749.98,-1062.08 736.9,-1064.88 701,-1056 644.07,-1041.93 615.74,-1070.93 564.13,-1038.67"/>
<polygon fill="none" stroke="#404040" points="564.12,-1038.67 556.91,-1038.59 554.21,-1031.91 561.42,-1031.98 564.12,-1038.67"/>
<text text-anchor="middle" x="778" y="-1059" font-family="Helvetica,sans-Serif" font-size="10.00"> #_registers</text>
</g>
<!-- Node12 -->
<g id="node12" class="node">
<title>Node12</title>
<g id="a_node12"><a xlink:title=" ">
<polygon fill="white" stroke="#bfbfbf" points="294,-793.5 294,-850.5 350,-850.5 350,-793.5 294,-793.5"/>
<text text-anchor="middle" x="322" y="-838.5" font-family="Helvetica,sans-Serif" font-size="10.00">QObject</text>
<polyline fill="none" stroke="#bfbfbf" points="294,-831.5 350,-831.5 "/>
<text text-anchor="middle" x="322" y="-819.5" font-family="Helvetica,sans-Serif" font-size="10.00"> </text>
<polyline fill="none" stroke="#bfbfbf" points="294,-812.5 350,-812.5 "/>
<text text-anchor="middle" x="322" y="-800.5" font-family="Helvetica,sans-Serif" font-size="10.00"> </text>
</a>
</g>
</g>
<!-- Node12&#45;&gt;Node3 -->
<g id="edge11" class="edge">
<title>Node12&#45;&gt;Node3</title>
<path fill="none" stroke="midnightblue" d="M324.41,-783.21C327.61,-733.2 333.45,-641.63 338.75,-558.65"/>
<polygon fill="none" stroke="midnightblue" points="320.92,-783.03 323.77,-793.24 327.9,-783.48 320.92,-783.03"/>
</g>
<!-- Node13 -->
<g id="node13" class="node">
<title>Node13</title>
<g id="a_node13"><a xlink:href="classComSquare_1_1SNES.html" target="_top" xlink:title="Container of all the components of the SNES.">
<polygon fill="white" stroke="black" points="571.5,-705.5 571.5,-938.5 758.5,-938.5 758.5,-705.5 571.5,-705.5"/>
<text text-anchor="middle" x="665" y="-926.5" font-family="Helvetica,sans-Serif" font-size="10.00">ComSquare::SNES</text>
<polyline fill="none" stroke="black" points="571.5,-919.5 758.5,-919.5 "/>
<text text-anchor="start" x="579.5" y="-907.5" font-family="Helvetica,sans-Serif" font-size="10.00">+ bus</text>
<text text-anchor="start" x="579.5" y="-896.5" font-family="Helvetica,sans-Serif" font-size="10.00">+ cartridge</text>
<text text-anchor="start" x="579.5" y="-885.5" font-family="Helvetica,sans-Serif" font-size="10.00">+ wram</text>
<text text-anchor="start" x="579.5" y="-874.5" font-family="Helvetica,sans-Serif" font-size="10.00">+ sram</text>
<text text-anchor="start" x="579.5" y="-863.5" font-family="Helvetica,sans-Serif" font-size="10.00">+ cpu</text>
<text text-anchor="start" x="579.5" y="-852.5" font-family="Helvetica,sans-Serif" font-size="10.00">+ ppu</text>
<text text-anchor="start" x="579.5" y="-841.5" font-family="Helvetica,sans-Serif" font-size="10.00">+ apu</text>
<polyline fill="none" stroke="black" points="571.5,-834.5 758.5,-834.5 "/>
<text text-anchor="start" x="579.5" y="-822.5" font-family="Helvetica,sans-Serif" font-size="10.00">+ update()</text>
<text text-anchor="start" x="579.5" y="-811.5" font-family="Helvetica,sans-Serif" font-size="10.00">+ disableCPUDebugging()</text>
<text text-anchor="start" x="579.5" y="-800.5" font-family="Helvetica,sans-Serif" font-size="10.00">+ enableCPUDebugging()</text>
<text text-anchor="start" x="579.5" y="-789.5" font-family="Helvetica,sans-Serif" font-size="10.00">+ enableCPUDebuggingWithError()</text>
<text text-anchor="start" x="579.5" y="-778.5" font-family="Helvetica,sans-Serif" font-size="10.00">+ disableRamViewer()</text>
<text text-anchor="start" x="579.5" y="-767.5" font-family="Helvetica,sans-Serif" font-size="10.00">+ enableRamViewer()</text>
<text text-anchor="start" x="579.5" y="-756.5" font-family="Helvetica,sans-Serif" font-size="10.00">+ disableHeaderViewer()</text>
<text text-anchor="start" x="579.5" y="-745.5" font-family="Helvetica,sans-Serif" font-size="10.00">+ enableHeaderViewer()</text>
<text text-anchor="start" x="579.5" y="-734.5" font-family="Helvetica,sans-Serif" font-size="10.00">+ disableAPUDebugging()</text>
<text text-anchor="start" x="579.5" y="-723.5" font-family="Helvetica,sans-Serif" font-size="10.00">+ enableAPUDebugging()</text>
<text text-anchor="start" x="579.5" y="-712.5" font-family="Helvetica,sans-Serif" font-size="10.00">and 10 more...</text>
</a>
</g>
</g>
<!-- Node13&#45;&gt;Node3 -->
<g id="edge12" class="edge">
<title>Node13&#45;&gt;Node3</title>
<path fill="none" stroke="#404040" d="M627.26,-705.36C611.59,-670.27 590.49,-633.72 563,-606 529.27,-571.99 502.01,-590.6 466,-559 455.77,-550.02 446.06,-539.93 436.95,-529.25"/>
<polygon fill="none" stroke="#404040" points="436.73,-528.98 429.83,-526.89 429.1,-519.72 436,-521.81 436.73,-528.98"/>
<text text-anchor="middle" x="553.5" y="-580" font-family="Helvetica,sans-Serif" font-size="10.00"> &#45;_snes</text>
</g>
<!-- Node14&#45;&gt;Node3 -->
<g id="edge13" class="edge">
<title>Node14&#45;&gt;Node3</title>
<path fill="none" stroke="#404040" d="M263.41,-145.64C268.8,-160.26 274.71,-176.28 280.82,-192.87"/>
<polygon fill="none" stroke="#404040" points="280.93,-193.17 286.76,-197.41 285.09,-204.43 279.26,-200.18 280.93,-193.17"/>
<text text-anchor="middle" x="311.5" y="-172.5" font-family="Helvetica,sans-Serif" font-size="10.00"> &#45;_stackModel</text>
</g>
<!-- Node15 -->
<g id="node15" class="node">
<title>Node15</title>
<g id="a_node15"><a xlink:title=" ">
<polygon fill="white" stroke="#bfbfbf" points="0,-1184.5 0,-1241.5 120,-1241.5 120,-1184.5 0,-1184.5"/>
<text text-anchor="middle" x="60" y="-1229.5" font-family="Helvetica,sans-Serif" font-size="10.00">QAbstractTableModel</text>
<polyline fill="none" stroke="#bfbfbf" points="0,-1222.5 120,-1222.5 "/>
<text text-anchor="middle" x="60" y="-1210.5" font-family="Helvetica,sans-Serif" font-size="10.00"> </text>
<polyline fill="none" stroke="#bfbfbf" points="0,-1203.5 120,-1203.5 "/>
<text text-anchor="middle" x="60" y="-1191.5" font-family="Helvetica,sans-Serif" font-size="10.00"> </text>
</a>
</g>
</g>
<!-- Node15&#45;&gt;Node14 -->
<g id="edge14" class="edge">
<title>Node15&#45;&gt;Node14</title>
<path fill="none" stroke="midnightblue" d="M66.32,-1174.05C72.03,-1138.86 80.37,-1085 86,-1038 109.2,-844.37 92.22,-344.93 165,-164 169.37,-153.14 175.5,-142.54 182.36,-132.66"/>
<polygon fill="none" stroke="midnightblue" points="62.8,-1173.91 64.64,-1184.34 69.71,-1175.04 62.8,-1173.91"/>
</g>
<!-- Node15&#45;&gt;Node18 -->
<g id="edge20" class="edge">
<title>Node15&#45;&gt;Node18</title>
<path fill="none" stroke="midnightblue" d="M61.09,-1174.31C65.87,-1009.65 84.93,-352.18 91.08,-140.22"/>
<polygon fill="none" stroke="midnightblue" points="57.59,-1174.34 60.8,-1184.43 64.59,-1174.54 57.59,-1174.34"/>
</g>
<!-- Node19 -->
<g id="node19" class="node">
<title>Node19</title>
<g id="a_node19"><a xlink:href="classHistoryModel.html" target="_top" xlink:title="The qt model that show the history.">
<polygon fill="white" stroke="black" points="166.5,-744 166.5,-900 275.5,-900 275.5,-744 166.5,-744"/>
<text text-anchor="middle" x="221" y="-888" font-family="Helvetica,sans-Serif" font-size="10.00">HistoryModel</text>
<polyline fill="none" stroke="black" points="166.5,-881 275.5,-881 "/>
<text text-anchor="start" x="174.5" y="-869" font-family="Helvetica,sans-Serif" font-size="10.00">&#45; _instructions</text>
<polyline fill="none" stroke="black" points="166.5,-862 275.5,-862 "/>
<text text-anchor="start" x="174.5" y="-850" font-family="Helvetica,sans-Serif" font-size="10.00">+ HistoryModel()</text>
<text text-anchor="start" x="174.5" y="-839" font-family="Helvetica,sans-Serif" font-size="10.00">+ HistoryModel()</text>
<text text-anchor="start" x="174.5" y="-828" font-family="Helvetica,sans-Serif" font-size="10.00">+ operator=()</text>
<text text-anchor="start" x="174.5" y="-817" font-family="Helvetica,sans-Serif" font-size="10.00">+ ~HistoryModel()</text>
<text text-anchor="start" x="174.5" y="-806" font-family="Helvetica,sans-Serif" font-size="10.00">+ log()</text>
<text text-anchor="start" x="174.5" y="-795" font-family="Helvetica,sans-Serif" font-size="10.00">+ clear()</text>
<text text-anchor="start" x="174.5" y="-784" font-family="Helvetica,sans-Serif" font-size="10.00">+ rowCount()</text>
<text text-anchor="start" x="174.5" y="-773" font-family="Helvetica,sans-Serif" font-size="10.00">+ columnCount()</text>
<text text-anchor="start" x="174.5" y="-762" font-family="Helvetica,sans-Serif" font-size="10.00">+ data()</text>
<text text-anchor="start" x="174.5" y="-751" font-family="Helvetica,sans-Serif" font-size="10.00">+ headerData()</text>
</a>
</g>
</g>
<!-- Node15&#45;&gt;Node19 -->
<g id="edge24" class="edge">
<title>Node15&#45;&gt;Node19</title>
<path fill="none" stroke="midnightblue" d="M75.16,-1175.09C87.26,-1148.33 105.98,-1112.21 129,-1085 137.38,-1075.09 144.77,-1077.78 152,-1067 185.49,-1017.11 202.88,-951.05 211.82,-900.25"/>
<polygon fill="none" stroke="midnightblue" points="71.84,-1173.93 71,-1184.49 78.25,-1176.76 71.84,-1173.93"/>
</g>
<!-- Node16&#45;&gt;Node3 -->
<g id="edge16" class="edge">
<title>Node16&#45;&gt;Node3</title>
<path fill="none" stroke="#404040" d="M444.42,-134.72C441.14,-151.5 437.01,-169.61 432,-186 431.31,-188.27 430.6,-190.54 429.87,-192.83"/>
<polygon fill="none" stroke="#404040" points="429.85,-192.9 431.78,-199.85 426.11,-204.31 424.18,-197.36 429.85,-192.9"/>
<text text-anchor="middle" x="463" y="-172.5" font-family="Helvetica,sans-Serif" font-size="10.00"> &#45;_window</text>
</g>
<!-- Node17 -->
<g id="node17" class="node">
<title>Node17</title>
<g id="a_node17"><a xlink:title=" ">
<polygon fill="white" stroke="#bfbfbf" points="475.5,-353 475.5,-410 562.5,-410 562.5,-353 475.5,-353"/>
<text text-anchor="middle" x="519" y="-398" font-family="Helvetica,sans-Serif" font-size="10.00">QMainWindow</text>
<polyline fill="none" stroke="#bfbfbf" points="475.5,-391 562.5,-391 "/>
<text text-anchor="middle" x="519" y="-379" font-family="Helvetica,sans-Serif" font-size="10.00"> </text>
<polyline fill="none" stroke="#bfbfbf" points="475.5,-372 562.5,-372 "/>
<text text-anchor="middle" x="519" y="-360" font-family="Helvetica,sans-Serif" font-size="10.00"> </text>
</a>
</g>
</g>
<!-- Node17&#45;&gt;Node16 -->
<g id="edge17" class="edge">
<title>Node17&#45;&gt;Node16</title>
<path fill="none" stroke="midnightblue" d="M521.6,-342.58C523.47,-298.64 523.06,-224.52 505,-164 502.07,-154.19 497.92,-144.29 493.23,-134.82"/>
<polygon fill="none" stroke="midnightblue" points="518.09,-342.65 521.1,-352.81 525.09,-342.99 518.09,-342.65"/>
</g>
<!-- Node18&#45;&gt;Node3 -->
<g id="edge19" class="edge">
<title>Node18&#45;&gt;Node3</title>
<path fill="none" stroke="#404040" d="M147.75,-140.1C160.3,-155.2 173.59,-171.17 186,-186 210.81,-215.65 237.83,-247.76 262.64,-277.19"/>
<polygon fill="none" stroke="#404040" points="262.87,-277.47 269.8,-279.47 270.61,-286.64 263.69,-284.63 262.87,-277.47"/>
<text text-anchor="middle" x="207.5" y="-172.5" font-family="Helvetica,sans-Serif" font-size="10.00"> &#45;_model</text>
</g>
<!-- Node19&#45;&gt;Node3 -->
<g id="edge23" class="edge">
<title>Node19&#45;&gt;Node3</title>
<path fill="none" stroke="#404040" d="M226.9,-743.89C232.03,-695.23 241.37,-631.5 258,-577 260.6,-568.49 263.51,-559.88 266.65,-551.27"/>
<polygon fill="none" stroke="#404040" points="266.68,-551.17 265.05,-544.15 270.9,-539.94 272.54,-546.97 266.68,-551.17"/>
<text text-anchor="middle" x="296" y="-580" font-family="Helvetica,sans-Serif" font-size="10.00"> &#45;_historyModel</text>
</g>
</g>
</svg>
