<?xml version="1.0" encoding="UTF-8" standalone="no"?>
<!DOCTYPE svg PUBLIC "-//W3C//DTD SVG 1.1//EN"
 "http://www.w3.org/Graphics/SVG/1.1/DTD/svg11.dtd">
<!-- Generated by graphviz version 2.43.0 (0)
 -->
<!-- Title: ComSquare::Renderer::QtWidgetSFML Pages: 1 -->
<svg width="208pt" height="843pt"
 viewBox="0.00 0.00 208.00 843.00" xmlns="http://www.w3.org/2000/svg" xmlns:xlink="http://www.w3.org/1999/xlink">
<g id="graph0" class="graph" transform="scale(1 1) rotate(0) translate(4 839)">
<title>ComSquare::Renderer::QtWidgetSFML</title>
<polygon fill="white" stroke="transparent" points="-4,4 -4,-839 204,-839 204,4 -4,4"/>
<!-- Node1 -->
<g id="node1" class="node">
<title>Node1</title>
<g id="a_node1"><a xlink:title="A widget that you can put inside a QT application that render using the SFML.">
<polygon fill="#bfbfbf" stroke="black" points="22,-237.5 22,-404.5 145,-404.5 145,-237.5 22,-237.5"/>
<text text-anchor="start" x="30" y="-392.5" font-family="Helvetica,sans-Serif" font-size="10.00">ComSquare::Renderer</text>
<text text-anchor="middle" x="83.5" y="-381.5" font-family="Helvetica,sans-Serif" font-size="10.00">::QtWidgetSFML</text>
<polyline fill="none" stroke="black" points="22,-374.5 145,-374.5 "/>
<text text-anchor="start" x="30" y="-362.5" font-family="Helvetica,sans-Serif" font-size="10.00">&#45; _timer</text>
<text text-anchor="start" x="30" y="-351.5" font-family="Helvetica,sans-Serif" font-size="10.00">&#45; _isInitialized</text>
<polyline fill="none" stroke="black" points="22,-344.5 145,-344.5 "/>
<text text-anchor="start" x="30" y="-332.5" font-family="Helvetica,sans-Serif" font-size="10.00">+ QtWidgetSFML()</text>
<text text-anchor="start" x="30" y="-321.5" font-family="Helvetica,sans-Serif" font-size="10.00">+ QtWidgetSFML()</text>
<text text-anchor="start" x="30" y="-310.5" font-family="Helvetica,sans-Serif" font-size="10.00">+ operator=()</text>
<text text-anchor="start" x="30" y="-299.5" font-family="Helvetica,sans-Serif" font-size="10.00">+ ~QtWidgetSFML()</text>
<text text-anchor="start" x="30" y="-288.5" font-family="Helvetica,sans-Serif" font-size="10.00">&#45; _onInit()</text>
<text text-anchor="start" x="30" y="-277.5" font-family="Helvetica,sans-Serif" font-size="10.00">&#45; _onUpdate()</text>
<text text-anchor="start" x="30" y="-266.5" font-family="Helvetica,sans-Serif" font-size="10.00">&#45; paintEngine()</text>
<text text-anchor="start" x="30" y="-255.5" font-family="Helvetica,sans-Serif" font-size="10.00">&#45; showEvent()</text>
<text text-anchor="start" x="30" y="-244.5" font-family="Helvetica,sans-Serif" font-size="10.00">&#45; paintEvent()</text>
</a>
</g>
</g>
<!-- Node5 -->
<g id="node5" class="node">
<title>Node5</title>
<g id="a_node5"><a xlink:href="classComSquare_1_1Renderer_1_1QtFullSFML.html" target="_top" xlink:title="The SFML window that manage the update.">
<polygon fill="white" stroke="black" points="12,-0.5 12,-200.5 155,-200.5 155,-0.5 12,-0.5"/>
<text text-anchor="start" x="20" y="-188.5" font-family="Helvetica,sans-Serif" font-size="10.00">ComSquare::Renderer</text>
<text text-anchor="middle" x="83.5" y="-177.5" font-family="Helvetica,sans-Serif" font-size="10.00">::QtFullSFML</text>
<polyline fill="none" stroke="black" points="12,-170.5 155,-170.5 "/>
<text text-anchor="start" x="20" y="-158.5" font-family="Helvetica,sans-Serif" font-size="10.00">&#45; _snes</text>
<polyline fill="none" stroke="black" points="12,-151.5 155,-151.5 "/>
<text text-anchor="start" x="20" y="-139.5" font-family="Helvetica,sans-Serif" font-size="10.00">+ enableDebugCPU()</text>
<text text-anchor="start" x="20" y="-128.5" font-family="Helvetica,sans-Serif" font-size="10.00">+ enableRamViewer()</text>
<text text-anchor="start" x="20" y="-117.5" font-family="Helvetica,sans-Serif" font-size="10.00">+ enableHeaderViewer()</text>
<text text-anchor="start" x="20" y="-106.5" font-family="Helvetica,sans-Serif" font-size="10.00">+ enableDebugAPU()</text>
<text text-anchor="start" x="20" y="-95.5" font-family="Helvetica,sans-Serif" font-size="10.00">+ enableDebugBus()</text>
<text text-anchor="start" x="20" y="-84.5" font-family="Helvetica,sans-Serif" font-size="10.00">+ enableCgramViewer()</text>
<text text-anchor="start" x="20" y="-73.5" font-family="Helvetica,sans-Serif" font-size="10.00">+ enableRegisterViewer()</text>
<text text-anchor="start" x="20" y="-62.5" font-family="Helvetica,sans-Serif" font-size="10.00">+ reset()</text>
<text text-anchor="start" x="20" y="-51.5" font-family="Helvetica,sans-Serif" font-size="10.00">+ QtFullSFML()</text>
<text text-anchor="start" x="20" y="-40.5" font-family="Helvetica,sans-Serif" font-size="10.00">+ QtFullSFML()</text>
<text text-anchor="start" x="20" y="-29.5" font-family="Helvetica,sans-Serif" font-size="10.00">+ operator=()</text>
<text text-anchor="start" x="20" y="-18.5" font-family="Helvetica,sans-Serif" font-size="10.00">+ ~QtFullSFML()</text>
<text text-anchor="start" x="20" y="-7.5" font-family="Helvetica,sans-Serif" font-size="10.00">&#45; _onUpdate()</text>
</a>
</g>
</g>
<!-- Node1&#45;&gt;Node5 -->
<g id="edge4" class="edge">
<title>Node1&#45;&gt;Node5</title>
<path fill="none" stroke="midnightblue" d="M83.5,-227.21C83.5,-218.46 83.5,-209.57 83.5,-200.76"/>
<polygon fill="none" stroke="midnightblue" points="80,-227.39 83.5,-237.39 87,-227.39 80,-227.39"/>
</g>
<!-- Node2 -->
<g id="node2" class="node">
<title>Node2</title>
<g id="a_node2"><a xlink:title=" ">
<polygon fill="white" stroke="#bfbfbf" points="0,-535 0,-592 59,-592 59,-535 0,-535"/>
<text text-anchor="middle" x="29.5" y="-580" font-family="Helvetica,sans-Serif" font-size="10.00">QWidget</text>
<polyline fill="none" stroke="#bfbfbf" points="0,-573 59,-573 "/>
<text text-anchor="middle" x="29.5" y="-561" font-family="Helvetica,sans-Serif" font-size="10.00"> </text>
<polyline fill="none" stroke="#bfbfbf" points="0,-554 59,-554 "/>
<text text-anchor="middle" x="29.5" y="-542" font-family="Helvetica,sans-Serif" font-size="10.00"> </text>
</a>
</g>
</g>
<!-- Node2&#45;&gt;Node1 -->
<g id="edge1" class="edge">
<title>Node2&#45;&gt;Node1</title>
<path fill="none" stroke="midnightblue" d="M37.91,-525.05C45.12,-492.92 55.78,-445.46 64.98,-404.5"/>
<polygon fill="none" stroke="midnightblue" points="34.47,-524.39 35.69,-534.91 41.3,-525.92 34.47,-524.39"/>
</g>
<!-- Node3 -->
<g id="node3" class="node">
<title>Node3</title>
<g id="a_node3"><a xlink:href="classComSquare_1_1Renderer_1_1SFRenderer.html" target="_top" xlink:title=" ">
<polygon fill="white" stroke="black" points="77,-441.5 77,-685.5 200,-685.5 200,-441.5 77,-441.5"/>
<text text-anchor="start" x="85" y="-673.5" font-family="Helvetica,sans-Serif" font-size="10.00">ComSquare::Renderer</text>
<text text-anchor="middle" x="138.5" y="-662.5" font-family="Helvetica,sans-Serif" font-size="10.00">::SFRenderer</text>
<polyline fill="none" stroke="black" points="77,-655.5 200,-655.5 "/>
<text text-anchor="start" x="85" y="-643.5" font-family="Helvetica,sans-Serif" font-size="10.00">+ shouldExit</text>
<text text-anchor="start" x="85" y="-632.5" font-family="Helvetica,sans-Serif" font-size="10.00"># _window</text>
<text text-anchor="start" x="85" y="-621.5" font-family="Helvetica,sans-Serif" font-size="10.00"># _videoMode</text>
<text text-anchor="start" x="85" y="-610.5" font-family="Helvetica,sans-Serif" font-size="10.00"># _pixelBuffer</text>
<text text-anchor="start" x="85" y="-599.5" font-family="Helvetica,sans-Serif" font-size="10.00"># _sprite</text>
<text text-anchor="start" x="85" y="-588.5" font-family="Helvetica,sans-Serif" font-size="10.00"># _texture</text>
<text text-anchor="start" x="85" y="-577.5" font-family="Helvetica,sans-Serif" font-size="10.00"># _soundBuffer</text>
<text text-anchor="start" x="85" y="-566.5" font-family="Helvetica,sans-Serif" font-size="10.00"># _sound</text>
<polyline fill="none" stroke="black" points="77,-559.5 200,-559.5 "/>
<text text-anchor="start" x="85" y="-547.5" font-family="Helvetica,sans-Serif" font-size="10.00">+ setWindowName()</text>
<text text-anchor="start" x="85" y="-536.5" font-family="Helvetica,sans-Serif" font-size="10.00">+ drawScreen()</text>
<text text-anchor="start" x="85" y="-525.5" font-family="Helvetica,sans-Serif" font-size="10.00">+ putPixel()</text>
<text text-anchor="start" x="85" y="-514.5" font-family="Helvetica,sans-Serif" font-size="10.00">+ playAudio()</text>
<text text-anchor="start" x="85" y="-503.5" font-family="Helvetica,sans-Serif" font-size="10.00">+ getEvents()</text>
<text text-anchor="start" x="85" y="-492.5" font-family="Helvetica,sans-Serif" font-size="10.00">+ createWindow()</text>
<text text-anchor="start" x="85" y="-481.5" font-family="Helvetica,sans-Serif" font-size="10.00">+ SFRenderer()</text>
<text text-anchor="start" x="85" y="-470.5" font-family="Helvetica,sans-Serif" font-size="10.00">+ SFRenderer()</text>
<text text-anchor="start" x="85" y="-459.5" font-family="Helvetica,sans-Serif" font-size="10.00">+ operator=()</text>
<text text-anchor="start" x="85" y="-448.5" font-family="Helvetica,sans-Serif" font-size="10.00">+ ~SFRenderer()</text>
</a>
</g>
</g>
<!-- Node3&#45;&gt;Node1 -->
<g id="edge2" class="edge">
<title>Node3&#45;&gt;Node1</title>
<path fill="none" stroke="midnightblue" d="M108.51,-431.35C106.44,-422.29 104.38,-413.32 102.4,-404.64"/>
<polygon fill="none" stroke="midnightblue" points="105.12,-432.23 110.76,-441.19 111.94,-430.66 105.12,-432.23"/>
</g>
<!-- Node4 -->
<g id="node4" class="node">
<title>Node4</title>
<g id="a_node4"><a xlink:href="classComSquare_1_1Renderer_1_1IRenderer.html" target="_top" xlink:title=" ">
<polygon fill="white" stroke="black" points="77,-722.5 77,-834.5 200,-834.5 200,-722.5 77,-722.5"/>
<text text-anchor="start" x="85" y="-822.5" font-family="Helvetica,sans-Serif" font-size="10.00">ComSquare::Renderer</text>
<text text-anchor="middle" x="138.5" y="-811.5" font-family="Helvetica,sans-Serif" font-size="10.00">::IRenderer</text>
<polyline fill="none" stroke="black" points="77,-804.5 200,-804.5 "/>
<text text-anchor="middle" x="138.5" y="-792.5" font-family="Helvetica,sans-Serif" font-size="10.00"> </text>
<polyline fill="none" stroke="black" points="77,-785.5 200,-785.5 "/>
<text text-anchor="start" x="85" y="-773.5" font-family="Helvetica,sans-Serif" font-size="10.00">+ setWindowName()</text>
<text text-anchor="start" x="85" y="-762.5" font-family="Helvetica,sans-Serif" font-size="10.00">+ drawScreen()</text>
<text text-anchor="start" x="85" y="-751.5" font-family="Helvetica,sans-Serif" font-size="10.00">+ putPixel()</text>
<text text-anchor="start" x="85" y="-740.5" font-family="Helvetica,sans-Serif" font-size="10.00">+ createWindow()</text>
<text text-anchor="start" x="85" y="-729.5" font-family="Helvetica,sans-Serif" font-size="10.00">+ playAudio()</text>
</a>
</g>
</g>
<!-- Node4&#45;&gt;Node3 -->
<g id="edge3" class="edge">
<title>Node4&#45;&gt;Node3</title>
<path fill="none" stroke="midnightblue" d="M138.5,-712.19C138.5,-703.65 138.5,-694.7 138.5,-685.6"/>
<polygon fill="none" stroke="midnightblue" points="135,-712.37 138.5,-722.37 142,-712.37 135,-712.37"/>
</g>
</g>
</svg>
