<?xml version="1.0" encoding="UTF-8" standalone="no"?>
<!DOCTYPE svg PUBLIC "-//W3C//DTD SVG 1.1//EN"
 "http://www.w3.org/Graphics/SVG/1.1/DTD/svg11.dtd">
<!-- Generated by graphviz version 2.43.0 (0)
 -->
<!-- Title: CGramModel Pages: 1 -->
<svg width="449pt" height="833pt"
 viewBox="0.00 0.00 448.50 833.00" xmlns="http://www.w3.org/2000/svg" xmlns:xlink="http://www.w3.org/1999/xlink">
<g id="graph0" class="graph" transform="scale(1 1) rotate(0) translate(4 829)">
<title>CGramModel</title>
<polygon fill="white" stroke="transparent" points="-4,4 -4,-829 444.5,-829 444.5,4 -4,4"/>
<!-- Node1 -->
<g id="node1" class="node">
<title>Node1</title>
<g id="a_node1"><a xlink:title="The qt model that bind the logs to the view.">
<polygon fill="#bfbfbf" stroke="black" points="33,-0.5 33,-156.5 140,-156.5 140,-0.5 33,-0.5"/>
<text text-anchor="middle" x="86.5" y="-144.5" font-family="Helvetica,sans-Serif" font-size="10.00">CGramModel</text>
<polyline fill="none" stroke="black" points="33,-137.5 140,-137.5 "/>
<text text-anchor="start" x="41" y="-125.5" font-family="Helvetica,sans-Serif" font-size="10.00">+ column</text>
<text text-anchor="start" x="41" y="-114.5" font-family="Helvetica,sans-Serif" font-size="10.00">+ rows</text>
<text text-anchor="start" x="41" y="-103.5" font-family="Helvetica,sans-Serif" font-size="10.00">+ x</text>
<text text-anchor="start" x="41" y="-92.5" font-family="Helvetica,sans-Serif" font-size="10.00">+ y</text>
<polyline fill="none" stroke="black" points="33,-85.5 140,-85.5 "/>
<text text-anchor="start" x="41" y="-73.5" font-family="Helvetica,sans-Serif" font-size="10.00">+ CGramModel()</text>
<text text-anchor="start" x="41" y="-62.5" font-family="Helvetica,sans-Serif" font-size="10.00">+ CGramModel()</text>
<text text-anchor="start" x="41" y="-51.5" font-family="Helvetica,sans-Serif" font-size="10.00">+ operator=()</text>
<text text-anchor="start" x="41" y="-40.5" font-family="Helvetica,sans-Serif" font-size="10.00">+ ~CGramModel()</text>
<text text-anchor="start" x="41" y="-29.5" font-family="Helvetica,sans-Serif" font-size="10.00">+ rowCount()</text>
<text text-anchor="start" x="41" y="-18.5" font-family="Helvetica,sans-Serif" font-size="10.00">+ columnCount()</text>
<text text-anchor="start" x="41" y="-7.5" font-family="Helvetica,sans-Serif" font-size="10.00">+ data()</text>
</a>
</g>
</g>
<!-- Node2 -->
<g id="node2" class="node">
<title>Node2</title>
<g id="a_node2"><a xlink:title=" ">
<polygon fill="white" stroke="#bfbfbf" points="10.5,-270.5 10.5,-327.5 130.5,-327.5 130.5,-270.5 10.5,-270.5"/>
<text text-anchor="middle" x="70.5" y="-315.5" font-family="Helvetica,sans-Serif" font-size="10.00">QAbstractTableModel</text>
<polyline fill="none" stroke="#bfbfbf" points="10.5,-308.5 130.5,-308.5 "/>
<text text-anchor="middle" x="70.5" y="-296.5" font-family="Helvetica,sans-Serif" font-size="10.00"> </text>
<polyline fill="none" stroke="#bfbfbf" points="10.5,-289.5 130.5,-289.5 "/>
<text text-anchor="middle" x="70.5" y="-277.5" font-family="Helvetica,sans-Serif" font-size="10.00"> </text>
</a>
</g>
</g>
<!-- Node2&#45;&gt;Node1 -->
<g id="edge1" class="edge">
<title>Node2&#45;&gt;Node1</title>
<path fill="none" stroke="midnightblue" d="M73.28,-260.02C75.36,-231.58 78.28,-191.71 80.85,-156.67"/>
<polygon fill="none" stroke="midnightblue" points="69.77,-260.1 72.53,-270.33 76.75,-260.61 69.77,-260.1"/>
</g>
<!-- Node3 -->
<g id="node3" class="node">
<title>Node3</title>
<g id="a_node3"><a xlink:href="classComSquare_1_1PPU_1_1PPU.html" target="_top" xlink:title="The class containing all the registers of the PPU.">
<polygon fill="white" stroke="black" points="148.5,-204.5 148.5,-393.5 272.5,-393.5 272.5,-204.5 148.5,-204.5"/>
<text text-anchor="middle" x="210.5" y="-381.5" font-family="Helvetica,sans-Serif" font-size="10.00">ComSquare::PPU::PPU</text>
<polyline fill="none" stroke="black" points="148.5,-374.5 272.5,-374.5 "/>
<text text-anchor="start" x="156.5" y="-362.5" font-family="Helvetica,sans-Serif" font-size="10.00">+ vram</text>
<text text-anchor="start" x="156.5" y="-351.5" font-family="Helvetica,sans-Serif" font-size="10.00">+ oamram</text>
<text text-anchor="start" x="156.5" y="-340.5" font-family="Helvetica,sans-Serif" font-size="10.00">+ cgram</text>
<polyline fill="none" stroke="black" points="148.5,-333.5 272.5,-333.5 "/>
<text text-anchor="start" x="156.5" y="-321.5" font-family="Helvetica,sans-Serif" font-size="10.00">+ PPU()</text>
<text text-anchor="start" x="156.5" y="-310.5" font-family="Helvetica,sans-Serif" font-size="10.00">+ PPU()</text>
<text text-anchor="start" x="156.5" y="-299.5" font-family="Helvetica,sans-Serif" font-size="10.00">+ operator=()</text>
<text text-anchor="start" x="156.5" y="-288.5" font-family="Helvetica,sans-Serif" font-size="10.00">+ ~PPU()</text>
<text text-anchor="start" x="156.5" y="-277.5" font-family="Helvetica,sans-Serif" font-size="10.00">+ read()</text>
<text text-anchor="start" x="156.5" y="-266.5" font-family="Helvetica,sans-Serif" font-size="10.00">+ write()</text>
<text text-anchor="start" x="156.5" y="-255.5" font-family="Helvetica,sans-Serif" font-size="10.00">+ getName()</text>
<text text-anchor="start" x="156.5" y="-244.5" font-family="Helvetica,sans-Serif" font-size="10.00">+ getComponent()</text>
<text text-anchor="start" x="156.5" y="-233.5" font-family="Helvetica,sans-Serif" font-size="10.00">+ getSize()</text>
<text text-anchor="start" x="156.5" y="-222.5" font-family="Helvetica,sans-Serif" font-size="10.00">+ update()</text>
<text text-anchor="start" x="156.5" y="-211.5" font-family="Helvetica,sans-Serif" font-size="10.00">and 11 more...</text>
</a>
</g>
</g>
<!-- Node3&#45;&gt;Node1 -->
<g id="edge2" class="edge">
<title>Node3&#45;&gt;Node1</title>
<path fill="none" stroke="#404040" d="M157.37,-204.39C150.41,-192.11 143.29,-179.57 136.38,-167.4"/>
<polygon fill="none" stroke="#404040" points="136.3,-167.24 129.86,-164 130.37,-156.81 136.81,-160.05 136.3,-167.24"/>
<text text-anchor="middle" x="161" y="-178" font-family="Helvetica,sans-Serif" font-size="10.00"> &#45;_ppu</text>
</g>
<!-- Node4 -->
<g id="node4" class="node">
<title>Node4</title>
<g id="a_node4"><a xlink:href="classComSquare_1_1Memory_1_1AMemory.html" target="_top" xlink:title="Abstract class representing a continuous block of memory.">
<polygon fill="white" stroke="black" points="0,-452.5 0,-597.5 131,-597.5 131,-452.5 0,-452.5"/>
<text text-anchor="start" x="8" y="-585.5" font-family="Helvetica,sans-Serif" font-size="10.00">ComSquare::Memory::</text>
<text text-anchor="middle" x="65.5" y="-574.5" font-family="Helvetica,sans-Serif" font-size="10.00">AMemory</text>
<polyline fill="none" stroke="black" points="0,-567.5 131,-567.5 "/>
<text text-anchor="start" x="8" y="-555.5" font-family="Helvetica,sans-Serif" font-size="10.00"># _start</text>
<text text-anchor="start" x="8" y="-544.5" font-family="Helvetica,sans-Serif" font-size="10.00"># _end</text>
<polyline fill="none" stroke="black" points="0,-537.5 131,-537.5 "/>
<text text-anchor="start" x="8" y="-525.5" font-family="Helvetica,sans-Serif" font-size="10.00">+ getRelativeAddress()</text>
<text text-anchor="start" x="8" y="-514.5" font-family="Helvetica,sans-Serif" font-size="10.00">+ setMemoryRegion()</text>
<text text-anchor="start" x="8" y="-503.5" font-family="Helvetica,sans-Serif" font-size="10.00">+ hasMemoryAt()</text>
<text text-anchor="start" x="8" y="-492.5" font-family="Helvetica,sans-Serif" font-size="10.00">+ isMirror()</text>
<text text-anchor="start" x="8" y="-481.5" font-family="Helvetica,sans-Serif" font-size="10.00">+ getValueName()</text>
<text text-anchor="start" x="8" y="-470.5" font-family="Helvetica,sans-Serif" font-size="10.00">+ getMirrored()</text>
<text text-anchor="start" x="8" y="-459.5" font-family="Helvetica,sans-Serif" font-size="10.00">+ ~AMemory()</text>
</a>
</g>
</g>
<!-- Node4&#45;&gt;Node3 -->
<g id="edge3" class="edge">
<title>Node4&#45;&gt;Node3</title>
<path fill="none" stroke="midnightblue" d="M117.68,-443.39C128.07,-427.33 139.07,-410.35 149.72,-393.89"/>
<polygon fill="none" stroke="midnightblue" points="114.47,-441.9 111.98,-452.2 120.35,-445.71 114.47,-441.9"/>
</g>
<!-- Node5 -->
<g id="node5" class="node">
<title>Node5</title>
<g id="a_node5"><a xlink:href="classComSquare_1_1Memory_1_1IMemory.html" target="_top" xlink:title="Common interface implemented by all components mapping memory.">
<polygon fill="white" stroke="black" points="0,-646.5 0,-824.5 131,-824.5 131,-646.5 0,-646.5"/>
<text text-anchor="start" x="8" y="-812.5" font-family="Helvetica,sans-Serif" font-size="10.00">ComSquare::Memory::</text>
<text text-anchor="middle" x="65.5" y="-801.5" font-family="Helvetica,sans-Serif" font-size="10.00">IMemory</text>
<polyline fill="none" stroke="black" points="0,-794.5 131,-794.5 "/>
<text text-anchor="middle" x="65.5" y="-782.5" font-family="Helvetica,sans-Serif" font-size="10.00"> </text>
<polyline fill="none" stroke="black" points="0,-775.5 131,-775.5 "/>
<text text-anchor="start" x="8" y="-763.5" font-family="Helvetica,sans-Serif" font-size="10.00">+ read()</text>
<text text-anchor="start" x="8" y="-752.5" font-family="Helvetica,sans-Serif" font-size="10.00">+ write()</text>
<text text-anchor="start" x="8" y="-741.5" font-family="Helvetica,sans-Serif" font-size="10.00">+ hasMemoryAt()</text>
<text text-anchor="start" x="8" y="-730.5" font-family="Helvetica,sans-Serif" font-size="10.00">+ getRelativeAddress()</text>
<text text-anchor="start" x="8" y="-719.5" font-family="Helvetica,sans-Serif" font-size="10.00">+ getSize()</text>
<text text-anchor="start" x="8" y="-708.5" font-family="Helvetica,sans-Serif" font-size="10.00">+ isMirror()</text>
<text text-anchor="start" x="8" y="-697.5" font-family="Helvetica,sans-Serif" font-size="10.00">+ getName()</text>
<text text-anchor="start" x="8" y="-686.5" font-family="Helvetica,sans-Serif" font-size="10.00">+ getComponent()</text>
<text text-anchor="start" x="8" y="-675.5" font-family="Helvetica,sans-Serif" font-size="10.00">+ getValueName()</text>
<text text-anchor="start" x="8" y="-664.5" font-family="Helvetica,sans-Serif" font-size="10.00">+ getMirrored()</text>
<text text-anchor="start" x="8" y="-653.5" font-family="Helvetica,sans-Serif" font-size="10.00">+ ~IMemory()</text>
</a>
</g>
</g>
<!-- Node5&#45;&gt;Node4 -->
<g id="edge4" class="edge">
<title>Node5&#45;&gt;Node4</title>
<path fill="none" stroke="midnightblue" d="M65.5,-636.05C65.5,-623.13 65.5,-610.09 65.5,-597.72"/>
<polygon fill="none" stroke="midnightblue" points="62,-636.38 65.5,-646.38 69,-636.38 62,-636.38"/>
</g>
<!-- Node6 -->
<g id="node6" class="node">
<title>Node6</title>
<g id="a_node6"><a xlink:href="classComSquare_1_1Renderer_1_1IRenderer.html" target="_top" xlink:title=" ">
<polygon fill="white" stroke="black" points="149,-469 149,-581 272,-581 272,-469 149,-469"/>
<text text-anchor="start" x="157" y="-569" font-family="Helvetica,sans-Serif" font-size="10.00">ComSquare::Renderer</text>
<text text-anchor="middle" x="210.5" y="-558" font-family="Helvetica,sans-Serif" font-size="10.00">::IRenderer</text>
<polyline fill="none" stroke="black" points="149,-551 272,-551 "/>
<text text-anchor="middle" x="210.5" y="-539" font-family="Helvetica,sans-Serif" font-size="10.00"> </text>
<polyline fill="none" stroke="black" points="149,-532 272,-532 "/>
<text text-anchor="start" x="157" y="-520" font-family="Helvetica,sans-Serif" font-size="10.00">+ setWindowName()</text>
<text text-anchor="start" x="157" y="-509" font-family="Helvetica,sans-Serif" font-size="10.00">+ drawScreen()</text>
<text text-anchor="start" x="157" y="-498" font-family="Helvetica,sans-Serif" font-size="10.00">+ putPixel()</text>
<text text-anchor="start" x="157" y="-487" font-family="Helvetica,sans-Serif" font-size="10.00">+ createWindow()</text>
<text text-anchor="start" x="157" y="-476" font-family="Helvetica,sans-Serif" font-size="10.00">+ playAudio()</text>
</a>
</g>
</g>
<!-- Node6&#45;&gt;Node3 -->
<g id="edge5" class="edge">
<title>Node6&#45;&gt;Node3</title>
<path fill="none" stroke="#404040" d="M210.5,-468.92C210.5,-449.79 210.5,-427.65 210.5,-405.82"/>
<polygon fill="none" stroke="#404040" points="210.5,-405.74 206.5,-399.74 210.5,-393.74 214.5,-399.74 210.5,-405.74"/>
<text text-anchor="middle" x="237.5" y="-415" font-family="Helvetica,sans-Serif" font-size="10.00"> &#45;_renderer</text>
</g>
<!-- Node7 -->
<g id="node7" class="node">
<title>Node7</title>
<g id="a_node7"><a xlink:href="structComSquare_1_1PPU_1_1Registers.html" target="_top" xlink:title=" ">
<polygon fill="white" stroke="black" points="290.5,-441.5 290.5,-608.5 440.5,-608.5 440.5,-441.5 290.5,-441.5"/>
<text text-anchor="middle" x="365.5" y="-596.5" font-family="Helvetica,sans-Serif" font-size="10.00">ComSquare::PPU::Registers</text>
<polyline fill="none" stroke="black" points="290.5,-589.5 440.5,-589.5 "/>
<text text-anchor="start" x="298.5" y="-577.5" font-family="Helvetica,sans-Serif" font-size="10.00">+ brightness</text>
<text text-anchor="start" x="298.5" y="-566.5" font-family="Helvetica,sans-Serif" font-size="10.00">+ _</text>
<text text-anchor="start" x="298.5" y="-555.5" font-family="Helvetica,sans-Serif" font-size="10.00">+ fblank</text>
<text text-anchor="start" x="298.5" y="-544.5" font-family="Helvetica,sans-Serif" font-size="10.00">+ raw</text>
<text text-anchor="start" x="298.5" y="-533.5" font-family="Helvetica,sans-Serif" font-size="10.00">+ _inidisp</text>
<text text-anchor="start" x="298.5" y="-522.5" font-family="Helvetica,sans-Serif" font-size="10.00">+ nameBaseSelect</text>
<text text-anchor="start" x="298.5" y="-511.5" font-family="Helvetica,sans-Serif" font-size="10.00">+ nameSelect</text>
<text text-anchor="start" x="298.5" y="-500.5" font-family="Helvetica,sans-Serif" font-size="10.00">+ objectSize</text>
<text text-anchor="start" x="298.5" y="-489.5" font-family="Helvetica,sans-Serif" font-size="10.00">+ _obsel</text>
<text text-anchor="start" x="298.5" y="-478.5" font-family="Helvetica,sans-Serif" font-size="10.00">+ oamAddress</text>
<text text-anchor="start" x="298.5" y="-467.5" font-family="Helvetica,sans-Serif" font-size="10.00">and 149 more...</text>
<polyline fill="none" stroke="black" points="290.5,-460.5 440.5,-460.5 "/>
<text text-anchor="middle" x="365.5" y="-448.5" font-family="Helvetica,sans-Serif" font-size="10.00"> </text>
</a>
</g>
</g>
<!-- Node7&#45;&gt;Node3 -->
<g id="edge6" class="edge">
<title>Node7&#45;&gt;Node3</title>
<path fill="none" stroke="#404040" d="M308.22,-441.23C298.93,-427.79 289.21,-413.75 279.66,-399.95"/>
<polygon fill="none" stroke="#404040" points="279.58,-399.83 272.88,-397.17 272.75,-389.96 279.45,-392.62 279.58,-399.83"/>
<text text-anchor="middle" x="320" y="-415" font-family="Helvetica,sans-Serif" font-size="10.00"> &#45;_registers</text>
</g>
</g>
</svg>
