<?xml version="1.0" encoding="UTF-8" standalone="no"?>
<!DOCTYPE svg PUBLIC "-//W3C//DTD SVG 1.1//EN"
 "http://www.w3.org/Graphics/SVG/1.1/DTD/svg11.dtd">
<!-- Generated by graphviz version 2.43.0 (0)
 -->
<!-- Title: ComSquare::Debugger::CPUDebug Pages: 1 -->
<svg width="1017pt" height="1586pt"
 viewBox="0.00 0.00 1016.88 1586.00" xmlns="http://www.w3.org/2000/svg" xmlns:xlink="http://www.w3.org/1999/xlink">
<g id="graph0" class="graph" transform="scale(1 1) rotate(0) translate(4 1582)">
<title>ComSquare::Debugger::CPUDebug</title>
<polygon fill="white" stroke="transparent" points="-4,4 -4,-1582 1012.88,-1582 1012.88,4 -4,4"/>
<!-- Node1 -->
<g id="node1" class="node">
<title>Node1</title>
<g id="a_node1"><a xlink:title="A custom CPU with a window that show it&#39;s registers and the disassembly.">
<polygon fill="#bfbfbf" stroke="black" points="577,-204.5 577,-558.5 735,-558.5 735,-204.5 577,-204.5"/>
<text text-anchor="start" x="585" y="-546.5" font-family="Helvetica,sans-Serif" font-size="10.00">ComSquare::Debugger</text>
<text text-anchor="middle" x="656" y="-535.5" font-family="Helvetica,sans-Serif" font-size="10.00">::CPUDebug</text>
<polyline fill="none" stroke="black" points="577,-528.5 735,-528.5 "/>
<text text-anchor="start" x="585" y="-516.5" font-family="Helvetica,sans-Serif" font-size="10.00">+ disassembledInstructions</text>
<text text-anchor="start" x="585" y="-505.5" font-family="Helvetica,sans-Serif" font-size="10.00">+ breakpoints</text>
<text text-anchor="start" x="585" y="-494.5" font-family="Helvetica,sans-Serif" font-size="10.00">+ initialStackPointer</text>
<text text-anchor="start" x="585" y="-483.5" font-family="Helvetica,sans-Serif" font-size="10.00">&#45; _ui</text>
<text text-anchor="start" x="585" y="-472.5" font-family="Helvetica,sans-Serif" font-size="10.00">&#45; _isPaused</text>
<text text-anchor="start" x="585" y="-461.5" font-family="Helvetica,sans-Serif" font-size="10.00">&#45; _isStepping</text>
<polyline fill="none" stroke="black" points="577,-454.5 735,-454.5 "/>
<text text-anchor="start" x="585" y="-442.5" font-family="Helvetica,sans-Serif" font-size="10.00">+ showError()</text>
<text text-anchor="start" x="585" y="-431.5" font-family="Helvetica,sans-Serif" font-size="10.00">+ pause()</text>
<text text-anchor="start" x="585" y="-420.5" font-family="Helvetica,sans-Serif" font-size="10.00">+ step()</text>
<text text-anchor="start" x="585" y="-409.5" font-family="Helvetica,sans-Serif" font-size="10.00">+ next()</text>
<text text-anchor="start" x="585" y="-398.5" font-family="Helvetica,sans-Serif" font-size="10.00">+ clearHistory()</text>
<text text-anchor="start" x="585" y="-387.5" font-family="Helvetica,sans-Serif" font-size="10.00">+ toggleBreakpoint()</text>
<text text-anchor="start" x="585" y="-376.5" font-family="Helvetica,sans-Serif" font-size="10.00">+ disableDebugger()</text>
<text text-anchor="start" x="585" y="-365.5" font-family="Helvetica,sans-Serif" font-size="10.00">+ getProceededParameters()</text>
<text text-anchor="start" x="585" y="-354.5" font-family="Helvetica,sans-Serif" font-size="10.00">+ getPC()</text>
<text text-anchor="start" x="585" y="-343.5" font-family="Helvetica,sans-Serif" font-size="10.00">+ getStackPointer()</text>
<text text-anchor="start" x="585" y="-332.5" font-family="Helvetica,sans-Serif" font-size="10.00">and 9 more...</text>
<text text-anchor="start" x="585" y="-321.5" font-family="Helvetica,sans-Serif" font-size="10.00">&#45; _executeInstruction()</text>
<text text-anchor="start" x="585" y="-310.5" font-family="Helvetica,sans-Serif" font-size="10.00">&#45; _getDisassemblyContext()</text>
<text text-anchor="start" x="585" y="-299.5" font-family="Helvetica,sans-Serif" font-size="10.00">&#45; _disassemble()</text>
<text text-anchor="start" x="585" y="-288.5" font-family="Helvetica,sans-Serif" font-size="10.00">&#45; _updateDisassembly()</text>
<text text-anchor="start" x="585" y="-277.5" font-family="Helvetica,sans-Serif" font-size="10.00">&#45; _parseInstruction()</text>
<text text-anchor="start" x="585" y="-266.5" font-family="Helvetica,sans-Serif" font-size="10.00">&#45; _getInstructionParameter()</text>
<text text-anchor="start" x="585" y="-255.5" font-family="Helvetica,sans-Serif" font-size="10.00">&#45; _getFlagsString()</text>
<text text-anchor="start" x="585" y="-244.5" font-family="Helvetica,sans-Serif" font-size="10.00">&#45; _updateRegistersPanel()</text>
<text text-anchor="start" x="585" y="-233.5" font-family="Helvetica,sans-Serif" font-size="10.00">&#45; _getImmediateValue()</text>
<text text-anchor="start" x="585" y="-222.5" font-family="Helvetica,sans-Serif" font-size="10.00">&#45; _getAbsoluteValue()</text>
<text text-anchor="start" x="585" y="-211.5" font-family="Helvetica,sans-Serif" font-size="10.00">and 17 more...</text>
</a>
</g>
</g>
<!-- Node12 -->
<g id="node12" class="node">
<title>Node12</title>
<g id="a_node12"><a xlink:href="classStackModel.html" target="_top" xlink:title="The qt model that show the stack.">
<polygon fill="white" stroke="black" points="839.5,-0.5 839.5,-145.5 948.5,-145.5 948.5,-0.5 839.5,-0.5"/>
<text text-anchor="middle" x="894" y="-133.5" font-family="Helvetica,sans-Serif" font-size="10.00">StackModel</text>
<polyline fill="none" stroke="black" points="839.5,-126.5 948.5,-126.5 "/>
<text text-anchor="start" x="847.5" y="-114.5" font-family="Helvetica,sans-Serif" font-size="10.00">&#45; _bus</text>
<polyline fill="none" stroke="black" points="839.5,-107.5 948.5,-107.5 "/>
<text text-anchor="start" x="847.5" y="-95.5" font-family="Helvetica,sans-Serif" font-size="10.00">+ StackModel()</text>
<text text-anchor="start" x="847.5" y="-84.5" font-family="Helvetica,sans-Serif" font-size="10.00">+ StackModel()</text>
<text text-anchor="start" x="847.5" y="-73.5" font-family="Helvetica,sans-Serif" font-size="10.00">+ operator=()</text>
<text text-anchor="start" x="847.5" y="-62.5" font-family="Helvetica,sans-Serif" font-size="10.00">+ ~StackModel()</text>
<text text-anchor="start" x="847.5" y="-51.5" font-family="Helvetica,sans-Serif" font-size="10.00">+ rowCount()</text>
<text text-anchor="start" x="847.5" y="-40.5" font-family="Helvetica,sans-Serif" font-size="10.00">+ columnCount()</text>
<text text-anchor="start" x="847.5" y="-29.5" font-family="Helvetica,sans-Serif" font-size="10.00">+ data()</text>
<text text-anchor="start" x="847.5" y="-18.5" font-family="Helvetica,sans-Serif" font-size="10.00">+ headerData()</text>
<text text-anchor="start" x="847.5" y="-7.5" font-family="Helvetica,sans-Serif" font-size="10.00">+ setMemoryBus()</text>
</a>
</g>
</g>
<!-- Node1&#45;&gt;Node12 -->
<g id="edge13" class="edge">
<title>Node1&#45;&gt;Node12</title>
<path fill="none" stroke="#404040" d="M735.01,-329.18C782.1,-294.41 838.96,-244.27 872,-186 876.99,-177.2 880.86,-167.46 883.87,-157.51"/>
<polygon fill="none" stroke="#404040" points="883.91,-157.35 881.6,-150.52 887.01,-145.76 889.32,-152.59 883.91,-157.35"/>
<text text-anchor="middle" x="895" y="-172.5" font-family="Helvetica,sans-Serif" font-size="10.00"> &#45;_cpu</text>
</g>
<!-- Node14 -->
<g id="node14" class="node">
<title>Node14</title>
<g id="a_node14"><a xlink:href="classComSquare_1_1Debugger_1_1ClosableWindow.html" target="_top" xlink:title=" ">
<polygon fill="white" stroke="black" points="304.5,-11.5 304.5,-134.5 475.5,-134.5 475.5,-11.5 304.5,-11.5"/>
<text text-anchor="start" x="312.5" y="-122.5" font-family="Helvetica,sans-Serif" font-size="10.00">ComSquare::Debugger</text>
<text text-anchor="start" x="312.5" y="-111.5" font-family="Helvetica,sans-Serif" font-size="10.00">::ClosableWindow&lt; ComSquare</text>
<text text-anchor="middle" x="390" y="-100.5" font-family="Helvetica,sans-Serif" font-size="10.00">::Debugger::CPUDebug &gt;</text>
<polyline fill="none" stroke="black" points="304.5,-93.5 475.5,-93.5 "/>
<text text-anchor="middle" x="390" y="-81.5" font-family="Helvetica,sans-Serif" font-size="10.00"> </text>
<polyline fill="none" stroke="black" points="304.5,-74.5 475.5,-74.5 "/>
<text text-anchor="start" x="312.5" y="-62.5" font-family="Helvetica,sans-Serif" font-size="10.00">+ ClosableWindow()</text>
<text text-anchor="start" x="312.5" y="-51.5" font-family="Helvetica,sans-Serif" font-size="10.00">+ ClosableWindow()</text>
<text text-anchor="start" x="312.5" y="-40.5" font-family="Helvetica,sans-Serif" font-size="10.00">+ operator=()</text>
<text text-anchor="start" x="312.5" y="-29.5" font-family="Helvetica,sans-Serif" font-size="10.00">+ ~ClosableWindow()</text>
<text text-anchor="start" x="312.5" y="-18.5" font-family="Helvetica,sans-Serif" font-size="10.00"># closeEvent()</text>
</a>
</g>
</g>
<!-- Node1&#45;&gt;Node14 -->
<g id="edge16" class="edge">
<title>Node1&#45;&gt;Node14</title>
<path fill="none" stroke="#404040" d="M576.79,-266.73C560.4,-245.27 542.72,-223.48 525,-204 516.95,-195.15 513.73,-194.17 505,-186 490.43,-172.36 475.01,-157.58 460.35,-143.37"/>
<polygon fill="none" stroke="#404040" points="459.95,-142.97 452.85,-141.66 451.34,-134.61 458.43,-135.92 459.95,-142.97"/>
<text text-anchor="middle" x="529.5" y="-178" font-family="Helvetica,sans-Serif" font-size="10.00"> &#45;_obj</text>
<text text-anchor="middle" x="529.5" y="-167" font-family="Helvetica,sans-Serif" font-size="10.00">&#45;_onClose</text>
</g>
<!-- Node16 -->
<g id="node16" class="node">
<title>Node16</title>
<g id="a_node16"><a xlink:href="classDisassemblyModel.html" target="_top" xlink:title="The qt model that show the disassembly.">
<polygon fill="white" stroke="black" points="667.5,-6 667.5,-140 804.5,-140 804.5,-6 667.5,-6"/>
<text text-anchor="middle" x="736" y="-128" font-family="Helvetica,sans-Serif" font-size="10.00">DisassemblyModel</text>
<polyline fill="none" stroke="black" points="667.5,-121 804.5,-121 "/>
<text text-anchor="middle" x="736" y="-109" font-family="Helvetica,sans-Serif" font-size="10.00"> </text>
<polyline fill="none" stroke="black" points="667.5,-102 804.5,-102 "/>
<text text-anchor="start" x="675.5" y="-90" font-family="Helvetica,sans-Serif" font-size="10.00">+ DisassemblyModel()</text>
<text text-anchor="start" x="675.5" y="-79" font-family="Helvetica,sans-Serif" font-size="10.00">+ DisassemblyModel()</text>
<text text-anchor="start" x="675.5" y="-68" font-family="Helvetica,sans-Serif" font-size="10.00">+ operator=()</text>
<text text-anchor="start" x="675.5" y="-57" font-family="Helvetica,sans-Serif" font-size="10.00">+ ~DisassemblyModel()</text>
<text text-anchor="start" x="675.5" y="-46" font-family="Helvetica,sans-Serif" font-size="10.00">+ rowCount()</text>
<text text-anchor="start" x="675.5" y="-35" font-family="Helvetica,sans-Serif" font-size="10.00">+ columnCount()</text>
<text text-anchor="start" x="675.5" y="-24" font-family="Helvetica,sans-Serif" font-size="10.00">+ data()</text>
<text text-anchor="start" x="675.5" y="-13" font-family="Helvetica,sans-Serif" font-size="10.00">+ headerData()</text>
</a>
</g>
</g>
<!-- Node1&#45;&gt;Node16 -->
<g id="edge19" class="edge">
<title>Node1&#45;&gt;Node16</title>
<path fill="none" stroke="#404040" d="M668.77,-204.43C671.81,-190.58 675.51,-176.95 680,-164 681.47,-159.75 683.17,-155.49 685.05,-151.27"/>
<polygon fill="none" stroke="#404040" points="685.18,-151 684.17,-143.86 690.37,-140.18 691.38,-147.32 685.18,-151"/>
<text text-anchor="middle" x="695" y="-172.5" font-family="Helvetica,sans-Serif" font-size="10.00"> &#45;_cpu</text>
</g>
<!-- Node17 -->
<g id="node17" class="node">
<title>Node17</title>
<g id="a_node17"><a xlink:href="classRowPainter.html" target="_top" xlink:title="The qt class that highlight breakpoints and the PC&#39;s position.">
<polygon fill="white" stroke="black" points="511,-22.5 511,-123.5 609,-123.5 609,-22.5 511,-22.5"/>
<text text-anchor="middle" x="560" y="-111.5" font-family="Helvetica,sans-Serif" font-size="10.00">RowPainter</text>
<polyline fill="none" stroke="black" points="511,-104.5 609,-104.5 "/>
<text text-anchor="middle" x="560" y="-92.5" font-family="Helvetica,sans-Serif" font-size="10.00"> </text>
<polyline fill="none" stroke="black" points="511,-85.5 609,-85.5 "/>
<text text-anchor="start" x="519" y="-73.5" font-family="Helvetica,sans-Serif" font-size="10.00">+ RowPainter()</text>
<text text-anchor="start" x="519" y="-62.5" font-family="Helvetica,sans-Serif" font-size="10.00">+ operator=()</text>
<text text-anchor="start" x="519" y="-51.5" font-family="Helvetica,sans-Serif" font-size="10.00">+ ~RowPainter()</text>
<text text-anchor="start" x="519" y="-40.5" font-family="Helvetica,sans-Serif" font-size="10.00"># sizeHint()</text>
<text text-anchor="start" x="519" y="-29.5" font-family="Helvetica,sans-Serif" font-size="10.00"># paint()</text>
</a>
</g>
</g>
<!-- Node1&#45;&gt;Node17 -->
<g id="edge22" class="edge">
<title>Node1&#45;&gt;Node17</title>
<path fill="none" stroke="#404040" d="M621.23,-204.44C617.21,-190.63 612.81,-177 608,-164 604.39,-154.22 599.9,-144.19 595.13,-134.53"/>
<polygon fill="none" stroke="#404040" points="595.11,-134.5 588.82,-130.97 589.65,-123.81 595.94,-127.33 595.11,-134.5"/>
<text text-anchor="middle" x="629" y="-172.5" font-family="Helvetica,sans-Serif" font-size="10.00"> &#45;_cpu</text>
</g>
<!-- Node2 -->
<g id="node2" class="node">
<title>Node2</title>
<g id="a_node2"><a xlink:href="classComSquare_1_1CPU_1_1CPU.html" target="_top" xlink:title="The main CPU.">
<polygon fill="white" stroke="black" points="318,-606.5 318,-1037.5 504,-1037.5 504,-606.5 318,-606.5"/>
<text text-anchor="middle" x="411" y="-1025.5" font-family="Helvetica,sans-Serif" font-size="10.00">ComSquare::CPU::CPU</text>
<polyline fill="none" stroke="black" points="318,-1018.5 504,-1018.5 "/>
<text text-anchor="start" x="326" y="-1006.5" font-family="Helvetica,sans-Serif" font-size="10.00">+ IsNMIRequested</text>
<text text-anchor="start" x="326" y="-995.5" font-family="Helvetica,sans-Serif" font-size="10.00">+ IsIRQRequested</text>
<text text-anchor="start" x="326" y="-984.5" font-family="Helvetica,sans-Serif" font-size="10.00">+ IsAbortRequested</text>
<text text-anchor="start" x="326" y="-973.5" font-family="Helvetica,sans-Serif" font-size="10.00"># _isEmulationMode</text>
<text text-anchor="start" x="326" y="-962.5" font-family="Helvetica,sans-Serif" font-size="10.00"># _isStopped</text>
<text text-anchor="start" x="326" y="-951.5" font-family="Helvetica,sans-Serif" font-size="10.00"># _isWaitingForInterrupt</text>
<text text-anchor="start" x="326" y="-940.5" font-family="Helvetica,sans-Serif" font-size="10.00"># _bus</text>
<text text-anchor="start" x="326" y="-929.5" font-family="Helvetica,sans-Serif" font-size="10.00"># _dmaChannels</text>
<text text-anchor="start" x="326" y="-918.5" font-family="Helvetica,sans-Serif" font-size="10.00"># _hasIndexCrossedPageBoundary</text>
<polyline fill="none" stroke="black" points="318,-911.5 504,-911.5 "/>
<text text-anchor="start" x="326" y="-899.5" font-family="Helvetica,sans-Serif" font-size="10.00">+ CPU()</text>
<text text-anchor="start" x="326" y="-888.5" font-family="Helvetica,sans-Serif" font-size="10.00">+ CPU()</text>
<text text-anchor="start" x="326" y="-877.5" font-family="Helvetica,sans-Serif" font-size="10.00">+ operator=()</text>
<text text-anchor="start" x="326" y="-866.5" font-family="Helvetica,sans-Serif" font-size="10.00">+ ~CPU()</text>
<text text-anchor="start" x="326" y="-855.5" font-family="Helvetica,sans-Serif" font-size="10.00">+ update()</text>
<text text-anchor="start" x="326" y="-844.5" font-family="Helvetica,sans-Serif" font-size="10.00">+ read()</text>
<text text-anchor="start" x="326" y="-833.5" font-family="Helvetica,sans-Serif" font-size="10.00">+ write()</text>
<text text-anchor="start" x="326" y="-822.5" font-family="Helvetica,sans-Serif" font-size="10.00">+ getSize()</text>
<text text-anchor="start" x="326" y="-811.5" font-family="Helvetica,sans-Serif" font-size="10.00">+ getName()</text>
<text text-anchor="start" x="326" y="-800.5" font-family="Helvetica,sans-Serif" font-size="10.00">+ getComponent()</text>
<text text-anchor="start" x="326" y="-789.5" font-family="Helvetica,sans-Serif" font-size="10.00">+ RESB()</text>
<text text-anchor="start" x="326" y="-778.5" font-family="Helvetica,sans-Serif" font-size="10.00">+ isDebugger()</text>
<text text-anchor="start" x="326" y="-767.5" font-family="Helvetica,sans-Serif" font-size="10.00">+ setMemoryBus()</text>
<text text-anchor="start" x="326" y="-756.5" font-family="Helvetica,sans-Serif" font-size="10.00"># _getImmediateAddr8Bits()</text>
<text text-anchor="start" x="326" y="-745.5" font-family="Helvetica,sans-Serif" font-size="10.00"># _getImmediateAddr16Bits()</text>
<text text-anchor="start" x="326" y="-734.5" font-family="Helvetica,sans-Serif" font-size="10.00"># _getImmediateAddrForA()</text>
<text text-anchor="start" x="326" y="-723.5" font-family="Helvetica,sans-Serif" font-size="10.00"># _getImmediateAddrForX()</text>
<text text-anchor="start" x="326" y="-712.5" font-family="Helvetica,sans-Serif" font-size="10.00"># _getDirectAddr()</text>
<text text-anchor="start" x="326" y="-701.5" font-family="Helvetica,sans-Serif" font-size="10.00"># _getAbsoluteAddr()</text>
<text text-anchor="start" x="326" y="-690.5" font-family="Helvetica,sans-Serif" font-size="10.00"># _getAbsoluteLongAddr()</text>
<text text-anchor="start" x="326" y="-679.5" font-family="Helvetica,sans-Serif" font-size="10.00"># _getDirectIndirectIndexed</text>
<text text-anchor="start" x="326" y="-668.5" font-family="Helvetica,sans-Serif" font-size="10.00">YAddr()</text>
<text text-anchor="start" x="326" y="-657.5" font-family="Helvetica,sans-Serif" font-size="10.00"># _getDirectIndirectIndexed</text>
<text text-anchor="start" x="326" y="-646.5" font-family="Helvetica,sans-Serif" font-size="10.00">YLongAddr()</text>
<text text-anchor="start" x="326" y="-635.5" font-family="Helvetica,sans-Serif" font-size="10.00"># _getDirectIndirectIndexed</text>
<text text-anchor="start" x="326" y="-624.5" font-family="Helvetica,sans-Serif" font-size="10.00">XAddr()</text>
<text text-anchor="start" x="326" y="-613.5" font-family="Helvetica,sans-Serif" font-size="10.00">and 113 more...</text>
</a>
</g>
</g>
<!-- Node2&#45;&gt;Node1 -->
<g id="edge1" class="edge">
<title>Node2&#45;&gt;Node1</title>
<path fill="none" stroke="midnightblue" d="M508.78,-613.69C510.18,-611.1 511.59,-608.54 513,-606 532.48,-570.85 555.3,-533.69 576.91,-499.99"/>
<polygon fill="none" stroke="midnightblue" points="505.67,-612.08 504,-622.54 511.83,-615.4 505.67,-612.08"/>
</g>
<!-- Node3 -->
<g id="node3" class="node">
<title>Node3</title>
<g id="a_node3"><a xlink:href="classComSquare_1_1Memory_1_1AMemory.html" target="_top" xlink:title="Abstract class representing a continuous block of memory.">
<polygon fill="white" stroke="black" points="669.5,-1140.5 669.5,-1285.5 800.5,-1285.5 800.5,-1140.5 669.5,-1140.5"/>
<text text-anchor="start" x="677.5" y="-1273.5" font-family="Helvetica,sans-Serif" font-size="10.00">ComSquare::Memory::</text>
<text text-anchor="middle" x="735" y="-1262.5" font-family="Helvetica,sans-Serif" font-size="10.00">AMemory</text>
<polyline fill="none" stroke="black" points="669.5,-1255.5 800.5,-1255.5 "/>
<text text-anchor="start" x="677.5" y="-1243.5" font-family="Helvetica,sans-Serif" font-size="10.00"># _start</text>
<text text-anchor="start" x="677.5" y="-1232.5" font-family="Helvetica,sans-Serif" font-size="10.00"># _end</text>
<polyline fill="none" stroke="black" points="669.5,-1225.5 800.5,-1225.5 "/>
<text text-anchor="start" x="677.5" y="-1213.5" font-family="Helvetica,sans-Serif" font-size="10.00">+ getRelativeAddress()</text>
<text text-anchor="start" x="677.5" y="-1202.5" font-family="Helvetica,sans-Serif" font-size="10.00">+ setMemoryRegion()</text>
<text text-anchor="start" x="677.5" y="-1191.5" font-family="Helvetica,sans-Serif" font-size="10.00">+ hasMemoryAt()</text>
<text text-anchor="start" x="677.5" y="-1180.5" font-family="Helvetica,sans-Serif" font-size="10.00">+ isMirror()</text>
<text text-anchor="start" x="677.5" y="-1169.5" font-family="Helvetica,sans-Serif" font-size="10.00">+ getValueName()</text>
<text text-anchor="start" x="677.5" y="-1158.5" font-family="Helvetica,sans-Serif" font-size="10.00">+ getMirrored()</text>
<text text-anchor="start" x="677.5" y="-1147.5" font-family="Helvetica,sans-Serif" font-size="10.00">+ ~AMemory()</text>
</a>
</g>
</g>
<!-- Node3&#45;&gt;Node2 -->
<g id="edge2" class="edge">
<title>Node3&#45;&gt;Node2</title>
<path fill="none" stroke="midnightblue" d="M698.62,-1131.48C688.06,-1114.44 675.19,-1097.76 660,-1085 632,-1061.48 617.87,-1067.01 583,-1056 552.37,-1046.32 537.78,-1058.44 513,-1038 509.97,-1035.5 507.03,-1032.89 504.17,-1030.19"/>
<polygon fill="none" stroke="midnightblue" points="695.81,-1133.61 703.93,-1140.41 701.82,-1130.03 695.81,-1133.61"/>
</g>
<!-- Node4 -->
<g id="node4" class="node">
<title>Node4</title>
<g id="a_node4"><a xlink:href="classComSquare_1_1Memory_1_1IMemory.html" target="_top" xlink:title="Common interface implemented by all components mapping memory.">
<polygon fill="white" stroke="black" points="669.5,-1399.5 669.5,-1577.5 800.5,-1577.5 800.5,-1399.5 669.5,-1399.5"/>
<text text-anchor="start" x="677.5" y="-1565.5" font-family="Helvetica,sans-Serif" font-size="10.00">ComSquare::Memory::</text>
<text text-anchor="middle" x="735" y="-1554.5" font-family="Helvetica,sans-Serif" font-size="10.00">IMemory</text>
<polyline fill="none" stroke="black" points="669.5,-1547.5 800.5,-1547.5 "/>
<text text-anchor="middle" x="735" y="-1535.5" font-family="Helvetica,sans-Serif" font-size="10.00"> </text>
<polyline fill="none" stroke="black" points="669.5,-1528.5 800.5,-1528.5 "/>
<text text-anchor="start" x="677.5" y="-1516.5" font-family="Helvetica,sans-Serif" font-size="10.00">+ read()</text>
<text text-anchor="start" x="677.5" y="-1505.5" font-family="Helvetica,sans-Serif" font-size="10.00">+ write()</text>
<text text-anchor="start" x="677.5" y="-1494.5" font-family="Helvetica,sans-Serif" font-size="10.00">+ hasMemoryAt()</text>
<text text-anchor="start" x="677.5" y="-1483.5" font-family="Helvetica,sans-Serif" font-size="10.00">+ getRelativeAddress()</text>
<text text-anchor="start" x="677.5" y="-1472.5" font-family="Helvetica,sans-Serif" font-size="10.00">+ getSize()</text>
<text text-anchor="start" x="677.5" y="-1461.5" font-family="Helvetica,sans-Serif" font-size="10.00">+ isMirror()</text>
<text text-anchor="start" x="677.5" y="-1450.5" font-family="Helvetica,sans-Serif" font-size="10.00">+ getName()</text>
<text text-anchor="start" x="677.5" y="-1439.5" font-family="Helvetica,sans-Serif" font-size="10.00">+ getComponent()</text>
<text text-anchor="start" x="677.5" y="-1428.5" font-family="Helvetica,sans-Serif" font-size="10.00">+ getValueName()</text>
<text text-anchor="start" x="677.5" y="-1417.5" font-family="Helvetica,sans-Serif" font-size="10.00">+ getMirrored()</text>
<text text-anchor="start" x="677.5" y="-1406.5" font-family="Helvetica,sans-Serif" font-size="10.00">+ ~IMemory()</text>
</a>
</g>
</g>
<!-- Node4&#45;&gt;Node3 -->
<g id="edge3" class="edge">
<title>Node4&#45;&gt;Node3</title>
<path fill="none" stroke="midnightblue" d="M735,-1389.45C735,-1355.26 735,-1317.55 735,-1285.89"/>
<polygon fill="none" stroke="midnightblue" points="731.5,-1389.46 735,-1399.46 738.5,-1389.46 731.5,-1389.46"/>
</g>
<!-- Node5 -->
<g id="node5" class="node">
<title>Node5</title>
<g id="a_node5"><a xlink:href="structComSquare_1_1Cartridge_1_1Header.html" target="_top" xlink:title=" ">
<polygon fill="white" stroke="black" points="0,-1085.5 0,-1340.5 146,-1340.5 146,-1085.5 0,-1085.5"/>
<text text-anchor="start" x="8" y="-1328.5" font-family="Helvetica,sans-Serif" font-size="10.00">ComSquare::Cartridge</text>
<text text-anchor="middle" x="73" y="-1317.5" font-family="Helvetica,sans-Serif" font-size="10.00">::Header</text>
<polyline fill="none" stroke="black" points="0,-1310.5 146,-1310.5 "/>
<text text-anchor="start" x="8" y="-1298.5" font-family="Helvetica,sans-Serif" font-size="10.00">+ gameName</text>
<text text-anchor="start" x="8" y="-1287.5" font-family="Helvetica,sans-Serif" font-size="10.00">+ mappingMode</text>
<text text-anchor="start" x="8" y="-1276.5" font-family="Helvetica,sans-Serif" font-size="10.00">+ romType</text>
<text text-anchor="start" x="8" y="-1265.5" font-family="Helvetica,sans-Serif" font-size="10.00">+ romSize</text>
<text text-anchor="start" x="8" y="-1254.5" font-family="Helvetica,sans-Serif" font-size="10.00">+ sramSize</text>
<text text-anchor="start" x="8" y="-1243.5" font-family="Helvetica,sans-Serif" font-size="10.00">+ creatorIDs</text>
<text text-anchor="start" x="8" y="-1232.5" font-family="Helvetica,sans-Serif" font-size="10.00">+ creatorID</text>
<text text-anchor="start" x="8" y="-1221.5" font-family="Helvetica,sans-Serif" font-size="10.00">+ @21</text>
<text text-anchor="start" x="8" y="-1210.5" font-family="Helvetica,sans-Serif" font-size="10.00">+ version</text>
<text text-anchor="start" x="8" y="-1199.5" font-family="Helvetica,sans-Serif" font-size="10.00">+ checksumComplements</text>
<text text-anchor="start" x="8" y="-1188.5" font-family="Helvetica,sans-Serif" font-size="10.00">+ checksumComplement</text>
<text text-anchor="start" x="8" y="-1177.5" font-family="Helvetica,sans-Serif" font-size="10.00">+ @23</text>
<text text-anchor="start" x="8" y="-1166.5" font-family="Helvetica,sans-Serif" font-size="10.00">+ checksums</text>
<text text-anchor="start" x="8" y="-1155.5" font-family="Helvetica,sans-Serif" font-size="10.00">+ checksum</text>
<text text-anchor="start" x="8" y="-1144.5" font-family="Helvetica,sans-Serif" font-size="10.00">+ @25</text>
<polyline fill="none" stroke="black" points="0,-1137.5 146,-1137.5 "/>
<text text-anchor="start" x="8" y="-1125.5" font-family="Helvetica,sans-Serif" font-size="10.00">+ Header()</text>
<text text-anchor="start" x="8" y="-1114.5" font-family="Helvetica,sans-Serif" font-size="10.00">+ Header()</text>
<text text-anchor="start" x="8" y="-1103.5" font-family="Helvetica,sans-Serif" font-size="10.00">+ operator=()</text>
<text text-anchor="start" x="8" y="-1092.5" font-family="Helvetica,sans-Serif" font-size="10.00">+ ~Header()</text>
</a>
</g>
</g>
<!-- Node5&#45;&gt;Node2 -->
<g id="edge4" class="edge">
<title>Node5&#45;&gt;Node2</title>
<path fill="none" stroke="#404040" d="M146.2,-1096.37C149.12,-1092.49 152.05,-1088.69 155,-1085 201.87,-1026.27 260.01,-965.94 309.03,-918"/>
<polygon fill="none" stroke="#404040" points="309.16,-917.87 310.67,-910.82 317.76,-909.5 316.25,-916.55 309.16,-917.87"/>
<text text-anchor="middle" x="222" y="-1059" font-family="Helvetica,sans-Serif" font-size="10.00"> #_cartridgeHeader</text>
</g>
<!-- Node6 -->
<g id="node6" class="node">
<title>Node6</title>
<g id="a_node6"><a xlink:href="structComSquare_1_1Cartridge_1_1InterruptVectors.html" target="_top" xlink:title=" ">
<polygon fill="white" stroke="black" points="11,-1399.5 11,-1577.5 135,-1577.5 135,-1399.5 11,-1399.5"/>
<text text-anchor="start" x="19" y="-1565.5" font-family="Helvetica,sans-Serif" font-size="10.00">ComSquare::Cartridge</text>
<text text-anchor="middle" x="73" y="-1554.5" font-family="Helvetica,sans-Serif" font-size="10.00">::InterruptVectors</text>
<polyline fill="none" stroke="black" points="11,-1547.5 135,-1547.5 "/>
<text text-anchor="start" x="19" y="-1535.5" font-family="Helvetica,sans-Serif" font-size="10.00">+ cop8</text>
<text text-anchor="start" x="19" y="-1524.5" font-family="Helvetica,sans-Serif" font-size="10.00">+ cop</text>
<text text-anchor="start" x="19" y="-1513.5" font-family="Helvetica,sans-Serif" font-size="10.00">+ @27</text>
<text text-anchor="start" x="19" y="-1502.5" font-family="Helvetica,sans-Serif" font-size="10.00">+ brk8</text>
<text text-anchor="start" x="19" y="-1491.5" font-family="Helvetica,sans-Serif" font-size="10.00">+ brk</text>
<text text-anchor="start" x="19" y="-1480.5" font-family="Helvetica,sans-Serif" font-size="10.00">+ @29</text>
<text text-anchor="start" x="19" y="-1469.5" font-family="Helvetica,sans-Serif" font-size="10.00">+ abort8</text>
<text text-anchor="start" x="19" y="-1458.5" font-family="Helvetica,sans-Serif" font-size="10.00">+ abort</text>
<text text-anchor="start" x="19" y="-1447.5" font-family="Helvetica,sans-Serif" font-size="10.00">+ @31</text>
<text text-anchor="start" x="19" y="-1436.5" font-family="Helvetica,sans-Serif" font-size="10.00">+ nmi8</text>
<text text-anchor="start" x="19" y="-1425.5" font-family="Helvetica,sans-Serif" font-size="10.00">and 8 more...</text>
<polyline fill="none" stroke="black" points="11,-1418.5 135,-1418.5 "/>
<text text-anchor="middle" x="73" y="-1406.5" font-family="Helvetica,sans-Serif" font-size="10.00"> </text>
</a>
</g>
</g>
<!-- Node6&#45;&gt;Node5 -->
<g id="edge5" class="edge">
<title>Node6&#45;&gt;Node5</title>
<path fill="none" stroke="#404040" d="M73,-1399.46C73,-1384.52 73,-1368.7 73,-1352.84"/>
<polygon fill="none" stroke="#404040" points="73,-1352.72 69,-1346.72 73,-1340.72 77,-1346.72 73,-1352.72"/>
<text text-anchor="middle" x="127.5" y="-1373" font-family="Helvetica,sans-Serif" font-size="10.00"> +emulationInterrupts</text>
<text text-anchor="middle" x="127.5" y="-1362" font-family="Helvetica,sans-Serif" font-size="10.00">+nativeInterrupts</text>
</g>
<!-- Node7 -->
<g id="node7" class="node">
<title>Node7</title>
<g id="a_node7"><a xlink:href="structComSquare_1_1CPU_1_1Instruction.html" target="_top" xlink:title="Struct containing basic information about instructions.">
<polygon fill="white" stroke="black" points="164.5,-1162.5 164.5,-1263.5 321.5,-1263.5 321.5,-1162.5 164.5,-1162.5"/>
<text text-anchor="middle" x="243" y="-1251.5" font-family="Helvetica,sans-Serif" font-size="10.00">ComSquare::CPU::Instruction</text>
<polyline fill="none" stroke="black" points="164.5,-1244.5 321.5,-1244.5 "/>
<text text-anchor="start" x="172.5" y="-1232.5" font-family="Helvetica,sans-Serif" font-size="10.00">+ call</text>
<text text-anchor="start" x="172.5" y="-1221.5" font-family="Helvetica,sans-Serif" font-size="10.00">+ cycleCount</text>
<text text-anchor="start" x="172.5" y="-1210.5" font-family="Helvetica,sans-Serif" font-size="10.00">+ name</text>
<text text-anchor="start" x="172.5" y="-1199.5" font-family="Helvetica,sans-Serif" font-size="10.00">+ addressingMode</text>
<text text-anchor="start" x="172.5" y="-1188.5" font-family="Helvetica,sans-Serif" font-size="10.00">+ size</text>
<polyline fill="none" stroke="black" points="164.5,-1181.5 321.5,-1181.5 "/>
<text text-anchor="middle" x="243" y="-1169.5" font-family="Helvetica,sans-Serif" font-size="10.00"> </text>
</a>
</g>
</g>
<!-- Node7&#45;&gt;Node2 -->
<g id="edge6" class="edge">
<title>Node7&#45;&gt;Node2</title>
<path fill="none" stroke="#404040" d="M264.45,-1162.34C277.43,-1132.28 295,-1091.59 313.48,-1048.82"/>
<polygon fill="none" stroke="#404040" points="313.56,-1048.62 312.27,-1041.53 318.32,-1037.6 319.61,-1044.7 313.56,-1048.62"/>
<text text-anchor="middle" x="345" y="-1059" font-family="Helvetica,sans-Serif" font-size="10.00"> #_instructions</text>
</g>
<!-- Node8 -->
<g id="node8" class="node">
<title>Node8</title>
<g id="a_node8"><a xlink:href="structComSquare_1_1CPU_1_1InternalRegisters.html" target="_top" xlink:title="Struct containing internal registers of the CPU.">
<polygon fill="white" stroke="black" points="339.5,-1124 339.5,-1302 482.5,-1302 482.5,-1124 339.5,-1124"/>
<text text-anchor="start" x="347.5" y="-1290" font-family="Helvetica,sans-Serif" font-size="10.00">ComSquare::CPU::Internal</text>
<text text-anchor="middle" x="411" y="-1279" font-family="Helvetica,sans-Serif" font-size="10.00">Registers</text>
<polyline fill="none" stroke="black" points="339.5,-1272 482.5,-1272 "/>
<text text-anchor="start" x="347.5" y="-1260" font-family="Helvetica,sans-Serif" font-size="10.00">+ nmitimen</text>
<text text-anchor="start" x="347.5" y="-1249" font-family="Helvetica,sans-Serif" font-size="10.00">+ wrio</text>
<text text-anchor="start" x="347.5" y="-1238" font-family="Helvetica,sans-Serif" font-size="10.00">+ wrmpya</text>
<text text-anchor="start" x="347.5" y="-1227" font-family="Helvetica,sans-Serif" font-size="10.00">+ wrmpyb</text>
<text text-anchor="start" x="347.5" y="-1216" font-family="Helvetica,sans-Serif" font-size="10.00">+ wrdivl</text>
<text text-anchor="start" x="347.5" y="-1205" font-family="Helvetica,sans-Serif" font-size="10.00">+ wrdivh</text>
<text text-anchor="start" x="347.5" y="-1194" font-family="Helvetica,sans-Serif" font-size="10.00">+ wrdivb</text>
<text text-anchor="start" x="347.5" y="-1183" font-family="Helvetica,sans-Serif" font-size="10.00">+ htimel</text>
<text text-anchor="start" x="347.5" y="-1172" font-family="Helvetica,sans-Serif" font-size="10.00">+ htimeh</text>
<text text-anchor="start" x="347.5" y="-1161" font-family="Helvetica,sans-Serif" font-size="10.00">+ vtimel</text>
<text text-anchor="start" x="347.5" y="-1150" font-family="Helvetica,sans-Serif" font-size="10.00">and 19 more...</text>
<polyline fill="none" stroke="black" points="339.5,-1143 482.5,-1143 "/>
<text text-anchor="middle" x="411" y="-1131" font-family="Helvetica,sans-Serif" font-size="10.00"> </text>
</a>
</g>
</g>
<!-- Node8&#45;&gt;Node2 -->
<g id="edge7" class="edge">
<title>Node8&#45;&gt;Node2</title>
<path fill="none" stroke="#404040" d="M411,-1123.73C411,-1101.18 411,-1075.88 411,-1049.79"/>
<polygon fill="none" stroke="#404040" points="411,-1049.75 407,-1043.75 411,-1037.75 415,-1043.75 411,-1049.75"/>
<text text-anchor="middle" x="461" y="-1059" font-family="Helvetica,sans-Serif" font-size="10.00"> #_internalRegisters</text>
</g>
<!-- Node9 -->
<g id="node9" class="node">
<title>Node9</title>
<g id="a_node9"><a xlink:href="structComSquare_1_1CPU_1_1Registers.html" target="_top" xlink:title="Struct containing registers for the main CPU.">
<polygon fill="white" stroke="black" points="500.5,-1129.5 500.5,-1296.5 651.5,-1296.5 651.5,-1129.5 500.5,-1129.5"/>
<text text-anchor="middle" x="576" y="-1284.5" font-family="Helvetica,sans-Serif" font-size="10.00">ComSquare::CPU::Registers</text>
<polyline fill="none" stroke="black" points="500.5,-1277.5 651.5,-1277.5 "/>
<text text-anchor="start" x="508.5" y="-1265.5" font-family="Helvetica,sans-Serif" font-size="10.00">+ al</text>
<text text-anchor="start" x="508.5" y="-1254.5" font-family="Helvetica,sans-Serif" font-size="10.00">+ ah</text>
<text text-anchor="start" x="508.5" y="-1243.5" font-family="Helvetica,sans-Serif" font-size="10.00">+ a</text>
<text text-anchor="start" x="508.5" y="-1232.5" font-family="Helvetica,sans-Serif" font-size="10.00">+ @39</text>
<text text-anchor="start" x="508.5" y="-1221.5" font-family="Helvetica,sans-Serif" font-size="10.00">+ dbr</text>
<text text-anchor="start" x="508.5" y="-1210.5" font-family="Helvetica,sans-Serif" font-size="10.00">+ dl</text>
<text text-anchor="start" x="508.5" y="-1199.5" font-family="Helvetica,sans-Serif" font-size="10.00">+ dh</text>
<text text-anchor="start" x="508.5" y="-1188.5" font-family="Helvetica,sans-Serif" font-size="10.00">+ d</text>
<text text-anchor="start" x="508.5" y="-1177.5" font-family="Helvetica,sans-Serif" font-size="10.00">+ @41</text>
<text text-anchor="start" x="508.5" y="-1166.5" font-family="Helvetica,sans-Serif" font-size="10.00">+ pcl</text>
<text text-anchor="start" x="508.5" y="-1155.5" font-family="Helvetica,sans-Serif" font-size="10.00">and 27 more...</text>
<polyline fill="none" stroke="black" points="500.5,-1148.5 651.5,-1148.5 "/>
<text text-anchor="middle" x="576" y="-1136.5" font-family="Helvetica,sans-Serif" font-size="10.00"> </text>
</a>
</g>
</g>
<!-- Node9&#45;&gt;Node2 -->
<g id="edge8" class="edge">
<title>Node9&#45;&gt;Node2</title>
<path fill="none" stroke="#404040" d="M544.43,-1129.13C535.17,-1105.42 524.88,-1079.61 515,-1056 513,-1051.23 510.97,-1046.41 508.92,-1041.56"/>
<polygon fill="none" stroke="#404040" points="508.77,-1041.22 502.74,-1037.26 504.07,-1030.17 510.1,-1034.13 508.77,-1041.22"/>
<text text-anchor="middle" x="549" y="-1059" font-family="Helvetica,sans-Serif" font-size="10.00"> #_registers</text>
</g>
<!-- Node10 -->
<g id="node10" class="node">
<title>Node10</title>
<g id="a_node10"><a xlink:title=" ">
<polygon fill="white" stroke="#bfbfbf" points="522,-793.5 522,-850.5 578,-850.5 578,-793.5 522,-793.5"/>
<text text-anchor="middle" x="550" y="-838.5" font-family="Helvetica,sans-Serif" font-size="10.00">QObject</text>
<polyline fill="none" stroke="#bfbfbf" points="522,-831.5 578,-831.5 "/>
<text text-anchor="middle" x="550" y="-819.5" font-family="Helvetica,sans-Serif" font-size="10.00"> </text>
<polyline fill="none" stroke="#bfbfbf" points="522,-812.5 578,-812.5 "/>
<text text-anchor="middle" x="550" y="-800.5" font-family="Helvetica,sans-Serif" font-size="10.00"> </text>
</a>
</g>
</g>
<!-- Node10&#45;&gt;Node1 -->
<g id="edge9" class="edge">
<title>Node10&#45;&gt;Node1</title>
<path fill="none" stroke="midnightblue" d="M555.27,-783.24C561.61,-740.08 573.27,-667.47 588,-606 591.71,-590.52 595.88,-574.53 600.28,-558.56"/>
<polygon fill="none" stroke="midnightblue" points="551.78,-782.89 553.81,-793.29 558.71,-783.9 551.78,-782.89"/>
</g>
<!-- Node11 -->
<g id="node11" class="node">
<title>Node11</title>
<g id="a_node11"><a xlink:href="classComSquare_1_1SNES.html" target="_top" xlink:title="Container of all the components of the SNES.">
<polygon fill="white" stroke="black" points="596.5,-705.5 596.5,-938.5 783.5,-938.5 783.5,-705.5 596.5,-705.5"/>
<text text-anchor="middle" x="690" y="-926.5" font-family="Helvetica,sans-Serif" font-size="10.00">ComSquare::SNES</text>
<polyline fill="none" stroke="black" points="596.5,-919.5 783.5,-919.5 "/>
<text text-anchor="start" x="604.5" y="-907.5" font-family="Helvetica,sans-Serif" font-size="10.00">+ bus</text>
<text text-anchor="start" x="604.5" y="-896.5" font-family="Helvetica,sans-Serif" font-size="10.00">+ cartridge</text>
<text text-anchor="start" x="604.5" y="-885.5" font-family="Helvetica,sans-Serif" font-size="10.00">+ wram</text>
<text text-anchor="start" x="604.5" y="-874.5" font-family="Helvetica,sans-Serif" font-size="10.00">+ sram</text>
<text text-anchor="start" x="604.5" y="-863.5" font-family="Helvetica,sans-Serif" font-size="10.00">+ cpu</text>
<text text-anchor="start" x="604.5" y="-852.5" font-family="Helvetica,sans-Serif" font-size="10.00">+ ppu</text>
<text text-anchor="start" x="604.5" y="-841.5" font-family="Helvetica,sans-Serif" font-size="10.00">+ apu</text>
<polyline fill="none" stroke="black" points="596.5,-834.5 783.5,-834.5 "/>
<text text-anchor="start" x="604.5" y="-822.5" font-family="Helvetica,sans-Serif" font-size="10.00">+ update()</text>
<text text-anchor="start" x="604.5" y="-811.5" font-family="Helvetica,sans-Serif" font-size="10.00">+ disableCPUDebugging()</text>
<text text-anchor="start" x="604.5" y="-800.5" font-family="Helvetica,sans-Serif" font-size="10.00">+ enableCPUDebugging()</text>
<text text-anchor="start" x="604.5" y="-789.5" font-family="Helvetica,sans-Serif" font-size="10.00">+ enableCPUDebuggingWithError()</text>
<text text-anchor="start" x="604.5" y="-778.5" font-family="Helvetica,sans-Serif" font-size="10.00">+ disableRamViewer()</text>
<text text-anchor="start" x="604.5" y="-767.5" font-family="Helvetica,sans-Serif" font-size="10.00">+ enableRamViewer()</text>
<text text-anchor="start" x="604.5" y="-756.5" font-family="Helvetica,sans-Serif" font-size="10.00">+ disableHeaderViewer()</text>
<text text-anchor="start" x="604.5" y="-745.5" font-family="Helvetica,sans-Serif" font-size="10.00">+ enableHeaderViewer()</text>
<text text-anchor="start" x="604.5" y="-734.5" font-family="Helvetica,sans-Serif" font-size="10.00">+ disableAPUDebugging()</text>
<text text-anchor="start" x="604.5" y="-723.5" font-family="Helvetica,sans-Serif" font-size="10.00">+ enableAPUDebugging()</text>
<text text-anchor="start" x="604.5" y="-712.5" font-family="Helvetica,sans-Serif" font-size="10.00">and 10 more...</text>
</a>
</g>
</g>
<!-- Node11&#45;&gt;Node1 -->
<g id="edge10" class="edge">
<title>Node11&#45;&gt;Node1</title>
<path fill="none" stroke="#404040" d="M681.02,-705.22C677.83,-664.1 674.16,-616.7 670.62,-571.09"/>
<polygon fill="none" stroke="#404040" points="670.61,-570.88 666.15,-565.21 669.68,-558.92 674.13,-564.59 670.61,-570.88"/>
<text text-anchor="middle" x="689.5" y="-580" font-family="Helvetica,sans-Serif" font-size="10.00"> &#45;_snes</text>
</g>
<!-- Node12&#45;&gt;Node1 -->
<g id="edge11" class="edge">
<title>Node12&#45;&gt;Node1</title>
<path fill="none" stroke="#404040" d="M839.27,-124.7C826.86,-137.11 814.08,-150.67 803,-164 782.04,-189.2 761.23,-217.39 742.13,-244.88"/>
<polygon fill="none" stroke="#404040" points="741.99,-245.09 741.88,-252.3 735.18,-254.97 735.29,-247.76 741.99,-245.09"/>
<text text-anchor="middle" x="837.5" y="-172.5" font-family="Helvetica,sans-Serif" font-size="10.00"> &#45;_stackModel</text>
</g>
<!-- Node13 -->
<g id="node13" class="node">
<title>Node13</title>
<g id="a_node13"><a xlink:title=" ">
<polygon fill="white" stroke="#bfbfbf" points="879,-1184.5 879,-1241.5 999,-1241.5 999,-1184.5 879,-1184.5"/>
<text text-anchor="middle" x="939" y="-1229.5" font-family="Helvetica,sans-Serif" font-size="10.00">QAbstractTableModel</text>
<polyline fill="none" stroke="#bfbfbf" points="879,-1222.5 999,-1222.5 "/>
<text text-anchor="middle" x="939" y="-1210.5" font-family="Helvetica,sans-Serif" font-size="10.00"> </text>
<polyline fill="none" stroke="#bfbfbf" points="879,-1203.5 999,-1203.5 "/>
<text text-anchor="middle" x="939" y="-1191.5" font-family="Helvetica,sans-Serif" font-size="10.00"> </text>
</a>
</g>
</g>
<!-- Node13&#45;&gt;Node12 -->
<g id="edge12" class="edge">
<title>Node13&#45;&gt;Node12</title>
<path fill="none" stroke="midnightblue" d="M943.67,-1174.08C947.02,-1144.87 951.24,-1103.45 953,-1067 972.31,-666.13 1067.81,-548.56 953,-164 951.16,-157.82 948.74,-151.68 945.93,-145.67"/>
<polygon fill="none" stroke="midnightblue" points="940.16,-1173.92 942.48,-1184.26 947.12,-1174.73 940.16,-1173.92"/>
</g>
<!-- Node13&#45;&gt;Node16 -->
<g id="edge18" class="edge">
<title>Node13&#45;&gt;Node16</title>
<path fill="none" stroke="midnightblue" d="M939.4,-1174.12C941.15,-990.9 946.77,-203.66 914,-164 889.96,-134.9 865.29,-161.77 831,-146 822.07,-141.89 813.18,-136.83 804.63,-131.31"/>
<polygon fill="none" stroke="midnightblue" points="935.89,-1174.31 939.3,-1184.34 942.89,-1174.38 935.89,-1174.31"/>
</g>
<!-- Node19 -->
<g id="node19" class="node">
<title>Node19</title>
<g id="a_node19"><a xlink:href="classHistoryModel.html" target="_top" xlink:title="The qt model that show the history.">
<polygon fill="white" stroke="black" points="801.5,-744 801.5,-900 910.5,-900 910.5,-744 801.5,-744"/>
<text text-anchor="middle" x="856" y="-888" font-family="Helvetica,sans-Serif" font-size="10.00">HistoryModel</text>
<polyline fill="none" stroke="black" points="801.5,-881 910.5,-881 "/>
<text text-anchor="start" x="809.5" y="-869" font-family="Helvetica,sans-Serif" font-size="10.00">&#45; _instructions</text>
<polyline fill="none" stroke="black" points="801.5,-862 910.5,-862 "/>
<text text-anchor="start" x="809.5" y="-850" font-family="Helvetica,sans-Serif" font-size="10.00">+ HistoryModel()</text>
<text text-anchor="start" x="809.5" y="-839" font-family="Helvetica,sans-Serif" font-size="10.00">+ HistoryModel()</text>
<text text-anchor="start" x="809.5" y="-828" font-family="Helvetica,sans-Serif" font-size="10.00">+ operator=()</text>
<text text-anchor="start" x="809.5" y="-817" font-family="Helvetica,sans-Serif" font-size="10.00">+ ~HistoryModel()</text>
<text text-anchor="start" x="809.5" y="-806" font-family="Helvetica,sans-Serif" font-size="10.00">+ log()</text>
<text text-anchor="start" x="809.5" y="-795" font-family="Helvetica,sans-Serif" font-size="10.00">+ clear()</text>
<text text-anchor="start" x="809.5" y="-784" font-family="Helvetica,sans-Serif" font-size="10.00">+ rowCount()</text>
<text text-anchor="start" x="809.5" y="-773" font-family="Helvetica,sans-Serif" font-size="10.00">+ columnCount()</text>
<text text-anchor="start" x="809.5" y="-762" font-family="Helvetica,sans-Serif" font-size="10.00">+ data()</text>
<text text-anchor="start" x="809.5" y="-751" font-family="Helvetica,sans-Serif" font-size="10.00">+ headerData()</text>
</a>
</g>
</g>
<!-- Node13&#45;&gt;Node19 -->
<g id="edge24" class="edge">
<title>Node13&#45;&gt;Node19</title>
<path fill="none" stroke="midnightblue" d="M930.99,-1174.44C917.54,-1111.42 890.18,-983.19 872.49,-900.28"/>
<polygon fill="none" stroke="midnightblue" points="927.59,-1175.29 933.1,-1184.34 934.43,-1173.83 927.59,-1175.29"/>
</g>
<!-- Node14&#45;&gt;Node1 -->
<g id="edge14" class="edge">
<title>Node14&#45;&gt;Node1</title>
<path fill="none" stroke="#404040" d="M391.28,-134.62C394.72,-153.47 401.87,-172.76 416,-186 451.82,-219.58 483.09,-178.42 525,-204 540.76,-213.62 555.25,-225.91 568.38,-239.52"/>
<polygon fill="none" stroke="#404040" points="568.66,-239.83 575.67,-241.52 576.81,-248.64 569.8,-246.95 568.66,-239.83"/>
<text text-anchor="middle" x="441" y="-172.5" font-family="Helvetica,sans-Serif" font-size="10.00"> &#45;_window</text>
</g>
<!-- Node15 -->
<g id="node15" class="node">
<title>Node15</title>
<g id="a_node15"><a xlink:title=" ">
<polygon fill="white" stroke="#bfbfbf" points="288.5,-353 288.5,-410 375.5,-410 375.5,-353 288.5,-353"/>
<text text-anchor="middle" x="332" y="-398" font-family="Helvetica,sans-Serif" font-size="10.00">QMainWindow</text>
<polyline fill="none" stroke="#bfbfbf" points="288.5,-391 375.5,-391 "/>
<text text-anchor="middle" x="332" y="-379" font-family="Helvetica,sans-Serif" font-size="10.00"> </text>
<polyline fill="none" stroke="#bfbfbf" points="288.5,-372 375.5,-372 "/>
<text text-anchor="middle" x="332" y="-360" font-family="Helvetica,sans-Serif" font-size="10.00"> </text>
</a>
</g>
</g>
<!-- Node15&#45;&gt;Node14 -->
<g id="edge15" class="edge">
<title>Node15&#45;&gt;Node14</title>
<path fill="none" stroke="midnightblue" d="M337.42,-342.6C343.83,-299.26 355.24,-226.24 368,-164 369.94,-154.55 372.18,-144.58 374.47,-134.86"/>
<polygon fill="none" stroke="midnightblue" points="333.93,-342.29 335.94,-352.69 340.86,-343.31 333.93,-342.29"/>
</g>
<!-- Node16&#45;&gt;Node1 -->
<g id="edge17" class="edge">
<title>Node16&#45;&gt;Node1</title>
<path fill="none" stroke="#404040" d="M724.08,-140.27C721.06,-155.36 717.63,-171.28 714,-186 713.46,-188.18 712.91,-190.38 712.36,-192.58"/>
<polygon fill="none" stroke="#404040" points="712.29,-192.83 714.68,-199.64 709.31,-204.45 706.93,-197.65 712.29,-192.83"/>
<text text-anchor="middle" x="739.5" y="-172.5" font-family="Helvetica,sans-Serif" font-size="10.00"> &#45;_model</text>
</g>
<!-- Node17&#45;&gt;Node1 -->
<g id="edge20" class="edge">
<title>Node17&#45;&gt;Node1</title>
<path fill="none" stroke="#404040" d="M555.75,-123.63C555.28,-143.29 556.27,-165.94 561,-186 564.04,-198.87 568.03,-211.88 572.67,-224.74"/>
<polygon fill="none" stroke="#404040" points="572.68,-224.77 578.53,-228.98 576.9,-236 571.04,-231.79 572.68,-224.77"/>
<text text-anchor="middle" x="584.5" y="-172.5" font-family="Helvetica,sans-Serif" font-size="10.00"> &#45;_painter</text>
</g>
<!-- Node18 -->
<g id="node18" class="node">
<title>Node18</title>
<g id="a_node18"><a xlink:title=" ">
<polygon fill="white" stroke="#bfbfbf" points="394,-353 394,-410 516,-410 516,-353 394,-353"/>
<text text-anchor="middle" x="455" y="-398" font-family="Helvetica,sans-Serif" font-size="10.00">QStyledItemDelegate</text>
<polyline fill="none" stroke="#bfbfbf" points="394,-391 516,-391 "/>
<text text-anchor="middle" x="455" y="-379" font-family="Helvetica,sans-Serif" font-size="10.00"> </text>
<polyline fill="none" stroke="#bfbfbf" points="394,-372 516,-372 "/>
<text text-anchor="middle" x="455" y="-360" font-family="Helvetica,sans-Serif" font-size="10.00"> </text>
</a>
</g>
</g>
<!-- Node18&#45;&gt;Node17 -->
<g id="edge21" class="edge">
<title>Node18&#45;&gt;Node17</title>
<path fill="none" stroke="midnightblue" d="M449.6,-342.51C444.95,-297.68 442.6,-221.9 469,-164 471.68,-158.11 490.77,-138.94 510.78,-119.8"/>
<polygon fill="none" stroke="midnightblue" points="446.15,-343.13 450.75,-352.68 453.1,-342.35 446.15,-343.13"/>
</g>
<!-- Node19&#45;&gt;Node1 -->
<g id="edge23" class="edge">
<title>Node19&#45;&gt;Node1</title>
<path fill="none" stroke="#404040" d="M838.2,-743.92C827.29,-702.17 811.64,-650.22 792,-606 777.71,-573.83 759.61,-540.66 741.32,-510.04"/>
<polygon fill="none" stroke="#404040" points="741.32,-510.03 734.79,-506.96 735.11,-499.76 741.64,-502.83 741.32,-510.03"/>
<text text-anchor="middle" x="821" y="-580" font-family="Helvetica,sans-Serif" font-size="10.00"> &#45;_historyModel</text>
</g>
</g>
</svg>
