<?xml version="1.0" encoding="UTF-8" standalone="no"?>
<!DOCTYPE svg PUBLIC "-//W3C//DTD SVG 1.1//EN"
 "http://www.w3.org/Graphics/SVG/1.1/DTD/svg11.dtd">
<!-- Generated by graphviz version 2.43.0 (0)
 -->
<!-- Title: ComSquare::Debugger::APUDebug Pages: 1 -->
<svg width="1166pt" height="1454pt"
 viewBox="0.00 0.00 1166.00 1454.00" xmlns="http://www.w3.org/2000/svg" xmlns:xlink="http://www.w3.org/1999/xlink">
<g id="graph0" class="graph" transform="scale(1 1) rotate(0) translate(4 1450)">
<title>ComSquare::Debugger::APUDebug</title>
<polygon fill="white" stroke="transparent" points="-4,4 -4,-1450 1162,-1450 1162,4 -4,4"/>
<!-- Node1 -->
<g id="node1" class="node">
<title>Node1</title>
<g id="a_node1"><a xlink:title=" ">
<polygon fill="#bfbfbf" stroke="black" points="508.5,-182.5 508.5,-415.5 640.5,-415.5 640.5,-182.5 508.5,-182.5"/>
<text text-anchor="start" x="516.5" y="-403.5" font-family="Helvetica,sans-Serif" font-size="10.00">ComSquare::Debugger</text>
<text text-anchor="middle" x="574.5" y="-392.5" font-family="Helvetica,sans-Serif" font-size="10.00">::APUDebug</text>
<polyline fill="none" stroke="black" points="508.5,-385.5 640.5,-385.5 "/>
<text text-anchor="start" x="516.5" y="-373.5" font-family="Helvetica,sans-Serif" font-size="10.00">&#45; _ui</text>
<text text-anchor="start" x="516.5" y="-362.5" font-family="Helvetica,sans-Serif" font-size="10.00">&#45; _isPaused</text>
<text text-anchor="start" x="516.5" y="-351.5" font-family="Helvetica,sans-Serif" font-size="10.00">&#45; _isStepping</text>
<polyline fill="none" stroke="black" points="508.5,-344.5 640.5,-344.5 "/>
<text text-anchor="start" x="516.5" y="-332.5" font-family="Helvetica,sans-Serif" font-size="10.00">+ APUDebug()</text>
<text text-anchor="start" x="516.5" y="-321.5" font-family="Helvetica,sans-Serif" font-size="10.00">+ APUDebug()</text>
<text text-anchor="start" x="516.5" y="-310.5" font-family="Helvetica,sans-Serif" font-size="10.00">+ operator=()</text>
<text text-anchor="start" x="516.5" y="-299.5" font-family="Helvetica,sans-Serif" font-size="10.00">+ ~APUDebug()</text>
<text text-anchor="start" x="516.5" y="-288.5" font-family="Helvetica,sans-Serif" font-size="10.00">+ update()</text>
<text text-anchor="start" x="516.5" y="-277.5" font-family="Helvetica,sans-Serif" font-size="10.00">+ isDebugger()</text>
<text text-anchor="start" x="516.5" y="-266.5" font-family="Helvetica,sans-Serif" font-size="10.00">+ focus()</text>
<text text-anchor="start" x="516.5" y="-255.5" font-family="Helvetica,sans-Serif" font-size="10.00">+ pause()</text>
<text text-anchor="start" x="516.5" y="-244.5" font-family="Helvetica,sans-Serif" font-size="10.00">+ step()</text>
<text text-anchor="start" x="516.5" y="-233.5" font-family="Helvetica,sans-Serif" font-size="10.00">+ disableDebugger()</text>
<text text-anchor="start" x="516.5" y="-222.5" font-family="Helvetica,sans-Serif" font-size="10.00">&#45; _updatePanel()</text>
<text text-anchor="start" x="516.5" y="-211.5" font-family="Helvetica,sans-Serif" font-size="10.00">&#45; _getPSWString()</text>
<text text-anchor="start" x="516.5" y="-200.5" font-family="Helvetica,sans-Serif" font-size="10.00">&#45; _executeInstruction()</text>
<text text-anchor="start" x="516.5" y="-189.5" font-family="Helvetica,sans-Serif" font-size="10.00">&#45; _getInstructionString()</text>
</a>
</g>
</g>
<!-- Node18 -->
<g id="node18" class="node">
<title>Node18</title>
<g id="a_node18"><a xlink:href="classComSquare_1_1Debugger_1_1ClosableWindow.html" target="_top" xlink:title=" ">
<polygon fill="white" stroke="black" points="417,-0.5 417,-123.5 588,-123.5 588,-0.5 417,-0.5"/>
<text text-anchor="start" x="425" y="-111.5" font-family="Helvetica,sans-Serif" font-size="10.00">ComSquare::Debugger</text>
<text text-anchor="start" x="425" y="-100.5" font-family="Helvetica,sans-Serif" font-size="10.00">::ClosableWindow&lt; ComSquare</text>
<text text-anchor="middle" x="502.5" y="-89.5" font-family="Helvetica,sans-Serif" font-size="10.00">::Debugger::APUDebug &gt;</text>
<polyline fill="none" stroke="black" points="417,-82.5 588,-82.5 "/>
<text text-anchor="middle" x="502.5" y="-70.5" font-family="Helvetica,sans-Serif" font-size="10.00"> </text>
<polyline fill="none" stroke="black" points="417,-63.5 588,-63.5 "/>
<text text-anchor="start" x="425" y="-51.5" font-family="Helvetica,sans-Serif" font-size="10.00">+ ClosableWindow()</text>
<text text-anchor="start" x="425" y="-40.5" font-family="Helvetica,sans-Serif" font-size="10.00">+ ClosableWindow()</text>
<text text-anchor="start" x="425" y="-29.5" font-family="Helvetica,sans-Serif" font-size="10.00">+ operator=()</text>
<text text-anchor="start" x="425" y="-18.5" font-family="Helvetica,sans-Serif" font-size="10.00">+ ~ClosableWindow()</text>
<text text-anchor="start" x="425" y="-7.5" font-family="Helvetica,sans-Serif" font-size="10.00"># closeEvent()</text>
</a>
</g>
</g>
<!-- Node1&#45;&gt;Node18 -->
<g id="edge19" class="edge">
<title>Node1&#45;&gt;Node18</title>
<path fill="none" stroke="#404040" d="M508.43,-190.63C504.88,-181.83 501.82,-172.9 499.5,-164 497.15,-154.99 495.9,-145.37 495.4,-135.79"/>
<polygon fill="none" stroke="#404040" points="495.4,-135.71 491.27,-129.8 495.14,-123.71 499.27,-129.63 495.4,-135.71"/>
<text text-anchor="middle" x="524" y="-156" font-family="Helvetica,sans-Serif" font-size="10.00"> &#45;_obj</text>
<text text-anchor="middle" x="524" y="-145" font-family="Helvetica,sans-Serif" font-size="10.00">&#45;_onClose</text>
</g>
<!-- Node2 -->
<g id="node2" class="node">
<title>Node2</title>
<g id="a_node2"><a xlink:href="classComSquare_1_1APU_1_1APU.html" target="_top" xlink:title=" ">
<polygon fill="white" stroke="black" points="387,-463.5 387,-795.5 528,-795.5 528,-463.5 387,-463.5"/>
<text text-anchor="middle" x="457.5" y="-783.5" font-family="Helvetica,sans-Serif" font-size="10.00">ComSquare::APU::APU</text>
<polyline fill="none" stroke="black" points="387,-776.5 528,-776.5 "/>
<text text-anchor="start" x="395" y="-764.5" font-family="Helvetica,sans-Serif" font-size="10.00"># _map</text>
<text text-anchor="start" x="395" y="-753.5" font-family="Helvetica,sans-Serif" font-size="10.00"># _soundBuffer</text>
<text text-anchor="start" x="395" y="-742.5" font-family="Helvetica,sans-Serif" font-size="10.00"># _state</text>
<text text-anchor="start" x="395" y="-731.5" font-family="Helvetica,sans-Serif" font-size="10.00"># _paddingCycles</text>
<polyline fill="none" stroke="black" points="387,-724.5 528,-724.5 "/>
<text text-anchor="start" x="395" y="-712.5" font-family="Helvetica,sans-Serif" font-size="10.00">+ APU()</text>
<text text-anchor="start" x="395" y="-701.5" font-family="Helvetica,sans-Serif" font-size="10.00">+ APU()</text>
<text text-anchor="start" x="395" y="-690.5" font-family="Helvetica,sans-Serif" font-size="10.00">+ operator=()</text>
<text text-anchor="start" x="395" y="-679.5" font-family="Helvetica,sans-Serif" font-size="10.00">+ ~APU()</text>
<text text-anchor="start" x="395" y="-668.5" font-family="Helvetica,sans-Serif" font-size="10.00">+ read()</text>
<text text-anchor="start" x="395" y="-657.5" font-family="Helvetica,sans-Serif" font-size="10.00">+ write()</text>
<text text-anchor="start" x="395" y="-646.5" font-family="Helvetica,sans-Serif" font-size="10.00">+ getName()</text>
<text text-anchor="start" x="395" y="-635.5" font-family="Helvetica,sans-Serif" font-size="10.00">+ getComponent()</text>
<text text-anchor="start" x="395" y="-624.5" font-family="Helvetica,sans-Serif" font-size="10.00">+ getSize()</text>
<text text-anchor="start" x="395" y="-613.5" font-family="Helvetica,sans-Serif" font-size="10.00">+ update()</text>
<text text-anchor="start" x="395" y="-602.5" font-family="Helvetica,sans-Serif" font-size="10.00">+ reset()</text>
<text text-anchor="start" x="395" y="-591.5" font-family="Helvetica,sans-Serif" font-size="10.00">+ isDebugger()</text>
<text text-anchor="start" x="395" y="-580.5" font-family="Helvetica,sans-Serif" font-size="10.00"># _internalRead()</text>
<text text-anchor="start" x="395" y="-569.5" font-family="Helvetica,sans-Serif" font-size="10.00"># _internalWrite()</text>
<text text-anchor="start" x="395" y="-558.5" font-family="Helvetica,sans-Serif" font-size="10.00"># _getImmediateData()</text>
<text text-anchor="start" x="395" y="-547.5" font-family="Helvetica,sans-Serif" font-size="10.00"># _getDirectAddr()</text>
<text text-anchor="start" x="395" y="-536.5" font-family="Helvetica,sans-Serif" font-size="10.00"># _getIndexXAddr()</text>
<text text-anchor="start" x="395" y="-525.5" font-family="Helvetica,sans-Serif" font-size="10.00"># _getIndexYAddr()</text>
<text text-anchor="start" x="395" y="-514.5" font-family="Helvetica,sans-Serif" font-size="10.00"># _getDirectAddrByX()</text>
<text text-anchor="start" x="395" y="-503.5" font-family="Helvetica,sans-Serif" font-size="10.00"># _getDirectAddrByY()</text>
<text text-anchor="start" x="395" y="-492.5" font-family="Helvetica,sans-Serif" font-size="10.00"># _getAbsoluteAddr()</text>
<text text-anchor="start" x="395" y="-481.5" font-family="Helvetica,sans-Serif" font-size="10.00"># _getAbsoluteByXAddr()</text>
<text text-anchor="start" x="395" y="-470.5" font-family="Helvetica,sans-Serif" font-size="10.00">and 84 more...</text>
</a>
</g>
</g>
<!-- Node2&#45;&gt;Node1 -->
<g id="edge1" class="edge">
<title>Node2&#45;&gt;Node1</title>
<path fill="none" stroke="midnightblue" d="M519.71,-453.84C524.32,-440.88 528.91,-428 533.35,-415.54"/>
<polygon fill="none" stroke="midnightblue" points="516.4,-452.69 516.34,-463.29 523,-455.04 516.4,-452.69"/>
</g>
<!-- Node3 -->
<g id="node3" class="node">
<title>Node3</title>
<g id="a_node3"><a xlink:href="classComSquare_1_1Memory_1_1AMemory.html" target="_top" xlink:title="Abstract class representing a continuous block of memory.">
<polygon fill="white" stroke="black" points="29,-937 29,-1082 160,-1082 160,-937 29,-937"/>
<text text-anchor="start" x="37" y="-1070" font-family="Helvetica,sans-Serif" font-size="10.00">ComSquare::Memory::</text>
<text text-anchor="middle" x="94.5" y="-1059" font-family="Helvetica,sans-Serif" font-size="10.00">AMemory</text>
<polyline fill="none" stroke="black" points="29,-1052 160,-1052 "/>
<text text-anchor="start" x="37" y="-1040" font-family="Helvetica,sans-Serif" font-size="10.00"># _start</text>
<text text-anchor="start" x="37" y="-1029" font-family="Helvetica,sans-Serif" font-size="10.00"># _end</text>
<polyline fill="none" stroke="black" points="29,-1022 160,-1022 "/>
<text text-anchor="start" x="37" y="-1010" font-family="Helvetica,sans-Serif" font-size="10.00">+ getRelativeAddress()</text>
<text text-anchor="start" x="37" y="-999" font-family="Helvetica,sans-Serif" font-size="10.00">+ setMemoryRegion()</text>
<text text-anchor="start" x="37" y="-988" font-family="Helvetica,sans-Serif" font-size="10.00">+ hasMemoryAt()</text>
<text text-anchor="start" x="37" y="-977" font-family="Helvetica,sans-Serif" font-size="10.00">+ isMirror()</text>
<text text-anchor="start" x="37" y="-966" font-family="Helvetica,sans-Serif" font-size="10.00">+ getValueName()</text>
<text text-anchor="start" x="37" y="-955" font-family="Helvetica,sans-Serif" font-size="10.00">+ getMirrored()</text>
<text text-anchor="start" x="37" y="-944" font-family="Helvetica,sans-Serif" font-size="10.00">+ ~AMemory()</text>
</a>
</g>
</g>
<!-- Node3&#45;&gt;Node2 -->
<g id="edge2" class="edge">
<title>Node3&#45;&gt;Node2</title>
<path fill="none" stroke="midnightblue" d="M153.56,-928.63C175.26,-900.74 200.62,-869.74 225.5,-843 276.47,-788.22 339.33,-731.21 386.76,-690.05"/>
<polygon fill="none" stroke="midnightblue" points="150.6,-926.74 147.25,-936.8 156.13,-931.03 150.6,-926.74"/>
</g>
<!-- Node4 -->
<g id="node4" class="node">
<title>Node4</title>
<g id="a_node4"><a xlink:href="classComSquare_1_1Memory_1_1IMemory.html" target="_top" xlink:title="Common interface implemented by all components mapping memory.">
<polygon fill="white" stroke="black" points="0,-1245.5 0,-1423.5 131,-1423.5 131,-1245.5 0,-1245.5"/>
<text text-anchor="start" x="8" y="-1411.5" font-family="Helvetica,sans-Serif" font-size="10.00">ComSquare::Memory::</text>
<text text-anchor="middle" x="65.5" y="-1400.5" font-family="Helvetica,sans-Serif" font-size="10.00">IMemory</text>
<polyline fill="none" stroke="black" points="0,-1393.5 131,-1393.5 "/>
<text text-anchor="middle" x="65.5" y="-1381.5" font-family="Helvetica,sans-Serif" font-size="10.00"> </text>
<polyline fill="none" stroke="black" points="0,-1374.5 131,-1374.5 "/>
<text text-anchor="start" x="8" y="-1362.5" font-family="Helvetica,sans-Serif" font-size="10.00">+ read()</text>
<text text-anchor="start" x="8" y="-1351.5" font-family="Helvetica,sans-Serif" font-size="10.00">+ write()</text>
<text text-anchor="start" x="8" y="-1340.5" font-family="Helvetica,sans-Serif" font-size="10.00">+ hasMemoryAt()</text>
<text text-anchor="start" x="8" y="-1329.5" font-family="Helvetica,sans-Serif" font-size="10.00">+ getRelativeAddress()</text>
<text text-anchor="start" x="8" y="-1318.5" font-family="Helvetica,sans-Serif" font-size="10.00">+ getSize()</text>
<text text-anchor="start" x="8" y="-1307.5" font-family="Helvetica,sans-Serif" font-size="10.00">+ isMirror()</text>
<text text-anchor="start" x="8" y="-1296.5" font-family="Helvetica,sans-Serif" font-size="10.00">+ getName()</text>
<text text-anchor="start" x="8" y="-1285.5" font-family="Helvetica,sans-Serif" font-size="10.00">+ getComponent()</text>
<text text-anchor="start" x="8" y="-1274.5" font-family="Helvetica,sans-Serif" font-size="10.00">+ getValueName()</text>
<text text-anchor="start" x="8" y="-1263.5" font-family="Helvetica,sans-Serif" font-size="10.00">+ getMirrored()</text>
<text text-anchor="start" x="8" y="-1252.5" font-family="Helvetica,sans-Serif" font-size="10.00">+ ~IMemory()</text>
</a>
</g>
</g>
<!-- Node4&#45;&gt;Node3 -->
<g id="edge3" class="edge">
<title>Node4&#45;&gt;Node3</title>
<path fill="none" stroke="midnightblue" d="M74.33,-1235.18C78.76,-1185.81 84.03,-1127.1 88.07,-1082.07"/>
<polygon fill="none" stroke="midnightblue" points="70.83,-1234.97 73.42,-1245.24 77.8,-1235.59 70.83,-1234.97"/>
</g>
<!-- Node5 -->
<g id="node5" class="node">
<title>Node5</title>
<g id="a_node5"><a xlink:href="structComSquare_1_1APU_1_1InternalRegisters.html" target="_top" xlink:title=" ">
<polygon fill="white" stroke="black" points="235,-920.5 235,-1098.5 378,-1098.5 378,-920.5 235,-920.5"/>
<text text-anchor="start" x="243" y="-1086.5" font-family="Helvetica,sans-Serif" font-size="10.00">ComSquare::APU::Internal</text>
<text text-anchor="middle" x="306.5" y="-1075.5" font-family="Helvetica,sans-Serif" font-size="10.00">Registers</text>
<polyline fill="none" stroke="black" points="235,-1068.5 378,-1068.5 "/>
<text text-anchor="start" x="243" y="-1056.5" font-family="Helvetica,sans-Serif" font-size="10.00">+ x</text>
<text text-anchor="start" x="243" y="-1045.5" font-family="Helvetica,sans-Serif" font-size="10.00">+ a</text>
<text text-anchor="start" x="243" y="-1034.5" font-family="Helvetica,sans-Serif" font-size="10.00">+ y</text>
<text text-anchor="start" x="243" y="-1023.5" font-family="Helvetica,sans-Serif" font-size="10.00">+ ya</text>
<text text-anchor="start" x="243" y="-1012.5" font-family="Helvetica,sans-Serif" font-size="10.00">+ @1</text>
<text text-anchor="start" x="243" y="-1001.5" font-family="Helvetica,sans-Serif" font-size="10.00">+ sp</text>
<text text-anchor="start" x="243" y="-990.5" font-family="Helvetica,sans-Serif" font-size="10.00">+ pcl</text>
<text text-anchor="start" x="243" y="-979.5" font-family="Helvetica,sans-Serif" font-size="10.00">+ pch</text>
<text text-anchor="start" x="243" y="-968.5" font-family="Helvetica,sans-Serif" font-size="10.00">+ pc</text>
<text text-anchor="start" x="243" y="-957.5" font-family="Helvetica,sans-Serif" font-size="10.00">+ @3</text>
<text text-anchor="start" x="243" y="-946.5" font-family="Helvetica,sans-Serif" font-size="10.00">and 10 more...</text>
<polyline fill="none" stroke="black" points="235,-939.5 378,-939.5 "/>
<text text-anchor="middle" x="306.5" y="-927.5" font-family="Helvetica,sans-Serif" font-size="10.00"> </text>
</a>
</g>
</g>
<!-- Node5&#45;&gt;Node2 -->
<g id="edge4" class="edge">
<title>Node5&#45;&gt;Node2</title>
<path fill="none" stroke="#404040" d="M322.38,-920.24C329.88,-886.37 340.16,-847.76 353.5,-814 361.34,-794.17 370.99,-773.87 381.22,-754.34"/>
<polygon fill="none" stroke="#404040" points="381.31,-754.17 380.61,-746.99 386.96,-743.58 387.67,-750.76 381.31,-754.17"/>
<text text-anchor="middle" x="403.5" y="-817" font-family="Helvetica,sans-Serif" font-size="10.00"> #_internalRegisters</text>
</g>
<!-- Node6 -->
<g id="node6" class="node">
<title>Node6</title>
<g id="a_node6"><a xlink:href="classComSquare_1_1Renderer_1_1IRenderer.html" target="_top" xlink:title=" ">
<polygon fill="white" stroke="black" points="396,-953.5 396,-1065.5 519,-1065.5 519,-953.5 396,-953.5"/>
<text text-anchor="start" x="404" y="-1053.5" font-family="Helvetica,sans-Serif" font-size="10.00">ComSquare::Renderer</text>
<text text-anchor="middle" x="457.5" y="-1042.5" font-family="Helvetica,sans-Serif" font-size="10.00">::IRenderer</text>
<polyline fill="none" stroke="black" points="396,-1035.5 519,-1035.5 "/>
<text text-anchor="middle" x="457.5" y="-1023.5" font-family="Helvetica,sans-Serif" font-size="10.00"> </text>
<polyline fill="none" stroke="black" points="396,-1016.5 519,-1016.5 "/>
<text text-anchor="start" x="404" y="-1004.5" font-family="Helvetica,sans-Serif" font-size="10.00">+ setWindowName()</text>
<text text-anchor="start" x="404" y="-993.5" font-family="Helvetica,sans-Serif" font-size="10.00">+ drawScreen()</text>
<text text-anchor="start" x="404" y="-982.5" font-family="Helvetica,sans-Serif" font-size="10.00">+ putPixel()</text>
<text text-anchor="start" x="404" y="-971.5" font-family="Helvetica,sans-Serif" font-size="10.00">+ createWindow()</text>
<text text-anchor="start" x="404" y="-960.5" font-family="Helvetica,sans-Serif" font-size="10.00">+ playAudio()</text>
</a>
</g>
</g>
<!-- Node6&#45;&gt;Node2 -->
<g id="edge5" class="edge">
<title>Node6&#45;&gt;Node2</title>
<path fill="none" stroke="#404040" d="M457.5,-953.13C457.5,-914.51 457.5,-860.65 457.5,-807.99"/>
<polygon fill="none" stroke="#404040" points="457.5,-807.71 453.5,-801.71 457.5,-795.71 461.5,-801.71 457.5,-807.71"/>
<text text-anchor="middle" x="486.5" y="-817" font-family="Helvetica,sans-Serif" font-size="10.00"> #_renderer</text>
</g>
<!-- Node7 -->
<g id="node7" class="node">
<title>Node7</title>
<g id="a_node7"><a xlink:href="classComSquare_1_1APU_1_1DSP_1_1DSP.html" target="_top" xlink:title=" ">
<polygon fill="white" stroke="black" points="537.5,-843.5 537.5,-1175.5 687.5,-1175.5 687.5,-843.5 537.5,-843.5"/>
<text text-anchor="middle" x="612.5" y="-1163.5" font-family="Helvetica,sans-Serif" font-size="10.00">ComSquare::APU::DSP::DSP</text>
<polyline fill="none" stroke="black" points="537.5,-1156.5 687.5,-1156.5 "/>
<text text-anchor="start" x="545.5" y="-1144.5" font-family="Helvetica,sans-Serif" font-size="10.00">&#45; _rateModulus</text>
<text text-anchor="start" x="545.5" y="-1133.5" font-family="Helvetica,sans-Serif" font-size="10.00">&#45; _counterOffset</text>
<text text-anchor="start" x="545.5" y="-1122.5" font-family="Helvetica,sans-Serif" font-size="10.00">&#45; _gauss</text>
<text text-anchor="start" x="545.5" y="-1111.5" font-family="Helvetica,sans-Serif" font-size="10.00">&#45; _voices</text>
<text text-anchor="start" x="545.5" y="-1100.5" font-family="Helvetica,sans-Serif" font-size="10.00">&#45; _map</text>
<polyline fill="none" stroke="black" points="537.5,-1093.5 687.5,-1093.5 "/>
<text text-anchor="start" x="545.5" y="-1081.5" font-family="Helvetica,sans-Serif" font-size="10.00">+ DSP()</text>
<text text-anchor="start" x="545.5" y="-1070.5" font-family="Helvetica,sans-Serif" font-size="10.00">+ DSP()</text>
<text text-anchor="start" x="545.5" y="-1059.5" font-family="Helvetica,sans-Serif" font-size="10.00">+ operator=()</text>
<text text-anchor="start" x="545.5" y="-1048.5" font-family="Helvetica,sans-Serif" font-size="10.00">+ ~DSP()</text>
<text text-anchor="start" x="545.5" y="-1037.5" font-family="Helvetica,sans-Serif" font-size="10.00">+ getVoices()</text>
<text text-anchor="start" x="545.5" y="-1026.5" font-family="Helvetica,sans-Serif" font-size="10.00">+ getMaster()</text>
<text text-anchor="start" x="545.5" y="-1015.5" font-family="Helvetica,sans-Serif" font-size="10.00">+ getEcho()</text>
<text text-anchor="start" x="545.5" y="-1004.5" font-family="Helvetica,sans-Serif" font-size="10.00">+ getNoise()</text>
<text text-anchor="start" x="545.5" y="-993.5" font-family="Helvetica,sans-Serif" font-size="10.00">+ getBrr()</text>
<text text-anchor="start" x="545.5" y="-982.5" font-family="Helvetica,sans-Serif" font-size="10.00">+ getLatch()</text>
<text text-anchor="start" x="545.5" y="-971.5" font-family="Helvetica,sans-Serif" font-size="10.00">and 7 more...</text>
<text text-anchor="start" x="545.5" y="-960.5" font-family="Helvetica,sans-Serif" font-size="10.00">&#45; voiceOutput()</text>
<text text-anchor="start" x="545.5" y="-949.5" font-family="Helvetica,sans-Serif" font-size="10.00">&#45; voice1()</text>
<text text-anchor="start" x="545.5" y="-938.5" font-family="Helvetica,sans-Serif" font-size="10.00">&#45; voice2()</text>
<text text-anchor="start" x="545.5" y="-927.5" font-family="Helvetica,sans-Serif" font-size="10.00">&#45; voice3()</text>
<text text-anchor="start" x="545.5" y="-916.5" font-family="Helvetica,sans-Serif" font-size="10.00">&#45; voice3a()</text>
<text text-anchor="start" x="545.5" y="-905.5" font-family="Helvetica,sans-Serif" font-size="10.00">&#45; voice3b()</text>
<text text-anchor="start" x="545.5" y="-894.5" font-family="Helvetica,sans-Serif" font-size="10.00">&#45; voice3c()</text>
<text text-anchor="start" x="545.5" y="-883.5" font-family="Helvetica,sans-Serif" font-size="10.00">&#45; voice4()</text>
<text text-anchor="start" x="545.5" y="-872.5" font-family="Helvetica,sans-Serif" font-size="10.00">&#45; voice5()</text>
<text text-anchor="start" x="545.5" y="-861.5" font-family="Helvetica,sans-Serif" font-size="10.00">&#45; voice6()</text>
<text text-anchor="start" x="545.5" y="-850.5" font-family="Helvetica,sans-Serif" font-size="10.00">and 27 more...</text>
</a>
</g>
</g>
<!-- Node7&#45;&gt;Node2 -->
<g id="edge6" class="edge">
<title>Node7&#45;&gt;Node2</title>
<path fill="none" stroke="#404040" d="M544.74,-843.25C539.78,-831.16 534.77,-818.94 529.79,-806.78"/>
<polygon fill="none" stroke="#404040" points="529.77,-806.75 523.8,-802.72 525.22,-795.65 531.2,-799.68 529.77,-806.75"/>
<text text-anchor="middle" x="552.5" y="-817" font-family="Helvetica,sans-Serif" font-size="10.00"> #_dsp</text>
</g>
<!-- Node8 -->
<g id="node8" class="node">
<title>Node8</title>
<g id="a_node8"><a xlink:href="structComSquare_1_1APU_1_1DSP_1_1Timer.html" target="_top" xlink:title=" ">
<polygon fill="white" stroke="black" points="149,-1295 149,-1374 274,-1374 274,-1295 149,-1295"/>
<text text-anchor="start" x="157" y="-1362" font-family="Helvetica,sans-Serif" font-size="10.00">ComSquare::APU::DSP</text>
<text text-anchor="middle" x="211.5" y="-1351" font-family="Helvetica,sans-Serif" font-size="10.00">::Timer</text>
<polyline fill="none" stroke="black" points="149,-1344 274,-1344 "/>
<text text-anchor="start" x="157" y="-1332" font-family="Helvetica,sans-Serif" font-size="10.00">+ counter</text>
<text text-anchor="start" x="157" y="-1321" font-family="Helvetica,sans-Serif" font-size="10.00">+ sample</text>
<polyline fill="none" stroke="black" points="149,-1314 274,-1314 "/>
<text text-anchor="middle" x="211.5" y="-1302" font-family="Helvetica,sans-Serif" font-size="10.00"> </text>
</a>
</g>
</g>
<!-- Node8&#45;&gt;Node7 -->
<g id="edge7" class="edge">
<title>Node8&#45;&gt;Node7</title>
<path fill="none" stroke="#404040" d="M227.03,-1294.83C238.73,-1270.57 257.14,-1240.65 282.5,-1223 331.8,-1188.69 355.48,-1205.17 414.5,-1194 464.47,-1184.54 486.32,-1205.84 527.5,-1176 527.61,-1175.92 527.71,-1175.85 527.82,-1175.77"/>
<polygon fill="none" stroke="#404040" points="527.98,-1175.63 530.14,-1168.75 537.33,-1168.1 535.17,-1174.98 527.98,-1175.63"/>
<text text-anchor="middle" x="434" y="-1197" font-family="Helvetica,sans-Serif" font-size="10.00"> &#45;_timer</text>
</g>
<!-- Node9 -->
<g id="node9" class="node">
<title>Node9</title>
<g id="a_node9"><a xlink:href="structComSquare_1_1APU_1_1DSP_1_1State.html" target="_top" xlink:title="Current state of the DSP.">
<polygon fill="white" stroke="black" points="292,-1284 292,-1385 417,-1385 417,-1284 292,-1284"/>
<text text-anchor="start" x="300" y="-1373" font-family="Helvetica,sans-Serif" font-size="10.00">ComSquare::APU::DSP</text>
<text text-anchor="middle" x="354.5" y="-1362" font-family="Helvetica,sans-Serif" font-size="10.00">::State</text>
<polyline fill="none" stroke="black" points="292,-1355 417,-1355 "/>
<text text-anchor="start" x="300" y="-1343" font-family="Helvetica,sans-Serif" font-size="10.00">+ voice</text>
<text text-anchor="start" x="300" y="-1332" font-family="Helvetica,sans-Serif" font-size="10.00">+ buffer</text>
<text text-anchor="start" x="300" y="-1321" font-family="Helvetica,sans-Serif" font-size="10.00">+ bufferSize</text>
<text text-anchor="start" x="300" y="-1310" font-family="Helvetica,sans-Serif" font-size="10.00">+ bufferOffset</text>
<polyline fill="none" stroke="black" points="292,-1303 417,-1303 "/>
<text text-anchor="start" x="300" y="-1291" font-family="Helvetica,sans-Serif" font-size="10.00">+ State()</text>
</a>
</g>
</g>
<!-- Node9&#45;&gt;Node7 -->
<g id="edge8" class="edge">
<title>Node9&#45;&gt;Node7</title>
<path fill="none" stroke="#404040" d="M378.33,-1283.85C390.23,-1263 406.23,-1239.76 425.5,-1223 463.17,-1190.25 491.46,-1210.53 527.5,-1176 527.92,-1175.59 528.34,-1175.19 528.76,-1174.78"/>
<polygon fill="none" stroke="#404040" points="529.03,-1174.5 530.28,-1167.39 537.32,-1165.82 536.07,-1172.92 529.03,-1174.5"/>
<text text-anchor="middle" x="518" y="-1197" font-family="Helvetica,sans-Serif" font-size="10.00"> &#45;_state</text>
</g>
<!-- Node10 -->
<g id="node10" class="node">
<title>Node10</title>
<g id="a_node10"><a xlink:href="structComSquare_1_1APU_1_1DSP_1_1Master.html" target="_top" xlink:title=" ">
<polygon fill="white" stroke="black" points="435,-1278.5 435,-1390.5 560,-1390.5 560,-1278.5 435,-1278.5"/>
<text text-anchor="start" x="443" y="-1378.5" font-family="Helvetica,sans-Serif" font-size="10.00">ComSquare::APU::DSP</text>
<text text-anchor="middle" x="497.5" y="-1367.5" font-family="Helvetica,sans-Serif" font-size="10.00">::Master</text>
<polyline fill="none" stroke="black" points="435,-1360.5 560,-1360.5 "/>
<text text-anchor="start" x="443" y="-1348.5" font-family="Helvetica,sans-Serif" font-size="10.00">+ volume</text>
<text text-anchor="start" x="443" y="-1337.5" font-family="Helvetica,sans-Serif" font-size="10.00">+ mute</text>
<text text-anchor="start" x="443" y="-1326.5" font-family="Helvetica,sans-Serif" font-size="10.00">+ reset</text>
<text text-anchor="start" x="443" y="-1315.5" font-family="Helvetica,sans-Serif" font-size="10.00">+ output</text>
<text text-anchor="start" x="443" y="-1304.5" font-family="Helvetica,sans-Serif" font-size="10.00">+ unused</text>
<polyline fill="none" stroke="black" points="435,-1297.5 560,-1297.5 "/>
<text text-anchor="middle" x="497.5" y="-1285.5" font-family="Helvetica,sans-Serif" font-size="10.00"> </text>
</a>
</g>
</g>
<!-- Node10&#45;&gt;Node7 -->
<g id="edge9" class="edge">
<title>Node10&#45;&gt;Node7</title>
<path fill="none" stroke="#404040" d="M517.14,-1278.34C526.29,-1252.63 537.75,-1220.45 549.51,-1187.41"/>
<polygon fill="none" stroke="#404040" points="549.66,-1187 547.91,-1180 553.69,-1175.69 555.44,-1182.68 549.66,-1187"/>
<text text-anchor="middle" x="569" y="-1197" font-family="Helvetica,sans-Serif" font-size="10.00"> &#45;_master</text>
</g>
<!-- Node11 -->
<g id="node11" class="node">
<title>Node11</title>
<g id="a_node11"><a xlink:href="structComSquare_1_1APU_1_1DSP_1_1Echo.html" target="_top" xlink:title=" ">
<polygon fill="white" stroke="black" points="578,-1223.5 578,-1445.5 703,-1445.5 703,-1223.5 578,-1223.5"/>
<text text-anchor="start" x="586" y="-1433.5" font-family="Helvetica,sans-Serif" font-size="10.00">ComSquare::APU::DSP</text>
<text text-anchor="middle" x="640.5" y="-1422.5" font-family="Helvetica,sans-Serif" font-size="10.00">::Echo</text>
<polyline fill="none" stroke="black" points="578,-1415.5 703,-1415.5 "/>
<text text-anchor="start" x="586" y="-1403.5" font-family="Helvetica,sans-Serif" font-size="10.00">+ volume</text>
<text text-anchor="start" x="586" y="-1392.5" font-family="Helvetica,sans-Serif" font-size="10.00">+ feedback</text>
<text text-anchor="start" x="586" y="-1381.5" font-family="Helvetica,sans-Serif" font-size="10.00">+ FIR</text>
<text text-anchor="start" x="586" y="-1370.5" font-family="Helvetica,sans-Serif" font-size="10.00">+ data</text>
<text text-anchor="start" x="586" y="-1359.5" font-family="Helvetica,sans-Serif" font-size="10.00">+ offset</text>
<text text-anchor="start" x="586" y="-1348.5" font-family="Helvetica,sans-Serif" font-size="10.00">+ length</text>
<text text-anchor="start" x="586" y="-1337.5" font-family="Helvetica,sans-Serif" font-size="10.00">+ delay</text>
<text text-anchor="start" x="586" y="-1326.5" font-family="Helvetica,sans-Serif" font-size="10.00">+ enabled</text>
<text text-anchor="start" x="586" y="-1315.5" font-family="Helvetica,sans-Serif" font-size="10.00">+ toggle</text>
<text text-anchor="start" x="586" y="-1304.5" font-family="Helvetica,sans-Serif" font-size="10.00">+ history</text>
<text text-anchor="start" x="586" y="-1293.5" font-family="Helvetica,sans-Serif" font-size="10.00">+ historyOffset</text>
<text text-anchor="start" x="586" y="-1282.5" font-family="Helvetica,sans-Serif" font-size="10.00">+ address</text>
<text text-anchor="start" x="586" y="-1271.5" font-family="Helvetica,sans-Serif" font-size="10.00">+ value</text>
<text text-anchor="start" x="586" y="-1260.5" font-family="Helvetica,sans-Serif" font-size="10.00">+ input</text>
<text text-anchor="start" x="586" y="-1249.5" font-family="Helvetica,sans-Serif" font-size="10.00">+ output</text>
<polyline fill="none" stroke="black" points="578,-1242.5 703,-1242.5 "/>
<text text-anchor="middle" x="640.5" y="-1230.5" font-family="Helvetica,sans-Serif" font-size="10.00"> </text>
</a>
</g>
</g>
<!-- Node11&#45;&gt;Node7 -->
<g id="edge10" class="edge">
<title>Node11&#45;&gt;Node7</title>
<path fill="none" stroke="#404040" d="M630.94,-1223.25C629.94,-1211.73 628.91,-1199.83 627.87,-1187.81"/>
<polygon fill="none" stroke="#404040" points="627.86,-1187.72 623.36,-1182.09 626.83,-1175.76 631.33,-1181.39 627.86,-1187.72"/>
<text text-anchor="middle" x="647.5" y="-1197" font-family="Helvetica,sans-Serif" font-size="10.00"> &#45;_echo</text>
</g>
<!-- Node12 -->
<g id="node12" class="node">
<title>Node12</title>
<g id="a_node12"><a xlink:href="structComSquare_1_1APU_1_1DSP_1_1BRR.html" target="_top" xlink:title=" ">
<polygon fill="white" stroke="black" points="721,-1273 721,-1396 872,-1396 872,-1273 721,-1273"/>
<text text-anchor="middle" x="796.5" y="-1384" font-family="Helvetica,sans-Serif" font-size="10.00">ComSquare::APU::DSP::BRR</text>
<polyline fill="none" stroke="black" points="721,-1377 872,-1377 "/>
<text text-anchor="start" x="729" y="-1365" font-family="Helvetica,sans-Serif" font-size="10.00">+ offset</text>
<text text-anchor="start" x="729" y="-1354" font-family="Helvetica,sans-Serif" font-size="10.00">+ offsetAddr</text>
<text text-anchor="start" x="729" y="-1343" font-family="Helvetica,sans-Serif" font-size="10.00">+ address</text>
<text text-anchor="start" x="729" y="-1332" font-family="Helvetica,sans-Serif" font-size="10.00">+ nextAddress</text>
<text text-anchor="start" x="729" y="-1321" font-family="Helvetica,sans-Serif" font-size="10.00">+ value</text>
<text text-anchor="start" x="729" y="-1310" font-family="Helvetica,sans-Serif" font-size="10.00">+ header</text>
<text text-anchor="start" x="729" y="-1299" font-family="Helvetica,sans-Serif" font-size="10.00">+ source</text>
<polyline fill="none" stroke="black" points="721,-1292 872,-1292 "/>
<text text-anchor="middle" x="796.5" y="-1280" font-family="Helvetica,sans-Serif" font-size="10.00"> </text>
</a>
</g>
</g>
<!-- Node12&#45;&gt;Node7 -->
<g id="edge11" class="edge">
<title>Node12&#45;&gt;Node7</title>
<path fill="none" stroke="#404040" d="M756.7,-1272.92C738.11,-1243.94 716.04,-1208.55 697.5,-1176 696.17,-1173.66 694.83,-1171.3 693.5,-1168.92"/>
<polygon fill="none" stroke="#404040" points="693.47,-1168.87 687.05,-1165.57 687.63,-1158.38 694.04,-1161.68 693.47,-1168.87"/>
<text text-anchor="middle" x="725.5" y="-1197" font-family="Helvetica,sans-Serif" font-size="10.00"> &#45;_brr</text>
</g>
<!-- Node13 -->
<g id="node13" class="node">
<title>Node13</title>
<g id="a_node13"><a xlink:href="structComSquare_1_1APU_1_1DSP_1_1Latch.html" target="_top" xlink:title=" ">
<polygon fill="white" stroke="black" points="890,-1278.5 890,-1390.5 1015,-1390.5 1015,-1278.5 890,-1278.5"/>
<text text-anchor="start" x="898" y="-1378.5" font-family="Helvetica,sans-Serif" font-size="10.00">ComSquare::APU::DSP</text>
<text text-anchor="middle" x="952.5" y="-1367.5" font-family="Helvetica,sans-Serif" font-size="10.00">::Latch</text>
<polyline fill="none" stroke="black" points="890,-1360.5 1015,-1360.5 "/>
<text text-anchor="start" x="898" y="-1348.5" font-family="Helvetica,sans-Serif" font-size="10.00">+ adsr1</text>
<text text-anchor="start" x="898" y="-1337.5" font-family="Helvetica,sans-Serif" font-size="10.00">+ envx</text>
<text text-anchor="start" x="898" y="-1326.5" font-family="Helvetica,sans-Serif" font-size="10.00">+ outx</text>
<text text-anchor="start" x="898" y="-1315.5" font-family="Helvetica,sans-Serif" font-size="10.00">+ pitch</text>
<text text-anchor="start" x="898" y="-1304.5" font-family="Helvetica,sans-Serif" font-size="10.00">+ output</text>
<polyline fill="none" stroke="black" points="890,-1297.5 1015,-1297.5 "/>
<text text-anchor="middle" x="952.5" y="-1285.5" font-family="Helvetica,sans-Serif" font-size="10.00"> </text>
</a>
</g>
</g>
<!-- Node13&#45;&gt;Node7 -->
<g id="edge12" class="edge">
<title>Node13&#45;&gt;Node7</title>
<path fill="none" stroke="#404040" d="M927.97,-1278.42C916.5,-1258.31 901.01,-1237.07 881.5,-1223 847.27,-1198.31 730.49,-1202.31 697.5,-1176 697.29,-1175.83 697.07,-1175.66 696.86,-1175.49"/>
<polygon fill="none" stroke="#404040" points="696.64,-1175.29 689.49,-1174.32 687.64,-1167.35 694.78,-1168.32 696.64,-1175.29"/>
<text text-anchor="middle" x="838" y="-1197" font-family="Helvetica,sans-Serif" font-size="10.00"> &#45;_latch</text>
</g>
<!-- Node14 -->
<g id="node14" class="node">
<title>Node14</title>
<g id="a_node14"><a xlink:href="structComSquare_1_1APU_1_1DSP_1_1Noise.html" target="_top" xlink:title=" ">
<polygon fill="white" stroke="black" points="1033,-1295 1033,-1374 1158,-1374 1158,-1295 1033,-1295"/>
<text text-anchor="start" x="1041" y="-1362" font-family="Helvetica,sans-Serif" font-size="10.00">ComSquare::APU::DSP</text>
<text text-anchor="middle" x="1095.5" y="-1351" font-family="Helvetica,sans-Serif" font-size="10.00">::Noise</text>
<polyline fill="none" stroke="black" points="1033,-1344 1158,-1344 "/>
<text text-anchor="start" x="1041" y="-1332" font-family="Helvetica,sans-Serif" font-size="10.00">+ clock</text>
<text text-anchor="start" x="1041" y="-1321" font-family="Helvetica,sans-Serif" font-size="10.00">+ lfsr</text>
<polyline fill="none" stroke="black" points="1033,-1314 1158,-1314 "/>
<text text-anchor="middle" x="1095.5" y="-1302" font-family="Helvetica,sans-Serif" font-size="10.00"> </text>
</a>
</g>
</g>
<!-- Node14&#45;&gt;Node7 -->
<g id="edge13" class="edge">
<title>Node14&#45;&gt;Node7</title>
<path fill="none" stroke="#404040" d="M1080.34,-1294.75C1068.74,-1270.3 1050.31,-1240.19 1024.5,-1223 962.89,-1181.98 933.77,-1204.51 860.5,-1194 824.43,-1188.82 727.51,-1196.67 697.5,-1176 697.39,-1175.93 697.28,-1175.85 697.18,-1175.78"/>
<polygon fill="none" stroke="#404040" points="697.02,-1175.65 689.82,-1175.16 687.52,-1168.32 694.71,-1168.82 697.02,-1175.65"/>
<text text-anchor="middle" x="1007" y="-1197" font-family="Helvetica,sans-Serif" font-size="10.00"> &#45;_noise</text>
</g>
<!-- Node15 -->
<g id="node15" class="node">
<title>Node15</title>
<g id="a_node15"><a xlink:href="structComSquare_1_1APU_1_1Registers.html" target="_top" xlink:title=" ">
<polygon fill="white" stroke="black" points="706,-904 706,-1115 857,-1115 857,-904 706,-904"/>
<text text-anchor="middle" x="781.5" y="-1103" font-family="Helvetica,sans-Serif" font-size="10.00">ComSquare::APU::Registers</text>
<polyline fill="none" stroke="black" points="706,-1096 857,-1096 "/>
<text text-anchor="start" x="714" y="-1084" font-family="Helvetica,sans-Serif" font-size="10.00">+ unknown</text>
<text text-anchor="start" x="714" y="-1073" font-family="Helvetica,sans-Serif" font-size="10.00">+ ctrlreg</text>
<text text-anchor="start" x="714" y="-1062" font-family="Helvetica,sans-Serif" font-size="10.00">+ dspregAddr</text>
<text text-anchor="start" x="714" y="-1051" font-family="Helvetica,sans-Serif" font-size="10.00">+ port0</text>
<text text-anchor="start" x="714" y="-1040" font-family="Helvetica,sans-Serif" font-size="10.00">+ port1</text>
<text text-anchor="start" x="714" y="-1029" font-family="Helvetica,sans-Serif" font-size="10.00">+ port2</text>
<text text-anchor="start" x="714" y="-1018" font-family="Helvetica,sans-Serif" font-size="10.00">+ port3</text>
<text text-anchor="start" x="714" y="-1007" font-family="Helvetica,sans-Serif" font-size="10.00">+ regmem1</text>
<text text-anchor="start" x="714" y="-996" font-family="Helvetica,sans-Serif" font-size="10.00">+ regmem2</text>
<text text-anchor="start" x="714" y="-985" font-family="Helvetica,sans-Serif" font-size="10.00">+ timer0</text>
<text text-anchor="start" x="714" y="-974" font-family="Helvetica,sans-Serif" font-size="10.00">+ timer1</text>
<text text-anchor="start" x="714" y="-963" font-family="Helvetica,sans-Serif" font-size="10.00">+ timer2</text>
<text text-anchor="start" x="714" y="-952" font-family="Helvetica,sans-Serif" font-size="10.00">+ counter0</text>
<text text-anchor="start" x="714" y="-941" font-family="Helvetica,sans-Serif" font-size="10.00">+ counter1</text>
<text text-anchor="start" x="714" y="-930" font-family="Helvetica,sans-Serif" font-size="10.00">+ counter2</text>
<polyline fill="none" stroke="black" points="706,-923 857,-923 "/>
<text text-anchor="middle" x="781.5" y="-911" font-family="Helvetica,sans-Serif" font-size="10.00"> </text>
</a>
</g>
</g>
<!-- Node15&#45;&gt;Node2 -->
<g id="edge14" class="edge">
<title>Node15&#45;&gt;Node2</title>
<path fill="none" stroke="#404040" d="M743.97,-903.9C731.77,-881.27 716.15,-859.28 696.5,-843 668.13,-819.49 565.59,-819.85 537.5,-796 537.29,-795.83 537.09,-795.65 536.89,-795.48"/>
<polygon fill="none" stroke="#404040" points="536.77,-795.37 529.66,-794.18 528.02,-787.16 535.13,-788.35 536.77,-795.37"/>
<text text-anchor="middle" x="674.5" y="-817" font-family="Helvetica,sans-Serif" font-size="10.00"> #_registers</text>
</g>
<!-- Node16 -->
<g id="node16" class="node">
<title>Node16</title>
<g id="a_node16"><a xlink:title=" ">
<polygon fill="white" stroke="#bfbfbf" points="546.5,-601 546.5,-658 602.5,-658 602.5,-601 546.5,-601"/>
<text text-anchor="middle" x="574.5" y="-646" font-family="Helvetica,sans-Serif" font-size="10.00">QObject</text>
<polyline fill="none" stroke="#bfbfbf" points="546.5,-639 602.5,-639 "/>
<text text-anchor="middle" x="574.5" y="-627" font-family="Helvetica,sans-Serif" font-size="10.00"> </text>
<polyline fill="none" stroke="#bfbfbf" points="546.5,-620 602.5,-620 "/>
<text text-anchor="middle" x="574.5" y="-608" font-family="Helvetica,sans-Serif" font-size="10.00"> </text>
</a>
</g>
</g>
<!-- Node16&#45;&gt;Node1 -->
<g id="edge15" class="edge">
<title>Node16&#45;&gt;Node1</title>
<path fill="none" stroke="midnightblue" d="M574.5,-590.6C574.5,-548.05 574.5,-476.95 574.5,-415.74"/>
<polygon fill="none" stroke="midnightblue" points="571,-590.78 574.5,-600.78 578,-590.78 571,-590.78"/>
</g>
<!-- Node17 -->
<g id="node17" class="node">
<title>Node17</title>
<g id="a_node17"><a xlink:href="classComSquare_1_1SNES.html" target="_top" xlink:title="Container of all the components of the SNES.">
<polygon fill="white" stroke="black" points="621,-513 621,-746 808,-746 808,-513 621,-513"/>
<text text-anchor="middle" x="714.5" y="-734" font-family="Helvetica,sans-Serif" font-size="10.00">ComSquare::SNES</text>
<polyline fill="none" stroke="black" points="621,-727 808,-727 "/>
<text text-anchor="start" x="629" y="-715" font-family="Helvetica,sans-Serif" font-size="10.00">+ bus</text>
<text text-anchor="start" x="629" y="-704" font-family="Helvetica,sans-Serif" font-size="10.00">+ cartridge</text>
<text text-anchor="start" x="629" y="-693" font-family="Helvetica,sans-Serif" font-size="10.00">+ wram</text>
<text text-anchor="start" x="629" y="-682" font-family="Helvetica,sans-Serif" font-size="10.00">+ sram</text>
<text text-anchor="start" x="629" y="-671" font-family="Helvetica,sans-Serif" font-size="10.00">+ cpu</text>
<text text-anchor="start" x="629" y="-660" font-family="Helvetica,sans-Serif" font-size="10.00">+ ppu</text>
<text text-anchor="start" x="629" y="-649" font-family="Helvetica,sans-Serif" font-size="10.00">+ apu</text>
<polyline fill="none" stroke="black" points="621,-642 808,-642 "/>
<text text-anchor="start" x="629" y="-630" font-family="Helvetica,sans-Serif" font-size="10.00">+ update()</text>
<text text-anchor="start" x="629" y="-619" font-family="Helvetica,sans-Serif" font-size="10.00">+ disableCPUDebugging()</text>
<text text-anchor="start" x="629" y="-608" font-family="Helvetica,sans-Serif" font-size="10.00">+ enableCPUDebugging()</text>
<text text-anchor="start" x="629" y="-597" font-family="Helvetica,sans-Serif" font-size="10.00">+ enableCPUDebuggingWithError()</text>
<text text-anchor="start" x="629" y="-586" font-family="Helvetica,sans-Serif" font-size="10.00">+ disableRamViewer()</text>
<text text-anchor="start" x="629" y="-575" font-family="Helvetica,sans-Serif" font-size="10.00">+ enableRamViewer()</text>
<text text-anchor="start" x="629" y="-564" font-family="Helvetica,sans-Serif" font-size="10.00">+ disableHeaderViewer()</text>
<text text-anchor="start" x="629" y="-553" font-family="Helvetica,sans-Serif" font-size="10.00">+ enableHeaderViewer()</text>
<text text-anchor="start" x="629" y="-542" font-family="Helvetica,sans-Serif" font-size="10.00">+ disableAPUDebugging()</text>
<text text-anchor="start" x="629" y="-531" font-family="Helvetica,sans-Serif" font-size="10.00">+ enableAPUDebugging()</text>
<text text-anchor="start" x="629" y="-520" font-family="Helvetica,sans-Serif" font-size="10.00">and 10 more...</text>
</a>
</g>
</g>
<!-- Node17&#45;&gt;Node1 -->
<g id="edge16" class="edge">
<title>Node17&#45;&gt;Node1</title>
<path fill="none" stroke="#404040" d="M665.14,-512.68C653.29,-484.88 640.58,-455.04 628.53,-426.77"/>
<polygon fill="none" stroke="#404040" points="628.47,-426.64 622.44,-422.69 623.77,-415.6 629.8,-419.55 628.47,-426.64"/>
<text text-anchor="middle" x="654" y="-437" font-family="Helvetica,sans-Serif" font-size="10.00"> &#45;_snes</text>
</g>
<!-- Node18&#45;&gt;Node1 -->
<g id="edge17" class="edge">
<title>Node18&#45;&gt;Node1</title>
<path fill="none" stroke="#404040" d="M544.44,-123.8C547.5,-129.79 550.26,-135.91 552.5,-142 555.85,-151.13 558.7,-160.73 561.12,-170.49"/>
<polygon fill="none" stroke="#404040" points="561.18,-170.77 566.42,-175.72 563.85,-182.46 558.62,-177.51 561.18,-170.77"/>
<text text-anchor="middle" x="584.5" y="-150.5" font-family="Helvetica,sans-Serif" font-size="10.00"> &#45;_window</text>
</g>
<!-- Node19 -->
<g id="node19" class="node">
<title>Node19</title>
<g id="a_node19"><a xlink:title=" ">
<polygon fill="white" stroke="#bfbfbf" points="403,-270.5 403,-327.5 490,-327.5 490,-270.5 403,-270.5"/>
<text text-anchor="middle" x="446.5" y="-315.5" font-family="Helvetica,sans-Serif" font-size="10.00">QMainWindow</text>
<polyline fill="none" stroke="#bfbfbf" points="403,-308.5 490,-308.5 "/>
<text text-anchor="middle" x="446.5" y="-296.5" font-family="Helvetica,sans-Serif" font-size="10.00"> </text>
<polyline fill="none" stroke="#bfbfbf" points="403,-289.5 490,-289.5 "/>
<text text-anchor="middle" x="446.5" y="-277.5" font-family="Helvetica,sans-Serif" font-size="10.00"> </text>
</a>
</g>
</g>
<!-- Node19&#45;&gt;Node18 -->
<g id="edge18" class="edge">
<title>Node19&#45;&gt;Node18</title>
<path fill="none" stroke="midnightblue" d="M454.13,-260.12C460.65,-228.44 470.55,-182.12 480.5,-142 481.97,-136.06 483.57,-129.88 485.21,-123.72"/>
<polygon fill="none" stroke="midnightblue" points="450.62,-259.77 452.05,-270.27 457.48,-261.18 450.62,-259.77"/>
</g>
</g>
</svg>
