<?xml version="1.0" encoding="UTF-8" standalone="no"?>
<!DOCTYPE svg PUBLIC "-//W3C//DTD SVG 1.1//EN"
 "http://www.w3.org/Graphics/SVG/1.1/DTD/svg11.dtd">
<!-- Generated by graphviz version 2.43.0 (0)
 -->
<!-- Title: ComSquare::APU::DSP::DSP Pages: 1 -->
<svg width="1017pt" height="611pt"
 viewBox="0.00 0.00 1017.00 611.00" xmlns="http://www.w3.org/2000/svg" xmlns:xlink="http://www.w3.org/1999/xlink">
<g id="graph0" class="graph" transform="scale(1 1) rotate(0) translate(4 607)">
<title>ComSquare::APU::DSP::DSP</title>
<polygon fill="white" stroke="transparent" points="-4,4 -4,-607 1013,-607 1013,4 -4,4"/>
<!-- Node1 -->
<g id="node1" class="node">
<title>Node1</title>
<g id="a_node1"><a xlink:title=" ">
<polygon fill="#bfbfbf" stroke="black" points="416.5,-0.5 416.5,-332.5 566.5,-332.5 566.5,-0.5 416.5,-0.5"/>
<text text-anchor="middle" x="491.5" y="-320.5" font-family="Helvetica,sans-Serif" font-size="10.00">ComSquare::APU::DSP::DSP</text>
<polyline fill="none" stroke="black" points="416.5,-313.5 566.5,-313.5 "/>
<text text-anchor="start" x="424.5" y="-301.5" font-family="Helvetica,sans-Serif" font-size="10.00">&#45; _rateModulus</text>
<text text-anchor="start" x="424.5" y="-290.5" font-family="Helvetica,sans-Serif" font-size="10.00">&#45; _counterOffset</text>
<text text-anchor="start" x="424.5" y="-279.5" font-family="Helvetica,sans-Serif" font-size="10.00">&#45; _gauss</text>
<text text-anchor="start" x="424.5" y="-268.5" font-family="Helvetica,sans-Serif" font-size="10.00">&#45; _voices</text>
<text text-anchor="start" x="424.5" y="-257.5" font-family="Helvetica,sans-Serif" font-size="10.00">&#45; _map</text>
<polyline fill="none" stroke="black" points="416.5,-250.5 566.5,-250.5 "/>
<text text-anchor="start" x="424.5" y="-238.5" font-family="Helvetica,sans-Serif" font-size="10.00">+ DSP()</text>
<text text-anchor="start" x="424.5" y="-227.5" font-family="Helvetica,sans-Serif" font-size="10.00">+ DSP()</text>
<text text-anchor="start" x="424.5" y="-216.5" font-family="Helvetica,sans-Serif" font-size="10.00">+ operator=()</text>
<text text-anchor="start" x="424.5" y="-205.5" font-family="Helvetica,sans-Serif" font-size="10.00">+ ~DSP()</text>
<text text-anchor="start" x="424.5" y="-194.5" font-family="Helvetica,sans-Serif" font-size="10.00">+ getVoices()</text>
<text text-anchor="start" x="424.5" y="-183.5" font-family="Helvetica,sans-Serif" font-size="10.00">+ getMaster()</text>
<text text-anchor="start" x="424.5" y="-172.5" font-family="Helvetica,sans-Serif" font-size="10.00">+ getEcho()</text>
<text text-anchor="start" x="424.5" y="-161.5" font-family="Helvetica,sans-Serif" font-size="10.00">+ getNoise()</text>
<text text-anchor="start" x="424.5" y="-150.5" font-family="Helvetica,sans-Serif" font-size="10.00">+ getBrr()</text>
<text text-anchor="start" x="424.5" y="-139.5" font-family="Helvetica,sans-Serif" font-size="10.00">+ getLatch()</text>
<text text-anchor="start" x="424.5" y="-128.5" font-family="Helvetica,sans-Serif" font-size="10.00">and 7 more...</text>
<text text-anchor="start" x="424.5" y="-117.5" font-family="Helvetica,sans-Serif" font-size="10.00">&#45; voiceOutput()</text>
<text text-anchor="start" x="424.5" y="-106.5" font-family="Helvetica,sans-Serif" font-size="10.00">&#45; voice1()</text>
<text text-anchor="start" x="424.5" y="-95.5" font-family="Helvetica,sans-Serif" font-size="10.00">&#45; voice2()</text>
<text text-anchor="start" x="424.5" y="-84.5" font-family="Helvetica,sans-Serif" font-size="10.00">&#45; voice3()</text>
<text text-anchor="start" x="424.5" y="-73.5" font-family="Helvetica,sans-Serif" font-size="10.00">&#45; voice3a()</text>
<text text-anchor="start" x="424.5" y="-62.5" font-family="Helvetica,sans-Serif" font-size="10.00">&#45; voice3b()</text>
<text text-anchor="start" x="424.5" y="-51.5" font-family="Helvetica,sans-Serif" font-size="10.00">&#45; voice3c()</text>
<text text-anchor="start" x="424.5" y="-40.5" font-family="Helvetica,sans-Serif" font-size="10.00">&#45; voice4()</text>
<text text-anchor="start" x="424.5" y="-29.5" font-family="Helvetica,sans-Serif" font-size="10.00">&#45; voice5()</text>
<text text-anchor="start" x="424.5" y="-18.5" font-family="Helvetica,sans-Serif" font-size="10.00">&#45; voice6()</text>
<text text-anchor="start" x="424.5" y="-7.5" font-family="Helvetica,sans-Serif" font-size="10.00">and 27 more...</text>
</a>
</g>
</g>
<!-- Node2 -->
<g id="node2" class="node">
<title>Node2</title>
<g id="a_node2"><a xlink:href="structComSquare_1_1APU_1_1DSP_1_1Timer.html" target="_top" xlink:title=" ">
<polygon fill="white" stroke="black" points="0,-452 0,-531 125,-531 125,-452 0,-452"/>
<text text-anchor="start" x="8" y="-519" font-family="Helvetica,sans-Serif" font-size="10.00">ComSquare::APU::DSP</text>
<text text-anchor="middle" x="62.5" y="-508" font-family="Helvetica,sans-Serif" font-size="10.00">::Timer</text>
<polyline fill="none" stroke="black" points="0,-501 125,-501 "/>
<text text-anchor="start" x="8" y="-489" font-family="Helvetica,sans-Serif" font-size="10.00">+ counter</text>
<text text-anchor="start" x="8" y="-478" font-family="Helvetica,sans-Serif" font-size="10.00">+ sample</text>
<polyline fill="none" stroke="black" points="0,-471 125,-471 "/>
<text text-anchor="middle" x="62.5" y="-459" font-family="Helvetica,sans-Serif" font-size="10.00"> </text>
</a>
</g>
</g>
<!-- Node2&#45;&gt;Node1 -->
<g id="edge1" class="edge">
<title>Node2&#45;&gt;Node1</title>
<path fill="none" stroke="#404040" d="M81.52,-451.77C94.06,-428.98 112.09,-400.67 133.5,-380 213.8,-302.5 327.47,-241.18 405.04,-204.72"/>
<polygon fill="none" stroke="#404040" points="405.34,-204.58 409.09,-198.42 416.22,-199.52 412.47,-205.68 405.34,-204.58"/>
<text text-anchor="middle" x="178" y="-354" font-family="Helvetica,sans-Serif" font-size="10.00"> &#45;_timer</text>
</g>
<!-- Node3 -->
<g id="node3" class="node">
<title>Node3</title>
<g id="a_node3"><a xlink:href="structComSquare_1_1APU_1_1DSP_1_1State.html" target="_top" xlink:title="Current state of the DSP.">
<polygon fill="white" stroke="black" points="143,-441 143,-542 268,-542 268,-441 143,-441"/>
<text text-anchor="start" x="151" y="-530" font-family="Helvetica,sans-Serif" font-size="10.00">ComSquare::APU::DSP</text>
<text text-anchor="middle" x="205.5" y="-519" font-family="Helvetica,sans-Serif" font-size="10.00">::State</text>
<polyline fill="none" stroke="black" points="143,-512 268,-512 "/>
<text text-anchor="start" x="151" y="-500" font-family="Helvetica,sans-Serif" font-size="10.00">+ voice</text>
<text text-anchor="start" x="151" y="-489" font-family="Helvetica,sans-Serif" font-size="10.00">+ buffer</text>
<text text-anchor="start" x="151" y="-478" font-family="Helvetica,sans-Serif" font-size="10.00">+ bufferSize</text>
<text text-anchor="start" x="151" y="-467" font-family="Helvetica,sans-Serif" font-size="10.00">+ bufferOffset</text>
<polyline fill="none" stroke="black" points="143,-460 268,-460 "/>
<text text-anchor="start" x="151" y="-448" font-family="Helvetica,sans-Serif" font-size="10.00">+ State()</text>
</a>
</g>
</g>
<!-- Node3&#45;&gt;Node1 -->
<g id="edge2" class="edge">
<title>Node3&#45;&gt;Node1</title>
<path fill="none" stroke="#404040" d="M234.21,-440.76C246.35,-421.16 261.21,-398.87 276.5,-380 316.14,-331.1 365.83,-281.37 407.46,-242.33"/>
<polygon fill="none" stroke="#404040" points="407.71,-242.09 409.37,-235.08 416.48,-233.91 414.82,-240.93 407.71,-242.09"/>
<text text-anchor="middle" x="317" y="-354" font-family="Helvetica,sans-Serif" font-size="10.00"> &#45;_state</text>
</g>
<!-- Node4 -->
<g id="node4" class="node">
<title>Node4</title>
<g id="a_node4"><a xlink:href="structComSquare_1_1APU_1_1DSP_1_1Master.html" target="_top" xlink:title=" ">
<polygon fill="white" stroke="black" points="286,-435.5 286,-547.5 411,-547.5 411,-435.5 286,-435.5"/>
<text text-anchor="start" x="294" y="-535.5" font-family="Helvetica,sans-Serif" font-size="10.00">ComSquare::APU::DSP</text>
<text text-anchor="middle" x="348.5" y="-524.5" font-family="Helvetica,sans-Serif" font-size="10.00">::Master</text>
<polyline fill="none" stroke="black" points="286,-517.5 411,-517.5 "/>
<text text-anchor="start" x="294" y="-505.5" font-family="Helvetica,sans-Serif" font-size="10.00">+ volume</text>
<text text-anchor="start" x="294" y="-494.5" font-family="Helvetica,sans-Serif" font-size="10.00">+ mute</text>
<text text-anchor="start" x="294" y="-483.5" font-family="Helvetica,sans-Serif" font-size="10.00">+ reset</text>
<text text-anchor="start" x="294" y="-472.5" font-family="Helvetica,sans-Serif" font-size="10.00">+ output</text>
<text text-anchor="start" x="294" y="-461.5" font-family="Helvetica,sans-Serif" font-size="10.00">+ unused</text>
<polyline fill="none" stroke="black" points="286,-454.5 411,-454.5 "/>
<text text-anchor="middle" x="348.5" y="-442.5" font-family="Helvetica,sans-Serif" font-size="10.00"> </text>
</a>
</g>
</g>
<!-- Node4&#45;&gt;Node1 -->
<g id="edge3" class="edge">
<title>Node4&#45;&gt;Node1</title>
<path fill="none" stroke="#404040" d="M372.92,-435.34C384.35,-409.52 398.67,-377.17 413.37,-343.97"/>
<polygon fill="none" stroke="#404040" points="413.51,-343.66 412.28,-336.56 418.37,-332.69 419.59,-339.8 413.51,-343.66"/>
<text text-anchor="middle" x="431" y="-354" font-family="Helvetica,sans-Serif" font-size="10.00"> &#45;_master</text>
</g>
<!-- Node5 -->
<g id="node5" class="node">
<title>Node5</title>
<g id="a_node5"><a xlink:href="structComSquare_1_1APU_1_1DSP_1_1Echo.html" target="_top" xlink:title=" ">
<polygon fill="white" stroke="black" points="429,-380.5 429,-602.5 554,-602.5 554,-380.5 429,-380.5"/>
<text text-anchor="start" x="437" y="-590.5" font-family="Helvetica,sans-Serif" font-size="10.00">ComSquare::APU::DSP</text>
<text text-anchor="middle" x="491.5" y="-579.5" font-family="Helvetica,sans-Serif" font-size="10.00">::Echo</text>
<polyline fill="none" stroke="black" points="429,-572.5 554,-572.5 "/>
<text text-anchor="start" x="437" y="-560.5" font-family="Helvetica,sans-Serif" font-size="10.00">+ volume</text>
<text text-anchor="start" x="437" y="-549.5" font-family="Helvetica,sans-Serif" font-size="10.00">+ feedback</text>
<text text-anchor="start" x="437" y="-538.5" font-family="Helvetica,sans-Serif" font-size="10.00">+ FIR</text>
<text text-anchor="start" x="437" y="-527.5" font-family="Helvetica,sans-Serif" font-size="10.00">+ data</text>
<text text-anchor="start" x="437" y="-516.5" font-family="Helvetica,sans-Serif" font-size="10.00">+ offset</text>
<text text-anchor="start" x="437" y="-505.5" font-family="Helvetica,sans-Serif" font-size="10.00">+ length</text>
<text text-anchor="start" x="437" y="-494.5" font-family="Helvetica,sans-Serif" font-size="10.00">+ delay</text>
<text text-anchor="start" x="437" y="-483.5" font-family="Helvetica,sans-Serif" font-size="10.00">+ enabled</text>
<text text-anchor="start" x="437" y="-472.5" font-family="Helvetica,sans-Serif" font-size="10.00">+ toggle</text>
<text text-anchor="start" x="437" y="-461.5" font-family="Helvetica,sans-Serif" font-size="10.00">+ history</text>
<text text-anchor="start" x="437" y="-450.5" font-family="Helvetica,sans-Serif" font-size="10.00">+ historyOffset</text>
<text text-anchor="start" x="437" y="-439.5" font-family="Helvetica,sans-Serif" font-size="10.00">+ address</text>
<text text-anchor="start" x="437" y="-428.5" font-family="Helvetica,sans-Serif" font-size="10.00">+ value</text>
<text text-anchor="start" x="437" y="-417.5" font-family="Helvetica,sans-Serif" font-size="10.00">+ input</text>
<text text-anchor="start" x="437" y="-406.5" font-family="Helvetica,sans-Serif" font-size="10.00">+ output</text>
<polyline fill="none" stroke="black" points="429,-399.5 554,-399.5 "/>
<text text-anchor="middle" x="491.5" y="-387.5" font-family="Helvetica,sans-Serif" font-size="10.00"> </text>
</a>
</g>
</g>
<!-- Node5&#45;&gt;Node1 -->
<g id="edge4" class="edge">
<title>Node5&#45;&gt;Node1</title>
<path fill="none" stroke="#404040" d="M491.5,-380.25C491.5,-368.73 491.5,-356.83 491.5,-344.81"/>
<polygon fill="none" stroke="#404040" points="491.5,-344.76 487.5,-338.76 491.5,-332.76 495.5,-338.76 491.5,-344.76"/>
<text text-anchor="middle" x="509.5" y="-354" font-family="Helvetica,sans-Serif" font-size="10.00"> &#45;_echo</text>
</g>
<!-- Node6 -->
<g id="node6" class="node">
<title>Node6</title>
<g id="a_node6"><a xlink:href="structComSquare_1_1APU_1_1DSP_1_1BRR.html" target="_top" xlink:title=" ">
<polygon fill="white" stroke="black" points="572,-430 572,-553 723,-553 723,-430 572,-430"/>
<text text-anchor="middle" x="647.5" y="-541" font-family="Helvetica,sans-Serif" font-size="10.00">ComSquare::APU::DSP::BRR</text>
<polyline fill="none" stroke="black" points="572,-534 723,-534 "/>
<text text-anchor="start" x="580" y="-522" font-family="Helvetica,sans-Serif" font-size="10.00">+ offset</text>
<text text-anchor="start" x="580" y="-511" font-family="Helvetica,sans-Serif" font-size="10.00">+ offsetAddr</text>
<text text-anchor="start" x="580" y="-500" font-family="Helvetica,sans-Serif" font-size="10.00">+ address</text>
<text text-anchor="start" x="580" y="-489" font-family="Helvetica,sans-Serif" font-size="10.00">+ nextAddress</text>
<text text-anchor="start" x="580" y="-478" font-family="Helvetica,sans-Serif" font-size="10.00">+ value</text>
<text text-anchor="start" x="580" y="-467" font-family="Helvetica,sans-Serif" font-size="10.00">+ header</text>
<text text-anchor="start" x="580" y="-456" font-family="Helvetica,sans-Serif" font-size="10.00">+ source</text>
<polyline fill="none" stroke="black" points="572,-449 723,-449 "/>
<text text-anchor="middle" x="647.5" y="-437" font-family="Helvetica,sans-Serif" font-size="10.00"> </text>
</a>
</g>
</g>
<!-- Node6&#45;&gt;Node1 -->
<g id="edge5" class="edge">
<title>Node6&#45;&gt;Node1</title>
<path fill="none" stroke="#404040" d="M618.16,-429.75C604.9,-402.29 588.51,-368.37 571.98,-334.14"/>
<polygon fill="none" stroke="#404040" points="571.83,-333.82 565.62,-330.16 566.61,-323.02 572.82,-326.68 571.83,-333.82"/>
<text text-anchor="middle" x="596.5" y="-354" font-family="Helvetica,sans-Serif" font-size="10.00"> &#45;_brr</text>
</g>
<!-- Node7 -->
<g id="node7" class="node">
<title>Node7</title>
<g id="a_node7"><a xlink:href="structComSquare_1_1APU_1_1DSP_1_1Latch.html" target="_top" xlink:title=" ">
<polygon fill="white" stroke="black" points="741,-435.5 741,-547.5 866,-547.5 866,-435.5 741,-435.5"/>
<text text-anchor="start" x="749" y="-535.5" font-family="Helvetica,sans-Serif" font-size="10.00">ComSquare::APU::DSP</text>
<text text-anchor="middle" x="803.5" y="-524.5" font-family="Helvetica,sans-Serif" font-size="10.00">::Latch</text>
<polyline fill="none" stroke="black" points="741,-517.5 866,-517.5 "/>
<text text-anchor="start" x="749" y="-505.5" font-family="Helvetica,sans-Serif" font-size="10.00">+ adsr1</text>
<text text-anchor="start" x="749" y="-494.5" font-family="Helvetica,sans-Serif" font-size="10.00">+ envx</text>
<text text-anchor="start" x="749" y="-483.5" font-family="Helvetica,sans-Serif" font-size="10.00">+ outx</text>
<text text-anchor="start" x="749" y="-472.5" font-family="Helvetica,sans-Serif" font-size="10.00">+ pitch</text>
<text text-anchor="start" x="749" y="-461.5" font-family="Helvetica,sans-Serif" font-size="10.00">+ output</text>
<polyline fill="none" stroke="black" points="741,-454.5 866,-454.5 "/>
<text text-anchor="middle" x="803.5" y="-442.5" font-family="Helvetica,sans-Serif" font-size="10.00"> </text>
</a>
</g>
</g>
<!-- Node7&#45;&gt;Node1 -->
<g id="edge6" class="edge">
<title>Node7&#45;&gt;Node1</title>
<path fill="none" stroke="#404040" d="M772.21,-435.27C760.74,-416.91 746.99,-396.87 732.5,-380 685.73,-325.55 625.1,-272.15 576.34,-232.5"/>
<polygon fill="none" stroke="#404040" points="576.09,-232.3 568.91,-231.64 566.76,-224.76 573.94,-225.42 576.09,-232.3"/>
<text text-anchor="middle" x="733" y="-354" font-family="Helvetica,sans-Serif" font-size="10.00"> &#45;_latch</text>
</g>
<!-- Node8 -->
<g id="node8" class="node">
<title>Node8</title>
<g id="a_node8"><a xlink:href="structComSquare_1_1APU_1_1DSP_1_1Noise.html" target="_top" xlink:title=" ">
<polygon fill="white" stroke="black" points="884,-452 884,-531 1009,-531 1009,-452 884,-452"/>
<text text-anchor="start" x="892" y="-519" font-family="Helvetica,sans-Serif" font-size="10.00">ComSquare::APU::DSP</text>
<text text-anchor="middle" x="946.5" y="-508" font-family="Helvetica,sans-Serif" font-size="10.00">::Noise</text>
<polyline fill="none" stroke="black" points="884,-501 1009,-501 "/>
<text text-anchor="start" x="892" y="-489" font-family="Helvetica,sans-Serif" font-size="10.00">+ clock</text>
<text text-anchor="start" x="892" y="-478" font-family="Helvetica,sans-Serif" font-size="10.00">+ lfsr</text>
<polyline fill="none" stroke="black" points="884,-471 1009,-471 "/>
<text text-anchor="middle" x="946.5" y="-459" font-family="Helvetica,sans-Serif" font-size="10.00"> </text>
</a>
</g>
</g>
<!-- Node8&#45;&gt;Node1 -->
<g id="edge7" class="edge">
<title>Node8&#45;&gt;Node1</title>
<path fill="none" stroke="#404040" d="M927.84,-451.8C915.39,-428.87 897.3,-400.42 875.5,-380 787.37,-297.47 661.21,-235.69 577.87,-200.59"/>
<polygon fill="none" stroke="#404040" points="577.73,-200.54 570.65,-201.92 566.65,-195.92 573.73,-194.54 577.73,-200.54"/>
<text text-anchor="middle" x="868" y="-354" font-family="Helvetica,sans-Serif" font-size="10.00"> &#45;_noise</text>
</g>
</g>
</svg>
