<?xml version="1.0" encoding="UTF-8" standalone="no"?>
<!DOCTYPE svg PUBLIC "-//W3C//DTD SVG 1.1//EN"
 "http://www.w3.org/Graphics/SVG/1.1/DTD/svg11.dtd">
<!-- Generated by graphviz version 2.43.0 (0)
 -->
<!-- Title: ComSquare::Debugger::CGramDebug Pages: 1 -->
<svg width="661pt" height="1307pt"
 viewBox="0.00 0.00 661.00 1307.00" xmlns="http://www.w3.org/2000/svg" xmlns:xlink="http://www.w3.org/1999/xlink">
<g id="graph0" class="graph" transform="scale(1 1) rotate(0) translate(4 1303)">
<title>ComSquare::Debugger::CGramDebug</title>
<polygon fill="white" stroke="transparent" points="-4,4 -4,-1303 657,-1303 657,4 -4,4"/>
<!-- Node1 -->
<g id="node1" class="node">
<title>Node1</title>
<g id="a_node1"><a xlink:title="window that allow the user to view all data going through the memory bus.">
<polygon fill="#bfbfbf" stroke="black" points="161,-182.5 161,-349.5 287,-349.5 287,-182.5 161,-182.5"/>
<text text-anchor="start" x="169" y="-337.5" font-family="Helvetica,sans-Serif" font-size="10.00">ComSquare::Debugger</text>
<text text-anchor="middle" x="224" y="-326.5" font-family="Helvetica,sans-Serif" font-size="10.00">::CGramDebug</text>
<polyline fill="none" stroke="black" points="161,-319.5 287,-319.5 "/>
<text text-anchor="start" x="169" y="-307.5" font-family="Helvetica,sans-Serif" font-size="10.00">&#45; _ui</text>
<polyline fill="none" stroke="black" points="161,-300.5 287,-300.5 "/>
<text text-anchor="start" x="169" y="-288.5" font-family="Helvetica,sans-Serif" font-size="10.00">+ disableViewer()</text>
<text text-anchor="start" x="169" y="-277.5" font-family="Helvetica,sans-Serif" font-size="10.00">+ CGramDebug()</text>
<text text-anchor="start" x="169" y="-266.5" font-family="Helvetica,sans-Serif" font-size="10.00">+ CGramDebug()</text>
<text text-anchor="start" x="169" y="-255.5" font-family="Helvetica,sans-Serif" font-size="10.00">+ operator=()</text>
<text text-anchor="start" x="169" y="-244.5" font-family="Helvetica,sans-Serif" font-size="10.00">+ ~CGramDebug()</text>
<text text-anchor="start" x="169" y="-233.5" font-family="Helvetica,sans-Serif" font-size="10.00">+ read()</text>
<text text-anchor="start" x="169" y="-222.5" font-family="Helvetica,sans-Serif" font-size="10.00">+ focus()</text>
<text text-anchor="start" x="169" y="-211.5" font-family="Helvetica,sans-Serif" font-size="10.00">+ isDebugger()</text>
<text text-anchor="start" x="169" y="-200.5" font-family="Helvetica,sans-Serif" font-size="10.00">+ updateInfoTile()</text>
<text text-anchor="start" x="169" y="-189.5" font-family="Helvetica,sans-Serif" font-size="10.00">+ tileClicked()</text>
</a>
</g>
</g>
<!-- Node4 -->
<g id="node4" class="node">
<title>Node4</title>
<g id="a_node4"><a xlink:href="classComSquare_1_1Debugger_1_1ClosableWindow.html" target="_top" xlink:title=" ">
<polygon fill="white" stroke="black" points="66.5,-0.5 66.5,-123.5 237.5,-123.5 237.5,-0.5 66.5,-0.5"/>
<text text-anchor="start" x="74.5" y="-111.5" font-family="Helvetica,sans-Serif" font-size="10.00">ComSquare::Debugger</text>
<text text-anchor="start" x="74.5" y="-100.5" font-family="Helvetica,sans-Serif" font-size="10.00">::ClosableWindow&lt; ComSquare</text>
<text text-anchor="middle" x="152" y="-89.5" font-family="Helvetica,sans-Serif" font-size="10.00">::Debugger::CGramDebug &gt;</text>
<polyline fill="none" stroke="black" points="66.5,-82.5 237.5,-82.5 "/>
<text text-anchor="middle" x="152" y="-70.5" font-family="Helvetica,sans-Serif" font-size="10.00"> </text>
<polyline fill="none" stroke="black" points="66.5,-63.5 237.5,-63.5 "/>
<text text-anchor="start" x="74.5" y="-51.5" font-family="Helvetica,sans-Serif" font-size="10.00">+ ClosableWindow()</text>
<text text-anchor="start" x="74.5" y="-40.5" font-family="Helvetica,sans-Serif" font-size="10.00">+ ClosableWindow()</text>
<text text-anchor="start" x="74.5" y="-29.5" font-family="Helvetica,sans-Serif" font-size="10.00">+ operator=()</text>
<text text-anchor="start" x="74.5" y="-18.5" font-family="Helvetica,sans-Serif" font-size="10.00">+ ~ClosableWindow()</text>
<text text-anchor="start" x="74.5" y="-7.5" font-family="Helvetica,sans-Serif" font-size="10.00"># closeEvent()</text>
</a>
</g>
</g>
<!-- Node1&#45;&gt;Node4 -->
<g id="edge5" class="edge">
<title>Node1&#45;&gt;Node4</title>
<path fill="none" stroke="#404040" d="M160.93,-190.4C156.12,-181.89 151.98,-173.02 149,-164 146.04,-155.04 144.45,-145.39 143.8,-135.73"/>
<polygon fill="none" stroke="#404040" points="143.79,-135.53 139.61,-129.66 143.43,-123.54 147.61,-129.42 143.79,-135.53"/>
<text text-anchor="middle" x="173.5" y="-156" font-family="Helvetica,sans-Serif" font-size="10.00"> &#45;_obj</text>
<text text-anchor="middle" x="173.5" y="-145" font-family="Helvetica,sans-Serif" font-size="10.00">&#45;_onClose</text>
</g>
<!-- Node2 -->
<g id="node2" class="node">
<title>Node2</title>
<g id="a_node2"><a xlink:title=" ">
<polygon fill="white" stroke="#bfbfbf" points="0,-485.5 0,-542.5 56,-542.5 56,-485.5 0,-485.5"/>
<text text-anchor="middle" x="28" y="-530.5" font-family="Helvetica,sans-Serif" font-size="10.00">QObject</text>
<polyline fill="none" stroke="#bfbfbf" points="0,-523.5 56,-523.5 "/>
<text text-anchor="middle" x="28" y="-511.5" font-family="Helvetica,sans-Serif" font-size="10.00"> </text>
<polyline fill="none" stroke="#bfbfbf" points="0,-504.5 56,-504.5 "/>
<text text-anchor="middle" x="28" y="-492.5" font-family="Helvetica,sans-Serif" font-size="10.00"> </text>
</a>
</g>
</g>
<!-- Node2&#45;&gt;Node1 -->
<g id="edge1" class="edge">
<title>Node2&#45;&gt;Node1</title>
<path fill="none" stroke="midnightblue" d="M32.66,-475.32C37.34,-450.76 46.64,-419.26 65,-397 92.72,-363.4 116.99,-377.21 151,-350 154.3,-347.36 157.57,-344.57 160.79,-341.66"/>
<polygon fill="none" stroke="midnightblue" points="29.17,-474.92 30.92,-485.37 36.07,-476.11 29.17,-474.92"/>
</g>
<!-- Node3 -->
<g id="node3" class="node">
<title>Node3</title>
<g id="a_node3"><a xlink:href="classComSquare_1_1SNES.html" target="_top" xlink:title="Container of all the components of the SNES.">
<polygon fill="white" stroke="black" points="74.5,-397.5 74.5,-630.5 261.5,-630.5 261.5,-397.5 74.5,-397.5"/>
<text text-anchor="middle" x="168" y="-618.5" font-family="Helvetica,sans-Serif" font-size="10.00">ComSquare::SNES</text>
<polyline fill="none" stroke="black" points="74.5,-611.5 261.5,-611.5 "/>
<text text-anchor="start" x="82.5" y="-599.5" font-family="Helvetica,sans-Serif" font-size="10.00">+ bus</text>
<text text-anchor="start" x="82.5" y="-588.5" font-family="Helvetica,sans-Serif" font-size="10.00">+ cartridge</text>
<text text-anchor="start" x="82.5" y="-577.5" font-family="Helvetica,sans-Serif" font-size="10.00">+ wram</text>
<text text-anchor="start" x="82.5" y="-566.5" font-family="Helvetica,sans-Serif" font-size="10.00">+ sram</text>
<text text-anchor="start" x="82.5" y="-555.5" font-family="Helvetica,sans-Serif" font-size="10.00">+ cpu</text>
<text text-anchor="start" x="82.5" y="-544.5" font-family="Helvetica,sans-Serif" font-size="10.00">+ ppu</text>
<text text-anchor="start" x="82.5" y="-533.5" font-family="Helvetica,sans-Serif" font-size="10.00">+ apu</text>
<polyline fill="none" stroke="black" points="74.5,-526.5 261.5,-526.5 "/>
<text text-anchor="start" x="82.5" y="-514.5" font-family="Helvetica,sans-Serif" font-size="10.00">+ update()</text>
<text text-anchor="start" x="82.5" y="-503.5" font-family="Helvetica,sans-Serif" font-size="10.00">+ disableCPUDebugging()</text>
<text text-anchor="start" x="82.5" y="-492.5" font-family="Helvetica,sans-Serif" font-size="10.00">+ enableCPUDebugging()</text>
<text text-anchor="start" x="82.5" y="-481.5" font-family="Helvetica,sans-Serif" font-size="10.00">+ enableCPUDebuggingWithError()</text>
<text text-anchor="start" x="82.5" y="-470.5" font-family="Helvetica,sans-Serif" font-size="10.00">+ disableRamViewer()</text>
<text text-anchor="start" x="82.5" y="-459.5" font-family="Helvetica,sans-Serif" font-size="10.00">+ enableRamViewer()</text>
<text text-anchor="start" x="82.5" y="-448.5" font-family="Helvetica,sans-Serif" font-size="10.00">+ disableHeaderViewer()</text>
<text text-anchor="start" x="82.5" y="-437.5" font-family="Helvetica,sans-Serif" font-size="10.00">+ enableHeaderViewer()</text>
<text text-anchor="start" x="82.5" y="-426.5" font-family="Helvetica,sans-Serif" font-size="10.00">+ disableAPUDebugging()</text>
<text text-anchor="start" x="82.5" y="-415.5" font-family="Helvetica,sans-Serif" font-size="10.00">+ enableAPUDebugging()</text>
<text text-anchor="start" x="82.5" y="-404.5" font-family="Helvetica,sans-Serif" font-size="10.00">and 10 more...</text>
</a>
</g>
</g>
<!-- Node3&#45;&gt;Node1 -->
<g id="edge2" class="edge">
<title>Node3&#45;&gt;Node1</title>
<path fill="none" stroke="#404040" d="M194.36,-397.2C197.08,-385.27 199.81,-373.25 202.47,-361.59"/>
<polygon fill="none" stroke="#404040" points="202.54,-361.29 199.97,-354.55 205.2,-349.59 207.77,-356.32 202.54,-361.29"/>
<text text-anchor="middle" x="217.5" y="-371" font-family="Helvetica,sans-Serif" font-size="10.00"> &#45;_snes</text>
</g>
<!-- Node4&#45;&gt;Node1 -->
<g id="edge3" class="edge">
<title>Node4&#45;&gt;Node1</title>
<path fill="none" stroke="#404040" d="M193.7,-123.89C196.81,-129.86 199.65,-135.95 202,-142 205.52,-151.06 208.48,-160.71 210.97,-170.47"/>
<polygon fill="none" stroke="#404040" points="211.03,-170.72 216.3,-175.64 213.78,-182.4 208.51,-177.48 211.03,-170.72"/>
<text text-anchor="middle" x="234" y="-150.5" font-family="Helvetica,sans-Serif" font-size="10.00"> &#45;_window</text>
</g>
<!-- Node5 -->
<g id="node5" class="node">
<title>Node5</title>
<g id="a_node5"><a xlink:title=" ">
<polygon fill="white" stroke="#bfbfbf" points="55.5,-237.5 55.5,-294.5 142.5,-294.5 142.5,-237.5 55.5,-237.5"/>
<text text-anchor="middle" x="99" y="-282.5" font-family="Helvetica,sans-Serif" font-size="10.00">QMainWindow</text>
<polyline fill="none" stroke="#bfbfbf" points="55.5,-275.5 142.5,-275.5 "/>
<text text-anchor="middle" x="99" y="-263.5" font-family="Helvetica,sans-Serif" font-size="10.00"> </text>
<polyline fill="none" stroke="#bfbfbf" points="55.5,-256.5 142.5,-256.5 "/>
<text text-anchor="middle" x="99" y="-244.5" font-family="Helvetica,sans-Serif" font-size="10.00"> </text>
</a>
</g>
</g>
<!-- Node5&#45;&gt;Node4 -->
<g id="edge4" class="edge">
<title>Node5&#45;&gt;Node4</title>
<path fill="none" stroke="midnightblue" d="M108.27,-227.19C114.31,-202.83 122.44,-170.5 130,-142 131.57,-136.08 133.23,-129.92 134.91,-123.77"/>
<polygon fill="none" stroke="midnightblue" points="104.82,-226.56 105.82,-237.1 111.62,-228.24 104.82,-226.56"/>
</g>
<!-- Node6 -->
<g id="node6" class="node">
<title>Node6</title>
<g id="a_node6"><a xlink:href="classCGramModel.html" target="_top" xlink:title="The qt model that bind the logs to the view.">
<polygon fill="white" stroke="black" points="279.5,-436 279.5,-592 386.5,-592 386.5,-436 279.5,-436"/>
<text text-anchor="middle" x="333" y="-580" font-family="Helvetica,sans-Serif" font-size="10.00">CGramModel</text>
<polyline fill="none" stroke="black" points="279.5,-573 386.5,-573 "/>
<text text-anchor="start" x="287.5" y="-561" font-family="Helvetica,sans-Serif" font-size="10.00">+ column</text>
<text text-anchor="start" x="287.5" y="-550" font-family="Helvetica,sans-Serif" font-size="10.00">+ rows</text>
<text text-anchor="start" x="287.5" y="-539" font-family="Helvetica,sans-Serif" font-size="10.00">+ x</text>
<text text-anchor="start" x="287.5" y="-528" font-family="Helvetica,sans-Serif" font-size="10.00">+ y</text>
<polyline fill="none" stroke="black" points="279.5,-521 386.5,-521 "/>
<text text-anchor="start" x="287.5" y="-509" font-family="Helvetica,sans-Serif" font-size="10.00">+ CGramModel()</text>
<text text-anchor="start" x="287.5" y="-498" font-family="Helvetica,sans-Serif" font-size="10.00">+ CGramModel()</text>
<text text-anchor="start" x="287.5" y="-487" font-family="Helvetica,sans-Serif" font-size="10.00">+ operator=()</text>
<text text-anchor="start" x="287.5" y="-476" font-family="Helvetica,sans-Serif" font-size="10.00">+ ~CGramModel()</text>
<text text-anchor="start" x="287.5" y="-465" font-family="Helvetica,sans-Serif" font-size="10.00">+ rowCount()</text>
<text text-anchor="start" x="287.5" y="-454" font-family="Helvetica,sans-Serif" font-size="10.00">+ columnCount()</text>
<text text-anchor="start" x="287.5" y="-443" font-family="Helvetica,sans-Serif" font-size="10.00">+ data()</text>
</a>
</g>
</g>
<!-- Node6&#45;&gt;Node1 -->
<g id="edge6" class="edge">
<title>Node6&#45;&gt;Node1</title>
<path fill="none" stroke="#404040" d="M298.81,-435.84C288.31,-412.13 276.63,-385.78 265.68,-361.07"/>
<polygon fill="none" stroke="#404040" points="265.57,-360.82 259.48,-356.96 260.71,-349.85 266.8,-353.72 265.57,-360.82"/>
<text text-anchor="middle" x="293.5" y="-371" font-family="Helvetica,sans-Serif" font-size="10.00"> &#45;_model</text>
</g>
<!-- Node7 -->
<g id="node7" class="node">
<title>Node7</title>
<g id="a_node7"><a xlink:title=" ">
<polygon fill="white" stroke="#bfbfbf" points="223,-744.5 223,-801.5 343,-801.5 343,-744.5 223,-744.5"/>
<text text-anchor="middle" x="283" y="-789.5" font-family="Helvetica,sans-Serif" font-size="10.00">QAbstractTableModel</text>
<polyline fill="none" stroke="#bfbfbf" points="223,-782.5 343,-782.5 "/>
<text text-anchor="middle" x="283" y="-770.5" font-family="Helvetica,sans-Serif" font-size="10.00"> </text>
<polyline fill="none" stroke="#bfbfbf" points="223,-763.5 343,-763.5 "/>
<text text-anchor="middle" x="283" y="-751.5" font-family="Helvetica,sans-Serif" font-size="10.00"> </text>
</a>
</g>
</g>
<!-- Node7&#45;&gt;Node6 -->
<g id="edge7" class="edge">
<title>Node7&#45;&gt;Node6</title>
<path fill="none" stroke="midnightblue" d="M290.28,-734.59C297.51,-697.4 308.82,-639.27 317.99,-592.16"/>
<polygon fill="none" stroke="midnightblue" points="286.83,-734.01 288.35,-744.5 293.7,-735.35 286.83,-734.01"/>
</g>
<!-- Node8 -->
<g id="node8" class="node">
<title>Node8</title>
<g id="a_node8"><a xlink:href="classComSquare_1_1PPU_1_1PPU.html" target="_top" xlink:title="The class containing all the registers of the PPU.">
<polygon fill="white" stroke="black" points="361,-678.5 361,-867.5 485,-867.5 485,-678.5 361,-678.5"/>
<text text-anchor="middle" x="423" y="-855.5" font-family="Helvetica,sans-Serif" font-size="10.00">ComSquare::PPU::PPU</text>
<polyline fill="none" stroke="black" points="361,-848.5 485,-848.5 "/>
<text text-anchor="start" x="369" y="-836.5" font-family="Helvetica,sans-Serif" font-size="10.00">+ vram</text>
<text text-anchor="start" x="369" y="-825.5" font-family="Helvetica,sans-Serif" font-size="10.00">+ oamram</text>
<text text-anchor="start" x="369" y="-814.5" font-family="Helvetica,sans-Serif" font-size="10.00">+ cgram</text>
<polyline fill="none" stroke="black" points="361,-807.5 485,-807.5 "/>
<text text-anchor="start" x="369" y="-795.5" font-family="Helvetica,sans-Serif" font-size="10.00">+ PPU()</text>
<text text-anchor="start" x="369" y="-784.5" font-family="Helvetica,sans-Serif" font-size="10.00">+ PPU()</text>
<text text-anchor="start" x="369" y="-773.5" font-family="Helvetica,sans-Serif" font-size="10.00">+ operator=()</text>
<text text-anchor="start" x="369" y="-762.5" font-family="Helvetica,sans-Serif" font-size="10.00">+ ~PPU()</text>
<text text-anchor="start" x="369" y="-751.5" font-family="Helvetica,sans-Serif" font-size="10.00">+ read()</text>
<text text-anchor="start" x="369" y="-740.5" font-family="Helvetica,sans-Serif" font-size="10.00">+ write()</text>
<text text-anchor="start" x="369" y="-729.5" font-family="Helvetica,sans-Serif" font-size="10.00">+ getName()</text>
<text text-anchor="start" x="369" y="-718.5" font-family="Helvetica,sans-Serif" font-size="10.00">+ getComponent()</text>
<text text-anchor="start" x="369" y="-707.5" font-family="Helvetica,sans-Serif" font-size="10.00">+ getSize()</text>
<text text-anchor="start" x="369" y="-696.5" font-family="Helvetica,sans-Serif" font-size="10.00">+ update()</text>
<text text-anchor="start" x="369" y="-685.5" font-family="Helvetica,sans-Serif" font-size="10.00">and 11 more...</text>
</a>
</g>
</g>
<!-- Node8&#45;&gt;Node1 -->
<g id="edge13" class="edge">
<title>Node8&#45;&gt;Node1</title>
<path fill="none" stroke="#404040" d="M436.48,-678.21C443.34,-598.53 442.06,-483.62 395,-397 373.29,-357.03 333.45,-325.64 297.69,-303.73"/>
<polygon fill="none" stroke="#404040" points="297.55,-303.65 290.35,-304.02 287.24,-297.52 294.44,-297.14 297.55,-303.65"/>
<text text-anchor="middle" x="455.5" y="-511.5" font-family="Helvetica,sans-Serif" font-size="10.00"> &#45;_ppu</text>
</g>
<!-- Node8&#45;&gt;Node6 -->
<g id="edge8" class="edge">
<title>Node8&#45;&gt;Node6</title>
<path fill="none" stroke="#404040" d="M384.75,-678.41C382.41,-672.2 380.14,-666.02 378,-660 371.57,-641.9 365.15,-622.36 359.26,-603.65"/>
<polygon fill="none" stroke="#404040" points="359.24,-603.6 353.64,-599.06 355.67,-592.14 361.27,-596.68 359.24,-603.6"/>
<text text-anchor="middle" x="393.5" y="-652" font-family="Helvetica,sans-Serif" font-size="10.00"> &#45;_ppu</text>
</g>
<!-- Node9 -->
<g id="node9" class="node">
<title>Node9</title>
<g id="a_node9"><a xlink:href="classComSquare_1_1Memory_1_1AMemory.html" target="_top" xlink:title="Abstract class representing a continuous block of memory.">
<polygon fill="white" stroke="black" points="212.5,-926.5 212.5,-1071.5 343.5,-1071.5 343.5,-926.5 212.5,-926.5"/>
<text text-anchor="start" x="220.5" y="-1059.5" font-family="Helvetica,sans-Serif" font-size="10.00">ComSquare::Memory::</text>
<text text-anchor="middle" x="278" y="-1048.5" font-family="Helvetica,sans-Serif" font-size="10.00">AMemory</text>
<polyline fill="none" stroke="black" points="212.5,-1041.5 343.5,-1041.5 "/>
<text text-anchor="start" x="220.5" y="-1029.5" font-family="Helvetica,sans-Serif" font-size="10.00"># _start</text>
<text text-anchor="start" x="220.5" y="-1018.5" font-family="Helvetica,sans-Serif" font-size="10.00"># _end</text>
<polyline fill="none" stroke="black" points="212.5,-1011.5 343.5,-1011.5 "/>
<text text-anchor="start" x="220.5" y="-999.5" font-family="Helvetica,sans-Serif" font-size="10.00">+ getRelativeAddress()</text>
<text text-anchor="start" x="220.5" y="-988.5" font-family="Helvetica,sans-Serif" font-size="10.00">+ setMemoryRegion()</text>
<text text-anchor="start" x="220.5" y="-977.5" font-family="Helvetica,sans-Serif" font-size="10.00">+ hasMemoryAt()</text>
<text text-anchor="start" x="220.5" y="-966.5" font-family="Helvetica,sans-Serif" font-size="10.00">+ isMirror()</text>
<text text-anchor="start" x="220.5" y="-955.5" font-family="Helvetica,sans-Serif" font-size="10.00">+ getValueName()</text>
<text text-anchor="start" x="220.5" y="-944.5" font-family="Helvetica,sans-Serif" font-size="10.00">+ getMirrored()</text>
<text text-anchor="start" x="220.5" y="-933.5" font-family="Helvetica,sans-Serif" font-size="10.00">+ ~AMemory()</text>
</a>
</g>
</g>
<!-- Node9&#45;&gt;Node8 -->
<g id="edge9" class="edge">
<title>Node9&#45;&gt;Node8</title>
<path fill="none" stroke="midnightblue" d="M330.18,-917.39C340.57,-901.33 351.57,-884.35 362.22,-867.89"/>
<polygon fill="none" stroke="midnightblue" points="326.97,-915.9 324.48,-926.2 332.85,-919.71 326.97,-915.9"/>
</g>
<!-- Node10 -->
<g id="node10" class="node">
<title>Node10</title>
<g id="a_node10"><a xlink:href="classComSquare_1_1Memory_1_1IMemory.html" target="_top" xlink:title="Common interface implemented by all components mapping memory.">
<polygon fill="white" stroke="black" points="212.5,-1120.5 212.5,-1298.5 343.5,-1298.5 343.5,-1120.5 212.5,-1120.5"/>
<text text-anchor="start" x="220.5" y="-1286.5" font-family="Helvetica,sans-Serif" font-size="10.00">ComSquare::Memory::</text>
<text text-anchor="middle" x="278" y="-1275.5" font-family="Helvetica,sans-Serif" font-size="10.00">IMemory</text>
<polyline fill="none" stroke="black" points="212.5,-1268.5 343.5,-1268.5 "/>
<text text-anchor="middle" x="278" y="-1256.5" font-family="Helvetica,sans-Serif" font-size="10.00"> </text>
<polyline fill="none" stroke="black" points="212.5,-1249.5 343.5,-1249.5 "/>
<text text-anchor="start" x="220.5" y="-1237.5" font-family="Helvetica,sans-Serif" font-size="10.00">+ read()</text>
<text text-anchor="start" x="220.5" y="-1226.5" font-family="Helvetica,sans-Serif" font-size="10.00">+ write()</text>
<text text-anchor="start" x="220.5" y="-1215.5" font-family="Helvetica,sans-Serif" font-size="10.00">+ hasMemoryAt()</text>
<text text-anchor="start" x="220.5" y="-1204.5" font-family="Helvetica,sans-Serif" font-size="10.00">+ getRelativeAddress()</text>
<text text-anchor="start" x="220.5" y="-1193.5" font-family="Helvetica,sans-Serif" font-size="10.00">+ getSize()</text>
<text text-anchor="start" x="220.5" y="-1182.5" font-family="Helvetica,sans-Serif" font-size="10.00">+ isMirror()</text>
<text text-anchor="start" x="220.5" y="-1171.5" font-family="Helvetica,sans-Serif" font-size="10.00">+ getName()</text>
<text text-anchor="start" x="220.5" y="-1160.5" font-family="Helvetica,sans-Serif" font-size="10.00">+ getComponent()</text>
<text text-anchor="start" x="220.5" y="-1149.5" font-family="Helvetica,sans-Serif" font-size="10.00">+ getValueName()</text>
<text text-anchor="start" x="220.5" y="-1138.5" font-family="Helvetica,sans-Serif" font-size="10.00">+ getMirrored()</text>
<text text-anchor="start" x="220.5" y="-1127.5" font-family="Helvetica,sans-Serif" font-size="10.00">+ ~IMemory()</text>
</a>
</g>
</g>
<!-- Node10&#45;&gt;Node9 -->
<g id="edge10" class="edge">
<title>Node10&#45;&gt;Node9</title>
<path fill="none" stroke="midnightblue" d="M278,-1110.05C278,-1097.13 278,-1084.09 278,-1071.72"/>
<polygon fill="none" stroke="midnightblue" points="274.5,-1110.38 278,-1120.38 281.5,-1110.38 274.5,-1110.38"/>
</g>
<!-- Node11 -->
<g id="node11" class="node">
<title>Node11</title>
<g id="a_node11"><a xlink:href="classComSquare_1_1Renderer_1_1IRenderer.html" target="_top" xlink:title=" ">
<polygon fill="white" stroke="black" points="361.5,-943 361.5,-1055 484.5,-1055 484.5,-943 361.5,-943"/>
<text text-anchor="start" x="369.5" y="-1043" font-family="Helvetica,sans-Serif" font-size="10.00">ComSquare::Renderer</text>
<text text-anchor="middle" x="423" y="-1032" font-family="Helvetica,sans-Serif" font-size="10.00">::IRenderer</text>
<polyline fill="none" stroke="black" points="361.5,-1025 484.5,-1025 "/>
<text text-anchor="middle" x="423" y="-1013" font-family="Helvetica,sans-Serif" font-size="10.00"> </text>
<polyline fill="none" stroke="black" points="361.5,-1006 484.5,-1006 "/>
<text text-anchor="start" x="369.5" y="-994" font-family="Helvetica,sans-Serif" font-size="10.00">+ setWindowName()</text>
<text text-anchor="start" x="369.5" y="-983" font-family="Helvetica,sans-Serif" font-size="10.00">+ drawScreen()</text>
<text text-anchor="start" x="369.5" y="-972" font-family="Helvetica,sans-Serif" font-size="10.00">+ putPixel()</text>
<text text-anchor="start" x="369.5" y="-961" font-family="Helvetica,sans-Serif" font-size="10.00">+ createWindow()</text>
<text text-anchor="start" x="369.5" y="-950" font-family="Helvetica,sans-Serif" font-size="10.00">+ playAudio()</text>
</a>
</g>
</g>
<!-- Node11&#45;&gt;Node8 -->
<g id="edge11" class="edge">
<title>Node11&#45;&gt;Node8</title>
<path fill="none" stroke="#404040" d="M423,-942.92C423,-923.79 423,-901.65 423,-879.82"/>
<polygon fill="none" stroke="#404040" points="423,-879.74 419,-873.74 423,-867.74 427,-873.74 423,-879.74"/>
<text text-anchor="middle" x="450" y="-889" font-family="Helvetica,sans-Serif" font-size="10.00"> &#45;_renderer</text>
</g>
<!-- Node12 -->
<g id="node12" class="node">
<title>Node12</title>
<g id="a_node12"><a xlink:href="structComSquare_1_1PPU_1_1Registers.html" target="_top" xlink:title=" ">
<polygon fill="white" stroke="black" points="503,-915.5 503,-1082.5 653,-1082.5 653,-915.5 503,-915.5"/>
<text text-anchor="middle" x="578" y="-1070.5" font-family="Helvetica,sans-Serif" font-size="10.00">ComSquare::PPU::Registers</text>
<polyline fill="none" stroke="black" points="503,-1063.5 653,-1063.5 "/>
<text text-anchor="start" x="511" y="-1051.5" font-family="Helvetica,sans-Serif" font-size="10.00">+ brightness</text>
<text text-anchor="start" x="511" y="-1040.5" font-family="Helvetica,sans-Serif" font-size="10.00">+ _</text>
<text text-anchor="start" x="511" y="-1029.5" font-family="Helvetica,sans-Serif" font-size="10.00">+ fblank</text>
<text text-anchor="start" x="511" y="-1018.5" font-family="Helvetica,sans-Serif" font-size="10.00">+ raw</text>
<text text-anchor="start" x="511" y="-1007.5" font-family="Helvetica,sans-Serif" font-size="10.00">+ _inidisp</text>
<text text-anchor="start" x="511" y="-996.5" font-family="Helvetica,sans-Serif" font-size="10.00">+ nameBaseSelect</text>
<text text-anchor="start" x="511" y="-985.5" font-family="Helvetica,sans-Serif" font-size="10.00">+ nameSelect</text>
<text text-anchor="start" x="511" y="-974.5" font-family="Helvetica,sans-Serif" font-size="10.00">+ objectSize</text>
<text text-anchor="start" x="511" y="-963.5" font-family="Helvetica,sans-Serif" font-size="10.00">+ _obsel</text>
<text text-anchor="start" x="511" y="-952.5" font-family="Helvetica,sans-Serif" font-size="10.00">+ oamAddress</text>
<text text-anchor="start" x="511" y="-941.5" font-family="Helvetica,sans-Serif" font-size="10.00">and 149 more...</text>
<polyline fill="none" stroke="black" points="503,-934.5 653,-934.5 "/>
<text text-anchor="middle" x="578" y="-922.5" font-family="Helvetica,sans-Serif" font-size="10.00"> </text>
</a>
</g>
</g>
<!-- Node12&#45;&gt;Node8 -->
<g id="edge12" class="edge">
<title>Node12&#45;&gt;Node8</title>
<path fill="none" stroke="#404040" d="M520.72,-915.23C511.43,-901.79 501.71,-887.75 492.16,-873.95"/>
<polygon fill="none" stroke="#404040" points="492.08,-873.83 485.38,-871.17 485.25,-863.96 491.95,-866.62 492.08,-873.83"/>
<text text-anchor="middle" x="532.5" y="-889" font-family="Helvetica,sans-Serif" font-size="10.00"> &#45;_registers</text>
</g>
</g>
</svg>
