<?xml version="1.0" encoding="UTF-8" standalone="no"?>
<!DOCTYPE svg PUBLIC "-//W3C//DTD SVG 1.1//EN"
 "http://www.w3.org/Graphics/SVG/1.1/DTD/svg11.dtd">
<!-- Generated by graphviz version 2.43.0 (0)
 -->
<!-- Title: ComSquare::Cartridge::Cartridge Pages: 1 -->
<svg width="148pt" height="821pt"
 viewBox="0.00 0.00 148.00 821.00" xmlns="http://www.w3.org/2000/svg" xmlns:xlink="http://www.w3.org/1999/xlink">
<g id="graph0" class="graph" transform="scale(1 1) rotate(0) translate(4 817)">
<title>ComSquare::Cartridge::Cartridge</title>
<polygon fill="white" stroke="transparent" points="-4,4 -4,-817 144,-817 144,4 -4,4"/>
<!-- Node1 -->
<g id="node1" class="node">
<title>Node1</title>
<g id="a_node1"><a xlink:title="Contains the rom&#39;s memory/instructions.">
<polygon fill="#bfbfbf" stroke="black" points="7,-0.5 7,-178.5 133,-178.5 133,-0.5 7,-0.5"/>
<text text-anchor="start" x="15" y="-166.5" font-family="Helvetica,sans-Serif" font-size="10.00">ComSquare::Cartridge</text>
<text text-anchor="middle" x="70" y="-155.5" font-family="Helvetica,sans-Serif" font-size="10.00">::Cartridge</text>
<polyline fill="none" stroke="black" points="7,-148.5 133,-148.5 "/>
<text text-anchor="start" x="15" y="-136.5" font-family="Helvetica,sans-Serif" font-size="10.00">+ header</text>
<text text-anchor="start" x="15" y="-125.5" font-family="Helvetica,sans-Serif" font-size="10.00">&#45; _romStart</text>
<polyline fill="none" stroke="black" points="7,-118.5 133,-118.5 "/>
<text text-anchor="start" x="15" y="-106.5" font-family="Helvetica,sans-Serif" font-size="10.00">+ Cartridge()</text>
<text text-anchor="start" x="15" y="-95.5" font-family="Helvetica,sans-Serif" font-size="10.00">+ Cartridge()</text>
<text text-anchor="start" x="15" y="-84.5" font-family="Helvetica,sans-Serif" font-size="10.00">+ operator=()</text>
<text text-anchor="start" x="15" y="-73.5" font-family="Helvetica,sans-Serif" font-size="10.00">+ ~Cartridge()</text>
<text text-anchor="start" x="15" y="-62.5" font-family="Helvetica,sans-Serif" font-size="10.00">+ read()</text>
<text text-anchor="start" x="15" y="-51.5" font-family="Helvetica,sans-Serif" font-size="10.00">+ write()</text>
<text text-anchor="start" x="15" y="-40.5" font-family="Helvetica,sans-Serif" font-size="10.00">&#45; _loadHeader()</text>
<text text-anchor="start" x="15" y="-29.5" font-family="Helvetica,sans-Serif" font-size="10.00">&#45; _getHeaderAddress()</text>
<text text-anchor="start" x="15" y="-18.5" font-family="Helvetica,sans-Serif" font-size="10.00">&#45; _mapHeader()</text>
<text text-anchor="start" x="15" y="-7.5" font-family="Helvetica,sans-Serif" font-size="10.00">&#45; getRomSize()</text>
</a>
</g>
</g>
<!-- Node2 -->
<g id="node2" class="node">
<title>Node2</title>
<g id="a_node2"><a xlink:href="classComSquare_1_1Ram_1_1Ram.html" target="_top" xlink:title=" ">
<polygon fill="white" stroke="black" points="5,-215.5 5,-393.5 135,-393.5 135,-215.5 5,-215.5"/>
<text text-anchor="middle" x="70" y="-381.5" font-family="Helvetica,sans-Serif" font-size="10.00">ComSquare::Ram::Ram</text>
<polyline fill="none" stroke="black" points="5,-374.5 135,-374.5 "/>
<text text-anchor="start" x="13" y="-362.5" font-family="Helvetica,sans-Serif" font-size="10.00"># _data</text>
<text text-anchor="start" x="13" y="-351.5" font-family="Helvetica,sans-Serif" font-size="10.00"># _size</text>
<text text-anchor="start" x="13" y="-340.5" font-family="Helvetica,sans-Serif" font-size="10.00"># _ramType</text>
<text text-anchor="start" x="13" y="-329.5" font-family="Helvetica,sans-Serif" font-size="10.00"># _ramName</text>
<polyline fill="none" stroke="black" points="5,-322.5 135,-322.5 "/>
<text text-anchor="start" x="13" y="-310.5" font-family="Helvetica,sans-Serif" font-size="10.00">+ Ram()</text>
<text text-anchor="start" x="13" y="-299.5" font-family="Helvetica,sans-Serif" font-size="10.00">+ Ram()</text>
<text text-anchor="start" x="13" y="-288.5" font-family="Helvetica,sans-Serif" font-size="10.00">+ operator=()</text>
<text text-anchor="start" x="13" y="-277.5" font-family="Helvetica,sans-Serif" font-size="10.00">+ ~Ram()</text>
<text text-anchor="start" x="13" y="-266.5" font-family="Helvetica,sans-Serif" font-size="10.00">+ read()</text>
<text text-anchor="start" x="13" y="-255.5" font-family="Helvetica,sans-Serif" font-size="10.00">+ write()</text>
<text text-anchor="start" x="13" y="-244.5" font-family="Helvetica,sans-Serif" font-size="10.00">+ getName()</text>
<text text-anchor="start" x="13" y="-233.5" font-family="Helvetica,sans-Serif" font-size="10.00">+ getComponent()</text>
<text text-anchor="start" x="13" y="-222.5" font-family="Helvetica,sans-Serif" font-size="10.00">+ getSize()</text>
</a>
</g>
</g>
<!-- Node2&#45;&gt;Node1 -->
<g id="edge1" class="edge">
<title>Node2&#45;&gt;Node1</title>
<path fill="none" stroke="midnightblue" d="M70,-205.32C70,-196.41 70,-187.42 70,-178.61"/>
<polygon fill="none" stroke="midnightblue" points="66.5,-205.33 70,-215.33 73.5,-205.33 66.5,-205.33"/>
</g>
<!-- Node3 -->
<g id="node3" class="node">
<title>Node3</title>
<g id="a_node3"><a xlink:href="classComSquare_1_1Memory_1_1ARectangleMemory.html" target="_top" xlink:title="Base memory class to map non continuous rectangle to the memory. (A rectangle that spam across more t...">
<polygon fill="white" stroke="black" points="0,-430.5 0,-597.5 140,-597.5 140,-430.5 0,-430.5"/>
<text text-anchor="start" x="8" y="-585.5" font-family="Helvetica,sans-Serif" font-size="10.00">ComSquare::Memory::</text>
<text text-anchor="middle" x="70" y="-574.5" font-family="Helvetica,sans-Serif" font-size="10.00">ARectangleMemory</text>
<polyline fill="none" stroke="black" points="0,-567.5 140,-567.5 "/>
<text text-anchor="start" x="8" y="-555.5" font-family="Helvetica,sans-Serif" font-size="10.00"># _startBank</text>
<text text-anchor="start" x="8" y="-544.5" font-family="Helvetica,sans-Serif" font-size="10.00"># _endBank</text>
<text text-anchor="start" x="8" y="-533.5" font-family="Helvetica,sans-Serif" font-size="10.00"># _startPage</text>
<text text-anchor="start" x="8" y="-522.5" font-family="Helvetica,sans-Serif" font-size="10.00"># _endPage</text>
<polyline fill="none" stroke="black" points="0,-515.5 140,-515.5 "/>
<text text-anchor="start" x="8" y="-503.5" font-family="Helvetica,sans-Serif" font-size="10.00">+ getRelativeAddress()</text>
<text text-anchor="start" x="8" y="-492.5" font-family="Helvetica,sans-Serif" font-size="10.00">+ hasMemoryAt()</text>
<text text-anchor="start" x="8" y="-481.5" font-family="Helvetica,sans-Serif" font-size="10.00">+ setMemoryRegion()</text>
<text text-anchor="start" x="8" y="-470.5" font-family="Helvetica,sans-Serif" font-size="10.00">+ isMirror()</text>
<text text-anchor="start" x="8" y="-459.5" font-family="Helvetica,sans-Serif" font-size="10.00">+ getValueName()</text>
<text text-anchor="start" x="8" y="-448.5" font-family="Helvetica,sans-Serif" font-size="10.00">+ getMirrored()</text>
<text text-anchor="start" x="8" y="-437.5" font-family="Helvetica,sans-Serif" font-size="10.00">+ ~ARectangleMemory()</text>
</a>
</g>
</g>
<!-- Node3&#45;&gt;Node2 -->
<g id="edge2" class="edge">
<title>Node3&#45;&gt;Node2</title>
<path fill="none" stroke="midnightblue" d="M70,-420.11C70,-411.3 70,-402.38 70,-393.61"/>
<polygon fill="none" stroke="midnightblue" points="66.5,-420.39 70,-430.39 73.5,-420.39 66.5,-420.39"/>
</g>
<!-- Node4 -->
<g id="node4" class="node">
<title>Node4</title>
<g id="a_node4"><a xlink:href="classComSquare_1_1Memory_1_1IMemory.html" target="_top" xlink:title="Common interface implemented by all components mapping memory.">
<polygon fill="white" stroke="black" points="4.5,-634.5 4.5,-812.5 135.5,-812.5 135.5,-634.5 4.5,-634.5"/>
<text text-anchor="start" x="12.5" y="-800.5" font-family="Helvetica,sans-Serif" font-size="10.00">ComSquare::Memory::</text>
<text text-anchor="middle" x="70" y="-789.5" font-family="Helvetica,sans-Serif" font-size="10.00">IMemory</text>
<polyline fill="none" stroke="black" points="4.5,-782.5 135.5,-782.5 "/>
<text text-anchor="middle" x="70" y="-770.5" font-family="Helvetica,sans-Serif" font-size="10.00"> </text>
<polyline fill="none" stroke="black" points="4.5,-763.5 135.5,-763.5 "/>
<text text-anchor="start" x="12.5" y="-751.5" font-family="Helvetica,sans-Serif" font-size="10.00">+ read()</text>
<text text-anchor="start" x="12.5" y="-740.5" font-family="Helvetica,sans-Serif" font-size="10.00">+ write()</text>
<text text-anchor="start" x="12.5" y="-729.5" font-family="Helvetica,sans-Serif" font-size="10.00">+ hasMemoryAt()</text>
<text text-anchor="start" x="12.5" y="-718.5" font-family="Helvetica,sans-Serif" font-size="10.00">+ getRelativeAddress()</text>
<text text-anchor="start" x="12.5" y="-707.5" font-family="Helvetica,sans-Serif" font-size="10.00">+ getSize()</text>
<text text-anchor="start" x="12.5" y="-696.5" font-family="Helvetica,sans-Serif" font-size="10.00">+ isMirror()</text>
<text text-anchor="start" x="12.5" y="-685.5" font-family="Helvetica,sans-Serif" font-size="10.00">+ getName()</text>
<text text-anchor="start" x="12.5" y="-674.5" font-family="Helvetica,sans-Serif" font-size="10.00">+ getComponent()</text>
<text text-anchor="start" x="12.5" y="-663.5" font-family="Helvetica,sans-Serif" font-size="10.00">+ getValueName()</text>
<text text-anchor="start" x="12.5" y="-652.5" font-family="Helvetica,sans-Serif" font-size="10.00">+ getMirrored()</text>
<text text-anchor="start" x="12.5" y="-641.5" font-family="Helvetica,sans-Serif" font-size="10.00">+ ~IMemory()</text>
</a>
</g>
</g>
<!-- Node4&#45;&gt;Node3 -->
<g id="edge3" class="edge">
<title>Node4&#45;&gt;Node3</title>
<path fill="none" stroke="midnightblue" d="M70,-624.2C70,-615.3 70,-606.36 70,-597.62"/>
<polygon fill="none" stroke="midnightblue" points="66.5,-624.2 70,-634.2 73.5,-624.2 66.5,-624.2"/>
</g>
</g>
</svg>
