<?xml version="1.0" encoding="UTF-8" standalone="no"?>
<!DOCTYPE svg PUBLIC "-//W3C//DTD SVG 1.1//EN"
 "http://www.w3.org/Graphics/SVG/1.1/DTD/svg11.dtd">
<!-- Generated by graphviz version 2.43.0 (0)
 -->
<!-- Title: BusLoggerProxy Pages: 1 -->
<svg width="411pt" height="442pt"
 viewBox="0.00 0.00 411.00 442.00" xmlns="http://www.w3.org/2000/svg" xmlns:xlink="http://www.w3.org/1999/xlink">
<g id="graph0" class="graph" transform="scale(1 1) rotate(0) translate(4 438)">
<title>BusLoggerProxy</title>
<polygon fill="white" stroke="transparent" points="-4,4 -4,-438 407,-438 407,4 -4,4"/>
<!-- Node1 -->
<g id="node1" class="node">
<title>Node1</title>
<g id="a_node1"><a xlink:title="A class to filter logs from the memory bus&#39;s debugger.">
<polygon fill="#bfbfbf" stroke="black" points="146,-0.5 146,-112.5 268,-112.5 268,-0.5 146,-0.5"/>
<text text-anchor="middle" x="207" y="-100.5" font-family="Helvetica,sans-Serif" font-size="10.00">BusLoggerProxy</text>
<polyline fill="none" stroke="black" points="146,-93.5 268,-93.5 "/>
<text text-anchor="middle" x="207" y="-81.5" font-family="Helvetica,sans-Serif" font-size="10.00"> </text>
<polyline fill="none" stroke="black" points="146,-74.5 268,-74.5 "/>
<text text-anchor="start" x="154" y="-62.5" font-family="Helvetica,sans-Serif" font-size="10.00">+ refresh()</text>
<text text-anchor="start" x="154" y="-51.5" font-family="Helvetica,sans-Serif" font-size="10.00">+ BusLoggerProxy()</text>
<text text-anchor="start" x="154" y="-40.5" font-family="Helvetica,sans-Serif" font-size="10.00">+ BusLoggerProxy()</text>
<text text-anchor="start" x="154" y="-29.5" font-family="Helvetica,sans-Serif" font-size="10.00">+ operator=()</text>
<text text-anchor="start" x="154" y="-18.5" font-family="Helvetica,sans-Serif" font-size="10.00">+ ~BusLoggerProxy()</text>
<text text-anchor="start" x="154" y="-7.5" font-family="Helvetica,sans-Serif" font-size="10.00"># filterAcceptsRow()</text>
</a>
</g>
</g>
<!-- Node2 -->
<g id="node2" class="node">
<title>Node2</title>
<g id="a_node2"><a xlink:title=" ">
<polygon fill="white" stroke="#bfbfbf" points="0,-221 0,-278 126,-278 126,-221 0,-221"/>
<text text-anchor="middle" x="63" y="-266" font-family="Helvetica,sans-Serif" font-size="10.00">QSortFilterProxyModel</text>
<polyline fill="none" stroke="#bfbfbf" points="0,-259 126,-259 "/>
<text text-anchor="middle" x="63" y="-247" font-family="Helvetica,sans-Serif" font-size="10.00"> </text>
<polyline fill="none" stroke="#bfbfbf" points="0,-240 126,-240 "/>
<text text-anchor="middle" x="63" y="-228" font-family="Helvetica,sans-Serif" font-size="10.00"> </text>
</a>
</g>
</g>
<!-- Node2&#45;&gt;Node1 -->
<g id="edge1" class="edge">
<title>Node2&#45;&gt;Node1</title>
<path fill="none" stroke="midnightblue" d="M89.96,-212.74C111.21,-184.55 141.21,-144.77 165.51,-112.53"/>
<polygon fill="none" stroke="midnightblue" points="87.16,-210.63 83.94,-220.73 92.75,-214.85 87.16,-210.63"/>
</g>
<!-- Node3 -->
<g id="node3" class="node">
<title>Node3</title>
<g id="a_node3"><a xlink:href="structComSquare_1_1Debugger_1_1BusLoggerFilters.html" target="_top" xlink:title="The struct representing filters of the memory bus&#39;s logger.">
<polygon fill="white" stroke="black" points="144,-171.5 144,-327.5 270,-327.5 270,-171.5 144,-171.5"/>
<text text-anchor="start" x="152" y="-315.5" font-family="Helvetica,sans-Serif" font-size="10.00">ComSquare::Debugger</text>
<text text-anchor="middle" x="207" y="-304.5" font-family="Helvetica,sans-Serif" font-size="10.00">::BusLoggerFilters</text>
<polyline fill="none" stroke="black" points="144,-297.5 270,-297.5 "/>
<text text-anchor="start" x="152" y="-285.5" font-family="Helvetica,sans-Serif" font-size="10.00">+ cpu</text>
<text text-anchor="start" x="152" y="-274.5" font-family="Helvetica,sans-Serif" font-size="10.00">+ apu</text>
<text text-anchor="start" x="152" y="-263.5" font-family="Helvetica,sans-Serif" font-size="10.00">+ ppu</text>
<text text-anchor="start" x="152" y="-252.5" font-family="Helvetica,sans-Serif" font-size="10.00">+ rom</text>
<text text-anchor="start" x="152" y="-241.5" font-family="Helvetica,sans-Serif" font-size="10.00">+ wram</text>
<text text-anchor="start" x="152" y="-230.5" font-family="Helvetica,sans-Serif" font-size="10.00">+ sram</text>
<text text-anchor="start" x="152" y="-219.5" font-family="Helvetica,sans-Serif" font-size="10.00">+ vram</text>
<text text-anchor="start" x="152" y="-208.5" font-family="Helvetica,sans-Serif" font-size="10.00">+ oamram</text>
<text text-anchor="start" x="152" y="-197.5" font-family="Helvetica,sans-Serif" font-size="10.00">+ cgram</text>
<polyline fill="none" stroke="black" points="144,-190.5 270,-190.5 "/>
<text text-anchor="middle" x="207" y="-178.5" font-family="Helvetica,sans-Serif" font-size="10.00"> </text>
</a>
</g>
</g>
<!-- Node3&#45;&gt;Node1 -->
<g id="edge2" class="edge">
<title>Node3&#45;&gt;Node1</title>
<path fill="none" stroke="#404040" d="M207,-171.36C207,-156 207,-139.97 207,-124.95"/>
<polygon fill="none" stroke="#404040" points="207,-124.62 203,-118.62 207,-112.62 211,-118.62 207,-124.62"/>
<text text-anchor="middle" x="227" y="-134" font-family="Helvetica,sans-Serif" font-size="10.00"> +filters</text>
</g>
<!-- Node4 -->
<g id="node4" class="node">
<title>Node4</title>
<g id="a_node4"><a xlink:href="classBusLogModel.html" target="_top" xlink:title="The qt model that bind the logs to the view.">
<polygon fill="white" stroke="black" points="288.5,-160.5 288.5,-338.5 397.5,-338.5 397.5,-160.5 288.5,-160.5"/>
<text text-anchor="middle" x="343" y="-326.5" font-family="Helvetica,sans-Serif" font-size="10.00">BusLogModel</text>
<polyline fill="none" stroke="black" points="288.5,-319.5 397.5,-319.5 "/>
<text text-anchor="start" x="296.5" y="-307.5" font-family="Helvetica,sans-Serif" font-size="10.00">+ column</text>
<text text-anchor="start" x="296.5" y="-296.5" font-family="Helvetica,sans-Serif" font-size="10.00">&#45; _logs</text>
<polyline fill="none" stroke="black" points="288.5,-289.5 397.5,-289.5 "/>
<text text-anchor="start" x="296.5" y="-277.5" font-family="Helvetica,sans-Serif" font-size="10.00">+ BusLogModel()</text>
<text text-anchor="start" x="296.5" y="-266.5" font-family="Helvetica,sans-Serif" font-size="10.00">+ BusLogModel()</text>
<text text-anchor="start" x="296.5" y="-255.5" font-family="Helvetica,sans-Serif" font-size="10.00">+ operator=()</text>
<text text-anchor="start" x="296.5" y="-244.5" font-family="Helvetica,sans-Serif" font-size="10.00">+ ~BusLogModel()</text>
<text text-anchor="start" x="296.5" y="-233.5" font-family="Helvetica,sans-Serif" font-size="10.00">+ log()</text>
<text text-anchor="start" x="296.5" y="-222.5" font-family="Helvetica,sans-Serif" font-size="10.00">+ getLogAt()</text>
<text text-anchor="start" x="296.5" y="-211.5" font-family="Helvetica,sans-Serif" font-size="10.00">+ clearLogs()</text>
<text text-anchor="start" x="296.5" y="-200.5" font-family="Helvetica,sans-Serif" font-size="10.00">+ rowCount()</text>
<text text-anchor="start" x="296.5" y="-189.5" font-family="Helvetica,sans-Serif" font-size="10.00">+ columnCount()</text>
<text text-anchor="start" x="296.5" y="-178.5" font-family="Helvetica,sans-Serif" font-size="10.00">+ data()</text>
<text text-anchor="start" x="296.5" y="-167.5" font-family="Helvetica,sans-Serif" font-size="10.00">+ headerData()</text>
</a>
</g>
</g>
<!-- Node4&#45;&gt;Node1 -->
<g id="edge3" class="edge">
<title>Node4&#45;&gt;Node1</title>
<path fill="none" stroke="#404040" d="M288.47,-171.91C276.89,-155.65 264.77,-138.63 253.52,-122.83"/>
<polygon fill="none" stroke="#404040" points="253.23,-122.43 246.49,-119.86 246.27,-112.65 253.01,-115.22 253.23,-122.43"/>
<text text-anchor="middle" x="288" y="-134" font-family="Helvetica,sans-Serif" font-size="10.00"> &#45;_parent</text>
</g>
<!-- Node5 -->
<g id="node5" class="node">
<title>Node5</title>
<g id="a_node5"><a xlink:title=" ">
<polygon fill="white" stroke="#bfbfbf" points="283,-376.5 283,-433.5 403,-433.5 403,-376.5 283,-376.5"/>
<text text-anchor="middle" x="343" y="-421.5" font-family="Helvetica,sans-Serif" font-size="10.00">QAbstractTableModel</text>
<polyline fill="none" stroke="#bfbfbf" points="283,-414.5 403,-414.5 "/>
<text text-anchor="middle" x="343" y="-402.5" font-family="Helvetica,sans-Serif" font-size="10.00"> </text>
<polyline fill="none" stroke="#bfbfbf" points="283,-395.5 403,-395.5 "/>
<text text-anchor="middle" x="343" y="-383.5" font-family="Helvetica,sans-Serif" font-size="10.00"> </text>
</a>
</g>
</g>
<!-- Node5&#45;&gt;Node4 -->
<g id="edge4" class="edge">
<title>Node5&#45;&gt;Node4</title>
<path fill="none" stroke="midnightblue" d="M343,-365.96C343,-357.47 343,-348.13 343,-338.55"/>
<polygon fill="none" stroke="midnightblue" points="339.5,-366.2 343,-376.2 346.5,-366.2 339.5,-366.2"/>
</g>
</g>
</svg>
