<?xml version="1.0" encoding="UTF-8" standalone="no"?>
<!DOCTYPE svg PUBLIC "-//W3C//DTD SVG 1.1//EN"
 "http://www.w3.org/Graphics/SVG/1.1/DTD/svg11.dtd">
<!-- Generated by graphviz version 2.43.0 (0)
 -->
<!-- Title: DisassemblyModel Pages: 1 -->
<svg width="1138pt" height="1586pt"
 viewBox="0.00 0.00 1138.16 1586.00" xmlns="http://www.w3.org/2000/svg" xmlns:xlink="http://www.w3.org/1999/xlink">
<g id="graph0" class="graph" transform="scale(1 1) rotate(0) translate(4 1582)">
<title>DisassemblyModel</title>
<polygon fill="white" stroke="transparent" points="-4,4 -4,-1582 1134.16,-1582 1134.16,4 -4,4"/>
<!-- Node1 -->
<g id="node1" class="node">
<title>Node1</title>
<g id="a_node1"><a xlink:title="The qt model that show the disassembly.">
<polygon fill="#bfbfbf" stroke="black" points="268.16,-755 268.16,-889 405.16,-889 405.16,-755 268.16,-755"/>
<text text-anchor="middle" x="336.66" y="-877" font-family="Helvetica,sans-Serif" font-size="10.00">DisassemblyModel</text>
<polyline fill="none" stroke="black" points="268.16,-870 405.16,-870 "/>
<text text-anchor="middle" x="336.66" y="-858" font-family="Helvetica,sans-Serif" font-size="10.00"> </text>
<polyline fill="none" stroke="black" points="268.16,-851 405.16,-851 "/>
<text text-anchor="start" x="276.16" y="-839" font-family="Helvetica,sans-Serif" font-size="10.00">+ DisassemblyModel()</text>
<text text-anchor="start" x="276.16" y="-828" font-family="Helvetica,sans-Serif" font-size="10.00">+ DisassemblyModel()</text>
<text text-anchor="start" x="276.16" y="-817" font-family="Helvetica,sans-Serif" font-size="10.00">+ operator=()</text>
<text text-anchor="start" x="276.16" y="-806" font-family="Helvetica,sans-Serif" font-size="10.00">+ ~DisassemblyModel()</text>
<text text-anchor="start" x="276.16" y="-795" font-family="Helvetica,sans-Serif" font-size="10.00">+ rowCount()</text>
<text text-anchor="start" x="276.16" y="-784" font-family="Helvetica,sans-Serif" font-size="10.00">+ columnCount()</text>
<text text-anchor="start" x="276.16" y="-773" font-family="Helvetica,sans-Serif" font-size="10.00">+ data()</text>
<text text-anchor="start" x="276.16" y="-762" font-family="Helvetica,sans-Serif" font-size="10.00">+ headerData()</text>
</a>
</g>
</g>
<!-- Node3 -->
<g id="node3" class="node">
<title>Node3</title>
<g id="a_node3"><a xlink:href="classComSquare_1_1Debugger_1_1CPUDebug.html" target="_top" xlink:title="A custom CPU with a window that show it&#39;s registers and the disassembly.">
<polygon fill="white" stroke="black" points="215.66,-204.5 215.66,-558.5 373.66,-558.5 373.66,-204.5 215.66,-204.5"/>
<text text-anchor="start" x="223.66" y="-546.5" font-family="Helvetica,sans-Serif" font-size="10.00">ComSquare::Debugger</text>
<text text-anchor="middle" x="294.66" y="-535.5" font-family="Helvetica,sans-Serif" font-size="10.00">::CPUDebug</text>
<polyline fill="none" stroke="black" points="215.66,-528.5 373.66,-528.5 "/>
<text text-anchor="start" x="223.66" y="-516.5" font-family="Helvetica,sans-Serif" font-size="10.00">+ disassembledInstructions</text>
<text text-anchor="start" x="223.66" y="-505.5" font-family="Helvetica,sans-Serif" font-size="10.00">+ breakpoints</text>
<text text-anchor="start" x="223.66" y="-494.5" font-family="Helvetica,sans-Serif" font-size="10.00">+ initialStackPointer</text>
<text text-anchor="start" x="223.66" y="-483.5" font-family="Helvetica,sans-Serif" font-size="10.00">&#45; _ui</text>
<text text-anchor="start" x="223.66" y="-472.5" font-family="Helvetica,sans-Serif" font-size="10.00">&#45; _isPaused</text>
<text text-anchor="start" x="223.66" y="-461.5" font-family="Helvetica,sans-Serif" font-size="10.00">&#45; _isStepping</text>
<polyline fill="none" stroke="black" points="215.66,-454.5 373.66,-454.5 "/>
<text text-anchor="start" x="223.66" y="-442.5" font-family="Helvetica,sans-Serif" font-size="10.00">+ showError()</text>
<text text-anchor="start" x="223.66" y="-431.5" font-family="Helvetica,sans-Serif" font-size="10.00">+ pause()</text>
<text text-anchor="start" x="223.66" y="-420.5" font-family="Helvetica,sans-Serif" font-size="10.00">+ step()</text>
<text text-anchor="start" x="223.66" y="-409.5" font-family="Helvetica,sans-Serif" font-size="10.00">+ next()</text>
<text text-anchor="start" x="223.66" y="-398.5" font-family="Helvetica,sans-Serif" font-size="10.00">+ clearHistory()</text>
<text text-anchor="start" x="223.66" y="-387.5" font-family="Helvetica,sans-Serif" font-size="10.00">+ toggleBreakpoint()</text>
<text text-anchor="start" x="223.66" y="-376.5" font-family="Helvetica,sans-Serif" font-size="10.00">+ disableDebugger()</text>
<text text-anchor="start" x="223.66" y="-365.5" font-family="Helvetica,sans-Serif" font-size="10.00">+ getProceededParameters()</text>
<text text-anchor="start" x="223.66" y="-354.5" font-family="Helvetica,sans-Serif" font-size="10.00">+ getPC()</text>
<text text-anchor="start" x="223.66" y="-343.5" font-family="Helvetica,sans-Serif" font-size="10.00">+ getStackPointer()</text>
<text text-anchor="start" x="223.66" y="-332.5" font-family="Helvetica,sans-Serif" font-size="10.00">and 9 more...</text>
<text text-anchor="start" x="223.66" y="-321.5" font-family="Helvetica,sans-Serif" font-size="10.00">&#45; _executeInstruction()</text>
<text text-anchor="start" x="223.66" y="-310.5" font-family="Helvetica,sans-Serif" font-size="10.00">&#45; _getDisassemblyContext()</text>
<text text-anchor="start" x="223.66" y="-299.5" font-family="Helvetica,sans-Serif" font-size="10.00">&#45; _disassemble()</text>
<text text-anchor="start" x="223.66" y="-288.5" font-family="Helvetica,sans-Serif" font-size="10.00">&#45; _updateDisassembly()</text>
<text text-anchor="start" x="223.66" y="-277.5" font-family="Helvetica,sans-Serif" font-size="10.00">&#45; _parseInstruction()</text>
<text text-anchor="start" x="223.66" y="-266.5" font-family="Helvetica,sans-Serif" font-size="10.00">&#45; _getInstructionParameter()</text>
<text text-anchor="start" x="223.66" y="-255.5" font-family="Helvetica,sans-Serif" font-size="10.00">&#45; _getFlagsString()</text>
<text text-anchor="start" x="223.66" y="-244.5" font-family="Helvetica,sans-Serif" font-size="10.00">&#45; _updateRegistersPanel()</text>
<text text-anchor="start" x="223.66" y="-233.5" font-family="Helvetica,sans-Serif" font-size="10.00">&#45; _getImmediateValue()</text>
<text text-anchor="start" x="223.66" y="-222.5" font-family="Helvetica,sans-Serif" font-size="10.00">&#45; _getAbsoluteValue()</text>
<text text-anchor="start" x="223.66" y="-211.5" font-family="Helvetica,sans-Serif" font-size="10.00">and 17 more...</text>
</a>
</g>
</g>
<!-- Node1&#45;&gt;Node3 -->
<g id="edge19" class="edge">
<title>Node1&#45;&gt;Node3</title>
<path fill="none" stroke="#404040" d="M335.7,-754.83C334.49,-705.67 331.78,-637.01 325.66,-577 325.45,-574.92 325.23,-572.84 325.01,-570.74"/>
<polygon fill="none" stroke="#404040" points="324.99,-570.56 320.34,-565.05 323.64,-558.64 328.29,-564.15 324.99,-570.56"/>
<text text-anchor="middle" x="348.16" y="-580" font-family="Helvetica,sans-Serif" font-size="10.00"> &#45;_model</text>
</g>
<!-- Node2 -->
<g id="node2" class="node">
<title>Node2</title>
<g id="a_node2"><a xlink:title=" ">
<polygon fill="white" stroke="#bfbfbf" points="135.66,-1184.5 135.66,-1241.5 255.66,-1241.5 255.66,-1184.5 135.66,-1184.5"/>
<text text-anchor="middle" x="195.66" y="-1229.5" font-family="Helvetica,sans-Serif" font-size="10.00">QAbstractTableModel</text>
<polyline fill="none" stroke="#bfbfbf" points="135.66,-1222.5 255.66,-1222.5 "/>
<text text-anchor="middle" x="195.66" y="-1210.5" font-family="Helvetica,sans-Serif" font-size="10.00"> </text>
<polyline fill="none" stroke="#bfbfbf" points="135.66,-1203.5 255.66,-1203.5 "/>
<text text-anchor="middle" x="195.66" y="-1191.5" font-family="Helvetica,sans-Serif" font-size="10.00"> </text>
</a>
</g>
</g>
<!-- Node2&#45;&gt;Node1 -->
<g id="edge1" class="edge">
<title>Node2&#45;&gt;Node1</title>
<path fill="none" stroke="midnightblue" d="M209.15,-1174.8C232.98,-1109.06 282.82,-971.56 312.64,-889.27"/>
<polygon fill="none" stroke="midnightblue" points="205.81,-1173.74 205.69,-1184.34 212.39,-1176.13 205.81,-1173.74"/>
</g>
<!-- Node14 -->
<g id="node14" class="node">
<title>Node14</title>
<g id="a_node14"><a xlink:href="classStackModel.html" target="_top" xlink:title="The qt model that show the stack.">
<polygon fill="white" stroke="black" points="25.16,-0.5 25.16,-145.5 134.16,-145.5 134.16,-0.5 25.16,-0.5"/>
<text text-anchor="middle" x="79.66" y="-133.5" font-family="Helvetica,sans-Serif" font-size="10.00">StackModel</text>
<polyline fill="none" stroke="black" points="25.16,-126.5 134.16,-126.5 "/>
<text text-anchor="start" x="33.16" y="-114.5" font-family="Helvetica,sans-Serif" font-size="10.00">&#45; _bus</text>
<polyline fill="none" stroke="black" points="25.16,-107.5 134.16,-107.5 "/>
<text text-anchor="start" x="33.16" y="-95.5" font-family="Helvetica,sans-Serif" font-size="10.00">+ StackModel()</text>
<text text-anchor="start" x="33.16" y="-84.5" font-family="Helvetica,sans-Serif" font-size="10.00">+ StackModel()</text>
<text text-anchor="start" x="33.16" y="-73.5" font-family="Helvetica,sans-Serif" font-size="10.00">+ operator=()</text>
<text text-anchor="start" x="33.16" y="-62.5" font-family="Helvetica,sans-Serif" font-size="10.00">+ ~StackModel()</text>
<text text-anchor="start" x="33.16" y="-51.5" font-family="Helvetica,sans-Serif" font-size="10.00">+ rowCount()</text>
<text text-anchor="start" x="33.16" y="-40.5" font-family="Helvetica,sans-Serif" font-size="10.00">+ columnCount()</text>
<text text-anchor="start" x="33.16" y="-29.5" font-family="Helvetica,sans-Serif" font-size="10.00">+ data()</text>
<text text-anchor="start" x="33.16" y="-18.5" font-family="Helvetica,sans-Serif" font-size="10.00">+ headerData()</text>
<text text-anchor="start" x="33.16" y="-7.5" font-family="Helvetica,sans-Serif" font-size="10.00">+ setMemoryBus()</text>
</a>
</g>
</g>
<!-- Node2&#45;&gt;Node14 -->
<g id="edge14" class="edge">
<title>Node2&#45;&gt;Node14</title>
<path fill="none" stroke="midnightblue" d="M156.31,-1177.47C122.81,-1145.24 77.12,-1093.85 57.66,-1038 -52.77,-721.04 23.28,-309.24 61.44,-145.59"/>
<polygon fill="none" stroke="midnightblue" points="154.01,-1180.12 163.68,-1184.44 158.82,-1175.03 154.01,-1180.12"/>
</g>
<!-- Node19 -->
<g id="node19" class="node">
<title>Node19</title>
<g id="a_node19"><a xlink:href="classHistoryModel.html" target="_top" xlink:title="The qt model that show the history.">
<polygon fill="white" stroke="black" points="141.16,-744 141.16,-900 250.16,-900 250.16,-744 141.16,-744"/>
<text text-anchor="middle" x="195.66" y="-888" font-family="Helvetica,sans-Serif" font-size="10.00">HistoryModel</text>
<polyline fill="none" stroke="black" points="141.16,-881 250.16,-881 "/>
<text text-anchor="start" x="149.16" y="-869" font-family="Helvetica,sans-Serif" font-size="10.00">&#45; _instructions</text>
<polyline fill="none" stroke="black" points="141.16,-862 250.16,-862 "/>
<text text-anchor="start" x="149.16" y="-850" font-family="Helvetica,sans-Serif" font-size="10.00">+ HistoryModel()</text>
<text text-anchor="start" x="149.16" y="-839" font-family="Helvetica,sans-Serif" font-size="10.00">+ HistoryModel()</text>
<text text-anchor="start" x="149.16" y="-828" font-family="Helvetica,sans-Serif" font-size="10.00">+ operator=()</text>
<text text-anchor="start" x="149.16" y="-817" font-family="Helvetica,sans-Serif" font-size="10.00">+ ~HistoryModel()</text>
<text text-anchor="start" x="149.16" y="-806" font-family="Helvetica,sans-Serif" font-size="10.00">+ log()</text>
<text text-anchor="start" x="149.16" y="-795" font-family="Helvetica,sans-Serif" font-size="10.00">+ clear()</text>
<text text-anchor="start" x="149.16" y="-784" font-family="Helvetica,sans-Serif" font-size="10.00">+ rowCount()</text>
<text text-anchor="start" x="149.16" y="-773" font-family="Helvetica,sans-Serif" font-size="10.00">+ columnCount()</text>
<text text-anchor="start" x="149.16" y="-762" font-family="Helvetica,sans-Serif" font-size="10.00">+ data()</text>
<text text-anchor="start" x="149.16" y="-751" font-family="Helvetica,sans-Serif" font-size="10.00">+ headerData()</text>
</a>
</g>
</g>
<!-- Node2&#45;&gt;Node19 -->
<g id="edge24" class="edge">
<title>Node2&#45;&gt;Node19</title>
<path fill="none" stroke="midnightblue" d="M195.66,-1174.05C195.66,-1110.89 195.66,-983.02 195.66,-900.28"/>
<polygon fill="none" stroke="midnightblue" points="192.16,-1174.34 195.66,-1184.34 199.16,-1174.34 192.16,-1174.34"/>
</g>
<!-- Node3&#45;&gt;Node1 -->
<g id="edge2" class="edge">
<title>Node3&#45;&gt;Node1</title>
<path fill="none" stroke="#404040" d="M293.57,-558.59C294.11,-568.55 294.8,-578.41 295.66,-588 300.34,-640.1 310.51,-698.04 319.55,-743.1"/>
<polygon fill="none" stroke="#404040" points="319.55,-743.1 324.67,-748.18 321.95,-754.86 316.83,-749.78 319.55,-743.1"/>
<text text-anchor="middle" x="310.66" y="-580" font-family="Helvetica,sans-Serif" font-size="10.00"> &#45;_cpu</text>
</g>
<!-- Node3&#45;&gt;Node14 -->
<g id="edge15" class="edge">
<title>Node3&#45;&gt;Node14</title>
<path fill="none" stroke="#404040" d="M215.2,-319.83C175.08,-284.99 129.2,-237.9 101.66,-186 96.96,-177.13 93.25,-167.38 90.34,-157.45"/>
<polygon fill="none" stroke="#404040" points="90.31,-157.36 84.92,-152.58 87.26,-145.76 92.66,-150.54 90.31,-157.36"/>
<text text-anchor="middle" x="116.66" y="-172.5" font-family="Helvetica,sans-Serif" font-size="10.00"> &#45;_cpu</text>
</g>
<!-- Node15 -->
<g id="node15" class="node">
<title>Node15</title>
<g id="a_node15"><a xlink:href="classComSquare_1_1Debugger_1_1ClosableWindow.html" target="_top" xlink:title=" ">
<polygon fill="white" stroke="black" points="348.16,-11.5 348.16,-134.5 519.16,-134.5 519.16,-11.5 348.16,-11.5"/>
<text text-anchor="start" x="356.16" y="-122.5" font-family="Helvetica,sans-Serif" font-size="10.00">ComSquare::Debugger</text>
<text text-anchor="start" x="356.16" y="-111.5" font-family="Helvetica,sans-Serif" font-size="10.00">::ClosableWindow&lt; ComSquare</text>
<text text-anchor="middle" x="433.66" y="-100.5" font-family="Helvetica,sans-Serif" font-size="10.00">::Debugger::CPUDebug &gt;</text>
<polyline fill="none" stroke="black" points="348.16,-93.5 519.16,-93.5 "/>
<text text-anchor="middle" x="433.66" y="-81.5" font-family="Helvetica,sans-Serif" font-size="10.00"> </text>
<polyline fill="none" stroke="black" points="348.16,-74.5 519.16,-74.5 "/>
<text text-anchor="start" x="356.16" y="-62.5" font-family="Helvetica,sans-Serif" font-size="10.00">+ ClosableWindow()</text>
<text text-anchor="start" x="356.16" y="-51.5" font-family="Helvetica,sans-Serif" font-size="10.00">+ ClosableWindow()</text>
<text text-anchor="start" x="356.16" y="-40.5" font-family="Helvetica,sans-Serif" font-size="10.00">+ operator=()</text>
<text text-anchor="start" x="356.16" y="-29.5" font-family="Helvetica,sans-Serif" font-size="10.00">+ ~ClosableWindow()</text>
<text text-anchor="start" x="356.16" y="-18.5" font-family="Helvetica,sans-Serif" font-size="10.00"># closeEvent()</text>
</a>
</g>
</g>
<!-- Node3&#45;&gt;Node15 -->
<g id="edge18" class="edge">
<title>Node3&#45;&gt;Node15</title>
<path fill="none" stroke="#404040" d="M373.67,-240.2C382.61,-222.2 391.19,-203.83 398.66,-186 403.96,-173.36 408.9,-159.62 413.29,-146.25"/>
<polygon fill="none" stroke="#404040" points="413.35,-146.05 411.37,-139.11 417,-134.62 418.99,-141.55 413.35,-146.05"/>
<text text-anchor="middle" x="431.16" y="-178" font-family="Helvetica,sans-Serif" font-size="10.00"> &#45;_obj</text>
<text text-anchor="middle" x="431.16" y="-167" font-family="Helvetica,sans-Serif" font-size="10.00">&#45;_onClose</text>
</g>
<!-- Node17 -->
<g id="node17" class="node">
<title>Node17</title>
<g id="a_node17"><a xlink:href="classRowPainter.html" target="_top" xlink:title="The qt class that highlight breakpoints and the PC&#39;s position.">
<polygon fill="white" stroke="black" points="231.66,-22.5 231.66,-123.5 329.66,-123.5 329.66,-22.5 231.66,-22.5"/>
<text text-anchor="middle" x="280.66" y="-111.5" font-family="Helvetica,sans-Serif" font-size="10.00">RowPainter</text>
<polyline fill="none" stroke="black" points="231.66,-104.5 329.66,-104.5 "/>
<text text-anchor="middle" x="280.66" y="-92.5" font-family="Helvetica,sans-Serif" font-size="10.00"> </text>
<polyline fill="none" stroke="black" points="231.66,-85.5 329.66,-85.5 "/>
<text text-anchor="start" x="239.66" y="-73.5" font-family="Helvetica,sans-Serif" font-size="10.00">+ RowPainter()</text>
<text text-anchor="start" x="239.66" y="-62.5" font-family="Helvetica,sans-Serif" font-size="10.00">+ operator=()</text>
<text text-anchor="start" x="239.66" y="-51.5" font-family="Helvetica,sans-Serif" font-size="10.00">+ ~RowPainter()</text>
<text text-anchor="start" x="239.66" y="-40.5" font-family="Helvetica,sans-Serif" font-size="10.00"># sizeHint()</text>
<text text-anchor="start" x="239.66" y="-29.5" font-family="Helvetica,sans-Serif" font-size="10.00"># paint()</text>
</a>
</g>
</g>
<!-- Node3&#45;&gt;Node17 -->
<g id="edge22" class="edge">
<title>Node3&#45;&gt;Node17</title>
<path fill="none" stroke="#404040" d="M286.62,-204.43C285.5,-179.9 284.42,-156.17 283.49,-135.83"/>
<polygon fill="none" stroke="#404040" points="283.48,-135.61 279.21,-129.8 282.93,-123.62 287.2,-129.44 283.48,-135.61"/>
<text text-anchor="middle" x="300.66" y="-172.5" font-family="Helvetica,sans-Serif" font-size="10.00"> &#45;_cpu</text>
</g>
<!-- Node4 -->
<g id="node4" class="node">
<title>Node4</title>
<g id="a_node4"><a xlink:href="classComSquare_1_1CPU_1_1CPU.html" target="_top" xlink:title="The main CPU.">
<polygon fill="white" stroke="black" points="627.66,-606.5 627.66,-1037.5 813.66,-1037.5 813.66,-606.5 627.66,-606.5"/>
<text text-anchor="middle" x="720.66" y="-1025.5" font-family="Helvetica,sans-Serif" font-size="10.00">ComSquare::CPU::CPU</text>
<polyline fill="none" stroke="black" points="627.66,-1018.5 813.66,-1018.5 "/>
<text text-anchor="start" x="635.66" y="-1006.5" font-family="Helvetica,sans-Serif" font-size="10.00">+ IsNMIRequested</text>
<text text-anchor="start" x="635.66" y="-995.5" font-family="Helvetica,sans-Serif" font-size="10.00">+ IsIRQRequested</text>
<text text-anchor="start" x="635.66" y="-984.5" font-family="Helvetica,sans-Serif" font-size="10.00">+ IsAbortRequested</text>
<text text-anchor="start" x="635.66" y="-973.5" font-family="Helvetica,sans-Serif" font-size="10.00"># _isEmulationMode</text>
<text text-anchor="start" x="635.66" y="-962.5" font-family="Helvetica,sans-Serif" font-size="10.00"># _isStopped</text>
<text text-anchor="start" x="635.66" y="-951.5" font-family="Helvetica,sans-Serif" font-size="10.00"># _isWaitingForInterrupt</text>
<text text-anchor="start" x="635.66" y="-940.5" font-family="Helvetica,sans-Serif" font-size="10.00"># _bus</text>
<text text-anchor="start" x="635.66" y="-929.5" font-family="Helvetica,sans-Serif" font-size="10.00"># _dmaChannels</text>
<text text-anchor="start" x="635.66" y="-918.5" font-family="Helvetica,sans-Serif" font-size="10.00"># _hasIndexCrossedPageBoundary</text>
<polyline fill="none" stroke="black" points="627.66,-911.5 813.66,-911.5 "/>
<text text-anchor="start" x="635.66" y="-899.5" font-family="Helvetica,sans-Serif" font-size="10.00">+ CPU()</text>
<text text-anchor="start" x="635.66" y="-888.5" font-family="Helvetica,sans-Serif" font-size="10.00">+ CPU()</text>
<text text-anchor="start" x="635.66" y="-877.5" font-family="Helvetica,sans-Serif" font-size="10.00">+ operator=()</text>
<text text-anchor="start" x="635.66" y="-866.5" font-family="Helvetica,sans-Serif" font-size="10.00">+ ~CPU()</text>
<text text-anchor="start" x="635.66" y="-855.5" font-family="Helvetica,sans-Serif" font-size="10.00">+ update()</text>
<text text-anchor="start" x="635.66" y="-844.5" font-family="Helvetica,sans-Serif" font-size="10.00">+ read()</text>
<text text-anchor="start" x="635.66" y="-833.5" font-family="Helvetica,sans-Serif" font-size="10.00">+ write()</text>
<text text-anchor="start" x="635.66" y="-822.5" font-family="Helvetica,sans-Serif" font-size="10.00">+ getSize()</text>
<text text-anchor="start" x="635.66" y="-811.5" font-family="Helvetica,sans-Serif" font-size="10.00">+ getName()</text>
<text text-anchor="start" x="635.66" y="-800.5" font-family="Helvetica,sans-Serif" font-size="10.00">+ getComponent()</text>
<text text-anchor="start" x="635.66" y="-789.5" font-family="Helvetica,sans-Serif" font-size="10.00">+ RESB()</text>
<text text-anchor="start" x="635.66" y="-778.5" font-family="Helvetica,sans-Serif" font-size="10.00">+ isDebugger()</text>
<text text-anchor="start" x="635.66" y="-767.5" font-family="Helvetica,sans-Serif" font-size="10.00">+ setMemoryBus()</text>
<text text-anchor="start" x="635.66" y="-756.5" font-family="Helvetica,sans-Serif" font-size="10.00"># _getImmediateAddr8Bits()</text>
<text text-anchor="start" x="635.66" y="-745.5" font-family="Helvetica,sans-Serif" font-size="10.00"># _getImmediateAddr16Bits()</text>
<text text-anchor="start" x="635.66" y="-734.5" font-family="Helvetica,sans-Serif" font-size="10.00"># _getImmediateAddrForA()</text>
<text text-anchor="start" x="635.66" y="-723.5" font-family="Helvetica,sans-Serif" font-size="10.00"># _getImmediateAddrForX()</text>
<text text-anchor="start" x="635.66" y="-712.5" font-family="Helvetica,sans-Serif" font-size="10.00"># _getDirectAddr()</text>
<text text-anchor="start" x="635.66" y="-701.5" font-family="Helvetica,sans-Serif" font-size="10.00"># _getAbsoluteAddr()</text>
<text text-anchor="start" x="635.66" y="-690.5" font-family="Helvetica,sans-Serif" font-size="10.00"># _getAbsoluteLongAddr()</text>
<text text-anchor="start" x="635.66" y="-679.5" font-family="Helvetica,sans-Serif" font-size="10.00"># _getDirectIndirectIndexed</text>
<text text-anchor="start" x="635.66" y="-668.5" font-family="Helvetica,sans-Serif" font-size="10.00">YAddr()</text>
<text text-anchor="start" x="635.66" y="-657.5" font-family="Helvetica,sans-Serif" font-size="10.00"># _getDirectIndirectIndexed</text>
<text text-anchor="start" x="635.66" y="-646.5" font-family="Helvetica,sans-Serif" font-size="10.00">YLongAddr()</text>
<text text-anchor="start" x="635.66" y="-635.5" font-family="Helvetica,sans-Serif" font-size="10.00"># _getDirectIndirectIndexed</text>
<text text-anchor="start" x="635.66" y="-624.5" font-family="Helvetica,sans-Serif" font-size="10.00">XAddr()</text>
<text text-anchor="start" x="635.66" y="-613.5" font-family="Helvetica,sans-Serif" font-size="10.00">and 113 more...</text>
</a>
</g>
</g>
<!-- Node4&#45;&gt;Node3 -->
<g id="edge3" class="edge">
<title>Node4&#45;&gt;Node3</title>
<path fill="none" stroke="midnightblue" d="M619.92,-606.21C619.83,-606.14 619.75,-606.07 619.66,-606 546.89,-547.33 491.84,-611.74 414.66,-559 399.67,-548.76 386.03,-535.97 373.76,-521.98"/>
<polygon fill="none" stroke="midnightblue" points="617.78,-608.99 627.64,-612.86 622.35,-603.68 617.78,-608.99"/>
</g>
<!-- Node5 -->
<g id="node5" class="node">
<title>Node5</title>
<g id="a_node5"><a xlink:href="classComSquare_1_1Memory_1_1AMemory.html" target="_top" xlink:title="Abstract class representing a continuous block of memory.">
<polygon fill="white" stroke="black" points="498.16,-1140.5 498.16,-1285.5 629.16,-1285.5 629.16,-1140.5 498.16,-1140.5"/>
<text text-anchor="start" x="506.16" y="-1273.5" font-family="Helvetica,sans-Serif" font-size="10.00">ComSquare::Memory::</text>
<text text-anchor="middle" x="563.66" y="-1262.5" font-family="Helvetica,sans-Serif" font-size="10.00">AMemory</text>
<polyline fill="none" stroke="black" points="498.16,-1255.5 629.16,-1255.5 "/>
<text text-anchor="start" x="506.16" y="-1243.5" font-family="Helvetica,sans-Serif" font-size="10.00"># _start</text>
<text text-anchor="start" x="506.16" y="-1232.5" font-family="Helvetica,sans-Serif" font-size="10.00"># _end</text>
<polyline fill="none" stroke="black" points="498.16,-1225.5 629.16,-1225.5 "/>
<text text-anchor="start" x="506.16" y="-1213.5" font-family="Helvetica,sans-Serif" font-size="10.00">+ getRelativeAddress()</text>
<text text-anchor="start" x="506.16" y="-1202.5" font-family="Helvetica,sans-Serif" font-size="10.00">+ setMemoryRegion()</text>
<text text-anchor="start" x="506.16" y="-1191.5" font-family="Helvetica,sans-Serif" font-size="10.00">+ hasMemoryAt()</text>
<text text-anchor="start" x="506.16" y="-1180.5" font-family="Helvetica,sans-Serif" font-size="10.00">+ isMirror()</text>
<text text-anchor="start" x="506.16" y="-1169.5" font-family="Helvetica,sans-Serif" font-size="10.00">+ getValueName()</text>
<text text-anchor="start" x="506.16" y="-1158.5" font-family="Helvetica,sans-Serif" font-size="10.00">+ getMirrored()</text>
<text text-anchor="start" x="506.16" y="-1147.5" font-family="Helvetica,sans-Serif" font-size="10.00">+ ~AMemory()</text>
</a>
</g>
</g>
<!-- Node5&#45;&gt;Node4 -->
<g id="edge4" class="edge">
<title>Node5&#45;&gt;Node4</title>
<path fill="none" stroke="midnightblue" d="M596.5,-1130.65C607.62,-1103.09 620.62,-1070.88 633.94,-1037.88"/>
<polygon fill="none" stroke="midnightblue" points="593.14,-1129.61 592.64,-1140.2 599.63,-1132.23 593.14,-1129.61"/>
</g>
<!-- Node6 -->
<g id="node6" class="node">
<title>Node6</title>
<g id="a_node6"><a xlink:href="classComSquare_1_1Memory_1_1IMemory.html" target="_top" xlink:title="Common interface implemented by all components mapping memory.">
<polygon fill="white" stroke="black" points="498.16,-1399.5 498.16,-1577.5 629.16,-1577.5 629.16,-1399.5 498.16,-1399.5"/>
<text text-anchor="start" x="506.16" y="-1565.5" font-family="Helvetica,sans-Serif" font-size="10.00">ComSquare::Memory::</text>
<text text-anchor="middle" x="563.66" y="-1554.5" font-family="Helvetica,sans-Serif" font-size="10.00">IMemory</text>
<polyline fill="none" stroke="black" points="498.16,-1547.5 629.16,-1547.5 "/>
<text text-anchor="middle" x="563.66" y="-1535.5" font-family="Helvetica,sans-Serif" font-size="10.00"> </text>
<polyline fill="none" stroke="black" points="498.16,-1528.5 629.16,-1528.5 "/>
<text text-anchor="start" x="506.16" y="-1516.5" font-family="Helvetica,sans-Serif" font-size="10.00">+ read()</text>
<text text-anchor="start" x="506.16" y="-1505.5" font-family="Helvetica,sans-Serif" font-size="10.00">+ write()</text>
<text text-anchor="start" x="506.16" y="-1494.5" font-family="Helvetica,sans-Serif" font-size="10.00">+ hasMemoryAt()</text>
<text text-anchor="start" x="506.16" y="-1483.5" font-family="Helvetica,sans-Serif" font-size="10.00">+ getRelativeAddress()</text>
<text text-anchor="start" x="506.16" y="-1472.5" font-family="Helvetica,sans-Serif" font-size="10.00">+ getSize()</text>
<text text-anchor="start" x="506.16" y="-1461.5" font-family="Helvetica,sans-Serif" font-size="10.00">+ isMirror()</text>
<text text-anchor="start" x="506.16" y="-1450.5" font-family="Helvetica,sans-Serif" font-size="10.00">+ getName()</text>
<text text-anchor="start" x="506.16" y="-1439.5" font-family="Helvetica,sans-Serif" font-size="10.00">+ getComponent()</text>
<text text-anchor="start" x="506.16" y="-1428.5" font-family="Helvetica,sans-Serif" font-size="10.00">+ getValueName()</text>
<text text-anchor="start" x="506.16" y="-1417.5" font-family="Helvetica,sans-Serif" font-size="10.00">+ getMirrored()</text>
<text text-anchor="start" x="506.16" y="-1406.5" font-family="Helvetica,sans-Serif" font-size="10.00">+ ~IMemory()</text>
</a>
</g>
</g>
<!-- Node6&#45;&gt;Node5 -->
<g id="edge5" class="edge">
<title>Node6&#45;&gt;Node5</title>
<path fill="none" stroke="midnightblue" d="M563.66,-1389.45C563.66,-1355.26 563.66,-1317.55 563.66,-1285.89"/>
<polygon fill="none" stroke="midnightblue" points="560.16,-1389.46 563.66,-1399.46 567.16,-1389.46 560.16,-1389.46"/>
</g>
<!-- Node7 -->
<g id="node7" class="node">
<title>Node7</title>
<g id="a_node7"><a xlink:href="structComSquare_1_1Cartridge_1_1Header.html" target="_top" xlink:title=" ">
<polygon fill="white" stroke="black" points="647.66,-1085.5 647.66,-1340.5 793.66,-1340.5 793.66,-1085.5 647.66,-1085.5"/>
<text text-anchor="start" x="655.66" y="-1328.5" font-family="Helvetica,sans-Serif" font-size="10.00">ComSquare::Cartridge</text>
<text text-anchor="middle" x="720.66" y="-1317.5" font-family="Helvetica,sans-Serif" font-size="10.00">::Header</text>
<polyline fill="none" stroke="black" points="647.66,-1310.5 793.66,-1310.5 "/>
<text text-anchor="start" x="655.66" y="-1298.5" font-family="Helvetica,sans-Serif" font-size="10.00">+ gameName</text>
<text text-anchor="start" x="655.66" y="-1287.5" font-family="Helvetica,sans-Serif" font-size="10.00">+ mappingMode</text>
<text text-anchor="start" x="655.66" y="-1276.5" font-family="Helvetica,sans-Serif" font-size="10.00">+ romType</text>
<text text-anchor="start" x="655.66" y="-1265.5" font-family="Helvetica,sans-Serif" font-size="10.00">+ romSize</text>
<text text-anchor="start" x="655.66" y="-1254.5" font-family="Helvetica,sans-Serif" font-size="10.00">+ sramSize</text>
<text text-anchor="start" x="655.66" y="-1243.5" font-family="Helvetica,sans-Serif" font-size="10.00">+ creatorIDs</text>
<text text-anchor="start" x="655.66" y="-1232.5" font-family="Helvetica,sans-Serif" font-size="10.00">+ creatorID</text>
<text text-anchor="start" x="655.66" y="-1221.5" font-family="Helvetica,sans-Serif" font-size="10.00">+ @21</text>
<text text-anchor="start" x="655.66" y="-1210.5" font-family="Helvetica,sans-Serif" font-size="10.00">+ version</text>
<text text-anchor="start" x="655.66" y="-1199.5" font-family="Helvetica,sans-Serif" font-size="10.00">+ checksumComplements</text>
<text text-anchor="start" x="655.66" y="-1188.5" font-family="Helvetica,sans-Serif" font-size="10.00">+ checksumComplement</text>
<text text-anchor="start" x="655.66" y="-1177.5" font-family="Helvetica,sans-Serif" font-size="10.00">+ @23</text>
<text text-anchor="start" x="655.66" y="-1166.5" font-family="Helvetica,sans-Serif" font-size="10.00">+ checksums</text>
<text text-anchor="start" x="655.66" y="-1155.5" font-family="Helvetica,sans-Serif" font-size="10.00">+ checksum</text>
<text text-anchor="start" x="655.66" y="-1144.5" font-family="Helvetica,sans-Serif" font-size="10.00">+ @25</text>
<polyline fill="none" stroke="black" points="647.66,-1137.5 793.66,-1137.5 "/>
<text text-anchor="start" x="655.66" y="-1125.5" font-family="Helvetica,sans-Serif" font-size="10.00">+ Header()</text>
<text text-anchor="start" x="655.66" y="-1114.5" font-family="Helvetica,sans-Serif" font-size="10.00">+ Header()</text>
<text text-anchor="start" x="655.66" y="-1103.5" font-family="Helvetica,sans-Serif" font-size="10.00">+ operator=()</text>
<text text-anchor="start" x="655.66" y="-1092.5" font-family="Helvetica,sans-Serif" font-size="10.00">+ ~Header()</text>
</a>
</g>
</g>
<!-- Node7&#45;&gt;Node4 -->
<g id="edge6" class="edge">
<title>Node7&#45;&gt;Node4</title>
<path fill="none" stroke="#404040" d="M720.66,-1085.43C720.66,-1073.87 720.66,-1061.95 720.66,-1049.85"/>
<polygon fill="none" stroke="#404040" points="720.66,-1049.7 716.66,-1043.7 720.66,-1037.7 724.66,-1043.7 720.66,-1049.7"/>
<text text-anchor="middle" x="768.66" y="-1059" font-family="Helvetica,sans-Serif" font-size="10.00"> #_cartridgeHeader</text>
</g>
<!-- Node8 -->
<g id="node8" class="node">
<title>Node8</title>
<g id="a_node8"><a xlink:href="structComSquare_1_1Cartridge_1_1InterruptVectors.html" target="_top" xlink:title=" ">
<polygon fill="white" stroke="black" points="658.66,-1399.5 658.66,-1577.5 782.66,-1577.5 782.66,-1399.5 658.66,-1399.5"/>
<text text-anchor="start" x="666.66" y="-1565.5" font-family="Helvetica,sans-Serif" font-size="10.00">ComSquare::Cartridge</text>
<text text-anchor="middle" x="720.66" y="-1554.5" font-family="Helvetica,sans-Serif" font-size="10.00">::InterruptVectors</text>
<polyline fill="none" stroke="black" points="658.66,-1547.5 782.66,-1547.5 "/>
<text text-anchor="start" x="666.66" y="-1535.5" font-family="Helvetica,sans-Serif" font-size="10.00">+ cop8</text>
<text text-anchor="start" x="666.66" y="-1524.5" font-family="Helvetica,sans-Serif" font-size="10.00">+ cop</text>
<text text-anchor="start" x="666.66" y="-1513.5" font-family="Helvetica,sans-Serif" font-size="10.00">+ @27</text>
<text text-anchor="start" x="666.66" y="-1502.5" font-family="Helvetica,sans-Serif" font-size="10.00">+ brk8</text>
<text text-anchor="start" x="666.66" y="-1491.5" font-family="Helvetica,sans-Serif" font-size="10.00">+ brk</text>
<text text-anchor="start" x="666.66" y="-1480.5" font-family="Helvetica,sans-Serif" font-size="10.00">+ @29</text>
<text text-anchor="start" x="666.66" y="-1469.5" font-family="Helvetica,sans-Serif" font-size="10.00">+ abort8</text>
<text text-anchor="start" x="666.66" y="-1458.5" font-family="Helvetica,sans-Serif" font-size="10.00">+ abort</text>
<text text-anchor="start" x="666.66" y="-1447.5" font-family="Helvetica,sans-Serif" font-size="10.00">+ @31</text>
<text text-anchor="start" x="666.66" y="-1436.5" font-family="Helvetica,sans-Serif" font-size="10.00">+ nmi8</text>
<text text-anchor="start" x="666.66" y="-1425.5" font-family="Helvetica,sans-Serif" font-size="10.00">and 8 more...</text>
<polyline fill="none" stroke="black" points="658.66,-1418.5 782.66,-1418.5 "/>
<text text-anchor="middle" x="720.66" y="-1406.5" font-family="Helvetica,sans-Serif" font-size="10.00"> </text>
</a>
</g>
</g>
<!-- Node8&#45;&gt;Node7 -->
<g id="edge7" class="edge">
<title>Node8&#45;&gt;Node7</title>
<path fill="none" stroke="#404040" d="M720.66,-1399.46C720.66,-1384.52 720.66,-1368.7 720.66,-1352.84"/>
<polygon fill="none" stroke="#404040" points="720.66,-1352.72 716.66,-1346.72 720.66,-1340.72 724.66,-1346.72 720.66,-1352.72"/>
<text text-anchor="middle" x="775.16" y="-1373" font-family="Helvetica,sans-Serif" font-size="10.00"> +emulationInterrupts</text>
<text text-anchor="middle" x="775.16" y="-1362" font-family="Helvetica,sans-Serif" font-size="10.00">+nativeInterrupts</text>
</g>
<!-- Node9 -->
<g id="node9" class="node">
<title>Node9</title>
<g id="a_node9"><a xlink:href="structComSquare_1_1CPU_1_1Instruction.html" target="_top" xlink:title="Struct containing basic information about instructions.">
<polygon fill="white" stroke="black" points="812.16,-1162.5 812.16,-1263.5 969.16,-1263.5 969.16,-1162.5 812.16,-1162.5"/>
<text text-anchor="middle" x="890.66" y="-1251.5" font-family="Helvetica,sans-Serif" font-size="10.00">ComSquare::CPU::Instruction</text>
<polyline fill="none" stroke="black" points="812.16,-1244.5 969.16,-1244.5 "/>
<text text-anchor="start" x="820.16" y="-1232.5" font-family="Helvetica,sans-Serif" font-size="10.00">+ call</text>
<text text-anchor="start" x="820.16" y="-1221.5" font-family="Helvetica,sans-Serif" font-size="10.00">+ cycleCount</text>
<text text-anchor="start" x="820.16" y="-1210.5" font-family="Helvetica,sans-Serif" font-size="10.00">+ name</text>
<text text-anchor="start" x="820.16" y="-1199.5" font-family="Helvetica,sans-Serif" font-size="10.00">+ addressingMode</text>
<text text-anchor="start" x="820.16" y="-1188.5" font-family="Helvetica,sans-Serif" font-size="10.00">+ size</text>
<polyline fill="none" stroke="black" points="812.16,-1181.5 969.16,-1181.5 "/>
<text text-anchor="middle" x="890.66" y="-1169.5" font-family="Helvetica,sans-Serif" font-size="10.00"> </text>
</a>
</g>
</g>
<!-- Node9&#45;&gt;Node4 -->
<g id="edge8" class="edge">
<title>Node9&#45;&gt;Node4</title>
<path fill="none" stroke="#404040" d="M868.96,-1162.34C855.63,-1131.84 837.52,-1090.39 818.53,-1046.93"/>
<polygon fill="none" stroke="#404040" points="818.49,-1046.84 812.42,-1042.94 813.68,-1035.84 819.75,-1039.74 818.49,-1046.84"/>
<text text-anchor="middle" x="862.66" y="-1059" font-family="Helvetica,sans-Serif" font-size="10.00"> #_instructions</text>
</g>
<!-- Node10 -->
<g id="node10" class="node">
<title>Node10</title>
<g id="a_node10"><a xlink:href="structComSquare_1_1CPU_1_1InternalRegisters.html" target="_top" xlink:title="Struct containing internal registers of the CPU.">
<polygon fill="white" stroke="black" points="987.16,-1124 987.16,-1302 1130.16,-1302 1130.16,-1124 987.16,-1124"/>
<text text-anchor="start" x="995.16" y="-1290" font-family="Helvetica,sans-Serif" font-size="10.00">ComSquare::CPU::Internal</text>
<text text-anchor="middle" x="1058.66" y="-1279" font-family="Helvetica,sans-Serif" font-size="10.00">Registers</text>
<polyline fill="none" stroke="black" points="987.16,-1272 1130.16,-1272 "/>
<text text-anchor="start" x="995.16" y="-1260" font-family="Helvetica,sans-Serif" font-size="10.00">+ nmitimen</text>
<text text-anchor="start" x="995.16" y="-1249" font-family="Helvetica,sans-Serif" font-size="10.00">+ wrio</text>
<text text-anchor="start" x="995.16" y="-1238" font-family="Helvetica,sans-Serif" font-size="10.00">+ wrmpya</text>
<text text-anchor="start" x="995.16" y="-1227" font-family="Helvetica,sans-Serif" font-size="10.00">+ wrmpyb</text>
<text text-anchor="start" x="995.16" y="-1216" font-family="Helvetica,sans-Serif" font-size="10.00">+ wrdivl</text>
<text text-anchor="start" x="995.16" y="-1205" font-family="Helvetica,sans-Serif" font-size="10.00">+ wrdivh</text>
<text text-anchor="start" x="995.16" y="-1194" font-family="Helvetica,sans-Serif" font-size="10.00">+ wrdivb</text>
<text text-anchor="start" x="995.16" y="-1183" font-family="Helvetica,sans-Serif" font-size="10.00">+ htimel</text>
<text text-anchor="start" x="995.16" y="-1172" font-family="Helvetica,sans-Serif" font-size="10.00">+ htimeh</text>
<text text-anchor="start" x="995.16" y="-1161" font-family="Helvetica,sans-Serif" font-size="10.00">+ vtimel</text>
<text text-anchor="start" x="995.16" y="-1150" font-family="Helvetica,sans-Serif" font-size="10.00">and 19 more...</text>
<polyline fill="none" stroke="black" points="987.16,-1143 1130.16,-1143 "/>
<text text-anchor="middle" x="1058.66" y="-1131" font-family="Helvetica,sans-Serif" font-size="10.00"> </text>
</a>
</g>
</g>
<!-- Node10&#45;&gt;Node4 -->
<g id="edge9" class="edge">
<title>Node10&#45;&gt;Node4</title>
<path fill="none" stroke="#404040" d="M1006.64,-1123.87C997.76,-1110.52 988.29,-1097.15 978.66,-1085 931.45,-1025.4 872.33,-964.55 822.6,-916.51"/>
<polygon fill="none" stroke="#404040" points="822.39,-916.32 815.3,-915.04 813.74,-908 820.84,-909.27 822.39,-916.32"/>
<text text-anchor="middle" x="1009.66" y="-1059" font-family="Helvetica,sans-Serif" font-size="10.00"> #_internalRegisters</text>
</g>
<!-- Node11 -->
<g id="node11" class="node">
<title>Node11</title>
<g id="a_node11"><a xlink:href="structComSquare_1_1CPU_1_1Registers.html" target="_top" xlink:title="Struct containing registers for the main CPU.">
<polygon fill="white" stroke="black" points="329.16,-1129.5 329.16,-1296.5 480.16,-1296.5 480.16,-1129.5 329.16,-1129.5"/>
<text text-anchor="middle" x="404.66" y="-1284.5" font-family="Helvetica,sans-Serif" font-size="10.00">ComSquare::CPU::Registers</text>
<polyline fill="none" stroke="black" points="329.16,-1277.5 480.16,-1277.5 "/>
<text text-anchor="start" x="337.16" y="-1265.5" font-family="Helvetica,sans-Serif" font-size="10.00">+ al</text>
<text text-anchor="start" x="337.16" y="-1254.5" font-family="Helvetica,sans-Serif" font-size="10.00">+ ah</text>
<text text-anchor="start" x="337.16" y="-1243.5" font-family="Helvetica,sans-Serif" font-size="10.00">+ a</text>
<text text-anchor="start" x="337.16" y="-1232.5" font-family="Helvetica,sans-Serif" font-size="10.00">+ @39</text>
<text text-anchor="start" x="337.16" y="-1221.5" font-family="Helvetica,sans-Serif" font-size="10.00">+ dbr</text>
<text text-anchor="start" x="337.16" y="-1210.5" font-family="Helvetica,sans-Serif" font-size="10.00">+ dl</text>
<text text-anchor="start" x="337.16" y="-1199.5" font-family="Helvetica,sans-Serif" font-size="10.00">+ dh</text>
<text text-anchor="start" x="337.16" y="-1188.5" font-family="Helvetica,sans-Serif" font-size="10.00">+ d</text>
<text text-anchor="start" x="337.16" y="-1177.5" font-family="Helvetica,sans-Serif" font-size="10.00">+ @41</text>
<text text-anchor="start" x="337.16" y="-1166.5" font-family="Helvetica,sans-Serif" font-size="10.00">+ pcl</text>
<text text-anchor="start" x="337.16" y="-1155.5" font-family="Helvetica,sans-Serif" font-size="10.00">and 27 more...</text>
<polyline fill="none" stroke="black" points="329.16,-1148.5 480.16,-1148.5 "/>
<text text-anchor="middle" x="404.66" y="-1136.5" font-family="Helvetica,sans-Serif" font-size="10.00"> </text>
</a>
</g>
</g>
<!-- Node11&#45;&gt;Node4 -->
<g id="edge10" class="edge">
<title>Node11&#45;&gt;Node4</title>
<path fill="none" stroke="#404040" d="M449.73,-1129.31C461.2,-1113.15 474.62,-1097.4 489.66,-1085 515.33,-1063.84 527.33,-1067.17 558.66,-1056 582.17,-1047.62 595,-1054.36 617.79,-1038.5"/>
<polygon fill="none" stroke="#404040" points="618.02,-1038.32 620.26,-1031.47 627.45,-1030.9 625.21,-1037.76 618.02,-1038.32"/>
<text text-anchor="middle" x="588.66" y="-1059" font-family="Helvetica,sans-Serif" font-size="10.00"> #_registers</text>
</g>
<!-- Node12 -->
<g id="node12" class="node">
<title>Node12</title>
<g id="a_node12"><a xlink:title=" ">
<polygon fill="white" stroke="#bfbfbf" points="66.66,-793.5 66.66,-850.5 122.66,-850.5 122.66,-793.5 66.66,-793.5"/>
<text text-anchor="middle" x="94.66" y="-838.5" font-family="Helvetica,sans-Serif" font-size="10.00">QObject</text>
<polyline fill="none" stroke="#bfbfbf" points="66.66,-831.5 122.66,-831.5 "/>
<text text-anchor="middle" x="94.66" y="-819.5" font-family="Helvetica,sans-Serif" font-size="10.00"> </text>
<polyline fill="none" stroke="#bfbfbf" points="66.66,-812.5 122.66,-812.5 "/>
<text text-anchor="middle" x="94.66" y="-800.5" font-family="Helvetica,sans-Serif" font-size="10.00"> </text>
</a>
</g>
</g>
<!-- Node12&#45;&gt;Node3 -->
<g id="edge11" class="edge">
<title>Node12&#45;&gt;Node3</title>
<path fill="none" stroke="midnightblue" d="M95.96,-783.41C98.63,-739.32 106.8,-664.77 131.66,-606 152.11,-557.68 184.79,-509.9 215.54,-470.99"/>
<polygon fill="none" stroke="midnightblue" points="92.47,-783.23 95.42,-793.41 99.46,-783.61 92.47,-783.23"/>
</g>
<!-- Node13 -->
<g id="node13" class="node">
<title>Node13</title>
<g id="a_node13"><a xlink:href="classComSquare_1_1SNES.html" target="_top" xlink:title="Container of all the components of the SNES.">
<polygon fill="white" stroke="black" points="423.16,-705.5 423.16,-938.5 610.16,-938.5 610.16,-705.5 423.16,-705.5"/>
<text text-anchor="middle" x="516.66" y="-926.5" font-family="Helvetica,sans-Serif" font-size="10.00">ComSquare::SNES</text>
<polyline fill="none" stroke="black" points="423.16,-919.5 610.16,-919.5 "/>
<text text-anchor="start" x="431.16" y="-907.5" font-family="Helvetica,sans-Serif" font-size="10.00">+ bus</text>
<text text-anchor="start" x="431.16" y="-896.5" font-family="Helvetica,sans-Serif" font-size="10.00">+ cartridge</text>
<text text-anchor="start" x="431.16" y="-885.5" font-family="Helvetica,sans-Serif" font-size="10.00">+ wram</text>
<text text-anchor="start" x="431.16" y="-874.5" font-family="Helvetica,sans-Serif" font-size="10.00">+ sram</text>
<text text-anchor="start" x="431.16" y="-863.5" font-family="Helvetica,sans-Serif" font-size="10.00">+ cpu</text>
<text text-anchor="start" x="431.16" y="-852.5" font-family="Helvetica,sans-Serif" font-size="10.00">+ ppu</text>
<text text-anchor="start" x="431.16" y="-841.5" font-family="Helvetica,sans-Serif" font-size="10.00">+ apu</text>
<polyline fill="none" stroke="black" points="423.16,-834.5 610.16,-834.5 "/>
<text text-anchor="start" x="431.16" y="-822.5" font-family="Helvetica,sans-Serif" font-size="10.00">+ update()</text>
<text text-anchor="start" x="431.16" y="-811.5" font-family="Helvetica,sans-Serif" font-size="10.00">+ disableCPUDebugging()</text>
<text text-anchor="start" x="431.16" y="-800.5" font-family="Helvetica,sans-Serif" font-size="10.00">+ enableCPUDebugging()</text>
<text text-anchor="start" x="431.16" y="-789.5" font-family="Helvetica,sans-Serif" font-size="10.00">+ enableCPUDebuggingWithError()</text>
<text text-anchor="start" x="431.16" y="-778.5" font-family="Helvetica,sans-Serif" font-size="10.00">+ disableRamViewer()</text>
<text text-anchor="start" x="431.16" y="-767.5" font-family="Helvetica,sans-Serif" font-size="10.00">+ enableRamViewer()</text>
<text text-anchor="start" x="431.16" y="-756.5" font-family="Helvetica,sans-Serif" font-size="10.00">+ disableHeaderViewer()</text>
<text text-anchor="start" x="431.16" y="-745.5" font-family="Helvetica,sans-Serif" font-size="10.00">+ enableHeaderViewer()</text>
<text text-anchor="start" x="431.16" y="-734.5" font-family="Helvetica,sans-Serif" font-size="10.00">+ disableAPUDebugging()</text>
<text text-anchor="start" x="431.16" y="-723.5" font-family="Helvetica,sans-Serif" font-size="10.00">+ enableAPUDebugging()</text>
<text text-anchor="start" x="431.16" y="-712.5" font-family="Helvetica,sans-Serif" font-size="10.00">and 10 more...</text>
</a>
</g>
</g>
<!-- Node13&#45;&gt;Node3 -->
<g id="edge12" class="edge">
<title>Node13&#45;&gt;Node3</title>
<path fill="none" stroke="#404040" d="M463.06,-705.28C447.75,-672.99 430.83,-637.99 414.66,-606 403.48,-583.86 391.4,-560.64 379.37,-537.89"/>
<polygon fill="none" stroke="#404040" points="379.29,-537.72 372.94,-534.3 373.66,-527.12 380.01,-530.55 379.29,-537.72"/>
<text text-anchor="middle" x="422.16" y="-580" font-family="Helvetica,sans-Serif" font-size="10.00"> &#45;_snes</text>
</g>
<!-- Node14&#45;&gt;Node3 -->
<g id="edge13" class="edge">
<title>Node14&#45;&gt;Node3</title>
<path fill="none" stroke="#404040" d="M123.23,-145.66C131.8,-159.19 140.86,-173.13 149.66,-186 168.08,-212.94 188.63,-241.39 208.34,-267.97"/>
<polygon fill="none" stroke="#404040" points="208.39,-268.04 215.18,-270.47 215.56,-277.67 208.77,-275.25 208.39,-268.04"/>
<text text-anchor="middle" x="184.16" y="-172.5" font-family="Helvetica,sans-Serif" font-size="10.00"> &#45;_stackModel</text>
</g>
<!-- Node15&#45;&gt;Node3 -->
<g id="edge16" class="edge">
<title>Node15&#45;&gt;Node3</title>
<path fill="none" stroke="#404040" d="M368.82,-134.66C361.24,-143.93 354.23,-153.82 348.66,-164 343.6,-173.26 339,-183 334.82,-193.02"/>
<polygon fill="none" stroke="#404040" points="334.72,-193.28 336.22,-200.33 330.29,-204.43 328.79,-197.37 334.72,-193.28"/>
<text text-anchor="middle" x="373.66" y="-172.5" font-family="Helvetica,sans-Serif" font-size="10.00"> &#45;_window</text>
</g>
<!-- Node16 -->
<g id="node16" class="node">
<title>Node16</title>
<g id="a_node16"><a xlink:title=" ">
<polygon fill="white" stroke="#bfbfbf" points="564.16,-353 564.16,-410 651.16,-410 651.16,-353 564.16,-353"/>
<text text-anchor="middle" x="607.66" y="-398" font-family="Helvetica,sans-Serif" font-size="10.00">QMainWindow</text>
<polyline fill="none" stroke="#bfbfbf" points="564.16,-391 651.16,-391 "/>
<text text-anchor="middle" x="607.66" y="-379" font-family="Helvetica,sans-Serif" font-size="10.00"> </text>
<polyline fill="none" stroke="#bfbfbf" points="564.16,-372 651.16,-372 "/>
<text text-anchor="middle" x="607.66" y="-360" font-family="Helvetica,sans-Serif" font-size="10.00"> </text>
</a>
</g>
</g>
<!-- Node16&#45;&gt;Node15 -->
<g id="edge17" class="edge">
<title>Node16&#45;&gt;Node15</title>
<path fill="none" stroke="midnightblue" d="M601.57,-343.04C594.38,-305.89 580.05,-248.27 554.66,-204 540.4,-179.12 520.53,-155.17 501.01,-134.74"/>
<polygon fill="none" stroke="midnightblue" points="598.14,-343.76 603.41,-352.95 605.02,-342.48 598.14,-343.76"/>
</g>
<!-- Node17&#45;&gt;Node3 -->
<g id="edge20" class="edge">
<title>Node17&#45;&gt;Node3</title>
<path fill="none" stroke="#404040" d="M243.76,-123.61C236.32,-136.17 229.58,-150.07 225.66,-164 223.05,-173.28 221.57,-182.76 221.02,-192.32"/>
<polygon fill="none" stroke="#404040" points="221.02,-192.46 224.92,-198.52 220.81,-204.46 216.92,-198.39 221.02,-192.46"/>
<text text-anchor="middle" x="249.16" y="-172.5" font-family="Helvetica,sans-Serif" font-size="10.00"> &#45;_painter</text>
</g>
<!-- Node18 -->
<g id="node18" class="node">
<title>Node18</title>
<g id="a_node18"><a xlink:title=" ">
<polygon fill="white" stroke="#bfbfbf" points="423.66,-353 423.66,-410 545.66,-410 545.66,-353 423.66,-353"/>
<text text-anchor="middle" x="484.66" y="-398" font-family="Helvetica,sans-Serif" font-size="10.00">QStyledItemDelegate</text>
<polyline fill="none" stroke="#bfbfbf" points="423.66,-391 545.66,-391 "/>
<text text-anchor="middle" x="484.66" y="-379" font-family="Helvetica,sans-Serif" font-size="10.00"> </text>
<polyline fill="none" stroke="#bfbfbf" points="423.66,-372 545.66,-372 "/>
<text text-anchor="middle" x="484.66" y="-360" font-family="Helvetica,sans-Serif" font-size="10.00"> </text>
</a>
</g>
</g>
<!-- Node18&#45;&gt;Node17 -->
<g id="edge21" class="edge">
<title>Node18&#45;&gt;Node17</title>
<path fill="none" stroke="midnightblue" d="M492.68,-342.83C500.53,-294.53 505.51,-211.37 459.66,-164 421.85,-124.93 385.84,-173.02 338.66,-146 328.77,-140.34 319.91,-132.27 312.26,-123.58"/>
<polygon fill="none" stroke="midnightblue" points="489.19,-342.42 490.92,-352.87 496.09,-343.63 489.19,-342.42"/>
</g>
<!-- Node19&#45;&gt;Node3 -->
<g id="edge23" class="edge">
<title>Node19&#45;&gt;Node3</title>
<path fill="none" stroke="#404040" d="M196.02,-743.96C197.7,-695.46 202.59,-631.89 215.66,-577 216.19,-574.8 216.73,-572.6 217.3,-570.39"/>
<polygon fill="none" stroke="#404040" points="217.37,-570.1 215.07,-563.27 220.49,-558.51 222.79,-565.34 217.37,-570.1"/>
<text text-anchor="middle" x="253.66" y="-580" font-family="Helvetica,sans-Serif" font-size="10.00"> &#45;_historyModel</text>
</g>
</g>
</svg>
