<?xml version="1.0" encoding="UTF-8" standalone="no"?>
<!DOCTYPE svg PUBLIC "-//W3C//DTD SVG 1.1//EN"
 "http://www.w3.org/Graphics/SVG/1.1/DTD/svg11.dtd">
<!-- Generated by graphviz version 2.43.0 (0)
 -->
<!-- Title: ComSquare::Debugger::RegisterViewer Pages: 1 -->
<svg width="340pt" height="617pt"
 viewBox="0.00 0.00 340.00 617.00" xmlns="http://www.w3.org/2000/svg" xmlns:xlink="http://www.w3.org/1999/xlink">
<g id="graph0" class="graph" transform="scale(1 1) rotate(0) translate(4 613)">
<title>ComSquare::Debugger::RegisterViewer</title>
<polygon fill="white" stroke="transparent" points="-4,4 -4,-613 336,-613 336,4 -4,4"/>
<!-- Node1 -->
<g id="node1" class="node">
<title>Node1</title>
<g id="a_node1"><a xlink:title=" ">
<polygon fill="#bfbfbf" stroke="black" points="105.5,-182.5 105.5,-327.5 231.5,-327.5 231.5,-182.5 105.5,-182.5"/>
<text text-anchor="start" x="113.5" y="-315.5" font-family="Helvetica,sans-Serif" font-size="10.00">ComSquare::Debugger</text>
<text text-anchor="middle" x="168.5" y="-304.5" font-family="Helvetica,sans-Serif" font-size="10.00">::RegisterViewer</text>
<polyline fill="none" stroke="black" points="105.5,-297.5 231.5,-297.5 "/>
<text text-anchor="start" x="113.5" y="-285.5" font-family="Helvetica,sans-Serif" font-size="10.00">&#45; _ui</text>
<text text-anchor="start" x="113.5" y="-274.5" font-family="Helvetica,sans-Serif" font-size="10.00">&#45; _models</text>
<polyline fill="none" stroke="black" points="105.5,-267.5 231.5,-267.5 "/>
<text text-anchor="start" x="113.5" y="-255.5" font-family="Helvetica,sans-Serif" font-size="10.00">+ disableDebugger()</text>
<text text-anchor="start" x="113.5" y="-244.5" font-family="Helvetica,sans-Serif" font-size="10.00">+ RegisterViewer()</text>
<text text-anchor="start" x="113.5" y="-233.5" font-family="Helvetica,sans-Serif" font-size="10.00">+ RegisterViewer()</text>
<text text-anchor="start" x="113.5" y="-222.5" font-family="Helvetica,sans-Serif" font-size="10.00">+ operator=()</text>
<text text-anchor="start" x="113.5" y="-211.5" font-family="Helvetica,sans-Serif" font-size="10.00">+ ~RegisterViewer()</text>
<text text-anchor="start" x="113.5" y="-200.5" font-family="Helvetica,sans-Serif" font-size="10.00">+ focus()</text>
<text text-anchor="start" x="113.5" y="-189.5" font-family="Helvetica,sans-Serif" font-size="10.00">&#45; _setupUi()</text>
</a>
</g>
</g>
<!-- Node4 -->
<g id="node4" class="node">
<title>Node4</title>
<g id="a_node4"><a xlink:href="classComSquare_1_1Debugger_1_1ClosableWindow.html" target="_top" xlink:title=" ">
<polygon fill="white" stroke="black" points="11,-0.5 11,-123.5 182,-123.5 182,-0.5 11,-0.5"/>
<text text-anchor="start" x="19" y="-111.5" font-family="Helvetica,sans-Serif" font-size="10.00">ComSquare::Debugger</text>
<text text-anchor="start" x="19" y="-100.5" font-family="Helvetica,sans-Serif" font-size="10.00">::ClosableWindow&lt; ComSquare</text>
<text text-anchor="middle" x="96.5" y="-89.5" font-family="Helvetica,sans-Serif" font-size="10.00">::Debugger::RegisterViewer &gt;</text>
<polyline fill="none" stroke="black" points="11,-82.5 182,-82.5 "/>
<text text-anchor="middle" x="96.5" y="-70.5" font-family="Helvetica,sans-Serif" font-size="10.00"> </text>
<polyline fill="none" stroke="black" points="11,-63.5 182,-63.5 "/>
<text text-anchor="start" x="19" y="-51.5" font-family="Helvetica,sans-Serif" font-size="10.00">+ ClosableWindow()</text>
<text text-anchor="start" x="19" y="-40.5" font-family="Helvetica,sans-Serif" font-size="10.00">+ ClosableWindow()</text>
<text text-anchor="start" x="19" y="-29.5" font-family="Helvetica,sans-Serif" font-size="10.00">+ operator=()</text>
<text text-anchor="start" x="19" y="-18.5" font-family="Helvetica,sans-Serif" font-size="10.00">+ ~ClosableWindow()</text>
<text text-anchor="start" x="19" y="-7.5" font-family="Helvetica,sans-Serif" font-size="10.00"># closeEvent()</text>
</a>
</g>
</g>
<!-- Node1&#45;&gt;Node4 -->
<g id="edge5" class="edge">
<title>Node1&#45;&gt;Node4</title>
<path fill="none" stroke="#404040" d="M105.49,-188.11C100.67,-180.41 96.51,-172.32 93.5,-164 90.29,-155.13 88.56,-145.52 87.83,-135.89"/>
<polygon fill="none" stroke="#404040" points="87.82,-135.71 83.62,-129.86 87.41,-123.72 91.61,-129.58 87.82,-135.71"/>
<text text-anchor="middle" x="118" y="-156" font-family="Helvetica,sans-Serif" font-size="10.00"> &#45;_obj</text>
<text text-anchor="middle" x="118" y="-145" font-family="Helvetica,sans-Serif" font-size="10.00">&#45;_onClose</text>
</g>
<!-- Node2 -->
<g id="node2" class="node">
<title>Node2</title>
<g id="a_node2"><a xlink:title=" ">
<polygon fill="white" stroke="#bfbfbf" points="70.5,-463.5 70.5,-520.5 126.5,-520.5 126.5,-463.5 70.5,-463.5"/>
<text text-anchor="middle" x="98.5" y="-508.5" font-family="Helvetica,sans-Serif" font-size="10.00">QObject</text>
<polyline fill="none" stroke="#bfbfbf" points="70.5,-501.5 126.5,-501.5 "/>
<text text-anchor="middle" x="98.5" y="-489.5" font-family="Helvetica,sans-Serif" font-size="10.00"> </text>
<polyline fill="none" stroke="#bfbfbf" points="70.5,-482.5 126.5,-482.5 "/>
<text text-anchor="middle" x="98.5" y="-470.5" font-family="Helvetica,sans-Serif" font-size="10.00"> </text>
</a>
</g>
</g>
<!-- Node2&#45;&gt;Node1 -->
<g id="edge1" class="edge">
<title>Node2&#45;&gt;Node1</title>
<path fill="none" stroke="midnightblue" d="M109.76,-453.19C119.83,-419.4 134.85,-368.96 147.18,-327.56"/>
<polygon fill="none" stroke="midnightblue" points="106.31,-452.54 106.8,-463.12 113.01,-454.53 106.31,-452.54"/>
</g>
<!-- Node3 -->
<g id="node3" class="node">
<title>Node3</title>
<g id="a_node3"><a xlink:href="classComSquare_1_1SNES.html" target="_top" xlink:title="Container of all the components of the SNES.">
<polygon fill="white" stroke="black" points="145,-375.5 145,-608.5 332,-608.5 332,-375.5 145,-375.5"/>
<text text-anchor="middle" x="238.5" y="-596.5" font-family="Helvetica,sans-Serif" font-size="10.00">ComSquare::SNES</text>
<polyline fill="none" stroke="black" points="145,-589.5 332,-589.5 "/>
<text text-anchor="start" x="153" y="-577.5" font-family="Helvetica,sans-Serif" font-size="10.00">+ bus</text>
<text text-anchor="start" x="153" y="-566.5" font-family="Helvetica,sans-Serif" font-size="10.00">+ cartridge</text>
<text text-anchor="start" x="153" y="-555.5" font-family="Helvetica,sans-Serif" font-size="10.00">+ wram</text>
<text text-anchor="start" x="153" y="-544.5" font-family="Helvetica,sans-Serif" font-size="10.00">+ sram</text>
<text text-anchor="start" x="153" y="-533.5" font-family="Helvetica,sans-Serif" font-size="10.00">+ cpu</text>
<text text-anchor="start" x="153" y="-522.5" font-family="Helvetica,sans-Serif" font-size="10.00">+ ppu</text>
<text text-anchor="start" x="153" y="-511.5" font-family="Helvetica,sans-Serif" font-size="10.00">+ apu</text>
<polyline fill="none" stroke="black" points="145,-504.5 332,-504.5 "/>
<text text-anchor="start" x="153" y="-492.5" font-family="Helvetica,sans-Serif" font-size="10.00">+ update()</text>
<text text-anchor="start" x="153" y="-481.5" font-family="Helvetica,sans-Serif" font-size="10.00">+ disableCPUDebugging()</text>
<text text-anchor="start" x="153" y="-470.5" font-family="Helvetica,sans-Serif" font-size="10.00">+ enableCPUDebugging()</text>
<text text-anchor="start" x="153" y="-459.5" font-family="Helvetica,sans-Serif" font-size="10.00">+ enableCPUDebuggingWithError()</text>
<text text-anchor="start" x="153" y="-448.5" font-family="Helvetica,sans-Serif" font-size="10.00">+ disableRamViewer()</text>
<text text-anchor="start" x="153" y="-437.5" font-family="Helvetica,sans-Serif" font-size="10.00">+ enableRamViewer()</text>
<text text-anchor="start" x="153" y="-426.5" font-family="Helvetica,sans-Serif" font-size="10.00">+ disableHeaderViewer()</text>
<text text-anchor="start" x="153" y="-415.5" font-family="Helvetica,sans-Serif" font-size="10.00">+ enableHeaderViewer()</text>
<text text-anchor="start" x="153" y="-404.5" font-family="Helvetica,sans-Serif" font-size="10.00">+ disableAPUDebugging()</text>
<text text-anchor="start" x="153" y="-393.5" font-family="Helvetica,sans-Serif" font-size="10.00">+ enableAPUDebugging()</text>
<text text-anchor="start" x="153" y="-382.5" font-family="Helvetica,sans-Serif" font-size="10.00">and 10 more...</text>
</a>
</g>
</g>
<!-- Node3&#45;&gt;Node1 -->
<g id="edge2" class="edge">
<title>Node3&#45;&gt;Node1</title>
<path fill="none" stroke="#404040" d="M204.01,-375.22C200.39,-363.06 196.76,-350.87 193.28,-339.17"/>
<polygon fill="none" stroke="#404040" points="193.27,-339.17 187.73,-334.56 189.85,-327.67 195.39,-332.28 193.27,-339.17"/>
<text text-anchor="middle" x="215" y="-349" font-family="Helvetica,sans-Serif" font-size="10.00"> &#45;_snes</text>
</g>
<!-- Node4&#45;&gt;Node1 -->
<g id="edge3" class="edge">
<title>Node4&#45;&gt;Node1</title>
<path fill="none" stroke="#404040" d="M138.09,-123.93C141.22,-129.89 144.1,-135.97 146.5,-142 150.1,-151.03 153.12,-160.71 155.67,-170.46"/>
<polygon fill="none" stroke="#404040" points="155.72,-170.69 161.02,-175.59 158.53,-182.36 153.24,-177.46 155.72,-170.69"/>
<text text-anchor="middle" x="179.5" y="-150.5" font-family="Helvetica,sans-Serif" font-size="10.00"> &#45;_window</text>
</g>
<!-- Node5 -->
<g id="node5" class="node">
<title>Node5</title>
<g id="a_node5"><a xlink:title=" ">
<polygon fill="white" stroke="#bfbfbf" points="0,-226.5 0,-283.5 87,-283.5 87,-226.5 0,-226.5"/>
<text text-anchor="middle" x="43.5" y="-271.5" font-family="Helvetica,sans-Serif" font-size="10.00">QMainWindow</text>
<polyline fill="none" stroke="#bfbfbf" points="0,-264.5 87,-264.5 "/>
<text text-anchor="middle" x="43.5" y="-252.5" font-family="Helvetica,sans-Serif" font-size="10.00"> </text>
<polyline fill="none" stroke="#bfbfbf" points="0,-245.5 87,-245.5 "/>
<text text-anchor="middle" x="43.5" y="-233.5" font-family="Helvetica,sans-Serif" font-size="10.00"> </text>
</a>
</g>
</g>
<!-- Node5&#45;&gt;Node4 -->
<g id="edge4" class="edge">
<title>Node5&#45;&gt;Node4</title>
<path fill="none" stroke="midnightblue" d="M53.85,-216.54C59.87,-194.78 67.6,-166.84 74.5,-142 76.14,-136.1 77.85,-129.96 79.55,-123.81"/>
<polygon fill="none" stroke="midnightblue" points="50.42,-215.81 51.13,-226.38 57.17,-217.67 50.42,-215.81"/>
</g>
</g>
</svg>
