<?xml version="1.0" encoding="UTF-8" standalone="no"?>
<!DOCTYPE svg PUBLIC "-//W3C//DTD SVG 1.1//EN"
 "http://www.w3.org/Graphics/SVG/1.1/DTD/svg11.dtd">
<!-- Generated by graphviz version 2.43.0 (0)
 -->
<!-- Title: ComSquare::Memory::MemoryShadow Pages: 1 -->
<svg width="139pt" height="584pt"
 viewBox="0.00 0.00 139.00 584.00" xmlns="http://www.w3.org/2000/svg" xmlns:xlink="http://www.w3.org/1999/xlink">
<g id="graph0" class="graph" transform="scale(1 1) rotate(0) translate(4 580)">
<title>ComSquare::Memory::MemoryShadow</title>
<polygon fill="white" stroke="transparent" points="-4,4 -4,-580 135,-580 135,4 -4,4"/>
<!-- Node1 -->
<g id="node1" class="node">
<title>Node1</title>
<g id="a_node1"><a xlink:title=" ">
<polygon fill="#bfbfbf" stroke="black" points="3,-0.5 3,-178.5 128,-178.5 128,-0.5 3,-0.5"/>
<text text-anchor="start" x="11" y="-166.5" font-family="Helvetica,sans-Serif" font-size="10.00">ComSquare::Memory::</text>
<text text-anchor="middle" x="65.5" y="-155.5" font-family="Helvetica,sans-Serif" font-size="10.00">MemoryShadow</text>
<polyline fill="none" stroke="black" points="3,-148.5 128,-148.5 "/>
<text text-anchor="start" x="11" y="-136.5" font-family="Helvetica,sans-Serif" font-size="10.00">&#45; _initial</text>
<polyline fill="none" stroke="black" points="3,-129.5 128,-129.5 "/>
<text text-anchor="start" x="11" y="-117.5" font-family="Helvetica,sans-Serif" font-size="10.00">+ MemoryShadow()</text>
<text text-anchor="start" x="11" y="-106.5" font-family="Helvetica,sans-Serif" font-size="10.00">+ MemoryShadow()</text>
<text text-anchor="start" x="11" y="-95.5" font-family="Helvetica,sans-Serif" font-size="10.00">+ operator=()</text>
<text text-anchor="start" x="11" y="-84.5" font-family="Helvetica,sans-Serif" font-size="10.00">+ ~MemoryShadow()</text>
<text text-anchor="start" x="11" y="-73.5" font-family="Helvetica,sans-Serif" font-size="10.00">+ read()</text>
<text text-anchor="start" x="11" y="-62.5" font-family="Helvetica,sans-Serif" font-size="10.00">+ write()</text>
<text text-anchor="start" x="11" y="-51.5" font-family="Helvetica,sans-Serif" font-size="10.00">+ getSize()</text>
<text text-anchor="start" x="11" y="-40.5" font-family="Helvetica,sans-Serif" font-size="10.00">+ isMirror()</text>
<text text-anchor="start" x="11" y="-29.5" font-family="Helvetica,sans-Serif" font-size="10.00">+ getName()</text>
<text text-anchor="start" x="11" y="-18.5" font-family="Helvetica,sans-Serif" font-size="10.00">+ getComponent()</text>
<text text-anchor="start" x="11" y="-7.5" font-family="Helvetica,sans-Serif" font-size="10.00">+ getMirrored()</text>
</a>
</g>
</g>
<!-- Node2 -->
<g id="node2" class="node">
<title>Node2</title>
<g id="a_node2"><a xlink:href="classComSquare_1_1Memory_1_1AMemory.html" target="_top" xlink:title="Abstract class representing a continuous block of memory.">
<polygon fill="white" stroke="black" points="0,-215.5 0,-360.5 131,-360.5 131,-215.5 0,-215.5"/>
<text text-anchor="start" x="8" y="-348.5" font-family="Helvetica,sans-Serif" font-size="10.00">ComSquare::Memory::</text>
<text text-anchor="middle" x="65.5" y="-337.5" font-family="Helvetica,sans-Serif" font-size="10.00">AMemory</text>
<polyline fill="none" stroke="black" points="0,-330.5 131,-330.5 "/>
<text text-anchor="start" x="8" y="-318.5" font-family="Helvetica,sans-Serif" font-size="10.00"># _start</text>
<text text-anchor="start" x="8" y="-307.5" font-family="Helvetica,sans-Serif" font-size="10.00"># _end</text>
<polyline fill="none" stroke="black" points="0,-300.5 131,-300.5 "/>
<text text-anchor="start" x="8" y="-288.5" font-family="Helvetica,sans-Serif" font-size="10.00">+ getRelativeAddress()</text>
<text text-anchor="start" x="8" y="-277.5" font-family="Helvetica,sans-Serif" font-size="10.00">+ setMemoryRegion()</text>
<text text-anchor="start" x="8" y="-266.5" font-family="Helvetica,sans-Serif" font-size="10.00">+ hasMemoryAt()</text>
<text text-anchor="start" x="8" y="-255.5" font-family="Helvetica,sans-Serif" font-size="10.00">+ isMirror()</text>
<text text-anchor="start" x="8" y="-244.5" font-family="Helvetica,sans-Serif" font-size="10.00">+ getValueName()</text>
<text text-anchor="start" x="8" y="-233.5" font-family="Helvetica,sans-Serif" font-size="10.00">+ getMirrored()</text>
<text text-anchor="start" x="8" y="-222.5" font-family="Helvetica,sans-Serif" font-size="10.00">+ ~AMemory()</text>
</a>
</g>
</g>
<!-- Node2&#45;&gt;Node1 -->
<g id="edge1" class="edge">
<title>Node2&#45;&gt;Node1</title>
<path fill="none" stroke="midnightblue" d="M65.5,-205.12C65.5,-196.43 65.5,-187.56 65.5,-178.8"/>
<polygon fill="none" stroke="midnightblue" points="62,-205.22 65.5,-215.22 69,-205.22 62,-205.22"/>
</g>
<!-- Node3 -->
<g id="node3" class="node">
<title>Node3</title>
<g id="a_node3"><a xlink:href="classComSquare_1_1Memory_1_1IMemory.html" target="_top" xlink:title="Common interface implemented by all components mapping memory.">
<polygon fill="white" stroke="black" points="0,-397.5 0,-575.5 131,-575.5 131,-397.5 0,-397.5"/>
<text text-anchor="start" x="8" y="-563.5" font-family="Helvetica,sans-Serif" font-size="10.00">ComSquare::Memory::</text>
<text text-anchor="middle" x="65.5" y="-552.5" font-family="Helvetica,sans-Serif" font-size="10.00">IMemory</text>
<polyline fill="none" stroke="black" points="0,-545.5 131,-545.5 "/>
<text text-anchor="middle" x="65.5" y="-533.5" font-family="Helvetica,sans-Serif" font-size="10.00"> </text>
<polyline fill="none" stroke="black" points="0,-526.5 131,-526.5 "/>
<text text-anchor="start" x="8" y="-514.5" font-family="Helvetica,sans-Serif" font-size="10.00">+ read()</text>
<text text-anchor="start" x="8" y="-503.5" font-family="Helvetica,sans-Serif" font-size="10.00">+ write()</text>
<text text-anchor="start" x="8" y="-492.5" font-family="Helvetica,sans-Serif" font-size="10.00">+ hasMemoryAt()</text>
<text text-anchor="start" x="8" y="-481.5" font-family="Helvetica,sans-Serif" font-size="10.00">+ getRelativeAddress()</text>
<text text-anchor="start" x="8" y="-470.5" font-family="Helvetica,sans-Serif" font-size="10.00">+ getSize()</text>
<text text-anchor="start" x="8" y="-459.5" font-family="Helvetica,sans-Serif" font-size="10.00">+ isMirror()</text>
<text text-anchor="start" x="8" y="-448.5" font-family="Helvetica,sans-Serif" font-size="10.00">+ getName()</text>
<text text-anchor="start" x="8" y="-437.5" font-family="Helvetica,sans-Serif" font-size="10.00">+ getComponent()</text>
<text text-anchor="start" x="8" y="-426.5" font-family="Helvetica,sans-Serif" font-size="10.00">+ getValueName()</text>
<text text-anchor="start" x="8" y="-415.5" font-family="Helvetica,sans-Serif" font-size="10.00">+ getMirrored()</text>
<text text-anchor="start" x="8" y="-404.5" font-family="Helvetica,sans-Serif" font-size="10.00">+ ~IMemory()</text>
</a>
</g>
</g>
<!-- Node3&#45;&gt;Node2 -->
<g id="edge2" class="edge">
<title>Node3&#45;&gt;Node2</title>
<path fill="none" stroke="midnightblue" d="M65.5,-387.23C65.5,-378.3 65.5,-369.36 65.5,-360.72"/>
<polygon fill="none" stroke="midnightblue" points="62,-387.31 65.5,-397.31 69,-387.31 62,-387.31"/>
</g>
</g>
</svg>
