<?xml version="1.0" encoding="UTF-8" standalone="no"?>
<!DOCTYPE svg PUBLIC "-//W3C//DTD SVG 1.1//EN"
 "http://www.w3.org/Graphics/SVG/1.1/DTD/svg11.dtd">
<!-- Generated by graphviz version 2.43.0 (0)
 -->
<!-- Title: ComSquare::Cartridge::Cartridge Pages: 1 -->
<svg width="343pt" height="932pt"
 viewBox="0.00 0.00 343.00 932.00" xmlns="http://www.w3.org/2000/svg" xmlns:xlink="http://www.w3.org/1999/xlink">
<g id="graph0" class="graph" transform="scale(1 1) rotate(0) translate(4 928)">
<title>ComSquare::Cartridge::Cartridge</title>
<polygon fill="white" stroke="transparent" points="-4,4 -4,-928 339,-928 339,4 -4,4"/>
<!-- Node1 -->
<g id="node1" class="node">
<title>Node1</title>
<g id="a_node1"><a xlink:title="Contains the rom&#39;s memory/instructions.">
<polygon fill="#bfbfbf" stroke="black" points="84,-0.5 84,-167.5 210,-167.5 210,-0.5 84,-0.5"/>
<text text-anchor="start" x="92" y="-155.5" font-family="Helvetica,sans-Serif" font-size="10.00">ComSquare::Cartridge</text>
<text text-anchor="middle" x="147" y="-144.5" font-family="Helvetica,sans-Serif" font-size="10.00">::Cartridge</text>
<polyline fill="none" stroke="black" points="84,-137.5 210,-137.5 "/>
<text text-anchor="start" x="92" y="-125.5" font-family="Helvetica,sans-Serif" font-size="10.00">&#45; _romStart</text>
<polyline fill="none" stroke="black" points="84,-118.5 210,-118.5 "/>
<text text-anchor="start" x="92" y="-106.5" font-family="Helvetica,sans-Serif" font-size="10.00">+ Cartridge()</text>
<text text-anchor="start" x="92" y="-95.5" font-family="Helvetica,sans-Serif" font-size="10.00">+ Cartridge()</text>
<text text-anchor="start" x="92" y="-84.5" font-family="Helvetica,sans-Serif" font-size="10.00">+ operator=()</text>
<text text-anchor="start" x="92" y="-73.5" font-family="Helvetica,sans-Serif" font-size="10.00">+ ~Cartridge()</text>
<text text-anchor="start" x="92" y="-62.5" font-family="Helvetica,sans-Serif" font-size="10.00">+ read()</text>
<text text-anchor="start" x="92" y="-51.5" font-family="Helvetica,sans-Serif" font-size="10.00">+ write()</text>
<text text-anchor="start" x="92" y="-40.5" font-family="Helvetica,sans-Serif" font-size="10.00">&#45; _loadHeader()</text>
<text text-anchor="start" x="92" y="-29.5" font-family="Helvetica,sans-Serif" font-size="10.00">&#45; _getHeaderAddress()</text>
<text text-anchor="start" x="92" y="-18.5" font-family="Helvetica,sans-Serif" font-size="10.00">&#45; _mapHeader()</text>
<text text-anchor="start" x="92" y="-7.5" font-family="Helvetica,sans-Serif" font-size="10.00">&#45; getRomSize()</text>
</a>
</g>
</g>
<!-- Node2 -->
<g id="node2" class="node">
<title>Node2</title>
<g id="a_node2"><a xlink:href="classComSquare_1_1Ram_1_1Ram.html" target="_top" xlink:title=" ">
<polygon fill="white" stroke="black" points="5,-254 5,-432 135,-432 135,-254 5,-254"/>
<text text-anchor="middle" x="70" y="-420" font-family="Helvetica,sans-Serif" font-size="10.00">ComSquare::Ram::Ram</text>
<polyline fill="none" stroke="black" points="5,-413 135,-413 "/>
<text text-anchor="start" x="13" y="-401" font-family="Helvetica,sans-Serif" font-size="10.00"># _data</text>
<text text-anchor="start" x="13" y="-390" font-family="Helvetica,sans-Serif" font-size="10.00"># _size</text>
<text text-anchor="start" x="13" y="-379" font-family="Helvetica,sans-Serif" font-size="10.00"># _ramType</text>
<text text-anchor="start" x="13" y="-368" font-family="Helvetica,sans-Serif" font-size="10.00"># _ramName</text>
<polyline fill="none" stroke="black" points="5,-361 135,-361 "/>
<text text-anchor="start" x="13" y="-349" font-family="Helvetica,sans-Serif" font-size="10.00">+ Ram()</text>
<text text-anchor="start" x="13" y="-338" font-family="Helvetica,sans-Serif" font-size="10.00">+ Ram()</text>
<text text-anchor="start" x="13" y="-327" font-family="Helvetica,sans-Serif" font-size="10.00">+ operator=()</text>
<text text-anchor="start" x="13" y="-316" font-family="Helvetica,sans-Serif" font-size="10.00">+ ~Ram()</text>
<text text-anchor="start" x="13" y="-305" font-family="Helvetica,sans-Serif" font-size="10.00">+ read()</text>
<text text-anchor="start" x="13" y="-294" font-family="Helvetica,sans-Serif" font-size="10.00">+ write()</text>
<text text-anchor="start" x="13" y="-283" font-family="Helvetica,sans-Serif" font-size="10.00">+ getName()</text>
<text text-anchor="start" x="13" y="-272" font-family="Helvetica,sans-Serif" font-size="10.00">+ getComponent()</text>
<text text-anchor="start" x="13" y="-261" font-family="Helvetica,sans-Serif" font-size="10.00">+ getSize()</text>
</a>
</g>
</g>
<!-- Node2&#45;&gt;Node1 -->
<g id="edge1" class="edge">
<title>Node2&#45;&gt;Node1</title>
<path fill="none" stroke="midnightblue" d="M99.26,-244.33C106.82,-219.1 114.89,-192.17 122.2,-167.78"/>
<polygon fill="none" stroke="midnightblue" points="95.91,-243.33 96.39,-253.91 102.61,-245.34 95.91,-243.33"/>
</g>
<!-- Node3 -->
<g id="node3" class="node">
<title>Node3</title>
<g id="a_node3"><a xlink:href="classComSquare_1_1Memory_1_1ARectangleMemory.html" target="_top" xlink:title="Base memory class to map non continuous rectangle to the memory. (A rectangle that spam across more t...">
<polygon fill="white" stroke="black" points="0,-535 0,-702 140,-702 140,-535 0,-535"/>
<text text-anchor="start" x="8" y="-690" font-family="Helvetica,sans-Serif" font-size="10.00">ComSquare::Memory::</text>
<text text-anchor="middle" x="70" y="-679" font-family="Helvetica,sans-Serif" font-size="10.00">ARectangleMemory</text>
<polyline fill="none" stroke="black" points="0,-672 140,-672 "/>
<text text-anchor="start" x="8" y="-660" font-family="Helvetica,sans-Serif" font-size="10.00"># _startBank</text>
<text text-anchor="start" x="8" y="-649" font-family="Helvetica,sans-Serif" font-size="10.00"># _endBank</text>
<text text-anchor="start" x="8" y="-638" font-family="Helvetica,sans-Serif" font-size="10.00"># _startPage</text>
<text text-anchor="start" x="8" y="-627" font-family="Helvetica,sans-Serif" font-size="10.00"># _endPage</text>
<polyline fill="none" stroke="black" points="0,-620 140,-620 "/>
<text text-anchor="start" x="8" y="-608" font-family="Helvetica,sans-Serif" font-size="10.00">+ getRelativeAddress()</text>
<text text-anchor="start" x="8" y="-597" font-family="Helvetica,sans-Serif" font-size="10.00">+ hasMemoryAt()</text>
<text text-anchor="start" x="8" y="-586" font-family="Helvetica,sans-Serif" font-size="10.00">+ setMemoryRegion()</text>
<text text-anchor="start" x="8" y="-575" font-family="Helvetica,sans-Serif" font-size="10.00">+ isMirror()</text>
<text text-anchor="start" x="8" y="-564" font-family="Helvetica,sans-Serif" font-size="10.00">+ getValueName()</text>
<text text-anchor="start" x="8" y="-553" font-family="Helvetica,sans-Serif" font-size="10.00">+ getMirrored()</text>
<text text-anchor="start" x="8" y="-542" font-family="Helvetica,sans-Serif" font-size="10.00">+ ~ARectangleMemory()</text>
</a>
</g>
</g>
<!-- Node3&#45;&gt;Node2 -->
<g id="edge2" class="edge">
<title>Node3&#45;&gt;Node2</title>
<path fill="none" stroke="midnightblue" d="M70,-524.69C70,-494.8 70,-461.77 70,-432.22"/>
<polygon fill="none" stroke="midnightblue" points="66.5,-524.7 70,-534.7 73.5,-524.7 66.5,-524.7"/>
</g>
<!-- Node4 -->
<g id="node4" class="node">
<title>Node4</title>
<g id="a_node4"><a xlink:href="classComSquare_1_1Memory_1_1IMemory.html" target="_top" xlink:title="Common interface implemented by all components mapping memory.">
<polygon fill="white" stroke="black" points="4.5,-745.5 4.5,-923.5 135.5,-923.5 135.5,-745.5 4.5,-745.5"/>
<text text-anchor="start" x="12.5" y="-911.5" font-family="Helvetica,sans-Serif" font-size="10.00">ComSquare::Memory::</text>
<text text-anchor="middle" x="70" y="-900.5" font-family="Helvetica,sans-Serif" font-size="10.00">IMemory</text>
<polyline fill="none" stroke="black" points="4.5,-893.5 135.5,-893.5 "/>
<text text-anchor="middle" x="70" y="-881.5" font-family="Helvetica,sans-Serif" font-size="10.00"> </text>
<polyline fill="none" stroke="black" points="4.5,-874.5 135.5,-874.5 "/>
<text text-anchor="start" x="12.5" y="-862.5" font-family="Helvetica,sans-Serif" font-size="10.00">+ read()</text>
<text text-anchor="start" x="12.5" y="-851.5" font-family="Helvetica,sans-Serif" font-size="10.00">+ write()</text>
<text text-anchor="start" x="12.5" y="-840.5" font-family="Helvetica,sans-Serif" font-size="10.00">+ hasMemoryAt()</text>
<text text-anchor="start" x="12.5" y="-829.5" font-family="Helvetica,sans-Serif" font-size="10.00">+ getRelativeAddress()</text>
<text text-anchor="start" x="12.5" y="-818.5" font-family="Helvetica,sans-Serif" font-size="10.00">+ getSize()</text>
<text text-anchor="start" x="12.5" y="-807.5" font-family="Helvetica,sans-Serif" font-size="10.00">+ isMirror()</text>
<text text-anchor="start" x="12.5" y="-796.5" font-family="Helvetica,sans-Serif" font-size="10.00">+ getName()</text>
<text text-anchor="start" x="12.5" y="-785.5" font-family="Helvetica,sans-Serif" font-size="10.00">+ getComponent()</text>
<text text-anchor="start" x="12.5" y="-774.5" font-family="Helvetica,sans-Serif" font-size="10.00">+ getValueName()</text>
<text text-anchor="start" x="12.5" y="-763.5" font-family="Helvetica,sans-Serif" font-size="10.00">+ getMirrored()</text>
<text text-anchor="start" x="12.5" y="-752.5" font-family="Helvetica,sans-Serif" font-size="10.00">+ ~IMemory()</text>
</a>
</g>
</g>
<!-- Node4&#45;&gt;Node3 -->
<g id="edge3" class="edge">
<title>Node4&#45;&gt;Node3</title>
<path fill="none" stroke="midnightblue" d="M70,-735.12C70,-724.07 70,-712.9 70,-702.08"/>
<polygon fill="none" stroke="midnightblue" points="66.5,-735.22 70,-745.22 73.5,-735.22 66.5,-735.22"/>
</g>
<!-- Node5 -->
<g id="node5" class="node">
<title>Node5</title>
<g id="a_node5"><a xlink:href="structComSquare_1_1Cartridge_1_1Header.html" target="_top" xlink:title=" ">
<polygon fill="white" stroke="black" points="153,-215.5 153,-470.5 299,-470.5 299,-215.5 153,-215.5"/>
<text text-anchor="start" x="161" y="-458.5" font-family="Helvetica,sans-Serif" font-size="10.00">ComSquare::Cartridge</text>
<text text-anchor="middle" x="226" y="-447.5" font-family="Helvetica,sans-Serif" font-size="10.00">::Header</text>
<polyline fill="none" stroke="black" points="153,-440.5 299,-440.5 "/>
<text text-anchor="start" x="161" y="-428.5" font-family="Helvetica,sans-Serif" font-size="10.00">+ gameName</text>
<text text-anchor="start" x="161" y="-417.5" font-family="Helvetica,sans-Serif" font-size="10.00">+ mappingMode</text>
<text text-anchor="start" x="161" y="-406.5" font-family="Helvetica,sans-Serif" font-size="10.00">+ romType</text>
<text text-anchor="start" x="161" y="-395.5" font-family="Helvetica,sans-Serif" font-size="10.00">+ romSize</text>
<text text-anchor="start" x="161" y="-384.5" font-family="Helvetica,sans-Serif" font-size="10.00">+ sramSize</text>
<text text-anchor="start" x="161" y="-373.5" font-family="Helvetica,sans-Serif" font-size="10.00">+ creatorIDs</text>
<text text-anchor="start" x="161" y="-362.5" font-family="Helvetica,sans-Serif" font-size="10.00">+ creatorID</text>
<text text-anchor="start" x="161" y="-351.5" font-family="Helvetica,sans-Serif" font-size="10.00">+ @21</text>
<text text-anchor="start" x="161" y="-340.5" font-family="Helvetica,sans-Serif" font-size="10.00">+ version</text>
<text text-anchor="start" x="161" y="-329.5" font-family="Helvetica,sans-Serif" font-size="10.00">+ checksumComplements</text>
<text text-anchor="start" x="161" y="-318.5" font-family="Helvetica,sans-Serif" font-size="10.00">+ checksumComplement</text>
<text text-anchor="start" x="161" y="-307.5" font-family="Helvetica,sans-Serif" font-size="10.00">+ @23</text>
<text text-anchor="start" x="161" y="-296.5" font-family="Helvetica,sans-Serif" font-size="10.00">+ checksums</text>
<text text-anchor="start" x="161" y="-285.5" font-family="Helvetica,sans-Serif" font-size="10.00">+ checksum</text>
<text text-anchor="start" x="161" y="-274.5" font-family="Helvetica,sans-Serif" font-size="10.00">+ @25</text>
<polyline fill="none" stroke="black" points="153,-267.5 299,-267.5 "/>
<text text-anchor="start" x="161" y="-255.5" font-family="Helvetica,sans-Serif" font-size="10.00">+ Header()</text>
<text text-anchor="start" x="161" y="-244.5" font-family="Helvetica,sans-Serif" font-size="10.00">+ Header()</text>
<text text-anchor="start" x="161" y="-233.5" font-family="Helvetica,sans-Serif" font-size="10.00">+ operator=()</text>
<text text-anchor="start" x="161" y="-222.5" font-family="Helvetica,sans-Serif" font-size="10.00">+ ~Header()</text>
</a>
</g>
</g>
<!-- Node5&#45;&gt;Node1 -->
<g id="edge4" class="edge">
<title>Node5&#45;&gt;Node1</title>
<path fill="none" stroke="#404040" d="M187.08,-215.38C183.34,-203.22 179.59,-191.03 175.98,-179.26"/>
<polygon fill="none" stroke="#404040" points="175.93,-179.11 170.34,-174.55 172.4,-167.64 177.99,-172.2 175.93,-179.11"/>
<text text-anchor="middle" x="203" y="-189" font-family="Helvetica,sans-Serif" font-size="10.00"> +header</text>
</g>
<!-- Node6 -->
<g id="node6" class="node">
<title>Node6</title>
<g id="a_node6"><a xlink:href="structComSquare_1_1Cartridge_1_1InterruptVectors.html" target="_top" xlink:title=" ">
<polygon fill="white" stroke="black" points="164,-529.5 164,-707.5 288,-707.5 288,-529.5 164,-529.5"/>
<text text-anchor="start" x="172" y="-695.5" font-family="Helvetica,sans-Serif" font-size="10.00">ComSquare::Cartridge</text>
<text text-anchor="middle" x="226" y="-684.5" font-family="Helvetica,sans-Serif" font-size="10.00">::InterruptVectors</text>
<polyline fill="none" stroke="black" points="164,-677.5 288,-677.5 "/>
<text text-anchor="start" x="172" y="-665.5" font-family="Helvetica,sans-Serif" font-size="10.00">+ cop8</text>
<text text-anchor="start" x="172" y="-654.5" font-family="Helvetica,sans-Serif" font-size="10.00">+ cop</text>
<text text-anchor="start" x="172" y="-643.5" font-family="Helvetica,sans-Serif" font-size="10.00">+ @27</text>
<text text-anchor="start" x="172" y="-632.5" font-family="Helvetica,sans-Serif" font-size="10.00">+ brk8</text>
<text text-anchor="start" x="172" y="-621.5" font-family="Helvetica,sans-Serif" font-size="10.00">+ brk</text>
<text text-anchor="start" x="172" y="-610.5" font-family="Helvetica,sans-Serif" font-size="10.00">+ @29</text>
<text text-anchor="start" x="172" y="-599.5" font-family="Helvetica,sans-Serif" font-size="10.00">+ abort8</text>
<text text-anchor="start" x="172" y="-588.5" font-family="Helvetica,sans-Serif" font-size="10.00">+ abort</text>
<text text-anchor="start" x="172" y="-577.5" font-family="Helvetica,sans-Serif" font-size="10.00">+ @31</text>
<text text-anchor="start" x="172" y="-566.5" font-family="Helvetica,sans-Serif" font-size="10.00">+ nmi8</text>
<text text-anchor="start" x="172" y="-555.5" font-family="Helvetica,sans-Serif" font-size="10.00">and 8 more...</text>
<polyline fill="none" stroke="black" points="164,-548.5 288,-548.5 "/>
<text text-anchor="middle" x="226" y="-536.5" font-family="Helvetica,sans-Serif" font-size="10.00"> </text>
</a>
</g>
</g>
<!-- Node6&#45;&gt;Node5 -->
<g id="edge5" class="edge">
<title>Node6&#45;&gt;Node5</title>
<path fill="none" stroke="#404040" d="M226,-529.46C226,-514.52 226,-498.7 226,-482.84"/>
<polygon fill="none" stroke="#404040" points="226,-482.72 222,-476.72 226,-470.72 230,-476.72 226,-482.72"/>
<text text-anchor="middle" x="280.5" y="-503" font-family="Helvetica,sans-Serif" font-size="10.00"> +emulationInterrupts</text>
<text text-anchor="middle" x="280.5" y="-492" font-family="Helvetica,sans-Serif" font-size="10.00">+nativeInterrupts</text>
</g>
</g>
</svg>
