<?xml version="1.0" encoding="UTF-8" standalone="no"?>
<!DOCTYPE svg PUBLIC "-//W3C//DTD SVG 1.1//EN"
 "http://www.w3.org/Graphics/SVG/1.1/DTD/svg11.dtd">
<!-- Generated by graphviz version 2.43.0 (0)
 -->
<!-- Title: ComSquare::Renderer::QtFullSFML Pages: 1 -->
<svg width="336pt" height="922pt"
 viewBox="0.00 0.00 336.00 922.00" xmlns="http://www.w3.org/2000/svg" xmlns:xlink="http://www.w3.org/1999/xlink">
<g id="graph0" class="graph" transform="scale(1 1) rotate(0) translate(4 918)">
<title>ComSquare::Renderer::QtFullSFML</title>
<polygon fill="white" stroke="transparent" points="-4,4 -4,-918 332,-918 332,4 -4,4"/>
<!-- Node1 -->
<g id="node1" class="node">
<title>Node1</title>
<g id="a_node1"><a xlink:title="The SFML window that manage the update.">
<polygon fill="#bfbfbf" stroke="black" points="119,-0.5 119,-200.5 262,-200.5 262,-0.5 119,-0.5"/>
<text text-anchor="start" x="127" y="-188.5" font-family="Helvetica,sans-Serif" font-size="10.00">ComSquare::Renderer</text>
<text text-anchor="middle" x="190.5" y="-177.5" font-family="Helvetica,sans-Serif" font-size="10.00">::QtFullSFML</text>
<polyline fill="none" stroke="black" points="119,-170.5 262,-170.5 "/>
<text text-anchor="middle" x="190.5" y="-158.5" font-family="Helvetica,sans-Serif" font-size="10.00"> </text>
<polyline fill="none" stroke="black" points="119,-151.5 262,-151.5 "/>
<text text-anchor="start" x="127" y="-139.5" font-family="Helvetica,sans-Serif" font-size="10.00">+ enableDebugCPU()</text>
<text text-anchor="start" x="127" y="-128.5" font-family="Helvetica,sans-Serif" font-size="10.00">+ enableRamViewer()</text>
<text text-anchor="start" x="127" y="-117.5" font-family="Helvetica,sans-Serif" font-size="10.00">+ enableHeaderViewer()</text>
<text text-anchor="start" x="127" y="-106.5" font-family="Helvetica,sans-Serif" font-size="10.00">+ enableDebugAPU()</text>
<text text-anchor="start" x="127" y="-95.5" font-family="Helvetica,sans-Serif" font-size="10.00">+ enableDebugBus()</text>
<text text-anchor="start" x="127" y="-84.5" font-family="Helvetica,sans-Serif" font-size="10.00">+ enableCgramViewer()</text>
<text text-anchor="start" x="127" y="-73.5" font-family="Helvetica,sans-Serif" font-size="10.00">+ enableRegisterViewer()</text>
<text text-anchor="start" x="127" y="-62.5" font-family="Helvetica,sans-Serif" font-size="10.00">+ reset()</text>
<text text-anchor="start" x="127" y="-51.5" font-family="Helvetica,sans-Serif" font-size="10.00">+ QtFullSFML()</text>
<text text-anchor="start" x="127" y="-40.5" font-family="Helvetica,sans-Serif" font-size="10.00">+ QtFullSFML()</text>
<text text-anchor="start" x="127" y="-29.5" font-family="Helvetica,sans-Serif" font-size="10.00">+ operator=()</text>
<text text-anchor="start" x="127" y="-18.5" font-family="Helvetica,sans-Serif" font-size="10.00">+ ~QtFullSFML()</text>
<text text-anchor="start" x="127" y="-7.5" font-family="Helvetica,sans-Serif" font-size="10.00">&#45; _onUpdate()</text>
</a>
</g>
</g>
<!-- Node2 -->
<g id="node2" class="node">
<title>Node2</title>
<g id="a_node2"><a xlink:href="classComSquare_1_1Renderer_1_1QtWidgetSFML.html" target="_top" xlink:title="A widget that you can put inside a QT application that render using the SFML.">
<polygon fill="white" stroke="black" points="0,-281.5 0,-448.5 123,-448.5 123,-281.5 0,-281.5"/>
<text text-anchor="start" x="8" y="-436.5" font-family="Helvetica,sans-Serif" font-size="10.00">ComSquare::Renderer</text>
<text text-anchor="middle" x="61.5" y="-425.5" font-family="Helvetica,sans-Serif" font-size="10.00">::QtWidgetSFML</text>
<polyline fill="none" stroke="black" points="0,-418.5 123,-418.5 "/>
<text text-anchor="start" x="8" y="-406.5" font-family="Helvetica,sans-Serif" font-size="10.00">&#45; _timer</text>
<text text-anchor="start" x="8" y="-395.5" font-family="Helvetica,sans-Serif" font-size="10.00">&#45; _isInitialized</text>
<polyline fill="none" stroke="black" points="0,-388.5 123,-388.5 "/>
<text text-anchor="start" x="8" y="-376.5" font-family="Helvetica,sans-Serif" font-size="10.00">+ QtWidgetSFML()</text>
<text text-anchor="start" x="8" y="-365.5" font-family="Helvetica,sans-Serif" font-size="10.00">+ QtWidgetSFML()</text>
<text text-anchor="start" x="8" y="-354.5" font-family="Helvetica,sans-Serif" font-size="10.00">+ operator=()</text>
<text text-anchor="start" x="8" y="-343.5" font-family="Helvetica,sans-Serif" font-size="10.00">+ ~QtWidgetSFML()</text>
<text text-anchor="start" x="8" y="-332.5" font-family="Helvetica,sans-Serif" font-size="10.00">&#45; _onInit()</text>
<text text-anchor="start" x="8" y="-321.5" font-family="Helvetica,sans-Serif" font-size="10.00">&#45; _onUpdate()</text>
<text text-anchor="start" x="8" y="-310.5" font-family="Helvetica,sans-Serif" font-size="10.00">&#45; paintEngine()</text>
<text text-anchor="start" x="8" y="-299.5" font-family="Helvetica,sans-Serif" font-size="10.00">&#45; showEvent()</text>
<text text-anchor="start" x="8" y="-288.5" font-family="Helvetica,sans-Serif" font-size="10.00">&#45; paintEvent()</text>
</a>
</g>
</g>
<!-- Node2&#45;&gt;Node1 -->
<g id="edge1" class="edge">
<title>Node2&#45;&gt;Node1</title>
<path fill="none" stroke="midnightblue" d="M106.61,-272.21C117.95,-249.12 130.18,-224.24 141.7,-200.8"/>
<polygon fill="none" stroke="midnightblue" points="103.41,-270.79 102.14,-281.3 109.69,-273.87 103.41,-270.79"/>
</g>
<!-- Node3 -->
<g id="node3" class="node">
<title>Node3</title>
<g id="a_node3"><a xlink:title=" ">
<polygon fill="white" stroke="#bfbfbf" points="20,-613 20,-670 79,-670 79,-613 20,-613"/>
<text text-anchor="middle" x="49.5" y="-658" font-family="Helvetica,sans-Serif" font-size="10.00">QWidget</text>
<polyline fill="none" stroke="#bfbfbf" points="20,-651 79,-651 "/>
<text text-anchor="middle" x="49.5" y="-639" font-family="Helvetica,sans-Serif" font-size="10.00"> </text>
<polyline fill="none" stroke="#bfbfbf" points="20,-632 79,-632 "/>
<text text-anchor="middle" x="49.5" y="-620" font-family="Helvetica,sans-Serif" font-size="10.00"> </text>
</a>
</g>
</g>
<!-- Node3&#45;&gt;Node2 -->
<g id="edge2" class="edge">
<title>Node3&#45;&gt;Node2</title>
<path fill="none" stroke="midnightblue" d="M51.14,-602.93C52.87,-563.42 55.64,-499.99 57.88,-448.7"/>
<polygon fill="none" stroke="midnightblue" points="47.65,-602.78 50.71,-612.92 54.64,-603.09 47.65,-602.78"/>
</g>
<!-- Node4 -->
<g id="node4" class="node">
<title>Node4</title>
<g id="a_node4"><a xlink:href="classComSquare_1_1Renderer_1_1SFRenderer.html" target="_top" xlink:title=" ">
<polygon fill="white" stroke="black" points="97,-519.5 97,-763.5 220,-763.5 220,-519.5 97,-519.5"/>
<text text-anchor="start" x="105" y="-751.5" font-family="Helvetica,sans-Serif" font-size="10.00">ComSquare::Renderer</text>
<text text-anchor="middle" x="158.5" y="-740.5" font-family="Helvetica,sans-Serif" font-size="10.00">::SFRenderer</text>
<polyline fill="none" stroke="black" points="97,-733.5 220,-733.5 "/>
<text text-anchor="start" x="105" y="-721.5" font-family="Helvetica,sans-Serif" font-size="10.00">+ shouldExit</text>
<text text-anchor="start" x="105" y="-710.5" font-family="Helvetica,sans-Serif" font-size="10.00"># _window</text>
<text text-anchor="start" x="105" y="-699.5" font-family="Helvetica,sans-Serif" font-size="10.00"># _videoMode</text>
<text text-anchor="start" x="105" y="-688.5" font-family="Helvetica,sans-Serif" font-size="10.00"># _pixelBuffer</text>
<text text-anchor="start" x="105" y="-677.5" font-family="Helvetica,sans-Serif" font-size="10.00"># _sprite</text>
<text text-anchor="start" x="105" y="-666.5" font-family="Helvetica,sans-Serif" font-size="10.00"># _texture</text>
<text text-anchor="start" x="105" y="-655.5" font-family="Helvetica,sans-Serif" font-size="10.00"># _soundBuffer</text>
<text text-anchor="start" x="105" y="-644.5" font-family="Helvetica,sans-Serif" font-size="10.00"># _sound</text>
<polyline fill="none" stroke="black" points="97,-637.5 220,-637.5 "/>
<text text-anchor="start" x="105" y="-625.5" font-family="Helvetica,sans-Serif" font-size="10.00">+ setWindowName()</text>
<text text-anchor="start" x="105" y="-614.5" font-family="Helvetica,sans-Serif" font-size="10.00">+ drawScreen()</text>
<text text-anchor="start" x="105" y="-603.5" font-family="Helvetica,sans-Serif" font-size="10.00">+ putPixel()</text>
<text text-anchor="start" x="105" y="-592.5" font-family="Helvetica,sans-Serif" font-size="10.00">+ playAudio()</text>
<text text-anchor="start" x="105" y="-581.5" font-family="Helvetica,sans-Serif" font-size="10.00">+ getEvents()</text>
<text text-anchor="start" x="105" y="-570.5" font-family="Helvetica,sans-Serif" font-size="10.00">+ createWindow()</text>
<text text-anchor="start" x="105" y="-559.5" font-family="Helvetica,sans-Serif" font-size="10.00">+ SFRenderer()</text>
<text text-anchor="start" x="105" y="-548.5" font-family="Helvetica,sans-Serif" font-size="10.00">+ SFRenderer()</text>
<text text-anchor="start" x="105" y="-537.5" font-family="Helvetica,sans-Serif" font-size="10.00">+ operator=()</text>
<text text-anchor="start" x="105" y="-526.5" font-family="Helvetica,sans-Serif" font-size="10.00">+ ~SFRenderer()</text>
</a>
</g>
</g>
<!-- Node4&#45;&gt;Node2 -->
<g id="edge3" class="edge">
<title>Node4&#45;&gt;Node2</title>
<path fill="none" stroke="midnightblue" d="M112.31,-509.77C104.96,-488.99 97.55,-468.01 90.74,-448.74"/>
<polygon fill="none" stroke="midnightblue" points="109.04,-511.04 115.67,-519.3 115.64,-508.71 109.04,-511.04"/>
</g>
<!-- Node5 -->
<g id="node5" class="node">
<title>Node5</title>
<g id="a_node5"><a xlink:href="classComSquare_1_1Renderer_1_1IRenderer.html" target="_top" xlink:title=" ">
<polygon fill="white" stroke="black" points="97,-801.5 97,-913.5 220,-913.5 220,-801.5 97,-801.5"/>
<text text-anchor="start" x="105" y="-901.5" font-family="Helvetica,sans-Serif" font-size="10.00">ComSquare::Renderer</text>
<text text-anchor="middle" x="158.5" y="-890.5" font-family="Helvetica,sans-Serif" font-size="10.00">::IRenderer</text>
<polyline fill="none" stroke="black" points="97,-883.5 220,-883.5 "/>
<text text-anchor="middle" x="158.5" y="-871.5" font-family="Helvetica,sans-Serif" font-size="10.00"> </text>
<polyline fill="none" stroke="black" points="97,-864.5 220,-864.5 "/>
<text text-anchor="start" x="105" y="-852.5" font-family="Helvetica,sans-Serif" font-size="10.00">+ setWindowName()</text>
<text text-anchor="start" x="105" y="-841.5" font-family="Helvetica,sans-Serif" font-size="10.00">+ drawScreen()</text>
<text text-anchor="start" x="105" y="-830.5" font-family="Helvetica,sans-Serif" font-size="10.00">+ putPixel()</text>
<text text-anchor="start" x="105" y="-819.5" font-family="Helvetica,sans-Serif" font-size="10.00">+ createWindow()</text>
<text text-anchor="start" x="105" y="-808.5" font-family="Helvetica,sans-Serif" font-size="10.00">+ playAudio()</text>
</a>
</g>
</g>
<!-- Node5&#45;&gt;Node4 -->
<g id="edge4" class="edge">
<title>Node5&#45;&gt;Node4</title>
<path fill="none" stroke="midnightblue" d="M158.5,-791.22C158.5,-782.36 158.5,-773.05 158.5,-763.6"/>
<polygon fill="none" stroke="midnightblue" points="155,-791.39 158.5,-801.39 162,-791.39 155,-791.39"/>
</g>
<!-- Node6 -->
<g id="node6" class="node">
<title>Node6</title>
<g id="a_node6"><a xlink:href="classComSquare_1_1SNES.html" target="_top" xlink:title="Container of all the components of the SNES.">
<polygon fill="white" stroke="black" points="141,-248.5 141,-481.5 328,-481.5 328,-248.5 141,-248.5"/>
<text text-anchor="middle" x="234.5" y="-469.5" font-family="Helvetica,sans-Serif" font-size="10.00">ComSquare::SNES</text>
<polyline fill="none" stroke="black" points="141,-462.5 328,-462.5 "/>
<text text-anchor="start" x="149" y="-450.5" font-family="Helvetica,sans-Serif" font-size="10.00">+ bus</text>
<text text-anchor="start" x="149" y="-439.5" font-family="Helvetica,sans-Serif" font-size="10.00">+ cartridge</text>
<text text-anchor="start" x="149" y="-428.5" font-family="Helvetica,sans-Serif" font-size="10.00">+ wram</text>
<text text-anchor="start" x="149" y="-417.5" font-family="Helvetica,sans-Serif" font-size="10.00">+ sram</text>
<text text-anchor="start" x="149" y="-406.5" font-family="Helvetica,sans-Serif" font-size="10.00">+ cpu</text>
<text text-anchor="start" x="149" y="-395.5" font-family="Helvetica,sans-Serif" font-size="10.00">+ ppu</text>
<text text-anchor="start" x="149" y="-384.5" font-family="Helvetica,sans-Serif" font-size="10.00">+ apu</text>
<polyline fill="none" stroke="black" points="141,-377.5 328,-377.5 "/>
<text text-anchor="start" x="149" y="-365.5" font-family="Helvetica,sans-Serif" font-size="10.00">+ update()</text>
<text text-anchor="start" x="149" y="-354.5" font-family="Helvetica,sans-Serif" font-size="10.00">+ disableCPUDebugging()</text>
<text text-anchor="start" x="149" y="-343.5" font-family="Helvetica,sans-Serif" font-size="10.00">+ enableCPUDebugging()</text>
<text text-anchor="start" x="149" y="-332.5" font-family="Helvetica,sans-Serif" font-size="10.00">+ enableCPUDebuggingWithError()</text>
<text text-anchor="start" x="149" y="-321.5" font-family="Helvetica,sans-Serif" font-size="10.00">+ disableRamViewer()</text>
<text text-anchor="start" x="149" y="-310.5" font-family="Helvetica,sans-Serif" font-size="10.00">+ enableRamViewer()</text>
<text text-anchor="start" x="149" y="-299.5" font-family="Helvetica,sans-Serif" font-size="10.00">+ disableHeaderViewer()</text>
<text text-anchor="start" x="149" y="-288.5" font-family="Helvetica,sans-Serif" font-size="10.00">+ enableHeaderViewer()</text>
<text text-anchor="start" x="149" y="-277.5" font-family="Helvetica,sans-Serif" font-size="10.00">+ disableAPUDebugging()</text>
<text text-anchor="start" x="149" y="-266.5" font-family="Helvetica,sans-Serif" font-size="10.00">+ enableAPUDebugging()</text>
<text text-anchor="start" x="149" y="-255.5" font-family="Helvetica,sans-Serif" font-size="10.00">and 10 more...</text>
</a>
</g>
</g>
<!-- Node6&#45;&gt;Node1 -->
<g id="edge5" class="edge">
<title>Node6&#45;&gt;Node1</title>
<path fill="none" stroke="#404040" d="M215.14,-248.48C213.15,-236.64 211.14,-224.62 209.16,-212.83"/>
<polygon fill="none" stroke="#404040" points="209.1,-212.47 204.16,-207.21 207.12,-200.63 212.05,-205.89 209.1,-212.47"/>
<text text-anchor="middle" x="229" y="-222" font-family="Helvetica,sans-Serif" font-size="10.00"> &#45;_snes</text>
</g>
</g>
</svg>
