<?xml version="1.0" encoding="UTF-8" standalone="no"?>
<!DOCTYPE svg PUBLIC "-//W3C//DTD SVG 1.1//EN"
 "http://www.w3.org/Graphics/SVG/1.1/DTD/svg11.dtd">
<!-- Generated by graphviz version 2.43.0 (0)
 -->
<!-- Title: ComSquare::APU::APU Pages: 1 -->
<svg width="1166pt" height="991pt"
 viewBox="0.00 0.00 1166.00 991.00" xmlns="http://www.w3.org/2000/svg" xmlns:xlink="http://www.w3.org/1999/xlink">
<g id="graph0" class="graph" transform="scale(1 1) rotate(0) translate(4 987)">
<title>ComSquare::APU::APU</title>
<polygon fill="white" stroke="transparent" points="-4,4 -4,-987 1162,-987 1162,4 -4,4"/>
<!-- Node1 -->
<g id="node1" class="node">
<title>Node1</title>
<g id="a_node1"><a xlink:title=" ">
<polygon fill="#bfbfbf" stroke="black" points="387,-0.5 387,-332.5 528,-332.5 528,-0.5 387,-0.5"/>
<text text-anchor="middle" x="457.5" y="-320.5" font-family="Helvetica,sans-Serif" font-size="10.00">ComSquare::APU::APU</text>
<polyline fill="none" stroke="black" points="387,-313.5 528,-313.5 "/>
<text text-anchor="start" x="395" y="-301.5" font-family="Helvetica,sans-Serif" font-size="10.00"># _map</text>
<text text-anchor="start" x="395" y="-290.5" font-family="Helvetica,sans-Serif" font-size="10.00"># _soundBuffer</text>
<text text-anchor="start" x="395" y="-279.5" font-family="Helvetica,sans-Serif" font-size="10.00"># _state</text>
<text text-anchor="start" x="395" y="-268.5" font-family="Helvetica,sans-Serif" font-size="10.00"># _paddingCycles</text>
<polyline fill="none" stroke="black" points="387,-261.5 528,-261.5 "/>
<text text-anchor="start" x="395" y="-249.5" font-family="Helvetica,sans-Serif" font-size="10.00">+ APU()</text>
<text text-anchor="start" x="395" y="-238.5" font-family="Helvetica,sans-Serif" font-size="10.00">+ APU()</text>
<text text-anchor="start" x="395" y="-227.5" font-family="Helvetica,sans-Serif" font-size="10.00">+ operator=()</text>
<text text-anchor="start" x="395" y="-216.5" font-family="Helvetica,sans-Serif" font-size="10.00">+ ~APU()</text>
<text text-anchor="start" x="395" y="-205.5" font-family="Helvetica,sans-Serif" font-size="10.00">+ read()</text>
<text text-anchor="start" x="395" y="-194.5" font-family="Helvetica,sans-Serif" font-size="10.00">+ write()</text>
<text text-anchor="start" x="395" y="-183.5" font-family="Helvetica,sans-Serif" font-size="10.00">+ getName()</text>
<text text-anchor="start" x="395" y="-172.5" font-family="Helvetica,sans-Serif" font-size="10.00">+ getComponent()</text>
<text text-anchor="start" x="395" y="-161.5" font-family="Helvetica,sans-Serif" font-size="10.00">+ getSize()</text>
<text text-anchor="start" x="395" y="-150.5" font-family="Helvetica,sans-Serif" font-size="10.00">+ update()</text>
<text text-anchor="start" x="395" y="-139.5" font-family="Helvetica,sans-Serif" font-size="10.00">+ reset()</text>
<text text-anchor="start" x="395" y="-128.5" font-family="Helvetica,sans-Serif" font-size="10.00">+ isDebugger()</text>
<text text-anchor="start" x="395" y="-117.5" font-family="Helvetica,sans-Serif" font-size="10.00"># _internalRead()</text>
<text text-anchor="start" x="395" y="-106.5" font-family="Helvetica,sans-Serif" font-size="10.00"># _internalWrite()</text>
<text text-anchor="start" x="395" y="-95.5" font-family="Helvetica,sans-Serif" font-size="10.00"># _getImmediateData()</text>
<text text-anchor="start" x="395" y="-84.5" font-family="Helvetica,sans-Serif" font-size="10.00"># _getDirectAddr()</text>
<text text-anchor="start" x="395" y="-73.5" font-family="Helvetica,sans-Serif" font-size="10.00"># _getIndexXAddr()</text>
<text text-anchor="start" x="395" y="-62.5" font-family="Helvetica,sans-Serif" font-size="10.00"># _getIndexYAddr()</text>
<text text-anchor="start" x="395" y="-51.5" font-family="Helvetica,sans-Serif" font-size="10.00"># _getDirectAddrByX()</text>
<text text-anchor="start" x="395" y="-40.5" font-family="Helvetica,sans-Serif" font-size="10.00"># _getDirectAddrByY()</text>
<text text-anchor="start" x="395" y="-29.5" font-family="Helvetica,sans-Serif" font-size="10.00"># _getAbsoluteAddr()</text>
<text text-anchor="start" x="395" y="-18.5" font-family="Helvetica,sans-Serif" font-size="10.00"># _getAbsoluteByXAddr()</text>
<text text-anchor="start" x="395" y="-7.5" font-family="Helvetica,sans-Serif" font-size="10.00">and 84 more...</text>
</a>
</g>
</g>
<!-- Node2 -->
<g id="node2" class="node">
<title>Node2</title>
<g id="a_node2"><a xlink:href="classComSquare_1_1Memory_1_1AMemory.html" target="_top" xlink:title="Abstract class representing a continuous block of memory.">
<polygon fill="white" stroke="black" points="29,-474 29,-619 160,-619 160,-474 29,-474"/>
<text text-anchor="start" x="37" y="-607" font-family="Helvetica,sans-Serif" font-size="10.00">ComSquare::Memory::</text>
<text text-anchor="middle" x="94.5" y="-596" font-family="Helvetica,sans-Serif" font-size="10.00">AMemory</text>
<polyline fill="none" stroke="black" points="29,-589 160,-589 "/>
<text text-anchor="start" x="37" y="-577" font-family="Helvetica,sans-Serif" font-size="10.00"># _start</text>
<text text-anchor="start" x="37" y="-566" font-family="Helvetica,sans-Serif" font-size="10.00"># _end</text>
<polyline fill="none" stroke="black" points="29,-559 160,-559 "/>
<text text-anchor="start" x="37" y="-547" font-family="Helvetica,sans-Serif" font-size="10.00">+ getRelativeAddress()</text>
<text text-anchor="start" x="37" y="-536" font-family="Helvetica,sans-Serif" font-size="10.00">+ setMemoryRegion()</text>
<text text-anchor="start" x="37" y="-525" font-family="Helvetica,sans-Serif" font-size="10.00">+ hasMemoryAt()</text>
<text text-anchor="start" x="37" y="-514" font-family="Helvetica,sans-Serif" font-size="10.00">+ isMirror()</text>
<text text-anchor="start" x="37" y="-503" font-family="Helvetica,sans-Serif" font-size="10.00">+ getValueName()</text>
<text text-anchor="start" x="37" y="-492" font-family="Helvetica,sans-Serif" font-size="10.00">+ getMirrored()</text>
<text text-anchor="start" x="37" y="-481" font-family="Helvetica,sans-Serif" font-size="10.00">+ ~AMemory()</text>
</a>
</g>
</g>
<!-- Node2&#45;&gt;Node1 -->
<g id="edge1" class="edge">
<title>Node2&#45;&gt;Node1</title>
<path fill="none" stroke="midnightblue" d="M153.56,-465.63C175.26,-437.74 200.62,-406.74 225.5,-380 276.47,-325.22 339.33,-268.21 386.76,-227.05"/>
<polygon fill="none" stroke="midnightblue" points="150.6,-463.74 147.25,-473.8 156.13,-468.03 150.6,-463.74"/>
</g>
<!-- Node3 -->
<g id="node3" class="node">
<title>Node3</title>
<g id="a_node3"><a xlink:href="classComSquare_1_1Memory_1_1IMemory.html" target="_top" xlink:title="Common interface implemented by all components mapping memory.">
<polygon fill="white" stroke="black" points="0,-782.5 0,-960.5 131,-960.5 131,-782.5 0,-782.5"/>
<text text-anchor="start" x="8" y="-948.5" font-family="Helvetica,sans-Serif" font-size="10.00">ComSquare::Memory::</text>
<text text-anchor="middle" x="65.5" y="-937.5" font-family="Helvetica,sans-Serif" font-size="10.00">IMemory</text>
<polyline fill="none" stroke="black" points="0,-930.5 131,-930.5 "/>
<text text-anchor="middle" x="65.5" y="-918.5" font-family="Helvetica,sans-Serif" font-size="10.00"> </text>
<polyline fill="none" stroke="black" points="0,-911.5 131,-911.5 "/>
<text text-anchor="start" x="8" y="-899.5" font-family="Helvetica,sans-Serif" font-size="10.00">+ read()</text>
<text text-anchor="start" x="8" y="-888.5" font-family="Helvetica,sans-Serif" font-size="10.00">+ write()</text>
<text text-anchor="start" x="8" y="-877.5" font-family="Helvetica,sans-Serif" font-size="10.00">+ hasMemoryAt()</text>
<text text-anchor="start" x="8" y="-866.5" font-family="Helvetica,sans-Serif" font-size="10.00">+ getRelativeAddress()</text>
<text text-anchor="start" x="8" y="-855.5" font-family="Helvetica,sans-Serif" font-size="10.00">+ getSize()</text>
<text text-anchor="start" x="8" y="-844.5" font-family="Helvetica,sans-Serif" font-size="10.00">+ isMirror()</text>
<text text-anchor="start" x="8" y="-833.5" font-family="Helvetica,sans-Serif" font-size="10.00">+ getName()</text>
<text text-anchor="start" x="8" y="-822.5" font-family="Helvetica,sans-Serif" font-size="10.00">+ getComponent()</text>
<text text-anchor="start" x="8" y="-811.5" font-family="Helvetica,sans-Serif" font-size="10.00">+ getValueName()</text>
<text text-anchor="start" x="8" y="-800.5" font-family="Helvetica,sans-Serif" font-size="10.00">+ getMirrored()</text>
<text text-anchor="start" x="8" y="-789.5" font-family="Helvetica,sans-Serif" font-size="10.00">+ ~IMemory()</text>
</a>
</g>
</g>
<!-- Node3&#45;&gt;Node2 -->
<g id="edge2" class="edge">
<title>Node3&#45;&gt;Node2</title>
<path fill="none" stroke="midnightblue" d="M74.33,-772.18C78.76,-722.81 84.03,-664.1 88.07,-619.07"/>
<polygon fill="none" stroke="midnightblue" points="70.83,-771.97 73.42,-782.24 77.8,-772.59 70.83,-771.97"/>
</g>
<!-- Node4 -->
<g id="node4" class="node">
<title>Node4</title>
<g id="a_node4"><a xlink:href="structComSquare_1_1APU_1_1InternalRegisters.html" target="_top" xlink:title=" ">
<polygon fill="white" stroke="black" points="235,-457.5 235,-635.5 378,-635.5 378,-457.5 235,-457.5"/>
<text text-anchor="start" x="243" y="-623.5" font-family="Helvetica,sans-Serif" font-size="10.00">ComSquare::APU::Internal</text>
<text text-anchor="middle" x="306.5" y="-612.5" font-family="Helvetica,sans-Serif" font-size="10.00">Registers</text>
<polyline fill="none" stroke="black" points="235,-605.5 378,-605.5 "/>
<text text-anchor="start" x="243" y="-593.5" font-family="Helvetica,sans-Serif" font-size="10.00">+ x</text>
<text text-anchor="start" x="243" y="-582.5" font-family="Helvetica,sans-Serif" font-size="10.00">+ a</text>
<text text-anchor="start" x="243" y="-571.5" font-family="Helvetica,sans-Serif" font-size="10.00">+ y</text>
<text text-anchor="start" x="243" y="-560.5" font-family="Helvetica,sans-Serif" font-size="10.00">+ ya</text>
<text text-anchor="start" x="243" y="-549.5" font-family="Helvetica,sans-Serif" font-size="10.00">+ @1</text>
<text text-anchor="start" x="243" y="-538.5" font-family="Helvetica,sans-Serif" font-size="10.00">+ sp</text>
<text text-anchor="start" x="243" y="-527.5" font-family="Helvetica,sans-Serif" font-size="10.00">+ pcl</text>
<text text-anchor="start" x="243" y="-516.5" font-family="Helvetica,sans-Serif" font-size="10.00">+ pch</text>
<text text-anchor="start" x="243" y="-505.5" font-family="Helvetica,sans-Serif" font-size="10.00">+ pc</text>
<text text-anchor="start" x="243" y="-494.5" font-family="Helvetica,sans-Serif" font-size="10.00">+ @3</text>
<text text-anchor="start" x="243" y="-483.5" font-family="Helvetica,sans-Serif" font-size="10.00">and 10 more...</text>
<polyline fill="none" stroke="black" points="235,-476.5 378,-476.5 "/>
<text text-anchor="middle" x="306.5" y="-464.5" font-family="Helvetica,sans-Serif" font-size="10.00"> </text>
</a>
</g>
</g>
<!-- Node4&#45;&gt;Node1 -->
<g id="edge3" class="edge">
<title>Node4&#45;&gt;Node1</title>
<path fill="none" stroke="#404040" d="M322.38,-457.24C329.88,-423.37 340.16,-384.76 353.5,-351 361.34,-331.17 370.99,-310.87 381.22,-291.34"/>
<polygon fill="none" stroke="#404040" points="381.31,-291.17 380.61,-283.99 386.96,-280.58 387.67,-287.76 381.31,-291.17"/>
<text text-anchor="middle" x="403.5" y="-354" font-family="Helvetica,sans-Serif" font-size="10.00"> #_internalRegisters</text>
</g>
<!-- Node5 -->
<g id="node5" class="node">
<title>Node5</title>
<g id="a_node5"><a xlink:href="classComSquare_1_1Renderer_1_1IRenderer.html" target="_top" xlink:title=" ">
<polygon fill="white" stroke="black" points="396,-490.5 396,-602.5 519,-602.5 519,-490.5 396,-490.5"/>
<text text-anchor="start" x="404" y="-590.5" font-family="Helvetica,sans-Serif" font-size="10.00">ComSquare::Renderer</text>
<text text-anchor="middle" x="457.5" y="-579.5" font-family="Helvetica,sans-Serif" font-size="10.00">::IRenderer</text>
<polyline fill="none" stroke="black" points="396,-572.5 519,-572.5 "/>
<text text-anchor="middle" x="457.5" y="-560.5" font-family="Helvetica,sans-Serif" font-size="10.00"> </text>
<polyline fill="none" stroke="black" points="396,-553.5 519,-553.5 "/>
<text text-anchor="start" x="404" y="-541.5" font-family="Helvetica,sans-Serif" font-size="10.00">+ setWindowName()</text>
<text text-anchor="start" x="404" y="-530.5" font-family="Helvetica,sans-Serif" font-size="10.00">+ drawScreen()</text>
<text text-anchor="start" x="404" y="-519.5" font-family="Helvetica,sans-Serif" font-size="10.00">+ putPixel()</text>
<text text-anchor="start" x="404" y="-508.5" font-family="Helvetica,sans-Serif" font-size="10.00">+ createWindow()</text>
<text text-anchor="start" x="404" y="-497.5" font-family="Helvetica,sans-Serif" font-size="10.00">+ playAudio()</text>
</a>
</g>
</g>
<!-- Node5&#45;&gt;Node1 -->
<g id="edge4" class="edge">
<title>Node5&#45;&gt;Node1</title>
<path fill="none" stroke="#404040" d="M457.5,-490.13C457.5,-451.51 457.5,-397.65 457.5,-344.99"/>
<polygon fill="none" stroke="#404040" points="457.5,-344.71 453.5,-338.71 457.5,-332.71 461.5,-338.71 457.5,-344.71"/>
<text text-anchor="middle" x="486.5" y="-354" font-family="Helvetica,sans-Serif" font-size="10.00"> #_renderer</text>
</g>
<!-- Node6 -->
<g id="node6" class="node">
<title>Node6</title>
<g id="a_node6"><a xlink:href="classComSquare_1_1APU_1_1DSP_1_1DSP.html" target="_top" xlink:title=" ">
<polygon fill="white" stroke="black" points="537.5,-380.5 537.5,-712.5 687.5,-712.5 687.5,-380.5 537.5,-380.5"/>
<text text-anchor="middle" x="612.5" y="-700.5" font-family="Helvetica,sans-Serif" font-size="10.00">ComSquare::APU::DSP::DSP</text>
<polyline fill="none" stroke="black" points="537.5,-693.5 687.5,-693.5 "/>
<text text-anchor="start" x="545.5" y="-681.5" font-family="Helvetica,sans-Serif" font-size="10.00">&#45; _rateModulus</text>
<text text-anchor="start" x="545.5" y="-670.5" font-family="Helvetica,sans-Serif" font-size="10.00">&#45; _counterOffset</text>
<text text-anchor="start" x="545.5" y="-659.5" font-family="Helvetica,sans-Serif" font-size="10.00">&#45; _gauss</text>
<text text-anchor="start" x="545.5" y="-648.5" font-family="Helvetica,sans-Serif" font-size="10.00">&#45; _voices</text>
<text text-anchor="start" x="545.5" y="-637.5" font-family="Helvetica,sans-Serif" font-size="10.00">&#45; _map</text>
<polyline fill="none" stroke="black" points="537.5,-630.5 687.5,-630.5 "/>
<text text-anchor="start" x="545.5" y="-618.5" font-family="Helvetica,sans-Serif" font-size="10.00">+ DSP()</text>
<text text-anchor="start" x="545.5" y="-607.5" font-family="Helvetica,sans-Serif" font-size="10.00">+ DSP()</text>
<text text-anchor="start" x="545.5" y="-596.5" font-family="Helvetica,sans-Serif" font-size="10.00">+ operator=()</text>
<text text-anchor="start" x="545.5" y="-585.5" font-family="Helvetica,sans-Serif" font-size="10.00">+ ~DSP()</text>
<text text-anchor="start" x="545.5" y="-574.5" font-family="Helvetica,sans-Serif" font-size="10.00">+ getVoices()</text>
<text text-anchor="start" x="545.5" y="-563.5" font-family="Helvetica,sans-Serif" font-size="10.00">+ getMaster()</text>
<text text-anchor="start" x="545.5" y="-552.5" font-family="Helvetica,sans-Serif" font-size="10.00">+ getEcho()</text>
<text text-anchor="start" x="545.5" y="-541.5" font-family="Helvetica,sans-Serif" font-size="10.00">+ getNoise()</text>
<text text-anchor="start" x="545.5" y="-530.5" font-family="Helvetica,sans-Serif" font-size="10.00">+ getBrr()</text>
<text text-anchor="start" x="545.5" y="-519.5" font-family="Helvetica,sans-Serif" font-size="10.00">+ getLatch()</text>
<text text-anchor="start" x="545.5" y="-508.5" font-family="Helvetica,sans-Serif" font-size="10.00">and 7 more...</text>
<text text-anchor="start" x="545.5" y="-497.5" font-family="Helvetica,sans-Serif" font-size="10.00">&#45; voiceOutput()</text>
<text text-anchor="start" x="545.5" y="-486.5" font-family="Helvetica,sans-Serif" font-size="10.00">&#45; voice1()</text>
<text text-anchor="start" x="545.5" y="-475.5" font-family="Helvetica,sans-Serif" font-size="10.00">&#45; voice2()</text>
<text text-anchor="start" x="545.5" y="-464.5" font-family="Helvetica,sans-Serif" font-size="10.00">&#45; voice3()</text>
<text text-anchor="start" x="545.5" y="-453.5" font-family="Helvetica,sans-Serif" font-size="10.00">&#45; voice3a()</text>
<text text-anchor="start" x="545.5" y="-442.5" font-family="Helvetica,sans-Serif" font-size="10.00">&#45; voice3b()</text>
<text text-anchor="start" x="545.5" y="-431.5" font-family="Helvetica,sans-Serif" font-size="10.00">&#45; voice3c()</text>
<text text-anchor="start" x="545.5" y="-420.5" font-family="Helvetica,sans-Serif" font-size="10.00">&#45; voice4()</text>
<text text-anchor="start" x="545.5" y="-409.5" font-family="Helvetica,sans-Serif" font-size="10.00">&#45; voice5()</text>
<text text-anchor="start" x="545.5" y="-398.5" font-family="Helvetica,sans-Serif" font-size="10.00">&#45; voice6()</text>
<text text-anchor="start" x="545.5" y="-387.5" font-family="Helvetica,sans-Serif" font-size="10.00">and 27 more...</text>
</a>
</g>
</g>
<!-- Node6&#45;&gt;Node1 -->
<g id="edge5" class="edge">
<title>Node6&#45;&gt;Node1</title>
<path fill="none" stroke="#404040" d="M544.74,-380.25C539.78,-368.16 534.77,-355.94 529.79,-343.78"/>
<polygon fill="none" stroke="#404040" points="529.77,-343.75 523.8,-339.72 525.22,-332.65 531.2,-336.68 529.77,-343.75"/>
<text text-anchor="middle" x="551.5" y="-354" font-family="Helvetica,sans-Serif" font-size="10.00"> #_dsp</text>
</g>
<!-- Node7 -->
<g id="node7" class="node">
<title>Node7</title>
<g id="a_node7"><a xlink:href="structComSquare_1_1APU_1_1DSP_1_1Timer.html" target="_top" xlink:title=" ">
<polygon fill="white" stroke="black" points="149,-832 149,-911 274,-911 274,-832 149,-832"/>
<text text-anchor="start" x="157" y="-899" font-family="Helvetica,sans-Serif" font-size="10.00">ComSquare::APU::DSP</text>
<text text-anchor="middle" x="211.5" y="-888" font-family="Helvetica,sans-Serif" font-size="10.00">::Timer</text>
<polyline fill="none" stroke="black" points="149,-881 274,-881 "/>
<text text-anchor="start" x="157" y="-869" font-family="Helvetica,sans-Serif" font-size="10.00">+ counter</text>
<text text-anchor="start" x="157" y="-858" font-family="Helvetica,sans-Serif" font-size="10.00">+ sample</text>
<polyline fill="none" stroke="black" points="149,-851 274,-851 "/>
<text text-anchor="middle" x="211.5" y="-839" font-family="Helvetica,sans-Serif" font-size="10.00"> </text>
</a>
</g>
</g>
<!-- Node7&#45;&gt;Node6 -->
<g id="edge6" class="edge">
<title>Node7&#45;&gt;Node6</title>
<path fill="none" stroke="#404040" d="M227,-831.79C238.7,-807.52 257.1,-777.59 282.5,-760 332.95,-725.06 357.19,-742.36 417.5,-731 463.16,-722.4 484.98,-739.71 527.23,-712.91"/>
<polygon fill="none" stroke="#404040" points="527.3,-712.86 529.97,-706.16 537.18,-706.05 534.51,-712.75 527.3,-712.86"/>
<text text-anchor="middle" x="437" y="-734" font-family="Helvetica,sans-Serif" font-size="10.00"> &#45;_timer</text>
</g>
<!-- Node8 -->
<g id="node8" class="node">
<title>Node8</title>
<g id="a_node8"><a xlink:href="structComSquare_1_1APU_1_1DSP_1_1State.html" target="_top" xlink:title="Current state of the DSP.">
<polygon fill="white" stroke="black" points="292,-821 292,-922 417,-922 417,-821 292,-821"/>
<text text-anchor="start" x="300" y="-910" font-family="Helvetica,sans-Serif" font-size="10.00">ComSquare::APU::DSP</text>
<text text-anchor="middle" x="354.5" y="-899" font-family="Helvetica,sans-Serif" font-size="10.00">::State</text>
<polyline fill="none" stroke="black" points="292,-892 417,-892 "/>
<text text-anchor="start" x="300" y="-880" font-family="Helvetica,sans-Serif" font-size="10.00">+ voice</text>
<text text-anchor="start" x="300" y="-869" font-family="Helvetica,sans-Serif" font-size="10.00">+ buffer</text>
<text text-anchor="start" x="300" y="-858" font-family="Helvetica,sans-Serif" font-size="10.00">+ bufferSize</text>
<text text-anchor="start" x="300" y="-847" font-family="Helvetica,sans-Serif" font-size="10.00">+ bufferOffset</text>
<polyline fill="none" stroke="black" points="292,-840 417,-840 "/>
<text text-anchor="start" x="300" y="-828" font-family="Helvetica,sans-Serif" font-size="10.00">+ State()</text>
</a>
</g>
</g>
<!-- Node8&#45;&gt;Node6 -->
<g id="edge7" class="edge">
<title>Node8&#45;&gt;Node6</title>
<path fill="none" stroke="#404040" d="M378.79,-820.86C390.89,-800.01 407.09,-776.77 426.5,-760 464.27,-727.37 492.54,-747.62 528.5,-713 528.59,-712.91 528.69,-712.82 528.78,-712.73"/>
<polygon fill="none" stroke="#404040" points="528.96,-712.55 530.24,-705.45 537.28,-703.91 536,-711.01 528.96,-712.55"/>
<text text-anchor="middle" x="518" y="-734" font-family="Helvetica,sans-Serif" font-size="10.00"> &#45;_state</text>
</g>
<!-- Node9 -->
<g id="node9" class="node">
<title>Node9</title>
<g id="a_node9"><a xlink:href="structComSquare_1_1APU_1_1DSP_1_1Master.html" target="_top" xlink:title=" ">
<polygon fill="white" stroke="black" points="435,-815.5 435,-927.5 560,-927.5 560,-815.5 435,-815.5"/>
<text text-anchor="start" x="443" y="-915.5" font-family="Helvetica,sans-Serif" font-size="10.00">ComSquare::APU::DSP</text>
<text text-anchor="middle" x="497.5" y="-904.5" font-family="Helvetica,sans-Serif" font-size="10.00">::Master</text>
<polyline fill="none" stroke="black" points="435,-897.5 560,-897.5 "/>
<text text-anchor="start" x="443" y="-885.5" font-family="Helvetica,sans-Serif" font-size="10.00">+ volume</text>
<text text-anchor="start" x="443" y="-874.5" font-family="Helvetica,sans-Serif" font-size="10.00">+ mute</text>
<text text-anchor="start" x="443" y="-863.5" font-family="Helvetica,sans-Serif" font-size="10.00">+ reset</text>
<text text-anchor="start" x="443" y="-852.5" font-family="Helvetica,sans-Serif" font-size="10.00">+ output</text>
<text text-anchor="start" x="443" y="-841.5" font-family="Helvetica,sans-Serif" font-size="10.00">+ unused</text>
<polyline fill="none" stroke="black" points="435,-834.5 560,-834.5 "/>
<text text-anchor="middle" x="497.5" y="-822.5" font-family="Helvetica,sans-Serif" font-size="10.00"> </text>
</a>
</g>
</g>
<!-- Node9&#45;&gt;Node6 -->
<g id="edge8" class="edge">
<title>Node9&#45;&gt;Node6</title>
<path fill="none" stroke="#404040" d="M517.14,-815.34C526.29,-789.63 537.75,-757.45 549.51,-724.41"/>
<polygon fill="none" stroke="#404040" points="549.66,-724 547.91,-717 553.69,-712.69 555.44,-719.68 549.66,-724"/>
<text text-anchor="middle" x="568" y="-734" font-family="Helvetica,sans-Serif" font-size="10.00"> &#45;_master</text>
</g>
<!-- Node10 -->
<g id="node10" class="node">
<title>Node10</title>
<g id="a_node10"><a xlink:href="structComSquare_1_1APU_1_1DSP_1_1Echo.html" target="_top" xlink:title=" ">
<polygon fill="white" stroke="black" points="578,-760.5 578,-982.5 703,-982.5 703,-760.5 578,-760.5"/>
<text text-anchor="start" x="586" y="-970.5" font-family="Helvetica,sans-Serif" font-size="10.00">ComSquare::APU::DSP</text>
<text text-anchor="middle" x="640.5" y="-959.5" font-family="Helvetica,sans-Serif" font-size="10.00">::Echo</text>
<polyline fill="none" stroke="black" points="578,-952.5 703,-952.5 "/>
<text text-anchor="start" x="586" y="-940.5" font-family="Helvetica,sans-Serif" font-size="10.00">+ volume</text>
<text text-anchor="start" x="586" y="-929.5" font-family="Helvetica,sans-Serif" font-size="10.00">+ feedback</text>
<text text-anchor="start" x="586" y="-918.5" font-family="Helvetica,sans-Serif" font-size="10.00">+ FIR</text>
<text text-anchor="start" x="586" y="-907.5" font-family="Helvetica,sans-Serif" font-size="10.00">+ data</text>
<text text-anchor="start" x="586" y="-896.5" font-family="Helvetica,sans-Serif" font-size="10.00">+ offset</text>
<text text-anchor="start" x="586" y="-885.5" font-family="Helvetica,sans-Serif" font-size="10.00">+ length</text>
<text text-anchor="start" x="586" y="-874.5" font-family="Helvetica,sans-Serif" font-size="10.00">+ delay</text>
<text text-anchor="start" x="586" y="-863.5" font-family="Helvetica,sans-Serif" font-size="10.00">+ enabled</text>
<text text-anchor="start" x="586" y="-852.5" font-family="Helvetica,sans-Serif" font-size="10.00">+ toggle</text>
<text text-anchor="start" x="586" y="-841.5" font-family="Helvetica,sans-Serif" font-size="10.00">+ history</text>
<text text-anchor="start" x="586" y="-830.5" font-family="Helvetica,sans-Serif" font-size="10.00">+ historyOffset</text>
<text text-anchor="start" x="586" y="-819.5" font-family="Helvetica,sans-Serif" font-size="10.00">+ address</text>
<text text-anchor="start" x="586" y="-808.5" font-family="Helvetica,sans-Serif" font-size="10.00">+ value</text>
<text text-anchor="start" x="586" y="-797.5" font-family="Helvetica,sans-Serif" font-size="10.00">+ input</text>
<text text-anchor="start" x="586" y="-786.5" font-family="Helvetica,sans-Serif" font-size="10.00">+ output</text>
<polyline fill="none" stroke="black" points="578,-779.5 703,-779.5 "/>
<text text-anchor="middle" x="640.5" y="-767.5" font-family="Helvetica,sans-Serif" font-size="10.00"> </text>
</a>
</g>
</g>
<!-- Node10&#45;&gt;Node6 -->
<g id="edge9" class="edge">
<title>Node10&#45;&gt;Node6</title>
<path fill="none" stroke="#404040" d="M630.94,-760.25C629.94,-748.73 628.91,-736.83 627.87,-724.81"/>
<polygon fill="none" stroke="#404040" points="627.86,-724.72 623.36,-719.09 626.83,-712.76 631.33,-718.39 627.86,-724.72"/>
<text text-anchor="middle" x="646.5" y="-734" font-family="Helvetica,sans-Serif" font-size="10.00"> &#45;_echo</text>
</g>
<!-- Node11 -->
<g id="node11" class="node">
<title>Node11</title>
<g id="a_node11"><a xlink:href="structComSquare_1_1APU_1_1DSP_1_1BRR.html" target="_top" xlink:title=" ">
<polygon fill="white" stroke="black" points="721,-810 721,-933 872,-933 872,-810 721,-810"/>
<text text-anchor="middle" x="796.5" y="-921" font-family="Helvetica,sans-Serif" font-size="10.00">ComSquare::APU::DSP::BRR</text>
<polyline fill="none" stroke="black" points="721,-914 872,-914 "/>
<text text-anchor="start" x="729" y="-902" font-family="Helvetica,sans-Serif" font-size="10.00">+ offset</text>
<text text-anchor="start" x="729" y="-891" font-family="Helvetica,sans-Serif" font-size="10.00">+ offsetAddr</text>
<text text-anchor="start" x="729" y="-880" font-family="Helvetica,sans-Serif" font-size="10.00">+ address</text>
<text text-anchor="start" x="729" y="-869" font-family="Helvetica,sans-Serif" font-size="10.00">+ nextAddress</text>
<text text-anchor="start" x="729" y="-858" font-family="Helvetica,sans-Serif" font-size="10.00">+ value</text>
<text text-anchor="start" x="729" y="-847" font-family="Helvetica,sans-Serif" font-size="10.00">+ header</text>
<text text-anchor="start" x="729" y="-836" font-family="Helvetica,sans-Serif" font-size="10.00">+ source</text>
<polyline fill="none" stroke="black" points="721,-829 872,-829 "/>
<text text-anchor="middle" x="796.5" y="-817" font-family="Helvetica,sans-Serif" font-size="10.00"> </text>
</a>
</g>
</g>
<!-- Node11&#45;&gt;Node6 -->
<g id="edge10" class="edge">
<title>Node11&#45;&gt;Node6</title>
<path fill="none" stroke="#404040" d="M756.7,-809.92C738.11,-780.94 716.04,-745.55 697.5,-713 696.17,-710.66 694.83,-708.3 693.5,-705.92"/>
<polygon fill="none" stroke="#404040" points="693.47,-705.87 687.05,-702.57 687.63,-695.38 694.04,-698.68 693.47,-705.87"/>
<text text-anchor="middle" x="725.5" y="-734" font-family="Helvetica,sans-Serif" font-size="10.00"> &#45;_brr</text>
</g>
<!-- Node12 -->
<g id="node12" class="node">
<title>Node12</title>
<g id="a_node12"><a xlink:href="structComSquare_1_1APU_1_1DSP_1_1Latch.html" target="_top" xlink:title=" ">
<polygon fill="white" stroke="black" points="890,-815.5 890,-927.5 1015,-927.5 1015,-815.5 890,-815.5"/>
<text text-anchor="start" x="898" y="-915.5" font-family="Helvetica,sans-Serif" font-size="10.00">ComSquare::APU::DSP</text>
<text text-anchor="middle" x="952.5" y="-904.5" font-family="Helvetica,sans-Serif" font-size="10.00">::Latch</text>
<polyline fill="none" stroke="black" points="890,-897.5 1015,-897.5 "/>
<text text-anchor="start" x="898" y="-885.5" font-family="Helvetica,sans-Serif" font-size="10.00">+ adsr1</text>
<text text-anchor="start" x="898" y="-874.5" font-family="Helvetica,sans-Serif" font-size="10.00">+ envx</text>
<text text-anchor="start" x="898" y="-863.5" font-family="Helvetica,sans-Serif" font-size="10.00">+ outx</text>
<text text-anchor="start" x="898" y="-852.5" font-family="Helvetica,sans-Serif" font-size="10.00">+ pitch</text>
<text text-anchor="start" x="898" y="-841.5" font-family="Helvetica,sans-Serif" font-size="10.00">+ output</text>
<polyline fill="none" stroke="black" points="890,-834.5 1015,-834.5 "/>
<text text-anchor="middle" x="952.5" y="-822.5" font-family="Helvetica,sans-Serif" font-size="10.00"> </text>
</a>
</g>
</g>
<!-- Node12&#45;&gt;Node6 -->
<g id="edge11" class="edge">
<title>Node12&#45;&gt;Node6</title>
<path fill="none" stroke="#404040" d="M927.97,-815.42C916.5,-795.31 901.01,-774.07 881.5,-760 847.27,-735.31 730.49,-739.31 697.5,-713 697.29,-712.83 697.07,-712.66 696.86,-712.49"/>
<polygon fill="none" stroke="#404040" points="696.64,-712.29 689.49,-711.32 687.64,-704.35 694.78,-705.32 696.64,-712.29"/>
<text text-anchor="middle" x="838" y="-734" font-family="Helvetica,sans-Serif" font-size="10.00"> &#45;_latch</text>
</g>
<!-- Node13 -->
<g id="node13" class="node">
<title>Node13</title>
<g id="a_node13"><a xlink:href="structComSquare_1_1APU_1_1DSP_1_1Noise.html" target="_top" xlink:title=" ">
<polygon fill="white" stroke="black" points="1033,-832 1033,-911 1158,-911 1158,-832 1033,-832"/>
<text text-anchor="start" x="1041" y="-899" font-family="Helvetica,sans-Serif" font-size="10.00">ComSquare::APU::DSP</text>
<text text-anchor="middle" x="1095.5" y="-888" font-family="Helvetica,sans-Serif" font-size="10.00">::Noise</text>
<polyline fill="none" stroke="black" points="1033,-881 1158,-881 "/>
<text text-anchor="start" x="1041" y="-869" font-family="Helvetica,sans-Serif" font-size="10.00">+ clock</text>
<text text-anchor="start" x="1041" y="-858" font-family="Helvetica,sans-Serif" font-size="10.00">+ lfsr</text>
<polyline fill="none" stroke="black" points="1033,-851 1158,-851 "/>
<text text-anchor="middle" x="1095.5" y="-839" font-family="Helvetica,sans-Serif" font-size="10.00"> </text>
</a>
</g>
</g>
<!-- Node13&#45;&gt;Node6 -->
<g id="edge12" class="edge">
<title>Node13&#45;&gt;Node6</title>
<path fill="none" stroke="#404040" d="M1080.34,-831.75C1068.74,-807.3 1050.31,-777.19 1024.5,-760 962.89,-718.98 933.77,-741.51 860.5,-731 824.43,-725.82 727.51,-733.67 697.5,-713 697.39,-712.93 697.28,-712.85 697.18,-712.78"/>
<polygon fill="none" stroke="#404040" points="697.02,-712.65 689.82,-712.16 687.52,-705.32 694.71,-705.82 697.02,-712.65"/>
<text text-anchor="middle" x="1007" y="-734" font-family="Helvetica,sans-Serif" font-size="10.00"> &#45;_noise</text>
</g>
<!-- Node14 -->
<g id="node14" class="node">
<title>Node14</title>
<g id="a_node14"><a xlink:href="structComSquare_1_1APU_1_1Registers.html" target="_top" xlink:title=" ">
<polygon fill="white" stroke="black" points="706,-441 706,-652 857,-652 857,-441 706,-441"/>
<text text-anchor="middle" x="781.5" y="-640" font-family="Helvetica,sans-Serif" font-size="10.00">ComSquare::APU::Registers</text>
<polyline fill="none" stroke="black" points="706,-633 857,-633 "/>
<text text-anchor="start" x="714" y="-621" font-family="Helvetica,sans-Serif" font-size="10.00">+ unknown</text>
<text text-anchor="start" x="714" y="-610" font-family="Helvetica,sans-Serif" font-size="10.00">+ ctrlreg</text>
<text text-anchor="start" x="714" y="-599" font-family="Helvetica,sans-Serif" font-size="10.00">+ dspregAddr</text>
<text text-anchor="start" x="714" y="-588" font-family="Helvetica,sans-Serif" font-size="10.00">+ port0</text>
<text text-anchor="start" x="714" y="-577" font-family="Helvetica,sans-Serif" font-size="10.00">+ port1</text>
<text text-anchor="start" x="714" y="-566" font-family="Helvetica,sans-Serif" font-size="10.00">+ port2</text>
<text text-anchor="start" x="714" y="-555" font-family="Helvetica,sans-Serif" font-size="10.00">+ port3</text>
<text text-anchor="start" x="714" y="-544" font-family="Helvetica,sans-Serif" font-size="10.00">+ regmem1</text>
<text text-anchor="start" x="714" y="-533" font-family="Helvetica,sans-Serif" font-size="10.00">+ regmem2</text>
<text text-anchor="start" x="714" y="-522" font-family="Helvetica,sans-Serif" font-size="10.00">+ timer0</text>
<text text-anchor="start" x="714" y="-511" font-family="Helvetica,sans-Serif" font-size="10.00">+ timer1</text>
<text text-anchor="start" x="714" y="-500" font-family="Helvetica,sans-Serif" font-size="10.00">+ timer2</text>
<text text-anchor="start" x="714" y="-489" font-family="Helvetica,sans-Serif" font-size="10.00">+ counter0</text>
<text text-anchor="start" x="714" y="-478" font-family="Helvetica,sans-Serif" font-size="10.00">+ counter1</text>
<text text-anchor="start" x="714" y="-467" font-family="Helvetica,sans-Serif" font-size="10.00">+ counter2</text>
<polyline fill="none" stroke="black" points="706,-460 857,-460 "/>
<text text-anchor="middle" x="781.5" y="-448" font-family="Helvetica,sans-Serif" font-size="10.00"> </text>
</a>
</g>
</g>
<!-- Node14&#45;&gt;Node1 -->
<g id="edge13" class="edge">
<title>Node14&#45;&gt;Node1</title>
<path fill="none" stroke="#404040" d="M735.2,-440.84C723.88,-419.81 710.84,-398.51 696.5,-380 650.97,-321.25 587.7,-265.83 537.7,-226.33"/>
<polygon fill="none" stroke="#404040" points="537.65,-226.29 530.46,-225.74 528.2,-218.89 535.39,-219.44 537.65,-226.29"/>
<text text-anchor="middle" x="709.5" y="-354" font-family="Helvetica,sans-Serif" font-size="10.00"> #_registers</text>
</g>
</g>
</svg>
