<?xml version="1.0" encoding="UTF-8" standalone="no"?>
<!DOCTYPE svg PUBLIC "-//W3C//DTD SVG 1.1//EN"
 "http://www.w3.org/Graphics/SVG/1.1/DTD/svg11.dtd">
<!-- Generated by graphviz version 2.43.0 (0)
 -->
<!-- Title: StackModel Pages: 1 -->
<svg width="1278pt" height="1575pt"
 viewBox="0.00 0.00 1277.69 1575.00" xmlns="http://www.w3.org/2000/svg" xmlns:xlink="http://www.w3.org/1999/xlink">
<g id="graph0" class="graph" transform="scale(1 1) rotate(0) translate(4 1571)">
<title>StackModel</title>
<polygon fill="white" stroke="transparent" points="-4,4 -4,-1571 1273.69,-1571 1273.69,4 -4,4"/>
<!-- Node1 -->
<g id="node1" class="node">
<title>Node1</title>
<g id="a_node1"><a xlink:title="The qt model that show the stack.">
<polygon fill="#bfbfbf" stroke="black" points="368.19,-738.5 368.19,-883.5 477.19,-883.5 477.19,-738.5 368.19,-738.5"/>
<text text-anchor="middle" x="422.69" y="-871.5" font-family="Helvetica,sans-Serif" font-size="10.00">StackModel</text>
<polyline fill="none" stroke="black" points="368.19,-864.5 477.19,-864.5 "/>
<text text-anchor="start" x="376.19" y="-852.5" font-family="Helvetica,sans-Serif" font-size="10.00">&#45; _bus</text>
<polyline fill="none" stroke="black" points="368.19,-845.5 477.19,-845.5 "/>
<text text-anchor="start" x="376.19" y="-833.5" font-family="Helvetica,sans-Serif" font-size="10.00">+ StackModel()</text>
<text text-anchor="start" x="376.19" y="-822.5" font-family="Helvetica,sans-Serif" font-size="10.00">+ StackModel()</text>
<text text-anchor="start" x="376.19" y="-811.5" font-family="Helvetica,sans-Serif" font-size="10.00">+ operator=()</text>
<text text-anchor="start" x="376.19" y="-800.5" font-family="Helvetica,sans-Serif" font-size="10.00">+ ~StackModel()</text>
<text text-anchor="start" x="376.19" y="-789.5" font-family="Helvetica,sans-Serif" font-size="10.00">+ rowCount()</text>
<text text-anchor="start" x="376.19" y="-778.5" font-family="Helvetica,sans-Serif" font-size="10.00">+ columnCount()</text>
<text text-anchor="start" x="376.19" y="-767.5" font-family="Helvetica,sans-Serif" font-size="10.00">+ data()</text>
<text text-anchor="start" x="376.19" y="-756.5" font-family="Helvetica,sans-Serif" font-size="10.00">+ headerData()</text>
<text text-anchor="start" x="376.19" y="-745.5" font-family="Helvetica,sans-Serif" font-size="10.00">+ setMemoryBus()</text>
</a>
</g>
</g>
<!-- Node3 -->
<g id="node3" class="node">
<title>Node3</title>
<g id="a_node3"><a xlink:href="classComSquare_1_1Debugger_1_1CPUDebug.html" target="_top" xlink:title="A custom CPU with a window that show it&#39;s registers and the disassembly.">
<polygon fill="white" stroke="black" points="290.69,-193.5 290.69,-547.5 448.69,-547.5 448.69,-193.5 290.69,-193.5"/>
<text text-anchor="start" x="298.69" y="-535.5" font-family="Helvetica,sans-Serif" font-size="10.00">ComSquare::Debugger</text>
<text text-anchor="middle" x="369.69" y="-524.5" font-family="Helvetica,sans-Serif" font-size="10.00">::CPUDebug</text>
<polyline fill="none" stroke="black" points="290.69,-517.5 448.69,-517.5 "/>
<text text-anchor="start" x="298.69" y="-505.5" font-family="Helvetica,sans-Serif" font-size="10.00">+ disassembledInstructions</text>
<text text-anchor="start" x="298.69" y="-494.5" font-family="Helvetica,sans-Serif" font-size="10.00">+ breakpoints</text>
<text text-anchor="start" x="298.69" y="-483.5" font-family="Helvetica,sans-Serif" font-size="10.00">+ initialStackPointer</text>
<text text-anchor="start" x="298.69" y="-472.5" font-family="Helvetica,sans-Serif" font-size="10.00">&#45; _ui</text>
<text text-anchor="start" x="298.69" y="-461.5" font-family="Helvetica,sans-Serif" font-size="10.00">&#45; _isPaused</text>
<text text-anchor="start" x="298.69" y="-450.5" font-family="Helvetica,sans-Serif" font-size="10.00">&#45; _isStepping</text>
<polyline fill="none" stroke="black" points="290.69,-443.5 448.69,-443.5 "/>
<text text-anchor="start" x="298.69" y="-431.5" font-family="Helvetica,sans-Serif" font-size="10.00">+ showError()</text>
<text text-anchor="start" x="298.69" y="-420.5" font-family="Helvetica,sans-Serif" font-size="10.00">+ pause()</text>
<text text-anchor="start" x="298.69" y="-409.5" font-family="Helvetica,sans-Serif" font-size="10.00">+ step()</text>
<text text-anchor="start" x="298.69" y="-398.5" font-family="Helvetica,sans-Serif" font-size="10.00">+ next()</text>
<text text-anchor="start" x="298.69" y="-387.5" font-family="Helvetica,sans-Serif" font-size="10.00">+ clearHistory()</text>
<text text-anchor="start" x="298.69" y="-376.5" font-family="Helvetica,sans-Serif" font-size="10.00">+ toggleBreakpoint()</text>
<text text-anchor="start" x="298.69" y="-365.5" font-family="Helvetica,sans-Serif" font-size="10.00">+ disableDebugger()</text>
<text text-anchor="start" x="298.69" y="-354.5" font-family="Helvetica,sans-Serif" font-size="10.00">+ getProceededParameters()</text>
<text text-anchor="start" x="298.69" y="-343.5" font-family="Helvetica,sans-Serif" font-size="10.00">+ getPC()</text>
<text text-anchor="start" x="298.69" y="-332.5" font-family="Helvetica,sans-Serif" font-size="10.00">+ getStackPointer()</text>
<text text-anchor="start" x="298.69" y="-321.5" font-family="Helvetica,sans-Serif" font-size="10.00">and 9 more...</text>
<text text-anchor="start" x="298.69" y="-310.5" font-family="Helvetica,sans-Serif" font-size="10.00">&#45; _executeInstruction()</text>
<text text-anchor="start" x="298.69" y="-299.5" font-family="Helvetica,sans-Serif" font-size="10.00">&#45; _getDisassemblyContext()</text>
<text text-anchor="start" x="298.69" y="-288.5" font-family="Helvetica,sans-Serif" font-size="10.00">&#45; _disassemble()</text>
<text text-anchor="start" x="298.69" y="-277.5" font-family="Helvetica,sans-Serif" font-size="10.00">&#45; _updateDisassembly()</text>
<text text-anchor="start" x="298.69" y="-266.5" font-family="Helvetica,sans-Serif" font-size="10.00">&#45; _parseInstruction()</text>
<text text-anchor="start" x="298.69" y="-255.5" font-family="Helvetica,sans-Serif" font-size="10.00">&#45; _getInstructionParameter()</text>
<text text-anchor="start" x="298.69" y="-244.5" font-family="Helvetica,sans-Serif" font-size="10.00">&#45; _getFlagsString()</text>
<text text-anchor="start" x="298.69" y="-233.5" font-family="Helvetica,sans-Serif" font-size="10.00">&#45; _updateRegistersPanel()</text>
<text text-anchor="start" x="298.69" y="-222.5" font-family="Helvetica,sans-Serif" font-size="10.00">&#45; _getImmediateValue()</text>
<text text-anchor="start" x="298.69" y="-211.5" font-family="Helvetica,sans-Serif" font-size="10.00">&#45; _getAbsoluteValue()</text>
<text text-anchor="start" x="298.69" y="-200.5" font-family="Helvetica,sans-Serif" font-size="10.00">and 17 more...</text>
</a>
</g>
</g>
<!-- Node1&#45;&gt;Node3 -->
<g id="edge13" class="edge">
<title>Node1&#45;&gt;Node3</title>
<path fill="none" stroke="#404040" d="M417.52,-738.33C413.69,-689.64 407.9,-623.82 400.69,-566 400.44,-563.93 400.17,-561.85 399.91,-559.76"/>
<polygon fill="none" stroke="#404040" points="399.88,-559.57 395.13,-554.14 398.32,-547.67 403.07,-553.1 399.88,-559.57"/>
<text text-anchor="middle" x="435.19" y="-569" font-family="Helvetica,sans-Serif" font-size="10.00"> &#45;_stackModel</text>
</g>
<!-- Node2 -->
<g id="node2" class="node">
<title>Node2</title>
<g id="a_node2"><a xlink:title=" ">
<polygon fill="white" stroke="#bfbfbf" points="294.69,-1173.5 294.69,-1230.5 414.69,-1230.5 414.69,-1173.5 294.69,-1173.5"/>
<text text-anchor="middle" x="354.69" y="-1218.5" font-family="Helvetica,sans-Serif" font-size="10.00">QAbstractTableModel</text>
<polyline fill="none" stroke="#bfbfbf" points="294.69,-1211.5 414.69,-1211.5 "/>
<text text-anchor="middle" x="354.69" y="-1199.5" font-family="Helvetica,sans-Serif" font-size="10.00"> </text>
<polyline fill="none" stroke="#bfbfbf" points="294.69,-1192.5 414.69,-1192.5 "/>
<text text-anchor="middle" x="354.69" y="-1180.5" font-family="Helvetica,sans-Serif" font-size="10.00"> </text>
</a>
</g>
</g>
<!-- Node2&#45;&gt;Node1 -->
<g id="edge1" class="edge">
<title>Node2&#45;&gt;Node1</title>
<path fill="none" stroke="midnightblue" d="M361.3,-1163.2C372.59,-1098.62 395.77,-966.03 410.19,-883.51"/>
<polygon fill="none" stroke="midnightblue" points="357.8,-1162.88 359.53,-1173.34 364.7,-1164.09 357.8,-1162.88"/>
</g>
<!-- Node16 -->
<g id="node16" class="node">
<title>Node16</title>
<g id="a_node16"><a xlink:href="classDisassemblyModel.html" target="_top" xlink:title="The qt model that show the disassembly.">
<polygon fill="white" stroke="black" points="64.19,-0.5 64.19,-134.5 201.19,-134.5 201.19,-0.5 64.19,-0.5"/>
<text text-anchor="middle" x="132.69" y="-122.5" font-family="Helvetica,sans-Serif" font-size="10.00">DisassemblyModel</text>
<polyline fill="none" stroke="black" points="64.19,-115.5 201.19,-115.5 "/>
<text text-anchor="middle" x="132.69" y="-103.5" font-family="Helvetica,sans-Serif" font-size="10.00"> </text>
<polyline fill="none" stroke="black" points="64.19,-96.5 201.19,-96.5 "/>
<text text-anchor="start" x="72.19" y="-84.5" font-family="Helvetica,sans-Serif" font-size="10.00">+ DisassemblyModel()</text>
<text text-anchor="start" x="72.19" y="-73.5" font-family="Helvetica,sans-Serif" font-size="10.00">+ DisassemblyModel()</text>
<text text-anchor="start" x="72.19" y="-62.5" font-family="Helvetica,sans-Serif" font-size="10.00">+ operator=()</text>
<text text-anchor="start" x="72.19" y="-51.5" font-family="Helvetica,sans-Serif" font-size="10.00">+ ~DisassemblyModel()</text>
<text text-anchor="start" x="72.19" y="-40.5" font-family="Helvetica,sans-Serif" font-size="10.00">+ rowCount()</text>
<text text-anchor="start" x="72.19" y="-29.5" font-family="Helvetica,sans-Serif" font-size="10.00">+ columnCount()</text>
<text text-anchor="start" x="72.19" y="-18.5" font-family="Helvetica,sans-Serif" font-size="10.00">+ data()</text>
<text text-anchor="start" x="72.19" y="-7.5" font-family="Helvetica,sans-Serif" font-size="10.00">+ headerData()</text>
</a>
</g>
</g>
<!-- Node2&#45;&gt;Node16 -->
<g id="edge18" class="edge">
<title>Node2&#45;&gt;Node16</title>
<path fill="none" stroke="midnightblue" d="M285.05,-1178.96C218.82,-1153.86 123.07,-1105.78 79.69,-1027 -84.2,-729.36 46.57,-297.88 106.61,-134.51"/>
<polygon fill="none" stroke="midnightblue" points="284,-1182.31 294.59,-1182.5 286.43,-1175.74 284,-1182.31"/>
</g>
<!-- Node19 -->
<g id="node19" class="node">
<title>Node19</title>
<g id="a_node19"><a xlink:href="classHistoryModel.html" target="_top" xlink:title="The qt model that show the history.">
<polygon fill="white" stroke="black" points="495.19,-733 495.19,-889 604.19,-889 604.19,-733 495.19,-733"/>
<text text-anchor="middle" x="549.69" y="-877" font-family="Helvetica,sans-Serif" font-size="10.00">HistoryModel</text>
<polyline fill="none" stroke="black" points="495.19,-870 604.19,-870 "/>
<text text-anchor="start" x="503.19" y="-858" font-family="Helvetica,sans-Serif" font-size="10.00">&#45; _instructions</text>
<polyline fill="none" stroke="black" points="495.19,-851 604.19,-851 "/>
<text text-anchor="start" x="503.19" y="-839" font-family="Helvetica,sans-Serif" font-size="10.00">+ HistoryModel()</text>
<text text-anchor="start" x="503.19" y="-828" font-family="Helvetica,sans-Serif" font-size="10.00">+ HistoryModel()</text>
<text text-anchor="start" x="503.19" y="-817" font-family="Helvetica,sans-Serif" font-size="10.00">+ operator=()</text>
<text text-anchor="start" x="503.19" y="-806" font-family="Helvetica,sans-Serif" font-size="10.00">+ ~HistoryModel()</text>
<text text-anchor="start" x="503.19" y="-795" font-family="Helvetica,sans-Serif" font-size="10.00">+ log()</text>
<text text-anchor="start" x="503.19" y="-784" font-family="Helvetica,sans-Serif" font-size="10.00">+ clear()</text>
<text text-anchor="start" x="503.19" y="-773" font-family="Helvetica,sans-Serif" font-size="10.00">+ rowCount()</text>
<text text-anchor="start" x="503.19" y="-762" font-family="Helvetica,sans-Serif" font-size="10.00">+ columnCount()</text>
<text text-anchor="start" x="503.19" y="-751" font-family="Helvetica,sans-Serif" font-size="10.00">+ data()</text>
<text text-anchor="start" x="503.19" y="-740" font-family="Helvetica,sans-Serif" font-size="10.00">+ headerData()</text>
</a>
</g>
</g>
<!-- Node2&#45;&gt;Node19 -->
<g id="edge24" class="edge">
<title>Node2&#45;&gt;Node19</title>
<path fill="none" stroke="midnightblue" d="M370.05,-1164C382.32,-1137.19 401.3,-1101.05 424.69,-1074 447.31,-1047.84 467.07,-1055.47 486.69,-1027 514.9,-986.09 530.64,-932.47 539.34,-889.01"/>
<polygon fill="none" stroke="midnightblue" points="366.73,-1162.86 365.84,-1173.42 373.12,-1165.71 366.73,-1162.86"/>
</g>
<!-- Node3&#45;&gt;Node1 -->
<g id="edge2" class="edge">
<title>Node3&#45;&gt;Node1</title>
<path fill="none" stroke="#404040" d="M368.07,-547.65C368.75,-557.59 369.62,-567.43 370.69,-577 376.35,-627.18 388.4,-682.37 399.48,-726.43"/>
<polygon fill="none" stroke="#404040" points="399.53,-726.63 404.89,-731.46 402.49,-738.26 397.13,-733.43 399.53,-726.63"/>
<text text-anchor="middle" x="385.69" y="-569" font-family="Helvetica,sans-Serif" font-size="10.00"> &#45;_cpu</text>
</g>
<!-- Node14 -->
<g id="node14" class="node">
<title>Node14</title>
<g id="a_node14"><a xlink:href="classComSquare_1_1Debugger_1_1ClosableWindow.html" target="_top" xlink:title=" ">
<polygon fill="white" stroke="black" points="219.19,-6 219.19,-129 390.19,-129 390.19,-6 219.19,-6"/>
<text text-anchor="start" x="227.19" y="-117" font-family="Helvetica,sans-Serif" font-size="10.00">ComSquare::Debugger</text>
<text text-anchor="start" x="227.19" y="-106" font-family="Helvetica,sans-Serif" font-size="10.00">::ClosableWindow&lt; ComSquare</text>
<text text-anchor="middle" x="304.69" y="-95" font-family="Helvetica,sans-Serif" font-size="10.00">::Debugger::CPUDebug &gt;</text>
<polyline fill="none" stroke="black" points="219.19,-88 390.19,-88 "/>
<text text-anchor="middle" x="304.69" y="-76" font-family="Helvetica,sans-Serif" font-size="10.00"> </text>
<polyline fill="none" stroke="black" points="219.19,-69 390.19,-69 "/>
<text text-anchor="start" x="227.19" y="-57" font-family="Helvetica,sans-Serif" font-size="10.00">+ ClosableWindow()</text>
<text text-anchor="start" x="227.19" y="-46" font-family="Helvetica,sans-Serif" font-size="10.00">+ ClosableWindow()</text>
<text text-anchor="start" x="227.19" y="-35" font-family="Helvetica,sans-Serif" font-size="10.00">+ operator=()</text>
<text text-anchor="start" x="227.19" y="-24" font-family="Helvetica,sans-Serif" font-size="10.00">+ ~ClosableWindow()</text>
<text text-anchor="start" x="227.19" y="-13" font-family="Helvetica,sans-Serif" font-size="10.00"># closeEvent()</text>
</a>
</g>
</g>
<!-- Node3&#45;&gt;Node14 -->
<g id="edge16" class="edge">
<title>Node3&#45;&gt;Node14</title>
<path fill="none" stroke="#404040" d="M298.59,-193.27C297.13,-187.15 295.82,-181.05 294.69,-175 292.67,-164.14 292.13,-152.58 292.49,-141.22"/>
<polygon fill="none" stroke="#404040" points="292.5,-141.01 288.86,-134.78 293.21,-129.03 296.85,-135.25 292.5,-141.01"/>
<text text-anchor="middle" x="319.19" y="-167" font-family="Helvetica,sans-Serif" font-size="10.00"> &#45;_obj</text>
<text text-anchor="middle" x="319.19" y="-156" font-family="Helvetica,sans-Serif" font-size="10.00">&#45;_onClose</text>
</g>
<!-- Node3&#45;&gt;Node16 -->
<g id="edge19" class="edge">
<title>Node3&#45;&gt;Node16</title>
<path fill="none" stroke="#404040" d="M290.64,-230.13C278.61,-216.22 265.28,-203.41 250.69,-193 225.6,-175.08 207.41,-194.71 183.69,-175 173.96,-166.91 165.95,-156.52 159.4,-145.42"/>
<polygon fill="none" stroke="#404040" points="159.27,-145.17 152.9,-141.79 153.57,-134.61 159.94,-137.99 159.27,-145.17"/>
<text text-anchor="middle" x="198.69" y="-161.5" font-family="Helvetica,sans-Serif" font-size="10.00"> &#45;_cpu</text>
</g>
<!-- Node17 -->
<g id="node17" class="node">
<title>Node17</title>
<g id="a_node17"><a xlink:href="classRowPainter.html" target="_top" xlink:title="The qt class that highlight breakpoints and the PC&#39;s position.">
<polygon fill="white" stroke="black" points="446.69,-17 446.69,-118 544.69,-118 544.69,-17 446.69,-17"/>
<text text-anchor="middle" x="495.69" y="-106" font-family="Helvetica,sans-Serif" font-size="10.00">RowPainter</text>
<polyline fill="none" stroke="black" points="446.69,-99 544.69,-99 "/>
<text text-anchor="middle" x="495.69" y="-87" font-family="Helvetica,sans-Serif" font-size="10.00"> </text>
<polyline fill="none" stroke="black" points="446.69,-80 544.69,-80 "/>
<text text-anchor="start" x="454.69" y="-68" font-family="Helvetica,sans-Serif" font-size="10.00">+ RowPainter()</text>
<text text-anchor="start" x="454.69" y="-57" font-family="Helvetica,sans-Serif" font-size="10.00">+ operator=()</text>
<text text-anchor="start" x="454.69" y="-46" font-family="Helvetica,sans-Serif" font-size="10.00">+ ~RowPainter()</text>
<text text-anchor="start" x="454.69" y="-35" font-family="Helvetica,sans-Serif" font-size="10.00"># sizeHint()</text>
<text text-anchor="start" x="454.69" y="-24" font-family="Helvetica,sans-Serif" font-size="10.00"># paint()</text>
</a>
</g>
</g>
<!-- Node3&#45;&gt;Node17 -->
<g id="edge22" class="edge">
<title>Node3&#45;&gt;Node17</title>
<path fill="none" stroke="#404040" d="M422.14,-193.31C427.62,-179.49 433.48,-165.9 439.69,-153 443.63,-144.84 448.24,-136.55 453.1,-128.51"/>
<polygon fill="none" stroke="#404040" points="453.24,-128.29 453.03,-121.08 459.6,-118.11 459.81,-125.32 453.24,-128.29"/>
<text text-anchor="middle" x="454.69" y="-161.5" font-family="Helvetica,sans-Serif" font-size="10.00"> &#45;_cpu</text>
</g>
<!-- Node4 -->
<g id="node4" class="node">
<title>Node4</title>
<g id="a_node4"><a xlink:href="classComSquare_1_1CPU_1_1CPU.html" target="_top" xlink:title="The main CPU.">
<polygon fill="white" stroke="black" points="708.69,-595.5 708.69,-1026.5 894.69,-1026.5 894.69,-595.5 708.69,-595.5"/>
<text text-anchor="middle" x="801.69" y="-1014.5" font-family="Helvetica,sans-Serif" font-size="10.00">ComSquare::CPU::CPU</text>
<polyline fill="none" stroke="black" points="708.69,-1007.5 894.69,-1007.5 "/>
<text text-anchor="start" x="716.69" y="-995.5" font-family="Helvetica,sans-Serif" font-size="10.00">+ IsNMIRequested</text>
<text text-anchor="start" x="716.69" y="-984.5" font-family="Helvetica,sans-Serif" font-size="10.00">+ IsIRQRequested</text>
<text text-anchor="start" x="716.69" y="-973.5" font-family="Helvetica,sans-Serif" font-size="10.00">+ IsAbortRequested</text>
<text text-anchor="start" x="716.69" y="-962.5" font-family="Helvetica,sans-Serif" font-size="10.00"># _isEmulationMode</text>
<text text-anchor="start" x="716.69" y="-951.5" font-family="Helvetica,sans-Serif" font-size="10.00"># _isStopped</text>
<text text-anchor="start" x="716.69" y="-940.5" font-family="Helvetica,sans-Serif" font-size="10.00"># _isWaitingForInterrupt</text>
<text text-anchor="start" x="716.69" y="-929.5" font-family="Helvetica,sans-Serif" font-size="10.00"># _bus</text>
<text text-anchor="start" x="716.69" y="-918.5" font-family="Helvetica,sans-Serif" font-size="10.00"># _dmaChannels</text>
<text text-anchor="start" x="716.69" y="-907.5" font-family="Helvetica,sans-Serif" font-size="10.00"># _hasIndexCrossedPageBoundary</text>
<polyline fill="none" stroke="black" points="708.69,-900.5 894.69,-900.5 "/>
<text text-anchor="start" x="716.69" y="-888.5" font-family="Helvetica,sans-Serif" font-size="10.00">+ CPU()</text>
<text text-anchor="start" x="716.69" y="-877.5" font-family="Helvetica,sans-Serif" font-size="10.00">+ CPU()</text>
<text text-anchor="start" x="716.69" y="-866.5" font-family="Helvetica,sans-Serif" font-size="10.00">+ operator=()</text>
<text text-anchor="start" x="716.69" y="-855.5" font-family="Helvetica,sans-Serif" font-size="10.00">+ ~CPU()</text>
<text text-anchor="start" x="716.69" y="-844.5" font-family="Helvetica,sans-Serif" font-size="10.00">+ update()</text>
<text text-anchor="start" x="716.69" y="-833.5" font-family="Helvetica,sans-Serif" font-size="10.00">+ read()</text>
<text text-anchor="start" x="716.69" y="-822.5" font-family="Helvetica,sans-Serif" font-size="10.00">+ write()</text>
<text text-anchor="start" x="716.69" y="-811.5" font-family="Helvetica,sans-Serif" font-size="10.00">+ getSize()</text>
<text text-anchor="start" x="716.69" y="-800.5" font-family="Helvetica,sans-Serif" font-size="10.00">+ getName()</text>
<text text-anchor="start" x="716.69" y="-789.5" font-family="Helvetica,sans-Serif" font-size="10.00">+ getComponent()</text>
<text text-anchor="start" x="716.69" y="-778.5" font-family="Helvetica,sans-Serif" font-size="10.00">+ RESB()</text>
<text text-anchor="start" x="716.69" y="-767.5" font-family="Helvetica,sans-Serif" font-size="10.00">+ isDebugger()</text>
<text text-anchor="start" x="716.69" y="-756.5" font-family="Helvetica,sans-Serif" font-size="10.00">+ setMemoryBus()</text>
<text text-anchor="start" x="716.69" y="-745.5" font-family="Helvetica,sans-Serif" font-size="10.00"># _getImmediateAddr8Bits()</text>
<text text-anchor="start" x="716.69" y="-734.5" font-family="Helvetica,sans-Serif" font-size="10.00"># _getImmediateAddr16Bits()</text>
<text text-anchor="start" x="716.69" y="-723.5" font-family="Helvetica,sans-Serif" font-size="10.00"># _getImmediateAddrForA()</text>
<text text-anchor="start" x="716.69" y="-712.5" font-family="Helvetica,sans-Serif" font-size="10.00"># _getImmediateAddrForX()</text>
<text text-anchor="start" x="716.69" y="-701.5" font-family="Helvetica,sans-Serif" font-size="10.00"># _getDirectAddr()</text>
<text text-anchor="start" x="716.69" y="-690.5" font-family="Helvetica,sans-Serif" font-size="10.00"># _getAbsoluteAddr()</text>
<text text-anchor="start" x="716.69" y="-679.5" font-family="Helvetica,sans-Serif" font-size="10.00"># _getAbsoluteLongAddr()</text>
<text text-anchor="start" x="716.69" y="-668.5" font-family="Helvetica,sans-Serif" font-size="10.00"># _getDirectIndirectIndexed</text>
<text text-anchor="start" x="716.69" y="-657.5" font-family="Helvetica,sans-Serif" font-size="10.00">YAddr()</text>
<text text-anchor="start" x="716.69" y="-646.5" font-family="Helvetica,sans-Serif" font-size="10.00"># _getDirectIndirectIndexed</text>
<text text-anchor="start" x="716.69" y="-635.5" font-family="Helvetica,sans-Serif" font-size="10.00">YLongAddr()</text>
<text text-anchor="start" x="716.69" y="-624.5" font-family="Helvetica,sans-Serif" font-size="10.00"># _getDirectIndirectIndexed</text>
<text text-anchor="start" x="716.69" y="-613.5" font-family="Helvetica,sans-Serif" font-size="10.00">XAddr()</text>
<text text-anchor="start" x="716.69" y="-602.5" font-family="Helvetica,sans-Serif" font-size="10.00">and 113 more...</text>
</a>
</g>
</g>
<!-- Node4&#45;&gt;Node3 -->
<g id="edge3" class="edge">
<title>Node4&#45;&gt;Node3</title>
<path fill="none" stroke="midnightblue" d="M701.86,-680.23C675.17,-650.14 644.99,-619.73 613.69,-595 592.01,-577.87 584.49,-575.91 558.69,-566 528.31,-554.33 514.29,-566.78 487.69,-548 473.54,-538.01 460.61,-525.73 448.93,-512.35"/>
<polygon fill="none" stroke="midnightblue" points="699.34,-682.66 708.57,-687.86 704.6,-678.04 699.34,-682.66"/>
</g>
<!-- Node5 -->
<g id="node5" class="node">
<title>Node5</title>
<g id="a_node5"><a xlink:href="classComSquare_1_1Memory_1_1AMemory.html" target="_top" xlink:title="Abstract class representing a continuous block of memory.">
<polygon fill="white" stroke="black" points="938.19,-1129.5 938.19,-1274.5 1069.19,-1274.5 1069.19,-1129.5 938.19,-1129.5"/>
<text text-anchor="start" x="946.19" y="-1262.5" font-family="Helvetica,sans-Serif" font-size="10.00">ComSquare::Memory::</text>
<text text-anchor="middle" x="1003.69" y="-1251.5" font-family="Helvetica,sans-Serif" font-size="10.00">AMemory</text>
<polyline fill="none" stroke="black" points="938.19,-1244.5 1069.19,-1244.5 "/>
<text text-anchor="start" x="946.19" y="-1232.5" font-family="Helvetica,sans-Serif" font-size="10.00"># _start</text>
<text text-anchor="start" x="946.19" y="-1221.5" font-family="Helvetica,sans-Serif" font-size="10.00"># _end</text>
<polyline fill="none" stroke="black" points="938.19,-1214.5 1069.19,-1214.5 "/>
<text text-anchor="start" x="946.19" y="-1202.5" font-family="Helvetica,sans-Serif" font-size="10.00">+ getRelativeAddress()</text>
<text text-anchor="start" x="946.19" y="-1191.5" font-family="Helvetica,sans-Serif" font-size="10.00">+ setMemoryRegion()</text>
<text text-anchor="start" x="946.19" y="-1180.5" font-family="Helvetica,sans-Serif" font-size="10.00">+ hasMemoryAt()</text>
<text text-anchor="start" x="946.19" y="-1169.5" font-family="Helvetica,sans-Serif" font-size="10.00">+ isMirror()</text>
<text text-anchor="start" x="946.19" y="-1158.5" font-family="Helvetica,sans-Serif" font-size="10.00">+ getValueName()</text>
<text text-anchor="start" x="946.19" y="-1147.5" font-family="Helvetica,sans-Serif" font-size="10.00">+ getMirrored()</text>
<text text-anchor="start" x="946.19" y="-1136.5" font-family="Helvetica,sans-Serif" font-size="10.00">+ ~AMemory()</text>
</a>
</g>
</g>
<!-- Node5&#45;&gt;Node4 -->
<g id="edge4" class="edge">
<title>Node5&#45;&gt;Node4</title>
<path fill="none" stroke="midnightblue" d="M961.56,-1119.87C942.12,-1082.42 918.19,-1036.35 894.84,-991.37"/>
<polygon fill="none" stroke="midnightblue" points="958.69,-1121.94 966.41,-1129.2 964.91,-1118.71 958.69,-1121.94"/>
</g>
<!-- Node6 -->
<g id="node6" class="node">
<title>Node6</title>
<g id="a_node6"><a xlink:href="classComSquare_1_1Memory_1_1IMemory.html" target="_top" xlink:title="Common interface implemented by all components mapping memory.">
<polygon fill="white" stroke="black" points="938.19,-1388.5 938.19,-1566.5 1069.19,-1566.5 1069.19,-1388.5 938.19,-1388.5"/>
<text text-anchor="start" x="946.19" y="-1554.5" font-family="Helvetica,sans-Serif" font-size="10.00">ComSquare::Memory::</text>
<text text-anchor="middle" x="1003.69" y="-1543.5" font-family="Helvetica,sans-Serif" font-size="10.00">IMemory</text>
<polyline fill="none" stroke="black" points="938.19,-1536.5 1069.19,-1536.5 "/>
<text text-anchor="middle" x="1003.69" y="-1524.5" font-family="Helvetica,sans-Serif" font-size="10.00"> </text>
<polyline fill="none" stroke="black" points="938.19,-1517.5 1069.19,-1517.5 "/>
<text text-anchor="start" x="946.19" y="-1505.5" font-family="Helvetica,sans-Serif" font-size="10.00">+ read()</text>
<text text-anchor="start" x="946.19" y="-1494.5" font-family="Helvetica,sans-Serif" font-size="10.00">+ write()</text>
<text text-anchor="start" x="946.19" y="-1483.5" font-family="Helvetica,sans-Serif" font-size="10.00">+ hasMemoryAt()</text>
<text text-anchor="start" x="946.19" y="-1472.5" font-family="Helvetica,sans-Serif" font-size="10.00">+ getRelativeAddress()</text>
<text text-anchor="start" x="946.19" y="-1461.5" font-family="Helvetica,sans-Serif" font-size="10.00">+ getSize()</text>
<text text-anchor="start" x="946.19" y="-1450.5" font-family="Helvetica,sans-Serif" font-size="10.00">+ isMirror()</text>
<text text-anchor="start" x="946.19" y="-1439.5" font-family="Helvetica,sans-Serif" font-size="10.00">+ getName()</text>
<text text-anchor="start" x="946.19" y="-1428.5" font-family="Helvetica,sans-Serif" font-size="10.00">+ getComponent()</text>
<text text-anchor="start" x="946.19" y="-1417.5" font-family="Helvetica,sans-Serif" font-size="10.00">+ getValueName()</text>
<text text-anchor="start" x="946.19" y="-1406.5" font-family="Helvetica,sans-Serif" font-size="10.00">+ getMirrored()</text>
<text text-anchor="start" x="946.19" y="-1395.5" font-family="Helvetica,sans-Serif" font-size="10.00">+ ~IMemory()</text>
</a>
</g>
</g>
<!-- Node6&#45;&gt;Node5 -->
<g id="edge5" class="edge">
<title>Node6&#45;&gt;Node5</title>
<path fill="none" stroke="midnightblue" d="M1003.69,-1378.45C1003.69,-1344.26 1003.69,-1306.55 1003.69,-1274.89"/>
<polygon fill="none" stroke="midnightblue" points="1000.19,-1378.46 1003.69,-1388.46 1007.19,-1378.46 1000.19,-1378.46"/>
</g>
<!-- Node7 -->
<g id="node7" class="node">
<title>Node7</title>
<g id="a_node7"><a xlink:href="structComSquare_1_1Cartridge_1_1Header.html" target="_top" xlink:title=" ">
<polygon fill="white" stroke="black" points="1087.69,-1074.5 1087.69,-1329.5 1233.69,-1329.5 1233.69,-1074.5 1087.69,-1074.5"/>
<text text-anchor="start" x="1095.69" y="-1317.5" font-family="Helvetica,sans-Serif" font-size="10.00">ComSquare::Cartridge</text>
<text text-anchor="middle" x="1160.69" y="-1306.5" font-family="Helvetica,sans-Serif" font-size="10.00">::Header</text>
<polyline fill="none" stroke="black" points="1087.69,-1299.5 1233.69,-1299.5 "/>
<text text-anchor="start" x="1095.69" y="-1287.5" font-family="Helvetica,sans-Serif" font-size="10.00">+ gameName</text>
<text text-anchor="start" x="1095.69" y="-1276.5" font-family="Helvetica,sans-Serif" font-size="10.00">+ mappingMode</text>
<text text-anchor="start" x="1095.69" y="-1265.5" font-family="Helvetica,sans-Serif" font-size="10.00">+ romType</text>
<text text-anchor="start" x="1095.69" y="-1254.5" font-family="Helvetica,sans-Serif" font-size="10.00">+ romSize</text>
<text text-anchor="start" x="1095.69" y="-1243.5" font-family="Helvetica,sans-Serif" font-size="10.00">+ sramSize</text>
<text text-anchor="start" x="1095.69" y="-1232.5" font-family="Helvetica,sans-Serif" font-size="10.00">+ creatorIDs</text>
<text text-anchor="start" x="1095.69" y="-1221.5" font-family="Helvetica,sans-Serif" font-size="10.00">+ creatorID</text>
<text text-anchor="start" x="1095.69" y="-1210.5" font-family="Helvetica,sans-Serif" font-size="10.00">+ @21</text>
<text text-anchor="start" x="1095.69" y="-1199.5" font-family="Helvetica,sans-Serif" font-size="10.00">+ version</text>
<text text-anchor="start" x="1095.69" y="-1188.5" font-family="Helvetica,sans-Serif" font-size="10.00">+ checksumComplements</text>
<text text-anchor="start" x="1095.69" y="-1177.5" font-family="Helvetica,sans-Serif" font-size="10.00">+ checksumComplement</text>
<text text-anchor="start" x="1095.69" y="-1166.5" font-family="Helvetica,sans-Serif" font-size="10.00">+ @23</text>
<text text-anchor="start" x="1095.69" y="-1155.5" font-family="Helvetica,sans-Serif" font-size="10.00">+ checksums</text>
<text text-anchor="start" x="1095.69" y="-1144.5" font-family="Helvetica,sans-Serif" font-size="10.00">+ checksum</text>
<text text-anchor="start" x="1095.69" y="-1133.5" font-family="Helvetica,sans-Serif" font-size="10.00">+ @25</text>
<polyline fill="none" stroke="black" points="1087.69,-1126.5 1233.69,-1126.5 "/>
<text text-anchor="start" x="1095.69" y="-1114.5" font-family="Helvetica,sans-Serif" font-size="10.00">+ Header()</text>
<text text-anchor="start" x="1095.69" y="-1103.5" font-family="Helvetica,sans-Serif" font-size="10.00">+ Header()</text>
<text text-anchor="start" x="1095.69" y="-1092.5" font-family="Helvetica,sans-Serif" font-size="10.00">+ operator=()</text>
<text text-anchor="start" x="1095.69" y="-1081.5" font-family="Helvetica,sans-Serif" font-size="10.00">+ ~Header()</text>
</a>
</g>
</g>
<!-- Node7&#45;&gt;Node4 -->
<g id="edge6" class="edge">
<title>Node7&#45;&gt;Node4</title>
<path fill="none" stroke="#404040" d="M1087.68,-1085.22C1084.71,-1081.38 1081.71,-1077.63 1078.69,-1074 1025.9,-1010.46 958.75,-946.6 903.79,-897.84"/>
<polygon fill="none" stroke="#404040" points="903.72,-897.78 896.57,-896.81 894.72,-889.84 901.87,-890.81 903.72,-897.78"/>
<text text-anchor="middle" x="1105.69" y="-1048" font-family="Helvetica,sans-Serif" font-size="10.00"> #_cartridgeHeader</text>
</g>
<!-- Node8 -->
<g id="node8" class="node">
<title>Node8</title>
<g id="a_node8"><a xlink:href="structComSquare_1_1Cartridge_1_1InterruptVectors.html" target="_top" xlink:title=" ">
<polygon fill="white" stroke="black" points="1098.69,-1388.5 1098.69,-1566.5 1222.69,-1566.5 1222.69,-1388.5 1098.69,-1388.5"/>
<text text-anchor="start" x="1106.69" y="-1554.5" font-family="Helvetica,sans-Serif" font-size="10.00">ComSquare::Cartridge</text>
<text text-anchor="middle" x="1160.69" y="-1543.5" font-family="Helvetica,sans-Serif" font-size="10.00">::InterruptVectors</text>
<polyline fill="none" stroke="black" points="1098.69,-1536.5 1222.69,-1536.5 "/>
<text text-anchor="start" x="1106.69" y="-1524.5" font-family="Helvetica,sans-Serif" font-size="10.00">+ cop8</text>
<text text-anchor="start" x="1106.69" y="-1513.5" font-family="Helvetica,sans-Serif" font-size="10.00">+ cop</text>
<text text-anchor="start" x="1106.69" y="-1502.5" font-family="Helvetica,sans-Serif" font-size="10.00">+ @27</text>
<text text-anchor="start" x="1106.69" y="-1491.5" font-family="Helvetica,sans-Serif" font-size="10.00">+ brk8</text>
<text text-anchor="start" x="1106.69" y="-1480.5" font-family="Helvetica,sans-Serif" font-size="10.00">+ brk</text>
<text text-anchor="start" x="1106.69" y="-1469.5" font-family="Helvetica,sans-Serif" font-size="10.00">+ @29</text>
<text text-anchor="start" x="1106.69" y="-1458.5" font-family="Helvetica,sans-Serif" font-size="10.00">+ abort8</text>
<text text-anchor="start" x="1106.69" y="-1447.5" font-family="Helvetica,sans-Serif" font-size="10.00">+ abort</text>
<text text-anchor="start" x="1106.69" y="-1436.5" font-family="Helvetica,sans-Serif" font-size="10.00">+ @31</text>
<text text-anchor="start" x="1106.69" y="-1425.5" font-family="Helvetica,sans-Serif" font-size="10.00">+ nmi8</text>
<text text-anchor="start" x="1106.69" y="-1414.5" font-family="Helvetica,sans-Serif" font-size="10.00">and 8 more...</text>
<polyline fill="none" stroke="black" points="1098.69,-1407.5 1222.69,-1407.5 "/>
<text text-anchor="middle" x="1160.69" y="-1395.5" font-family="Helvetica,sans-Serif" font-size="10.00"> </text>
</a>
</g>
</g>
<!-- Node8&#45;&gt;Node7 -->
<g id="edge7" class="edge">
<title>Node8&#45;&gt;Node7</title>
<path fill="none" stroke="#404040" d="M1160.69,-1388.46C1160.69,-1373.52 1160.69,-1357.7 1160.69,-1341.84"/>
<polygon fill="none" stroke="#404040" points="1160.69,-1341.72 1156.69,-1335.72 1160.69,-1329.72 1164.69,-1335.72 1160.69,-1341.72"/>
<text text-anchor="middle" x="1215.19" y="-1362" font-family="Helvetica,sans-Serif" font-size="10.00"> +emulationInterrupts</text>
<text text-anchor="middle" x="1215.19" y="-1351" font-family="Helvetica,sans-Serif" font-size="10.00">+nativeInterrupts</text>
</g>
<!-- Node9 -->
<g id="node9" class="node">
<title>Node9</title>
<g id="a_node9"><a xlink:href="structComSquare_1_1CPU_1_1Instruction.html" target="_top" xlink:title="Struct containing basic information about instructions.">
<polygon fill="white" stroke="black" points="433.19,-1151.5 433.19,-1252.5 590.19,-1252.5 590.19,-1151.5 433.19,-1151.5"/>
<text text-anchor="middle" x="511.69" y="-1240.5" font-family="Helvetica,sans-Serif" font-size="10.00">ComSquare::CPU::Instruction</text>
<polyline fill="none" stroke="black" points="433.19,-1233.5 590.19,-1233.5 "/>
<text text-anchor="start" x="441.19" y="-1221.5" font-family="Helvetica,sans-Serif" font-size="10.00">+ call</text>
<text text-anchor="start" x="441.19" y="-1210.5" font-family="Helvetica,sans-Serif" font-size="10.00">+ cycleCount</text>
<text text-anchor="start" x="441.19" y="-1199.5" font-family="Helvetica,sans-Serif" font-size="10.00">+ name</text>
<text text-anchor="start" x="441.19" y="-1188.5" font-family="Helvetica,sans-Serif" font-size="10.00">+ addressingMode</text>
<text text-anchor="start" x="441.19" y="-1177.5" font-family="Helvetica,sans-Serif" font-size="10.00">+ size</text>
<polyline fill="none" stroke="black" points="433.19,-1170.5 590.19,-1170.5 "/>
<text text-anchor="middle" x="511.69" y="-1158.5" font-family="Helvetica,sans-Serif" font-size="10.00"> </text>
</a>
</g>
</g>
<!-- Node9&#45;&gt;Node4 -->
<g id="edge8" class="edge">
<title>Node9&#45;&gt;Node4</title>
<path fill="none" stroke="#404040" d="M545.18,-1151.44C561.37,-1127.79 581.25,-1099.23 599.69,-1074 632.08,-1029.71 668.42,-981.99 701.26,-939.58"/>
<polygon fill="none" stroke="#404040" points="701.29,-939.53 701.81,-932.34 708.65,-930.05 708.13,-937.24 701.29,-939.53"/>
<text text-anchor="middle" x="657.69" y="-1048" font-family="Helvetica,sans-Serif" font-size="10.00"> #_instructions</text>
</g>
<!-- Node10 -->
<g id="node10" class="node">
<title>Node10</title>
<g id="a_node10"><a xlink:href="structComSquare_1_1CPU_1_1InternalRegisters.html" target="_top" xlink:title="Struct containing internal registers of the CPU.">
<polygon fill="white" stroke="black" points="608.19,-1113 608.19,-1291 751.19,-1291 751.19,-1113 608.19,-1113"/>
<text text-anchor="start" x="616.19" y="-1279" font-family="Helvetica,sans-Serif" font-size="10.00">ComSquare::CPU::Internal</text>
<text text-anchor="middle" x="679.69" y="-1268" font-family="Helvetica,sans-Serif" font-size="10.00">Registers</text>
<polyline fill="none" stroke="black" points="608.19,-1261 751.19,-1261 "/>
<text text-anchor="start" x="616.19" y="-1249" font-family="Helvetica,sans-Serif" font-size="10.00">+ nmitimen</text>
<text text-anchor="start" x="616.19" y="-1238" font-family="Helvetica,sans-Serif" font-size="10.00">+ wrio</text>
<text text-anchor="start" x="616.19" y="-1227" font-family="Helvetica,sans-Serif" font-size="10.00">+ wrmpya</text>
<text text-anchor="start" x="616.19" y="-1216" font-family="Helvetica,sans-Serif" font-size="10.00">+ wrmpyb</text>
<text text-anchor="start" x="616.19" y="-1205" font-family="Helvetica,sans-Serif" font-size="10.00">+ wrdivl</text>
<text text-anchor="start" x="616.19" y="-1194" font-family="Helvetica,sans-Serif" font-size="10.00">+ wrdivh</text>
<text text-anchor="start" x="616.19" y="-1183" font-family="Helvetica,sans-Serif" font-size="10.00">+ wrdivb</text>
<text text-anchor="start" x="616.19" y="-1172" font-family="Helvetica,sans-Serif" font-size="10.00">+ htimel</text>
<text text-anchor="start" x="616.19" y="-1161" font-family="Helvetica,sans-Serif" font-size="10.00">+ htimeh</text>
<text text-anchor="start" x="616.19" y="-1150" font-family="Helvetica,sans-Serif" font-size="10.00">+ vtimel</text>
<text text-anchor="start" x="616.19" y="-1139" font-family="Helvetica,sans-Serif" font-size="10.00">and 19 more...</text>
<polyline fill="none" stroke="black" points="608.19,-1132 751.19,-1132 "/>
<text text-anchor="middle" x="679.69" y="-1120" font-family="Helvetica,sans-Serif" font-size="10.00"> </text>
</a>
</g>
</g>
<!-- Node10&#45;&gt;Node4 -->
<g id="edge9" class="edge">
<title>Node10&#45;&gt;Node4</title>
<path fill="none" stroke="#404040" d="M703.74,-1112.92C710.03,-1090.69 716.94,-1066.92 723.69,-1045 724.39,-1042.75 725.09,-1040.48 725.8,-1038.2"/>
<polygon fill="none" stroke="#404040" points="725.8,-1038.2 723.77,-1031.28 729.38,-1026.75 731.41,-1033.67 725.8,-1038.2"/>
<text text-anchor="middle" x="773.69" y="-1048" font-family="Helvetica,sans-Serif" font-size="10.00"> #_internalRegisters</text>
</g>
<!-- Node11 -->
<g id="node11" class="node">
<title>Node11</title>
<g id="a_node11"><a xlink:href="structComSquare_1_1CPU_1_1Registers.html" target="_top" xlink:title="Struct containing registers for the main CPU.">
<polygon fill="white" stroke="black" points="769.19,-1118.5 769.19,-1285.5 920.19,-1285.5 920.19,-1118.5 769.19,-1118.5"/>
<text text-anchor="middle" x="844.69" y="-1273.5" font-family="Helvetica,sans-Serif" font-size="10.00">ComSquare::CPU::Registers</text>
<polyline fill="none" stroke="black" points="769.19,-1266.5 920.19,-1266.5 "/>
<text text-anchor="start" x="777.19" y="-1254.5" font-family="Helvetica,sans-Serif" font-size="10.00">+ al</text>
<text text-anchor="start" x="777.19" y="-1243.5" font-family="Helvetica,sans-Serif" font-size="10.00">+ ah</text>
<text text-anchor="start" x="777.19" y="-1232.5" font-family="Helvetica,sans-Serif" font-size="10.00">+ a</text>
<text text-anchor="start" x="777.19" y="-1221.5" font-family="Helvetica,sans-Serif" font-size="10.00">+ @39</text>
<text text-anchor="start" x="777.19" y="-1210.5" font-family="Helvetica,sans-Serif" font-size="10.00">+ dbr</text>
<text text-anchor="start" x="777.19" y="-1199.5" font-family="Helvetica,sans-Serif" font-size="10.00">+ dl</text>
<text text-anchor="start" x="777.19" y="-1188.5" font-family="Helvetica,sans-Serif" font-size="10.00">+ dh</text>
<text text-anchor="start" x="777.19" y="-1177.5" font-family="Helvetica,sans-Serif" font-size="10.00">+ d</text>
<text text-anchor="start" x="777.19" y="-1166.5" font-family="Helvetica,sans-Serif" font-size="10.00">+ @41</text>
<text text-anchor="start" x="777.19" y="-1155.5" font-family="Helvetica,sans-Serif" font-size="10.00">+ pcl</text>
<text text-anchor="start" x="777.19" y="-1144.5" font-family="Helvetica,sans-Serif" font-size="10.00">and 27 more...</text>
<polyline fill="none" stroke="black" points="769.19,-1137.5 920.19,-1137.5 "/>
<text text-anchor="middle" x="844.69" y="-1125.5" font-family="Helvetica,sans-Serif" font-size="10.00"> </text>
</a>
</g>
</g>
<!-- Node11&#45;&gt;Node4 -->
<g id="edge10" class="edge">
<title>Node11&#45;&gt;Node4</title>
<path fill="none" stroke="#404040" d="M835.52,-1118.03C832.89,-1094.21 829.88,-1067.02 826.78,-1038.9"/>
<polygon fill="none" stroke="#404040" points="826.76,-1038.72 822.12,-1033.2 825.44,-1026.8 830.07,-1032.32 826.76,-1038.72"/>
<text text-anchor="middle" x="857.69" y="-1048" font-family="Helvetica,sans-Serif" font-size="10.00"> #_registers</text>
</g>
<!-- Node12 -->
<g id="node12" class="node">
<title>Node12</title>
<g id="a_node12"><a xlink:title=" ">
<polygon fill="white" stroke="#bfbfbf" points="88.69,-782.5 88.69,-839.5 144.69,-839.5 144.69,-782.5 88.69,-782.5"/>
<text text-anchor="middle" x="116.69" y="-827.5" font-family="Helvetica,sans-Serif" font-size="10.00">QObject</text>
<polyline fill="none" stroke="#bfbfbf" points="88.69,-820.5 144.69,-820.5 "/>
<text text-anchor="middle" x="116.69" y="-808.5" font-family="Helvetica,sans-Serif" font-size="10.00"> </text>
<polyline fill="none" stroke="#bfbfbf" points="88.69,-801.5 144.69,-801.5 "/>
<text text-anchor="middle" x="116.69" y="-789.5" font-family="Helvetica,sans-Serif" font-size="10.00"> </text>
</a>
</g>
</g>
<!-- Node12&#45;&gt;Node3 -->
<g id="edge11" class="edge">
<title>Node12&#45;&gt;Node3</title>
<path fill="none" stroke="midnightblue" d="M113.61,-772.27C111.83,-725.9 115.57,-646.98 154.69,-595 183.26,-557.04 214.87,-579.2 250.69,-548 265.05,-535.5 278.44,-520.89 290.68,-505.52"/>
<polygon fill="none" stroke="midnightblue" points="110.12,-772.67 114.11,-782.49 117.12,-772.33 110.12,-772.67"/>
</g>
<!-- Node13 -->
<g id="node13" class="node">
<title>Node13</title>
<g id="a_node13"><a xlink:href="classComSquare_1_1SNES.html" target="_top" xlink:title="Container of all the components of the SNES.">
<polygon fill="white" stroke="black" points="163.19,-694.5 163.19,-927.5 350.19,-927.5 350.19,-694.5 163.19,-694.5"/>
<text text-anchor="middle" x="256.69" y="-915.5" font-family="Helvetica,sans-Serif" font-size="10.00">ComSquare::SNES</text>
<polyline fill="none" stroke="black" points="163.19,-908.5 350.19,-908.5 "/>
<text text-anchor="start" x="171.19" y="-896.5" font-family="Helvetica,sans-Serif" font-size="10.00">+ bus</text>
<text text-anchor="start" x="171.19" y="-885.5" font-family="Helvetica,sans-Serif" font-size="10.00">+ cartridge</text>
<text text-anchor="start" x="171.19" y="-874.5" font-family="Helvetica,sans-Serif" font-size="10.00">+ wram</text>
<text text-anchor="start" x="171.19" y="-863.5" font-family="Helvetica,sans-Serif" font-size="10.00">+ sram</text>
<text text-anchor="start" x="171.19" y="-852.5" font-family="Helvetica,sans-Serif" font-size="10.00">+ cpu</text>
<text text-anchor="start" x="171.19" y="-841.5" font-family="Helvetica,sans-Serif" font-size="10.00">+ ppu</text>
<text text-anchor="start" x="171.19" y="-830.5" font-family="Helvetica,sans-Serif" font-size="10.00">+ apu</text>
<polyline fill="none" stroke="black" points="163.19,-823.5 350.19,-823.5 "/>
<text text-anchor="start" x="171.19" y="-811.5" font-family="Helvetica,sans-Serif" font-size="10.00">+ update()</text>
<text text-anchor="start" x="171.19" y="-800.5" font-family="Helvetica,sans-Serif" font-size="10.00">+ disableCPUDebugging()</text>
<text text-anchor="start" x="171.19" y="-789.5" font-family="Helvetica,sans-Serif" font-size="10.00">+ enableCPUDebugging()</text>
<text text-anchor="start" x="171.19" y="-778.5" font-family="Helvetica,sans-Serif" font-size="10.00">+ enableCPUDebuggingWithError()</text>
<text text-anchor="start" x="171.19" y="-767.5" font-family="Helvetica,sans-Serif" font-size="10.00">+ disableRamViewer()</text>
<text text-anchor="start" x="171.19" y="-756.5" font-family="Helvetica,sans-Serif" font-size="10.00">+ enableRamViewer()</text>
<text text-anchor="start" x="171.19" y="-745.5" font-family="Helvetica,sans-Serif" font-size="10.00">+ disableHeaderViewer()</text>
<text text-anchor="start" x="171.19" y="-734.5" font-family="Helvetica,sans-Serif" font-size="10.00">+ enableHeaderViewer()</text>
<text text-anchor="start" x="171.19" y="-723.5" font-family="Helvetica,sans-Serif" font-size="10.00">+ disableAPUDebugging()</text>
<text text-anchor="start" x="171.19" y="-712.5" font-family="Helvetica,sans-Serif" font-size="10.00">+ enableAPUDebugging()</text>
<text text-anchor="start" x="171.19" y="-701.5" font-family="Helvetica,sans-Serif" font-size="10.00">and 10 more...</text>
</a>
</g>
</g>
<!-- Node13&#45;&gt;Node3 -->
<g id="edge12" class="edge">
<title>Node13&#45;&gt;Node3</title>
<path fill="none" stroke="#404040" d="M286.53,-694.22C297.15,-653.02 309.4,-605.49 321.17,-559.8"/>
<polygon fill="none" stroke="#404040" points="321.24,-559.54 318.86,-552.73 324.23,-547.92 326.61,-554.72 321.24,-559.54"/>
<text text-anchor="middle" x="335.19" y="-569" font-family="Helvetica,sans-Serif" font-size="10.00"> &#45;_snes</text>
</g>
<!-- Node14&#45;&gt;Node3 -->
<g id="edge14" class="edge">
<title>Node14&#45;&gt;Node3</title>
<path fill="none" stroke="#404040" d="M338.9,-129.25C342.32,-137.07 345.37,-145.1 347.69,-153 350.4,-162.21 352.79,-171.73 354.9,-181.4"/>
<polygon fill="none" stroke="#404040" points="354.92,-181.51 360.04,-186.58 357.32,-193.26 352.2,-188.19 354.92,-181.51"/>
<text text-anchor="middle" x="376.69" y="-161.5" font-family="Helvetica,sans-Serif" font-size="10.00"> &#45;_window</text>
</g>
<!-- Node15 -->
<g id="node15" class="node">
<title>Node15</title>
<g id="a_node15"><a xlink:title=" ">
<polygon fill="white" stroke="#bfbfbf" points="155.19,-342 155.19,-399 242.19,-399 242.19,-342 155.19,-342"/>
<text text-anchor="middle" x="198.69" y="-387" font-family="Helvetica,sans-Serif" font-size="10.00">QMainWindow</text>
<polyline fill="none" stroke="#bfbfbf" points="155.19,-380 242.19,-380 "/>
<text text-anchor="middle" x="198.69" y="-368" font-family="Helvetica,sans-Serif" font-size="10.00"> </text>
<polyline fill="none" stroke="#bfbfbf" points="155.19,-361 242.19,-361 "/>
<text text-anchor="middle" x="198.69" y="-349" font-family="Helvetica,sans-Serif" font-size="10.00"> </text>
</a>
</g>
</g>
<!-- Node15&#45;&gt;Node14 -->
<g id="edge15" class="edge">
<title>Node15&#45;&gt;Node14</title>
<path fill="none" stroke="midnightblue" d="M192.97,-331.71C187.94,-286.76 185.16,-210.56 212.69,-153 216.72,-144.59 221.99,-136.62 227.97,-129.18"/>
<polygon fill="none" stroke="midnightblue" points="189.52,-332.39 194.2,-341.89 196.47,-331.55 189.52,-332.39"/>
</g>
<!-- Node16&#45;&gt;Node3 -->
<g id="edge17" class="edge">
<title>Node16&#45;&gt;Node3</title>
<path fill="none" stroke="#404040" d="M199.11,-134.5C216.53,-152.89 234.86,-173.25 250.69,-193 261.79,-206.84 272.91,-221.69 283.65,-236.68"/>
<polygon fill="none" stroke="#404040" points="283.7,-236.77 290.44,-239.35 290.65,-246.55 283.91,-243.97 283.7,-236.77"/>
<text text-anchor="middle" x="255.19" y="-161.5" font-family="Helvetica,sans-Serif" font-size="10.00"> &#45;_model</text>
</g>
<!-- Node17&#45;&gt;Node3 -->
<g id="edge20" class="edge">
<title>Node17&#45;&gt;Node3</title>
<path fill="none" stroke="#404040" d="M488.51,-118.09C485.07,-136.31 480.25,-156.89 473.69,-175 468,-190.72 461.22,-206.74 453.9,-222.5"/>
<polygon fill="none" stroke="#404040" points="453.89,-222.52 454.93,-229.65 448.75,-233.36 447.7,-226.22 453.89,-222.52"/>
<text text-anchor="middle" x="503.19" y="-161.5" font-family="Helvetica,sans-Serif" font-size="10.00"> &#45;_painter</text>
</g>
<!-- Node18 -->
<g id="node18" class="node">
<title>Node18</title>
<g id="a_node18"><a xlink:title=" ">
<polygon fill="white" stroke="#bfbfbf" points="496.69,-342 496.69,-399 618.69,-399 618.69,-342 496.69,-342"/>
<text text-anchor="middle" x="557.69" y="-387" font-family="Helvetica,sans-Serif" font-size="10.00">QStyledItemDelegate</text>
<polyline fill="none" stroke="#bfbfbf" points="496.69,-380 618.69,-380 "/>
<text text-anchor="middle" x="557.69" y="-368" font-family="Helvetica,sans-Serif" font-size="10.00"> </text>
<polyline fill="none" stroke="#bfbfbf" points="496.69,-361 618.69,-361 "/>
<text text-anchor="middle" x="557.69" y="-349" font-family="Helvetica,sans-Serif" font-size="10.00"> </text>
</a>
</g>
</g>
<!-- Node18&#45;&gt;Node17 -->
<g id="edge21" class="edge">
<title>Node18&#45;&gt;Node17</title>
<path fill="none" stroke="midnightblue" d="M560.31,-331.58C562.19,-287.63 561.79,-213.51 543.69,-153 540.17,-141.2 534.75,-129.26 528.8,-118.22"/>
<polygon fill="none" stroke="midnightblue" points="556.8,-331.65 559.8,-341.81 563.79,-331.99 556.8,-331.65"/>
</g>
<!-- Node19&#45;&gt;Node3 -->
<g id="edge23" class="edge">
<title>Node19&#45;&gt;Node3</title>
<path fill="none" stroke="#404040" d="M529.82,-732.8C518.5,-691.48 503.28,-639.98 486.69,-595 477.52,-570.12 466.14,-544.51 454.12,-519.9"/>
<polygon fill="none" stroke="#404040" points="454.07,-519.81 447.82,-516.2 448.74,-509.05 454.99,-512.65 454.07,-519.81"/>
<text text-anchor="middle" x="516.69" y="-569" font-family="Helvetica,sans-Serif" font-size="10.00"> &#45;_historyModel</text>
</g>
</g>
</svg>
