<?xml version="1.0" encoding="UTF-8" standalone="no"?>
<!DOCTYPE svg PUBLIC "-//W3C//DTD SVG 1.1//EN"
 "http://www.w3.org/Graphics/SVG/1.1/DTD/svg11.dtd">
<!-- Generated by graphviz version 2.43.0 (0)
 -->
<!-- Title: RegistersViewerModel Pages: 1 -->
<svg width="334pt" height="435pt"
 viewBox="0.00 0.00 333.50 435.00" xmlns="http://www.w3.org/2000/svg" xmlns:xlink="http://www.w3.org/1999/xlink">
<g id="graph0" class="graph" transform="scale(1 1) rotate(0) translate(4 431)">
<title>RegistersViewerModel</title>
<polygon fill="white" stroke="transparent" points="-4,4 -4,-431 329.5,-431 329.5,4 -4,4"/>
<!-- Node1 -->
<g id="node1" class="node">
<title>Node1</title>
<g id="a_node1"><a xlink:title=" ">
<polygon fill="#bfbfbf" stroke="black" points="69.5,-0.5 69.5,-145.5 222.5,-145.5 222.5,-0.5 69.5,-0.5"/>
<text text-anchor="middle" x="146" y="-133.5" font-family="Helvetica,sans-Serif" font-size="10.00">RegistersViewerModel</text>
<polyline fill="none" stroke="black" points="69.5,-126.5 222.5,-126.5 "/>
<text text-anchor="start" x="77.5" y="-114.5" font-family="Helvetica,sans-Serif" font-size="10.00">&#45; _registers</text>
<polyline fill="none" stroke="black" points="69.5,-107.5 222.5,-107.5 "/>
<text text-anchor="start" x="77.5" y="-95.5" font-family="Helvetica,sans-Serif" font-size="10.00">+ addRegister()</text>
<text text-anchor="start" x="77.5" y="-84.5" font-family="Helvetica,sans-Serif" font-size="10.00">+ RegistersViewerModel()</text>
<text text-anchor="start" x="77.5" y="-73.5" font-family="Helvetica,sans-Serif" font-size="10.00">+ RegistersViewerModel()</text>
<text text-anchor="start" x="77.5" y="-62.5" font-family="Helvetica,sans-Serif" font-size="10.00">+ operator=()</text>
<text text-anchor="start" x="77.5" y="-51.5" font-family="Helvetica,sans-Serif" font-size="10.00">+ ~RegistersViewerModel()</text>
<text text-anchor="start" x="77.5" y="-40.5" font-family="Helvetica,sans-Serif" font-size="10.00">+ rowCount()</text>
<text text-anchor="start" x="77.5" y="-29.5" font-family="Helvetica,sans-Serif" font-size="10.00">+ columnCount()</text>
<text text-anchor="start" x="77.5" y="-18.5" font-family="Helvetica,sans-Serif" font-size="10.00">+ data()</text>
<text text-anchor="start" x="77.5" y="-7.5" font-family="Helvetica,sans-Serif" font-size="10.00">+ headerData()</text>
</a>
</g>
</g>
<!-- Node2 -->
<g id="node2" class="node">
<title>Node2</title>
<g id="a_node2"><a xlink:title=" ">
<polygon fill="white" stroke="#bfbfbf" points="0,-281.5 0,-338.5 120,-338.5 120,-281.5 0,-281.5"/>
<text text-anchor="middle" x="60" y="-326.5" font-family="Helvetica,sans-Serif" font-size="10.00">QAbstractTableModel</text>
<polyline fill="none" stroke="#bfbfbf" points="0,-319.5 120,-319.5 "/>
<text text-anchor="middle" x="60" y="-307.5" font-family="Helvetica,sans-Serif" font-size="10.00"> </text>
<polyline fill="none" stroke="#bfbfbf" points="0,-300.5 120,-300.5 "/>
<text text-anchor="middle" x="60" y="-288.5" font-family="Helvetica,sans-Serif" font-size="10.00"> </text>
</a>
</g>
</g>
<!-- Node2&#45;&gt;Node1 -->
<g id="edge1" class="edge">
<title>Node2&#45;&gt;Node1</title>
<path fill="none" stroke="midnightblue" d="M73.68,-271.63C86.04,-237.83 104.59,-187.14 119.81,-145.56"/>
<polygon fill="none" stroke="midnightblue" points="70.35,-270.53 70.2,-281.12 76.93,-272.93 70.35,-270.53"/>
</g>
<!-- Node3 -->
<g id="node3" class="node">
<title>Node3</title>
<g id="a_node3"><a xlink:href="classComSquare_1_1SNES.html" target="_top" xlink:title="Container of all the components of the SNES.">
<polygon fill="white" stroke="black" points="138.5,-193.5 138.5,-426.5 325.5,-426.5 325.5,-193.5 138.5,-193.5"/>
<text text-anchor="middle" x="232" y="-414.5" font-family="Helvetica,sans-Serif" font-size="10.00">ComSquare::SNES</text>
<polyline fill="none" stroke="black" points="138.5,-407.5 325.5,-407.5 "/>
<text text-anchor="start" x="146.5" y="-395.5" font-family="Helvetica,sans-Serif" font-size="10.00">+ bus</text>
<text text-anchor="start" x="146.5" y="-384.5" font-family="Helvetica,sans-Serif" font-size="10.00">+ cartridge</text>
<text text-anchor="start" x="146.5" y="-373.5" font-family="Helvetica,sans-Serif" font-size="10.00">+ wram</text>
<text text-anchor="start" x="146.5" y="-362.5" font-family="Helvetica,sans-Serif" font-size="10.00">+ sram</text>
<text text-anchor="start" x="146.5" y="-351.5" font-family="Helvetica,sans-Serif" font-size="10.00">+ cpu</text>
<text text-anchor="start" x="146.5" y="-340.5" font-family="Helvetica,sans-Serif" font-size="10.00">+ ppu</text>
<text text-anchor="start" x="146.5" y="-329.5" font-family="Helvetica,sans-Serif" font-size="10.00">+ apu</text>
<polyline fill="none" stroke="black" points="138.5,-322.5 325.5,-322.5 "/>
<text text-anchor="start" x="146.5" y="-310.5" font-family="Helvetica,sans-Serif" font-size="10.00">+ update()</text>
<text text-anchor="start" x="146.5" y="-299.5" font-family="Helvetica,sans-Serif" font-size="10.00">+ disableCPUDebugging()</text>
<text text-anchor="start" x="146.5" y="-288.5" font-family="Helvetica,sans-Serif" font-size="10.00">+ enableCPUDebugging()</text>
<text text-anchor="start" x="146.5" y="-277.5" font-family="Helvetica,sans-Serif" font-size="10.00">+ enableCPUDebuggingWithError()</text>
<text text-anchor="start" x="146.5" y="-266.5" font-family="Helvetica,sans-Serif" font-size="10.00">+ disableRamViewer()</text>
<text text-anchor="start" x="146.5" y="-255.5" font-family="Helvetica,sans-Serif" font-size="10.00">+ enableRamViewer()</text>
<text text-anchor="start" x="146.5" y="-244.5" font-family="Helvetica,sans-Serif" font-size="10.00">+ disableHeaderViewer()</text>
<text text-anchor="start" x="146.5" y="-233.5" font-family="Helvetica,sans-Serif" font-size="10.00">+ enableHeaderViewer()</text>
<text text-anchor="start" x="146.5" y="-222.5" font-family="Helvetica,sans-Serif" font-size="10.00">+ disableAPUDebugging()</text>
<text text-anchor="start" x="146.5" y="-211.5" font-family="Helvetica,sans-Serif" font-size="10.00">+ enableAPUDebugging()</text>
<text text-anchor="start" x="146.5" y="-200.5" font-family="Helvetica,sans-Serif" font-size="10.00">and 10 more...</text>
</a>
</g>
</g>
<!-- Node3&#45;&gt;Node1 -->
<g id="edge2" class="edge">
<title>Node3&#45;&gt;Node1</title>
<path fill="none" stroke="#404040" d="M189.63,-193.22C185.18,-181.06 180.72,-168.87 176.44,-157.17"/>
<polygon fill="none" stroke="#404040" points="176.35,-156.94 170.53,-152.68 172.23,-145.67 178.05,-149.93 176.35,-156.94"/>
<text text-anchor="middle" x="199.5" y="-167" font-family="Helvetica,sans-Serif" font-size="10.00"> &#45;_snes</text>
</g>
</g>
</svg>
