<?xml version="1.0" encoding="UTF-8" standalone="no"?>
<!DOCTYPE svg PUBLIC "-//W3C//DTD SVG 1.1//EN"
 "http://www.w3.org/Graphics/SVG/1.1/DTD/svg11.dtd">
<!-- Generated by graphviz version 2.43.0 (0)
 -->
<!-- Title: ComSquare::Debugger::MemoryViewer Pages: 1 -->
<svg width="582pt" height="745pt"
 viewBox="0.00 0.00 582.00 745.00" xmlns="http://www.w3.org/2000/svg" xmlns:xlink="http://www.w3.org/1999/xlink">
<g id="graph0" class="graph" transform="scale(1 1) rotate(0) translate(4 741)">
<title>ComSquare::Debugger::MemoryViewer</title>
<polygon fill="white" stroke="transparent" points="-4,4 -4,-741 578,-741 578,4 -4,4"/>
<!-- Node1 -->
<g id="node1" class="node">
<title>Node1</title>
<g id="a_node1"><a xlink:title="Class responsible of the Memory Viewer.">
<polygon fill="#bfbfbf" stroke="black" points="193,-182.5 193,-360.5 319,-360.5 319,-182.5 193,-182.5"/>
<text text-anchor="start" x="201" y="-348.5" font-family="Helvetica,sans-Serif" font-size="10.00">ComSquare::Debugger</text>
<text text-anchor="middle" x="256" y="-337.5" font-family="Helvetica,sans-Serif" font-size="10.00">::MemoryViewer</text>
<polyline fill="none" stroke="black" points="193,-330.5 319,-330.5 "/>
<text text-anchor="start" x="201" y="-318.5" font-family="Helvetica,sans-Serif" font-size="10.00">&#45; _ui</text>
<polyline fill="none" stroke="black" points="193,-311.5 319,-311.5 "/>
<text text-anchor="start" x="201" y="-299.5" font-family="Helvetica,sans-Serif" font-size="10.00">+ switchToAddrTab()</text>
<text text-anchor="start" x="201" y="-288.5" font-family="Helvetica,sans-Serif" font-size="10.00">+ changeRam()</text>
<text text-anchor="start" x="201" y="-277.5" font-family="Helvetica,sans-Serif" font-size="10.00">+ gotoAddr()</text>
<text text-anchor="start" x="201" y="-266.5" font-family="Helvetica,sans-Serif" font-size="10.00">+ gotoAbsoluteAddr()</text>
<text text-anchor="start" x="201" y="-255.5" font-family="Helvetica,sans-Serif" font-size="10.00">+ focus()</text>
<text text-anchor="start" x="201" y="-244.5" font-family="Helvetica,sans-Serif" font-size="10.00">+ MemoryViewer()</text>
<text text-anchor="start" x="201" y="-233.5" font-family="Helvetica,sans-Serif" font-size="10.00">+ MemoryViewer()</text>
<text text-anchor="start" x="201" y="-222.5" font-family="Helvetica,sans-Serif" font-size="10.00">+ operator=()</text>
<text text-anchor="start" x="201" y="-211.5" font-family="Helvetica,sans-Serif" font-size="10.00">+ ~MemoryViewer()</text>
<text text-anchor="start" x="201" y="-200.5" font-family="Helvetica,sans-Serif" font-size="10.00">+ disableViewer()</text>
<text text-anchor="start" x="201" y="-189.5" font-family="Helvetica,sans-Serif" font-size="10.00">&#45; _internalGoto()</text>
</a>
</g>
</g>
<!-- Node5 -->
<g id="node5" class="node">
<title>Node5</title>
<g id="a_node5"><a xlink:href="classComSquare_1_1Debugger_1_1ClosableWindow.html" target="_top" xlink:title=" ">
<polygon fill="white" stroke="black" points="98.5,-0.5 98.5,-123.5 269.5,-123.5 269.5,-0.5 98.5,-0.5"/>
<text text-anchor="start" x="106.5" y="-111.5" font-family="Helvetica,sans-Serif" font-size="10.00">ComSquare::Debugger</text>
<text text-anchor="start" x="106.5" y="-100.5" font-family="Helvetica,sans-Serif" font-size="10.00">::ClosableWindow&lt; ComSquare</text>
<text text-anchor="middle" x="184" y="-89.5" font-family="Helvetica,sans-Serif" font-size="10.00">::Debugger::MemoryViewer &gt;</text>
<polyline fill="none" stroke="black" points="98.5,-82.5 269.5,-82.5 "/>
<text text-anchor="middle" x="184" y="-70.5" font-family="Helvetica,sans-Serif" font-size="10.00"> </text>
<polyline fill="none" stroke="black" points="98.5,-63.5 269.5,-63.5 "/>
<text text-anchor="start" x="106.5" y="-51.5" font-family="Helvetica,sans-Serif" font-size="10.00">+ ClosableWindow()</text>
<text text-anchor="start" x="106.5" y="-40.5" font-family="Helvetica,sans-Serif" font-size="10.00">+ ClosableWindow()</text>
<text text-anchor="start" x="106.5" y="-29.5" font-family="Helvetica,sans-Serif" font-size="10.00">+ operator=()</text>
<text text-anchor="start" x="106.5" y="-18.5" font-family="Helvetica,sans-Serif" font-size="10.00">+ ~ClosableWindow()</text>
<text text-anchor="start" x="106.5" y="-7.5" font-family="Helvetica,sans-Serif" font-size="10.00"># closeEvent()</text>
</a>
</g>
</g>
<!-- Node1&#45;&gt;Node5 -->
<g id="edge6" class="edge">
<title>Node1&#45;&gt;Node5</title>
<path fill="none" stroke="#404040" d="M192.9,-191.57C188.1,-182.64 183.97,-173.38 181,-164 178.17,-155.06 176.65,-145.46 176.02,-135.85"/>
<polygon fill="none" stroke="#404040" points="176.02,-135.72 171.84,-129.84 175.66,-123.73 179.84,-129.61 176.02,-135.72"/>
<text text-anchor="middle" x="205.5" y="-156" font-family="Helvetica,sans-Serif" font-size="10.00"> &#45;_obj</text>
<text text-anchor="middle" x="205.5" y="-145" font-family="Helvetica,sans-Serif" font-size="10.00">&#45;_onClose</text>
</g>
<!-- Node2 -->
<g id="node2" class="node">
<title>Node2</title>
<g id="a_node2"><a xlink:title=" ">
<polygon fill="white" stroke="#bfbfbf" points="0,-496.5 0,-553.5 56,-553.5 56,-496.5 0,-496.5"/>
<text text-anchor="middle" x="28" y="-541.5" font-family="Helvetica,sans-Serif" font-size="10.00">QObject</text>
<polyline fill="none" stroke="#bfbfbf" points="0,-534.5 56,-534.5 "/>
<text text-anchor="middle" x="28" y="-522.5" font-family="Helvetica,sans-Serif" font-size="10.00"> </text>
<polyline fill="none" stroke="#bfbfbf" points="0,-515.5 56,-515.5 "/>
<text text-anchor="middle" x="28" y="-503.5" font-family="Helvetica,sans-Serif" font-size="10.00"> </text>
</a>
</g>
</g>
<!-- Node2&#45;&gt;Node1 -->
<g id="edge1" class="edge">
<title>Node2&#45;&gt;Node1</title>
<path fill="none" stroke="midnightblue" d="M32.02,-486.36C36.5,-461.35 45.98,-429.31 66,-408 104.65,-366.86 138.5,-394.41 184,-361 187.03,-358.77 190.01,-356.39 192.93,-353.88"/>
<polygon fill="none" stroke="midnightblue" points="28.56,-485.83 30.43,-496.25 35.47,-486.93 28.56,-485.83"/>
</g>
<!-- Node3 -->
<g id="node3" class="node">
<title>Node3</title>
<g id="a_node3"><a xlink:href="classComSquare_1_1SNES.html" target="_top" xlink:title="Container of all the components of the SNES.">
<polygon fill="white" stroke="black" points="74.5,-408.5 74.5,-641.5 261.5,-641.5 261.5,-408.5 74.5,-408.5"/>
<text text-anchor="middle" x="168" y="-629.5" font-family="Helvetica,sans-Serif" font-size="10.00">ComSquare::SNES</text>
<polyline fill="none" stroke="black" points="74.5,-622.5 261.5,-622.5 "/>
<text text-anchor="start" x="82.5" y="-610.5" font-family="Helvetica,sans-Serif" font-size="10.00">+ bus</text>
<text text-anchor="start" x="82.5" y="-599.5" font-family="Helvetica,sans-Serif" font-size="10.00">+ cartridge</text>
<text text-anchor="start" x="82.5" y="-588.5" font-family="Helvetica,sans-Serif" font-size="10.00">+ wram</text>
<text text-anchor="start" x="82.5" y="-577.5" font-family="Helvetica,sans-Serif" font-size="10.00">+ sram</text>
<text text-anchor="start" x="82.5" y="-566.5" font-family="Helvetica,sans-Serif" font-size="10.00">+ cpu</text>
<text text-anchor="start" x="82.5" y="-555.5" font-family="Helvetica,sans-Serif" font-size="10.00">+ ppu</text>
<text text-anchor="start" x="82.5" y="-544.5" font-family="Helvetica,sans-Serif" font-size="10.00">+ apu</text>
<polyline fill="none" stroke="black" points="74.5,-537.5 261.5,-537.5 "/>
<text text-anchor="start" x="82.5" y="-525.5" font-family="Helvetica,sans-Serif" font-size="10.00">+ update()</text>
<text text-anchor="start" x="82.5" y="-514.5" font-family="Helvetica,sans-Serif" font-size="10.00">+ disableCPUDebugging()</text>
<text text-anchor="start" x="82.5" y="-503.5" font-family="Helvetica,sans-Serif" font-size="10.00">+ enableCPUDebugging()</text>
<text text-anchor="start" x="82.5" y="-492.5" font-family="Helvetica,sans-Serif" font-size="10.00">+ enableCPUDebuggingWithError()</text>
<text text-anchor="start" x="82.5" y="-481.5" font-family="Helvetica,sans-Serif" font-size="10.00">+ disableRamViewer()</text>
<text text-anchor="start" x="82.5" y="-470.5" font-family="Helvetica,sans-Serif" font-size="10.00">+ enableRamViewer()</text>
<text text-anchor="start" x="82.5" y="-459.5" font-family="Helvetica,sans-Serif" font-size="10.00">+ disableHeaderViewer()</text>
<text text-anchor="start" x="82.5" y="-448.5" font-family="Helvetica,sans-Serif" font-size="10.00">+ enableHeaderViewer()</text>
<text text-anchor="start" x="82.5" y="-437.5" font-family="Helvetica,sans-Serif" font-size="10.00">+ disableAPUDebugging()</text>
<text text-anchor="start" x="82.5" y="-426.5" font-family="Helvetica,sans-Serif" font-size="10.00">+ enableAPUDebugging()</text>
<text text-anchor="start" x="82.5" y="-415.5" font-family="Helvetica,sans-Serif" font-size="10.00">and 10 more...</text>
</a>
</g>
</g>
<!-- Node3&#45;&gt;Node1 -->
<g id="edge2" class="edge">
<title>Node3&#45;&gt;Node1</title>
<path fill="none" stroke="#404040" d="M208.52,-408.19C212.72,-396.2 216.96,-384.09 221.08,-372.3"/>
<polygon fill="none" stroke="#404040" points="221.2,-371.95 219.41,-364.97 225.16,-360.63 226.96,-367.61 221.2,-371.95"/>
<text text-anchor="middle" x="234.5" y="-382" font-family="Helvetica,sans-Serif" font-size="10.00"> &#45;_snes</text>
</g>
<!-- Node4 -->
<g id="node4" class="node">
<title>Node4</title>
<g id="a_node4"><a xlink:href="classComSquare_1_1Memory_1_1MemoryBus.html" target="_top" xlink:title="The memory bus is the component responsible of mapping addresses to components address and transmitti...">
<polygon fill="white" stroke="black" points="280,-425 280,-625 408,-625 408,-425 280,-425"/>
<text text-anchor="start" x="288" y="-613" font-family="Helvetica,sans-Serif" font-size="10.00">ComSquare::Memory::</text>
<text text-anchor="middle" x="344" y="-602" font-family="Helvetica,sans-Serif" font-size="10.00">MemoryBus</text>
<polyline fill="none" stroke="black" points="280,-595 408,-595 "/>
<text text-anchor="start" x="288" y="-583" font-family="Helvetica,sans-Serif" font-size="10.00">+ forceSilence</text>
<text text-anchor="start" x="288" y="-572" font-family="Helvetica,sans-Serif" font-size="10.00"># _openBus</text>
<text text-anchor="start" x="288" y="-561" font-family="Helvetica,sans-Serif" font-size="10.00">&#45; _memoryAccessors</text>
<polyline fill="none" stroke="black" points="280,-554 408,-554 "/>
<text text-anchor="start" x="288" y="-542" font-family="Helvetica,sans-Serif" font-size="10.00">+ MemoryBus()</text>
<text text-anchor="start" x="288" y="-531" font-family="Helvetica,sans-Serif" font-size="10.00">+ MemoryBus()</text>
<text text-anchor="start" x="288" y="-520" font-family="Helvetica,sans-Serif" font-size="10.00">+ operator=()</text>
<text text-anchor="start" x="288" y="-509" font-family="Helvetica,sans-Serif" font-size="10.00">+ ~MemoryBus()</text>
<text text-anchor="start" x="288" y="-498" font-family="Helvetica,sans-Serif" font-size="10.00">+ read()</text>
<text text-anchor="start" x="288" y="-487" font-family="Helvetica,sans-Serif" font-size="10.00">+ read()</text>
<text text-anchor="start" x="288" y="-476" font-family="Helvetica,sans-Serif" font-size="10.00">+ write()</text>
<text text-anchor="start" x="288" y="-465" font-family="Helvetica,sans-Serif" font-size="10.00">+ mapComponents()</text>
<text text-anchor="start" x="288" y="-454" font-family="Helvetica,sans-Serif" font-size="10.00">+ getAccessor()</text>
<text text-anchor="start" x="288" y="-443" font-family="Helvetica,sans-Serif" font-size="10.00">+ isDebugger()</text>
<text text-anchor="start" x="288" y="-432" font-family="Helvetica,sans-Serif" font-size="10.00">&#45; _mirrorComponents()</text>
</a>
</g>
</g>
<!-- Node4&#45;&gt;Node1 -->
<g id="edge3" class="edge">
<title>Node4&#45;&gt;Node1</title>
<path fill="none" stroke="#404040" d="M309.35,-424.96C303.33,-407.76 297.07,-389.86 291.04,-372.63"/>
<polygon fill="none" stroke="#404040" points="290.87,-372.16 285.11,-367.82 286.91,-360.83 292.66,-365.17 290.87,-372.16"/>
<text text-anchor="middle" x="309" y="-382" font-family="Helvetica,sans-Serif" font-size="10.00"> &#45;_bus</text>
</g>
<!-- Node5&#45;&gt;Node1 -->
<g id="edge4" class="edge">
<title>Node5&#45;&gt;Node1</title>
<path fill="none" stroke="#404040" d="M225.74,-123.87C228.85,-129.84 231.67,-135.94 234,-142 237.46,-151.01 240.38,-160.59 242.85,-170.29"/>
<polygon fill="none" stroke="#404040" points="242.89,-170.48 248.15,-175.4 245.63,-182.16 240.36,-177.23 242.89,-170.48"/>
<text text-anchor="middle" x="265" y="-150.5" font-family="Helvetica,sans-Serif" font-size="10.00"> &#45;_window</text>
</g>
<!-- Node6 -->
<g id="node6" class="node">
<title>Node6</title>
<g id="a_node6"><a xlink:title=" ">
<polygon fill="white" stroke="#bfbfbf" points="87.5,-243 87.5,-300 174.5,-300 174.5,-243 87.5,-243"/>
<text text-anchor="middle" x="131" y="-288" font-family="Helvetica,sans-Serif" font-size="10.00">QMainWindow</text>
<polyline fill="none" stroke="#bfbfbf" points="87.5,-281 174.5,-281 "/>
<text text-anchor="middle" x="131" y="-269" font-family="Helvetica,sans-Serif" font-size="10.00"> </text>
<polyline fill="none" stroke="#bfbfbf" points="87.5,-262 174.5,-262 "/>
<text text-anchor="middle" x="131" y="-250" font-family="Helvetica,sans-Serif" font-size="10.00"> </text>
</a>
</g>
</g>
<!-- Node6&#45;&gt;Node5 -->
<g id="edge5" class="edge">
<title>Node6&#45;&gt;Node5</title>
<path fill="none" stroke="midnightblue" d="M139.73,-232.8C145.76,-207.15 154.09,-172.45 162,-142 163.54,-136.07 165.18,-129.91 166.85,-123.76"/>
<polygon fill="none" stroke="midnightblue" points="136.25,-232.32 137.37,-242.86 143.06,-233.92 136.25,-232.32"/>
</g>
<!-- Node7 -->
<g id="node7" class="node">
<title>Node7</title>
<g id="a_node7"><a xlink:href="classMemoryViewerModel.html" target="_top" xlink:title="The qt model that bind the ram to the view.">
<polygon fill="white" stroke="black" points="426,-447 426,-603 574,-603 574,-447 426,-447"/>
<text text-anchor="middle" x="500" y="-591" font-family="Helvetica,sans-Serif" font-size="10.00">MemoryViewerModel</text>
<polyline fill="none" stroke="black" points="426,-584 574,-584 "/>
<text text-anchor="start" x="434" y="-572" font-family="Helvetica,sans-Serif" font-size="10.00">&#45; _memory</text>
<text text-anchor="start" x="434" y="-561" font-family="Helvetica,sans-Serif" font-size="10.00">&#45; _headerIndentSize</text>
<polyline fill="none" stroke="black" points="426,-554 574,-554 "/>
<text text-anchor="start" x="434" y="-542" font-family="Helvetica,sans-Serif" font-size="10.00">+ setMemory()</text>
<text text-anchor="start" x="434" y="-531" font-family="Helvetica,sans-Serif" font-size="10.00">+ MemoryViewerModel()</text>
<text text-anchor="start" x="434" y="-520" font-family="Helvetica,sans-Serif" font-size="10.00">+ MemoryViewerModel()</text>
<text text-anchor="start" x="434" y="-509" font-family="Helvetica,sans-Serif" font-size="10.00">+ operator=()</text>
<text text-anchor="start" x="434" y="-498" font-family="Helvetica,sans-Serif" font-size="10.00">+ ~MemoryViewerModel()</text>
<text text-anchor="start" x="434" y="-487" font-family="Helvetica,sans-Serif" font-size="10.00">+ rowCount()</text>
<text text-anchor="start" x="434" y="-476" font-family="Helvetica,sans-Serif" font-size="10.00">+ columnCount()</text>
<text text-anchor="start" x="434" y="-465" font-family="Helvetica,sans-Serif" font-size="10.00">+ data()</text>
<text text-anchor="start" x="434" y="-454" font-family="Helvetica,sans-Serif" font-size="10.00">+ headerData()</text>
</a>
</g>
</g>
<!-- Node7&#45;&gt;Node1 -->
<g id="edge7" class="edge">
<title>Node7&#45;&gt;Node1</title>
<path fill="none" stroke="#404040" d="M449.04,-446.99C438.98,-433.53 428.09,-420 417,-408 390.38,-379.2 357.77,-350.72 328.87,-327.36"/>
<polygon fill="none" stroke="#404040" points="328.6,-327.14 321.42,-326.52 319.23,-319.65 326.41,-320.27 328.6,-327.14"/>
<text text-anchor="middle" x="418.5" y="-382" font-family="Helvetica,sans-Serif" font-size="10.00"> &#45;_model</text>
</g>
<!-- Node8 -->
<g id="node8" class="node">
<title>Node8</title>
<g id="a_node8"><a xlink:title=" ">
<polygon fill="white" stroke="#bfbfbf" points="440,-679.5 440,-736.5 560,-736.5 560,-679.5 440,-679.5"/>
<text text-anchor="middle" x="500" y="-724.5" font-family="Helvetica,sans-Serif" font-size="10.00">QAbstractTableModel</text>
<polyline fill="none" stroke="#bfbfbf" points="440,-717.5 560,-717.5 "/>
<text text-anchor="middle" x="500" y="-705.5" font-family="Helvetica,sans-Serif" font-size="10.00"> </text>
<polyline fill="none" stroke="#bfbfbf" points="440,-698.5 560,-698.5 "/>
<text text-anchor="middle" x="500" y="-686.5" font-family="Helvetica,sans-Serif" font-size="10.00"> </text>
</a>
</g>
</g>
<!-- Node8&#45;&gt;Node7 -->
<g id="edge8" class="edge">
<title>Node8&#45;&gt;Node7</title>
<path fill="none" stroke="midnightblue" d="M500,-669.02C500,-649.89 500,-625.97 500,-603.21"/>
<polygon fill="none" stroke="midnightblue" points="496.5,-669.12 500,-679.12 503.5,-669.12 496.5,-669.12"/>
</g>
</g>
</svg>
