<?xml version="1.0" encoding="UTF-8" standalone="no"?>
<!DOCTYPE svg PUBLIC "-//W3C//DTD SVG 1.1//EN"
 "http://www.w3.org/Graphics/SVG/1.1/DTD/svg11.dtd">
<!-- Generated by graphviz version 2.43.0 (0)
 -->
<!-- Title: ComSquare::Renderer::IRenderer Pages: 1 -->
<svg width="423pt" height="843pt"
 viewBox="0.00 0.00 423.00 843.00" xmlns="http://www.w3.org/2000/svg" xmlns:xlink="http://www.w3.org/1999/xlink">
<g id="graph0" class="graph" transform="scale(1 1) rotate(0) translate(4 839)">
<title>ComSquare::Renderer::IRenderer</title>
<polygon fill="white" stroke="transparent" points="-4,4 -4,-839 419,-839 419,4 -4,4"/>
<!-- Node1 -->
<g id="node1" class="node">
<title>Node1</title>
<g id="a_node1"><a xlink:title=" ">
<polygon fill="#bfbfbf" stroke="black" points="141,-722.5 141,-834.5 264,-834.5 264,-722.5 141,-722.5"/>
<text text-anchor="start" x="149" y="-822.5" font-family="Helvetica,sans-Serif" font-size="10.00">ComSquare::Renderer</text>
<text text-anchor="middle" x="202.5" y="-811.5" font-family="Helvetica,sans-Serif" font-size="10.00">::IRenderer</text>
<polyline fill="none" stroke="black" points="141,-804.5 264,-804.5 "/>
<text text-anchor="middle" x="202.5" y="-792.5" font-family="Helvetica,sans-Serif" font-size="10.00"> </text>
<polyline fill="none" stroke="black" points="141,-785.5 264,-785.5 "/>
<text text-anchor="start" x="149" y="-773.5" font-family="Helvetica,sans-Serif" font-size="10.00">+ setWindowName()</text>
<text text-anchor="start" x="149" y="-762.5" font-family="Helvetica,sans-Serif" font-size="10.00">+ drawScreen()</text>
<text text-anchor="start" x="149" y="-751.5" font-family="Helvetica,sans-Serif" font-size="10.00">+ putPixel()</text>
<text text-anchor="start" x="149" y="-740.5" font-family="Helvetica,sans-Serif" font-size="10.00">+ createWindow()</text>
<text text-anchor="start" x="149" y="-729.5" font-family="Helvetica,sans-Serif" font-size="10.00">+ playAudio()</text>
</a>
</g>
</g>
<!-- Node2 -->
<g id="node2" class="node">
<title>Node2</title>
<g id="a_node2"><a xlink:href="classComSquare_1_1Renderer_1_1NoRenderer.html" target="_top" xlink:title="A renderer that discard everything you give. (Used for tests).">
<polygon fill="white" stroke="black" points="0,-480 0,-647 123,-647 123,-480 0,-480"/>
<text text-anchor="start" x="8" y="-635" font-family="Helvetica,sans-Serif" font-size="10.00">ComSquare::Renderer</text>
<text text-anchor="middle" x="61.5" y="-624" font-family="Helvetica,sans-Serif" font-size="10.00">::NoRenderer</text>
<polyline fill="none" stroke="black" points="0,-617 123,-617 "/>
<text text-anchor="middle" x="61.5" y="-605" font-family="Helvetica,sans-Serif" font-size="10.00"> </text>
<polyline fill="none" stroke="black" points="0,-598 123,-598 "/>
<text text-anchor="start" x="8" y="-586" font-family="Helvetica,sans-Serif" font-size="10.00">+ setWindowName()</text>
<text text-anchor="start" x="8" y="-575" font-family="Helvetica,sans-Serif" font-size="10.00">+ drawScreen()</text>
<text text-anchor="start" x="8" y="-564" font-family="Helvetica,sans-Serif" font-size="10.00">+ putPixel()</text>
<text text-anchor="start" x="8" y="-553" font-family="Helvetica,sans-Serif" font-size="10.00">+ playAudio()</text>
<text text-anchor="start" x="8" y="-542" font-family="Helvetica,sans-Serif" font-size="10.00">+ getEvents()</text>
<text text-anchor="start" x="8" y="-531" font-family="Helvetica,sans-Serif" font-size="10.00">+ createWindow()</text>
<text text-anchor="start" x="8" y="-520" font-family="Helvetica,sans-Serif" font-size="10.00">+ NoRenderer()</text>
<text text-anchor="start" x="8" y="-509" font-family="Helvetica,sans-Serif" font-size="10.00">+ NoRenderer()</text>
<text text-anchor="start" x="8" y="-498" font-family="Helvetica,sans-Serif" font-size="10.00">+ operator=()</text>
<text text-anchor="start" x="8" y="-487" font-family="Helvetica,sans-Serif" font-size="10.00">+ ~NoRenderer()</text>
</a>
</g>
</g>
<!-- Node1&#45;&gt;Node2 -->
<g id="edge1" class="edge">
<title>Node1&#45;&gt;Node2</title>
<path fill="none" stroke="midnightblue" d="M152.39,-714.09C145.52,-704.8 138.71,-695.25 132.5,-686 124.2,-673.62 115.82,-660.25 107.87,-647.05"/>
<polygon fill="none" stroke="midnightblue" points="149.64,-716.26 158.43,-722.18 155.25,-712.07 149.64,-716.26"/>
</g>
<!-- Node3 -->
<g id="node3" class="node">
<title>Node3</title>
<g id="a_node3"><a xlink:href="classComSquare_1_1Renderer_1_1QtSFML.html" target="_top" xlink:title="A SFML renderer inside a QT window.">
<polygon fill="white" stroke="black" points="141,-480 141,-647 264,-647 264,-480 141,-480"/>
<text text-anchor="start" x="149" y="-635" font-family="Helvetica,sans-Serif" font-size="10.00">ComSquare::Renderer</text>
<text text-anchor="middle" x="202.5" y="-624" font-family="Helvetica,sans-Serif" font-size="10.00">::QtSFML</text>
<polyline fill="none" stroke="black" points="141,-617 264,-617 "/>
<text text-anchor="start" x="149" y="-605" font-family="Helvetica,sans-Serif" font-size="10.00">&#45; _window</text>
<text text-anchor="start" x="149" y="-594" font-family="Helvetica,sans-Serif" font-size="10.00">&#45; _sfWidget</text>
<polyline fill="none" stroke="black" points="141,-587 264,-587 "/>
<text text-anchor="start" x="149" y="-575" font-family="Helvetica,sans-Serif" font-size="10.00">+ createWindow()</text>
<text text-anchor="start" x="149" y="-564" font-family="Helvetica,sans-Serif" font-size="10.00">+ putPixel()</text>
<text text-anchor="start" x="149" y="-553" font-family="Helvetica,sans-Serif" font-size="10.00">+ drawScreen()</text>
<text text-anchor="start" x="149" y="-542" font-family="Helvetica,sans-Serif" font-size="10.00">+ playAudio()</text>
<text text-anchor="start" x="149" y="-531" font-family="Helvetica,sans-Serif" font-size="10.00">+ setWindowName()</text>
<text text-anchor="start" x="149" y="-520" font-family="Helvetica,sans-Serif" font-size="10.00">+ QtSFML()</text>
<text text-anchor="start" x="149" y="-509" font-family="Helvetica,sans-Serif" font-size="10.00">+ QtSFML()</text>
<text text-anchor="start" x="149" y="-498" font-family="Helvetica,sans-Serif" font-size="10.00">+ operator=()</text>
<text text-anchor="start" x="149" y="-487" font-family="Helvetica,sans-Serif" font-size="10.00">+ ~QtSFML()</text>
</a>
</g>
</g>
<!-- Node1&#45;&gt;Node3 -->
<g id="edge2" class="edge">
<title>Node1&#45;&gt;Node3</title>
<path fill="none" stroke="midnightblue" d="M202.5,-712.19C202.5,-691.65 202.5,-668.69 202.5,-647.12"/>
<polygon fill="none" stroke="midnightblue" points="199,-712.37 202.5,-722.37 206,-712.37 199,-712.37"/>
</g>
<!-- Node4 -->
<g id="node4" class="node">
<title>Node4</title>
<g id="a_node4"><a xlink:href="classComSquare_1_1Renderer_1_1SFRenderer.html" target="_top" xlink:title=" ">
<polygon fill="white" stroke="black" points="282,-441.5 282,-685.5 405,-685.5 405,-441.5 282,-441.5"/>
<text text-anchor="start" x="290" y="-673.5" font-family="Helvetica,sans-Serif" font-size="10.00">ComSquare::Renderer</text>
<text text-anchor="middle" x="343.5" y="-662.5" font-family="Helvetica,sans-Serif" font-size="10.00">::SFRenderer</text>
<polyline fill="none" stroke="black" points="282,-655.5 405,-655.5 "/>
<text text-anchor="start" x="290" y="-643.5" font-family="Helvetica,sans-Serif" font-size="10.00">+ shouldExit</text>
<text text-anchor="start" x="290" y="-632.5" font-family="Helvetica,sans-Serif" font-size="10.00"># _window</text>
<text text-anchor="start" x="290" y="-621.5" font-family="Helvetica,sans-Serif" font-size="10.00"># _videoMode</text>
<text text-anchor="start" x="290" y="-610.5" font-family="Helvetica,sans-Serif" font-size="10.00"># _pixelBuffer</text>
<text text-anchor="start" x="290" y="-599.5" font-family="Helvetica,sans-Serif" font-size="10.00"># _sprite</text>
<text text-anchor="start" x="290" y="-588.5" font-family="Helvetica,sans-Serif" font-size="10.00"># _texture</text>
<text text-anchor="start" x="290" y="-577.5" font-family="Helvetica,sans-Serif" font-size="10.00"># _soundBuffer</text>
<text text-anchor="start" x="290" y="-566.5" font-family="Helvetica,sans-Serif" font-size="10.00"># _sound</text>
<polyline fill="none" stroke="black" points="282,-559.5 405,-559.5 "/>
<text text-anchor="start" x="290" y="-547.5" font-family="Helvetica,sans-Serif" font-size="10.00">+ setWindowName()</text>
<text text-anchor="start" x="290" y="-536.5" font-family="Helvetica,sans-Serif" font-size="10.00">+ drawScreen()</text>
<text text-anchor="start" x="290" y="-525.5" font-family="Helvetica,sans-Serif" font-size="10.00">+ putPixel()</text>
<text text-anchor="start" x="290" y="-514.5" font-family="Helvetica,sans-Serif" font-size="10.00">+ playAudio()</text>
<text text-anchor="start" x="290" y="-503.5" font-family="Helvetica,sans-Serif" font-size="10.00">+ getEvents()</text>
<text text-anchor="start" x="290" y="-492.5" font-family="Helvetica,sans-Serif" font-size="10.00">+ createWindow()</text>
<text text-anchor="start" x="290" y="-481.5" font-family="Helvetica,sans-Serif" font-size="10.00">+ SFRenderer()</text>
<text text-anchor="start" x="290" y="-470.5" font-family="Helvetica,sans-Serif" font-size="10.00">+ SFRenderer()</text>
<text text-anchor="start" x="290" y="-459.5" font-family="Helvetica,sans-Serif" font-size="10.00">+ operator=()</text>
<text text-anchor="start" x="290" y="-448.5" font-family="Helvetica,sans-Serif" font-size="10.00">+ ~SFRenderer()</text>
</a>
</g>
</g>
<!-- Node1&#45;&gt;Node4 -->
<g id="edge3" class="edge">
<title>Node1&#45;&gt;Node4</title>
<path fill="none" stroke="midnightblue" d="M253.42,-714.18C260.37,-704.88 267.26,-695.3 273.5,-686 276.28,-681.86 279.07,-677.6 281.84,-673.27"/>
<polygon fill="none" stroke="midnightblue" points="250.54,-712.18 247.3,-722.27 256.13,-716.4 250.54,-712.18"/>
</g>
<!-- Node5 -->
<g id="node5" class="node">
<title>Node5</title>
<g id="a_node5"><a xlink:href="classComSquare_1_1Renderer_1_1QtWidgetSFML.html" target="_top" xlink:title="A widget that you can put inside a QT application that render using the SFML.">
<polygon fill="white" stroke="black" points="282,-237.5 282,-404.5 405,-404.5 405,-237.5 282,-237.5"/>
<text text-anchor="start" x="290" y="-392.5" font-family="Helvetica,sans-Serif" font-size="10.00">ComSquare::Renderer</text>
<text text-anchor="middle" x="343.5" y="-381.5" font-family="Helvetica,sans-Serif" font-size="10.00">::QtWidgetSFML</text>
<polyline fill="none" stroke="black" points="282,-374.5 405,-374.5 "/>
<text text-anchor="start" x="290" y="-362.5" font-family="Helvetica,sans-Serif" font-size="10.00">&#45; _timer</text>
<text text-anchor="start" x="290" y="-351.5" font-family="Helvetica,sans-Serif" font-size="10.00">&#45; _isInitialized</text>
<polyline fill="none" stroke="black" points="282,-344.5 405,-344.5 "/>
<text text-anchor="start" x="290" y="-332.5" font-family="Helvetica,sans-Serif" font-size="10.00">+ QtWidgetSFML()</text>
<text text-anchor="start" x="290" y="-321.5" font-family="Helvetica,sans-Serif" font-size="10.00">+ QtWidgetSFML()</text>
<text text-anchor="start" x="290" y="-310.5" font-family="Helvetica,sans-Serif" font-size="10.00">+ operator=()</text>
<text text-anchor="start" x="290" y="-299.5" font-family="Helvetica,sans-Serif" font-size="10.00">+ ~QtWidgetSFML()</text>
<text text-anchor="start" x="290" y="-288.5" font-family="Helvetica,sans-Serif" font-size="10.00">&#45; _onInit()</text>
<text text-anchor="start" x="290" y="-277.5" font-family="Helvetica,sans-Serif" font-size="10.00">&#45; _onUpdate()</text>
<text text-anchor="start" x="290" y="-266.5" font-family="Helvetica,sans-Serif" font-size="10.00">&#45; paintEngine()</text>
<text text-anchor="start" x="290" y="-255.5" font-family="Helvetica,sans-Serif" font-size="10.00">&#45; showEvent()</text>
<text text-anchor="start" x="290" y="-244.5" font-family="Helvetica,sans-Serif" font-size="10.00">&#45; paintEvent()</text>
</a>
</g>
</g>
<!-- Node4&#45;&gt;Node5 -->
<g id="edge4" class="edge">
<title>Node4&#45;&gt;Node5</title>
<path fill="none" stroke="midnightblue" d="M343.5,-431.06C343.5,-422.1 343.5,-413.23 343.5,-404.64"/>
<polygon fill="none" stroke="midnightblue" points="340,-431.19 343.5,-441.19 347,-431.19 340,-431.19"/>
</g>
<!-- Node6 -->
<g id="node6" class="node">
<title>Node6</title>
<g id="a_node6"><a xlink:href="classComSquare_1_1Renderer_1_1QtFullSFML.html" target="_top" xlink:title="The SFML window that manage the update.">
<polygon fill="white" stroke="black" points="272,-0.5 272,-200.5 415,-200.5 415,-0.5 272,-0.5"/>
<text text-anchor="start" x="280" y="-188.5" font-family="Helvetica,sans-Serif" font-size="10.00">ComSquare::Renderer</text>
<text text-anchor="middle" x="343.5" y="-177.5" font-family="Helvetica,sans-Serif" font-size="10.00">::QtFullSFML</text>
<polyline fill="none" stroke="black" points="272,-170.5 415,-170.5 "/>
<text text-anchor="start" x="280" y="-158.5" font-family="Helvetica,sans-Serif" font-size="10.00">&#45; _snes</text>
<polyline fill="none" stroke="black" points="272,-151.5 415,-151.5 "/>
<text text-anchor="start" x="280" y="-139.5" font-family="Helvetica,sans-Serif" font-size="10.00">+ enableDebugCPU()</text>
<text text-anchor="start" x="280" y="-128.5" font-family="Helvetica,sans-Serif" font-size="10.00">+ enableRamViewer()</text>
<text text-anchor="start" x="280" y="-117.5" font-family="Helvetica,sans-Serif" font-size="10.00">+ enableHeaderViewer()</text>
<text text-anchor="start" x="280" y="-106.5" font-family="Helvetica,sans-Serif" font-size="10.00">+ enableDebugAPU()</text>
<text text-anchor="start" x="280" y="-95.5" font-family="Helvetica,sans-Serif" font-size="10.00">+ enableDebugBus()</text>
<text text-anchor="start" x="280" y="-84.5" font-family="Helvetica,sans-Serif" font-size="10.00">+ enableCgramViewer()</text>
<text text-anchor="start" x="280" y="-73.5" font-family="Helvetica,sans-Serif" font-size="10.00">+ enableRegisterViewer()</text>
<text text-anchor="start" x="280" y="-62.5" font-family="Helvetica,sans-Serif" font-size="10.00">+ reset()</text>
<text text-anchor="start" x="280" y="-51.5" font-family="Helvetica,sans-Serif" font-size="10.00">+ QtFullSFML()</text>
<text text-anchor="start" x="280" y="-40.5" font-family="Helvetica,sans-Serif" font-size="10.00">+ QtFullSFML()</text>
<text text-anchor="start" x="280" y="-29.5" font-family="Helvetica,sans-Serif" font-size="10.00">+ operator=()</text>
<text text-anchor="start" x="280" y="-18.5" font-family="Helvetica,sans-Serif" font-size="10.00">+ ~QtFullSFML()</text>
<text text-anchor="start" x="280" y="-7.5" font-family="Helvetica,sans-Serif" font-size="10.00">&#45; _onUpdate()</text>
</a>
</g>
</g>
<!-- Node5&#45;&gt;Node6 -->
<g id="edge5" class="edge">
<title>Node5&#45;&gt;Node6</title>
<path fill="none" stroke="midnightblue" d="M343.5,-227.21C343.5,-218.46 343.5,-209.57 343.5,-200.76"/>
<polygon fill="none" stroke="midnightblue" points="340,-227.39 343.5,-237.39 347,-227.39 340,-227.39"/>
</g>
</g>
</svg>
