<?xml version="1.0" encoding="UTF-8" standalone="no"?>
<!DOCTYPE svg PUBLIC "-//W3C//DTD SVG 1.1//EN"
 "http://www.w3.org/Graphics/SVG/1.1/DTD/svg11.dtd">
<!-- Generated by graphviz version 2.43.0 (0)
 -->
<!-- Title: ComSquare::Debugger::MemoryBusDebug Pages: 1 -->
<svg width="601pt" height="960pt"
 viewBox="0.00 0.00 601.00 960.00" xmlns="http://www.w3.org/2000/svg" xmlns:xlink="http://www.w3.org/1999/xlink">
<g id="graph0" class="graph" transform="scale(1 1) rotate(0) translate(4 956)">
<title>ComSquare::Debugger::MemoryBusDebug</title>
<polygon fill="white" stroke="transparent" points="-4,4 -4,-956 597,-956 597,4 -4,4"/>
<!-- Node1 -->
<g id="node1" class="node">
<title>Node1</title>
<g id="a_node1"><a xlink:title="window that allow the user to view all data going through the memory bus.">
<polygon fill="#bfbfbf" stroke="black" points="231,-182.5 231,-349.5 365,-349.5 365,-182.5 231,-182.5"/>
<text text-anchor="start" x="239" y="-337.5" font-family="Helvetica,sans-Serif" font-size="10.00">ComSquare::Debugger</text>
<text text-anchor="middle" x="298" y="-326.5" font-family="Helvetica,sans-Serif" font-size="10.00">::MemoryBusDebug</text>
<polyline fill="none" stroke="black" points="231,-319.5 365,-319.5 "/>
<text text-anchor="start" x="239" y="-307.5" font-family="Helvetica,sans-Serif" font-size="10.00">&#45; _ui</text>
<polyline fill="none" stroke="black" points="231,-300.5 365,-300.5 "/>
<text text-anchor="start" x="239" y="-288.5" font-family="Helvetica,sans-Serif" font-size="10.00">+ disableViewer()</text>
<text text-anchor="start" x="239" y="-277.5" font-family="Helvetica,sans-Serif" font-size="10.00">+ MemoryBusDebug()</text>
<text text-anchor="start" x="239" y="-266.5" font-family="Helvetica,sans-Serif" font-size="10.00">+ MemoryBusDebug()</text>
<text text-anchor="start" x="239" y="-255.5" font-family="Helvetica,sans-Serif" font-size="10.00">+ operator=()</text>
<text text-anchor="start" x="239" y="-244.5" font-family="Helvetica,sans-Serif" font-size="10.00">+ ~MemoryBusDebug()</text>
<text text-anchor="start" x="239" y="-233.5" font-family="Helvetica,sans-Serif" font-size="10.00">+ read()</text>
<text text-anchor="start" x="239" y="-222.5" font-family="Helvetica,sans-Serif" font-size="10.00">+ read()</text>
<text text-anchor="start" x="239" y="-211.5" font-family="Helvetica,sans-Serif" font-size="10.00">+ write()</text>
<text text-anchor="start" x="239" y="-200.5" font-family="Helvetica,sans-Serif" font-size="10.00">+ focus()</text>
<text text-anchor="start" x="239" y="-189.5" font-family="Helvetica,sans-Serif" font-size="10.00">+ isDebugger()</text>
</a>
</g>
</g>
<!-- Node9 -->
<g id="node9" class="node">
<title>Node9</title>
<g id="a_node9"><a xlink:href="classComSquare_1_1Debugger_1_1ClosableWindow.html" target="_top" xlink:title=" ">
<polygon fill="white" stroke="black" points="137.5,-0.5 137.5,-123.5 314.5,-123.5 314.5,-0.5 137.5,-0.5"/>
<text text-anchor="start" x="145.5" y="-111.5" font-family="Helvetica,sans-Serif" font-size="10.00">ComSquare::Debugger</text>
<text text-anchor="start" x="145.5" y="-100.5" font-family="Helvetica,sans-Serif" font-size="10.00">::ClosableWindow&lt; ComSquare</text>
<text text-anchor="middle" x="226" y="-89.5" font-family="Helvetica,sans-Serif" font-size="10.00">::Debugger::MemoryBusDebug &gt;</text>
<polyline fill="none" stroke="black" points="137.5,-82.5 314.5,-82.5 "/>
<text text-anchor="middle" x="226" y="-70.5" font-family="Helvetica,sans-Serif" font-size="10.00"> </text>
<polyline fill="none" stroke="black" points="137.5,-63.5 314.5,-63.5 "/>
<text text-anchor="start" x="145.5" y="-51.5" font-family="Helvetica,sans-Serif" font-size="10.00">+ ClosableWindow()</text>
<text text-anchor="start" x="145.5" y="-40.5" font-family="Helvetica,sans-Serif" font-size="10.00">+ ClosableWindow()</text>
<text text-anchor="start" x="145.5" y="-29.5" font-family="Helvetica,sans-Serif" font-size="10.00">+ operator=()</text>
<text text-anchor="start" x="145.5" y="-18.5" font-family="Helvetica,sans-Serif" font-size="10.00">+ ~ClosableWindow()</text>
<text text-anchor="start" x="145.5" y="-7.5" font-family="Helvetica,sans-Serif" font-size="10.00"># closeEvent()</text>
</a>
</g>
</g>
<!-- Node1&#45;&gt;Node9 -->
<g id="edge10" class="edge">
<title>Node1&#45;&gt;Node9</title>
<path fill="none" stroke="#404040" d="M230.96,-182.98C227.84,-176.78 225.13,-170.43 223,-164 220.04,-155.04 218.45,-145.39 217.8,-135.73"/>
<polygon fill="none" stroke="#404040" points="217.79,-135.53 213.61,-129.66 217.43,-123.54 221.61,-129.42 217.79,-135.53"/>
<text text-anchor="middle" x="247.5" y="-156" font-family="Helvetica,sans-Serif" font-size="10.00"> &#45;_obj</text>
<text text-anchor="middle" x="247.5" y="-145" font-family="Helvetica,sans-Serif" font-size="10.00">&#45;_onClose</text>
</g>
<!-- Node2 -->
<g id="node2" class="node">
<title>Node2</title>
<g id="a_node2"><a xlink:href="classComSquare_1_1Memory_1_1MemoryBus.html" target="_top" xlink:title="The memory bus is the component responsible of mapping addresses to components address and transmitti...">
<polygon fill="white" stroke="black" points="0,-414 0,-614 128,-614 128,-414 0,-414"/>
<text text-anchor="start" x="8" y="-602" font-family="Helvetica,sans-Serif" font-size="10.00">ComSquare::Memory::</text>
<text text-anchor="middle" x="64" y="-591" font-family="Helvetica,sans-Serif" font-size="10.00">MemoryBus</text>
<polyline fill="none" stroke="black" points="0,-584 128,-584 "/>
<text text-anchor="start" x="8" y="-572" font-family="Helvetica,sans-Serif" font-size="10.00">+ forceSilence</text>
<text text-anchor="start" x="8" y="-561" font-family="Helvetica,sans-Serif" font-size="10.00"># _openBus</text>
<text text-anchor="start" x="8" y="-550" font-family="Helvetica,sans-Serif" font-size="10.00">&#45; _memoryAccessors</text>
<polyline fill="none" stroke="black" points="0,-543 128,-543 "/>
<text text-anchor="start" x="8" y="-531" font-family="Helvetica,sans-Serif" font-size="10.00">+ MemoryBus()</text>
<text text-anchor="start" x="8" y="-520" font-family="Helvetica,sans-Serif" font-size="10.00">+ MemoryBus()</text>
<text text-anchor="start" x="8" y="-509" font-family="Helvetica,sans-Serif" font-size="10.00">+ operator=()</text>
<text text-anchor="start" x="8" y="-498" font-family="Helvetica,sans-Serif" font-size="10.00">+ ~MemoryBus()</text>
<text text-anchor="start" x="8" y="-487" font-family="Helvetica,sans-Serif" font-size="10.00">+ read()</text>
<text text-anchor="start" x="8" y="-476" font-family="Helvetica,sans-Serif" font-size="10.00">+ read()</text>
<text text-anchor="start" x="8" y="-465" font-family="Helvetica,sans-Serif" font-size="10.00">+ write()</text>
<text text-anchor="start" x="8" y="-454" font-family="Helvetica,sans-Serif" font-size="10.00">+ mapComponents()</text>
<text text-anchor="start" x="8" y="-443" font-family="Helvetica,sans-Serif" font-size="10.00">+ getAccessor()</text>
<text text-anchor="start" x="8" y="-432" font-family="Helvetica,sans-Serif" font-size="10.00">+ isDebugger()</text>
<text text-anchor="start" x="8" y="-421" font-family="Helvetica,sans-Serif" font-size="10.00">&#45; _mirrorComponents()</text>
</a>
</g>
</g>
<!-- Node2&#45;&gt;Node1 -->
<g id="edge1" class="edge">
<title>Node2&#45;&gt;Node1</title>
<path fill="none" stroke="midnightblue" d="M128.99,-406.14C131.92,-402.96 134.92,-399.91 138,-397 169.11,-367.64 188.46,-376.56 222,-350 224.91,-347.7 227.81,-345.28 230.68,-342.77"/>
<polygon fill="none" stroke="midnightblue" points="126.27,-403.93 122.29,-413.75 131.52,-408.56 126.27,-403.93"/>
</g>
<!-- Node3 -->
<g id="node3" class="node">
<title>Node3</title>
<g id="a_node3"><a xlink:href="classComSquare_1_1SNES.html" target="_top" xlink:title="Container of all the components of the SNES.">
<polygon fill="white" stroke="black" points="146.5,-397.5 146.5,-630.5 333.5,-630.5 333.5,-397.5 146.5,-397.5"/>
<text text-anchor="middle" x="240" y="-618.5" font-family="Helvetica,sans-Serif" font-size="10.00">ComSquare::SNES</text>
<polyline fill="none" stroke="black" points="146.5,-611.5 333.5,-611.5 "/>
<text text-anchor="start" x="154.5" y="-599.5" font-family="Helvetica,sans-Serif" font-size="10.00">+ bus</text>
<text text-anchor="start" x="154.5" y="-588.5" font-family="Helvetica,sans-Serif" font-size="10.00">+ cartridge</text>
<text text-anchor="start" x="154.5" y="-577.5" font-family="Helvetica,sans-Serif" font-size="10.00">+ wram</text>
<text text-anchor="start" x="154.5" y="-566.5" font-family="Helvetica,sans-Serif" font-size="10.00">+ sram</text>
<text text-anchor="start" x="154.5" y="-555.5" font-family="Helvetica,sans-Serif" font-size="10.00">+ cpu</text>
<text text-anchor="start" x="154.5" y="-544.5" font-family="Helvetica,sans-Serif" font-size="10.00">+ ppu</text>
<text text-anchor="start" x="154.5" y="-533.5" font-family="Helvetica,sans-Serif" font-size="10.00">+ apu</text>
<polyline fill="none" stroke="black" points="146.5,-526.5 333.5,-526.5 "/>
<text text-anchor="start" x="154.5" y="-514.5" font-family="Helvetica,sans-Serif" font-size="10.00">+ update()</text>
<text text-anchor="start" x="154.5" y="-503.5" font-family="Helvetica,sans-Serif" font-size="10.00">+ disableCPUDebugging()</text>
<text text-anchor="start" x="154.5" y="-492.5" font-family="Helvetica,sans-Serif" font-size="10.00">+ enableCPUDebugging()</text>
<text text-anchor="start" x="154.5" y="-481.5" font-family="Helvetica,sans-Serif" font-size="10.00">+ enableCPUDebuggingWithError()</text>
<text text-anchor="start" x="154.5" y="-470.5" font-family="Helvetica,sans-Serif" font-size="10.00">+ disableRamViewer()</text>
<text text-anchor="start" x="154.5" y="-459.5" font-family="Helvetica,sans-Serif" font-size="10.00">+ enableRamViewer()</text>
<text text-anchor="start" x="154.5" y="-448.5" font-family="Helvetica,sans-Serif" font-size="10.00">+ disableHeaderViewer()</text>
<text text-anchor="start" x="154.5" y="-437.5" font-family="Helvetica,sans-Serif" font-size="10.00">+ enableHeaderViewer()</text>
<text text-anchor="start" x="154.5" y="-426.5" font-family="Helvetica,sans-Serif" font-size="10.00">+ disableAPUDebugging()</text>
<text text-anchor="start" x="154.5" y="-415.5" font-family="Helvetica,sans-Serif" font-size="10.00">+ enableAPUDebugging()</text>
<text text-anchor="start" x="154.5" y="-404.5" font-family="Helvetica,sans-Serif" font-size="10.00">and 10 more...</text>
</a>
</g>
</g>
<!-- Node3&#45;&gt;Node1 -->
<g id="edge2" class="edge">
<title>Node3&#45;&gt;Node1</title>
<path fill="none" stroke="#404040" d="M267.3,-397.2C270.11,-385.27 272.95,-373.25 275.7,-361.59"/>
<polygon fill="none" stroke="#404040" points="275.77,-361.27 273.26,-354.51 278.53,-349.59 281.04,-356.34 275.77,-361.27"/>
<text text-anchor="middle" x="289.5" y="-371" font-family="Helvetica,sans-Serif" font-size="10.00"> &#45;_snes</text>
</g>
<!-- Node4 -->
<g id="node4" class="node">
<title>Node4</title>
<g id="a_node4"><a xlink:href="classBusLoggerProxy.html" target="_top" xlink:title="A class to filter logs from the memory bus&#39;s debugger.">
<polygon fill="white" stroke="black" points="352,-458 352,-570 474,-570 474,-458 352,-458"/>
<text text-anchor="middle" x="413" y="-558" font-family="Helvetica,sans-Serif" font-size="10.00">BusLoggerProxy</text>
<polyline fill="none" stroke="black" points="352,-551 474,-551 "/>
<text text-anchor="middle" x="413" y="-539" font-family="Helvetica,sans-Serif" font-size="10.00"> </text>
<polyline fill="none" stroke="black" points="352,-532 474,-532 "/>
<text text-anchor="start" x="360" y="-520" font-family="Helvetica,sans-Serif" font-size="10.00">+ refresh()</text>
<text text-anchor="start" x="360" y="-509" font-family="Helvetica,sans-Serif" font-size="10.00">+ BusLoggerProxy()</text>
<text text-anchor="start" x="360" y="-498" font-family="Helvetica,sans-Serif" font-size="10.00">+ BusLoggerProxy()</text>
<text text-anchor="start" x="360" y="-487" font-family="Helvetica,sans-Serif" font-size="10.00">+ operator=()</text>
<text text-anchor="start" x="360" y="-476" font-family="Helvetica,sans-Serif" font-size="10.00">+ ~BusLoggerProxy()</text>
<text text-anchor="start" x="360" y="-465" font-family="Helvetica,sans-Serif" font-size="10.00"># filterAcceptsRow()</text>
</a>
</g>
</g>
<!-- Node4&#45;&gt;Node1 -->
<g id="edge3" class="edge">
<title>Node4&#45;&gt;Node1</title>
<path fill="none" stroke="#404040" d="M387.19,-457.79C373.81,-429.16 357.09,-393.39 341.75,-360.59"/>
<polygon fill="none" stroke="#404040" points="341.69,-360.47 335.53,-356.72 336.61,-349.59 342.78,-353.34 341.69,-360.47"/>
<text text-anchor="middle" x="368" y="-371" font-family="Helvetica,sans-Serif" font-size="10.00"> &#45;_proxy</text>
</g>
<!-- Node5 -->
<g id="node5" class="node">
<title>Node5</title>
<g id="a_node5"><a xlink:title=" ">
<polygon fill="white" stroke="#bfbfbf" points="190,-739 190,-796 316,-796 316,-739 190,-739"/>
<text text-anchor="middle" x="253" y="-784" font-family="Helvetica,sans-Serif" font-size="10.00">QSortFilterProxyModel</text>
<polyline fill="none" stroke="#bfbfbf" points="190,-777 316,-777 "/>
<text text-anchor="middle" x="253" y="-765" font-family="Helvetica,sans-Serif" font-size="10.00"> </text>
<polyline fill="none" stroke="#bfbfbf" points="190,-758 316,-758 "/>
<text text-anchor="middle" x="253" y="-746" font-family="Helvetica,sans-Serif" font-size="10.00"> </text>
</a>
</g>
</g>
<!-- Node5&#45;&gt;Node4 -->
<g id="edge4" class="edge">
<title>Node5&#45;&gt;Node4</title>
<path fill="none" stroke="midnightblue" d="M277.49,-730.56C295.83,-703.41 321.39,-665.12 343,-631 355.46,-611.33 368.75,-589.52 380.37,-570.18"/>
<polygon fill="none" stroke="midnightblue" points="274.51,-728.72 271.8,-738.96 280.3,-732.64 274.51,-728.72"/>
</g>
<!-- Node6 -->
<g id="node6" class="node">
<title>Node6</title>
<g id="a_node6"><a xlink:href="structComSquare_1_1Debugger_1_1BusLoggerFilters.html" target="_top" xlink:title="The struct representing filters of the memory bus&#39;s logger.">
<polygon fill="white" stroke="black" points="334,-689.5 334,-845.5 460,-845.5 460,-689.5 334,-689.5"/>
<text text-anchor="start" x="342" y="-833.5" font-family="Helvetica,sans-Serif" font-size="10.00">ComSquare::Debugger</text>
<text text-anchor="middle" x="397" y="-822.5" font-family="Helvetica,sans-Serif" font-size="10.00">::BusLoggerFilters</text>
<polyline fill="none" stroke="black" points="334,-815.5 460,-815.5 "/>
<text text-anchor="start" x="342" y="-803.5" font-family="Helvetica,sans-Serif" font-size="10.00">+ cpu</text>
<text text-anchor="start" x="342" y="-792.5" font-family="Helvetica,sans-Serif" font-size="10.00">+ apu</text>
<text text-anchor="start" x="342" y="-781.5" font-family="Helvetica,sans-Serif" font-size="10.00">+ ppu</text>
<text text-anchor="start" x="342" y="-770.5" font-family="Helvetica,sans-Serif" font-size="10.00">+ rom</text>
<text text-anchor="start" x="342" y="-759.5" font-family="Helvetica,sans-Serif" font-size="10.00">+ wram</text>
<text text-anchor="start" x="342" y="-748.5" font-family="Helvetica,sans-Serif" font-size="10.00">+ sram</text>
<text text-anchor="start" x="342" y="-737.5" font-family="Helvetica,sans-Serif" font-size="10.00">+ vram</text>
<text text-anchor="start" x="342" y="-726.5" font-family="Helvetica,sans-Serif" font-size="10.00">+ oamram</text>
<text text-anchor="start" x="342" y="-715.5" font-family="Helvetica,sans-Serif" font-size="10.00">+ cgram</text>
<polyline fill="none" stroke="black" points="334,-708.5 460,-708.5 "/>
<text text-anchor="middle" x="397" y="-696.5" font-family="Helvetica,sans-Serif" font-size="10.00"> </text>
</a>
</g>
</g>
<!-- Node6&#45;&gt;Node4 -->
<g id="edge5" class="edge">
<title>Node6&#45;&gt;Node4</title>
<path fill="none" stroke="#404040" d="M399.02,-689.36C399.54,-675.9 400.19,-662.04 401,-649 402.34,-627.27 404.3,-603.6 406.24,-582.28"/>
<polygon fill="none" stroke="#404040" points="406.27,-581.99 402.84,-575.64 407.38,-570.04 410.81,-576.38 406.27,-581.99"/>
<text text-anchor="middle" x="421" y="-652" font-family="Helvetica,sans-Serif" font-size="10.00"> +filters</text>
</g>
<!-- Node7 -->
<g id="node7" class="node">
<title>Node7</title>
<g id="a_node7"><a xlink:href="classBusLogModel.html" target="_top" xlink:title="The qt model that bind the logs to the view.">
<polygon fill="white" stroke="black" points="478.5,-678.5 478.5,-856.5 587.5,-856.5 587.5,-678.5 478.5,-678.5"/>
<text text-anchor="middle" x="533" y="-844.5" font-family="Helvetica,sans-Serif" font-size="10.00">BusLogModel</text>
<polyline fill="none" stroke="black" points="478.5,-837.5 587.5,-837.5 "/>
<text text-anchor="start" x="486.5" y="-825.5" font-family="Helvetica,sans-Serif" font-size="10.00">+ column</text>
<text text-anchor="start" x="486.5" y="-814.5" font-family="Helvetica,sans-Serif" font-size="10.00">&#45; _logs</text>
<polyline fill="none" stroke="black" points="478.5,-807.5 587.5,-807.5 "/>
<text text-anchor="start" x="486.5" y="-795.5" font-family="Helvetica,sans-Serif" font-size="10.00">+ BusLogModel()</text>
<text text-anchor="start" x="486.5" y="-784.5" font-family="Helvetica,sans-Serif" font-size="10.00">+ BusLogModel()</text>
<text text-anchor="start" x="486.5" y="-773.5" font-family="Helvetica,sans-Serif" font-size="10.00">+ operator=()</text>
<text text-anchor="start" x="486.5" y="-762.5" font-family="Helvetica,sans-Serif" font-size="10.00">+ ~BusLogModel()</text>
<text text-anchor="start" x="486.5" y="-751.5" font-family="Helvetica,sans-Serif" font-size="10.00">+ log()</text>
<text text-anchor="start" x="486.5" y="-740.5" font-family="Helvetica,sans-Serif" font-size="10.00">+ getLogAt()</text>
<text text-anchor="start" x="486.5" y="-729.5" font-family="Helvetica,sans-Serif" font-size="10.00">+ clearLogs()</text>
<text text-anchor="start" x="486.5" y="-718.5" font-family="Helvetica,sans-Serif" font-size="10.00">+ rowCount()</text>
<text text-anchor="start" x="486.5" y="-707.5" font-family="Helvetica,sans-Serif" font-size="10.00">+ columnCount()</text>
<text text-anchor="start" x="486.5" y="-696.5" font-family="Helvetica,sans-Serif" font-size="10.00">+ data()</text>
<text text-anchor="start" x="486.5" y="-685.5" font-family="Helvetica,sans-Serif" font-size="10.00">+ headerData()</text>
</a>
</g>
</g>
<!-- Node7&#45;&gt;Node1 -->
<g id="edge11" class="edge">
<title>Node7&#45;&gt;Node1</title>
<path fill="none" stroke="#404040" d="M540.17,-678.22C542.4,-598.97 534.88,-482.31 483,-397 458.02,-355.92 414.59,-324.39 376.09,-302.68"/>
<polygon fill="none" stroke="#404040" points="375.9,-302.57 368.72,-303.2 365.38,-296.81 372.56,-296.18 375.9,-302.57"/>
<text text-anchor="middle" x="561.5" y="-511.5" font-family="Helvetica,sans-Serif" font-size="10.00"> &#45;_model</text>
</g>
<!-- Node7&#45;&gt;Node4 -->
<g id="edge6" class="edge">
<title>Node7&#45;&gt;Node4</title>
<path fill="none" stroke="#404040" d="M478.44,-680.06C474.76,-673.35 471.24,-666.61 468,-660 455.79,-635.05 444.49,-606.67 435.34,-581.66"/>
<polygon fill="none" stroke="#404040" points="435.23,-581.36 429.44,-577.06 431.17,-570.06 436.97,-574.35 435.23,-581.36"/>
<text text-anchor="middle" x="490" y="-652" font-family="Helvetica,sans-Serif" font-size="10.00"> &#45;_parent</text>
</g>
<!-- Node8 -->
<g id="node8" class="node">
<title>Node8</title>
<g id="a_node8"><a xlink:title=" ">
<polygon fill="white" stroke="#bfbfbf" points="473,-894.5 473,-951.5 593,-951.5 593,-894.5 473,-894.5"/>
<text text-anchor="middle" x="533" y="-939.5" font-family="Helvetica,sans-Serif" font-size="10.00">QAbstractTableModel</text>
<polyline fill="none" stroke="#bfbfbf" points="473,-932.5 593,-932.5 "/>
<text text-anchor="middle" x="533" y="-920.5" font-family="Helvetica,sans-Serif" font-size="10.00"> </text>
<polyline fill="none" stroke="#bfbfbf" points="473,-913.5 593,-913.5 "/>
<text text-anchor="middle" x="533" y="-901.5" font-family="Helvetica,sans-Serif" font-size="10.00"> </text>
</a>
</g>
</g>
<!-- Node8&#45;&gt;Node7 -->
<g id="edge7" class="edge">
<title>Node8&#45;&gt;Node7</title>
<path fill="none" stroke="midnightblue" d="M533,-883.96C533,-875.47 533,-866.13 533,-856.55"/>
<polygon fill="none" stroke="midnightblue" points="529.5,-884.2 533,-894.2 536.5,-884.2 529.5,-884.2"/>
</g>
<!-- Node9&#45;&gt;Node1 -->
<g id="edge8" class="edge">
<title>Node9&#45;&gt;Node1</title>
<path fill="none" stroke="#404040" d="M267.7,-123.89C270.81,-129.86 273.65,-135.95 276,-142 279.52,-151.06 282.48,-160.71 284.97,-170.47"/>
<polygon fill="none" stroke="#404040" points="285.03,-170.72 290.3,-175.64 287.78,-182.4 282.51,-177.48 285.03,-170.72"/>
<text text-anchor="middle" x="307" y="-150.5" font-family="Helvetica,sans-Serif" font-size="10.00"> &#45;_window</text>
</g>
<!-- Node10 -->
<g id="node10" class="node">
<title>Node10</title>
<g id="a_node10"><a xlink:title=" ">
<polygon fill="white" stroke="#bfbfbf" points="125.5,-237.5 125.5,-294.5 212.5,-294.5 212.5,-237.5 125.5,-237.5"/>
<text text-anchor="middle" x="169" y="-282.5" font-family="Helvetica,sans-Serif" font-size="10.00">QMainWindow</text>
<polyline fill="none" stroke="#bfbfbf" points="125.5,-275.5 212.5,-275.5 "/>
<text text-anchor="middle" x="169" y="-263.5" font-family="Helvetica,sans-Serif" font-size="10.00"> </text>
<polyline fill="none" stroke="#bfbfbf" points="125.5,-256.5 212.5,-256.5 "/>
<text text-anchor="middle" x="169" y="-244.5" font-family="Helvetica,sans-Serif" font-size="10.00"> </text>
</a>
</g>
</g>
<!-- Node10&#45;&gt;Node9 -->
<g id="edge9" class="edge">
<title>Node10&#45;&gt;Node9</title>
<path fill="none" stroke="midnightblue" d="M179.56,-227.58C187.76,-198.53 199.29,-157.64 208.82,-123.89"/>
<polygon fill="none" stroke="midnightblue" points="176.15,-226.76 176.81,-237.34 182.89,-228.66 176.15,-226.76"/>
</g>
</g>
</svg>
