<?xml version="1.0" encoding="UTF-8" standalone="no"?>
<!DOCTYPE svg PUBLIC "-//W3C//DTD SVG 1.1//EN"
 "http://www.w3.org/Graphics/SVG/1.1/DTD/svg11.dtd">
<!-- Generated by graphviz version 2.43.0 (0)
 -->
<!-- Title: sources/Debugger/ClosableWindow.hpp Pages: 1 -->
<svg width="1278pt" height="173pt"
 viewBox="0.00 0.00 1277.50 173.00" xmlns="http://www.w3.org/2000/svg" xmlns:xlink="http://www.w3.org/1999/xlink">
<g id="graph0" class="graph" transform="scale(1 1) rotate(0) translate(4 169)">
<title>sources/Debugger/ClosableWindow.hpp</title>
<polygon fill="white" stroke="transparent" points="-4,4 -4,-169 1273.5,-169 1273.5,4 -4,4"/>
<!-- Node1 -->
<g id="node1" class="node">
<title>Node1</title>
<g id="a_node1"><a xlink:title=" ">
<polygon fill="#bfbfbf" stroke="black" points="626,-134.5 626,-164.5 775,-164.5 775,-134.5 626,-134.5"/>
<text text-anchor="start" x="634" y="-152.5" font-family="Helvetica,sans-Serif" font-size="10.00">sources/Debugger/Closable</text>
<text text-anchor="middle" x="700.5" y="-141.5" font-family="Helvetica,sans-Serif" font-size="10.00">Window.hpp</text>
</a>
</g>
</g>
<!-- Node2 -->
<g id="node2" class="node">
<title>Node2</title>
<g id="a_node2"><a xlink:href="CGramDebug_8hpp.html" target="_top" xlink:title=" ">
<polygon fill="white" stroke="black" points="71.5,-73 71.5,-92 265.5,-92 265.5,-73 71.5,-73"/>
<text text-anchor="middle" x="168.5" y="-80" font-family="Helvetica,sans-Serif" font-size="10.00">sources/Debugger/CGramDebug.hpp</text>
</a>
</g>
</g>
<!-- Node1&#45;&gt;Node2 -->
<g id="edge1" class="edge">
<title>Node1&#45;&gt;Node2</title>
<path fill="none" stroke="midnightblue" d="M615.77,-138.15C511.23,-125.37 335.44,-103.9 238.3,-92.03"/>
<polygon fill="midnightblue" stroke="midnightblue" points="615.62,-141.65 625.97,-139.39 616.47,-134.71 615.62,-141.65"/>
</g>
<!-- Node4 -->
<g id="node4" class="node">
<title>Node4</title>
<g id="a_node4"><a xlink:href="CPUDebug_8hpp.html" target="_top" xlink:title=" ">
<polygon fill="white" stroke="black" points="355.5,-67.5 355.5,-97.5 483.5,-97.5 483.5,-67.5 355.5,-67.5"/>
<text text-anchor="start" x="363.5" y="-85.5" font-family="Helvetica,sans-Serif" font-size="10.00">sources/Debugger/CPU</text>
<text text-anchor="middle" x="419.5" y="-74.5" font-family="Helvetica,sans-Serif" font-size="10.00">/CPUDebug.hpp</text>
</a>
</g>
</g>
<!-- Node1&#45;&gt;Node4 -->
<g id="edge3" class="edge">
<title>Node1&#45;&gt;Node4</title>
<path fill="none" stroke="midnightblue" d="M629.97,-132.19C583.95,-121.54 524.48,-107.78 480.5,-97.61"/>
<polygon fill="midnightblue" stroke="midnightblue" points="629.34,-135.63 639.87,-134.48 630.92,-128.81 629.34,-135.63"/>
</g>
<!-- Node7 -->
<g id="node7" class="node">
<title>Node7</title>
<g id="a_node7"><a xlink:href="HeaderViewer_8hpp.html" target="_top" xlink:title=" ">
<polygon fill="white" stroke="black" points="502,-73 502,-92 699,-92 699,-73 502,-73"/>
<text text-anchor="middle" x="600.5" y="-80" font-family="Helvetica,sans-Serif" font-size="10.00">sources/Debugger/HeaderViewer.hpp</text>
</a>
</g>
</g>
<!-- Node1&#45;&gt;Node7 -->
<g id="edge6" class="edge">
<title>Node1&#45;&gt;Node7</title>
<path fill="none" stroke="midnightblue" d="M670.2,-128.81C651.29,-116.51 627.89,-101.3 613.59,-92.01"/>
<polygon fill="midnightblue" stroke="midnightblue" points="668.51,-131.88 678.8,-134.4 672.32,-126.01 668.51,-131.88"/>
</g>
<!-- Node9 -->
<g id="node9" class="node">
<title>Node9</title>
<g id="a_node9"><a xlink:href="MemoryBusDebug_8hpp.html" target="_top" xlink:title=" ">
<polygon fill="white" stroke="black" points="717.5,-67.5 717.5,-97.5 883.5,-97.5 883.5,-67.5 717.5,-67.5"/>
<text text-anchor="start" x="725.5" y="-85.5" font-family="Helvetica,sans-Serif" font-size="10.00">sources/Debugger/MemoryBus</text>
<text text-anchor="middle" x="800.5" y="-74.5" font-family="Helvetica,sans-Serif" font-size="10.00">Debug.hpp</text>
</a>
</g>
</g>
<!-- Node1&#45;&gt;Node9 -->
<g id="edge8" class="edge">
<title>Node1&#45;&gt;Node9</title>
<path fill="none" stroke="midnightblue" d="M730.91,-128.73C746.38,-118.68 764.83,-106.68 778.84,-97.58"/>
<polygon fill="midnightblue" stroke="midnightblue" points="728.68,-126.01 722.2,-134.4 732.49,-131.88 728.68,-126.01"/>
</g>
<!-- Node11 -->
<g id="node11" class="node">
<title>Node11</title>
<g id="a_node11"><a xlink:href="MemoryViewer_8hpp.html" target="_top" xlink:title=" ">
<polygon fill="white" stroke="black" points="901.5,-73 901.5,-92 1103.5,-92 1103.5,-73 901.5,-73"/>
<text text-anchor="middle" x="1002.5" y="-80" font-family="Helvetica,sans-Serif" font-size="10.00">sources/Debugger/MemoryViewer.hpp</text>
</a>
</g>
</g>
<!-- Node1&#45;&gt;Node11 -->
<g id="edge10" class="edge">
<title>Node1&#45;&gt;Node11</title>
<path fill="none" stroke="midnightblue" d="M775.73,-132.31C835.07,-119.54 915.47,-102.23 962.87,-92.03"/>
<polygon fill="midnightblue" stroke="midnightblue" points="774.7,-128.95 765.66,-134.48 776.17,-135.79 774.7,-128.95"/>
</g>
<!-- Node13 -->
<g id="node13" class="node">
<title>Node13</title>
<g id="a_node13"><a xlink:href="RegisterViewer_8hpp.html" target="_top" xlink:title=" ">
<polygon fill="white" stroke="black" points="1121.5,-67.5 1121.5,-97.5 1269.5,-97.5 1269.5,-67.5 1121.5,-67.5"/>
<text text-anchor="start" x="1129.5" y="-85.5" font-family="Helvetica,sans-Serif" font-size="10.00">sources/Debugger/Register</text>
<text text-anchor="middle" x="1195.5" y="-74.5" font-family="Helvetica,sans-Serif" font-size="10.00">Viewer.hpp</text>
</a>
</g>
</g>
<!-- Node1&#45;&gt;Node13 -->
<g id="edge12" class="edge">
<title>Node1&#45;&gt;Node13</title>
<path fill="none" stroke="midnightblue" d="M785.27,-139.39C868.68,-130.12 999.6,-114.77 1112.5,-98 1115.39,-97.57 1118.34,-97.12 1121.32,-96.65"/>
<polygon fill="midnightblue" stroke="midnightblue" points="784.64,-135.94 775.08,-140.52 785.41,-142.89 784.64,-135.94"/>
</g>
<!-- Node3 -->
<g id="node3" class="node">
<title>Node3</title>
<g id="a_node3"><a xlink:href="CGramDebug_8cpp.html" target="_top" xlink:title=" ">
<polygon fill="white" stroke="black" points="0,-6 0,-25 193,-25 193,-6 0,-6"/>
<text text-anchor="middle" x="96.5" y="-13" font-family="Helvetica,sans-Serif" font-size="10.00">sources/Debugger/CGramDebug.cpp</text>
</a>
</g>
</g>
<!-- Node2&#45;&gt;Node3 -->
<g id="edge2" class="edge">
<title>Node2&#45;&gt;Node3</title>
<path fill="none" stroke="midnightblue" d="M151.17,-65.86C137.02,-53.08 117.54,-35.49 106.06,-25.13"/>
<polygon fill="midnightblue" stroke="midnightblue" points="149.02,-68.63 158.79,-72.73 153.71,-63.43 149.02,-68.63"/>
</g>
<!-- Node5 -->
<g id="node5" class="node">
<title>Node5</title>
<g id="a_node5"><a xlink:href="CPUDebug_8cpp.html" target="_top" xlink:title=" ">
<polygon fill="white" stroke="black" points="211.5,-0.5 211.5,-30.5 339.5,-30.5 339.5,-0.5 211.5,-0.5"/>
<text text-anchor="start" x="219.5" y="-18.5" font-family="Helvetica,sans-Serif" font-size="10.00">sources/Debugger/CPU</text>
<text text-anchor="middle" x="275.5" y="-7.5" font-family="Helvetica,sans-Serif" font-size="10.00">/CPUDebug.cpp</text>
</a>
</g>
</g>
<!-- Node4&#45;&gt;Node5 -->
<g id="edge4" class="edge">
<title>Node4&#45;&gt;Node5</title>
<path fill="none" stroke="midnightblue" d="M379.11,-63.27C356.18,-52.92 327.9,-40.15 306.68,-30.58"/>
<polygon fill="midnightblue" stroke="midnightblue" points="377.7,-66.47 388.25,-67.4 380.58,-60.09 377.7,-66.47"/>
</g>
<!-- Node6 -->
<g id="node6" class="node">
<title>Node6</title>
<g id="a_node6"><a xlink:href="Disassembly_8cpp.html" target="_top" xlink:title=" ">
<polygon fill="white" stroke="black" points="357.5,-0.5 357.5,-30.5 485.5,-30.5 485.5,-0.5 357.5,-0.5"/>
<text text-anchor="start" x="365.5" y="-18.5" font-family="Helvetica,sans-Serif" font-size="10.00">sources/Debugger/CPU</text>
<text text-anchor="middle" x="421.5" y="-7.5" font-family="Helvetica,sans-Serif" font-size="10.00">/Disassembly.cpp</text>
</a>
</g>
</g>
<!-- Node4&#45;&gt;Node6 -->
<g id="edge5" class="edge">
<title>Node4&#45;&gt;Node6</title>
<path fill="none" stroke="midnightblue" d="M420.25,-57.11C420.53,-48.15 420.83,-38.32 421.07,-30.58"/>
<polygon fill="midnightblue" stroke="midnightblue" points="416.74,-57.29 419.93,-67.4 423.74,-57.51 416.74,-57.29"/>
</g>
<!-- Node8 -->
<g id="node8" class="node">
<title>Node8</title>
<g id="a_node8"><a xlink:href="HeaderViewer_8cpp.html" target="_top" xlink:title=" ">
<polygon fill="white" stroke="black" points="503.5,-6 503.5,-25 699.5,-25 699.5,-6 503.5,-6"/>
<text text-anchor="middle" x="601.5" y="-13" font-family="Helvetica,sans-Serif" font-size="10.00">sources/Debugger/HeaderViewer.cpp</text>
</a>
</g>
</g>
<!-- Node7&#45;&gt;Node8 -->
<g id="edge7" class="edge">
<title>Node7&#45;&gt;Node8</title>
<path fill="none" stroke="midnightblue" d="M600.79,-62.54C600.98,-50.17 601.22,-34.62 601.37,-25.13"/>
<polygon fill="midnightblue" stroke="midnightblue" points="597.29,-62.68 600.63,-72.73 604.29,-62.79 597.29,-62.68"/>
</g>
<!-- Node10 -->
<g id="node10" class="node">
<title>Node10</title>
<g id="a_node10"><a xlink:href="MemoryBusDebug_8cpp.html" target="_top" xlink:title=" ">
<polygon fill="white" stroke="black" points="717.5,-0.5 717.5,-30.5 883.5,-30.5 883.5,-0.5 717.5,-0.5"/>
<text text-anchor="start" x="725.5" y="-18.5" font-family="Helvetica,sans-Serif" font-size="10.00">sources/Debugger/MemoryBus</text>
<text text-anchor="middle" x="800.5" y="-7.5" font-family="Helvetica,sans-Serif" font-size="10.00">Debug.cpp</text>
</a>
</g>
</g>
<!-- Node9&#45;&gt;Node10 -->
<g id="edge9" class="edge">
<title>Node9&#45;&gt;Node10</title>
<path fill="none" stroke="midnightblue" d="M800.5,-57.11C800.5,-48.15 800.5,-38.32 800.5,-30.58"/>
<polygon fill="midnightblue" stroke="midnightblue" points="797,-57.4 800.5,-67.4 804,-57.4 797,-57.4"/>
</g>
<!-- Node12 -->
<g id="node12" class="node">
<title>Node12</title>
<g id="a_node12"><a xlink:href="MemoryViewer_8cpp.html" target="_top" xlink:title=" ">
<polygon fill="white" stroke="black" points="902,-6 902,-25 1103,-25 1103,-6 902,-6"/>
<text text-anchor="middle" x="1002.5" y="-13" font-family="Helvetica,sans-Serif" font-size="10.00">sources/Debugger/MemoryViewer.cpp</text>
</a>
</g>
</g>
<!-- Node11&#45;&gt;Node12 -->
<g id="edge11" class="edge">
<title>Node11&#45;&gt;Node12</title>
<path fill="none" stroke="midnightblue" d="M1002.5,-62.54C1002.5,-50.17 1002.5,-34.62 1002.5,-25.13"/>
<polygon fill="midnightblue" stroke="midnightblue" points="999,-62.73 1002.5,-72.73 1006,-62.73 999,-62.73"/>
</g>
<!-- Node14 -->
<g id="node14" class="node">
<title>Node14</title>
<g id="a_node14"><a xlink:href="RegisterViewer_8cpp.html" target="_top" xlink:title=" ">
<polygon fill="white" stroke="black" points="1121.5,-0.5 1121.5,-30.5 1269.5,-30.5 1269.5,-0.5 1121.5,-0.5"/>
<text text-anchor="start" x="1129.5" y="-18.5" font-family="Helvetica,sans-Serif" font-size="10.00">sources/Debugger/Register</text>
<text text-anchor="middle" x="1195.5" y="-7.5" font-family="Helvetica,sans-Serif" font-size="10.00">Viewer.cpp</text>
</a>
</g>
</g>
<!-- Node13&#45;&gt;Node14 -->
<g id="edge13" class="edge">
<title>Node13&#45;&gt;Node14</title>
<path fill="none" stroke="midnightblue" d="M1195.5,-57.11C1195.5,-48.15 1195.5,-38.32 1195.5,-30.58"/>
<polygon fill="midnightblue" stroke="midnightblue" points="1192,-57.4 1195.5,-67.4 1199,-57.4 1192,-57.4"/>
</g>
</g>
</svg>
