<?xml version="1.0" encoding="UTF-8" standalone="no"?>
<!DOCTYPE svg PUBLIC "-//W3C//DTD SVG 1.1//EN"
 "http://www.w3.org/Graphics/SVG/1.1/DTD/svg11.dtd">
<!-- Generated by graphviz version 2.43.0 (0)
 -->
<!-- Title: sources/Models/Components.hpp Pages: 1 -->
<svg width="4101pt" height="386pt"
 viewBox="0.00 0.00 4101.00 386.00" xmlns="http://www.w3.org/2000/svg" xmlns:xlink="http://www.w3.org/1999/xlink">
<g id="graph0" class="graph" transform="scale(1 1) rotate(0) translate(4 382)">
<title>sources/Models/Components.hpp</title>
<polygon fill="white" stroke="transparent" points="-4,4 -4,-382 4097,-382 4097,4 -4,4"/>
<!-- Node1 -->
<g id="node1" class="node">
<title>Node1</title>
<g id="a_node1"><a xlink:title=" ">
<polygon fill="#bfbfbf" stroke="black" points="943.5,-358.5 943.5,-377.5 1121.5,-377.5 1121.5,-358.5 943.5,-358.5"/>
<text text-anchor="middle" x="1032.5" y="-365.5" font-family="Helvetica,sans-Serif" font-size="10.00">sources/Models/Components.hpp</text>
</a>
</g>
</g>
<!-- Node2 -->
<g id="node2" class="node">
<title>Node2</title>
<g id="a_node2"><a xlink:href="AMemory_8hpp.html" target="_top" xlink:title=" ">
<polygon fill="white" stroke="black" points="1004,-241 1004,-260 1171,-260 1171,-241 1004,-241"/>
<text text-anchor="middle" x="1087.5" y="-248" font-family="Helvetica,sans-Serif" font-size="10.00">sources/Memory/AMemory.hpp</text>
</a>
</g>
</g>
<!-- Node1&#45;&gt;Node2 -->
<g id="edge1" class="edge">
<title>Node1&#45;&gt;Node2</title>
<path fill="none" stroke="midnightblue" d="M1048.09,-350.9C1055.2,-342.79 1063.2,-332.47 1068.5,-322 1079.04,-301.19 1084.25,-273.88 1086.34,-260.16"/>
<polygon fill="midnightblue" stroke="midnightblue" points="1045.33,-348.73 1041.15,-358.46 1050.49,-353.46 1045.33,-348.73"/>
</g>
<!-- Node97 -->
<g id="node49" class="node">
<title>Node97</title>
<g id="a_node49"><a xlink:href="IMemory_8hpp.html" target="_top" xlink:title=" ">
<polygon fill="white" stroke="black" points="895.5,-302.5 895.5,-321.5 1059.5,-321.5 1059.5,-302.5 895.5,-302.5"/>
<text text-anchor="middle" x="977.5" y="-309.5" font-family="Helvetica,sans-Serif" font-size="10.00">sources/Memory/IMemory.hpp</text>
</a>
</g>
</g>
<!-- Node1&#45;&gt;Node97 -->
<g id="edge63" class="edge">
<title>Node1&#45;&gt;Node97</title>
<path fill="none" stroke="midnightblue" d="M1016.21,-351C1006.46,-341.43 994.45,-329.64 986.41,-321.75"/>
<polygon fill="midnightblue" stroke="midnightblue" points="1013.83,-353.57 1023.42,-358.08 1018.73,-348.58 1013.83,-353.57"/>
</g>
<!-- Node3 -->
<g id="node3" class="node">
<title>Node3</title>
<g id="a_node3"><a xlink:href="DSP_8hpp.html" target="_top" xlink:title=" ">
<polygon fill="white" stroke="black" points="3056.5,-179.5 3056.5,-198.5 3198.5,-198.5 3198.5,-179.5 3056.5,-179.5"/>
<text text-anchor="middle" x="3127.5" y="-186.5" font-family="Helvetica,sans-Serif" font-size="10.00">sources/APU/DSP/DSP.hpp</text>
</a>
</g>
</g>
<!-- Node2&#45;&gt;Node3 -->
<g id="edge2" class="edge">
<title>Node2&#45;&gt;Node3</title>
<path fill="none" stroke="midnightblue" d="M1181.34,-246.76C1530.25,-236.59 2748.38,-201.06 3056.34,-192.08"/>
<polygon fill="midnightblue" stroke="midnightblue" points="1181.17,-243.27 1171.27,-247.06 1181.37,-250.26 1181.17,-243.27"/>
</g>
<!-- Node4 -->
<g id="node4" class="node">
<title>Node4</title>
<g id="a_node4"><a xlink:href="APU_8hpp.html" target="_top" xlink:title=" ">
<polygon fill="white" stroke="black" points="2314.5,-123.5 2314.5,-142.5 2436.5,-142.5 2436.5,-123.5 2314.5,-123.5"/>
<text text-anchor="middle" x="2375.5" y="-130.5" font-family="Helvetica,sans-Serif" font-size="10.00">sources/APU/APU.hpp</text>
</a>
</g>
</g>
<!-- Node2&#45;&gt;Node4 -->
<g id="edge39" class="edge">
<title>Node2&#45;&gt;Node4</title>
<path fill="none" stroke="midnightblue" d="M1181.41,-247.31C1343.31,-242.84 1685.25,-230.28 1972.5,-199 2104.07,-184.67 2258.14,-156.66 2331.87,-142.55"/>
<polygon fill="midnightblue" stroke="midnightblue" points="1180.91,-243.83 1171.01,-247.6 1181.1,-250.82 1180.91,-243.83"/>
</g>
<!-- Node68 -->
<g id="node34" class="node">
<title>Node68</title>
<g id="a_node34"><a xlink:href="IPL_8hpp.html" target="_top" xlink:title=" ">
<polygon fill="white" stroke="black" points="1831,-179.5 1831,-198.5 1964,-198.5 1964,-179.5 1831,-179.5"/>
<text text-anchor="middle" x="1897.5" y="-186.5" font-family="Helvetica,sans-Serif" font-size="10.00">sources/APU/IPL/IPL.hpp</text>
</a>
</g>
</g>
<!-- Node2&#45;&gt;Node68 -->
<g id="edge40" class="edge">
<title>Node2&#45;&gt;Node68</title>
<path fill="none" stroke="midnightblue" d="M1181.3,-242.61C1346.84,-230.45 1686.9,-205.47 1830.82,-194.9"/>
<polygon fill="midnightblue" stroke="midnightblue" points="1180.85,-239.13 1171.13,-243.36 1181.36,-246.11 1180.85,-239.13"/>
</g>
<!-- Node70 -->
<g id="node36" class="node">
<title>Node70</title>
<g id="a_node36"><a xlink:href="Cartridge_8hpp.html" target="_top" xlink:title=" ">
<polygon fill="white" stroke="black" points="588,-179.5 588,-198.5 759,-198.5 759,-179.5 588,-179.5"/>
<text text-anchor="middle" x="673.5" y="-186.5" font-family="Helvetica,sans-Serif" font-size="10.00">sources/Cartridge/Cartridge.hpp</text>
</a>
</g>
</g>
<!-- Node2&#45;&gt;Node70 -->
<g id="edge43" class="edge">
<title>Node2&#45;&gt;Node70</title>
<path fill="none" stroke="midnightblue" d="M1018.21,-239.54C938.25,-228.05 808.13,-209.35 732.71,-198.51"/>
<polygon fill="midnightblue" stroke="midnightblue" points="1017.79,-243.02 1028.18,-240.98 1018.78,-236.09 1017.79,-243.02"/>
</g>
<!-- Node72 -->
<g id="node38" class="node">
<title>Node72</title>
<g id="a_node38"><a xlink:href="CPU_8hpp.html" target="_top" xlink:title=" ">
<polygon fill="white" stroke="red" points="661.5,-123.5 661.5,-142.5 783.5,-142.5 783.5,-123.5 661.5,-123.5"/>
<text text-anchor="middle" x="722.5" y="-130.5" font-family="Helvetica,sans-Serif" font-size="10.00">sources/CPU/CPU.hpp</text>
</a>
</g>
</g>
<!-- Node2&#45;&gt;Node72 -->
<g id="edge54" class="edge">
<title>Node2&#45;&gt;Node72</title>
<path fill="none" stroke="midnightblue" d="M993.93,-243.95C937.65,-237.91 865.68,-225.3 806.5,-199 775.16,-185.07 745.02,-157.07 730.88,-142.8"/>
<polygon fill="midnightblue" stroke="midnightblue" points="993.59,-247.43 1003.9,-244.97 994.3,-240.47 993.59,-247.43"/>
</g>
<!-- Node82 -->
<g id="node45" class="node">
<title>Node82</title>
<g id="a_node45"><a xlink:href="MemoryBus_8hpp.html" target="_top" xlink:title=" ">
<polygon fill="white" stroke="red" points="815.5,-179.5 815.5,-198.5 995.5,-198.5 995.5,-179.5 815.5,-179.5"/>
<text text-anchor="middle" x="905.5" y="-186.5" font-family="Helvetica,sans-Serif" font-size="10.00">sources/Memory/MemoryBus.hpp</text>
</a>
</g>
</g>
<!-- Node2&#45;&gt;Node82 -->
<g id="edge55" class="edge">
<title>Node2&#45;&gt;Node82</title>
<path fill="none" stroke="midnightblue" d="M1051.5,-237.73C1016.13,-226.17 963,-208.8 931.53,-198.51"/>
<polygon fill="midnightblue" stroke="midnightblue" points="1050.83,-241.19 1061.42,-240.98 1053.01,-234.54 1050.83,-241.19"/>
</g>
<!-- Node85 -->
<g id="node46" class="node">
<title>Node85</title>
<g id="a_node46"><a xlink:href="PPU_8hpp.html" target="_top" xlink:title=" ">
<polygon fill="white" stroke="red" points="889.5,-123.5 889.5,-142.5 1009.5,-142.5 1009.5,-123.5 889.5,-123.5"/>
<text text-anchor="middle" x="949.5" y="-130.5" font-family="Helvetica,sans-Serif" font-size="10.00">sources/PPU/PPU.hpp</text>
</a>
</g>
</g>
<!-- Node2&#45;&gt;Node85 -->
<g id="edge60" class="edge">
<title>Node2&#45;&gt;Node85</title>
<path fill="none" stroke="midnightblue" d="M1069.72,-234.23C1052.97,-219.89 1027.13,-197.87 1004.5,-179 989.15,-166.2 971.2,-151.58 960.09,-142.57"/>
<polygon fill="midnightblue" stroke="midnightblue" points="1067.71,-237.12 1077.58,-240.98 1072.27,-231.81 1067.71,-237.12"/>
</g>
<!-- Node92 -->
<g id="node47" class="node">
<title>Node92</title>
<g id="a_node47"><a xlink:href="MemoryShadow_8hpp.html" target="_top" xlink:title=" ">
<polygon fill="white" stroke="red" points="1051.5,-179.5 1051.5,-198.5 1251.5,-198.5 1251.5,-179.5 1051.5,-179.5"/>
<text text-anchor="middle" x="1151.5" y="-186.5" font-family="Helvetica,sans-Serif" font-size="10.00">sources/Memory/MemoryShadow.hpp</text>
</a>
</g>
</g>
<!-- Node2&#45;&gt;Node92 -->
<g id="edge61" class="edge">
<title>Node2&#45;&gt;Node92</title>
<path fill="none" stroke="midnightblue" d="M1104.01,-234.15C1116.21,-222.81 1132.37,-207.78 1142.35,-198.51"/>
<polygon fill="midnightblue" stroke="midnightblue" points="1101.61,-231.6 1096.67,-240.98 1106.38,-236.73 1101.61,-231.6"/>
</g>
<!-- Node96 -->
<g id="node48" class="node">
<title>Node96</title>
<g id="a_node48"><a xlink:href="AMemory_8cpp.html" target="_top" xlink:title=" ">
<polygon fill="white" stroke="black" points="1270,-179.5 1270,-198.5 1437,-198.5 1437,-179.5 1270,-179.5"/>
<text text-anchor="middle" x="1353.5" y="-186.5" font-family="Helvetica,sans-Serif" font-size="10.00">sources/Memory/AMemory.cpp</text>
</a>
</g>
</g>
<!-- Node2&#45;&gt;Node96 -->
<g id="edge62" class="edge">
<title>Node2&#45;&gt;Node96</title>
<path fill="none" stroke="midnightblue" d="M1135.52,-238.76C1187.12,-227.22 1268.09,-209.11 1315.46,-198.51"/>
<polygon fill="midnightblue" stroke="midnightblue" points="1134.61,-235.38 1125.61,-240.98 1136.13,-242.21 1134.61,-235.38"/>
</g>
<!-- Node3&#45;&gt;Node4 -->
<g id="edge3" class="edge">
<title>Node3&#45;&gt;Node4</title>
<path fill="none" stroke="midnightblue" d="M3046.24,-182.16C2894.56,-171.27 2571.56,-148.08 2436.67,-138.39"/>
<polygon fill="midnightblue" stroke="midnightblue" points="3046.19,-185.67 3056.42,-182.9 3046.69,-178.69 3046.19,-185.67"/>
</g>
<!-- Node6 -->
<g id="node6" class="node">
<title>Node6</title>
<g id="a_node6"><a xlink:href="DSP_8cpp.html" target="_top" xlink:title=" ">
<polygon fill="white" stroke="black" points="3785,-62 3785,-81 3926,-81 3926,-62 3785,-62"/>
<text text-anchor="middle" x="3855.5" y="-69" font-family="Helvetica,sans-Serif" font-size="10.00">sources/APU/DSP/DSP.cpp</text>
</a>
</g>
</g>
<!-- Node3&#45;&gt;Node6 -->
<g id="edge33" class="edge">
<title>Node3&#45;&gt;Node6</title>
<path fill="none" stroke="midnightblue" d="M3208.77,-183.06C3297.42,-176.9 3443.27,-164.45 3567.5,-143 3663.37,-126.44 3774.66,-95.91 3826.35,-81.06"/>
<polygon fill="midnightblue" stroke="midnightblue" points="3208.52,-179.57 3198.78,-183.75 3209,-186.56 3208.52,-179.57"/>
</g>
<!-- Node7 -->
<g id="node7" class="node">
<title>Node7</title>
<g id="a_node7"><a xlink:href="Voice_8cpp.html" target="_top" xlink:title=" ">
<polygon fill="white" stroke="black" points="3944,-62 3944,-81 4093,-81 4093,-62 3944,-62"/>
<text text-anchor="middle" x="4018.5" y="-69" font-family="Helvetica,sans-Serif" font-size="10.00">sources/APU/DSP/Voice.cpp</text>
</a>
</g>
</g>
<!-- Node3&#45;&gt;Node7 -->
<g id="edge38" class="edge">
<title>Node3&#45;&gt;Node7</title>
<path fill="none" stroke="midnightblue" d="M3208.93,-182.93C3308.26,-176.23 3481.18,-162.89 3628.5,-143 3756.86,-125.67 3907.33,-95.7 3977.98,-81.06"/>
<polygon fill="midnightblue" stroke="midnightblue" points="3208.4,-179.46 3198.66,-183.62 3208.87,-186.44 3208.4,-179.46"/>
</g>
<!-- Node63 -->
<g id="node29" class="node">
<title>Node63</title>
<g id="a_node29"><a xlink:href="BRR_8cpp.html" target="_top" xlink:title=" ">
<polygon fill="white" stroke="black" points="2893,-123.5 2893,-142.5 3036,-142.5 3036,-123.5 2893,-123.5"/>
<text text-anchor="middle" x="2964.5" y="-130.5" font-family="Helvetica,sans-Serif" font-size="10.00">sources/APU/DSP/BRR.cpp</text>
</a>
</g>
</g>
<!-- Node3&#45;&gt;Node63 -->
<g id="edge32" class="edge">
<title>Node3&#45;&gt;Node63</title>
<path fill="none" stroke="midnightblue" d="M3091.8,-176.17C3061.1,-166 3017.58,-151.59 2990.21,-142.52"/>
<polygon fill="midnightblue" stroke="midnightblue" points="3091.08,-179.62 3101.67,-179.44 3093.28,-172.98 3091.08,-179.62"/>
</g>
<!-- Node64 -->
<g id="node30" class="node">
<title>Node64</title>
<g id="a_node30"><a xlink:href="Echo_8cpp.html" target="_top" xlink:title=" ">
<polygon fill="white" stroke="black" points="3054.5,-123.5 3054.5,-142.5 3200.5,-142.5 3200.5,-123.5 3054.5,-123.5"/>
<text text-anchor="middle" x="3127.5" y="-130.5" font-family="Helvetica,sans-Serif" font-size="10.00">sources/APU/DSP/Echo.cpp</text>
</a>
</g>
</g>
<!-- Node3&#45;&gt;Node64 -->
<g id="edge34" class="edge">
<title>Node3&#45;&gt;Node64</title>
<path fill="none" stroke="midnightblue" d="M3127.5,-168.8C3127.5,-159.91 3127.5,-149.78 3127.5,-142.75"/>
<polygon fill="midnightblue" stroke="midnightblue" points="3124,-169.08 3127.5,-179.08 3131,-169.08 3124,-169.08"/>
</g>
<!-- Node65 -->
<g id="node31" class="node">
<title>Node65</title>
<g id="a_node31"><a xlink:href="Envelope_8cpp.html" target="_top" xlink:title=" ">
<polygon fill="white" stroke="black" points="3218.5,-123.5 3218.5,-142.5 3386.5,-142.5 3386.5,-123.5 3218.5,-123.5"/>
<text text-anchor="middle" x="3302.5" y="-130.5" font-family="Helvetica,sans-Serif" font-size="10.00">sources/APU/DSP/Envelope.cpp</text>
</a>
</g>
</g>
<!-- Node3&#45;&gt;Node65 -->
<g id="edge35" class="edge">
<title>Node3&#45;&gt;Node65</title>
<path fill="none" stroke="midnightblue" d="M3164.97,-176.44C3197.97,-166.26 3245.26,-151.66 3274.9,-142.52"/>
<polygon fill="midnightblue" stroke="midnightblue" points="3163.75,-173.15 3155.23,-179.44 3165.82,-179.84 3163.75,-173.15"/>
</g>
<!-- Node66 -->
<g id="node32" class="node">
<title>Node66</title>
<g id="a_node32"><a xlink:href="Gauss_8cpp.html" target="_top" xlink:title=" ">
<polygon fill="white" stroke="black" points="3405,-123.5 3405,-142.5 3558,-142.5 3558,-123.5 3405,-123.5"/>
<text text-anchor="middle" x="3481.5" y="-130.5" font-family="Helvetica,sans-Serif" font-size="10.00">sources/APU/DSP/Gauss.cpp</text>
</a>
</g>
</g>
<!-- Node3&#45;&gt;Node66 -->
<g id="edge36" class="edge">
<title>Node3&#45;&gt;Node66</title>
<path fill="none" stroke="midnightblue" d="M3193.6,-177.92C3260.48,-167.71 3362.73,-152.12 3425.67,-142.52"/>
<polygon fill="midnightblue" stroke="midnightblue" points="3192.95,-174.48 3183.59,-179.44 3194.01,-181.4 3192.95,-174.48"/>
</g>
<!-- Node67 -->
<g id="node33" class="node">
<title>Node67</title>
<g id="a_node33"><a xlink:href="Timer_8cpp.html" target="_top" xlink:title=" ">
<polygon fill="white" stroke="black" points="2724,-123.5 2724,-142.5 2875,-142.5 2875,-123.5 2724,-123.5"/>
<text text-anchor="middle" x="2799.5" y="-130.5" font-family="Helvetica,sans-Serif" font-size="10.00">sources/APU/DSP/Timer.cpp</text>
</a>
</g>
</g>
<!-- Node3&#45;&gt;Node67 -->
<g id="edge37" class="edge">
<title>Node3&#45;&gt;Node67</title>
<path fill="none" stroke="midnightblue" d="M3065.49,-177.79C3003.51,-167.59 2909.31,-152.08 2851.23,-142.52"/>
<polygon fill="midnightblue" stroke="midnightblue" points="3065.09,-181.27 3075.53,-179.44 3066.23,-174.37 3065.09,-181.27"/>
</g>
<!-- Node5 -->
<g id="node5" class="node">
<title>Node5</title>
<g id="a_node5"><a xlink:href="APU_8cpp.html" target="_top" xlink:title=" ">
<polygon fill="white" stroke="black" points="3320,-62 3320,-81 3441,-81 3441,-62 3320,-62"/>
<text text-anchor="middle" x="3380.5" y="-69" font-family="Helvetica,sans-Serif" font-size="10.00">sources/APU/APU.cpp</text>
</a>
</g>
</g>
<!-- Node4&#45;&gt;Node5 -->
<g id="edge4" class="edge">
<title>Node4&#45;&gt;Node5</title>
<path fill="none" stroke="midnightblue" d="M2446.63,-130.02C2634.98,-124.54 3143.58,-108.17 3310.5,-87 3321.7,-85.58 3333.79,-83.34 3344.71,-81.03"/>
<polygon fill="midnightblue" stroke="midnightblue" points="2446.46,-126.52 2436.57,-130.31 2446.66,-133.52 2446.46,-126.52"/>
</g>
<!-- Node4&#45;&gt;Node6 -->
<g id="edge5" class="edge">
<title>Node4&#45;&gt;Node6</title>
<path fill="none" stroke="midnightblue" d="M2447.12,-129.99C2723.56,-122.2 3709.02,-94.05 3775.5,-87 3788.41,-85.63 3802.38,-83.37 3814.97,-81.04"/>
<polygon fill="midnightblue" stroke="midnightblue" points="2446.71,-126.5 2436.81,-130.28 2446.9,-133.5 2446.71,-126.5"/>
</g>
<!-- Node4&#45;&gt;Node7 -->
<g id="edge6" class="edge">
<title>Node4&#45;&gt;Node7</title>
<path fill="none" stroke="midnightblue" d="M2447.28,-130.07C2748.67,-121.95 3898.04,-90.79 3935.5,-87 3948.89,-85.64 3963.37,-83.39 3976.44,-81.06"/>
<polygon fill="midnightblue" stroke="midnightblue" points="2446.82,-126.58 2436.92,-130.35 2447.01,-133.58 2446.82,-126.58"/>
</g>
<!-- Node8 -->
<g id="node8" class="node">
<title>Node8</title>
<g id="a_node8"><a xlink:href="16bitArithmetic_8cpp.html" target="_top" xlink:title=" ">
<polygon fill="white" stroke="black" points="3459,-56.5 3459,-86.5 3596,-86.5 3596,-56.5 3459,-56.5"/>
<text text-anchor="start" x="3467" y="-74.5" font-family="Helvetica,sans-Serif" font-size="10.00">sources/APU/Instructions</text>
<text text-anchor="middle" x="3527.5" y="-63.5" font-family="Helvetica,sans-Serif" font-size="10.00">/16bitArithmetic.cpp</text>
</a>
</g>
</g>
<!-- Node4&#45;&gt;Node8 -->
<g id="edge7" class="edge">
<title>Node4&#45;&gt;Node8</title>
<path fill="none" stroke="midnightblue" d="M2446.84,-129.61C2670.9,-122.03 3351.52,-98.33 3450.5,-87 3453.2,-86.69 3455.95,-86.34 3458.73,-85.96"/>
<polygon fill="midnightblue" stroke="midnightblue" points="2446.71,-126.11 2436.84,-129.95 2446.95,-133.11 2446.71,-126.11"/>
</g>
<!-- Node9 -->
<g id="node9" class="node">
<title>Node9</title>
<g id="a_node9"><a xlink:href="16bitDataTransmission_8cpp.html" target="_top" xlink:title=" ">
<polygon fill="white" stroke="black" points="3614.5,-56.5 3614.5,-86.5 3766.5,-86.5 3766.5,-56.5 3614.5,-56.5"/>
<text text-anchor="start" x="3622.5" y="-74.5" font-family="Helvetica,sans-Serif" font-size="10.00">sources/APU/Instructions</text>
<text text-anchor="middle" x="3690.5" y="-63.5" font-family="Helvetica,sans-Serif" font-size="10.00">/16bitDataTransmission.cpp</text>
</a>
</g>
</g>
<!-- Node4&#45;&gt;Node9 -->
<g id="edge8" class="edge">
<title>Node4&#45;&gt;Node9</title>
<path fill="none" stroke="midnightblue" d="M2446.88,-129.94C2691.99,-122.79 3490.58,-98.85 3605.5,-87 3608.33,-86.71 3611.21,-86.38 3614.11,-86.02"/>
<polygon fill="midnightblue" stroke="midnightblue" points="2446.56,-126.45 2436.67,-130.24 2446.76,-133.45 2446.56,-126.45"/>
</g>
<!-- Node10 -->
<g id="node10" class="node">
<title>Node10</title>
<g id="a_node10"><a xlink:href="8bitArithmetic_8cpp.html" target="_top" xlink:title=" ">
<polygon fill="white" stroke="black" points="1008,-56.5 1008,-86.5 1145,-86.5 1145,-56.5 1008,-56.5"/>
<text text-anchor="start" x="1016" y="-74.5" font-family="Helvetica,sans-Serif" font-size="10.00">sources/APU/Instructions</text>
<text text-anchor="middle" x="1076.5" y="-63.5" font-family="Helvetica,sans-Serif" font-size="10.00">/8bitArithmetic.cpp</text>
</a>
</g>
</g>
<!-- Node4&#45;&gt;Node10 -->
<g id="edge9" class="edge">
<title>Node4&#45;&gt;Node10</title>
<path fill="none" stroke="midnightblue" d="M2304.22,-129.99C2060.39,-123.01 1268.43,-99.62 1154.5,-87 1151.49,-86.67 1148.42,-86.28 1145.32,-85.86"/>
<polygon fill="midnightblue" stroke="midnightblue" points="2304.29,-133.49 2314.38,-130.28 2304.49,-126.49 2304.29,-133.49"/>
</g>
<!-- Node11 -->
<g id="node11" class="node">
<title>Node11</title>
<g id="a_node11"><a xlink:href="8bitDataTransmission_8cpp.html" target="_top" xlink:title=" ">
<polygon fill="white" stroke="black" points="1163.5,-56.5 1163.5,-86.5 1309.5,-86.5 1309.5,-56.5 1163.5,-56.5"/>
<text text-anchor="start" x="1171.5" y="-74.5" font-family="Helvetica,sans-Serif" font-size="10.00">sources/APU/Instructions</text>
<text text-anchor="middle" x="1236.5" y="-63.5" font-family="Helvetica,sans-Serif" font-size="10.00">/8bitDataTransmission.cpp</text>
</a>
</g>
</g>
<!-- Node4&#45;&gt;Node11 -->
<g id="edge10" class="edge">
<title>Node4&#45;&gt;Node11</title>
<path fill="none" stroke="midnightblue" d="M2304.18,-130.2C2099.11,-124.82 1510.29,-107.95 1318.5,-87 1315.63,-86.69 1312.7,-86.33 1309.75,-85.95"/>
<polygon fill="midnightblue" stroke="midnightblue" points="2304.15,-133.7 2314.24,-130.46 2304.33,-126.7 2304.15,-133.7"/>
</g>
<!-- Node12 -->
<g id="node12" class="node">
<title>Node12</title>
<g id="a_node12"><a xlink:href="8bitIncrementDecrement_8cpp.html" target="_top" xlink:title=" ">
<polygon fill="white" stroke="black" points="1327.5,-56.5 1327.5,-86.5 1489.5,-86.5 1489.5,-56.5 1327.5,-56.5"/>
<text text-anchor="start" x="1335.5" y="-74.5" font-family="Helvetica,sans-Serif" font-size="10.00">sources/APU/Instructions</text>
<text text-anchor="middle" x="1408.5" y="-63.5" font-family="Helvetica,sans-Serif" font-size="10.00">/8bitIncrementDecrement.cpp</text>
</a>
</g>
</g>
<!-- Node4&#45;&gt;Node12 -->
<g id="edge11" class="edge">
<title>Node4&#45;&gt;Node12</title>
<path fill="none" stroke="midnightblue" d="M2304.03,-130.96C2154.26,-128.19 1796.65,-118.57 1498.5,-87 1495.67,-86.7 1492.79,-86.37 1489.88,-86.02"/>
<polygon fill="midnightblue" stroke="midnightblue" points="2304.39,-134.46 2314.45,-131.14 2304.52,-127.46 2304.39,-134.46"/>
</g>
<!-- Node13 -->
<g id="node13" class="node">
<title>Node13</title>
<g id="a_node13"><a xlink:href="8bitLogical_8cpp.html" target="_top" xlink:title=" ">
<polygon fill="white" stroke="black" points="1508,-56.5 1508,-86.5 1645,-86.5 1645,-56.5 1508,-56.5"/>
<text text-anchor="start" x="1516" y="-74.5" font-family="Helvetica,sans-Serif" font-size="10.00">sources/APU/Instructions</text>
<text text-anchor="middle" x="1576.5" y="-63.5" font-family="Helvetica,sans-Serif" font-size="10.00">/8bitLogical.cpp</text>
</a>
</g>
</g>
<!-- Node4&#45;&gt;Node13 -->
<g id="edge12" class="edge">
<title>Node4&#45;&gt;Node13</title>
<path fill="none" stroke="midnightblue" d="M2304.2,-130.48C2174.33,-127.07 1890.71,-116.61 1653.5,-87 1650.8,-86.66 1648.05,-86.29 1645.28,-85.89"/>
<polygon fill="midnightblue" stroke="midnightblue" points="2304.32,-133.99 2314.41,-130.74 2304.5,-126.99 2304.32,-133.99"/>
</g>
<!-- Node14 -->
<g id="node14" class="node">
<title>Node14</title>
<g id="a_node14"><a xlink:href="8bitShiftRotation_8cpp.html" target="_top" xlink:title=" ">
<polygon fill="white" stroke="black" points="1663,-56.5 1663,-86.5 1800,-86.5 1800,-56.5 1663,-56.5"/>
<text text-anchor="start" x="1671" y="-74.5" font-family="Helvetica,sans-Serif" font-size="10.00">sources/APU/Instructions</text>
<text text-anchor="middle" x="1731.5" y="-63.5" font-family="Helvetica,sans-Serif" font-size="10.00">/8bitShiftRotation.cpp</text>
</a>
</g>
</g>
<!-- Node4&#45;&gt;Node14 -->
<g id="edge13" class="edge">
<title>Node4&#45;&gt;Node14</title>
<path fill="none" stroke="midnightblue" d="M2304.35,-128.8C2196.67,-123.4 1986.05,-110.69 1808.5,-87 1805.8,-86.64 1803.06,-86.25 1800.29,-85.83"/>
<polygon fill="midnightblue" stroke="midnightblue" points="2304.28,-132.3 2314.44,-129.3 2304.63,-125.31 2304.28,-132.3"/>
</g>
<!-- Node15 -->
<g id="node15" class="node">
<title>Node15</title>
<g id="a_node15"><a xlink:href="Bit_8cpp.html" target="_top" xlink:title=" ">
<polygon fill="white" stroke="black" points="1818,-56.5 1818,-86.5 1955,-86.5 1955,-56.5 1818,-56.5"/>
<text text-anchor="start" x="1826" y="-74.5" font-family="Helvetica,sans-Serif" font-size="10.00">sources/APU/Instructions</text>
<text text-anchor="middle" x="1886.5" y="-63.5" font-family="Helvetica,sans-Serif" font-size="10.00">/Bit.cpp</text>
</a>
</g>
</g>
<!-- Node4&#45;&gt;Node15 -->
<g id="edge14" class="edge">
<title>Node4&#45;&gt;Node15</title>
<path fill="none" stroke="midnightblue" d="M2304.24,-125.9C2221.93,-118.47 2082.55,-104.68 1963.5,-87 1960.81,-86.6 1958.07,-86.17 1955.3,-85.73"/>
<polygon fill="midnightblue" stroke="midnightblue" points="2303.96,-129.39 2314.23,-126.8 2304.58,-122.42 2303.96,-129.39"/>
</g>
<!-- Node16 -->
<g id="node16" class="node">
<title>Node16</title>
<g id="a_node16"><a xlink:href="DecimalCompensation_8cpp.html" target="_top" xlink:title=" ">
<polygon fill="white" stroke="black" points="1973,-56.5 1973,-86.5 2124,-86.5 2124,-56.5 1973,-56.5"/>
<text text-anchor="start" x="1981" y="-74.5" font-family="Helvetica,sans-Serif" font-size="10.00">sources/APU/Instructions</text>
<text text-anchor="middle" x="2048.5" y="-63.5" font-family="Helvetica,sans-Serif" font-size="10.00">/DecimalCompensation.cpp</text>
</a>
</g>
</g>
<!-- Node4&#45;&gt;Node16 -->
<g id="edge15" class="edge">
<title>Node4&#45;&gt;Node16</title>
<path fill="none" stroke="midnightblue" d="M2318.59,-121.65C2264.76,-111.85 2183.61,-97.08 2124.31,-86.29"/>
<polygon fill="midnightblue" stroke="midnightblue" points="2318.18,-125.13 2328.65,-123.48 2319.44,-118.24 2318.18,-125.13"/>
</g>
<!-- Node17 -->
<g id="node17" class="node">
<title>Node17</title>
<g id="a_node17"><a xlink:href="MultiplicationDivision_8cpp.html" target="_top" xlink:title=" ">
<polygon fill="white" stroke="black" points="2142.5,-56.5 2142.5,-86.5 2288.5,-86.5 2288.5,-56.5 2142.5,-56.5"/>
<text text-anchor="start" x="2150.5" y="-74.5" font-family="Helvetica,sans-Serif" font-size="10.00">sources/APU/Instructions</text>
<text text-anchor="middle" x="2215.5" y="-63.5" font-family="Helvetica,sans-Serif" font-size="10.00">/MultiplicationDivision.cpp</text>
</a>
</g>
</g>
<!-- Node4&#45;&gt;Node17 -->
<g id="edge16" class="edge">
<title>Node4&#45;&gt;Node17</title>
<path fill="none" stroke="midnightblue" d="M2343.17,-119.98C2317.15,-110.3 2280.55,-96.69 2253.21,-86.52"/>
<polygon fill="midnightblue" stroke="midnightblue" points="2341.98,-123.27 2352.58,-123.48 2344.42,-116.71 2341.98,-123.27"/>
</g>
<!-- Node18 -->
<g id="node18" class="node">
<title>Node18</title>
<g id="a_node18"><a xlink:href="ProgramFlow_8cpp.html" target="_top" xlink:title=" ">
<polygon fill="white" stroke="black" points="2307,-56.5 2307,-86.5 2444,-86.5 2444,-56.5 2307,-56.5"/>
<text text-anchor="start" x="2315" y="-74.5" font-family="Helvetica,sans-Serif" font-size="10.00">sources/APU/Instructions</text>
<text text-anchor="middle" x="2375.5" y="-63.5" font-family="Helvetica,sans-Serif" font-size="10.00">/ProgramFlow.cpp</text>
</a>
</g>
</g>
<!-- Node4&#45;&gt;Node18 -->
<g id="edge17" class="edge">
<title>Node4&#45;&gt;Node18</title>
<path fill="none" stroke="midnightblue" d="M2375.5,-113.23C2375.5,-104.59 2375.5,-94.5 2375.5,-86.52"/>
<polygon fill="midnightblue" stroke="midnightblue" points="2372,-113.48 2375.5,-123.48 2379,-113.48 2372,-113.48"/>
</g>
<!-- Node19 -->
<g id="node19" class="node">
<title>Node19</title>
<g id="a_node19"><a xlink:href="ProgramStatusWord_8cpp.html" target="_top" xlink:title=" ">
<polygon fill="white" stroke="black" points="2462,-56.5 2462,-86.5 2599,-86.5 2599,-56.5 2462,-56.5"/>
<text text-anchor="start" x="2470" y="-74.5" font-family="Helvetica,sans-Serif" font-size="10.00">sources/APU/Instructions</text>
<text text-anchor="middle" x="2530.5" y="-63.5" font-family="Helvetica,sans-Serif" font-size="10.00">/ProgramStatusWord.cpp</text>
</a>
</g>
</g>
<!-- Node4&#45;&gt;Node19 -->
<g id="edge18" class="edge">
<title>Node4&#45;&gt;Node19</title>
<path fill="none" stroke="midnightblue" d="M2407.16,-119.85C2432.34,-110.18 2467.6,-96.65 2493.97,-86.52"/>
<polygon fill="midnightblue" stroke="midnightblue" points="2405.79,-116.62 2397.71,-123.48 2408.3,-123.16 2405.79,-116.62"/>
</g>
<!-- Node20 -->
<g id="node20" class="node">
<title>Node20</title>
<g id="a_node20"><a xlink:href="Stack_8cpp.html" target="_top" xlink:title=" ">
<polygon fill="white" stroke="black" points="2617,-56.5 2617,-86.5 2754,-86.5 2754,-56.5 2617,-56.5"/>
<text text-anchor="start" x="2625" y="-74.5" font-family="Helvetica,sans-Serif" font-size="10.00">sources/APU/Instructions</text>
<text text-anchor="middle" x="2685.5" y="-63.5" font-family="Helvetica,sans-Serif" font-size="10.00">/Stack.cpp</text>
</a>
</g>
</g>
<!-- Node4&#45;&gt;Node20 -->
<g id="edge19" class="edge">
<title>Node4&#45;&gt;Node20</title>
<path fill="none" stroke="midnightblue" d="M2429.95,-121.55C2481.98,-111.56 2560.59,-96.47 2616.88,-85.67"/>
<polygon fill="midnightblue" stroke="midnightblue" points="2429.08,-118.15 2419.92,-123.48 2430.4,-125.03 2429.08,-118.15"/>
</g>
<!-- Node21 -->
<g id="node21" class="node">
<title>Node21</title>
<g id="a_node21"><a xlink:href="Standbys_8cpp.html" target="_top" xlink:title=" ">
<polygon fill="white" stroke="black" points="2849,-56.5 2849,-86.5 2986,-86.5 2986,-56.5 2849,-56.5"/>
<text text-anchor="start" x="2857" y="-74.5" font-family="Helvetica,sans-Serif" font-size="10.00">sources/APU/Instructions</text>
<text text-anchor="middle" x="2917.5" y="-63.5" font-family="Helvetica,sans-Serif" font-size="10.00">/Standbys.cpp</text>
</a>
</g>
</g>
<!-- Node4&#45;&gt;Node21 -->
<g id="edge20" class="edge">
<title>Node4&#45;&gt;Node21</title>
<path fill="none" stroke="midnightblue" d="M2446.69,-126.69C2537.08,-119.57 2697.76,-105.62 2834.5,-87 2839.14,-86.37 2843.91,-85.67 2848.72,-84.93"/>
<polygon fill="midnightblue" stroke="midnightblue" points="2446.25,-123.21 2436.55,-127.48 2446.8,-130.19 2446.25,-123.21"/>
</g>
<!-- Node22 -->
<g id="node22" class="node">
<title>Node22</title>
<g id="a_node22"><a xlink:href="Subroutine_8cpp.html" target="_top" xlink:title=" ">
<polygon fill="white" stroke="black" points="3004,-56.5 3004,-86.5 3141,-86.5 3141,-56.5 3004,-56.5"/>
<text text-anchor="start" x="3012" y="-74.5" font-family="Helvetica,sans-Serif" font-size="10.00">sources/APU/Instructions</text>
<text text-anchor="middle" x="3072.5" y="-63.5" font-family="Helvetica,sans-Serif" font-size="10.00">/Subroutine.cpp</text>
</a>
</g>
</g>
<!-- Node4&#45;&gt;Node22 -->
<g id="edge21" class="edge">
<title>Node4&#45;&gt;Node22</title>
<path fill="none" stroke="midnightblue" d="M2447.04,-129.45C2562.72,-124.74 2797.86,-112.7 2995.5,-87 2998.2,-86.65 3000.94,-86.26 3003.71,-85.85"/>
<polygon fill="midnightblue" stroke="midnightblue" points="2446.74,-125.96 2436.89,-129.86 2447.03,-132.95 2446.74,-125.96"/>
</g>
<!-- Node23 -->
<g id="node23" class="node">
<title>Node23</title>
<g id="a_node23"><a xlink:href="Operand_8cpp.html" target="_top" xlink:title=" ">
<polygon fill="white" stroke="black" points="3159.5,-62 3159.5,-81 3301.5,-81 3301.5,-62 3159.5,-62"/>
<text text-anchor="middle" x="3230.5" y="-69" font-family="Helvetica,sans-Serif" font-size="10.00">sources/APU/Operand.cpp</text>
</a>
</g>
</g>
<!-- Node4&#45;&gt;Node23 -->
<g id="edge22" class="edge">
<title>Node4&#45;&gt;Node23</title>
<path fill="none" stroke="midnightblue" d="M2446.85,-130.75C2583.75,-127.7 2892.58,-117.75 3150.5,-87 3162.97,-85.51 3176.44,-83.31 3188.71,-81.06"/>
<polygon fill="midnightblue" stroke="midnightblue" points="2446.43,-127.26 2436.51,-130.97 2446.58,-134.25 2446.43,-127.26"/>
</g>
<!-- Node24 -->
<g id="node24" class="node">
<title>Node24</title>
<g id="a_node24"><a xlink:href="APUDebug_8hpp.html" target="_top" xlink:title=" ">
<polygon fill="white" stroke="red" points="744.5,-0.5 744.5,-19.5 924.5,-19.5 924.5,-0.5 744.5,-0.5"/>
<text text-anchor="middle" x="834.5" y="-7.5" font-family="Helvetica,sans-Serif" font-size="10.00">sources/Debugger/APUDebug.hpp</text>
</a>
</g>
</g>
<!-- Node4&#45;&gt;Node24 -->
<g id="edge23" class="edge">
<title>Node4&#45;&gt;Node24</title>
<path fill="none" stroke="midnightblue" d="M2304.26,-130.1C2025.02,-122.62 1018.72,-95.16 986.5,-87 979.3,-85.18 889.26,-39.14 851.25,-19.62"/>
<polygon fill="midnightblue" stroke="midnightblue" points="2304.19,-133.6 2314.28,-130.37 2304.38,-126.61 2304.19,-133.6"/>
</g>
<!-- Node26 -->
<g id="node25" class="node">
<title>Node26</title>
<g id="a_node25"><a xlink:href="SNES_8hpp.html" target="_top" xlink:title=" ">
<polygon fill="white" stroke="red" points="809.5,-62 809.5,-81 913.5,-81 913.5,-62 809.5,-62"/>
<text text-anchor="middle" x="861.5" y="-69" font-family="Helvetica,sans-Serif" font-size="10.00">sources/SNES.hpp</text>
</a>
</g>
</g>
<!-- Node4&#45;&gt;Node26 -->
<g id="edge24" class="edge">
<title>Node4&#45;&gt;Node26</title>
<path fill="none" stroke="midnightblue" d="M2304.23,-130.15C2022.21,-122.79 996.34,-95.56 927.5,-87 916.67,-85.65 905,-83.37 894.53,-81.01"/>
<polygon fill="midnightblue" stroke="midnightblue" points="2304.25,-133.65 2314.34,-130.42 2304.43,-126.66 2304.25,-133.65"/>
</g>
<!-- Node45 -->
<g id="node26" class="node">
<title>Node45</title>
<g id="a_node26"><a xlink:href="testAPU_8cpp.html" target="_top" xlink:title=" ">
<polygon fill="white" stroke="black" points="942.5,-0.5 942.5,-19.5 1068.5,-19.5 1068.5,-0.5 942.5,-0.5"/>
<text text-anchor="middle" x="1005.5" y="-7.5" font-family="Helvetica,sans-Serif" font-size="10.00">tests/APU/testAPU.cpp</text>
</a>
</g>
</g>
<!-- Node4&#45;&gt;Node45 -->
<g id="edge29" class="edge">
<title>Node4&#45;&gt;Node45</title>
<path fill="none" stroke="midnightblue" d="M2304.16,-130.33C2023.48,-123.68 1009.96,-98.84 998.5,-87 980.9,-68.81 993.46,-35.46 1000.97,-19.69"/>
<polygon fill="midnightblue" stroke="midnightblue" points="2304.15,-133.83 2314.23,-130.57 2304.31,-126.83 2304.15,-133.83"/>
</g>
<!-- Node46 -->
<g id="node27" class="node">
<title>Node46</title>
<g id="a_node27"><a xlink:href="testAPUInstructions_8cpp.html" target="_top" xlink:title=" ">
<polygon fill="white" stroke="black" points="1829,-0.5 1829,-19.5 2012,-19.5 2012,-0.5 1829,-0.5"/>
<text text-anchor="middle" x="1920.5" y="-7.5" font-family="Helvetica,sans-Serif" font-size="10.00">tests/APU/testAPUInstructions.cpp</text>
</a>
</g>
</g>
<!-- Node4&#45;&gt;Node46 -->
<g id="edge30" class="edge">
<title>Node4&#45;&gt;Node46</title>
<path fill="none" stroke="midnightblue" d="M2446.54,-128.79C2552.77,-123.26 2742.83,-110.21 2763.5,-87 2772.66,-76.71 2772.98,-66 2763.5,-56 2737.98,-29.08 2225.36,-16.59 2012.22,-12.55"/>
<polygon fill="midnightblue" stroke="midnightblue" points="2446.34,-125.3 2436.53,-129.3 2446.69,-132.29 2446.34,-125.3"/>
</g>
<!-- Node47 -->
<g id="node28" class="node">
<title>Node47</title>
<g id="a_node28"><a xlink:href="testOperand_8cpp.html" target="_top" xlink:title=" ">
<polygon fill="white" stroke="black" points="2401,-0.5 2401,-19.5 2548,-19.5 2548,-0.5 2401,-0.5"/>
<text text-anchor="middle" x="2474.5" y="-7.5" font-family="Helvetica,sans-Serif" font-size="10.00">tests/APU/testOperand.cpp</text>
</a>
</g>
</g>
<!-- Node4&#45;&gt;Node47 -->
<g id="edge31" class="edge">
<title>Node4&#45;&gt;Node47</title>
<path fill="none" stroke="midnightblue" d="M2446.9,-129.48C2560.91,-124.71 2773.61,-112.47 2796.5,-87 2805.71,-76.75 2805.54,-66.39 2796.5,-56 2764.96,-19.75 2632.96,-11.81 2548.07,-10.56"/>
<polygon fill="midnightblue" stroke="midnightblue" points="2446.71,-125.98 2436.86,-129.89 2446.99,-132.98 2446.71,-125.98"/>
</g>
<!-- Node26&#45;&gt;Node24 -->
<g id="edge25" class="edge">
<title>Node26&#45;&gt;Node24</title>
<path fill="none" stroke="midnightblue" d="M853.48,-52.83C848.49,-41.83 842.29,-28.16 838.36,-19.51"/>
<polygon fill="midnightblue" stroke="midnightblue" points="850.31,-54.32 857.63,-61.98 856.69,-51.42 850.31,-54.32"/>
</g>
<!-- Node26&#45;&gt;Node45 -->
<g id="edge26" class="edge">
<title>Node26&#45;&gt;Node45</title>
<path fill="none" stroke="midnightblue" d="M891.43,-58.13C919.41,-46.57 960.44,-29.62 984.91,-19.51"/>
<polygon fill="midnightblue" stroke="midnightblue" points="890.04,-54.92 882.13,-61.98 892.71,-61.39 890.04,-54.92"/>
</g>
<!-- Node26&#45;&gt;Node46 -->
<g id="edge27" class="edge">
<title>Node26&#45;&gt;Node46</title>
<path fill="none" stroke="midnightblue" d="M923.94,-63.14C947.3,-60.58 974.09,-57.89 998.5,-56 1302.09,-32.54 1662.91,-19.12 1828.79,-13.75"/>
<polygon fill="midnightblue" stroke="midnightblue" points="923.36,-59.68 913.81,-64.26 924.13,-66.64 923.36,-59.68"/>
</g>
<!-- Node26&#45;&gt;Node47 -->
<g id="edge28" class="edge">
<title>Node26&#45;&gt;Node47</title>
<path fill="none" stroke="midnightblue" d="M923.92,-62.9C947.28,-60.31 974.08,-57.66 998.5,-56 1275.7,-37.13 2141.6,-17.96 2400.6,-12.52"/>
<polygon fill="midnightblue" stroke="midnightblue" points="923.34,-59.44 913.79,-64.04 924.12,-66.4 923.34,-59.44"/>
</g>
<!-- Node68&#45;&gt;Node4 -->
<g id="edge41" class="edge">
<title>Node68&#45;&gt;Node4</title>
<path fill="none" stroke="midnightblue" d="M1974.29,-179.33C2068.81,-168.65 2227.43,-150.73 2314.21,-140.92"/>
<polygon fill="midnightblue" stroke="midnightblue" points="1973.76,-175.86 1964.22,-180.46 1974.55,-182.82 1973.76,-175.86"/>
</g>
<!-- Node69 -->
<g id="node35" class="node">
<title>Node69</title>
<g id="a_node35"><a xlink:href="IPL_8cpp.html" target="_top" xlink:title=" ">
<polygon fill="white" stroke="black" points="1831.5,-123.5 1831.5,-142.5 1963.5,-142.5 1963.5,-123.5 1831.5,-123.5"/>
<text text-anchor="middle" x="1897.5" y="-130.5" font-family="Helvetica,sans-Serif" font-size="10.00">sources/APU/IPL/IPL.cpp</text>
</a>
</g>
</g>
<!-- Node68&#45;&gt;Node69 -->
<g id="edge42" class="edge">
<title>Node68&#45;&gt;Node69</title>
<path fill="none" stroke="midnightblue" d="M1897.5,-168.8C1897.5,-159.91 1897.5,-149.78 1897.5,-142.75"/>
<polygon fill="midnightblue" stroke="midnightblue" points="1894,-169.08 1897.5,-179.08 1901,-169.08 1894,-169.08"/>
</g>
<!-- Node70&#45;&gt;Node26 -->
<g id="edge52" class="edge">
<title>Node70&#45;&gt;Node26</title>
<path fill="none" stroke="midnightblue" d="M717.11,-176.52C740.62,-169.13 769.45,-158.07 792.5,-143 819.45,-125.39 844.03,-95.62 855.19,-81.05"/>
<polygon fill="midnightblue" stroke="midnightblue" points="715.95,-173.21 707.4,-179.46 717.98,-179.91 715.95,-173.21"/>
</g>
<!-- Node71 -->
<g id="node37" class="node">
<title>Node71</title>
<g id="a_node37"><a xlink:href="Cartridge_8cpp.html" target="_top" xlink:title=" ">
<polygon fill="white" stroke="black" points="473.5,-123.5 473.5,-142.5 643.5,-142.5 643.5,-123.5 473.5,-123.5"/>
<text text-anchor="middle" x="558.5" y="-130.5" font-family="Helvetica,sans-Serif" font-size="10.00">sources/Cartridge/Cartridge.cpp</text>
</a>
</g>
</g>
<!-- Node70&#45;&gt;Node71 -->
<g id="edge44" class="edge">
<title>Node70&#45;&gt;Node71</title>
<path fill="none" stroke="midnightblue" d="M646.02,-175.1C624.53,-165.01 595.28,-151.27 576.64,-142.52"/>
<polygon fill="midnightblue" stroke="midnightblue" points="644.74,-178.36 655.28,-179.44 647.71,-172.02 644.74,-178.36"/>
</g>
<!-- Node70&#45;&gt;Node72 -->
<g id="edge45" class="edge">
<title>Node70&#45;&gt;Node72</title>
<path fill="none" stroke="midnightblue" d="M688.53,-171.43C697.12,-161.97 707.54,-150.48 714.56,-142.75"/>
<polygon fill="midnightblue" stroke="midnightblue" points="685.72,-169.33 681.59,-179.08 690.9,-174.03 685.72,-169.33"/>
</g>
<!-- Node81 -->
<g id="node44" class="node">
<title>Node81</title>
<g id="a_node44"><a xlink:href="HeaderViewer_8hpp.html" target="_top" xlink:title=" ">
<polygon fill="white" stroke="red" points="258,-123.5 258,-142.5 455,-142.5 455,-123.5 258,-123.5"/>
<text text-anchor="middle" x="356.5" y="-130.5" font-family="Helvetica,sans-Serif" font-size="10.00">sources/Debugger/HeaderViewer.hpp</text>
</a>
</g>
</g>
<!-- Node70&#45;&gt;Node81 -->
<g id="edge53" class="edge">
<title>Node70&#45;&gt;Node81</title>
<path fill="none" stroke="midnightblue" d="M613.2,-177.73C553.29,-167.52 462.51,-152.06 406.49,-142.52"/>
<polygon fill="midnightblue" stroke="midnightblue" points="612.82,-181.21 623.27,-179.44 614,-174.31 612.82,-181.21"/>
</g>
<!-- Node72&#45;&gt;Node26 -->
<g id="edge51" class="edge">
<title>Node72&#45;&gt;Node26</title>
<path fill="none" stroke="midnightblue" d="M751.75,-119.48C778.75,-107.92 818.1,-91.08 841.62,-81.01"/>
<polygon fill="midnightblue" stroke="midnightblue" points="750.23,-116.32 742.42,-123.48 752.99,-122.76 750.23,-116.32"/>
</g>
<!-- Node73 -->
<g id="node39" class="node">
<title>Node73</title>
<g id="a_node39"><a xlink:href="AddressingModes_8cpp.html" target="_top" xlink:title=" ">
<polygon fill="white" stroke="black" points="0,-62 0,-81 187,-81 187,-62 0,-62"/>
<text text-anchor="middle" x="93.5" y="-69" font-family="Helvetica,sans-Serif" font-size="10.00">sources/CPU/AddressingModes.cpp</text>
</a>
</g>
</g>
<!-- Node72&#45;&gt;Node73 -->
<g id="edge46" class="edge">
<title>Node72&#45;&gt;Node73</title>
<path fill="none" stroke="midnightblue" d="M651.33,-122.93C448.13,-102.23 394.75,-108.99 195.5,-87 180.39,-85.33 164.07,-83.17 149,-81.03"/>
<polygon fill="midnightblue" stroke="midnightblue" points="651.13,-126.43 661.44,-123.97 651.85,-119.46 651.13,-126.43"/>
</g>
<!-- Node74 -->
<g id="node40" class="node">
<title>Node74</title>
<g id="a_node40"><a xlink:href="CPU_8cpp.html" target="_top" xlink:title=" ">
<polygon fill="white" stroke="black" points="205,-62 205,-81 326,-81 326,-62 205,-62"/>
<text text-anchor="middle" x="265.5" y="-69" font-family="Helvetica,sans-Serif" font-size="10.00">sources/CPU/CPU.cpp</text>
</a>
</g>
</g>
<!-- Node72&#45;&gt;Node74 -->
<g id="edge47" class="edge">
<title>Node72&#45;&gt;Node74</title>
<path fill="none" stroke="midnightblue" d="M651.48,-122.9C509.61,-106.08 471.77,-109.14 334.5,-87 324.23,-85.34 313.17,-83.19 302.98,-81.05"/>
<polygon fill="midnightblue" stroke="midnightblue" points="651.08,-126.38 661.42,-124.09 651.91,-119.43 651.08,-126.38"/>
</g>
<!-- Node75 -->
<g id="node41" class="node">
<title>Node75</title>
<g id="a_node41"><a xlink:href="BitsInstructions_8cpp.html" target="_top" xlink:title=" ">
<polygon fill="white" stroke="black" points="344,-56.5 344,-86.5 481,-86.5 481,-56.5 344,-56.5"/>
<text text-anchor="start" x="352" y="-74.5" font-family="Helvetica,sans-Serif" font-size="10.00">sources/CPU/Instructions</text>
<text text-anchor="middle" x="412.5" y="-63.5" font-family="Helvetica,sans-Serif" font-size="10.00">/BitsInstructions.cpp</text>
</a>
</g>
</g>
<!-- Node72&#45;&gt;Node75 -->
<g id="edge48" class="edge">
<title>Node72&#45;&gt;Node75</title>
<path fill="none" stroke="midnightblue" d="M668.05,-121.55C616.02,-111.56 537.41,-96.47 481.12,-85.67"/>
<polygon fill="midnightblue" stroke="midnightblue" points="667.6,-125.03 678.08,-123.48 668.92,-118.15 667.6,-125.03"/>
</g>
<!-- Node76 -->
<g id="node42" class="node">
<title>Node76</title>
<g id="a_node42"><a xlink:href="InternalInstruction_8cpp.html" target="_top" xlink:title=" ">
<polygon fill="white" stroke="black" points="499,-56.5 499,-86.5 636,-86.5 636,-56.5 499,-56.5"/>
<text text-anchor="start" x="507" y="-74.5" font-family="Helvetica,sans-Serif" font-size="10.00">sources/CPU/Instructions</text>
<text text-anchor="middle" x="567.5" y="-63.5" font-family="Helvetica,sans-Serif" font-size="10.00">/InternalInstruction.cpp</text>
</a>
</g>
</g>
<!-- Node72&#45;&gt;Node76 -->
<g id="edge49" class="edge">
<title>Node72&#45;&gt;Node76</title>
<path fill="none" stroke="midnightblue" d="M690.84,-119.85C665.66,-110.18 630.4,-96.65 604.03,-86.52"/>
<polygon fill="midnightblue" stroke="midnightblue" points="689.7,-123.16 700.29,-123.48 692.21,-116.62 689.7,-123.16"/>
</g>
<!-- Node77 -->
<g id="node43" class="node">
<title>Node77</title>
<g id="a_node43"><a xlink:href="Interrupts_8cpp.html" target="_top" xlink:title=" ">
<polygon fill="white" stroke="black" points="654,-56.5 654,-86.5 791,-86.5 791,-56.5 654,-56.5"/>
<text text-anchor="start" x="662" y="-74.5" font-family="Helvetica,sans-Serif" font-size="10.00">sources/CPU/Instructions</text>
<text text-anchor="middle" x="722.5" y="-63.5" font-family="Helvetica,sans-Serif" font-size="10.00">/Interrupts.cpp</text>
</a>
</g>
</g>
<!-- Node72&#45;&gt;Node77 -->
<g id="edge50" class="edge">
<title>Node72&#45;&gt;Node77</title>
<path fill="none" stroke="midnightblue" d="M722.5,-113.23C722.5,-104.59 722.5,-94.5 722.5,-86.52"/>
<polygon fill="midnightblue" stroke="midnightblue" points="719,-113.48 722.5,-123.48 726,-113.48 719,-113.48"/>
</g>
<!-- Node82&#45;&gt;Node26 -->
<g id="edge57" class="edge">
<title>Node82&#45;&gt;Node26</title>
<path fill="none" stroke="midnightblue" d="M894.62,-170.75C889.8,-162.57 884.36,-152.52 880.5,-143 871.83,-121.62 865.89,-95.01 863.17,-81.41"/>
<polygon fill="midnightblue" stroke="midnightblue" points="891.66,-172.63 899.86,-179.35 897.64,-168.99 891.66,-172.63"/>
</g>
<!-- Node82&#45;&gt;Node72 -->
<g id="edge56" class="edge">
<title>Node82&#45;&gt;Node72</title>
<path fill="none" stroke="midnightblue" d="M866.76,-176.57C832.24,-166.38 782.49,-151.7 751.36,-142.52"/>
<polygon fill="midnightblue" stroke="midnightblue" points="865.92,-179.97 876.5,-179.44 867.9,-173.26 865.92,-179.97"/>
</g>
<!-- Node82&#45;&gt;Node85 -->
<g id="edge58" class="edge">
<title>Node82&#45;&gt;Node85</title>
<path fill="none" stroke="midnightblue" d="M919.23,-171.14C926.9,-161.74 936.13,-150.4 942.37,-142.75"/>
<polygon fill="midnightblue" stroke="midnightblue" points="916.37,-169.12 912.77,-179.08 921.8,-173.54 916.37,-169.12"/>
</g>
<!-- Node85&#45;&gt;Node26 -->
<g id="edge59" class="edge">
<title>Node85&#45;&gt;Node26</title>
<path fill="none" stroke="midnightblue" d="M928.22,-117.61C911.3,-106.17 888.19,-90.55 874.08,-81.01"/>
<polygon fill="midnightblue" stroke="midnightblue" points="926.65,-120.77 936.89,-123.48 930.57,-114.97 926.65,-120.77"/>
</g>
<!-- Node97&#45;&gt;Node2 -->
<g id="edge64" class="edge">
<title>Node97&#45;&gt;Node2</title>
<path fill="none" stroke="midnightblue" d="M1002.07,-297.71C1023.37,-286.19 1053.57,-269.86 1071.77,-260.01"/>
<polygon fill="midnightblue" stroke="midnightblue" points="1000.39,-294.64 993.26,-302.48 1003.72,-300.8 1000.39,-294.64"/>
</g>
<!-- Node98 -->
<g id="node50" class="node">
<title>Node98</title>
<g id="a_node50"><a xlink:href="ARectangleMemory_8hpp.html" target="_top" xlink:title=" ">
<polygon fill="white" stroke="red" points="744.5,-235.5 744.5,-265.5 900.5,-265.5 900.5,-235.5 744.5,-235.5"/>
<text text-anchor="start" x="752.5" y="-253.5" font-family="Helvetica,sans-Serif" font-size="10.00">sources/Memory/ARectangle</text>
<text text-anchor="middle" x="822.5" y="-242.5" font-family="Helvetica,sans-Serif" font-size="10.00">Memory.hpp</text>
</a>
</g>
</g>
<!-- Node97&#45;&gt;Node98 -->
<g id="edge65" class="edge">
<title>Node97&#45;&gt;Node98</title>
<path fill="none" stroke="midnightblue" d="M945.84,-298.85C920.66,-289.18 885.4,-275.65 859.03,-265.52"/>
<polygon fill="midnightblue" stroke="midnightblue" points="944.7,-302.16 955.29,-302.48 947.21,-295.62 944.7,-302.16"/>
</g>
<!-- Node98&#45;&gt;Node70 -->
<g id="edge66" class="edge">
<title>Node98&#45;&gt;Node70</title>
<path fill="none" stroke="midnightblue" d="M777.82,-231.66C750.49,-220.75 716.75,-207.27 695.18,-198.66"/>
<polygon fill="midnightblue" stroke="midnightblue" points="776.6,-234.94 787.19,-235.4 779.2,-228.44 776.6,-234.94"/>
</g>
</g>
</svg>
