<?xml version="1.0" encoding="UTF-8" standalone="no"?>
<!DOCTYPE svg PUBLIC "-//W3C//DTD SVG 1.1//EN"
 "http://www.w3.org/Graphics/SVG/1.1/DTD/svg11.dtd">
<!-- Generated by graphviz version 2.43.0 (0)
 -->
<!-- Title: sources/CPU/CPU.cpp Pages: 1 -->
<svg width="1370pt" height="364pt"
 viewBox="0.00 0.00 1370.00 364.00" xmlns="http://www.w3.org/2000/svg" xmlns:xlink="http://www.w3.org/1999/xlink">
<g id="graph0" class="graph" transform="scale(1 1) rotate(0) translate(4 360)">
<title>sources/CPU/CPU.cpp</title>
<polygon fill="white" stroke="transparent" points="-4,4 -4,-360 1366,-360 1366,4 -4,4"/>
<!-- Node1 -->
<g id="node1" class="node">
<title>Node1</title>
<g id="a_node1"><a xlink:title=" ">
<polygon fill="#bfbfbf" stroke="black" points="1072.5,-336.5 1072.5,-355.5 1193.5,-355.5 1193.5,-336.5 1072.5,-336.5"/>
<text text-anchor="middle" x="1133" y="-343.5" font-family="Helvetica,sans-Serif" font-size="10.00">sources/CPU/CPU.cpp</text>
</a>
</g>
</g>
<!-- Node2 -->
<g id="node2" class="node">
<title>Node2</title>
<g id="a_node2"><a xlink:href="CPU_8hpp.html" target="_top" xlink:title=" ">
<polygon fill="white" stroke="black" points="465,-280.5 465,-299.5 523,-299.5 523,-280.5 465,-280.5"/>
<text text-anchor="middle" x="494" y="-287.5" font-family="Helvetica,sans-Serif" font-size="10.00">CPU.hpp</text>
</a>
</g>
</g>
<!-- Node1&#45;&gt;Node2 -->
<g id="edge1" class="edge">
<title>Node1&#45;&gt;Node2</title>
<path fill="none" stroke="midnightblue" d="M1072.31,-339.87C942.52,-328.9 641.03,-303.42 533.21,-294.31"/>
<polygon fill="midnightblue" stroke="midnightblue" points="533.36,-290.81 523.1,-293.46 532.77,-297.79 533.36,-290.81"/>
</g>
<!-- Node18 -->
<g id="node18" class="node">
<title>Node18</title>
<g id="a_node18"><a xlink:title=" ">
<polygon fill="white" stroke="#bfbfbf" points="1238.5,-280.5 1238.5,-299.5 1283.5,-299.5 1283.5,-280.5 1238.5,-280.5"/>
<text text-anchor="middle" x="1261" y="-287.5" font-family="Helvetica,sans-Serif" font-size="10.00">utility</text>
</a>
</g>
</g>
<!-- Node1&#45;&gt;Node18 -->
<g id="edge40" class="edge">
<title>Node1&#45;&gt;Node18</title>
<path fill="none" stroke="midnightblue" d="M1153.28,-336.44C1174.35,-327.56 1207.52,-313.56 1231.49,-303.45"/>
<polygon fill="midnightblue" stroke="midnightblue" points="1232.96,-306.63 1240.81,-299.52 1230.24,-300.18 1232.96,-306.63"/>
</g>
<!-- Node19 -->
<g id="node19" class="node">
<title>Node19</title>
<g id="a_node19"><a xlink:title=" ">
<polygon fill="white" stroke="#bfbfbf" points="1302,-280.5 1302,-299.5 1362,-299.5 1362,-280.5 1302,-280.5"/>
<text text-anchor="middle" x="1332" y="-287.5" font-family="Helvetica,sans-Serif" font-size="10.00">iostream</text>
</a>
</g>
</g>
<!-- Node1&#45;&gt;Node19 -->
<g id="edge41" class="edge">
<title>Node1&#45;&gt;Node19</title>
<path fill="none" stroke="midnightblue" d="M1164.53,-336.44C1198.99,-327.09 1254.29,-312.09 1291.83,-301.9"/>
<polygon fill="midnightblue" stroke="midnightblue" points="1293.18,-305.16 1301.92,-299.16 1291.35,-298.4 1293.18,-305.16"/>
</g>
<!-- Node20 -->
<g id="node20" class="node">
<title>Node20</title>
<g id="a_node20"><a xlink:href="InvalidAddress_8hpp.html" target="_top" xlink:title=" ">
<polygon fill="white" stroke="black" points="1045.5,-280.5 1045.5,-299.5 1220.5,-299.5 1220.5,-280.5 1045.5,-280.5"/>
<text text-anchor="middle" x="1133" y="-287.5" font-family="Helvetica,sans-Serif" font-size="10.00">../Exceptions/InvalidAddress.hpp</text>
</a>
</g>
</g>
<!-- Node1&#45;&gt;Node20 -->
<g id="edge42" class="edge">
<title>Node1&#45;&gt;Node20</title>
<path fill="none" stroke="midnightblue" d="M1133,-336.08C1133,-329.01 1133,-318.86 1133,-309.99"/>
<polygon fill="midnightblue" stroke="midnightblue" points="1136.5,-309.75 1133,-299.75 1129.5,-309.75 1136.5,-309.75"/>
</g>
<!-- Node26 -->
<g id="node26" class="node">
<title>Node26</title>
<g id="a_node26"><a xlink:href="InvalidOpcode_8hpp.html" target="_top" xlink:title=" ">
<polygon fill="white" stroke="black" points="854.5,-280.5 854.5,-299.5 1027.5,-299.5 1027.5,-280.5 854.5,-280.5"/>
<text text-anchor="middle" x="941" y="-287.5" font-family="Helvetica,sans-Serif" font-size="10.00">../Exceptions/InvalidOpcode.hpp</text>
</a>
</g>
</g>
<!-- Node1&#45;&gt;Node26 -->
<g id="edge49" class="edge">
<title>Node1&#45;&gt;Node26</title>
<path fill="none" stroke="midnightblue" d="M1102.58,-336.44C1069.72,-327.2 1017.22,-312.44 981.03,-302.26"/>
<polygon fill="midnightblue" stroke="midnightblue" points="981.85,-298.85 971.28,-299.52 979.96,-305.59 981.85,-298.85"/>
</g>
<!-- Node3 -->
<g id="node3" class="node">
<title>Node3</title>
<g id="a_node3"><a xlink:href="AMemory_8hpp.html" target="_top" xlink:title=" ">
<polygon fill="white" stroke="black" points="171,-112.5 171,-131.5 307,-131.5 307,-112.5 171,-112.5"/>
<text text-anchor="middle" x="239" y="-119.5" font-family="Helvetica,sans-Serif" font-size="10.00">../Memory/AMemory.hpp</text>
</a>
</g>
</g>
<!-- Node2&#45;&gt;Node3 -->
<g id="edge2" class="edge">
<title>Node2&#45;&gt;Node3</title>
<path fill="none" stroke="midnightblue" d="M478.39,-280.5C462.32,-271.66 436.66,-257.29 415,-244 356.64,-208.2 290.91,-161.1 258.8,-137.62"/>
<polygon fill="midnightblue" stroke="midnightblue" points="260.8,-134.75 250.67,-131.65 256.66,-140.39 260.8,-134.75"/>
</g>
<!-- Node8 -->
<g id="node8" class="node">
<title>Node8</title>
<g id="a_node8"><a xlink:href="Int24_8hpp.html" target="_top" xlink:title=" ">
<polygon fill="white" stroke="black" points="478,-0.5 478,-19.5 588,-19.5 588,-0.5 478,-0.5"/>
<text text-anchor="middle" x="533" y="-7.5" font-family="Helvetica,sans-Serif" font-size="10.00">../Models/Int24.hpp</text>
</a>
</g>
</g>
<!-- Node2&#45;&gt;Node8 -->
<g id="edge21" class="edge">
<title>Node2&#45;&gt;Node8</title>
<path fill="none" stroke="midnightblue" d="M523.04,-288.33C585.5,-285.2 727,-268.24 727,-179 727,-179 727,-179 727,-121 727,-60.37 654.41,-32.75 598.03,-20.45"/>
<polygon fill="midnightblue" stroke="midnightblue" points="598.57,-16.99 588.07,-18.4 597.16,-23.84 598.57,-16.99"/>
</g>
<!-- Node11 -->
<g id="node11" class="node">
<title>Node11</title>
<g id="a_node11"><a xlink:href="MemoryBus_8hpp.html" target="_top" xlink:title=" ">
<polygon fill="white" stroke="black" points="67.5,-168.5 67.5,-187.5 216.5,-187.5 216.5,-168.5 67.5,-168.5"/>
<text text-anchor="middle" x="142" y="-175.5" font-family="Helvetica,sans-Serif" font-size="10.00">../Memory/MemoryBus.hpp</text>
</a>
</g>
</g>
<!-- Node2&#45;&gt;Node11 -->
<g id="edge16" class="edge">
<title>Node2&#45;&gt;Node11</title>
<path fill="none" stroke="midnightblue" d="M464.76,-287.9C415.88,-285.18 315.24,-275.86 237,-244 207.26,-231.89 177.42,-209.37 159.33,-194.28"/>
<polygon fill="midnightblue" stroke="midnightblue" points="161.32,-191.38 151.44,-187.55 156.77,-196.7 161.32,-191.38"/>
</g>
<!-- Node12 -->
<g id="node12" class="node">
<title>Node12</title>
<g id="a_node12"><a xlink:href="Cartridge_8hpp.html" target="_top" xlink:title=" ">
<polygon fill="white" stroke="black" points="424,-224.5 424,-243.5 564,-243.5 564,-224.5 424,-224.5"/>
<text text-anchor="middle" x="494" y="-231.5" font-family="Helvetica,sans-Serif" font-size="10.00">../Cartridge/Cartridge.hpp</text>
</a>
</g>
</g>
<!-- Node2&#45;&gt;Node12 -->
<g id="edge22" class="edge">
<title>Node2&#45;&gt;Node12</title>
<path fill="none" stroke="midnightblue" d="M494,-280.08C494,-273.01 494,-262.86 494,-253.99"/>
<polygon fill="midnightblue" stroke="midnightblue" points="497.5,-253.75 494,-243.75 490.5,-253.75 497.5,-253.75"/>
</g>
<!-- Node16 -->
<g id="node16" class="node">
<title>Node16</title>
<g id="a_node16"><a xlink:href="Instruction_8hpp.html" target="_top" xlink:title=" ">
<polygon fill="white" stroke="black" points="755.5,-56.5 755.5,-75.5 844.5,-75.5 844.5,-56.5 755.5,-56.5"/>
<text text-anchor="middle" x="800" y="-63.5" font-family="Helvetica,sans-Serif" font-size="10.00">Instruction.hpp</text>
</a>
</g>
</g>
<!-- Node2&#45;&gt;Node16 -->
<g id="edge32" class="edge">
<title>Node2&#45;&gt;Node16</title>
<path fill="none" stroke="midnightblue" d="M523.03,-287.36C581.09,-283.5 708.73,-271.99 741,-244 788.47,-202.82 797.87,-122.4 799.65,-85.87"/>
<polygon fill="midnightblue" stroke="midnightblue" points="803.15,-85.77 799.99,-75.65 796.16,-85.53 803.15,-85.77"/>
</g>
<!-- Node17 -->
<g id="node17" class="node">
<title>Node17</title>
<g id="a_node17"><a xlink:href="DMA_8hpp.html" target="_top" xlink:title=" ">
<polygon fill="white" stroke="black" points="97.5,-224.5 97.5,-243.5 184.5,-243.5 184.5,-224.5 97.5,-224.5"/>
<text text-anchor="middle" x="141" y="-231.5" font-family="Helvetica,sans-Serif" font-size="10.00">DMA/DMA.hpp</text>
</a>
</g>
</g>
<!-- Node2&#45;&gt;Node17 -->
<g id="edge35" class="edge">
<title>Node2&#45;&gt;Node17</title>
<path fill="none" stroke="midnightblue" d="M464.69,-284.55C411.66,-276.51 296.29,-258.97 199,-244 197.55,-243.78 196.08,-243.55 194.6,-243.32"/>
<polygon fill="midnightblue" stroke="midnightblue" points="195.12,-239.86 184.7,-241.79 194.05,-246.78 195.12,-239.86"/>
</g>
<!-- Node4 -->
<g id="node4" class="node">
<title>Node4</title>
<g id="a_node4"><a xlink:title=" ">
<polygon fill="white" stroke="#bfbfbf" points="99,-0.5 99,-19.5 149,-19.5 149,-0.5 99,-0.5"/>
<text text-anchor="middle" x="124" y="-7.5" font-family="Helvetica,sans-Serif" font-size="10.00">cstdint</text>
</a>
</g>
</g>
<!-- Node3&#45;&gt;Node4 -->
<g id="edge3" class="edge">
<title>Node3&#45;&gt;Node4</title>
<path fill="none" stroke="midnightblue" d="M229.98,-112.37C210.66,-93.89 165.08,-50.29 140.46,-26.74"/>
<polygon fill="midnightblue" stroke="midnightblue" points="142.63,-23.97 132.98,-19.59 137.79,-29.03 142.63,-23.97"/>
</g>
<!-- Node5 -->
<g id="node5" class="node">
<title>Node5</title>
<g id="a_node5"><a xlink:title=" ">
<polygon fill="white" stroke="#bfbfbf" points="195.5,-0.5 195.5,-19.5 242.5,-19.5 242.5,-0.5 195.5,-0.5"/>
<text text-anchor="middle" x="219" y="-7.5" font-family="Helvetica,sans-Serif" font-size="10.00">vector</text>
</a>
</g>
</g>
<!-- Node3&#45;&gt;Node5 -->
<g id="edge4" class="edge">
<title>Node3&#45;&gt;Node5</title>
<path fill="none" stroke="midnightblue" d="M237.43,-112.37C234.2,-94.62 226.76,-53.67 222.38,-29.6"/>
<polygon fill="midnightblue" stroke="midnightblue" points="225.79,-28.8 220.56,-19.59 218.91,-30.06 225.79,-28.8"/>
</g>
<!-- Node6 -->
<g id="node6" class="node">
<title>Node6</title>
<g id="a_node6"><a xlink:title=" ">
<polygon fill="white" stroke="#bfbfbf" points="0,-0.5 0,-19.5 58,-19.5 58,-0.5 0,-0.5"/>
<text text-anchor="middle" x="29" y="-7.5" font-family="Helvetica,sans-Serif" font-size="10.00">memory</text>
</a>
</g>
</g>
<!-- Node3&#45;&gt;Node6 -->
<g id="edge5" class="edge">
<title>Node3&#45;&gt;Node6</title>
<path fill="none" stroke="midnightblue" d="M222.52,-112.37C186.03,-93.25 98.16,-47.23 54.51,-24.36"/>
<polygon fill="midnightblue" stroke="midnightblue" points="55.88,-21.13 45.4,-19.59 52.64,-27.33 55.88,-21.13"/>
</g>
<!-- Node7 -->
<g id="node7" class="node">
<title>Node7</title>
<g id="a_node7"><a xlink:title=" ">
<polygon fill="white" stroke="#bfbfbf" points="667,-0.5 667,-19.5 711,-19.5 711,-0.5 667,-0.5"/>
<text text-anchor="middle" x="689" y="-7.5" font-family="Helvetica,sans-Serif" font-size="10.00">string</text>
</a>
</g>
</g>
<!-- Node3&#45;&gt;Node7 -->
<g id="edge6" class="edge">
<title>Node3&#45;&gt;Node7</title>
<path fill="none" stroke="midnightblue" d="M273.94,-112.46C358.89,-91.69 575.31,-38.79 657.07,-18.81"/>
<polygon fill="midnightblue" stroke="midnightblue" points="657.91,-22.2 666.8,-16.43 656.25,-15.4 657.91,-22.2"/>
</g>
<!-- Node3&#45;&gt;Node8 -->
<g id="edge7" class="edge">
<title>Node3&#45;&gt;Node8</title>
<path fill="none" stroke="midnightblue" d="M262.07,-112.37C314.02,-92.93 440.32,-45.67 500.32,-23.23"/>
<polygon fill="midnightblue" stroke="midnightblue" points="501.9,-26.37 510.04,-19.59 499.45,-19.82 501.9,-26.37"/>
</g>
<!-- Node9 -->
<g id="node9" class="node">
<title>Node9</title>
<g id="a_node9"><a xlink:href="Components_8hpp.html" target="_top" xlink:title=" ">
<polygon fill="white" stroke="black" points="272,-0.5 272,-19.5 418,-19.5 418,-0.5 272,-0.5"/>
<text text-anchor="middle" x="345" y="-7.5" font-family="Helvetica,sans-Serif" font-size="10.00">../Models/Components.hpp</text>
</a>
</g>
</g>
<!-- Node3&#45;&gt;Node9 -->
<g id="edge8" class="edge">
<title>Node3&#45;&gt;Node9</title>
<path fill="none" stroke="midnightblue" d="M278.36,-112.36C298.75,-105.82 322.2,-94.65 336,-76 345.84,-62.7 347.41,-43.58 346.93,-29.52"/>
<polygon fill="midnightblue" stroke="midnightblue" points="350.42,-29.26 346.22,-19.53 343.44,-29.76 350.42,-29.26"/>
</g>
<!-- Node10 -->
<g id="node10" class="node">
<title>Node10</title>
<g id="a_node10"><a xlink:href="IMemory_8hpp.html" target="_top" xlink:title=" ">
<polygon fill="white" stroke="black" points="247,-56.5 247,-75.5 327,-75.5 327,-56.5 247,-56.5"/>
<text text-anchor="middle" x="287" y="-63.5" font-family="Helvetica,sans-Serif" font-size="10.00">IMemory.hpp</text>
</a>
</g>
</g>
<!-- Node3&#45;&gt;Node10 -->
<g id="edge9" class="edge">
<title>Node3&#45;&gt;Node10</title>
<path fill="none" stroke="midnightblue" d="M246.93,-112.08C253.85,-104.3 264.07,-92.8 272.45,-83.37"/>
<polygon fill="midnightblue" stroke="midnightblue" points="275.19,-85.55 279.22,-75.75 269.96,-80.9 275.19,-85.55"/>
</g>
<!-- Node10&#45;&gt;Node4 -->
<g id="edge10" class="edge">
<title>Node10&#45;&gt;Node4</title>
<path fill="none" stroke="midnightblue" d="M261.17,-56.44C233.59,-47.31 189.71,-32.77 159.03,-22.6"/>
<polygon fill="midnightblue" stroke="midnightblue" points="159.76,-19.16 149.17,-19.34 157.56,-25.81 159.76,-19.16"/>
</g>
<!-- Node10&#45;&gt;Node5 -->
<g id="edge11" class="edge">
<title>Node10&#45;&gt;Node5</title>
<path fill="none" stroke="midnightblue" d="M276.07,-56.32C265.83,-48.18 250.28,-35.84 238,-26.09"/>
<polygon fill="midnightblue" stroke="midnightblue" points="240.13,-23.31 230.12,-19.83 235.78,-28.79 240.13,-23.31"/>
</g>
<!-- Node10&#45;&gt;Node6 -->
<g id="edge12" class="edge">
<title>Node10&#45;&gt;Node6</title>
<path fill="none" stroke="midnightblue" d="M246.97,-56.62C198.31,-46.44 116.73,-29.36 68.37,-19.24"/>
<polygon fill="midnightblue" stroke="midnightblue" points="68.79,-15.75 58.29,-17.13 67.36,-22.6 68.79,-15.75"/>
</g>
<!-- Node10&#45;&gt;Node7 -->
<g id="edge13" class="edge">
<title>Node10&#45;&gt;Node7</title>
<path fill="none" stroke="midnightblue" d="M327.01,-59.62C406.7,-48.92 583.82,-25.13 656.71,-15.34"/>
<polygon fill="midnightblue" stroke="midnightblue" points="657.24,-18.8 666.68,-14 656.31,-11.86 657.24,-18.8"/>
</g>
<!-- Node10&#45;&gt;Node8 -->
<g id="edge14" class="edge">
<title>Node10&#45;&gt;Node8</title>
<path fill="none" stroke="midnightblue" d="M325.98,-56.44C368.89,-47.02 437.95,-31.87 484.37,-21.68"/>
<polygon fill="midnightblue" stroke="midnightblue" points="485.19,-25.08 494.2,-19.52 483.69,-18.24 485.19,-25.08"/>
</g>
<!-- Node10&#45;&gt;Node9 -->
<g id="edge15" class="edge">
<title>Node10&#45;&gt;Node9</title>
<path fill="none" stroke="midnightblue" d="M296.32,-56.32C304.89,-48.34 317.81,-36.31 328.19,-26.65"/>
<polygon fill="midnightblue" stroke="midnightblue" points="330.58,-29.21 335.51,-19.83 325.81,-24.09 330.58,-29.21"/>
</g>
<!-- Node11&#45;&gt;Node3 -->
<g id="edge20" class="edge">
<title>Node11&#45;&gt;Node3</title>
<path fill="none" stroke="midnightblue" d="M157.58,-168.32C173,-159.74 196.81,-146.49 214.71,-136.52"/>
<polygon fill="midnightblue" stroke="midnightblue" points="216.42,-139.58 223.45,-131.65 213.01,-133.46 216.42,-139.58"/>
</g>
<!-- Node11&#45;&gt;Node4 -->
<g id="edge17" class="edge">
<title>Node11&#45;&gt;Node4</title>
<path fill="none" stroke="midnightblue" d="M138.77,-168.18C135.65,-159.21 131.09,-144.84 129,-132 123.17,-96.15 122.93,-53.59 123.39,-29.7"/>
<polygon fill="midnightblue" stroke="midnightblue" points="126.89,-29.67 123.65,-19.58 119.9,-29.49 126.89,-29.67"/>
</g>
<!-- Node11&#45;&gt;Node5 -->
<g id="edge18" class="edge">
<title>Node11&#45;&gt;Node5</title>
<path fill="none" stroke="midnightblue" d="M144.02,-168.38C147.13,-155.73 153.6,-131.52 162,-112 175.26,-81.16 195.43,-47.65 207.88,-28.03"/>
<polygon fill="midnightblue" stroke="midnightblue" points="210.84,-29.89 213.3,-19.59 204.95,-26.11 210.84,-29.89"/>
</g>
<!-- Node11&#45;&gt;Node6 -->
<g id="edge19" class="edge">
<title>Node11&#45;&gt;Node6</title>
<path fill="none" stroke="midnightblue" d="M135.92,-168.08C117.91,-141.61 64.54,-63.21 40.72,-28.21"/>
<polygon fill="midnightblue" stroke="midnightblue" points="43.35,-25.87 34.83,-19.57 37.57,-29.8 43.35,-25.87"/>
</g>
<!-- Node12&#45;&gt;Node3 -->
<g id="edge24" class="edge">
<title>Node12&#45;&gt;Node3</title>
<path fill="none" stroke="midnightblue" d="M469.82,-224.41C445.81,-215.74 408.06,-201.69 376,-188 336.97,-171.33 292.77,-149.88 265.39,-136.28"/>
<polygon fill="midnightblue" stroke="midnightblue" points="266.61,-132.98 256.1,-131.65 263.49,-139.24 266.61,-132.98"/>
</g>
<!-- Node12&#45;&gt;Node7 -->
<g id="edge23" class="edge">
<title>Node12&#45;&gt;Node7</title>
<path fill="none" stroke="midnightblue" d="M557.51,-224.48C601.68,-217.17 655.19,-205.11 670,-188 709.07,-142.89 700.01,-65.12 693.2,-29.63"/>
<polygon fill="midnightblue" stroke="midnightblue" points="696.59,-28.77 691.13,-19.69 689.74,-30.2 696.59,-28.77"/>
</g>
<!-- Node12&#45;&gt;Node8 -->
<g id="edge25" class="edge">
<title>Node12&#45;&gt;Node8</title>
<path fill="none" stroke="midnightblue" d="M501.8,-224.37C516.1,-207.89 546.08,-170.15 557,-132 567.32,-95.95 552.3,-52.61 541.77,-28.82"/>
<polygon fill="midnightblue" stroke="midnightblue" points="544.88,-27.21 537.49,-19.62 538.54,-30.17 544.88,-27.21"/>
</g>
<!-- Node13 -->
<g id="node13" class="node">
<title>Node13</title>
<g id="a_node13"><a xlink:href="ARectangleMemory_8hpp.html" target="_top" xlink:title=" ">
<polygon fill="white" stroke="black" points="362.5,-112.5 362.5,-131.5 547.5,-131.5 547.5,-112.5 362.5,-112.5"/>
<text text-anchor="middle" x="455" y="-119.5" font-family="Helvetica,sans-Serif" font-size="10.00">../Memory/ARectangleMemory.hpp</text>
</a>
</g>
</g>
<!-- Node12&#45;&gt;Node13 -->
<g id="edge26" class="edge">
<title>Node12&#45;&gt;Node13</title>
<path fill="none" stroke="midnightblue" d="M440.68,-224.43C419.34,-218.1 396.82,-207.1 384,-188 369.79,-166.84 397.71,-147.82 422.61,-135.9"/>
<polygon fill="midnightblue" stroke="midnightblue" points="424.24,-139.01 431.91,-131.69 421.36,-132.63 424.24,-139.01"/>
</g>
<!-- Node14 -->
<g id="node14" class="node">
<title>Node14</title>
<g id="a_node14"><a xlink:href="InterruptVectors_8hpp.html" target="_top" xlink:title=" ">
<polygon fill="white" stroke="black" points="393,-168.5 393,-187.5 509,-187.5 509,-168.5 393,-168.5"/>
<text text-anchor="middle" x="451" y="-175.5" font-family="Helvetica,sans-Serif" font-size="10.00">InterruptVectors.hpp</text>
</a>
</g>
</g>
<!-- Node12&#45;&gt;Node14 -->
<g id="edge28" class="edge">
<title>Node12&#45;&gt;Node14</title>
<path fill="none" stroke="midnightblue" d="M486.9,-224.08C480.76,-216.38 471.73,-205.03 464.26,-195.65"/>
<polygon fill="midnightblue" stroke="midnightblue" points="466.94,-193.39 457.97,-187.75 461.46,-197.75 466.94,-193.39"/>
</g>
<!-- Node15 -->
<g id="node15" class="node">
<title>Node15</title>
<g id="a_node15"><a xlink:href="Ram_8hpp.html" target="_top" xlink:title=" ">
<polygon fill="white" stroke="black" points="565.5,-168.5 565.5,-187.5 660.5,-187.5 660.5,-168.5 565.5,-168.5"/>
<text text-anchor="middle" x="613" y="-175.5" font-family="Helvetica,sans-Serif" font-size="10.00">../Ram/Ram.hpp</text>
</a>
</g>
</g>
<!-- Node12&#45;&gt;Node15 -->
<g id="edge29" class="edge">
<title>Node12&#45;&gt;Node15</title>
<path fill="none" stroke="midnightblue" d="M512.86,-224.44C532.27,-215.64 562.73,-201.81 584.96,-191.72"/>
<polygon fill="midnightblue" stroke="midnightblue" points="586.57,-194.84 594.23,-187.52 583.68,-188.46 586.57,-194.84"/>
</g>
<!-- Node13&#45;&gt;Node10 -->
<g id="edge27" class="edge">
<title>Node13&#45;&gt;Node10</title>
<path fill="none" stroke="midnightblue" d="M428.38,-112.44C399.99,-103.32 354.86,-88.81 323.25,-78.65"/>
<polygon fill="midnightblue" stroke="midnightblue" points="324.09,-75.24 313.5,-75.52 321.94,-81.91 324.09,-75.24"/>
</g>
<!-- Node15&#45;&gt;Node7 -->
<g id="edge31" class="edge">
<title>Node15&#45;&gt;Node7</title>
<path fill="none" stroke="midnightblue" d="M617.09,-168.08C629.15,-141.72 664.79,-63.88 680.91,-28.66"/>
<polygon fill="midnightblue" stroke="midnightblue" points="684.1,-30.12 685.08,-19.57 677.73,-27.2 684.1,-30.12"/>
</g>
<!-- Node15&#45;&gt;Node13 -->
<g id="edge30" class="edge">
<title>Node15&#45;&gt;Node13</title>
<path fill="none" stroke="midnightblue" d="M587.96,-168.44C561.38,-159.36 519.19,-144.94 489.48,-134.78"/>
<polygon fill="midnightblue" stroke="midnightblue" points="490.51,-131.44 479.92,-131.52 488.25,-138.06 490.51,-131.44"/>
</g>
<!-- Node16&#45;&gt;Node7 -->
<g id="edge33" class="edge">
<title>Node16&#45;&gt;Node7</title>
<path fill="none" stroke="midnightblue" d="M782.17,-56.32C764.28,-47.62 736.52,-34.12 715.95,-24.11"/>
<polygon fill="midnightblue" stroke="midnightblue" points="717.31,-20.88 706.79,-19.65 714.25,-27.18 717.31,-20.88"/>
</g>
<!-- Node16&#45;&gt;Node8 -->
<g id="edge34" class="edge">
<title>Node16&#45;&gt;Node8</title>
<path fill="none" stroke="midnightblue" d="M757.69,-56.44C710.92,-46.98 635.54,-31.74 585.15,-21.55"/>
<polygon fill="midnightblue" stroke="midnightblue" points="585.6,-18.07 575.11,-19.52 584.22,-24.93 585.6,-18.07"/>
</g>
<!-- Node17&#45;&gt;Node4 -->
<g id="edge36" class="edge">
<title>Node17&#45;&gt;Node4</title>
<path fill="none" stroke="midnightblue" d="M109.19,-224.38C91.05,-217.66 69.84,-206.31 59,-188 26.55,-133.18 81,-59.42 108.98,-27.2"/>
<polygon fill="midnightblue" stroke="midnightblue" points="111.72,-29.39 115.77,-19.6 106.5,-24.72 111.72,-29.39"/>
</g>
<!-- Node17&#45;&gt;Node6 -->
<g id="edge37" class="edge">
<title>Node17&#45;&gt;Node6</title>
<path fill="none" stroke="midnightblue" d="M103.95,-224.42C84.11,-217.85 61.12,-206.62 48,-188 13.95,-139.64 20.19,-64.68 25.51,-29.9"/>
<polygon fill="midnightblue" stroke="midnightblue" points="29.01,-30.19 27.22,-19.75 22.11,-29.03 29.01,-30.19"/>
</g>
<!-- Node17&#45;&gt;Node8 -->
<g id="edge38" class="edge">
<title>Node17&#45;&gt;Node8</title>
<path fill="none" stroke="midnightblue" d="M157.53,-224.4C174.54,-215.49 201.78,-201.05 225,-188 283.01,-155.39 296.35,-145.24 354,-112 409.1,-80.23 474.25,-43.74 508.74,-24.5"/>
<polygon fill="midnightblue" stroke="midnightblue" points="510.59,-27.48 517.62,-19.55 507.18,-21.36 510.59,-27.48"/>
</g>
<!-- Node17&#45;&gt;Node11 -->
<g id="edge39" class="edge">
<title>Node17&#45;&gt;Node11</title>
<path fill="none" stroke="midnightblue" d="M141.17,-224.08C141.3,-217.01 141.48,-206.86 141.65,-197.99"/>
<polygon fill="midnightblue" stroke="midnightblue" points="145.15,-197.81 141.84,-187.75 138.15,-197.68 145.15,-197.81"/>
</g>
<!-- Node20&#45;&gt;Node7 -->
<g id="edge44" class="edge">
<title>Node20&#45;&gt;Node7</title>
<path fill="none" stroke="midnightblue" d="M1147.46,-280.44C1159.7,-272.47 1176.83,-259.51 1187,-244 1203.5,-218.83 1206,-209.1 1206,-179 1206,-179 1206,-179 1206,-121 1206,-21.43 834.52,-11.63 721.34,-10.95"/>
<polygon fill="midnightblue" stroke="midnightblue" points="721.23,-7.45 711.21,-10.91 721.2,-14.45 721.23,-7.45"/>
</g>
<!-- Node21 -->
<g id="node21" class="node">
<title>Node21</title>
<g id="a_node21"><a xlink:title=" ">
<polygon fill="white" stroke="#bfbfbf" points="1112.5,-224.5 1112.5,-243.5 1177.5,-243.5 1177.5,-224.5 1112.5,-224.5"/>
<text text-anchor="middle" x="1145" y="-231.5" font-family="Helvetica,sans-Serif" font-size="10.00">exception</text>
</a>
</g>
</g>
<!-- Node20&#45;&gt;Node21 -->
<g id="edge43" class="edge">
<title>Node20&#45;&gt;Node21</title>
<path fill="none" stroke="midnightblue" d="M1134.98,-280.08C1136.57,-272.93 1138.86,-262.64 1140.85,-253.69"/>
<polygon fill="midnightblue" stroke="midnightblue" points="1144.3,-254.27 1143.06,-243.75 1137.47,-252.75 1144.3,-254.27"/>
</g>
<!-- Node22 -->
<g id="node22" class="node">
<title>Node22</title>
<g id="a_node22"><a xlink:title=" ">
<polygon fill="white" stroke="#bfbfbf" points="1234.5,-224.5 1234.5,-243.5 1265.5,-243.5 1265.5,-224.5 1234.5,-224.5"/>
<text text-anchor="middle" x="1250" y="-231.5" font-family="Helvetica,sans-Serif" font-size="10.00">ios</text>
</a>
</g>
</g>
<!-- Node20&#45;&gt;Node22 -->
<g id="edge45" class="edge">
<title>Node20&#45;&gt;Node22</title>
<path fill="none" stroke="midnightblue" d="M1151.54,-280.44C1171.41,-271.27 1203.06,-256.66 1225.09,-246.5"/>
<polygon fill="midnightblue" stroke="midnightblue" points="1226.56,-249.67 1234.17,-242.3 1223.63,-243.32 1226.56,-249.67"/>
</g>
<!-- Node23 -->
<g id="node23" class="node">
<title>Node23</title>
<g id="a_node23"><a xlink:title=" ">
<polygon fill="white" stroke="#bfbfbf" points="901,-224.5 901,-243.5 957,-243.5 957,-224.5 901,-224.5"/>
<text text-anchor="middle" x="929" y="-231.5" font-family="Helvetica,sans-Serif" font-size="10.00">sstream</text>
</a>
</g>
</g>
<!-- Node20&#45;&gt;Node23 -->
<g id="edge46" class="edge">
<title>Node20&#45;&gt;Node23</title>
<path fill="none" stroke="midnightblue" d="M1100.68,-280.44C1064.37,-270.83 1005.51,-255.25 967.03,-245.07"/>
<polygon fill="midnightblue" stroke="midnightblue" points="967.79,-241.65 957.23,-242.47 966,-248.42 967.79,-241.65"/>
</g>
<!-- Node24 -->
<g id="node24" class="node">
<title>Node24</title>
<g id="a_node24"><a xlink:href="DebuggableError_8hpp.html" target="_top" xlink:title=" ">
<polygon fill="white" stroke="black" points="975.5,-224.5 975.5,-243.5 1094.5,-243.5 1094.5,-224.5 975.5,-224.5"/>
<text text-anchor="middle" x="1035" y="-231.5" font-family="Helvetica,sans-Serif" font-size="10.00">DebuggableError.hpp</text>
</a>
</g>
</g>
<!-- Node20&#45;&gt;Node24 -->
<g id="edge47" class="edge">
<title>Node20&#45;&gt;Node24</title>
<path fill="none" stroke="midnightblue" d="M1117.25,-280.32C1101.68,-271.74 1077.62,-258.49 1059.54,-248.52"/>
<polygon fill="midnightblue" stroke="midnightblue" points="1061.15,-245.42 1050.71,-243.65 1057.78,-251.55 1061.15,-245.42"/>
</g>
<!-- Node25 -->
<g id="node25" class="node">
<title>Node25</title>
<g id="a_node25"><a xlink:title=" ">
<polygon fill="white" stroke="#bfbfbf" points="987.5,-168.5 987.5,-187.5 1082.5,-187.5 1082.5,-168.5 987.5,-168.5"/>
<text text-anchor="middle" x="1035" y="-175.5" font-family="Helvetica,sans-Serif" font-size="10.00">bits/exception.h</text>
</a>
</g>
</g>
<!-- Node24&#45;&gt;Node25 -->
<g id="edge48" class="edge">
<title>Node24&#45;&gt;Node25</title>
<path fill="none" stroke="midnightblue" d="M1035,-224.08C1035,-217.01 1035,-206.86 1035,-197.99"/>
<polygon fill="midnightblue" stroke="midnightblue" points="1038.5,-197.75 1035,-187.75 1031.5,-197.75 1038.5,-197.75"/>
</g>
<!-- Node26&#45;&gt;Node7 -->
<g id="edge51" class="edge">
<title>Node26&#45;&gt;Node7</title>
<path fill="none" stroke="midnightblue" d="M928.33,-280.46C917.21,-272.32 901.39,-259.11 892,-244 876.11,-218.44 873,-209.1 873,-179 873,-179 873,-179 873,-121 873,-90.9 875.47,-77.09 854,-56 818.43,-21.06 758.53,-12.6 721.52,-10.91"/>
<polygon fill="midnightblue" stroke="midnightblue" points="721.38,-7.4 711.28,-10.59 721.16,-14.4 721.38,-7.4"/>
</g>
<!-- Node26&#45;&gt;Node21 -->
<g id="edge50" class="edge">
<title>Node26&#45;&gt;Node21</title>
<path fill="none" stroke="midnightblue" d="M973.32,-280.44C1008.39,-271.16 1064.5,-256.31 1102.96,-246.13"/>
<polygon fill="midnightblue" stroke="midnightblue" points="1104.06,-249.46 1112.83,-243.52 1102.26,-242.69 1104.06,-249.46"/>
</g>
<!-- Node26&#45;&gt;Node23 -->
<g id="edge52" class="edge">
<title>Node26&#45;&gt;Node23</title>
<path fill="none" stroke="midnightblue" d="M939.02,-280.08C937.43,-272.93 935.14,-262.64 933.15,-253.69"/>
<polygon fill="midnightblue" stroke="midnightblue" points="936.53,-252.75 930.94,-243.75 929.7,-254.27 936.53,-252.75"/>
</g>
<!-- Node26&#45;&gt;Node24 -->
<g id="edge53" class="edge">
<title>Node26&#45;&gt;Node24</title>
<path fill="none" stroke="midnightblue" d="M956.1,-280.32C970.9,-271.82 993.69,-258.73 1010.98,-248.8"/>
<polygon fill="midnightblue" stroke="midnightblue" points="1013.01,-251.67 1019.93,-243.65 1009.52,-245.6 1013.01,-251.67"/>
</g>
</g>
</svg>
