<?xml version="1.0" encoding="UTF-8" standalone="no"?>
<!DOCTYPE svg PUBLIC "-//W3C//DTD SVG 1.1//EN"
 "http://www.w3.org/Graphics/SVG/1.1/DTD/svg11.dtd">
<!-- Generated by graphviz version 2.43.0 (0)
 -->
<!-- Title: sources/Debugger/CPU/CPUDebug.hpp Pages: 1 -->
<svg width="1721pt" height="487pt"
 viewBox="0.00 0.00 1720.50 487.00" xmlns="http://www.w3.org/2000/svg" xmlns:xlink="http://www.w3.org/1999/xlink">
<g id="graph0" class="graph" transform="scale(1 1) rotate(0) translate(4 483)">
<title>sources/Debugger/CPU/CPUDebug.hpp</title>
<polygon fill="white" stroke="transparent" points="-4,4 -4,-483 1716.5,-483 1716.5,4 -4,4"/>
<!-- Node1 -->
<g id="node1" class="node">
<title>Node1</title>
<g id="a_node1"><a xlink:title=" ">
<polygon fill="#bfbfbf" stroke="black" points="897,-448.5 897,-478.5 1025,-478.5 1025,-448.5 897,-448.5"/>
<text text-anchor="start" x="905" y="-466.5" font-family="Helvetica,sans-Serif" font-size="10.00">sources/Debugger/CPU</text>
<text text-anchor="middle" x="961" y="-455.5" font-family="Helvetica,sans-Serif" font-size="10.00">/CPUDebug.hpp</text>
</a>
</g>
</g>
<!-- Node2 -->
<g id="node2" class="node">
<title>Node2</title>
<g id="a_node2"><a xlink:title=" ">
<polygon fill="white" stroke="#bfbfbf" points="522,-392.5 522,-411.5 698,-411.5 698,-392.5 522,-392.5"/>
<text text-anchor="middle" x="610" y="-399.5" font-family="Helvetica,sans-Serif" font-size="10.00">QtWidgets/QStyledItemDelegate</text>
</a>
</g>
</g>
<!-- Node1&#45;&gt;Node2 -->
<g id="edge1" class="edge">
<title>Node1&#45;&gt;Node2</title>
<path fill="none" stroke="midnightblue" d="M896.62,-451.59C832.13,-440.65 733.63,-423.96 670.53,-413.26"/>
<polygon fill="midnightblue" stroke="midnightblue" points="670.78,-409.75 660.34,-411.53 669.61,-416.65 670.78,-409.75"/>
</g>
<!-- Node3 -->
<g id="node3" class="node">
<title>Node3</title>
<g id="a_node3"><a xlink:href="CPU_8hpp.html" target="_top" xlink:title=" ">
<polygon fill="white" stroke="black" points="228.5,-280.5 228.5,-299.5 327.5,-299.5 327.5,-280.5 228.5,-280.5"/>
<text text-anchor="middle" x="278" y="-287.5" font-family="Helvetica,sans-Serif" font-size="10.00">../../CPU/CPU.hpp</text>
</a>
</g>
</g>
<!-- Node1&#45;&gt;Node3 -->
<g id="edge2" class="edge">
<title>Node1&#45;&gt;Node3</title>
<path fill="none" stroke="midnightblue" d="M912.46,-448.41C861.45,-433.75 778.82,-410.41 707,-392 569.74,-356.81 406.58,-319.68 326.81,-301.83"/>
<polygon fill="midnightblue" stroke="midnightblue" points="327.1,-298.31 316.58,-299.55 325.58,-305.14 327.1,-298.31"/>
</g>
<!-- Node19 -->
<g id="node19" class="node">
<title>Node19</title>
<g id="a_node19"><a xlink:href="SFRenderer_8hpp.html" target="_top" xlink:title=" ">
<polygon fill="white" stroke="black" points="940,-392.5 940,-411.5 1098,-411.5 1098,-392.5 940,-392.5"/>
<text text-anchor="middle" x="1019" y="-399.5" font-family="Helvetica,sans-Serif" font-size="10.00">../../Renderer/SFRenderer.hpp</text>
</a>
</g>
</g>
<!-- Node1&#45;&gt;Node19 -->
<g id="edge41" class="edge">
<title>Node1&#45;&gt;Node19</title>
<path fill="none" stroke="midnightblue" d="M974.75,-448.4C983.35,-439.58 994.45,-428.18 1003.39,-419.02"/>
<polygon fill="midnightblue" stroke="midnightblue" points="1006.09,-421.26 1010.56,-411.66 1001.07,-416.38 1006.09,-421.26"/>
</g>
<!-- Node22 -->
<g id="node22" class="node">
<title>Node22</title>
<g id="a_node22"><a xlink:href="SNES_8hpp.html" target="_top" xlink:title=" ">
<polygon fill="white" stroke="black" points="754,-336.5 754,-355.5 826,-355.5 826,-336.5 754,-336.5"/>
<text text-anchor="middle" x="790" y="-343.5" font-family="Helvetica,sans-Serif" font-size="10.00">../SNES.hpp</text>
</a>
</g>
</g>
<!-- Node1&#45;&gt;Node22 -->
<g id="edge78" class="edge">
<title>Node1&#45;&gt;Node22</title>
<path fill="none" stroke="midnightblue" d="M940.03,-448.34C907.26,-426.2 844.25,-383.64 811.29,-361.38"/>
<polygon fill="midnightblue" stroke="midnightblue" points="813.08,-358.37 802.84,-355.67 809.16,-364.17 813.08,-358.37"/>
</g>
<!-- Node38 -->
<g id="node38" class="node">
<title>Node38</title>
<g id="a_node38"><a xlink:title=" ">
<polygon fill="white" stroke="#bfbfbf" points="1116.5,-392.5 1116.5,-411.5 1235.5,-411.5 1235.5,-392.5 1116.5,-392.5"/>
<text text-anchor="middle" x="1176" y="-399.5" font-family="Helvetica,sans-Serif" font-size="10.00">../../../ui/ui_cpuView.h</text>
</a>
</g>
</g>
<!-- Node1&#45;&gt;Node38 -->
<g id="edge79" class="edge">
<title>Node1&#45;&gt;Node38</title>
<path fill="none" stroke="midnightblue" d="M1011.68,-448.47C1049.42,-438.03 1100.27,-423.96 1135.36,-414.25"/>
<polygon fill="midnightblue" stroke="midnightblue" points="1136.56,-417.55 1145.26,-411.51 1134.69,-410.8 1136.56,-417.55"/>
</g>
<!-- Node39 -->
<g id="node39" class="node">
<title>Node39</title>
<g id="a_node39"><a xlink:href="ClosableWindow_8hpp.html" target="_top" xlink:title=" ">
<polygon fill="white" stroke="black" points="1415.5,-392.5 1415.5,-411.5 1542.5,-411.5 1542.5,-392.5 1415.5,-392.5"/>
<text text-anchor="middle" x="1479" y="-399.5" font-family="Helvetica,sans-Serif" font-size="10.00">../ClosableWindow.hpp</text>
</a>
</g>
</g>
<!-- Node1&#45;&gt;Node39 -->
<g id="edge80" class="edge">
<title>Node1&#45;&gt;Node39</title>
<path fill="none" stroke="midnightblue" d="M1025.04,-455.14C1121.34,-444.08 1303.01,-423.22 1404.9,-411.51"/>
<polygon fill="midnightblue" stroke="midnightblue" points="1405.57,-414.96 1415.11,-410.34 1404.78,-408 1405.57,-414.96"/>
</g>
<!-- Node4 -->
<g id="node4" class="node">
<title>Node4</title>
<g id="a_node4"><a xlink:href="AMemory_8hpp.html" target="_top" xlink:title=" ">
<polygon fill="white" stroke="black" points="516,-112.5 516,-131.5 652,-131.5 652,-112.5 516,-112.5"/>
<text text-anchor="middle" x="584" y="-119.5" font-family="Helvetica,sans-Serif" font-size="10.00">../Memory/AMemory.hpp</text>
</a>
</g>
</g>
<!-- Node3&#45;&gt;Node4 -->
<g id="edge3" class="edge">
<title>Node3&#45;&gt;Node4</title>
<path fill="none" stroke="midnightblue" d="M284.91,-280.47C303.29,-258.36 355.92,-198.74 413,-168 444.35,-151.11 482.4,-140.29 514.64,-133.5"/>
<polygon fill="midnightblue" stroke="midnightblue" points="515.34,-136.93 524.45,-131.53 513.95,-130.07 515.34,-136.93"/>
</g>
<!-- Node9 -->
<g id="node9" class="node">
<title>Node9</title>
<g id="a_node9"><a xlink:href="Int24_8hpp.html" target="_top" xlink:title=" ">
<polygon fill="white" stroke="black" points="78,-0.5 78,-19.5 188,-19.5 188,-0.5 78,-0.5"/>
<text text-anchor="middle" x="133" y="-7.5" font-family="Helvetica,sans-Serif" font-size="10.00">../Models/Int24.hpp</text>
</a>
</g>
</g>
<!-- Node3&#45;&gt;Node9 -->
<g id="edge22" class="edge">
<title>Node3&#45;&gt;Node9</title>
<path fill="none" stroke="midnightblue" d="M228.31,-286.51C183.29,-282.46 116.33,-271.83 65,-244 29.08,-224.53 0,-219.86 0,-179 0,-179 0,-179 0,-121 0,-70.73 57.13,-39.1 96.5,-23.27"/>
<polygon fill="midnightblue" stroke="midnightblue" points="98.01,-26.45 106.09,-19.59 95.5,-19.91 98.01,-26.45"/>
</g>
<!-- Node12 -->
<g id="node12" class="node">
<title>Node12</title>
<g id="a_node12"><a xlink:href="MemoryBus_8hpp.html" target="_top" xlink:title=" ">
<polygon fill="white" stroke="black" points="217.5,-168.5 217.5,-187.5 366.5,-187.5 366.5,-168.5 217.5,-168.5"/>
<text text-anchor="middle" x="292" y="-175.5" font-family="Helvetica,sans-Serif" font-size="10.00">../Memory/MemoryBus.hpp</text>
</a>
</g>
</g>
<!-- Node3&#45;&gt;Node12 -->
<g id="edge17" class="edge">
<title>Node3&#45;&gt;Node12</title>
<path fill="none" stroke="midnightblue" d="M279.1,-280.37C281.36,-262.62 286.57,-221.67 289.63,-197.6"/>
<polygon fill="midnightblue" stroke="midnightblue" points="293.12,-197.95 290.91,-187.59 286.17,-197.07 293.12,-197.95"/>
</g>
<!-- Node13 -->
<g id="node13" class="node">
<title>Node13</title>
<g id="a_node13"><a xlink:href="Cartridge_8hpp.html" target="_top" xlink:title=" ">
<polygon fill="white" stroke="black" points="538,-224.5 538,-243.5 678,-243.5 678,-224.5 538,-224.5"/>
<text text-anchor="middle" x="608" y="-231.5" font-family="Helvetica,sans-Serif" font-size="10.00">../Cartridge/Cartridge.hpp</text>
</a>
</g>
</g>
<!-- Node3&#45;&gt;Node13 -->
<g id="edge23" class="edge">
<title>Node3&#45;&gt;Node13</title>
<path fill="none" stroke="midnightblue" d="M327.76,-280.86C386.01,-271.33 482.52,-255.53 545.7,-245.2"/>
<polygon fill="midnightblue" stroke="midnightblue" points="546.62,-248.59 555.92,-243.52 545.49,-241.68 546.62,-248.59"/>
</g>
<!-- Node17 -->
<g id="node17" class="node">
<title>Node17</title>
<g id="a_node17"><a xlink:href="Instruction_8hpp.html" target="_top" xlink:title=" ">
<polygon fill="white" stroke="black" points="218.5,-56.5 218.5,-75.5 307.5,-75.5 307.5,-56.5 218.5,-56.5"/>
<text text-anchor="middle" x="263" y="-63.5" font-family="Helvetica,sans-Serif" font-size="10.00">Instruction.hpp</text>
</a>
</g>
</g>
<!-- Node3&#45;&gt;Node17 -->
<g id="edge33" class="edge">
<title>Node3&#45;&gt;Node17</title>
<path fill="none" stroke="midnightblue" d="M269.11,-280.29C253.14,-263.97 220.16,-226.89 208,-188 195.73,-148.77 227.17,-105.55 247.42,-82.89"/>
<polygon fill="midnightblue" stroke="midnightblue" points="250.03,-85.22 254.28,-75.51 244.91,-80.45 250.03,-85.22"/>
</g>
<!-- Node18 -->
<g id="node18" class="node">
<title>Node18</title>
<g id="a_node18"><a xlink:href="DMA_8hpp.html" target="_top" xlink:title=" ">
<polygon fill="white" stroke="black" points="74.5,-224.5 74.5,-243.5 161.5,-243.5 161.5,-224.5 74.5,-224.5"/>
<text text-anchor="middle" x="118" y="-231.5" font-family="Helvetica,sans-Serif" font-size="10.00">DMA/DMA.hpp</text>
</a>
</g>
</g>
<!-- Node3&#45;&gt;Node18 -->
<g id="edge36" class="edge">
<title>Node3&#45;&gt;Node18</title>
<path fill="none" stroke="midnightblue" d="M252.65,-280.44C225.73,-271.36 183,-256.94 152.91,-246.78"/>
<polygon fill="midnightblue" stroke="midnightblue" points="153.83,-243.4 143.23,-243.52 151.59,-250.03 153.83,-243.4"/>
</g>
<!-- Node5 -->
<g id="node5" class="node">
<title>Node5</title>
<g id="a_node5"><a xlink:title=" ">
<polygon fill="white" stroke="#bfbfbf" points="559,-0.5 559,-19.5 609,-19.5 609,-0.5 559,-0.5"/>
<text text-anchor="middle" x="584" y="-7.5" font-family="Helvetica,sans-Serif" font-size="10.00">cstdint</text>
</a>
</g>
</g>
<!-- Node4&#45;&gt;Node5 -->
<g id="edge4" class="edge">
<title>Node4&#45;&gt;Node5</title>
<path fill="none" stroke="midnightblue" d="M583.72,-112.17C583.35,-99.67 582.78,-76.09 583,-56 583.1,-47.4 583.29,-37.87 583.49,-29.8"/>
<polygon fill="midnightblue" stroke="midnightblue" points="586.99,-29.71 583.75,-19.63 579.99,-29.53 586.99,-29.71"/>
</g>
<!-- Node6 -->
<g id="node6" class="node">
<title>Node6</title>
<g id="a_node6"><a xlink:title=" ">
<polygon fill="white" stroke="#bfbfbf" points="493.5,-0.5 493.5,-19.5 540.5,-19.5 540.5,-0.5 493.5,-0.5"/>
<text text-anchor="middle" x="517" y="-7.5" font-family="Helvetica,sans-Serif" font-size="10.00">vector</text>
</a>
</g>
</g>
<!-- Node4&#45;&gt;Node6 -->
<g id="edge5" class="edge">
<title>Node4&#45;&gt;Node6</title>
<path fill="none" stroke="midnightblue" d="M578.74,-112.37C567.73,-94.3 542.08,-52.18 527.54,-28.31"/>
<polygon fill="midnightblue" stroke="midnightblue" points="530.42,-26.31 522.23,-19.59 524.45,-29.95 530.42,-26.31"/>
</g>
<!-- Node7 -->
<g id="node7" class="node">
<title>Node7</title>
<g id="a_node7"><a xlink:title=" ">
<polygon fill="white" stroke="#bfbfbf" points="345,-0.5 345,-19.5 403,-19.5 403,-0.5 345,-0.5"/>
<text text-anchor="middle" x="374" y="-7.5" font-family="Helvetica,sans-Serif" font-size="10.00">memory</text>
</a>
</g>
</g>
<!-- Node4&#45;&gt;Node7 -->
<g id="edge6" class="edge">
<title>Node4&#45;&gt;Node7</title>
<path fill="none" stroke="midnightblue" d="M567.52,-112.37C531.03,-93.25 443.16,-47.23 399.51,-24.36"/>
<polygon fill="midnightblue" stroke="midnightblue" points="400.88,-21.13 390.4,-19.59 397.64,-27.33 400.88,-21.13"/>
</g>
<!-- Node8 -->
<g id="node8" class="node">
<title>Node8</title>
<g id="a_node8"><a xlink:title=" ">
<polygon fill="white" stroke="#bfbfbf" points="791,-0.5 791,-19.5 835,-19.5 835,-0.5 791,-0.5"/>
<text text-anchor="middle" x="813" y="-7.5" font-family="Helvetica,sans-Serif" font-size="10.00">string</text>
</a>
</g>
</g>
<!-- Node4&#45;&gt;Node8 -->
<g id="edge7" class="edge">
<title>Node4&#45;&gt;Node8</title>
<path fill="none" stroke="midnightblue" d="M609.59,-112.48C633.63,-104.16 670.38,-90.66 701,-76 733.47,-60.45 769.14,-38.93 791.3,-24.98"/>
<polygon fill="midnightblue" stroke="midnightblue" points="793.36,-27.82 799.92,-19.51 789.61,-21.91 793.36,-27.82"/>
</g>
<!-- Node4&#45;&gt;Node9 -->
<g id="edge8" class="edge">
<title>Node4&#45;&gt;Node9</title>
<path fill="none" stroke="midnightblue" d="M515.66,-117.54C422.86,-112.04 262.44,-99.45 209,-76 183.78,-64.93 160.64,-42.63 146.68,-27.26"/>
<polygon fill="midnightblue" stroke="midnightblue" points="149.14,-24.75 139.91,-19.55 143.88,-29.37 149.14,-24.75"/>
</g>
<!-- Node10 -->
<g id="node10" class="node">
<title>Node10</title>
<g id="a_node10"><a xlink:href="Components_8hpp.html" target="_top" xlink:title=" ">
<polygon fill="white" stroke="black" points="627,-0.5 627,-19.5 773,-19.5 773,-0.5 627,-0.5"/>
<text text-anchor="middle" x="700" y="-7.5" font-family="Helvetica,sans-Serif" font-size="10.00">../Models/Components.hpp</text>
</a>
</g>
</g>
<!-- Node4&#45;&gt;Node10 -->
<g id="edge9" class="edge">
<title>Node4&#45;&gt;Node10</title>
<path fill="none" stroke="midnightblue" d="M619.45,-112.48C640.11,-105.79 665.14,-94.44 681,-76 692.13,-63.06 696.75,-43.89 698.66,-29.72"/>
<polygon fill="midnightblue" stroke="midnightblue" points="702.15,-29.94 699.68,-19.64 695.19,-29.24 702.15,-29.94"/>
</g>
<!-- Node11 -->
<g id="node11" class="node">
<title>Node11</title>
<g id="a_node11"><a xlink:href="IMemory_8hpp.html" target="_top" xlink:title=" ">
<polygon fill="white" stroke="black" points="592,-56.5 592,-75.5 672,-75.5 672,-56.5 592,-56.5"/>
<text text-anchor="middle" x="632" y="-63.5" font-family="Helvetica,sans-Serif" font-size="10.00">IMemory.hpp</text>
</a>
</g>
</g>
<!-- Node4&#45;&gt;Node11 -->
<g id="edge10" class="edge">
<title>Node4&#45;&gt;Node11</title>
<path fill="none" stroke="midnightblue" d="M591.93,-112.08C598.85,-104.3 609.07,-92.8 617.45,-83.37"/>
<polygon fill="midnightblue" stroke="midnightblue" points="620.19,-85.55 624.22,-75.75 614.96,-80.9 620.19,-85.55"/>
</g>
<!-- Node11&#45;&gt;Node5 -->
<g id="edge11" class="edge">
<title>Node11&#45;&gt;Node5</title>
<path fill="none" stroke="midnightblue" d="M624.07,-56.08C617.15,-48.3 606.93,-36.8 598.55,-27.37"/>
<polygon fill="midnightblue" stroke="midnightblue" points="601.04,-24.9 591.78,-19.75 595.81,-29.55 601.04,-24.9"/>
</g>
<!-- Node11&#45;&gt;Node6 -->
<g id="edge12" class="edge">
<title>Node11&#45;&gt;Node6</title>
<path fill="none" stroke="midnightblue" d="M613.78,-56.44C595.1,-47.68 565.84,-33.94 544.38,-23.86"/>
<polygon fill="midnightblue" stroke="midnightblue" points="545.68,-20.6 535.14,-19.52 542.7,-26.93 545.68,-20.6"/>
</g>
<!-- Node11&#45;&gt;Node7 -->
<g id="edge13" class="edge">
<title>Node11&#45;&gt;Node7</title>
<path fill="none" stroke="midnightblue" d="M591.97,-56.62C543.31,-46.44 461.73,-29.36 413.37,-19.24"/>
<polygon fill="midnightblue" stroke="midnightblue" points="413.79,-15.75 403.29,-17.13 412.36,-22.6 413.79,-15.75"/>
</g>
<!-- Node11&#45;&gt;Node8 -->
<g id="edge14" class="edge">
<title>Node11&#45;&gt;Node8</title>
<path fill="none" stroke="midnightblue" d="M660.68,-56.44C693.38,-46.69 746.71,-30.78 780.81,-20.6"/>
<polygon fill="midnightblue" stroke="midnightblue" points="782.15,-23.86 790.73,-17.64 780.15,-17.15 782.15,-23.86"/>
</g>
<!-- Node11&#45;&gt;Node9 -->
<g id="edge15" class="edge">
<title>Node11&#45;&gt;Node9</title>
<path fill="none" stroke="midnightblue" d="M591.59,-60.63C505.47,-51.31 303.24,-29.42 198.48,-18.09"/>
<polygon fill="midnightblue" stroke="midnightblue" points="198.66,-14.59 188.34,-16.99 197.91,-21.54 198.66,-14.59"/>
</g>
<!-- Node11&#45;&gt;Node10 -->
<g id="edge16" class="edge">
<title>Node11&#45;&gt;Node10</title>
<path fill="none" stroke="midnightblue" d="M642.93,-56.32C653.17,-48.18 668.72,-35.84 681,-26.09"/>
<polygon fill="midnightblue" stroke="midnightblue" points="683.22,-28.79 688.88,-19.83 678.87,-23.31 683.22,-28.79"/>
</g>
<!-- Node12&#45;&gt;Node4 -->
<g id="edge21" class="edge">
<title>Node12&#45;&gt;Node4</title>
<path fill="none" stroke="midnightblue" d="M338.27,-168.44C389.74,-158.92 472.89,-143.55 528,-133.36"/>
<polygon fill="midnightblue" stroke="midnightblue" points="528.75,-136.78 537.95,-131.52 527.48,-129.89 528.75,-136.78"/>
</g>
<!-- Node12&#45;&gt;Node5 -->
<g id="edge18" class="edge">
<title>Node12&#45;&gt;Node5</title>
<path fill="none" stroke="midnightblue" d="M309.15,-168.48C326.81,-159.63 355.04,-145.25 379,-132 446.01,-94.93 523.42,-48.13 561.06,-25.11"/>
<polygon fill="midnightblue" stroke="midnightblue" points="563.05,-28 569.74,-19.79 559.39,-22.03 563.05,-28"/>
</g>
<!-- Node12&#45;&gt;Node6 -->
<g id="edge19" class="edge">
<title>Node12&#45;&gt;Node6</title>
<path fill="none" stroke="midnightblue" d="M303.78,-168.31C340.23,-141.42 451.46,-59.35 497.12,-25.67"/>
<polygon fill="midnightblue" stroke="midnightblue" points="499.37,-28.36 505.34,-19.61 495.21,-22.73 499.37,-28.36"/>
</g>
<!-- Node12&#45;&gt;Node7 -->
<g id="edge20" class="edge">
<title>Node12&#45;&gt;Node7</title>
<path fill="none" stroke="midnightblue" d="M296.41,-168.08C309.43,-141.72 347.88,-63.88 365.28,-28.66"/>
<polygon fill="midnightblue" stroke="midnightblue" points="368.48,-30.08 369.77,-19.57 362.2,-26.98 368.48,-30.08"/>
</g>
<!-- Node13&#45;&gt;Node4 -->
<g id="edge25" class="edge">
<title>Node13&#45;&gt;Node4</title>
<path fill="none" stroke="midnightblue" d="M606.12,-224.37C602.24,-206.62 593.31,-165.67 588.06,-141.6"/>
<polygon fill="midnightblue" stroke="midnightblue" points="591.43,-140.62 585.87,-131.59 584.59,-142.11 591.43,-140.62"/>
</g>
<!-- Node13&#45;&gt;Node8 -->
<g id="edge24" class="edge">
<title>Node13&#45;&gt;Node8</title>
<path fill="none" stroke="midnightblue" d="M654.36,-224.47C675.07,-218.1 697.58,-207.05 710,-188 728.67,-159.35 683.9,-143.15 698,-112 703.16,-100.6 762.94,-51.33 794.21,-26.06"/>
<polygon fill="midnightblue" stroke="midnightblue" points="796.61,-28.63 802.2,-19.63 792.22,-23.17 796.61,-28.63"/>
</g>
<!-- Node13&#45;&gt;Node9 -->
<g id="edge26" class="edge">
<title>Node13&#45;&gt;Node9</title>
<path fill="none" stroke="midnightblue" d="M537.75,-233.41C437.16,-232.64 258.62,-225.77 208,-188 155.88,-149.11 139.65,-66.89 134.87,-29.82"/>
<polygon fill="midnightblue" stroke="midnightblue" points="138.35,-29.4 133.73,-19.86 131.39,-30.2 138.35,-29.4"/>
</g>
<!-- Node14 -->
<g id="node14" class="node">
<title>Node14</title>
<g id="a_node14"><a xlink:href="ARectangleMemory_8hpp.html" target="_top" xlink:title=" ">
<polygon fill="white" stroke="black" points="707.5,-112.5 707.5,-131.5 892.5,-131.5 892.5,-112.5 707.5,-112.5"/>
<text text-anchor="middle" x="800" y="-119.5" font-family="Helvetica,sans-Serif" font-size="10.00">../Memory/ARectangleMemory.hpp</text>
</a>
</g>
</g>
<!-- Node13&#45;&gt;Node14 -->
<g id="edge27" class="edge">
<title>Node13&#45;&gt;Node14</title>
<path fill="none" stroke="midnightblue" d="M653.29,-224.48C681.14,-217.73 716.61,-206.32 744,-188 762.69,-175.5 778.81,-155.14 788.89,-140.54"/>
<polygon fill="midnightblue" stroke="midnightblue" points="792,-142.18 794.61,-131.92 786.16,-138.32 792,-142.18"/>
</g>
<!-- Node15 -->
<g id="node15" class="node">
<title>Node15</title>
<g id="a_node15"><a xlink:href="InterruptVectors_8hpp.html" target="_top" xlink:title=" ">
<polygon fill="white" stroke="black" points="422,-168.5 422,-187.5 538,-187.5 538,-168.5 422,-168.5"/>
<text text-anchor="middle" x="480" y="-175.5" font-family="Helvetica,sans-Serif" font-size="10.00">InterruptVectors.hpp</text>
</a>
</g>
</g>
<!-- Node13&#45;&gt;Node15 -->
<g id="edge29" class="edge">
<title>Node13&#45;&gt;Node15</title>
<path fill="none" stroke="midnightblue" d="M587.72,-224.44C566.65,-215.56 533.48,-201.56 509.51,-191.45"/>
<polygon fill="midnightblue" stroke="midnightblue" points="510.76,-188.18 500.19,-187.52 508.04,-194.63 510.76,-188.18"/>
</g>
<!-- Node16 -->
<g id="node16" class="node">
<title>Node16</title>
<g id="a_node16"><a xlink:href="Ram_8hpp.html" target="_top" xlink:title=" ">
<polygon fill="white" stroke="black" points="930.5,-168.5 930.5,-187.5 1025.5,-187.5 1025.5,-168.5 930.5,-168.5"/>
<text text-anchor="middle" x="978" y="-175.5" font-family="Helvetica,sans-Serif" font-size="10.00">../Ram/Ram.hpp</text>
</a>
</g>
</g>
<!-- Node13&#45;&gt;Node16 -->
<g id="edge30" class="edge">
<title>Node13&#45;&gt;Node16</title>
<path fill="none" stroke="midnightblue" d="M668.92,-224.5C729.86,-215.93 826.58,-202.18 920.47,-188.06"/>
<polygon fill="midnightblue" stroke="midnightblue" points="921.06,-191.51 930.42,-186.56 920.01,-184.59 921.06,-191.51"/>
</g>
<!-- Node14&#45;&gt;Node11 -->
<g id="edge28" class="edge">
<title>Node14&#45;&gt;Node11</title>
<path fill="none" stroke="midnightblue" d="M773.38,-112.44C744.99,-103.32 699.86,-88.81 668.25,-78.65"/>
<polygon fill="midnightblue" stroke="midnightblue" points="669.09,-75.24 658.5,-75.52 666.94,-81.91 669.09,-75.24"/>
</g>
<!-- Node16&#45;&gt;Node8 -->
<g id="edge32" class="edge">
<title>Node16&#45;&gt;Node8</title>
<path fill="none" stroke="midnightblue" d="M985.02,-168.5C994.77,-155.58 1010.04,-130.55 999,-112 965.61,-55.87 888.91,-28.99 845.15,-17.81"/>
<polygon fill="midnightblue" stroke="midnightblue" points="845.84,-14.37 835.3,-15.41 844.19,-21.18 845.84,-14.37"/>
</g>
<!-- Node16&#45;&gt;Node14 -->
<g id="edge31" class="edge">
<title>Node16&#45;&gt;Node14</title>
<path fill="none" stroke="midnightblue" d="M949.8,-168.44C919.59,-159.28 871.49,-144.69 837.97,-134.52"/>
<polygon fill="midnightblue" stroke="midnightblue" points="838.66,-131.07 828.07,-131.52 836.63,-137.77 838.66,-131.07"/>
</g>
<!-- Node17&#45;&gt;Node8 -->
<g id="edge34" class="edge">
<title>Node17&#45;&gt;Node8</title>
<path fill="none" stroke="midnightblue" d="M307.83,-64.06C396.61,-61.58 601.07,-52.69 780.88,-19.85"/>
<polygon fill="midnightblue" stroke="midnightblue" points="781.58,-23.28 790.77,-18.02 780.3,-16.4 781.58,-23.28"/>
</g>
<!-- Node17&#45;&gt;Node9 -->
<g id="edge35" class="edge">
<title>Node17&#45;&gt;Node9</title>
<path fill="none" stroke="midnightblue" d="M242.4,-56.44C221.01,-47.56 187.32,-33.56 162.98,-23.45"/>
<polygon fill="midnightblue" stroke="midnightblue" points="164.08,-20.12 153.5,-19.52 161.39,-26.58 164.08,-20.12"/>
</g>
<!-- Node18&#45;&gt;Node5 -->
<g id="edge37" class="edge">
<title>Node18&#45;&gt;Node5</title>
<path fill="none" stroke="midnightblue" d="M119.46,-224.48C124.98,-195.19 147.43,-98.18 209,-56 271.68,-13.06 474.23,-33.5 549,-20 549.1,-19.98 549.2,-19.96 549.3,-19.95"/>
<polygon fill="midnightblue" stroke="midnightblue" points="549.8,-23.42 558.86,-17.93 548.36,-16.57 549.8,-23.42"/>
</g>
<!-- Node18&#45;&gt;Node7 -->
<g id="edge38" class="edge">
<title>Node18&#45;&gt;Node7</title>
<path fill="none" stroke="midnightblue" d="M115.81,-224.19C109.26,-195.61 93.01,-104.54 138,-56 164.08,-27.86 274.54,-16.93 334.64,-13"/>
<polygon fill="midnightblue" stroke="midnightblue" points="335.13,-16.48 344.9,-12.37 334.7,-9.49 335.13,-16.48"/>
</g>
<!-- Node18&#45;&gt;Node9 -->
<g id="edge39" class="edge">
<title>Node18&#45;&gt;Node9</title>
<path fill="none" stroke="midnightblue" d="M100.5,-224.46C87.21,-216.92 69.92,-204.53 62,-188 36.64,-135.1 33.72,-107.4 62,-56 69.89,-41.66 84.49,-31.25 98.4,-24.08"/>
<polygon fill="midnightblue" stroke="midnightblue" points="100.29,-27.06 107.84,-19.62 97.3,-20.73 100.29,-27.06"/>
</g>
<!-- Node18&#45;&gt;Node12 -->
<g id="edge40" class="edge">
<title>Node18&#45;&gt;Node12</title>
<path fill="none" stroke="midnightblue" d="M145.57,-224.44C175.1,-215.28 222.12,-200.69 254.88,-190.52"/>
<polygon fill="midnightblue" stroke="midnightblue" points="256.04,-193.82 264.56,-187.52 253.97,-187.14 256.04,-193.82"/>
</g>
<!-- Node20 -->
<g id="node20" class="node">
<title>Node20</title>
<g id="a_node20"><a xlink:href="IRenderer_8hpp.html" target="_top" xlink:title=" ">
<polygon fill="white" stroke="black" points="1299,-168.5 1299,-187.5 1383,-187.5 1383,-168.5 1299,-168.5"/>
<text text-anchor="middle" x="1341" y="-175.5" font-family="Helvetica,sans-Serif" font-size="10.00">IRenderer.hpp</text>
</a>
</g>
</g>
<!-- Node19&#45;&gt;Node20 -->
<g id="edge42" class="edge">
<title>Node19&#45;&gt;Node20</title>
<path fill="none" stroke="midnightblue" d="M1091.86,-392.48C1164.91,-383.32 1268.61,-368.41 1283,-356 1330.51,-315.04 1339.32,-234.51 1340.8,-197.91"/>
<polygon fill="midnightblue" stroke="midnightblue" points="1344.31,-197.76 1341.07,-187.67 1337.31,-197.58 1344.31,-197.76"/>
</g>
<!-- Node19&#45;&gt;Node22 -->
<g id="edge45" class="edge">
<title>Node19&#45;&gt;Node22</title>
<path fill="none" stroke="midnightblue" d="M982.71,-392.44C943.02,-383.08 879.29,-368.06 836.09,-357.87"/>
<polygon fill="midnightblue" stroke="midnightblue" points="836.65,-354.41 826.12,-355.52 835.05,-361.22 836.65,-354.41"/>
</g>
<!-- Node33 -->
<g id="node33" class="node">
<title>Node33</title>
<g id="a_node33"><a xlink:title=" ">
<polygon fill="white" stroke="#bfbfbf" points="1330,-336.5 1330,-355.5 1440,-355.5 1440,-336.5 1330,-336.5"/>
<text text-anchor="middle" x="1385" y="-343.5" font-family="Helvetica,sans-Serif" font-size="10.00">SFML/Graphics.hpp</text>
</a>
</g>
</g>
<!-- Node19&#45;&gt;Node33 -->
<g id="edge73" class="edge">
<title>Node19&#45;&gt;Node33</title>
<path fill="none" stroke="midnightblue" d="M1076.99,-392.44C1143.04,-382.7 1250.71,-366.81 1319.67,-356.64"/>
<polygon fill="midnightblue" stroke="midnightblue" points="1320.59,-360.04 1329.97,-355.12 1319.57,-353.12 1320.59,-360.04"/>
</g>
<!-- Node34 -->
<g id="node34" class="node">
<title>Node34</title>
<g id="a_node34"><a xlink:title=" ">
<polygon fill="white" stroke="#bfbfbf" points="1458.5,-336.5 1458.5,-355.5 1553.5,-355.5 1553.5,-336.5 1458.5,-336.5"/>
<text text-anchor="middle" x="1506" y="-343.5" font-family="Helvetica,sans-Serif" font-size="10.00">SFML/Audio.hpp</text>
</a>
</g>
</g>
<!-- Node19&#45;&gt;Node34 -->
<g id="edge74" class="edge">
<title>Node19&#45;&gt;Node34</title>
<path fill="none" stroke="midnightblue" d="M1098.33,-392.81C1208.01,-381.46 1397.42,-361.82 1448.28,-355.93"/>
<polygon fill="midnightblue" stroke="midnightblue" points="1448.94,-359.38 1458.44,-354.7 1448.09,-352.43 1448.94,-359.38"/>
</g>
<!-- Node35 -->
<g id="node35" class="node">
<title>Node35</title>
<g id="a_node35"><a xlink:title=" ">
<polygon fill="white" stroke="#bfbfbf" points="844,-336.5 844,-355.5 948,-355.5 948,-336.5 844,-336.5"/>
<text text-anchor="middle" x="896" y="-343.5" font-family="Helvetica,sans-Serif" font-size="10.00">SFML/System.hpp</text>
</a>
</g>
</g>
<!-- Node19&#45;&gt;Node35 -->
<g id="edge75" class="edge">
<title>Node19&#45;&gt;Node35</title>
<path fill="none" stroke="midnightblue" d="M999.51,-392.44C979.36,-383.6 947.68,-369.69 924.67,-359.59"/>
<polygon fill="midnightblue" stroke="midnightblue" points="925.96,-356.33 915.4,-355.52 923.15,-362.74 925.96,-356.33"/>
</g>
<!-- Node36 -->
<g id="node36" class="node">
<title>Node36</title>
<g id="a_node36"><a xlink:title=" ">
<polygon fill="white" stroke="#bfbfbf" points="966.5,-336.5 966.5,-355.5 1071.5,-355.5 1071.5,-336.5 966.5,-336.5"/>
<text text-anchor="middle" x="1019" y="-343.5" font-family="Helvetica,sans-Serif" font-size="10.00">SFML/Window.hpp</text>
</a>
</g>
</g>
<!-- Node19&#45;&gt;Node36 -->
<g id="edge76" class="edge">
<title>Node19&#45;&gt;Node36</title>
<path fill="none" stroke="midnightblue" d="M1019,-392.08C1019,-385.01 1019,-374.86 1019,-365.99"/>
<polygon fill="midnightblue" stroke="midnightblue" points="1022.5,-365.75 1019,-355.75 1015.5,-365.75 1022.5,-365.75"/>
</g>
<!-- Node37 -->
<g id="node37" class="node">
<title>Node37</title>
<g id="a_node37"><a xlink:title=" ">
<polygon fill="white" stroke="#bfbfbf" points="1089.5,-336.5 1089.5,-355.5 1274.5,-355.5 1274.5,-336.5 1089.5,-336.5"/>
<text text-anchor="middle" x="1182" y="-343.5" font-family="Helvetica,sans-Serif" font-size="10.00">SFML/Graphics/RenderWindow.hpp</text>
</a>
</g>
</g>
<!-- Node19&#45;&gt;Node37 -->
<g id="edge77" class="edge">
<title>Node19&#45;&gt;Node37</title>
<path fill="none" stroke="midnightblue" d="M1044.83,-392.44C1072.25,-383.36 1115.78,-368.94 1146.43,-358.78"/>
<polygon fill="midnightblue" stroke="midnightblue" points="1147.9,-361.98 1156.29,-355.52 1145.7,-355.34 1147.9,-361.98"/>
</g>
<!-- Node20&#45;&gt;Node8 -->
<g id="edge43" class="edge">
<title>Node20&#45;&gt;Node8</title>
<path fill="none" stroke="midnightblue" d="M1350.48,-168.17C1363.68,-154.83 1384.41,-129.26 1370,-112 1302.11,-30.69 953.59,-14.7 845.21,-11.68"/>
<polygon fill="midnightblue" stroke="midnightblue" points="845.29,-8.18 835.2,-11.42 845.1,-15.18 845.29,-8.18"/>
</g>
<!-- Node21 -->
<g id="node21" class="node">
<title>Node21</title>
<g id="a_node21"><a xlink:title=" ">
<polygon fill="white" stroke="#bfbfbf" points="1321,-112.5 1321,-131.5 1361,-131.5 1361,-112.5 1321,-112.5"/>
<text text-anchor="middle" x="1341" y="-119.5" font-family="Helvetica,sans-Serif" font-size="10.00">span</text>
</a>
</g>
</g>
<!-- Node20&#45;&gt;Node21 -->
<g id="edge44" class="edge">
<title>Node20&#45;&gt;Node21</title>
<path fill="none" stroke="midnightblue" d="M1341,-168.08C1341,-161.01 1341,-150.86 1341,-141.99"/>
<polygon fill="midnightblue" stroke="midnightblue" points="1344.5,-141.75 1341,-131.75 1337.5,-141.75 1344.5,-141.75"/>
</g>
<!-- Node22&#45;&gt;Node3 -->
<g id="edge47" class="edge">
<title>Node22&#45;&gt;Node3</title>
<path fill="none" stroke="midnightblue" d="M753.74,-338.09C749.12,-337.32 744.46,-336.6 740,-336 563.98,-312.24 518.44,-320.37 342,-300 340.54,-299.83 339.06,-299.66 337.56,-299.48"/>
<polygon fill="midnightblue" stroke="midnightblue" points="337.94,-296 327.58,-298.22 337.07,-302.94 337.94,-296"/>
</g>
<!-- Node22&#45;&gt;Node12 -->
<g id="edge46" class="edge">
<title>Node22&#45;&gt;Node12</title>
<path fill="none" stroke="midnightblue" d="M757.53,-336.49C725.26,-327.88 674.45,-313.89 631,-300 517.05,-263.59 383.97,-213.97 324.08,-191.26"/>
<polygon fill="midnightblue" stroke="midnightblue" points="325.03,-187.88 314.44,-187.6 322.54,-194.42 325.03,-187.88"/>
</g>
<!-- Node22&#45;&gt;Node13 -->
<g id="edge48" class="edge">
<title>Node22&#45;&gt;Node13</title>
<path fill="none" stroke="midnightblue" d="M756.87,-336.47C722.45,-327.18 671.38,-312.02 655,-300 638.22,-287.68 625.01,-267.58 616.92,-252.99"/>
<polygon fill="midnightblue" stroke="midnightblue" points="619.91,-251.16 612.16,-243.93 613.72,-254.41 619.91,-251.16"/>
</g>
<!-- Node22&#45;&gt;Node16 -->
<g id="edge49" class="edge">
<title>Node22&#45;&gt;Node16</title>
<path fill="none" stroke="midnightblue" d="M808.35,-336.45C824.83,-328.32 849.25,-315.1 868,-300 907.97,-267.8 946.35,-220.73 965.45,-195.85"/>
<polygon fill="midnightblue" stroke="midnightblue" points="968.33,-197.85 971.58,-187.76 962.75,-193.62 968.33,-197.85"/>
</g>
<!-- Node22&#45;&gt;Node20 -->
<g id="edge70" class="edge">
<title>Node22&#45;&gt;Node20</title>
<path fill="none" stroke="midnightblue" d="M826.01,-337.63C882,-326.13 985.26,-304.74 1002,-300 1117.95,-267.16 1251.58,-215.13 1310.45,-191.46"/>
<polygon fill="midnightblue" stroke="midnightblue" points="1311.94,-194.64 1319.9,-187.65 1309.32,-188.15 1311.94,-194.64"/>
</g>
<!-- Node23 -->
<g id="node23" class="node">
<title>Node23</title>
<g id="a_node23"><a xlink:href="PPU_8hpp.html" target="_top" xlink:title=" ">
<polygon fill="white" stroke="black" points="1014,-224.5 1014,-243.5 1094,-243.5 1094,-224.5 1014,-224.5"/>
<text text-anchor="middle" x="1054" y="-231.5" font-family="Helvetica,sans-Serif" font-size="10.00">PPU/PPU.hpp</text>
</a>
</g>
</g>
<!-- Node22&#45;&gt;Node23 -->
<g id="edge50" class="edge">
<title>Node22&#45;&gt;Node23</title>
<path fill="none" stroke="midnightblue" d="M826.36,-336.88C875.62,-325.75 958.96,-306.4 972,-300 997.83,-287.32 1023.09,-265.45 1038.59,-250.61"/>
<polygon fill="midnightblue" stroke="midnightblue" points="1041.07,-253.08 1045.76,-243.58 1036.17,-248.08 1041.07,-253.08"/>
</g>
<!-- Node27 -->
<g id="node27" class="node">
<title>Node27</title>
<g id="a_node27"><a xlink:href="APU_8hpp.html" target="_top" xlink:title=" ">
<polygon fill="white" stroke="black" points="827.5,-224.5 827.5,-243.5 908.5,-243.5 908.5,-224.5 827.5,-224.5"/>
<text text-anchor="middle" x="868" y="-231.5" font-family="Helvetica,sans-Serif" font-size="10.00">APU/APU.hpp</text>
</a>
</g>
</g>
<!-- Node22&#45;&gt;Node27 -->
<g id="edge59" class="edge">
<title>Node22&#45;&gt;Node27</title>
<path fill="none" stroke="midnightblue" d="M805.75,-336.49C818.85,-328.64 837.06,-315.83 848,-300 857.54,-286.19 862.66,-267.67 865.32,-253.93"/>
<polygon fill="midnightblue" stroke="midnightblue" points="868.82,-254.16 867.02,-243.72 861.92,-253.01 868.82,-254.16"/>
</g>
<!-- Node31 -->
<g id="node31" class="node">
<title>Node31</title>
<g id="a_node31"><a xlink:href="DebuggableError_8hpp.html" target="_top" xlink:title=" ">
<polygon fill="white" stroke="black" points="664.5,-280.5 664.5,-299.5 839.5,-299.5 839.5,-280.5 664.5,-280.5"/>
<text text-anchor="middle" x="752" y="-287.5" font-family="Helvetica,sans-Serif" font-size="10.00">Exceptions/DebuggableError.hpp</text>
</a>
</g>
</g>
<!-- Node22&#45;&gt;Node31 -->
<g id="edge71" class="edge">
<title>Node22&#45;&gt;Node31</title>
<path fill="none" stroke="midnightblue" d="M783.73,-336.08C778.36,-328.46 770.48,-317.26 763.92,-307.94"/>
<polygon fill="midnightblue" stroke="midnightblue" points="766.78,-305.91 758.16,-299.75 761.05,-309.94 766.78,-305.91"/>
</g>
<!-- Node23&#45;&gt;Node4 -->
<g id="edge52" class="edge">
<title>Node23&#45;&gt;Node4</title>
<path fill="none" stroke="midnightblue" d="M1054.14,-224.2C1053.85,-209.92 1050.99,-181.91 1034,-168 1026.89,-162.18 789.6,-140.81 662.53,-129.75"/>
<polygon fill="midnightblue" stroke="midnightblue" points="662.73,-126.25 652.46,-128.87 662.12,-133.22 662.73,-126.25"/>
</g>
<!-- Node23&#45;&gt;Node5 -->
<g id="edge51" class="edge">
<title>Node23&#45;&gt;Node5</title>
<path fill="none" stroke="midnightblue" d="M1094.25,-226.66C1171.61,-212.86 1328.72,-176.09 1273,-112 1178.64,-3.46 779.74,-47.09 619.38,-19.92"/>
<polygon fill="midnightblue" stroke="midnightblue" points="619.64,-16.4 609.17,-18.02 618.37,-23.29 619.64,-16.4"/>
</g>
<!-- Node23&#45;&gt;Node12 -->
<g id="edge53" class="edge">
<title>Node23&#45;&gt;Node12</title>
<path fill="none" stroke="midnightblue" d="M1013.87,-230.24C912.92,-223.29 640.27,-204.43 413,-188 401.26,-187.15 388.89,-186.24 376.71,-185.35"/>
<polygon fill="midnightblue" stroke="midnightblue" points="376.78,-181.84 366.55,-184.59 376.26,-188.82 376.78,-181.84"/>
</g>
<!-- Node23&#45;&gt;Node16 -->
<g id="edge55" class="edge">
<title>Node23&#45;&gt;Node16</title>
<path fill="none" stroke="midnightblue" d="M1041.79,-224.32C1030.22,-216.11 1012.62,-203.6 998.84,-193.81"/>
<polygon fill="midnightblue" stroke="midnightblue" points="1000.61,-190.77 990.43,-187.83 996.56,-196.48 1000.61,-190.77"/>
</g>
<!-- Node23&#45;&gt;Node20 -->
<g id="edge54" class="edge">
<title>Node23&#45;&gt;Node20</title>
<path fill="none" stroke="midnightblue" d="M1094.21,-225.43C1145.04,-215.87 1232.65,-199.39 1288.66,-188.85"/>
<polygon fill="midnightblue" stroke="midnightblue" points="1289.55,-192.24 1298.73,-186.95 1288.26,-185.36 1289.55,-192.24"/>
</g>
<!-- Node24 -->
<g id="node24" class="node">
<title>Node24</title>
<g id="a_node24"><a xlink:href="Vector2_8hpp.html" target="_top" xlink:title=" ">
<polygon fill="white" stroke="black" points="1082,-168.5 1082,-187.5 1204,-187.5 1204,-168.5 1082,-168.5"/>
<text text-anchor="middle" x="1143" y="-175.5" font-family="Helvetica,sans-Serif" font-size="10.00">../Models/Vector2.hpp</text>
</a>
</g>
</g>
<!-- Node23&#45;&gt;Node24 -->
<g id="edge56" class="edge">
<title>Node23&#45;&gt;Node24</title>
<path fill="none" stroke="midnightblue" d="M1068.3,-224.32C1082.18,-215.9 1103.49,-202.97 1119.8,-193.07"/>
<polygon fill="midnightblue" stroke="midnightblue" points="1122,-195.83 1128.74,-187.65 1118.37,-189.85 1122,-195.83"/>
</g>
<!-- Node25 -->
<g id="node25" class="node">
<title>Node25</title>
<g id="a_node25"><a xlink:title=" ">
<polygon fill="white" stroke="#bfbfbf" points="1207.5,-112.5 1207.5,-131.5 1264.5,-131.5 1264.5,-112.5 1207.5,-112.5"/>
<text text-anchor="middle" x="1236" y="-119.5" font-family="Helvetica,sans-Serif" font-size="10.00">ostream</text>
</a>
</g>
</g>
<!-- Node24&#45;&gt;Node25 -->
<g id="edge57" class="edge">
<title>Node24&#45;&gt;Node25</title>
<path fill="none" stroke="midnightblue" d="M1157.94,-168.32C1172.59,-159.82 1195.13,-146.73 1212.24,-136.8"/>
<polygon fill="midnightblue" stroke="midnightblue" points="1214.2,-139.7 1221.1,-131.65 1210.69,-133.65 1214.2,-139.7"/>
</g>
<!-- Node26 -->
<g id="node26" class="node">
<title>Node26</title>
<g id="a_node26"><a xlink:title=" ">
<polygon fill="white" stroke="#bfbfbf" points="1046.5,-112.5 1046.5,-131.5 1189.5,-131.5 1189.5,-112.5 1046.5,-112.5"/>
<text text-anchor="middle" x="1118" y="-119.5" font-family="Helvetica,sans-Serif" font-size="10.00">SFML/System/Vector2.hpp</text>
</a>
</g>
</g>
<!-- Node24&#45;&gt;Node26 -->
<g id="edge58" class="edge">
<title>Node24&#45;&gt;Node26</title>
<path fill="none" stroke="midnightblue" d="M1138.87,-168.08C1135.49,-160.77 1130.58,-150.18 1126.38,-141.1"/>
<polygon fill="midnightblue" stroke="midnightblue" points="1129.43,-139.36 1122.05,-131.75 1123.08,-142.3 1129.43,-139.36"/>
</g>
<!-- Node27&#45;&gt;Node4 -->
<g id="edge65" class="edge">
<title>Node27&#45;&gt;Node4</title>
<path fill="none" stroke="midnightblue" d="M848.17,-224.49C818.35,-211.77 760.12,-187.25 710,-168 679.37,-156.24 644.18,-143.76 618.79,-134.93"/>
<polygon fill="midnightblue" stroke="midnightblue" points="619.83,-131.58 609.23,-131.62 617.53,-138.2 619.83,-131.58"/>
</g>
<!-- Node27&#45;&gt;Node7 -->
<g id="edge60" class="edge">
<title>Node27&#45;&gt;Node7</title>
<path fill="none" stroke="midnightblue" d="M827.31,-226.88C767.86,-217.71 660.31,-200.19 623,-188 568.58,-170.23 554.44,-164.04 507,-132 459.59,-99.98 411.89,-51.79 388.62,-26.99"/>
<polygon fill="midnightblue" stroke="midnightblue" points="391.07,-24.49 381.7,-19.54 385.94,-29.25 391.07,-24.49"/>
</g>
<!-- Node27&#45;&gt;Node16 -->
<g id="edge66" class="edge">
<title>Node27&#45;&gt;Node16</title>
<path fill="none" stroke="midnightblue" d="M885.67,-224.32C903.39,-215.62 930.9,-202.12 951.29,-192.11"/>
<polygon fill="midnightblue" stroke="midnightblue" points="952.94,-195.2 960.37,-187.65 949.85,-188.92 952.94,-195.2"/>
</g>
<!-- Node27&#45;&gt;Node20 -->
<g id="edge69" class="edge">
<title>Node27&#45;&gt;Node20</title>
<path fill="none" stroke="midnightblue" d="M908.74,-228.35C994.57,-218.55 1193.91,-195.79 1288.88,-184.95"/>
<polygon fill="midnightblue" stroke="midnightblue" points="1289.3,-188.43 1298.84,-183.81 1288.51,-181.47 1289.3,-188.43"/>
</g>
<!-- Node28 -->
<g id="node28" class="node">
<title>Node28</title>
<g id="a_node28"><a xlink:href="DSP_8hpp.html" target="_top" xlink:title=" ">
<polygon fill="white" stroke="black" points="834,-168.5 834,-187.5 912,-187.5 912,-168.5 834,-168.5"/>
<text text-anchor="middle" x="873" y="-175.5" font-family="Helvetica,sans-Serif" font-size="10.00">DSP/DSP.hpp</text>
</a>
</g>
</g>
<!-- Node27&#45;&gt;Node28 -->
<g id="edge61" class="edge">
<title>Node27&#45;&gt;Node28</title>
<path fill="none" stroke="midnightblue" d="M868.83,-224.08C869.48,-217.01 870.42,-206.86 871.24,-197.99"/>
<polygon fill="midnightblue" stroke="midnightblue" points="874.75,-198.03 872.19,-187.75 867.78,-197.39 874.75,-198.03"/>
</g>
<!-- Node30 -->
<g id="node30" class="node">
<title>Node30</title>
<g id="a_node30"><a xlink:href="IPL_8hpp.html" target="_top" xlink:title=" ">
<polygon fill="white" stroke="black" points="632.5,-168.5 632.5,-187.5 701.5,-187.5 701.5,-168.5 632.5,-168.5"/>
<text text-anchor="middle" x="667" y="-175.5" font-family="Helvetica,sans-Serif" font-size="10.00">IPL/IPL.hpp</text>
</a>
</g>
</g>
<!-- Node27&#45;&gt;Node30 -->
<g id="edge67" class="edge">
<title>Node27&#45;&gt;Node30</title>
<path fill="none" stroke="midnightblue" d="M836.15,-224.44C801.6,-215.16 746.32,-200.31 708.42,-190.13"/>
<polygon fill="midnightblue" stroke="midnightblue" points="709.27,-186.73 698.7,-187.52 707.45,-193.49 709.27,-186.73"/>
</g>
<!-- Node28&#45;&gt;Node4 -->
<g id="edge64" class="edge">
<title>Node28&#45;&gt;Node4</title>
<path fill="none" stroke="midnightblue" d="M833.72,-169.66C783.64,-160.3 696.72,-144.06 639.79,-133.42"/>
<polygon fill="midnightblue" stroke="midnightblue" points="640.34,-129.97 629.87,-131.57 639.05,-136.85 640.34,-129.97"/>
</g>
<!-- Node28&#45;&gt;Node5 -->
<g id="edge62" class="edge">
<title>Node28&#45;&gt;Node5</title>
<path fill="none" stroke="midnightblue" d="M881.97,-168.37C894.48,-155.29 914.2,-130.05 901,-112 892.38,-100.21 699.34,-43.96 618.8,-20.9"/>
<polygon fill="midnightblue" stroke="midnightblue" points="619.68,-17.51 609.11,-18.13 617.76,-24.24 619.68,-17.51"/>
</g>
<!-- Node29 -->
<g id="node29" class="node">
<title>Node29</title>
<g id="a_node29"><a xlink:title=" ">
<polygon fill="white" stroke="#bfbfbf" points="948,-112.5 948,-131.5 990,-131.5 990,-112.5 948,-112.5"/>
<text text-anchor="middle" x="969" y="-119.5" font-family="Helvetica,sans-Serif" font-size="10.00">array</text>
</a>
</g>
</g>
<!-- Node28&#45;&gt;Node29 -->
<g id="edge63" class="edge">
<title>Node28&#45;&gt;Node29</title>
<path fill="none" stroke="midnightblue" d="M888.42,-168.32C903.54,-159.82 926.82,-146.73 944.47,-136.8"/>
<polygon fill="midnightblue" stroke="midnightblue" points="946.61,-139.61 953.61,-131.65 943.18,-133.51 946.61,-139.61"/>
</g>
<!-- Node30&#45;&gt;Node4 -->
<g id="edge68" class="edge">
<title>Node30&#45;&gt;Node4</title>
<path fill="none" stroke="midnightblue" d="M653.66,-168.32C640.84,-159.98 621.22,-147.21 606.06,-137.35"/>
<polygon fill="midnightblue" stroke="midnightblue" points="607.59,-134.17 597.3,-131.65 603.78,-140.04 607.59,-134.17"/>
</g>
<!-- Node32 -->
<g id="node32" class="node">
<title>Node32</title>
<g id="a_node32"><a xlink:title=" ">
<polygon fill="white" stroke="#bfbfbf" points="704.5,-224.5 704.5,-243.5 799.5,-243.5 799.5,-224.5 704.5,-224.5"/>
<text text-anchor="middle" x="752" y="-231.5" font-family="Helvetica,sans-Serif" font-size="10.00">bits/exception.h</text>
</a>
</g>
</g>
<!-- Node31&#45;&gt;Node32 -->
<g id="edge72" class="edge">
<title>Node31&#45;&gt;Node32</title>
<path fill="none" stroke="midnightblue" d="M752,-280.08C752,-273.01 752,-262.86 752,-253.99"/>
<polygon fill="midnightblue" stroke="midnightblue" points="755.5,-253.75 752,-243.75 748.5,-253.75 755.5,-253.75"/>
</g>
<!-- Node40 -->
<g id="node40" class="node">
<title>Node40</title>
<g id="a_node40"><a xlink:title=" ">
<polygon fill="white" stroke="#bfbfbf" points="1571.5,-336.5 1571.5,-355.5 1712.5,-355.5 1712.5,-336.5 1571.5,-336.5"/>
<text text-anchor="middle" x="1642" y="-343.5" font-family="Helvetica,sans-Serif" font-size="10.00">QtWidgets/QMainWindow</text>
</a>
</g>
</g>
<!-- Node39&#45;&gt;Node40 -->
<g id="edge81" class="edge">
<title>Node39&#45;&gt;Node40</title>
<path fill="none" stroke="midnightblue" d="M1504.83,-392.44C1532.25,-383.36 1575.78,-368.94 1606.43,-358.78"/>
<polygon fill="midnightblue" stroke="midnightblue" points="1607.9,-361.98 1616.29,-355.52 1605.7,-355.34 1607.9,-361.98"/>
</g>
</g>
</svg>
