<?xml version="1.0" encoding="UTF-8" standalone="no"?>
<!DOCTYPE svg PUBLIC "-//W3C//DTD SVG 1.1//EN"
 "http://www.w3.org/Graphics/SVG/1.1/DTD/svg11.dtd">
<!-- Generated by graphviz version 2.43.0 (0)
 -->
<!-- Title: sources Pages: 1 -->
<svg width="546pt" height="436pt"
 viewBox="0.00 0.00 546.00 436.00" xmlns="http://www.w3.org/2000/svg" xmlns:xlink="http://www.w3.org/1999/xlink">
<g id="graph0" class="graph" transform="scale(1 1) rotate(0) translate(4 432)">
<title>sources</title>
<polygon fill="white" stroke="transparent" points="-4,4 -4,-432 542,-432 542,4 -4,4"/>
<g id="clust1" class="cluster">
<title>clusterdir_08d237fc27d4ecd563f71c5d52f2fecc</title>
<g id="a_clust1"><a xlink:href="dir_08d237fc27d4ecd563f71c5d52f2fecc.html" target="_top">
<polygon fill="#eeeeff" stroke="black" points="8,-8 8,-420 530,-420 530,-8 8,-8"/>
</a>
</g>
</g>
<!-- dir_08d237fc27d4ecd563f71c5d52f2fecc -->
<g id="node1" class="node">
<title>dir_08d237fc27d4ecd563f71c5d52f2fecc</title>
<text text-anchor="middle" x="421" y="-391.5" font-family="Helvetica,sans-Serif" font-size="10.00">sources</text>
</g>
<!-- dir_c023b0da1327801e33139c8f2715cbe5 -->
<g id="node2" class="node">
<title>dir_c023b0da1327801e33139c8f2715cbe5</title>
<g id="a_node2"><a xlink:href="dir_c023b0da1327801e33139c8f2715cbe5.html" target="_top" xlink:title="APU">
<polygon fill="white" stroke="red" points="204,-268 150,-268 150,-232 204,-232 204,-268"/>
<text text-anchor="middle" x="177" y="-247.5" font-family="Helvetica,sans-Serif" font-size="10.00">APU</text>
</a>
</g>
</g>
<!-- dir_5da686cefd6752aaaa3bcabf1d868d88 -->
<g id="node6" class="node">
<title>dir_5da686cefd6752aaaa3bcabf1d868d88</title>
<g id="a_node6"><a xlink:href="dir_5da686cefd6752aaaa3bcabf1d868d88.html" target="_top" xlink:title="Exceptions">
<polygon fill="white" stroke="black" points="413,-52 343,-52 343,-16 413,-16 413,-52"/>
<text text-anchor="middle" x="378" y="-31.5" font-family="Helvetica,sans-Serif" font-size="10.00">Exceptions</text>
</a>
</g>
</g>
<!-- dir_c023b0da1327801e33139c8f2715cbe5&#45;&gt;dir_5da686cefd6752aaaa3bcabf1d868d88 -->
<g id="edge27" class="edge">
<title>dir_c023b0da1327801e33139c8f2715cbe5&#45;&gt;dir_5da686cefd6752aaaa3bcabf1d868d88</title>
<path fill="none" stroke="black" d="M174.05,-231.73C171.63,-213.38 169.8,-183.81 178,-160 191.12,-121.93 200.57,-111.87 233,-88 262.77,-66.09 302.55,-52.41 332.91,-44.44"/>
<polygon fill="black" stroke="black" points="333.97,-47.79 342.81,-41.96 332.26,-41 333.97,-47.79"/>
<g id="a_edge27&#45;headlabel"><a xlink:href="dir_000002_000012.html" target="_top" xlink:title="5">
<text text-anchor="middle" x="331.17" y="-48.91" font-family="Helvetica,sans-Serif" font-size="10.00">5</text>
</a>
</g>
</g>
<!-- dir_b6b0f0b7471b46e8c4cfc0f00c8af2f6 -->
<g id="node7" class="node">
<title>dir_b6b0f0b7471b46e8c4cfc0f00c8af2f6</title>
<g id="a_node7"><a xlink:href="dir_b6b0f0b7471b46e8c4cfc0f00c8af2f6.html" target="_top" xlink:title="Memory">
<polygon fill="white" stroke="black" points="318.5,-124 261.5,-124 261.5,-88 318.5,-88 318.5,-124"/>
<text text-anchor="middle" x="290" y="-103.5" font-family="Helvetica,sans-Serif" font-size="10.00">Memory</text>
</a>
</g>
</g>
<!-- dir_c023b0da1327801e33139c8f2715cbe5&#45;&gt;dir_b6b0f0b7471b46e8c4cfc0f00c8af2f6 -->
<g id="edge26" class="edge">
<title>dir_c023b0da1327801e33139c8f2715cbe5&#45;&gt;dir_b6b0f0b7471b46e8c4cfc0f00c8af2f6</title>
<path fill="none" stroke="black" d="M177.35,-231.92C178.56,-212.67 183.07,-181.27 199,-160 212.25,-142.31 233.29,-129.5 251.8,-120.92"/>
<polygon fill="black" stroke="black" points="253.43,-124.02 261.19,-116.81 250.63,-117.61 253.43,-124.02"/>
<g id="a_edge26&#45;headlabel"><a xlink:href="dir_000002_000013.html" target="_top" xlink:title="3">
<text text-anchor="middle" x="251.28" y="-125.56" font-family="Helvetica,sans-Serif" font-size="10.00">3</text>
</a>
</g>
</g>
<!-- dir_5cb6e1a8c8be2c39561c895666c60a3e -->
<g id="node8" class="node">
<title>dir_5cb6e1a8c8be2c39561c895666c60a3e</title>
<g id="a_node8"><a xlink:href="dir_5cb6e1a8c8be2c39561c895666c60a3e.html" target="_top" xlink:title="Models">
<polygon fill="white" stroke="black" points="166,-52 112,-52 112,-16 166,-16 166,-52"/>
<text text-anchor="middle" x="139" y="-31.5" font-family="Helvetica,sans-Serif" font-size="10.00">Models</text>
</a>
</g>
</g>
<!-- dir_c023b0da1327801e33139c8f2715cbe5&#45;&gt;dir_5cb6e1a8c8be2c39561c895666c60a3e -->
<g id="edge24" class="edge">
<title>dir_c023b0da1327801e33139c8f2715cbe5&#45;&gt;dir_5cb6e1a8c8be2c39561c895666c60a3e</title>
<path fill="none" stroke="black" d="M163.17,-231.99C156.01,-222.11 147.96,-209.07 144,-196 130.31,-150.79 132.51,-95.15 135.59,-62.53"/>
<polygon fill="black" stroke="black" points="139.09,-62.7 136.65,-52.39 132.13,-61.98 139.09,-62.7"/>
<g id="a_edge24&#45;headlabel"><a xlink:href="dir_000002_000014.html" target="_top" xlink:title="1">
<text text-anchor="middle" x="141.54" y="-64.07" font-family="Helvetica,sans-Serif" font-size="10.00">1</text>
</a>
</g>
</g>
<!-- dir_96c90ef27c711de2cda20e988f4ab9d6 -->
<g id="node10" class="node">
<title>dir_96c90ef27c711de2cda20e988f4ab9d6</title>
<g id="a_node10"><a xlink:href="dir_96c90ef27c711de2cda20e988f4ab9d6.html" target="_top" xlink:title="Ram">
<polygon fill="white" stroke="black" points="262,-196 208,-196 208,-160 262,-160 262,-196"/>
<text text-anchor="middle" x="235" y="-175.5" font-family="Helvetica,sans-Serif" font-size="10.00">Ram</text>
</a>
</g>
</g>
<!-- dir_c023b0da1327801e33139c8f2715cbe5&#45;&gt;dir_96c90ef27c711de2cda20e988f4ab9d6 -->
<g id="edge28" class="edge">
<title>dir_c023b0da1327801e33139c8f2715cbe5&#45;&gt;dir_96c90ef27c711de2cda20e988f4ab9d6</title>
<path fill="none" stroke="black" d="M191.34,-231.7C198.29,-223.3 206.77,-213.07 214.4,-203.86"/>
<polygon fill="black" stroke="black" points="217.14,-206.04 220.83,-196.1 211.75,-201.57 217.14,-206.04"/>
<g id="a_edge28&#45;headlabel"><a xlink:href="dir_000002_000016.html" target="_top" xlink:title="1">
<text text-anchor="middle" x="217.04" y="-208.12" font-family="Helvetica,sans-Serif" font-size="10.00">1</text>
</a>
</g>
</g>
<!-- dir_9d8b0bd023ebe51fb4b8ffcd38d3f5ed -->
<g id="node11" class="node">
<title>dir_9d8b0bd023ebe51fb4b8ffcd38d3f5ed</title>
<g id="a_node11"><a xlink:href="dir_9d8b0bd023ebe51fb4b8ffcd38d3f5ed.html" target="_top" xlink:title="Renderer">
<polygon fill="white" stroke="red" points="461.5,-196 400.5,-196 400.5,-160 461.5,-160 461.5,-196"/>
<text text-anchor="middle" x="431" y="-175.5" font-family="Helvetica,sans-Serif" font-size="10.00">Renderer</text>
</a>
</g>
</g>
<!-- dir_c023b0da1327801e33139c8f2715cbe5&#45;&gt;dir_9d8b0bd023ebe51fb4b8ffcd38d3f5ed -->
<g id="edge23" class="edge">
<title>dir_c023b0da1327801e33139c8f2715cbe5&#45;&gt;dir_9d8b0bd023ebe51fb4b8ffcd38d3f5ed</title>
<path fill="none" stroke="black" d="M204.18,-241.51C248.93,-229.18 338.36,-204.53 390.56,-190.14"/>
<polygon fill="black" stroke="black" points="391.77,-193.44 400.48,-187.41 389.91,-186.69 391.77,-193.44"/>
<g id="a_edge23&#45;headlabel"><a xlink:href="dir_000002_000017.html" target="_top" xlink:title="1">
<text text-anchor="middle" x="389.06" y="-194.63" font-family="Helvetica,sans-Serif" font-size="10.00">1</text>
</a>
</g>
</g>
<!-- dir_f5f18c638a333642b431bbbd93cbd24f -->
<g id="node12" class="node">
<title>dir_f5f18c638a333642b431bbbd93cbd24f</title>
<g id="a_node12"><a xlink:href="dir_f5f18c638a333642b431bbbd93cbd24f.html" target="_top" xlink:title="Utility">
<polygon fill="white" stroke="black" points="90,-196 36,-196 36,-160 90,-160 90,-196"/>
<text text-anchor="middle" x="63" y="-175.5" font-family="Helvetica,sans-Serif" font-size="10.00">Utility</text>
</a>
</g>
</g>
<!-- dir_c023b0da1327801e33139c8f2715cbe5&#45;&gt;dir_f5f18c638a333642b431bbbd93cbd24f -->
<g id="edge25" class="edge">
<title>dir_c023b0da1327801e33139c8f2715cbe5&#45;&gt;dir_f5f18c638a333642b431bbbd93cbd24f</title>
<path fill="none" stroke="black" d="M149.98,-232.41C134.76,-223.06 115.55,-211.27 99.06,-201.14"/>
<polygon fill="black" stroke="black" points="100.57,-197.96 90.22,-195.71 96.91,-203.93 100.57,-197.96"/>
<g id="a_edge25&#45;headlabel"><a xlink:href="dir_000002_000019.html" target="_top" xlink:title="3">
<text text-anchor="middle" x="105.12" y="-194.92" font-family="Helvetica,sans-Serif" font-size="10.00">3</text>
</a>
</g>
</g>
<!-- dir_acbfe30a39643d3dad4cea6c4be60bc9 -->
<g id="node3" class="node">
<title>dir_acbfe30a39643d3dad4cea6c4be60bc9</title>
<g id="a_node3"><a xlink:href="dir_acbfe30a39643d3dad4cea6c4be60bc9.html" target="_top" xlink:title="Cartridge">
<polygon fill="white" stroke="black" points="324,-268 262,-268 262,-232 324,-232 324,-268"/>
<text text-anchor="middle" x="293" y="-247.5" font-family="Helvetica,sans-Serif" font-size="10.00">Cartridge</text>
</a>
</g>
</g>
<!-- dir_acbfe30a39643d3dad4cea6c4be60bc9&#45;&gt;dir_5da686cefd6752aaaa3bcabf1d868d88 -->
<g id="edge19" class="edge">
<title>dir_acbfe30a39643d3dad4cea6c4be60bc9&#45;&gt;dir_5da686cefd6752aaaa3bcabf1d868d88</title>
<path fill="none" stroke="black" d="M299.81,-231.85C314.61,-194.6 349.77,-106.07 367.46,-61.54"/>
<polygon fill="black" stroke="black" points="370.72,-62.82 371.16,-52.23 364.21,-60.23 370.72,-62.82"/>
<g id="a_edge19&#45;headlabel"><a xlink:href="dir_000006_000012.html" target="_top" xlink:title="3">
<text text-anchor="middle" x="372.03" y="-64.71" font-family="Helvetica,sans-Serif" font-size="10.00">3</text>
</a>
</g>
</g>
<!-- dir_acbfe30a39643d3dad4cea6c4be60bc9&#45;&gt;dir_b6b0f0b7471b46e8c4cfc0f00c8af2f6 -->
<g id="edge18" class="edge">
<title>dir_acbfe30a39643d3dad4cea6c4be60bc9&#45;&gt;dir_b6b0f0b7471b46e8c4cfc0f00c8af2f6</title>
<path fill="none" stroke="black" d="M292.64,-231.87C292.13,-207.67 291.19,-163.21 290.58,-134.39"/>
<polygon fill="black" stroke="black" points="294.07,-134.11 290.36,-124.19 287.08,-134.26 294.07,-134.11"/>
<g id="a_edge18&#45;headlabel"><a xlink:href="dir_000006_000013.html" target="_top" xlink:title="2">
<text text-anchor="middle" x="296.99" y="-135.15" font-family="Helvetica,sans-Serif" font-size="10.00">2</text>
</a>
</g>
</g>
<!-- dir_acbfe30a39643d3dad4cea6c4be60bc9&#45;&gt;dir_5cb6e1a8c8be2c39561c895666c60a3e -->
<g id="edge17" class="edge">
<title>dir_acbfe30a39643d3dad4cea6c4be60bc9&#45;&gt;dir_5cb6e1a8c8be2c39561c895666c60a3e</title>
<path fill="none" stroke="black" d="M261.85,-237.86C241.55,-229.21 215.81,-215.4 199,-196 165.01,-156.78 149.5,-96.5 143.06,-61.9"/>
<polygon fill="black" stroke="black" points="146.51,-61.29 141.34,-52.04 139.61,-62.49 146.51,-61.29"/>
<g id="a_edge17&#45;headlabel"><a xlink:href="dir_000006_000014.html" target="_top" xlink:title="1">
<text text-anchor="middle" x="149.92" y="-61.85" font-family="Helvetica,sans-Serif" font-size="10.00">1</text>
</a>
</g>
</g>
<!-- dir_acbfe30a39643d3dad4cea6c4be60bc9&#45;&gt;dir_96c90ef27c711de2cda20e988f4ab9d6 -->
<g id="edge20" class="edge">
<title>dir_acbfe30a39643d3dad4cea6c4be60bc9&#45;&gt;dir_96c90ef27c711de2cda20e988f4ab9d6</title>
<path fill="none" stroke="black" d="M278.66,-231.7C271.71,-223.3 263.23,-213.07 255.6,-203.86"/>
<polygon fill="black" stroke="black" points="258.25,-201.57 249.17,-196.1 252.86,-206.04 258.25,-201.57"/>
<g id="a_edge20&#45;headlabel"><a xlink:href="dir_000006_000016.html" target="_top" xlink:title="1">
<text text-anchor="middle" x="262.73" y="-200.03" font-family="Helvetica,sans-Serif" font-size="10.00">1</text>
</a>
</g>
</g>
<!-- dir_a65246f7a5288ee65248a0302198d58d -->
<g id="node4" class="node">
<title>dir_a65246f7a5288ee65248a0302198d58d</title>
<g id="a_node4"><a xlink:href="dir_a65246f7a5288ee65248a0302198d58d.html" target="_top" xlink:title="CPU">
<polygon fill="white" stroke="red" points="336,-340 282,-340 282,-304 336,-304 336,-340"/>
<text text-anchor="middle" x="309" y="-319.5" font-family="Helvetica,sans-Serif" font-size="10.00">CPU</text>
</a>
</g>
</g>
<!-- dir_a65246f7a5288ee65248a0302198d58d&#45;&gt;dir_acbfe30a39643d3dad4cea6c4be60bc9 -->
<g id="edge2" class="edge">
<title>dir_a65246f7a5288ee65248a0302198d58d&#45;&gt;dir_acbfe30a39643d3dad4cea6c4be60bc9</title>
<path fill="none" stroke="black" d="M305.04,-303.7C303.28,-295.98 301.16,-286.71 299.2,-278.11"/>
<polygon fill="black" stroke="black" points="302.55,-277.07 296.91,-268.1 295.73,-278.63 302.55,-277.07"/>
<g id="a_edge2&#45;headlabel"><a xlink:href="dir_000007_000006.html" target="_top" xlink:title="1">
<text text-anchor="middle" x="306.12" y="-277.44" font-family="Helvetica,sans-Serif" font-size="10.00">1</text>
</a>
</g>
</g>
<!-- dir_a65246f7a5288ee65248a0302198d58d&#45;&gt;dir_5da686cefd6752aaaa3bcabf1d868d88 -->
<g id="edge4" class="edge">
<title>dir_a65246f7a5288ee65248a0302198d58d&#45;&gt;dir_5da686cefd6752aaaa3bcabf1d868d88</title>
<path fill="none" stroke="black" d="M336,-313.03C360.98,-304.7 398.19,-289.78 425,-268 455.84,-242.94 465.6,-233.75 478,-196 493.62,-148.44 476.83,-127.44 446,-88 437.26,-76.82 425.66,-66.65 414.53,-58.27"/>
<polygon fill="black" stroke="black" points="416.31,-55.25 406.16,-52.23 412.22,-60.92 416.31,-55.25"/>
<g id="a_edge4&#45;headlabel"><a xlink:href="dir_000007_000012.html" target="_top" xlink:title="3">
<text text-anchor="middle" x="420.89" y="-52.55" font-family="Helvetica,sans-Serif" font-size="10.00">3</text>
</a>
</g>
</g>
<!-- dir_a65246f7a5288ee65248a0302198d58d&#45;&gt;dir_b6b0f0b7471b46e8c4cfc0f00c8af2f6 -->
<g id="edge3" class="edge">
<title>dir_a65246f7a5288ee65248a0302198d58d&#45;&gt;dir_b6b0f0b7471b46e8c4cfc0f00c8af2f6</title>
<path fill="none" stroke="black" d="M318.95,-303.98C324.27,-293.89 330.27,-280.64 333,-268 336.38,-252.36 335.64,-247.78 333,-232 327.15,-196.99 312.67,-158.65 302.12,-133.79"/>
<polygon fill="black" stroke="black" points="305.21,-132.1 298.02,-124.32 298.79,-134.89 305.21,-132.1"/>
<g id="a_edge3&#45;headlabel"><a xlink:href="dir_000007_000013.html" target="_top" xlink:title="3">
<text text-anchor="middle" x="309.24" y="-131.77" font-family="Helvetica,sans-Serif" font-size="10.00">3</text>
</a>
</g>
</g>
<!-- dir_a65246f7a5288ee65248a0302198d58d&#45;&gt;dir_5cb6e1a8c8be2c39561c895666c60a3e -->
<g id="edge1" class="edge">
<title>dir_a65246f7a5288ee65248a0302198d58d&#45;&gt;dir_5cb6e1a8c8be2c39561c895666c60a3e</title>
<path fill="none" stroke="black" d="M281.74,-320.9C243.84,-319.16 175.95,-309.94 141,-268 91.78,-208.94 114.54,-109.15 129.53,-61.66"/>
<polygon fill="black" stroke="black" points="132.88,-62.68 132.67,-52.09 126.23,-60.5 132.88,-62.68"/>
<g id="a_edge1&#45;headlabel"><a xlink:href="dir_000007_000014.html" target="_top" xlink:title="5">
<text text-anchor="middle" x="134.46" y="-64.48" font-family="Helvetica,sans-Serif" font-size="10.00">5</text>
</a>
</g>
</g>
<!-- dir_189293303b628b823f13ae296b502d01 -->
<g id="node5" class="node">
<title>dir_189293303b628b823f13ae296b502d01</title>
<g id="a_node5"><a xlink:href="dir_189293303b628b823f13ae296b502d01.html" target="_top" xlink:title="Debugger">
<polygon fill="white" stroke="red" points="285,-412 221,-412 221,-376 285,-376 285,-412"/>
<text text-anchor="middle" x="253" y="-391.5" font-family="Helvetica,sans-Serif" font-size="10.00">Debugger</text>
</a>
</g>
</g>
<!-- dir_189293303b628b823f13ae296b502d01&#45;&gt;dir_c023b0da1327801e33139c8f2715cbe5 -->
<g id="edge14" class="edge">
<title>dir_189293303b628b823f13ae296b502d01&#45;&gt;dir_c023b0da1327801e33139c8f2715cbe5</title>
<path fill="none" stroke="black" d="M240.65,-375.75C233.61,-365.58 224.86,-352.33 218,-340 206.63,-319.55 195.64,-295.39 187.91,-277.4"/>
<polygon fill="black" stroke="black" points="191.09,-275.95 183.96,-268.11 184.65,-278.68 191.09,-275.95"/>
<g id="a_edge14&#45;headlabel"><a xlink:href="dir_000010_000002.html" target="_top" xlink:title="1">
<text text-anchor="middle" x="195.11" y="-275.65" font-family="Helvetica,sans-Serif" font-size="10.00">1</text>
</a>
</g>
</g>
<!-- dir_189293303b628b823f13ae296b502d01&#45;&gt;dir_acbfe30a39643d3dad4cea6c4be60bc9 -->
<g id="edge11" class="edge">
<title>dir_189293303b628b823f13ae296b502d01&#45;&gt;dir_acbfe30a39643d3dad4cea6c4be60bc9</title>
<path fill="none" stroke="black" d="M256.13,-375.75C259.59,-357.69 265.64,-328.58 273,-304 275.57,-295.43 278.84,-286.25 281.98,-277.99"/>
<polygon fill="black" stroke="black" points="285.33,-279.04 285.71,-268.46 278.81,-276.5 285.33,-279.04"/>
<g id="a_edge11&#45;headlabel"><a xlink:href="dir_000010_000006.html" target="_top" xlink:title="1">
<text text-anchor="middle" x="286.66" y="-280.92" font-family="Helvetica,sans-Serif" font-size="10.00">1</text>
</a>
</g>
</g>
<!-- dir_189293303b628b823f13ae296b502d01&#45;&gt;dir_a65246f7a5288ee65248a0302198d58d -->
<g id="edge7" class="edge">
<title>dir_189293303b628b823f13ae296b502d01&#45;&gt;dir_a65246f7a5288ee65248a0302198d58d</title>
<path fill="none" stroke="black" d="M266.84,-375.7C273.49,-367.39 281.58,-357.28 288.89,-348.14"/>
<polygon fill="black" stroke="black" points="291.8,-350.1 295.32,-340.1 286.34,-345.73 291.8,-350.1"/>
<g id="a_edge7&#45;headlabel"><a xlink:href="dir_000010_000007.html" target="_top" xlink:title="1">
<text text-anchor="middle" x="291.77" y="-352.18" font-family="Helvetica,sans-Serif" font-size="10.00">1</text>
</a>
</g>
</g>
<!-- dir_189293303b628b823f13ae296b502d01&#45;&gt;dir_5da686cefd6752aaaa3bcabf1d868d88 -->
<g id="edge13" class="edge">
<title>dir_189293303b628b823f13ae296b502d01&#45;&gt;dir_5da686cefd6752aaaa3bcabf1d868d88</title>
<path fill="none" stroke="black" d="M285.06,-390.78C356.2,-383.95 521,-356.71 521,-251 521,-251 521,-251 521,-177 521,-120.61 464.32,-78.94 422.33,-55.8"/>
<polygon fill="black" stroke="black" points="423.82,-52.63 413.35,-51.01 420.52,-58.81 423.82,-52.63"/>
<g id="a_edge13&#45;headlabel"><a xlink:href="dir_000010_000012.html" target="_top" xlink:title="5">
<text text-anchor="middle" x="428.33" y="-49.32" font-family="Helvetica,sans-Serif" font-size="10.00">5</text>
</a>
</g>
</g>
<!-- dir_189293303b628b823f13ae296b502d01&#45;&gt;dir_b6b0f0b7471b46e8c4cfc0f00c8af2f6 -->
<g id="edge12" class="edge">
<title>dir_189293303b628b823f13ae296b502d01&#45;&gt;dir_b6b0f0b7471b46e8c4cfc0f00c8af2f6</title>
<path fill="none" stroke="black" d="M250.44,-375.78C246.59,-346 240.93,-283.14 253,-232 257.11,-214.59 265.09,-212.88 271,-196 278.08,-175.78 283,-152 286.05,-134.12"/>
<polygon fill="black" stroke="black" points="289.53,-134.51 287.67,-124.08 282.62,-133.39 289.53,-134.51"/>
<g id="a_edge12&#45;headlabel"><a xlink:href="dir_000010_000013.html" target="_top" xlink:title="4">
<text text-anchor="middle" x="291.76" y="-136.01" font-family="Helvetica,sans-Serif" font-size="10.00">4</text>
</a>
</g>
</g>
<!-- dir_189293303b628b823f13ae296b502d01&#45;&gt;dir_5cb6e1a8c8be2c39561c895666c60a3e -->
<g id="edge9" class="edge">
<title>dir_189293303b628b823f13ae296b502d01&#45;&gt;dir_5cb6e1a8c8be2c39561c895666c60a3e</title>
<path fill="none" stroke="black" d="M220.68,-388.78C156.05,-378.34 17,-344.96 17,-251 17,-251 17,-251 17,-177 17,-123.67 67.13,-80.36 103.12,-56.14"/>
<polygon fill="black" stroke="black" points="105.46,-58.79 111.92,-50.4 101.64,-52.93 105.46,-58.79"/>
<g id="a_edge9&#45;headlabel"><a xlink:href="dir_000010_000014.html" target="_top" xlink:title="1">
<text text-anchor="middle" x="104" y="-60.64" font-family="Helvetica,sans-Serif" font-size="10.00">1</text>
</a>
</g>
</g>
<!-- dir_596bfb3d48f2f085998f77aaf2d42ecf -->
<g id="node9" class="node">
<title>dir_596bfb3d48f2f085998f77aaf2d42ecf</title>
<g id="a_node9"><a xlink:href="dir_596bfb3d48f2f085998f77aaf2d42ecf.html" target="_top" xlink:title="PPU">
<polygon fill="white" stroke="black" points="416,-268 362,-268 362,-232 416,-232 416,-268"/>
<text text-anchor="middle" x="389" y="-247.5" font-family="Helvetica,sans-Serif" font-size="10.00">PPU</text>
</a>
</g>
</g>
<!-- dir_189293303b628b823f13ae296b502d01&#45;&gt;dir_596bfb3d48f2f085998f77aaf2d42ecf -->
<g id="edge15" class="edge">
<title>dir_189293303b628b823f13ae296b502d01&#45;&gt;dir_596bfb3d48f2f085998f77aaf2d42ecf</title>
<path fill="none" stroke="black" d="M285.13,-380.23C304.41,-371.28 328.35,-357.74 345,-340 361.7,-322.21 373.38,-296.88 380.49,-277.79"/>
<polygon fill="black" stroke="black" points="383.86,-278.78 383.89,-268.18 377.26,-276.44 383.86,-278.78"/>
<g id="a_edge15&#45;headlabel"><a xlink:href="dir_000010_000015.html" target="_top" xlink:title="1">
<text text-anchor="middle" x="385.34" y="-280.61" font-family="Helvetica,sans-Serif" font-size="10.00">1</text>
</a>
</g>
</g>
<!-- dir_189293303b628b823f13ae296b502d01&#45;&gt;dir_96c90ef27c711de2cda20e988f4ab9d6 -->
<g id="edge16" class="edge">
<title>dir_189293303b628b823f13ae296b502d01&#45;&gt;dir_96c90ef27c711de2cda20e988f4ab9d6</title>
<path fill="none" stroke="black" d="M246.85,-375.58C243.55,-365.36 239.8,-352.11 238,-340 231.1,-293.49 231.97,-238.61 233.38,-206.43"/>
<polygon fill="black" stroke="black" points="236.9,-206.2 233.89,-196.04 229.91,-205.86 236.9,-206.2"/>
<g id="a_edge16&#45;headlabel"><a xlink:href="dir_000010_000016.html" target="_top" xlink:title="1">
<text text-anchor="middle" x="239.56" y="-207.43" font-family="Helvetica,sans-Serif" font-size="10.00">1</text>
</a>
</g>
</g>
<!-- dir_189293303b628b823f13ae296b502d01&#45;&gt;dir_9d8b0bd023ebe51fb4b8ffcd38d3f5ed -->
<g id="edge8" class="edge">
<title>dir_189293303b628b823f13ae296b502d01&#45;&gt;dir_9d8b0bd023ebe51fb4b8ffcd38d3f5ed</title>
<path fill="none" stroke="black" d="M285.24,-381.73C327.74,-364.8 400.04,-328.18 425,-268 433.09,-248.48 434.26,-224.48 433.59,-206.33"/>
<polygon fill="black" stroke="black" points="437.07,-205.91 433,-196.13 430.09,-206.32 437.07,-205.91"/>
<g id="a_edge8&#45;headlabel"><a xlink:href="dir_000010_000017.html" target="_top" xlink:title="1">
<text text-anchor="middle" x="440.12" y="-206.84" font-family="Helvetica,sans-Serif" font-size="10.00">1</text>
</a>
</g>
</g>
<!-- dir_189293303b628b823f13ae296b502d01&#45;&gt;dir_f5f18c638a333642b431bbbd93cbd24f -->
<g id="edge10" class="edge">
<title>dir_189293303b628b823f13ae296b502d01&#45;&gt;dir_f5f18c638a333642b431bbbd93cbd24f</title>
<path fill="none" stroke="black" d="M226.22,-375.99C193.75,-354.24 139.05,-313.89 104,-268 89.62,-249.18 78.76,-224.51 71.84,-205.91"/>
<polygon fill="black" stroke="black" points="75.06,-204.53 68.4,-196.29 68.47,-206.88 75.06,-204.53"/>
<g id="a_edge10&#45;headlabel"><a xlink:href="dir_000010_000019.html" target="_top" xlink:title="7">
<text text-anchor="middle" x="78.94" y="-204.46" font-family="Helvetica,sans-Serif" font-size="10.00">7</text>
</a>
</g>
</g>
<!-- dir_b6b0f0b7471b46e8c4cfc0f00c8af2f6&#45;&gt;dir_5da686cefd6752aaaa3bcabf1d868d88 -->
<g id="edge22" class="edge">
<title>dir_b6b0f0b7471b46e8c4cfc0f00c8af2f6&#45;&gt;dir_5da686cefd6752aaaa3bcabf1d868d88</title>
<path fill="none" stroke="black" d="M311.75,-87.7C322.84,-78.88 336.47,-68.03 348.49,-58.47"/>
<polygon fill="black" stroke="black" points="350.85,-61.07 356.5,-52.1 346.49,-55.59 350.85,-61.07"/>
<g id="a_edge22&#45;headlabel"><a xlink:href="dir_000013_000012.html" target="_top" xlink:title="2">
<text text-anchor="middle" x="349.8" y="-63.03" font-family="Helvetica,sans-Serif" font-size="10.00">2</text>
</a>
</g>
</g>
<!-- dir_b6b0f0b7471b46e8c4cfc0f00c8af2f6&#45;&gt;dir_5cb6e1a8c8be2c39561c895666c60a3e -->
<g id="edge21" class="edge">
<title>dir_b6b0f0b7471b46e8c4cfc0f00c8af2f6&#45;&gt;dir_5cb6e1a8c8be2c39561c895666c60a3e</title>
<path fill="none" stroke="black" d="M261.24,-91.67C236.86,-80.36 201.74,-64.09 175.4,-51.87"/>
<polygon fill="black" stroke="black" points="176.67,-48.61 166.13,-47.58 173.73,-54.96 176.67,-48.61"/>
<g id="a_edge21&#45;headlabel"><a xlink:href="dir_000013_000014.html" target="_top" xlink:title="4">
<text text-anchor="middle" x="181.13" y="-45.04" font-family="Helvetica,sans-Serif" font-size="10.00">4</text>
</a>
</g>
</g>
<!-- dir_596bfb3d48f2f085998f77aaf2d42ecf&#45;&gt;dir_5da686cefd6752aaaa3bcabf1d868d88 -->
<g id="edge32" class="edge">
<title>dir_596bfb3d48f2f085998f77aaf2d42ecf&#45;&gt;dir_5da686cefd6752aaaa3bcabf1d868d88</title>
<path fill="none" stroke="black" d="M416.05,-239.58C435.18,-231.33 459.41,-217.29 471,-196 478.65,-181.95 476.03,-175.19 471,-160 457.86,-120.32 426.7,-83 404.06,-59.65"/>
<polygon fill="black" stroke="black" points="406.27,-56.91 396.74,-52.28 401.3,-61.84 406.27,-56.91"/>
<g id="a_edge32&#45;headlabel"><a xlink:href="dir_000015_000012.html" target="_top" xlink:title="2">
<text text-anchor="middle" x="410.82" y="-54.96" font-family="Helvetica,sans-Serif" font-size="10.00">2</text>
</a>
</g>
</g>
<!-- dir_596bfb3d48f2f085998f77aaf2d42ecf&#45;&gt;dir_b6b0f0b7471b46e8c4cfc0f00c8af2f6 -->
<g id="edge31" class="edge">
<title>dir_596bfb3d48f2f085998f77aaf2d42ecf&#45;&gt;dir_b6b0f0b7471b46e8c4cfc0f00c8af2f6</title>
<path fill="none" stroke="black" d="M377.06,-231.87C359.81,-207.14 327.82,-161.24 307.79,-132.51"/>
<polygon fill="black" stroke="black" points="310.57,-130.39 301.98,-124.19 304.83,-134.39 310.57,-130.39"/>
<g id="a_edge31&#45;headlabel"><a xlink:href="dir_000015_000013.html" target="_top" xlink:title="2">
<text text-anchor="middle" x="314.96" y="-129.22" font-family="Helvetica,sans-Serif" font-size="10.00">2</text>
</a>
</g>
</g>
<!-- dir_596bfb3d48f2f085998f77aaf2d42ecf&#45;&gt;dir_5cb6e1a8c8be2c39561c895666c60a3e -->
<g id="edge30" class="edge">
<title>dir_596bfb3d48f2f085998f77aaf2d42ecf&#45;&gt;dir_5cb6e1a8c8be2c39561c895666c60a3e</title>
<path fill="none" stroke="black" d="M387.5,-231.88C383.69,-199.05 370.67,-127.04 328,-88 285.93,-49.51 218.12,-38.69 176.18,-35.82"/>
<polygon fill="black" stroke="black" points="176.29,-32.32 166.11,-35.25 175.89,-39.31 176.29,-32.32"/>
<g id="a_edge30&#45;headlabel"><a xlink:href="dir_000015_000014.html" target="_top" xlink:title="2">
<text text-anchor="middle" x="180.04" y="-27.19" font-family="Helvetica,sans-Serif" font-size="10.00">2</text>
</a>
</g>
</g>
<!-- dir_596bfb3d48f2f085998f77aaf2d42ecf&#45;&gt;dir_96c90ef27c711de2cda20e988f4ab9d6 -->
<g id="edge33" class="edge">
<title>dir_596bfb3d48f2f085998f77aaf2d42ecf&#45;&gt;dir_96c90ef27c711de2cda20e988f4ab9d6</title>
<path fill="none" stroke="black" d="M361.82,-236.65C336.72,-225.24 299.23,-208.2 271.52,-195.6"/>
<polygon fill="black" stroke="black" points="272.72,-192.3 262.16,-191.35 269.82,-198.67 272.72,-192.3"/>
<g id="a_edge33&#45;headlabel"><a xlink:href="dir_000015_000016.html" target="_top" xlink:title="1">
<text text-anchor="middle" x="277.16" y="-188.7" font-family="Helvetica,sans-Serif" font-size="10.00">1</text>
</a>
</g>
</g>
<!-- dir_596bfb3d48f2f085998f77aaf2d42ecf&#45;&gt;dir_9d8b0bd023ebe51fb4b8ffcd38d3f5ed -->
<g id="edge29" class="edge">
<title>dir_596bfb3d48f2f085998f77aaf2d42ecf&#45;&gt;dir_9d8b0bd023ebe51fb4b8ffcd38d3f5ed</title>
<path fill="none" stroke="black" d="M399.38,-231.7C404.26,-223.56 410.19,-213.69 415.58,-204.7"/>
<polygon fill="black" stroke="black" points="418.59,-206.48 420.74,-196.1 412.59,-202.88 418.59,-206.48"/>
<g id="a_edge29&#45;headlabel"><a xlink:href="dir_000015_000017.html" target="_top" xlink:title="1">
<text text-anchor="middle" x="419.18" y="-208.52" font-family="Helvetica,sans-Serif" font-size="10.00">1</text>
</a>
</g>
</g>
<!-- dir_96c90ef27c711de2cda20e988f4ab9d6&#45;&gt;dir_5da686cefd6752aaaa3bcabf1d868d88 -->
<g id="edge36" class="edge">
<title>dir_96c90ef27c711de2cda20e988f4ab9d6&#45;&gt;dir_5da686cefd6752aaaa3bcabf1d868d88</title>
<path fill="none" stroke="black" d="M233.98,-159.95C233.73,-140.43 236.25,-108.52 253,-88 272.83,-63.71 305.79,-50.36 332.9,-43.13"/>
<polygon fill="black" stroke="black" points="334.08,-46.44 342.96,-40.65 332.41,-39.64 334.08,-46.44"/>
<g id="a_edge36&#45;headlabel"><a xlink:href="dir_000016_000012.html" target="_top" xlink:title="2">
<text text-anchor="middle" x="331.27" y="-47.56" font-family="Helvetica,sans-Serif" font-size="10.00">2</text>
</a>
</g>
</g>
<!-- dir_96c90ef27c711de2cda20e988f4ab9d6&#45;&gt;dir_b6b0f0b7471b46e8c4cfc0f00c8af2f6 -->
<g id="edge35" class="edge">
<title>dir_96c90ef27c711de2cda20e988f4ab9d6&#45;&gt;dir_b6b0f0b7471b46e8c4cfc0f00c8af2f6</title>
<path fill="none" stroke="black" d="M248.6,-159.7C255.12,-151.39 263.07,-141.28 270.25,-132.14"/>
<polygon fill="black" stroke="black" points="273.13,-134.13 276.56,-124.1 267.63,-129.81 273.13,-134.13"/>
<g id="a_edge35&#45;headlabel"><a xlink:href="dir_000016_000013.html" target="_top" xlink:title="1">
<text text-anchor="middle" x="273.15" y="-136.21" font-family="Helvetica,sans-Serif" font-size="10.00">1</text>
</a>
</g>
</g>
<!-- dir_96c90ef27c711de2cda20e988f4ab9d6&#45;&gt;dir_5cb6e1a8c8be2c39561c895666c60a3e -->
<g id="edge34" class="edge">
<title>dir_96c90ef27c711de2cda20e988f4ab9d6&#45;&gt;dir_5cb6e1a8c8be2c39561c895666c60a3e</title>
<path fill="none" stroke="black" d="M223.42,-159.87C206.7,-135.14 175.67,-89.24 156.25,-60.51"/>
<polygon fill="black" stroke="black" points="159.12,-58.51 150.62,-52.19 153.32,-62.43 159.12,-58.51"/>
<g id="a_edge34&#45;headlabel"><a xlink:href="dir_000016_000014.html" target="_top" xlink:title="1">
<text text-anchor="middle" x="163.49" y="-57.4" font-family="Helvetica,sans-Serif" font-size="10.00">1</text>
</a>
</g>
</g>
<!-- dir_9d8b0bd023ebe51fb4b8ffcd38d3f5ed&#45;&gt;dir_5da686cefd6752aaaa3bcabf1d868d88 -->
<g id="edge5" class="edge">
<title>dir_9d8b0bd023ebe51fb4b8ffcd38d3f5ed&#45;&gt;dir_5da686cefd6752aaaa3bcabf1d868d88</title>
<path fill="none" stroke="black" d="M424.61,-159.87C415.49,-135.46 398.69,-90.43 387.94,-61.64"/>
<polygon fill="black" stroke="black" points="391.19,-60.33 384.42,-52.19 384.63,-62.78 391.19,-60.33"/>
<g id="a_edge5&#45;headlabel"><a xlink:href="dir_000017_000012.html" target="_top" xlink:title="1">
<text text-anchor="middle" x="395.11" y="-60.21" font-family="Helvetica,sans-Serif" font-size="10.00">1</text>
</a>
</g>
</g>
<!-- dir_f5f18c638a333642b431bbbd93cbd24f&#45;&gt;dir_5cb6e1a8c8be2c39561c895666c60a3e -->
<g id="edge6" class="edge">
<title>dir_f5f18c638a333642b431bbbd93cbd24f&#45;&gt;dir_5cb6e1a8c8be2c39561c895666c60a3e</title>
<path fill="none" stroke="black" d="M69.96,-159.89C77.58,-141.69 90.52,-112.23 104,-88 109.09,-78.85 115.23,-69.19 120.92,-60.66"/>
<polygon fill="black" stroke="black" points="123.91,-62.49 126.65,-52.25 118.13,-58.55 123.91,-62.49"/>
<g id="a_edge6&#45;headlabel"><a xlink:href="dir_000019_000014.html" target="_top" xlink:title="1">
<text text-anchor="middle" x="124.24" y="-64.56" font-family="Helvetica,sans-Serif" font-size="10.00">1</text>
</a>
</g>
</g>
</g>
</svg>
