<?xml version="1.0" encoding="UTF-8" standalone="no"?>
<!DOCTYPE svg PUBLIC "-//W3C//DTD SVG 1.1//EN"
 "http://www.w3.org/Graphics/SVG/1.1/DTD/svg11.dtd">
<!-- Generated by graphviz version 2.43.0 (0)
 -->
<!-- Title: sources/Renderer/QtRenderer Pages: 1 -->
<svg width="112pt" height="151pt"
 viewBox="0.00 0.00 112.00 151.00" xmlns="http://www.w3.org/2000/svg" xmlns:xlink="http://www.w3.org/1999/xlink">
<g id="graph0" class="graph" transform="scale(1 1) rotate(0) translate(4 147)">
<title>sources/Renderer/QtRenderer</title>
<polygon fill="white" stroke="transparent" points="-4,4 -4,-147 108,-147 108,4 -4,4"/>
<g id="clust1" class="cluster">
<title>clusterdir_9d8b0bd023ebe51fb4b8ffcd38d3f5ed</title>
<g id="a_clust1"><a xlink:href="dir_9d8b0bd023ebe51fb4b8ffcd38d3f5ed.html" target="_top" xlink:title="Renderer">
<polygon fill="#ddddee" stroke="black" points="8,-64 8,-135 96,-135 96,-64 8,-64"/>
<text text-anchor="middle" x="52" y="-123" font-family="Helvetica,sans-Serif" font-size="10.00">Renderer</text>
</a>
</g>
</g>
<!-- dir_8635253785d16d7f974cb7d01f3ba75f -->
<g id="node1" class="node">
<title>dir_8635253785d16d7f974cb7d01f3ba75f</title>
<g id="a_node1"><a xlink:href="dir_8635253785d16d7f974cb7d01f3ba75f.html" target="_top" xlink:title="QtRenderer">
<polygon fill="#eeeeff" stroke="black" points="88,-108 16,-108 16,-72 88,-72 88,-108"/>
<text text-anchor="middle" x="52" y="-87.5" font-family="Helvetica,sans-Serif" font-size="10.00">QtRenderer</text>
</a>
</g>
</g>
<!-- dir_5da686cefd6752aaaa3bcabf1d868d88 -->
<g id="node2" class="node">
<title>dir_5da686cefd6752aaaa3bcabf1d868d88</title>
<g id="a_node2"><a xlink:href="dir_5da686cefd6752aaaa3bcabf1d868d88.html" target="_top" xlink:title="Exceptions">
<polygon fill="none" stroke="black" points="87,-36 17,-36 17,0 87,0 87,-36"/>
<text text-anchor="middle" x="52" y="-15.5" font-family="Helvetica,sans-Serif" font-size="10.00">Exceptions</text>
</a>
</g>
</g>
<!-- dir_8635253785d16d7f974cb7d01f3ba75f&#45;&gt;dir_5da686cefd6752aaaa3bcabf1d868d88 -->
<g id="edge1" class="edge">
<title>dir_8635253785d16d7f974cb7d01f3ba75f&#45;&gt;dir_5da686cefd6752aaaa3bcabf1d868d88</title>
<path fill="none" stroke="black" d="M52,-71.7C52,-63.98 52,-54.71 52,-46.11"/>
<polygon fill="black" stroke="black" points="55.5,-46.1 52,-36.1 48.5,-46.1 55.5,-46.1"/>
<g id="a_edge1&#45;headlabel"><a xlink:href="dir_000018_000012.html" target="_top" xlink:title="1">
<text text-anchor="middle" x="58.34" y="-47.2" font-family="Helvetica,sans-Serif" font-size="10.00">1</text>
</a>
</g>
</g>
</g>
</svg>
