<?xml version="1.0" encoding="UTF-8" standalone="no"?>
<!DOCTYPE svg PUBLIC "-//W3C//DTD SVG 1.1//EN"
 "http://www.w3.org/Graphics/SVG/1.1/DTD/svg11.dtd">
<!-- Generated by graphviz version 2.43.0 (0)
 -->
<!-- Title: sources/CPU Pages: 1 -->
<svg width="300pt" height="303pt"
 viewBox="0.00 0.00 300.33 303.00" xmlns="http://www.w3.org/2000/svg" xmlns:xlink="http://www.w3.org/1999/xlink">
<g id="graph0" class="graph" transform="scale(1 1) rotate(0) translate(4 299)">
<title>sources/CPU</title>
<polygon fill="white" stroke="transparent" points="-4,4 -4,-299 296.33,-299 296.33,4 -4,4"/>
<g id="clust1" class="cluster">
<title>clusterdir_08d237fc27d4ecd563f71c5d52f2fecc</title>
<g id="a_clust1"><a xlink:href="dir_08d237fc27d4ecd563f71c5d52f2fecc.html" target="_top" xlink:title="sources">
<polygon fill="#ddddee" stroke="black" points="8,-128 8,-287 186,-287 186,-128 8,-128"/>
<text text-anchor="middle" x="97" y="-275" font-family="Helvetica,sans-Serif" font-size="10.00">sources</text>
</a>
</g>
</g>
<g id="clust2" class="cluster">
<title>clusterdir_a65246f7a5288ee65248a0302198d58d</title>
<g id="a_clust2"><a xlink:href="dir_a65246f7a5288ee65248a0302198d58d.html" target="_top">
<polygon fill="#eeeeff" stroke="black" points="16,-136 16,-260 178,-260 178,-136 16,-136"/>
</a>
</g>
</g>
<!-- dir_a65246f7a5288ee65248a0302198d58d -->
<g id="node1" class="node">
<title>dir_a65246f7a5288ee65248a0302198d58d</title>
<text text-anchor="middle" x="143" y="-231.5" font-family="Helvetica,sans-Serif" font-size="10.00">CPU</text>
</g>
<!-- dir_a27aee9ec8c7af1c7285a99fc42da75a -->
<g id="node2" class="node">
<title>dir_a27aee9ec8c7af1c7285a99fc42da75a</title>
<g id="a_node2"><a xlink:href="dir_a27aee9ec8c7af1c7285a99fc42da75a.html" target="_top" xlink:title="DMA">
<polygon fill="white" stroke="black" points="154,-180 100,-180 100,-144 154,-144 154,-180"/>
<text text-anchor="middle" x="127" y="-159.5" font-family="Helvetica,sans-Serif" font-size="10.00">DMA</text>
</a>
</g>
</g>
<!-- dir_a65246f7a5288ee65248a0302198d58d&#45;&gt;dir_a27aee9ec8c7af1c7285a99fc42da75a -->
<g id="edge4" class="edge">
<title>dir_a65246f7a5288ee65248a0302198d58d&#45;&gt;dir_a27aee9ec8c7af1c7285a99fc42da75a</title>
<path fill="none" stroke="black" d="M139.04,-215.7C137.28,-207.98 135.16,-198.71 133.2,-190.11"/>
<polygon fill="black" stroke="black" points="136.55,-189.07 130.91,-180.1 129.73,-190.63 136.55,-189.07"/>
<g id="a_edge4&#45;headlabel"><a xlink:href="dir_000007_000008.html" target="_top" xlink:title="1">
<text text-anchor="middle" x="140.12" y="-189.44" font-family="Helvetica,sans-Serif" font-size="10.00">1</text>
</a>
</g>
</g>
<!-- dir_5cb6e1a8c8be2c39561c895666c60a3e -->
<g id="node4" class="node">
<title>dir_5cb6e1a8c8be2c39561c895666c60a3e</title>
<g id="a_node4"><a xlink:href="dir_5cb6e1a8c8be2c39561c895666c60a3e.html" target="_top" xlink:title="Models">
<polygon fill="none" stroke="black" points="116,-36 62,-36 62,0 116,0 116,-36"/>
<text text-anchor="middle" x="89" y="-15.5" font-family="Helvetica,sans-Serif" font-size="10.00">Models</text>
</a>
</g>
</g>
<!-- dir_a65246f7a5288ee65248a0302198d58d&#45;&gt;dir_5cb6e1a8c8be2c39561c895666c60a3e -->
<g id="edge5" class="edge">
<title>dir_a65246f7a5288ee65248a0302198d58d&#45;&gt;dir_5cb6e1a8c8be2c39561c895666c60a3e</title>
<path fill="none" stroke="black" d="M119.32,-215.88C108.54,-206.61 96.89,-194.16 91,-180 72.69,-135.98 77.89,-79.16 83.4,-46.13"/>
<polygon fill="black" stroke="black" points="86.84,-46.75 85.17,-36.29 79.95,-45.51 86.84,-46.75"/>
<g id="a_edge5&#45;headlabel"><a xlink:href="dir_000007_000014.html" target="_top" xlink:title="5">
<text text-anchor="middle" x="89" y="-48.29" font-family="Helvetica,sans-Serif" font-size="10.00">5</text>
</a>
</g>
</g>
<!-- dir_acbfe30a39643d3dad4cea6c4be60bc9 -->
<g id="node5" class="node">
<title>dir_acbfe30a39643d3dad4cea6c4be60bc9</title>
<g id="a_node5"><a xlink:href="dir_acbfe30a39643d3dad4cea6c4be60bc9.html" target="_top" xlink:title="Cartridge">
<polygon fill="none" stroke="black" points="272,-180 210,-180 210,-144 272,-144 272,-180"/>
<text text-anchor="middle" x="241" y="-159.5" font-family="Helvetica,sans-Serif" font-size="10.00">Cartridge</text>
</a>
</g>
</g>
<!-- dir_a65246f7a5288ee65248a0302198d58d&#45;&gt;dir_acbfe30a39643d3dad4cea6c4be60bc9 -->
<g id="edge6" class="edge">
<title>dir_a65246f7a5288ee65248a0302198d58d&#45;&gt;dir_acbfe30a39643d3dad4cea6c4be60bc9</title>
<path fill="none" stroke="black" d="M166.97,-215.88C179.55,-206.89 195.13,-195.76 208.75,-186.03"/>
<polygon fill="black" stroke="black" points="210.83,-188.85 216.93,-180.19 206.76,-183.15 210.83,-188.85"/>
<g id="a_edge6&#45;headlabel"><a xlink:href="dir_000007_000006.html" target="_top" xlink:title="1">
<text text-anchor="middle" x="209.56" y="-190.75" font-family="Helvetica,sans-Serif" font-size="10.00">1</text>
</a>
</g>
</g>
<!-- dir_b6b0f0b7471b46e8c4cfc0f00c8af2f6 -->
<g id="node6" class="node">
<title>dir_b6b0f0b7471b46e8c4cfc0f00c8af2f6</title>
<g id="a_node6"><a xlink:href="dir_b6b0f0b7471b46e8c4cfc0f00c8af2f6.html" target="_top" xlink:title="Memory">
<polygon fill="none" stroke="black" points="212.5,-108 155.5,-108 155.5,-72 212.5,-72 212.5,-108"/>
<text text-anchor="middle" x="184" y="-87.5" font-family="Helvetica,sans-Serif" font-size="10.00">Memory</text>
</a>
</g>
</g>
<!-- dir_a65246f7a5288ee65248a0302198d58d&#45;&gt;dir_b6b0f0b7471b46e8c4cfc0f00c8af2f6 -->
<g id="edge7" class="edge">
<title>dir_a65246f7a5288ee65248a0302198d58d&#45;&gt;dir_b6b0f0b7471b46e8c4cfc0f00c8af2f6</title>
<path fill="none" stroke="black" d="M150.24,-215.53C154.32,-205.29 159.32,-192.04 163,-180 169.22,-159.63 174.69,-136.17 178.48,-118.45"/>
<polygon fill="black" stroke="black" points="182,-118.74 180.62,-108.24 175.15,-117.31 182,-118.74"/>
<g id="a_edge7&#45;headlabel"><a xlink:href="dir_000007_000013.html" target="_top" xlink:title="3">
<text text-anchor="middle" x="184.04" y="-120.34" font-family="Helvetica,sans-Serif" font-size="10.00">3</text>
</a>
</g>
</g>
<!-- dir_5da686cefd6752aaaa3bcabf1d868d88 -->
<g id="node7" class="node">
<title>dir_5da686cefd6752aaaa3bcabf1d868d88</title>
<g id="a_node7"><a xlink:href="dir_5da686cefd6752aaaa3bcabf1d868d88.html" target="_top" xlink:title="Exceptions">
<polygon fill="none" stroke="black" points="266,-36 196,-36 196,0 266,0 266,-36"/>
<text text-anchor="middle" x="231" y="-15.5" font-family="Helvetica,sans-Serif" font-size="10.00">Exceptions</text>
</a>
</g>
</g>
<!-- dir_a65246f7a5288ee65248a0302198d58d&#45;&gt;dir_5da686cefd6752aaaa3bcabf1d868d88 -->
<g id="edge8" class="edge">
<title>dir_a65246f7a5288ee65248a0302198d58d&#45;&gt;dir_5da686cefd6752aaaa3bcabf1d868d88</title>
<path fill="none" stroke="black" d="M170.03,-231.35C202.61,-227.73 256.07,-216.28 281,-180 309.91,-137.93 276.22,-78.45 251.81,-44.81"/>
<polygon fill="black" stroke="black" points="254.33,-42.35 245.54,-36.45 248.73,-46.55 254.33,-42.35"/>
<g id="a_edge8&#45;headlabel"><a xlink:href="dir_000007_000012.html" target="_top" xlink:title="3">
<text text-anchor="middle" x="258.76" y="-41.02" font-family="Helvetica,sans-Serif" font-size="10.00">3</text>
</a>
</g>
</g>
<!-- dir_a27aee9ec8c7af1c7285a99fc42da75a&#45;&gt;dir_5cb6e1a8c8be2c39561c895666c60a3e -->
<g id="edge1" class="edge">
<title>dir_a27aee9ec8c7af1c7285a99fc42da75a&#45;&gt;dir_5cb6e1a8c8be2c39561c895666c60a3e</title>
<path fill="none" stroke="black" d="M122.42,-143.87C115.91,-119.56 103.94,-74.82 96.23,-46.01"/>
<polygon fill="black" stroke="black" points="99.57,-44.94 93.6,-36.19 92.8,-46.75 99.57,-44.94"/>
<g id="a_edge1&#45;headlabel"><a xlink:href="dir_000008_000014.html" target="_top" xlink:title="1">
<text text-anchor="middle" x="103.24" y="-45.18" font-family="Helvetica,sans-Serif" font-size="10.00">1</text>
</a>
</g>
</g>
<!-- dir_a27aee9ec8c7af1c7285a99fc42da75a&#45;&gt;dir_b6b0f0b7471b46e8c4cfc0f00c8af2f6 -->
<g id="edge2" class="edge">
<title>dir_a27aee9ec8c7af1c7285a99fc42da75a&#45;&gt;dir_b6b0f0b7471b46e8c4cfc0f00c8af2f6</title>
<path fill="none" stroke="black" d="M141.09,-143.7C147.92,-135.3 156.26,-125.07 163.76,-115.86"/>
<polygon fill="black" stroke="black" points="166.47,-118.07 170.07,-108.1 161.04,-113.65 166.47,-118.07"/>
<g id="a_edge2&#45;headlabel"><a xlink:href="dir_000008_000013.html" target="_top" xlink:title="1">
<text text-anchor="middle" x="166.4" y="-120.15" font-family="Helvetica,sans-Serif" font-size="10.00">1</text>
</a>
</g>
</g>
<!-- dir_a27aee9ec8c7af1c7285a99fc42da75a&#45;&gt;dir_5da686cefd6752aaaa3bcabf1d868d88 -->
<g id="edge3" class="edge">
<title>dir_a27aee9ec8c7af1c7285a99fc42da75a&#45;&gt;dir_5da686cefd6752aaaa3bcabf1d868d88</title>
<path fill="none" stroke="black" d="M126.81,-143.7C127.42,-124.52 130.94,-93.47 146,-72 156.17,-57.5 171.71,-46.15 186.73,-37.73"/>
<polygon fill="black" stroke="black" points="188.74,-40.63 195.96,-32.87 185.48,-34.43 188.74,-40.63"/>
<g id="a_edge3&#45;headlabel"><a xlink:href="dir_000008_000012.html" target="_top" xlink:title="1">
<text text-anchor="middle" x="186.88" y="-42.32" font-family="Helvetica,sans-Serif" font-size="10.00">1</text>
</a>
</g>
</g>
<!-- dir_75fd8458c6fcd85e83cb5a93cdc747a2 -->
<g id="node3" class="node">
<title>dir_75fd8458c6fcd85e83cb5a93cdc747a2</title>
<g id="a_node3"><a xlink:href="dir_75fd8458c6fcd85e83cb5a93cdc747a2.html" target="_top" xlink:title="Instructions">
<polygon fill="white" stroke="black" points="98,-252 24,-252 24,-216 98,-216 98,-252"/>
<text text-anchor="middle" x="61" y="-231.5" font-family="Helvetica,sans-Serif" font-size="10.00">Instructions</text>
</a>
</g>
</g>
<!-- dir_75fd8458c6fcd85e83cb5a93cdc747a2&#45;&gt;dir_5cb6e1a8c8be2c39561c895666c60a3e -->
<g id="edge12" class="edge">
<title>dir_75fd8458c6fcd85e83cb5a93cdc747a2&#45;&gt;dir_5cb6e1a8c8be2c39561c895666c60a3e</title>
<path fill="none" stroke="black" d="M51.05,-215.98C45.73,-205.89 39.73,-192.64 37,-180 26.87,-133.08 18.84,-116.43 37,-72 41.49,-61.02 49.47,-51.08 57.85,-42.86"/>
<polygon fill="black" stroke="black" points="60.24,-45.42 65.25,-36.09 55.51,-40.26 60.24,-45.42"/>
<g id="a_edge12&#45;headlabel"><a xlink:href="dir_000009_000014.html" target="_top" xlink:title="1">
<text text-anchor="middle" x="59.5" y="-47.45" font-family="Helvetica,sans-Serif" font-size="10.00">1</text>
</a>
</g>
</g>
<!-- dir_acbfe30a39643d3dad4cea6c4be60bc9&#45;&gt;dir_5cb6e1a8c8be2c39561c895666c60a3e -->
<g id="edge9" class="edge">
<title>dir_acbfe30a39643d3dad4cea6c4be60bc9&#45;&gt;dir_5cb6e1a8c8be2c39561c895666c60a3e</title>
<path fill="none" stroke="black" d="M241.88,-143.87C241.95,-124.28 239.12,-92.29 222,-72 197.98,-43.54 156.52,-30.24 126.26,-24.1"/>
<polygon fill="black" stroke="black" points="126.54,-20.59 116.07,-22.22 125.26,-27.48 126.54,-20.59"/>
<g id="a_edge9&#45;headlabel"><a xlink:href="dir_000006_000014.html" target="_top" xlink:title="1">
<text text-anchor="middle" x="130.59" y="-15.95" font-family="Helvetica,sans-Serif" font-size="10.00">1</text>
</a>
</g>
</g>
<!-- dir_acbfe30a39643d3dad4cea6c4be60bc9&#45;&gt;dir_b6b0f0b7471b46e8c4cfc0f00c8af2f6 -->
<g id="edge10" class="edge">
<title>dir_acbfe30a39643d3dad4cea6c4be60bc9&#45;&gt;dir_b6b0f0b7471b46e8c4cfc0f00c8af2f6</title>
<path fill="none" stroke="black" d="M226.91,-143.7C220.08,-135.3 211.74,-125.07 204.24,-115.86"/>
<polygon fill="black" stroke="black" points="206.96,-113.65 197.93,-108.1 201.53,-118.07 206.96,-113.65"/>
<g id="a_edge10&#45;headlabel"><a xlink:href="dir_000006_000013.html" target="_top" xlink:title="2">
<text text-anchor="middle" x="211.43" y="-112.14" font-family="Helvetica,sans-Serif" font-size="10.00">2</text>
</a>
</g>
</g>
<!-- dir_acbfe30a39643d3dad4cea6c4be60bc9&#45;&gt;dir_5da686cefd6752aaaa3bcabf1d868d88 -->
<g id="edge11" class="edge">
<title>dir_acbfe30a39643d3dad4cea6c4be60bc9&#45;&gt;dir_5da686cefd6752aaaa3bcabf1d868d88</title>
<path fill="none" stroke="black" d="M247.44,-143.83C253.32,-125.83 260.35,-96.77 255,-72 253.04,-62.92 249.39,-53.52 245.51,-45.2"/>
<polygon fill="black" stroke="black" points="248.54,-43.42 240.95,-36.02 242.27,-46.53 248.54,-43.42"/>
<g id="a_edge11&#45;headlabel"><a xlink:href="dir_000006_000012.html" target="_top" xlink:title="3">
<text text-anchor="middle" x="252.68" y="-42.88" font-family="Helvetica,sans-Serif" font-size="10.00">3</text>
</a>
</g>
</g>
<!-- dir_b6b0f0b7471b46e8c4cfc0f00c8af2f6&#45;&gt;dir_5cb6e1a8c8be2c39561c895666c60a3e -->
<g id="edge13" class="edge">
<title>dir_b6b0f0b7471b46e8c4cfc0f00c8af2f6&#45;&gt;dir_5cb6e1a8c8be2c39561c895666c60a3e</title>
<path fill="none" stroke="black" d="M160.52,-71.7C148.44,-62.8 133.55,-51.82 120.48,-42.2"/>
<polygon fill="black" stroke="black" points="122.34,-39.22 112.21,-36.1 118.19,-44.85 122.34,-39.22"/>
<g id="a_edge13&#45;headlabel"><a xlink:href="dir_000013_000014.html" target="_top" xlink:title="4">
<text text-anchor="middle" x="126.92" y="-36.57" font-family="Helvetica,sans-Serif" font-size="10.00">4</text>
</a>
</g>
</g>
<!-- dir_b6b0f0b7471b46e8c4cfc0f00c8af2f6&#45;&gt;dir_5da686cefd6752aaaa3bcabf1d868d88 -->
<g id="edge14" class="edge">
<title>dir_b6b0f0b7471b46e8c4cfc0f00c8af2f6&#45;&gt;dir_5da686cefd6752aaaa3bcabf1d868d88</title>
<path fill="none" stroke="black" d="M195.62,-71.7C201.14,-63.47 207.85,-53.48 213.93,-44.42"/>
<polygon fill="black" stroke="black" points="216.85,-46.36 219.52,-36.1 211.04,-42.46 216.85,-46.36"/>
<g id="a_edge14&#45;headlabel"><a xlink:href="dir_000013_000012.html" target="_top" xlink:title="2">
<text text-anchor="middle" x="217.2" y="-48.42" font-family="Helvetica,sans-Serif" font-size="10.00">2</text>
</a>
</g>
</g>
</g>
</svg>
