<?xml version="1.0" encoding="UTF-8" standalone="no"?>
<!DOCTYPE svg PUBLIC "-//W3C//DTD SVG 1.1//EN"
 "http://www.w3.org/Graphics/SVG/1.1/DTD/svg11.dtd">
<!-- Generated by graphviz version 2.43.0 (0)
 -->
<!-- Title: sources/PPU Pages: 1 -->
<svg width="277pt" height="295pt"
 viewBox="0.00 0.00 276.50 295.00" xmlns="http://www.w3.org/2000/svg" xmlns:xlink="http://www.w3.org/1999/xlink">
<g id="graph0" class="graph" transform="scale(1 1) rotate(0) translate(4 291)">
<title>sources/PPU</title>
<polygon fill="white" stroke="transparent" points="-4,4 -4,-291 272.5,-291 272.5,4 -4,4"/>
<g id="clust1" class="cluster">
<title>clusterdir_08d237fc27d4ecd563f71c5d52f2fecc</title>
<g id="a_clust1"><a xlink:href="dir_08d237fc27d4ecd563f71c5d52f2fecc.html" target="_top" xlink:title="sources">
<polygon fill="#ddddee" stroke="black" points="111.5,-208 111.5,-279 181.5,-279 181.5,-208 111.5,-208"/>
<text text-anchor="middle" x="146.5" y="-267" font-family="Helvetica,sans-Serif" font-size="10.00">sources</text>
</a>
</g>
</g>
<!-- dir_596bfb3d48f2f085998f77aaf2d42ecf -->
<g id="node1" class="node">
<title>dir_596bfb3d48f2f085998f77aaf2d42ecf</title>
<g id="a_node1"><a xlink:href="dir_596bfb3d48f2f085998f77aaf2d42ecf.html" target="_top" xlink:title="PPU">
<polygon fill="#eeeeff" stroke="black" points="173.5,-252 119.5,-252 119.5,-216 173.5,-216 173.5,-252"/>
<text text-anchor="middle" x="146.5" y="-231.5" font-family="Helvetica,sans-Serif" font-size="10.00">PPU</text>
</a>
</g>
</g>
<!-- dir_9d8b0bd023ebe51fb4b8ffcd38d3f5ed -->
<g id="node2" class="node">
<title>dir_9d8b0bd023ebe51fb4b8ffcd38d3f5ed</title>
<g id="a_node2"><a xlink:href="dir_9d8b0bd023ebe51fb4b8ffcd38d3f5ed.html" target="_top" xlink:title="Renderer">
<polygon fill="white" stroke="red" points="61,-180 0,-180 0,-144 61,-144 61,-180"/>
<text text-anchor="middle" x="30.5" y="-159.5" font-family="Helvetica,sans-Serif" font-size="10.00">Renderer</text>
</a>
</g>
</g>
<!-- dir_596bfb3d48f2f085998f77aaf2d42ecf&#45;&gt;dir_9d8b0bd023ebe51fb4b8ffcd38d3f5ed -->
<g id="edge4" class="edge">
<title>dir_596bfb3d48f2f085998f77aaf2d42ecf&#45;&gt;dir_9d8b0bd023ebe51fb4b8ffcd38d3f5ed</title>
<path fill="none" stroke="black" d="M119.3,-216.59C103.93,-207.31 84.5,-195.59 67.74,-185.47"/>
<polygon fill="black" stroke="black" points="69.11,-182.21 58.74,-180.04 65.49,-188.2 69.11,-182.21"/>
<g id="a_edge4&#45;headlabel"><a xlink:href="dir_000015_000017.html" target="_top" xlink:title="1">
<text text-anchor="middle" x="73.65" y="-179.14" font-family="Helvetica,sans-Serif" font-size="10.00">1</text>
</a>
</g>
</g>
<!-- dir_5cb6e1a8c8be2c39561c895666c60a3e -->
<g id="node3" class="node">
<title>dir_5cb6e1a8c8be2c39561c895666c60a3e</title>
<g id="a_node3"><a xlink:href="dir_5cb6e1a8c8be2c39561c895666c60a3e.html" target="_top" xlink:title="Models">
<polygon fill="none" stroke="black" points="268.5,-36 214.5,-36 214.5,0 268.5,0 268.5,-36"/>
<text text-anchor="middle" x="241.5" y="-15.5" font-family="Helvetica,sans-Serif" font-size="10.00">Models</text>
</a>
</g>
</g>
<!-- dir_596bfb3d48f2f085998f77aaf2d42ecf&#45;&gt;dir_5cb6e1a8c8be2c39561c895666c60a3e -->
<g id="edge5" class="edge">
<title>dir_596bfb3d48f2f085998f77aaf2d42ecf&#45;&gt;dir_5cb6e1a8c8be2c39561c895666c60a3e</title>
<path fill="none" stroke="black" d="M173.53,-225.51C195.27,-217.91 224.44,-203.81 238.5,-180 262.87,-138.73 255.94,-80.53 248.71,-46.58"/>
<polygon fill="black" stroke="black" points="252.04,-45.43 246.39,-36.47 245.21,-46.99 252.04,-45.43"/>
<g id="a_edge5&#45;headlabel"><a xlink:href="dir_000015_000014.html" target="_top" xlink:title="2">
<text text-anchor="middle" x="255.61" y="-45.8" font-family="Helvetica,sans-Serif" font-size="10.00">2</text>
</a>
</g>
</g>
<!-- dir_b6b0f0b7471b46e8c4cfc0f00c8af2f6 -->
<g id="node4" class="node">
<title>dir_b6b0f0b7471b46e8c4cfc0f00c8af2f6</title>
<g id="a_node4"><a xlink:href="dir_b6b0f0b7471b46e8c4cfc0f00c8af2f6.html" target="_top" xlink:title="Memory">
<polygon fill="none" stroke="black" points="175,-108 118,-108 118,-72 175,-72 175,-108"/>
<text text-anchor="middle" x="146.5" y="-87.5" font-family="Helvetica,sans-Serif" font-size="10.00">Memory</text>
</a>
</g>
</g>
<!-- dir_596bfb3d48f2f085998f77aaf2d42ecf&#45;&gt;dir_b6b0f0b7471b46e8c4cfc0f00c8af2f6 -->
<g id="edge6" class="edge">
<title>dir_596bfb3d48f2f085998f77aaf2d42ecf&#45;&gt;dir_b6b0f0b7471b46e8c4cfc0f00c8af2f6</title>
<path fill="none" stroke="black" d="M146.5,-215.87C146.5,-191.67 146.5,-147.21 146.5,-118.39"/>
<polygon fill="black" stroke="black" points="150,-118.19 146.5,-108.19 143,-118.19 150,-118.19"/>
<g id="a_edge6&#45;headlabel"><a xlink:href="dir_000015_000013.html" target="_top" xlink:title="2">
<text text-anchor="middle" x="152.84" y="-119.28" font-family="Helvetica,sans-Serif" font-size="10.00">2</text>
</a>
</g>
</g>
<!-- dir_5da686cefd6752aaaa3bcabf1d868d88 -->
<g id="node5" class="node">
<title>dir_5da686cefd6752aaaa3bcabf1d868d88</title>
<g id="a_node5"><a xlink:href="dir_5da686cefd6752aaaa3bcabf1d868d88.html" target="_top" xlink:title="Exceptions">
<polygon fill="none" stroke="black" points="153.5,-36 83.5,-36 83.5,0 153.5,0 153.5,-36"/>
<text text-anchor="middle" x="118.5" y="-15.5" font-family="Helvetica,sans-Serif" font-size="10.00">Exceptions</text>
</a>
</g>
</g>
<!-- dir_596bfb3d48f2f085998f77aaf2d42ecf&#45;&gt;dir_5da686cefd6752aaaa3bcabf1d868d88 -->
<g id="edge7" class="edge">
<title>dir_596bfb3d48f2f085998f77aaf2d42ecf&#45;&gt;dir_5da686cefd6752aaaa3bcabf1d868d88</title>
<path fill="none" stroke="black" d="M139.56,-215.98C130.31,-192.26 114.4,-147.71 108.5,-108 106.15,-92.17 107.01,-87.93 108.5,-72 109.3,-63.48 110.8,-54.28 112.4,-45.99"/>
<polygon fill="black" stroke="black" points="115.86,-46.57 114.44,-36.07 109,-45.16 115.86,-46.57"/>
<g id="a_edge7&#45;headlabel"><a xlink:href="dir_000015_000012.html" target="_top" xlink:title="2">
<text text-anchor="middle" x="117.91" y="-48.16" font-family="Helvetica,sans-Serif" font-size="10.00">2</text>
</a>
</g>
</g>
<!-- dir_96c90ef27c711de2cda20e988f4ab9d6 -->
<g id="node6" class="node">
<title>dir_96c90ef27c711de2cda20e988f4ab9d6</title>
<g id="a_node6"><a xlink:href="dir_96c90ef27c711de2cda20e988f4ab9d6.html" target="_top" xlink:title="Ram">
<polygon fill="none" stroke="black" points="229.5,-180 175.5,-180 175.5,-144 229.5,-144 229.5,-180"/>
<text text-anchor="middle" x="202.5" y="-159.5" font-family="Helvetica,sans-Serif" font-size="10.00">Ram</text>
</a>
</g>
</g>
<!-- dir_596bfb3d48f2f085998f77aaf2d42ecf&#45;&gt;dir_96c90ef27c711de2cda20e988f4ab9d6 -->
<g id="edge8" class="edge">
<title>dir_596bfb3d48f2f085998f77aaf2d42ecf&#45;&gt;dir_96c90ef27c711de2cda20e988f4ab9d6</title>
<path fill="none" stroke="black" d="M160.34,-215.7C166.99,-207.39 175.08,-197.28 182.39,-188.14"/>
<polygon fill="black" stroke="black" points="185.3,-190.1 188.82,-180.1 179.84,-185.73 185.3,-190.1"/>
<g id="a_edge8&#45;headlabel"><a xlink:href="dir_000015_000016.html" target="_top" xlink:title="1">
<text text-anchor="middle" x="185.27" y="-192.18" font-family="Helvetica,sans-Serif" font-size="10.00">1</text>
</a>
</g>
</g>
<!-- dir_9d8b0bd023ebe51fb4b8ffcd38d3f5ed&#45;&gt;dir_5da686cefd6752aaaa3bcabf1d868d88 -->
<g id="edge1" class="edge">
<title>dir_9d8b0bd023ebe51fb4b8ffcd38d3f5ed&#45;&gt;dir_5da686cefd6752aaaa3bcabf1d868d88</title>
<path fill="none" stroke="black" d="M37.93,-143.67C46.11,-125.29 60.15,-95.69 75.5,-72 81.65,-62.5 89.2,-52.72 96.24,-44.18"/>
<polygon fill="black" stroke="black" points="99.01,-46.33 102.78,-36.43 93.65,-41.82 99.01,-46.33"/>
<g id="a_edge1&#45;headlabel"><a xlink:href="dir_000017_000012.html" target="_top" xlink:title="1">
<text text-anchor="middle" x="98.86" y="-48.41" font-family="Helvetica,sans-Serif" font-size="10.00">1</text>
</a>
</g>
</g>
<!-- dir_b6b0f0b7471b46e8c4cfc0f00c8af2f6&#45;&gt;dir_5cb6e1a8c8be2c39561c895666c60a3e -->
<g id="edge2" class="edge">
<title>dir_b6b0f0b7471b46e8c4cfc0f00c8af2f6&#45;&gt;dir_5cb6e1a8c8be2c39561c895666c60a3e</title>
<path fill="none" stroke="black" d="M169.98,-71.7C182.06,-62.8 196.95,-51.82 210.02,-42.2"/>
<polygon fill="black" stroke="black" points="212.31,-44.85 218.29,-36.1 208.16,-39.22 212.31,-44.85"/>
<g id="a_edge2&#45;headlabel"><a xlink:href="dir_000013_000014.html" target="_top" xlink:title="4">
<text text-anchor="middle" x="211.1" y="-46.77" font-family="Helvetica,sans-Serif" font-size="10.00">4</text>
</a>
</g>
</g>
<!-- dir_b6b0f0b7471b46e8c4cfc0f00c8af2f6&#45;&gt;dir_5da686cefd6752aaaa3bcabf1d868d88 -->
<g id="edge3" class="edge">
<title>dir_b6b0f0b7471b46e8c4cfc0f00c8af2f6&#45;&gt;dir_5da686cefd6752aaaa3bcabf1d868d88</title>
<path fill="none" stroke="black" d="M139.58,-71.7C136.43,-63.81 132.62,-54.3 129.12,-45.55"/>
<polygon fill="black" stroke="black" points="132.31,-44.09 125.34,-36.1 125.81,-46.69 132.31,-44.09"/>
<g id="a_edge3&#45;headlabel"><a xlink:href="dir_000013_000012.html" target="_top" xlink:title="2">
<text text-anchor="middle" x="136.28" y="-43.87" font-family="Helvetica,sans-Serif" font-size="10.00">2</text>
</a>
</g>
</g>
<!-- dir_96c90ef27c711de2cda20e988f4ab9d6&#45;&gt;dir_5cb6e1a8c8be2c39561c895666c60a3e -->
<g id="edge9" class="edge">
<title>dir_96c90ef27c711de2cda20e988f4ab9d6&#45;&gt;dir_5cb6e1a8c8be2c39561c895666c60a3e</title>
<path fill="none" stroke="black" d="M207.42,-143.83C210.37,-133.46 214.19,-119.98 217.5,-108 223.22,-87.31 229.53,-63.86 234.25,-46.23"/>
<polygon fill="black" stroke="black" points="237.76,-46.64 236.96,-36.08 231,-44.84 237.76,-46.64"/>
<g id="a_edge9&#45;headlabel"><a xlink:href="dir_000016_000014.html" target="_top" xlink:title="1">
<text text-anchor="middle" x="239.58" y="-48.35" font-family="Helvetica,sans-Serif" font-size="10.00">1</text>
</a>
</g>
</g>
<!-- dir_96c90ef27c711de2cda20e988f4ab9d6&#45;&gt;dir_b6b0f0b7471b46e8c4cfc0f00c8af2f6 -->
<g id="edge10" class="edge">
<title>dir_96c90ef27c711de2cda20e988f4ab9d6&#45;&gt;dir_b6b0f0b7471b46e8c4cfc0f00c8af2f6</title>
<path fill="none" stroke="black" d="M188.66,-143.7C182.01,-135.39 173.92,-125.28 166.61,-116.14"/>
<polygon fill="black" stroke="black" points="169.16,-113.73 160.18,-108.1 163.7,-118.1 169.16,-113.73"/>
<g id="a_edge10&#45;headlabel"><a xlink:href="dir_000016_000013.html" target="_top" xlink:title="1">
<text text-anchor="middle" x="173.63" y="-112.26" font-family="Helvetica,sans-Serif" font-size="10.00">1</text>
</a>
</g>
</g>
<!-- dir_96c90ef27c711de2cda20e988f4ab9d6&#45;&gt;dir_5da686cefd6752aaaa3bcabf1d868d88 -->
<g id="edge11" class="edge">
<title>dir_96c90ef27c711de2cda20e988f4ab9d6&#45;&gt;dir_5da686cefd6752aaaa3bcabf1d868d88</title>
<path fill="none" stroke="black" d="M202.16,-143.69C201.06,-124.79 197.09,-94.24 183.5,-72 176.49,-60.53 166.08,-50.44 155.64,-42.23"/>
<polygon fill="black" stroke="black" points="157.44,-39.2 147.32,-36.05 153.27,-44.82 157.44,-39.2"/>
<g id="a_edge11&#45;headlabel"><a xlink:href="dir_000016_000012.html" target="_top" xlink:title="2">
<text text-anchor="middle" x="162.02" y="-36.56" font-family="Helvetica,sans-Serif" font-size="10.00">2</text>
</a>
</g>
</g>
</g>
</svg>
