<?xml version="1.0" encoding="UTF-8" standalone="no"?>
<!DOCTYPE svg PUBLIC "-//W3C//DTD SVG 1.1//EN"
 "http://www.w3.org/Graphics/SVG/1.1/DTD/svg11.dtd">
<!-- Generated by graphviz version 2.43.0 (0)
 -->
<!-- Title: sources/Debugger Pages: 1 -->
<svg width="764pt" height="447pt"
 viewBox="0.00 0.00 764.00 447.00" xmlns="http://www.w3.org/2000/svg" xmlns:xlink="http://www.w3.org/1999/xlink">
<g id="graph0" class="graph" transform="scale(1 1) rotate(0) translate(4 443)">
<title>sources/Debugger</title>
<polygon fill="white" stroke="transparent" points="-4,4 -4,-443 760,-443 760,4 -4,4"/>
<g id="clust1" class="cluster">
<title>clusterdir_08d237fc27d4ecd563f71c5d52f2fecc</title>
<g id="a_clust1"><a xlink:href="dir_08d237fc27d4ecd563f71c5d52f2fecc.html" target="_top" xlink:title="sources">
<polygon fill="#ddddee" stroke="black" points="330,-344 330,-431 498,-431 498,-344 330,-344"/>
<text text-anchor="middle" x="414" y="-419" font-family="Helvetica,sans-Serif" font-size="10.00">sources</text>
</a>
</g>
</g>
<g id="clust2" class="cluster">
<title>clusterdir_189293303b628b823f13ae296b502d01</title>
<g id="a_clust2"><a xlink:href="dir_189293303b628b823f13ae296b502d01.html" target="_top">
<polygon fill="#eeeeff" stroke="black" points="338,-352 338,-404 490,-404 490,-352 338,-352"/>
</a>
</g>
</g>
<!-- dir_189293303b628b823f13ae296b502d01 -->
<g id="node1" class="node">
<title>dir_189293303b628b823f13ae296b502d01</title>
<text text-anchor="middle" x="378" y="-375.5" font-family="Helvetica,sans-Serif" font-size="10.00">Debugger</text>
</g>
<!-- dir_5cb6e1a8c8be2c39561c895666c60a3e -->
<g id="node5" class="node">
<title>dir_5cb6e1a8c8be2c39561c895666c60a3e</title>
<g id="a_node5"><a xlink:href="dir_5cb6e1a8c8be2c39561c895666c60a3e.html" target="_top" xlink:title="Models">
<polygon fill="none" stroke="black" points="228,-36 174,-36 174,0 228,0 228,-36"/>
<text text-anchor="middle" x="201" y="-15.5" font-family="Helvetica,sans-Serif" font-size="10.00">Models</text>
</a>
</g>
</g>
<!-- dir_189293303b628b823f13ae296b502d01&#45;&gt;dir_5cb6e1a8c8be2c39561c895666c60a3e -->
<g id="edge15" class="edge">
<title>dir_189293303b628b823f13ae296b502d01&#45;&gt;dir_5cb6e1a8c8be2c39561c895666c60a3e</title>
<path fill="none" stroke="black" d="M345.77,-372.02C254.36,-357.01 0,-308.61 0,-235 0,-235 0,-235 0,-161 0,-81.6 105.93,-42.65 163.99,-27.26"/>
<polygon fill="black" stroke="black" points="165.06,-30.6 173.89,-24.74 163.34,-23.81 165.06,-30.6"/>
<g id="a_edge15&#45;headlabel"><a xlink:href="dir_000010_000014.html" target="_top" xlink:title="1">
<text text-anchor="middle" x="162.28" y="-31.73" font-family="Helvetica,sans-Serif" font-size="10.00">1</text>
</a>
</g>
</g>
<!-- dir_acbfe30a39643d3dad4cea6c4be60bc9 -->
<g id="node7" class="node">
<title>dir_acbfe30a39643d3dad4cea6c4be60bc9</title>
<g id="a_node7"><a xlink:href="dir_acbfe30a39643d3dad4cea6c4be60bc9.html" target="_top" xlink:title="Cartridge">
<polygon fill="none" stroke="black" points="263,-252 201,-252 201,-216 263,-216 263,-252"/>
<text text-anchor="middle" x="232" y="-231.5" font-family="Helvetica,sans-Serif" font-size="10.00">Cartridge</text>
</a>
</g>
</g>
<!-- dir_189293303b628b823f13ae296b502d01&#45;&gt;dir_acbfe30a39643d3dad4cea6c4be60bc9 -->
<g id="edge16" class="edge">
<title>dir_189293303b628b823f13ae296b502d01&#45;&gt;dir_acbfe30a39643d3dad4cea6c4be60bc9</title>
<path fill="none" stroke="black" d="M345.89,-369.39C320.49,-361.83 285.79,-347.85 264,-324 248.3,-306.82 240.17,-281.38 236.05,-262.09"/>
<polygon fill="black" stroke="black" points="239.46,-261.27 234.15,-252.1 232.58,-262.58 239.46,-261.27"/>
<g id="a_edge16&#45;headlabel"><a xlink:href="dir_000010_000006.html" target="_top" xlink:title="1">
<text text-anchor="middle" x="242.92" y="-261.77" font-family="Helvetica,sans-Serif" font-size="10.00">1</text>
</a>
</g>
</g>
<!-- dir_b6b0f0b7471b46e8c4cfc0f00c8af2f6 -->
<g id="node8" class="node">
<title>dir_b6b0f0b7471b46e8c4cfc0f00c8af2f6</title>
<g id="a_node8"><a xlink:href="dir_b6b0f0b7471b46e8c4cfc0f00c8af2f6.html" target="_top" xlink:title="Memory">
<polygon fill="none" stroke="black" points="410.5,-108 353.5,-108 353.5,-72 410.5,-72 410.5,-108"/>
<text text-anchor="middle" x="382" y="-87.5" font-family="Helvetica,sans-Serif" font-size="10.00">Memory</text>
</a>
</g>
</g>
<!-- dir_189293303b628b823f13ae296b502d01&#45;&gt;dir_b6b0f0b7471b46e8c4cfc0f00c8af2f6 -->
<g id="edge17" class="edge">
<title>dir_189293303b628b823f13ae296b502d01&#45;&gt;dir_b6b0f0b7471b46e8c4cfc0f00c8af2f6</title>
<path fill="none" stroke="black" d="M397.88,-359.79C404.42,-354.47 411.85,-348.75 419,-344 434.57,-333.65 440.1,-333.83 456,-324 559.12,-260.22 738.32,-237.39 661,-144 630.94,-107.7 490.17,-96.06 420.82,-92.49"/>
<polygon fill="black" stroke="black" points="420.88,-88.99 410.72,-92 420.54,-95.98 420.88,-88.99"/>
<g id="a_edge17&#45;headlabel"><a xlink:href="dir_000010_000013.html" target="_top" xlink:title="4">
<text text-anchor="middle" x="424.61" y="-83.83" font-family="Helvetica,sans-Serif" font-size="10.00">4</text>
</a>
</g>
</g>
<!-- dir_c023b0da1327801e33139c8f2715cbe5 -->
<g id="node10" class="node">
<title>dir_c023b0da1327801e33139c8f2715cbe5</title>
<g id="a_node10"><a xlink:href="dir_c023b0da1327801e33139c8f2715cbe5.html" target="_top" xlink:title="APU">
<polygon fill="white" stroke="red" points="437,-252 383,-252 383,-216 437,-216 437,-252"/>
<text text-anchor="middle" x="410" y="-231.5" font-family="Helvetica,sans-Serif" font-size="10.00">APU</text>
</a>
</g>
</g>
<!-- dir_189293303b628b823f13ae296b502d01&#45;&gt;dir_c023b0da1327801e33139c8f2715cbe5 -->
<g id="edge18" class="edge">
<title>dir_189293303b628b823f13ae296b502d01&#45;&gt;dir_c023b0da1327801e33139c8f2715cbe5</title>
<path fill="none" stroke="black" d="M381.86,-359.87C387.34,-335.56 397.42,-290.82 403.91,-262.01"/>
<polygon fill="black" stroke="black" points="407.34,-262.71 406.13,-252.19 400.51,-261.18 407.34,-262.71"/>
<g id="a_edge18&#45;headlabel"><a xlink:href="dir_000010_000002.html" target="_top" xlink:title="1">
<text text-anchor="middle" x="409.32" y="-264.34" font-family="Helvetica,sans-Serif" font-size="10.00">1</text>
</a>
</g>
</g>
<!-- dir_596bfb3d48f2f085998f77aaf2d42ecf -->
<g id="node11" class="node">
<title>dir_596bfb3d48f2f085998f77aaf2d42ecf</title>
<g id="a_node11"><a xlink:href="dir_596bfb3d48f2f085998f77aaf2d42ecf.html" target="_top" xlink:title="PPU">
<polygon fill="none" stroke="black" points="532,-252 478,-252 478,-216 532,-216 532,-252"/>
<text text-anchor="middle" x="505" y="-231.5" font-family="Helvetica,sans-Serif" font-size="10.00">PPU</text>
</a>
</g>
</g>
<!-- dir_189293303b628b823f13ae296b502d01&#45;&gt;dir_596bfb3d48f2f085998f77aaf2d42ecf -->
<g id="edge19" class="edge">
<title>dir_189293303b628b823f13ae296b502d01&#45;&gt;dir_596bfb3d48f2f085998f77aaf2d42ecf</title>
<path fill="none" stroke="black" d="M393.32,-359.87C415.63,-334.92 457.2,-288.45 482.84,-259.77"/>
<polygon fill="black" stroke="black" points="485.57,-261.98 489.63,-252.19 480.35,-257.31 485.57,-261.98"/>
<g id="a_edge19&#45;headlabel"><a xlink:href="dir_000010_000015.html" target="_top" xlink:title="1">
<text text-anchor="middle" x="485.29" y="-264.05" font-family="Helvetica,sans-Serif" font-size="10.00">1</text>
</a>
</g>
</g>
<!-- dir_96c90ef27c711de2cda20e988f4ab9d6 -->
<g id="node12" class="node">
<title>dir_96c90ef27c711de2cda20e988f4ab9d6</title>
<g id="a_node12"><a xlink:href="dir_96c90ef27c711de2cda20e988f4ab9d6.html" target="_top" xlink:title="Ram">
<polygon fill="none" stroke="black" points="382,-180 328,-180 328,-144 382,-144 382,-180"/>
<text text-anchor="middle" x="355" y="-159.5" font-family="Helvetica,sans-Serif" font-size="10.00">Ram</text>
</a>
</g>
</g>
<!-- dir_189293303b628b823f13ae296b502d01&#45;&gt;dir_96c90ef27c711de2cda20e988f4ab9d6 -->
<g id="edge20" class="edge">
<title>dir_189293303b628b823f13ae296b502d01&#45;&gt;dir_96c90ef27c711de2cda20e988f4ab9d6</title>
<path fill="none" stroke="black" d="M376.16,-359.85C372.18,-322.83 362.76,-235.18 357.94,-190.39"/>
<polygon fill="black" stroke="black" points="361.4,-189.8 356.85,-180.23 354.44,-190.55 361.4,-189.8"/>
<g id="a_edge20&#45;headlabel"><a xlink:href="dir_000010_000016.html" target="_top" xlink:title="1">
<text text-anchor="middle" x="364.61" y="-190.57" font-family="Helvetica,sans-Serif" font-size="10.00">1</text>
</a>
</g>
</g>
<!-- dir_f310dd6fcff708d4aeb1a6c2ce39f361 -->
<g id="node2" class="node">
<title>dir_f310dd6fcff708d4aeb1a6c2ce39f361</title>
<g id="a_node2"><a xlink:href="dir_f310dd6fcff708d4aeb1a6c2ce39f361.html" target="_top" xlink:title="CPU">
<polygon fill="white" stroke="black" points="482,-396 428,-396 428,-360 482,-360 482,-396"/>
<text text-anchor="middle" x="455" y="-375.5" font-family="Helvetica,sans-Serif" font-size="10.00">CPU</text>
</a>
</g>
</g>
<!-- dir_a65246f7a5288ee65248a0302198d58d -->
<g id="node3" class="node">
<title>dir_a65246f7a5288ee65248a0302198d58d</title>
<g id="a_node3"><a xlink:href="dir_a65246f7a5288ee65248a0302198d58d.html" target="_top" xlink:title="CPU">
<polygon fill="white" stroke="red" points="327,-324 273,-324 273,-288 327,-288 327,-324"/>
<text text-anchor="middle" x="300" y="-303.5" font-family="Helvetica,sans-Serif" font-size="10.00">CPU</text>
</a>
</g>
</g>
<!-- dir_f310dd6fcff708d4aeb1a6c2ce39f361&#45;&gt;dir_a65246f7a5288ee65248a0302198d58d -->
<g id="edge1" class="edge">
<title>dir_f310dd6fcff708d4aeb1a6c2ce39f361&#45;&gt;dir_a65246f7a5288ee65248a0302198d58d</title>
<path fill="none" stroke="black" d="M439.38,-359.88C433.45,-354.18 426.35,-348.23 419,-344 393.56,-329.38 361.68,-319.86 337.32,-314.15"/>
<polygon fill="black" stroke="black" points="337.9,-310.69 327.38,-311.93 336.37,-317.53 337.9,-310.69"/>
<g id="a_edge1&#45;headlabel"><a xlink:href="dir_000011_000007.html" target="_top" xlink:title="1">
<text text-anchor="middle" x="342.03" y="-306.21" font-family="Helvetica,sans-Serif" font-size="10.00">1</text>
</a>
</g>
</g>
<!-- dir_9d8b0bd023ebe51fb4b8ffcd38d3f5ed -->
<g id="node4" class="node">
<title>dir_9d8b0bd023ebe51fb4b8ffcd38d3f5ed</title>
<g id="a_node4"><a xlink:href="dir_9d8b0bd023ebe51fb4b8ffcd38d3f5ed.html" target="_top" xlink:title="Renderer">
<polygon fill="white" stroke="red" points="651.5,-180 590.5,-180 590.5,-144 651.5,-144 651.5,-180"/>
<text text-anchor="middle" x="621" y="-159.5" font-family="Helvetica,sans-Serif" font-size="10.00">Renderer</text>
</a>
</g>
</g>
<!-- dir_f310dd6fcff708d4aeb1a6c2ce39f361&#45;&gt;dir_9d8b0bd023ebe51fb4b8ffcd38d3f5ed -->
<g id="edge2" class="edge">
<title>dir_f310dd6fcff708d4aeb1a6c2ce39f361&#45;&gt;dir_9d8b0bd023ebe51fb4b8ffcd38d3f5ed</title>
<path fill="none" stroke="black" d="M468.3,-359.85C497.5,-322.21 567.32,-232.2 601.49,-188.15"/>
<polygon fill="black" stroke="black" points="604.27,-190.28 607.63,-180.23 598.74,-185.99 604.27,-190.28"/>
<g id="a_edge2&#45;headlabel"><a xlink:href="dir_000011_000017.html" target="_top" xlink:title="1">
<text text-anchor="middle" x="604.31" y="-192.36" font-family="Helvetica,sans-Serif" font-size="10.00">1</text>
</a>
</g>
</g>
<!-- dir_f5f18c638a333642b431bbbd93cbd24f -->
<g id="node6" class="node">
<title>dir_f5f18c638a333642b431bbbd93cbd24f</title>
<g id="a_node6"><a xlink:href="dir_f5f18c638a333642b431bbbd93cbd24f.html" target="_top" xlink:title="Utility">
<polygon fill="none" stroke="black" points="158,-180 104,-180 104,-144 158,-144 158,-180"/>
<text text-anchor="middle" x="131" y="-159.5" font-family="Helvetica,sans-Serif" font-size="10.00">Utility</text>
</a>
</g>
</g>
<!-- dir_f310dd6fcff708d4aeb1a6c2ce39f361&#45;&gt;dir_f5f18c638a333642b431bbbd93cbd24f -->
<g id="edge3" class="edge">
<title>dir_f310dd6fcff708d4aeb1a6c2ce39f361&#45;&gt;dir_f5f18c638a333642b431bbbd93cbd24f</title>
<path fill="none" stroke="black" d="M440.45,-359.84C434.44,-353.86 427,-347.72 419,-344 356.01,-314.72 326.34,-354.64 264,-324 205.46,-295.22 163.51,-227.37 143.75,-189.58"/>
<polygon fill="black" stroke="black" points="146.64,-187.55 138.98,-180.22 140.4,-190.72 146.64,-187.55"/>
<g id="a_edge3&#45;headlabel"><a xlink:href="dir_000011_000019.html" target="_top" xlink:title="2">
<text text-anchor="middle" x="150.8" y="-186.96" font-family="Helvetica,sans-Serif" font-size="10.00">2</text>
</a>
</g>
</g>
<!-- dir_5da686cefd6752aaaa3bcabf1d868d88 -->
<g id="node9" class="node">
<title>dir_5da686cefd6752aaaa3bcabf1d868d88</title>
<g id="a_node9"><a xlink:href="dir_5da686cefd6752aaaa3bcabf1d868d88.html" target="_top" xlink:title="Exceptions">
<polygon fill="none" stroke="black" points="576,-36 506,-36 506,0 576,0 576,-36"/>
<text text-anchor="middle" x="541" y="-15.5" font-family="Helvetica,sans-Serif" font-size="10.00">Exceptions</text>
</a>
</g>
</g>
<!-- dir_f310dd6fcff708d4aeb1a6c2ce39f361&#45;&gt;dir_5da686cefd6752aaaa3bcabf1d868d88 -->
<g id="edge4" class="edge">
<title>dir_f310dd6fcff708d4aeb1a6c2ce39f361&#45;&gt;dir_5da686cefd6752aaaa3bcabf1d868d88</title>
<path fill="none" stroke="black" d="M482.24,-376.59C556.34,-373.9 756,-355.47 756,-235 756,-235 756,-235 756,-161 756,-80.28 649.17,-42.8 586.12,-27.71"/>
<polygon fill="black" stroke="black" points="586.55,-24.22 576.02,-25.4 584.99,-31.04 586.55,-24.22"/>
<g id="a_edge4&#45;headlabel"><a xlink:href="dir_000011_000012.html" target="_top" xlink:title="1">
<text text-anchor="middle" x="590.69" y="-19.75" font-family="Helvetica,sans-Serif" font-size="10.00">1</text>
</a>
</g>
</g>
<!-- dir_a65246f7a5288ee65248a0302198d58d&#45;&gt;dir_5cb6e1a8c8be2c39561c895666c60a3e -->
<g id="edge5" class="edge">
<title>dir_a65246f7a5288ee65248a0302198d58d&#45;&gt;dir_5cb6e1a8c8be2c39561c895666c60a3e</title>
<path fill="none" stroke="black" d="M272.64,-299.09C223.48,-286.81 121.63,-253.3 82,-180 69.04,-156.03 93.79,-76.2 97,-72 113.5,-50.4 141.27,-36.88 163.96,-28.91"/>
<polygon fill="black" stroke="black" points="165.24,-32.17 173.65,-25.73 163.06,-25.52 165.24,-32.17"/>
<g id="a_edge5&#45;headlabel"><a xlink:href="dir_000007_000014.html" target="_top" xlink:title="5">
<text text-anchor="middle" x="162.71" y="-33.49" font-family="Helvetica,sans-Serif" font-size="10.00">5</text>
</a>
</g>
</g>
<!-- dir_a65246f7a5288ee65248a0302198d58d&#45;&gt;dir_acbfe30a39643d3dad4cea6c4be60bc9 -->
<g id="edge6" class="edge">
<title>dir_a65246f7a5288ee65248a0302198d58d&#45;&gt;dir_acbfe30a39643d3dad4cea6c4be60bc9</title>
<path fill="none" stroke="black" d="M283.19,-287.7C274.87,-279.14 264.69,-268.66 255.61,-259.3"/>
<polygon fill="black" stroke="black" points="258.09,-256.84 248.62,-252.1 253.07,-261.72 258.09,-256.84"/>
<g id="a_edge6&#45;headlabel"><a xlink:href="dir_000007_000006.html" target="_top" xlink:title="1">
<text text-anchor="middle" x="262.64" y="-254.94" font-family="Helvetica,sans-Serif" font-size="10.00">1</text>
</a>
</g>
</g>
<!-- dir_a65246f7a5288ee65248a0302198d58d&#45;&gt;dir_b6b0f0b7471b46e8c4cfc0f00c8af2f6 -->
<g id="edge7" class="edge">
<title>dir_a65246f7a5288ee65248a0302198d58d&#45;&gt;dir_b6b0f0b7471b46e8c4cfc0f00c8af2f6</title>
<path fill="none" stroke="black" d="M298.08,-287.8C295.45,-256.96 293.62,-191.07 319,-144 325.26,-132.38 335.2,-122.25 345.35,-114.05"/>
<polygon fill="black" stroke="black" points="347.62,-116.72 353.47,-107.89 343.39,-111.14 347.62,-116.72"/>
<g id="a_edge7&#45;headlabel"><a xlink:href="dir_000007_000013.html" target="_top" xlink:title="3">
<text text-anchor="middle" x="346.47" y="-118.66" font-family="Helvetica,sans-Serif" font-size="10.00">3</text>
</a>
</g>
</g>
<!-- dir_a65246f7a5288ee65248a0302198d58d&#45;&gt;dir_5da686cefd6752aaaa3bcabf1d868d88 -->
<g id="edge8" class="edge">
<title>dir_a65246f7a5288ee65248a0302198d58d&#45;&gt;dir_5da686cefd6752aaaa3bcabf1d868d88</title>
<path fill="none" stroke="black" d="M327.23,-301.93C372.78,-296.16 466.76,-281.52 541,-252 598.8,-229.02 630.36,-234.12 661,-180 690.93,-127.13 624.5,-71.64 579.04,-41.59"/>
<polygon fill="black" stroke="black" points="580.84,-38.58 570.54,-36.1 577.04,-44.47 580.84,-38.58"/>
<g id="a_edge8&#45;headlabel"><a xlink:href="dir_000007_000012.html" target="_top" xlink:title="3">
<text text-anchor="middle" x="585.4" y="-35.65" font-family="Helvetica,sans-Serif" font-size="10.00">3</text>
</a>
</g>
</g>
<!-- dir_9d8b0bd023ebe51fb4b8ffcd38d3f5ed&#45;&gt;dir_5da686cefd6752aaaa3bcabf1d868d88 -->
<g id="edge9" class="edge">
<title>dir_9d8b0bd023ebe51fb4b8ffcd38d3f5ed&#45;&gt;dir_5da686cefd6752aaaa3bcabf1d868d88</title>
<path fill="none" stroke="black" d="M613.11,-143.96C604.54,-125.82 590.17,-96.41 576,-72 570.74,-62.94 564.57,-53.31 558.88,-44.77"/>
<polygon fill="black" stroke="black" points="561.68,-42.67 553.19,-36.34 555.88,-46.59 561.68,-42.67"/>
<g id="a_edge9&#45;headlabel"><a xlink:href="dir_000017_000012.html" target="_top" xlink:title="1">
<text text-anchor="middle" x="566.05" y="-41.56" font-family="Helvetica,sans-Serif" font-size="10.00">1</text>
</a>
</g>
</g>
<!-- dir_f5f18c638a333642b431bbbd93cbd24f&#45;&gt;dir_5cb6e1a8c8be2c39561c895666c60a3e -->
<g id="edge10" class="edge">
<title>dir_f5f18c638a333642b431bbbd93cbd24f&#45;&gt;dir_5cb6e1a8c8be2c39561c895666c60a3e</title>
<path fill="none" stroke="black" d="M138.51,-143.77C146.48,-125.72 159.61,-96.62 172,-72 176.5,-63.06 181.68,-53.41 186.4,-44.83"/>
<polygon fill="black" stroke="black" points="189.5,-46.47 191.29,-36.03 183.38,-43.07 189.5,-46.47"/>
<g id="a_edge10&#45;headlabel"><a xlink:href="dir_000019_000014.html" target="_top" xlink:title="1">
<text text-anchor="middle" x="190.23" y="-48.49" font-family="Helvetica,sans-Serif" font-size="10.00">1</text>
</a>
</g>
</g>
<!-- dir_acbfe30a39643d3dad4cea6c4be60bc9&#45;&gt;dir_5cb6e1a8c8be2c39561c895666c60a3e -->
<g id="edge11" class="edge">
<title>dir_acbfe30a39643d3dad4cea6c4be60bc9&#45;&gt;dir_5cb6e1a8c8be2c39561c895666c60a3e</title>
<path fill="none" stroke="black" d="M200.8,-230.75C168.22,-226.55 118.64,-214.5 95,-180 61.66,-131.35 124.47,-73.37 166.84,-41.97"/>
<polygon fill="black" stroke="black" points="168.96,-44.76 175.01,-36.06 164.86,-39.09 168.96,-44.76"/>
<g id="a_edge11&#45;headlabel"><a xlink:href="dir_000006_000014.html" target="_top" xlink:title="1">
<text text-anchor="middle" x="167.72" y="-46.67" font-family="Helvetica,sans-Serif" font-size="10.00">1</text>
</a>
</g>
</g>
<!-- dir_acbfe30a39643d3dad4cea6c4be60bc9&#45;&gt;dir_b6b0f0b7471b46e8c4cfc0f00c8af2f6 -->
<g id="edge12" class="edge">
<title>dir_acbfe30a39643d3dad4cea6c4be60bc9&#45;&gt;dir_b6b0f0b7471b46e8c4cfc0f00c8af2f6</title>
<path fill="none" stroke="black" d="M239.15,-215.79C247.88,-196.41 264.23,-164.9 286,-144 302.68,-127.98 325.15,-115.23 344.15,-106.26"/>
<polygon fill="black" stroke="black" points="345.79,-109.36 353.45,-102.03 342.89,-102.99 345.79,-109.36"/>
<g id="a_edge12&#45;headlabel"><a xlink:href="dir_000006_000013.html" target="_top" xlink:title="2">
<text text-anchor="middle" x="343.69" y="-110.93" font-family="Helvetica,sans-Serif" font-size="10.00">2</text>
</a>
</g>
</g>
<!-- dir_acbfe30a39643d3dad4cea6c4be60bc9&#45;&gt;dir_5da686cefd6752aaaa3bcabf1d868d88 -->
<g id="edge13" class="edge">
<title>dir_acbfe30a39643d3dad4cea6c4be60bc9&#45;&gt;dir_5da686cefd6752aaaa3bcabf1d868d88</title>
<path fill="none" stroke="black" d="M233.21,-215.99C235.25,-197.09 240.67,-166.28 255,-144 282.53,-101.21 298.67,-95.11 344,-72 392.87,-47.08 454.71,-32.92 495.94,-25.61"/>
<polygon fill="black" stroke="black" points="496.69,-29.04 505.96,-23.9 495.51,-22.14 496.69,-29.04"/>
<g id="a_edge13&#45;headlabel"><a xlink:href="dir_000006_000012.html" target="_top" xlink:title="3">
<text text-anchor="middle" x="493.63" y="-29.94" font-family="Helvetica,sans-Serif" font-size="10.00">3</text>
</a>
</g>
</g>
<!-- dir_acbfe30a39643d3dad4cea6c4be60bc9&#45;&gt;dir_96c90ef27c711de2cda20e988f4ab9d6 -->
<g id="edge14" class="edge">
<title>dir_acbfe30a39643d3dad4cea6c4be60bc9&#45;&gt;dir_96c90ef27c711de2cda20e988f4ab9d6</title>
<path fill="none" stroke="black" d="M262.09,-215.88C279.17,-206.16 300.67,-193.92 318.68,-183.67"/>
<polygon fill="black" stroke="black" points="320.78,-186.5 327.74,-178.51 317.32,-180.42 320.78,-186.5"/>
<g id="a_edge14&#45;headlabel"><a xlink:href="dir_000006_000016.html" target="_top" xlink:title="1">
<text text-anchor="middle" x="319.06" y="-188.25" font-family="Helvetica,sans-Serif" font-size="10.00">1</text>
</a>
</g>
</g>
<!-- dir_b6b0f0b7471b46e8c4cfc0f00c8af2f6&#45;&gt;dir_5cb6e1a8c8be2c39561c895666c60a3e -->
<g id="edge21" class="edge">
<title>dir_b6b0f0b7471b46e8c4cfc0f00c8af2f6&#45;&gt;dir_5cb6e1a8c8be2c39561c895666c60a3e</title>
<path fill="none" stroke="black" d="M353.32,-77.91C322.02,-65.8 271.82,-46.39 237.68,-33.18"/>
<polygon fill="black" stroke="black" points="238.66,-29.81 228.07,-29.47 236.13,-36.34 238.66,-29.81"/>
<g id="a_edge21&#45;headlabel"><a xlink:href="dir_000013_000014.html" target="_top" xlink:title="4">
<text text-anchor="middle" x="243.03" y="-25.96" font-family="Helvetica,sans-Serif" font-size="10.00">4</text>
</a>
</g>
</g>
<!-- dir_b6b0f0b7471b46e8c4cfc0f00c8af2f6&#45;&gt;dir_5da686cefd6752aaaa3bcabf1d868d88 -->
<g id="edge22" class="edge">
<title>dir_b6b0f0b7471b46e8c4cfc0f00c8af2f6&#45;&gt;dir_5da686cefd6752aaaa3bcabf1d868d88</title>
<path fill="none" stroke="black" d="M410.79,-76.32C434.65,-65.82 468.96,-50.72 496.37,-38.65"/>
<polygon fill="black" stroke="black" points="498.01,-41.75 505.75,-34.52 495.19,-35.34 498.01,-41.75"/>
<g id="a_edge22&#45;headlabel"><a xlink:href="dir_000013_000012.html" target="_top" xlink:title="2">
<text text-anchor="middle" x="495.86" y="-43.3" font-family="Helvetica,sans-Serif" font-size="10.00">2</text>
</a>
</g>
</g>
<!-- dir_c023b0da1327801e33139c8f2715cbe5&#45;&gt;dir_9d8b0bd023ebe51fb4b8ffcd38d3f5ed -->
<g id="edge23" class="edge">
<title>dir_c023b0da1327801e33139c8f2715cbe5&#45;&gt;dir_9d8b0bd023ebe51fb4b8ffcd38d3f5ed</title>
<path fill="none" stroke="black" d="M437.15,-223.99C473.53,-211.92 538.37,-190.41 580.52,-176.43"/>
<polygon fill="black" stroke="black" points="581.8,-179.69 590.19,-173.22 579.6,-173.05 581.8,-179.69"/>
<g id="a_edge23&#45;headlabel"><a xlink:href="dir_000002_000017.html" target="_top" xlink:title="1">
<text text-anchor="middle" x="579.28" y="-181.02" font-family="Helvetica,sans-Serif" font-size="10.00">1</text>
</a>
</g>
</g>
<!-- dir_c023b0da1327801e33139c8f2715cbe5&#45;&gt;dir_5cb6e1a8c8be2c39561c895666c60a3e -->
<g id="edge24" class="edge">
<title>dir_c023b0da1327801e33139c8f2715cbe5&#45;&gt;dir_5cb6e1a8c8be2c39561c895666c60a3e</title>
<path fill="none" stroke="black" d="M382.6,-220.76C363.46,-211.37 338.02,-197.12 319,-180 274.03,-139.52 235.52,-79.38 215.57,-45.21"/>
<polygon fill="black" stroke="black" points="218.46,-43.23 210.44,-36.3 212.4,-46.72 218.46,-43.23"/>
<g id="a_edge24&#45;headlabel"><a xlink:href="dir_000002_000014.html" target="_top" xlink:title="1">
<text text-anchor="middle" x="222.72" y="-42.43" font-family="Helvetica,sans-Serif" font-size="10.00">1</text>
</a>
</g>
</g>
<!-- dir_c023b0da1327801e33139c8f2715cbe5&#45;&gt;dir_f5f18c638a333642b431bbbd93cbd24f -->
<g id="edge25" class="edge">
<title>dir_c023b0da1327801e33139c8f2715cbe5&#45;&gt;dir_f5f18c638a333642b431bbbd93cbd24f</title>
<path fill="none" stroke="black" d="M382.99,-226.22C332.79,-213.63 225.01,-186.59 168.04,-172.29"/>
<polygon fill="black" stroke="black" points="168.57,-168.82 158.02,-169.78 166.87,-175.61 168.57,-168.82"/>
<g id="a_edge25&#45;headlabel"><a xlink:href="dir_000002_000019.html" target="_top" xlink:title="3">
<text text-anchor="middle" x="172.75" y="-164.44" font-family="Helvetica,sans-Serif" font-size="10.00">3</text>
</a>
</g>
</g>
<!-- dir_c023b0da1327801e33139c8f2715cbe5&#45;&gt;dir_b6b0f0b7471b46e8c4cfc0f00c8af2f6 -->
<g id="edge26" class="edge">
<title>dir_c023b0da1327801e33139c8f2715cbe5&#45;&gt;dir_b6b0f0b7471b46e8c4cfc0f00c8af2f6</title>
<path fill="none" stroke="black" d="M406.62,-215.87C401.83,-191.56 393.01,-146.82 387.33,-118.01"/>
<polygon fill="black" stroke="black" points="390.76,-117.32 385.39,-108.19 383.89,-118.68 390.76,-117.32"/>
<g id="a_edge26&#45;headlabel"><a xlink:href="dir_000002_000013.html" target="_top" xlink:title="3">
<text text-anchor="middle" x="394.24" y="-117.8" font-family="Helvetica,sans-Serif" font-size="10.00">3</text>
</a>
</g>
</g>
<!-- dir_c023b0da1327801e33139c8f2715cbe5&#45;&gt;dir_5da686cefd6752aaaa3bcabf1d868d88 -->
<g id="edge27" class="edge">
<title>dir_c023b0da1327801e33139c8f2715cbe5&#45;&gt;dir_5da686cefd6752aaaa3bcabf1d868d88</title>
<path fill="none" stroke="black" d="M420.5,-215.85C443.4,-178.44 497.95,-89.32 525.1,-44.98"/>
<polygon fill="black" stroke="black" points="528.22,-46.59 530.45,-36.23 522.25,-42.93 528.22,-46.59"/>
<g id="a_edge27&#45;headlabel"><a xlink:href="dir_000002_000012.html" target="_top" xlink:title="5">
<text text-anchor="middle" x="528.76" y="-48.64" font-family="Helvetica,sans-Serif" font-size="10.00">5</text>
</a>
</g>
</g>
<!-- dir_c023b0da1327801e33139c8f2715cbe5&#45;&gt;dir_96c90ef27c711de2cda20e988f4ab9d6 -->
<g id="edge28" class="edge">
<title>dir_c023b0da1327801e33139c8f2715cbe5&#45;&gt;dir_96c90ef27c711de2cda20e988f4ab9d6</title>
<path fill="none" stroke="black" d="M396.4,-215.7C389.88,-207.39 381.93,-197.28 374.75,-188.14"/>
<polygon fill="black" stroke="black" points="377.37,-185.81 368.44,-180.1 371.87,-190.13 377.37,-185.81"/>
<g id="a_edge28&#45;headlabel"><a xlink:href="dir_000002_000016.html" target="_top" xlink:title="1">
<text text-anchor="middle" x="381.82" y="-184.38" font-family="Helvetica,sans-Serif" font-size="10.00">1</text>
</a>
</g>
</g>
<!-- dir_596bfb3d48f2f085998f77aaf2d42ecf&#45;&gt;dir_9d8b0bd023ebe51fb4b8ffcd38d3f5ed -->
<g id="edge29" class="edge">
<title>dir_596bfb3d48f2f085998f77aaf2d42ecf&#45;&gt;dir_9d8b0bd023ebe51fb4b8ffcd38d3f5ed</title>
<path fill="none" stroke="black" d="M532.2,-216.59C547.57,-207.31 567,-195.59 583.76,-185.47"/>
<polygon fill="black" stroke="black" points="586.01,-188.2 592.76,-180.04 582.39,-182.21 586.01,-188.2"/>
<g id="a_edge29&#45;headlabel"><a xlink:href="dir_000015_000017.html" target="_top" xlink:title="1">
<text text-anchor="middle" x="584.4" y="-189.99" font-family="Helvetica,sans-Serif" font-size="10.00">1</text>
</a>
</g>
</g>
<!-- dir_596bfb3d48f2f085998f77aaf2d42ecf&#45;&gt;dir_5cb6e1a8c8be2c39561c895666c60a3e -->
<g id="edge30" class="edge">
<title>dir_596bfb3d48f2f085998f77aaf2d42ecf&#45;&gt;dir_5cb6e1a8c8be2c39561c895666c60a3e</title>
<path fill="none" stroke="black" d="M500.88,-215.85C491.98,-182.63 467.7,-109.52 419,-72 365.65,-30.9 284.9,-21.14 238.12,-19.14"/>
<polygon fill="black" stroke="black" points="238.22,-15.64 228.11,-18.8 237.99,-22.63 238.22,-15.64"/>
<g id="a_edge30&#45;headlabel"><a xlink:href="dir_000015_000014.html" target="_top" xlink:title="2">
<text text-anchor="middle" x="241.91" y="-10.42" font-family="Helvetica,sans-Serif" font-size="10.00">2</text>
</a>
</g>
</g>
<!-- dir_596bfb3d48f2f085998f77aaf2d42ecf&#45;&gt;dir_b6b0f0b7471b46e8c4cfc0f00c8af2f6 -->
<g id="edge31" class="edge">
<title>dir_596bfb3d48f2f085998f77aaf2d42ecf&#45;&gt;dir_b6b0f0b7471b46e8c4cfc0f00c8af2f6</title>
<path fill="none" stroke="black" d="M490.16,-215.87C468.55,-190.92 428.3,-144.45 403.46,-115.77"/>
<polygon fill="black" stroke="black" points="406.08,-113.46 396.89,-108.19 400.79,-118.04 406.08,-113.46"/>
<g id="a_edge31&#45;headlabel"><a xlink:href="dir_000015_000013.html" target="_top" xlink:title="2">
<text text-anchor="middle" x="410.58" y="-111.81" font-family="Helvetica,sans-Serif" font-size="10.00">2</text>
</a>
</g>
</g>
<!-- dir_596bfb3d48f2f085998f77aaf2d42ecf&#45;&gt;dir_5da686cefd6752aaaa3bcabf1d868d88 -->
<g id="edge32" class="edge">
<title>dir_596bfb3d48f2f085998f77aaf2d42ecf&#45;&gt;dir_5da686cefd6752aaaa3bcabf1d868d88</title>
<path fill="none" stroke="black" d="M519.23,-215.54C526.32,-205.73 534.19,-192.89 538,-180 551.4,-134.72 548.42,-79.1 544.85,-46.5"/>
<polygon fill="black" stroke="black" points="548.3,-45.89 543.63,-36.38 541.35,-46.72 548.3,-45.89"/>
<g id="a_edge32&#45;headlabel"><a xlink:href="dir_000015_000012.html" target="_top" xlink:title="2">
<text text-anchor="middle" x="551.55" y="-46.62" font-family="Helvetica,sans-Serif" font-size="10.00">2</text>
</a>
</g>
</g>
<!-- dir_596bfb3d48f2f085998f77aaf2d42ecf&#45;&gt;dir_96c90ef27c711de2cda20e988f4ab9d6 -->
<g id="edge33" class="edge">
<title>dir_596bfb3d48f2f085998f77aaf2d42ecf&#45;&gt;dir_96c90ef27c711de2cda20e988f4ab9d6</title>
<path fill="none" stroke="black" d="M477.84,-220.32C453.7,-209.06 418.22,-192.5 391.59,-180.07"/>
<polygon fill="black" stroke="black" points="392.76,-176.76 382.21,-175.7 389.8,-183.1 392.76,-176.76"/>
<g id="a_edge33&#45;headlabel"><a xlink:href="dir_000015_000016.html" target="_top" xlink:title="1">
<text text-anchor="middle" x="397.21" y="-173.2" font-family="Helvetica,sans-Serif" font-size="10.00">1</text>
</a>
</g>
</g>
<!-- dir_96c90ef27c711de2cda20e988f4ab9d6&#45;&gt;dir_5cb6e1a8c8be2c39561c895666c60a3e -->
<g id="edge34" class="edge">
<title>dir_96c90ef27c711de2cda20e988f4ab9d6&#45;&gt;dir_5cb6e1a8c8be2c39561c895666c60a3e</title>
<path fill="none" stroke="black" d="M341.78,-143.88C326.88,-125.13 301.4,-94.73 276,-72 263.93,-61.2 249.64,-50.63 236.78,-41.8"/>
<polygon fill="black" stroke="black" points="238.4,-38.68 228.15,-35.99 234.49,-44.48 238.4,-38.68"/>
<g id="a_edge34&#45;headlabel"><a xlink:href="dir_000016_000014.html" target="_top" xlink:title="1">
<text text-anchor="middle" x="242.97" y="-35.83" font-family="Helvetica,sans-Serif" font-size="10.00">1</text>
</a>
</g>
</g>
<!-- dir_96c90ef27c711de2cda20e988f4ab9d6&#45;&gt;dir_b6b0f0b7471b46e8c4cfc0f00c8af2f6 -->
<g id="edge35" class="edge">
<title>dir_96c90ef27c711de2cda20e988f4ab9d6&#45;&gt;dir_b6b0f0b7471b46e8c4cfc0f00c8af2f6</title>
<path fill="none" stroke="black" d="M361.67,-143.7C364.71,-135.81 368.38,-126.3 371.76,-117.55"/>
<polygon fill="black" stroke="black" points="375.07,-118.69 375.4,-108.1 368.54,-116.17 375.07,-118.69"/>
<g id="a_edge35&#45;headlabel"><a xlink:href="dir_000016_000013.html" target="_top" xlink:title="1">
<text text-anchor="middle" x="376.42" y="-120.57" font-family="Helvetica,sans-Serif" font-size="10.00">1</text>
</a>
</g>
</g>
<!-- dir_96c90ef27c711de2cda20e988f4ab9d6&#45;&gt;dir_5da686cefd6752aaaa3bcabf1d868d88 -->
<g id="edge36" class="edge">
<title>dir_96c90ef27c711de2cda20e988f4ab9d6&#45;&gt;dir_5da686cefd6752aaaa3bcabf1d868d88</title>
<path fill="none" stroke="black" d="M377.44,-143.87C410.67,-118.5 473.08,-70.85 510.46,-42.32"/>
<polygon fill="black" stroke="black" points="512.66,-45.04 518.48,-36.19 508.41,-39.48 512.66,-45.04"/>
<g id="a_edge36&#45;headlabel"><a xlink:href="dir_000016_000012.html" target="_top" xlink:title="2">
<text text-anchor="middle" x="511.53" y="-46.98" font-family="Helvetica,sans-Serif" font-size="10.00">2</text>
</a>
</g>
</g>
</g>
</svg>
