<?xml version="1.0" encoding="UTF-8" standalone="no"?>
<!DOCTYPE svg PUBLIC "-//W3C//DTD SVG 1.1//EN"
 "http://www.w3.org/Graphics/SVG/1.1/DTD/svg11.dtd">
<!-- Generated by graphviz version 2.43.0 (0)
 -->
<!-- Title: sources/APU Pages: 1 -->
<svg width="458pt" height="303pt"
 viewBox="0.00 0.00 457.77 303.00" xmlns="http://www.w3.org/2000/svg" xmlns:xlink="http://www.w3.org/1999/xlink">
<g id="graph0" class="graph" transform="scale(1 1) rotate(0) translate(4 299)">
<title>sources/APU</title>
<polygon fill="white" stroke="transparent" points="-4,4 -4,-299 453.77,-299 453.77,4 -4,4"/>
<g id="clust1" class="cluster">
<title>clusterdir_08d237fc27d4ecd563f71c5d52f2fecc</title>
<g id="a_clust1"><a xlink:href="dir_08d237fc27d4ecd563f71c5d52f2fecc.html" target="_top" xlink:title="sources">
<polygon fill="#ddddee" stroke="black" points="184,-128 184,-287 362,-287 362,-128 184,-128"/>
<text text-anchor="middle" x="273" y="-275" font-family="Helvetica,sans-Serif" font-size="10.00">sources</text>
</a>
</g>
</g>
<g id="clust2" class="cluster">
<title>clusterdir_c023b0da1327801e33139c8f2715cbe5</title>
<g id="a_clust2"><a xlink:href="dir_c023b0da1327801e33139c8f2715cbe5.html" target="_top">
<polygon fill="#eeeeff" stroke="black" points="192,-136 192,-260 354,-260 354,-136 192,-136"/>
</a>
</g>
</g>
<!-- dir_c023b0da1327801e33139c8f2715cbe5 -->
<g id="node1" class="node">
<title>dir_c023b0da1327801e33139c8f2715cbe5</title>
<text text-anchor="middle" x="319" y="-231.5" font-family="Helvetica,sans-Serif" font-size="10.00">APU</text>
</g>
<!-- dir_51ad7b790076cccb183f81c3ebe77c63 -->
<g id="node2" class="node">
<title>dir_51ad7b790076cccb183f81c3ebe77c63</title>
<g id="a_node2"><a xlink:href="dir_51ad7b790076cccb183f81c3ebe77c63.html" target="_top" xlink:title="DSP">
<polygon fill="white" stroke="black" points="346,-180 292,-180 292,-144 346,-144 346,-180"/>
<text text-anchor="middle" x="319" y="-159.5" font-family="Helvetica,sans-Serif" font-size="10.00">DSP</text>
</a>
</g>
</g>
<!-- dir_c023b0da1327801e33139c8f2715cbe5&#45;&gt;dir_51ad7b790076cccb183f81c3ebe77c63 -->
<g id="edge13" class="edge">
<title>dir_c023b0da1327801e33139c8f2715cbe5&#45;&gt;dir_51ad7b790076cccb183f81c3ebe77c63</title>
<path fill="none" stroke="black" d="M319,-215.7C319,-207.98 319,-198.71 319,-190.11"/>
<polygon fill="black" stroke="black" points="322.5,-190.1 319,-180.1 315.5,-190.1 322.5,-190.1"/>
<g id="a_edge13&#45;headlabel"><a xlink:href="dir_000002_000003.html" target="_top" xlink:title="1">
<text text-anchor="middle" x="325.34" y="-191.2" font-family="Helvetica,sans-Serif" font-size="10.00">1</text>
</a>
</g>
</g>
<!-- dir_0bdbb77b778947cebbc974a1a20e502d -->
<g id="node4" class="node">
<title>dir_0bdbb77b778947cebbc974a1a20e502d</title>
<g id="a_node4"><a xlink:href="dir_0bdbb77b778947cebbc974a1a20e502d.html" target="_top" xlink:title="IPL">
<polygon fill="white" stroke="black" points="274,-180 220,-180 220,-144 274,-144 274,-180"/>
<text text-anchor="middle" x="247" y="-159.5" font-family="Helvetica,sans-Serif" font-size="10.00">IPL</text>
</a>
</g>
</g>
<!-- dir_c023b0da1327801e33139c8f2715cbe5&#45;&gt;dir_0bdbb77b778947cebbc974a1a20e502d -->
<g id="edge10" class="edge">
<title>dir_c023b0da1327801e33139c8f2715cbe5&#45;&gt;dir_0bdbb77b778947cebbc974a1a20e502d</title>
<path fill="none" stroke="black" d="M301.2,-215.7C292.4,-207.14 281.62,-196.66 272,-187.3"/>
<polygon fill="black" stroke="black" points="274.2,-184.57 264.59,-180.1 269.32,-189.58 274.2,-184.57"/>
<g id="a_edge10&#45;headlabel"><a xlink:href="dir_000002_000005.html" target="_top" xlink:title="1">
<text text-anchor="middle" x="278.76" y="-182.54" font-family="Helvetica,sans-Serif" font-size="10.00">1</text>
</a>
</g>
</g>
<!-- dir_9d8b0bd023ebe51fb4b8ffcd38d3f5ed -->
<g id="node5" class="node">
<title>dir_9d8b0bd023ebe51fb4b8ffcd38d3f5ed</title>
<g id="a_node5"><a xlink:href="dir_9d8b0bd023ebe51fb4b8ffcd38d3f5ed.html" target="_top" xlink:title="Renderer">
<polygon fill="white" stroke="red" points="431.5,-180 370.5,-180 370.5,-144 431.5,-144 431.5,-180"/>
<text text-anchor="middle" x="401" y="-159.5" font-family="Helvetica,sans-Serif" font-size="10.00">Renderer</text>
</a>
</g>
</g>
<!-- dir_c023b0da1327801e33139c8f2715cbe5&#45;&gt;dir_9d8b0bd023ebe51fb4b8ffcd38d3f5ed -->
<g id="edge11" class="edge">
<title>dir_c023b0da1327801e33139c8f2715cbe5&#45;&gt;dir_9d8b0bd023ebe51fb4b8ffcd38d3f5ed</title>
<path fill="none" stroke="black" d="M339.27,-215.7C349.5,-206.97 362.06,-196.24 373.18,-186.75"/>
<polygon fill="black" stroke="black" points="375.63,-189.26 380.96,-180.1 371.09,-183.94 375.63,-189.26"/>
<g id="a_edge11&#45;headlabel"><a xlink:href="dir_000002_000017.html" target="_top" xlink:title="1">
<text text-anchor="middle" x="374.74" y="-191.25" font-family="Helvetica,sans-Serif" font-size="10.00">1</text>
</a>
</g>
</g>
<!-- dir_5cb6e1a8c8be2c39561c895666c60a3e -->
<g id="node6" class="node">
<title>dir_5cb6e1a8c8be2c39561c895666c60a3e</title>
<g id="a_node6"><a xlink:href="dir_5cb6e1a8c8be2c39561c895666c60a3e.html" target="_top" xlink:title="Models">
<polygon fill="none" stroke="black" points="125,-36 71,-36 71,0 125,0 125,-36"/>
<text text-anchor="middle" x="98" y="-15.5" font-family="Helvetica,sans-Serif" font-size="10.00">Models</text>
</a>
</g>
</g>
<!-- dir_c023b0da1327801e33139c8f2715cbe5&#45;&gt;dir_5cb6e1a8c8be2c39561c895666c60a3e -->
<g id="edge12" class="edge">
<title>dir_c023b0da1327801e33139c8f2715cbe5&#45;&gt;dir_5cb6e1a8c8be2c39561c895666c60a3e</title>
<path fill="none" stroke="black" d="M291.77,-219.29C288.85,-218.08 285.89,-216.95 283,-216 204.68,-190.2 153.93,-243.22 101,-180 69.77,-142.7 79.61,-81.73 89.11,-46.49"/>
<polygon fill="black" stroke="black" points="92.61,-47.02 92.01,-36.44 85.88,-45.08 92.61,-47.02"/>
<g id="a_edge12&#45;headlabel"><a xlink:href="dir_000002_000014.html" target="_top" xlink:title="1">
<text text-anchor="middle" x="94.34" y="-48.76" font-family="Helvetica,sans-Serif" font-size="10.00">1</text>
</a>
</g>
</g>
<!-- dir_b6b0f0b7471b46e8c4cfc0f00c8af2f6 -->
<g id="node8" class="node">
<title>dir_b6b0f0b7471b46e8c4cfc0f00c8af2f6</title>
<g id="a_node8"><a xlink:href="dir_b6b0f0b7471b46e8c4cfc0f00c8af2f6.html" target="_top" xlink:title="Memory">
<polygon fill="none" stroke="black" points="247.5,-108 190.5,-108 190.5,-72 247.5,-72 247.5,-108"/>
<text text-anchor="middle" x="219" y="-87.5" font-family="Helvetica,sans-Serif" font-size="10.00">Memory</text>
</a>
</g>
</g>
<!-- dir_c023b0da1327801e33139c8f2715cbe5&#45;&gt;dir_b6b0f0b7471b46e8c4cfc0f00c8af2f6 -->
<g id="edge14" class="edge">
<title>dir_c023b0da1327801e33139c8f2715cbe5&#45;&gt;dir_b6b0f0b7471b46e8c4cfc0f00c8af2f6</title>
<path fill="none" stroke="black" d="M291.85,-220.11C260.25,-205.04 212.18,-181.9 211,-180 199.51,-161.56 202.99,-136.66 208.49,-117.88"/>
<polygon fill="black" stroke="black" points="211.89,-118.75 211.68,-108.16 205.24,-116.57 211.89,-118.75"/>
<g id="a_edge14&#45;headlabel"><a xlink:href="dir_000002_000013.html" target="_top" xlink:title="3">
<text text-anchor="middle" x="213.47" y="-120.55" font-family="Helvetica,sans-Serif" font-size="10.00">3</text>
</a>
</g>
</g>
<!-- dir_5da686cefd6752aaaa3bcabf1d868d88 -->
<g id="node9" class="node">
<title>dir_5da686cefd6752aaaa3bcabf1d868d88</title>
<g id="a_node9"><a xlink:href="dir_5da686cefd6752aaaa3bcabf1d868d88.html" target="_top" xlink:title="Exceptions">
<polygon fill="none" stroke="black" points="331,-36 261,-36 261,0 331,0 331,-36"/>
<text text-anchor="middle" x="296" y="-15.5" font-family="Helvetica,sans-Serif" font-size="10.00">Exceptions</text>
</a>
</g>
</g>
<!-- dir_c023b0da1327801e33139c8f2715cbe5&#45;&gt;dir_5da686cefd6752aaaa3bcabf1d868d88 -->
<g id="edge15" class="edge">
<title>dir_c023b0da1327801e33139c8f2715cbe5&#45;&gt;dir_5da686cefd6752aaaa3bcabf1d868d88</title>
<path fill="none" stroke="black" d="M346.1,-229.79C375.19,-224.75 420.04,-211.96 441,-180 453.67,-160.67 451.32,-148.68 441,-128 420.08,-86.1 374.53,-56.1 340.03,-38.31"/>
<polygon fill="black" stroke="black" points="341.58,-35.17 331.07,-33.83 338.46,-41.43 341.58,-35.17"/>
<g id="a_edge15&#45;headlabel"><a xlink:href="dir_000002_000012.html" target="_top" xlink:title="5">
<text text-anchor="middle" x="346.07" y="-31.74" font-family="Helvetica,sans-Serif" font-size="10.00">5</text>
</a>
</g>
</g>
<!-- dir_96c90ef27c711de2cda20e988f4ab9d6 -->
<g id="node10" class="node">
<title>dir_96c90ef27c711de2cda20e988f4ab9d6</title>
<g id="a_node10"><a xlink:href="dir_96c90ef27c711de2cda20e988f4ab9d6.html" target="_top" xlink:title="Ram">
<polygon fill="none" stroke="black" points="164,-180 110,-180 110,-144 164,-144 164,-180"/>
<text text-anchor="middle" x="137" y="-159.5" font-family="Helvetica,sans-Serif" font-size="10.00">Ram</text>
</a>
</g>
</g>
<!-- dir_c023b0da1327801e33139c8f2715cbe5&#45;&gt;dir_96c90ef27c711de2cda20e988f4ab9d6 -->
<g id="edge16" class="edge">
<title>dir_c023b0da1327801e33139c8f2715cbe5&#45;&gt;dir_96c90ef27c711de2cda20e988f4ab9d6</title>
<path fill="none" stroke="black" d="M291.99,-219.92C288.98,-218.55 285.93,-217.22 283,-216 246.32,-200.72 203.5,-185.47 173.76,-175.28"/>
<polygon fill="black" stroke="black" points="174.79,-171.94 164.2,-172.03 172.54,-178.56 174.79,-171.94"/>
<g id="a_edge16&#45;headlabel"><a xlink:href="dir_000002_000016.html" target="_top" xlink:title="1">
<text text-anchor="middle" x="179.11" y="-167.91" font-family="Helvetica,sans-Serif" font-size="10.00">1</text>
</a>
</g>
</g>
<!-- dir_51ad7b790076cccb183f81c3ebe77c63&#45;&gt;dir_b6b0f0b7471b46e8c4cfc0f00c8af2f6 -->
<g id="edge4" class="edge">
<title>dir_51ad7b790076cccb183f81c3ebe77c63&#45;&gt;dir_b6b0f0b7471b46e8c4cfc0f00c8af2f6</title>
<path fill="none" stroke="black" d="M301.72,-143.74C295.99,-138.42 289.43,-132.72 283,-128 274.7,-121.91 265.31,-116 256.33,-110.76"/>
<polygon fill="black" stroke="black" points="257.97,-107.66 247.55,-105.76 254.51,-113.75 257.97,-107.66"/>
<g id="a_edge4&#45;headlabel"><a xlink:href="dir_000003_000013.html" target="_top" xlink:title="1">
<text text-anchor="middle" x="262.5" y="-104.47" font-family="Helvetica,sans-Serif" font-size="10.00">1</text>
</a>
</g>
</g>
<!-- dir_51ad7b790076cccb183f81c3ebe77c63&#45;&gt;dir_5da686cefd6752aaaa3bcabf1d868d88 -->
<g id="edge5" class="edge">
<title>dir_51ad7b790076cccb183f81c3ebe77c63&#45;&gt;dir_5da686cefd6752aaaa3bcabf1d868d88</title>
<path fill="none" stroke="black" d="M316.23,-143.87C312.31,-119.67 305.1,-75.21 300.44,-46.39"/>
<polygon fill="black" stroke="black" points="303.84,-45.5 298.78,-36.19 296.93,-46.62 303.84,-45.5"/>
<g id="a_edge5&#45;headlabel"><a xlink:href="dir_000003_000012.html" target="_top" xlink:title="1">
<text text-anchor="middle" x="307.22" y="-46.1" font-family="Helvetica,sans-Serif" font-size="10.00">1</text>
</a>
</g>
</g>
<!-- dir_c19fcb0bd0e88d6b11ae7d5787f6e42a -->
<g id="node3" class="node">
<title>dir_c19fcb0bd0e88d6b11ae7d5787f6e42a</title>
<g id="a_node3"><a xlink:href="dir_c19fcb0bd0e88d6b11ae7d5787f6e42a.html" target="_top" xlink:title="Instructions">
<polygon fill="white" stroke="black" points="274,-252 200,-252 200,-216 274,-216 274,-252"/>
<text text-anchor="middle" x="237" y="-231.5" font-family="Helvetica,sans-Serif" font-size="10.00">Instructions</text>
</a>
</g>
</g>
<!-- dir_f5f18c638a333642b431bbbd93cbd24f -->
<g id="node7" class="node">
<title>dir_f5f18c638a333642b431bbbd93cbd24f</title>
<g id="a_node7"><a xlink:href="dir_f5f18c638a333642b431bbbd93cbd24f.html" target="_top" xlink:title="Utility">
<polygon fill="none" stroke="black" points="54,-180 0,-180 0,-144 54,-144 54,-180"/>
<text text-anchor="middle" x="27" y="-159.5" font-family="Helvetica,sans-Serif" font-size="10.00">Utility</text>
</a>
</g>
</g>
<!-- dir_c19fcb0bd0e88d6b11ae7d5787f6e42a&#45;&gt;dir_f5f18c638a333642b431bbbd93cbd24f -->
<g id="edge7" class="edge">
<title>dir_c19fcb0bd0e88d6b11ae7d5787f6e42a&#45;&gt;dir_f5f18c638a333642b431bbbd93cbd24f</title>
<path fill="none" stroke="black" d="M199.76,-222.36C165.3,-212.27 112.8,-196.27 68,-180 66.6,-179.49 65.17,-178.96 63.73,-178.42"/>
<polygon fill="black" stroke="black" points="64.8,-175.07 54.21,-174.68 62.25,-181.59 64.8,-175.07"/>
<g id="a_edge7&#45;headlabel"><a xlink:href="dir_000004_000019.html" target="_top" xlink:title="3">
<text text-anchor="middle" x="69.18" y="-171.24" font-family="Helvetica,sans-Serif" font-size="10.00">3</text>
</a>
</g>
</g>
<!-- dir_0bdbb77b778947cebbc974a1a20e502d&#45;&gt;dir_b6b0f0b7471b46e8c4cfc0f00c8af2f6 -->
<g id="edge1" class="edge">
<title>dir_0bdbb77b778947cebbc974a1a20e502d&#45;&gt;dir_b6b0f0b7471b46e8c4cfc0f00c8af2f6</title>
<path fill="none" stroke="black" d="M240.08,-143.7C236.93,-135.81 233.12,-126.3 229.62,-117.55"/>
<polygon fill="black" stroke="black" points="232.81,-116.09 225.84,-108.1 226.31,-118.69 232.81,-116.09"/>
<g id="a_edge1&#45;headlabel"><a xlink:href="dir_000005_000013.html" target="_top" xlink:title="1">
<text text-anchor="middle" x="236.78" y="-115.87" font-family="Helvetica,sans-Serif" font-size="10.00">1</text>
</a>
</g>
</g>
<!-- dir_0bdbb77b778947cebbc974a1a20e502d&#45;&gt;dir_5da686cefd6752aaaa3bcabf1d868d88 -->
<g id="edge2" class="edge">
<title>dir_0bdbb77b778947cebbc974a1a20e502d&#45;&gt;dir_5da686cefd6752aaaa3bcabf1d868d88</title>
<path fill="none" stroke="black" d="M252.91,-143.87C261.3,-119.56 276.74,-74.82 286.68,-46.01"/>
<polygon fill="black" stroke="black" points="290.12,-46.78 290.07,-36.19 283.5,-44.5 290.12,-46.78"/>
<g id="a_edge2&#45;headlabel"><a xlink:href="dir_000005_000012.html" target="_top" xlink:title="1">
<text text-anchor="middle" x="291.63" y="-48.61" font-family="Helvetica,sans-Serif" font-size="10.00">1</text>
</a>
</g>
</g>
<!-- dir_9d8b0bd023ebe51fb4b8ffcd38d3f5ed&#45;&gt;dir_5da686cefd6752aaaa3bcabf1d868d88 -->
<g id="edge3" class="edge">
<title>dir_9d8b0bd023ebe51fb4b8ffcd38d3f5ed&#45;&gt;dir_5da686cefd6752aaaa3bcabf1d868d88</title>
<path fill="none" stroke="black" d="M388.33,-143.87C370.05,-119.14 336.11,-73.24 314.86,-44.51"/>
<polygon fill="black" stroke="black" points="317.47,-42.15 308.71,-36.19 311.84,-46.31 317.47,-42.15"/>
<g id="a_edge3&#45;headlabel"><a xlink:href="dir_000017_000012.html" target="_top" xlink:title="1">
<text text-anchor="middle" x="321.89" y="-40.85" font-family="Helvetica,sans-Serif" font-size="10.00">1</text>
</a>
</g>
</g>
<!-- dir_f5f18c638a333642b431bbbd93cbd24f&#45;&gt;dir_5cb6e1a8c8be2c39561c895666c60a3e -->
<g id="edge6" class="edge">
<title>dir_f5f18c638a333642b431bbbd93cbd24f&#45;&gt;dir_5cb6e1a8c8be2c39561c895666c60a3e</title>
<path fill="none" stroke="black" d="M34.44,-143.73C42.35,-125.65 55.44,-96.53 68,-72 72.53,-63.15 77.78,-53.66 82.61,-45.18"/>
<polygon fill="black" stroke="black" points="85.67,-46.88 87.63,-36.47 79.6,-43.39 85.67,-46.88"/>
<g id="a_edge6&#45;headlabel"><a xlink:href="dir_000019_000014.html" target="_top" xlink:title="1">
<text text-anchor="middle" x="86.34" y="-48.91" font-family="Helvetica,sans-Serif" font-size="10.00">1</text>
</a>
</g>
</g>
<!-- dir_b6b0f0b7471b46e8c4cfc0f00c8af2f6&#45;&gt;dir_5cb6e1a8c8be2c39561c895666c60a3e -->
<g id="edge8" class="edge">
<title>dir_b6b0f0b7471b46e8c4cfc0f00c8af2f6&#45;&gt;dir_5cb6e1a8c8be2c39561c895666c60a3e</title>
<path fill="none" stroke="black" d="M190.32,-72.41C173.54,-62.7 152.19,-50.35 134.25,-39.97"/>
<polygon fill="black" stroke="black" points="135.63,-36.73 125.22,-34.75 132.13,-42.79 135.63,-36.73"/>
<g id="a_edge8&#45;headlabel"><a xlink:href="dir_000013_000014.html" target="_top" xlink:title="4">
<text text-anchor="middle" x="140.16" y="-33.57" font-family="Helvetica,sans-Serif" font-size="10.00">4</text>
</a>
</g>
</g>
<!-- dir_b6b0f0b7471b46e8c4cfc0f00c8af2f6&#45;&gt;dir_5da686cefd6752aaaa3bcabf1d868d88 -->
<g id="edge9" class="edge">
<title>dir_b6b0f0b7471b46e8c4cfc0f00c8af2f6&#45;&gt;dir_5da686cefd6752aaaa3bcabf1d868d88</title>
<path fill="none" stroke="black" d="M238.03,-71.7C247.54,-63.05 259.21,-52.45 269.57,-43.03"/>
<polygon fill="black" stroke="black" points="272.14,-45.42 277.19,-36.1 267.43,-40.24 272.14,-45.42"/>
<g id="a_edge9&#45;headlabel"><a xlink:href="dir_000013_000012.html" target="_top" xlink:title="2">
<text text-anchor="middle" x="271.39" y="-47.44" font-family="Helvetica,sans-Serif" font-size="10.00">2</text>
</a>
</g>
</g>
<!-- dir_96c90ef27c711de2cda20e988f4ab9d6&#45;&gt;dir_5cb6e1a8c8be2c39561c895666c60a3e -->
<g id="edge17" class="edge">
<title>dir_96c90ef27c711de2cda20e988f4ab9d6&#45;&gt;dir_5cb6e1a8c8be2c39561c895666c60a3e</title>
<path fill="none" stroke="black" d="M132.3,-143.87C125.62,-119.56 113.33,-74.82 105.42,-46.01"/>
<polygon fill="black" stroke="black" points="108.74,-44.91 102.72,-36.19 101.99,-46.76 108.74,-44.91"/>
<g id="a_edge17&#45;headlabel"><a xlink:href="dir_000016_000014.html" target="_top" xlink:title="1">
<text text-anchor="middle" x="112.43" y="-45.12" font-family="Helvetica,sans-Serif" font-size="10.00">1</text>
</a>
</g>
</g>
<!-- dir_96c90ef27c711de2cda20e988f4ab9d6&#45;&gt;dir_b6b0f0b7471b46e8c4cfc0f00c8af2f6 -->
<g id="edge18" class="edge">
<title>dir_96c90ef27c711de2cda20e988f4ab9d6&#45;&gt;dir_b6b0f0b7471b46e8c4cfc0f00c8af2f6</title>
<path fill="none" stroke="black" d="M157.27,-143.7C167.5,-134.97 180.06,-124.24 191.18,-114.75"/>
<polygon fill="black" stroke="black" points="193.63,-117.26 198.96,-108.1 189.09,-111.94 193.63,-117.26"/>
<g id="a_edge18&#45;headlabel"><a xlink:href="dir_000016_000013.html" target="_top" xlink:title="1">
<text text-anchor="middle" x="192.74" y="-119.25" font-family="Helvetica,sans-Serif" font-size="10.00">1</text>
</a>
</g>
</g>
<!-- dir_96c90ef27c711de2cda20e988f4ab9d6&#45;&gt;dir_5da686cefd6752aaaa3bcabf1d868d88 -->
<g id="edge19" class="edge">
<title>dir_96c90ef27c711de2cda20e988f4ab9d6&#45;&gt;dir_5da686cefd6752aaaa3bcabf1d868d88</title>
<path fill="none" stroke="black" d="M141.89,-143.85C148.25,-124.23 161.1,-92.23 182,-72 201.28,-53.34 228.34,-40.38 251.25,-31.95"/>
<polygon fill="black" stroke="black" points="252.5,-35.22 260.78,-28.61 250.19,-28.61 252.5,-35.22"/>
<g id="a_edge19&#45;headlabel"><a xlink:href="dir_000016_000012.html" target="_top" xlink:title="2">
<text text-anchor="middle" x="250.05" y="-36.59" font-family="Helvetica,sans-Serif" font-size="10.00">2</text>
</a>
</g>
</g>
</g>
</svg>
