<?xml version="1.0" encoding="UTF-8" standalone="no"?>
<!DOCTYPE svg PUBLIC "-//W3C//DTD SVG 1.1//EN"
 "http://www.w3.org/Graphics/SVG/1.1/DTD/svg11.dtd">
<!-- Generated by graphviz version 2.43.0 (0)
 -->
<!-- Title: sources/Debugger/CPU Pages: 1 -->
<svg width="229pt" height="223pt"
 viewBox="0.00 0.00 229.11 223.00" xmlns="http://www.w3.org/2000/svg" xmlns:xlink="http://www.w3.org/1999/xlink">
<g id="graph0" class="graph" transform="scale(1 1) rotate(0) translate(4 219)">
<title>sources/Debugger/CPU</title>
<polygon fill="white" stroke="transparent" points="-4,4 -4,-219 225.11,-219 225.11,4 -4,4"/>
<g id="clust1" class="cluster">
<title>clusterdir_189293303b628b823f13ae296b502d01</title>
<g id="a_clust1"><a xlink:href="dir_189293303b628b823f13ae296b502d01.html" target="_top" xlink:title="Debugger">
<polygon fill="#ddddee" stroke="black" points="106,-136 106,-207 176,-207 176,-136 106,-136"/>
<text text-anchor="middle" x="141" y="-195" font-family="Helvetica,sans-Serif" font-size="10.00">Debugger</text>
</a>
</g>
</g>
<!-- dir_f310dd6fcff708d4aeb1a6c2ce39f361 -->
<g id="node1" class="node">
<title>dir_f310dd6fcff708d4aeb1a6c2ce39f361</title>
<g id="a_node1"><a xlink:href="dir_f310dd6fcff708d4aeb1a6c2ce39f361.html" target="_top" xlink:title="CPU">
<polygon fill="#eeeeff" stroke="black" points="168,-180 114,-180 114,-144 168,-144 168,-180"/>
<text text-anchor="middle" x="141" y="-159.5" font-family="Helvetica,sans-Serif" font-size="10.00">CPU</text>
</a>
</g>
</g>
<!-- dir_a65246f7a5288ee65248a0302198d58d -->
<g id="node2" class="node">
<title>dir_a65246f7a5288ee65248a0302198d58d</title>
<g id="a_node2"><a xlink:href="dir_a65246f7a5288ee65248a0302198d58d.html" target="_top" xlink:title="CPU">
<polygon fill="white" stroke="red" points="54,-108 0,-108 0,-72 54,-72 54,-108"/>
<text text-anchor="middle" x="27" y="-87.5" font-family="Helvetica,sans-Serif" font-size="10.00">CPU</text>
</a>
</g>
</g>
<!-- dir_f310dd6fcff708d4aeb1a6c2ce39f361&#45;&gt;dir_a65246f7a5288ee65248a0302198d58d -->
<g id="edge1" class="edge">
<title>dir_f310dd6fcff708d4aeb1a6c2ce39f361&#45;&gt;dir_a65246f7a5288ee65248a0302198d58d</title>
<path fill="none" stroke="black" d="M113.98,-144.41C98.76,-135.06 79.55,-123.27 63.06,-113.14"/>
<polygon fill="black" stroke="black" points="64.57,-109.96 54.22,-107.71 60.91,-115.93 64.57,-109.96"/>
<g id="a_edge1&#45;headlabel"><a xlink:href="dir_000011_000007.html" target="_top" xlink:title="1">
<text text-anchor="middle" x="69.12" y="-106.92" font-family="Helvetica,sans-Serif" font-size="10.00">1</text>
</a>
</g>
</g>
<!-- dir_9d8b0bd023ebe51fb4b8ffcd38d3f5ed -->
<g id="node3" class="node">
<title>dir_9d8b0bd023ebe51fb4b8ffcd38d3f5ed</title>
<g id="a_node3"><a xlink:href="dir_9d8b0bd023ebe51fb4b8ffcd38d3f5ed.html" target="_top" xlink:title="Renderer">
<polygon fill="white" stroke="red" points="133.5,-108 72.5,-108 72.5,-72 133.5,-72 133.5,-108"/>
<text text-anchor="middle" x="103" y="-87.5" font-family="Helvetica,sans-Serif" font-size="10.00">Renderer</text>
</a>
</g>
</g>
<!-- dir_f310dd6fcff708d4aeb1a6c2ce39f361&#45;&gt;dir_9d8b0bd023ebe51fb4b8ffcd38d3f5ed -->
<g id="edge2" class="edge">
<title>dir_f310dd6fcff708d4aeb1a6c2ce39f361&#45;&gt;dir_9d8b0bd023ebe51fb4b8ffcd38d3f5ed</title>
<path fill="none" stroke="black" d="M131.61,-143.7C127.24,-135.64 121.94,-125.89 117.1,-116.98"/>
<polygon fill="black" stroke="black" points="120.13,-115.22 112.29,-108.1 113.98,-118.56 120.13,-115.22"/>
<g id="a_edge2&#45;headlabel"><a xlink:href="dir_000011_000017.html" target="_top" xlink:title="1">
<text text-anchor="middle" x="124.34" y="-114.53" font-family="Helvetica,sans-Serif" font-size="10.00">1</text>
</a>
</g>
</g>
<!-- dir_f5f18c638a333642b431bbbd93cbd24f -->
<g id="node4" class="node">
<title>dir_f5f18c638a333642b431bbbd93cbd24f</title>
<g id="a_node4"><a xlink:href="dir_f5f18c638a333642b431bbbd93cbd24f.html" target="_top" xlink:title="Utility">
<polygon fill="none" stroke="black" points="206,-108 152,-108 152,-72 206,-72 206,-108"/>
<text text-anchor="middle" x="179" y="-87.5" font-family="Helvetica,sans-Serif" font-size="10.00">Utility</text>
</a>
</g>
</g>
<!-- dir_f310dd6fcff708d4aeb1a6c2ce39f361&#45;&gt;dir_f5f18c638a333642b431bbbd93cbd24f -->
<g id="edge3" class="edge">
<title>dir_f310dd6fcff708d4aeb1a6c2ce39f361&#45;&gt;dir_f5f18c638a333642b431bbbd93cbd24f</title>
<path fill="none" stroke="black" d="M150.39,-143.7C154.76,-135.64 160.06,-125.89 164.9,-116.98"/>
<polygon fill="black" stroke="black" points="168.02,-118.56 169.71,-108.1 161.87,-115.22 168.02,-118.56"/>
<g id="a_edge3&#45;headlabel"><a xlink:href="dir_000011_000019.html" target="_top" xlink:title="2">
<text text-anchor="middle" x="168.8" y="-120.58" font-family="Helvetica,sans-Serif" font-size="10.00">2</text>
</a>
</g>
</g>
<!-- dir_5da686cefd6752aaaa3bcabf1d868d88 -->
<g id="node5" class="node">
<title>dir_5da686cefd6752aaaa3bcabf1d868d88</title>
<g id="a_node5"><a xlink:href="dir_5da686cefd6752aaaa3bcabf1d868d88.html" target="_top" xlink:title="Exceptions">
<polygon fill="none" stroke="black" points="138,-36 68,-36 68,0 138,0 138,-36"/>
<text text-anchor="middle" x="103" y="-15.5" font-family="Helvetica,sans-Serif" font-size="10.00">Exceptions</text>
</a>
</g>
</g>
<!-- dir_f310dd6fcff708d4aeb1a6c2ce39f361&#45;&gt;dir_5da686cefd6752aaaa3bcabf1d868d88 -->
<g id="edge4" class="edge">
<title>dir_f310dd6fcff708d4aeb1a6c2ce39f361&#45;&gt;dir_5da686cefd6752aaaa3bcabf1d868d88</title>
<path fill="none" stroke="black" d="M168.06,-149.58C184.91,-140.88 205.18,-127.12 215,-108 222.31,-93.77 223.56,-85.52 215,-72 200.28,-48.76 172.32,-35.51 148.02,-28.07"/>
<polygon fill="black" stroke="black" points="148.8,-24.66 138.23,-25.32 146.91,-31.4 148.8,-24.66"/>
<g id="a_edge4&#45;headlabel"><a xlink:href="dir_000011_000012.html" target="_top" xlink:title="1">
<text text-anchor="middle" x="153.03" y="-20.4" font-family="Helvetica,sans-Serif" font-size="10.00">1</text>
</a>
</g>
</g>
<!-- dir_a65246f7a5288ee65248a0302198d58d&#45;&gt;dir_5da686cefd6752aaaa3bcabf1d868d88 -->
<g id="edge5" class="edge">
<title>dir_a65246f7a5288ee65248a0302198d58d&#45;&gt;dir_5da686cefd6752aaaa3bcabf1d868d88</title>
<path fill="none" stroke="black" d="M45.79,-71.7C55.17,-63.05 66.68,-52.45 76.91,-43.03"/>
<polygon fill="black" stroke="black" points="79.45,-45.45 84.43,-36.1 74.7,-40.3 79.45,-45.45"/>
<g id="a_edge5&#45;headlabel"><a xlink:href="dir_000007_000012.html" target="_top" xlink:title="3">
<text text-anchor="middle" x="78.72" y="-47.48" font-family="Helvetica,sans-Serif" font-size="10.00">3</text>
</a>
</g>
</g>
<!-- dir_9d8b0bd023ebe51fb4b8ffcd38d3f5ed&#45;&gt;dir_5da686cefd6752aaaa3bcabf1d868d88 -->
<g id="edge6" class="edge">
<title>dir_9d8b0bd023ebe51fb4b8ffcd38d3f5ed&#45;&gt;dir_5da686cefd6752aaaa3bcabf1d868d88</title>
<path fill="none" stroke="black" d="M103,-71.7C103,-63.98 103,-54.71 103,-46.11"/>
<polygon fill="black" stroke="black" points="106.5,-46.1 103,-36.1 99.5,-46.1 106.5,-46.1"/>
<g id="a_edge6&#45;headlabel"><a xlink:href="dir_000017_000012.html" target="_top" xlink:title="1">
<text text-anchor="middle" x="109.34" y="-47.2" font-family="Helvetica,sans-Serif" font-size="10.00">1</text>
</a>
</g>
</g>
</g>
</svg>
