<?xml version="1.0" encoding="UTF-8" standalone="no"?>
<!DOCTYPE svg PUBLIC "-//W3C//DTD SVG 1.1//EN"
 "http://www.w3.org/Graphics/SVG/1.1/DTD/svg11.dtd">
<!-- Generated by graphviz version 2.43.0 (0)
 -->
<!-- Title: sources/Debugger/CPU/Disassembly.cpp Pages: 1 -->
<svg width="1866pt" height="543pt"
 viewBox="0.00 0.00 1865.50 543.00" xmlns="http://www.w3.org/2000/svg" xmlns:xlink="http://www.w3.org/1999/xlink">
<g id="graph0" class="graph" transform="scale(1 1) rotate(0) translate(4 539)">
<title>sources/Debugger/CPU/Disassembly.cpp</title>
<polygon fill="white" stroke="transparent" points="-4,4 -4,-539 1861.5,-539 1861.5,4 -4,4"/>
<!-- Node1 -->
<g id="node1" class="node">
<title>Node1</title>
<g id="a_node1"><a xlink:title=" ">
<polygon fill="#bfbfbf" stroke="black" points="61,-504.5 61,-534.5 189,-534.5 189,-504.5 61,-504.5"/>
<text text-anchor="start" x="69" y="-522.5" font-family="Helvetica,sans-Serif" font-size="10.00">sources/Debugger/CPU</text>
<text text-anchor="middle" x="125" y="-511.5" font-family="Helvetica,sans-Serif" font-size="10.00">/Disassembly.cpp</text>
</a>
</g>
</g>
<!-- Node2 -->
<g id="node2" class="node">
<title>Node2</title>
<g id="a_node2"><a xlink:title=" ">
<polygon fill="white" stroke="#bfbfbf" points="0,-392.5 0,-411.5 56,-411.5 56,-392.5 0,-392.5"/>
<text text-anchor="middle" x="28" y="-399.5" font-family="Helvetica,sans-Serif" font-size="10.00">sstream</text>
</a>
</g>
</g>
<!-- Node1&#45;&gt;Node2 -->
<g id="edge1" class="edge">
<title>Node1&#45;&gt;Node2</title>
<path fill="none" stroke="midnightblue" d="M100.16,-504.47C86.04,-495.51 68.87,-482.8 57,-468 45.9,-454.16 38.13,-435.39 33.44,-421.58"/>
<polygon fill="midnightblue" stroke="midnightblue" points="36.69,-420.24 30.34,-411.76 30.01,-422.35 36.69,-420.24"/>
</g>
<!-- Node3 -->
<g id="node3" class="node">
<title>Node3</title>
<g id="a_node3"><a xlink:href="CPUDebug_8hpp.html" target="_top" xlink:title=" ">
<polygon fill="white" stroke="black" points="933.5,-448.5 933.5,-467.5 1022.5,-467.5 1022.5,-448.5 933.5,-448.5"/>
<text text-anchor="middle" x="978" y="-455.5" font-family="Helvetica,sans-Serif" font-size="10.00">CPUDebug.hpp</text>
</a>
</g>
</g>
<!-- Node1&#45;&gt;Node3 -->
<g id="edge2" class="edge">
<title>Node1&#45;&gt;Node3</title>
<path fill="none" stroke="midnightblue" d="M189.11,-514.03C350.49,-502.77 771.36,-473.41 922.75,-462.85"/>
<polygon fill="midnightblue" stroke="midnightblue" points="923.44,-466.31 933.17,-462.13 922.95,-459.33 923.44,-466.31"/>
</g>
<!-- Node43 -->
<g id="node43" class="node">
<title>Node43</title>
<g id="a_node43"><a xlink:href="Utility_8hpp.html" target="_top" xlink:title=" ">
<polygon fill="white" stroke="black" points="66.5,-448.5 66.5,-467.5 183.5,-467.5 183.5,-448.5 66.5,-448.5"/>
<text text-anchor="middle" x="125" y="-455.5" font-family="Helvetica,sans-Serif" font-size="10.00">../../Utility/Utility.hpp</text>
</a>
</g>
</g>
<!-- Node1&#45;&gt;Node43 -->
<g id="edge84" class="edge">
<title>Node1&#45;&gt;Node43</title>
<path fill="none" stroke="midnightblue" d="M125,-504.4C125,-496.47 125,-486.46 125,-477.86"/>
<polygon fill="midnightblue" stroke="midnightblue" points="128.5,-477.66 125,-467.66 121.5,-477.66 128.5,-477.66"/>
</g>
<!-- Node4 -->
<g id="node4" class="node">
<title>Node4</title>
<g id="a_node4"><a xlink:title=" ">
<polygon fill="white" stroke="#bfbfbf" points="1457,-392.5 1457,-411.5 1633,-411.5 1633,-392.5 1457,-392.5"/>
<text text-anchor="middle" x="1545" y="-399.5" font-family="Helvetica,sans-Serif" font-size="10.00">QtWidgets/QStyledItemDelegate</text>
</a>
</g>
</g>
<!-- Node3&#45;&gt;Node4 -->
<g id="edge3" class="edge">
<title>Node3&#45;&gt;Node4</title>
<path fill="none" stroke="midnightblue" d="M1022.97,-452.72C1114.11,-444.04 1322.49,-424.19 1446.65,-412.37"/>
<polygon fill="midnightblue" stroke="midnightblue" points="1447.3,-415.82 1456.92,-411.39 1446.63,-408.85 1447.3,-415.82"/>
</g>
<!-- Node5 -->
<g id="node5" class="node">
<title>Node5</title>
<g id="a_node5"><a xlink:href="CPU_8hpp.html" target="_top" xlink:title=" ">
<polygon fill="white" stroke="black" points="732.5,-280.5 732.5,-299.5 831.5,-299.5 831.5,-280.5 732.5,-280.5"/>
<text text-anchor="middle" x="782" y="-287.5" font-family="Helvetica,sans-Serif" font-size="10.00">../../CPU/CPU.hpp</text>
</a>
</g>
</g>
<!-- Node3&#45;&gt;Node5 -->
<g id="edge4" class="edge">
<title>Node3&#45;&gt;Node5</title>
<path fill="none" stroke="midnightblue" d="M979.53,-448.34C982.88,-426.43 988.35,-368.23 959,-336 943.22,-318.68 886.65,-306.35 841.65,-299.03"/>
<polygon fill="midnightblue" stroke="midnightblue" points="842.09,-295.56 831.67,-297.46 841,-302.47 842.09,-295.56"/>
</g>
<!-- Node21 -->
<g id="node21" class="node">
<title>Node21</title>
<g id="a_node21"><a xlink:href="SFRenderer_8hpp.html" target="_top" xlink:title=" ">
<polygon fill="white" stroke="black" points="1281,-392.5 1281,-411.5 1439,-411.5 1439,-392.5 1281,-392.5"/>
<text text-anchor="middle" x="1360" y="-399.5" font-family="Helvetica,sans-Serif" font-size="10.00">../../Renderer/SFRenderer.hpp</text>
</a>
</g>
</g>
<!-- Node3&#45;&gt;Node21 -->
<g id="edge43" class="edge">
<title>Node3&#45;&gt;Node21</title>
<path fill="none" stroke="midnightblue" d="M1022.57,-450.7C1088.21,-441.42 1211.52,-423.99 1289.51,-412.96"/>
<polygon fill="midnightblue" stroke="midnightblue" points="1290.32,-416.39 1299.73,-411.52 1289.34,-409.45 1290.32,-416.39"/>
</g>
<!-- Node24 -->
<g id="node24" class="node">
<title>Node24</title>
<g id="a_node24"><a xlink:href="SNES_8hpp.html" target="_top" xlink:title=" ">
<polygon fill="white" stroke="black" points="1006,-336.5 1006,-355.5 1078,-355.5 1078,-336.5 1006,-336.5"/>
<text text-anchor="middle" x="1042" y="-343.5" font-family="Helvetica,sans-Serif" font-size="10.00">../SNES.hpp</text>
</a>
</g>
</g>
<!-- Node3&#45;&gt;Node24 -->
<g id="edge80" class="edge">
<title>Node3&#45;&gt;Node24</title>
<path fill="none" stroke="midnightblue" d="M983.02,-448.37C993.54,-430.3 1018.04,-388.18 1031.93,-364.31"/>
<polygon fill="midnightblue" stroke="midnightblue" points="1035,-366 1037,-355.59 1028.95,-362.47 1035,-366"/>
</g>
<!-- Node40 -->
<g id="node40" class="node">
<title>Node40</title>
<g id="a_node40"><a xlink:title=" ">
<polygon fill="white" stroke="#bfbfbf" points="685.5,-392.5 685.5,-411.5 804.5,-411.5 804.5,-392.5 685.5,-392.5"/>
<text text-anchor="middle" x="745" y="-399.5" font-family="Helvetica,sans-Serif" font-size="10.00">../../../ui/ui_cpuView.h</text>
</a>
</g>
</g>
<!-- Node3&#45;&gt;Node40 -->
<g id="edge81" class="edge">
<title>Node3&#45;&gt;Node40</title>
<path fill="none" stroke="midnightblue" d="M941.08,-448.44C900.6,-439.06 835.58,-423.99 791.62,-413.8"/>
<polygon fill="midnightblue" stroke="midnightblue" points="792.28,-410.36 781.75,-411.52 790.7,-417.18 792.28,-410.36"/>
</g>
<!-- Node41 -->
<g id="node41" class="node">
<title>Node41</title>
<g id="a_node41"><a xlink:href="ClosableWindow_8hpp.html" target="_top" xlink:title=" ">
<polygon fill="white" stroke="black" points="822.5,-392.5 822.5,-411.5 949.5,-411.5 949.5,-392.5 822.5,-392.5"/>
<text text-anchor="middle" x="886" y="-399.5" font-family="Helvetica,sans-Serif" font-size="10.00">../ClosableWindow.hpp</text>
</a>
</g>
</g>
<!-- Node3&#45;&gt;Node41 -->
<g id="edge82" class="edge">
<title>Node3&#45;&gt;Node41</title>
<path fill="none" stroke="midnightblue" d="M963.22,-448.32C948.73,-439.82 926.43,-426.73 909.51,-416.8"/>
<polygon fill="midnightblue" stroke="midnightblue" points="911.14,-413.7 900.74,-411.65 907.6,-419.74 911.14,-413.7"/>
</g>
<!-- Node6 -->
<g id="node6" class="node">
<title>Node6</title>
<g id="a_node6"><a xlink:href="AMemory_8hpp.html" target="_top" xlink:title=" ">
<polygon fill="white" stroke="black" points="831,-112.5 831,-131.5 967,-131.5 967,-112.5 831,-112.5"/>
<text text-anchor="middle" x="899" y="-119.5" font-family="Helvetica,sans-Serif" font-size="10.00">../Memory/AMemory.hpp</text>
</a>
</g>
</g>
<!-- Node5&#45;&gt;Node6 -->
<g id="edge5" class="edge">
<title>Node5&#45;&gt;Node6</title>
<path fill="none" stroke="midnightblue" d="M789.96,-280.47C797.88,-271.72 810.12,-257.53 819,-244 839.84,-212.27 836.36,-199.19 858,-168 865.21,-157.6 874.65,-147.09 882.65,-138.84"/>
<polygon fill="midnightblue" stroke="midnightblue" points="885.18,-141.26 889.76,-131.7 880.22,-136.32 885.18,-141.26"/>
</g>
<!-- Node11 -->
<g id="node11" class="node">
<title>Node11</title>
<g id="a_node11"><a xlink:href="Int24_8hpp.html" target="_top" xlink:title=" ">
<polygon fill="white" stroke="black" points="242,-0.5 242,-19.5 352,-19.5 352,-0.5 242,-0.5"/>
<text text-anchor="middle" x="297" y="-7.5" font-family="Helvetica,sans-Serif" font-size="10.00">../Models/Int24.hpp</text>
</a>
</g>
</g>
<!-- Node5&#45;&gt;Node11 -->
<g id="edge24" class="edge">
<title>Node5&#45;&gt;Node11</title>
<path fill="none" stroke="midnightblue" d="M732.32,-286.05C643.37,-280.29 460.63,-266.14 401,-244 324,-215.41 298.55,-201 254,-132 235.22,-102.92 221.52,-86.96 237,-56 243.73,-42.54 256.61,-32.07 268.71,-24.62"/>
<polygon fill="midnightblue" stroke="midnightblue" points="270.73,-27.5 277.7,-19.52 267.28,-21.41 270.73,-27.5"/>
</g>
<!-- Node14 -->
<g id="node14" class="node">
<title>Node14</title>
<g id="a_node14"><a xlink:href="MemoryBus_8hpp.html" target="_top" xlink:title=" ">
<polygon fill="white" stroke="black" points="991.5,-168.5 991.5,-187.5 1140.5,-187.5 1140.5,-168.5 991.5,-168.5"/>
<text text-anchor="middle" x="1066" y="-175.5" font-family="Helvetica,sans-Serif" font-size="10.00">../Memory/MemoryBus.hpp</text>
</a>
</g>
</g>
<!-- Node5&#45;&gt;Node14 -->
<g id="edge19" class="edge">
<title>Node5&#45;&gt;Node14</title>
<path fill="none" stroke="midnightblue" d="M831.84,-285.93C876.67,-281.49 943.23,-270.61 995,-244 1018.11,-232.12 1039.34,-210.69 1052.45,-195.7"/>
<polygon fill="midnightblue" stroke="midnightblue" points="1055.4,-197.63 1059.18,-187.73 1050.05,-193.11 1055.4,-197.63"/>
</g>
<!-- Node15 -->
<g id="node15" class="node">
<title>Node15</title>
<g id="a_node15"><a xlink:href="Cartridge_8hpp.html" target="_top" xlink:title=" ">
<polygon fill="white" stroke="black" points="502,-224.5 502,-243.5 642,-243.5 642,-224.5 502,-224.5"/>
<text text-anchor="middle" x="572" y="-231.5" font-family="Helvetica,sans-Serif" font-size="10.00">../Cartridge/Cartridge.hpp</text>
</a>
</g>
</g>
<!-- Node5&#45;&gt;Node15 -->
<g id="edge25" class="edge">
<title>Node5&#45;&gt;Node15</title>
<path fill="none" stroke="midnightblue" d="M748.72,-280.44C712.55,-271.14 654.62,-256.25 615.02,-246.06"/>
<polygon fill="midnightblue" stroke="midnightblue" points="615.68,-242.62 605.12,-243.52 613.93,-249.4 615.68,-242.62"/>
</g>
<!-- Node19 -->
<g id="node19" class="node">
<title>Node19</title>
<g id="a_node19"><a xlink:href="Instruction_8hpp.html" target="_top" xlink:title=" ">
<polygon fill="white" stroke="black" points="252.5,-56.5 252.5,-75.5 341.5,-75.5 341.5,-56.5 252.5,-56.5"/>
<text text-anchor="middle" x="297" y="-63.5" font-family="Helvetica,sans-Serif" font-size="10.00">Instruction.hpp</text>
</a>
</g>
</g>
<!-- Node5&#45;&gt;Node19 -->
<g id="edge35" class="edge">
<title>Node5&#45;&gt;Node19</title>
<path fill="none" stroke="midnightblue" d="M732.12,-284.49C627.59,-273.99 390.71,-244.43 336,-188 308.56,-159.7 300.43,-112.01 298.02,-85.74"/>
<polygon fill="midnightblue" stroke="midnightblue" points="301.5,-85.34 297.28,-75.63 294.51,-85.85 301.5,-85.34"/>
</g>
<!-- Node20 -->
<g id="node20" class="node">
<title>Node20</title>
<g id="a_node20"><a xlink:href="DMA_8hpp.html" target="_top" xlink:title=" ">
<polygon fill="white" stroke="black" points="722.5,-224.5 722.5,-243.5 809.5,-243.5 809.5,-224.5 722.5,-224.5"/>
<text text-anchor="middle" x="766" y="-231.5" font-family="Helvetica,sans-Serif" font-size="10.00">DMA/DMA.hpp</text>
</a>
</g>
</g>
<!-- Node5&#45;&gt;Node20 -->
<g id="edge38" class="edge">
<title>Node5&#45;&gt;Node20</title>
<path fill="none" stroke="midnightblue" d="M779.36,-280.08C777.21,-272.85 774.12,-262.41 771.45,-253.4"/>
<polygon fill="midnightblue" stroke="midnightblue" points="774.79,-252.34 768.59,-243.75 768.08,-254.33 774.79,-252.34"/>
</g>
<!-- Node7 -->
<g id="node7" class="node">
<title>Node7</title>
<g id="a_node7"><a xlink:title=" ">
<polygon fill="white" stroke="#bfbfbf" points="1016,-0.5 1016,-19.5 1066,-19.5 1066,-0.5 1016,-0.5"/>
<text text-anchor="middle" x="1041" y="-7.5" font-family="Helvetica,sans-Serif" font-size="10.00">cstdint</text>
</a>
</g>
</g>
<!-- Node6&#45;&gt;Node7 -->
<g id="edge6" class="edge">
<title>Node6&#45;&gt;Node7</title>
<path fill="none" stroke="midnightblue" d="M910.14,-112.37C934.3,-93.65 991.75,-49.15 1021.85,-25.83"/>
<polygon fill="midnightblue" stroke="midnightblue" points="1024.15,-28.48 1029.91,-19.59 1019.86,-22.95 1024.15,-28.48"/>
</g>
<!-- Node8 -->
<g id="node8" class="node">
<title>Node8</title>
<g id="a_node8"><a xlink:title=" ">
<polygon fill="white" stroke="#bfbfbf" points="912.5,-0.5 912.5,-19.5 959.5,-19.5 959.5,-0.5 912.5,-0.5"/>
<text text-anchor="middle" x="936" y="-7.5" font-family="Helvetica,sans-Serif" font-size="10.00">vector</text>
</a>
</g>
</g>
<!-- Node6&#45;&gt;Node8 -->
<g id="edge7" class="edge">
<title>Node6&#45;&gt;Node8</title>
<path fill="none" stroke="midnightblue" d="M901.9,-112.37C907.9,-94.54 921.77,-53.3 929.85,-29.27"/>
<polygon fill="midnightblue" stroke="midnightblue" points="933.24,-30.19 933.11,-19.59 926.6,-27.95 933.24,-30.19"/>
</g>
<!-- Node9 -->
<g id="node9" class="node">
<title>Node9</title>
<g id="a_node9"><a xlink:title=" ">
<polygon fill="white" stroke="#bfbfbf" points="648,-0.5 648,-19.5 706,-19.5 706,-0.5 648,-0.5"/>
<text text-anchor="middle" x="677" y="-7.5" font-family="Helvetica,sans-Serif" font-size="10.00">memory</text>
</a>
</g>
</g>
<!-- Node6&#45;&gt;Node9 -->
<g id="edge8" class="edge">
<title>Node6&#45;&gt;Node9</title>
<path fill="none" stroke="midnightblue" d="M868.06,-112.5C841.76,-104.7 803.38,-91.95 772,-76 743.7,-61.62 713.95,-40.06 695.44,-25.76"/>
<polygon fill="midnightblue" stroke="midnightblue" points="697.57,-22.99 687.54,-19.58 693.25,-28.5 697.57,-22.99"/>
</g>
<!-- Node10 -->
<g id="node10" class="node">
<title>Node10</title>
<g id="a_node10"><a xlink:title=" ">
<polygon fill="white" stroke="#bfbfbf" points="500,-0.5 500,-19.5 544,-19.5 544,-0.5 500,-0.5"/>
<text text-anchor="middle" x="522" y="-7.5" font-family="Helvetica,sans-Serif" font-size="10.00">string</text>
</a>
</g>
</g>
<!-- Node6&#45;&gt;Node10 -->
<g id="edge9" class="edge">
<title>Node6&#45;&gt;Node10</title>
<path fill="none" stroke="midnightblue" d="M854.16,-112.47C813.76,-104.4 752.91,-91.26 701,-76 648.02,-60.43 587.98,-37.51 552.65,-23.46"/>
<polygon fill="midnightblue" stroke="midnightblue" points="553.52,-20.04 542.93,-19.57 550.92,-26.53 553.52,-20.04"/>
</g>
<!-- Node6&#45;&gt;Node11 -->
<g id="edge10" class="edge">
<title>Node6&#45;&gt;Node11</title>
<path fill="none" stroke="midnightblue" d="M847.74,-112.49C794.89,-103.64 710.11,-89.27 637,-76 535.34,-57.55 416.88,-34.57 350.03,-21.46"/>
<polygon fill="midnightblue" stroke="midnightblue" points="350.64,-18.01 340.16,-19.52 349.3,-24.88 350.64,-18.01"/>
</g>
<!-- Node12 -->
<g id="node12" class="node">
<title>Node12</title>
<g id="a_node12"><a xlink:href="Components_8hpp.html" target="_top" xlink:title=" ">
<polygon fill="white" stroke="black" points="748,-0.5 748,-19.5 894,-19.5 894,-0.5 748,-0.5"/>
<text text-anchor="middle" x="821" y="-7.5" font-family="Helvetica,sans-Serif" font-size="10.00">../Models/Components.hpp</text>
</a>
</g>
</g>
<!-- Node6&#45;&gt;Node12 -->
<g id="edge11" class="edge">
<title>Node6&#45;&gt;Node12</title>
<path fill="none" stroke="midnightblue" d="M896.42,-112.42C892.25,-99.41 883.14,-74.25 870,-56 861.86,-44.69 850.51,-34.04 840.78,-25.95"/>
<polygon fill="midnightblue" stroke="midnightblue" points="842.77,-23.06 832.77,-19.54 838.39,-28.52 842.77,-23.06"/>
</g>
<!-- Node13 -->
<g id="node13" class="node">
<title>Node13</title>
<g id="a_node13"><a xlink:href="IMemory_8hpp.html" target="_top" xlink:title=" ">
<polygon fill="white" stroke="black" points="781,-56.5 781,-75.5 861,-75.5 861,-56.5 781,-56.5"/>
<text text-anchor="middle" x="821" y="-63.5" font-family="Helvetica,sans-Serif" font-size="10.00">IMemory.hpp</text>
</a>
</g>
</g>
<!-- Node6&#45;&gt;Node13 -->
<g id="edge12" class="edge">
<title>Node6&#45;&gt;Node13</title>
<path fill="none" stroke="midnightblue" d="M886.47,-112.32C874.41,-103.98 855.97,-91.21 841.73,-81.35"/>
<polygon fill="midnightblue" stroke="midnightblue" points="843.72,-78.47 833.5,-75.65 839.73,-84.22 843.72,-78.47"/>
</g>
<!-- Node13&#45;&gt;Node7 -->
<g id="edge13" class="edge">
<title>Node13&#45;&gt;Node7</title>
<path fill="none" stroke="midnightblue" d="M855.86,-56.44C896.96,-46.35 964.88,-29.68 1006.03,-19.58"/>
<polygon fill="midnightblue" stroke="midnightblue" points="1007.01,-22.95 1015.88,-17.16 1005.34,-16.15 1007.01,-22.95"/>
</g>
<!-- Node13&#45;&gt;Node8 -->
<g id="edge14" class="edge">
<title>Node13&#45;&gt;Node8</title>
<path fill="none" stroke="midnightblue" d="M839.22,-56.44C857.9,-47.68 887.16,-33.94 908.62,-23.86"/>
<polygon fill="midnightblue" stroke="midnightblue" points="910.3,-26.93 917.86,-19.52 907.32,-20.6 910.3,-26.93"/>
</g>
<!-- Node13&#45;&gt;Node9 -->
<g id="edge15" class="edge">
<title>Node13&#45;&gt;Node9</title>
<path fill="none" stroke="midnightblue" d="M798.18,-56.44C774.17,-47.44 736.17,-33.19 709.13,-23.05"/>
<polygon fill="midnightblue" stroke="midnightblue" points="710.3,-19.75 699.71,-19.52 707.84,-26.3 710.3,-19.75"/>
</g>
<!-- Node13&#45;&gt;Node10 -->
<g id="edge16" class="edge">
<title>Node13&#45;&gt;Node10</title>
<path fill="none" stroke="midnightblue" d="M780.99,-57.77C721.04,-46.95 609.1,-26.73 554.13,-16.8"/>
<polygon fill="midnightblue" stroke="midnightblue" points="554.71,-13.35 544.24,-15.02 553.46,-20.24 554.71,-13.35"/>
</g>
<!-- Node13&#45;&gt;Node11 -->
<g id="edge17" class="edge">
<title>Node13&#45;&gt;Node11</title>
<path fill="none" stroke="midnightblue" d="M780.75,-60.85C690.58,-51.56 471.7,-29 361.97,-17.7"/>
<polygon fill="midnightblue" stroke="midnightblue" points="362.32,-14.21 352.02,-16.67 361.61,-21.18 362.32,-14.21"/>
</g>
<!-- Node13&#45;&gt;Node12 -->
<g id="edge18" class="edge">
<title>Node13&#45;&gt;Node12</title>
<path fill="none" stroke="midnightblue" d="M821,-56.08C821,-49.01 821,-38.86 821,-29.99"/>
<polygon fill="midnightblue" stroke="midnightblue" points="824.5,-29.75 821,-19.75 817.5,-29.75 824.5,-29.75"/>
</g>
<!-- Node14&#45;&gt;Node6 -->
<g id="edge23" class="edge">
<title>Node14&#45;&gt;Node6</title>
<path fill="none" stroke="midnightblue" d="M1039.54,-168.44C1011.32,-159.32 966.46,-144.81 935.03,-134.65"/>
<polygon fill="midnightblue" stroke="midnightblue" points="935.93,-131.26 925.34,-131.52 933.78,-137.92 935.93,-131.26"/>
</g>
<!-- Node14&#45;&gt;Node7 -->
<g id="edge20" class="edge">
<title>Node14&#45;&gt;Node7</title>
<path fill="none" stroke="midnightblue" d="M1065.84,-168.4C1065.33,-148.46 1063.26,-97.59 1055,-56 1053.23,-47.07 1050.35,-37.41 1047.66,-29.33"/>
<polygon fill="midnightblue" stroke="midnightblue" points="1050.95,-28.11 1044.35,-19.82 1044.34,-30.42 1050.95,-28.11"/>
</g>
<!-- Node14&#45;&gt;Node8 -->
<g id="edge21" class="edge">
<title>Node14&#45;&gt;Node8</title>
<path fill="none" stroke="midnightblue" d="M1059.01,-168.08C1038.19,-141.49 976.36,-62.54 949.13,-27.76"/>
<polygon fill="midnightblue" stroke="midnightblue" points="951.63,-25.28 942.71,-19.57 946.12,-29.6 951.63,-25.28"/>
</g>
<!-- Node14&#45;&gt;Node9 -->
<g id="edge22" class="edge">
<title>Node14&#45;&gt;Node9</title>
<path fill="none" stroke="midnightblue" d="M991.33,-170.83C941.92,-164.93 876.47,-153.57 822,-132 779.25,-115.07 769.96,-105.87 735,-76 717.83,-61.33 700.96,-41.67 689.88,-27.82"/>
<polygon fill="midnightblue" stroke="midnightblue" points="692.42,-25.38 683.49,-19.67 686.91,-29.7 692.42,-25.38"/>
</g>
<!-- Node15&#45;&gt;Node6 -->
<g id="edge27" class="edge">
<title>Node15&#45;&gt;Node6</title>
<path fill="none" stroke="midnightblue" d="M577.11,-224.13C585.91,-209.74 605.37,-181.59 630,-168 661.99,-150.35 753.17,-137.63 820.55,-130.31"/>
<polygon fill="midnightblue" stroke="midnightblue" points="821.16,-133.76 830.73,-129.22 820.41,-126.8 821.16,-133.76"/>
</g>
<!-- Node15&#45;&gt;Node10 -->
<g id="edge26" class="edge">
<title>Node15&#45;&gt;Node10</title>
<path fill="none" stroke="midnightblue" d="M501.93,-228.79C442.18,-223.56 362.88,-212.17 343,-188 314.52,-153.38 446.62,-60.59 500.23,-25.09"/>
<polygon fill="midnightblue" stroke="midnightblue" points="502.27,-27.94 508.71,-19.52 498.43,-22.09 502.27,-27.94"/>
</g>
<!-- Node15&#45;&gt;Node11 -->
<g id="edge28" class="edge">
<title>Node15&#45;&gt;Node11</title>
<path fill="none" stroke="midnightblue" d="M501.79,-231.95C452.39,-228.39 386.38,-217.73 336,-188 280.28,-155.12 264.97,-136.86 243,-76 239.98,-67.64 239.23,-64.05 243,-56 249.04,-43.09 260.81,-32.6 271.82,-25"/>
<polygon fill="midnightblue" stroke="midnightblue" points="273.83,-27.87 280.37,-19.54 270.06,-21.97 273.83,-27.87"/>
</g>
<!-- Node16 -->
<g id="node16" class="node">
<title>Node16</title>
<g id="a_node16"><a xlink:href="ARectangleMemory_8hpp.html" target="_top" xlink:title=" ">
<polygon fill="white" stroke="black" points="549.5,-112.5 549.5,-131.5 734.5,-131.5 734.5,-112.5 549.5,-112.5"/>
<text text-anchor="middle" x="642" y="-119.5" font-family="Helvetica,sans-Serif" font-size="10.00">../Memory/ARectangleMemory.hpp</text>
</a>
</g>
</g>
<!-- Node15&#45;&gt;Node16 -->
<g id="edge29" class="edge">
<title>Node15&#45;&gt;Node16</title>
<path fill="none" stroke="midnightblue" d="M573.87,-224.45C576.99,-211.47 584.09,-186.37 596,-168 603.26,-156.8 613.76,-146.26 622.89,-138.2"/>
<polygon fill="midnightblue" stroke="midnightblue" points="625.39,-140.67 630.77,-131.54 620.87,-135.32 625.39,-140.67"/>
</g>
<!-- Node17 -->
<g id="node17" class="node">
<title>Node17</title>
<g id="a_node17"><a xlink:href="InterruptVectors_8hpp.html" target="_top" xlink:title=" ">
<polygon fill="white" stroke="black" points="352,-168.5 352,-187.5 468,-187.5 468,-168.5 352,-168.5"/>
<text text-anchor="middle" x="410" y="-175.5" font-family="Helvetica,sans-Serif" font-size="10.00">InterruptVectors.hpp</text>
</a>
</g>
</g>
<!-- Node15&#45;&gt;Node17 -->
<g id="edge31" class="edge">
<title>Node15&#45;&gt;Node17</title>
<path fill="none" stroke="midnightblue" d="M546.33,-224.44C519.08,-215.36 475.82,-200.94 445.35,-190.78"/>
<polygon fill="midnightblue" stroke="midnightblue" points="446.14,-187.36 435.55,-187.52 443.93,-194 446.14,-187.36"/>
</g>
<!-- Node18 -->
<g id="node18" class="node">
<title>Node18</title>
<g id="a_node18"><a xlink:href="Ram_8hpp.html" target="_top" xlink:title=" ">
<polygon fill="white" stroke="black" points="638.5,-168.5 638.5,-187.5 733.5,-187.5 733.5,-168.5 638.5,-168.5"/>
<text text-anchor="middle" x="686" y="-175.5" font-family="Helvetica,sans-Serif" font-size="10.00">../Ram/Ram.hpp</text>
</a>
</g>
</g>
<!-- Node15&#45;&gt;Node18 -->
<g id="edge32" class="edge">
<title>Node15&#45;&gt;Node18</title>
<path fill="none" stroke="midnightblue" d="M590.06,-224.44C608.57,-215.68 637.58,-201.94 658.86,-191.86"/>
<polygon fill="midnightblue" stroke="midnightblue" points="660.48,-194.96 668.02,-187.52 657.49,-188.63 660.48,-194.96"/>
</g>
<!-- Node16&#45;&gt;Node13 -->
<g id="edge30" class="edge">
<title>Node16&#45;&gt;Node13</title>
<path fill="none" stroke="midnightblue" d="M670.36,-112.44C700.74,-103.28 749.11,-88.69 782.82,-78.52"/>
<polygon fill="midnightblue" stroke="midnightblue" points="784.21,-81.76 792.77,-75.52 782.18,-75.05 784.21,-81.76"/>
</g>
<!-- Node18&#45;&gt;Node10 -->
<g id="edge34" class="edge">
<title>Node18&#45;&gt;Node10</title>
<path fill="none" stroke="midnightblue" d="M638.18,-174.81C605.94,-170.68 565.05,-159.82 541,-132 516.17,-103.27 516.73,-55.75 519.35,-29.63"/>
<polygon fill="midnightblue" stroke="midnightblue" points="522.84,-29.92 520.57,-19.57 515.89,-29.07 522.84,-29.92"/>
</g>
<!-- Node18&#45;&gt;Node16 -->
<g id="edge33" class="edge">
<title>Node18&#45;&gt;Node16</title>
<path fill="none" stroke="midnightblue" d="M678.73,-168.08C672.46,-160.38 663.21,-149.03 655.57,-139.65"/>
<polygon fill="midnightblue" stroke="midnightblue" points="658.16,-137.29 649.13,-131.75 652.73,-141.71 658.16,-137.29"/>
</g>
<!-- Node19&#45;&gt;Node10 -->
<g id="edge36" class="edge">
<title>Node19&#45;&gt;Node10</title>
<path fill="none" stroke="midnightblue" d="M332.65,-56.44C375.95,-46.05 448.33,-28.68 489.94,-18.7"/>
<polygon fill="midnightblue" stroke="midnightblue" points="490.91,-22.06 499.81,-16.32 489.27,-15.25 490.91,-22.06"/>
</g>
<!-- Node19&#45;&gt;Node11 -->
<g id="edge37" class="edge">
<title>Node19&#45;&gt;Node11</title>
<path fill="none" stroke="midnightblue" d="M297,-56.08C297,-49.01 297,-38.86 297,-29.99"/>
<polygon fill="midnightblue" stroke="midnightblue" points="300.5,-29.75 297,-19.75 293.5,-29.75 300.5,-29.75"/>
</g>
<!-- Node20&#45;&gt;Node7 -->
<g id="edge39" class="edge">
<title>Node20&#45;&gt;Node7</title>
<path fill="none" stroke="midnightblue" d="M775.81,-224.45C791.93,-210.78 825.51,-183.92 858,-168 907.24,-143.87 933.61,-166.77 976,-132 1009.07,-104.87 1027.71,-56.35 1035.9,-29.74"/>
<polygon fill="midnightblue" stroke="midnightblue" points="1039.36,-30.38 1038.79,-19.8 1032.64,-28.43 1039.36,-30.38"/>
</g>
<!-- Node20&#45;&gt;Node9 -->
<g id="edge40" class="edge">
<title>Node20&#45;&gt;Node9</title>
<path fill="none" stroke="midnightblue" d="M722.15,-228.55C667.5,-220.31 576.91,-197.03 541,-132 513.34,-81.92 592.81,-42.16 641.72,-23.17"/>
<polygon fill="midnightblue" stroke="midnightblue" points="643.23,-26.34 651.35,-19.54 640.76,-19.79 643.23,-26.34"/>
</g>
<!-- Node20&#45;&gt;Node11 -->
<g id="edge41" class="edge">
<title>Node20&#45;&gt;Node11</title>
<path fill="none" stroke="midnightblue" d="M722.48,-227.82C681,-221.82 617.43,-209.84 566,-188 462.72,-144.13 356.02,-60.24 314.76,-26.06"/>
<polygon fill="midnightblue" stroke="midnightblue" points="316.89,-23.28 306.98,-19.55 312.41,-28.65 316.89,-23.28"/>
</g>
<!-- Node20&#45;&gt;Node14 -->
<g id="edge42" class="edge">
<title>Node20&#45;&gt;Node14</title>
<path fill="none" stroke="midnightblue" d="M809.62,-225.15C862.13,-215.7 950.46,-199.8 1008.5,-189.35"/>
<polygon fill="midnightblue" stroke="midnightblue" points="1009.39,-192.75 1018.61,-187.53 1008.15,-185.86 1009.39,-192.75"/>
</g>
<!-- Node22 -->
<g id="node22" class="node">
<title>Node22</title>
<g id="a_node22"><a xlink:href="IRenderer_8hpp.html" target="_top" xlink:title=" ">
<polygon fill="white" stroke="black" points="1470,-168.5 1470,-187.5 1554,-187.5 1554,-168.5 1470,-168.5"/>
<text text-anchor="middle" x="1512" y="-175.5" font-family="Helvetica,sans-Serif" font-size="10.00">IRenderer.hpp</text>
</a>
</g>
</g>
<!-- Node21&#45;&gt;Node22 -->
<g id="edge44" class="edge">
<title>Node21&#45;&gt;Node22</title>
<path fill="none" stroke="midnightblue" d="M1361.38,-392.14C1363.65,-379.2 1368.97,-354.64 1379,-336 1410.58,-277.3 1466.78,-220.77 1494.93,-194.42"/>
<polygon fill="midnightblue" stroke="midnightblue" points="1497.42,-196.89 1502.4,-187.53 1492.68,-191.74 1497.42,-196.89"/>
</g>
<!-- Node21&#45;&gt;Node24 -->
<g id="edge47" class="edge">
<title>Node21&#45;&gt;Node24</title>
<path fill="none" stroke="midnightblue" d="M1309.61,-392.44C1248.81,-382.12 1147.43,-364.9 1088.45,-354.89"/>
<polygon fill="midnightblue" stroke="midnightblue" points="1088.75,-351.39 1078.3,-353.16 1087.58,-358.29 1088.75,-351.39"/>
</g>
<!-- Node35 -->
<g id="node35" class="node">
<title>Node35</title>
<g id="a_node35"><a xlink:title=" ">
<polygon fill="white" stroke="#bfbfbf" points="1388,-336.5 1388,-355.5 1498,-355.5 1498,-336.5 1388,-336.5"/>
<text text-anchor="middle" x="1443" y="-343.5" font-family="Helvetica,sans-Serif" font-size="10.00">SFML/Graphics.hpp</text>
</a>
</g>
</g>
<!-- Node21&#45;&gt;Node35 -->
<g id="edge75" class="edge">
<title>Node21&#45;&gt;Node35</title>
<path fill="none" stroke="midnightblue" d="M1373.34,-392.32C1386.16,-383.98 1405.78,-371.21 1420.94,-361.35"/>
<polygon fill="midnightblue" stroke="midnightblue" points="1423.22,-364.04 1429.7,-355.65 1419.41,-358.17 1423.22,-364.04"/>
</g>
<!-- Node36 -->
<g id="node36" class="node">
<title>Node36</title>
<g id="a_node36"><a xlink:title=" ">
<polygon fill="white" stroke="#bfbfbf" points="1516.5,-336.5 1516.5,-355.5 1611.5,-355.5 1611.5,-336.5 1516.5,-336.5"/>
<text text-anchor="middle" x="1564" y="-343.5" font-family="Helvetica,sans-Serif" font-size="10.00">SFML/Audio.hpp</text>
</a>
</g>
</g>
<!-- Node21&#45;&gt;Node36 -->
<g id="edge76" class="edge">
<title>Node21&#45;&gt;Node36</title>
<path fill="none" stroke="midnightblue" d="M1392.32,-392.44C1427.39,-383.16 1483.5,-368.31 1521.96,-358.13"/>
<polygon fill="midnightblue" stroke="midnightblue" points="1523.06,-361.46 1531.83,-355.52 1521.26,-354.69 1523.06,-361.46"/>
</g>
<!-- Node37 -->
<g id="node37" class="node">
<title>Node37</title>
<g id="a_node37"><a xlink:title=" ">
<polygon fill="white" stroke="#bfbfbf" points="1630,-336.5 1630,-355.5 1734,-355.5 1734,-336.5 1630,-336.5"/>
<text text-anchor="middle" x="1682" y="-343.5" font-family="Helvetica,sans-Serif" font-size="10.00">SFML/System.hpp</text>
</a>
</g>
</g>
<!-- Node21&#45;&gt;Node37 -->
<g id="edge77" class="edge">
<title>Node21&#45;&gt;Node37</title>
<path fill="none" stroke="midnightblue" d="M1411.02,-392.44C1468.02,-382.89 1560.24,-367.42 1621,-357.23"/>
<polygon fill="midnightblue" stroke="midnightblue" points="1621.93,-360.62 1631.22,-355.52 1620.78,-353.72 1621.93,-360.62"/>
</g>
<!-- Node38 -->
<g id="node38" class="node">
<title>Node38</title>
<g id="a_node38"><a xlink:title=" ">
<polygon fill="white" stroke="#bfbfbf" points="1752.5,-336.5 1752.5,-355.5 1857.5,-355.5 1857.5,-336.5 1752.5,-336.5"/>
<text text-anchor="middle" x="1805" y="-343.5" font-family="Helvetica,sans-Serif" font-size="10.00">SFML/Window.hpp</text>
</a>
</g>
</g>
<!-- Node21&#45;&gt;Node38 -->
<g id="edge78" class="edge">
<title>Node21&#45;&gt;Node38</title>
<path fill="none" stroke="midnightblue" d="M1437.83,-392.48C1513,-384.11 1630.33,-370.67 1742.14,-356.08"/>
<polygon fill="midnightblue" stroke="midnightblue" points="1742.79,-359.53 1752.25,-354.76 1741.88,-352.59 1742.79,-359.53"/>
</g>
<!-- Node39 -->
<g id="node39" class="node">
<title>Node39</title>
<g id="a_node39"><a xlink:title=" ">
<polygon fill="white" stroke="#bfbfbf" points="1147.5,-336.5 1147.5,-355.5 1332.5,-355.5 1332.5,-336.5 1147.5,-336.5"/>
<text text-anchor="middle" x="1240" y="-343.5" font-family="Helvetica,sans-Serif" font-size="10.00">SFML/Graphics/RenderWindow.hpp</text>
</a>
</g>
</g>
<!-- Node21&#45;&gt;Node39 -->
<g id="edge79" class="edge">
<title>Node21&#45;&gt;Node39</title>
<path fill="none" stroke="midnightblue" d="M1340.99,-392.44C1321.41,-383.64 1290.69,-369.81 1268.27,-359.72"/>
<polygon fill="midnightblue" stroke="midnightblue" points="1269.48,-356.43 1258.93,-355.52 1266.61,-362.81 1269.48,-356.43"/>
</g>
<!-- Node22&#45;&gt;Node10 -->
<g id="edge45" class="edge">
<title>Node22&#45;&gt;Node10</title>
<path fill="none" stroke="midnightblue" d="M1504.83,-168.24C1492.13,-153.49 1464.11,-124.12 1433,-112 1295.93,-58.61 917.36,-98.62 772,-76 750.38,-72.64 616.46,-36.63 554.01,-19.7"/>
<polygon fill="midnightblue" stroke="midnightblue" points="554.84,-16.3 544.27,-17.06 553.01,-23.06 554.84,-16.3"/>
</g>
<!-- Node23 -->
<g id="node23" class="node">
<title>Node23</title>
<g id="a_node23"><a xlink:title=" ">
<polygon fill="white" stroke="#bfbfbf" points="1518,-112.5 1518,-131.5 1558,-131.5 1558,-112.5 1518,-112.5"/>
<text text-anchor="middle" x="1538" y="-119.5" font-family="Helvetica,sans-Serif" font-size="10.00">span</text>
</a>
</g>
</g>
<!-- Node22&#45;&gt;Node23 -->
<g id="edge46" class="edge">
<title>Node22&#45;&gt;Node23</title>
<path fill="none" stroke="midnightblue" d="M1516.29,-168.08C1519.85,-160.69 1525.02,-149.95 1529.42,-140.81"/>
<polygon fill="midnightblue" stroke="midnightblue" points="1532.6,-142.28 1533.79,-131.75 1526.29,-139.24 1532.6,-142.28"/>
</g>
<!-- Node24&#45;&gt;Node5 -->
<g id="edge49" class="edge">
<title>Node24&#45;&gt;Node5</title>
<path fill="none" stroke="midnightblue" d="M1005.85,-337.49C960.85,-328.15 883.73,-312.13 832.8,-301.55"/>
<polygon fill="midnightblue" stroke="midnightblue" points="833.49,-298.12 822.98,-299.51 832.06,-304.97 833.49,-298.12"/>
</g>
<!-- Node24&#45;&gt;Node14 -->
<g id="edge48" class="edge">
<title>Node24&#45;&gt;Node14</title>
<path fill="none" stroke="midnightblue" d="M1043.29,-336.08C1047.07,-309.95 1058.16,-233.21 1063.31,-197.58"/>
<polygon fill="midnightblue" stroke="midnightblue" points="1066.79,-197.97 1064.76,-187.57 1059.87,-196.96 1066.79,-197.97"/>
</g>
<!-- Node24&#45;&gt;Node15 -->
<g id="edge50" class="edge">
<title>Node24&#45;&gt;Node15</title>
<path fill="none" stroke="midnightblue" d="M1005.91,-341.1C934.27,-333.17 776.5,-314.66 724,-300 677.81,-287.1 627.15,-263.34 597.54,-248.4"/>
<polygon fill="midnightblue" stroke="midnightblue" points="598.84,-245.14 588.35,-243.7 595.66,-251.37 598.84,-245.14"/>
</g>
<!-- Node24&#45;&gt;Node18 -->
<g id="edge51" class="edge">
<title>Node24&#45;&gt;Node18</title>
<path fill="none" stroke="midnightblue" d="M1028.08,-336.35C993.61,-315.17 901.15,-259.87 819,-224 788.4,-210.64 752.46,-198.69 725.66,-190.47"/>
<polygon fill="midnightblue" stroke="midnightblue" points="726.45,-187.05 715.87,-187.51 724.42,-193.75 726.45,-187.05"/>
</g>
<!-- Node24&#45;&gt;Node22 -->
<g id="edge72" class="edge">
<title>Node24&#45;&gt;Node22</title>
<path fill="none" stroke="midnightblue" d="M1078.08,-340.61C1134.09,-333.35 1238.99,-317.86 1272,-300 1313.46,-277.56 1305.36,-247.9 1346,-224 1365.44,-212.57 1419.73,-198.96 1460.97,-189.72"/>
<polygon fill="midnightblue" stroke="midnightblue" points="1461.88,-193.11 1470.88,-187.53 1460.36,-186.27 1461.88,-193.11"/>
</g>
<!-- Node25 -->
<g id="node25" class="node">
<title>Node25</title>
<g id="a_node25"><a xlink:href="PPU_8hpp.html" target="_top" xlink:title=" ">
<polygon fill="white" stroke="black" points="1214,-224.5 1214,-243.5 1294,-243.5 1294,-224.5 1214,-224.5"/>
<text text-anchor="middle" x="1254" y="-231.5" font-family="Helvetica,sans-Serif" font-size="10.00">PPU/PPU.hpp</text>
</a>
</g>
</g>
<!-- Node24&#45;&gt;Node25 -->
<g id="edge52" class="edge">
<title>Node24&#45;&gt;Node25</title>
<path fill="none" stroke="midnightblue" d="M1078.12,-339.88C1135.93,-331.32 1243.9,-313.69 1255,-300 1265.42,-287.15 1263.58,-267.69 1260.1,-253.42"/>
<polygon fill="midnightblue" stroke="midnightblue" points="1263.43,-252.34 1257.3,-243.7 1256.71,-254.28 1263.43,-252.34"/>
</g>
<!-- Node29 -->
<g id="node29" class="node">
<title>Node29</title>
<g id="a_node29"><a xlink:href="APU_8hpp.html" target="_top" xlink:title=" ">
<polygon fill="white" stroke="black" points="904.5,-224.5 904.5,-243.5 985.5,-243.5 985.5,-224.5 904.5,-224.5"/>
<text text-anchor="middle" x="945" y="-231.5" font-family="Helvetica,sans-Serif" font-size="10.00">APU/APU.hpp</text>
</a>
</g>
</g>
<!-- Node24&#45;&gt;Node29 -->
<g id="edge61" class="edge">
<title>Node24&#45;&gt;Node29</title>
<path fill="none" stroke="midnightblue" d="M1034.39,-336.37C1018.24,-318.05 980.32,-275.05 959.43,-251.36"/>
<polygon fill="midnightblue" stroke="midnightblue" points="961.82,-248.78 952.58,-243.59 956.56,-253.41 961.82,-248.78"/>
</g>
<!-- Node33 -->
<g id="node33" class="node">
<title>Node33</title>
<g id="a_node33"><a xlink:href="DebuggableError_8hpp.html" target="_top" xlink:title=" ">
<polygon fill="white" stroke="black" points="1070.5,-280.5 1070.5,-299.5 1245.5,-299.5 1245.5,-280.5 1070.5,-280.5"/>
<text text-anchor="middle" x="1158" y="-287.5" font-family="Helvetica,sans-Serif" font-size="10.00">Exceptions/DebuggableError.hpp</text>
</a>
</g>
</g>
<!-- Node24&#45;&gt;Node33 -->
<g id="edge73" class="edge">
<title>Node24&#45;&gt;Node33</title>
<path fill="none" stroke="midnightblue" d="M1060.38,-336.44C1079.22,-327.68 1108.73,-313.94 1130.38,-303.86"/>
<polygon fill="midnightblue" stroke="midnightblue" points="1132.12,-306.91 1139.71,-299.52 1129.16,-300.56 1132.12,-306.91"/>
</g>
<!-- Node25&#45;&gt;Node6 -->
<g id="edge54" class="edge">
<title>Node25&#45;&gt;Node6</title>
<path fill="none" stroke="midnightblue" d="M1241.69,-224.47C1218.55,-208.58 1169.17,-175.39 1150,-168 1094.45,-146.58 1027.99,-135.25 977.42,-129.31"/>
<polygon fill="midnightblue" stroke="midnightblue" points="977.53,-125.8 967.2,-128.16 976.75,-132.76 977.53,-125.8"/>
</g>
<!-- Node25&#45;&gt;Node7 -->
<g id="edge53" class="edge">
<title>Node25&#45;&gt;Node7</title>
<path fill="none" stroke="midnightblue" d="M1294.06,-227.36C1338.35,-220.29 1405.73,-206.77 1423,-188 1446.06,-162.92 1453.87,-138.93 1433,-112 1388.84,-55.02 1163.7,-24.5 1076.01,-14.63"/>
<polygon fill="midnightblue" stroke="midnightblue" points="1076.35,-11.14 1066.02,-13.52 1075.58,-18.1 1076.35,-11.14"/>
</g>
<!-- Node25&#45;&gt;Node14 -->
<g id="edge55" class="edge">
<title>Node25&#45;&gt;Node14</title>
<path fill="none" stroke="midnightblue" d="M1224.21,-224.44C1192.17,-215.24 1141.07,-200.56 1105.65,-190.39"/>
<polygon fill="midnightblue" stroke="midnightblue" points="1106.23,-186.91 1095.65,-187.52 1104.29,-193.64 1106.23,-186.91"/>
</g>
<!-- Node25&#45;&gt;Node18 -->
<g id="edge57" class="edge">
<title>Node25&#45;&gt;Node18</title>
<path fill="none" stroke="midnightblue" d="M1213.94,-225.32C1210.92,-224.84 1207.91,-224.39 1205,-224 1038.31,-201.52 839.91,-187.95 743.84,-182.21"/>
<polygon fill="midnightblue" stroke="midnightblue" points="743.94,-178.71 733.75,-181.62 743.53,-185.7 743.94,-178.71"/>
</g>
<!-- Node25&#45;&gt;Node22 -->
<g id="edge56" class="edge">
<title>Node25&#45;&gt;Node22</title>
<path fill="none" stroke="midnightblue" d="M1294.03,-224.62C1338.96,-215.22 1411.96,-199.94 1460.95,-189.68"/>
<polygon fill="midnightblue" stroke="midnightblue" points="1461.95,-193.05 1471.02,-187.58 1460.52,-186.2 1461.95,-193.05"/>
</g>
<!-- Node26 -->
<g id="node26" class="node">
<title>Node26</title>
<g id="a_node26"><a xlink:href="Vector2_8hpp.html" target="_top" xlink:title=" ">
<polygon fill="white" stroke="black" points="1292,-168.5 1292,-187.5 1414,-187.5 1414,-168.5 1292,-168.5"/>
<text text-anchor="middle" x="1353" y="-175.5" font-family="Helvetica,sans-Serif" font-size="10.00">../Models/Vector2.hpp</text>
</a>
</g>
</g>
<!-- Node25&#45;&gt;Node26 -->
<g id="edge58" class="edge">
<title>Node25&#45;&gt;Node26</title>
<path fill="none" stroke="midnightblue" d="M1269.91,-224.32C1285.64,-215.74 1309.94,-202.49 1328.21,-192.52"/>
<polygon fill="midnightblue" stroke="midnightblue" points="1330.03,-195.52 1337.13,-187.65 1326.68,-189.37 1330.03,-195.52"/>
</g>
<!-- Node27 -->
<g id="node27" class="node">
<title>Node27</title>
<g id="a_node27"><a xlink:title=" ">
<polygon fill="white" stroke="#bfbfbf" points="1205.5,-112.5 1205.5,-131.5 1262.5,-131.5 1262.5,-112.5 1205.5,-112.5"/>
<text text-anchor="middle" x="1234" y="-119.5" font-family="Helvetica,sans-Serif" font-size="10.00">ostream</text>
</a>
</g>
</g>
<!-- Node26&#45;&gt;Node27 -->
<g id="edge59" class="edge">
<title>Node26&#45;&gt;Node27</title>
<path fill="none" stroke="midnightblue" d="M1334.14,-168.44C1314.73,-159.64 1284.27,-145.81 1262.04,-135.72"/>
<polygon fill="midnightblue" stroke="midnightblue" points="1263.32,-132.46 1252.77,-131.52 1260.43,-138.84 1263.32,-132.46"/>
</g>
<!-- Node28 -->
<g id="node28" class="node">
<title>Node28</title>
<g id="a_node28"><a xlink:title=" ">
<polygon fill="white" stroke="#bfbfbf" points="1280.5,-112.5 1280.5,-131.5 1423.5,-131.5 1423.5,-112.5 1280.5,-112.5"/>
<text text-anchor="middle" x="1352" y="-119.5" font-family="Helvetica,sans-Serif" font-size="10.00">SFML/System/Vector2.hpp</text>
</a>
</g>
</g>
<!-- Node26&#45;&gt;Node28 -->
<g id="edge60" class="edge">
<title>Node26&#45;&gt;Node28</title>
<path fill="none" stroke="midnightblue" d="M1352.83,-168.08C1352.7,-161.01 1352.52,-150.86 1352.35,-141.99"/>
<polygon fill="midnightblue" stroke="midnightblue" points="1355.85,-141.68 1352.16,-131.75 1348.85,-141.81 1355.85,-141.68"/>
</g>
<!-- Node29&#45;&gt;Node6 -->
<g id="edge67" class="edge">
<title>Node29&#45;&gt;Node6</title>
<path fill="none" stroke="midnightblue" d="M947.08,-224.17C949.68,-211.25 952.88,-186.72 945,-168 939.97,-156.05 930.06,-145.69 920.71,-137.93"/>
<polygon fill="midnightblue" stroke="midnightblue" points="922.84,-135.15 912.79,-131.81 918.56,-140.69 922.84,-135.15"/>
</g>
<!-- Node29&#45;&gt;Node9 -->
<g id="edge62" class="edge">
<title>Node29&#45;&gt;Node9</title>
<path fill="none" stroke="midnightblue" d="M924.36,-224.46C879.35,-204.83 771.52,-152.26 711,-76 699.52,-61.53 690.13,-42.59 684.16,-28.9"/>
<polygon fill="midnightblue" stroke="midnightblue" points="687.36,-27.48 680.27,-19.6 680.9,-30.18 687.36,-27.48"/>
</g>
<!-- Node29&#45;&gt;Node18 -->
<g id="edge68" class="edge">
<title>Node29&#45;&gt;Node18</title>
<path fill="none" stroke="midnightblue" d="M904.25,-224.5C859.03,-215.08 785.99,-199.85 737.01,-189.64"/>
<polygon fill="midnightblue" stroke="midnightblue" points="737.45,-186.15 726.94,-187.54 736.02,-193 737.45,-186.15"/>
</g>
<!-- Node29&#45;&gt;Node22 -->
<g id="edge71" class="edge">
<title>Node29&#45;&gt;Node22</title>
<path fill="none" stroke="midnightblue" d="M985.61,-229.27C1068.07,-221.68 1261.02,-203.81 1423,-188 1434.95,-186.83 1447.81,-185.55 1459.93,-184.33"/>
<polygon fill="midnightblue" stroke="midnightblue" points="1460.3,-187.81 1469.9,-183.32 1459.6,-180.84 1460.3,-187.81"/>
</g>
<!-- Node30 -->
<g id="node30" class="node">
<title>Node30</title>
<g id="a_node30"><a xlink:href="DSP_8hpp.html" target="_top" xlink:title=" ">
<polygon fill="white" stroke="black" points="1196,-168.5 1196,-187.5 1274,-187.5 1274,-168.5 1196,-168.5"/>
<text text-anchor="middle" x="1235" y="-175.5" font-family="Helvetica,sans-Serif" font-size="10.00">DSP/DSP.hpp</text>
</a>
</g>
</g>
<!-- Node29&#45;&gt;Node30 -->
<g id="edge63" class="edge">
<title>Node29&#45;&gt;Node30</title>
<path fill="none" stroke="midnightblue" d="M985.63,-225.43C1038.02,-215.68 1129.08,-198.72 1185.47,-188.22"/>
<polygon fill="midnightblue" stroke="midnightblue" points="1186.38,-191.61 1195.58,-186.34 1185.1,-184.73 1186.38,-191.61"/>
</g>
<!-- Node32 -->
<g id="node32" class="node">
<title>Node32</title>
<g id="a_node32"><a xlink:href="IPL_8hpp.html" target="_top" xlink:title=" ">
<polygon fill="white" stroke="black" points="866.5,-168.5 866.5,-187.5 935.5,-187.5 935.5,-168.5 866.5,-168.5"/>
<text text-anchor="middle" x="901" y="-175.5" font-family="Helvetica,sans-Serif" font-size="10.00">IPL/IPL.hpp</text>
</a>
</g>
</g>
<!-- Node29&#45;&gt;Node32 -->
<g id="edge69" class="edge">
<title>Node29&#45;&gt;Node32</title>
<path fill="none" stroke="midnightblue" d="M937.73,-224.08C931.46,-216.38 922.21,-205.03 914.57,-195.65"/>
<polygon fill="midnightblue" stroke="midnightblue" points="917.16,-193.29 908.13,-187.75 911.73,-197.71 917.16,-193.29"/>
</g>
<!-- Node30&#45;&gt;Node6 -->
<g id="edge66" class="edge">
<title>Node30&#45;&gt;Node6</title>
<path fill="none" stroke="midnightblue" d="M1195.93,-170.32C1191.24,-169.53 1186.51,-168.74 1182,-168 1107.21,-155.7 1021.21,-142.11 963.83,-133.11"/>
<polygon fill="midnightblue" stroke="midnightblue" points="964.23,-129.63 953.81,-131.54 963.15,-136.55 964.23,-129.63"/>
</g>
<!-- Node30&#45;&gt;Node7 -->
<g id="edge64" class="edge">
<title>Node30&#45;&gt;Node7</title>
<path fill="none" stroke="midnightblue" d="M1224.84,-168.31C1193.61,-141.58 1098.7,-60.38 1058.89,-26.3"/>
<polygon fill="midnightblue" stroke="midnightblue" points="1060.93,-23.45 1051.06,-19.61 1056.38,-28.77 1060.93,-23.45"/>
</g>
<!-- Node31 -->
<g id="node31" class="node">
<title>Node31</title>
<g id="a_node31"><a xlink:title=" ">
<polygon fill="white" stroke="#bfbfbf" points="1107,-112.5 1107,-131.5 1149,-131.5 1149,-112.5 1107,-112.5"/>
<text text-anchor="middle" x="1128" y="-119.5" font-family="Helvetica,sans-Serif" font-size="10.00">array</text>
</a>
</g>
</g>
<!-- Node30&#45;&gt;Node31 -->
<g id="edge65" class="edge">
<title>Node30&#45;&gt;Node31</title>
<path fill="none" stroke="midnightblue" d="M1217.81,-168.32C1200.65,-159.66 1174.05,-146.24 1154.25,-136.25"/>
<polygon fill="midnightblue" stroke="midnightblue" points="1155.65,-133.04 1145.15,-131.65 1152.5,-139.28 1155.65,-133.04"/>
</g>
<!-- Node32&#45;&gt;Node6 -->
<g id="edge70" class="edge">
<title>Node32&#45;&gt;Node6</title>
<path fill="none" stroke="midnightblue" d="M900.67,-168.08C900.41,-161.01 900.03,-150.86 899.7,-141.99"/>
<polygon fill="midnightblue" stroke="midnightblue" points="903.19,-141.61 899.32,-131.75 896.2,-141.87 903.19,-141.61"/>
</g>
<!-- Node34 -->
<g id="node34" class="node">
<title>Node34</title>
<g id="a_node34"><a xlink:title=" ">
<polygon fill="white" stroke="#bfbfbf" points="1100.5,-224.5 1100.5,-243.5 1195.5,-243.5 1195.5,-224.5 1100.5,-224.5"/>
<text text-anchor="middle" x="1148" y="-231.5" font-family="Helvetica,sans-Serif" font-size="10.00">bits/exception.h</text>
</a>
</g>
</g>
<!-- Node33&#45;&gt;Node34 -->
<g id="edge74" class="edge">
<title>Node33&#45;&gt;Node34</title>
<path fill="none" stroke="midnightblue" d="M1156.35,-280.08C1155.02,-272.93 1153.12,-262.64 1151.46,-253.69"/>
<polygon fill="midnightblue" stroke="midnightblue" points="1154.88,-252.95 1149.62,-243.75 1148,-254.22 1154.88,-252.95"/>
</g>
<!-- Node42 -->
<g id="node42" class="node">
<title>Node42</title>
<g id="a_node42"><a xlink:title=" ">
<polygon fill="white" stroke="#bfbfbf" points="808.5,-336.5 808.5,-355.5 949.5,-355.5 949.5,-336.5 808.5,-336.5"/>
<text text-anchor="middle" x="879" y="-343.5" font-family="Helvetica,sans-Serif" font-size="10.00">QtWidgets/QMainWindow</text>
</a>
</g>
</g>
<!-- Node41&#45;&gt;Node42 -->
<g id="edge83" class="edge">
<title>Node41&#45;&gt;Node42</title>
<path fill="none" stroke="midnightblue" d="M884.84,-392.08C883.92,-384.93 882.58,-374.64 881.42,-365.69"/>
<polygon fill="midnightblue" stroke="midnightblue" points="884.89,-365.22 880.13,-355.75 877.95,-366.12 884.89,-365.22"/>
</g>
<!-- Node43&#45;&gt;Node2 -->
<g id="edge87" class="edge">
<title>Node43&#45;&gt;Node2</title>
<path fill="none" stroke="midnightblue" d="M109.42,-448.32C94,-439.74 70.19,-426.49 52.29,-416.52"/>
<polygon fill="midnightblue" stroke="midnightblue" points="53.99,-413.46 43.55,-411.65 50.58,-419.58 53.99,-413.46"/>
</g>
<!-- Node43&#45;&gt;Node10 -->
<g id="edge85" class="edge">
<title>Node43&#45;&gt;Node10</title>
<path fill="none" stroke="midnightblue" d="M131.54,-448.41C144.45,-430.56 172,-387.7 172,-347 172,-347 172,-347 172,-233 172,-157.99 404.16,-57.91 490.32,-23.35"/>
<polygon fill="midnightblue" stroke="midnightblue" points="491.84,-26.51 499.84,-19.56 489.25,-20 491.84,-26.51"/>
</g>
<!-- Node43&#45;&gt;Node11 -->
<g id="edge88" class="edge">
<title>Node43&#45;&gt;Node11</title>
<path fill="none" stroke="midnightblue" d="M126.18,-448.46C128.62,-429.99 134,-384.94 134,-347 134,-347 134,-347 134,-121 134,-65.75 199.15,-36.39 247.08,-22.27"/>
<polygon fill="midnightblue" stroke="midnightblue" points="248.03,-25.64 256.71,-19.57 246.13,-18.9 248.03,-25.64"/>
</g>
<!-- Node44 -->
<g id="node44" class="node">
<title>Node44</title>
<g id="a_node44"><a xlink:title=" ">
<polygon fill="white" stroke="#bfbfbf" points="74.5,-392.5 74.5,-411.5 105.5,-411.5 105.5,-392.5 74.5,-392.5"/>
<text text-anchor="middle" x="90" y="-399.5" font-family="Helvetica,sans-Serif" font-size="10.00">ios</text>
</a>
</g>
</g>
<!-- Node43&#45;&gt;Node44 -->
<g id="edge86" class="edge">
<title>Node43&#45;&gt;Node44</title>
<path fill="none" stroke="midnightblue" d="M119.22,-448.08C114.33,-440.53 107.17,-429.49 101.17,-420.23"/>
<polygon fill="midnightblue" stroke="midnightblue" points="104.05,-418.24 95.67,-411.75 98.17,-422.05 104.05,-418.24"/>
</g>
</g>
</svg>
