<?xml version="1.0" encoding="UTF-8" standalone="no"?>
<!DOCTYPE svg PUBLIC "-//W3C//DTD SVG 1.1//EN"
 "http://www.w3.org/Graphics/SVG/1.1/DTD/svg11.dtd">
<!-- Generated by graphviz version 2.43.0 (0)
 -->
<!-- Title: sources/CPU/DMA/DMA.hpp Pages: 1 -->
<svg width="5590pt" height="419pt"
 viewBox="0.00 0.00 5590.00 419.00" xmlns="http://www.w3.org/2000/svg" xmlns:xlink="http://www.w3.org/1999/xlink">
<g id="graph0" class="graph" transform="scale(1 1) rotate(0) translate(4 415)">
<title>sources/CPU/DMA/DMA.hpp</title>
<polygon fill="white" stroke="transparent" points="-4,4 -4,-415 5586,-415 5586,4 -4,4"/>
<!-- Node1 -->
<g id="node1" class="node">
<title>Node1</title>
<g id="a_node1"><a xlink:title=" ">
<polygon fill="#bfbfbf" stroke="black" points="807,-391.5 807,-410.5 958,-410.5 958,-391.5 807,-391.5"/>
<text text-anchor="middle" x="882.5" y="-398.5" font-family="Helvetica,sans-Serif" font-size="10.00">sources/CPU/DMA/DMA.hpp</text>
</a>
</g>
</g>
<!-- Node2 -->
<g id="node2" class="node">
<title>Node2</title>
<g id="a_node2"><a xlink:href="CPU_8hpp.html" target="_top" xlink:title=" ">
<polygon fill="white" stroke="black" points="744.5,-335.5 744.5,-354.5 866.5,-354.5 866.5,-335.5 744.5,-335.5"/>
<text text-anchor="middle" x="805.5" y="-342.5" font-family="Helvetica,sans-Serif" font-size="10.00">sources/CPU/CPU.hpp</text>
</a>
</g>
</g>
<!-- Node1&#45;&gt;Node2 -->
<g id="edge1" class="edge">
<title>Node1&#45;&gt;Node2</title>
<path fill="none" stroke="midnightblue" d="M861.6,-385.34C847.59,-375.52 829.62,-362.91 817.84,-354.65"/>
<polygon fill="midnightblue" stroke="midnightblue" points="859.93,-388.45 870.13,-391.32 863.95,-382.72 859.93,-388.45"/>
</g>
<!-- Node50 -->
<g id="node50" class="node">
<title>Node50</title>
<g id="a_node50"><a xlink:href="DMA_8cpp.html" target="_top" xlink:title=" ">
<polygon fill="white" stroke="black" points="884.5,-335.5 884.5,-354.5 1034.5,-354.5 1034.5,-335.5 884.5,-335.5"/>
<text text-anchor="middle" x="959.5" y="-342.5" font-family="Helvetica,sans-Serif" font-size="10.00">sources/CPU/DMA/DMA.cpp</text>
</a>
</g>
</g>
<!-- Node1&#45;&gt;Node50 -->
<g id="edge69" class="edge">
<title>Node1&#45;&gt;Node50</title>
<path fill="none" stroke="midnightblue" d="M903.4,-385.34C917.41,-375.52 935.38,-362.91 947.16,-354.65"/>
<polygon fill="midnightblue" stroke="midnightblue" points="901.05,-382.72 894.87,-391.32 905.07,-388.45 901.05,-382.72"/>
</g>
<!-- Node3 -->
<g id="node3" class="node">
<title>Node3</title>
<g id="a_node3"><a xlink:href="AddressingModes_8cpp.html" target="_top" xlink:title=" ">
<polygon fill="white" stroke="black" points="0,-274 0,-293 187,-293 187,-274 0,-274"/>
<text text-anchor="middle" x="93.5" y="-281" font-family="Helvetica,sans-Serif" font-size="10.00">sources/CPU/AddressingModes.cpp</text>
</a>
</g>
</g>
<!-- Node2&#45;&gt;Node3 -->
<g id="edge2" class="edge">
<title>Node2&#45;&gt;Node3</title>
<path fill="none" stroke="midnightblue" d="M734.34,-340.31C620.38,-334.06 389.97,-319.97 195.5,-299 180.21,-297.35 163.68,-295.17 148.47,-293.01"/>
<polygon fill="midnightblue" stroke="midnightblue" points="734.16,-343.81 744.34,-340.86 734.54,-336.82 734.16,-343.81"/>
</g>
<!-- Node4 -->
<g id="node4" class="node">
<title>Node4</title>
<g id="a_node4"><a xlink:href="CPU_8cpp.html" target="_top" xlink:title=" ">
<polygon fill="white" stroke="black" points="205,-274 205,-293 326,-293 326,-274 205,-274"/>
<text text-anchor="middle" x="265.5" y="-281" font-family="Helvetica,sans-Serif" font-size="10.00">sources/CPU/CPU.cpp</text>
</a>
</g>
</g>
<!-- Node2&#45;&gt;Node4 -->
<g id="edge3" class="edge">
<title>Node2&#45;&gt;Node4</title>
<path fill="none" stroke="midnightblue" d="M734.17,-339.68C641.64,-333.5 475.39,-320.47 334.5,-299 323.97,-297.4 312.63,-295.21 302.24,-293.02"/>
<polygon fill="midnightblue" stroke="midnightblue" points="734.05,-343.18 744.26,-340.34 734.51,-336.19 734.05,-343.18"/>
</g>
<!-- Node5 -->
<g id="node5" class="node">
<title>Node5</title>
<g id="a_node5"><a xlink:href="BitsInstructions_8cpp.html" target="_top" xlink:title=" ">
<polygon fill="white" stroke="black" points="344,-268.5 344,-298.5 481,-298.5 481,-268.5 344,-268.5"/>
<text text-anchor="start" x="352" y="-286.5" font-family="Helvetica,sans-Serif" font-size="10.00">sources/CPU/Instructions</text>
<text text-anchor="middle" x="412.5" y="-275.5" font-family="Helvetica,sans-Serif" font-size="10.00">/BitsInstructions.cpp</text>
</a>
</g>
</g>
<!-- Node2&#45;&gt;Node5 -->
<g id="edge4" class="edge">
<title>Node2&#45;&gt;Node5</title>
<path fill="none" stroke="midnightblue" d="M734.2,-334.77C670.06,-326.25 573.31,-312.85 489.5,-299 486.82,-298.56 484.08,-298.09 481.32,-297.62"/>
<polygon fill="midnightblue" stroke="midnightblue" points="733.83,-338.25 744.21,-336.1 734.75,-331.31 733.83,-338.25"/>
</g>
<!-- Node6 -->
<g id="node6" class="node">
<title>Node6</title>
<g id="a_node6"><a xlink:href="InternalInstruction_8cpp.html" target="_top" xlink:title=" ">
<polygon fill="white" stroke="black" points="499,-268.5 499,-298.5 636,-298.5 636,-268.5 499,-268.5"/>
<text text-anchor="start" x="507" y="-286.5" font-family="Helvetica,sans-Serif" font-size="10.00">sources/CPU/Instructions</text>
<text text-anchor="middle" x="567.5" y="-275.5" font-family="Helvetica,sans-Serif" font-size="10.00">/InternalInstruction.cpp</text>
</a>
</g>
</g>
<!-- Node2&#45;&gt;Node6 -->
<g id="edge5" class="edge">
<title>Node2&#45;&gt;Node6</title>
<path fill="none" stroke="midnightblue" d="M761.43,-332.98C722.56,-323.27 665.7,-309.05 623.59,-298.52"/>
<polygon fill="midnightblue" stroke="midnightblue" points="760.85,-336.45 771.4,-335.48 762.55,-329.65 760.85,-336.45"/>
</g>
<!-- Node7 -->
<g id="node7" class="node">
<title>Node7</title>
<g id="a_node7"><a xlink:href="Interrupts_8cpp.html" target="_top" xlink:title=" ">
<polygon fill="white" stroke="black" points="654,-268.5 654,-298.5 791,-298.5 791,-268.5 654,-268.5"/>
<text text-anchor="start" x="662" y="-286.5" font-family="Helvetica,sans-Serif" font-size="10.00">sources/CPU/Instructions</text>
<text text-anchor="middle" x="722.5" y="-275.5" font-family="Helvetica,sans-Serif" font-size="10.00">/Interrupts.cpp</text>
</a>
</g>
</g>
<!-- Node2&#45;&gt;Node7 -->
<g id="edge6" class="edge">
<title>Node2&#45;&gt;Node7</title>
<path fill="none" stroke="midnightblue" d="M785.23,-329.47C772.09,-320.05 755.06,-307.84 742.06,-298.52"/>
<polygon fill="midnightblue" stroke="midnightblue" points="783.44,-332.49 793.61,-335.48 787.52,-326.8 783.44,-332.49"/>
</g>
<!-- Node8 -->
<g id="node8" class="node">
<title>Node8</title>
<g id="a_node8"><a xlink:href="MathematicalOperations_8cpp.html" target="_top" xlink:title=" ">
<polygon fill="white" stroke="black" points="809,-268.5 809,-298.5 970,-298.5 970,-268.5 809,-268.5"/>
<text text-anchor="start" x="817" y="-286.5" font-family="Helvetica,sans-Serif" font-size="10.00">sources/CPU/Instructions</text>
<text text-anchor="middle" x="889.5" y="-275.5" font-family="Helvetica,sans-Serif" font-size="10.00">/MathematicalOperations.cpp</text>
</a>
</g>
</g>
<!-- Node2&#45;&gt;Node8 -->
<g id="edge7" class="edge">
<title>Node2&#45;&gt;Node8</title>
<path fill="none" stroke="midnightblue" d="M826.02,-329.47C839.32,-320.05 856.55,-307.84 869.7,-298.52"/>
<polygon fill="midnightblue" stroke="midnightblue" points="823.67,-326.84 817.54,-335.48 827.72,-332.55 823.67,-326.84"/>
</g>
<!-- Node9 -->
<g id="node9" class="node">
<title>Node9</title>
<g id="a_node9"><a xlink:href="MemoryInstructions_8cpp.html" target="_top" xlink:title=" ">
<polygon fill="white" stroke="black" points="988,-268.5 988,-298.5 1125,-298.5 1125,-268.5 988,-268.5"/>
<text text-anchor="start" x="996" y="-286.5" font-family="Helvetica,sans-Serif" font-size="10.00">sources/CPU/Instructions</text>
<text text-anchor="middle" x="1056.5" y="-275.5" font-family="Helvetica,sans-Serif" font-size="10.00">/MemoryInstructions.cpp</text>
</a>
</g>
</g>
<!-- Node2&#45;&gt;Node9 -->
<g id="edge8" class="edge">
<title>Node2&#45;&gt;Node9</title>
<path fill="none" stroke="midnightblue" d="M851.45,-333.11C892.46,-323.39 952.75,-309.1 997.34,-298.52"/>
<polygon fill="midnightblue" stroke="midnightblue" points="850.39,-329.76 841.46,-335.48 852,-336.57 850.39,-329.76"/>
</g>
<!-- Node10 -->
<g id="node10" class="node">
<title>Node10</title>
<g id="a_node10"><a xlink:href="TransferRegisters_8cpp.html" target="_top" xlink:title=" ">
<polygon fill="white" stroke="black" points="1143,-268.5 1143,-298.5 1280,-298.5 1280,-268.5 1143,-268.5"/>
<text text-anchor="start" x="1151" y="-286.5" font-family="Helvetica,sans-Serif" font-size="10.00">sources/CPU/Instructions</text>
<text text-anchor="middle" x="1211.5" y="-275.5" font-family="Helvetica,sans-Serif" font-size="10.00">/TransferRegisters.cpp</text>
</a>
</g>
</g>
<!-- Node2&#45;&gt;Node10 -->
<g id="edge9" class="edge">
<title>Node2&#45;&gt;Node10</title>
<path fill="none" stroke="midnightblue" d="M876.75,-334.63C957.93,-323.88 1085.55,-306.74 1133.5,-299 1136.49,-298.52 1139.54,-298.01 1142.63,-297.49"/>
<polygon fill="midnightblue" stroke="midnightblue" points="876.06,-331.19 866.6,-335.97 876.98,-338.13 876.06,-331.19"/>
</g>
<!-- Node11 -->
<g id="node11" class="node">
<title>Node11</title>
<g id="a_node11"><a xlink:href="SNES_8hpp.html" target="_top" xlink:title=" ">
<polygon fill="white" stroke="black" points="2961.5,-274 2961.5,-293 3065.5,-293 3065.5,-274 2961.5,-274"/>
<text text-anchor="middle" x="3013.5" y="-281" font-family="Helvetica,sans-Serif" font-size="10.00">sources/SNES.hpp</text>
</a>
</g>
</g>
<!-- Node2&#45;&gt;Node11 -->
<g id="edge10" class="edge">
<title>Node2&#45;&gt;Node11</title>
<path fill="none" stroke="midnightblue" d="M876.53,-335.03C1320.17,-302.6 2677.88,-287.78 2961.32,-284.99"/>
<polygon fill="midnightblue" stroke="midnightblue" points="876.26,-331.54 866.54,-335.77 876.78,-338.52 876.26,-331.54"/>
</g>
<!-- Node16 -->
<g id="node16" class="node">
<title>Node16</title>
<g id="a_node16"><a xlink:href="CPUDebug_8hpp.html" target="_top" xlink:title=" ">
<polygon fill="white" stroke="black" points="1282.5,-134.5 1282.5,-164.5 1410.5,-164.5 1410.5,-134.5 1282.5,-134.5"/>
<text text-anchor="start" x="1290.5" y="-152.5" font-family="Helvetica,sans-Serif" font-size="10.00">sources/Debugger/CPU</text>
<text text-anchor="middle" x="1346.5" y="-141.5" font-family="Helvetica,sans-Serif" font-size="10.00">/CPUDebug.hpp</text>
</a>
</g>
</g>
<!-- Node2&#45;&gt;Node16 -->
<g id="edge68" class="edge">
<title>Node2&#45;&gt;Node16</title>
<path fill="none" stroke="midnightblue" d="M876.73,-335.07C982.88,-326.91 1217.13,-352.44 1288.5,-299 1332.37,-266.15 1343.07,-195.28 1345.67,-164.86"/>
<polygon fill="midnightblue" stroke="midnightblue" points="876.21,-331.6 866.57,-336 876.84,-338.57 876.21,-331.6"/>
</g>
<!-- Node12 -->
<g id="node12" class="node">
<title>Node12</title>
<g id="a_node12"><a xlink:href="APUDebug_8hpp.html" target="_top" xlink:title=" ">
<polygon fill="white" stroke="black" points="5296.5,-207 5296.5,-226 5476.5,-226 5476.5,-207 5296.5,-207"/>
<text text-anchor="middle" x="5386.5" y="-214" font-family="Helvetica,sans-Serif" font-size="10.00">sources/Debugger/APUDebug.hpp</text>
</a>
</g>
</g>
<!-- Node11&#45;&gt;Node12 -->
<g id="edge11" class="edge">
<title>Node11&#45;&gt;Node12</title>
<path fill="none" stroke="midnightblue" d="M3076.18,-282.09C3335.11,-280.17 4346.73,-270.49 5177.5,-232 5216.47,-230.19 5259.47,-227.36 5296.28,-224.67"/>
<polygon fill="midnightblue" stroke="midnightblue" points="3075.83,-278.59 3065.85,-282.17 3075.88,-285.59 3075.83,-278.59"/>
</g>
<!-- Node14 -->
<g id="node14" class="node">
<title>Node14</title>
<g id="a_node14"><a xlink:href="CGramDebug_8cpp.html" target="_top" xlink:title=" ">
<polygon fill="white" stroke="black" points="1375,-207 1375,-226 1568,-226 1568,-207 1375,-207"/>
<text text-anchor="middle" x="1471.5" y="-214" font-family="Helvetica,sans-Serif" font-size="10.00">sources/Debugger/CGramDebug.cpp</text>
</a>
</g>
</g>
<!-- Node11&#45;&gt;Node14 -->
<g id="edge13" class="edge">
<title>Node11&#45;&gt;Node14</title>
<path fill="none" stroke="midnightblue" d="M2951.2,-282.55C2751.21,-282.23 2107.63,-277.46 1577.5,-232 1560.66,-230.56 1542.4,-228.31 1525.85,-226.01"/>
<polygon fill="midnightblue" stroke="midnightblue" points="2951.22,-286.05 2961.22,-282.56 2951.23,-279.05 2951.22,-286.05"/>
</g>
<!-- Node15 -->
<g id="node15" class="node">
<title>Node15</title>
<g id="a_node15"><a xlink:href="SFRenderer_8hpp.html" target="_top" xlink:title=" ">
<polygon fill="white" stroke="black" points="2728,-207 2728,-226 2909,-226 2909,-207 2728,-207"/>
<text text-anchor="middle" x="2818.5" y="-214" font-family="Helvetica,sans-Serif" font-size="10.00">sources/Renderer/SFRenderer.hpp</text>
</a>
</g>
</g>
<!-- Node11&#45;&gt;Node15 -->
<g id="edge14" class="edge">
<title>Node11&#45;&gt;Node15</title>
<path fill="none" stroke="midnightblue" d="M2977.8,-270.6C2939.14,-257.71 2878.42,-237.47 2844.19,-226.06"/>
<polygon fill="midnightblue" stroke="midnightblue" points="2977.01,-274.03 2987.61,-273.87 2979.23,-267.39 2977.01,-274.03"/>
</g>
<!-- Node11&#45;&gt;Node16 -->
<g id="edge26" class="edge">
<title>Node11&#45;&gt;Node16</title>
<path fill="none" stroke="midnightblue" d="M2951.37,-282.7C2658.55,-283.36 1427.91,-283.11 1365.5,-232 1345.72,-215.8 1344.16,-183.35 1345.11,-164.66"/>
<polygon fill="midnightblue" stroke="midnightblue" points="2951.39,-286.2 2961.38,-282.67 2951.38,-279.2 2951.39,-286.2"/>
</g>
<!-- Node19 -->
<g id="node19" class="node">
<title>Node19</title>
<g id="a_node19"><a xlink:href="main_8cpp.html" target="_top" xlink:title=" ">
<polygon fill="white" stroke="black" points="1936.5,-6 1936.5,-25 2038.5,-25 2038.5,-6 1936.5,-6"/>
<text text-anchor="middle" x="1987.5" y="-13" font-family="Helvetica,sans-Serif" font-size="10.00">sources/main.cpp</text>
</a>
</g>
</g>
<!-- Node11&#45;&gt;Node19 -->
<g id="edge31" class="edge">
<title>Node11&#45;&gt;Node19</title>
<path fill="none" stroke="midnightblue" d="M2951.08,-280.78C2889.51,-277.05 2793.94,-265.74 2718.5,-232 2698.29,-222.96 2700.21,-208.83 2679.5,-201 2607.07,-173.6 2040.45,-217.47 1983.5,-165 1943.48,-128.13 1972.15,-51.16 1983.46,-25.23"/>
<polygon fill="midnightblue" stroke="midnightblue" points="2951.23,-284.29 2961.41,-281.35 2951.62,-277.3 2951.23,-284.29"/>
</g>
<!-- Node25 -->
<g id="node25" class="node">
<title>Node25</title>
<g id="a_node25"><a xlink:href="HeaderViewer_8cpp.html" target="_top" xlink:title=" ">
<polygon fill="white" stroke="black" points="1586.5,-207 1586.5,-226 1782.5,-226 1782.5,-207 1586.5,-207"/>
<text text-anchor="middle" x="1684.5" y="-214" font-family="Helvetica,sans-Serif" font-size="10.00">sources/Debugger/HeaderViewer.cpp</text>
</a>
</g>
</g>
<!-- Node11&#45;&gt;Node25 -->
<g id="edge27" class="edge">
<title>Node11&#45;&gt;Node25</title>
<path fill="none" stroke="midnightblue" d="M2951.2,-281.98C2771.16,-280.03 2234.74,-271.11 1791.5,-232 1774.69,-230.52 1756.48,-228.28 1739.92,-226.01"/>
<polygon fill="midnightblue" stroke="midnightblue" points="2951.24,-285.48 2961.28,-282.08 2951.32,-278.48 2951.24,-285.48"/>
</g>
<!-- Node26 -->
<g id="node26" class="node">
<title>Node26</title>
<g id="a_node26"><a xlink:href="MemoryBusDebug_8cpp.html" target="_top" xlink:title=" ">
<polygon fill="white" stroke="black" points="1800.5,-201.5 1800.5,-231.5 1966.5,-231.5 1966.5,-201.5 1800.5,-201.5"/>
<text text-anchor="start" x="1808.5" y="-219.5" font-family="Helvetica,sans-Serif" font-size="10.00">sources/Debugger/MemoryBus</text>
<text text-anchor="middle" x="1883.5" y="-208.5" font-family="Helvetica,sans-Serif" font-size="10.00">Debug.cpp</text>
</a>
</g>
</g>
<!-- Node11&#45;&gt;Node26 -->
<g id="edge28" class="edge">
<title>Node11&#45;&gt;Node26</title>
<path fill="none" stroke="midnightblue" d="M2951,-281.8C2789.3,-279.49 2344.08,-269.9 1975.5,-232 1972.6,-231.7 1969.66,-231.37 1966.69,-231.02"/>
<polygon fill="midnightblue" stroke="midnightblue" points="2951.19,-285.31 2961.24,-281.94 2951.29,-278.31 2951.19,-285.31"/>
</g>
<!-- Node27 -->
<g id="node27" class="node">
<title>Node27</title>
<g id="a_node27"><a xlink:href="MemoryViewer_8cpp.html" target="_top" xlink:title=" ">
<polygon fill="white" stroke="black" points="1985,-207 1985,-226 2186,-226 2186,-207 1985,-207"/>
<text text-anchor="middle" x="2085.5" y="-214" font-family="Helvetica,sans-Serif" font-size="10.00">sources/Debugger/MemoryViewer.cpp</text>
</a>
</g>
</g>
<!-- Node11&#45;&gt;Node27 -->
<g id="edge29" class="edge">
<title>Node11&#45;&gt;Node27</title>
<path fill="none" stroke="midnightblue" d="M2950.94,-280.12C2813.85,-274.58 2476.73,-259.18 2195.5,-232 2178.82,-230.39 2160.77,-228.2 2144.21,-226.01"/>
<polygon fill="midnightblue" stroke="midnightblue" points="2951.11,-283.63 2961.24,-280.53 2951.39,-276.64 2951.11,-283.63"/>
</g>
<!-- Node28 -->
<g id="node28" class="node">
<title>Node28</title>
<g id="a_node28"><a xlink:href="RegisterViewer_8cpp.html" target="_top" xlink:title=" ">
<polygon fill="white" stroke="black" points="2204.5,-201.5 2204.5,-231.5 2352.5,-231.5 2352.5,-201.5 2204.5,-201.5"/>
<text text-anchor="start" x="2212.5" y="-219.5" font-family="Helvetica,sans-Serif" font-size="10.00">sources/Debugger/Register</text>
<text text-anchor="middle" x="2278.5" y="-208.5" font-family="Helvetica,sans-Serif" font-size="10.00">Viewer.cpp</text>
</a>
</g>
</g>
<!-- Node11&#45;&gt;Node28 -->
<g id="edge30" class="edge">
<title>Node11&#45;&gt;Node28</title>
<path fill="none" stroke="midnightblue" d="M2951.22,-279.66C2834.97,-273.93 2577.18,-259.13 2361.5,-232 2358.6,-231.63 2355.64,-231.24 2352.66,-230.82"/>
<polygon fill="midnightblue" stroke="midnightblue" points="2951.19,-283.17 2961.35,-280.16 2951.53,-276.17 2951.19,-283.17"/>
</g>
<!-- Node29 -->
<g id="node29" class="node">
<title>Node29</title>
<g id="a_node29"><a xlink:href="MemoryBus_8cpp.html" target="_top" xlink:title=" ">
<polygon fill="white" stroke="black" points="2371,-207 2371,-226 2550,-226 2550,-207 2371,-207"/>
<text text-anchor="middle" x="2460.5" y="-214" font-family="Helvetica,sans-Serif" font-size="10.00">sources/Memory/MemoryBus.cpp</text>
</a>
</g>
</g>
<!-- Node11&#45;&gt;Node29 -->
<g id="edge32" class="edge">
<title>Node11&#45;&gt;Node29</title>
<path fill="none" stroke="midnightblue" d="M2951.17,-276.31C2863.44,-267.42 2698.58,-250.13 2558.5,-232 2544.6,-230.2 2529.62,-228.08 2515.65,-226.02"/>
<polygon fill="midnightblue" stroke="midnightblue" points="2950.92,-279.8 2961.22,-277.32 2951.63,-272.83 2950.92,-279.8"/>
</g>
<!-- Node30 -->
<g id="node30" class="node">
<title>Node30</title>
<g id="a_node30"><a xlink:href="SNES_8cpp.html" target="_top" xlink:title=" ">
<polygon fill="white" stroke="black" points="2568,-207 2568,-226 2671,-226 2671,-207 2568,-207"/>
<text text-anchor="middle" x="2619.5" y="-214" font-family="Helvetica,sans-Serif" font-size="10.00">sources/SNES.cpp</text>
</a>
</g>
</g>
<!-- Node11&#45;&gt;Node30 -->
<g id="edge33" class="edge">
<title>Node11&#45;&gt;Node30</title>
<path fill="none" stroke="midnightblue" d="M2951.1,-274.09C2884.96,-264.91 2777.57,-249.18 2685.5,-232 2676.04,-230.24 2665.87,-228.11 2656.42,-226.04"/>
<polygon fill="midnightblue" stroke="midnightblue" points="2950.96,-277.61 2961.35,-275.51 2951.92,-270.68 2950.96,-277.61"/>
</g>
<!-- Node31 -->
<g id="node31" class="node">
<title>Node31</title>
<g id="a_node31"><a xlink:href="tests_8hpp.html" target="_top" xlink:title=" ">
<polygon fill="white" stroke="black" points="3798,-207 3798,-226 3887,-226 3887,-207 3798,-207"/>
<text text-anchor="middle" x="3842.5" y="-214" font-family="Helvetica,sans-Serif" font-size="10.00">tests/tests.hpp</text>
</a>
</g>
</g>
<!-- Node11&#45;&gt;Node31 -->
<g id="edge34" class="edge">
<title>Node11&#45;&gt;Node31</title>
<path fill="none" stroke="midnightblue" d="M3075.59,-280.72C3204.31,-276.5 3509.45,-263.76 3763.5,-232 3775.68,-230.48 3788.82,-228.29 3800.82,-226.07"/>
<polygon fill="midnightblue" stroke="midnightblue" points="3075.41,-277.22 3065.52,-281.04 3075.63,-284.22 3075.41,-277.22"/>
</g>
<!-- Node32 -->
<g id="node32" class="node">
<title>Node32</title>
<g id="a_node32"><a xlink:href="testAPU_8cpp.html" target="_top" xlink:title=" ">
<polygon fill="white" stroke="black" points="2429.5,-140 2429.5,-159 2555.5,-159 2555.5,-140 2429.5,-140"/>
<text text-anchor="middle" x="2492.5" y="-147" font-family="Helvetica,sans-Serif" font-size="10.00">tests/APU/testAPU.cpp</text>
</a>
</g>
</g>
<!-- Node11&#45;&gt;Node32 -->
<g id="edge54" class="edge">
<title>Node11&#45;&gt;Node32</title>
<path fill="none" stroke="midnightblue" d="M2994.52,-267.49C2982.13,-257.59 2965.68,-244.22 2951.5,-232 2936.01,-218.65 2936.17,-209.35 2917.5,-201 2773.53,-136.63 2720.43,-188.6 2564.5,-165 2553.66,-163.36 2541.97,-161.18 2531.24,-159.02"/>
<polygon fill="midnightblue" stroke="midnightblue" points="2992.37,-270.25 3002.37,-273.74 2996.73,-264.78 2992.37,-270.25"/>
</g>
<!-- Node33 -->
<g id="node33" class="node">
<title>Node33</title>
<g id="a_node33"><a xlink:href="testAPUInstructions_8cpp.html" target="_top" xlink:title=" ">
<polygon fill="white" stroke="black" points="2574,-140 2574,-159 2757,-159 2757,-140 2574,-140"/>
<text text-anchor="middle" x="2665.5" y="-147" font-family="Helvetica,sans-Serif" font-size="10.00">tests/APU/testAPUInstructions.cpp</text>
</a>
</g>
</g>
<!-- Node11&#45;&gt;Node33 -->
<g id="edge55" class="edge">
<title>Node11&#45;&gt;Node33</title>
<path fill="none" stroke="midnightblue" d="M3005.11,-264.82C2995.13,-245.82 2976.59,-216.3 2951.5,-201 2941.65,-194.99 2799.74,-171.77 2719.6,-159.01"/>
<polygon fill="midnightblue" stroke="midnightblue" points="3002.05,-266.52 3009.66,-273.9 3008.31,-263.39 3002.05,-266.52"/>
</g>
<!-- Node34 -->
<g id="node34" class="node">
<title>Node34</title>
<g id="a_node34"><a xlink:href="testOperand_8cpp.html" target="_top" xlink:title=" ">
<polygon fill="white" stroke="black" points="2775,-140 2775,-159 2922,-159 2922,-140 2775,-140"/>
<text text-anchor="middle" x="2848.5" y="-147" font-family="Helvetica,sans-Serif" font-size="10.00">tests/APU/testOperand.cpp</text>
</a>
</g>
</g>
<!-- Node11&#45;&gt;Node34 -->
<g id="edge56" class="edge">
<title>Node11&#45;&gt;Node34</title>
<path fill="none" stroke="midnightblue" d="M3012.71,-263.61C3010.96,-245.36 3005.6,-218.05 2989.5,-201 2968.26,-178.5 2936.3,-166.01 2908.17,-159.08"/>
<polygon fill="midnightblue" stroke="midnightblue" points="3009.22,-263.89 3013.4,-273.63 3016.2,-263.41 3009.22,-263.89"/>
</g>
<!-- Node35 -->
<g id="node35" class="node">
<title>Node35</title>
<g id="a_node35"><a xlink:href="testADC_8cpp.html" target="_top" xlink:title=" ">
<polygon fill="white" stroke="black" points="2940,-140 2940,-159 3095,-159 3095,-140 2940,-140"/>
<text text-anchor="middle" x="3017.5" y="-147" font-family="Helvetica,sans-Serif" font-size="10.00">tests/CPU/Math/testADC.cpp</text>
</a>
</g>
</g>
<!-- Node11&#45;&gt;Node35 -->
<g id="edge57" class="edge">
<title>Node11&#45;&gt;Node35</title>
<path fill="none" stroke="midnightblue" d="M3019.86,-264.19C3022.83,-254.71 3026.02,-242.87 3027.5,-232 3031.11,-205.44 3024.03,-173.94 3020.01,-159.08"/>
<polygon fill="midnightblue" stroke="midnightblue" points="3016.53,-263.12 3016.72,-273.71 3023.18,-265.31 3016.53,-263.12"/>
</g>
<!-- Node36 -->
<g id="node36" class="node">
<title>Node36</title>
<g id="a_node36"><a xlink:href="testCMP_8cpp.html" target="_top" xlink:title=" ">
<polygon fill="white" stroke="black" points="3113.5,-140 3113.5,-159 3267.5,-159 3267.5,-140 3113.5,-140"/>
<text text-anchor="middle" x="3190.5" y="-147" font-family="Helvetica,sans-Serif" font-size="10.00">tests/CPU/Math/testCMP.cpp</text>
</a>
</g>
</g>
<!-- Node11&#45;&gt;Node36 -->
<g id="edge58" class="edge">
<title>Node11&#45;&gt;Node36</title>
<path fill="none" stroke="midnightblue" d="M3033.18,-267.82C3070.29,-240.15 3149.52,-181.06 3179.07,-159.02"/>
<polygon fill="midnightblue" stroke="midnightblue" points="3031.04,-265.06 3025.11,-273.84 3035.22,-270.67 3031.04,-265.06"/>
</g>
<!-- Node37 -->
<g id="node37" class="node">
<title>Node37</title>
<g id="a_node37"><a xlink:href="testOthersMath_8cpp.html" target="_top" xlink:title=" ">
<polygon fill="white" stroke="black" points="3285.5,-134.5 3285.5,-164.5 3431.5,-164.5 3431.5,-134.5 3285.5,-134.5"/>
<text text-anchor="start" x="3293.5" y="-152.5" font-family="Helvetica,sans-Serif" font-size="10.00">tests/CPU/Math/testOthers</text>
<text text-anchor="middle" x="3358.5" y="-141.5" font-family="Helvetica,sans-Serif" font-size="10.00">Math.cpp</text>
</a>
</g>
</g>
<!-- Node11&#45;&gt;Node37 -->
<g id="edge59" class="edge">
<title>Node11&#45;&gt;Node37</title>
<path fill="none" stroke="midnightblue" d="M3045.45,-270.27C3109.59,-245.74 3253.65,-190.62 3321.64,-164.6"/>
<polygon fill="midnightblue" stroke="midnightblue" points="3043.96,-267.1 3035.87,-273.94 3046.46,-273.64 3043.96,-267.1"/>
</g>
<!-- Node38 -->
<g id="node38" class="node">
<title>Node38</title>
<g id="a_node38"><a xlink:href="testSBC_8cpp.html" target="_top" xlink:title=" ">
<polygon fill="white" stroke="black" points="3450,-140 3450,-159 3603,-159 3603,-140 3450,-140"/>
<text text-anchor="middle" x="3526.5" y="-147" font-family="Helvetica,sans-Serif" font-size="10.00">tests/CPU/Math/testSBC.cpp</text>
</a>
</g>
</g>
<!-- Node11&#45;&gt;Node38 -->
<g id="edge60" class="edge">
<title>Node11&#45;&gt;Node38</title>
<path fill="none" stroke="midnightblue" d="M3056.55,-271.42C3156.72,-245.65 3403.67,-182.1 3493.31,-159.04"/>
<polygon fill="midnightblue" stroke="midnightblue" points="3055.58,-268.06 3046.76,-273.94 3057.32,-274.84 3055.58,-268.06"/>
</g>
<!-- Node39 -->
<g id="node39" class="node">
<title>Node39</title>
<g id="a_node39"><a xlink:href="testAddressingMode_8cpp.html" target="_top" xlink:title=" ">
<polygon fill="white" stroke="black" points="3621.5,-134.5 3621.5,-164.5 3761.5,-164.5 3761.5,-134.5 3621.5,-134.5"/>
<text text-anchor="start" x="3629.5" y="-152.5" font-family="Helvetica,sans-Serif" font-size="10.00">tests/CPU/testAddressing</text>
<text text-anchor="middle" x="3691.5" y="-141.5" font-family="Helvetica,sans-Serif" font-size="10.00">Mode.cpp</text>
</a>
</g>
</g>
<!-- Node11&#45;&gt;Node39 -->
<g id="edge61" class="edge">
<title>Node11&#45;&gt;Node39</title>
<path fill="none" stroke="midnightblue" d="M3070.42,-272.12C3125.28,-262.07 3210.63,-246.28 3284.5,-232 3403.54,-208.99 3541.91,-181.02 3622.78,-164.55"/>
<polygon fill="midnightblue" stroke="midnightblue" points="3069.74,-268.69 3060.54,-273.93 3071,-275.57 3069.74,-268.69"/>
</g>
<!-- Node40 -->
<g id="node40" class="node">
<title>Node40</title>
<g id="a_node40"><a xlink:href="testBits_8cpp.html" target="_top" xlink:title=" ">
<polygon fill="white" stroke="black" points="3780,-140 3780,-159 3905,-159 3905,-140 3780,-140"/>
<text text-anchor="middle" x="3842.5" y="-147" font-family="Helvetica,sans-Serif" font-size="10.00">tests/CPU/testBits.cpp</text>
</a>
</g>
</g>
<!-- Node11&#45;&gt;Node40 -->
<g id="edge62" class="edge">
<title>Node11&#45;&gt;Node40</title>
<path fill="none" stroke="midnightblue" d="M3076.05,-274.42C3148.63,-264.91 3271.88,-248.33 3377.5,-232 3552.61,-204.93 3596.3,-197.38 3770.5,-165 3780.4,-163.16 3791.05,-161.07 3801.04,-159.07"/>
<polygon fill="midnightblue" stroke="midnightblue" points="3075.18,-271.01 3065.71,-275.77 3076.08,-277.95 3075.18,-271.01"/>
</g>
<!-- Node43 -->
<g id="node43" class="node">
<title>Node43</title>
<g id="a_node43"><a xlink:href="testInterupts_8cpp.html" target="_top" xlink:title=" ">
<polygon fill="white" stroke="black" points="4579,-140 4579,-159 4728,-159 4728,-140 4579,-140"/>
<text text-anchor="middle" x="4653.5" y="-147" font-family="Helvetica,sans-Serif" font-size="10.00">tests/CPU/testInterupts.cpp</text>
</a>
</g>
</g>
<!-- Node11&#45;&gt;Node43 -->
<g id="edge63" class="edge">
<title>Node11&#45;&gt;Node43</title>
<path fill="none" stroke="midnightblue" d="M3076.06,-280.52C3287.19,-273.24 3992.47,-244.17 4569.5,-165 4581.82,-163.31 4595.09,-161.17 4607.38,-159.05"/>
<polygon fill="midnightblue" stroke="midnightblue" points="3075.67,-277.03 3065.79,-280.87 3075.91,-284.02 3075.67,-277.03"/>
</g>
<!-- Node44 -->
<g id="node44" class="node">
<title>Node44</title>
<g id="a_node44"><a xlink:href="testStore_8cpp.html" target="_top" xlink:title=" ">
<polygon fill="white" stroke="black" points="4746,-140 4746,-159 4877,-159 4877,-140 4746,-140"/>
<text text-anchor="middle" x="4811.5" y="-147" font-family="Helvetica,sans-Serif" font-size="10.00">tests/CPU/testStore.cpp</text>
</a>
</g>
</g>
<!-- Node11&#45;&gt;Node44 -->
<g id="edge64" class="edge">
<title>Node11&#45;&gt;Node44</title>
<path fill="none" stroke="midnightblue" d="M3075.61,-280.84C3241.29,-276.16 3707.54,-261.21 4094.5,-232 4380.57,-210.41 4452.73,-207.16 4736.5,-165 4747.65,-163.34 4759.66,-161.19 4770.74,-159.05"/>
<polygon fill="midnightblue" stroke="midnightblue" points="3075.49,-277.35 3065.6,-281.13 3075.69,-284.34 3075.49,-277.35"/>
</g>
<!-- Node45 -->
<g id="node45" class="node">
<title>Node45</title>
<g id="a_node45"><a xlink:href="testTransfers_8cpp.html" target="_top" xlink:title=" ">
<polygon fill="white" stroke="black" points="4895.5,-140 4895.5,-159 5045.5,-159 5045.5,-140 4895.5,-140"/>
<text text-anchor="middle" x="4970.5" y="-147" font-family="Helvetica,sans-Serif" font-size="10.00">tests/CPU/testTransfers.cpp</text>
</a>
</g>
</g>
<!-- Node11&#45;&gt;Node45 -->
<g id="edge65" class="edge">
<title>Node11&#45;&gt;Node45</title>
<path fill="none" stroke="midnightblue" d="M3075.72,-281.65C3260.98,-278.76 3825.12,-267.47 4291.5,-232 4556.41,-211.85 4622.45,-202.24 4885.5,-165 4897.8,-163.26 4911.06,-161.12 4923.37,-159.03"/>
<polygon fill="midnightblue" stroke="midnightblue" points="3075.57,-278.15 3065.62,-281.8 3075.67,-285.15 3075.57,-278.15"/>
</g>
<!-- Node46 -->
<g id="node46" class="node">
<title>Node46</title>
<g id="a_node46"><a xlink:href="testPpuWrite_8cpp.html" target="_top" xlink:title=" ">
<polygon fill="white" stroke="black" points="5063,-140 5063,-159 5212,-159 5212,-140 5063,-140"/>
<text text-anchor="middle" x="5137.5" y="-147" font-family="Helvetica,sans-Serif" font-size="10.00">tests/PPU/testPpuWrite.cpp</text>
</a>
</g>
</g>
<!-- Node11&#45;&gt;Node46 -->
<g id="edge66" class="edge">
<title>Node11&#45;&gt;Node46</title>
<path fill="none" stroke="midnightblue" d="M3075.93,-282.1C3277.78,-280.45 3930.89,-272.12 4469.5,-232 4730.48,-212.56 4795.49,-202.42 5054.5,-165 5066.52,-163.26 5079.47,-161.13 5091.48,-159.04"/>
<polygon fill="midnightblue" stroke="midnightblue" points="3075.79,-278.61 3065.82,-282.18 3075.84,-285.6 3075.79,-278.61"/>
</g>
<!-- Node47 -->
<g id="node47" class="node">
<title>Node47</title>
<g id="a_node47"><a xlink:href="testPpuWriteFromVmain_8cpp.html" target="_top" xlink:title=" ">
<polygon fill="white" stroke="black" points="5230.5,-134.5 5230.5,-164.5 5384.5,-164.5 5384.5,-134.5 5230.5,-134.5"/>
<text text-anchor="start" x="5238.5" y="-152.5" font-family="Helvetica,sans-Serif" font-size="10.00">tests/PPU/testPpuWriteFrom</text>
<text text-anchor="middle" x="5307.5" y="-141.5" font-family="Helvetica,sans-Serif" font-size="10.00">Vmain.cpp</text>
</a>
</g>
</g>
<!-- Node11&#45;&gt;Node47 -->
<g id="edge67" class="edge">
<title>Node11&#45;&gt;Node47</title>
<path fill="none" stroke="midnightblue" d="M3075.97,-282.48C3293.08,-281.99 4034.96,-276.93 4645.5,-232 4902.09,-213.12 4965.75,-201.05 5220.5,-165 5223.68,-164.55 5226.93,-164.08 5230.21,-163.58"/>
<polygon fill="midnightblue" stroke="midnightblue" points="3075.72,-278.98 3065.72,-282.5 3075.73,-285.98 3075.72,-278.98"/>
</g>
<!-- Node13 -->
<g id="node13" class="node">
<title>Node13</title>
<g id="a_node13"><a xlink:href="APUDebug_8cpp.html" target="_top" xlink:title=" ">
<polygon fill="white" stroke="black" points="5403,-140 5403,-159 5582,-159 5582,-140 5403,-140"/>
<text text-anchor="middle" x="5492.5" y="-147" font-family="Helvetica,sans-Serif" font-size="10.00">sources/Debugger/APUDebug.cpp</text>
</a>
</g>
</g>
<!-- Node12&#45;&gt;Node13 -->
<g id="edge12" class="edge">
<title>Node12&#45;&gt;Node13</title>
<path fill="none" stroke="midnightblue" d="M5409.42,-201.44C5430.42,-188.57 5460.82,-169.93 5478.43,-159.13"/>
<polygon fill="midnightblue" stroke="midnightblue" points="5407.49,-198.52 5400.8,-206.73 5411.15,-204.49 5407.49,-198.52"/>
</g>
<!-- Node15&#45;&gt;Node16 -->
<g id="edge15" class="edge">
<title>Node15&#45;&gt;Node16</title>
<path fill="none" stroke="midnightblue" d="M2735.59,-205.94C2717.15,-204.07 2697.67,-202.29 2679.5,-201 2192.36,-166.4 1603.28,-154.54 1410.74,-151.43"/>
<polygon fill="midnightblue" stroke="midnightblue" points="2735.41,-209.44 2745.72,-206.99 2736.13,-202.48 2735.41,-209.44"/>
</g>
<!-- Node15&#45;&gt;Node19 -->
<g id="edge18" class="edge">
<title>Node15&#45;&gt;Node19</title>
<path fill="none" stroke="midnightblue" d="M2753.36,-205.61C2740.19,-203.87 2726.42,-202.22 2713.5,-201 2635.19,-193.61 2064.2,-218.46 2006.5,-165 1966.27,-127.73 1979.45,-51.02 1985.33,-25.2"/>
<polygon fill="midnightblue" stroke="midnightblue" points="2752.91,-209.09 2763.29,-206.96 2753.86,-202.15 2752.91,-209.09"/>
</g>
<!-- Node20 -->
<g id="node20" class="node">
<title>Node20</title>
<g id="a_node20"><a xlink:href="QtSFML_8hpp.html" target="_top" xlink:title=" ">
<polygon fill="white" stroke="black" points="2193.5,-67.5 2193.5,-97.5 2353.5,-97.5 2353.5,-67.5 2193.5,-67.5"/>
<text text-anchor="start" x="2201.5" y="-85.5" font-family="Helvetica,sans-Serif" font-size="10.00">sources/Renderer/QtRenderer</text>
<text text-anchor="middle" x="2273.5" y="-74.5" font-family="Helvetica,sans-Serif" font-size="10.00">/QtSFML.hpp</text>
</a>
</g>
</g>
<!-- Node15&#45;&gt;Node20 -->
<g id="edge19" class="edge">
<title>Node15&#45;&gt;Node20</title>
<path fill="none" stroke="midnightblue" d="M2747.98,-205.61C2736.46,-204.04 2724.65,-202.45 2713.5,-201 2583.4,-184.03 2541.18,-216.49 2420.5,-165 2400.45,-156.45 2400.98,-145.56 2382.5,-134 2359.43,-119.56 2331.55,-106.72 2309.77,-97.6"/>
<polygon fill="midnightblue" stroke="midnightblue" points="2747.62,-209.1 2758,-206.99 2748.57,-202.16 2747.62,-209.1"/>
</g>
<!-- Node22 -->
<g id="node22" class="node">
<title>Node22</title>
<g id="a_node22"><a xlink:href="QtWidgetSFML_8hpp.html" target="_top" xlink:title=" ">
<polygon fill="white" stroke="black" points="2015.5,-134.5 2015.5,-164.5 2175.5,-164.5 2175.5,-134.5 2015.5,-134.5"/>
<text text-anchor="start" x="2023.5" y="-152.5" font-family="Helvetica,sans-Serif" font-size="10.00">sources/Renderer/QtRenderer</text>
<text text-anchor="middle" x="2095.5" y="-141.5" font-family="Helvetica,sans-Serif" font-size="10.00">/QtWidgetSFML.hpp</text>
</a>
</g>
</g>
<!-- Node15&#45;&gt;Node22 -->
<g id="edge22" class="edge">
<title>Node15&#45;&gt;Node22</title>
<path fill="none" stroke="midnightblue" d="M2752.07,-205.62C2739.29,-203.92 2725.99,-202.29 2713.5,-201 2479.08,-176.87 2418.61,-191.98 2184.5,-165 2181.55,-164.66 2178.54,-164.29 2175.5,-163.9"/>
<polygon fill="midnightblue" stroke="midnightblue" points="2751.81,-209.11 2762.19,-206.99 2752.75,-202.18 2751.81,-209.11"/>
</g>
<!-- Node24 -->
<g id="node24" class="node">
<title>Node24</title>
<g id="a_node24"><a xlink:href="SFRenderer_8cpp.html" target="_top" xlink:title=" ">
<polygon fill="white" stroke="black" points="2193.5,-140 2193.5,-159 2373.5,-159 2373.5,-140 2193.5,-140"/>
<text text-anchor="middle" x="2283.5" y="-147" font-family="Helvetica,sans-Serif" font-size="10.00">sources/Renderer/SFRenderer.cpp</text>
</a>
</g>
</g>
<!-- Node15&#45;&gt;Node24 -->
<g id="edge25" class="edge">
<title>Node15&#45;&gt;Node24</title>
<path fill="none" stroke="midnightblue" d="M2748.65,-205.58C2736.92,-204 2724.87,-202.41 2713.5,-201 2568.84,-183.03 2532.15,-183.07 2387.5,-165 2372.94,-163.18 2357.25,-161.07 2342.59,-159.04"/>
<polygon fill="midnightblue" stroke="midnightblue" points="2748.46,-209.09 2758.84,-206.97 2749.41,-202.15 2748.46,-209.09"/>
</g>
<!-- Node17 -->
<g id="node17" class="node">
<title>Node17</title>
<g id="a_node17"><a xlink:href="CPUDebug_8cpp.html" target="_top" xlink:title=" ">
<polygon fill="white" stroke="black" points="1355.5,-67.5 1355.5,-97.5 1483.5,-97.5 1483.5,-67.5 1355.5,-67.5"/>
<text text-anchor="start" x="1363.5" y="-85.5" font-family="Helvetica,sans-Serif" font-size="10.00">sources/Debugger/CPU</text>
<text text-anchor="middle" x="1419.5" y="-74.5" font-family="Helvetica,sans-Serif" font-size="10.00">/CPUDebug.cpp</text>
</a>
</g>
</g>
<!-- Node16&#45;&gt;Node17 -->
<g id="edge16" class="edge">
<title>Node16&#45;&gt;Node17</title>
<path fill="none" stroke="midnightblue" d="M1369.97,-127.6C1381,-117.78 1393.84,-106.34 1403.69,-97.58"/>
<polygon fill="midnightblue" stroke="midnightblue" points="1367.48,-125.13 1362.34,-134.4 1372.14,-130.36 1367.48,-125.13"/>
</g>
<!-- Node18 -->
<g id="node18" class="node">
<title>Node18</title>
<g id="a_node18"><a xlink:href="Disassembly_8cpp.html" target="_top" xlink:title=" ">
<polygon fill="white" stroke="black" points="1209.5,-67.5 1209.5,-97.5 1337.5,-97.5 1337.5,-67.5 1209.5,-67.5"/>
<text text-anchor="start" x="1217.5" y="-85.5" font-family="Helvetica,sans-Serif" font-size="10.00">sources/Debugger/CPU</text>
<text text-anchor="middle" x="1273.5" y="-74.5" font-family="Helvetica,sans-Serif" font-size="10.00">/Disassembly.cpp</text>
</a>
</g>
</g>
<!-- Node16&#45;&gt;Node18 -->
<g id="edge17" class="edge">
<title>Node16&#45;&gt;Node18</title>
<path fill="none" stroke="midnightblue" d="M1323.03,-127.6C1312,-117.78 1299.16,-106.34 1289.31,-97.58"/>
<polygon fill="midnightblue" stroke="midnightblue" points="1320.86,-130.36 1330.66,-134.4 1325.52,-125.13 1320.86,-130.36"/>
</g>
<!-- Node20&#45;&gt;Node19 -->
<g id="edge20" class="edge">
<title>Node20&#45;&gt;Node19</title>
<path fill="none" stroke="midnightblue" d="M2201.9,-65.23C2145.75,-52.47 2069.83,-35.21 2025.03,-25.03"/>
<polygon fill="midnightblue" stroke="midnightblue" points="2201.27,-68.67 2211.79,-67.48 2202.82,-61.85 2201.27,-68.67"/>
</g>
<!-- Node21 -->
<g id="node21" class="node">
<title>Node21</title>
<g id="a_node21"><a xlink:href="QtSFML_8cpp.html" target="_top" xlink:title=" ">
<polygon fill="white" stroke="black" points="2193.5,-0.5 2193.5,-30.5 2353.5,-30.5 2353.5,-0.5 2193.5,-0.5"/>
<text text-anchor="start" x="2201.5" y="-18.5" font-family="Helvetica,sans-Serif" font-size="10.00">sources/Renderer/QtRenderer</text>
<text text-anchor="middle" x="2273.5" y="-7.5" font-family="Helvetica,sans-Serif" font-size="10.00">/QtSFML.cpp</text>
</a>
</g>
</g>
<!-- Node20&#45;&gt;Node21 -->
<g id="edge21" class="edge">
<title>Node20&#45;&gt;Node21</title>
<path fill="none" stroke="midnightblue" d="M2273.5,-57.11C2273.5,-48.15 2273.5,-38.32 2273.5,-30.58"/>
<polygon fill="midnightblue" stroke="midnightblue" points="2270,-57.4 2273.5,-67.4 2277,-57.4 2270,-57.4"/>
</g>
<!-- Node22&#45;&gt;Node20 -->
<g id="edge23" class="edge">
<title>Node22&#45;&gt;Node20</title>
<path fill="none" stroke="midnightblue" d="M2143.55,-130.96C2172.22,-120.48 2208.14,-107.37 2234.95,-97.58"/>
<polygon fill="midnightblue" stroke="midnightblue" points="2142.32,-127.68 2134.12,-134.4 2144.72,-134.25 2142.32,-127.68"/>
</g>
<!-- Node23 -->
<g id="node23" class="node">
<title>Node23</title>
<g id="a_node23"><a xlink:href="QtWidgetSFML_8cpp.html" target="_top" xlink:title=" ">
<polygon fill="white" stroke="black" points="2015.5,-67.5 2015.5,-97.5 2175.5,-97.5 2175.5,-67.5 2015.5,-67.5"/>
<text text-anchor="start" x="2023.5" y="-85.5" font-family="Helvetica,sans-Serif" font-size="10.00">sources/Renderer/QtRenderer</text>
<text text-anchor="middle" x="2095.5" y="-74.5" font-family="Helvetica,sans-Serif" font-size="10.00">/QtWidgetSFML.cpp</text>
</a>
</g>
</g>
<!-- Node22&#45;&gt;Node23 -->
<g id="edge24" class="edge">
<title>Node22&#45;&gt;Node23</title>
<path fill="none" stroke="midnightblue" d="M2095.5,-124.11C2095.5,-115.15 2095.5,-105.32 2095.5,-97.58"/>
<polygon fill="midnightblue" stroke="midnightblue" points="2092,-124.4 2095.5,-134.4 2099,-124.4 2092,-124.4"/>
</g>
<!-- Node31&#45;&gt;Node31 -->
<g id="edge36" class="edge">
<title>Node31&#45;&gt;Node31</title>
<path fill="none" stroke="midnightblue" d="M3872.08,-228.2C3889.13,-230.58 3905,-226.68 3905,-216.5 3905,-204.32 3882.29,-201.13 3862.02,-206.94"/>
<polygon fill="midnightblue" stroke="midnightblue" points="3872.53,-224.71 3862.02,-226.06 3871.08,-231.56 3872.53,-224.71"/>
</g>
<!-- Node31&#45;&gt;Node32 -->
<g id="edge35" class="edge">
<title>Node31&#45;&gt;Node32</title>
<path fill="none" stroke="midnightblue" d="M3787.57,-214.5C3575.07,-210.43 2806.79,-194 2564.5,-165 2552.85,-163.61 2540.28,-161.34 2528.95,-159.01"/>
<polygon fill="midnightblue" stroke="midnightblue" points="3787.78,-218 3797.85,-214.69 3787.92,-211 3787.78,-218"/>
</g>
<!-- Node31&#45;&gt;Node33 -->
<g id="edge37" class="edge">
<title>Node31&#45;&gt;Node33</title>
<path fill="none" stroke="midnightblue" d="M3787.3,-214.8C3628.31,-212.39 3155.75,-202.35 2765.5,-165 2749.87,-163.5 2732.95,-161.28 2717.54,-159.02"/>
<polygon fill="midnightblue" stroke="midnightblue" points="3787.71,-218.31 3797.76,-214.96 3787.82,-211.31 3787.71,-218.31"/>
</g>
<!-- Node31&#45;&gt;Node34 -->
<g id="edge38" class="edge">
<title>Node31&#45;&gt;Node34</title>
<path fill="none" stroke="midnightblue" d="M3787.54,-214.75C3645.36,-212.3 3254,-202.42 2930.5,-165 2917.72,-163.52 2903.91,-161.32 2891.34,-159.07"/>
<polygon fill="midnightblue" stroke="midnightblue" points="3787.68,-218.25 3797.74,-214.92 3787.8,-211.25 3787.68,-218.25"/>
</g>
<!-- Node31&#45;&gt;Node35 -->
<g id="edge39" class="edge">
<title>Node31&#45;&gt;Node35</title>
<path fill="none" stroke="midnightblue" d="M3787.59,-213.56C3664.82,-208.83 3358.88,-194.83 3104.5,-165 3091.12,-163.43 3076.65,-161.23 3063.44,-159.01"/>
<polygon fill="midnightblue" stroke="midnightblue" points="3787.73,-217.07 3797.86,-213.95 3788,-210.08 3787.73,-217.07"/>
</g>
<!-- Node31&#45;&gt;Node36 -->
<g id="edge40" class="edge">
<title>Node31&#45;&gt;Node36</title>
<path fill="none" stroke="midnightblue" d="M3787.69,-212.04C3686.45,-205.33 3463.38,-189.05 3276.5,-165 3263.74,-163.36 3249.97,-161.21 3237.27,-159.07"/>
<polygon fill="midnightblue" stroke="midnightblue" points="3787.77,-215.55 3797.98,-212.71 3788.23,-208.57 3787.77,-215.55"/>
</g>
<!-- Node31&#45;&gt;Node37 -->
<g id="edge41" class="edge">
<title>Node31&#45;&gt;Node37</title>
<path fill="none" stroke="midnightblue" d="M3787.77,-209.5C3710.3,-200.82 3564.31,-183.71 3440.5,-165 3437.64,-164.57 3434.73,-164.11 3431.79,-163.65"/>
<polygon fill="midnightblue" stroke="midnightblue" points="3787.46,-212.99 3797.78,-210.62 3788.23,-206.03 3787.46,-212.99"/>
</g>
<!-- Node31&#45;&gt;Node38 -->
<g id="edge42" class="edge">
<title>Node31&#45;&gt;Node38</title>
<path fill="none" stroke="midnightblue" d="M3790.87,-204.88C3728.63,-192.08 3625.28,-170.82 3567.98,-159.03"/>
<polygon fill="midnightblue" stroke="midnightblue" points="3790.36,-208.35 3800.86,-206.94 3791.77,-201.49 3790.36,-208.35"/>
</g>
<!-- Node31&#45;&gt;Node39 -->
<g id="edge43" class="edge">
<title>Node31&#45;&gt;Node39</title>
<path fill="none" stroke="midnightblue" d="M3813.26,-202.91C3787.69,-191.91 3750.6,-175.94 3724.09,-164.53"/>
<polygon fill="midnightblue" stroke="midnightblue" points="3811.88,-206.13 3822.45,-206.87 3814.65,-199.7 3811.88,-206.13"/>
</g>
<!-- Node31&#45;&gt;Node40 -->
<g id="edge44" class="edge">
<title>Node31&#45;&gt;Node40</title>
<path fill="none" stroke="midnightblue" d="M3842.5,-196.54C3842.5,-184.17 3842.5,-168.62 3842.5,-159.13"/>
<polygon fill="midnightblue" stroke="midnightblue" points="3839,-196.73 3842.5,-206.73 3846,-196.73 3839,-196.73"/>
</g>
<!-- Node41 -->
<g id="node41" class="node">
<title>Node41</title>
<g id="a_node41"><a xlink:href="testDMA_8cpp.html" target="_top" xlink:title=" ">
<polygon fill="white" stroke="black" points="4432,-140 4432,-159 4561,-159 4561,-140 4432,-140"/>
<text text-anchor="middle" x="4496.5" y="-147" font-family="Helvetica,sans-Serif" font-size="10.00">tests/CPU/testDMA.cpp</text>
</a>
</g>
</g>
<!-- Node31&#45;&gt;Node41 -->
<g id="edge45" class="edge">
<title>Node31&#45;&gt;Node41</title>
<path fill="none" stroke="midnightblue" d="M3897.24,-212.69C4000.39,-206.95 4230.43,-192.1 4422.5,-165 4433.78,-163.41 4445.94,-161.22 4457.08,-159.03"/>
<polygon fill="midnightblue" stroke="midnightblue" points="3896.86,-209.2 3887.07,-213.24 3897.25,-216.19 3896.86,-209.2"/>
</g>
<!-- Node42 -->
<g id="node42" class="node">
<title>Node42</title>
<g id="a_node42"><a xlink:href="testInternal_8cpp.html" target="_top" xlink:title=" ">
<polygon fill="white" stroke="black" points="3923,-140 3923,-159 4066,-159 4066,-140 3923,-140"/>
<text text-anchor="middle" x="3994.5" y="-147" font-family="Helvetica,sans-Serif" font-size="10.00">tests/CPU/testInternal.cpp</text>
</a>
</g>
</g>
<!-- Node31&#45;&gt;Node42 -->
<g id="edge46" class="edge">
<title>Node31&#45;&gt;Node42</title>
<path fill="none" stroke="midnightblue" d="M3872.24,-202.78C3902.34,-189.91 3948.07,-170.35 3974.23,-159.17"/>
<polygon fill="midnightblue" stroke="midnightblue" points="3870.5,-199.72 3862.68,-206.87 3873.26,-206.15 3870.5,-199.72"/>
</g>
<!-- Node31&#45;&gt;Node43 -->
<g id="edge47" class="edge">
<title>Node31&#45;&gt;Node43</title>
<path fill="none" stroke="midnightblue" d="M3897.49,-213.59C4019.04,-208.95 4319.6,-195.17 4569.5,-165 4582.43,-163.44 4596.4,-161.24 4609.16,-159.02"/>
<polygon fill="midnightblue" stroke="midnightblue" points="3897.18,-210.1 3887.32,-213.97 3897.45,-217.09 3897.18,-210.1"/>
</g>
<!-- Node31&#45;&gt;Node44 -->
<g id="edge48" class="edge">
<title>Node31&#45;&gt;Node44</title>
<path fill="none" stroke="midnightblue" d="M3897.41,-214.96C4037.69,-213.04 4420.45,-204.3 4736.5,-165 4748.34,-163.53 4761.13,-161.3 4772.73,-159.03"/>
<polygon fill="midnightblue" stroke="midnightblue" points="3897.3,-211.47 3887.34,-215.1 3897.39,-218.46 3897.3,-211.47"/>
</g>
<!-- Node31&#45;&gt;Node45 -->
<g id="edge49" class="edge">
<title>Node31&#45;&gt;Node45</title>
<path fill="none" stroke="midnightblue" d="M3897.36,-215.17C4052.77,-213.74 4509.15,-206.06 4885.5,-165 4898.89,-163.54 4913.38,-161.31 4926.53,-159.04"/>
<polygon fill="midnightblue" stroke="midnightblue" points="3897.1,-211.67 3887.13,-215.26 3897.16,-218.67 3897.1,-211.67"/>
</g>
<!-- Node31&#45;&gt;Node46 -->
<g id="edge50" class="edge">
<title>Node31&#45;&gt;Node46</title>
<path fill="none" stroke="midnightblue" d="M3897.27,-215.77C4068.64,-216.08 4609.74,-212.91 5054.5,-165 5067.73,-163.57 5082.05,-161.33 5095,-159.03"/>
<polygon fill="midnightblue" stroke="midnightblue" points="3897.24,-212.27 3887.23,-215.75 3897.22,-219.27 3897.24,-212.27"/>
</g>
<!-- Node31&#45;&gt;Node47 -->
<g id="edge51" class="edge">
<title>Node31&#45;&gt;Node47</title>
<path fill="none" stroke="midnightblue" d="M3897.34,-216.01C4083.46,-217.23 4707.98,-216.88 5220.5,-165 5223.7,-164.68 5226.96,-164.31 5230.25,-163.9"/>
<polygon fill="midnightblue" stroke="midnightblue" points="3897.28,-212.51 3887.26,-215.95 3897.23,-219.51 3897.28,-212.51"/>
</g>
<!-- Node48 -->
<g id="node48" class="node">
<title>Node48</title>
<g id="a_node48"><a xlink:href="testMemoryBus_8cpp.html" target="_top" xlink:title=" ">
<polygon fill="white" stroke="black" points="4084,-140 4084,-159 4225,-159 4225,-140 4084,-140"/>
<text text-anchor="middle" x="4154.5" y="-147" font-family="Helvetica,sans-Serif" font-size="10.00">tests/testMemoryBus.cpp</text>
</a>
</g>
</g>
<!-- Node31&#45;&gt;Node48 -->
<g id="edge52" class="edge">
<title>Node31&#45;&gt;Node48</title>
<path fill="none" stroke="midnightblue" d="M3893.47,-204.88C3954.82,-192.1 4056.67,-170.88 4113.3,-159.08"/>
<polygon fill="midnightblue" stroke="midnightblue" points="3892.69,-201.47 3883.61,-206.94 3894.11,-208.32 3892.69,-201.47"/>
</g>
<!-- Node49 -->
<g id="node49" class="node">
<title>Node49</title>
<g id="a_node49"><a xlink:href="testRectangleMemory_8cpp.html" target="_top" xlink:title=" ">
<polygon fill="white" stroke="black" points="4243.5,-140 4243.5,-159 4413.5,-159 4413.5,-140 4243.5,-140"/>
<text text-anchor="middle" x="4328.5" y="-147" font-family="Helvetica,sans-Serif" font-size="10.00">tests/testRectangleMemory.cpp</text>
</a>
</g>
</g>
<!-- Node31&#45;&gt;Node49 -->
<g id="edge53" class="edge">
<title>Node31&#45;&gt;Node49</title>
<path fill="none" stroke="midnightblue" d="M3897.35,-208.82C3973.04,-199.51 4113.75,-181.87 4233.5,-165 4246.63,-163.15 4260.77,-161.05 4274.02,-159.03"/>
<polygon fill="midnightblue" stroke="midnightblue" points="3896.61,-205.38 3887.11,-210.08 3897.46,-212.33 3896.61,-205.38"/>
</g>
</g>
</svg>
