<?xml version="1.0" encoding="UTF-8" standalone="no"?>
<!DOCTYPE svg PUBLIC "-//W3C//DTD SVG 1.1//EN"
 "http://www.w3.org/Graphics/SVG/1.1/DTD/svg11.dtd">
<!-- Generated by graphviz version 2.43.0 (0)
 -->
<!-- Title: sources/CPU/DMA/DMA.hpp Pages: 1 -->
<svg width="567pt" height="252pt"
 viewBox="0.00 0.00 566.50 252.00" xmlns="http://www.w3.org/2000/svg" xmlns:xlink="http://www.w3.org/1999/xlink">
<g id="graph0" class="graph" transform="scale(1 1) rotate(0) translate(4 248)">
<title>sources/CPU/DMA/DMA.hpp</title>
<polygon fill="white" stroke="transparent" points="-4,4 -4,-248 562.5,-248 562.5,4 -4,4"/>
<!-- Node1 -->
<g id="node1" class="node">
<title>Node1</title>
<g id="a_node1"><a xlink:title=" ">
<polygon fill="#bfbfbf" stroke="black" points="0.5,-224.5 0.5,-243.5 151.5,-243.5 151.5,-224.5 0.5,-224.5"/>
<text text-anchor="middle" x="76" y="-231.5" font-family="Helvetica,sans-Serif" font-size="10.00">sources/CPU/DMA/DMA.hpp</text>
</a>
</g>
</g>
<!-- Node2 -->
<g id="node2" class="node">
<title>Node2</title>
<g id="a_node2"><a xlink:title=" ">
<polygon fill="white" stroke="#bfbfbf" points="0,-0.5 0,-19.5 50,-19.5 50,-0.5 0,-0.5"/>
<text text-anchor="middle" x="25" y="-7.5" font-family="Helvetica,sans-Serif" font-size="10.00">cstdint</text>
</a>
</g>
</g>
<!-- Node1&#45;&gt;Node2 -->
<g id="edge1" class="edge">
<title>Node1&#45;&gt;Node2</title>
<path fill="none" stroke="midnightblue" d="M65.25,-224.27C55.95,-216.01 43.07,-202.72 37,-188 14.75,-134 18.88,-62.87 22.51,-29.63"/>
<polygon fill="midnightblue" stroke="midnightblue" points="26.01,-29.89 23.74,-19.54 19.06,-29.05 26.01,-29.89"/>
</g>
<!-- Node3 -->
<g id="node3" class="node">
<title>Node3</title>
<g id="a_node3"><a xlink:title=" ">
<polygon fill="white" stroke="#bfbfbf" points="70,-0.5 70,-19.5 128,-19.5 128,-0.5 70,-0.5"/>
<text text-anchor="middle" x="99" y="-7.5" font-family="Helvetica,sans-Serif" font-size="10.00">memory</text>
</a>
</g>
</g>
<!-- Node1&#45;&gt;Node3 -->
<g id="edge2" class="edge">
<title>Node1&#45;&gt;Node3</title>
<path fill="none" stroke="midnightblue" d="M66.71,-224.39C58.42,-216.02 46.86,-202.48 42,-188 39.17,-179.57 40.46,-176.75 42,-168 51.26,-115.35 76.75,-57.11 90.28,-28.63"/>
<polygon fill="midnightblue" stroke="midnightblue" points="93.47,-30.08 94.68,-19.56 87.17,-27.03 93.47,-30.08"/>
</g>
<!-- Node4 -->
<g id="node4" class="node">
<title>Node4</title>
<g id="a_node4"><a xlink:href="Int24_8hpp.html" target="_top" xlink:title=" ">
<polygon fill="white" stroke="black" points="439.5,-0.5 439.5,-19.5 558.5,-19.5 558.5,-0.5 439.5,-0.5"/>
<text text-anchor="middle" x="499" y="-7.5" font-family="Helvetica,sans-Serif" font-size="10.00">../../Models/Int24.hpp</text>
</a>
</g>
</g>
<!-- Node1&#45;&gt;Node4 -->
<g id="edge3" class="edge">
<title>Node1&#45;&gt;Node4</title>
<path fill="none" stroke="midnightblue" d="M108.1,-224.42C137.22,-216.26 181.12,-203.03 218,-188 269.17,-167.14 281.69,-160.55 329,-132 386.31,-97.42 449.45,-49.73 480.15,-25.86"/>
<polygon fill="midnightblue" stroke="midnightblue" points="482.53,-28.44 488.25,-19.53 478.22,-22.93 482.53,-28.44"/>
</g>
<!-- Node5 -->
<g id="node5" class="node">
<title>Node5</title>
<g id="a_node5"><a xlink:href="MemoryBus_8hpp.html" target="_top" xlink:title=" ">
<polygon fill="white" stroke="black" points="51,-168.5 51,-187.5 209,-187.5 209,-168.5 51,-168.5"/>
<text text-anchor="middle" x="130" y="-175.5" font-family="Helvetica,sans-Serif" font-size="10.00">../../Memory/MemoryBus.hpp</text>
</a>
</g>
</g>
<!-- Node1&#45;&gt;Node5 -->
<g id="edge4" class="edge">
<title>Node1&#45;&gt;Node5</title>
<path fill="none" stroke="midnightblue" d="M84.92,-224.08C92.78,-216.22 104.43,-204.57 113.92,-195.08"/>
<polygon fill="midnightblue" stroke="midnightblue" points="116.65,-197.3 121.25,-187.75 111.7,-192.35 116.65,-197.3"/>
</g>
<!-- Node5&#45;&gt;Node2 -->
<g id="edge5" class="edge">
<title>Node5&#45;&gt;Node2</title>
<path fill="none" stroke="midnightblue" d="M124.35,-168.08C107.61,-141.61 58.02,-63.21 35.89,-28.21"/>
<polygon fill="midnightblue" stroke="midnightblue" points="38.72,-26.15 30.42,-19.57 32.81,-29.89 38.72,-26.15"/>
</g>
<!-- Node5&#45;&gt;Node3 -->
<g id="edge7" class="edge">
<title>Node5&#45;&gt;Node3</title>
<path fill="none" stroke="midnightblue" d="M128.33,-168.08C123.45,-141.95 109.12,-65.21 102.47,-29.58"/>
<polygon fill="midnightblue" stroke="midnightblue" points="105.88,-28.76 100.6,-19.57 99,-30.04 105.88,-28.76"/>
</g>
<!-- Node6 -->
<g id="node6" class="node">
<title>Node6</title>
<g id="a_node6"><a xlink:title=" ">
<polygon fill="white" stroke="#bfbfbf" points="374.5,-0.5 374.5,-19.5 421.5,-19.5 421.5,-0.5 374.5,-0.5"/>
<text text-anchor="middle" x="398" y="-7.5" font-family="Helvetica,sans-Serif" font-size="10.00">vector</text>
</a>
</g>
</g>
<!-- Node5&#45;&gt;Node6 -->
<g id="edge6" class="edge">
<title>Node5&#45;&gt;Node6</title>
<path fill="none" stroke="midnightblue" d="M183.88,-168.45C217.89,-161.65 262.03,-150.19 298,-132 333.55,-114.02 343.44,-107.37 368,-76 379,-61.95 387.1,-43.2 392.09,-29.46"/>
<polygon fill="midnightblue" stroke="midnightblue" points="395.51,-30.28 395.42,-19.69 388.88,-28.02 395.51,-30.28"/>
</g>
<!-- Node7 -->
<g id="node7" class="node">
<title>Node7</title>
<g id="a_node7"><a xlink:href="AMemory_8hpp.html" target="_top" xlink:title=" ">
<polygon fill="white" stroke="black" points="205.5,-112.5 205.5,-131.5 288.5,-131.5 288.5,-112.5 205.5,-112.5"/>
<text text-anchor="middle" x="247" y="-119.5" font-family="Helvetica,sans-Serif" font-size="10.00">AMemory.hpp</text>
</a>
</g>
</g>
<!-- Node5&#45;&gt;Node7 -->
<g id="edge8" class="edge">
<title>Node5&#45;&gt;Node7</title>
<path fill="none" stroke="midnightblue" d="M148.54,-168.44C167.62,-159.64 197.57,-145.81 219.44,-135.72"/>
<polygon fill="midnightblue" stroke="midnightblue" points="220.93,-138.88 228.55,-131.52 218,-132.53 220.93,-138.88"/>
</g>
<!-- Node7&#45;&gt;Node2 -->
<g id="edge9" class="edge">
<title>Node7&#45;&gt;Node2</title>
<path fill="none" stroke="midnightblue" d="M229.55,-112.38C211.23,-103.33 181.59,-88.67 156,-76 119.73,-58.03 77.83,-37.24 51.38,-24.1"/>
<polygon fill="midnightblue" stroke="midnightblue" points="52.89,-20.94 42.37,-19.63 49.77,-27.21 52.89,-20.94"/>
</g>
<!-- Node7&#45;&gt;Node3 -->
<g id="edge11" class="edge">
<title>Node7&#45;&gt;Node3</title>
<path fill="none" stroke="midnightblue" d="M235.39,-112.37C210.21,-93.65 150.33,-49.15 118.96,-25.83"/>
<polygon fill="midnightblue" stroke="midnightblue" points="120.67,-22.75 110.56,-19.59 116.5,-28.37 120.67,-22.75"/>
</g>
<!-- Node7&#45;&gt;Node4 -->
<g id="edge13" class="edge">
<title>Node7&#45;&gt;Node4</title>
<path fill="none" stroke="midnightblue" d="M272.33,-112.45C297.03,-103.91 335.5,-90.06 368,-76 405.6,-59.73 447.86,-38.14 473.95,-24.41"/>
<polygon fill="midnightblue" stroke="midnightblue" points="475.92,-27.33 483.12,-19.55 472.65,-21.14 475.92,-27.33"/>
</g>
<!-- Node7&#45;&gt;Node6 -->
<g id="edge10" class="edge">
<title>Node7&#45;&gt;Node6</title>
<path fill="none" stroke="midnightblue" d="M273.76,-112.48C294.55,-105.01 323.38,-92.73 345,-76 362.38,-62.55 377.69,-42.36 387.33,-28.06"/>
<polygon fill="midnightblue" stroke="midnightblue" points="390.29,-29.93 392.81,-19.64 384.42,-26.11 390.29,-29.93"/>
</g>
<!-- Node8 -->
<g id="node8" class="node">
<title>Node8</title>
<g id="a_node8"><a xlink:title=" ">
<polygon fill="white" stroke="#bfbfbf" points="148,-0.5 148,-19.5 192,-19.5 192,-0.5 148,-0.5"/>
<text text-anchor="middle" x="170" y="-7.5" font-family="Helvetica,sans-Serif" font-size="10.00">string</text>
</a>
</g>
</g>
<!-- Node7&#45;&gt;Node8 -->
<g id="edge12" class="edge">
<title>Node7&#45;&gt;Node8</title>
<path fill="none" stroke="midnightblue" d="M240.96,-112.37C228.25,-94.22 198.56,-51.8 181.89,-27.99"/>
<polygon fill="midnightblue" stroke="midnightblue" points="184.62,-25.78 176.01,-19.59 178.88,-29.79 184.62,-25.78"/>
</g>
<!-- Node9 -->
<g id="node9" class="node">
<title>Node9</title>
<g id="a_node9"><a xlink:href="Components_8hpp.html" target="_top" xlink:title=" ">
<polygon fill="white" stroke="black" points="210,-0.5 210,-19.5 356,-19.5 356,-0.5 210,-0.5"/>
<text text-anchor="middle" x="283" y="-7.5" font-family="Helvetica,sans-Serif" font-size="10.00">../Models/Components.hpp</text>
</a>
</g>
</g>
<!-- Node7&#45;&gt;Node9 -->
<g id="edge14" class="edge">
<title>Node7&#45;&gt;Node9</title>
<path fill="none" stroke="midnightblue" d="M279.18,-112.49C297.54,-105.8 319.02,-94.45 330,-76 340.74,-57.96 322.54,-38.63 305.75,-25.79"/>
<polygon fill="midnightblue" stroke="midnightblue" points="307.43,-22.68 297.27,-19.7 303.35,-28.37 307.43,-22.68"/>
</g>
<!-- Node10 -->
<g id="node10" class="node">
<title>Node10</title>
<g id="a_node10"><a xlink:href="IMemory_8hpp.html" target="_top" xlink:title=" ">
<polygon fill="white" stroke="black" points="241,-56.5 241,-75.5 321,-75.5 321,-56.5 241,-56.5"/>
<text text-anchor="middle" x="281" y="-63.5" font-family="Helvetica,sans-Serif" font-size="10.00">IMemory.hpp</text>
</a>
</g>
</g>
<!-- Node7&#45;&gt;Node10 -->
<g id="edge15" class="edge">
<title>Node7&#45;&gt;Node10</title>
<path fill="none" stroke="midnightblue" d="M252.61,-112.08C257.37,-104.53 264.32,-93.49 270.15,-84.23"/>
<polygon fill="midnightblue" stroke="midnightblue" points="273.12,-86.08 275.49,-75.75 267.2,-82.35 273.12,-86.08"/>
</g>
<!-- Node10&#45;&gt;Node2 -->
<g id="edge16" class="edge">
<title>Node10&#45;&gt;Node2</title>
<path fill="none" stroke="midnightblue" d="M240.74,-57.31C196.54,-48.74 123.54,-34.21 61,-20 60.67,-19.93 60.34,-19.85 60.01,-19.77"/>
<polygon fill="midnightblue" stroke="midnightblue" points="60.68,-16.34 50.14,-17.43 59.07,-23.15 60.68,-16.34"/>
</g>
<!-- Node10&#45;&gt;Node3 -->
<g id="edge18" class="edge">
<title>Node10&#45;&gt;Node3</title>
<path fill="none" stroke="midnightblue" d="M252.16,-56.44C221.14,-47.24 171.67,-32.56 137.38,-22.39"/>
<polygon fill="midnightblue" stroke="midnightblue" points="138.29,-19.01 127.7,-19.52 136.29,-25.72 138.29,-19.01"/>
</g>
<!-- Node10&#45;&gt;Node4 -->
<g id="edge20" class="edge">
<title>Node10&#45;&gt;Node4</title>
<path fill="none" stroke="midnightblue" d="M315.54,-56.44C353.25,-47.1 413.74,-32.12 454.86,-21.93"/>
<polygon fill="midnightblue" stroke="midnightblue" points="455.75,-25.32 464.62,-19.52 454.07,-18.52 455.75,-25.32"/>
</g>
<!-- Node10&#45;&gt;Node6 -->
<g id="edge17" class="edge">
<title>Node10&#45;&gt;Node6</title>
<path fill="none" stroke="midnightblue" d="M299.54,-56.44C318.62,-47.64 348.57,-33.81 370.44,-23.72"/>
<polygon fill="midnightblue" stroke="midnightblue" points="371.93,-26.88 379.55,-19.52 369,-20.53 371.93,-26.88"/>
</g>
<!-- Node10&#45;&gt;Node8 -->
<g id="edge19" class="edge">
<title>Node10&#45;&gt;Node8</title>
<path fill="none" stroke="midnightblue" d="M263.17,-56.32C245.28,-47.62 217.52,-34.12 196.95,-24.11"/>
<polygon fill="midnightblue" stroke="midnightblue" points="198.31,-20.88 187.79,-19.65 195.25,-27.18 198.31,-20.88"/>
</g>
<!-- Node10&#45;&gt;Node9 -->
<g id="edge21" class="edge">
<title>Node10&#45;&gt;Node9</title>
<path fill="none" stroke="midnightblue" d="M281.33,-56.08C281.59,-49.01 281.97,-38.86 282.3,-29.99"/>
<polygon fill="midnightblue" stroke="midnightblue" points="285.8,-29.87 282.68,-19.75 278.81,-29.61 285.8,-29.87"/>
</g>
</g>
</svg>
