<?xml version="1.0" encoding="UTF-8" standalone="no"?>
<!DOCTYPE svg PUBLIC "-//W3C//DTD SVG 1.1//EN"
 "http://www.w3.org/Graphics/SVG/1.1/DTD/svg11.dtd">
<!-- Generated by graphviz version 2.43.0 (0)
 -->
<!-- Title: sources/CPU/DMA/DMA.cpp Pages: 1 -->
<svg width="906pt" height="319pt"
 viewBox="0.00 0.00 905.50 319.00" xmlns="http://www.w3.org/2000/svg" xmlns:xlink="http://www.w3.org/1999/xlink">
<g id="graph0" class="graph" transform="scale(1 1) rotate(0) translate(4 315)">
<title>sources/CPU/DMA/DMA.cpp</title>
<polygon fill="white" stroke="transparent" points="-4,4 -4,-315 901.5,-315 901.5,4 -4,4"/>
<!-- Node1 -->
<g id="node1" class="node">
<title>Node1</title>
<g id="a_node1"><a xlink:title=" ">
<polygon fill="#bfbfbf" stroke="black" points="126,-291.5 126,-310.5 276,-310.5 276,-291.5 126,-291.5"/>
<text text-anchor="middle" x="201" y="-298.5" font-family="Helvetica,sans-Serif" font-size="10.00">sources/CPU/DMA/DMA.cpp</text>
</a>
</g>
</g>
<!-- Node2 -->
<g id="node2" class="node">
<title>Node2</title>
<g id="a_node2"><a xlink:title=" ">
<polygon fill="white" stroke="#bfbfbf" points="92,-230 92,-249 152,-249 152,-230 92,-230"/>
<text text-anchor="middle" x="122" y="-237" font-family="Helvetica,sans-Serif" font-size="10.00">iostream</text>
</a>
</g>
</g>
<!-- Node1&#45;&gt;Node2 -->
<g id="edge1" class="edge">
<title>Node1&#45;&gt;Node2</title>
<path fill="none" stroke="midnightblue" d="M189.68,-291.48C177.13,-282.02 156.65,-266.6 141.5,-255.19"/>
<polygon fill="midnightblue" stroke="midnightblue" points="143.39,-252.23 133.3,-249.01 139.18,-257.82 143.39,-252.23"/>
</g>
<!-- Node3 -->
<g id="node3" class="node">
<title>Node3</title>
<g id="a_node3"><a xlink:href="DMA_8hpp.html" target="_top" xlink:title=" ">
<polygon fill="white" stroke="black" points="170.5,-230 170.5,-249 231.5,-249 231.5,-230 170.5,-230"/>
<text text-anchor="middle" x="201" y="-237" font-family="Helvetica,sans-Serif" font-size="10.00">DMA.hpp</text>
</a>
</g>
</g>
<!-- Node1&#45;&gt;Node3 -->
<g id="edge2" class="edge">
<title>Node1&#45;&gt;Node3</title>
<path fill="none" stroke="midnightblue" d="M201,-291.48C201,-283.08 201,-269.98 201,-259.16"/>
<polygon fill="midnightblue" stroke="midnightblue" points="204.5,-259.01 201,-249.01 197.5,-259.01 204.5,-259.01"/>
</g>
<!-- Node13 -->
<g id="node13" class="node">
<title>Node13</title>
<g id="a_node13"><a xlink:href="InvalidAddress_8hpp.html" target="_top" xlink:title=" ">
<polygon fill="white" stroke="black" points="556,-224.5 556,-254.5 680,-254.5 680,-224.5 556,-224.5"/>
<text text-anchor="start" x="564" y="-242.5" font-family="Helvetica,sans-Serif" font-size="10.00">../../Exceptions/Invalid</text>
<text text-anchor="middle" x="618" y="-231.5" font-family="Helvetica,sans-Serif" font-size="10.00">Address.hpp</text>
</a>
</g>
</g>
<!-- Node1&#45;&gt;Node13 -->
<g id="edge24" class="edge">
<title>Node1&#45;&gt;Node13</title>
<path fill="none" stroke="midnightblue" d="M260.75,-291.48C336.01,-280.74 465.24,-262.3 545.91,-250.79"/>
<polygon fill="midnightblue" stroke="midnightblue" points="546.58,-254.23 555.98,-249.35 545.59,-247.3 546.58,-254.23"/>
</g>
<!-- Node4 -->
<g id="node4" class="node">
<title>Node4</title>
<g id="a_node4"><a xlink:title=" ">
<polygon fill="white" stroke="#bfbfbf" points="78,-0.5 78,-19.5 128,-19.5 128,-0.5 78,-0.5"/>
<text text-anchor="middle" x="103" y="-7.5" font-family="Helvetica,sans-Serif" font-size="10.00">cstdint</text>
</a>
</g>
</g>
<!-- Node3&#45;&gt;Node4 -->
<g id="edge3" class="edge">
<title>Node3&#45;&gt;Node4</title>
<path fill="none" stroke="midnightblue" d="M181.36,-229.92C157.95,-219.26 120.96,-200.89 113,-188 82.06,-137.88 91.79,-63.79 98.67,-29.57"/>
<polygon fill="midnightblue" stroke="midnightblue" points="102.14,-30.1 100.84,-19.58 95.3,-28.61 102.14,-30.1"/>
</g>
<!-- Node5 -->
<g id="node5" class="node">
<title>Node5</title>
<g id="a_node5"><a xlink:title=" ">
<polygon fill="white" stroke="#bfbfbf" points="0,-0.5 0,-19.5 58,-19.5 58,-0.5 0,-0.5"/>
<text text-anchor="middle" x="29" y="-7.5" font-family="Helvetica,sans-Serif" font-size="10.00">memory</text>
</a>
</g>
</g>
<!-- Node3&#45;&gt;Node5 -->
<g id="edge4" class="edge">
<title>Node3&#45;&gt;Node5</title>
<path fill="none" stroke="midnightblue" d="M179.66,-229.95C153.57,-219.15 111.49,-200.47 100,-188 56.87,-141.18 38.48,-64.85 31.99,-29.74"/>
<polygon fill="midnightblue" stroke="midnightblue" points="35.38,-28.78 30.23,-19.52 28.48,-29.97 35.38,-28.78"/>
</g>
<!-- Node6 -->
<g id="node6" class="node">
<title>Node6</title>
<g id="a_node6"><a xlink:href="Int24_8hpp.html" target="_top" xlink:title=" ">
<polygon fill="white" stroke="black" points="375.5,-0.5 375.5,-19.5 494.5,-19.5 494.5,-0.5 375.5,-0.5"/>
<text text-anchor="middle" x="435" y="-7.5" font-family="Helvetica,sans-Serif" font-size="10.00">../../Models/Int24.hpp</text>
</a>
</g>
</g>
<!-- Node3&#45;&gt;Node6 -->
<g id="edge5" class="edge">
<title>Node3&#45;&gt;Node6</title>
<path fill="none" stroke="midnightblue" d="M220.46,-229.86C239.2,-220.98 267.73,-205.95 289,-188 348.01,-138.19 401.37,-62.32 423.8,-28.42"/>
<polygon fill="midnightblue" stroke="midnightblue" points="426.98,-29.96 429.51,-19.67 421.12,-26.13 426.98,-29.96"/>
</g>
<!-- Node7 -->
<g id="node7" class="node">
<title>Node7</title>
<g id="a_node7"><a xlink:href="MemoryBus_8hpp.html" target="_top" xlink:title=" ">
<polygon fill="white" stroke="black" points="122,-168.5 122,-187.5 280,-187.5 280,-168.5 122,-168.5"/>
<text text-anchor="middle" x="201" y="-175.5" font-family="Helvetica,sans-Serif" font-size="10.00">../../Memory/MemoryBus.hpp</text>
</a>
</g>
</g>
<!-- Node3&#45;&gt;Node7 -->
<g id="edge6" class="edge">
<title>Node3&#45;&gt;Node7</title>
<path fill="none" stroke="midnightblue" d="M201,-229.98C201,-221.58 201,-208.48 201,-197.66"/>
<polygon fill="midnightblue" stroke="midnightblue" points="204.5,-197.51 201,-187.51 197.5,-197.51 204.5,-197.51"/>
</g>
<!-- Node7&#45;&gt;Node4 -->
<g id="edge7" class="edge">
<title>Node7&#45;&gt;Node4</title>
<path fill="none" stroke="midnightblue" d="M195.73,-168.08C180.1,-141.61 133.82,-63.21 113.16,-28.21"/>
<polygon fill="midnightblue" stroke="midnightblue" points="116.16,-26.4 108.06,-19.57 110.13,-29.96 116.16,-26.4"/>
</g>
<!-- Node7&#45;&gt;Node5 -->
<g id="edge9" class="edge">
<title>Node7&#45;&gt;Node5</title>
<path fill="none" stroke="midnightblue" d="M191.75,-168.08C163.98,-141.27 81,-61.19 45.46,-26.89"/>
<polygon fill="midnightblue" stroke="midnightblue" points="47.5,-23.99 37.88,-19.57 42.64,-29.03 47.5,-23.99"/>
</g>
<!-- Node8 -->
<g id="node8" class="node">
<title>Node8</title>
<g id="a_node8"><a xlink:title=" ">
<polygon fill="white" stroke="#bfbfbf" points="310.5,-0.5 310.5,-19.5 357.5,-19.5 357.5,-0.5 310.5,-0.5"/>
<text text-anchor="middle" x="334" y="-7.5" font-family="Helvetica,sans-Serif" font-size="10.00">vector</text>
</a>
</g>
</g>
<!-- Node7&#45;&gt;Node8 -->
<g id="edge8" class="edge">
<title>Node7&#45;&gt;Node8</title>
<path fill="none" stroke="midnightblue" d="M231.93,-168.44C254.31,-161.21 284.45,-149.25 307,-132 332.14,-112.77 340.65,-105.91 351,-76 356.47,-60.19 350.47,-41.69 344.14,-28.48"/>
<polygon fill="midnightblue" stroke="midnightblue" points="347.19,-26.75 339.42,-19.54 341,-30.02 347.19,-26.75"/>
</g>
<!-- Node9 -->
<g id="node9" class="node">
<title>Node9</title>
<g id="a_node9"><a xlink:href="AMemory_8hpp.html" target="_top" xlink:title=" ">
<polygon fill="white" stroke="black" points="215.5,-112.5 215.5,-131.5 298.5,-131.5 298.5,-112.5 215.5,-112.5"/>
<text text-anchor="middle" x="257" y="-119.5" font-family="Helvetica,sans-Serif" font-size="10.00">AMemory.hpp</text>
</a>
</g>
</g>
<!-- Node7&#45;&gt;Node9 -->
<g id="edge10" class="edge">
<title>Node7&#45;&gt;Node9</title>
<path fill="none" stroke="midnightblue" d="M210,-168.32C218.19,-160.42 230.51,-148.55 240.47,-138.94"/>
<polygon fill="midnightblue" stroke="midnightblue" points="243.07,-141.29 247.84,-131.83 238.21,-136.26 243.07,-141.29"/>
</g>
<!-- Node9&#45;&gt;Node4 -->
<g id="edge11" class="edge">
<title>Node9&#45;&gt;Node4</title>
<path fill="none" stroke="midnightblue" d="M244.92,-112.37C218.6,-93.57 155.88,-48.77 123.35,-25.53"/>
<polygon fill="midnightblue" stroke="midnightblue" points="125.2,-22.56 115.03,-19.59 121.13,-28.25 125.2,-22.56"/>
</g>
<!-- Node9&#45;&gt;Node5 -->
<g id="edge13" class="edge">
<title>Node9&#45;&gt;Node5</title>
<path fill="none" stroke="midnightblue" d="M238.97,-112.4C220.03,-103.36 189.4,-88.72 163,-76 125.87,-58.11 83.02,-37.29 55.97,-24.13"/>
<polygon fill="midnightblue" stroke="midnightblue" points="57.28,-20.88 46.76,-19.65 54.22,-27.17 57.28,-20.88"/>
</g>
<!-- Node9&#45;&gt;Node6 -->
<g id="edge15" class="edge">
<title>Node9&#45;&gt;Node6</title>
<path fill="none" stroke="midnightblue" d="M278.2,-112.39C297.7,-104.11 327.13,-90.72 351,-76 375.46,-60.92 401.27,-40.11 417.72,-26.14"/>
<polygon fill="midnightblue" stroke="midnightblue" points="420.11,-28.7 425.41,-19.52 415.55,-23.39 420.11,-28.7"/>
</g>
<!-- Node9&#45;&gt;Node8 -->
<g id="edge12" class="edge">
<title>Node9&#45;&gt;Node8</title>
<path fill="none" stroke="midnightblue" d="M285.37,-112.49C302.75,-105.65 323.6,-94.13 334,-76 341.99,-62.08 341.1,-43.57 338.74,-29.87"/>
<polygon fill="midnightblue" stroke="midnightblue" points="342.07,-28.74 336.56,-19.69 335.23,-30.2 342.07,-28.74"/>
</g>
<!-- Node10 -->
<g id="node10" class="node">
<title>Node10</title>
<g id="a_node10"><a xlink:title=" ">
<polygon fill="white" stroke="#bfbfbf" points="513,-0.5 513,-19.5 557,-19.5 557,-0.5 513,-0.5"/>
<text text-anchor="middle" x="535" y="-7.5" font-family="Helvetica,sans-Serif" font-size="10.00">string</text>
</a>
</g>
</g>
<!-- Node9&#45;&gt;Node10 -->
<g id="edge14" class="edge">
<title>Node9&#45;&gt;Node10</title>
<path fill="none" stroke="midnightblue" d="M281.63,-112.37C306.55,-103.54 346.13,-89.29 380,-76 424.37,-58.59 475.21,-36.94 506.21,-23.54"/>
<polygon fill="midnightblue" stroke="midnightblue" points="507.76,-26.69 515.54,-19.5 504.98,-20.26 507.76,-26.69"/>
</g>
<!-- Node11 -->
<g id="node11" class="node">
<title>Node11</title>
<g id="a_node11"><a xlink:href="Components_8hpp.html" target="_top" xlink:title=" ">
<polygon fill="white" stroke="black" points="146,-0.5 146,-19.5 292,-19.5 292,-0.5 146,-0.5"/>
<text text-anchor="middle" x="219" y="-7.5" font-family="Helvetica,sans-Serif" font-size="10.00">../Models/Components.hpp</text>
</a>
</g>
</g>
<!-- Node9&#45;&gt;Node11 -->
<g id="edge16" class="edge">
<title>Node9&#45;&gt;Node11</title>
<path fill="none" stroke="midnightblue" d="M252.33,-112.24C247.71,-103.31 240.68,-88.98 236,-76 230.49,-60.72 225.94,-42.84 222.95,-29.7"/>
<polygon fill="midnightblue" stroke="midnightblue" points="226.28,-28.58 220.72,-19.56 219.45,-30.08 226.28,-28.58"/>
</g>
<!-- Node12 -->
<g id="node12" class="node">
<title>Node12</title>
<g id="a_node12"><a xlink:href="IMemory_8hpp.html" target="_top" xlink:title=" ">
<polygon fill="white" stroke="black" points="245,-56.5 245,-75.5 325,-75.5 325,-56.5 245,-56.5"/>
<text text-anchor="middle" x="285" y="-63.5" font-family="Helvetica,sans-Serif" font-size="10.00">IMemory.hpp</text>
</a>
</g>
</g>
<!-- Node9&#45;&gt;Node12 -->
<g id="edge17" class="edge">
<title>Node9&#45;&gt;Node12</title>
<path fill="none" stroke="midnightblue" d="M261.62,-112.08C265.46,-104.69 271.02,-93.95 275.76,-84.81"/>
<polygon fill="midnightblue" stroke="midnightblue" points="278.97,-86.24 280.46,-75.75 272.75,-83.02 278.97,-86.24"/>
</g>
<!-- Node12&#45;&gt;Node4 -->
<g id="edge18" class="edge">
<title>Node12&#45;&gt;Node4</title>
<path fill="none" stroke="midnightblue" d="M256.16,-56.44C224.05,-46.92 172.16,-31.52 137.81,-21.33"/>
<polygon fill="midnightblue" stroke="midnightblue" points="138.77,-17.96 128.19,-18.47 136.78,-24.67 138.77,-17.96"/>
</g>
<!-- Node12&#45;&gt;Node5 -->
<g id="edge20" class="edge">
<title>Node12&#45;&gt;Node5</title>
<path fill="none" stroke="midnightblue" d="M244.75,-56.81C201.34,-47.94 130.21,-33.26 69,-20 68.78,-19.95 68.56,-19.91 68.35,-19.86"/>
<polygon fill="midnightblue" stroke="midnightblue" points="68.78,-16.37 58.26,-17.64 67.28,-23.21 68.78,-16.37"/>
</g>
<!-- Node12&#45;&gt;Node6 -->
<g id="edge22" class="edge">
<title>Node12&#45;&gt;Node6</title>
<path fill="none" stroke="midnightblue" d="M308.77,-56.44C333.89,-47.4 373.71,-33.06 401.9,-22.92"/>
<polygon fill="midnightblue" stroke="midnightblue" points="403.12,-26.2 411.34,-19.52 400.75,-19.61 403.12,-26.2"/>
</g>
<!-- Node12&#45;&gt;Node8 -->
<g id="edge19" class="edge">
<title>Node12&#45;&gt;Node8</title>
<path fill="none" stroke="midnightblue" d="M293.09,-56.08C300.16,-48.3 310.59,-36.8 319.15,-27.37"/>
<polygon fill="midnightblue" stroke="midnightblue" points="321.93,-29.51 326.06,-19.75 316.75,-24.8 321.93,-29.51"/>
</g>
<!-- Node12&#45;&gt;Node10 -->
<g id="edge21" class="edge">
<title>Node12&#45;&gt;Node10</title>
<path fill="none" stroke="midnightblue" d="M325.18,-57.74C367.2,-49.93 435.26,-36.66 502.76,-20.16"/>
<polygon fill="midnightblue" stroke="midnightblue" points="503.84,-23.5 512.71,-17.7 502.16,-16.7 503.84,-23.5"/>
</g>
<!-- Node12&#45;&gt;Node11 -->
<g id="edge23" class="edge">
<title>Node12&#45;&gt;Node11</title>
<path fill="none" stroke="midnightblue" d="M274.4,-56.32C264.54,-48.26 249.65,-36.08 237.78,-26.37"/>
<polygon fill="midnightblue" stroke="midnightblue" points="239.75,-23.46 229.8,-19.83 235.32,-28.88 239.75,-23.46"/>
</g>
<!-- Node13&#45;&gt;Node10 -->
<g id="edge26" class="edge">
<title>Node13&#45;&gt;Node10</title>
<path fill="none" stroke="midnightblue" d="M596.66,-224.43C584.81,-215.44 570.91,-202.74 563,-188 535.11,-136.01 533.17,-63.92 534.05,-30.03"/>
<polygon fill="midnightblue" stroke="midnightblue" points="537.55,-29.86 534.43,-19.74 530.56,-29.6 537.55,-29.86"/>
</g>
<!-- Node14 -->
<g id="node14" class="node">
<title>Node14</title>
<g id="a_node14"><a xlink:title=" ">
<polygon fill="white" stroke="#bfbfbf" points="832.5,-168.5 832.5,-187.5 897.5,-187.5 897.5,-168.5 832.5,-168.5"/>
<text text-anchor="middle" x="865" y="-175.5" font-family="Helvetica,sans-Serif" font-size="10.00">exception</text>
</a>
</g>
</g>
<!-- Node13&#45;&gt;Node14 -->
<g id="edge25" class="edge">
<title>Node13&#45;&gt;Node14</title>
<path fill="none" stroke="midnightblue" d="M676.22,-224.47C721.06,-213.67 782,-198.99 822.37,-189.27"/>
<polygon fill="midnightblue" stroke="midnightblue" points="823.27,-192.65 832.17,-186.91 821.63,-185.85 823.27,-192.65"/>
</g>
<!-- Node15 -->
<g id="node15" class="node">
<title>Node15</title>
<g id="a_node15"><a xlink:title=" ">
<polygon fill="white" stroke="#bfbfbf" points="571.5,-168.5 571.5,-187.5 602.5,-187.5 602.5,-168.5 571.5,-168.5"/>
<text text-anchor="middle" x="587" y="-175.5" font-family="Helvetica,sans-Serif" font-size="10.00">ios</text>
</a>
</g>
</g>
<!-- Node13&#45;&gt;Node15 -->
<g id="edge27" class="edge">
<title>Node13&#45;&gt;Node15</title>
<path fill="none" stroke="midnightblue" d="M610.65,-224.4C606.33,-216.11 600.83,-205.55 596.23,-196.71"/>
<polygon fill="midnightblue" stroke="midnightblue" points="599.24,-194.91 591.51,-187.66 593.03,-198.14 599.24,-194.91"/>
</g>
<!-- Node16 -->
<g id="node16" class="node">
<title>Node16</title>
<g id="a_node16"><a xlink:title=" ">
<polygon fill="white" stroke="#bfbfbf" points="621,-168.5 621,-187.5 677,-187.5 677,-168.5 621,-168.5"/>
<text text-anchor="middle" x="649" y="-175.5" font-family="Helvetica,sans-Serif" font-size="10.00">sstream</text>
</a>
</g>
</g>
<!-- Node13&#45;&gt;Node16 -->
<g id="edge28" class="edge">
<title>Node13&#45;&gt;Node16</title>
<path fill="none" stroke="midnightblue" d="M625.35,-224.4C629.67,-216.11 635.17,-205.55 639.77,-196.71"/>
<polygon fill="midnightblue" stroke="midnightblue" points="642.97,-198.14 644.49,-187.66 636.76,-194.91 642.97,-198.14"/>
</g>
<!-- Node17 -->
<g id="node17" class="node">
<title>Node17</title>
<g id="a_node17"><a xlink:href="DebuggableError_8hpp.html" target="_top" xlink:title=" ">
<polygon fill="white" stroke="black" points="695.5,-168.5 695.5,-187.5 814.5,-187.5 814.5,-168.5 695.5,-168.5"/>
<text text-anchor="middle" x="755" y="-175.5" font-family="Helvetica,sans-Serif" font-size="10.00">DebuggableError.hpp</text>
</a>
</g>
</g>
<!-- Node13&#45;&gt;Node17 -->
<g id="edge29" class="edge">
<title>Node13&#45;&gt;Node17</title>
<path fill="none" stroke="midnightblue" d="M650.47,-224.4C673.35,-214.46 703.73,-201.26 725.84,-191.66"/>
<polygon fill="midnightblue" stroke="midnightblue" points="727.29,-194.85 735.07,-187.66 724.5,-188.43 727.29,-194.85"/>
</g>
<!-- Node18 -->
<g id="node18" class="node">
<title>Node18</title>
<g id="a_node18"><a xlink:title=" ">
<polygon fill="white" stroke="#bfbfbf" points="707.5,-112.5 707.5,-131.5 802.5,-131.5 802.5,-112.5 707.5,-112.5"/>
<text text-anchor="middle" x="755" y="-119.5" font-family="Helvetica,sans-Serif" font-size="10.00">bits/exception.h</text>
</a>
</g>
</g>
<!-- Node17&#45;&gt;Node18 -->
<g id="edge30" class="edge">
<title>Node17&#45;&gt;Node18</title>
<path fill="none" stroke="midnightblue" d="M755,-168.08C755,-161.01 755,-150.86 755,-141.99"/>
<polygon fill="midnightblue" stroke="midnightblue" points="758.5,-141.75 755,-131.75 751.5,-141.75 758.5,-141.75"/>
</g>
</g>
</svg>
