<?xml version="1.0" encoding="UTF-8" standalone="no"?>
<!DOCTYPE svg PUBLIC "-//W3C//DTD SVG 1.1//EN"
 "http://www.w3.org/Graphics/SVG/1.1/DTD/svg11.dtd">
<!-- Generated by graphviz version 2.43.0 (0)
 -->
<!-- Title: sources/APU/DSP/DSP.cpp Pages: 1 -->
<svg width="1024pt" height="319pt"
 viewBox="0.00 0.00 1023.50 319.00" xmlns="http://www.w3.org/2000/svg" xmlns:xlink="http://www.w3.org/1999/xlink">
<g id="graph0" class="graph" transform="scale(1 1) rotate(0) translate(4 315)">
<title>sources/APU/DSP/DSP.cpp</title>
<polygon fill="white" stroke="transparent" points="-4,4 -4,-315 1019.5,-315 1019.5,4 -4,4"/>
<!-- Node1 -->
<g id="node1" class="node">
<title>Node1</title>
<g id="a_node1"><a xlink:title=" ">
<polygon fill="#bfbfbf" stroke="black" points="226.5,-291.5 226.5,-310.5 367.5,-310.5 367.5,-291.5 226.5,-291.5"/>
<text text-anchor="middle" x="297" y="-298.5" font-family="Helvetica,sans-Serif" font-size="10.00">sources/APU/DSP/DSP.cpp</text>
</a>
</g>
</g>
<!-- Node2 -->
<g id="node2" class="node">
<title>Node2</title>
<g id="a_node2"><a xlink:href="DSP_8hpp.html" target="_top" xlink:title=" ">
<polygon fill="white" stroke="black" points="119,-168.5 119,-187.5 175,-187.5 175,-168.5 119,-168.5"/>
<text text-anchor="middle" x="147" y="-175.5" font-family="Helvetica,sans-Serif" font-size="10.00">DSP.hpp</text>
</a>
</g>
</g>
<!-- Node1&#45;&gt;Node2 -->
<g id="edge1" class="edge">
<title>Node1&#45;&gt;Node2</title>
<path fill="none" stroke="midnightblue" d="M286.21,-291.3C260.91,-270.89 197.52,-219.75 165.75,-194.13"/>
<polygon fill="midnightblue" stroke="midnightblue" points="167.67,-191.18 157.69,-187.62 163.28,-196.63 167.67,-191.18"/>
</g>
<!-- Node12 -->
<g id="node12" class="node">
<title>Node12</title>
<g id="a_node12"><a xlink:href="APU_8hpp.html" target="_top" xlink:title=" ">
<polygon fill="white" stroke="black" points="263.5,-230 263.5,-249 330.5,-249 330.5,-230 263.5,-230"/>
<text text-anchor="middle" x="297" y="-237" font-family="Helvetica,sans-Serif" font-size="10.00">../APU.hpp</text>
</a>
</g>
</g>
<!-- Node1&#45;&gt;Node12 -->
<g id="edge18" class="edge">
<title>Node1&#45;&gt;Node12</title>
<path fill="none" stroke="midnightblue" d="M297,-291.48C297,-283.08 297,-269.98 297,-259.16"/>
<polygon fill="midnightblue" stroke="midnightblue" points="300.5,-259.01 297,-249.01 293.5,-259.01 300.5,-259.01"/>
</g>
<!-- Node18 -->
<g id="node18" class="node">
<title>Node18</title>
<g id="a_node18"><a xlink:href="InvalidAddress_8hpp.html" target="_top" xlink:title=" ">
<polygon fill="white" stroke="black" points="767,-224.5 767,-254.5 891,-254.5 891,-224.5 767,-224.5"/>
<text text-anchor="start" x="775" y="-242.5" font-family="Helvetica,sans-Serif" font-size="10.00">../../Exceptions/Invalid</text>
<text text-anchor="middle" x="829" y="-231.5" font-family="Helvetica,sans-Serif" font-size="10.00">Address.hpp</text>
</a>
</g>
</g>
<!-- Node1&#45;&gt;Node18 -->
<g id="edge31" class="edge">
<title>Node1&#45;&gt;Node18</title>
<path fill="none" stroke="midnightblue" d="M367.65,-292.1C468.89,-280.78 654.28,-260.04 756.53,-248.61"/>
<polygon fill="midnightblue" stroke="midnightblue" points="757.21,-252.05 766.76,-247.46 756.43,-245.09 757.21,-252.05"/>
</g>
<!-- Node3 -->
<g id="node3" class="node">
<title>Node3</title>
<g id="a_node3"><a xlink:title=" ">
<polygon fill="white" stroke="#bfbfbf" points="0,-0.5 0,-19.5 50,-19.5 50,-0.5 0,-0.5"/>
<text text-anchor="middle" x="25" y="-7.5" font-family="Helvetica,sans-Serif" font-size="10.00">cstdint</text>
</a>
</g>
</g>
<!-- Node2&#45;&gt;Node3 -->
<g id="edge2" class="edge">
<title>Node2&#45;&gt;Node3</title>
<path fill="none" stroke="midnightblue" d="M125.92,-168.41C109.8,-160.9 88.03,-148.6 74,-132 48.01,-101.24 34.49,-54.88 28.65,-29.4"/>
<polygon fill="midnightblue" stroke="midnightblue" points="32.07,-28.62 26.55,-19.58 25.22,-30.09 32.07,-28.62"/>
</g>
<!-- Node4 -->
<g id="node4" class="node">
<title>Node4</title>
<g id="a_node4"><a xlink:title=" ">
<polygon fill="white" stroke="#bfbfbf" points="83,-112.5 83,-131.5 125,-131.5 125,-112.5 83,-112.5"/>
<text text-anchor="middle" x="104" y="-119.5" font-family="Helvetica,sans-Serif" font-size="10.00">array</text>
</a>
</g>
</g>
<!-- Node2&#45;&gt;Node4 -->
<g id="edge3" class="edge">
<title>Node2&#45;&gt;Node4</title>
<path fill="none" stroke="midnightblue" d="M139.9,-168.08C133.76,-160.38 124.73,-149.03 117.26,-139.65"/>
<polygon fill="midnightblue" stroke="midnightblue" points="119.94,-137.39 110.97,-131.75 114.46,-141.75 119.94,-137.39"/>
</g>
<!-- Node5 -->
<g id="node5" class="node">
<title>Node5</title>
<g id="a_node5"><a xlink:href="AMemory_8hpp.html" target="_top" xlink:title=" ">
<polygon fill="white" stroke="black" points="143.5,-112.5 143.5,-131.5 288.5,-131.5 288.5,-112.5 143.5,-112.5"/>
<text text-anchor="middle" x="216" y="-119.5" font-family="Helvetica,sans-Serif" font-size="10.00">../../Memory/AMemory.hpp</text>
</a>
</g>
</g>
<!-- Node2&#45;&gt;Node5 -->
<g id="edge4" class="edge">
<title>Node2&#45;&gt;Node5</title>
<path fill="none" stroke="midnightblue" d="M158.09,-168.32C168.49,-160.18 184.26,-147.84 196.72,-138.09"/>
<polygon fill="midnightblue" stroke="midnightblue" points="198.99,-140.75 204.71,-131.83 194.68,-135.24 198.99,-140.75"/>
</g>
<!-- Node5&#45;&gt;Node3 -->
<g id="edge5" class="edge">
<title>Node5&#45;&gt;Node3</title>
<path fill="none" stroke="midnightblue" d="M201.01,-112.37C167.96,-93.33 88.58,-47.62 48.7,-24.65"/>
<polygon fill="midnightblue" stroke="midnightblue" points="50.33,-21.55 39.92,-19.59 46.84,-27.62 50.33,-21.55"/>
</g>
<!-- Node6 -->
<g id="node6" class="node">
<title>Node6</title>
<g id="a_node6"><a xlink:title=" ">
<polygon fill="white" stroke="#bfbfbf" points="68.5,-0.5 68.5,-19.5 115.5,-19.5 115.5,-0.5 68.5,-0.5"/>
<text text-anchor="middle" x="92" y="-7.5" font-family="Helvetica,sans-Serif" font-size="10.00">vector</text>
</a>
</g>
</g>
<!-- Node5&#45;&gt;Node6 -->
<g id="edge6" class="edge">
<title>Node5&#45;&gt;Node6</title>
<path fill="none" stroke="midnightblue" d="M206.27,-112.37C185.35,-93.81 135.87,-49.91 109.4,-26.44"/>
<polygon fill="midnightblue" stroke="midnightblue" points="111.49,-23.61 101.68,-19.59 106.84,-28.85 111.49,-23.61"/>
</g>
<!-- Node7 -->
<g id="node7" class="node">
<title>Node7</title>
<g id="a_node7"><a xlink:title=" ">
<polygon fill="white" stroke="#bfbfbf" points="426,-0.5 426,-19.5 484,-19.5 484,-0.5 426,-0.5"/>
<text text-anchor="middle" x="455" y="-7.5" font-family="Helvetica,sans-Serif" font-size="10.00">memory</text>
</a>
</g>
</g>
<!-- Node5&#45;&gt;Node7 -->
<g id="edge7" class="edge">
<title>Node5&#45;&gt;Node7</title>
<path fill="none" stroke="midnightblue" d="M241.01,-112.38C264.96,-103.9 301.92,-90.19 333,-76 368.08,-59.98 407.18,-38.47 431.44,-24.66"/>
<polygon fill="midnightblue" stroke="midnightblue" points="433.33,-27.61 440.27,-19.61 429.85,-21.54 433.33,-27.61"/>
</g>
<!-- Node8 -->
<g id="node8" class="node">
<title>Node8</title>
<g id="a_node8"><a xlink:title=" ">
<polygon fill="white" stroke="#bfbfbf" points="547,-0.5 547,-19.5 591,-19.5 591,-0.5 547,-0.5"/>
<text text-anchor="middle" x="569" y="-7.5" font-family="Helvetica,sans-Serif" font-size="10.00">string</text>
</a>
</g>
</g>
<!-- Node5&#45;&gt;Node8 -->
<g id="edge8" class="edge">
<title>Node5&#45;&gt;Node8</title>
<path fill="none" stroke="midnightblue" d="M244.88,-112.42C274.93,-103.46 323.32,-88.93 365,-76 426.07,-57.05 497.18,-34.22 537.26,-21.28"/>
<polygon fill="midnightblue" stroke="midnightblue" points="538.56,-24.54 547,-18.13 536.41,-17.88 538.56,-24.54"/>
</g>
<!-- Node9 -->
<g id="node9" class="node">
<title>Node9</title>
<g id="a_node9"><a xlink:href="Int24_8hpp.html" target="_top" xlink:title=" ">
<polygon fill="white" stroke="black" points="134,-0.5 134,-19.5 244,-19.5 244,-0.5 134,-0.5"/>
<text text-anchor="middle" x="189" y="-7.5" font-family="Helvetica,sans-Serif" font-size="10.00">../Models/Int24.hpp</text>
</a>
</g>
</g>
<!-- Node5&#45;&gt;Node9 -->
<g id="edge9" class="edge">
<title>Node5&#45;&gt;Node9</title>
<path fill="none" stroke="midnightblue" d="M213.05,-112.45C210.01,-103.45 205.27,-88.84 202,-76 198.09,-60.65 194.62,-43.01 192.26,-29.98"/>
<polygon fill="midnightblue" stroke="midnightblue" points="195.66,-29.14 190.48,-19.9 188.77,-30.35 195.66,-29.14"/>
</g>
<!-- Node10 -->
<g id="node10" class="node">
<title>Node10</title>
<g id="a_node10"><a xlink:href="Components_8hpp.html" target="_top" xlink:title=" ">
<polygon fill="white" stroke="black" points="262,-0.5 262,-19.5 408,-19.5 408,-0.5 262,-0.5"/>
<text text-anchor="middle" x="335" y="-7.5" font-family="Helvetica,sans-Serif" font-size="10.00">../Models/Components.hpp</text>
</a>
</g>
</g>
<!-- Node5&#45;&gt;Node10 -->
<g id="edge10" class="edge">
<title>Node5&#45;&gt;Node10</title>
<path fill="none" stroke="midnightblue" d="M216.29,-112.34C217.2,-98.76 220.8,-72.32 235,-56 248.73,-40.22 269.09,-29.7 287.86,-22.83"/>
<polygon fill="midnightblue" stroke="midnightblue" points="289.15,-26.09 297.49,-19.56 286.9,-19.46 289.15,-26.09"/>
</g>
<!-- Node11 -->
<g id="node11" class="node">
<title>Node11</title>
<g id="a_node11"><a xlink:href="IMemory_8hpp.html" target="_top" xlink:title=" ">
<polygon fill="white" stroke="black" points="244,-56.5 244,-75.5 324,-75.5 324,-56.5 244,-56.5"/>
<text text-anchor="middle" x="284" y="-63.5" font-family="Helvetica,sans-Serif" font-size="10.00">IMemory.hpp</text>
</a>
</g>
</g>
<!-- Node5&#45;&gt;Node11 -->
<g id="edge11" class="edge">
<title>Node5&#45;&gt;Node11</title>
<path fill="none" stroke="midnightblue" d="M226.93,-112.32C237.17,-104.18 252.72,-91.84 265,-82.09"/>
<polygon fill="midnightblue" stroke="midnightblue" points="267.22,-84.79 272.88,-75.83 262.87,-79.31 267.22,-84.79"/>
</g>
<!-- Node11&#45;&gt;Node3 -->
<g id="edge12" class="edge">
<title>Node11&#45;&gt;Node3</title>
<path fill="none" stroke="midnightblue" d="M243.6,-57.69C200.47,-49.72 129.92,-36.19 60.06,-20.14"/>
<polygon fill="midnightblue" stroke="midnightblue" points="60.74,-16.7 50.21,-17.86 59.16,-23.52 60.74,-16.7"/>
</g>
<!-- Node11&#45;&gt;Node6 -->
<g id="edge13" class="edge">
<title>Node11&#45;&gt;Node6</title>
<path fill="none" stroke="midnightblue" d="M253.58,-56.44C218.74,-46.65 161.83,-30.64 125.68,-20.47"/>
<polygon fill="midnightblue" stroke="midnightblue" points="126.2,-16.98 115.62,-17.64 124.3,-23.72 126.2,-16.98"/>
</g>
<!-- Node11&#45;&gt;Node7 -->
<g id="edge14" class="edge">
<title>Node11&#45;&gt;Node7</title>
<path fill="none" stroke="midnightblue" d="M311.1,-56.44C339.99,-47.32 385.92,-32.81 418.11,-22.65"/>
<polygon fill="midnightblue" stroke="midnightblue" points="419.55,-25.87 428.03,-19.52 417.44,-19.19 419.55,-25.87"/>
</g>
<!-- Node11&#45;&gt;Node8 -->
<g id="edge15" class="edge">
<title>Node11&#45;&gt;Node8</title>
<path fill="none" stroke="midnightblue" d="M324.23,-57.38C381.22,-46.58 484.33,-27.04 536.66,-17.13"/>
<polygon fill="midnightblue" stroke="midnightblue" points="537.55,-20.52 546.72,-15.22 536.24,-13.64 537.55,-20.52"/>
</g>
<!-- Node11&#45;&gt;Node9 -->
<g id="edge16" class="edge">
<title>Node11&#45;&gt;Node9</title>
<path fill="none" stroke="midnightblue" d="M268.74,-56.32C253.78,-47.82 230.75,-34.73 213.27,-24.8"/>
<polygon fill="midnightblue" stroke="midnightblue" points="214.65,-21.55 204.23,-19.65 211.19,-27.64 214.65,-21.55"/>
</g>
<!-- Node11&#45;&gt;Node10 -->
<g id="edge17" class="edge">
<title>Node11&#45;&gt;Node10</title>
<path fill="none" stroke="midnightblue" d="M292.42,-56.08C299.85,-48.22 310.85,-36.57 319.81,-27.08"/>
<polygon fill="midnightblue" stroke="midnightblue" points="322.41,-29.42 326.74,-19.75 317.32,-24.62 322.41,-29.42"/>
</g>
<!-- Node12&#45;&gt;Node2 -->
<g id="edge20" class="edge">
<title>Node12&#45;&gt;Node2</title>
<path fill="none" stroke="midnightblue" d="M275.51,-229.98C249.89,-219.81 206.89,-202.76 177.76,-191.2"/>
<polygon fill="midnightblue" stroke="midnightblue" points="179.04,-187.94 168.45,-187.51 176.46,-194.45 179.04,-187.94"/>
</g>
<!-- Node12&#45;&gt;Node5 -->
<g id="edge21" class="edge">
<title>Node12&#45;&gt;Node5</title>
<path fill="none" stroke="midnightblue" d="M275.61,-229.99C258.33,-221.91 234.99,-208.02 223,-188 214.71,-174.15 213.47,-155.64 214,-141.91"/>
<polygon fill="midnightblue" stroke="midnightblue" points="217.51,-141.94 214.76,-131.71 210.53,-141.43 217.51,-141.94"/>
</g>
<!-- Node12&#45;&gt;Node7 -->
<g id="edge19" class="edge">
<title>Node12&#45;&gt;Node7</title>
<path fill="none" stroke="midnightblue" d="M299.09,-229.9C304.55,-208.54 320.77,-151.9 348,-112 372.26,-76.45 410.93,-43.95 434.54,-25.88"/>
<polygon fill="midnightblue" stroke="midnightblue" points="436.89,-28.49 442.79,-19.68 432.69,-22.89 436.89,-28.49"/>
</g>
<!-- Node13 -->
<g id="node13" class="node">
<title>Node13</title>
<g id="a_node13"><a xlink:href="Ram_8hpp.html" target="_top" xlink:title=" ">
<polygon fill="white" stroke="black" points="379.5,-168.5 379.5,-187.5 474.5,-187.5 474.5,-168.5 379.5,-168.5"/>
<text text-anchor="middle" x="427" y="-175.5" font-family="Helvetica,sans-Serif" font-size="10.00">../Ram/Ram.hpp</text>
</a>
</g>
</g>
<!-- Node12&#45;&gt;Node13 -->
<g id="edge22" class="edge">
<title>Node12&#45;&gt;Node13</title>
<path fill="none" stroke="midnightblue" d="M315.63,-229.98C337.44,-219.99 373.8,-203.35 399.02,-191.81"/>
<polygon fill="midnightblue" stroke="midnightblue" points="400.77,-194.85 408.41,-187.51 397.86,-188.49 400.77,-194.85"/>
</g>
<!-- Node15 -->
<g id="node15" class="node">
<title>Node15</title>
<g id="a_node15"><a xlink:href="IPL_8hpp.html" target="_top" xlink:title=" ">
<polygon fill="white" stroke="black" points="231.5,-168.5 231.5,-187.5 300.5,-187.5 300.5,-168.5 231.5,-168.5"/>
<text text-anchor="middle" x="266" y="-175.5" font-family="Helvetica,sans-Serif" font-size="10.00">IPL/IPL.hpp</text>
</a>
</g>
</g>
<!-- Node12&#45;&gt;Node15 -->
<g id="edge26" class="edge">
<title>Node12&#45;&gt;Node15</title>
<path fill="none" stroke="midnightblue" d="M292.56,-229.98C288.05,-221.32 280.93,-207.65 275.19,-196.65"/>
<polygon fill="midnightblue" stroke="midnightblue" points="278.16,-194.76 270.43,-187.51 271.95,-197.99 278.16,-194.76"/>
</g>
<!-- Node16 -->
<g id="node16" class="node">
<title>Node16</title>
<g id="a_node16"><a xlink:href="IRenderer_8hpp.html" target="_top" xlink:title=" ">
<polygon fill="white" stroke="black" points="493,-168.5 493,-187.5 633,-187.5 633,-168.5 493,-168.5"/>
<text text-anchor="middle" x="563" y="-175.5" font-family="Helvetica,sans-Serif" font-size="10.00">../Renderer/IRenderer.hpp</text>
</a>
</g>
</g>
<!-- Node12&#45;&gt;Node16 -->
<g id="edge28" class="edge">
<title>Node12&#45;&gt;Node16</title>
<path fill="none" stroke="midnightblue" d="M330.69,-230.96C377.31,-220.54 461.77,-201.64 514.98,-189.74"/>
<polygon fill="midnightblue" stroke="midnightblue" points="515.87,-193.13 524.86,-187.53 514.34,-186.3 515.87,-193.13"/>
</g>
<!-- Node13&#45;&gt;Node8 -->
<g id="edge25" class="edge">
<title>Node13&#45;&gt;Node8</title>
<path fill="none" stroke="midnightblue" d="M462.57,-168.42C495,-159.87 539.55,-146.01 551,-132 574.88,-102.78 574.28,-55.82 571.68,-29.83"/>
<polygon fill="midnightblue" stroke="midnightblue" points="575.14,-29.3 570.47,-19.8 568.19,-30.14 575.14,-29.3"/>
</g>
<!-- Node14 -->
<g id="node14" class="node">
<title>Node14</title>
<g id="a_node14"><a xlink:href="ARectangleMemory_8hpp.html" target="_top" xlink:title=" ">
<polygon fill="white" stroke="black" points="356.5,-112.5 356.5,-131.5 541.5,-131.5 541.5,-112.5 356.5,-112.5"/>
<text text-anchor="middle" x="449" y="-119.5" font-family="Helvetica,sans-Serif" font-size="10.00">../Memory/ARectangleMemory.hpp</text>
</a>
</g>
</g>
<!-- Node13&#45;&gt;Node14 -->
<g id="edge23" class="edge">
<title>Node13&#45;&gt;Node14</title>
<path fill="none" stroke="midnightblue" d="M430.63,-168.08C433.61,-160.77 437.93,-150.18 441.62,-141.1"/>
<polygon fill="midnightblue" stroke="midnightblue" points="444.9,-142.33 445.43,-131.75 438.42,-139.69 444.9,-142.33"/>
</g>
<!-- Node14&#45;&gt;Node11 -->
<g id="edge24" class="edge">
<title>Node14&#45;&gt;Node11</title>
<path fill="none" stroke="midnightblue" d="M422.86,-112.44C394.98,-103.32 350.65,-88.81 319.6,-78.65"/>
<polygon fill="midnightblue" stroke="midnightblue" points="320.62,-75.3 310.02,-75.52 318.44,-81.95 320.62,-75.3"/>
</g>
<!-- Node15&#45;&gt;Node5 -->
<g id="edge27" class="edge">
<title>Node15&#45;&gt;Node5</title>
<path fill="none" stroke="midnightblue" d="M257.74,-168.08C250.54,-160.3 239.89,-148.8 231.15,-139.37"/>
<polygon fill="midnightblue" stroke="midnightblue" points="233.47,-136.71 224.1,-131.75 228.33,-141.47 233.47,-136.71"/>
</g>
<!-- Node16&#45;&gt;Node8 -->
<g id="edge29" class="edge">
<title>Node16&#45;&gt;Node8</title>
<path fill="none" stroke="midnightblue" d="M568.13,-168.41C573.06,-159.61 580.16,-145.38 583,-132 590.01,-98.96 588.07,-89.39 583,-56 581.63,-47 578.81,-37.33 576.05,-29.26"/>
<polygon fill="midnightblue" stroke="midnightblue" points="579.31,-27.98 572.6,-19.78 572.73,-30.37 579.31,-27.98"/>
</g>
<!-- Node17 -->
<g id="node17" class="node">
<title>Node17</title>
<g id="a_node17"><a xlink:title=" ">
<polygon fill="white" stroke="#bfbfbf" points="635,-112.5 635,-131.5 675,-131.5 675,-112.5 635,-112.5"/>
<text text-anchor="middle" x="655" y="-119.5" font-family="Helvetica,sans-Serif" font-size="10.00">span</text>
</a>
</g>
</g>
<!-- Node16&#45;&gt;Node17 -->
<g id="edge30" class="edge">
<title>Node16&#45;&gt;Node17</title>
<path fill="none" stroke="midnightblue" d="M577.78,-168.32C592.27,-159.82 614.57,-146.73 631.49,-136.8"/>
<polygon fill="midnightblue" stroke="midnightblue" points="633.4,-139.74 640.26,-131.65 629.86,-133.7 633.4,-139.74"/>
</g>
<!-- Node18&#45;&gt;Node8 -->
<g id="edge33" class="edge">
<title>Node18&#45;&gt;Node8</title>
<path fill="none" stroke="midnightblue" d="M838.33,-224.15C844.1,-214.4 850.97,-200.95 854,-188 861.79,-154.7 864.39,-137.85 842,-112 778.93,-39.18 658.41,-18.8 600.97,-13.15"/>
<polygon fill="midnightblue" stroke="midnightblue" points="601.28,-9.66 591.01,-12.25 600.65,-16.63 601.28,-9.66"/>
</g>
<!-- Node19 -->
<g id="node19" class="node">
<title>Node19</title>
<g id="a_node19"><a xlink:title=" ">
<polygon fill="white" stroke="#bfbfbf" points="901.5,-168.5 901.5,-187.5 966.5,-187.5 966.5,-168.5 901.5,-168.5"/>
<text text-anchor="middle" x="934" y="-175.5" font-family="Helvetica,sans-Serif" font-size="10.00">exception</text>
</a>
</g>
</g>
<!-- Node18&#45;&gt;Node19 -->
<g id="edge32" class="edge">
<title>Node18&#45;&gt;Node19</title>
<path fill="none" stroke="midnightblue" d="M853.88,-224.4C870.71,-214.86 892.84,-202.32 909.57,-192.84"/>
<polygon fill="midnightblue" stroke="midnightblue" points="911.75,-195.63 918.72,-187.66 908.3,-189.54 911.75,-195.63"/>
</g>
<!-- Node20 -->
<g id="node20" class="node">
<title>Node20</title>
<g id="a_node20"><a xlink:title=" ">
<polygon fill="white" stroke="#bfbfbf" points="984.5,-168.5 984.5,-187.5 1015.5,-187.5 1015.5,-168.5 984.5,-168.5"/>
<text text-anchor="middle" x="1000" y="-175.5" font-family="Helvetica,sans-Serif" font-size="10.00">ios</text>
</a>
</g>
</g>
<!-- Node18&#45;&gt;Node20 -->
<g id="edge34" class="edge">
<title>Node18&#45;&gt;Node20</title>
<path fill="none" stroke="midnightblue" d="M870.93,-224.44C898.21,-215.22 934.78,-202.71 974.63,-188.43"/>
<polygon fill="midnightblue" stroke="midnightblue" points="976.05,-191.64 984.27,-184.97 973.68,-185.06 976.05,-191.64"/>
</g>
<!-- Node21 -->
<g id="node21" class="node">
<title>Node21</title>
<g id="a_node21"><a xlink:title=" ">
<polygon fill="white" stroke="#bfbfbf" points="651,-168.5 651,-187.5 707,-187.5 707,-168.5 651,-168.5"/>
<text text-anchor="middle" x="679" y="-175.5" font-family="Helvetica,sans-Serif" font-size="10.00">sstream</text>
</a>
</g>
</g>
<!-- Node18&#45;&gt;Node21 -->
<g id="edge35" class="edge">
<title>Node18&#45;&gt;Node21</title>
<path fill="none" stroke="midnightblue" d="M793.45,-224.4C768.17,-214.37 734.53,-201.03 710.27,-191.4"/>
<polygon fill="midnightblue" stroke="midnightblue" points="711.41,-188.09 700.83,-187.66 708.83,-194.6 711.41,-188.09"/>
</g>
<!-- Node22 -->
<g id="node22" class="node">
<title>Node22</title>
<g id="a_node22"><a xlink:href="DebuggableError_8hpp.html" target="_top" xlink:title=" ">
<polygon fill="white" stroke="black" points="725.5,-168.5 725.5,-187.5 844.5,-187.5 844.5,-168.5 725.5,-168.5"/>
<text text-anchor="middle" x="785" y="-175.5" font-family="Helvetica,sans-Serif" font-size="10.00">DebuggableError.hpp</text>
</a>
</g>
</g>
<!-- Node18&#45;&gt;Node22 -->
<g id="edge36" class="edge">
<title>Node18&#45;&gt;Node22</title>
<path fill="none" stroke="midnightblue" d="M818.57,-224.4C812.24,-215.84 804.13,-204.87 797.47,-195.86"/>
<polygon fill="midnightblue" stroke="midnightblue" points="800.16,-193.62 791.4,-187.66 794.53,-197.78 800.16,-193.62"/>
</g>
<!-- Node23 -->
<g id="node23" class="node">
<title>Node23</title>
<g id="a_node23"><a xlink:title=" ">
<polygon fill="white" stroke="#bfbfbf" points="737.5,-112.5 737.5,-131.5 832.5,-131.5 832.5,-112.5 737.5,-112.5"/>
<text text-anchor="middle" x="785" y="-119.5" font-family="Helvetica,sans-Serif" font-size="10.00">bits/exception.h</text>
</a>
</g>
</g>
<!-- Node22&#45;&gt;Node23 -->
<g id="edge37" class="edge">
<title>Node22&#45;&gt;Node23</title>
<path fill="none" stroke="midnightblue" d="M785,-168.08C785,-161.01 785,-150.86 785,-141.99"/>
<polygon fill="midnightblue" stroke="midnightblue" points="788.5,-141.75 785,-131.75 781.5,-141.75 788.5,-141.75"/>
</g>
</g>
</svg>
