<?xml version="1.0" encoding="UTF-8" standalone="no"?>
<!DOCTYPE svg PUBLIC "-//W3C//DTD SVG 1.1//EN"
 "http://www.w3.org/Graphics/SVG/1.1/DTD/svg11.dtd">
<!-- Generated by graphviz version 2.43.0 (0)
 -->
<!-- Title: sources/APU/DSP/DSP.hpp Pages: 1 -->
<svg width="4300pt" height="285pt"
 viewBox="0.00 0.00 4300.00 285.00" xmlns="http://www.w3.org/2000/svg" xmlns:xlink="http://www.w3.org/1999/xlink">
<g id="graph0" class="graph" transform="scale(1 1) rotate(0) translate(4 281)">
<title>sources/APU/DSP/DSP.hpp</title>
<polygon fill="white" stroke="transparent" points="-4,4 -4,-281 4296,-281 4296,4 -4,4"/>
<!-- Node1 -->
<g id="node1" class="node">
<title>Node1</title>
<g id="a_node1"><a xlink:title=" ">
<polygon fill="#bfbfbf" stroke="black" points="1896.5,-257.5 1896.5,-276.5 2038.5,-276.5 2038.5,-257.5 1896.5,-257.5"/>
<text text-anchor="middle" x="1967.5" y="-264.5" font-family="Helvetica,sans-Serif" font-size="10.00">sources/APU/DSP/DSP.hpp</text>
</a>
</g>
</g>
<!-- Node2 -->
<g id="node2" class="node">
<title>Node2</title>
<g id="a_node2"><a xlink:href="APU_8hpp.html" target="_top" xlink:title=" ">
<polygon fill="white" stroke="black" points="1674.5,-201.5 1674.5,-220.5 1796.5,-220.5 1796.5,-201.5 1674.5,-201.5"/>
<text text-anchor="middle" x="1735.5" y="-208.5" font-family="Helvetica,sans-Serif" font-size="10.00">sources/APU/APU.hpp</text>
</a>
</g>
</g>
<!-- Node1&#45;&gt;Node2 -->
<g id="edge1" class="edge">
<title>Node1&#45;&gt;Node2</title>
<path fill="none" stroke="midnightblue" d="M1920.9,-255.15C1877.06,-244.95 1812.32,-229.88 1772.09,-220.52"/>
<polygon fill="midnightblue" stroke="midnightblue" points="1920.21,-258.59 1930.74,-257.44 1921.79,-251.77 1920.21,-258.59"/>
</g>
<!-- Node4 -->
<g id="node4" class="node">
<title>Node4</title>
<g id="a_node4"><a xlink:href="DSP_8cpp.html" target="_top" xlink:title=" ">
<polygon fill="white" stroke="black" points="0,-140 0,-159 141,-159 141,-140 0,-140"/>
<text text-anchor="middle" x="70.5" y="-147" font-family="Helvetica,sans-Serif" font-size="10.00">sources/APU/DSP/DSP.cpp</text>
</a>
</g>
</g>
<!-- Node1&#45;&gt;Node4 -->
<g id="edge63" class="edge">
<title>Node1&#45;&gt;Node4</title>
<path fill="none" stroke="midnightblue" d="M1886.17,-265.2C1681.99,-262.74 1131.33,-253.38 673.5,-221 439.87,-204.47 381.29,-198.61 149.5,-165 137.91,-163.32 125.42,-161.18 113.87,-159.06"/>
<polygon fill="midnightblue" stroke="midnightblue" points="1886.18,-268.7 1896.22,-265.31 1886.26,-261.7 1886.18,-268.7"/>
</g>
<!-- Node5 -->
<g id="node5" class="node">
<title>Node5</title>
<g id="a_node5"><a xlink:href="Voice_8cpp.html" target="_top" xlink:title=" ">
<polygon fill="white" stroke="black" points="159,-140 159,-159 308,-159 308,-140 159,-140"/>
<text text-anchor="middle" x="233.5" y="-147" font-family="Helvetica,sans-Serif" font-size="10.00">sources/APU/DSP/Voice.cpp</text>
</a>
</g>
</g>
<!-- Node1&#45;&gt;Node5 -->
<g id="edge68" class="edge">
<title>Node1&#45;&gt;Node5</title>
<path fill="none" stroke="midnightblue" d="M1886.39,-264.25C1646.02,-258.37 916.79,-235.57 316.5,-165 303.57,-163.48 289.6,-161.26 276.87,-159.02"/>
<polygon fill="midnightblue" stroke="midnightblue" points="1886.36,-267.75 1896.44,-264.49 1886.53,-260.75 1886.36,-267.75"/>
</g>
<!-- Node61 -->
<g id="node46" class="node">
<title>Node61</title>
<g id="a_node46"><a xlink:href="BRR_8cpp.html" target="_top" xlink:title=" ">
<polygon fill="white" stroke="black" points="1815,-201.5 1815,-220.5 1958,-220.5 1958,-201.5 1815,-201.5"/>
<text text-anchor="middle" x="1886.5" y="-208.5" font-family="Helvetica,sans-Serif" font-size="10.00">sources/APU/DSP/BRR.cpp</text>
</a>
</g>
</g>
<!-- Node1&#45;&gt;Node61 -->
<g id="edge62" class="edge">
<title>Node1&#45;&gt;Node61</title>
<path fill="none" stroke="midnightblue" d="M1945.93,-251.62C1931.14,-241.76 1911.99,-228.99 1899.48,-220.65"/>
<polygon fill="midnightblue" stroke="midnightblue" points="1944.22,-254.69 1954.49,-257.32 1948.11,-248.86 1944.22,-254.69"/>
</g>
<!-- Node62 -->
<g id="node47" class="node">
<title>Node62</title>
<g id="a_node47"><a xlink:href="Echo_8cpp.html" target="_top" xlink:title=" ">
<polygon fill="white" stroke="black" points="1976.5,-201.5 1976.5,-220.5 2122.5,-220.5 2122.5,-201.5 1976.5,-201.5"/>
<text text-anchor="middle" x="2049.5" y="-208.5" font-family="Helvetica,sans-Serif" font-size="10.00">sources/APU/DSP/Echo.cpp</text>
</a>
</g>
</g>
<!-- Node1&#45;&gt;Node62 -->
<g id="edge64" class="edge">
<title>Node1&#45;&gt;Node62</title>
<path fill="none" stroke="midnightblue" d="M1989.33,-251.62C2004.31,-241.76 2023.7,-228.99 2036.36,-220.65"/>
<polygon fill="midnightblue" stroke="midnightblue" points="1987.1,-248.9 1980.67,-257.32 1990.95,-254.75 1987.1,-248.9"/>
</g>
<!-- Node63 -->
<g id="node48" class="node">
<title>Node63</title>
<g id="a_node48"><a xlink:href="Envelope_8cpp.html" target="_top" xlink:title=" ">
<polygon fill="white" stroke="black" points="2140.5,-201.5 2140.5,-220.5 2308.5,-220.5 2308.5,-201.5 2140.5,-201.5"/>
<text text-anchor="middle" x="2224.5" y="-208.5" font-family="Helvetica,sans-Serif" font-size="10.00">sources/APU/DSP/Envelope.cpp</text>
</a>
</g>
</g>
<!-- Node1&#45;&gt;Node63 -->
<g id="edge65" class="edge">
<title>Node1&#45;&gt;Node63</title>
<path fill="none" stroke="midnightblue" d="M2018.21,-255.35C2066.78,-245.14 2139.12,-229.94 2183.97,-220.52"/>
<polygon fill="midnightblue" stroke="midnightblue" points="2017.29,-251.96 2008.22,-257.44 2018.73,-258.81 2017.29,-251.96"/>
</g>
<!-- Node64 -->
<g id="node49" class="node">
<title>Node64</title>
<g id="a_node49"><a xlink:href="Gauss_8cpp.html" target="_top" xlink:title=" ">
<polygon fill="white" stroke="black" points="2327,-201.5 2327,-220.5 2480,-220.5 2480,-201.5 2327,-201.5"/>
<text text-anchor="middle" x="2403.5" y="-208.5" font-family="Helvetica,sans-Serif" font-size="10.00">sources/APU/DSP/Gauss.cpp</text>
</a>
</g>
</g>
<!-- Node1&#45;&gt;Node64 -->
<g id="edge66" class="edge">
<title>Node1&#45;&gt;Node64</title>
<path fill="none" stroke="midnightblue" d="M2046.64,-256.2C2128.95,-246 2256.5,-230.21 2334.74,-220.52"/>
<polygon fill="midnightblue" stroke="midnightblue" points="2046.08,-252.74 2036.59,-257.44 2046.94,-259.69 2046.08,-252.74"/>
</g>
<!-- Node65 -->
<g id="node50" class="node">
<title>Node65</title>
<g id="a_node50"><a xlink:href="Timer_8cpp.html" target="_top" xlink:title=" ">
<polygon fill="white" stroke="black" points="2498,-201.5 2498,-220.5 2649,-220.5 2649,-201.5 2498,-201.5"/>
<text text-anchor="middle" x="2573.5" y="-208.5" font-family="Helvetica,sans-Serif" font-size="10.00">sources/APU/DSP/Timer.cpp</text>
</a>
</g>
</g>
<!-- Node1&#45;&gt;Node65 -->
<g id="edge67" class="edge">
<title>Node1&#45;&gt;Node65</title>
<path fill="none" stroke="midnightblue" d="M2048.72,-259.47C2151.26,-251.12 2333.04,-235.94 2488.5,-221 2491.6,-220.7 2494.77,-220.39 2497.96,-220.07"/>
<polygon fill="midnightblue" stroke="midnightblue" points="2048.43,-255.99 2038.75,-260.28 2049,-262.96 2048.43,-255.99"/>
</g>
<!-- Node3 -->
<g id="node3" class="node">
<title>Node3</title>
<g id="a_node3"><a xlink:href="APU_8cpp.html" target="_top" xlink:title=" ">
<polygon fill="white" stroke="black" points="2779,-140 2779,-159 2900,-159 2900,-140 2779,-140"/>
<text text-anchor="middle" x="2839.5" y="-147" font-family="Helvetica,sans-Serif" font-size="10.00">sources/APU/APU.cpp</text>
</a>
</g>
</g>
<!-- Node2&#45;&gt;Node3 -->
<g id="edge2" class="edge">
<title>Node2&#45;&gt;Node3</title>
<path fill="none" stroke="midnightblue" d="M1806.71,-200.99C2234.54,-166.42 2347.21,-216.26 2769.5,-165 2780.83,-163.62 2793.06,-161.36 2804.08,-159.03"/>
<polygon fill="midnightblue" stroke="midnightblue" points="1806.23,-197.52 1796.55,-201.82 1806.8,-204.49 1806.23,-197.52"/>
</g>
<!-- Node2&#45;&gt;Node4 -->
<g id="edge3" class="edge">
<title>Node2&#45;&gt;Node4</title>
<path fill="none" stroke="midnightblue" d="M1663.85,-209.43C1395.39,-207.05 449.23,-196.57 149.5,-165 136.74,-163.66 122.95,-161.41 110.52,-159.07"/>
<polygon fill="midnightblue" stroke="midnightblue" points="1664.21,-212.93 1674.24,-209.52 1664.27,-205.93 1664.21,-212.93"/>
</g>
<!-- Node2&#45;&gt;Node5 -->
<g id="edge4" class="edge">
<title>Node2&#45;&gt;Node5</title>
<path fill="none" stroke="midnightblue" d="M1664.23,-208.33C1395.33,-201.96 450.85,-178.8 316.5,-165 303.11,-163.63 288.63,-161.37 275.56,-159.04"/>
<polygon fill="midnightblue" stroke="midnightblue" points="1664.18,-211.83 1674.26,-208.57 1664.35,-204.83 1664.18,-211.83"/>
</g>
<!-- Node6 -->
<g id="node6" class="node">
<title>Node6</title>
<g id="a_node6"><a xlink:href="16bitArithmetic_8cpp.html" target="_top" xlink:title=" ">
<polygon fill="white" stroke="black" points="2918,-134.5 2918,-164.5 3055,-164.5 3055,-134.5 2918,-134.5"/>
<text text-anchor="start" x="2926" y="-152.5" font-family="Helvetica,sans-Serif" font-size="10.00">sources/APU/Instructions</text>
<text text-anchor="middle" x="2986.5" y="-141.5" font-family="Helvetica,sans-Serif" font-size="10.00">/16bitArithmetic.cpp</text>
</a>
</g>
</g>
<!-- Node2&#45;&gt;Node6 -->
<g id="edge5" class="edge">
<title>Node2&#45;&gt;Node6</title>
<path fill="none" stroke="midnightblue" d="M1806.71,-200.99C2296.15,-162.45 2424.22,-217.61 2908.5,-165 2911.51,-164.67 2914.58,-164.29 2917.68,-163.88"/>
<polygon fill="midnightblue" stroke="midnightblue" points="1806.24,-197.52 1796.55,-201.8 1806.79,-204.5 1806.24,-197.52"/>
</g>
<!-- Node7 -->
<g id="node7" class="node">
<title>Node7</title>
<g id="a_node7"><a xlink:href="16bitDataTransmission_8cpp.html" target="_top" xlink:title=" ">
<polygon fill="white" stroke="black" points="3073.5,-134.5 3073.5,-164.5 3225.5,-164.5 3225.5,-134.5 3073.5,-134.5"/>
<text text-anchor="start" x="3081.5" y="-152.5" font-family="Helvetica,sans-Serif" font-size="10.00">sources/APU/Instructions</text>
<text text-anchor="middle" x="3149.5" y="-141.5" font-family="Helvetica,sans-Serif" font-size="10.00">/16bitDataTransmission.cpp</text>
</a>
</g>
</g>
<!-- Node2&#45;&gt;Node7 -->
<g id="edge6" class="edge">
<title>Node2&#45;&gt;Node7</title>
<path fill="none" stroke="midnightblue" d="M1806.88,-200.99C2365.34,-158.02 2510.84,-219.87 3064.5,-165 3067.33,-164.72 3070.21,-164.4 3073.11,-164.05"/>
<polygon fill="midnightblue" stroke="midnightblue" points="1806.24,-197.52 1796.55,-201.79 1806.79,-204.5 1806.24,-197.52"/>
</g>
<!-- Node8 -->
<g id="node8" class="node">
<title>Node8</title>
<g id="a_node8"><a xlink:href="8bitArithmetic_8cpp.html" target="_top" xlink:title=" ">
<polygon fill="white" stroke="black" points="3244,-134.5 3244,-164.5 3381,-164.5 3381,-134.5 3244,-134.5"/>
<text text-anchor="start" x="3252" y="-152.5" font-family="Helvetica,sans-Serif" font-size="10.00">sources/APU/Instructions</text>
<text text-anchor="middle" x="3312.5" y="-141.5" font-family="Helvetica,sans-Serif" font-size="10.00">/8bitArithmetic.cpp</text>
</a>
</g>
</g>
<!-- Node2&#45;&gt;Node8 -->
<g id="edge7" class="edge">
<title>Node2&#45;&gt;Node8</title>
<path fill="none" stroke="midnightblue" d="M1806.86,-200.99C2440.73,-153.27 2606.05,-230.91 3234.5,-165 3237.51,-164.68 3240.59,-164.32 3243.68,-163.9"/>
<polygon fill="midnightblue" stroke="midnightblue" points="1806.25,-197.53 1796.55,-201.78 1806.78,-204.51 1806.25,-197.53"/>
</g>
<!-- Node9 -->
<g id="node9" class="node">
<title>Node9</title>
<g id="a_node9"><a xlink:href="8bitDataTransmission_8cpp.html" target="_top" xlink:title=" ">
<polygon fill="white" stroke="black" points="3399.5,-134.5 3399.5,-164.5 3545.5,-164.5 3545.5,-134.5 3399.5,-134.5"/>
<text text-anchor="start" x="3407.5" y="-152.5" font-family="Helvetica,sans-Serif" font-size="10.00">sources/APU/Instructions</text>
<text text-anchor="middle" x="3472.5" y="-141.5" font-family="Helvetica,sans-Serif" font-size="10.00">/8bitDataTransmission.cpp</text>
</a>
</g>
</g>
<!-- Node2&#45;&gt;Node9 -->
<g id="edge8" class="edge">
<title>Node2&#45;&gt;Node9</title>
<path fill="none" stroke="midnightblue" d="M1806.67,-201.01C2509.87,-148.82 2692.65,-234.22 3390.5,-165 3393.38,-164.71 3396.31,-164.39 3399.26,-164.02"/>
<polygon fill="midnightblue" stroke="midnightblue" points="1806.26,-197.53 1796.54,-201.77 1806.78,-204.51 1806.26,-197.53"/>
</g>
<!-- Node10 -->
<g id="node10" class="node">
<title>Node10</title>
<g id="a_node10"><a xlink:href="8bitIncrementDecrement_8cpp.html" target="_top" xlink:title=" ">
<polygon fill="white" stroke="black" points="3563.5,-134.5 3563.5,-164.5 3725.5,-164.5 3725.5,-134.5 3563.5,-134.5"/>
<text text-anchor="start" x="3571.5" y="-152.5" font-family="Helvetica,sans-Serif" font-size="10.00">sources/APU/Instructions</text>
<text text-anchor="middle" x="3644.5" y="-141.5" font-family="Helvetica,sans-Serif" font-size="10.00">/8bitIncrementDecrement.cpp</text>
</a>
</g>
</g>
<!-- Node2&#45;&gt;Node10 -->
<g id="edge9" class="edge">
<title>Node2&#45;&gt;Node10</title>
<path fill="none" stroke="midnightblue" d="M1806.57,-201.02C2582.57,-144.12 2783.47,-234.7 3554.5,-165 3557.34,-164.74 3560.22,-164.45 3563.13,-164.13"/>
<polygon fill="midnightblue" stroke="midnightblue" points="1806.26,-197.53 1796.54,-201.76 1806.77,-204.51 1806.26,-197.53"/>
</g>
<!-- Node11 -->
<g id="node11" class="node">
<title>Node11</title>
<g id="a_node11"><a xlink:href="8bitLogical_8cpp.html" target="_top" xlink:title=" ">
<polygon fill="white" stroke="black" points="326,-134.5 326,-164.5 463,-164.5 463,-134.5 326,-134.5"/>
<text text-anchor="start" x="334" y="-152.5" font-family="Helvetica,sans-Serif" font-size="10.00">sources/APU/Instructions</text>
<text text-anchor="middle" x="394.5" y="-141.5" font-family="Helvetica,sans-Serif" font-size="10.00">/8bitLogical.cpp</text>
</a>
</g>
</g>
<!-- Node2&#45;&gt;Node11 -->
<g id="edge10" class="edge">
<title>Node2&#45;&gt;Node11</title>
<path fill="none" stroke="midnightblue" d="M1664.22,-208.09C1414.79,-201.32 589.82,-178.17 471.5,-165 468.8,-164.7 466.04,-164.36 463.27,-163.98"/>
<polygon fill="midnightblue" stroke="midnightblue" points="1664.17,-211.59 1674.26,-208.36 1664.36,-204.59 1664.17,-211.59"/>
</g>
<!-- Node12 -->
<g id="node12" class="node">
<title>Node12</title>
<g id="a_node12"><a xlink:href="8bitShiftRotation_8cpp.html" target="_top" xlink:title=" ">
<polygon fill="white" stroke="black" points="481,-134.5 481,-164.5 618,-164.5 618,-134.5 481,-134.5"/>
<text text-anchor="start" x="489" y="-152.5" font-family="Helvetica,sans-Serif" font-size="10.00">sources/APU/Instructions</text>
<text text-anchor="middle" x="549.5" y="-141.5" font-family="Helvetica,sans-Serif" font-size="10.00">/8bitShiftRotation.cpp</text>
</a>
</g>
</g>
<!-- Node2&#45;&gt;Node12 -->
<g id="edge11" class="edge">
<title>Node2&#45;&gt;Node12</title>
<path fill="none" stroke="midnightblue" d="M1664.34,-208.47C1452.6,-203.7 828.76,-188.02 626.5,-165 623.8,-164.69 621.05,-164.34 618.27,-163.96"/>
<polygon fill="midnightblue" stroke="midnightblue" points="1664.33,-211.97 1674.41,-208.69 1664.49,-204.97 1664.33,-211.97"/>
</g>
<!-- Node13 -->
<g id="node13" class="node">
<title>Node13</title>
<g id="a_node13"><a xlink:href="Bit_8cpp.html" target="_top" xlink:title=" ">
<polygon fill="white" stroke="black" points="636,-134.5 636,-164.5 773,-164.5 773,-134.5 636,-134.5"/>
<text text-anchor="start" x="644" y="-152.5" font-family="Helvetica,sans-Serif" font-size="10.00">sources/APU/Instructions</text>
<text text-anchor="middle" x="704.5" y="-141.5" font-family="Helvetica,sans-Serif" font-size="10.00">/Bit.cpp</text>
</a>
</g>
</g>
<!-- Node2&#45;&gt;Node13 -->
<g id="edge12" class="edge">
<title>Node2&#45;&gt;Node13</title>
<path fill="none" stroke="midnightblue" d="M1663.96,-207.92C1472.67,-202.14 952.3,-185.01 781.5,-165 778.8,-164.68 776.05,-164.33 773.27,-163.94"/>
<polygon fill="midnightblue" stroke="midnightblue" points="1664.08,-211.42 1674.18,-208.22 1664.29,-204.42 1664.08,-211.42"/>
</g>
<!-- Node14 -->
<g id="node14" class="node">
<title>Node14</title>
<g id="a_node14"><a xlink:href="DecimalCompensation_8cpp.html" target="_top" xlink:title=" ">
<polygon fill="white" stroke="black" points="791,-134.5 791,-164.5 942,-164.5 942,-134.5 791,-134.5"/>
<text text-anchor="start" x="799" y="-152.5" font-family="Helvetica,sans-Serif" font-size="10.00">sources/APU/Instructions</text>
<text text-anchor="middle" x="866.5" y="-141.5" font-family="Helvetica,sans-Serif" font-size="10.00">/DecimalCompensation.cpp</text>
</a>
</g>
</g>
<!-- Node2&#45;&gt;Node14 -->
<g id="edge13" class="edge">
<title>Node2&#45;&gt;Node14</title>
<path fill="none" stroke="midnightblue" d="M1664.28,-208.57C1526.32,-205.22 1213.17,-194.73 951.5,-165 948.53,-164.66 945.5,-164.29 942.44,-163.89"/>
<polygon fill="midnightblue" stroke="midnightblue" points="1664.23,-212.07 1674.31,-208.81 1664.4,-205.07 1664.23,-212.07"/>
</g>
<!-- Node15 -->
<g id="node15" class="node">
<title>Node15</title>
<g id="a_node15"><a xlink:href="MultiplicationDivision_8cpp.html" target="_top" xlink:title=" ">
<polygon fill="white" stroke="black" points="960.5,-134.5 960.5,-164.5 1106.5,-164.5 1106.5,-134.5 960.5,-134.5"/>
<text text-anchor="start" x="968.5" y="-152.5" font-family="Helvetica,sans-Serif" font-size="10.00">sources/APU/Instructions</text>
<text text-anchor="middle" x="1033.5" y="-141.5" font-family="Helvetica,sans-Serif" font-size="10.00">/MultiplicationDivision.cpp</text>
</a>
</g>
</g>
<!-- Node2&#45;&gt;Node15 -->
<g id="edge14" class="edge">
<title>Node2&#45;&gt;Node15</title>
<path fill="none" stroke="midnightblue" d="M1664,-207.2C1548.36,-202.13 1313.28,-189.6 1115.5,-165 1112.63,-164.64 1109.71,-164.25 1106.76,-163.84"/>
<polygon fill="midnightblue" stroke="midnightblue" points="1663.99,-210.7 1674.14,-207.63 1664.3,-203.71 1663.99,-210.7"/>
</g>
<!-- Node16 -->
<g id="node16" class="node">
<title>Node16</title>
<g id="a_node16"><a xlink:href="ProgramFlow_8cpp.html" target="_top" xlink:title=" ">
<polygon fill="white" stroke="black" points="1125,-134.5 1125,-164.5 1262,-164.5 1262,-134.5 1125,-134.5"/>
<text text-anchor="start" x="1133" y="-152.5" font-family="Helvetica,sans-Serif" font-size="10.00">sources/APU/Instructions</text>
<text text-anchor="middle" x="1193.5" y="-141.5" font-family="Helvetica,sans-Serif" font-size="10.00">/ProgramFlow.cpp</text>
</a>
</g>
</g>
<!-- Node2&#45;&gt;Node16 -->
<g id="edge15" class="edge">
<title>Node2&#45;&gt;Node16</title>
<path fill="none" stroke="midnightblue" d="M1664.11,-205.09C1572.63,-198.34 1409.29,-184.74 1270.5,-165 1267.81,-164.62 1265.06,-164.21 1262.3,-163.77"/>
<polygon fill="midnightblue" stroke="midnightblue" points="1664.13,-208.6 1674.36,-205.84 1664.64,-201.62 1664.13,-208.6"/>
</g>
<!-- Node17 -->
<g id="node17" class="node">
<title>Node17</title>
<g id="a_node17"><a xlink:href="ProgramStatusWord_8cpp.html" target="_top" xlink:title=" ">
<polygon fill="white" stroke="black" points="1280,-134.5 1280,-164.5 1417,-164.5 1417,-134.5 1280,-134.5"/>
<text text-anchor="start" x="1288" y="-152.5" font-family="Helvetica,sans-Serif" font-size="10.00">sources/APU/Instructions</text>
<text text-anchor="middle" x="1348.5" y="-141.5" font-family="Helvetica,sans-Serif" font-size="10.00">/ProgramStatusWord.cpp</text>
</a>
</g>
</g>
<!-- Node2&#45;&gt;Node17 -->
<g id="edge16" class="edge">
<title>Node2&#45;&gt;Node17</title>
<path fill="none" stroke="midnightblue" d="M1664,-200.49C1601.08,-191.91 1507.06,-178.59 1425.5,-165 1422.82,-164.55 1420.08,-164.09 1417.32,-163.61"/>
<polygon fill="midnightblue" stroke="midnightblue" points="1663.83,-204 1674.21,-201.88 1664.77,-197.06 1663.83,-204"/>
</g>
<!-- Node18 -->
<g id="node18" class="node">
<title>Node18</title>
<g id="a_node18"><a xlink:href="Stack_8cpp.html" target="_top" xlink:title=" ">
<polygon fill="white" stroke="black" points="1435,-134.5 1435,-164.5 1572,-164.5 1572,-134.5 1435,-134.5"/>
<text text-anchor="start" x="1443" y="-152.5" font-family="Helvetica,sans-Serif" font-size="10.00">sources/APU/Instructions</text>
<text text-anchor="middle" x="1503.5" y="-141.5" font-family="Helvetica,sans-Serif" font-size="10.00">/Stack.cpp</text>
</a>
</g>
</g>
<!-- Node2&#45;&gt;Node18 -->
<g id="edge17" class="edge">
<title>Node2&#45;&gt;Node18</title>
<path fill="none" stroke="midnightblue" d="M1692.54,-198.98C1654.65,-189.27 1599.23,-175.05 1558.18,-164.52"/>
<polygon fill="midnightblue" stroke="midnightblue" points="1691.7,-202.38 1702.26,-201.48 1693.44,-195.6 1691.7,-202.38"/>
</g>
<!-- Node19 -->
<g id="node19" class="node">
<title>Node19</title>
<g id="a_node19"><a xlink:href="Standbys_8cpp.html" target="_top" xlink:title=" ">
<polygon fill="white" stroke="black" points="1590,-134.5 1590,-164.5 1727,-164.5 1727,-134.5 1590,-134.5"/>
<text text-anchor="start" x="1598" y="-152.5" font-family="Helvetica,sans-Serif" font-size="10.00">sources/APU/Instructions</text>
<text text-anchor="middle" x="1658.5" y="-141.5" font-family="Helvetica,sans-Serif" font-size="10.00">/Standbys.cpp</text>
</a>
</g>
</g>
<!-- Node2&#45;&gt;Node19 -->
<g id="edge18" class="edge">
<title>Node2&#45;&gt;Node19</title>
<path fill="none" stroke="midnightblue" d="M1716.34,-195.2C1704.2,-185.81 1688.59,-173.75 1676.65,-164.52"/>
<polygon fill="midnightblue" stroke="midnightblue" points="1714.41,-198.13 1724.47,-201.48 1718.69,-192.59 1714.41,-198.13"/>
</g>
<!-- Node20 -->
<g id="node20" class="node">
<title>Node20</title>
<g id="a_node20"><a xlink:href="Subroutine_8cpp.html" target="_top" xlink:title=" ">
<polygon fill="white" stroke="black" points="1745,-134.5 1745,-164.5 1882,-164.5 1882,-134.5 1745,-134.5"/>
<text text-anchor="start" x="1753" y="-152.5" font-family="Helvetica,sans-Serif" font-size="10.00">sources/APU/Instructions</text>
<text text-anchor="middle" x="1813.5" y="-141.5" font-family="Helvetica,sans-Serif" font-size="10.00">/Subroutine.cpp</text>
</a>
</g>
</g>
<!-- Node2&#45;&gt;Node20 -->
<g id="edge19" class="edge">
<title>Node2&#45;&gt;Node20</title>
<path fill="none" stroke="midnightblue" d="M1754.91,-195.2C1767.21,-185.81 1783.02,-173.75 1795.12,-164.52"/>
<polygon fill="midnightblue" stroke="midnightblue" points="1752.5,-192.63 1746.68,-201.48 1756.75,-198.19 1752.5,-192.63"/>
</g>
<!-- Node21 -->
<g id="node21" class="node">
<title>Node21</title>
<g id="a_node21"><a xlink:href="Operand_8cpp.html" target="_top" xlink:title=" ">
<polygon fill="white" stroke="black" points="1900.5,-140 1900.5,-159 2042.5,-159 2042.5,-140 1900.5,-140"/>
<text text-anchor="middle" x="1971.5" y="-147" font-family="Helvetica,sans-Serif" font-size="10.00">sources/APU/Operand.cpp</text>
</a>
</g>
</g>
<!-- Node2&#45;&gt;Node21 -->
<g id="edge20" class="edge">
<title>Node2&#45;&gt;Node21</title>
<path fill="none" stroke="midnightblue" d="M1779.26,-198.97C1825.08,-187.41 1896.07,-169.52 1937.75,-159.01"/>
<polygon fill="midnightblue" stroke="midnightblue" points="1778.15,-195.64 1769.31,-201.48 1779.87,-202.42 1778.15,-195.64"/>
</g>
<!-- Node22 -->
<g id="node22" class="node">
<title>Node22</title>
<g id="a_node22"><a xlink:href="APUDebug_8hpp.html" target="_top" xlink:title=" ">
<polygon fill="white" stroke="black" points="1900.5,-73 1900.5,-92 2080.5,-92 2080.5,-73 1900.5,-73"/>
<text text-anchor="middle" x="1990.5" y="-80" font-family="Helvetica,sans-Serif" font-size="10.00">sources/Debugger/APUDebug.hpp</text>
</a>
</g>
</g>
<!-- Node2&#45;&gt;Node22 -->
<g id="edge21" class="edge">
<title>Node2&#45;&gt;Node22</title>
<path fill="none" stroke="midnightblue" d="M1806.84,-200.42C1899.42,-187.91 2049.49,-167.31 2051.5,-165 2073.39,-139.77 2029.71,-107.37 2005.35,-92.14"/>
<polygon fill="midnightblue" stroke="midnightblue" points="1806.12,-196.99 1796.68,-201.79 1807.06,-203.92 1806.12,-196.99"/>
</g>
<!-- Node24 -->
<g id="node24" class="node">
<title>Node24</title>
<g id="a_node24"><a xlink:href="SNES_8hpp.html" target="_top" xlink:title=" ">
<polygon fill="white" stroke="red" points="2656.5,-140 2656.5,-159 2760.5,-159 2760.5,-140 2656.5,-140"/>
<text text-anchor="middle" x="2708.5" y="-147" font-family="Helvetica,sans-Serif" font-size="10.00">sources/SNES.hpp</text>
</a>
</g>
</g>
<!-- Node2&#45;&gt;Node24 -->
<g id="edge23" class="edge">
<title>Node2&#45;&gt;Node24</title>
<path fill="none" stroke="midnightblue" d="M1806.78,-200.95C2136.33,-170.96 2519.34,-156.59 2656.49,-152.1"/>
<polygon fill="midnightblue" stroke="midnightblue" points="1806.19,-197.49 1796.55,-201.89 1806.83,-204.46 1806.19,-197.49"/>
</g>
<!-- Node43 -->
<g id="node36" class="node">
<title>Node43</title>
<g id="a_node36"><a xlink:href="testAPU_8cpp.html" target="_top" xlink:title=" ">
<polygon fill="white" stroke="black" points="2274.5,-6 2274.5,-25 2400.5,-25 2400.5,-6 2274.5,-6"/>
<text text-anchor="middle" x="2337.5" y="-13" font-family="Helvetica,sans-Serif" font-size="10.00">tests/APU/testAPU.cpp</text>
</a>
</g>
</g>
<!-- Node2&#45;&gt;Node43 -->
<g id="edge59" class="edge">
<title>Node2&#45;&gt;Node43</title>
<path fill="none" stroke="midnightblue" d="M1806.62,-200.93C1950.07,-185.24 1995.28,-214.76 2126.5,-165 2171.63,-147.89 2290.3,-54.35 2326.72,-25.19"/>
<polygon fill="midnightblue" stroke="midnightblue" points="1806.11,-197.47 1796.58,-202.09 1806.91,-204.42 1806.11,-197.47"/>
</g>
<!-- Node44 -->
<g id="node37" class="node">
<title>Node44</title>
<g id="a_node37"><a xlink:href="testAPUInstructions_8cpp.html" target="_top" xlink:title=" ">
<polygon fill="white" stroke="black" points="1908,-6 1908,-25 2091,-25 2091,-6 1908,-6"/>
<text text-anchor="middle" x="1999.5" y="-13" font-family="Helvetica,sans-Serif" font-size="10.00">tests/APU/testAPUInstructions.cpp</text>
</a>
</g>
</g>
<!-- Node2&#45;&gt;Node44 -->
<g id="edge60" class="edge">
<title>Node2&#45;&gt;Node44</title>
<path fill="none" stroke="midnightblue" d="M1806.76,-200.61C1904.22,-187.73 2067.25,-166.05 2068.5,-165 2102.55,-136.28 2112.01,-105.44 2089.5,-67 2076.92,-45.51 2051.46,-32.47 2030.83,-25.04"/>
<polygon fill="midnightblue" stroke="midnightblue" points="1806.13,-197.16 1796.67,-201.94 1807.05,-204.1 1806.13,-197.16"/>
</g>
<!-- Node45 -->
<g id="node38" class="node">
<title>Node45</title>
<g id="a_node38"><a xlink:href="testOperand_8cpp.html" target="_top" xlink:title=" ">
<polygon fill="white" stroke="black" points="2109,-6 2109,-25 2256,-25 2256,-6 2109,-6"/>
<text text-anchor="middle" x="2182.5" y="-13" font-family="Helvetica,sans-Serif" font-size="10.00">tests/APU/testOperand.cpp</text>
</a>
</g>
</g>
<!-- Node2&#45;&gt;Node45 -->
<g id="edge61" class="edge">
<title>Node2&#45;&gt;Node45</title>
<path fill="none" stroke="midnightblue" d="M1806.59,-201.02C1884.71,-193.46 2044.49,-199.41 2096.5,-165 2149.18,-130.15 2173.59,-51.18 2180.42,-25.06"/>
<polygon fill="midnightblue" stroke="midnightblue" points="1806.14,-197.55 1796.58,-202.13 1806.9,-204.51 1806.14,-197.55"/>
</g>
<!-- Node23 -->
<g id="node23" class="node">
<title>Node23</title>
<g id="a_node23"><a xlink:href="APUDebug_8cpp.html" target="_top" xlink:title=" ">
<polygon fill="white" stroke="black" points="1711,-6 1711,-25 1890,-25 1890,-6 1711,-6"/>
<text text-anchor="middle" x="1800.5" y="-13" font-family="Helvetica,sans-Serif" font-size="10.00">sources/Debugger/APUDebug.cpp</text>
</a>
</g>
</g>
<!-- Node22&#45;&gt;Node23 -->
<g id="edge22" class="edge">
<title>Node22&#45;&gt;Node23</title>
<path fill="none" stroke="midnightblue" d="M1955.72,-69.6C1918.05,-56.71 1858.88,-36.47 1825.53,-25.06"/>
<polygon fill="midnightblue" stroke="midnightblue" points="1954.67,-72.94 1965.27,-72.87 1956.94,-66.32 1954.67,-72.94"/>
</g>
<!-- Node24&#45;&gt;Node22 -->
<g id="edge24" class="edge">
<title>Node24&#45;&gt;Node22</title>
<path fill="none" stroke="midnightblue" d="M2646.32,-142.87C2519.12,-131.36 2228.76,-105.07 2080.79,-91.67"/>
<polygon fill="midnightblue" stroke="midnightblue" points="2646.01,-146.36 2656.28,-143.77 2646.64,-139.39 2646.01,-146.36"/>
</g>
<!-- Node25 -->
<g id="node25" class="node">
<title>Node25</title>
<g id="a_node25"><a xlink:href="CGramDebug_8cpp.html" target="_top" xlink:title=" ">
<polygon fill="white" stroke="black" points="2487,-73 2487,-92 2680,-92 2680,-73 2487,-73"/>
<text text-anchor="middle" x="2583.5" y="-80" font-family="Helvetica,sans-Serif" font-size="10.00">sources/Debugger/CGramDebug.cpp</text>
</a>
</g>
</g>
<!-- Node24&#45;&gt;Node25 -->
<g id="edge25" class="edge">
<title>Node24&#45;&gt;Node25</title>
<path fill="none" stroke="midnightblue" d="M2682.74,-135.1C2657.98,-122.23 2621.31,-103.16 2600.17,-92.17"/>
<polygon fill="midnightblue" stroke="midnightblue" points="2681.41,-138.36 2691.9,-139.87 2684.64,-132.15 2681.41,-138.36"/>
</g>
<!-- Node26 -->
<g id="node26" class="node">
<title>Node26</title>
<g id="a_node26"><a xlink:href="SFRenderer_8hpp.html" target="_top" xlink:title=" ">
<polygon fill="white" stroke="red" points="3709,-73 3709,-92 3890,-92 3890,-73 3709,-73"/>
<text text-anchor="middle" x="3799.5" y="-80" font-family="Helvetica,sans-Serif" font-size="10.00">sources/Renderer/SFRenderer.hpp</text>
</a>
</g>
</g>
<!-- Node24&#45;&gt;Node26 -->
<g id="edge26" class="edge">
<title>Node24&#45;&gt;Node26</title>
<path fill="none" stroke="midnightblue" d="M2749.52,-137.6C2756.16,-136.17 2762.99,-134.89 2769.5,-134 3177.12,-78.16 3284.67,-134.18 3694.5,-98 3711.09,-96.54 3729.07,-94.29 3745.39,-92.01"/>
<polygon fill="midnightblue" stroke="midnightblue" points="2748.27,-134.3 2739.31,-139.95 2749.84,-141.12 2748.27,-134.3"/>
</g>
<!-- Node27 -->
<g id="node27" class="node">
<title>Node27</title>
<g id="a_node27"><a xlink:href="CPUDebug_8hpp.html" target="_top" xlink:title=" ">
<polygon fill="white" stroke="red" points="3643.5,-0.5 3643.5,-30.5 3771.5,-30.5 3771.5,-0.5 3643.5,-0.5"/>
<text text-anchor="start" x="3651.5" y="-18.5" font-family="Helvetica,sans-Serif" font-size="10.00">sources/Debugger/CPU</text>
<text text-anchor="middle" x="3707.5" y="-7.5" font-family="Helvetica,sans-Serif" font-size="10.00">/CPUDebug.hpp</text>
</a>
</g>
</g>
<!-- Node24&#45;&gt;Node27 -->
<g id="edge29" class="edge">
<title>Node24&#45;&gt;Node27</title>
<path fill="none" stroke="midnightblue" d="M2749.52,-137.61C2756.16,-136.18 2762.99,-134.9 2769.5,-134 2867.76,-120.47 3576.87,-149.73 3661.5,-98 3686.04,-83 3698.63,-49.78 3704.07,-30.71"/>
<polygon fill="midnightblue" stroke="midnightblue" points="2748.28,-134.3 2739.31,-139.95 2749.84,-141.13 2748.28,-134.3"/>
</g>
<!-- Node30 -->
<g id="node28" class="node">
<title>Node30</title>
<g id="a_node28"><a xlink:href="main_8cpp.html" target="_top" xlink:title=" ">
<polygon fill="white" stroke="black" points="3841.5,-6 3841.5,-25 3943.5,-25 3943.5,-6 3841.5,-6"/>
<text text-anchor="middle" x="3892.5" y="-13" font-family="Helvetica,sans-Serif" font-size="10.00">sources/main.cpp</text>
</a>
</g>
</g>
<!-- Node24&#45;&gt;Node30 -->
<g id="edge34" class="edge">
<title>Node24&#45;&gt;Node30</title>
<path fill="none" stroke="midnightblue" d="M2748.81,-137.71C2755.67,-136.22 2762.76,-134.9 2769.5,-134 2831.76,-125.7 3855.8,-143.11 3899.5,-98 3918.67,-78.21 3904.76,-41.61 3896.91,-25.04"/>
<polygon fill="midnightblue" stroke="midnightblue" points="2747.95,-134.32 2738.99,-139.98 2749.52,-141.14 2747.95,-134.32"/>
</g>
<!-- Node36 -->
<g id="node29" class="node">
<title>Node36</title>
<g id="a_node29"><a xlink:href="HeaderViewer_8cpp.html" target="_top" xlink:title=" ">
<polygon fill="white" stroke="black" points="3052.5,-73 3052.5,-92 3248.5,-92 3248.5,-73 3052.5,-73"/>
<text text-anchor="middle" x="3150.5" y="-80" font-family="Helvetica,sans-Serif" font-size="10.00">sources/Debugger/HeaderViewer.cpp</text>
</a>
</g>
</g>
<!-- Node24&#45;&gt;Node36 -->
<g id="edge30" class="edge">
<title>Node24&#45;&gt;Node36</title>
<path fill="none" stroke="midnightblue" d="M2751.56,-137.69C2757.56,-136.35 2763.67,-135.08 2769.5,-134 2784.8,-131.18 2980.02,-105.66 3084.89,-92.02"/>
<polygon fill="midnightblue" stroke="midnightblue" points="2750.57,-134.33 2741.61,-139.98 2752.14,-141.15 2750.57,-134.33"/>
</g>
<!-- Node37 -->
<g id="node30" class="node">
<title>Node37</title>
<g id="a_node30"><a xlink:href="MemoryBusDebug_8cpp.html" target="_top" xlink:title=" ">
<polygon fill="white" stroke="black" points="3266.5,-67.5 3266.5,-97.5 3432.5,-97.5 3432.5,-67.5 3266.5,-67.5"/>
<text text-anchor="start" x="3274.5" y="-85.5" font-family="Helvetica,sans-Serif" font-size="10.00">sources/Debugger/MemoryBus</text>
<text text-anchor="middle" x="3349.5" y="-74.5" font-family="Helvetica,sans-Serif" font-size="10.00">Debug.cpp</text>
</a>
</g>
</g>
<!-- Node24&#45;&gt;Node37 -->
<g id="edge31" class="edge">
<title>Node24&#45;&gt;Node37</title>
<path fill="none" stroke="midnightblue" d="M2750.19,-137.66C2756.63,-136.26 2763.22,-134.97 2769.5,-134 2984.42,-100.75 3041.46,-122.95 3257.5,-98 3260.39,-97.67 3263.33,-97.31 3266.3,-96.93"/>
<polygon fill="midnightblue" stroke="midnightblue" points="2749.25,-134.28 2740.29,-139.93 2750.81,-141.11 2749.25,-134.28"/>
</g>
<!-- Node38 -->
<g id="node31" class="node">
<title>Node38</title>
<g id="a_node31"><a xlink:href="MemoryViewer_8cpp.html" target="_top" xlink:title=" ">
<polygon fill="white" stroke="black" points="3451,-73 3451,-92 3652,-92 3652,-73 3451,-73"/>
<text text-anchor="middle" x="3551.5" y="-80" font-family="Helvetica,sans-Serif" font-size="10.00">sources/Debugger/MemoryViewer.cpp</text>
</a>
</g>
</g>
<!-- Node24&#45;&gt;Node38 -->
<g id="edge32" class="edge">
<title>Node24&#45;&gt;Node38</title>
<path fill="none" stroke="midnightblue" d="M2749.74,-137.64C2756.31,-136.21 2763.07,-134.93 2769.5,-134 3065.52,-91.24 3143.68,-125.56 3441.5,-98 3458.38,-96.44 3476.65,-94.24 3493.37,-92.02"/>
<polygon fill="midnightblue" stroke="midnightblue" points="2748.6,-134.31 2739.64,-139.96 2750.17,-141.13 2748.6,-134.31"/>
</g>
<!-- Node39 -->
<g id="node32" class="node">
<title>Node39</title>
<g id="a_node32"><a xlink:href="RegisterViewer_8cpp.html" target="_top" xlink:title=" ">
<polygon fill="white" stroke="black" points="3946.5,-67.5 3946.5,-97.5 4094.5,-97.5 4094.5,-67.5 3946.5,-67.5"/>
<text text-anchor="start" x="3954.5" y="-85.5" font-family="Helvetica,sans-Serif" font-size="10.00">sources/Debugger/Register</text>
<text text-anchor="middle" x="4020.5" y="-74.5" font-family="Helvetica,sans-Serif" font-size="10.00">Viewer.cpp</text>
</a>
</g>
</g>
<!-- Node24&#45;&gt;Node39 -->
<g id="edge33" class="edge">
<title>Node24&#45;&gt;Node39</title>
<path fill="none" stroke="midnightblue" d="M2748.81,-137.71C2755.67,-136.22 2762.76,-134.9 2769.5,-134 3282.13,-65.85 3417.8,-148.15 3932.5,-98 3936.97,-97.56 3941.56,-97.04 3946.17,-96.46"/>
<polygon fill="midnightblue" stroke="midnightblue" points="2747.95,-134.31 2738.99,-139.97 2749.52,-141.13 2747.95,-134.31"/>
</g>
<!-- Node40 -->
<g id="node33" class="node">
<title>Node40</title>
<g id="a_node33"><a xlink:href="MemoryBus_8cpp.html" target="_top" xlink:title=" ">
<polygon fill="white" stroke="black" points="4113,-73 4113,-92 4292,-92 4292,-73 4113,-73"/>
<text text-anchor="middle" x="4202.5" y="-80" font-family="Helvetica,sans-Serif" font-size="10.00">sources/Memory/MemoryBus.cpp</text>
</a>
</g>
</g>
<!-- Node24&#45;&gt;Node40 -->
<g id="edge35" class="edge">
<title>Node24&#45;&gt;Node40</title>
<path fill="none" stroke="midnightblue" d="M2748.81,-137.68C2755.67,-136.2 2762.76,-134.88 2769.5,-134 3357.59,-57.01 3512.6,-149.07 4103.5,-98 4119.42,-96.62 4136.69,-94.36 4152.27,-92.03"/>
<polygon fill="midnightblue" stroke="midnightblue" points="2747.95,-134.29 2738.99,-139.95 2749.52,-141.11 2747.95,-134.29"/>
</g>
<!-- Node41 -->
<g id="node34" class="node">
<title>Node41</title>
<g id="a_node34"><a xlink:href="SNES_8cpp.html" target="_top" xlink:title=" ">
<polygon fill="white" stroke="black" points="2289,-73 2289,-92 2392,-92 2392,-73 2289,-73"/>
<text text-anchor="middle" x="2340.5" y="-80" font-family="Helvetica,sans-Serif" font-size="10.00">sources/SNES.cpp</text>
</a>
</g>
</g>
<!-- Node24&#45;&gt;Node41 -->
<g id="edge36" class="edge">
<title>Node24&#45;&gt;Node41</title>
<path fill="none" stroke="midnightblue" d="M2646.37,-139.05C2585.2,-129.53 2489.19,-113.99 2406.5,-98 2397.17,-96.2 2387.14,-94.08 2377.78,-92.04"/>
<polygon fill="midnightblue" stroke="midnightblue" points="2645.83,-142.51 2656.25,-140.58 2646.91,-135.59 2645.83,-142.51"/>
</g>
<!-- Node42 -->
<g id="node35" class="node">
<title>Node42</title>
<g id="a_node35"><a xlink:href="tests_8hpp.html" target="_top" xlink:title=" ">
<polygon fill="white" stroke="red" points="2737,-73 2737,-92 2826,-92 2826,-73 2737,-73"/>
<text text-anchor="middle" x="2781.5" y="-80" font-family="Helvetica,sans-Serif" font-size="10.00">tests/tests.hpp</text>
</a>
</g>
</g>
<!-- Node24&#45;&gt;Node42 -->
<g id="edge37" class="edge">
<title>Node24&#45;&gt;Node42</title>
<path fill="none" stroke="midnightblue" d="M2726.07,-132.86C2740.42,-120.08 2760.17,-102.49 2771.81,-92.13"/>
<polygon fill="midnightblue" stroke="midnightblue" points="2723.49,-130.47 2718.35,-139.73 2728.14,-135.7 2723.49,-130.47"/>
</g>
<!-- Node24&#45;&gt;Node43 -->
<g id="edge49" class="edge">
<title>Node24&#45;&gt;Node43</title>
<path fill="none" stroke="midnightblue" d="M2646.41,-141.75C2596.43,-134.87 2525.12,-121.73 2466.5,-98 2418.86,-78.72 2369.34,-41.86 2348.15,-25.13"/>
<polygon fill="midnightblue" stroke="midnightblue" points="2646.04,-145.24 2656.42,-143.09 2646.97,-138.3 2646.04,-145.24"/>
</g>
<!-- Node24&#45;&gt;Node44 -->
<g id="edge50" class="edge">
<title>Node24&#45;&gt;Node44</title>
<path fill="none" stroke="midnightblue" d="M2646.19,-146.6C2554.06,-142.75 2376.54,-131.31 2229.5,-98 2148.93,-79.75 2057.66,-42.01 2018.73,-25.07"/>
<polygon fill="midnightblue" stroke="midnightblue" points="2646.32,-150.11 2656.46,-147.02 2646.61,-143.12 2646.32,-150.11"/>
</g>
<!-- Node24&#45;&gt;Node45 -->
<g id="edge51" class="edge">
<title>Node24&#45;&gt;Node45</title>
<path fill="none" stroke="midnightblue" d="M2645.95,-145.54C2543.26,-139.95 2343.89,-125.83 2279.5,-98 2239.93,-80.9 2204.09,-42.21 2189.47,-25.01"/>
<polygon fill="midnightblue" stroke="midnightblue" points="2646.01,-149.05 2656.18,-146.09 2646.38,-142.06 2646.01,-149.05"/>
</g>
<!-- Node46 -->
<g id="node39" class="node">
<title>Node46</title>
<g id="a_node39"><a xlink:href="testADC_8cpp.html" target="_top" xlink:title=" ">
<polygon fill="white" stroke="black" points="2419,-6 2419,-25 2574,-25 2574,-6 2419,-6"/>
<text text-anchor="middle" x="2496.5" y="-13" font-family="Helvetica,sans-Serif" font-size="10.00">tests/CPU/Math/testADC.cpp</text>
</a>
</g>
</g>
<!-- Node24&#45;&gt;Node46 -->
<g id="edge52" class="edge">
<title>Node24&#45;&gt;Node46</title>
<path fill="none" stroke="midnightblue" d="M2645.97,-143.51C2584.94,-137.19 2498.31,-123.85 2477.5,-98 2460.01,-76.27 2479.44,-41.29 2490.25,-25.16"/>
<polygon fill="midnightblue" stroke="midnightblue" points="2645.99,-147.03 2656.29,-144.54 2646.69,-140.06 2645.99,-147.03"/>
</g>
<!-- Node47 -->
<g id="node40" class="node">
<title>Node47</title>
<g id="a_node40"><a xlink:href="testCMP_8cpp.html" target="_top" xlink:title=" ">
<polygon fill="white" stroke="black" points="2592.5,-6 2592.5,-25 2746.5,-25 2746.5,-6 2592.5,-6"/>
<text text-anchor="middle" x="2669.5" y="-13" font-family="Helvetica,sans-Serif" font-size="10.00">tests/CPU/Math/testCMP.cpp</text>
</a>
</g>
</g>
<!-- Node24&#45;&gt;Node47 -->
<g id="edge53" class="edge">
<title>Node24&#45;&gt;Node47</title>
<path fill="none" stroke="midnightblue" d="M2704.58,-129.8C2700.93,-113.16 2695.08,-88.26 2688.5,-67 2683.9,-52.15 2677.28,-35.32 2673.19,-25.33"/>
<polygon fill="midnightblue" stroke="midnightblue" points="2701.21,-130.8 2706.73,-139.84 2708.06,-129.33 2701.21,-130.8"/>
</g>
<!-- Node48 -->
<g id="node41" class="node">
<title>Node48</title>
<g id="a_node41"><a xlink:href="testOthersMath_8cpp.html" target="_top" xlink:title=" ">
<polygon fill="white" stroke="black" points="2764.5,-0.5 2764.5,-30.5 2910.5,-30.5 2910.5,-0.5 2764.5,-0.5"/>
<text text-anchor="start" x="2772.5" y="-18.5" font-family="Helvetica,sans-Serif" font-size="10.00">tests/CPU/Math/testOthers</text>
<text text-anchor="middle" x="2837.5" y="-7.5" font-family="Helvetica,sans-Serif" font-size="10.00">Math.cpp</text>
</a>
</g>
</g>
<!-- Node24&#45;&gt;Node48 -->
<g id="edge54" class="edge">
<title>Node24&#45;&gt;Node48</title>
<path fill="none" stroke="midnightblue" d="M2748.17,-137.15C2788.58,-125.19 2846.2,-106.88 2852.5,-98 2866.81,-77.81 2855.12,-47.96 2845.91,-30.55"/>
<polygon fill="midnightblue" stroke="midnightblue" points="2747.17,-133.8 2738.56,-139.97 2749.14,-140.51 2747.17,-133.8"/>
</g>
<!-- Node49 -->
<g id="node42" class="node">
<title>Node49</title>
<g id="a_node42"><a xlink:href="testSBC_8cpp.html" target="_top" xlink:title=" ">
<polygon fill="white" stroke="black" points="2929,-6 2929,-25 3082,-25 3082,-6 2929,-6"/>
<text text-anchor="middle" x="3005.5" y="-13" font-family="Helvetica,sans-Serif" font-size="10.00">tests/CPU/Math/testSBC.cpp</text>
</a>
</g>
</g>
<!-- Node24&#45;&gt;Node49 -->
<g id="edge55" class="edge">
<title>Node24&#45;&gt;Node49</title>
<path fill="none" stroke="midnightblue" d="M2754.32,-137.38C2787.37,-128.61 2832.64,-115.03 2870.5,-98 2918.44,-76.44 2970.41,-41.38 2993.39,-25.19"/>
<polygon fill="midnightblue" stroke="midnightblue" points="2753.28,-134.04 2744.48,-139.95 2755.04,-140.81 2753.28,-134.04"/>
</g>
<!-- Node50 -->
<g id="node43" class="node">
<title>Node50</title>
<g id="a_node43"><a xlink:href="testAddressingMode_8cpp.html" target="_top" xlink:title=" ">
<polygon fill="white" stroke="black" points="3100.5,-0.5 3100.5,-30.5 3240.5,-30.5 3240.5,-0.5 3100.5,-0.5"/>
<text text-anchor="start" x="3108.5" y="-18.5" font-family="Helvetica,sans-Serif" font-size="10.00">tests/CPU/testAddressing</text>
<text text-anchor="middle" x="3170.5" y="-7.5" font-family="Helvetica,sans-Serif" font-size="10.00">Mode.cpp</text>
</a>
</g>
</g>
<!-- Node24&#45;&gt;Node50 -->
<g id="edge56" class="edge">
<title>Node24&#45;&gt;Node50</title>
<path fill="none" stroke="midnightblue" d="M2754.37,-137.5C2812.46,-123.52 2905.98,-100.85 2913.5,-98 2941.19,-87.49 2944.85,-77.62 2972.5,-67 3013.73,-51.16 3061.69,-38.79 3100.08,-30.25"/>
<polygon fill="midnightblue" stroke="midnightblue" points="2753.22,-134.17 2744.31,-139.92 2754.85,-140.98 2753.22,-134.17"/>
</g>
<!-- Node51 -->
<g id="node44" class="node">
<title>Node51</title>
<g id="a_node44"><a xlink:href="testBits_8cpp.html" target="_top" xlink:title=" ">
<polygon fill="white" stroke="black" points="3259,-6 3259,-25 3384,-25 3384,-6 3259,-6"/>
<text text-anchor="middle" x="3321.5" y="-13" font-family="Helvetica,sans-Serif" font-size="10.00">tests/CPU/testBits.cpp</text>
</a>
</g>
</g>
<!-- Node24&#45;&gt;Node51 -->
<g id="edge57" class="edge">
<title>Node24&#45;&gt;Node51</title>
<path fill="none" stroke="midnightblue" d="M2753.09,-137.66C2758.61,-136.39 2764.18,-135.14 2769.5,-134 2852.68,-116.16 2877.86,-127.91 2957.5,-98 2983.05,-88.41 2984.77,-76.08 3010.5,-67 3111.79,-31.24 3143.7,-49.61 3249.5,-31 3259.67,-29.21 3270.62,-27.1 3280.82,-25.06"/>
<polygon fill="midnightblue" stroke="midnightblue" points="2752.22,-134.27 2743.28,-139.95 2753.81,-141.09 2752.22,-134.27"/>
</g>
<!-- Node54 -->
<g id="node45" class="node">
<title>Node54</title>
<g id="a_node45"><a xlink:href="testInterupts_8cpp.html" target="_top" xlink:title=" ">
<polygon fill="white" stroke="black" points="3402,-6 3402,-25 3551,-25 3551,-6 3402,-6"/>
<text text-anchor="middle" x="3476.5" y="-13" font-family="Helvetica,sans-Serif" font-size="10.00">tests/CPU/testInterupts.cpp</text>
</a>
</g>
</g>
<!-- Node24&#45;&gt;Node54 -->
<g id="edge58" class="edge">
<title>Node24&#45;&gt;Node54</title>
<path fill="none" stroke="midnightblue" d="M2752.43,-137.63C2758.16,-136.34 2763.96,-135.09 2769.5,-134 2870.58,-114.07 2902.81,-136.17 2998.5,-98 3021.06,-89 3020.71,-75.39 3043.5,-67 3190.24,-12.96 3238.6,-52.47 3393.5,-31 3405.67,-29.31 3418.79,-27.17 3430.93,-25.06"/>
<polygon fill="midnightblue" stroke="midnightblue" points="2751.23,-134.31 2742.28,-139.98 2752.81,-141.13 2751.23,-134.31"/>
</g>
<!-- Node26&#45;&gt;Node27 -->
<g id="edge27" class="edge">
<title>Node26&#45;&gt;Node27</title>
<path fill="none" stroke="midnightblue" d="M3778.76,-66.85C3763.41,-56 3742.61,-41.3 3727.44,-30.59"/>
<polygon fill="midnightblue" stroke="midnightblue" points="3776.91,-69.82 3787.09,-72.73 3780.94,-64.1 3776.91,-69.82"/>
</g>
<!-- Node26&#45;&gt;Node30 -->
<g id="edge28" class="edge">
<title>Node26&#45;&gt;Node30</title>
<path fill="none" stroke="midnightblue" d="M3820.36,-66.92C3838.75,-54.07 3864.91,-35.78 3880.16,-25.13"/>
<polygon fill="midnightblue" stroke="midnightblue" points="3818.23,-64.14 3812.04,-72.73 3822.24,-69.87 3818.23,-64.14"/>
</g>
<!-- Node42&#45;&gt;Node42 -->
<g id="edge39" class="edge">
<title>Node42&#45;&gt;Node42</title>
<path fill="none" stroke="midnightblue" d="M2811.08,-94.2C2828.13,-96.58 2844,-92.68 2844,-82.5 2844,-70.32 2821.29,-67.13 2801.02,-72.94"/>
<polygon fill="midnightblue" stroke="midnightblue" points="2811.53,-90.71 2801.02,-92.06 2810.08,-97.56 2811.53,-90.71"/>
</g>
<!-- Node42&#45;&gt;Node43 -->
<g id="edge38" class="edge">
<title>Node42&#45;&gt;Node43</title>
<path fill="none" stroke="midnightblue" d="M2726.35,-72.66C2713.91,-70.73 2700.76,-68.75 2688.5,-67 2564.72,-49.37 2532.86,-51.35 2409.5,-31 2399.06,-29.28 2387.82,-27.15 2377.4,-25.06"/>
<polygon fill="midnightblue" stroke="midnightblue" points="2726.18,-76.17 2736.6,-74.25 2727.26,-69.25 2726.18,-76.17"/>
</g>
<!-- Node42&#45;&gt;Node44 -->
<g id="edge40" class="edge">
<title>Node42&#45;&gt;Node44</title>
<path fill="none" stroke="midnightblue" d="M2726.43,-72.04C2713.98,-70.15 2700.81,-68.33 2688.5,-67 2427.76,-38.77 2360.39,-57.84 2099.5,-31 2084.23,-29.43 2067.72,-27.24 2052.59,-25.03"/>
<polygon fill="midnightblue" stroke="midnightblue" points="2726.25,-75.56 2736.67,-73.64 2727.33,-68.64 2726.25,-75.56"/>
</g>
<!-- Node42&#45;&gt;Node45 -->
<g id="edge41" class="edge">
<title>Node42&#45;&gt;Node45</title>
<path fill="none" stroke="midnightblue" d="M2726.4,-72.26C2713.96,-70.35 2700.79,-68.48 2688.5,-67 2501.17,-44.45 2452.61,-55.26 2265.5,-31 2253.02,-29.38 2239.56,-27.22 2227.19,-25.05"/>
<polygon fill="midnightblue" stroke="midnightblue" points="2726.23,-75.77 2736.65,-73.86 2727.31,-68.86 2726.23,-75.77"/>
</g>
<!-- Node42&#45;&gt;Node46 -->
<g id="edge42" class="edge">
<title>Node42&#45;&gt;Node46</title>
<path fill="none" stroke="midnightblue" d="M2733.9,-70.64C2677.75,-57.84 2585.55,-36.81 2534.14,-25.08"/>
<polygon fill="midnightblue" stroke="midnightblue" points="2733.42,-74.12 2743.95,-72.94 2734.98,-67.3 2733.42,-74.12"/>
</g>
<!-- Node42&#45;&gt;Node47 -->
<g id="edge43" class="edge">
<title>Node42&#45;&gt;Node47</title>
<path fill="none" stroke="midnightblue" d="M2757.58,-67.62C2735.39,-54.74 2703.06,-35.98 2684.37,-25.13"/>
<polygon fill="midnightblue" stroke="midnightblue" points="2755.99,-70.74 2766.4,-72.73 2759.5,-64.69 2755.99,-70.74"/>
</g>
<!-- Node42&#45;&gt;Node48 -->
<g id="edge44" class="edge">
<title>Node42&#45;&gt;Node48</title>
<path fill="none" stroke="midnightblue" d="M2795.72,-64.99C2804.88,-54.36 2816.65,-40.7 2825.36,-30.59"/>
<polygon fill="midnightblue" stroke="midnightblue" points="2792.93,-62.87 2789.05,-72.73 2798.23,-67.44 2792.93,-62.87"/>
</g>
<!-- Node42&#45;&gt;Node49 -->
<g id="edge45" class="edge">
<title>Node42&#45;&gt;Node49</title>
<path fill="none" stroke="midnightblue" d="M2821.1,-70.01C2865.43,-57.15 2936.25,-36.59 2975.99,-25.06"/>
<polygon fill="midnightblue" stroke="midnightblue" points="2819.87,-66.72 2811.25,-72.87 2821.82,-73.44 2819.87,-66.72"/>
</g>
<!-- Node42&#45;&gt;Node50 -->
<g id="edge46" class="edge">
<title>Node42&#45;&gt;Node50</title>
<path fill="none" stroke="midnightblue" d="M2836.16,-72.94C2898.14,-63.14 3002.18,-46.47 3091.5,-31 3094.39,-30.5 3097.33,-29.98 3100.3,-29.46"/>
<polygon fill="midnightblue" stroke="midnightblue" points="2835.54,-69.49 2826.21,-74.5 2836.63,-76.4 2835.54,-69.49"/>
</g>
<!-- Node42&#45;&gt;Node51 -->
<g id="edge47" class="edge">
<title>Node42&#45;&gt;Node51</title>
<path fill="none" stroke="midnightblue" d="M2836.17,-77.23C2923.74,-70.02 3100.72,-53.96 3249.5,-31 3260.21,-29.35 3271.75,-27.19 3282.38,-25.05"/>
<polygon fill="midnightblue" stroke="midnightblue" points="2835.88,-73.74 2826.2,-78.04 2836.45,-80.72 2835.88,-73.74"/>
</g>
<!-- Node42&#45;&gt;Node54 -->
<g id="edge48" class="edge">
<title>Node42&#45;&gt;Node54</title>
<path fill="none" stroke="midnightblue" d="M2836.46,-77.61C2965.77,-68.34 3286.43,-44.74 3393.5,-31 3405.98,-29.4 3419.44,-27.24 3431.81,-25.07"/>
<polygon fill="midnightblue" stroke="midnightblue" points="2836.1,-74.12 2826.38,-78.33 2836.6,-81.11 2836.1,-74.12"/>
</g>
</g>
</svg>
