<?xml version="1.0" encoding="UTF-8" standalone="no"?>
<!DOCTYPE svg PUBLIC "-//W3C//DTD SVG 1.1//EN"
 "http://www.w3.org/Graphics/SVG/1.1/DTD/svg11.dtd">
<!-- Generated by graphviz version 2.43.0 (0)
 -->
<!-- Title: sources/APU/DSP/Gauss.cpp Pages: 1 -->
<svg width="671pt" height="252pt"
 viewBox="0.00 0.00 671.00 252.00" xmlns="http://www.w3.org/2000/svg" xmlns:xlink="http://www.w3.org/1999/xlink">
<g id="graph0" class="graph" transform="scale(1 1) rotate(0) translate(4 248)">
<title>sources/APU/DSP/Gauss.cpp</title>
<polygon fill="white" stroke="transparent" points="-4,4 -4,-248 667,-248 667,4 -4,4"/>
<!-- Node1 -->
<g id="node1" class="node">
<title>Node1</title>
<g id="a_node1"><a xlink:title=" ">
<polygon fill="#bfbfbf" stroke="black" points="15.5,-224.5 15.5,-243.5 168.5,-243.5 168.5,-224.5 15.5,-224.5"/>
<text text-anchor="middle" x="92" y="-231.5" font-family="Helvetica,sans-Serif" font-size="10.00">sources/APU/DSP/Gauss.cpp</text>
</a>
</g>
</g>
<!-- Node2 -->
<g id="node2" class="node">
<title>Node2</title>
<g id="a_node2"><a xlink:title=" ">
<polygon fill="white" stroke="#bfbfbf" points="0,-168.5 0,-187.5 64,-187.5 64,-168.5 0,-168.5"/>
<text text-anchor="middle" x="32" y="-175.5" font-family="Helvetica,sans-Serif" font-size="10.00">algorithm</text>
</a>
</g>
</g>
<!-- Node1&#45;&gt;Node2 -->
<g id="edge1" class="edge">
<title>Node1&#45;&gt;Node2</title>
<path fill="none" stroke="midnightblue" d="M82.36,-224.32C73.49,-216.34 60.13,-204.31 49.39,-194.65"/>
<polygon fill="midnightblue" stroke="midnightblue" points="51.59,-191.92 41.82,-187.83 46.91,-197.13 51.59,-191.92"/>
</g>
<!-- Node3 -->
<g id="node3" class="node">
<title>Node3</title>
<g id="a_node3"><a xlink:title=" ">
<polygon fill="white" stroke="#bfbfbf" points="117,-0.5 117,-19.5 167,-19.5 167,-0.5 117,-0.5"/>
<text text-anchor="middle" x="142" y="-7.5" font-family="Helvetica,sans-Serif" font-size="10.00">cstdint</text>
</a>
</g>
</g>
<!-- Node1&#45;&gt;Node3 -->
<g id="edge2" class="edge">
<title>Node1&#45;&gt;Node3</title>
<path fill="none" stroke="midnightblue" d="M92.92,-224.41C95.16,-204.49 101.39,-153.65 111,-112 117.79,-82.59 128.65,-49.27 135.55,-29.21"/>
<polygon fill="midnightblue" stroke="midnightblue" points="138.94,-30.13 138.93,-19.53 132.33,-27.82 138.94,-30.13"/>
</g>
<!-- Node4 -->
<g id="node4" class="node">
<title>Node4</title>
<g id="a_node4"><a xlink:href="DSP_8hpp.html" target="_top" xlink:title=" ">
<polygon fill="white" stroke="black" points="141,-168.5 141,-187.5 197,-187.5 197,-168.5 141,-168.5"/>
<text text-anchor="middle" x="169" y="-175.5" font-family="Helvetica,sans-Serif" font-size="10.00">DSP.hpp</text>
</a>
</g>
</g>
<!-- Node1&#45;&gt;Node4 -->
<g id="edge3" class="edge">
<title>Node1&#45;&gt;Node4</title>
<path fill="none" stroke="midnightblue" d="M104.37,-224.32C116.16,-216.06 134.13,-203.45 148.14,-193.63"/>
<polygon fill="midnightblue" stroke="midnightblue" points="150.48,-196.26 156.66,-187.65 146.46,-190.53 150.48,-196.26"/>
</g>
<!-- Node4&#45;&gt;Node3 -->
<g id="edge4" class="edge">
<title>Node4&#45;&gt;Node3</title>
<path fill="none" stroke="midnightblue" d="M169.5,-168.38C169.99,-159.32 170.72,-144.67 171,-132 171.2,-123.11 172.24,-120.8 171,-112 166.84,-82.43 156.14,-49.38 148.97,-29.39"/>
<polygon fill="midnightblue" stroke="midnightblue" points="152.15,-27.91 145.41,-19.74 145.59,-30.33 152.15,-27.91"/>
</g>
<!-- Node5 -->
<g id="node5" class="node">
<title>Node5</title>
<g id="a_node5"><a xlink:title=" ">
<polygon fill="white" stroke="#bfbfbf" points="120,-112.5 120,-131.5 162,-131.5 162,-112.5 120,-112.5"/>
<text text-anchor="middle" x="141" y="-119.5" font-family="Helvetica,sans-Serif" font-size="10.00">array</text>
</a>
</g>
</g>
<!-- Node4&#45;&gt;Node5 -->
<g id="edge5" class="edge">
<title>Node4&#45;&gt;Node5</title>
<path fill="none" stroke="midnightblue" d="M164.38,-168.08C160.54,-160.69 154.98,-149.95 150.24,-140.81"/>
<polygon fill="midnightblue" stroke="midnightblue" points="153.25,-139.02 145.54,-131.75 147.03,-142.24 153.25,-139.02"/>
</g>
<!-- Node6 -->
<g id="node6" class="node">
<title>Node6</title>
<g id="a_node6"><a xlink:href="AMemory_8hpp.html" target="_top" xlink:title=" ">
<polygon fill="white" stroke="black" points="265.5,-112.5 265.5,-131.5 410.5,-131.5 410.5,-112.5 265.5,-112.5"/>
<text text-anchor="middle" x="338" y="-119.5" font-family="Helvetica,sans-Serif" font-size="10.00">../../Memory/AMemory.hpp</text>
</a>
</g>
</g>
<!-- Node4&#45;&gt;Node6 -->
<g id="edge6" class="edge">
<title>Node4&#45;&gt;Node6</title>
<path fill="none" stroke="midnightblue" d="M195.78,-168.44C224.33,-159.32 269.73,-144.81 301.54,-134.65"/>
<polygon fill="midnightblue" stroke="midnightblue" points="302.89,-137.89 311.35,-131.52 300.76,-131.23 302.89,-137.89"/>
</g>
<!-- Node6&#45;&gt;Node3 -->
<g id="edge7" class="edge">
<title>Node6&#45;&gt;Node3</title>
<path fill="none" stroke="midnightblue" d="M322.45,-112.41C306.13,-103.38 279.73,-88.74 257,-76 225.52,-58.36 189.3,-37.85 166.06,-24.67"/>
<polygon fill="midnightblue" stroke="midnightblue" points="167.66,-21.55 157.23,-19.66 164.2,-27.64 167.66,-21.55"/>
</g>
<!-- Node7 -->
<g id="node7" class="node">
<title>Node7</title>
<g id="a_node7"><a xlink:title=" ">
<polygon fill="white" stroke="#bfbfbf" points="539.5,-0.5 539.5,-19.5 586.5,-19.5 586.5,-0.5 539.5,-0.5"/>
<text text-anchor="middle" x="563" y="-7.5" font-family="Helvetica,sans-Serif" font-size="10.00">vector</text>
</a>
</g>
</g>
<!-- Node6&#45;&gt;Node7 -->
<g id="edge8" class="edge">
<title>Node6&#45;&gt;Node7</title>
<path fill="none" stroke="midnightblue" d="M358.73,-112.5C379.69,-103.78 412.9,-89.6 441,-76 475.52,-59.3 514.48,-38.12 538.88,-24.56"/>
<polygon fill="midnightblue" stroke="midnightblue" points="540.76,-27.52 547.79,-19.6 537.35,-21.41 540.76,-27.52"/>
</g>
<!-- Node8 -->
<g id="node8" class="node">
<title>Node8</title>
<g id="a_node8"><a xlink:title=" ">
<polygon fill="white" stroke="#bfbfbf" points="605,-0.5 605,-19.5 663,-19.5 663,-0.5 605,-0.5"/>
<text text-anchor="middle" x="634" y="-7.5" font-family="Helvetica,sans-Serif" font-size="10.00">memory</text>
</a>
</g>
</g>
<!-- Node6&#45;&gt;Node8 -->
<g id="edge9" class="edge">
<title>Node6&#45;&gt;Node8</title>
<path fill="none" stroke="midnightblue" d="M365.32,-112.44C392.72,-103.73 436.02,-89.61 473,-76 519.53,-58.87 572.73,-36.92 604.82,-23.41"/>
<polygon fill="midnightblue" stroke="midnightblue" points="606.22,-26.62 614.08,-19.51 603.5,-20.17 606.22,-26.62"/>
</g>
<!-- Node9 -->
<g id="node9" class="node">
<title>Node9</title>
<g id="a_node9"><a xlink:title=" ">
<polygon fill="white" stroke="#bfbfbf" points="185,-0.5 185,-19.5 229,-19.5 229,-0.5 185,-0.5"/>
<text text-anchor="middle" x="207" y="-7.5" font-family="Helvetica,sans-Serif" font-size="10.00">string</text>
</a>
</g>
</g>
<!-- Node6&#45;&gt;Node9 -->
<g id="edge10" class="edge">
<title>Node6&#45;&gt;Node9</title>
<path fill="none" stroke="midnightblue" d="M327.72,-112.37C305.53,-93.73 252.89,-49.53 225.02,-26.13"/>
<polygon fill="midnightblue" stroke="midnightblue" points="227.14,-23.34 217.23,-19.59 222.64,-28.7 227.14,-23.34"/>
</g>
<!-- Node10 -->
<g id="node10" class="node">
<title>Node10</title>
<g id="a_node10"><a xlink:href="Int24_8hpp.html" target="_top" xlink:title=" ">
<polygon fill="white" stroke="black" points="247,-0.5 247,-19.5 357,-19.5 357,-0.5 247,-0.5"/>
<text text-anchor="middle" x="302" y="-7.5" font-family="Helvetica,sans-Serif" font-size="10.00">../Models/Int24.hpp</text>
</a>
</g>
</g>
<!-- Node6&#45;&gt;Node10 -->
<g id="edge11" class="edge">
<title>Node6&#45;&gt;Node10</title>
<path fill="none" stroke="midnightblue" d="M335.1,-112.38C332.06,-103.33 327.16,-88.68 323,-76 317.86,-60.33 312.11,-42.5 307.92,-29.49"/>
<polygon fill="midnightblue" stroke="midnightblue" points="311.22,-28.29 304.83,-19.84 304.55,-30.43 311.22,-28.29"/>
</g>
<!-- Node11 -->
<g id="node11" class="node">
<title>Node11</title>
<g id="a_node11"><a xlink:href="Components_8hpp.html" target="_top" xlink:title=" ">
<polygon fill="white" stroke="black" points="375,-0.5 375,-19.5 521,-19.5 521,-0.5 375,-0.5"/>
<text text-anchor="middle" x="448" y="-7.5" font-family="Helvetica,sans-Serif" font-size="10.00">../Models/Components.hpp</text>
</a>
</g>
</g>
<!-- Node6&#45;&gt;Node11 -->
<g id="edge12" class="edge">
<title>Node6&#45;&gt;Node11</title>
<path fill="none" stroke="midnightblue" d="M363.44,-112.46C381.58,-105.24 405.41,-93.28 421,-76 432.88,-62.83 439.97,-43.69 443.88,-29.59"/>
<polygon fill="midnightblue" stroke="midnightblue" points="447.36,-30.12 446.37,-19.57 440.56,-28.43 447.36,-30.12"/>
</g>
<!-- Node12 -->
<g id="node12" class="node">
<title>Node12</title>
<g id="a_node12"><a xlink:href="IMemory_8hpp.html" target="_top" xlink:title=" ">
<polygon fill="white" stroke="black" points="332,-56.5 332,-75.5 412,-75.5 412,-56.5 332,-56.5"/>
<text text-anchor="middle" x="372" y="-63.5" font-family="Helvetica,sans-Serif" font-size="10.00">IMemory.hpp</text>
</a>
</g>
</g>
<!-- Node6&#45;&gt;Node12 -->
<g id="edge13" class="edge">
<title>Node6&#45;&gt;Node12</title>
<path fill="none" stroke="midnightblue" d="M343.61,-112.08C348.37,-104.53 355.32,-93.49 361.15,-84.23"/>
<polygon fill="midnightblue" stroke="midnightblue" points="364.12,-86.08 366.49,-75.75 358.2,-82.35 364.12,-86.08"/>
</g>
<!-- Node12&#45;&gt;Node3 -->
<g id="edge14" class="edge">
<title>Node12&#45;&gt;Node3</title>
<path fill="none" stroke="midnightblue" d="M333.23,-56.5C295.72,-48.18 237,-34.93 177.22,-20.24"/>
<polygon fill="midnightblue" stroke="midnightblue" points="177.77,-16.78 167.23,-17.78 176.1,-23.57 177.77,-16.78"/>
</g>
<!-- Node12&#45;&gt;Node7 -->
<g id="edge15" class="edge">
<title>Node12&#45;&gt;Node7</title>
<path fill="none" stroke="midnightblue" d="M402.26,-56.44C436.83,-46.67 493.22,-30.73 529.2,-20.56"/>
<polygon fill="midnightblue" stroke="midnightblue" points="530.54,-23.81 539.21,-17.73 528.64,-17.08 530.54,-23.81"/>
</g>
<!-- Node12&#45;&gt;Node8 -->
<g id="edge16" class="edge">
<title>Node12&#45;&gt;Node8</title>
<path fill="none" stroke="midnightblue" d="M412.15,-57.37C455.02,-49.12 525.21,-35.34 595.12,-20.14"/>
<polygon fill="midnightblue" stroke="midnightblue" points="595.95,-23.54 604.98,-17.98 594.46,-16.7 595.95,-23.54"/>
</g>
<!-- Node12&#45;&gt;Node9 -->
<g id="edge17" class="edge">
<title>Node12&#45;&gt;Node9</title>
<path fill="none" stroke="midnightblue" d="M345.86,-56.44C316.75,-46.92 269.71,-31.52 238.57,-21.33"/>
<polygon fill="midnightblue" stroke="midnightblue" points="239.65,-18 229.06,-18.22 237.48,-24.66 239.65,-18"/>
</g>
<!-- Node12&#45;&gt;Node10 -->
<g id="edge18" class="edge">
<title>Node12&#45;&gt;Node10</title>
<path fill="none" stroke="midnightblue" d="M360.75,-56.32C350.2,-48.18 334.2,-35.84 321.56,-26.09"/>
<polygon fill="midnightblue" stroke="midnightblue" points="323.51,-23.17 313.45,-19.83 319.23,-28.71 323.51,-23.17"/>
</g>
<!-- Node12&#45;&gt;Node11 -->
<g id="edge19" class="edge">
<title>Node12&#45;&gt;Node11</title>
<path fill="none" stroke="midnightblue" d="M384.21,-56.32C395.78,-48.11 413.38,-35.6 427.16,-25.81"/>
<polygon fill="midnightblue" stroke="midnightblue" points="429.44,-28.48 435.57,-19.83 425.39,-22.77 429.44,-28.48"/>
</g>
</g>
</svg>
