<?xml version="1.0" encoding="UTF-8" standalone="no"?>
<!DOCTYPE svg PUBLIC "-//W3C//DTD SVG 1.1//EN"
 "http://www.w3.org/Graphics/SVG/1.1/DTD/svg11.dtd">
<!-- Generated by graphviz version 2.43.0 (0)
 -->
<!-- Title: sources/Debugger/HeaderViewer.cpp Pages: 1 -->
<svg width="1918pt" height="420pt"
 viewBox="0.00 0.00 1917.50 420.00" xmlns="http://www.w3.org/2000/svg" xmlns:xlink="http://www.w3.org/1999/xlink">
<g id="graph0" class="graph" transform="scale(1 1) rotate(0) translate(4 416)">
<title>sources/Debugger/HeaderViewer.cpp</title>
<polygon fill="white" stroke="transparent" points="-4,4 -4,-416 1913.5,-416 1913.5,4 -4,4"/>
<!-- Node1 -->
<g id="node1" class="node">
<title>Node1</title>
<g id="a_node1"><a xlink:title=" ">
<polygon fill="#bfbfbf" stroke="black" points="242,-392.5 242,-411.5 438,-411.5 438,-392.5 242,-392.5"/>
<text text-anchor="middle" x="340" y="-399.5" font-family="Helvetica,sans-Serif" font-size="10.00">sources/Debugger/HeaderViewer.cpp</text>
</a>
</g>
</g>
<!-- Node2 -->
<g id="node2" class="node">
<title>Node2</title>
<g id="a_node2"><a xlink:href="HeaderViewer_8hpp.html" target="_top" xlink:title=" ">
<polygon fill="white" stroke="black" points="206,-336.5 206,-355.5 312,-355.5 312,-336.5 206,-336.5"/>
<text text-anchor="middle" x="259" y="-343.5" font-family="Helvetica,sans-Serif" font-size="10.00">HeaderViewer.hpp</text>
</a>
</g>
</g>
<!-- Node1&#45;&gt;Node2 -->
<g id="edge1" class="edge">
<title>Node1&#45;&gt;Node2</title>
<path fill="none" stroke="midnightblue" d="M326.99,-392.32C314.47,-383.98 295.32,-371.21 280.53,-361.35"/>
<polygon fill="midnightblue" stroke="midnightblue" points="282.24,-358.29 271.98,-355.65 278.36,-364.11 282.24,-358.29"/>
</g>
<!-- Node18 -->
<g id="node18" class="node">
<title>Node18</title>
<g id="a_node18"><a xlink:href="Utility_8hpp.html" target="_top" xlink:title=" ">
<polygon fill="white" stroke="black" points="286,-56.5 286,-75.5 394,-75.5 394,-56.5 286,-56.5"/>
<text text-anchor="middle" x="340" y="-63.5" font-family="Helvetica,sans-Serif" font-size="10.00">../Utility/Utility.hpp</text>
</a>
</g>
</g>
<!-- Node1&#45;&gt;Node18 -->
<g id="edge29" class="edge">
<title>Node1&#45;&gt;Node18</title>
<path fill="none" stroke="midnightblue" d="M340,-392.44C340,-373.94 340,-328.81 340,-291 340,-291 340,-291 340,-177 340,-144.95 340,-107.64 340,-85.75"/>
<polygon fill="midnightblue" stroke="midnightblue" points="343.5,-85.56 340,-75.56 336.5,-85.56 343.5,-85.56"/>
</g>
<!-- Node21 -->
<g id="node21" class="node">
<title>Node21</title>
<g id="a_node21"><a xlink:href="SNES_8hpp.html" target="_top" xlink:title=" ">
<polygon fill="white" stroke="black" points="824,-336.5 824,-355.5 896,-355.5 896,-336.5 824,-336.5"/>
<text text-anchor="middle" x="860" y="-343.5" font-family="Helvetica,sans-Serif" font-size="10.00">../SNES.hpp</text>
</a>
</g>
</g>
<!-- Node1&#45;&gt;Node21 -->
<g id="edge34" class="edge">
<title>Node1&#45;&gt;Node21</title>
<path fill="none" stroke="midnightblue" d="M422.11,-392.47C532.67,-380.99 725.66,-360.95 813.77,-351.8"/>
<polygon fill="midnightblue" stroke="midnightblue" points="814.4,-355.25 823.98,-350.74 813.67,-348.29 814.4,-355.25"/>
</g>
<!-- Node3 -->
<g id="node3" class="node">
<title>Node3</title>
<g id="a_node3"><a xlink:title=" ">
<polygon fill="white" stroke="#bfbfbf" points="79.5,-224.5 79.5,-243.5 220.5,-243.5 220.5,-224.5 79.5,-224.5"/>
<text text-anchor="middle" x="150" y="-231.5" font-family="Helvetica,sans-Serif" font-size="10.00">QtWidgets/QMainWindow</text>
</a>
</g>
</g>
<!-- Node2&#45;&gt;Node3 -->
<g id="edge2" class="edge">
<title>Node2&#45;&gt;Node3</title>
<path fill="none" stroke="midnightblue" d="M266.83,-336.29C277.7,-323.1 294.68,-297.72 282,-280 269.65,-262.75 250.3,-252.03 230.17,-245.4"/>
<polygon fill="midnightblue" stroke="midnightblue" points="231.16,-242.05 220.58,-242.55 229.16,-248.75 231.16,-242.05"/>
</g>
<!-- Node4 -->
<g id="node4" class="node">
<title>Node4</title>
<g id="a_node4"><a xlink:href="Cartridge_8hpp.html" target="_top" xlink:title=" ">
<polygon fill="white" stroke="black" points="578,-224.5 578,-243.5 718,-243.5 718,-224.5 578,-224.5"/>
<text text-anchor="middle" x="648" y="-231.5" font-family="Helvetica,sans-Serif" font-size="10.00">../Cartridge/Cartridge.hpp</text>
</a>
</g>
</g>
<!-- Node2&#45;&gt;Node4 -->
<g id="edge3" class="edge">
<title>Node2&#45;&gt;Node4</title>
<path fill="none" stroke="midnightblue" d="M312.01,-340.9C388.56,-334.39 525.82,-320.29 571,-300 596.04,-288.75 619.32,-266.87 633.58,-251.61"/>
<polygon fill="midnightblue" stroke="midnightblue" points="636.42,-253.69 640.53,-243.93 631.23,-249 636.42,-253.69"/>
</g>
<!-- Node16 -->
<g id="node16" class="node">
<title>Node16</title>
<g id="a_node16"><a xlink:title=" ">
<polygon fill="white" stroke="#bfbfbf" points="136.5,-280.5 136.5,-299.5 273.5,-299.5 273.5,-280.5 136.5,-280.5"/>
<text text-anchor="middle" x="205" y="-287.5" font-family="Helvetica,sans-Serif" font-size="10.00">../../ui/ui_cartridgeView.h</text>
</a>
</g>
</g>
<!-- Node2&#45;&gt;Node16 -->
<g id="edge26" class="edge">
<title>Node2&#45;&gt;Node16</title>
<path fill="none" stroke="midnightblue" d="M250.08,-336.08C242.22,-328.22 230.57,-316.57 221.08,-307.08"/>
<polygon fill="midnightblue" stroke="midnightblue" points="223.3,-304.35 213.75,-299.75 218.35,-309.3 223.3,-304.35"/>
</g>
<!-- Node17 -->
<g id="node17" class="node">
<title>Node17</title>
<g id="a_node17"><a xlink:href="ClosableWindow_8hpp.html" target="_top" xlink:title=" ">
<polygon fill="white" stroke="black" points="0,-280.5 0,-299.5 118,-299.5 118,-280.5 0,-280.5"/>
<text text-anchor="middle" x="59" y="-287.5" font-family="Helvetica,sans-Serif" font-size="10.00">ClosableWindow.hpp</text>
</a>
</g>
</g>
<!-- Node2&#45;&gt;Node17 -->
<g id="edge27" class="edge">
<title>Node2&#45;&gt;Node17</title>
<path fill="none" stroke="midnightblue" d="M227.31,-336.44C192.93,-327.16 137.92,-312.31 100.21,-302.13"/>
<polygon fill="midnightblue" stroke="midnightblue" points="101.11,-298.74 90.54,-299.52 99.28,-305.5 101.11,-298.74"/>
</g>
<!-- Node5 -->
<g id="node5" class="node">
<title>Node5</title>
<g id="a_node5"><a xlink:title=" ">
<polygon fill="white" stroke="#bfbfbf" points="909,-0.5 909,-19.5 953,-19.5 953,-0.5 909,-0.5"/>
<text text-anchor="middle" x="931" y="-7.5" font-family="Helvetica,sans-Serif" font-size="10.00">string</text>
</a>
</g>
</g>
<!-- Node4&#45;&gt;Node5 -->
<g id="edge4" class="edge">
<title>Node4&#45;&gt;Node5</title>
<path fill="none" stroke="midnightblue" d="M650,-224.23C655.52,-202.04 673.04,-143.23 710,-112 767.81,-63.14 853.15,-33.16 899.03,-19.59"/>
<polygon fill="midnightblue" stroke="midnightblue" points="900.09,-22.93 908.73,-16.79 898.15,-16.2 900.09,-22.93"/>
</g>
<!-- Node6 -->
<g id="node6" class="node">
<title>Node6</title>
<g id="a_node6"><a xlink:href="AMemory_8hpp.html" target="_top" xlink:title=" ">
<polygon fill="white" stroke="black" points="1035,-112.5 1035,-131.5 1171,-131.5 1171,-112.5 1035,-112.5"/>
<text text-anchor="middle" x="1103" y="-119.5" font-family="Helvetica,sans-Serif" font-size="10.00">../Memory/AMemory.hpp</text>
</a>
</g>
</g>
<!-- Node4&#45;&gt;Node6 -->
<g id="edge5" class="edge">
<title>Node4&#45;&gt;Node6</title>
<path fill="none" stroke="midnightblue" d="M660.5,-224.38C681.88,-210.11 727.29,-181.77 770,-168 854.37,-140.8 955.9,-130.03 1024.5,-125.78"/>
<polygon fill="midnightblue" stroke="midnightblue" points="1025.02,-129.25 1034.79,-125.17 1024.61,-122.26 1025.02,-129.25"/>
</g>
<!-- Node10 -->
<g id="node10" class="node">
<title>Node10</title>
<g id="a_node10"><a xlink:href="Int24_8hpp.html" target="_top" xlink:title=" ">
<polygon fill="white" stroke="black" points="563,-0.5 563,-19.5 673,-19.5 673,-0.5 563,-0.5"/>
<text text-anchor="middle" x="618" y="-7.5" font-family="Helvetica,sans-Serif" font-size="10.00">../Models/Int24.hpp</text>
</a>
</g>
</g>
<!-- Node4&#45;&gt;Node10 -->
<g id="edge19" class="edge">
<title>Node4&#45;&gt;Node10</title>
<path fill="none" stroke="midnightblue" d="M586.02,-224.5C543.41,-217.24 492.23,-205.21 479,-188 431.82,-126.61 540.97,-54.2 592.7,-24.62"/>
<polygon fill="midnightblue" stroke="midnightblue" points="594.63,-27.55 601.64,-19.61 591.2,-21.44 594.63,-27.55"/>
</g>
<!-- Node13 -->
<g id="node13" class="node">
<title>Node13</title>
<g id="a_node13"><a xlink:href="ARectangleMemory_8hpp.html" target="_top" xlink:title=" ">
<polygon fill="white" stroke="black" points="718.5,-112.5 718.5,-131.5 903.5,-131.5 903.5,-112.5 718.5,-112.5"/>
<text text-anchor="middle" x="811" y="-119.5" font-family="Helvetica,sans-Serif" font-size="10.00">../Memory/ARectangleMemory.hpp</text>
</a>
</g>
</g>
<!-- Node4&#45;&gt;Node13 -->
<g id="edge20" class="edge">
<title>Node4&#45;&gt;Node13</title>
<path fill="none" stroke="midnightblue" d="M652.1,-224.17C658.94,-210.36 673.92,-183.62 694,-168 714.2,-152.29 740.53,-141.51 763.1,-134.46"/>
<polygon fill="midnightblue" stroke="midnightblue" points="764.25,-137.77 772.84,-131.57 762.25,-131.06 764.25,-137.77"/>
</g>
<!-- Node14 -->
<g id="node14" class="node">
<title>Node14</title>
<g id="a_node14"><a xlink:href="InterruptVectors_8hpp.html" target="_top" xlink:title=" ">
<polygon fill="white" stroke="black" points="488,-168.5 488,-187.5 604,-187.5 604,-168.5 488,-168.5"/>
<text text-anchor="middle" x="546" y="-175.5" font-family="Helvetica,sans-Serif" font-size="10.00">InterruptVectors.hpp</text>
</a>
</g>
</g>
<!-- Node4&#45;&gt;Node14 -->
<g id="edge22" class="edge">
<title>Node4&#45;&gt;Node14</title>
<path fill="none" stroke="midnightblue" d="M631.61,-224.32C615.33,-215.7 590.13,-202.36 571.28,-192.39"/>
<polygon fill="midnightblue" stroke="midnightblue" points="572.82,-189.24 562.35,-187.65 569.55,-195.43 572.82,-189.24"/>
</g>
<!-- Node15 -->
<g id="node15" class="node">
<title>Node15</title>
<g id="a_node15"><a xlink:href="Ram_8hpp.html" target="_top" xlink:title=" ">
<polygon fill="white" stroke="black" points="812.5,-168.5 812.5,-187.5 907.5,-187.5 907.5,-168.5 812.5,-168.5"/>
<text text-anchor="middle" x="860" y="-175.5" font-family="Helvetica,sans-Serif" font-size="10.00">../Ram/Ram.hpp</text>
</a>
</g>
</g>
<!-- Node4&#45;&gt;Node15 -->
<g id="edge23" class="edge">
<title>Node4&#45;&gt;Node15</title>
<path fill="none" stroke="midnightblue" d="M681.59,-224.44C718.19,-215.12 776.84,-200.18 816.83,-190"/>
<polygon fill="midnightblue" stroke="midnightblue" points="817.74,-193.38 826.57,-187.52 816.01,-186.59 817.74,-193.38"/>
</g>
<!-- Node6&#45;&gt;Node5 -->
<g id="edge9" class="edge">
<title>Node6&#45;&gt;Node5</title>
<path fill="none" stroke="midnightblue" d="M1087.47,-112.35C1071.78,-103.52 1046.93,-89.25 1026,-76 999.76,-59.39 970.38,-38.99 951.33,-25.53"/>
<polygon fill="midnightblue" stroke="midnightblue" points="953.29,-22.63 943.11,-19.7 949.24,-28.34 953.29,-22.63"/>
</g>
<!-- Node7 -->
<g id="node7" class="node">
<title>Node7</title>
<g id="a_node7"><a xlink:title=" ">
<polygon fill="white" stroke="#bfbfbf" points="1424,-0.5 1424,-19.5 1474,-19.5 1474,-0.5 1424,-0.5"/>
<text text-anchor="middle" x="1449" y="-7.5" font-family="Helvetica,sans-Serif" font-size="10.00">cstdint</text>
</a>
</g>
</g>
<!-- Node6&#45;&gt;Node7 -->
<g id="edge6" class="edge">
<title>Node6&#45;&gt;Node7</title>
<path fill="none" stroke="midnightblue" d="M1129.86,-112.46C1191.91,-92.73 1345.15,-44.01 1414.24,-22.05"/>
<polygon fill="midnightblue" stroke="midnightblue" points="1415.33,-25.38 1423.8,-19.01 1413.21,-18.71 1415.33,-25.38"/>
</g>
<!-- Node8 -->
<g id="node8" class="node">
<title>Node8</title>
<g id="a_node8"><a xlink:title=" ">
<polygon fill="white" stroke="#bfbfbf" points="1166.5,-0.5 1166.5,-19.5 1213.5,-19.5 1213.5,-0.5 1166.5,-0.5"/>
<text text-anchor="middle" x="1190" y="-7.5" font-family="Helvetica,sans-Serif" font-size="10.00">vector</text>
</a>
</g>
</g>
<!-- Node6&#45;&gt;Node8 -->
<g id="edge7" class="edge">
<title>Node6&#45;&gt;Node8</title>
<path fill="none" stroke="midnightblue" d="M1109.93,-112.39C1117.19,-103.35 1128.93,-88.7 1139,-76 1151.88,-59.74 1166.49,-41.11 1176.76,-27.97"/>
<polygon fill="midnightblue" stroke="midnightblue" points="1179.7,-29.89 1183.1,-19.85 1174.18,-25.58 1179.7,-29.89"/>
</g>
<!-- Node9 -->
<g id="node9" class="node">
<title>Node9</title>
<g id="a_node9"><a xlink:title=" ">
<polygon fill="white" stroke="#bfbfbf" points="1266,-0.5 1266,-19.5 1324,-19.5 1324,-0.5 1266,-0.5"/>
<text text-anchor="middle" x="1295" y="-7.5" font-family="Helvetica,sans-Serif" font-size="10.00">memory</text>
</a>
</g>
</g>
<!-- Node6&#45;&gt;Node9 -->
<g id="edge8" class="edge">
<title>Node6&#45;&gt;Node9</title>
<path fill="none" stroke="midnightblue" d="M1118.07,-112.37C1151.29,-93.33 1231.09,-47.62 1271.17,-24.65"/>
<polygon fill="midnightblue" stroke="midnightblue" points="1273.07,-27.6 1280,-19.59 1269.59,-21.53 1273.07,-27.6"/>
</g>
<!-- Node6&#45;&gt;Node10 -->
<g id="edge10" class="edge">
<title>Node6&#45;&gt;Node10</title>
<path fill="none" stroke="midnightblue" d="M1075.48,-112.45C1031.95,-99.14 944.43,-73.2 869,-56 806.28,-41.7 733.89,-29.13 683.02,-20.94"/>
<polygon fill="midnightblue" stroke="midnightblue" points="683.57,-17.49 673.14,-19.36 682.46,-24.4 683.57,-17.49"/>
</g>
<!-- Node11 -->
<g id="node11" class="node">
<title>Node11</title>
<g id="a_node11"><a xlink:href="Components_8hpp.html" target="_top" xlink:title=" ">
<polygon fill="white" stroke="black" points="1002,-0.5 1002,-19.5 1148,-19.5 1148,-0.5 1002,-0.5"/>
<text text-anchor="middle" x="1075" y="-7.5" font-family="Helvetica,sans-Serif" font-size="10.00">../Models/Components.hpp</text>
</a>
</g>
</g>
<!-- Node6&#45;&gt;Node11 -->
<g id="edge11" class="edge">
<title>Node6&#45;&gt;Node11</title>
<path fill="none" stroke="midnightblue" d="M1109.72,-112.38C1118.72,-99.74 1132.59,-75.54 1124,-56 1118.61,-43.73 1108.04,-33.34 1098.1,-25.65"/>
<polygon fill="midnightblue" stroke="midnightblue" points="1099.83,-22.58 1089.66,-19.6 1095.75,-28.27 1099.83,-22.58"/>
</g>
<!-- Node12 -->
<g id="node12" class="node">
<title>Node12</title>
<g id="a_node12"><a xlink:href="IMemory_8hpp.html" target="_top" xlink:title=" ">
<polygon fill="white" stroke="black" points="1035,-56.5 1035,-75.5 1115,-75.5 1115,-56.5 1035,-56.5"/>
<text text-anchor="middle" x="1075" y="-63.5" font-family="Helvetica,sans-Serif" font-size="10.00">IMemory.hpp</text>
</a>
</g>
</g>
<!-- Node6&#45;&gt;Node12 -->
<g id="edge12" class="edge">
<title>Node6&#45;&gt;Node12</title>
<path fill="none" stroke="midnightblue" d="M1098.38,-112.08C1094.54,-104.69 1088.98,-93.95 1084.24,-84.81"/>
<polygon fill="midnightblue" stroke="midnightblue" points="1087.25,-83.02 1079.54,-75.75 1081.03,-86.24 1087.25,-83.02"/>
</g>
<!-- Node12&#45;&gt;Node5 -->
<g id="edge16" class="edge">
<title>Node12&#45;&gt;Node5</title>
<path fill="none" stroke="midnightblue" d="M1052.18,-56.44C1028.03,-47.39 989.72,-33.02 962.65,-22.87"/>
<polygon fill="midnightblue" stroke="midnightblue" points="963.83,-19.57 953.24,-19.34 961.37,-26.13 963.83,-19.57"/>
</g>
<!-- Node12&#45;&gt;Node7 -->
<g id="edge13" class="edge">
<title>Node12&#45;&gt;Node7</title>
<path fill="none" stroke="midnightblue" d="M1115.02,-59.22C1188.51,-48.61 1343.81,-26.19 1413.66,-16.1"/>
<polygon fill="midnightblue" stroke="midnightblue" points="1414.32,-19.54 1423.72,-14.65 1413.32,-12.62 1414.32,-19.54"/>
</g>
<!-- Node12&#45;&gt;Node8 -->
<g id="edge14" class="edge">
<title>Node12&#45;&gt;Node8</title>
<path fill="none" stroke="midnightblue" d="M1093.22,-56.44C1111.9,-47.68 1141.16,-33.94 1162.62,-23.86"/>
<polygon fill="midnightblue" stroke="midnightblue" points="1164.3,-26.93 1171.86,-19.52 1161.32,-20.6 1164.3,-26.93"/>
</g>
<!-- Node12&#45;&gt;Node9 -->
<g id="edge15" class="edge">
<title>Node12&#45;&gt;Node9</title>
<path fill="none" stroke="midnightblue" d="M1109.86,-56.44C1149.71,-46.66 1214.75,-30.7 1256.18,-20.53"/>
<polygon fill="midnightblue" stroke="midnightblue" points="1257.05,-23.92 1265.92,-18.14 1255.38,-17.12 1257.05,-23.92"/>
</g>
<!-- Node12&#45;&gt;Node10 -->
<g id="edge17" class="edge">
<title>Node12&#45;&gt;Node10</title>
<path fill="none" stroke="midnightblue" d="M1034.84,-60.26C955.83,-50.92 779.51,-30.08 683.45,-18.73"/>
<polygon fill="midnightblue" stroke="midnightblue" points="683.62,-15.23 673.27,-17.53 682.79,-22.18 683.62,-15.23"/>
</g>
<!-- Node12&#45;&gt;Node11 -->
<g id="edge18" class="edge">
<title>Node12&#45;&gt;Node11</title>
<path fill="none" stroke="midnightblue" d="M1075,-56.08C1075,-49.01 1075,-38.86 1075,-29.99"/>
<polygon fill="midnightblue" stroke="midnightblue" points="1078.5,-29.75 1075,-19.75 1071.5,-29.75 1078.5,-29.75"/>
</g>
<!-- Node13&#45;&gt;Node12 -->
<g id="edge21" class="edge">
<title>Node13&#45;&gt;Node12</title>
<path fill="none" stroke="midnightblue" d="M852.83,-112.44C899.49,-102.9 974.93,-87.47 1024.75,-77.28"/>
<polygon fill="midnightblue" stroke="midnightblue" points="1025.57,-80.68 1034.66,-75.25 1024.16,-73.83 1025.57,-80.68"/>
</g>
<!-- Node15&#45;&gt;Node5 -->
<g id="edge25" class="edge">
<title>Node15&#45;&gt;Node5</title>
<path fill="none" stroke="midnightblue" d="M875.21,-168.38C887.52,-160.56 904.2,-147.83 913,-132 931.08,-99.47 932.84,-54.77 932.15,-29.81"/>
<polygon fill="midnightblue" stroke="midnightblue" points="935.64,-29.4 931.7,-19.57 928.65,-29.71 935.64,-29.4"/>
</g>
<!-- Node15&#45;&gt;Node13 -->
<g id="edge24" class="edge">
<title>Node15&#45;&gt;Node13</title>
<path fill="none" stroke="midnightblue" d="M851.91,-168.08C844.84,-160.3 834.41,-148.8 825.85,-139.37"/>
<polygon fill="midnightblue" stroke="midnightblue" points="828.25,-136.8 818.94,-131.75 823.07,-141.51 828.25,-136.8"/>
</g>
<!-- Node17&#45;&gt;Node3 -->
<g id="edge28" class="edge">
<title>Node17&#45;&gt;Node3</title>
<path fill="none" stroke="midnightblue" d="M73.62,-280.32C87.95,-271.82 110.01,-258.73 126.75,-248.8"/>
<polygon fill="midnightblue" stroke="midnightblue" points="128.6,-251.77 135.42,-243.65 125.03,-245.75 128.6,-251.77"/>
</g>
<!-- Node18&#45;&gt;Node5 -->
<g id="edge30" class="edge">
<title>Node18&#45;&gt;Node5</title>
<path fill="none" stroke="midnightblue" d="M394.01,-60.06C514.59,-49.05 802.63,-22.73 898.98,-13.93"/>
<polygon fill="midnightblue" stroke="midnightblue" points="899.35,-17.41 908.99,-13.01 898.72,-10.44 899.35,-17.41"/>
</g>
<!-- Node18&#45;&gt;Node10 -->
<g id="edge33" class="edge">
<title>Node18&#45;&gt;Node10</title>
<path fill="none" stroke="midnightblue" d="M384.05,-56.44C432.85,-46.96 511.56,-31.67 564.03,-21.48"/>
<polygon fill="midnightblue" stroke="midnightblue" points="565.01,-24.86 574.16,-19.52 563.67,-17.99 565.01,-24.86"/>
</g>
<!-- Node19 -->
<g id="node19" class="node">
<title>Node19</title>
<g id="a_node19"><a xlink:title=" ">
<polygon fill="white" stroke="#bfbfbf" points="293.5,-0.5 293.5,-19.5 324.5,-19.5 324.5,-0.5 293.5,-0.5"/>
<text text-anchor="middle" x="309" y="-7.5" font-family="Helvetica,sans-Serif" font-size="10.00">ios</text>
</a>
</g>
</g>
<!-- Node18&#45;&gt;Node19 -->
<g id="edge31" class="edge">
<title>Node18&#45;&gt;Node19</title>
<path fill="none" stroke="midnightblue" d="M334.88,-56.08C330.59,-48.61 324.34,-37.72 319.06,-28.52"/>
<polygon fill="midnightblue" stroke="midnightblue" points="322.04,-26.68 314.02,-19.75 315.97,-30.17 322.04,-26.68"/>
</g>
<!-- Node20 -->
<g id="node20" class="node">
<title>Node20</title>
<g id="a_node20"><a xlink:title=" ">
<polygon fill="white" stroke="#bfbfbf" points="343,-0.5 343,-19.5 399,-19.5 399,-0.5 343,-0.5"/>
<text text-anchor="middle" x="371" y="-7.5" font-family="Helvetica,sans-Serif" font-size="10.00">sstream</text>
</a>
</g>
</g>
<!-- Node18&#45;&gt;Node20 -->
<g id="edge32" class="edge">
<title>Node18&#45;&gt;Node20</title>
<path fill="none" stroke="midnightblue" d="M345.12,-56.08C349.41,-48.61 355.66,-37.72 360.94,-28.52"/>
<polygon fill="midnightblue" stroke="midnightblue" points="364.03,-30.17 365.98,-19.75 357.96,-26.68 364.03,-30.17"/>
</g>
<!-- Node21&#45;&gt;Node4 -->
<g id="edge53" class="edge">
<title>Node21&#45;&gt;Node4</title>
<path fill="none" stroke="midnightblue" d="M827.8,-336.45C801.64,-328.82 764.25,-316.33 734,-300 708.2,-286.07 681.76,-264.84 665.14,-250.47"/>
<polygon fill="midnightblue" stroke="midnightblue" points="667.21,-247.63 657.39,-243.65 662.59,-252.88 667.21,-247.63"/>
</g>
<!-- Node21&#45;&gt;Node15 -->
<g id="edge54" class="edge">
<title>Node21&#45;&gt;Node15</title>
<path fill="none" stroke="midnightblue" d="M860,-336.08C860,-309.95 860,-233.21 860,-197.58"/>
<polygon fill="midnightblue" stroke="midnightblue" points="863.5,-197.57 860,-187.57 856.5,-197.57 863.5,-197.57"/>
</g>
<!-- Node22 -->
<g id="node22" class="node">
<title>Node22</title>
<g id="a_node22"><a xlink:href="MemoryBus_8hpp.html" target="_top" xlink:title=" ">
<polygon fill="white" stroke="black" points="1323,-168.5 1323,-187.5 1463,-187.5 1463,-168.5 1323,-168.5"/>
<text text-anchor="middle" x="1393" y="-175.5" font-family="Helvetica,sans-Serif" font-size="10.00">Memory/MemoryBus.hpp</text>
</a>
</g>
</g>
<!-- Node21&#45;&gt;Node22 -->
<g id="edge35" class="edge">
<title>Node21&#45;&gt;Node22</title>
<path fill="none" stroke="midnightblue" d="M896.01,-342.86C1001.18,-335.88 1304.78,-310.27 1374,-244 1386.46,-232.07 1390.88,-212.45 1392.38,-197.89"/>
<polygon fill="midnightblue" stroke="midnightblue" points="1395.9,-197.74 1393.06,-187.53 1388.91,-197.28 1395.9,-197.74"/>
</g>
<!-- Node23 -->
<g id="node23" class="node">
<title>Node23</title>
<g id="a_node23"><a xlink:href="CPU_8hpp.html" target="_top" xlink:title=" ">
<polygon fill="white" stroke="black" points="743.5,-280.5 743.5,-299.5 824.5,-299.5 824.5,-280.5 743.5,-280.5"/>
<text text-anchor="middle" x="784" y="-287.5" font-family="Helvetica,sans-Serif" font-size="10.00">CPU/CPU.hpp</text>
</a>
</g>
</g>
<!-- Node21&#45;&gt;Node23 -->
<g id="edge40" class="edge">
<title>Node21&#45;&gt;Node23</title>
<path fill="none" stroke="midnightblue" d="M847.79,-336.32C836.22,-328.11 818.62,-315.6 804.84,-305.81"/>
<polygon fill="midnightblue" stroke="midnightblue" points="806.61,-302.77 796.43,-299.83 802.56,-308.48 806.61,-302.77"/>
</g>
<!-- Node26 -->
<g id="node26" class="node">
<title>Node26</title>
<g id="a_node26"><a xlink:href="PPU_8hpp.html" target="_top" xlink:title=" ">
<polygon fill="white" stroke="black" points="1179,-224.5 1179,-243.5 1259,-243.5 1259,-224.5 1179,-224.5"/>
<text text-anchor="middle" x="1219" y="-231.5" font-family="Helvetica,sans-Serif" font-size="10.00">PPU/PPU.hpp</text>
</a>
</g>
</g>
<!-- Node21&#45;&gt;Node26 -->
<g id="edge55" class="edge">
<title>Node21&#45;&gt;Node26</title>
<path fill="none" stroke="midnightblue" d="M896.16,-342.73C946.12,-338.67 1038.42,-327.81 1112,-300 1144.94,-287.55 1179.05,-264.82 1199.65,-249.81"/>
<polygon fill="midnightblue" stroke="midnightblue" points="1201.92,-252.49 1207.86,-243.72 1197.74,-246.87 1201.92,-252.49"/>
</g>
<!-- Node27 -->
<g id="node27" class="node">
<title>Node27</title>
<g id="a_node27"><a xlink:href="IRenderer_8hpp.html" target="_top" xlink:title=" ">
<polygon fill="white" stroke="black" points="1051,-168.5 1051,-187.5 1191,-187.5 1191,-168.5 1051,-168.5"/>
<text text-anchor="middle" x="1121" y="-175.5" font-family="Helvetica,sans-Serif" font-size="10.00">../Renderer/IRenderer.hpp</text>
</a>
</g>
</g>
<!-- Node21&#45;&gt;Node27 -->
<g id="edge77" class="edge">
<title>Node21&#45;&gt;Node27</title>
<path fill="none" stroke="midnightblue" d="M888.69,-336.43C932.1,-322.42 1015.5,-291.35 1073,-244 1089.19,-230.67 1102.84,-210.74 1111.4,-196.47"/>
<polygon fill="midnightblue" stroke="midnightblue" points="1114.52,-198.05 1116.47,-187.64 1108.45,-194.56 1114.52,-198.05"/>
</g>
<!-- Node32 -->
<g id="node32" class="node">
<title>Node32</title>
<g id="a_node32"><a xlink:href="APU_8hpp.html" target="_top" xlink:title=" ">
<polygon fill="white" stroke="black" points="982.5,-224.5 982.5,-243.5 1063.5,-243.5 1063.5,-224.5 982.5,-224.5"/>
<text text-anchor="middle" x="1023" y="-231.5" font-family="Helvetica,sans-Serif" font-size="10.00">APU/APU.hpp</text>
</a>
</g>
</g>
<!-- Node21&#45;&gt;Node32 -->
<g id="edge66" class="edge">
<title>Node21&#45;&gt;Node32</title>
<path fill="none" stroke="midnightblue" d="M872.79,-336.37C900.76,-317.49 967.6,-272.38 1001.9,-249.24"/>
<polygon fill="midnightblue" stroke="midnightblue" points="1003.94,-252.09 1010.27,-243.59 1000.02,-246.28 1003.94,-252.09"/>
</g>
<!-- Node36 -->
<g id="node36" class="node">
<title>Node36</title>
<g id="a_node36"><a xlink:href="DebuggableError_8hpp.html" target="_top" xlink:title=" ">
<polygon fill="white" stroke="black" points="387.5,-280.5 387.5,-299.5 562.5,-299.5 562.5,-280.5 387.5,-280.5"/>
<text text-anchor="middle" x="475" y="-287.5" font-family="Helvetica,sans-Serif" font-size="10.00">Exceptions/DebuggableError.hpp</text>
</a>
</g>
</g>
<!-- Node21&#45;&gt;Node36 -->
<g id="edge78" class="edge">
<title>Node21&#45;&gt;Node36</title>
<path fill="none" stroke="midnightblue" d="M823.78,-339.92C760.35,-331.02 628.1,-312.47 545.91,-300.95"/>
<polygon fill="midnightblue" stroke="midnightblue" points="546.29,-297.46 535.9,-299.54 545.32,-304.4 546.29,-297.46"/>
</g>
<!-- Node22&#45;&gt;Node6 -->
<g id="edge39" class="edge">
<title>Node22&#45;&gt;Node6</title>
<path fill="none" stroke="midnightblue" d="M1347.05,-168.44C1295.93,-158.92 1213.35,-143.55 1158.62,-133.36"/>
<polygon fill="midnightblue" stroke="midnightblue" points="1159.21,-129.91 1148.74,-131.52 1157.93,-136.79 1159.21,-129.91"/>
</g>
<!-- Node22&#45;&gt;Node7 -->
<g id="edge36" class="edge">
<title>Node22&#45;&gt;Node7</title>
<path fill="none" stroke="midnightblue" d="M1396.01,-168.08C1404.86,-141.83 1430.94,-64.55 1442.89,-29.12"/>
<polygon fill="midnightblue" stroke="midnightblue" points="1446.23,-30.16 1446.11,-19.57 1439.6,-27.92 1446.23,-30.16"/>
</g>
<!-- Node22&#45;&gt;Node8 -->
<g id="edge37" class="edge">
<title>Node22&#45;&gt;Node8</title>
<path fill="none" stroke="midnightblue" d="M1382.37,-168.31C1349.62,-141.53 1249.96,-60.03 1208.45,-26.09"/>
<polygon fill="midnightblue" stroke="midnightblue" points="1210.48,-23.23 1200.52,-19.61 1206.05,-28.64 1210.48,-23.23"/>
</g>
<!-- Node22&#45;&gt;Node9 -->
<g id="edge38" class="edge">
<title>Node22&#45;&gt;Node9</title>
<path fill="none" stroke="midnightblue" d="M1387.73,-168.08C1372.1,-141.61 1325.82,-63.21 1305.16,-28.21"/>
<polygon fill="midnightblue" stroke="midnightblue" points="1308.16,-26.4 1300.06,-19.57 1302.13,-29.96 1308.16,-26.4"/>
</g>
<!-- Node23&#45;&gt;Node4 -->
<g id="edge44" class="edge">
<title>Node23&#45;&gt;Node4</title>
<path fill="none" stroke="midnightblue" d="M762.45,-280.44C739.97,-271.52 704.51,-257.44 679.02,-247.32"/>
<polygon fill="midnightblue" stroke="midnightblue" points="680.03,-243.95 669.45,-243.52 677.45,-250.46 680.03,-243.95"/>
</g>
<!-- Node23&#45;&gt;Node6 -->
<g id="edge41" class="edge">
<title>Node23&#45;&gt;Node6</title>
<path fill="none" stroke="midnightblue" d="M782.42,-280.48C778.85,-258.38 772.76,-198.79 804,-168 834.37,-138.07 946.6,-128 1024.57,-124.64"/>
<polygon fill="midnightblue" stroke="midnightblue" points="1025,-128.13 1034.86,-124.23 1024.72,-121.14 1025,-128.13"/>
</g>
<!-- Node23&#45;&gt;Node10 -->
<g id="edge43" class="edge">
<title>Node23&#45;&gt;Node10</title>
<path fill="none" stroke="midnightblue" d="M743.4,-284.1C699.43,-277.97 627.7,-265.57 569,-244 520.09,-226.03 492.63,-232.79 466,-188 433.86,-133.94 466.77,-93.85 517,-56 536.1,-41.6 560.54,-30.56 580.59,-23.02"/>
<polygon fill="midnightblue" stroke="midnightblue" points="581.83,-26.29 590.04,-19.6 579.44,-19.71 581.83,-26.29"/>
</g>
<!-- Node23&#45;&gt;Node22 -->
<g id="edge42" class="edge">
<title>Node23&#45;&gt;Node22</title>
<path fill="none" stroke="midnightblue" d="M824.79,-283.29C880.85,-275.3 984.81,-259.95 1073,-244 1116.32,-236.17 1126.87,-232.8 1170,-224 1228.28,-212.11 1295.17,-198.64 1340.37,-189.56"/>
<polygon fill="midnightblue" stroke="midnightblue" points="1341.12,-192.97 1350.24,-187.57 1339.75,-186.11 1341.12,-192.97"/>
</g>
<!-- Node24 -->
<g id="node24" class="node">
<title>Node24</title>
<g id="a_node24"><a xlink:href="Instruction_8hpp.html" target="_top" xlink:title=" ">
<polygon fill="white" stroke="black" points="573.5,-56.5 573.5,-75.5 662.5,-75.5 662.5,-56.5 573.5,-56.5"/>
<text text-anchor="middle" x="618" y="-63.5" font-family="Helvetica,sans-Serif" font-size="10.00">Instruction.hpp</text>
</a>
</g>
</g>
<!-- Node23&#45;&gt;Node24 -->
<g id="edge45" class="edge">
<title>Node23&#45;&gt;Node24</title>
<path fill="none" stroke="midnightblue" d="M777.49,-280.3C752.71,-247.15 663.92,-128.41 630.68,-83.96"/>
<polygon fill="midnightblue" stroke="midnightblue" points="633.43,-81.8 624.64,-75.88 627.83,-85.99 633.43,-81.8"/>
</g>
<!-- Node25 -->
<g id="node25" class="node">
<title>Node25</title>
<g id="a_node25"><a xlink:href="DMA_8hpp.html" target="_top" xlink:title=" ">
<polygon fill="white" stroke="black" points="1277.5,-224.5 1277.5,-243.5 1364.5,-243.5 1364.5,-224.5 1277.5,-224.5"/>
<text text-anchor="middle" x="1321" y="-231.5" font-family="Helvetica,sans-Serif" font-size="10.00">DMA/DMA.hpp</text>
</a>
</g>
</g>
<!-- Node23&#45;&gt;Node25 -->
<g id="edge48" class="edge">
<title>Node23&#45;&gt;Node25</title>
<path fill="none" stroke="midnightblue" d="M824.59,-286.27C906.33,-280.54 1096.77,-266.06 1267.45,-243.97"/>
<polygon fill="midnightblue" stroke="midnightblue" points="1267.9,-247.44 1277.37,-242.68 1267,-240.5 1267.9,-247.44"/>
</g>
<!-- Node24&#45;&gt;Node5 -->
<g id="edge46" class="edge">
<title>Node24&#45;&gt;Node5</title>
<path fill="none" stroke="midnightblue" d="M662.51,-57.32C726.41,-46.3 842.62,-26.25 898.83,-16.55"/>
<polygon fill="midnightblue" stroke="midnightblue" points="899.66,-19.96 908.92,-14.81 898.47,-13.06 899.66,-19.96"/>
</g>
<!-- Node24&#45;&gt;Node10 -->
<g id="edge47" class="edge">
<title>Node24&#45;&gt;Node10</title>
<path fill="none" stroke="midnightblue" d="M618,-56.08C618,-49.01 618,-38.86 618,-29.99"/>
<polygon fill="midnightblue" stroke="midnightblue" points="621.5,-29.75 618,-19.75 614.5,-29.75 621.5,-29.75"/>
</g>
<!-- Node25&#45;&gt;Node7 -->
<g id="edge49" class="edge">
<title>Node25&#45;&gt;Node7</title>
<path fill="none" stroke="midnightblue" d="M1364.7,-231.47C1431.19,-228.2 1553.18,-218.14 1583,-188 1624.64,-145.91 1636.43,-103.44 1601,-56 1574.25,-20.18 1520.23,-11.7 1484.33,-10.29"/>
<polygon fill="midnightblue" stroke="midnightblue" points="1484.35,-6.78 1474.27,-10.05 1484.19,-13.78 1484.35,-6.78"/>
</g>
<!-- Node25&#45;&gt;Node9 -->
<g id="edge50" class="edge">
<title>Node25&#45;&gt;Node9</title>
<path fill="none" stroke="midnightblue" d="M1364.61,-231.53C1428.47,-228.35 1542.59,-218.46 1568,-188 1573.69,-181.17 1569.38,-176.78 1568,-168 1563.95,-142.17 1567.86,-131.09 1550,-112 1491.77,-49.78 1390.33,-25.2 1334.56,-16.03"/>
<polygon fill="midnightblue" stroke="midnightblue" points="1334.78,-12.52 1324.36,-14.45 1333.71,-19.44 1334.78,-12.52"/>
</g>
<!-- Node25&#45;&gt;Node10 -->
<g id="edge51" class="edge">
<title>Node25&#45;&gt;Node10</title>
<path fill="none" stroke="midnightblue" d="M1308.16,-224.48C1286.67,-210.6 1241.69,-183.15 1200,-168 1125.78,-141.03 1102.59,-151.24 1026,-132 887.02,-97.08 724.43,-45.61 653.78,-22.72"/>
<polygon fill="midnightblue" stroke="midnightblue" points="654.63,-19.32 644.04,-19.56 652.47,-25.98 654.63,-19.32"/>
</g>
<!-- Node25&#45;&gt;Node22 -->
<g id="edge52" class="edge">
<title>Node25&#45;&gt;Node22</title>
<path fill="none" stroke="midnightblue" d="M1332.57,-224.32C1343.42,-216.18 1359.88,-203.84 1372.88,-194.09"/>
<polygon fill="midnightblue" stroke="midnightblue" points="1375.32,-196.63 1381.22,-187.83 1371.12,-191.03 1375.32,-196.63"/>
</g>
<!-- Node26&#45;&gt;Node6 -->
<g id="edge57" class="edge">
<title>Node26&#45;&gt;Node6</title>
<path fill="none" stroke="midnightblue" d="M1218.68,-224.36C1217.75,-210.8 1214.11,-184.4 1200,-168 1186.49,-152.3 1166.34,-141.74 1147.9,-134.82"/>
<polygon fill="midnightblue" stroke="midnightblue" points="1149.05,-131.51 1138.45,-131.52 1146.74,-138.12 1149.05,-131.51"/>
</g>
<!-- Node26&#45;&gt;Node7 -->
<g id="edge56" class="edge">
<title>Node26&#45;&gt;Node7</title>
<path fill="none" stroke="midnightblue" d="M1259.08,-225.57C1262.43,-225.02 1265.77,-224.48 1269,-224 1335.18,-214.07 1523.6,-238.07 1568,-188 1616.83,-132.94 1518.11,-56.69 1471.52,-25.34"/>
<polygon fill="midnightblue" stroke="midnightblue" points="1473.23,-22.27 1462.95,-19.68 1469.37,-28.11 1473.23,-22.27"/>
</g>
<!-- Node26&#45;&gt;Node15 -->
<g id="edge62" class="edge">
<title>Node26&#45;&gt;Node15</title>
<path fill="none" stroke="midnightblue" d="M1178.93,-227.14C1122.93,-218.93 1017.84,-203.43 917.58,-188.08"/>
<polygon fill="midnightblue" stroke="midnightblue" points="918,-184.6 907.58,-186.54 916.93,-191.52 918,-184.6"/>
</g>
<!-- Node26&#45;&gt;Node22 -->
<g id="edge58" class="edge">
<title>Node26&#45;&gt;Node22</title>
<path fill="none" stroke="midnightblue" d="M1246.57,-224.44C1276.1,-215.28 1323.12,-200.69 1355.88,-190.52"/>
<polygon fill="midnightblue" stroke="midnightblue" points="1357.04,-193.82 1365.56,-187.52 1354.97,-187.14 1357.04,-193.82"/>
</g>
<!-- Node26&#45;&gt;Node27 -->
<g id="edge59" class="edge">
<title>Node26&#45;&gt;Node27</title>
<path fill="none" stroke="midnightblue" d="M1203.25,-224.32C1187.68,-215.74 1163.62,-202.49 1145.54,-192.52"/>
<polygon fill="midnightblue" stroke="midnightblue" points="1147.15,-189.42 1136.71,-187.65 1143.78,-195.55 1147.15,-189.42"/>
</g>
<!-- Node29 -->
<g id="node29" class="node">
<title>Node29</title>
<g id="a_node29"><a xlink:href="Vector2_8hpp.html" target="_top" xlink:title=" ">
<polygon fill="white" stroke="black" points="1702,-168.5 1702,-187.5 1824,-187.5 1824,-168.5 1702,-168.5"/>
<text text-anchor="middle" x="1763" y="-175.5" font-family="Helvetica,sans-Serif" font-size="10.00">../Models/Vector2.hpp</text>
</a>
</g>
</g>
<!-- Node26&#45;&gt;Node29 -->
<g id="edge63" class="edge">
<title>Node26&#45;&gt;Node29</title>
<path fill="none" stroke="midnightblue" d="M1259.07,-225.47C1262.42,-224.94 1265.77,-224.44 1269,-224 1418.86,-203.73 1595.57,-190.09 1691.78,-183.53"/>
<polygon fill="midnightblue" stroke="midnightblue" points="1692.23,-187.01 1701.97,-182.84 1691.75,-180.02 1692.23,-187.01"/>
</g>
<!-- Node27&#45;&gt;Node5 -->
<g id="edge60" class="edge">
<title>Node27&#45;&gt;Node5</title>
<path fill="none" stroke="midnightblue" d="M1094.99,-168.42C1074.79,-160.92 1046.82,-148.62 1026,-132 988.25,-101.86 956.41,-53.9 940.98,-28.35"/>
<polygon fill="midnightblue" stroke="midnightblue" points="944,-26.57 935.9,-19.74 937.97,-30.13 944,-26.57"/>
</g>
<!-- Node28 -->
<g id="node28" class="node">
<title>Node28</title>
<g id="a_node28"><a xlink:title=" ">
<polygon fill="white" stroke="#bfbfbf" points="1189,-112.5 1189,-131.5 1229,-131.5 1229,-112.5 1189,-112.5"/>
<text text-anchor="middle" x="1209" y="-119.5" font-family="Helvetica,sans-Serif" font-size="10.00">span</text>
</a>
</g>
</g>
<!-- Node27&#45;&gt;Node28 -->
<g id="edge61" class="edge">
<title>Node27&#45;&gt;Node28</title>
<path fill="none" stroke="midnightblue" d="M1135.14,-168.32C1148.87,-159.9 1169.94,-146.97 1186.06,-137.07"/>
<polygon fill="midnightblue" stroke="midnightblue" points="1188.2,-139.87 1194.9,-131.65 1184.54,-133.9 1188.2,-139.87"/>
</g>
<!-- Node30 -->
<g id="node30" class="node">
<title>Node30</title>
<g id="a_node30"><a xlink:title=" ">
<polygon fill="white" stroke="#bfbfbf" points="1852.5,-112.5 1852.5,-131.5 1909.5,-131.5 1909.5,-112.5 1852.5,-112.5"/>
<text text-anchor="middle" x="1881" y="-119.5" font-family="Helvetica,sans-Serif" font-size="10.00">ostream</text>
</a>
</g>
</g>
<!-- Node29&#45;&gt;Node30 -->
<g id="edge64" class="edge">
<title>Node29&#45;&gt;Node30</title>
<path fill="none" stroke="midnightblue" d="M1781.7,-168.44C1800.94,-159.64 1831.15,-145.81 1853.2,-135.72"/>
<polygon fill="midnightblue" stroke="midnightblue" points="1854.75,-138.86 1862.39,-131.52 1851.84,-132.5 1854.75,-138.86"/>
</g>
<!-- Node31 -->
<g id="node31" class="node">
<title>Node31</title>
<g id="a_node31"><a xlink:title=" ">
<polygon fill="white" stroke="#bfbfbf" points="1691.5,-112.5 1691.5,-131.5 1834.5,-131.5 1834.5,-112.5 1691.5,-112.5"/>
<text text-anchor="middle" x="1763" y="-119.5" font-family="Helvetica,sans-Serif" font-size="10.00">SFML/System/Vector2.hpp</text>
</a>
</g>
</g>
<!-- Node29&#45;&gt;Node31 -->
<g id="edge65" class="edge">
<title>Node29&#45;&gt;Node31</title>
<path fill="none" stroke="midnightblue" d="M1763,-168.08C1763,-161.01 1763,-150.86 1763,-141.99"/>
<polygon fill="midnightblue" stroke="midnightblue" points="1766.5,-141.75 1763,-131.75 1759.5,-141.75 1766.5,-141.75"/>
</g>
<!-- Node32&#45;&gt;Node6 -->
<g id="edge72" class="edge">
<title>Node32&#45;&gt;Node6</title>
<path fill="none" stroke="midnightblue" d="M1023.77,-224.24C1025.31,-210.99 1029.75,-185.54 1042,-168 1050.95,-155.19 1064.72,-144.58 1076.91,-136.89"/>
<polygon fill="midnightblue" stroke="midnightblue" points="1079.02,-139.71 1085.82,-131.59 1075.44,-133.69 1079.02,-139.71"/>
</g>
<!-- Node32&#45;&gt;Node9 -->
<g id="edge67" class="edge">
<title>Node32&#45;&gt;Node9</title>
<path fill="none" stroke="midnightblue" d="M1062.79,-224.45C1111.44,-213.76 1188.74,-195.9 1200,-188 1255.63,-148.97 1281.61,-66.82 1290.85,-29.8"/>
<polygon fill="midnightblue" stroke="midnightblue" points="1294.31,-30.39 1293.19,-19.85 1287.49,-28.78 1294.31,-30.39"/>
</g>
<!-- Node32&#45;&gt;Node15 -->
<g id="edge73" class="edge">
<title>Node32&#45;&gt;Node15</title>
<path fill="none" stroke="midnightblue" d="M997.17,-224.44C969.75,-215.36 926.22,-200.94 895.57,-190.78"/>
<polygon fill="midnightblue" stroke="midnightblue" points="896.3,-187.34 885.71,-187.52 894.1,-193.98 896.3,-187.34"/>
</g>
<!-- Node32&#45;&gt;Node27 -->
<g id="edge76" class="edge">
<title>Node32&#45;&gt;Node27</title>
<path fill="none" stroke="midnightblue" d="M1038.75,-224.32C1054.32,-215.74 1078.38,-202.49 1096.46,-192.52"/>
<polygon fill="midnightblue" stroke="midnightblue" points="1098.22,-195.55 1105.29,-187.65 1094.85,-189.42 1098.22,-195.55"/>
</g>
<!-- Node33 -->
<g id="node33" class="node">
<title>Node33</title>
<g id="a_node33"><a xlink:href="DSP_8hpp.html" target="_top" xlink:title=" ">
<polygon fill="white" stroke="black" points="1481,-168.5 1481,-187.5 1559,-187.5 1559,-168.5 1481,-168.5"/>
<text text-anchor="middle" x="1520" y="-175.5" font-family="Helvetica,sans-Serif" font-size="10.00">DSP/DSP.hpp</text>
</a>
</g>
</g>
<!-- Node32&#45;&gt;Node33 -->
<g id="edge68" class="edge">
<title>Node32&#45;&gt;Node33</title>
<path fill="none" stroke="midnightblue" d="M1063.69,-230.09C1140.98,-224.32 1314.48,-210.15 1470.5,-188.1"/>
<polygon fill="midnightblue" stroke="midnightblue" points="1471.35,-191.52 1480.75,-186.64 1470.36,-184.59 1471.35,-191.52"/>
</g>
<!-- Node35 -->
<g id="node35" class="node">
<title>Node35</title>
<g id="a_node35"><a xlink:href="IPL_8hpp.html" target="_top" xlink:title=" ">
<polygon fill="white" stroke="black" points="925.5,-168.5 925.5,-187.5 994.5,-187.5 994.5,-168.5 925.5,-168.5"/>
<text text-anchor="middle" x="960" y="-175.5" font-family="Helvetica,sans-Serif" font-size="10.00">IPL/IPL.hpp</text>
</a>
</g>
</g>
<!-- Node32&#45;&gt;Node35 -->
<g id="edge74" class="edge">
<title>Node32&#45;&gt;Node35</title>
<path fill="none" stroke="midnightblue" d="M1012.88,-224.32C1003.47,-216.26 989.26,-204.08 977.93,-194.37"/>
<polygon fill="midnightblue" stroke="midnightblue" points="980.18,-191.68 970.31,-187.83 975.62,-197 980.18,-191.68"/>
</g>
<!-- Node33&#45;&gt;Node6 -->
<g id="edge71" class="edge">
<title>Node33&#45;&gt;Node6</title>
<path fill="none" stroke="midnightblue" d="M1480.74,-169.43C1477.79,-168.92 1474.85,-168.44 1472,-168 1444.02,-163.68 1281.03,-144.14 1181.26,-132.27"/>
<polygon fill="midnightblue" stroke="midnightblue" points="1181.55,-128.78 1171.21,-131.08 1180.73,-135.73 1181.55,-128.78"/>
</g>
<!-- Node33&#45;&gt;Node7 -->
<g id="edge69" class="edge">
<title>Node33&#45;&gt;Node7</title>
<path fill="none" stroke="midnightblue" d="M1513.31,-168.45C1506.69,-159.69 1496.63,-145.48 1490,-132 1472.92,-97.3 1460.09,-53.73 1453.64,-29.47"/>
<polygon fill="midnightblue" stroke="midnightblue" points="1456.95,-28.32 1451.06,-19.51 1450.18,-30.07 1456.95,-28.32"/>
</g>
<!-- Node34 -->
<g id="node34" class="node">
<title>Node34</title>
<g id="a_node34"><a xlink:title=" ">
<polygon fill="white" stroke="#bfbfbf" points="1499,-112.5 1499,-131.5 1541,-131.5 1541,-112.5 1499,-112.5"/>
<text text-anchor="middle" x="1520" y="-119.5" font-family="Helvetica,sans-Serif" font-size="10.00">array</text>
</a>
</g>
</g>
<!-- Node33&#45;&gt;Node34 -->
<g id="edge70" class="edge">
<title>Node33&#45;&gt;Node34</title>
<path fill="none" stroke="midnightblue" d="M1520,-168.08C1520,-161.01 1520,-150.86 1520,-141.99"/>
<polygon fill="midnightblue" stroke="midnightblue" points="1523.5,-141.75 1520,-131.75 1516.5,-141.75 1523.5,-141.75"/>
</g>
<!-- Node35&#45;&gt;Node6 -->
<g id="edge75" class="edge">
<title>Node35&#45;&gt;Node6</title>
<path fill="none" stroke="midnightblue" d="M982.66,-168.44C1006.4,-159.48 1043.91,-145.31 1070.74,-135.18"/>
<polygon fill="midnightblue" stroke="midnightblue" points="1072.33,-138.32 1080.45,-131.52 1069.86,-131.77 1072.33,-138.32"/>
</g>
<!-- Node37 -->
<g id="node37" class="node">
<title>Node37</title>
<g id="a_node37"><a xlink:title=" ">
<polygon fill="white" stroke="#bfbfbf" points="368.5,-224.5 368.5,-243.5 463.5,-243.5 463.5,-224.5 368.5,-224.5"/>
<text text-anchor="middle" x="416" y="-231.5" font-family="Helvetica,sans-Serif" font-size="10.00">bits/exception.h</text>
</a>
</g>
</g>
<!-- Node36&#45;&gt;Node37 -->
<g id="edge79" class="edge">
<title>Node36&#45;&gt;Node37</title>
<path fill="none" stroke="midnightblue" d="M465.52,-280.32C456.8,-272.34 443.66,-260.31 433.1,-250.65"/>
<polygon fill="midnightblue" stroke="midnightblue" points="435.39,-248 425.65,-243.83 430.67,-253.17 435.39,-248"/>
</g>
</g>
</svg>
