<?xml version="1.0" encoding="UTF-8" standalone="no"?>
<!DOCTYPE svg PUBLIC "-//W3C//DTD SVG 1.1//EN"
 "http://www.w3.org/Graphics/SVG/1.1/DTD/svg11.dtd">
<!-- Generated by graphviz version 2.43.0 (0)
 -->
<!-- Title: sources/Debugger/HeaderViewer.hpp Pages: 1 -->
<svg width="740pt" height="308pt"
 viewBox="0.00 0.00 739.50 308.00" xmlns="http://www.w3.org/2000/svg" xmlns:xlink="http://www.w3.org/1999/xlink">
<g id="graph0" class="graph" transform="scale(1 1) rotate(0) translate(4 304)">
<title>sources/Debugger/HeaderViewer.hpp</title>
<polygon fill="white" stroke="transparent" points="-4,4 -4,-304 735.5,-304 735.5,4 -4,4"/>
<!-- Node1 -->
<g id="node1" class="node">
<title>Node1</title>
<g id="a_node1"><a xlink:title=" ">
<polygon fill="#bfbfbf" stroke="black" points="144,-280.5 144,-299.5 341,-299.5 341,-280.5 144,-280.5"/>
<text text-anchor="middle" x="242.5" y="-287.5" font-family="Helvetica,sans-Serif" font-size="10.00">sources/Debugger/HeaderViewer.hpp</text>
</a>
</g>
</g>
<!-- Node2 -->
<g id="node2" class="node">
<title>Node2</title>
<g id="a_node2"><a xlink:title=" ">
<polygon fill="white" stroke="#bfbfbf" points="0,-168.5 0,-187.5 141,-187.5 141,-168.5 0,-168.5"/>
<text text-anchor="middle" x="70.5" y="-175.5" font-family="Helvetica,sans-Serif" font-size="10.00">QtWidgets/QMainWindow</text>
</a>
</g>
</g>
<!-- Node1&#45;&gt;Node2 -->
<g id="edge1" class="edge">
<title>Node1&#45;&gt;Node2</title>
<path fill="none" stroke="midnightblue" d="M180.15,-280.43C153.42,-274.09 123.38,-263.09 101.5,-244 87.69,-231.95 79.53,-212.38 75.08,-197.86"/>
<polygon fill="midnightblue" stroke="midnightblue" points="78.38,-196.67 72.36,-187.94 71.63,-198.51 78.38,-196.67"/>
</g>
<!-- Node3 -->
<g id="node3" class="node">
<title>Node3</title>
<g id="a_node3"><a xlink:href="Cartridge_8hpp.html" target="_top" xlink:title=" ">
<polygon fill="white" stroke="black" points="248.5,-224.5 248.5,-243.5 388.5,-243.5 388.5,-224.5 248.5,-224.5"/>
<text text-anchor="middle" x="318.5" y="-231.5" font-family="Helvetica,sans-Serif" font-size="10.00">../Cartridge/Cartridge.hpp</text>
</a>
</g>
</g>
<!-- Node1&#45;&gt;Node3 -->
<g id="edge2" class="edge">
<title>Node1&#45;&gt;Node3</title>
<path fill="none" stroke="midnightblue" d="M254.71,-280.32C266.28,-272.11 283.88,-259.6 297.66,-249.81"/>
<polygon fill="midnightblue" stroke="midnightblue" points="299.94,-252.48 306.07,-243.83 295.89,-246.77 299.94,-252.48"/>
</g>
<!-- Node15 -->
<g id="node15" class="node">
<title>Node15</title>
<g id="a_node15"><a xlink:title=" ">
<polygon fill="white" stroke="#bfbfbf" points="407,-224.5 407,-243.5 544,-243.5 544,-224.5 407,-224.5"/>
<text text-anchor="middle" x="475.5" y="-231.5" font-family="Helvetica,sans-Serif" font-size="10.00">../../ui/ui_cartridgeView.h</text>
</a>
</g>
</g>
<!-- Node1&#45;&gt;Node15 -->
<g id="edge25" class="edge">
<title>Node1&#45;&gt;Node15</title>
<path fill="none" stroke="midnightblue" d="M279.42,-280.44C319.9,-271.06 384.92,-255.99 428.88,-245.8"/>
<polygon fill="midnightblue" stroke="midnightblue" points="429.8,-249.18 438.75,-243.52 428.22,-242.36 429.8,-249.18"/>
</g>
<!-- Node16 -->
<g id="node16" class="node">
<title>Node16</title>
<g id="a_node16"><a xlink:href="ClosableWindow_8hpp.html" target="_top" xlink:title=" ">
<polygon fill="white" stroke="black" points="110.5,-224.5 110.5,-243.5 228.5,-243.5 228.5,-224.5 110.5,-224.5"/>
<text text-anchor="middle" x="169.5" y="-231.5" font-family="Helvetica,sans-Serif" font-size="10.00">ClosableWindow.hpp</text>
</a>
</g>
</g>
<!-- Node1&#45;&gt;Node16 -->
<g id="edge26" class="edge">
<title>Node1&#45;&gt;Node16</title>
<path fill="none" stroke="midnightblue" d="M230.77,-280.32C219.66,-272.11 202.76,-259.6 189.52,-249.81"/>
<polygon fill="midnightblue" stroke="midnightblue" points="191.56,-246.97 181.44,-243.83 187.4,-252.59 191.56,-246.97"/>
</g>
<!-- Node4 -->
<g id="node4" class="node">
<title>Node4</title>
<g id="a_node4"><a xlink:title=" ">
<polygon fill="white" stroke="#bfbfbf" points="185.5,-0.5 185.5,-19.5 229.5,-19.5 229.5,-0.5 185.5,-0.5"/>
<text text-anchor="middle" x="207.5" y="-7.5" font-family="Helvetica,sans-Serif" font-size="10.00">string</text>
</a>
</g>
</g>
<!-- Node3&#45;&gt;Node4 -->
<g id="edge3" class="edge">
<title>Node3&#45;&gt;Node4</title>
<path fill="none" stroke="midnightblue" d="M248.47,-224.78C225.92,-218.43 203.24,-207.34 189.5,-188 154.97,-139.39 182.75,-63.45 198.5,-29.04"/>
<polygon fill="midnightblue" stroke="midnightblue" points="201.78,-30.3 202.92,-19.76 195.46,-27.28 201.78,-30.3"/>
</g>
<!-- Node5 -->
<g id="node5" class="node">
<title>Node5</title>
<g id="a_node5"><a xlink:href="AMemory_8hpp.html" target="_top" xlink:title=" ">
<polygon fill="white" stroke="black" points="438.5,-112.5 438.5,-131.5 574.5,-131.5 574.5,-112.5 438.5,-112.5"/>
<text text-anchor="middle" x="506.5" y="-119.5" font-family="Helvetica,sans-Serif" font-size="10.00">../Memory/AMemory.hpp</text>
</a>
</g>
</g>
<!-- Node3&#45;&gt;Node5 -->
<g id="edge4" class="edge">
<title>Node3&#45;&gt;Node5</title>
<path fill="none" stroke="midnightblue" d="M318.91,-224.48C320.06,-210.61 324.36,-183.18 340.5,-168 355.77,-153.64 404.24,-141.49 444.88,-133.45"/>
<polygon fill="midnightblue" stroke="midnightblue" points="445.6,-136.88 454.76,-131.55 444.27,-130.01 445.6,-136.88"/>
</g>
<!-- Node9 -->
<g id="node9" class="node">
<title>Node9</title>
<g id="a_node9"><a xlink:href="Int24_8hpp.html" target="_top" xlink:title=" ">
<polygon fill="white" stroke="black" points="621.5,-0.5 621.5,-19.5 731.5,-19.5 731.5,-0.5 621.5,-0.5"/>
<text text-anchor="middle" x="676.5" y="-7.5" font-family="Helvetica,sans-Serif" font-size="10.00">../Models/Int24.hpp</text>
</a>
</g>
</g>
<!-- Node3&#45;&gt;Node9 -->
<g id="edge18" class="edge">
<title>Node3&#45;&gt;Node9</title>
<path fill="none" stroke="midnightblue" d="M371.7,-224.46C429.86,-212.68 522.84,-186.41 583.5,-132 618.85,-100.3 650.28,-53.68 665.96,-28.57"/>
<polygon fill="midnightblue" stroke="midnightblue" points="669.1,-30.15 671.34,-19.79 663.13,-26.49 669.1,-30.15"/>
</g>
<!-- Node12 -->
<g id="node12" class="node">
<title>Node12</title>
<g id="a_node12"><a xlink:href="ARectangleMemory_8hpp.html" target="_top" xlink:title=" ">
<polygon fill="white" stroke="black" points="235,-112.5 235,-131.5 420,-131.5 420,-112.5 235,-112.5"/>
<text text-anchor="middle" x="327.5" y="-119.5" font-family="Helvetica,sans-Serif" font-size="10.00">../Memory/ARectangleMemory.hpp</text>
</a>
</g>
</g>
<!-- Node3&#45;&gt;Node12 -->
<g id="edge19" class="edge">
<title>Node3&#45;&gt;Node12</title>
<path fill="none" stroke="midnightblue" d="M372.49,-224.48C412.46,-216.94 462.04,-204.56 474.5,-188 496.49,-158.77 457.42,-142.43 414.05,-133.45"/>
<polygon fill="midnightblue" stroke="midnightblue" points="414.64,-130 404.16,-131.53 413.31,-136.87 414.64,-130"/>
</g>
<!-- Node13 -->
<g id="node13" class="node">
<title>Node13</title>
<g id="a_node13"><a xlink:href="InterruptVectors_8hpp.html" target="_top" xlink:title=" ">
<polygon fill="white" stroke="black" points="349.5,-168.5 349.5,-187.5 465.5,-187.5 465.5,-168.5 349.5,-168.5"/>
<text text-anchor="middle" x="407.5" y="-175.5" font-family="Helvetica,sans-Serif" font-size="10.00">InterruptVectors.hpp</text>
</a>
</g>
</g>
<!-- Node3&#45;&gt;Node13 -->
<g id="edge21" class="edge">
<title>Node3&#45;&gt;Node13</title>
<path fill="none" stroke="midnightblue" d="M332.8,-224.32C346.68,-215.9 367.99,-202.97 384.3,-193.07"/>
<polygon fill="midnightblue" stroke="midnightblue" points="386.5,-195.83 393.24,-187.65 382.87,-189.85 386.5,-195.83"/>
</g>
<!-- Node14 -->
<g id="node14" class="node">
<title>Node14</title>
<g id="a_node14"><a xlink:href="Ram_8hpp.html" target="_top" xlink:title=" ">
<polygon fill="white" stroke="black" points="198,-168.5 198,-187.5 293,-187.5 293,-168.5 198,-168.5"/>
<text text-anchor="middle" x="245.5" y="-175.5" font-family="Helvetica,sans-Serif" font-size="10.00">../Ram/Ram.hpp</text>
</a>
</g>
</g>
<!-- Node3&#45;&gt;Node14 -->
<g id="edge22" class="edge">
<title>Node3&#45;&gt;Node14</title>
<path fill="none" stroke="midnightblue" d="M306.77,-224.32C295.66,-216.11 278.76,-203.6 265.52,-193.81"/>
<polygon fill="midnightblue" stroke="midnightblue" points="267.56,-190.97 257.44,-187.83 263.4,-196.59 267.56,-190.97"/>
</g>
<!-- Node5&#45;&gt;Node4 -->
<g id="edge8" class="edge">
<title>Node5&#45;&gt;Node4</title>
<path fill="none" stroke="midnightblue" d="M438.44,-112.84C397.52,-106.3 345.1,-94.98 301.5,-76 272.42,-63.34 243.01,-41.15 225.02,-26.26"/>
<polygon fill="midnightblue" stroke="midnightblue" points="227.05,-23.4 217.15,-19.62 222.53,-28.75 227.05,-23.4"/>
</g>
<!-- Node6 -->
<g id="node6" class="node">
<title>Node6</title>
<g id="a_node6"><a xlink:title=" ">
<polygon fill="white" stroke="#bfbfbf" points="247.5,-0.5 247.5,-19.5 297.5,-19.5 297.5,-0.5 247.5,-0.5"/>
<text text-anchor="middle" x="272.5" y="-7.5" font-family="Helvetica,sans-Serif" font-size="10.00">cstdint</text>
</a>
</g>
</g>
<!-- Node5&#45;&gt;Node6 -->
<g id="edge5" class="edge">
<title>Node5&#45;&gt;Node6</title>
<path fill="none" stroke="midnightblue" d="M438.46,-113.46C403.88,-107.29 362.34,-96.13 329.5,-76 309.98,-64.03 293.48,-43.24 283.33,-28.39"/>
<polygon fill="midnightblue" stroke="midnightblue" points="286.02,-26.1 277.62,-19.65 280.16,-29.93 286.02,-26.1"/>
</g>
<!-- Node7 -->
<g id="node7" class="node">
<title>Node7</title>
<g id="a_node7"><a xlink:title=" ">
<polygon fill="white" stroke="#bfbfbf" points="316,-0.5 316,-19.5 363,-19.5 363,-0.5 316,-0.5"/>
<text text-anchor="middle" x="339.5" y="-7.5" font-family="Helvetica,sans-Serif" font-size="10.00">vector</text>
</a>
</g>
</g>
<!-- Node5&#45;&gt;Node7 -->
<g id="edge6" class="edge">
<title>Node5&#45;&gt;Node7</title>
<path fill="none" stroke="midnightblue" d="M497.29,-112.29C483.05,-99.1 454.53,-73.73 427.5,-56 408.61,-43.61 385.89,-32.07 368.26,-23.77"/>
<polygon fill="midnightblue" stroke="midnightblue" points="369.59,-20.53 359.05,-19.51 366.66,-26.89 369.59,-20.53"/>
</g>
<!-- Node8 -->
<g id="node8" class="node">
<title>Node8</title>
<g id="a_node8"><a xlink:title=" ">
<polygon fill="white" stroke="#bfbfbf" points="381.5,-0.5 381.5,-19.5 439.5,-19.5 439.5,-0.5 381.5,-0.5"/>
<text text-anchor="middle" x="410.5" y="-7.5" font-family="Helvetica,sans-Serif" font-size="10.00">memory</text>
</a>
</g>
</g>
<!-- Node5&#45;&gt;Node8 -->
<g id="edge7" class="edge">
<title>Node5&#45;&gt;Node8</title>
<path fill="none" stroke="midnightblue" d="M502.06,-112.43C495.1,-99.44 480.71,-74.31 464.5,-56 454.64,-44.87 441.93,-34.13 431.32,-25.95"/>
<polygon fill="midnightblue" stroke="midnightblue" points="433.1,-22.91 423,-19.71 428.9,-28.51 433.1,-22.91"/>
</g>
<!-- Node5&#45;&gt;Node9 -->
<g id="edge9" class="edge">
<title>Node5&#45;&gt;Node9</title>
<path fill="none" stroke="midnightblue" d="M519.84,-112.37C549.01,-93.49 618.72,-48.38 654.5,-25.24"/>
<polygon fill="midnightblue" stroke="midnightblue" points="656.73,-27.96 663.22,-19.59 652.93,-22.09 656.73,-27.96"/>
</g>
<!-- Node10 -->
<g id="node10" class="node">
<title>Node10</title>
<g id="a_node10"><a xlink:href="Components_8hpp.html" target="_top" xlink:title=" ">
<polygon fill="white" stroke="black" points="457.5,-0.5 457.5,-19.5 603.5,-19.5 603.5,-0.5 457.5,-0.5"/>
<text text-anchor="middle" x="530.5" y="-7.5" font-family="Helvetica,sans-Serif" font-size="10.00">../Models/Components.hpp</text>
</a>
</g>
</g>
<!-- Node5&#45;&gt;Node10 -->
<g id="edge10" class="edge">
<title>Node5&#45;&gt;Node10</title>
<path fill="none" stroke="midnightblue" d="M508.38,-112.37C512.26,-94.62 521.19,-53.67 526.44,-29.6"/>
<polygon fill="midnightblue" stroke="midnightblue" points="529.91,-30.11 528.63,-19.59 523.07,-28.62 529.91,-30.11"/>
</g>
<!-- Node11 -->
<g id="node11" class="node">
<title>Node11</title>
<g id="a_node11"><a xlink:href="IMemory_8hpp.html" target="_top" xlink:title=" ">
<polygon fill="white" stroke="black" points="338.5,-56.5 338.5,-75.5 418.5,-75.5 418.5,-56.5 338.5,-56.5"/>
<text text-anchor="middle" x="378.5" y="-63.5" font-family="Helvetica,sans-Serif" font-size="10.00">IMemory.hpp</text>
</a>
</g>
</g>
<!-- Node5&#45;&gt;Node11 -->
<g id="edge11" class="edge">
<title>Node5&#45;&gt;Node11</title>
<path fill="none" stroke="midnightblue" d="M486.22,-112.44C465.15,-103.56 431.98,-89.56 408.01,-79.45"/>
<polygon fill="midnightblue" stroke="midnightblue" points="409.26,-76.18 398.69,-75.52 406.54,-82.63 409.26,-76.18"/>
</g>
<!-- Node11&#45;&gt;Node4 -->
<g id="edge15" class="edge">
<title>Node11&#45;&gt;Node4</title>
<path fill="none" stroke="midnightblue" d="M351.4,-56.44C320.98,-46.84 271.66,-31.26 239.4,-21.07"/>
<polygon fill="midnightblue" stroke="midnightblue" points="240.16,-17.64 229.57,-17.97 238.06,-24.32 240.16,-17.64"/>
</g>
<!-- Node11&#45;&gt;Node6 -->
<g id="edge12" class="edge">
<title>Node11&#45;&gt;Node6</title>
<path fill="none" stroke="midnightblue" d="M361.47,-56.32C344.47,-47.66 318.12,-34.24 298.51,-24.25"/>
<polygon fill="midnightblue" stroke="midnightblue" points="299.99,-21.08 289.49,-19.65 296.81,-27.31 299.99,-21.08"/>
</g>
<!-- Node11&#45;&gt;Node7 -->
<g id="edge13" class="edge">
<title>Node11&#45;&gt;Node7</title>
<path fill="none" stroke="midnightblue" d="M372.06,-56.08C366.55,-48.46 358.47,-37.26 351.74,-27.94"/>
<polygon fill="midnightblue" stroke="midnightblue" points="354.51,-25.81 345.82,-19.75 348.84,-29.91 354.51,-25.81"/>
</g>
<!-- Node11&#45;&gt;Node8 -->
<g id="edge14" class="edge">
<title>Node11&#45;&gt;Node8</title>
<path fill="none" stroke="midnightblue" d="M383.78,-56.08C388.21,-48.61 394.66,-37.72 400.12,-28.52"/>
<polygon fill="midnightblue" stroke="midnightblue" points="403.23,-30.14 405.31,-19.75 397.21,-26.57 403.23,-30.14"/>
</g>
<!-- Node11&#45;&gt;Node9 -->
<g id="edge16" class="edge">
<title>Node11&#45;&gt;Node9</title>
<path fill="none" stroke="midnightblue" d="M418.69,-57.72C470.43,-48.34 560.65,-31.99 619.47,-21.33"/>
<polygon fill="midnightblue" stroke="midnightblue" points="620.13,-24.77 629.35,-19.54 618.89,-17.88 620.13,-24.77"/>
</g>
<!-- Node11&#45;&gt;Node10 -->
<g id="edge17" class="edge">
<title>Node11&#45;&gt;Node10</title>
<path fill="none" stroke="midnightblue" d="M402.58,-56.44C428.04,-47.4 468.39,-33.06 496.96,-22.92"/>
<polygon fill="midnightblue" stroke="midnightblue" points="498.28,-26.16 506.53,-19.52 495.93,-19.57 498.28,-26.16"/>
</g>
<!-- Node12&#45;&gt;Node11 -->
<g id="edge20" class="edge">
<title>Node12&#45;&gt;Node11</title>
<path fill="none" stroke="midnightblue" d="M335.92,-112.08C343.35,-104.22 354.35,-92.57 363.31,-83.08"/>
<polygon fill="midnightblue" stroke="midnightblue" points="365.91,-85.42 370.24,-75.75 360.82,-80.62 365.91,-85.42"/>
</g>
<!-- Node14&#45;&gt;Node4 -->
<g id="edge24" class="edge">
<title>Node14&#45;&gt;Node4</title>
<path fill="none" stroke="midnightblue" d="M241.06,-168.27C236.71,-159.36 230.22,-145.05 226.5,-132 216.43,-96.68 211.3,-53.93 209.03,-29.86"/>
<polygon fill="midnightblue" stroke="midnightblue" points="212.49,-29.32 208.13,-19.66 205.52,-29.93 212.49,-29.32"/>
</g>
<!-- Node14&#45;&gt;Node12 -->
<g id="edge23" class="edge">
<title>Node14&#45;&gt;Node12</title>
<path fill="none" stroke="midnightblue" d="M258.67,-168.32C271.35,-159.98 290.73,-147.21 305.71,-137.35"/>
<polygon fill="midnightblue" stroke="midnightblue" points="307.93,-140.08 314.36,-131.65 304.08,-134.23 307.93,-140.08"/>
</g>
<!-- Node16&#45;&gt;Node2 -->
<g id="edge27" class="edge">
<title>Node16&#45;&gt;Node2</title>
<path fill="none" stroke="midnightblue" d="M153.59,-224.32C137.86,-215.74 113.56,-202.49 95.29,-192.52"/>
<polygon fill="midnightblue" stroke="midnightblue" points="96.82,-189.37 86.37,-187.65 93.47,-195.52 96.82,-189.37"/>
</g>
</g>
</svg>
