<?xml version="1.0" encoding="UTF-8" standalone="no"?>
<!DOCTYPE svg PUBLIC "-//W3C//DTD SVG 1.1//EN"
 "http://www.w3.org/Graphics/SVG/1.1/DTD/svg11.dtd">
<!-- Generated by graphviz version 2.43.0 (0)
 -->
<!-- Title: sources/Memory/IMemory.hpp Pages: 1 -->
<svg width="3997pt" height="408pt"
 viewBox="0.00 0.00 3997.00 408.00" xmlns="http://www.w3.org/2000/svg" xmlns:xlink="http://www.w3.org/1999/xlink">
<g id="graph0" class="graph" transform="scale(1 1) rotate(0) translate(4 404)">
<title>sources/Memory/IMemory.hpp</title>
<polygon fill="white" stroke="transparent" points="-4,4 -4,-404 3993,-404 3993,4 -4,4"/>
<!-- Node1 -->
<g id="node1" class="node">
<title>Node1</title>
<g id="a_node1"><a xlink:title=" ">
<polygon fill="#bfbfbf" stroke="black" points="3045,-380.5 3045,-399.5 3209,-399.5 3209,-380.5 3045,-380.5"/>
<text text-anchor="middle" x="3127" y="-387.5" font-family="Helvetica,sans-Serif" font-size="10.00">sources/Memory/IMemory.hpp</text>
</a>
</g>
</g>
<!-- Node2 -->
<g id="node2" class="node">
<title>Node2</title>
<g id="a_node2"><a xlink:href="AMemory_8hpp.html" target="_top" xlink:title=" ">
<polygon fill="white" stroke="black" points="2759.5,-252 2759.5,-271 2926.5,-271 2926.5,-252 2759.5,-252"/>
<text text-anchor="middle" x="2843" y="-259" font-family="Helvetica,sans-Serif" font-size="10.00">sources/Memory/AMemory.hpp</text>
</a>
</g>
</g>
<!-- Node1&#45;&gt;Node2 -->
<g id="edge1" class="edge">
<title>Node1&#45;&gt;Node2</title>
<path fill="none" stroke="midnightblue" d="M3098.17,-376.16C3040.27,-350.37 2911.18,-292.87 2862.28,-271.09"/>
<polygon fill="midnightblue" stroke="midnightblue" points="3096.92,-379.43 3107.48,-380.31 3099.77,-373.04 3096.92,-379.43"/>
</g>
<!-- Node97 -->
<g id="node48" class="node">
<title>Node97</title>
<g id="a_node48"><a xlink:href="ARectangleMemory_8hpp.html" target="_top" xlink:title=" ">
<polygon fill="white" stroke="black" points="3255,-313.5 3255,-343.5 3411,-343.5 3411,-313.5 3255,-313.5"/>
<text text-anchor="start" x="3263" y="-331.5" font-family="Helvetica,sans-Serif" font-size="10.00">sources/Memory/ARectangle</text>
<text text-anchor="middle" x="3333" y="-320.5" font-family="Helvetica,sans-Serif" font-size="10.00">Memory.hpp</text>
</a>
</g>
</g>
<!-- Node1&#45;&gt;Node97 -->
<g id="edge62" class="edge">
<title>Node1&#45;&gt;Node97</title>
<path fill="none" stroke="midnightblue" d="M3166.44,-377.61C3200.04,-367.9 3248.47,-353.92 3284.45,-343.52"/>
<polygon fill="midnightblue" stroke="midnightblue" points="3165.15,-374.34 3156.51,-380.48 3167.09,-381.06 3165.15,-374.34"/>
</g>
<!-- Node3 -->
<g id="node3" class="node">
<title>Node3</title>
<g id="a_node3"><a xlink:href="DSP_8hpp.html" target="_top" xlink:title=" ">
<polygon fill="white" stroke="black" points="2595,-190.5 2595,-209.5 2737,-209.5 2737,-190.5 2595,-190.5"/>
<text text-anchor="middle" x="2666" y="-197.5" font-family="Helvetica,sans-Serif" font-size="10.00">sources/APU/DSP/DSP.hpp</text>
</a>
</g>
</g>
<!-- Node2&#45;&gt;Node3 -->
<g id="edge2" class="edge">
<title>Node2&#45;&gt;Node3</title>
<path fill="none" stroke="midnightblue" d="M2807.99,-248.73C2773.59,-237.17 2721.92,-219.8 2691.31,-209.51"/>
<polygon fill="midnightblue" stroke="midnightblue" points="2807.05,-252.11 2817.64,-251.98 2809.28,-245.47 2807.05,-252.11"/>
</g>
<!-- Node4 -->
<g id="node4" class="node">
<title>Node4</title>
<g id="a_node4"><a xlink:href="APU_8hpp.html" target="_top" xlink:title=" ">
<polygon fill="white" stroke="black" points="1929,-129 1929,-148 2051,-148 2051,-129 1929,-129"/>
<text text-anchor="middle" x="1990" y="-136" font-family="Helvetica,sans-Serif" font-size="10.00">sources/APU/APU.hpp</text>
</a>
</g>
</g>
<!-- Node2&#45;&gt;Node4 -->
<g id="edge39" class="edge">
<title>Node2&#45;&gt;Node4</title>
<path fill="none" stroke="midnightblue" d="M2749.21,-252.77C2652.44,-244.28 2497.29,-229.27 2364,-210 2228.03,-190.34 2194.83,-180.38 2060,-154 2050.38,-152.12 2040.03,-150.02 2030.32,-148.01"/>
<polygon fill="midnightblue" stroke="midnightblue" points="2748.99,-256.26 2759.26,-253.64 2749.6,-249.29 2748.99,-256.26"/>
</g>
<!-- Node68 -->
<g id="node34" class="node">
<title>Node68</title>
<g id="a_node34"><a xlink:href="IPL_8hpp.html" target="_top" xlink:title=" ">
<polygon fill="white" stroke="black" points="1923.5,-190.5 1923.5,-209.5 2056.5,-209.5 2056.5,-190.5 1923.5,-190.5"/>
<text text-anchor="middle" x="1990" y="-197.5" font-family="Helvetica,sans-Serif" font-size="10.00">sources/APU/IPL/IPL.hpp</text>
</a>
</g>
</g>
<!-- Node2&#45;&gt;Node68 -->
<g id="edge40" class="edge">
<title>Node2&#45;&gt;Node68</title>
<path fill="none" stroke="midnightblue" d="M2749.12,-253.95C2575.37,-241.83 2207.64,-216.18 2056.75,-205.66"/>
<polygon fill="midnightblue" stroke="midnightblue" points="2749.05,-257.45 2759.27,-254.66 2749.54,-250.47 2749.05,-257.45"/>
</g>
<!-- Node70 -->
<g id="node36" class="node">
<title>Node70</title>
<g id="a_node36"><a xlink:href="Cartridge_8hpp.html" target="_top" xlink:title=" ">
<polygon fill="white" stroke="black" points="3438.5,-190.5 3438.5,-209.5 3609.5,-209.5 3609.5,-190.5 3438.5,-190.5"/>
<text text-anchor="middle" x="3524" y="-197.5" font-family="Helvetica,sans-Serif" font-size="10.00">sources/Cartridge/Cartridge.hpp</text>
</a>
</g>
</g>
<!-- Node2&#45;&gt;Node70 -->
<g id="edge43" class="edge">
<title>Node2&#45;&gt;Node70</title>
<path fill="none" stroke="midnightblue" d="M2936.65,-252.32C3069.39,-240.72 3310.32,-219.67 3438.47,-208.47"/>
<polygon fill="midnightblue" stroke="midnightblue" points="2936.16,-248.85 2926.5,-253.2 2936.77,-255.82 2936.16,-248.85"/>
</g>
<!-- Node72 -->
<g id="node38" class="node">
<title>Node72</title>
<g id="a_node38"><a xlink:href="CPU_8hpp.html" target="_top" xlink:title=" ">
<polygon fill="white" stroke="red" points="3463,-129 3463,-148 3585,-148 3585,-129 3463,-129"/>
<text text-anchor="middle" x="3524" y="-136" font-family="Helvetica,sans-Serif" font-size="10.00">sources/CPU/CPU.hpp</text>
</a>
</g>
</g>
<!-- Node2&#45;&gt;Node72 -->
<g id="edge52" class="edge">
<title>Node2&#45;&gt;Node72</title>
<path fill="none" stroke="midnightblue" d="M2936.75,-251.57C3017.08,-243.19 3135.68,-229.09 3238,-210 3332.51,-192.37 3442.45,-162.61 3494.19,-148.05"/>
<polygon fill="midnightblue" stroke="midnightblue" points="2936.24,-248.1 2926.66,-252.61 2936.96,-255.07 2936.24,-248.1"/>
</g>
<!-- Node82 -->
<g id="node43" class="node">
<title>Node82</title>
<g id="a_node43"><a xlink:href="MemoryBus_8hpp.html" target="_top" xlink:title=" ">
<polygon fill="white" stroke="red" points="2831,-190.5 2831,-209.5 3011,-209.5 3011,-190.5 2831,-190.5"/>
<text text-anchor="middle" x="2921" y="-197.5" font-family="Helvetica,sans-Serif" font-size="10.00">sources/Memory/MemoryBus.hpp</text>
</a>
</g>
</g>
<!-- Node2&#45;&gt;Node82 -->
<g id="edge53" class="edge">
<title>Node2&#45;&gt;Node82</title>
<path fill="none" stroke="midnightblue" d="M2862.28,-245.79C2877.24,-234.38 2897.46,-218.96 2909.85,-209.51"/>
<polygon fill="midnightblue" stroke="midnightblue" points="2860,-243.13 2854.18,-251.98 2864.25,-248.69 2860,-243.13"/>
</g>
<!-- Node85 -->
<g id="node44" class="node">
<title>Node85</title>
<g id="a_node44"><a xlink:href="PPU_8hpp.html" target="_top" xlink:title=" ">
<polygon fill="white" stroke="red" points="2997,-129 2997,-148 3117,-148 3117,-129 2997,-129"/>
<text text-anchor="middle" x="3057" y="-136" font-family="Helvetica,sans-Serif" font-size="10.00">sources/PPU/PPU.hpp</text>
</a>
</g>
</g>
<!-- Node2&#45;&gt;Node85 -->
<g id="edge58" class="edge">
<title>Node2&#45;&gt;Node85</title>
<path fill="none" stroke="midnightblue" d="M2827.08,-244.27C2814.07,-229.02 2799.82,-206.19 2813,-190 2814.6,-188.04 2944.4,-161.93 3014,-148.05"/>
<polygon fill="midnightblue" stroke="midnightblue" points="2824.68,-246.83 2833.99,-251.87 2829.85,-242.12 2824.68,-246.83"/>
</g>
<!-- Node92 -->
<g id="node45" class="node">
<title>Node92</title>
<g id="a_node45"><a xlink:href="MemoryShadow_8hpp.html" target="_top" xlink:title=" ">
<polygon fill="white" stroke="red" points="3029,-190.5 3029,-209.5 3229,-209.5 3229,-190.5 3029,-190.5"/>
<text text-anchor="middle" x="3129" y="-197.5" font-family="Helvetica,sans-Serif" font-size="10.00">sources/Memory/MemoryShadow.hpp</text>
</a>
</g>
</g>
<!-- Node2&#45;&gt;Node92 -->
<g id="edge59" class="edge">
<title>Node2&#45;&gt;Node92</title>
<path fill="none" stroke="midnightblue" d="M2893.94,-249.9C2949.39,-238.37 3036.95,-220.15 3088.1,-209.51"/>
<polygon fill="midnightblue" stroke="midnightblue" points="2893.05,-246.51 2883.98,-251.98 2894.48,-253.36 2893.05,-246.51"/>
</g>
<!-- Node96 -->
<g id="node47" class="node">
<title>Node96</title>
<g id="a_node47"><a xlink:href="AMemory_8cpp.html" target="_top" xlink:title=" ">
<polygon fill="white" stroke="black" points="2372.5,-190.5 2372.5,-209.5 2539.5,-209.5 2539.5,-190.5 2372.5,-190.5"/>
<text text-anchor="middle" x="2456" y="-197.5" font-family="Helvetica,sans-Serif" font-size="10.00">sources/Memory/AMemory.cpp</text>
</a>
</g>
</g>
<!-- Node2&#45;&gt;Node96 -->
<g id="edge61" class="edge">
<title>Node2&#45;&gt;Node96</title>
<path fill="none" stroke="midnightblue" d="M2777.31,-250.4C2702.5,-238.9 2581.56,-220.3 2511.34,-209.51"/>
<polygon fill="midnightblue" stroke="midnightblue" points="2777.14,-253.91 2787.55,-251.98 2778.2,-247 2777.14,-253.91"/>
</g>
<!-- Node3&#45;&gt;Node4 -->
<g id="edge3" class="edge">
<title>Node3&#45;&gt;Node4</title>
<path fill="none" stroke="midnightblue" d="M2584.35,-190.3C2583.23,-190.2 2582.11,-190.1 2581,-190 2349.77,-169.78 2289.94,-185.61 2060,-154 2049.06,-152.5 2037.26,-150.28 2026.53,-148.04"/>
<polygon fill="midnightblue" stroke="midnightblue" points="2584.32,-193.81 2594.6,-191.25 2584.96,-186.84 2584.32,-193.81"/>
</g>
<!-- Node6 -->
<g id="node6" class="node">
<title>Node6</title>
<g id="a_node6"><a xlink:href="DSP_8cpp.html" target="_top" xlink:title=" ">
<polygon fill="white" stroke="black" points="2852.5,-62 2852.5,-81 2993.5,-81 2993.5,-62 2852.5,-62"/>
<text text-anchor="middle" x="2923" y="-69" font-family="Helvetica,sans-Serif" font-size="10.00">sources/APU/DSP/DSP.cpp</text>
</a>
</g>
</g>
<!-- Node3&#45;&gt;Node6 -->
<g id="edge33" class="edge">
<title>Node3&#45;&gt;Node6</title>
<path fill="none" stroke="midnightblue" d="M2747.35,-194.25C2810.04,-188.8 2889.68,-177.39 2912,-154 2931.02,-134.06 2927.62,-97.87 2924.79,-81.26"/>
<polygon fill="midnightblue" stroke="midnightblue" points="2746.73,-190.79 2737.05,-195.1 2747.31,-197.76 2746.73,-190.79"/>
</g>
<!-- Node7 -->
<g id="node7" class="node">
<title>Node7</title>
<g id="a_node7"><a xlink:href="Voice_8cpp.html" target="_top" xlink:title=" ">
<polygon fill="white" stroke="black" points="3011.5,-62 3011.5,-81 3160.5,-81 3160.5,-62 3011.5,-62"/>
<text text-anchor="middle" x="3086" y="-69" font-family="Helvetica,sans-Serif" font-size="10.00">sources/APU/DSP/Voice.cpp</text>
</a>
</g>
</g>
<!-- Node3&#45;&gt;Node7 -->
<g id="edge38" class="edge">
<title>Node3&#45;&gt;Node7</title>
<path fill="none" stroke="midnightblue" d="M2747.21,-192.44C2800.82,-186.38 2871.99,-175 2932,-154 2958.85,-144.6 2962.91,-136.41 2988,-123 3016.19,-107.94 3049.31,-91.04 3068.92,-81.11"/>
<polygon fill="midnightblue" stroke="midnightblue" points="2746.63,-188.98 2737.07,-193.55 2747.39,-195.94 2746.63,-188.98"/>
</g>
<!-- Node63 -->
<g id="node29" class="node">
<title>Node63</title>
<g id="a_node29"><a xlink:href="BRR_8cpp.html" target="_top" xlink:title=" ">
<polygon fill="white" stroke="black" points="2759.5,-129 2759.5,-148 2902.5,-148 2902.5,-129 2759.5,-129"/>
<text text-anchor="middle" x="2831" y="-136" font-family="Helvetica,sans-Serif" font-size="10.00">sources/APU/DSP/BRR.cpp</text>
</a>
</g>
</g>
<!-- Node3&#45;&gt;Node63 -->
<g id="edge32" class="edge">
<title>Node3&#45;&gt;Node63</title>
<path fill="none" stroke="midnightblue" d="M2699.05,-187.08C2731.12,-175.52 2779,-158.25 2807.4,-148.01"/>
<polygon fill="midnightblue" stroke="midnightblue" points="2697.86,-183.79 2689.64,-190.48 2700.23,-190.38 2697.86,-183.79"/>
</g>
<!-- Node64 -->
<g id="node30" class="node">
<title>Node64</title>
<g id="a_node30"><a xlink:href="Echo_8cpp.html" target="_top" xlink:title=" ">
<polygon fill="white" stroke="black" points="2069,-129 2069,-148 2215,-148 2215,-129 2069,-129"/>
<text text-anchor="middle" x="2142" y="-136" font-family="Helvetica,sans-Serif" font-size="10.00">sources/APU/DSP/Echo.cpp</text>
</a>
</g>
</g>
<!-- Node3&#45;&gt;Node64 -->
<g id="edge34" class="edge">
<title>Node3&#45;&gt;Node64</title>
<path fill="none" stroke="midnightblue" d="M2584.34,-190.35C2583.22,-190.23 2582.11,-190.11 2581,-190 2422.37,-173.6 2381.96,-175.9 2224,-154 2211.83,-152.31 2198.7,-150.15 2186.59,-148.01"/>
<polygon fill="midnightblue" stroke="midnightblue" points="2584.27,-193.86 2594.58,-191.41 2585,-186.9 2584.27,-193.86"/>
</g>
<!-- Node65 -->
<g id="node31" class="node">
<title>Node65</title>
<g id="a_node31"><a xlink:href="Envelope_8cpp.html" target="_top" xlink:title=" ">
<polygon fill="white" stroke="black" points="2233,-129 2233,-148 2401,-148 2401,-129 2233,-129"/>
<text text-anchor="middle" x="2317" y="-136" font-family="Helvetica,sans-Serif" font-size="10.00">sources/APU/DSP/Envelope.cpp</text>
</a>
</g>
</g>
<!-- Node3&#45;&gt;Node65 -->
<g id="edge35" class="edge">
<title>Node3&#45;&gt;Node65</title>
<path fill="none" stroke="midnightblue" d="M2605.93,-188.76C2538.4,-177.25 2429.97,-158.76 2366.91,-148.01"/>
<polygon fill="midnightblue" stroke="midnightblue" points="2605.55,-192.24 2616,-190.48 2606.73,-185.34 2605.55,-192.24"/>
</g>
<!-- Node66 -->
<g id="node32" class="node">
<title>Node66</title>
<g id="a_node32"><a xlink:href="Gauss_8cpp.html" target="_top" xlink:title=" ">
<polygon fill="white" stroke="black" points="2419.5,-129 2419.5,-148 2572.5,-148 2572.5,-129 2419.5,-129"/>
<text text-anchor="middle" x="2496" y="-136" font-family="Helvetica,sans-Serif" font-size="10.00">sources/APU/DSP/Gauss.cpp</text>
</a>
</g>
</g>
<!-- Node3&#45;&gt;Node66 -->
<g id="edge36" class="edge">
<title>Node3&#45;&gt;Node66</title>
<path fill="none" stroke="midnightblue" d="M2631.95,-187.08C2598.91,-175.52 2549.58,-158.25 2520.31,-148.01"/>
<polygon fill="midnightblue" stroke="midnightblue" points="2631.05,-190.48 2641.64,-190.48 2633.36,-183.87 2631.05,-190.48"/>
</g>
<!-- Node67 -->
<g id="node33" class="node">
<title>Node67</title>
<g id="a_node33"><a xlink:href="Timer_8cpp.html" target="_top" xlink:title=" ">
<polygon fill="white" stroke="black" points="2590.5,-129 2590.5,-148 2741.5,-148 2741.5,-129 2590.5,-129"/>
<text text-anchor="middle" x="2666" y="-136" font-family="Helvetica,sans-Serif" font-size="10.00">sources/APU/DSP/Timer.cpp</text>
</a>
</g>
</g>
<!-- Node3&#45;&gt;Node67 -->
<g id="edge37" class="edge">
<title>Node3&#45;&gt;Node67</title>
<path fill="none" stroke="midnightblue" d="M2666,-180.32C2666,-169.5 2666,-156.4 2666,-148.01"/>
<polygon fill="midnightblue" stroke="midnightblue" points="2662.5,-180.48 2666,-190.48 2669.5,-180.48 2662.5,-180.48"/>
</g>
<!-- Node5 -->
<g id="node5" class="node">
<title>Node5</title>
<g id="a_node5"><a xlink:href="APU_8cpp.html" target="_top" xlink:title=" ">
<polygon fill="white" stroke="black" points="2155.5,-62 2155.5,-81 2276.5,-81 2276.5,-62 2155.5,-62"/>
<text text-anchor="middle" x="2216" y="-69" font-family="Helvetica,sans-Serif" font-size="10.00">sources/APU/APU.cpp</text>
</a>
</g>
</g>
<!-- Node4&#45;&gt;Node5 -->
<g id="edge4" class="edge">
<title>Node4&#45;&gt;Node5</title>
<path fill="none" stroke="midnightblue" d="M2029.67,-126.09C2074.38,-113.23 2146.05,-92.62 2186.22,-81.06"/>
<polygon fill="midnightblue" stroke="midnightblue" points="2028.65,-122.74 2020.01,-128.87 2030.59,-129.47 2028.65,-122.74"/>
</g>
<!-- Node4&#45;&gt;Node6 -->
<g id="edge5" class="edge">
<title>Node4&#45;&gt;Node6</title>
<path fill="none" stroke="midnightblue" d="M2035.77,-126.94C2043.81,-125.39 2052.12,-123.99 2060,-123 2403.44,-79.76 2493.85,-124.17 2838,-87 2851.4,-85.55 2865.88,-83.33 2879.03,-81.06"/>
<polygon fill="midnightblue" stroke="midnightblue" points="2034.9,-123.54 2025.79,-128.95 2036.28,-130.41 2034.9,-123.54"/>
</g>
<!-- Node4&#45;&gt;Node7 -->
<g id="edge6" class="edge">
<title>Node4&#45;&gt;Node7</title>
<path fill="none" stroke="midnightblue" d="M2035.23,-126.99C2043.43,-125.41 2051.94,-123.98 2060,-123 2476.34,-72.29 2585.92,-131.19 3003,-87 3016.24,-85.6 3030.55,-83.36 3043.5,-81.06"/>
<polygon fill="midnightblue" stroke="midnightblue" points="2034.53,-123.56 2025.42,-128.97 2035.92,-130.42 2034.53,-123.56"/>
</g>
<!-- Node8 -->
<g id="node8" class="node">
<title>Node8</title>
<g id="a_node8"><a xlink:href="16bitArithmetic_8cpp.html" target="_top" xlink:title=" ">
<polygon fill="white" stroke="black" points="2294.5,-56.5 2294.5,-86.5 2431.5,-86.5 2431.5,-56.5 2294.5,-56.5"/>
<text text-anchor="start" x="2302.5" y="-74.5" font-family="Helvetica,sans-Serif" font-size="10.00">sources/APU/Instructions</text>
<text text-anchor="middle" x="2363" y="-63.5" font-family="Helvetica,sans-Serif" font-size="10.00">/16bitArithmetic.cpp</text>
</a>
</g>
</g>
<!-- Node4&#45;&gt;Node8 -->
<g id="edge7" class="edge">
<title>Node4&#45;&gt;Node8</title>
<path fill="none" stroke="midnightblue" d="M2039.5,-126.95C2046.37,-125.57 2053.36,-124.22 2060,-123 2160.05,-104.68 2185.79,-104.41 2286,-87 2288.68,-86.53 2291.41,-86.05 2294.17,-85.56"/>
<polygon fill="midnightblue" stroke="midnightblue" points="2038.65,-123.55 2029.55,-128.97 2040.05,-130.41 2038.65,-123.55"/>
</g>
<!-- Node9 -->
<g id="node9" class="node">
<title>Node9</title>
<g id="a_node9"><a xlink:href="16bitDataTransmission_8cpp.html" target="_top" xlink:title=" ">
<polygon fill="white" stroke="black" points="2450,-56.5 2450,-86.5 2602,-86.5 2602,-56.5 2450,-56.5"/>
<text text-anchor="start" x="2458" y="-74.5" font-family="Helvetica,sans-Serif" font-size="10.00">sources/APU/Instructions</text>
<text text-anchor="middle" x="2526" y="-63.5" font-family="Helvetica,sans-Serif" font-size="10.00">/16bitDataTransmission.cpp</text>
</a>
</g>
</g>
<!-- Node4&#45;&gt;Node9 -->
<g id="edge8" class="edge">
<title>Node4&#45;&gt;Node9</title>
<path fill="none" stroke="midnightblue" d="M2037.13,-127C2044.75,-125.51 2052.58,-124.12 2060,-123 2228.2,-97.71 2272.38,-109.32 2441,-87 2443.82,-86.63 2446.69,-86.23 2449.59,-85.81"/>
<polygon fill="midnightblue" stroke="midnightblue" points="2036.39,-123.58 2027.28,-128.98 2037.78,-130.44 2036.39,-123.58"/>
</g>
<!-- Node10 -->
<g id="node10" class="node">
<title>Node10</title>
<g id="a_node10"><a xlink:href="8bitArithmetic_8cpp.html" target="_top" xlink:title=" ">
<polygon fill="white" stroke="black" points="2620.5,-56.5 2620.5,-86.5 2757.5,-86.5 2757.5,-56.5 2620.5,-56.5"/>
<text text-anchor="start" x="2628.5" y="-74.5" font-family="Helvetica,sans-Serif" font-size="10.00">sources/APU/Instructions</text>
<text text-anchor="middle" x="2689" y="-63.5" font-family="Helvetica,sans-Serif" font-size="10.00">/8bitArithmetic.cpp</text>
</a>
</g>
</g>
<!-- Node4&#45;&gt;Node10 -->
<g id="edge9" class="edge">
<title>Node4&#45;&gt;Node10</title>
<path fill="none" stroke="midnightblue" d="M2036.58,-126.91C2044.37,-125.41 2052.39,-124.03 2060,-123 2303.19,-90.03 2367.49,-117.48 2611,-87 2614.01,-86.62 2617.07,-86.2 2620.17,-85.75"/>
<polygon fill="midnightblue" stroke="midnightblue" points="2035.64,-123.53 2026.53,-128.93 2037.02,-130.39 2035.64,-123.53"/>
</g>
<!-- Node11 -->
<g id="node11" class="node">
<title>Node11</title>
<g id="a_node11"><a xlink:href="8bitDataTransmission_8cpp.html" target="_top" xlink:title=" ">
<polygon fill="white" stroke="black" points="0,-56.5 0,-86.5 146,-86.5 146,-56.5 0,-56.5"/>
<text text-anchor="start" x="8" y="-74.5" font-family="Helvetica,sans-Serif" font-size="10.00">sources/APU/Instructions</text>
<text text-anchor="middle" x="73" y="-63.5" font-family="Helvetica,sans-Serif" font-size="10.00">/8bitDataTransmission.cpp</text>
</a>
</g>
</g>
<!-- Node4&#45;&gt;Node11 -->
<g id="edge10" class="edge">
<title>Node4&#45;&gt;Node11</title>
<path fill="none" stroke="midnightblue" d="M1945.05,-126.92C1936.77,-125.33 1928.15,-123.92 1920,-123 1140.34,-35.05 935.87,-163.54 155,-87 152.12,-86.72 149.19,-86.39 146.24,-86.03"/>
<polygon fill="midnightblue" stroke="midnightblue" points="1944.46,-130.37 1954.95,-128.92 1945.85,-123.51 1944.46,-130.37"/>
</g>
<!-- Node12 -->
<g id="node12" class="node">
<title>Node12</title>
<g id="a_node12"><a xlink:href="8bitIncrementDecrement_8cpp.html" target="_top" xlink:title=" ">
<polygon fill="white" stroke="black" points="164,-56.5 164,-86.5 326,-86.5 326,-56.5 164,-56.5"/>
<text text-anchor="start" x="172" y="-74.5" font-family="Helvetica,sans-Serif" font-size="10.00">sources/APU/Instructions</text>
<text text-anchor="middle" x="245" y="-63.5" font-family="Helvetica,sans-Serif" font-size="10.00">/8bitIncrementDecrement.cpp</text>
</a>
</g>
</g>
<!-- Node4&#45;&gt;Node12 -->
<g id="edge11" class="edge">
<title>Node4&#45;&gt;Node12</title>
<path fill="none" stroke="midnightblue" d="M1945.05,-126.94C1936.76,-125.35 1928.15,-123.93 1920,-123 1219.91,-43.21 1036.7,-151.19 335,-87 332.16,-86.74 329.28,-86.45 326.37,-86.12"/>
<polygon fill="midnightblue" stroke="midnightblue" points="1944.45,-130.39 1954.95,-128.94 1945.84,-123.52 1944.45,-130.39"/>
</g>
<!-- Node13 -->
<g id="node13" class="node">
<title>Node13</title>
<g id="a_node13"><a xlink:href="8bitLogical_8cpp.html" target="_top" xlink:title=" ">
<polygon fill="white" stroke="black" points="344.5,-56.5 344.5,-86.5 481.5,-86.5 481.5,-56.5 344.5,-56.5"/>
<text text-anchor="start" x="352.5" y="-74.5" font-family="Helvetica,sans-Serif" font-size="10.00">sources/APU/Instructions</text>
<text text-anchor="middle" x="413" y="-63.5" font-family="Helvetica,sans-Serif" font-size="10.00">/8bitLogical.cpp</text>
</a>
</g>
</g>
<!-- Node4&#45;&gt;Node13 -->
<g id="edge12" class="edge">
<title>Node4&#45;&gt;Node13</title>
<path fill="none" stroke="midnightblue" d="M1945.05,-126.95C1936.76,-125.36 1928.15,-123.94 1920,-123 1288.42,-50.23 1122.21,-154.04 490,-87 487.29,-86.71 484.54,-86.38 481.77,-86.02"/>
<polygon fill="midnightblue" stroke="midnightblue" points="1944.45,-130.4 1954.95,-128.96 1945.84,-123.54 1944.45,-130.4"/>
</g>
<!-- Node14 -->
<g id="node14" class="node">
<title>Node14</title>
<g id="a_node14"><a xlink:href="8bitShiftRotation_8cpp.html" target="_top" xlink:title=" ">
<polygon fill="white" stroke="black" points="499.5,-56.5 499.5,-86.5 636.5,-86.5 636.5,-56.5 499.5,-56.5"/>
<text text-anchor="start" x="507.5" y="-74.5" font-family="Helvetica,sans-Serif" font-size="10.00">sources/APU/Instructions</text>
<text text-anchor="middle" x="568" y="-63.5" font-family="Helvetica,sans-Serif" font-size="10.00">/8bitShiftRotation.cpp</text>
</a>
</g>
</g>
<!-- Node4&#45;&gt;Node14 -->
<g id="edge13" class="edge">
<title>Node4&#45;&gt;Node14</title>
<path fill="none" stroke="midnightblue" d="M1945.05,-126.97C1936.76,-125.38 1928.15,-123.95 1920,-123 1356.93,-57.25 1208.64,-147.64 645,-87 642.3,-86.71 639.54,-86.37 636.77,-86.01"/>
<polygon fill="midnightblue" stroke="midnightblue" points="1944.45,-130.42 1954.95,-128.98 1945.84,-123.56 1944.45,-130.42"/>
</g>
<!-- Node15 -->
<g id="node15" class="node">
<title>Node15</title>
<g id="a_node15"><a xlink:href="Bit_8cpp.html" target="_top" xlink:title=" ">
<polygon fill="white" stroke="black" points="654.5,-56.5 654.5,-86.5 791.5,-86.5 791.5,-56.5 654.5,-56.5"/>
<text text-anchor="start" x="662.5" y="-74.5" font-family="Helvetica,sans-Serif" font-size="10.00">sources/APU/Instructions</text>
<text text-anchor="middle" x="723" y="-63.5" font-family="Helvetica,sans-Serif" font-size="10.00">/Bit.cpp</text>
</a>
</g>
</g>
<!-- Node4&#45;&gt;Node15 -->
<g id="edge14" class="edge">
<title>Node4&#45;&gt;Node15</title>
<path fill="none" stroke="midnightblue" d="M1944.78,-126.95C1936.57,-125.37 1928.06,-123.96 1920,-123 1425.44,-64.27 1295.07,-141.24 800,-87 797.3,-86.7 794.54,-86.37 791.77,-85.99"/>
<polygon fill="midnightblue" stroke="midnightblue" points="1944.09,-130.38 1954.58,-128.93 1945.48,-123.52 1944.09,-130.38"/>
</g>
<!-- Node16 -->
<g id="node16" class="node">
<title>Node16</title>
<g id="a_node16"><a xlink:href="DecimalCompensation_8cpp.html" target="_top" xlink:title=" ">
<polygon fill="white" stroke="black" points="809.5,-56.5 809.5,-86.5 960.5,-86.5 960.5,-56.5 809.5,-56.5"/>
<text text-anchor="start" x="817.5" y="-74.5" font-family="Helvetica,sans-Serif" font-size="10.00">sources/APU/Instructions</text>
<text text-anchor="middle" x="885" y="-63.5" font-family="Helvetica,sans-Serif" font-size="10.00">/DecimalCompensation.cpp</text>
</a>
</g>
</g>
<!-- Node4&#45;&gt;Node16 -->
<g id="edge15" class="edge">
<title>Node4&#45;&gt;Node16</title>
<path fill="none" stroke="midnightblue" d="M1944.77,-126.99C1936.57,-125.41 1928.06,-123.98 1920,-123 1500.57,-71.97 1390.27,-130.62 970,-87 967.02,-86.69 963.99,-86.34 960.93,-85.96"/>
<polygon fill="midnightblue" stroke="midnightblue" points="1944.08,-130.42 1954.58,-128.97 1945.47,-123.56 1944.08,-130.42"/>
</g>
<!-- Node17 -->
<g id="node17" class="node">
<title>Node17</title>
<g id="a_node17"><a xlink:href="MultiplicationDivision_8cpp.html" target="_top" xlink:title=" ">
<polygon fill="white" stroke="black" points="979,-56.5 979,-86.5 1125,-86.5 1125,-56.5 979,-56.5"/>
<text text-anchor="start" x="987" y="-74.5" font-family="Helvetica,sans-Serif" font-size="10.00">sources/APU/Instructions</text>
<text text-anchor="middle" x="1052" y="-63.5" font-family="Helvetica,sans-Serif" font-size="10.00">/MultiplicationDivision.cpp</text>
</a>
</g>
</g>
<!-- Node4&#45;&gt;Node17 -->
<g id="edge16" class="edge">
<title>Node4&#45;&gt;Node17</title>
<path fill="none" stroke="midnightblue" d="M1944.23,-126.94C1936.19,-125.39 1927.88,-123.99 1920,-123 1573.03,-79.4 1481.57,-125.53 1134,-87 1131.13,-86.68 1128.2,-86.32 1125.25,-85.94"/>
<polygon fill="midnightblue" stroke="midnightblue" points="1943.72,-130.4 1954.21,-128.95 1945.1,-123.54 1943.72,-130.4"/>
</g>
<!-- Node18 -->
<g id="node18" class="node">
<title>Node18</title>
<g id="a_node18"><a xlink:href="ProgramFlow_8cpp.html" target="_top" xlink:title=" ">
<polygon fill="white" stroke="black" points="1143.5,-56.5 1143.5,-86.5 1280.5,-86.5 1280.5,-56.5 1143.5,-56.5"/>
<text text-anchor="start" x="1151.5" y="-74.5" font-family="Helvetica,sans-Serif" font-size="10.00">sources/APU/Instructions</text>
<text text-anchor="middle" x="1212" y="-63.5" font-family="Helvetica,sans-Serif" font-size="10.00">/ProgramFlow.cpp</text>
</a>
</g>
</g>
<!-- Node4&#45;&gt;Node18 -->
<g id="edge17" class="edge">
<title>Node4&#45;&gt;Node18</title>
<path fill="none" stroke="midnightblue" d="M1943.96,-126.96C1936,-125.43 1927.79,-124.02 1920,-123 1641.49,-86.41 1567.83,-121.06 1289,-87 1286.3,-86.67 1283.55,-86.3 1280.78,-85.91"/>
<polygon fill="midnightblue" stroke="midnightblue" points="1943.35,-130.41 1953.84,-128.95 1944.73,-123.54 1943.35,-130.41"/>
</g>
<!-- Node19 -->
<g id="node19" class="node">
<title>Node19</title>
<g id="a_node19"><a xlink:href="ProgramStatusWord_8cpp.html" target="_top" xlink:title=" ">
<polygon fill="white" stroke="black" points="1298.5,-56.5 1298.5,-86.5 1435.5,-86.5 1435.5,-56.5 1298.5,-56.5"/>
<text text-anchor="start" x="1306.5" y="-74.5" font-family="Helvetica,sans-Serif" font-size="10.00">sources/APU/Instructions</text>
<text text-anchor="middle" x="1367" y="-63.5" font-family="Helvetica,sans-Serif" font-size="10.00">/ProgramStatusWord.cpp</text>
</a>
</g>
</g>
<!-- Node4&#45;&gt;Node19 -->
<g id="edge18" class="edge">
<title>Node4&#45;&gt;Node19</title>
<path fill="none" stroke="midnightblue" d="M1943.15,-126.93C1935.44,-125.44 1927.52,-124.06 1920,-123 1709.91,-93.42 1654.35,-114.67 1444,-87 1441.3,-86.65 1438.56,-86.26 1435.79,-85.84"/>
<polygon fill="midnightblue" stroke="midnightblue" points="1942.61,-130.39 1953.1,-128.93 1943.99,-123.53 1942.61,-130.39"/>
</g>
<!-- Node20 -->
<g id="node20" class="node">
<title>Node20</title>
<g id="a_node20"><a xlink:href="Stack_8cpp.html" target="_top" xlink:title=" ">
<polygon fill="white" stroke="black" points="1453.5,-56.5 1453.5,-86.5 1590.5,-86.5 1590.5,-56.5 1453.5,-56.5"/>
<text text-anchor="start" x="1461.5" y="-74.5" font-family="Helvetica,sans-Serif" font-size="10.00">sources/APU/Instructions</text>
<text text-anchor="middle" x="1522" y="-63.5" font-family="Helvetica,sans-Serif" font-size="10.00">/Stack.cpp</text>
</a>
</g>
</g>
<!-- Node4&#45;&gt;Node20 -->
<g id="edge19" class="edge">
<title>Node4&#45;&gt;Node20</title>
<path fill="none" stroke="midnightblue" d="M1942.07,-126.96C1934.7,-125.52 1927.16,-124.14 1920,-123 1778.23,-100.42 1740.97,-108.3 1599,-87 1596.31,-86.6 1593.57,-86.17 1590.8,-85.72"/>
<polygon fill="midnightblue" stroke="midnightblue" points="1941.48,-130.41 1951.97,-128.96 1942.86,-123.55 1941.48,-130.41"/>
</g>
<!-- Node21 -->
<g id="node21" class="node">
<title>Node21</title>
<g id="a_node21"><a xlink:href="Standbys_8cpp.html" target="_top" xlink:title=" ">
<polygon fill="white" stroke="black" points="1608.5,-56.5 1608.5,-86.5 1745.5,-86.5 1745.5,-56.5 1608.5,-56.5"/>
<text text-anchor="start" x="1616.5" y="-74.5" font-family="Helvetica,sans-Serif" font-size="10.00">sources/APU/Instructions</text>
<text text-anchor="middle" x="1677" y="-63.5" font-family="Helvetica,sans-Serif" font-size="10.00">/Standbys.cpp</text>
</a>
</g>
</g>
<!-- Node4&#45;&gt;Node21 -->
<g id="edge20" class="edge">
<title>Node4&#45;&gt;Node21</title>
<path fill="none" stroke="midnightblue" d="M1938.92,-126.89C1886,-115.9 1803.05,-98.68 1744.7,-86.56"/>
<polygon fill="midnightblue" stroke="midnightblue" points="1938.26,-130.33 1948.76,-128.94 1939.68,-123.48 1938.26,-130.33"/>
</g>
<!-- Node22 -->
<g id="node22" class="node">
<title>Node22</title>
<g id="a_node22"><a xlink:href="Subroutine_8cpp.html" target="_top" xlink:title=" ">
<polygon fill="white" stroke="black" points="1763.5,-56.5 1763.5,-86.5 1900.5,-86.5 1900.5,-56.5 1763.5,-56.5"/>
<text text-anchor="start" x="1771.5" y="-74.5" font-family="Helvetica,sans-Serif" font-size="10.00">sources/APU/Instructions</text>
<text text-anchor="middle" x="1832" y="-63.5" font-family="Helvetica,sans-Serif" font-size="10.00">/Subroutine.cpp</text>
</a>
</g>
</g>
<!-- Node4&#45;&gt;Node22 -->
<g id="edge21" class="edge">
<title>Node4&#45;&gt;Node22</title>
<path fill="none" stroke="midnightblue" d="M1959.76,-125.06C1932.99,-114.05 1893.97,-97.99 1866.1,-86.53"/>
<polygon fill="midnightblue" stroke="midnightblue" points="1958.44,-128.3 1969.02,-128.87 1961.1,-121.83 1958.44,-128.3"/>
</g>
<!-- Node23 -->
<g id="node23" class="node">
<title>Node23</title>
<g id="a_node23"><a xlink:href="Operand_8cpp.html" target="_top" xlink:title=" ">
<polygon fill="white" stroke="black" points="1919,-62 1919,-81 2061,-81 2061,-62 1919,-62"/>
<text text-anchor="middle" x="1990" y="-69" font-family="Helvetica,sans-Serif" font-size="10.00">sources/APU/Operand.cpp</text>
</a>
</g>
</g>
<!-- Node4&#45;&gt;Node23 -->
<g id="edge22" class="edge">
<title>Node4&#45;&gt;Node23</title>
<path fill="none" stroke="midnightblue" d="M1990,-118.54C1990,-106.17 1990,-90.62 1990,-81.13"/>
<polygon fill="midnightblue" stroke="midnightblue" points="1986.5,-118.73 1990,-128.73 1993.5,-118.73 1986.5,-118.73"/>
</g>
<!-- Node24 -->
<g id="node24" class="node">
<title>Node24</title>
<g id="a_node24"><a xlink:href="APUDebug_8hpp.html" target="_top" xlink:title=" ">
<polygon fill="white" stroke="red" points="2153,-0.5 2153,-19.5 2333,-19.5 2333,-0.5 2153,-0.5"/>
<text text-anchor="middle" x="2243" y="-7.5" font-family="Helvetica,sans-Serif" font-size="10.00">sources/Debugger/APUDebug.hpp</text>
</a>
</g>
</g>
<!-- Node4&#45;&gt;Node24 -->
<g id="edge23" class="edge">
<title>Node4&#45;&gt;Node24</title>
<path fill="none" stroke="midnightblue" d="M2012.79,-123.63C2028.93,-113.68 2051,-99.83 2070,-87 2089.53,-73.82 2092.09,-66.86 2113,-56 2144.37,-39.71 2182.92,-27.22 2209.86,-19.57"/>
<polygon fill="midnightblue" stroke="midnightblue" points="2010.74,-120.79 2004.04,-129 2014.4,-126.75 2010.74,-120.79"/>
</g>
<!-- Node26 -->
<g id="node25" class="node">
<title>Node26</title>
<g id="a_node25"><a xlink:href="SNES_8hpp.html" target="_top" xlink:title=" ">
<polygon fill="white" stroke="red" points="3179,-62 3179,-81 3283,-81 3283,-62 3179,-62"/>
<text text-anchor="middle" x="3231" y="-69" font-family="Helvetica,sans-Serif" font-size="10.00">sources/SNES.hpp</text>
</a>
</g>
</g>
<!-- Node4&#45;&gt;Node26 -->
<g id="edge24" class="edge">
<title>Node4&#45;&gt;Node26</title>
<path fill="none" stroke="midnightblue" d="M2035.22,-126.95C2043.43,-125.37 2051.94,-123.96 2060,-123 2550.14,-64.73 2680.76,-152.4 3170,-87 3180.03,-85.66 3190.83,-83.38 3200.51,-81.02"/>
<polygon fill="midnightblue" stroke="midnightblue" points="2034.53,-123.52 2025.42,-128.93 2035.91,-130.38 2034.53,-123.52"/>
</g>
<!-- Node45 -->
<g id="node26" class="node">
<title>Node45</title>
<g id="a_node26"><a xlink:href="testAPU_8cpp.html" target="_top" xlink:title=" ">
<polygon fill="white" stroke="black" points="2527,-0.5 2527,-19.5 2653,-19.5 2653,-0.5 2527,-0.5"/>
<text text-anchor="middle" x="2590" y="-7.5" font-family="Helvetica,sans-Serif" font-size="10.00">tests/APU/testAPU.cpp</text>
</a>
</g>
</g>
<!-- Node4&#45;&gt;Node45 -->
<g id="edge29" class="edge">
<title>Node4&#45;&gt;Node45</title>
<path fill="none" stroke="midnightblue" d="M2023.16,-125.21C2046.66,-115.96 2078.58,-102.3 2105,-87 2125.08,-75.38 2125.36,-64.36 2147,-56 2214.7,-29.86 2421.37,-17.86 2526.76,-13.32"/>
<polygon fill="midnightblue" stroke="midnightblue" points="2021.71,-122.02 2013.65,-128.9 2024.24,-128.55 2021.71,-122.02"/>
</g>
<!-- Node46 -->
<g id="node27" class="node">
<title>Node46</title>
<g id="a_node27"><a xlink:href="testAPUInstructions_8cpp.html" target="_top" xlink:title=" ">
<polygon fill="white" stroke="black" points="2759.5,-0.5 2759.5,-19.5 2942.5,-19.5 2942.5,-0.5 2759.5,-0.5"/>
<text text-anchor="middle" x="2851" y="-7.5" font-family="Helvetica,sans-Serif" font-size="10.00">tests/APU/testAPUInstructions.cpp</text>
</a>
</g>
</g>
<!-- Node4&#45;&gt;Node46 -->
<g id="edge30" class="edge">
<title>Node4&#45;&gt;Node46</title>
<path fill="none" stroke="midnightblue" d="M2035.77,-126.97C2043.81,-125.42 2052.12,-124.01 2060,-123 2216.04,-102.99 2621.69,-147.27 2767,-87 2785.08,-79.5 2825.81,-37.74 2843.05,-19.51"/>
<polygon fill="midnightblue" stroke="midnightblue" points="2034.9,-123.57 2025.79,-128.98 2036.29,-130.44 2034.9,-123.57"/>
</g>
<!-- Node47 -->
<g id="node28" class="node">
<title>Node47</title>
<g id="a_node28"><a xlink:href="testOperand_8cpp.html" target="_top" xlink:title=" ">
<polygon fill="white" stroke="black" points="3091.5,-0.5 3091.5,-19.5 3238.5,-19.5 3238.5,-0.5 3091.5,-0.5"/>
<text text-anchor="middle" x="3165" y="-7.5" font-family="Helvetica,sans-Serif" font-size="10.00">tests/APU/testOperand.cpp</text>
</a>
</g>
</g>
<!-- Node4&#45;&gt;Node47 -->
<g id="edge31" class="edge">
<title>Node4&#45;&gt;Node47</title>
<path fill="none" stroke="midnightblue" d="M2035.77,-126.95C2043.81,-125.41 2052.12,-124 2060,-123 2223.32,-102.24 2644.31,-140.54 2800,-87 2822.62,-79.22 2821.75,-64.8 2844,-56 2924.72,-24.08 3024.71,-14.29 3091.44,-11.55"/>
<polygon fill="midnightblue" stroke="midnightblue" points="2034.9,-123.56 2025.79,-128.97 2036.29,-130.42 2034.9,-123.56"/>
</g>
<!-- Node26&#45;&gt;Node24 -->
<g id="edge25" class="edge">
<title>Node26&#45;&gt;Node24</title>
<path fill="none" stroke="midnightblue" d="M3189.76,-59.61C3183.19,-58.19 3176.44,-56.91 3170,-56 3088.79,-44.48 2550.28,-22.81 2333.33,-14.43"/>
<polygon fill="midnightblue" stroke="midnightblue" points="3189.34,-63.1 3199.87,-61.93 3190.9,-56.28 3189.34,-63.1"/>
</g>
<!-- Node26&#45;&gt;Node45 -->
<g id="edge26" class="edge">
<title>Node26&#45;&gt;Node45</title>
<path fill="none" stroke="midnightblue" d="M3189.3,-59.68C3182.87,-58.27 3176.28,-56.98 3170,-56 3071.84,-40.62 2781.97,-22.3 2653.05,-14.64"/>
<polygon fill="midnightblue" stroke="midnightblue" points="3188.68,-63.13 3199.21,-61.95 3190.25,-56.3 3188.68,-63.13"/>
</g>
<!-- Node26&#45;&gt;Node46 -->
<g id="edge27" class="edge">
<title>Node26&#45;&gt;Node46</title>
<path fill="none" stroke="midnightblue" d="M3187.72,-59.69C3181.79,-58.36 3175.76,-57.09 3170,-56 3086.74,-40.27 2990.3,-27.4 2925.45,-19.51"/>
<polygon fill="midnightblue" stroke="midnightblue" points="3187.03,-63.12 3197.56,-61.96 3188.6,-56.3 3187.03,-63.12"/>
</g>
<!-- Node26&#45;&gt;Node47 -->
<g id="edge28" class="edge">
<title>Node26&#45;&gt;Node47</title>
<path fill="none" stroke="midnightblue" d="M3213.97,-55.15C3201.39,-43.81 3184.72,-28.78 3174.44,-19.51"/>
<polygon fill="midnightblue" stroke="midnightblue" points="3211.77,-57.88 3221.54,-61.98 3216.46,-52.68 3211.77,-57.88"/>
</g>
<!-- Node68&#45;&gt;Node4 -->
<g id="edge41" class="edge">
<title>Node68&#45;&gt;Node4</title>
<path fill="none" stroke="midnightblue" d="M1990,-180.32C1990,-169.5 1990,-156.4 1990,-148.01"/>
<polygon fill="midnightblue" stroke="midnightblue" points="1986.5,-180.48 1990,-190.48 1993.5,-180.48 1986.5,-180.48"/>
</g>
<!-- Node69 -->
<g id="node35" class="node">
<title>Node69</title>
<g id="a_node35"><a xlink:href="IPL_8cpp.html" target="_top" xlink:title=" ">
<polygon fill="white" stroke="black" points="1779,-129 1779,-148 1911,-148 1911,-129 1779,-129"/>
<text text-anchor="middle" x="1845" y="-136" font-family="Helvetica,sans-Serif" font-size="10.00">sources/APU/IPL/IPL.cpp</text>
</a>
</g>
</g>
<!-- Node68&#45;&gt;Node69 -->
<g id="edge42" class="edge">
<title>Node68&#45;&gt;Node69</title>
<path fill="none" stroke="midnightblue" d="M1959.86,-186.63C1931.69,-175.07 1890.38,-158.12 1865.74,-148.01"/>
<polygon fill="midnightblue" stroke="midnightblue" points="1958.64,-189.92 1969.23,-190.48 1961.3,-183.44 1958.64,-189.92"/>
</g>
<!-- Node70&#45;&gt;Node26 -->
<g id="edge50" class="edge">
<title>Node70&#45;&gt;Node26</title>
<path fill="none" stroke="midnightblue" d="M3500.55,-184.96C3486.72,-176.42 3469.03,-165.06 3454,-154 3436.72,-141.29 3436.02,-132.93 3417,-123 3403.54,-115.97 3315.67,-93.53 3265.67,-81.06"/>
<polygon fill="midnightblue" stroke="midnightblue" points="3499.08,-188.15 3509.44,-190.38 3502.72,-182.18 3499.08,-188.15"/>
</g>
<!-- Node71 -->
<g id="node37" class="node">
<title>Node71</title>
<g id="a_node37"><a xlink:href="Cartridge_8cpp.html" target="_top" xlink:title=" ">
<polygon fill="white" stroke="black" points="3819,-129 3819,-148 3989,-148 3989,-129 3819,-129"/>
<text text-anchor="middle" x="3904" y="-136" font-family="Helvetica,sans-Serif" font-size="10.00">sources/Cartridge/Cartridge.cpp</text>
</a>
</g>
</g>
<!-- Node70&#45;&gt;Node71 -->
<g id="edge44" class="edge">
<title>Node70&#45;&gt;Node71</title>
<path fill="none" stroke="midnightblue" d="M3588.5,-188.9C3661.96,-177.4 3780.71,-158.8 3849.66,-148.01"/>
<polygon fill="midnightblue" stroke="midnightblue" points="3587.78,-185.47 3578.44,-190.48 3588.87,-192.39 3587.78,-185.47"/>
</g>
<!-- Node70&#45;&gt;Node72 -->
<g id="edge45" class="edge">
<title>Node70&#45;&gt;Node72</title>
<path fill="none" stroke="midnightblue" d="M3524,-180.32C3524,-169.5 3524,-156.4 3524,-148.01"/>
<polygon fill="midnightblue" stroke="midnightblue" points="3520.5,-180.48 3524,-190.48 3527.5,-180.48 3520.5,-180.48"/>
</g>
<!-- Node81 -->
<g id="node42" class="node">
<title>Node81</title>
<g id="a_node42"><a xlink:href="HeaderViewer_8hpp.html" target="_top" xlink:title=" ">
<polygon fill="white" stroke="red" points="3603.5,-129 3603.5,-148 3800.5,-148 3800.5,-129 3603.5,-129"/>
<text text-anchor="middle" x="3702" y="-136" font-family="Helvetica,sans-Serif" font-size="10.00">sources/Debugger/HeaderViewer.hpp</text>
</a>
</g>
</g>
<!-- Node70&#45;&gt;Node81 -->
<g id="edge51" class="edge">
<title>Node70&#45;&gt;Node81</title>
<path fill="none" stroke="midnightblue" d="M3559.21,-187.23C3593.81,-175.67 3645.77,-158.3 3676.54,-148.01"/>
<polygon fill="midnightblue" stroke="midnightblue" points="3557.88,-183.99 3549.5,-190.48 3560.1,-190.62 3557.88,-183.99"/>
</g>
<!-- Node72&#45;&gt;Node26 -->
<g id="edge49" class="edge">
<title>Node72&#45;&gt;Node26</title>
<path fill="none" stroke="midnightblue" d="M3474.01,-126.79C3427.19,-116.71 3355.3,-101.09 3293,-87 3284.59,-85.1 3275.55,-83.01 3267.04,-81.02"/>
<polygon fill="midnightblue" stroke="midnightblue" points="3473.39,-130.24 3483.9,-128.92 3474.86,-123.39 3473.39,-130.24"/>
</g>
<!-- Node73 -->
<g id="node39" class="node">
<title>Node73</title>
<g id="a_node39"><a xlink:href="AddressingModes_8cpp.html" target="_top" xlink:title=" ">
<polygon fill="white" stroke="black" points="3301.5,-62 3301.5,-81 3488.5,-81 3488.5,-62 3301.5,-62"/>
<text text-anchor="middle" x="3395" y="-69" font-family="Helvetica,sans-Serif" font-size="10.00">sources/CPU/AddressingModes.cpp</text>
</a>
</g>
</g>
<!-- Node72&#45;&gt;Node73 -->
<g id="edge46" class="edge">
<title>Node72&#45;&gt;Node73</title>
<path fill="none" stroke="midnightblue" d="M3497.75,-124.27C3472.2,-111.4 3434.11,-92.21 3412.2,-81.17"/>
<polygon fill="midnightblue" stroke="midnightblue" points="3496.36,-127.49 3506.87,-128.87 3499.51,-121.24 3496.36,-127.49"/>
</g>
<!-- Node74 -->
<g id="node40" class="node">
<title>Node74</title>
<g id="a_node40"><a xlink:href="CPU_8cpp.html" target="_top" xlink:title=" ">
<polygon fill="white" stroke="black" points="3506.5,-62 3506.5,-81 3627.5,-81 3627.5,-62 3506.5,-62"/>
<text text-anchor="middle" x="3567" y="-69" font-family="Helvetica,sans-Serif" font-size="10.00">sources/CPU/CPU.cpp</text>
</a>
</g>
</g>
<!-- Node72&#45;&gt;Node74 -->
<g id="edge47" class="edge">
<title>Node72&#45;&gt;Node74</title>
<path fill="none" stroke="midnightblue" d="M3535.55,-120.03C3543.88,-107.45 3554.76,-91.01 3561.29,-81.13"/>
<polygon fill="midnightblue" stroke="midnightblue" points="3532.4,-118.46 3529.8,-128.73 3538.24,-122.32 3532.4,-118.46"/>
</g>
<!-- Node75 -->
<g id="node41" class="node">
<title>Node75</title>
<g id="a_node41"><a xlink:href="BitsInstructions_8cpp.html" target="_top" xlink:title=" ">
<polygon fill="white" stroke="black" points="3645.5,-56.5 3645.5,-86.5 3782.5,-86.5 3782.5,-56.5 3645.5,-56.5"/>
<text text-anchor="start" x="3653.5" y="-74.5" font-family="Helvetica,sans-Serif" font-size="10.00">sources/CPU/Instructions</text>
<text text-anchor="middle" x="3714" y="-63.5" font-family="Helvetica,sans-Serif" font-size="10.00">/BitsInstructions.cpp</text>
</a>
</g>
</g>
<!-- Node72&#45;&gt;Node75 -->
<g id="edge48" class="edge">
<title>Node72&#45;&gt;Node75</title>
<path fill="none" stroke="midnightblue" d="M3559.11,-125.49C3591.32,-114.47 3639.04,-98.14 3672.99,-86.53"/>
<polygon fill="midnightblue" stroke="midnightblue" points="3557.56,-122.32 3549.23,-128.87 3559.83,-128.94 3557.56,-122.32"/>
</g>
<!-- Node82&#45;&gt;Node26 -->
<g id="edge55" class="edge">
<title>Node82&#45;&gt;Node26</title>
<path fill="none" stroke="midnightblue" d="M3007.08,-188.82C3044.83,-182.18 3088.89,-171.38 3126,-154 3166.54,-135.01 3205.94,-98 3222.64,-81.18"/>
<polygon fill="midnightblue" stroke="midnightblue" points="3006.4,-185.38 2997.13,-190.5 3007.57,-192.28 3006.4,-185.38"/>
</g>
<!-- Node82&#45;&gt;Node72 -->
<g id="edge54" class="edge">
<title>Node82&#45;&gt;Node72</title>
<path fill="none" stroke="midnightblue" d="M3021.28,-189.89C3198.14,-173.97 3244.22,-173.53 3417,-154 3432.46,-152.25 3449.14,-150.11 3464.63,-148.02"/>
<polygon fill="midnightblue" stroke="midnightblue" points="3020.75,-186.42 3011.11,-190.81 3021.38,-193.39 3020.75,-186.42"/>
</g>
<!-- Node82&#45;&gt;Node85 -->
<g id="edge56" class="edge">
<title>Node82&#45;&gt;Node85</title>
<path fill="none" stroke="midnightblue" d="M2949.97,-186.33C2976.37,-174.78 3014.64,-158.03 3037.55,-148.01"/>
<polygon fill="midnightblue" stroke="midnightblue" points="2948.24,-183.26 2940.49,-190.48 2951.05,-189.67 2948.24,-183.26"/>
</g>
<!-- Node85&#45;&gt;Node26 -->
<g id="edge57" class="edge">
<title>Node85&#45;&gt;Node26</title>
<path fill="none" stroke="midnightblue" d="M3089.74,-125.27C3124.27,-112.37 3177.79,-92.38 3208.08,-81.06"/>
<polygon fill="midnightblue" stroke="midnightblue" points="3088.25,-122.09 3080.11,-128.87 3090.7,-128.65 3088.25,-122.09"/>
</g>
<!-- Node93 -->
<g id="node46" class="node">
<title>Node93</title>
<g id="a_node46"><a xlink:href="RectangleShadow_8hpp.html" target="_top" xlink:title=" ">
<polygon fill="white" stroke="red" points="3258.5,-123.5 3258.5,-153.5 3407.5,-153.5 3407.5,-123.5 3258.5,-123.5"/>
<text text-anchor="start" x="3266.5" y="-141.5" font-family="Helvetica,sans-Serif" font-size="10.00">sources/Memory/Rectangle</text>
<text text-anchor="middle" x="3333" y="-130.5" font-family="Helvetica,sans-Serif" font-size="10.00">Shadow.hpp</text>
</a>
</g>
</g>
<!-- Node92&#45;&gt;Node93 -->
<g id="edge60" class="edge">
<title>Node92&#45;&gt;Node93</title>
<path fill="none" stroke="midnightblue" d="M3168.05,-187.61C3201.33,-177.9 3249.29,-163.92 3284.92,-153.52"/>
<polygon fill="midnightblue" stroke="midnightblue" points="3166.85,-184.32 3158.23,-190.48 3168.81,-191.04 3166.85,-184.32"/>
</g>
<!-- Node97&#45;&gt;Node70 -->
<g id="edge68" class="edge">
<title>Node97&#45;&gt;Node70</title>
<path fill="none" stroke="midnightblue" d="M3421.23,-315.06C3465.55,-306.82 3512.64,-294.3 3526,-277 3541.33,-257.15 3532.8,-224.9 3527.39,-209.59"/>
<polygon fill="midnightblue" stroke="midnightblue" points="3420.46,-311.64 3411.24,-316.86 3421.7,-318.53 3420.46,-311.64"/>
</g>
<!-- Node97&#45;&gt;Node93 -->
<g id="edge70" class="edge">
<title>Node97&#45;&gt;Node93</title>
<path fill="none" stroke="midnightblue" d="M3333,-303.21C3333,-263.37 3333,-185.37 3333,-153.54"/>
<polygon fill="midnightblue" stroke="midnightblue" points="3329.5,-303.37 3333,-313.37 3336.5,-303.37 3329.5,-303.37"/>
</g>
<!-- Node98 -->
<g id="node49" class="node">
<title>Node98</title>
<g id="a_node49"><a xlink:href="Ram_8hpp.html" target="_top" xlink:title=" ">
<polygon fill="white" stroke="red" points="3179,-252 3179,-271 3305,-271 3305,-252 3179,-252"/>
<text text-anchor="middle" x="3242" y="-259" font-family="Helvetica,sans-Serif" font-size="10.00">sources/Ram/Ram.hpp</text>
</a>
</g>
</g>
<!-- Node97&#45;&gt;Node98 -->
<g id="edge63" class="edge">
<title>Node97&#45;&gt;Node98</title>
<path fill="none" stroke="midnightblue" d="M3304.73,-307.31C3287.64,-295.1 3266.75,-280.18 3253.91,-271.01"/>
<polygon fill="midnightblue" stroke="midnightblue" points="3303.08,-310.43 3313.25,-313.4 3307.15,-304.74 3303.08,-310.43"/>
</g>
<!-- Node100 -->
<g id="node50" class="node">
<title>Node100</title>
<g id="a_node50"><a xlink:href="ARectangleMemory_8cpp.html" target="_top" xlink:title=" ">
<polygon fill="white" stroke="black" points="3361,-246.5 3361,-276.5 3517,-276.5 3517,-246.5 3361,-246.5"/>
<text text-anchor="start" x="3369" y="-264.5" font-family="Helvetica,sans-Serif" font-size="10.00">sources/Memory/ARectangle</text>
<text text-anchor="middle" x="3439" y="-253.5" font-family="Helvetica,sans-Serif" font-size="10.00">Memory.cpp</text>
</a>
</g>
</g>
<!-- Node97&#45;&gt;Node100 -->
<g id="edge69" class="edge">
<title>Node97&#45;&gt;Node100</title>
<path fill="none" stroke="midnightblue" d="M3364.78,-308.02C3381.27,-297.9 3401.05,-285.77 3416.04,-276.58"/>
<polygon fill="midnightblue" stroke="midnightblue" points="3362.7,-305.18 3356,-313.4 3366.35,-311.15 3362.7,-305.18"/>
</g>
<!-- Node98&#45;&gt;Node4 -->
<g id="edge64" class="edge">
<title>Node98&#45;&gt;Node4</title>
<path fill="none" stroke="midnightblue" d="M3168.8,-256.59C3009.4,-247.82 2640.72,-226.1 2586,-210 2568.07,-204.72 2566.94,-195.25 2549,-190 2339.84,-128.83 2275.82,-184.17 2060,-154 2049.06,-152.47 2037.27,-150.25 2026.54,-148.01"/>
<polygon fill="midnightblue" stroke="midnightblue" points="3168.82,-260.09 3179,-257.15 3169.2,-253.1 3168.82,-260.09"/>
</g>
<!-- Node98&#45;&gt;Node26 -->
<g id="edge66" class="edge">
<title>Node98&#45;&gt;Node26</title>
<path fill="none" stroke="midnightblue" d="M3240.96,-241.83C3240.16,-227.62 3239.02,-207.58 3238,-190 3235.63,-149.2 3232.69,-100.43 3231.52,-81.05"/>
<polygon fill="midnightblue" stroke="midnightblue" points="3237.46,-242.03 3241.52,-251.82 3244.45,-241.64 3237.46,-242.03"/>
</g>
<!-- Node98&#45;&gt;Node70 -->
<g id="edge65" class="edge">
<title>Node98&#45;&gt;Node70</title>
<path fill="none" stroke="midnightblue" d="M3292.23,-249.9C3346.9,-238.37 3433.24,-220.15 3483.67,-209.51"/>
<polygon fill="midnightblue" stroke="midnightblue" points="3291.47,-246.49 3282.4,-251.98 3292.91,-253.34 3291.47,-246.49"/>
</g>
<!-- Node98&#45;&gt;Node85 -->
<g id="edge67" class="edge">
<title>Node98&#45;&gt;Node85</title>
<path fill="none" stroke="midnightblue" d="M3168.5,-256.88C3054.21,-250.49 2844.56,-235.43 2822,-210 2816.1,-203.35 2816.41,-196.91 2822,-190 2825.04,-186.24 2947.06,-161.41 3014.04,-148.02"/>
<polygon fill="midnightblue" stroke="midnightblue" points="3168.41,-260.38 3178.58,-257.44 3168.79,-253.39 3168.41,-260.38"/>
</g>
</g>
</svg>
