<?xml version="1.0" encoding="UTF-8" standalone="no"?>
<!DOCTYPE svg PUBLIC "-//W3C//DTD SVG 1.1//EN"
 "http://www.w3.org/Graphics/SVG/1.1/DTD/svg11.dtd">
<!-- Generated by graphviz version 2.43.0 (0)
 -->
<!-- Title: Graphical Class Hierarchy Pages: 1 -->
<svg width="308pt" height="460pt"
 viewBox="0.00 0.00 308.00 459.50" xmlns="http://www.w3.org/2000/svg" xmlns:xlink="http://www.w3.org/1999/xlink">
<g id="graph0" class="graph" transform="scale(1 1) rotate(0) translate(4 455.5)">
<title>Graphical Class Hierarchy</title>
<polygon fill="white" stroke="transparent" points="-4,4 -4,-455.5 304,-455.5 304,4 -4,4"/>
<!-- Node24 -->
<g id="node1" class="node">
<title>Node24</title>
<g id="a_node1"><a xlink:title=" ">
<polygon fill="white" stroke="#bfbfbf" points="0,-211 0,-230 87,-230 87,-211 0,-211"/>
<text text-anchor="middle" x="43.5" y="-218" font-family="Helvetica,sans-Serif" font-size="10.00">QMainWindow</text>
</a>
</g>
</g>
<!-- Node0 -->
<g id="node2" class="node">
<title>Node0</title>
<g id="a_node2"><a xlink:href="classComSquare_1_1Debugger_1_1ClosableWindow.html" target="_top" xlink:title=" ">
<polygon fill="white" stroke="black" points="126,-410 126,-451 297,-451 297,-410 126,-410"/>
<text text-anchor="start" x="134" y="-439" font-family="Helvetica,sans-Serif" font-size="10.00">ComSquare::Debugger</text>
<text text-anchor="start" x="134" y="-428" font-family="Helvetica,sans-Serif" font-size="10.00">::ClosableWindow&lt; ComSquare</text>
<text text-anchor="middle" x="211.5" y="-417" font-family="Helvetica,sans-Serif" font-size="10.00">::Debugger::APUDebug &gt;</text>
</a>
</g>
</g>
<!-- Node24&#45;&gt;Node0 -->
<g id="edge1" class="edge">
<title>Node24&#45;&gt;Node0</title>
<path fill="none" stroke="midnightblue" d="M47.73,-240.23C54.76,-276.96 74.85,-356.1 123,-400.5 126.78,-403.98 130.98,-407.07 135.44,-409.79"/>
<polygon fill="midnightblue" stroke="midnightblue" points="51.16,-239.51 45.95,-230.28 44.26,-240.74 51.16,-239.51"/>
</g>
<!-- Node26 -->
<g id="node3" class="node">
<title>Node26</title>
<g id="a_node3"><a xlink:href="classComSquare_1_1Debugger_1_1ClosableWindow.html" target="_top" xlink:title=" ">
<polygon fill="white" stroke="black" points="126,-350 126,-391 297,-391 297,-350 126,-350"/>
<text text-anchor="start" x="134" y="-379" font-family="Helvetica,sans-Serif" font-size="10.00">ComSquare::Debugger</text>
<text text-anchor="start" x="134" y="-368" font-family="Helvetica,sans-Serif" font-size="10.00">::ClosableWindow&lt; ComSquare</text>
<text text-anchor="middle" x="211.5" y="-357" font-family="Helvetica,sans-Serif" font-size="10.00">::Debugger::CGramDebug &gt;</text>
</a>
</g>
</g>
<!-- Node24&#45;&gt;Node26 -->
<g id="edge2" class="edge">
<title>Node24&#45;&gt;Node26</title>
<path fill="none" stroke="midnightblue" d="M52.12,-239.41C63.64,-265.73 87.95,-313.25 123,-340.5 127.56,-344.05 132.57,-347.19 137.82,-349.98"/>
<polygon fill="midnightblue" stroke="midnightblue" points="55.32,-238 48.21,-230.15 48.87,-240.72 55.32,-238"/>
</g>
<!-- Node27 -->
<g id="node4" class="node">
<title>Node27</title>
<g id="a_node4"><a xlink:href="classComSquare_1_1Debugger_1_1ClosableWindow.html" target="_top" xlink:title=" ">
<polygon fill="white" stroke="black" points="126,-290 126,-331 297,-331 297,-290 126,-290"/>
<text text-anchor="start" x="134" y="-319" font-family="Helvetica,sans-Serif" font-size="10.00">ComSquare::Debugger</text>
<text text-anchor="start" x="134" y="-308" font-family="Helvetica,sans-Serif" font-size="10.00">::ClosableWindow&lt; ComSquare</text>
<text text-anchor="middle" x="211.5" y="-297" font-family="Helvetica,sans-Serif" font-size="10.00">::Debugger::CPUDebug &gt;</text>
</a>
</g>
</g>
<!-- Node24&#45;&gt;Node27 -->
<g id="edge3" class="edge">
<title>Node24&#45;&gt;Node27</title>
<path fill="none" stroke="midnightblue" d="M62.52,-237C77.72,-250.21 100.54,-268.48 123,-280.5 129.37,-283.91 136.21,-287.05 143.15,-289.91"/>
<polygon fill="midnightblue" stroke="midnightblue" points="64.71,-234.26 54.91,-230.24 60.07,-239.5 64.71,-234.26"/>
</g>
<!-- Node28 -->
<g id="node5" class="node">
<title>Node28</title>
<g id="a_node5"><a xlink:href="classComSquare_1_1Debugger_1_1ClosableWindow.html" target="_top" xlink:title=" ">
<polygon fill="white" stroke="black" points="126,-230 126,-271 297,-271 297,-230 126,-230"/>
<text text-anchor="start" x="134" y="-259" font-family="Helvetica,sans-Serif" font-size="10.00">ComSquare::Debugger</text>
<text text-anchor="start" x="134" y="-248" font-family="Helvetica,sans-Serif" font-size="10.00">::ClosableWindow&lt; ComSquare</text>
<text text-anchor="middle" x="211.5" y="-237" font-family="Helvetica,sans-Serif" font-size="10.00">::Debugger::HeaderViewer &gt;</text>
</a>
</g>
</g>
<!-- Node24&#45;&gt;Node28 -->
<g id="edge4" class="edge">
<title>Node24&#45;&gt;Node28</title>
<path fill="none" stroke="midnightblue" d="M97.32,-230.05C106.48,-231.7 116.2,-233.46 125.96,-235.22"/>
<polygon fill="midnightblue" stroke="midnightblue" points="97.71,-226.56 87.25,-228.23 96.47,-233.45 97.71,-226.56"/>
</g>
<!-- Node29 -->
<g id="node6" class="node">
<title>Node29</title>
<g id="a_node6"><a xlink:href="classComSquare_1_1Debugger_1_1ClosableWindow.html" target="_top" xlink:title=" ">
<polygon fill="white" stroke="black" points="123,-170 123,-211 300,-211 300,-170 123,-170"/>
<text text-anchor="start" x="131" y="-199" font-family="Helvetica,sans-Serif" font-size="10.00">ComSquare::Debugger</text>
<text text-anchor="start" x="131" y="-188" font-family="Helvetica,sans-Serif" font-size="10.00">::ClosableWindow&lt; ComSquare</text>
<text text-anchor="middle" x="211.5" y="-177" font-family="Helvetica,sans-Serif" font-size="10.00">::Debugger::MemoryBusDebug &gt;</text>
</a>
</g>
</g>
<!-- Node24&#45;&gt;Node29 -->
<g id="edge5" class="edge">
<title>Node24&#45;&gt;Node29</title>
<path fill="none" stroke="midnightblue" d="M97.3,-210.96C105.45,-209.49 114.04,-207.93 122.71,-206.37"/>
<polygon fill="midnightblue" stroke="midnightblue" points="96.47,-207.55 87.25,-212.77 97.71,-214.44 96.47,-207.55"/>
</g>
<!-- Node30 -->
<g id="node7" class="node">
<title>Node30</title>
<g id="a_node7"><a xlink:href="classComSquare_1_1Debugger_1_1ClosableWindow.html" target="_top" xlink:title=" ">
<polygon fill="white" stroke="black" points="126,-110 126,-151 297,-151 297,-110 126,-110"/>
<text text-anchor="start" x="134" y="-139" font-family="Helvetica,sans-Serif" font-size="10.00">ComSquare::Debugger</text>
<text text-anchor="start" x="134" y="-128" font-family="Helvetica,sans-Serif" font-size="10.00">::ClosableWindow&lt; ComSquare</text>
<text text-anchor="middle" x="211.5" y="-117" font-family="Helvetica,sans-Serif" font-size="10.00">::Debugger::MemoryViewer &gt;</text>
</a>
</g>
</g>
<!-- Node24&#45;&gt;Node30 -->
<g id="edge6" class="edge">
<title>Node24&#45;&gt;Node30</title>
<path fill="none" stroke="midnightblue" d="M62.52,-204C77.72,-190.79 100.54,-172.52 123,-160.5 129.37,-157.09 136.21,-153.95 143.15,-151.09"/>
<polygon fill="midnightblue" stroke="midnightblue" points="60.07,-201.5 54.91,-210.76 64.71,-206.74 60.07,-201.5"/>
</g>
<!-- Node31 -->
<g id="node8" class="node">
<title>Node31</title>
<g id="a_node8"><a xlink:href="classComSquare_1_1Debugger_1_1ClosableWindow.html" target="_top" xlink:title=" ">
<polygon fill="white" stroke="black" points="126,-50 126,-91 297,-91 297,-50 126,-50"/>
<text text-anchor="start" x="134" y="-79" font-family="Helvetica,sans-Serif" font-size="10.00">ComSquare::Debugger</text>
<text text-anchor="start" x="134" y="-68" font-family="Helvetica,sans-Serif" font-size="10.00">::ClosableWindow&lt; ComSquare</text>
<text text-anchor="middle" x="211.5" y="-57" font-family="Helvetica,sans-Serif" font-size="10.00">::Debugger::RegisterViewer &gt;</text>
</a>
</g>
</g>
<!-- Node24&#45;&gt;Node31 -->
<g id="edge7" class="edge">
<title>Node24&#45;&gt;Node31</title>
<path fill="none" stroke="midnightblue" d="M52.12,-201.59C63.64,-175.27 87.95,-127.75 123,-100.5 127.56,-96.95 132.57,-93.81 137.82,-91.02"/>
<polygon fill="midnightblue" stroke="midnightblue" points="48.87,-200.28 48.21,-210.85 55.32,-203 48.87,-200.28"/>
</g>
<!-- Node32 -->
<g id="node9" class="node">
<title>Node32</title>
<g id="a_node9"><a xlink:href="classComSquare_1_1Debugger_1_1ClosableWindow.html" target="_top" xlink:title=" ">
<polygon fill="white" stroke="black" points="145.5,-0.5 145.5,-30.5 277.5,-30.5 277.5,-0.5 145.5,-0.5"/>
<text text-anchor="start" x="153.5" y="-18.5" font-family="Helvetica,sans-Serif" font-size="10.00">ComSquare::Debugger</text>
<text text-anchor="middle" x="211.5" y="-7.5" font-family="Helvetica,sans-Serif" font-size="10.00">::ClosableWindow&lt; T &gt;</text>
</a>
</g>
</g>
<!-- Node24&#45;&gt;Node32 -->
<g id="edge8" class="edge">
<title>Node24&#45;&gt;Node32</title>
<path fill="none" stroke="midnightblue" d="M47.52,-200.53C54.19,-163.41 73.71,-83.64 123,-40.5 129.54,-34.78 137.31,-30.36 145.47,-26.95"/>
<polygon fill="midnightblue" stroke="midnightblue" points="44.03,-200.15 45.84,-210.59 50.94,-201.31 44.03,-200.15"/>
</g>
</g>
</svg>
