<?xml version="1.0" encoding="UTF-8" standalone="no"?>
<!DOCTYPE svg PUBLIC "-//W3C//DTD SVG 1.1//EN"
 "http://www.w3.org/Graphics/SVG/1.1/DTD/svg11.dtd">
<!-- Generated by graphviz version 2.43.0 (0)
 -->
<!-- Title: Graphical Class Hierarchy Pages: 1 -->
<svg width="608pt" height="176pt"
 viewBox="0.00 0.00 608.00 175.50" xmlns="http://www.w3.org/2000/svg" xmlns:xlink="http://www.w3.org/1999/xlink">
<g id="graph0" class="graph" transform="scale(1 1) rotate(0) translate(4 171.5)">
<title>Graphical Class Hierarchy</title>
<polygon fill="white" stroke="transparent" points="-4,4 -4,-171.5 604,-171.5 604,4 -4,4"/>
<!-- Node47 -->
<g id="node1" class="node">
<title>Node47</title>
<g id="a_node1"><a xlink:href="classComSquare_1_1Renderer_1_1IRenderer.html" target="_top" xlink:title=" ">
<polygon fill="white" stroke="black" points="0,-88 0,-118 123,-118 123,-88 0,-88"/>
<text text-anchor="start" x="8" y="-106" font-family="Helvetica,sans-Serif" font-size="10.00">ComSquare::Renderer</text>
<text text-anchor="middle" x="61.5" y="-95" font-family="Helvetica,sans-Serif" font-size="10.00">::IRenderer</text>
</a>
</g>
</g>
<!-- Node48 -->
<g id="node2" class="node">
<title>Node48</title>
<g id="a_node2"><a xlink:href="classComSquare_1_1Renderer_1_1NoRenderer.html" target="_top" xlink:title="A renderer that discard everything you give. (Used for tests).">
<polygon fill="white" stroke="black" points="159,-137 159,-167 282,-167 282,-137 159,-137"/>
<text text-anchor="start" x="167" y="-155" font-family="Helvetica,sans-Serif" font-size="10.00">ComSquare::Renderer</text>
<text text-anchor="middle" x="220.5" y="-144" font-family="Helvetica,sans-Serif" font-size="10.00">::NoRenderer</text>
</a>
</g>
</g>
<!-- Node47&#45;&gt;Node48 -->
<g id="edge1" class="edge">
<title>Node47&#45;&gt;Node48</title>
<path fill="none" stroke="midnightblue" d="M120.54,-121.11C137.23,-126.32 155.24,-131.95 171.27,-136.95"/>
<polygon fill="midnightblue" stroke="midnightblue" points="121.47,-117.74 110.89,-118.1 119.39,-124.42 121.47,-117.74"/>
</g>
<!-- Node49 -->
<g id="node3" class="node">
<title>Node49</title>
<g id="a_node3"><a xlink:href="classComSquare_1_1Renderer_1_1QtSFML.html" target="_top" xlink:title="A SFML renderer inside a QT window.">
<polygon fill="white" stroke="black" points="159,-88 159,-118 282,-118 282,-88 159,-88"/>
<text text-anchor="start" x="167" y="-106" font-family="Helvetica,sans-Serif" font-size="10.00">ComSquare::Renderer</text>
<text text-anchor="middle" x="220.5" y="-95" font-family="Helvetica,sans-Serif" font-size="10.00">::QtSFML</text>
</a>
</g>
</g>
<!-- Node47&#45;&gt;Node49 -->
<g id="edge2" class="edge">
<title>Node47&#45;&gt;Node49</title>
<path fill="none" stroke="midnightblue" d="M133.21,-103C141.81,-103 150.53,-103 158.96,-103"/>
<polygon fill="midnightblue" stroke="midnightblue" points="133.2,-99.5 123.2,-103 133.2,-106.5 133.2,-99.5"/>
</g>
<!-- Node50 -->
<g id="node4" class="node">
<title>Node50</title>
<g id="a_node4"><a xlink:href="classComSquare_1_1Renderer_1_1SFRenderer.html" target="_top" xlink:title=" ">
<polygon fill="white" stroke="black" points="159,-39 159,-69 282,-69 282,-39 159,-39"/>
<text text-anchor="start" x="167" y="-57" font-family="Helvetica,sans-Serif" font-size="10.00">ComSquare::Renderer</text>
<text text-anchor="middle" x="220.5" y="-46" font-family="Helvetica,sans-Serif" font-size="10.00">::SFRenderer</text>
</a>
</g>
</g>
<!-- Node47&#45;&gt;Node50 -->
<g id="edge3" class="edge">
<title>Node47&#45;&gt;Node50</title>
<path fill="none" stroke="midnightblue" d="M120.54,-84.89C137.23,-79.68 155.24,-74.05 171.27,-69.05"/>
<polygon fill="midnightblue" stroke="midnightblue" points="119.39,-81.58 110.89,-87.9 121.47,-88.26 119.39,-81.58"/>
</g>
<!-- Node0 -->
<g id="node5" class="node">
<title>Node0</title>
<g id="a_node5"><a xlink:href="classComSquare_1_1Renderer_1_1QtWidgetSFML.html" target="_top" xlink:title="A widget that you can put inside a QT application that render using the SFML.">
<polygon fill="white" stroke="black" points="318,-17 318,-47 441,-47 441,-17 318,-17"/>
<text text-anchor="start" x="326" y="-35" font-family="Helvetica,sans-Serif" font-size="10.00">ComSquare::Renderer</text>
<text text-anchor="middle" x="379.5" y="-24" font-family="Helvetica,sans-Serif" font-size="10.00">::QtWidgetSFML</text>
</a>
</g>
</g>
<!-- Node50&#45;&gt;Node0 -->
<g id="edge4" class="edge">
<title>Node50&#45;&gt;Node0</title>
<path fill="none" stroke="midnightblue" d="M292.21,-44.09C300.81,-42.89 309.53,-41.66 317.96,-40.48"/>
<polygon fill="midnightblue" stroke="midnightblue" points="291.62,-40.64 282.2,-45.49 292.59,-47.57 291.62,-40.64"/>
</g>
<!-- Node1 -->
<g id="node6" class="node">
<title>Node1</title>
<g id="a_node6"><a xlink:href="classComSquare_1_1Renderer_1_1QtFullSFML.html" target="_top" xlink:title="The SFML window that manage the update.">
<polygon fill="white" stroke="black" points="477,-17 477,-47 600,-47 600,-17 477,-17"/>
<text text-anchor="start" x="485" y="-35" font-family="Helvetica,sans-Serif" font-size="10.00">ComSquare::Renderer</text>
<text text-anchor="middle" x="538.5" y="-24" font-family="Helvetica,sans-Serif" font-size="10.00">::QtFullSFML</text>
</a>
</g>
</g>
<!-- Node0&#45;&gt;Node1 -->
<g id="edge5" class="edge">
<title>Node0&#45;&gt;Node1</title>
<path fill="none" stroke="midnightblue" d="M451.21,-32C459.81,-32 468.53,-32 476.96,-32"/>
<polygon fill="midnightblue" stroke="midnightblue" points="451.2,-28.5 441.2,-32 451.2,-35.5 451.2,-28.5"/>
</g>
<!-- Node11 -->
<g id="node7" class="node">
<title>Node11</title>
<g id="a_node7"><a xlink:title=" ">
<polygon fill="white" stroke="#bfbfbf" points="191,-0.5 191,-19.5 250,-19.5 250,-0.5 191,-0.5"/>
<text text-anchor="middle" x="220.5" y="-7.5" font-family="Helvetica,sans-Serif" font-size="10.00">QWidget</text>
</a>
</g>
</g>
<!-- Node11&#45;&gt;Node0 -->
<g id="edge6" class="edge">
<title>Node11&#45;&gt;Node0</title>
<path fill="none" stroke="midnightblue" d="M260.55,-15.47C277.8,-17.89 298.49,-20.79 317.69,-23.48"/>
<polygon fill="midnightblue" stroke="midnightblue" points="260.69,-11.96 250.3,-14.04 259.71,-18.89 260.69,-11.96"/>
</g>
</g>
</svg>
