<?xml version="1.0" encoding="UTF-8" standalone="no"?>
<!DOCTYPE svg PUBLIC "-//W3C//DTD SVG 1.1//EN"
 "http://www.w3.org/Graphics/SVG/1.1/DTD/svg11.dtd">
<!-- Generated by graphviz version 2.43.0 (0)
 -->
<!-- Title: Graphical Class Hierarchy Pages: 1 -->
<svg width="632pt" height="350pt"
 viewBox="0.00 0.00 632.00 350.00" xmlns="http://www.w3.org/2000/svg" xmlns:xlink="http://www.w3.org/1999/xlink">
<g id="graph0" class="graph" transform="scale(1 1) rotate(0) translate(4 346)">
<title>Graphical Class Hierarchy</title>
<polygon fill="white" stroke="transparent" points="-4,4 -4,-346 628,-346 628,4 -4,4"/>
<!-- Node56 -->
<g id="node1" class="node">
<title>Node56</title>
<g id="a_node1"><a xlink:href="classComSquare_1_1Memory_1_1IMemory.html" target="_top" xlink:title="Common interface implemented by all components mapping memory.">
<polygon fill="white" stroke="black" points="0,-90.5 0,-120.5 125,-120.5 125,-90.5 0,-90.5"/>
<text text-anchor="start" x="8" y="-108.5" font-family="Helvetica,sans-Serif" font-size="10.00">ComSquare::Memory::</text>
<text text-anchor="middle" x="62.5" y="-97.5" font-family="Helvetica,sans-Serif" font-size="10.00">IMemory</text>
</a>
</g>
</g>
<!-- Node57 -->
<g id="node2" class="node">
<title>Node57</title>
<g id="a_node2"><a xlink:href="classComSquare_1_1Memory_1_1AMemory.html" target="_top" xlink:title="Abstract class representing a continuous block of memory.">
<polygon fill="white" stroke="black" points="161,-156.5 161,-186.5 286,-186.5 286,-156.5 161,-156.5"/>
<text text-anchor="start" x="169" y="-174.5" font-family="Helvetica,sans-Serif" font-size="10.00">ComSquare::Memory::</text>
<text text-anchor="middle" x="223.5" y="-163.5" font-family="Helvetica,sans-Serif" font-size="10.00">AMemory</text>
</a>
</g>
</g>
<!-- Node56&#45;&gt;Node57 -->
<g id="edge1" class="edge">
<title>Node56&#45;&gt;Node57</title>
<path fill="none" stroke="midnightblue" d="M109.4,-124.55C133.81,-134.68 163.4,-146.97 186.19,-156.43"/>
<polygon fill="midnightblue" stroke="midnightblue" points="110.56,-121.24 99.98,-120.64 107.87,-127.71 110.56,-121.24"/>
</g>
<!-- Node63 -->
<g id="node10" class="node">
<title>Node63</title>
<g id="a_node10"><a xlink:href="classComSquare_1_1Memory_1_1ARectangleMemory.html" target="_top" xlink:title="Base memory class to map non continuous rectangle to the memory. (A rectangle that spam across more t...">
<polygon fill="white" stroke="black" points="161,-44.5 161,-74.5 286,-74.5 286,-44.5 161,-44.5"/>
<text text-anchor="start" x="169" y="-62.5" font-family="Helvetica,sans-Serif" font-size="10.00">ComSquare::Memory::</text>
<text text-anchor="middle" x="223.5" y="-51.5" font-family="Helvetica,sans-Serif" font-size="10.00">ARectangleMemory</text>
</a>
</g>
</g>
<!-- Node56&#45;&gt;Node63 -->
<g id="edge9" class="edge">
<title>Node56&#45;&gt;Node63</title>
<path fill="none" stroke="midnightblue" d="M125.26,-87.63C140.24,-83.3 156.11,-78.71 170.59,-74.52"/>
<polygon fill="midnightblue" stroke="midnightblue" points="124.2,-84.3 115.56,-90.44 126.14,-91.02 124.2,-84.3"/>
</g>
<!-- Node58 -->
<g id="node3" class="node">
<title>Node58</title>
<g id="a_node3"><a xlink:href="classComSquare_1_1APU_1_1APU.html" target="_top" xlink:title=" ">
<polygon fill="white" stroke="black" points="329.5,-257 329.5,-276 454.5,-276 454.5,-257 329.5,-257"/>
<text text-anchor="middle" x="392" y="-264" font-family="Helvetica,sans-Serif" font-size="10.00">ComSquare::APU::APU</text>
</a>
</g>
</g>
<!-- Node57&#45;&gt;Node58 -->
<g id="edge2" class="edge">
<title>Node57&#45;&gt;Node58</title>
<path fill="none" stroke="midnightblue" d="M247.14,-193.4C265.84,-210.38 293.81,-233.34 322,-247.5 329.55,-251.29 337.96,-254.41 346.23,-256.94"/>
<polygon fill="midnightblue" stroke="midnightblue" points="249.44,-190.76 239.72,-186.53 244.68,-195.89 249.44,-190.76"/>
</g>
<!-- Node59 -->
<g id="node5" class="node">
<title>Node59</title>
<g id="a_node5"><a xlink:href="classComSquare_1_1APU_1_1IPL_1_1IPL.html" target="_top" xlink:title=" ">
<polygon fill="white" stroke="black" points="322,-143 322,-162 462,-162 462,-143 322,-143"/>
<text text-anchor="middle" x="392" y="-150" font-family="Helvetica,sans-Serif" font-size="10.00">ComSquare::APU::IPL::IPL</text>
</a>
</g>
</g>
<!-- Node57&#45;&gt;Node59 -->
<g id="edge4" class="edge">
<title>Node57&#45;&gt;Node59</title>
<path fill="none" stroke="midnightblue" d="M296,-163.34C304.58,-162.36 313.33,-161.36 321.87,-160.39"/>
<polygon fill="midnightblue" stroke="midnightblue" points="295.56,-159.87 286.03,-164.48 296.36,-166.82 295.56,-159.87"/>
</g>
<!-- Node60 -->
<g id="node6" class="node">
<title>Node60</title>
<g id="a_node6"><a xlink:href="classComSquare_1_1CPU_1_1CPU.html" target="_top" xlink:title="The main CPU.">
<polygon fill="white" stroke="black" points="329.5,-181 329.5,-200 454.5,-200 454.5,-181 329.5,-181"/>
<text text-anchor="middle" x="392" y="-188" font-family="Helvetica,sans-Serif" font-size="10.00">ComSquare::CPU::CPU</text>
</a>
</g>
</g>
<!-- Node57&#45;&gt;Node60 -->
<g id="edge5" class="edge">
<title>Node57&#45;&gt;Node60</title>
<path fill="none" stroke="midnightblue" d="M296.12,-179.67C307.22,-180.94 318.6,-182.24 329.45,-183.48"/>
<polygon fill="midnightblue" stroke="midnightblue" points="296.36,-176.18 286.03,-178.52 295.56,-183.13 296.36,-176.18"/>
</g>
<!-- Node61 -->
<g id="node8" class="node">
<title>Node61</title>
<g id="a_node8"><a xlink:href="classComSquare_1_1Memory_1_1MemoryShadow.html" target="_top" xlink:title=" ">
<polygon fill="white" stroke="black" points="329.5,-93.5 329.5,-123.5 454.5,-123.5 454.5,-93.5 329.5,-93.5"/>
<text text-anchor="start" x="337.5" y="-111.5" font-family="Helvetica,sans-Serif" font-size="10.00">ComSquare::Memory::</text>
<text text-anchor="middle" x="392" y="-100.5" font-family="Helvetica,sans-Serif" font-size="10.00">MemoryShadow</text>
</a>
</g>
</g>
<!-- Node57&#45;&gt;Node61 -->
<g id="edge7" class="edge">
<title>Node57&#45;&gt;Node61</title>
<path fill="none" stroke="midnightblue" d="M271.99,-152.73C287.86,-146.52 305.66,-139.64 322,-133.5 330.71,-130.23 340.06,-126.79 348.98,-123.54"/>
<polygon fill="midnightblue" stroke="midnightblue" points="270.42,-149.58 262.39,-156.49 272.97,-156.1 270.42,-149.58"/>
</g>
<!-- Node62 -->
<g id="node9" class="node">
<title>Node62</title>
<g id="a_node9"><a xlink:href="classComSquare_1_1PPU_1_1PPU.html" target="_top" xlink:title="The class containing all the registers of the PPU.">
<polygon fill="white" stroke="black" points="330,-295 330,-314 454,-314 454,-295 330,-295"/>
<text text-anchor="middle" x="392" y="-302" font-family="Helvetica,sans-Serif" font-size="10.00">ComSquare::PPU::PPU</text>
</a>
</g>
</g>
<!-- Node57&#45;&gt;Node62 -->
<g id="edge8" class="edge">
<title>Node57&#45;&gt;Node62</title>
<path fill="none" stroke="midnightblue" d="M238.53,-195.09C255.21,-221.08 285.43,-262.26 322,-285.5 328.08,-289.36 334.95,-292.45 341.94,-294.92"/>
<polygon fill="midnightblue" stroke="midnightblue" points="241.48,-193.2 233.21,-186.58 235.55,-196.92 241.48,-193.2"/>
</g>
<!-- Node0 -->
<g id="node4" class="node">
<title>Node0</title>
<g id="a_node4"><a xlink:href="classComSquare_1_1Debugger_1_1APUDebug.html" target="_top" xlink:title=" ">
<polygon fill="white" stroke="black" points="498,-311.5 498,-341.5 624,-341.5 624,-311.5 498,-311.5"/>
<text text-anchor="start" x="506" y="-329.5" font-family="Helvetica,sans-Serif" font-size="10.00">ComSquare::Debugger</text>
<text text-anchor="middle" x="561" y="-318.5" font-family="Helvetica,sans-Serif" font-size="10.00">::APUDebug</text>
</a>
</g>
</g>
<!-- Node58&#45;&gt;Node0 -->
<g id="edge3" class="edge">
<title>Node58&#45;&gt;Node0</title>
<path fill="none" stroke="midnightblue" d="M442.18,-278.92C448.9,-280.94 455.66,-283.15 462,-285.5 478.59,-291.65 481.74,-295.52 498,-302.5 505,-305.5 512.51,-308.55 519.81,-311.43"/>
<polygon fill="midnightblue" stroke="midnightblue" points="443,-275.51 432.42,-276.09 441.05,-282.24 443,-275.51"/>
</g>
<!-- Node21 -->
<g id="node7" class="node">
<title>Node21</title>
<g id="a_node7"><a xlink:href="classComSquare_1_1Debugger_1_1CPUDebug.html" target="_top" xlink:title="A custom CPU with a window that show it&#39;s registers and the disassembly.">
<polygon fill="white" stroke="black" points="498,-115.5 498,-145.5 624,-145.5 624,-115.5 498,-115.5"/>
<text text-anchor="start" x="506" y="-133.5" font-family="Helvetica,sans-Serif" font-size="10.00">ComSquare::Debugger</text>
<text text-anchor="middle" x="561" y="-122.5" font-family="Helvetica,sans-Serif" font-size="10.00">::CPUDebug</text>
</a>
</g>
</g>
<!-- Node60&#45;&gt;Node21 -->
<g id="edge6" class="edge">
<title>Node60&#45;&gt;Node21</title>
<path fill="none" stroke="midnightblue" d="M441.63,-178.09C448.52,-176.05 455.48,-173.83 462,-171.5 478.49,-165.6 481.88,-162.33 498,-155.5 505.69,-152.24 513.96,-148.84 521.88,-145.63"/>
<polygon fill="midnightblue" stroke="midnightblue" points="440.29,-174.84 431.64,-180.95 442.22,-181.57 440.29,-174.84"/>
</g>
<!-- Node64 -->
<g id="node11" class="node">
<title>Node64</title>
<g id="a_node11"><a xlink:href="classComSquare_1_1Memory_1_1RectangleShadow.html" target="_top" xlink:title=" ">
<polygon fill="white" stroke="black" points="329.5,-44.5 329.5,-74.5 454.5,-74.5 454.5,-44.5 329.5,-44.5"/>
<text text-anchor="start" x="337.5" y="-62.5" font-family="Helvetica,sans-Serif" font-size="10.00">ComSquare::Memory::</text>
<text text-anchor="middle" x="392" y="-51.5" font-family="Helvetica,sans-Serif" font-size="10.00">RectangleShadow</text>
</a>
</g>
</g>
<!-- Node63&#45;&gt;Node64 -->
<g id="edge10" class="edge">
<title>Node63&#45;&gt;Node64</title>
<path fill="none" stroke="midnightblue" d="M296.12,-59.5C307.22,-59.5 318.6,-59.5 329.45,-59.5"/>
<polygon fill="midnightblue" stroke="midnightblue" points="296.03,-56 286.03,-59.5 296.03,-63 296.03,-56"/>
</g>
<!-- Node65 -->
<g id="node12" class="node">
<title>Node65</title>
<g id="a_node12"><a xlink:href="classComSquare_1_1Ram_1_1Ram.html" target="_top" xlink:title=" ">
<polygon fill="white" stroke="black" points="327,-6 327,-25 457,-25 457,-6 327,-6"/>
<text text-anchor="middle" x="392" y="-13" font-family="Helvetica,sans-Serif" font-size="10.00">ComSquare::Ram::Ram</text>
</a>
</g>
</g>
<!-- Node63&#45;&gt;Node65 -->
<g id="edge11" class="edge">
<title>Node63&#45;&gt;Node65</title>
<path fill="none" stroke="midnightblue" d="M291.17,-41.88C312.88,-36.15 336.15,-30 354.75,-25.08"/>
<polygon fill="midnightblue" stroke="midnightblue" points="290.11,-38.54 281.33,-44.48 291.9,-45.31 290.11,-38.54"/>
</g>
<!-- Node66 -->
<g id="node13" class="node">
<title>Node66</title>
<g id="a_node13"><a xlink:href="classComSquare_1_1Cartridge_1_1Cartridge.html" target="_top" xlink:title="Contains the rom&#39;s memory/instructions.">
<polygon fill="white" stroke="black" points="499,-0.5 499,-30.5 623,-30.5 623,-0.5 499,-0.5"/>
<text text-anchor="start" x="507" y="-18.5" font-family="Helvetica,sans-Serif" font-size="10.00">ComSquare::Cartridge</text>
<text text-anchor="middle" x="561" y="-7.5" font-family="Helvetica,sans-Serif" font-size="10.00">::Cartridge</text>
</a>
</g>
</g>
<!-- Node65&#45;&gt;Node66 -->
<g id="edge12" class="edge">
<title>Node65&#45;&gt;Node66</title>
<path fill="none" stroke="midnightblue" d="M467.15,-15.5C477.74,-15.5 488.53,-15.5 498.83,-15.5"/>
<polygon fill="midnightblue" stroke="midnightblue" points="467.09,-12 457.09,-15.5 467.09,-19 467.09,-12"/>
</g>
<!-- Node18 -->
<g id="node14" class="node">
<title>Node18</title>
<g id="a_node14"><a xlink:title=" ">
<polygon fill="white" stroke="#bfbfbf" points="364,-219 364,-238 420,-238 420,-219 364,-219"/>
<text text-anchor="middle" x="392" y="-226" font-family="Helvetica,sans-Serif" font-size="10.00">QObject</text>
</a>
</g>
</g>
<!-- Node18&#45;&gt;Node0 -->
<g id="edge13" class="edge">
<title>Node18&#45;&gt;Node0</title>
<path fill="none" stroke="midnightblue" d="M430.07,-233.55C441.09,-236.36 452.7,-240.72 462,-247.5 485.61,-264.71 475.29,-284.12 498,-302.5 502.22,-305.91 506.98,-308.88 511.93,-311.45"/>
<polygon fill="midnightblue" stroke="midnightblue" points="430.71,-230.11 420.19,-231.39 429.21,-236.95 430.71,-230.11"/>
</g>
<!-- Node18&#45;&gt;Node21 -->
<g id="edge15" class="edge">
<title>Node18&#45;&gt;Node21</title>
<path fill="none" stroke="midnightblue" d="M430.03,-223.4C441.06,-220.59 452.67,-216.24 462,-209.5 485.38,-192.61 475.63,-173.71 498,-155.5 502.68,-151.69 508.02,-148.4 513.55,-145.57"/>
<polygon fill="midnightblue" stroke="midnightblue" points="429.18,-220 420.16,-225.57 430.68,-226.84 429.18,-220"/>
</g>
<!-- Node20 -->
<g id="node15" class="node">
<title>Node20</title>
<g id="a_node15"><a xlink:href="classComSquare_1_1Debugger_1_1CGramDebug.html" target="_top" xlink:title="window that allow the user to view all data going through the memory bus.">
<polygon fill="white" stroke="black" points="498,-164.5 498,-194.5 624,-194.5 624,-164.5 498,-164.5"/>
<text text-anchor="start" x="506" y="-182.5" font-family="Helvetica,sans-Serif" font-size="10.00">ComSquare::Debugger</text>
<text text-anchor="middle" x="561" y="-171.5" font-family="Helvetica,sans-Serif" font-size="10.00">::CGramDebug</text>
</a>
</g>
</g>
<!-- Node18&#45;&gt;Node20 -->
<g id="edge14" class="edge">
<title>Node18&#45;&gt;Node20</title>
<path fill="none" stroke="midnightblue" d="M430.21,-218.46C440.52,-215.62 451.71,-212.49 462,-209.5 478.23,-204.78 495.91,-199.43 511.73,-194.57"/>
<polygon fill="midnightblue" stroke="midnightblue" points="428.97,-215.17 420.25,-221.19 430.82,-221.92 428.97,-215.17"/>
</g>
<!-- Node22 -->
<g id="node16" class="node">
<title>Node22</title>
<g id="a_node16"><a xlink:href="classComSquare_1_1Debugger_1_1MemoryViewer.html" target="_top" xlink:title="Class responsible of the Memory Viewer.">
<polygon fill="white" stroke="black" points="498,-262.5 498,-292.5 624,-292.5 624,-262.5 498,-262.5"/>
<text text-anchor="start" x="506" y="-280.5" font-family="Helvetica,sans-Serif" font-size="10.00">ComSquare::Debugger</text>
<text text-anchor="middle" x="561" y="-269.5" font-family="Helvetica,sans-Serif" font-size="10.00">::MemoryViewer</text>
</a>
</g>
</g>
<!-- Node18&#45;&gt;Node22 -->
<g id="edge16" class="edge">
<title>Node18&#45;&gt;Node22</title>
<path fill="none" stroke="midnightblue" d="M430.21,-238.54C440.52,-241.38 451.71,-244.51 462,-247.5 478.23,-252.22 495.91,-257.57 511.73,-262.43"/>
<polygon fill="midnightblue" stroke="midnightblue" points="430.82,-235.08 420.25,-235.81 428.97,-241.83 430.82,-235.08"/>
</g>
<!-- Node23 -->
<g id="node17" class="node">
<title>Node23</title>
<g id="a_node17"><a xlink:href="classComSquare_1_1Debugger_1_1RegisterViewer.html" target="_top" xlink:title=" ">
<polygon fill="white" stroke="black" points="498,-213.5 498,-243.5 624,-243.5 624,-213.5 498,-213.5"/>
<text text-anchor="start" x="506" y="-231.5" font-family="Helvetica,sans-Serif" font-size="10.00">ComSquare::Debugger</text>
<text text-anchor="middle" x="561" y="-220.5" font-family="Helvetica,sans-Serif" font-size="10.00">::RegisterViewer</text>
</a>
</g>
</g>
<!-- Node18&#45;&gt;Node23 -->
<g id="edge17" class="edge">
<title>Node18&#45;&gt;Node23</title>
<path fill="none" stroke="midnightblue" d="M430.37,-228.5C450.21,-228.5 475.11,-228.5 497.78,-228.5"/>
<polygon fill="midnightblue" stroke="midnightblue" points="430.2,-225 420.2,-228.5 430.2,-232 430.2,-225"/>
</g>
</g>
</svg>
