<?xml version="1.0" encoding="UTF-8" standalone="no"?>
<!DOCTYPE svg PUBLIC "-//W3C//DTD SVG 1.1//EN"
 "http://www.w3.org/Graphics/SVG/1.1/DTD/svg11.dtd">
<!-- Generated by graphviz version 2.43.0 (0)
 -->
<!-- Title: Graphical Class Hierarchy Pages: 1 -->
<svg width="290pt" height="256pt"
 viewBox="0.00 0.00 290.00 256.00" xmlns="http://www.w3.org/2000/svg" xmlns:xlink="http://www.w3.org/1999/xlink">
<g id="graph0" class="graph" transform="scale(1 1) rotate(0) translate(4 252)">
<title>Graphical Class Hierarchy</title>
<polygon fill="white" stroke="transparent" points="-4,4 -4,-252 286,-252 286,4 -4,4"/>
<!-- Node33 -->
<g id="node1" class="node">
<title>Node33</title>
<g id="a_node1"><a xlink:title=" ">
<polygon fill="white" stroke="#bfbfbf" points="0,-114.5 0,-133.5 120,-133.5 120,-114.5 0,-114.5"/>
<text text-anchor="middle" x="60" y="-121.5" font-family="Helvetica,sans-Serif" font-size="10.00">QAbstractTableModel</text>
</a>
</g>
</g>
<!-- Node0 -->
<g id="node2" class="node">
<title>Node0</title>
<g id="a_node2"><a xlink:href="classBusLogModel.html" target="_top" xlink:title="The qt model that bind the logs to the view.">
<polygon fill="white" stroke="black" points="178,-228.5 178,-247.5 260,-247.5 260,-228.5 178,-228.5"/>
<text text-anchor="middle" x="219" y="-235.5" font-family="Helvetica,sans-Serif" font-size="10.00">BusLogModel</text>
</a>
</g>
</g>
<!-- Node33&#45;&gt;Node0 -->
<g id="edge1" class="edge">
<title>Node33&#45;&gt;Node0</title>
<path fill="none" stroke="midnightblue" d="M74.27,-141.81C91.05,-163.12 121.89,-198.49 156,-219 162.66,-223 170.23,-226.23 177.74,-228.8"/>
<polygon fill="midnightblue" stroke="midnightblue" points="76.84,-139.41 67.97,-133.62 71.29,-143.68 76.84,-139.41"/>
</g>
<!-- Node35 -->
<g id="node3" class="node">
<title>Node35</title>
<g id="a_node3"><a xlink:href="classCGramModel.html" target="_top" xlink:title="The qt model that bind the logs to the view.">
<polygon fill="white" stroke="black" points="179,-190.5 179,-209.5 259,-209.5 259,-190.5 179,-190.5"/>
<text text-anchor="middle" x="219" y="-197.5" font-family="Helvetica,sans-Serif" font-size="10.00">CGramModel</text>
</a>
</g>
</g>
<!-- Node33&#45;&gt;Node35 -->
<g id="edge2" class="edge">
<title>Node33&#45;&gt;Node35</title>
<path fill="none" stroke="midnightblue" d="M82.99,-139.31C101.73,-151.82 129.73,-169.3 156,-181 164.12,-184.62 173.14,-187.81 181.72,-190.5"/>
<polygon fill="midnightblue" stroke="midnightblue" points="84.83,-136.32 74.59,-133.61 80.9,-142.12 84.83,-136.32"/>
</g>
<!-- Node36 -->
<g id="node4" class="node">
<title>Node36</title>
<g id="a_node4"><a xlink:href="classDisassemblyModel.html" target="_top" xlink:title="The qt model that show the disassembly.">
<polygon fill="white" stroke="black" points="164,-152.5 164,-171.5 274,-171.5 274,-152.5 164,-152.5"/>
<text text-anchor="middle" x="219" y="-159.5" font-family="Helvetica,sans-Serif" font-size="10.00">DisassemblyModel</text>
</a>
</g>
</g>
<!-- Node33&#45;&gt;Node36 -->
<g id="edge3" class="edge">
<title>Node33&#45;&gt;Node36</title>
<path fill="none" stroke="midnightblue" d="M110.45,-135.97C132.45,-141.29 157.99,-147.48 178.67,-152.48"/>
<polygon fill="midnightblue" stroke="midnightblue" points="111.16,-132.54 100.62,-133.59 109.51,-139.34 111.16,-132.54"/>
</g>
<!-- Node37 -->
<g id="node5" class="node">
<title>Node37</title>
<g id="a_node5"><a xlink:href="classHistoryModel.html" target="_top" xlink:title="The qt model that show the history.">
<polygon fill="white" stroke="black" points="178,-114.5 178,-133.5 260,-133.5 260,-114.5 178,-114.5"/>
<text text-anchor="middle" x="219" y="-121.5" font-family="Helvetica,sans-Serif" font-size="10.00">HistoryModel</text>
</a>
</g>
</g>
<!-- Node33&#45;&gt;Node37 -->
<g id="edge4" class="edge">
<title>Node33&#45;&gt;Node37</title>
<path fill="none" stroke="midnightblue" d="M130.78,-124C146.8,-124 163.3,-124 177.59,-124"/>
<polygon fill="midnightblue" stroke="midnightblue" points="130.36,-120.5 120.35,-124 130.35,-127.5 130.36,-120.5"/>
</g>
<!-- Node38 -->
<g id="node6" class="node">
<title>Node38</title>
<g id="a_node6"><a xlink:href="classMemoryViewerModel.html" target="_top" xlink:title="The qt model that bind the ram to the view.">
<polygon fill="white" stroke="black" points="158.5,-76.5 158.5,-95.5 279.5,-95.5 279.5,-76.5 158.5,-76.5"/>
<text text-anchor="middle" x="219" y="-83.5" font-family="Helvetica,sans-Serif" font-size="10.00">MemoryViewerModel</text>
</a>
</g>
</g>
<!-- Node33&#45;&gt;Node38 -->
<g id="edge5" class="edge">
<title>Node33&#45;&gt;Node38</title>
<path fill="none" stroke="midnightblue" d="M110.45,-112.03C132.45,-106.71 157.99,-100.52 178.67,-95.52"/>
<polygon fill="midnightblue" stroke="midnightblue" points="109.51,-108.66 100.62,-114.41 111.16,-115.46 109.51,-108.66"/>
</g>
<!-- Node39 -->
<g id="node7" class="node">
<title>Node39</title>
<g id="a_node7"><a xlink:href="classRegistersViewerModel.html" target="_top" xlink:title=" ">
<polygon fill="white" stroke="black" points="156,-38.5 156,-57.5 282,-57.5 282,-38.5 156,-38.5"/>
<text text-anchor="middle" x="219" y="-45.5" font-family="Helvetica,sans-Serif" font-size="10.00">RegistersViewerModel</text>
</a>
</g>
</g>
<!-- Node33&#45;&gt;Node39 -->
<g id="edge6" class="edge">
<title>Node33&#45;&gt;Node39</title>
<path fill="none" stroke="midnightblue" d="M82.99,-108.69C101.73,-96.18 129.73,-78.7 156,-67 164.12,-63.38 173.14,-60.19 181.72,-57.5"/>
<polygon fill="midnightblue" stroke="midnightblue" points="80.9,-105.88 74.59,-114.39 84.83,-111.68 80.9,-105.88"/>
</g>
<!-- Node40 -->
<g id="node8" class="node">
<title>Node40</title>
<g id="a_node8"><a xlink:href="classStackModel.html" target="_top" xlink:title="The qt model that show the stack.">
<polygon fill="white" stroke="black" points="182,-0.5 182,-19.5 256,-19.5 256,-0.5 182,-0.5"/>
<text text-anchor="middle" x="219" y="-7.5" font-family="Helvetica,sans-Serif" font-size="10.00">StackModel</text>
</a>
</g>
</g>
<!-- Node33&#45;&gt;Node40 -->
<g id="edge7" class="edge">
<title>Node33&#45;&gt;Node40</title>
<path fill="none" stroke="midnightblue" d="M74.27,-106.19C91.05,-84.88 121.89,-49.51 156,-29 163.91,-24.24 173.12,-20.58 181.97,-17.81"/>
<polygon fill="midnightblue" stroke="midnightblue" points="71.29,-104.32 67.97,-114.38 76.84,-108.59 71.29,-104.32"/>
</g>
</g>
</svg>
