<?xml version="1.0" encoding="UTF-8" standalone="no"?>
<!DOCTYPE svg PUBLIC "-//W3C//DTD SVG 1.1//EN"
 "http://www.w3.org/Graphics/SVG/1.1/DTD/svg11.dtd">
<!-- Generated by graphviz version 2.43.0 (0)
 -->
<!-- Title: sources/Exceptions/InvalidAddress.hpp Pages: 1 -->
<svg width="397pt" height="151pt"
 viewBox="0.00 0.00 397.00 151.00" xmlns="http://www.w3.org/2000/svg" xmlns:xlink="http://www.w3.org/1999/xlink">
<g id="graph0" class="graph" transform="scale(1 1) rotate(0) translate(4 147)">
<title>sources/Exceptions/InvalidAddress.hpp</title>
<polygon fill="white" stroke="transparent" points="-4,4 -4,-147 393,-147 393,4 -4,4"/>
<!-- Node1 -->
<g id="node1" class="node">
<title>Node1</title>
<g id="a_node1"><a xlink:title=" ">
<polygon fill="#bfbfbf" stroke="black" points="105,-112.5 105,-142.5 218,-142.5 218,-112.5 105,-112.5"/>
<text text-anchor="start" x="113" y="-130.5" font-family="Helvetica,sans-Serif" font-size="10.00">sources/Exceptions</text>
<text text-anchor="middle" x="161.5" y="-119.5" font-family="Helvetica,sans-Serif" font-size="10.00">/InvalidAddress.hpp</text>
</a>
</g>
</g>
<!-- Node2 -->
<g id="node2" class="node">
<title>Node2</title>
<g id="a_node2"><a xlink:title=" ">
<polygon fill="white" stroke="#bfbfbf" points="0,-56.5 0,-75.5 65,-75.5 65,-56.5 0,-56.5"/>
<text text-anchor="middle" x="32.5" y="-63.5" font-family="Helvetica,sans-Serif" font-size="10.00">exception</text>
</a>
</g>
</g>
<!-- Node1&#45;&gt;Node2 -->
<g id="edge1" class="edge">
<title>Node1&#45;&gt;Node2</title>
<path fill="none" stroke="midnightblue" d="M130.93,-112.4C109.57,-102.55 81.28,-89.5 60.52,-79.92"/>
<polygon fill="midnightblue" stroke="midnightblue" points="61.82,-76.67 51.27,-75.66 58.89,-83.02 61.82,-76.67"/>
</g>
<!-- Node3 -->
<g id="node3" class="node">
<title>Node3</title>
<g id="a_node3"><a xlink:title=" ">
<polygon fill="white" stroke="#bfbfbf" points="83.5,-56.5 83.5,-75.5 127.5,-75.5 127.5,-56.5 83.5,-56.5"/>
<text text-anchor="middle" x="105.5" y="-63.5" font-family="Helvetica,sans-Serif" font-size="10.00">string</text>
</a>
</g>
</g>
<!-- Node1&#45;&gt;Node3 -->
<g id="edge2" class="edge">
<title>Node1&#45;&gt;Node3</title>
<path fill="none" stroke="midnightblue" d="M148.23,-112.4C139.92,-103.58 129.2,-92.18 120.58,-83.02"/>
<polygon fill="midnightblue" stroke="midnightblue" points="123.05,-80.54 113.65,-75.66 117.95,-85.34 123.05,-80.54"/>
</g>
<!-- Node4 -->
<g id="node4" class="node">
<title>Node4</title>
<g id="a_node4"><a xlink:title=" ">
<polygon fill="white" stroke="#bfbfbf" points="146,-56.5 146,-75.5 177,-75.5 177,-56.5 146,-56.5"/>
<text text-anchor="middle" x="161.5" y="-63.5" font-family="Helvetica,sans-Serif" font-size="10.00">ios</text>
</a>
</g>
</g>
<!-- Node1&#45;&gt;Node4 -->
<g id="edge3" class="edge">
<title>Node1&#45;&gt;Node4</title>
<path fill="none" stroke="midnightblue" d="M161.5,-112.4C161.5,-104.47 161.5,-94.46 161.5,-85.86"/>
<polygon fill="midnightblue" stroke="midnightblue" points="165,-85.66 161.5,-75.66 158,-85.66 165,-85.66"/>
</g>
<!-- Node5 -->
<g id="node5" class="node">
<title>Node5</title>
<g id="a_node5"><a xlink:title=" ">
<polygon fill="white" stroke="#bfbfbf" points="195.5,-56.5 195.5,-75.5 251.5,-75.5 251.5,-56.5 195.5,-56.5"/>
<text text-anchor="middle" x="223.5" y="-63.5" font-family="Helvetica,sans-Serif" font-size="10.00">sstream</text>
</a>
</g>
</g>
<!-- Node1&#45;&gt;Node5 -->
<g id="edge4" class="edge">
<title>Node1&#45;&gt;Node5</title>
<path fill="none" stroke="midnightblue" d="M176.19,-112.4C185.48,-103.49 197.5,-91.95 207.1,-82.74"/>
<polygon fill="midnightblue" stroke="midnightblue" points="209.69,-85.11 214.48,-75.66 204.84,-80.06 209.69,-85.11"/>
</g>
<!-- Node6 -->
<g id="node6" class="node">
<title>Node6</title>
<g id="a_node6"><a xlink:href="DebuggableError_8hpp.html" target="_top" xlink:title=" ">
<polygon fill="white" stroke="black" points="270,-56.5 270,-75.5 389,-75.5 389,-56.5 270,-56.5"/>
<text text-anchor="middle" x="329.5" y="-63.5" font-family="Helvetica,sans-Serif" font-size="10.00">DebuggableError.hpp</text>
</a>
</g>
</g>
<!-- Node1&#45;&gt;Node6 -->
<g id="edge5" class="edge">
<title>Node1&#45;&gt;Node6</title>
<path fill="none" stroke="midnightblue" d="M201.31,-112.4C230,-102.24 268.31,-88.67 295.56,-79.02"/>
<polygon fill="midnightblue" stroke="midnightblue" points="296.8,-82.3 305.05,-75.66 294.46,-75.7 296.8,-82.3"/>
</g>
<!-- Node7 -->
<g id="node7" class="node">
<title>Node7</title>
<g id="a_node7"><a xlink:title=" ">
<polygon fill="white" stroke="#bfbfbf" points="282,-0.5 282,-19.5 377,-19.5 377,-0.5 282,-0.5"/>
<text text-anchor="middle" x="329.5" y="-7.5" font-family="Helvetica,sans-Serif" font-size="10.00">bits/exception.h</text>
</a>
</g>
</g>
<!-- Node6&#45;&gt;Node7 -->
<g id="edge6" class="edge">
<title>Node6&#45;&gt;Node7</title>
<path fill="none" stroke="midnightblue" d="M329.5,-56.08C329.5,-49.01 329.5,-38.86 329.5,-29.99"/>
<polygon fill="midnightblue" stroke="midnightblue" points="333,-29.75 329.5,-19.75 326,-29.75 333,-29.75"/>
</g>
</g>
</svg>
