<?xml version="1.0" encoding="UTF-8" standalone="no"?>
<!DOCTYPE svg PUBLIC "-//W3C//DTD SVG 1.1//EN"
 "http://www.w3.org/Graphics/SVG/1.1/DTD/svg11.dtd">
<!-- Generated by graphviz version 2.43.0 (0)
 -->
<!-- Title: sources/Exceptions/InvalidAddress.hpp Pages: 1 -->
<svg width="2489pt" height="106pt"
 viewBox="0.00 0.00 2489.00 106.00" xmlns="http://www.w3.org/2000/svg" xmlns:xlink="http://www.w3.org/1999/xlink">
<g id="graph0" class="graph" transform="scale(1 1) rotate(0) translate(4 102)">
<title>sources/Exceptions/InvalidAddress.hpp</title>
<polygon fill="white" stroke="transparent" points="-4,4 -4,-102 2485,-102 2485,4 -4,4"/>
<!-- Node1 -->
<g id="node1" class="node">
<title>Node1</title>
<g id="a_node1"><a xlink:title=" ">
<polygon fill="#bfbfbf" stroke="black" points="1173,-67.5 1173,-97.5 1286,-97.5 1286,-67.5 1173,-67.5"/>
<text text-anchor="start" x="1181" y="-85.5" font-family="Helvetica,sans-Serif" font-size="10.00">sources/Exceptions</text>
<text text-anchor="middle" x="1229.5" y="-74.5" font-family="Helvetica,sans-Serif" font-size="10.00">/InvalidAddress.hpp</text>
</a>
</g>
</g>
<!-- Node2 -->
<g id="node2" class="node">
<title>Node2</title>
<g id="a_node2"><a xlink:href="APU_8cpp.html" target="_top" xlink:title=" ">
<polygon fill="white" stroke="black" points="0,-6 0,-25 121,-25 121,-6 0,-6"/>
<text text-anchor="middle" x="60.5" y="-13" font-family="Helvetica,sans-Serif" font-size="10.00">sources/APU/APU.cpp</text>
</a>
</g>
</g>
<!-- Node1&#45;&gt;Node2 -->
<g id="edge1" class="edge">
<title>Node1&#45;&gt;Node2</title>
<path fill="none" stroke="midnightblue" d="M1162.67,-82.17C990.62,-83.09 518.62,-80.49 129.5,-31 118.45,-29.59 106.54,-27.36 95.77,-25.05"/>
<polygon fill="midnightblue" stroke="midnightblue" points="1162.86,-85.67 1172.84,-82.11 1162.82,-78.67 1162.86,-85.67"/>
</g>
<!-- Node3 -->
<g id="node3" class="node">
<title>Node3</title>
<g id="a_node3"><a xlink:href="DSP_8cpp.html" target="_top" xlink:title=" ">
<polygon fill="white" stroke="black" points="139,-6 139,-25 280,-25 280,-6 139,-6"/>
<text text-anchor="middle" x="209.5" y="-13" font-family="Helvetica,sans-Serif" font-size="10.00">sources/APU/DSP/DSP.cpp</text>
</a>
</g>
</g>
<!-- Node1&#45;&gt;Node3 -->
<g id="edge2" class="edge">
<title>Node1&#45;&gt;Node3</title>
<path fill="none" stroke="midnightblue" d="M1162.61,-80.79C1008.24,-78.51 615.38,-69.13 289.5,-31 276.88,-29.52 263.25,-27.29 250.87,-25.02"/>
<polygon fill="midnightblue" stroke="midnightblue" points="1162.82,-84.29 1172.87,-80.93 1162.92,-77.29 1162.82,-84.29"/>
</g>
<!-- Node4 -->
<g id="node4" class="node">
<title>Node4</title>
<g id="a_node4"><a xlink:href="IPL_8cpp.html" target="_top" xlink:title=" ">
<polygon fill="white" stroke="black" points="298.5,-6 298.5,-25 430.5,-25 430.5,-6 298.5,-6"/>
<text text-anchor="middle" x="364.5" y="-13" font-family="Helvetica,sans-Serif" font-size="10.00">sources/APU/IPL/IPL.cpp</text>
</a>
</g>
</g>
<!-- Node1&#45;&gt;Node4 -->
<g id="edge3" class="edge">
<title>Node1&#45;&gt;Node4</title>
<path fill="none" stroke="midnightblue" d="M1162.45,-80.09C1025.89,-76.58 705.88,-65.12 439.5,-31 427.79,-29.5 415.16,-27.29 403.66,-25.05"/>
<polygon fill="midnightblue" stroke="midnightblue" points="1162.66,-83.59 1172.75,-80.35 1162.84,-76.6 1162.66,-83.59"/>
</g>
<!-- Node5 -->
<g id="node5" class="node">
<title>Node5</title>
<g id="a_node5"><a xlink:href="Cartridge_8cpp.html" target="_top" xlink:title=" ">
<polygon fill="white" stroke="black" points="448.5,-6 448.5,-25 618.5,-25 618.5,-6 448.5,-6"/>
<text text-anchor="middle" x="533.5" y="-13" font-family="Helvetica,sans-Serif" font-size="10.00">sources/Cartridge/Cartridge.cpp</text>
</a>
</g>
</g>
<!-- Node1&#45;&gt;Node5 -->
<g id="edge4" class="edge">
<title>Node1&#45;&gt;Node5</title>
<path fill="none" stroke="midnightblue" d="M1162.87,-77.43C1051.69,-70.29 821.41,-54.06 627.5,-31 613.56,-29.34 598.52,-27.19 584.64,-25.05"/>
<polygon fill="midnightblue" stroke="midnightblue" points="1162.73,-80.92 1172.93,-78.07 1163.17,-73.94 1162.73,-80.92"/>
</g>
<!-- Node6 -->
<g id="node6" class="node">
<title>Node6</title>
<g id="a_node6"><a xlink:href="CPU_8cpp.html" target="_top" xlink:title=" ">
<polygon fill="white" stroke="black" points="637,-6 637,-25 758,-25 758,-6 637,-6"/>
<text text-anchor="middle" x="697.5" y="-13" font-family="Helvetica,sans-Serif" font-size="10.00">sources/CPU/CPU.cpp</text>
</a>
</g>
</g>
<!-- Node1&#45;&gt;Node6 -->
<g id="edge5" class="edge">
<title>Node1&#45;&gt;Node6</title>
<path fill="none" stroke="midnightblue" d="M1162.65,-76.21C1072.57,-68.62 907.36,-53.08 767.5,-31 757.08,-29.36 745.86,-27.2 735.53,-25.06"/>
<polygon fill="midnightblue" stroke="midnightblue" points="1162.47,-79.7 1172.73,-77.05 1163.05,-72.73 1162.47,-79.7"/>
</g>
<!-- Node7 -->
<g id="node7" class="node">
<title>Node7</title>
<g id="a_node7"><a xlink:href="DMA_8cpp.html" target="_top" xlink:title=" ">
<polygon fill="white" stroke="black" points="776.5,-6 776.5,-25 926.5,-25 926.5,-6 776.5,-6"/>
<text text-anchor="middle" x="851.5" y="-13" font-family="Helvetica,sans-Serif" font-size="10.00">sources/CPU/DMA/DMA.cpp</text>
</a>
</g>
</g>
<!-- Node1&#45;&gt;Node7 -->
<g id="edge6" class="edge">
<title>Node1&#45;&gt;Node7</title>
<path fill="none" stroke="midnightblue" d="M1162.83,-70.06C1103.24,-59.84 1013.54,-44.44 935.5,-31 924.27,-29.07 912.2,-26.98 900.8,-25.02"/>
<polygon fill="midnightblue" stroke="midnightblue" points="1162.41,-73.54 1172.86,-71.79 1163.6,-66.64 1162.41,-73.54"/>
</g>
<!-- Node8 -->
<g id="node8" class="node">
<title>Node8</title>
<g id="a_node8"><a xlink:href="MemoryBusDebug_8cpp.html" target="_top" xlink:title=" ">
<polygon fill="white" stroke="black" points="944.5,-0.5 944.5,-30.5 1110.5,-30.5 1110.5,-0.5 944.5,-0.5"/>
<text text-anchor="start" x="952.5" y="-18.5" font-family="Helvetica,sans-Serif" font-size="10.00">sources/Debugger/MemoryBus</text>
<text text-anchor="middle" x="1027.5" y="-7.5" font-family="Helvetica,sans-Serif" font-size="10.00">Debug.cpp</text>
</a>
</g>
</g>
<!-- Node1&#45;&gt;Node8 -->
<g id="edge7" class="edge">
<title>Node1&#45;&gt;Node8</title>
<path fill="none" stroke="midnightblue" d="M1175.82,-64.23C1143.15,-53.71 1101.93,-40.45 1071.25,-30.58"/>
<polygon fill="midnightblue" stroke="midnightblue" points="1175.08,-67.66 1185.67,-67.4 1177.22,-61 1175.08,-67.66"/>
</g>
<!-- Node9 -->
<g id="node9" class="node">
<title>Node9</title>
<g id="a_node9"><a xlink:href="MemoryViewer_8cpp.html" target="_top" xlink:title=" ">
<polygon fill="white" stroke="black" points="1129,-6 1129,-25 1330,-25 1330,-6 1129,-6"/>
<text text-anchor="middle" x="1229.5" y="-13" font-family="Helvetica,sans-Serif" font-size="10.00">sources/Debugger/MemoryViewer.cpp</text>
</a>
</g>
</g>
<!-- Node1&#45;&gt;Node9 -->
<g id="edge8" class="edge">
<title>Node1&#45;&gt;Node9</title>
<path fill="none" stroke="midnightblue" d="M1229.5,-57.25C1229.5,-46.02 1229.5,-33.38 1229.5,-25.19"/>
<polygon fill="midnightblue" stroke="midnightblue" points="1226,-57.4 1229.5,-67.4 1233,-57.4 1226,-57.4"/>
</g>
<!-- Node10 -->
<g id="node10" class="node">
<title>Node10</title>
<g id="a_node10"><a xlink:href="ARectangleMemory_8cpp.html" target="_top" xlink:title=" ">
<polygon fill="white" stroke="black" points="1348.5,-0.5 1348.5,-30.5 1504.5,-30.5 1504.5,-0.5 1348.5,-0.5"/>
<text text-anchor="start" x="1356.5" y="-18.5" font-family="Helvetica,sans-Serif" font-size="10.00">sources/Memory/ARectangle</text>
<text text-anchor="middle" x="1426.5" y="-7.5" font-family="Helvetica,sans-Serif" font-size="10.00">Memory.cpp</text>
</a>
</g>
</g>
<!-- Node1&#45;&gt;Node10 -->
<g id="edge9" class="edge">
<title>Node1&#45;&gt;Node10</title>
<path fill="none" stroke="midnightblue" d="M1281.85,-64.23C1313.72,-53.71 1353.91,-40.45 1383.84,-30.58"/>
<polygon fill="midnightblue" stroke="midnightblue" points="1280.65,-60.94 1272.25,-67.4 1282.84,-67.59 1280.65,-60.94"/>
</g>
<!-- Node11 -->
<g id="node11" class="node">
<title>Node11</title>
<g id="a_node11"><a xlink:href="MemoryBus_8cpp.html" target="_top" xlink:title=" ">
<polygon fill="white" stroke="black" points="1523,-6 1523,-25 1702,-25 1702,-6 1523,-6"/>
<text text-anchor="middle" x="1612.5" y="-13" font-family="Helvetica,sans-Serif" font-size="10.00">sources/Memory/MemoryBus.cpp</text>
</a>
</g>
</g>
<!-- Node1&#45;&gt;Node11 -->
<g id="edge10" class="edge">
<title>Node1&#45;&gt;Node11</title>
<path fill="none" stroke="midnightblue" d="M1295.93,-70.23C1371.69,-57.37 1493.88,-36.63 1562.17,-25.04"/>
<polygon fill="midnightblue" stroke="midnightblue" points="1295.29,-66.79 1286.01,-71.91 1296.46,-73.69 1295.29,-66.79"/>
</g>
<!-- Node12 -->
<g id="node12" class="node">
<title>Node12</title>
<g id="a_node12"><a xlink:href="PPU_8cpp.html" target="_top" xlink:title=" ">
<polygon fill="white" stroke="black" points="1720,-6 1720,-25 1839,-25 1839,-6 1720,-6"/>
<text text-anchor="middle" x="1779.5" y="-13" font-family="Helvetica,sans-Serif" font-size="10.00">sources/PPU/PPU.cpp</text>
</a>
</g>
</g>
<!-- Node1&#45;&gt;Node12 -->
<g id="edge11" class="edge">
<title>Node1&#45;&gt;Node12</title>
<path fill="none" stroke="midnightblue" d="M1296.3,-76.75C1389.61,-69.59 1564.12,-54.37 1711.5,-31 1721.75,-29.37 1732.79,-27.2 1742.93,-25.04"/>
<polygon fill="midnightblue" stroke="midnightblue" points="1295.86,-73.27 1286.15,-77.52 1296.39,-80.25 1295.86,-73.27"/>
</g>
<!-- Node13 -->
<g id="node13" class="node">
<title>Node13</title>
<g id="a_node13"><a xlink:href="ExtendedRam_8cpp.html" target="_top" xlink:title=" ">
<polygon fill="white" stroke="black" points="1857,-6 1857,-25 2028,-25 2028,-6 1857,-6"/>
<text text-anchor="middle" x="1942.5" y="-13" font-family="Helvetica,sans-Serif" font-size="10.00">sources/Ram/ExtendedRam.cpp</text>
</a>
</g>
</g>
<!-- Node1&#45;&gt;Node13 -->
<g id="edge12" class="edge">
<title>Node1&#45;&gt;Node13</title>
<path fill="none" stroke="midnightblue" d="M1296.68,-77.6C1410.48,-70.64 1648.35,-54.57 1848.5,-31 1862.44,-29.36 1877.48,-27.21 1891.37,-25.07"/>
<polygon fill="midnightblue" stroke="midnightblue" points="1296.16,-74.13 1286.39,-78.23 1296.58,-81.11 1296.16,-74.13"/>
</g>
<!-- Node14 -->
<g id="node14" class="node">
<title>Node14</title>
<g id="a_node14"><a xlink:href="Ram_8cpp.html" target="_top" xlink:title=" ">
<polygon fill="white" stroke="black" points="2046,-6 2046,-25 2171,-25 2171,-6 2046,-6"/>
<text text-anchor="middle" x="2108.5" y="-13" font-family="Helvetica,sans-Serif" font-size="10.00">sources/Ram/Ram.cpp</text>
</a>
</g>
</g>
<!-- Node1&#45;&gt;Node14 -->
<g id="edge13" class="edge">
<title>Node1&#45;&gt;Node14</title>
<path fill="none" stroke="midnightblue" d="M1296.13,-80.47C1434.73,-77.63 1763.94,-67.3 2037.5,-31 2048.72,-29.51 2060.83,-27.28 2071.81,-25"/>
<polygon fill="midnightblue" stroke="midnightblue" points="1296.02,-76.97 1286.09,-80.66 1296.16,-83.97 1296.02,-76.97"/>
</g>
<!-- Node15 -->
<g id="node15" class="node">
<title>Node15</title>
<g id="a_node15"><a xlink:href="testAPU_8cpp.html" target="_top" xlink:title=" ">
<polygon fill="white" stroke="black" points="2189.5,-6 2189.5,-25 2315.5,-25 2315.5,-6 2189.5,-6"/>
<text text-anchor="middle" x="2252.5" y="-13" font-family="Helvetica,sans-Serif" font-size="10.00">tests/APU/testAPU.cpp</text>
</a>
</g>
</g>
<!-- Node1&#45;&gt;Node15 -->
<g id="edge14" class="edge">
<title>Node1&#45;&gt;Node15</title>
<path fill="none" stroke="midnightblue" d="M1296.37,-81.29C1452.06,-80.07 1850.59,-72.75 2180.5,-31 2191.89,-29.56 2204.16,-27.34 2215.3,-25.07"/>
<polygon fill="midnightblue" stroke="midnightblue" points="1296,-77.79 1286.03,-81.36 1296.06,-84.79 1296,-77.79"/>
</g>
<!-- Node16 -->
<g id="node16" class="node">
<title>Node16</title>
<g id="a_node16"><a xlink:href="testOperand_8cpp.html" target="_top" xlink:title=" ">
<polygon fill="white" stroke="black" points="2334,-6 2334,-25 2481,-25 2481,-6 2334,-6"/>
<text text-anchor="middle" x="2407.5" y="-13" font-family="Helvetica,sans-Serif" font-size="10.00">tests/APU/testOperand.cpp</text>
</a>
</g>
</g>
<!-- Node1&#45;&gt;Node16 -->
<g id="edge15" class="edge">
<title>Node1&#45;&gt;Node16</title>
<path fill="none" stroke="midnightblue" d="M1296.24,-81.36C1467.54,-80.38 1936.59,-73.65 2324.5,-31 2337.59,-29.56 2351.73,-27.34 2364.57,-25.07"/>
<polygon fill="midnightblue" stroke="midnightblue" points="1296.09,-77.86 1286.11,-81.42 1296.13,-84.86 1296.09,-77.86"/>
</g>
</g>
</svg>
