<?xml version="1.0" encoding="UTF-8" standalone="no"?>
<!DOCTYPE svg PUBLIC "-//W3C//DTD SVG 1.1//EN"
 "http://www.w3.org/Graphics/SVG/1.1/DTD/svg11.dtd">
<!-- Generated by graphviz version 2.43.0 (0)
 -->
<!-- Title: sources/Exceptions/InvalidOpcode.hpp Pages: 1 -->
<svg width="921pt" height="106pt"
 viewBox="0.00 0.00 921.00 106.00" xmlns="http://www.w3.org/2000/svg" xmlns:xlink="http://www.w3.org/1999/xlink">
<g id="graph0" class="graph" transform="scale(1 1) rotate(0) translate(4 102)">
<title>sources/Exceptions/InvalidOpcode.hpp</title>
<polygon fill="white" stroke="transparent" points="-4,4 -4,-102 917,-102 917,4 -4,4"/>
<!-- Node1 -->
<g id="node1" class="node">
<title>Node1</title>
<g id="a_node1"><a xlink:title=" ">
<polygon fill="#bfbfbf" stroke="black" points="398.5,-67.5 398.5,-97.5 508.5,-97.5 508.5,-67.5 398.5,-67.5"/>
<text text-anchor="start" x="406.5" y="-85.5" font-family="Helvetica,sans-Serif" font-size="10.00">sources/Exceptions</text>
<text text-anchor="middle" x="453.5" y="-74.5" font-family="Helvetica,sans-Serif" font-size="10.00">/InvalidOpcode.hpp</text>
</a>
</g>
</g>
<!-- Node2 -->
<g id="node2" class="node">
<title>Node2</title>
<g id="a_node2"><a xlink:href="APU_8cpp.html" target="_top" xlink:title=" ">
<polygon fill="white" stroke="black" points="0,-6 0,-25 121,-25 121,-6 0,-6"/>
<text text-anchor="middle" x="60.5" y="-13" font-family="Helvetica,sans-Serif" font-size="10.00">sources/APU/APU.cpp</text>
</a>
</g>
</g>
<!-- Node1&#45;&gt;Node2 -->
<g id="edge1" class="edge">
<title>Node1&#45;&gt;Node2</title>
<path fill="none" stroke="midnightblue" d="M388.13,-72.34C322.57,-62.91 218.8,-47.33 129.5,-31 119.75,-29.22 109.26,-27.11 99.47,-25.06"/>
<polygon fill="midnightblue" stroke="midnightblue" points="387.92,-75.85 398.32,-73.8 388.91,-68.92 387.92,-75.85"/>
</g>
<!-- Node3 -->
<g id="node3" class="node">
<title>Node3</title>
<g id="a_node3"><a xlink:href="CPU_8cpp.html" target="_top" xlink:title=" ">
<polygon fill="white" stroke="black" points="139,-6 139,-25 260,-25 260,-6 139,-6"/>
<text text-anchor="middle" x="199.5" y="-13" font-family="Helvetica,sans-Serif" font-size="10.00">sources/CPU/CPU.cpp</text>
</a>
</g>
</g>
<!-- Node1&#45;&gt;Node3 -->
<g id="edge2" class="edge">
<title>Node1&#45;&gt;Node3</title>
<path fill="none" stroke="midnightblue" d="M388.98,-64.99C339.21,-52.25 272.37,-35.15 232.83,-25.03"/>
<polygon fill="midnightblue" stroke="midnightblue" points="388.14,-68.39 398.7,-67.48 389.88,-61.61 388.14,-68.39"/>
</g>
<!-- Node4 -->
<g id="node4" class="node">
<title>Node4</title>
<g id="a_node4"><a xlink:href="APUDebug_8cpp.html" target="_top" xlink:title=" ">
<polygon fill="white" stroke="black" points="278,-6 278,-25 457,-25 457,-6 278,-6"/>
<text text-anchor="middle" x="367.5" y="-13" font-family="Helvetica,sans-Serif" font-size="10.00">sources/Debugger/APUDebug.cpp</text>
</a>
</g>
</g>
<!-- Node1&#45;&gt;Node4 -->
<g id="edge3" class="edge">
<title>Node1&#45;&gt;Node4</title>
<path fill="none" stroke="midnightblue" d="M426.83,-61.34C410.78,-49.21 391.17,-34.39 379,-25.19"/>
<polygon fill="midnightblue" stroke="midnightblue" points="424.75,-64.16 434.84,-67.4 428.97,-58.57 424.75,-64.16"/>
</g>
<!-- Node5 -->
<g id="node5" class="node">
<title>Node5</title>
<g id="a_node5"><a xlink:href="CPUDebug_8cpp.html" target="_top" xlink:title=" ">
<polygon fill="white" stroke="black" points="475.5,-0.5 475.5,-30.5 603.5,-30.5 603.5,-0.5 475.5,-0.5"/>
<text text-anchor="start" x="483.5" y="-18.5" font-family="Helvetica,sans-Serif" font-size="10.00">sources/Debugger/CPU</text>
<text text-anchor="middle" x="539.5" y="-7.5" font-family="Helvetica,sans-Serif" font-size="10.00">/CPUDebug.cpp</text>
</a>
</g>
</g>
<!-- Node1&#45;&gt;Node5 -->
<g id="edge4" class="edge">
<title>Node1&#45;&gt;Node5</title>
<path fill="none" stroke="midnightblue" d="M480.4,-61.17C493.55,-51.23 509.05,-39.51 520.88,-30.58"/>
<polygon fill="midnightblue" stroke="midnightblue" points="478.03,-58.57 472.16,-67.4 482.25,-64.16 478.03,-58.57"/>
</g>
<!-- Node6 -->
<g id="node6" class="node">
<title>Node6</title>
<g id="a_node6"><a xlink:href="testAPU_8cpp.html" target="_top" xlink:title=" ">
<polygon fill="white" stroke="black" points="621.5,-6 621.5,-25 747.5,-25 747.5,-6 621.5,-6"/>
<text text-anchor="middle" x="684.5" y="-13" font-family="Helvetica,sans-Serif" font-size="10.00">tests/APU/testAPU.cpp</text>
</a>
</g>
</g>
<!-- Node1&#45;&gt;Node6 -->
<g id="edge5" class="edge">
<title>Node1&#45;&gt;Node6</title>
<path fill="none" stroke="midnightblue" d="M513.03,-64.75C558.2,-52.04 618.45,-35.09 654.19,-25.03"/>
<polygon fill="midnightblue" stroke="midnightblue" points="512.02,-61.4 503.34,-67.48 513.91,-68.14 512.02,-61.4"/>
</g>
<!-- Node7 -->
<g id="node7" class="node">
<title>Node7</title>
<g id="a_node7"><a xlink:href="testOperand_8cpp.html" target="_top" xlink:title=" ">
<polygon fill="white" stroke="black" points="766,-6 766,-25 913,-25 913,-6 766,-6"/>
<text text-anchor="middle" x="839.5" y="-13" font-family="Helvetica,sans-Serif" font-size="10.00">tests/APU/testOperand.cpp</text>
</a>
</g>
</g>
<!-- Node1&#45;&gt;Node7 -->
<g id="edge6" class="edge">
<title>Node1&#45;&gt;Node7</title>
<path fill="none" stroke="midnightblue" d="M518.47,-70.82C579.84,-60.7 674.46,-45 756.5,-31 767.6,-29.1 779.54,-27.04 790.79,-25.07"/>
<polygon fill="midnightblue" stroke="midnightblue" points="517.83,-67.38 508.54,-72.46 518.97,-74.29 517.83,-67.38"/>
</g>
</g>
</svg>
