<?xml version="1.0" encoding="UTF-8" standalone="no"?>
<!DOCTYPE svg PUBLIC "-//W3C//DTD SVG 1.1//EN"
 "http://www.w3.org/Graphics/SVG/1.1/DTD/svg11.dtd">
<!-- Generated by graphviz version 2.43.0 (0)
 -->
<!-- Title: sources/APU/IPL/IPL.hpp Pages: 1 -->
<svg width="5983pt" height="285pt"
 viewBox="0.00 0.00 5983.00 285.00" xmlns="http://www.w3.org/2000/svg" xmlns:xlink="http://www.w3.org/1999/xlink">
<g id="graph0" class="graph" transform="scale(1 1) rotate(0) translate(4 281)">
<title>sources/APU/IPL/IPL.hpp</title>
<polygon fill="white" stroke="transparent" points="-4,4 -4,-281 5979,-281 5979,4 -4,4"/>
<!-- Node1 -->
<g id="node1" class="node">
<title>Node1</title>
<g id="a_node1"><a xlink:title=" ">
<polygon fill="#bfbfbf" stroke="black" points="1920,-257.5 1920,-276.5 2053,-276.5 2053,-257.5 1920,-257.5"/>
<text text-anchor="middle" x="1986.5" y="-264.5" font-family="Helvetica,sans-Serif" font-size="10.00">sources/APU/IPL/IPL.hpp</text>
</a>
</g>
</g>
<!-- Node2 -->
<g id="node2" class="node">
<title>Node2</title>
<g id="a_node2"><a xlink:href="APU_8hpp.html" target="_top" xlink:title=" ">
<polygon fill="white" stroke="black" points="1853.5,-201.5 1853.5,-220.5 1975.5,-220.5 1975.5,-201.5 1853.5,-201.5"/>
<text text-anchor="middle" x="1914.5" y="-208.5" font-family="Helvetica,sans-Serif" font-size="10.00">sources/APU/APU.hpp</text>
</a>
</g>
</g>
<!-- Node1&#45;&gt;Node2 -->
<g id="edge1" class="edge">
<title>Node1&#45;&gt;Node2</title>
<path fill="none" stroke="midnightblue" d="M1966.63,-251.1C1953.68,-241.38 1937.2,-229.03 1926.28,-220.83"/>
<polygon fill="midnightblue" stroke="midnightblue" points="1964.83,-254.12 1974.93,-257.32 1969.03,-248.52 1964.83,-254.12"/>
</g>
<!-- Node61 -->
<g id="node50" class="node">
<title>Node61</title>
<g id="a_node50"><a xlink:href="IPL_8cpp.html" target="_top" xlink:title=" ">
<polygon fill="white" stroke="black" points="1993.5,-201.5 1993.5,-220.5 2125.5,-220.5 2125.5,-201.5 1993.5,-201.5"/>
<text text-anchor="middle" x="2059.5" y="-208.5" font-family="Helvetica,sans-Serif" font-size="10.00">sources/APU/IPL/IPL.cpp</text>
</a>
</g>
</g>
<!-- Node1&#45;&gt;Node61 -->
<g id="edge70" class="edge">
<title>Node1&#45;&gt;Node61</title>
<path fill="none" stroke="midnightblue" d="M2006.64,-251.1C2019.78,-241.38 2036.48,-229.03 2047.56,-220.83"/>
<polygon fill="midnightblue" stroke="midnightblue" points="2004.19,-248.56 1998.23,-257.32 2008.35,-254.19 2004.19,-248.56"/>
</g>
<!-- Node3 -->
<g id="node3" class="node">
<title>Node3</title>
<g id="a_node3"><a xlink:href="APU_8cpp.html" target="_top" xlink:title=" ">
<polygon fill="white" stroke="black" points="0,-140 0,-159 121,-159 121,-140 0,-140"/>
<text text-anchor="middle" x="60.5" y="-147" font-family="Helvetica,sans-Serif" font-size="10.00">sources/APU/APU.cpp</text>
</a>
</g>
</g>
<!-- Node2&#45;&gt;Node3 -->
<g id="edge2" class="edge">
<title>Node2&#45;&gt;Node3</title>
<path fill="none" stroke="midnightblue" d="M1842.68,-209.93C1553,-209.39 469.76,-204.71 129.5,-165 118.19,-163.68 105.99,-161.41 95.05,-159.04"/>
<polygon fill="midnightblue" stroke="midnightblue" points="1843.05,-213.43 1853.05,-209.95 1843.06,-206.43 1843.05,-213.43"/>
</g>
<!-- Node4 -->
<g id="node4" class="node">
<title>Node4</title>
<g id="a_node4"><a xlink:href="DSP_8cpp.html" target="_top" xlink:title=" ">
<polygon fill="white" stroke="black" points="139,-140 139,-159 280,-159 280,-140 139,-140"/>
<text text-anchor="middle" x="209.5" y="-147" font-family="Helvetica,sans-Serif" font-size="10.00">sources/APU/DSP/DSP.cpp</text>
</a>
</g>
</g>
<!-- Node2&#45;&gt;Node4 -->
<g id="edge3" class="edge">
<title>Node2&#45;&gt;Node4</title>
<path fill="none" stroke="midnightblue" d="M1843.3,-209.49C1571.15,-207.3 596.64,-197.35 288.5,-165 275.6,-163.65 261.65,-161.36 249.11,-159"/>
<polygon fill="midnightblue" stroke="midnightblue" points="1843.41,-212.99 1853.44,-209.57 1843.47,-205.99 1843.41,-212.99"/>
</g>
<!-- Node5 -->
<g id="node5" class="node">
<title>Node5</title>
<g id="a_node5"><a xlink:href="Voice_8cpp.html" target="_top" xlink:title=" ">
<polygon fill="white" stroke="black" points="298,-140 298,-159 447,-159 447,-140 298,-140"/>
<text text-anchor="middle" x="372.5" y="-147" font-family="Helvetica,sans-Serif" font-size="10.00">sources/APU/DSP/Voice.cpp</text>
</a>
</g>
</g>
<!-- Node2&#45;&gt;Node5 -->
<g id="edge4" class="edge">
<title>Node2&#45;&gt;Node5</title>
<path fill="none" stroke="midnightblue" d="M1843.12,-209.14C1589.05,-205.88 729.33,-193 455.5,-165 442.11,-163.63 427.63,-161.37 414.56,-159.04"/>
<polygon fill="midnightblue" stroke="midnightblue" points="1843.29,-212.65 1853.33,-209.27 1843.38,-205.65 1843.29,-212.65"/>
</g>
<!-- Node6 -->
<g id="node6" class="node">
<title>Node6</title>
<g id="a_node6"><a xlink:href="16bitArithmetic_8cpp.html" target="_top" xlink:title=" ">
<polygon fill="white" stroke="black" points="465,-134.5 465,-164.5 602,-164.5 602,-134.5 465,-134.5"/>
<text text-anchor="start" x="473" y="-152.5" font-family="Helvetica,sans-Serif" font-size="10.00">sources/APU/Instructions</text>
<text text-anchor="middle" x="533.5" y="-141.5" font-family="Helvetica,sans-Serif" font-size="10.00">/16bitArithmetic.cpp</text>
</a>
</g>
</g>
<!-- Node2&#45;&gt;Node6 -->
<g id="edge5" class="edge">
<title>Node2&#45;&gt;Node6</title>
<path fill="none" stroke="midnightblue" d="M1843.32,-208.94C1607.54,-205.22 853.3,-191.5 611.5,-165 608.49,-164.67 605.42,-164.29 602.32,-163.87"/>
<polygon fill="midnightblue" stroke="midnightblue" points="1843.44,-212.45 1853.49,-209.1 1843.55,-205.45 1843.44,-212.45"/>
</g>
<!-- Node7 -->
<g id="node7" class="node">
<title>Node7</title>
<g id="a_node7"><a xlink:href="16bitDataTransmission_8cpp.html" target="_top" xlink:title=" ">
<polygon fill="white" stroke="black" points="620.5,-134.5 620.5,-164.5 772.5,-164.5 772.5,-134.5 620.5,-134.5"/>
<text text-anchor="start" x="628.5" y="-152.5" font-family="Helvetica,sans-Serif" font-size="10.00">sources/APU/Instructions</text>
<text text-anchor="middle" x="696.5" y="-141.5" font-family="Helvetica,sans-Serif" font-size="10.00">/16bitDataTransmission.cpp</text>
</a>
</g>
</g>
<!-- Node2&#45;&gt;Node7 -->
<g id="edge6" class="edge">
<title>Node2&#45;&gt;Node7</title>
<path fill="none" stroke="midnightblue" d="M1843.11,-210.36C1663.99,-210.57 1181.22,-206.85 781.5,-165 778.67,-164.7 775.79,-164.37 772.89,-164.01"/>
<polygon fill="midnightblue" stroke="midnightblue" points="1843.2,-213.86 1853.2,-210.34 1843.19,-206.86 1843.2,-213.86"/>
</g>
<!-- Node8 -->
<g id="node8" class="node">
<title>Node8</title>
<g id="a_node8"><a xlink:href="8bitArithmetic_8cpp.html" target="_top" xlink:title=" ">
<polygon fill="white" stroke="black" points="791,-134.5 791,-164.5 928,-164.5 928,-134.5 791,-134.5"/>
<text text-anchor="start" x="799" y="-152.5" font-family="Helvetica,sans-Serif" font-size="10.00">sources/APU/Instructions</text>
<text text-anchor="middle" x="859.5" y="-141.5" font-family="Helvetica,sans-Serif" font-size="10.00">/8bitArithmetic.cpp</text>
</a>
</g>
</g>
<!-- Node2&#45;&gt;Node8 -->
<g id="edge7" class="edge">
<title>Node2&#45;&gt;Node8</title>
<path fill="none" stroke="midnightblue" d="M1843.09,-210.07C1681.34,-209.5 1274.83,-203.94 937.5,-165 934.49,-164.65 931.42,-164.26 928.33,-163.83"/>
<polygon fill="midnightblue" stroke="midnightblue" points="1843.38,-213.57 1853.39,-210.1 1843.4,-206.57 1843.38,-213.57"/>
</g>
<!-- Node9 -->
<g id="node9" class="node">
<title>Node9</title>
<g id="a_node9"><a xlink:href="8bitDataTransmission_8cpp.html" target="_top" xlink:title=" ">
<polygon fill="white" stroke="black" points="946.5,-134.5 946.5,-164.5 1092.5,-164.5 1092.5,-134.5 946.5,-134.5"/>
<text text-anchor="start" x="954.5" y="-152.5" font-family="Helvetica,sans-Serif" font-size="10.00">sources/APU/Instructions</text>
<text text-anchor="middle" x="1019.5" y="-141.5" font-family="Helvetica,sans-Serif" font-size="10.00">/8bitDataTransmission.cpp</text>
</a>
</g>
</g>
<!-- Node2&#45;&gt;Node9 -->
<g id="edge8" class="edge">
<title>Node2&#45;&gt;Node9</title>
<path fill="none" stroke="midnightblue" d="M1843.05,-208.92C1701.23,-206.13 1374.3,-196.55 1101.5,-165 1098.63,-164.67 1095.7,-164.3 1092.75,-163.9"/>
<polygon fill="midnightblue" stroke="midnightblue" points="1843.29,-212.42 1853.35,-209.11 1843.42,-205.42 1843.29,-212.42"/>
</g>
<!-- Node10 -->
<g id="node10" class="node">
<title>Node10</title>
<g id="a_node10"><a xlink:href="8bitIncrementDecrement_8cpp.html" target="_top" xlink:title=" ">
<polygon fill="white" stroke="black" points="1110.5,-134.5 1110.5,-164.5 1272.5,-164.5 1272.5,-134.5 1110.5,-134.5"/>
<text text-anchor="start" x="1118.5" y="-152.5" font-family="Helvetica,sans-Serif" font-size="10.00">sources/APU/Instructions</text>
<text text-anchor="middle" x="1191.5" y="-141.5" font-family="Helvetica,sans-Serif" font-size="10.00">/8bitIncrementDecrement.cpp</text>
</a>
</g>
</g>
<!-- Node2&#45;&gt;Node10 -->
<g id="edge9" class="edge">
<title>Node2&#45;&gt;Node10</title>
<path fill="none" stroke="midnightblue" d="M1842.93,-206.98C1725.43,-201.57 1484.41,-188.51 1281.5,-165 1278.67,-164.67 1275.79,-164.32 1272.89,-163.94"/>
<polygon fill="midnightblue" stroke="midnightblue" points="1843.08,-210.5 1853.23,-207.45 1843.4,-203.5 1843.08,-210.5"/>
</g>
<!-- Node11 -->
<g id="node11" class="node">
<title>Node11</title>
<g id="a_node11"><a xlink:href="8bitLogical_8cpp.html" target="_top" xlink:title=" ">
<polygon fill="white" stroke="black" points="1291,-134.5 1291,-164.5 1428,-164.5 1428,-134.5 1291,-134.5"/>
<text text-anchor="start" x="1299" y="-152.5" font-family="Helvetica,sans-Serif" font-size="10.00">sources/APU/Instructions</text>
<text text-anchor="middle" x="1359.5" y="-141.5" font-family="Helvetica,sans-Serif" font-size="10.00">/8bitLogical.cpp</text>
</a>
</g>
</g>
<!-- Node2&#45;&gt;Node11 -->
<g id="edge10" class="edge">
<title>Node2&#45;&gt;Node11</title>
<path fill="none" stroke="midnightblue" d="M1842.96,-205.33C1749.28,-198.75 1580.1,-185.24 1436.5,-165 1433.81,-164.62 1431.06,-164.21 1428.3,-163.78"/>
<polygon fill="midnightblue" stroke="midnightblue" points="1842.95,-208.84 1853.17,-206.04 1843.44,-201.86 1842.95,-208.84"/>
</g>
<!-- Node12 -->
<g id="node12" class="node">
<title>Node12</title>
<g id="a_node12"><a xlink:href="8bitShiftRotation_8cpp.html" target="_top" xlink:title=" ">
<polygon fill="white" stroke="black" points="1446,-134.5 1446,-164.5 1583,-164.5 1583,-134.5 1446,-134.5"/>
<text text-anchor="start" x="1454" y="-152.5" font-family="Helvetica,sans-Serif" font-size="10.00">sources/APU/Instructions</text>
<text text-anchor="middle" x="1514.5" y="-141.5" font-family="Helvetica,sans-Serif" font-size="10.00">/8bitShiftRotation.cpp</text>
</a>
</g>
</g>
<!-- Node2&#45;&gt;Node12 -->
<g id="edge11" class="edge">
<title>Node2&#45;&gt;Node12</title>
<path fill="none" stroke="midnightblue" d="M1843.13,-201.05C1777.58,-192.6 1677.82,-179.13 1591.5,-165 1588.82,-164.56 1586.08,-164.1 1583.32,-163.63"/>
<polygon fill="midnightblue" stroke="midnightblue" points="1842.98,-204.56 1853.35,-202.36 1843.88,-197.62 1842.98,-204.56"/>
</g>
<!-- Node13 -->
<g id="node13" class="node">
<title>Node13</title>
<g id="a_node13"><a xlink:href="Bit_8cpp.html" target="_top" xlink:title=" ">
<polygon fill="white" stroke="black" points="1601,-134.5 1601,-164.5 1738,-164.5 1738,-134.5 1601,-134.5"/>
<text text-anchor="start" x="1609" y="-152.5" font-family="Helvetica,sans-Serif" font-size="10.00">sources/APU/Instructions</text>
<text text-anchor="middle" x="1669.5" y="-141.5" font-family="Helvetica,sans-Serif" font-size="10.00">/Bit.cpp</text>
</a>
</g>
</g>
<!-- Node2&#45;&gt;Node13 -->
<g id="edge12" class="edge">
<title>Node2&#45;&gt;Node13</title>
<path fill="none" stroke="midnightblue" d="M1869.65,-199.11C1829.62,-189.39 1770.77,-175.1 1727.24,-164.52"/>
<polygon fill="midnightblue" stroke="midnightblue" points="1868.85,-202.52 1879.4,-201.48 1870.51,-195.71 1868.85,-202.52"/>
</g>
<!-- Node14 -->
<g id="node14" class="node">
<title>Node14</title>
<g id="a_node14"><a xlink:href="DecimalCompensation_8cpp.html" target="_top" xlink:title=" ">
<polygon fill="white" stroke="black" points="1756,-134.5 1756,-164.5 1907,-164.5 1907,-134.5 1756,-134.5"/>
<text text-anchor="start" x="1764" y="-152.5" font-family="Helvetica,sans-Serif" font-size="10.00">sources/APU/Instructions</text>
<text text-anchor="middle" x="1831.5" y="-141.5" font-family="Helvetica,sans-Serif" font-size="10.00">/DecimalCompensation.cpp</text>
</a>
</g>
</g>
<!-- Node2&#45;&gt;Node14 -->
<g id="edge13" class="edge">
<title>Node2&#45;&gt;Node14</title>
<path fill="none" stroke="midnightblue" d="M1894.23,-195.47C1881.09,-186.05 1864.06,-173.84 1851.06,-164.52"/>
<polygon fill="midnightblue" stroke="midnightblue" points="1892.44,-198.49 1902.61,-201.48 1896.52,-192.8 1892.44,-198.49"/>
</g>
<!-- Node15 -->
<g id="node15" class="node">
<title>Node15</title>
<g id="a_node15"><a xlink:href="MultiplicationDivision_8cpp.html" target="_top" xlink:title=" ">
<polygon fill="white" stroke="black" points="1925.5,-134.5 1925.5,-164.5 2071.5,-164.5 2071.5,-134.5 1925.5,-134.5"/>
<text text-anchor="start" x="1933.5" y="-152.5" font-family="Helvetica,sans-Serif" font-size="10.00">sources/APU/Instructions</text>
<text text-anchor="middle" x="1998.5" y="-141.5" font-family="Helvetica,sans-Serif" font-size="10.00">/MultiplicationDivision.cpp</text>
</a>
</g>
</g>
<!-- Node2&#45;&gt;Node15 -->
<g id="edge14" class="edge">
<title>Node2&#45;&gt;Node15</title>
<path fill="none" stroke="midnightblue" d="M1935.02,-195.47C1948.32,-186.05 1965.55,-173.84 1978.7,-164.52"/>
<polygon fill="midnightblue" stroke="midnightblue" points="1932.67,-192.84 1926.54,-201.48 1936.72,-198.55 1932.67,-192.84"/>
</g>
<!-- Node16 -->
<g id="node16" class="node">
<title>Node16</title>
<g id="a_node16"><a xlink:href="ProgramFlow_8cpp.html" target="_top" xlink:title=" ">
<polygon fill="white" stroke="black" points="2090,-134.5 2090,-164.5 2227,-164.5 2227,-134.5 2090,-134.5"/>
<text text-anchor="start" x="2098" y="-152.5" font-family="Helvetica,sans-Serif" font-size="10.00">sources/APU/Instructions</text>
<text text-anchor="middle" x="2158.5" y="-141.5" font-family="Helvetica,sans-Serif" font-size="10.00">/ProgramFlow.cpp</text>
</a>
</g>
</g>
<!-- Node2&#45;&gt;Node16 -->
<g id="edge15" class="edge">
<title>Node2&#45;&gt;Node16</title>
<path fill="none" stroke="midnightblue" d="M1959.42,-199.05C1999.28,-189.33 2057.73,-175.07 2100.99,-164.52"/>
<polygon fill="midnightblue" stroke="midnightblue" points="1958.35,-195.71 1949.46,-201.48 1960,-202.51 1958.35,-195.71"/>
</g>
<!-- Node17 -->
<g id="node17" class="node">
<title>Node17</title>
<g id="a_node17"><a xlink:href="ProgramStatusWord_8cpp.html" target="_top" xlink:title=" ">
<polygon fill="white" stroke="black" points="2245,-134.5 2245,-164.5 2382,-164.5 2382,-134.5 2245,-134.5"/>
<text text-anchor="start" x="2253" y="-152.5" font-family="Helvetica,sans-Serif" font-size="10.00">sources/APU/Instructions</text>
<text text-anchor="middle" x="2313.5" y="-141.5" font-family="Helvetica,sans-Serif" font-size="10.00">/ProgramStatusWord.cpp</text>
</a>
</g>
</g>
<!-- Node2&#45;&gt;Node17 -->
<g id="edge16" class="edge">
<title>Node2&#45;&gt;Node17</title>
<path fill="none" stroke="midnightblue" d="M1985.59,-200.41C2065.09,-189.62 2188.83,-172.61 2235.5,-165 2238.49,-164.51 2241.54,-164 2244.63,-163.48"/>
<polygon fill="midnightblue" stroke="midnightblue" points="1985.08,-196.95 1975.64,-201.76 1986.02,-203.88 1985.08,-196.95"/>
</g>
<!-- Node18 -->
<g id="node18" class="node">
<title>Node18</title>
<g id="a_node18"><a xlink:href="Stack_8cpp.html" target="_top" xlink:title=" ">
<polygon fill="white" stroke="black" points="2400,-134.5 2400,-164.5 2537,-164.5 2537,-134.5 2400,-134.5"/>
<text text-anchor="start" x="2408" y="-152.5" font-family="Helvetica,sans-Serif" font-size="10.00">sources/APU/Instructions</text>
<text text-anchor="middle" x="2468.5" y="-141.5" font-family="Helvetica,sans-Serif" font-size="10.00">/Stack.cpp</text>
</a>
</g>
</g>
<!-- Node2&#45;&gt;Node18 -->
<g id="edge17" class="edge">
<title>Node2&#45;&gt;Node18</title>
<path fill="none" stroke="midnightblue" d="M1985.67,-200.92C2166.31,-181.73 2214.27,-189.14 2390.5,-165 2393.5,-164.59 2396.56,-164.14 2399.65,-163.67"/>
<polygon fill="midnightblue" stroke="midnightblue" points="1985.14,-197.46 1975.57,-202 1985.88,-204.42 1985.14,-197.46"/>
</g>
<!-- Node19 -->
<g id="node19" class="node">
<title>Node19</title>
<g id="a_node19"><a xlink:href="Standbys_8cpp.html" target="_top" xlink:title=" ">
<polygon fill="white" stroke="black" points="2555,-134.5 2555,-164.5 2692,-164.5 2692,-134.5 2555,-134.5"/>
<text text-anchor="start" x="2563" y="-152.5" font-family="Helvetica,sans-Serif" font-size="10.00">sources/APU/Instructions</text>
<text text-anchor="middle" x="2623.5" y="-141.5" font-family="Helvetica,sans-Serif" font-size="10.00">/Standbys.cpp</text>
</a>
</g>
</g>
<!-- Node2&#45;&gt;Node19 -->
<g id="edge18" class="edge">
<title>Node2&#45;&gt;Node19</title>
<path fill="none" stroke="midnightblue" d="M1985.65,-200.96C2234.93,-177.55 2300.84,-195.48 2545.5,-165 2548.51,-164.63 2551.57,-164.21 2554.67,-163.76"/>
<polygon fill="midnightblue" stroke="midnightblue" points="1985.18,-197.48 1975.56,-201.92 1985.84,-204.45 1985.18,-197.48"/>
</g>
<!-- Node20 -->
<g id="node20" class="node">
<title>Node20</title>
<g id="a_node20"><a xlink:href="Subroutine_8cpp.html" target="_top" xlink:title=" ">
<polygon fill="white" stroke="black" points="2710,-134.5 2710,-164.5 2847,-164.5 2847,-134.5 2710,-134.5"/>
<text text-anchor="start" x="2718" y="-152.5" font-family="Helvetica,sans-Serif" font-size="10.00">sources/APU/Instructions</text>
<text text-anchor="middle" x="2778.5" y="-141.5" font-family="Helvetica,sans-Serif" font-size="10.00">/Subroutine.cpp</text>
</a>
</g>
</g>
<!-- Node2&#45;&gt;Node20 -->
<g id="edge19" class="edge">
<title>Node2&#45;&gt;Node20</title>
<path fill="none" stroke="midnightblue" d="M1985.51,-200.99C2303.57,-173.26 2387.3,-201.82 2700.5,-165 2703.51,-164.65 2706.58,-164.25 2709.67,-163.81"/>
<polygon fill="midnightblue" stroke="midnightblue" points="1985.21,-197.5 1975.55,-201.87 1985.82,-204.47 1985.21,-197.5"/>
</g>
<!-- Node21 -->
<g id="node21" class="node">
<title>Node21</title>
<g id="a_node21"><a xlink:href="Operand_8cpp.html" target="_top" xlink:title=" ">
<polygon fill="white" stroke="black" points="2865.5,-140 2865.5,-159 3007.5,-159 3007.5,-140 2865.5,-140"/>
<text text-anchor="middle" x="2936.5" y="-147" font-family="Helvetica,sans-Serif" font-size="10.00">sources/APU/Operand.cpp</text>
</a>
</g>
</g>
<!-- Node2&#45;&gt;Node21 -->
<g id="edge20" class="edge">
<title>Node2&#45;&gt;Node21</title>
<path fill="none" stroke="midnightblue" d="M1985.61,-200.99C2372.28,-168.93 2473.66,-206.87 2855.5,-165 2868.42,-163.58 2882.39,-161.34 2895.03,-159.04"/>
<polygon fill="midnightblue" stroke="midnightblue" points="1985.22,-197.51 1975.55,-201.83 1985.81,-204.49 1985.22,-197.51"/>
</g>
<!-- Node22 -->
<g id="node22" class="node">
<title>Node22</title>
<g id="a_node22"><a xlink:href="APUDebug_8hpp.html" target="_top" xlink:title=" ">
<polygon fill="white" stroke="black" points="3043.5,-73 3043.5,-92 3223.5,-92 3223.5,-73 3043.5,-73"/>
<text text-anchor="middle" x="3133.5" y="-80" font-family="Helvetica,sans-Serif" font-size="10.00">sources/Debugger/APUDebug.hpp</text>
</a>
</g>
</g>
<!-- Node2&#45;&gt;Node22 -->
<g id="edge21" class="edge">
<title>Node2&#45;&gt;Node22</title>
<path fill="none" stroke="midnightblue" d="M1985.63,-201.13C2141.4,-192.34 2943.09,-210.24 3049.5,-165 3086.15,-149.42 3115.92,-109.92 3127.86,-92.26"/>
<polygon fill="midnightblue" stroke="midnightblue" points="1985.29,-197.64 1975.55,-201.81 1985.76,-204.63 1985.29,-197.64"/>
</g>
<!-- Node24 -->
<g id="node24" class="node">
<title>Node24</title>
<g id="a_node24"><a xlink:href="SNES_8hpp.html" target="_top" xlink:title=" ">
<polygon fill="white" stroke="black" points="4209.5,-140 4209.5,-159 4313.5,-159 4313.5,-140 4209.5,-140"/>
<text text-anchor="middle" x="4261.5" y="-147" font-family="Helvetica,sans-Serif" font-size="10.00">sources/SNES.hpp</text>
</a>
</g>
</g>
<!-- Node2&#45;&gt;Node24 -->
<g id="edge23" class="edge">
<title>Node2&#45;&gt;Node24</title>
<path fill="none" stroke="midnightblue" d="M1985.67,-201.05C2256.78,-183.12 3895.3,-156.34 4209.45,-151.32"/>
<polygon fill="midnightblue" stroke="midnightblue" points="1985.27,-197.57 1975.54,-201.77 1985.77,-204.55 1985.27,-197.57"/>
</g>
<!-- Node43 -->
<g id="node36" class="node">
<title>Node43</title>
<g id="a_node36"><a xlink:href="testAPU_8cpp.html" target="_top" xlink:title=" ">
<polygon fill="white" stroke="black" points="2931.5,-6 2931.5,-25 3057.5,-25 3057.5,-6 2931.5,-6"/>
<text text-anchor="middle" x="2994.5" y="-13" font-family="Helvetica,sans-Serif" font-size="10.00">tests/APU/testAPU.cpp</text>
</a>
</g>
</g>
<!-- Node2&#45;&gt;Node43 -->
<g id="edge67" class="edge">
<title>Node2&#45;&gt;Node43</title>
<path fill="none" stroke="midnightblue" d="M1985.67,-201.29C2106.31,-196.97 2978.05,-204.82 3016.5,-165 3054.52,-125.63 3015.36,-50.92 3000.06,-25.35"/>
<polygon fill="midnightblue" stroke="midnightblue" points="1985.35,-197.8 1975.55,-201.81 1985.72,-204.79 1985.35,-197.8"/>
</g>
<!-- Node44 -->
<g id="node37" class="node">
<title>Node44</title>
<g id="a_node37"><a xlink:href="testAPUInstructions_8cpp.html" target="_top" xlink:title=" ">
<polygon fill="white" stroke="black" points="3076,-6 3076,-25 3259,-25 3259,-6 3076,-6"/>
<text text-anchor="middle" x="3167.5" y="-13" font-family="Helvetica,sans-Serif" font-size="10.00">tests/APU/testAPUInstructions.cpp</text>
</a>
</g>
</g>
<!-- Node2&#45;&gt;Node44 -->
<g id="edge68" class="edge">
<title>Node2&#45;&gt;Node44</title>
<path fill="none" stroke="midnightblue" d="M1985.74,-201.03C2244.75,-182.39 2850.3,-220.11 3085.5,-165 3155.41,-148.62 3193.66,-158.39 3232.5,-98 3239.95,-86.41 3238.56,-79.38 3232.5,-67 3222.95,-47.49 3201.83,-33.34 3186.24,-25.07"/>
<polygon fill="midnightblue" stroke="midnightblue" points="1985.25,-197.55 1975.55,-201.8 1985.78,-204.53 1985.25,-197.55"/>
</g>
<!-- Node45 -->
<g id="node38" class="node">
<title>Node45</title>
<g id="a_node38"><a xlink:href="testOperand_8cpp.html" target="_top" xlink:title=" ">
<polygon fill="white" stroke="black" points="3277,-6 3277,-25 3424,-25 3424,-6 3277,-6"/>
<text text-anchor="middle" x="3350.5" y="-13" font-family="Helvetica,sans-Serif" font-size="10.00">tests/APU/testOperand.cpp</text>
</a>
</g>
</g>
<!-- Node2&#45;&gt;Node45 -->
<g id="edge69" class="edge">
<title>Node2&#45;&gt;Node45</title>
<path fill="none" stroke="midnightblue" d="M1985.56,-201.12C2153.49,-191.35 3035.79,-206.01 3156.5,-165 3242.04,-135.94 3319.54,-52.43 3343.16,-25.2"/>
<polygon fill="midnightblue" stroke="midnightblue" points="1985.29,-197.63 1975.55,-201.8 1985.76,-204.61 1985.29,-197.63"/>
</g>
<!-- Node23 -->
<g id="node23" class="node">
<title>Node23</title>
<g id="a_node23"><a xlink:href="APUDebug_8cpp.html" target="_top" xlink:title=" ">
<polygon fill="white" stroke="black" points="2734,-6 2734,-25 2913,-25 2913,-6 2734,-6"/>
<text text-anchor="middle" x="2823.5" y="-13" font-family="Helvetica,sans-Serif" font-size="10.00">sources/Debugger/APUDebug.cpp</text>
</a>
</g>
</g>
<!-- Node22&#45;&gt;Node23 -->
<g id="edge22" class="edge">
<title>Node22&#45;&gt;Node23</title>
<path fill="none" stroke="midnightblue" d="M3082.86,-70.88C3021.9,-58.1 2920.71,-36.88 2864.44,-25.08"/>
<polygon fill="midnightblue" stroke="midnightblue" points="3082.15,-74.31 3092.65,-72.94 3083.59,-67.46 3082.15,-74.31"/>
</g>
<!-- Node24&#45;&gt;Node22 -->
<g id="edge24" class="edge">
<title>Node24&#45;&gt;Node22</title>
<path fill="none" stroke="midnightblue" d="M4199,-145.4C4050.23,-137.95 3663.39,-118.16 3340.5,-98 3302.21,-95.61 3259.95,-92.7 3223.65,-90.11"/>
<polygon fill="midnightblue" stroke="midnightblue" points="4199.14,-148.91 4209.3,-145.92 4199.49,-141.92 4199.14,-148.91"/>
</g>
<!-- Node25 -->
<g id="node25" class="node">
<title>Node25</title>
<g id="a_node25"><a xlink:href="CGramDebug_8cpp.html" target="_top" xlink:title=" ">
<polygon fill="white" stroke="black" points="5782,-73 5782,-92 5975,-92 5975,-73 5782,-73"/>
<text text-anchor="middle" x="5878.5" y="-80" font-family="Helvetica,sans-Serif" font-size="10.00">sources/Debugger/CGramDebug.cpp</text>
</a>
</g>
</g>
<!-- Node24&#45;&gt;Node25 -->
<g id="edge25" class="edge">
<title>Node24&#45;&gt;Node25</title>
<path fill="none" stroke="midnightblue" d="M4323.56,-148.73C4529.97,-149.02 5212.16,-146 5773.5,-98 5790.19,-96.57 5808.28,-94.33 5824.66,-92.03"/>
<polygon fill="midnightblue" stroke="midnightblue" points="4323.52,-145.23 4313.51,-148.72 4323.51,-152.23 4323.52,-145.23"/>
</g>
<!-- Node26 -->
<g id="node26" class="node">
<title>Node26</title>
<g id="a_node26"><a xlink:href="SFRenderer_8hpp.html" target="_top" xlink:title=" ">
<polygon fill="white" stroke="red" points="5423,-73 5423,-92 5604,-92 5604,-73 5423,-73"/>
<text text-anchor="middle" x="5513.5" y="-80" font-family="Helvetica,sans-Serif" font-size="10.00">sources/Renderer/SFRenderer.hpp</text>
</a>
</g>
</g>
<!-- Node24&#45;&gt;Node26 -->
<g id="edge26" class="edge">
<title>Node24&#45;&gt;Node26</title>
<path fill="none" stroke="midnightblue" d="M4323.84,-147.99C4497.16,-146.11 4999.36,-137.39 5414.5,-98 5430.06,-96.52 5446.92,-94.29 5462.24,-92.02"/>
<polygon fill="midnightblue" stroke="midnightblue" points="4323.59,-144.5 4313.63,-148.1 4323.67,-151.5 4323.59,-144.5"/>
</g>
<!-- Node27 -->
<g id="node27" class="node">
<title>Node27</title>
<g id="a_node27"><a xlink:href="CPUDebug_8hpp.html" target="_top" xlink:title=" ">
<polygon fill="white" stroke="red" points="5316.5,-0.5 5316.5,-30.5 5444.5,-30.5 5444.5,-0.5 5316.5,-0.5"/>
<text text-anchor="start" x="5324.5" y="-18.5" font-family="Helvetica,sans-Serif" font-size="10.00">sources/Debugger/CPU</text>
<text text-anchor="middle" x="5380.5" y="-7.5" font-family="Helvetica,sans-Serif" font-size="10.00">/CPUDebug.hpp</text>
</a>
</g>
</g>
<!-- Node24&#45;&gt;Node27 -->
<g id="edge29" class="edge">
<title>Node24&#45;&gt;Node27</title>
<path fill="none" stroke="midnightblue" d="M4324.03,-148.4C4479.39,-147.49 4879.35,-140.93 5004.5,-98 5027.82,-90 5027.54,-75.97 5050.5,-67 5097.74,-48.55 5234.6,-31.72 5316.48,-22.93"/>
<polygon fill="midnightblue" stroke="midnightblue" points="4323.7,-144.9 4313.72,-148.45 4323.74,-151.9 4323.7,-144.9"/>
</g>
<!-- Node30 -->
<g id="node28" class="node">
<title>Node30</title>
<g id="a_node28"><a xlink:href="main_8cpp.html" target="_top" xlink:title=" ">
<polygon fill="white" stroke="black" points="5541.5,-6 5541.5,-25 5643.5,-25 5643.5,-6 5541.5,-6"/>
<text text-anchor="middle" x="5592.5" y="-13" font-family="Helvetica,sans-Serif" font-size="10.00">sources/main.cpp</text>
</a>
</g>
</g>
<!-- Node24&#45;&gt;Node30 -->
<g id="edge34" class="edge">
<title>Node24&#45;&gt;Node30</title>
<path fill="none" stroke="midnightblue" d="M4323.77,-148.55C4583.37,-148.45 5568.25,-144.98 5613.5,-98 5633.06,-77.69 5611.19,-41.68 5599.24,-25.19"/>
<polygon fill="midnightblue" stroke="midnightblue" points="4323.75,-145.05 4313.75,-148.55 4323.75,-152.05 4323.75,-145.05"/>
</g>
<!-- Node36 -->
<g id="node29" class="node">
<title>Node36</title>
<g id="a_node29"><a xlink:href="HeaderViewer_8cpp.html" target="_top" xlink:title=" ">
<polygon fill="white" stroke="black" points="4327.5,-73 4327.5,-92 4523.5,-92 4523.5,-73 4327.5,-73"/>
<text text-anchor="middle" x="4425.5" y="-80" font-family="Helvetica,sans-Serif" font-size="10.00">sources/Debugger/HeaderViewer.cpp</text>
</a>
</g>
</g>
<!-- Node24&#45;&gt;Node36 -->
<g id="edge30" class="edge">
<title>Node24&#45;&gt;Node36</title>
<path fill="none" stroke="midnightblue" d="M4292.78,-136.1C4325.34,-123.2 4375.47,-103.33 4403.89,-92.06"/>
<polygon fill="midnightblue" stroke="midnightblue" points="4291.28,-132.93 4283.28,-139.87 4293.86,-139.44 4291.28,-132.93"/>
</g>
<!-- Node37 -->
<g id="node30" class="node">
<title>Node37</title>
<g id="a_node30"><a xlink:href="MemoryBusDebug_8cpp.html" target="_top" xlink:title=" ">
<polygon fill="white" stroke="black" points="4541.5,-67.5 4541.5,-97.5 4707.5,-97.5 4707.5,-67.5 4541.5,-67.5"/>
<text text-anchor="start" x="4549.5" y="-85.5" font-family="Helvetica,sans-Serif" font-size="10.00">sources/Debugger/MemoryBus</text>
<text text-anchor="middle" x="4624.5" y="-74.5" font-family="Helvetica,sans-Serif" font-size="10.00">Debug.cpp</text>
</a>
</g>
</g>
<!-- Node24&#45;&gt;Node37 -->
<g id="edge31" class="edge">
<title>Node24&#45;&gt;Node37</title>
<path fill="none" stroke="midnightblue" d="M4319.22,-138.16C4380.51,-127.19 4477.76,-109.78 4545.99,-97.56"/>
<polygon fill="midnightblue" stroke="midnightblue" points="4318.56,-134.73 4309.33,-139.94 4319.79,-141.62 4318.56,-134.73"/>
</g>
<!-- Node38 -->
<g id="node31" class="node">
<title>Node38</title>
<g id="a_node31"><a xlink:href="MemoryViewer_8cpp.html" target="_top" xlink:title=" ">
<polygon fill="white" stroke="black" points="4726,-73 4726,-92 4927,-92 4927,-73 4726,-73"/>
<text text-anchor="middle" x="4826.5" y="-80" font-family="Helvetica,sans-Serif" font-size="10.00">sources/Debugger/MemoryViewer.cpp</text>
</a>
</g>
</g>
<!-- Node24&#45;&gt;Node38 -->
<g id="edge32" class="edge">
<title>Node24&#45;&gt;Node38</title>
<path fill="none" stroke="midnightblue" d="M4323.79,-142C4411.48,-132.75 4576.29,-115.02 4716.5,-98 4731.8,-96.14 4748.28,-94.03 4763.7,-92"/>
<polygon fill="midnightblue" stroke="midnightblue" points="4323.32,-138.53 4313.74,-143.05 4324.05,-145.49 4323.32,-138.53"/>
</g>
<!-- Node39 -->
<g id="node32" class="node">
<title>Node39</title>
<g id="a_node32"><a xlink:href="RegisterViewer_8cpp.html" target="_top" xlink:title=" ">
<polygon fill="white" stroke="black" points="5059.5,-67.5 5059.5,-97.5 5207.5,-97.5 5207.5,-67.5 5059.5,-67.5"/>
<text text-anchor="start" x="5067.5" y="-85.5" font-family="Helvetica,sans-Serif" font-size="10.00">sources/Debugger/Register</text>
<text text-anchor="middle" x="5133.5" y="-74.5" font-family="Helvetica,sans-Serif" font-size="10.00">Viewer.cpp</text>
</a>
</g>
</g>
<!-- Node24&#45;&gt;Node39 -->
<g id="edge33" class="edge">
<title>Node24&#45;&gt;Node39</title>
<path fill="none" stroke="midnightblue" d="M4323.97,-146.58C4457.02,-142.02 4778.06,-128.57 5045.5,-98 5049.96,-97.49 5054.54,-96.91 5059.16,-96.28"/>
<polygon fill="midnightblue" stroke="midnightblue" points="4323.83,-143.08 4313.96,-146.92 4324.07,-150.08 4323.83,-143.08"/>
</g>
<!-- Node40 -->
<g id="node33" class="node">
<title>Node40</title>
<g id="a_node33"><a xlink:href="MemoryBus_8cpp.html" target="_top" xlink:title=" ">
<polygon fill="white" stroke="black" points="5226,-73 5226,-92 5405,-92 5405,-73 5226,-73"/>
<text text-anchor="middle" x="5315.5" y="-80" font-family="Helvetica,sans-Serif" font-size="10.00">sources/Memory/MemoryBus.cpp</text>
</a>
</g>
</g>
<!-- Node24&#45;&gt;Node40 -->
<g id="edge35" class="edge">
<title>Node24&#45;&gt;Node40</title>
<path fill="none" stroke="midnightblue" d="M4323.76,-147.2C4476.31,-143.59 4880.77,-131.39 5216.5,-98 5231.88,-96.47 5248.54,-94.25 5263.72,-92.01"/>
<polygon fill="midnightblue" stroke="midnightblue" points="4323.56,-143.71 4313.65,-147.44 4323.73,-150.7 4323.56,-143.71"/>
</g>
<!-- Node41 -->
<g id="node34" class="node">
<title>Node41</title>
<g id="a_node34"><a xlink:href="SNES_8cpp.html" target="_top" xlink:title=" ">
<polygon fill="white" stroke="black" points="5661,-73 5661,-92 5764,-92 5764,-73 5661,-73"/>
<text text-anchor="middle" x="5712.5" y="-80" font-family="Helvetica,sans-Serif" font-size="10.00">sources/SNES.cpp</text>
</a>
</g>
</g>
<!-- Node24&#45;&gt;Node41 -->
<g id="edge36" class="edge">
<title>Node24&#45;&gt;Node41</title>
<path fill="none" stroke="midnightblue" d="M4323.57,-147.72C4557.41,-144.55 5385.14,-131.2 5646.5,-98 5657.21,-96.64 5668.74,-94.38 5679.13,-92.05"/>
<polygon fill="midnightblue" stroke="midnightblue" points="4323.49,-144.22 4313.54,-147.86 4323.59,-151.22 4323.49,-144.22"/>
</g>
<!-- Node42 -->
<g id="node35" class="node">
<title>Node42</title>
<g id="a_node35"><a xlink:href="tests_8hpp.html" target="_top" xlink:title=" ">
<polygon fill="white" stroke="red" points="4012,-73 4012,-92 4101,-92 4101,-73 4012,-73"/>
<text text-anchor="middle" x="4056.5" y="-80" font-family="Helvetica,sans-Serif" font-size="10.00">tests/tests.hpp</text>
</a>
</g>
</g>
<!-- Node24&#45;&gt;Node42 -->
<g id="edge37" class="edge">
<title>Node24&#45;&gt;Node42</title>
<path fill="none" stroke="midnightblue" d="M4224.49,-136.77C4183.87,-123.89 4119.64,-103.52 4083.51,-92.06"/>
<polygon fill="midnightblue" stroke="midnightblue" points="4223.69,-140.18 4234.28,-139.87 4225.8,-133.51 4223.69,-140.18"/>
</g>
<!-- Node24&#45;&gt;Node43 -->
<g id="edge53" class="edge">
<title>Node24&#45;&gt;Node43</title>
<path fill="none" stroke="midnightblue" d="M4198.95,-148.44C4053.19,-147.54 3679.88,-140.85 3371.5,-98 3308.81,-89.29 3294.35,-80.46 3232.5,-67 3163.37,-51.96 3082.81,-34.98 3035.38,-25.04"/>
<polygon fill="midnightblue" stroke="midnightblue" points="4199.03,-151.94 4209.05,-148.49 4199.07,-144.94 4199.03,-151.94"/>
</g>
<!-- Node24&#45;&gt;Node44 -->
<g id="edge54" class="edge">
<title>Node24&#45;&gt;Node44</title>
<path fill="none" stroke="midnightblue" d="M4198.93,-147.19C4073.32,-143.89 3781.75,-132.82 3539.5,-98 3411.89,-79.66 3262.84,-41.97 3199.06,-25.05"/>
<polygon fill="midnightblue" stroke="midnightblue" points="4199.04,-150.69 4209.13,-147.45 4199.22,-143.7 4199.04,-150.69"/>
</g>
<!-- Node24&#45;&gt;Node45 -->
<g id="edge55" class="edge">
<title>Node24&#45;&gt;Node45</title>
<path fill="none" stroke="midnightblue" d="M4199.23,-145.86C4094.6,-140.77 3877.16,-127.41 3695.5,-98 3577.33,-78.87 3439.58,-41.76 3380.21,-25.04"/>
<polygon fill="midnightblue" stroke="midnightblue" points="4199.14,-149.36 4209.3,-146.34 4199.48,-142.37 4199.14,-149.36"/>
</g>
<!-- Node46 -->
<g id="node39" class="node">
<title>Node46</title>
<g id="a_node39"><a xlink:href="testADC_8cpp.html" target="_top" xlink:title=" ">
<polygon fill="white" stroke="black" points="3442,-6 3442,-25 3597,-25 3597,-6 3442,-6"/>
<text text-anchor="middle" x="3519.5" y="-13" font-family="Helvetica,sans-Serif" font-size="10.00">tests/CPU/Math/testADC.cpp</text>
</a>
</g>
</g>
<!-- Node24&#45;&gt;Node46 -->
<g id="edge56" class="edge">
<title>Node24&#45;&gt;Node46</title>
<path fill="none" stroke="midnightblue" d="M4199.26,-144.11C4114.43,-137.48 3958.03,-122.96 3826.5,-98 3721.39,-78.06 3599.29,-41.54 3546.3,-25.02"/>
<polygon fill="midnightblue" stroke="midnightblue" points="4199,-147.6 4209.24,-144.88 4199.54,-140.62 4199,-147.6"/>
</g>
<!-- Node47 -->
<g id="node40" class="node">
<title>Node47</title>
<g id="a_node40"><a xlink:href="testCMP_8cpp.html" target="_top" xlink:title=" ">
<polygon fill="white" stroke="black" points="3615.5,-6 3615.5,-25 3769.5,-25 3769.5,-6 3615.5,-6"/>
<text text-anchor="middle" x="3692.5" y="-13" font-family="Helvetica,sans-Serif" font-size="10.00">tests/CPU/Math/testCMP.cpp</text>
</a>
</g>
</g>
<!-- Node24&#45;&gt;Node47 -->
<g id="edge57" class="edge">
<title>Node24&#45;&gt;Node47</title>
<path fill="none" stroke="midnightblue" d="M4199.27,-142.49C4131.87,-135.18 4021.52,-120.91 3928.5,-98 3847.06,-77.94 3753.9,-41.64 3713.27,-25.11"/>
<polygon fill="midnightblue" stroke="midnightblue" points="4198.99,-145.98 4209.3,-143.56 4199.73,-139.02 4198.99,-145.98"/>
</g>
<!-- Node48 -->
<g id="node41" class="node">
<title>Node48</title>
<g id="a_node41"><a xlink:href="testOthersMath_8cpp.html" target="_top" xlink:title=" ">
<polygon fill="white" stroke="black" points="3787.5,-0.5 3787.5,-30.5 3933.5,-30.5 3933.5,-0.5 3787.5,-0.5"/>
<text text-anchor="start" x="3795.5" y="-18.5" font-family="Helvetica,sans-Serif" font-size="10.00">tests/CPU/Math/testOthers</text>
<text text-anchor="middle" x="3860.5" y="-7.5" font-family="Helvetica,sans-Serif" font-size="10.00">Math.cpp</text>
</a>
</g>
</g>
<!-- Node24&#45;&gt;Node48 -->
<g id="edge58" class="edge">
<title>Node24&#45;&gt;Node48</title>
<path fill="none" stroke="midnightblue" d="M4199.32,-143.35C4143.63,-137.23 4060.5,-124.32 3992.5,-98 3948.55,-80.98 3903,-49.15 3878.58,-30.7"/>
<polygon fill="midnightblue" stroke="midnightblue" points="4199.08,-146.85 4209.39,-144.42 4199.81,-139.89 4199.08,-146.85"/>
</g>
<!-- Node49 -->
<g id="node42" class="node">
<title>Node49</title>
<g id="a_node42"><a xlink:href="testSBC_8cpp.html" target="_top" xlink:title=" ">
<polygon fill="white" stroke="black" points="3952,-6 3952,-25 4105,-25 4105,-6 3952,-6"/>
<text text-anchor="middle" x="4028.5" y="-13" font-family="Helvetica,sans-Serif" font-size="10.00">tests/CPU/Math/testSBC.cpp</text>
</a>
</g>
</g>
<!-- Node24&#45;&gt;Node49 -->
<g id="edge59" class="edge">
<title>Node24&#45;&gt;Node49</title>
<path fill="none" stroke="midnightblue" d="M4198.97,-145.2C4130.42,-140.11 4026.92,-127.64 4002.5,-98 3984.37,-75.99 4008.06,-41.15 4021.04,-25.11"/>
<polygon fill="midnightblue" stroke="midnightblue" points="4199.01,-148.71 4209.23,-145.92 4199.5,-141.73 4199.01,-148.71"/>
</g>
<!-- Node50 -->
<g id="node43" class="node">
<title>Node50</title>
<g id="a_node43"><a xlink:href="testAddressingMode_8cpp.html" target="_top" xlink:title=" ">
<polygon fill="white" stroke="black" points="4123.5,-0.5 4123.5,-30.5 4263.5,-30.5 4263.5,-0.5 4123.5,-0.5"/>
<text text-anchor="start" x="4131.5" y="-18.5" font-family="Helvetica,sans-Serif" font-size="10.00">tests/CPU/testAddressing</text>
<text text-anchor="middle" x="4193.5" y="-7.5" font-family="Helvetica,sans-Serif" font-size="10.00">Mode.cpp</text>
</a>
</g>
</g>
<!-- Node24&#45;&gt;Node50 -->
<g id="edge60" class="edge">
<title>Node24&#45;&gt;Node50</title>
<path fill="none" stroke="midnightblue" d="M4220.72,-136.27C4202.26,-128.47 4182.22,-116.3 4171.5,-98 4158.91,-76.5 4172.74,-47.61 4183.46,-30.63"/>
<polygon fill="midnightblue" stroke="midnightblue" points="4219.58,-139.59 4230.17,-139.96 4222.13,-133.07 4219.58,-139.59"/>
</g>
<!-- Node51 -->
<g id="node44" class="node">
<title>Node51</title>
<g id="a_node44"><a xlink:href="testBits_8cpp.html" target="_top" xlink:title=" ">
<polygon fill="white" stroke="black" points="4282,-6 4282,-25 4407,-25 4407,-6 4282,-6"/>
<text text-anchor="middle" x="4344.5" y="-13" font-family="Helvetica,sans-Serif" font-size="10.00">tests/CPU/testBits.cpp</text>
</a>
</g>
</g>
<!-- Node24&#45;&gt;Node51 -->
<g id="edge61" class="edge">
<title>Node24&#45;&gt;Node51</title>
<path fill="none" stroke="midnightblue" d="M4240.56,-133.62C4219.96,-117.11 4193.69,-89.79 4209.5,-67 4221.12,-50.24 4272.68,-34.35 4308.6,-25.02"/>
<polygon fill="midnightblue" stroke="midnightblue" points="4238.57,-136.5 4248.64,-139.79 4242.82,-130.94 4238.57,-136.5"/>
</g>
<!-- Node54 -->
<g id="node45" class="node">
<title>Node54</title>
<g id="a_node45"><a xlink:href="testInterupts_8cpp.html" target="_top" xlink:title=" ">
<polygon fill="white" stroke="black" points="4425,-6 4425,-25 4574,-25 4574,-6 4425,-6"/>
<text text-anchor="middle" x="4499.5" y="-13" font-family="Helvetica,sans-Serif" font-size="10.00">tests/CPU/testInterupts.cpp</text>
</a>
</g>
</g>
<!-- Node24&#45;&gt;Node54 -->
<g id="edge62" class="edge">
<title>Node24&#45;&gt;Node54</title>
<path fill="none" stroke="midnightblue" d="M4251.26,-130.88C4242.28,-112.85 4232.76,-84.99 4247.5,-67 4250.77,-63 4381.27,-38.35 4453.15,-25.02"/>
<polygon fill="midnightblue" stroke="midnightblue" points="4248.22,-132.61 4256.04,-139.76 4254.38,-129.3 4248.22,-132.61"/>
</g>
<!-- Node55 -->
<g id="node46" class="node">
<title>Node55</title>
<g id="a_node46"><a xlink:href="testStore_8cpp.html" target="_top" xlink:title=" ">
<polygon fill="white" stroke="black" points="4592,-6 4592,-25 4723,-25 4723,-6 4592,-6"/>
<text text-anchor="middle" x="4657.5" y="-13" font-family="Helvetica,sans-Serif" font-size="10.00">tests/CPU/testStore.cpp</text>
</a>
</g>
</g>
<!-- Node24&#45;&gt;Node55 -->
<g id="edge63" class="edge">
<title>Node24&#45;&gt;Node55</title>
<path fill="none" stroke="midnightblue" d="M4261.45,-129.94C4262.48,-111.06 4267.24,-82.46 4285.5,-67 4336.24,-24.04 4516.82,-41.32 4582.5,-31 4593.51,-29.27 4605.36,-27.12 4616.33,-25"/>
<polygon fill="midnightblue" stroke="midnightblue" points="4257.95,-129.9 4261.2,-139.99 4264.95,-130.08 4257.95,-129.9"/>
</g>
<!-- Node56 -->
<g id="node47" class="node">
<title>Node56</title>
<g id="a_node47"><a xlink:href="testTransfers_8cpp.html" target="_top" xlink:title=" ">
<polygon fill="white" stroke="black" points="4741.5,-6 4741.5,-25 4891.5,-25 4891.5,-6 4741.5,-6"/>
<text text-anchor="middle" x="4816.5" y="-13" font-family="Helvetica,sans-Serif" font-size="10.00">tests/CPU/testTransfers.cpp</text>
</a>
</g>
</g>
<!-- Node24&#45;&gt;Node56 -->
<g id="edge64" class="edge">
<title>Node24&#45;&gt;Node56</title>
<path fill="none" stroke="midnightblue" d="M4268.46,-130.73C4277.05,-111.4 4293.66,-81.35 4318.5,-67 4398.28,-20.93 4640.13,-42.76 4731.5,-31 4744.27,-29.36 4758.05,-27.18 4770.73,-25.02"/>
<polygon fill="midnightblue" stroke="midnightblue" points="4265.23,-129.38 4264.6,-139.96 4271.68,-132.08 4265.23,-129.38"/>
</g>
<!-- Node57 -->
<g id="node48" class="node">
<title>Node57</title>
<g id="a_node48"><a xlink:href="testPpuWrite_8cpp.html" target="_top" xlink:title=" ">
<polygon fill="white" stroke="black" points="4909,-6 4909,-25 5058,-25 5058,-6 4909,-6"/>
<text text-anchor="middle" x="4983.5" y="-13" font-family="Helvetica,sans-Serif" font-size="10.00">tests/PPU/testPpuWrite.cpp</text>
</a>
</g>
</g>
<!-- Node24&#45;&gt;Node57 -->
<g id="edge65" class="edge">
<title>Node24&#45;&gt;Node57</title>
<path fill="none" stroke="midnightblue" d="M4324.08,-147.09C4481.36,-143.1 4884.34,-129.84 4935.5,-98 4962.83,-80.99 4976.45,-42.26 4981.33,-25.03"/>
<polygon fill="midnightblue" stroke="midnightblue" points="4323.54,-143.6 4313.63,-147.35 4323.72,-150.6 4323.54,-143.6"/>
</g>
<!-- Node58 -->
<g id="node49" class="node">
<title>Node58</title>
<g id="a_node49"><a xlink:href="testPpuWriteFromVmain_8cpp.html" target="_top" xlink:title=" ">
<polygon fill="white" stroke="black" points="5076.5,-0.5 5076.5,-30.5 5230.5,-30.5 5230.5,-0.5 5076.5,-0.5"/>
<text text-anchor="start" x="5084.5" y="-18.5" font-family="Helvetica,sans-Serif" font-size="10.00">tests/PPU/testPpuWriteFrom</text>
<text text-anchor="middle" x="5153.5" y="-7.5" font-family="Helvetica,sans-Serif" font-size="10.00">Vmain.cpp</text>
</a>
</g>
</g>
<!-- Node24&#45;&gt;Node58 -->
<g id="edge66" class="edge">
<title>Node24&#45;&gt;Node58</title>
<path fill="none" stroke="midnightblue" d="M4324.05,-147.56C4472.96,-144.76 4844.89,-134.23 4963.5,-98 4989.97,-89.92 4992.44,-78.75 5017.5,-67 5047.72,-52.84 5083.09,-39.81 5110.18,-30.53"/>
<polygon fill="midnightblue" stroke="midnightblue" points="4323.66,-144.07 4313.72,-147.75 4323.78,-151.07 4323.66,-144.07"/>
</g>
<!-- Node26&#45;&gt;Node27 -->
<g id="edge27" class="edge">
<title>Node26&#45;&gt;Node27</title>
<path fill="none" stroke="midnightblue" d="M5486.85,-68.47C5464.36,-57.49 5432.25,-41.79 5409.2,-30.53"/>
<polygon fill="midnightblue" stroke="midnightblue" points="5485.32,-71.62 5495.84,-72.87 5488.39,-65.33 5485.32,-71.62"/>
</g>
<!-- Node26&#45;&gt;Node30 -->
<g id="edge28" class="edge">
<title>Node26&#45;&gt;Node30</title>
<path fill="none" stroke="midnightblue" d="M5532.08,-66.21C5547.64,-53.41 5569.3,-35.59 5582.01,-25.13"/>
<polygon fill="midnightblue" stroke="midnightblue" points="5529.65,-63.68 5524.15,-72.73 5534.1,-69.08 5529.65,-63.68"/>
</g>
<!-- Node42&#45;&gt;Node42 -->
<g id="edge39" class="edge">
<title>Node42&#45;&gt;Node42</title>
<path fill="none" stroke="midnightblue" d="M4086.08,-94.2C4103.13,-96.58 4119,-92.68 4119,-82.5 4119,-70.32 4096.29,-67.13 4076.02,-72.94"/>
<polygon fill="midnightblue" stroke="midnightblue" points="4086.53,-90.71 4076.02,-92.06 4085.08,-97.56 4086.53,-90.71"/>
</g>
<!-- Node42&#45;&gt;Node43 -->
<g id="edge38" class="edge">
<title>Node42&#45;&gt;Node43</title>
<path fill="none" stroke="midnightblue" d="M4001.56,-81.54C3851.25,-81.03 3420.86,-75.47 3066.5,-31 3054.99,-29.56 3042.56,-27.31 3031.33,-25.01"/>
<polygon fill="midnightblue" stroke="midnightblue" points="4001.88,-85.04 4011.89,-81.57 4001.9,-78.04 4001.88,-85.04"/>
</g>
<!-- Node42&#45;&gt;Node44 -->
<g id="edge40" class="edge">
<title>Node42&#45;&gt;Node44</title>
<path fill="none" stroke="midnightblue" d="M4001.54,-79.5C3872.92,-74.48 3542.37,-59.68 3267.5,-31 3252.23,-29.41 3235.72,-27.21 3220.6,-25.01"/>
<polygon fill="midnightblue" stroke="midnightblue" points="4001.78,-83.01 4011.91,-79.9 4002.05,-76.02 4001.78,-83.01"/>
</g>
<!-- Node42&#45;&gt;Node45 -->
<g id="edge41" class="edge">
<title>Node42&#45;&gt;Node45</title>
<path fill="none" stroke="midnightblue" d="M4001.62,-78.8C3892.75,-73.06 3641.88,-57.92 3432.5,-31 3420.03,-29.4 3406.56,-27.21 3394.22,-25.02"/>
<polygon fill="midnightblue" stroke="midnightblue" points="4001.54,-82.3 4011.71,-79.33 4001.9,-75.31 4001.54,-82.3"/>
</g>
<!-- Node42&#45;&gt;Node46 -->
<g id="edge42" class="edge">
<title>Node42&#45;&gt;Node46</title>
<path fill="none" stroke="midnightblue" d="M4001.51,-76.28C3916.59,-68.01 3748.52,-50.79 3606.5,-31 3593.91,-29.25 3580.34,-27.11 3567.75,-25.01"/>
<polygon fill="midnightblue" stroke="midnightblue" points="4001.4,-79.79 4011.69,-77.27 4002.08,-72.82 4001.4,-79.79"/>
</g>
<!-- Node42&#45;&gt;Node47 -->
<g id="edge43" class="edge">
<title>Node42&#45;&gt;Node47</title>
<path fill="none" stroke="midnightblue" d="M4001.77,-71.73C3930.74,-59.04 3807.9,-37.11 3740.39,-25.05"/>
<polygon fill="midnightblue" stroke="midnightblue" points="4001.41,-75.22 4011.87,-73.53 4002.64,-68.33 4001.41,-75.22"/>
</g>
<!-- Node42&#45;&gt;Node48 -->
<g id="edge44" class="edge">
<title>Node42&#45;&gt;Node48</title>
<path fill="none" stroke="midnightblue" d="M4020.72,-69.63C3987.48,-58.61 3937.98,-42.19 3902.8,-30.53"/>
<polygon fill="midnightblue" stroke="midnightblue" points="4019.88,-73.04 4030.47,-72.87 4022.08,-66.4 4019.88,-73.04"/>
</g>
<!-- Node42&#45;&gt;Node49 -->
<g id="edge45" class="edge">
<title>Node42&#45;&gt;Node49</title>
<path fill="none" stroke="midnightblue" d="M4048.66,-63.29C4043.28,-50.81 4036.39,-34.81 4032.22,-25.13"/>
<polygon fill="midnightblue" stroke="midnightblue" points="4045.55,-64.93 4052.72,-72.73 4051.98,-62.16 4045.55,-64.93"/>
</g>
<!-- Node42&#45;&gt;Node50 -->
<g id="edge46" class="edge">
<title>Node42&#45;&gt;Node50</title>
<path fill="none" stroke="midnightblue" d="M4083.96,-68.47C4107.12,-57.49 4140.19,-41.79 4163.93,-30.53"/>
<polygon fill="midnightblue" stroke="midnightblue" points="4082.23,-65.42 4074.69,-72.87 4085.23,-71.74 4082.23,-65.42"/>
</g>
<!-- Node42&#45;&gt;Node51 -->
<g id="edge47" class="edge">
<title>Node42&#45;&gt;Node51</title>
<path fill="none" stroke="midnightblue" d="M4104.25,-70.72C4160.96,-57.92 4254.41,-36.83 4306.47,-25.08"/>
<polygon fill="midnightblue" stroke="midnightblue" points="4103.43,-67.32 4094.45,-72.94 4104.97,-74.15 4103.43,-67.32"/>
</g>
<!-- Node42&#45;&gt;Node54 -->
<g id="edge48" class="edge">
<title>Node42&#45;&gt;Node54</title>
<path fill="none" stroke="midnightblue" d="M4111.04,-74.37C4181.46,-65.03 4307.78,-47.87 4415.5,-31 4427.2,-29.17 4439.79,-27.07 4451.57,-25.04"/>
<polygon fill="midnightblue" stroke="midnightblue" points="4110.51,-70.91 4101.06,-75.69 4111.43,-77.84 4110.51,-70.91"/>
</g>
<!-- Node42&#45;&gt;Node55 -->
<g id="edge49" class="edge">
<title>Node42&#45;&gt;Node55</title>
<path fill="none" stroke="midnightblue" d="M4111.38,-76.9C4227.05,-67.09 4492.6,-43.98 4582.5,-31 4593.79,-29.37 4605.96,-27.2 4617.14,-25.03"/>
<polygon fill="midnightblue" stroke="midnightblue" points="4111,-73.42 4101.33,-77.75 4111.59,-80.39 4111,-73.42"/>
</g>
<!-- Node42&#45;&gt;Node56 -->
<g id="edge50" class="edge">
<title>Node42&#45;&gt;Node56</title>
<path fill="none" stroke="midnightblue" d="M4111.64,-78.05C4250.47,-69.25 4611.85,-45.65 4731.5,-31 4744.43,-29.42 4758.39,-27.24 4771.18,-25.05"/>
<polygon fill="midnightblue" stroke="midnightblue" points="4111.01,-74.58 4101.25,-78.71 4111.46,-81.57 4111.01,-74.58"/>
</g>
<!-- Node42&#45;&gt;Node57 -->
<g id="edge51" class="edge">
<title>Node42&#45;&gt;Node57</title>
<path fill="none" stroke="midnightblue" d="M4111.31,-78.39C4292.25,-68.11 4861.3,-35.58 4900.5,-31 4913.43,-29.49 4927.4,-27.28 4940.13,-25.03"/>
<polygon fill="midnightblue" stroke="midnightblue" points="4111,-74.9 4101.22,-78.97 4111.4,-81.89 4111,-74.9"/>
</g>
<!-- Node42&#45;&gt;Node58 -->
<g id="edge52" class="edge">
<title>Node42&#45;&gt;Node58</title>
<path fill="none" stroke="midnightblue" d="M4111.66,-78.33C4164.68,-75.31 4247.06,-70.7 4318.5,-67 4650.88,-49.8 4735.56,-66.42 5066.5,-31 5069.7,-30.66 5072.96,-30.27 5076.24,-29.86"/>
<polygon fill="midnightblue" stroke="midnightblue" points="4111.25,-74.85 4101.46,-78.91 4111.65,-81.84 4111.25,-74.85"/>
</g>
</g>
</svg>
