<?xml version="1.0" encoding="UTF-8" standalone="no"?>
<!DOCTYPE svg PUBLIC "-//W3C//DTD SVG 1.1//EN"
 "http://www.w3.org/Graphics/SVG/1.1/DTD/svg11.dtd">
<!-- Generated by graphviz version 2.43.0 (0)
 -->
<!-- Title: sources/APU/IPL/IPL.cpp Pages: 1 -->
<svg width="778pt" height="263pt"
 viewBox="0.00 0.00 777.50 263.00" xmlns="http://www.w3.org/2000/svg" xmlns:xlink="http://www.w3.org/1999/xlink">
<g id="graph0" class="graph" transform="scale(1 1) rotate(0) translate(4 259)">
<title>sources/APU/IPL/IPL.cpp</title>
<polygon fill="white" stroke="transparent" points="-4,4 -4,-259 773.5,-259 773.5,4 -4,4"/>
<!-- Node1 -->
<g id="node1" class="node">
<title>Node1</title>
<g id="a_node1"><a xlink:title=" ">
<polygon fill="#bfbfbf" stroke="black" points="354.5,-235.5 354.5,-254.5 486.5,-254.5 486.5,-235.5 354.5,-235.5"/>
<text text-anchor="middle" x="420.5" y="-242.5" font-family="Helvetica,sans-Serif" font-size="10.00">sources/APU/IPL/IPL.cpp</text>
</a>
</g>
</g>
<!-- Node2 -->
<g id="node2" class="node">
<title>Node2</title>
<g id="a_node2"><a xlink:href="IPL_8hpp.html" target="_top" xlink:title=" ">
<polygon fill="white" stroke="black" points="394.5,-174 394.5,-193 446.5,-193 446.5,-174 394.5,-174"/>
<text text-anchor="middle" x="420.5" y="-181" font-family="Helvetica,sans-Serif" font-size="10.00">IPL.hpp</text>
</a>
</g>
</g>
<!-- Node1&#45;&gt;Node2 -->
<g id="edge1" class="edge">
<title>Node1&#45;&gt;Node2</title>
<path fill="none" stroke="midnightblue" d="M420.5,-235.48C420.5,-227.08 420.5,-213.98 420.5,-203.16"/>
<polygon fill="midnightblue" stroke="midnightblue" points="424,-203.01 420.5,-193.01 417,-203.01 424,-203.01"/>
</g>
<!-- Node11 -->
<g id="node11" class="node">
<title>Node11</title>
<g id="a_node11"><a xlink:title=" ">
<polygon fill="white" stroke="#bfbfbf" points="465,-174 465,-193 510,-193 510,-174 465,-174"/>
<text text-anchor="middle" x="487.5" y="-181" font-family="Helvetica,sans-Serif" font-size="10.00">utility</text>
</a>
</g>
</g>
<!-- Node1&#45;&gt;Node11 -->
<g id="edge16" class="edge">
<title>Node1&#45;&gt;Node11</title>
<path fill="none" stroke="midnightblue" d="M430.1,-235.48C440.55,-226.2 457.47,-211.17 470.24,-199.83"/>
<polygon fill="midnightblue" stroke="midnightblue" points="472.77,-202.27 477.92,-193.01 468.12,-197.03 472.77,-202.27"/>
</g>
<!-- Node12 -->
<g id="node12" class="node">
<title>Node12</title>
<g id="a_node12"><a xlink:href="InvalidAddress_8hpp.html" target="_top" xlink:title=" ">
<polygon fill="white" stroke="black" points="165.5,-168.5 165.5,-198.5 289.5,-198.5 289.5,-168.5 165.5,-168.5"/>
<text text-anchor="start" x="173.5" y="-186.5" font-family="Helvetica,sans-Serif" font-size="10.00">../../Exceptions/Invalid</text>
<text text-anchor="middle" x="227.5" y="-175.5" font-family="Helvetica,sans-Serif" font-size="10.00">Address.hpp</text>
</a>
</g>
</g>
<!-- Node1&#45;&gt;Node12 -->
<g id="edge17" class="edge">
<title>Node1&#45;&gt;Node12</title>
<path fill="none" stroke="midnightblue" d="M392.85,-235.48C364.27,-226.66 318.87,-212.67 282.87,-201.57"/>
<polygon fill="midnightblue" stroke="midnightblue" points="283.57,-198.12 272.99,-198.52 281.51,-204.81 283.57,-198.12"/>
</g>
<!-- Node3 -->
<g id="node3" class="node">
<title>Node3</title>
<g id="a_node3"><a xlink:href="AMemory_8hpp.html" target="_top" xlink:title=" ">
<polygon fill="white" stroke="black" points="435,-112.5 435,-131.5 580,-131.5 580,-112.5 435,-112.5"/>
<text text-anchor="middle" x="507.5" y="-119.5" font-family="Helvetica,sans-Serif" font-size="10.00">../../Memory/AMemory.hpp</text>
</a>
</g>
</g>
<!-- Node2&#45;&gt;Node3 -->
<g id="edge2" class="edge">
<title>Node2&#45;&gt;Node3</title>
<path fill="none" stroke="midnightblue" d="M432.96,-173.98C446.92,-164.43 469.76,-148.81 486.49,-137.37"/>
<polygon fill="midnightblue" stroke="midnightblue" points="488.78,-140.04 495.06,-131.51 484.83,-134.27 488.78,-140.04"/>
</g>
<!-- Node4 -->
<g id="node4" class="node">
<title>Node4</title>
<g id="a_node4"><a xlink:title=" ">
<polygon fill="white" stroke="#bfbfbf" points="719.5,-0.5 719.5,-19.5 769.5,-19.5 769.5,-0.5 719.5,-0.5"/>
<text text-anchor="middle" x="744.5" y="-7.5" font-family="Helvetica,sans-Serif" font-size="10.00">cstdint</text>
</a>
</g>
</g>
<!-- Node3&#45;&gt;Node4 -->
<g id="edge3" class="edge">
<title>Node3&#45;&gt;Node4</title>
<path fill="none" stroke="midnightblue" d="M533.7,-112.43C558.32,-104.09 595.99,-90.56 627.5,-76 661.24,-60.41 698.5,-38.92 721.7,-25"/>
<polygon fill="midnightblue" stroke="midnightblue" points="723.7,-27.88 730.45,-19.71 720.08,-21.89 723.7,-27.88"/>
</g>
<!-- Node5 -->
<g id="node5" class="node">
<title>Node5</title>
<g id="a_node5"><a xlink:title=" ">
<polygon fill="white" stroke="#bfbfbf" points="578,-0.5 578,-19.5 625,-19.5 625,-0.5 578,-0.5"/>
<text text-anchor="middle" x="601.5" y="-7.5" font-family="Helvetica,sans-Serif" font-size="10.00">vector</text>
</a>
</g>
</g>
<!-- Node3&#45;&gt;Node5 -->
<g id="edge4" class="edge">
<title>Node3&#45;&gt;Node5</title>
<path fill="none" stroke="midnightblue" d="M530.68,-112.48C547.38,-105.22 569.23,-93.19 582.5,-76 592.82,-62.63 597.54,-43.81 599.69,-29.86"/>
<polygon fill="midnightblue" stroke="midnightblue" points="603.17,-30.26 600.93,-19.91 596.22,-29.4 603.17,-30.26"/>
</g>
<!-- Node6 -->
<g id="node6" class="node">
<title>Node6</title>
<g id="a_node6"><a xlink:title=" ">
<polygon fill="white" stroke="#bfbfbf" points="643.5,-0.5 643.5,-19.5 701.5,-19.5 701.5,-0.5 643.5,-0.5"/>
<text text-anchor="middle" x="672.5" y="-7.5" font-family="Helvetica,sans-Serif" font-size="10.00">memory</text>
</a>
</g>
</g>
<!-- Node3&#45;&gt;Node6 -->
<g id="edge5" class="edge">
<title>Node3&#45;&gt;Node6</title>
<path fill="none" stroke="midnightblue" d="M530.15,-112.37C549.84,-104.37 578.71,-91.39 601.5,-76 622.57,-61.77 643.67,-41.5 657.33,-27.39"/>
<polygon fill="midnightblue" stroke="midnightblue" points="660.1,-29.55 664.45,-19.89 655.03,-24.73 660.1,-29.55"/>
</g>
<!-- Node7 -->
<g id="node7" class="node">
<title>Node7</title>
<g id="a_node7"><a xlink:title=" ">
<polygon fill="white" stroke="#bfbfbf" points="223.5,-0.5 223.5,-19.5 267.5,-19.5 267.5,-0.5 223.5,-0.5"/>
<text text-anchor="middle" x="245.5" y="-7.5" font-family="Helvetica,sans-Serif" font-size="10.00">string</text>
</a>
</g>
</g>
<!-- Node3&#45;&gt;Node7 -->
<g id="edge6" class="edge">
<title>Node3&#45;&gt;Node7</title>
<path fill="none" stroke="midnightblue" d="M486.94,-112.37C440.83,-93.01 329.02,-46.06 275.29,-23.51"/>
<polygon fill="midnightblue" stroke="midnightblue" points="276.54,-20.24 265.96,-19.59 273.83,-26.69 276.54,-20.24"/>
</g>
<!-- Node8 -->
<g id="node8" class="node">
<title>Node8</title>
<g id="a_node8"><a xlink:href="Int24_8hpp.html" target="_top" xlink:title=" ">
<polygon fill="white" stroke="black" points="285.5,-0.5 285.5,-19.5 395.5,-19.5 395.5,-0.5 285.5,-0.5"/>
<text text-anchor="middle" x="340.5" y="-7.5" font-family="Helvetica,sans-Serif" font-size="10.00">../Models/Int24.hpp</text>
</a>
</g>
</g>
<!-- Node3&#45;&gt;Node8 -->
<g id="edge7" class="edge">
<title>Node3&#45;&gt;Node8</title>
<path fill="none" stroke="midnightblue" d="M494.4,-112.37C465.74,-93.49 397.26,-48.38 362.11,-25.24"/>
<polygon fill="midnightblue" stroke="midnightblue" points="363.82,-22.17 353.54,-19.59 359.97,-28.02 363.82,-22.17"/>
</g>
<!-- Node9 -->
<g id="node9" class="node">
<title>Node9</title>
<g id="a_node9"><a xlink:href="Components_8hpp.html" target="_top" xlink:title=" ">
<polygon fill="white" stroke="black" points="413.5,-0.5 413.5,-19.5 559.5,-19.5 559.5,-0.5 413.5,-0.5"/>
<text text-anchor="middle" x="486.5" y="-7.5" font-family="Helvetica,sans-Serif" font-size="10.00">../Models/Components.hpp</text>
</a>
</g>
</g>
<!-- Node3&#45;&gt;Node9 -->
<g id="edge8" class="edge">
<title>Node3&#45;&gt;Node9</title>
<path fill="none" stroke="midnightblue" d="M501.4,-112.19C495.75,-103.46 487.74,-89.48 484.5,-76 480.82,-60.72 481.74,-42.83 483.33,-29.7"/>
<polygon fill="midnightblue" stroke="midnightblue" points="486.83,-29.96 484.82,-19.56 479.91,-28.95 486.83,-29.96"/>
</g>
<!-- Node10 -->
<g id="node10" class="node">
<title>Node10</title>
<g id="a_node10"><a xlink:href="IMemory_8hpp.html" target="_top" xlink:title=" ">
<polygon fill="white" stroke="black" points="493.5,-56.5 493.5,-75.5 573.5,-75.5 573.5,-56.5 493.5,-56.5"/>
<text text-anchor="middle" x="533.5" y="-63.5" font-family="Helvetica,sans-Serif" font-size="10.00">IMemory.hpp</text>
</a>
</g>
</g>
<!-- Node3&#45;&gt;Node10 -->
<g id="edge9" class="edge">
<title>Node3&#45;&gt;Node10</title>
<path fill="none" stroke="midnightblue" d="M511.79,-112.08C515.35,-104.69 520.52,-93.95 524.92,-84.81"/>
<polygon fill="midnightblue" stroke="midnightblue" points="528.1,-86.28 529.29,-75.75 521.79,-83.24 528.1,-86.28"/>
</g>
<!-- Node10&#45;&gt;Node4 -->
<g id="edge10" class="edge">
<title>Node10&#45;&gt;Node4</title>
<path fill="none" stroke="midnightblue" d="M567.46,-56.47C601.09,-48 654.32,-34.54 709.33,-20.29"/>
<polygon fill="midnightblue" stroke="midnightblue" points="710.46,-23.61 719.26,-17.71 708.7,-16.83 710.46,-23.61"/>
</g>
<!-- Node10&#45;&gt;Node5 -->
<g id="edge11" class="edge">
<title>Node10&#45;&gt;Node5</title>
<path fill="none" stroke="midnightblue" d="M544.43,-56.32C554.67,-48.18 570.22,-35.84 582.5,-26.09"/>
<polygon fill="midnightblue" stroke="midnightblue" points="584.72,-28.79 590.38,-19.83 580.37,-23.31 584.72,-28.79"/>
</g>
<!-- Node10&#45;&gt;Node6 -->
<g id="edge12" class="edge">
<title>Node10&#45;&gt;Node6</title>
<path fill="none" stroke="midnightblue" d="M555.52,-56.44C578.6,-47.48 615.06,-33.31 641.14,-23.18"/>
<polygon fill="midnightblue" stroke="midnightblue" points="642.52,-26.4 650.58,-19.52 639.99,-19.88 642.52,-26.4"/>
</g>
<!-- Node10&#45;&gt;Node7 -->
<g id="edge13" class="edge">
<title>Node10&#45;&gt;Node7</title>
<path fill="none" stroke="midnightblue" d="M493.16,-59.33C444.31,-52.16 359.36,-38.71 277.71,-20.08"/>
<polygon fill="midnightblue" stroke="midnightblue" points="278.31,-16.62 267.77,-17.78 276.73,-23.44 278.31,-16.62"/>
</g>
<!-- Node10&#45;&gt;Node8 -->
<g id="edge14" class="edge">
<title>Node10&#45;&gt;Node8</title>
<path fill="none" stroke="midnightblue" d="M502.92,-56.44C469.89,-47.2 417.11,-32.44 380.73,-22.26"/>
<polygon fill="midnightblue" stroke="midnightblue" points="381.51,-18.84 370.94,-19.52 379.63,-25.58 381.51,-18.84"/>
</g>
<!-- Node10&#45;&gt;Node9 -->
<g id="edge15" class="edge">
<title>Node10&#45;&gt;Node9</title>
<path fill="none" stroke="midnightblue" d="M525.74,-56.08C518.96,-48.3 508.96,-36.8 500.74,-27.37"/>
<polygon fill="midnightblue" stroke="midnightblue" points="503.32,-25 494.12,-19.75 498.04,-29.59 503.32,-25"/>
</g>
<!-- Node12&#45;&gt;Node7 -->
<g id="edge19" class="edge">
<title>Node12&#45;&gt;Node7</title>
<path fill="none" stroke="midnightblue" d="M236.46,-168.1C242,-158.33 248.6,-144.88 251.5,-132 259.53,-96.4 253.92,-53.47 249.47,-29.5"/>
<polygon fill="midnightblue" stroke="midnightblue" points="252.89,-28.77 247.5,-19.64 246.03,-30.14 252.89,-28.77"/>
</g>
<!-- Node13 -->
<g id="node13" class="node">
<title>Node13</title>
<g id="a_node13"><a xlink:title=" ">
<polygon fill="white" stroke="#bfbfbf" points="300,-112.5 300,-131.5 365,-131.5 365,-112.5 300,-112.5"/>
<text text-anchor="middle" x="332.5" y="-119.5" font-family="Helvetica,sans-Serif" font-size="10.00">exception</text>
</a>
</g>
</g>
<!-- Node12&#45;&gt;Node13 -->
<g id="edge18" class="edge">
<title>Node12&#45;&gt;Node13</title>
<path fill="none" stroke="midnightblue" d="M252.38,-168.4C269.21,-158.86 291.34,-146.32 308.07,-136.84"/>
<polygon fill="midnightblue" stroke="midnightblue" points="310.25,-139.63 317.22,-131.66 306.8,-133.54 310.25,-139.63"/>
</g>
<!-- Node14 -->
<g id="node14" class="node">
<title>Node14</title>
<g id="a_node14"><a xlink:title=" ">
<polygon fill="white" stroke="#bfbfbf" points="0,-112.5 0,-131.5 31,-131.5 31,-112.5 0,-112.5"/>
<text text-anchor="middle" x="15.5" y="-119.5" font-family="Helvetica,sans-Serif" font-size="10.00">ios</text>
</a>
</g>
</g>
<!-- Node12&#45;&gt;Node14 -->
<g id="edge20" class="edge">
<title>Node12&#45;&gt;Node14</title>
<path fill="none" stroke="midnightblue" d="M170.69,-168.45C135.7,-159.49 89.77,-147.21 40.59,-131.83"/>
<polygon fill="midnightblue" stroke="midnightblue" points="41.63,-128.49 31.04,-128.82 39.52,-135.16 41.63,-128.49"/>
</g>
<!-- Node15 -->
<g id="node15" class="node">
<title>Node15</title>
<g id="a_node15"><a xlink:title=" ">
<polygon fill="white" stroke="#bfbfbf" points="49.5,-112.5 49.5,-131.5 105.5,-131.5 105.5,-112.5 49.5,-112.5"/>
<text text-anchor="middle" x="77.5" y="-119.5" font-family="Helvetica,sans-Serif" font-size="10.00">sstream</text>
</a>
</g>
</g>
<!-- Node12&#45;&gt;Node15 -->
<g id="edge21" class="edge">
<title>Node12&#45;&gt;Node15</title>
<path fill="none" stroke="midnightblue" d="M191.95,-168.4C166.67,-158.37 133.03,-145.03 108.77,-135.4"/>
<polygon fill="midnightblue" stroke="midnightblue" points="109.91,-132.09 99.33,-131.66 107.33,-138.6 109.91,-132.09"/>
</g>
<!-- Node16 -->
<g id="node16" class="node">
<title>Node16</title>
<g id="a_node16"><a xlink:href="DebuggableError_8hpp.html" target="_top" xlink:title=" ">
<polygon fill="white" stroke="black" points="124,-112.5 124,-131.5 243,-131.5 243,-112.5 124,-112.5"/>
<text text-anchor="middle" x="183.5" y="-119.5" font-family="Helvetica,sans-Serif" font-size="10.00">DebuggableError.hpp</text>
</a>
</g>
</g>
<!-- Node12&#45;&gt;Node16 -->
<g id="edge22" class="edge">
<title>Node12&#45;&gt;Node16</title>
<path fill="none" stroke="midnightblue" d="M217.07,-168.4C210.74,-159.84 202.63,-148.87 195.97,-139.86"/>
<polygon fill="midnightblue" stroke="midnightblue" points="198.66,-137.62 189.9,-131.66 193.03,-141.78 198.66,-137.62"/>
</g>
<!-- Node17 -->
<g id="node17" class="node">
<title>Node17</title>
<g id="a_node17"><a xlink:title=" ">
<polygon fill="white" stroke="#bfbfbf" points="136,-56.5 136,-75.5 231,-75.5 231,-56.5 136,-56.5"/>
<text text-anchor="middle" x="183.5" y="-63.5" font-family="Helvetica,sans-Serif" font-size="10.00">bits/exception.h</text>
</a>
</g>
</g>
<!-- Node16&#45;&gt;Node17 -->
<g id="edge23" class="edge">
<title>Node16&#45;&gt;Node17</title>
<path fill="none" stroke="midnightblue" d="M183.5,-112.08C183.5,-105.01 183.5,-94.86 183.5,-85.99"/>
<polygon fill="midnightblue" stroke="midnightblue" points="187,-85.75 183.5,-75.75 180,-85.75 187,-85.75"/>
</g>
</g>
</svg>
