<?xml version="1.0" encoding="UTF-8" standalone="no"?>
<!DOCTYPE svg PUBLIC "-//W3C//DTD SVG 1.1//EN"
 "http://www.w3.org/Graphics/SVG/1.1/DTD/svg11.dtd">
<!-- Generated by graphviz version 2.43.0 (0)
 -->
<!-- Title: sources/CPU/Instructions/MemoryInstructions.cpp Pages: 1 -->
<svg width="774pt" height="375pt"
 viewBox="0.00 0.00 774.20 375.00" xmlns="http://www.w3.org/2000/svg" xmlns:xlink="http://www.w3.org/1999/xlink">
<g id="graph0" class="graph" transform="scale(1 1) rotate(0) translate(4 371)">
<title>sources/CPU/Instructions/MemoryInstructions.cpp</title>
<polygon fill="white" stroke="transparent" points="-4,4 -4,-371 770.2,-371 770.2,4 -4,4"/>
<!-- Node1 -->
<g id="node1" class="node">
<title>Node1</title>
<g id="a_node1"><a xlink:title=" ">
<polygon fill="#bfbfbf" stroke="black" points="255.18,-336.5 255.18,-366.5 392.18,-366.5 392.18,-336.5 255.18,-336.5"/>
<text text-anchor="start" x="263.18" y="-354.5" font-family="Helvetica,sans-Serif" font-size="10.00">sources/CPU/Instructions</text>
<text text-anchor="middle" x="323.68" y="-343.5" font-family="Helvetica,sans-Serif" font-size="10.00">/MemoryInstructions.cpp</text>
</a>
</g>
</g>
<!-- Node2 -->
<g id="node2" class="node">
<title>Node2</title>
<g id="a_node2"><a xlink:href="CPU_8hpp.html" target="_top" xlink:title=" ">
<polygon fill="white" stroke="black" points="290.18,-280.5 290.18,-299.5 357.18,-299.5 357.18,-280.5 290.18,-280.5"/>
<text text-anchor="middle" x="323.68" y="-287.5" font-family="Helvetica,sans-Serif" font-size="10.00">../CPU.hpp</text>
</a>
</g>
</g>
<!-- Node1&#45;&gt;Node2 -->
<g id="edge1" class="edge">
<title>Node1&#45;&gt;Node2</title>
<path fill="none" stroke="midnightblue" d="M323.68,-336.4C323.68,-328.47 323.68,-318.46 323.68,-309.86"/>
<polygon fill="midnightblue" stroke="midnightblue" points="327.18,-309.66 323.68,-299.66 320.18,-309.66 327.18,-309.66"/>
</g>
<!-- Node3 -->
<g id="node3" class="node">
<title>Node3</title>
<g id="a_node3"><a xlink:href="AMemory_8hpp.html" target="_top" xlink:title=" ">
<polygon fill="white" stroke="black" points="131.68,-112.5 131.68,-131.5 267.68,-131.5 267.68,-112.5 131.68,-112.5"/>
<text text-anchor="middle" x="199.68" y="-119.5" font-family="Helvetica,sans-Serif" font-size="10.00">../Memory/AMemory.hpp</text>
</a>
</g>
</g>
<!-- Node2&#45;&gt;Node3 -->
<g id="edge2" class="edge">
<title>Node2&#45;&gt;Node3</title>
<path fill="none" stroke="midnightblue" d="M317.01,-280.08C297.15,-253.49 238.17,-174.54 212.2,-139.76"/>
<polygon fill="midnightblue" stroke="midnightblue" points="214.86,-137.49 206.08,-131.57 209.26,-141.67 214.86,-137.49"/>
</g>
<!-- Node8 -->
<g id="node8" class="node">
<title>Node8</title>
<g id="a_node8"><a xlink:href="Int24_8hpp.html" target="_top" xlink:title=" ">
<polygon fill="white" stroke="black" points="546.68,-0.5 546.68,-19.5 656.68,-19.5 656.68,-0.5 546.68,-0.5"/>
<text text-anchor="middle" x="601.68" y="-7.5" font-family="Helvetica,sans-Serif" font-size="10.00">../Models/Int24.hpp</text>
</a>
</g>
</g>
<!-- Node2&#45;&gt;Node8 -->
<g id="edge21" class="edge">
<title>Node2&#45;&gt;Node8</title>
<path fill="none" stroke="midnightblue" d="M357.26,-287.84C460.41,-283.39 765.68,-263.12 765.68,-179 765.68,-179 765.68,-179 765.68,-121 765.68,-90.9 767.78,-77.46 746.68,-56 725.69,-34.66 694.79,-23.4 666.9,-17.47"/>
<polygon fill="midnightblue" stroke="midnightblue" points="667.27,-13.98 656.79,-15.52 665.94,-20.85 667.27,-13.98"/>
</g>
<!-- Node11 -->
<g id="node11" class="node">
<title>Node11</title>
<g id="a_node11"><a xlink:href="MemoryBus_8hpp.html" target="_top" xlink:title=" ">
<polygon fill="white" stroke="black" points="29.18,-168.5 29.18,-187.5 178.18,-187.5 178.18,-168.5 29.18,-168.5"/>
<text text-anchor="middle" x="103.68" y="-175.5" font-family="Helvetica,sans-Serif" font-size="10.00">../Memory/MemoryBus.hpp</text>
</a>
</g>
</g>
<!-- Node2&#45;&gt;Node11 -->
<g id="edge16" class="edge">
<title>Node2&#45;&gt;Node11</title>
<path fill="none" stroke="midnightblue" d="M297.98,-280.45C274.29,-272.22 238.4,-258.86 208.68,-244 178.11,-228.72 144.89,-207.26 124.18,-193.25"/>
<polygon fill="midnightblue" stroke="midnightblue" points="126.09,-190.31 115.86,-187.56 122.14,-196.09 126.09,-190.31"/>
</g>
<!-- Node12 -->
<g id="node12" class="node">
<title>Node12</title>
<g id="a_node12"><a xlink:href="Cartridge_8hpp.html" target="_top" xlink:title=" ">
<polygon fill="white" stroke="black" points="358.68,-224.5 358.68,-243.5 498.68,-243.5 498.68,-224.5 358.68,-224.5"/>
<text text-anchor="middle" x="428.68" y="-231.5" font-family="Helvetica,sans-Serif" font-size="10.00">../Cartridge/Cartridge.hpp</text>
</a>
</g>
</g>
<!-- Node2&#45;&gt;Node12 -->
<g id="edge22" class="edge">
<title>Node2&#45;&gt;Node12</title>
<path fill="none" stroke="midnightblue" d="M340.55,-280.32C357.38,-271.66 383.48,-258.24 402.91,-248.25"/>
<polygon fill="midnightblue" stroke="midnightblue" points="404.55,-251.34 411.85,-243.65 401.35,-245.12 404.55,-251.34"/>
</g>
<!-- Node16 -->
<g id="node16" class="node">
<title>Node16</title>
<g id="a_node16"><a xlink:href="Instruction_8hpp.html" target="_top" xlink:title=" ">
<polygon fill="white" stroke="black" points="648.18,-56.5 648.18,-75.5 737.18,-75.5 737.18,-56.5 648.18,-56.5"/>
<text text-anchor="middle" x="692.68" y="-63.5" font-family="Helvetica,sans-Serif" font-size="10.00">Instruction.hpp</text>
</a>
</g>
</g>
<!-- Node2&#45;&gt;Node16 -->
<g id="edge32" class="edge">
<title>Node2&#45;&gt;Node16</title>
<path fill="none" stroke="midnightblue" d="M357.44,-284.07C436.94,-271.74 632.34,-237.01 673.68,-188 698.16,-158.97 697.73,-111.56 695.23,-85.54"/>
<polygon fill="midnightblue" stroke="midnightblue" points="698.7,-85.05 694.06,-75.53 691.74,-85.86 698.7,-85.05"/>
</g>
<!-- Node17 -->
<g id="node17" class="node">
<title>Node17</title>
<g id="a_node17"><a xlink:href="DMA_8hpp.html" target="_top" xlink:title=" ">
<polygon fill="white" stroke="black" points="60.18,-224.5 60.18,-243.5 147.18,-243.5 147.18,-224.5 60.18,-224.5"/>
<text text-anchor="middle" x="103.68" y="-231.5" font-family="Helvetica,sans-Serif" font-size="10.00">DMA/DMA.hpp</text>
</a>
</g>
</g>
<!-- Node2&#45;&gt;Node17 -->
<g id="edge35" class="edge">
<title>Node2&#45;&gt;Node17</title>
<path fill="none" stroke="midnightblue" d="M289.78,-280.68C251.81,-271.36 190.11,-256.22 148.26,-245.94"/>
<polygon fill="midnightblue" stroke="midnightblue" points="148.88,-242.49 138.33,-243.51 147.21,-249.29 148.88,-242.49"/>
</g>
<!-- Node4 -->
<g id="node4" class="node">
<title>Node4</title>
<g id="a_node4"><a xlink:title=" ">
<polygon fill="white" stroke="#bfbfbf" points="112.68,-0.5 112.68,-19.5 162.68,-19.5 162.68,-0.5 112.68,-0.5"/>
<text text-anchor="middle" x="137.68" y="-7.5" font-family="Helvetica,sans-Serif" font-size="10.00">cstdint</text>
</a>
</g>
</g>
<!-- Node3&#45;&gt;Node4 -->
<g id="edge3" class="edge">
<title>Node3&#45;&gt;Node4</title>
<path fill="none" stroke="midnightblue" d="M194.81,-112.37C184.62,-94.3 160.88,-52.18 147.43,-28.31"/>
<polygon fill="midnightblue" stroke="midnightblue" points="150.48,-26.58 142.52,-19.59 144.38,-30.02 150.48,-26.58"/>
</g>
<!-- Node5 -->
<g id="node5" class="node">
<title>Node5</title>
<g id="a_node5"><a xlink:title=" ">
<polygon fill="white" stroke="#bfbfbf" points="194.18,-0.5 194.18,-19.5 241.18,-19.5 241.18,-0.5 194.18,-0.5"/>
<text text-anchor="middle" x="217.68" y="-7.5" font-family="Helvetica,sans-Serif" font-size="10.00">vector</text>
</a>
</g>
</g>
<!-- Node3&#45;&gt;Node5 -->
<g id="edge4" class="edge">
<title>Node3&#45;&gt;Node5</title>
<path fill="none" stroke="midnightblue" d="M201.09,-112.37C203.99,-94.62 210.69,-53.67 214.63,-29.6"/>
<polygon fill="midnightblue" stroke="midnightblue" points="218.11,-30.03 216.27,-19.59 211.2,-28.89 218.11,-30.03"/>
</g>
<!-- Node6 -->
<g id="node6" class="node">
<title>Node6</title>
<g id="a_node6"><a xlink:title=" ">
<polygon fill="white" stroke="#bfbfbf" points="11.68,-0.5 11.68,-19.5 69.68,-19.5 69.68,-0.5 11.68,-0.5"/>
<text text-anchor="middle" x="40.68" y="-7.5" font-family="Helvetica,sans-Serif" font-size="10.00">memory</text>
</a>
</g>
</g>
<!-- Node3&#45;&gt;Node6 -->
<g id="edge5" class="edge">
<title>Node3&#45;&gt;Node6</title>
<path fill="none" stroke="midnightblue" d="M187.2,-112.37C160.03,-93.57 95.27,-48.77 61.68,-25.53"/>
<polygon fill="midnightblue" stroke="midnightblue" points="63.31,-22.4 53.09,-19.59 59.33,-28.16 63.31,-22.4"/>
</g>
<!-- Node7 -->
<g id="node7" class="node">
<title>Node7</title>
<g id="a_node7"><a xlink:title=" ">
<polygon fill="white" stroke="#bfbfbf" points="475.68,-0.5 475.68,-19.5 519.68,-19.5 519.68,-0.5 475.68,-0.5"/>
<text text-anchor="middle" x="497.68" y="-7.5" font-family="Helvetica,sans-Serif" font-size="10.00">string</text>
</a>
</g>
</g>
<!-- Node3&#45;&gt;Node7 -->
<g id="edge6" class="edge">
<title>Node3&#45;&gt;Node7</title>
<path fill="none" stroke="midnightblue" d="M233.53,-112.46C264.82,-104.23 312.42,-90.87 352.68,-76 395.04,-60.36 442.51,-38.14 471.24,-24.16"/>
<polygon fill="midnightblue" stroke="midnightblue" points="473.14,-27.12 480.58,-19.58 470.06,-20.84 473.14,-27.12"/>
</g>
<!-- Node3&#45;&gt;Node8 -->
<g id="edge7" class="edge">
<title>Node3&#45;&gt;Node8</title>
<path fill="none" stroke="midnightblue" d="M239.38,-112.47C278.15,-103.94 338.73,-90.1 390.68,-76 452.87,-59.11 524.39,-36.37 566.15,-22.75"/>
<polygon fill="midnightblue" stroke="midnightblue" points="567.44,-26.01 575.85,-19.57 565.26,-19.36 567.44,-26.01"/>
</g>
<!-- Node9 -->
<g id="node9" class="node">
<title>Node9</title>
<g id="a_node9"><a xlink:href="Components_8hpp.html" target="_top" xlink:title=" ">
<polygon fill="white" stroke="black" points="270.68,-0.5 270.68,-19.5 416.68,-19.5 416.68,-0.5 270.68,-0.5"/>
<text text-anchor="middle" x="343.68" y="-7.5" font-family="Helvetica,sans-Serif" font-size="10.00">../Models/Components.hpp</text>
</a>
</g>
</g>
<!-- Node3&#45;&gt;Node9 -->
<g id="edge8" class="edge">
<title>Node3&#45;&gt;Node9</title>
<path fill="none" stroke="midnightblue" d="M267.87,-113.33C292.41,-107.11 318.1,-95.95 334.68,-76 345.25,-63.28 346.72,-44.08 346.02,-29.84"/>
<polygon fill="midnightblue" stroke="midnightblue" points="349.49,-29.36 345.12,-19.71 342.52,-29.98 349.49,-29.36"/>
</g>
<!-- Node10 -->
<g id="node10" class="node">
<title>Node10</title>
<g id="a_node10"><a xlink:href="IMemory_8hpp.html" target="_top" xlink:title=" ">
<polygon fill="white" stroke="black" points="245.68,-56.5 245.68,-75.5 325.68,-75.5 325.68,-56.5 245.68,-56.5"/>
<text text-anchor="middle" x="285.68" y="-63.5" font-family="Helvetica,sans-Serif" font-size="10.00">IMemory.hpp</text>
</a>
</g>
</g>
<!-- Node3&#45;&gt;Node10 -->
<g id="edge9" class="edge">
<title>Node3&#45;&gt;Node10</title>
<path fill="none" stroke="midnightblue" d="M213.49,-112.32C226.91,-103.9 247.5,-90.97 263.26,-81.07"/>
<polygon fill="midnightblue" stroke="midnightblue" points="265.28,-83.94 271.89,-75.65 261.56,-78.01 265.28,-83.94"/>
</g>
<!-- Node10&#45;&gt;Node4 -->
<g id="edge10" class="edge">
<title>Node10&#45;&gt;Node4</title>
<path fill="none" stroke="midnightblue" d="M262.22,-56.44C237.54,-47.44 198.49,-33.19 170.7,-23.05"/>
<polygon fill="midnightblue" stroke="midnightblue" points="171.61,-19.66 161.02,-19.52 169.21,-26.23 171.61,-19.66"/>
</g>
<!-- Node10&#45;&gt;Node5 -->
<g id="edge11" class="edge">
<title>Node10&#45;&gt;Node5</title>
<path fill="none" stroke="midnightblue" d="M274.75,-56.32C264.5,-48.18 248.95,-35.84 236.67,-26.09"/>
<polygon fill="midnightblue" stroke="midnightblue" points="238.81,-23.31 228.8,-19.83 234.45,-28.79 238.81,-23.31"/>
</g>
<!-- Node10&#45;&gt;Node6 -->
<g id="edge12" class="edge">
<title>Node10&#45;&gt;Node6</title>
<path fill="none" stroke="midnightblue" d="M246.85,-56.44C201.07,-46.35 125.41,-29.68 79.58,-19.58"/>
<polygon fill="midnightblue" stroke="midnightblue" points="80.24,-16.14 69.72,-17.4 78.74,-22.97 80.24,-16.14"/>
</g>
<!-- Node10&#45;&gt;Node7 -->
<g id="edge13" class="edge">
<title>Node10&#45;&gt;Node7</title>
<path fill="none" stroke="midnightblue" d="M319.27,-56.44C359.46,-46.21 426.25,-29.19 465.71,-19.14"/>
<polygon fill="midnightblue" stroke="midnightblue" points="466.77,-22.48 475.59,-16.62 465.04,-15.7 466.77,-22.48"/>
</g>
<!-- Node10&#45;&gt;Node8 -->
<g id="edge14" class="edge">
<title>Node10&#45;&gt;Node8</title>
<path fill="none" stroke="midnightblue" d="M325.7,-58.16C380.21,-48.85 478.25,-32.09 541.6,-21.27"/>
<polygon fill="midnightblue" stroke="midnightblue" points="542.58,-24.65 551.85,-19.51 541.4,-17.75 542.58,-24.65"/>
</g>
<!-- Node10&#45;&gt;Node9 -->
<g id="edge15" class="edge">
<title>Node10&#45;&gt;Node9</title>
<path fill="none" stroke="midnightblue" d="M294.99,-56.32C303.57,-48.34 316.49,-36.31 326.86,-26.65"/>
<polygon fill="midnightblue" stroke="midnightblue" points="329.25,-29.21 334.19,-19.83 324.48,-24.09 329.25,-29.21"/>
</g>
<!-- Node11&#45;&gt;Node3 -->
<g id="edge20" class="edge">
<title>Node11&#45;&gt;Node3</title>
<path fill="none" stroke="midnightblue" d="M119.1,-168.32C134.21,-159.82 157.49,-146.73 175.15,-136.8"/>
<polygon fill="midnightblue" stroke="midnightblue" points="177.29,-139.61 184.29,-131.65 173.86,-133.51 177.29,-139.61"/>
</g>
<!-- Node11&#45;&gt;Node4 -->
<g id="edge17" class="edge">
<title>Node11&#45;&gt;Node4</title>
<path fill="none" stroke="midnightblue" d="M99.8,-168.35C91.23,-147.87 72.69,-95.2 89.68,-56 94.94,-43.84 105.29,-33.46 115.04,-25.74"/>
<polygon fill="midnightblue" stroke="midnightblue" points="117.32,-28.41 123.31,-19.67 113.17,-22.77 117.32,-28.41"/>
</g>
<!-- Node11&#45;&gt;Node5 -->
<g id="edge18" class="edge">
<title>Node11&#45;&gt;Node5</title>
<path fill="none" stroke="midnightblue" d="M104.93,-168.07C107.04,-155.04 112.17,-130.37 122.68,-112 142.83,-76.77 177.65,-44.13 199.07,-25.95"/>
<polygon fill="midnightblue" stroke="midnightblue" points="201.37,-28.59 206.83,-19.51 196.9,-23.21 201.37,-28.59"/>
</g>
<!-- Node11&#45;&gt;Node6 -->
<g id="edge19" class="edge">
<title>Node11&#45;&gt;Node6</title>
<path fill="none" stroke="midnightblue" d="M98.68,-168.23C93.72,-159.29 86.09,-144.95 80.68,-132 65.87,-96.58 52.76,-53.58 45.85,-29.56"/>
<polygon fill="midnightblue" stroke="midnightblue" points="49.14,-28.34 43.05,-19.67 42.4,-30.25 49.14,-28.34"/>
</g>
<!-- Node12&#45;&gt;Node3 -->
<g id="edge24" class="edge">
<title>Node12&#45;&gt;Node3</title>
<path fill="none" stroke="midnightblue" d="M410.71,-224.37C370.66,-205.13 273.89,-158.65 226.6,-135.93"/>
<polygon fill="midnightblue" stroke="midnightblue" points="228.09,-132.77 217.56,-131.59 225.06,-139.08 228.09,-132.77"/>
</g>
<!-- Node12&#45;&gt;Node7 -->
<g id="edge23" class="edge">
<title>Node12&#45;&gt;Node7</title>
<path fill="none" stroke="midnightblue" d="M444.39,-224.4C469.62,-209.52 518.05,-176.26 534.68,-132 546.56,-100.38 546.07,-87.8 534.68,-56 530.73,-45 522.82,-34.77 515.32,-26.85"/>
<polygon fill="midnightblue" stroke="midnightblue" points="517.69,-24.28 508.11,-19.76 512.78,-29.27 517.69,-24.28"/>
</g>
<!-- Node12&#45;&gt;Node8 -->
<g id="edge25" class="edge">
<title>Node12&#45;&gt;Node8</title>
<path fill="none" stroke="midnightblue" d="M498.75,-228.79C558.5,-223.56 637.79,-212.17 657.68,-188 678.21,-163.04 632.2,-68.57 611.31,-28.81"/>
<polygon fill="midnightblue" stroke="midnightblue" points="614.28,-26.93 606.49,-19.75 608.1,-30.22 614.28,-26.93"/>
</g>
<!-- Node13 -->
<g id="node13" class="node">
<title>Node13</title>
<g id="a_node13"><a xlink:href="ARectangleMemory_8hpp.html" target="_top" xlink:title=" ">
<polygon fill="white" stroke="black" points="323.18,-112.5 323.18,-131.5 508.18,-131.5 508.18,-112.5 323.18,-112.5"/>
<text text-anchor="middle" x="415.68" y="-119.5" font-family="Helvetica,sans-Serif" font-size="10.00">../Memory/ARectangleMemory.hpp</text>
</a>
</g>
</g>
<!-- Node12&#45;&gt;Node13 -->
<g id="edge26" class="edge">
<title>Node12&#45;&gt;Node13</title>
<path fill="none" stroke="midnightblue" d="M411.17,-224.46C397.89,-216.92 380.6,-204.53 372.68,-188 363.94,-169.78 380.03,-150.7 394.95,-137.96"/>
<polygon fill="midnightblue" stroke="midnightblue" points="397.32,-140.55 402.96,-131.58 392.96,-135.07 397.32,-140.55"/>
</g>
<!-- Node14 -->
<g id="node14" class="node">
<title>Node14</title>
<g id="a_node14"><a xlink:href="InterruptVectors_8hpp.html" target="_top" xlink:title=" ">
<polygon fill="white" stroke="black" points="532.68,-168.5 532.68,-187.5 648.68,-187.5 648.68,-168.5 532.68,-168.5"/>
<text text-anchor="middle" x="590.68" y="-175.5" font-family="Helvetica,sans-Serif" font-size="10.00">InterruptVectors.hpp</text>
</a>
</g>
</g>
<!-- Node12&#45;&gt;Node14 -->
<g id="edge28" class="edge">
<title>Node12&#45;&gt;Node14</title>
<path fill="none" stroke="midnightblue" d="M454.34,-224.44C481.6,-215.36 524.86,-200.94 555.33,-190.78"/>
<polygon fill="midnightblue" stroke="midnightblue" points="556.75,-194 565.13,-187.52 554.53,-187.36 556.75,-194"/>
</g>
<!-- Node15 -->
<g id="node15" class="node">
<title>Node15</title>
<g id="a_node15"><a xlink:href="Ram_8hpp.html" target="_top" xlink:title=" ">
<polygon fill="white" stroke="black" points="381.18,-168.5 381.18,-187.5 476.18,-187.5 476.18,-168.5 381.18,-168.5"/>
<text text-anchor="middle" x="428.68" y="-175.5" font-family="Helvetica,sans-Serif" font-size="10.00">../Ram/Ram.hpp</text>
</a>
</g>
</g>
<!-- Node12&#45;&gt;Node15 -->
<g id="edge29" class="edge">
<title>Node12&#45;&gt;Node15</title>
<path fill="none" stroke="midnightblue" d="M428.68,-224.08C428.68,-217.01 428.68,-206.86 428.68,-197.99"/>
<polygon fill="midnightblue" stroke="midnightblue" points="432.18,-197.75 428.68,-187.75 425.18,-197.75 432.18,-197.75"/>
</g>
<!-- Node13&#45;&gt;Node10 -->
<g id="edge27" class="edge">
<title>Node13&#45;&gt;Node10</title>
<path fill="none" stroke="midnightblue" d="M395.08,-112.44C373.68,-103.56 339.99,-89.56 315.65,-79.45"/>
<polygon fill="midnightblue" stroke="midnightblue" points="316.76,-76.12 306.18,-75.52 314.07,-82.58 316.76,-76.12"/>
</g>
<!-- Node15&#45;&gt;Node7 -->
<g id="edge31" class="edge">
<title>Node15&#45;&gt;Node7</title>
<path fill="none" stroke="midnightblue" d="M465.38,-168.35C484.51,-161.77 506.25,-150.58 517.68,-132 537.57,-99.64 520.02,-53.61 507.56,-28.69"/>
<polygon fill="midnightblue" stroke="midnightblue" points="510.56,-26.89 502.8,-19.68 504.37,-30.16 510.56,-26.89"/>
</g>
<!-- Node15&#45;&gt;Node13 -->
<g id="edge30" class="edge">
<title>Node15&#45;&gt;Node13</title>
<path fill="none" stroke="midnightblue" d="M426.53,-168.08C424.81,-160.93 422.33,-150.64 420.17,-141.69"/>
<polygon fill="midnightblue" stroke="midnightblue" points="423.53,-140.65 417.78,-131.75 416.72,-142.29 423.53,-140.65"/>
</g>
<!-- Node16&#45;&gt;Node7 -->
<g id="edge33" class="edge">
<title>Node16&#45;&gt;Node7</title>
<path fill="none" stroke="midnightblue" d="M661.78,-56.44C625.65,-46.44 566.16,-29.97 529.6,-19.84"/>
<polygon fill="midnightblue" stroke="midnightblue" points="530.51,-16.46 519.94,-17.16 528.64,-23.21 530.51,-16.46"/>
</g>
<!-- Node16&#45;&gt;Node8 -->
<g id="edge34" class="edge">
<title>Node16&#45;&gt;Node8</title>
<path fill="none" stroke="midnightblue" d="M678.05,-56.32C663.73,-47.82 641.66,-34.73 624.93,-24.8"/>
<polygon fill="midnightblue" stroke="midnightblue" points="626.65,-21.75 616.26,-19.65 623.07,-27.77 626.65,-21.75"/>
</g>
<!-- Node17&#45;&gt;Node4 -->
<g id="edge36" class="edge">
<title>Node17&#45;&gt;Node4</title>
<path fill="none" stroke="midnightblue" d="M70.69,-224.44C52.21,-217.77 30.72,-206.45 19.68,-188 15.11,-180.37 17.48,-176.61 19.68,-168 33.66,-113.07 44.13,-99.33 80.68,-56 90.55,-44.29 103.9,-33.56 115.19,-25.51"/>
<polygon fill="midnightblue" stroke="midnightblue" points="117.44,-28.21 123.7,-19.67 113.48,-22.44 117.44,-28.21"/>
</g>
<!-- Node17&#45;&gt;Node6 -->
<g id="edge37" class="edge">
<title>Node17&#45;&gt;Node6</title>
<path fill="none" stroke="midnightblue" d="M66.57,-224.46C47.23,-217.92 25.25,-206.72 13.68,-188 -17.87,-136.96 13.51,-62.26 30.85,-28.59"/>
<polygon fill="midnightblue" stroke="midnightblue" points="34.07,-30 35.7,-19.54 27.9,-26.7 34.07,-30"/>
</g>
<!-- Node17&#45;&gt;Node8 -->
<g id="edge38" class="edge">
<title>Node17&#45;&gt;Node8</title>
<path fill="none" stroke="midnightblue" d="M120,-224.39C136.81,-215.47 163.73,-201.03 186.68,-188 215.44,-171.67 284.35,-125.23 314.68,-112 366.49,-89.39 383.21,-94.38 436.68,-76 484.7,-59.49 539.33,-37.27 572.12,-23.56"/>
<polygon fill="midnightblue" stroke="midnightblue" points="573.71,-26.69 581.57,-19.59 570.99,-20.23 573.71,-26.69"/>
</g>
<!-- Node17&#45;&gt;Node11 -->
<g id="edge39" class="edge">
<title>Node17&#45;&gt;Node11</title>
<path fill="none" stroke="midnightblue" d="M103.68,-224.08C103.68,-217.01 103.68,-206.86 103.68,-197.99"/>
<polygon fill="midnightblue" stroke="midnightblue" points="107.18,-197.75 103.68,-187.75 100.18,-197.75 107.18,-197.75"/>
</g>
</g>
</svg>
