<?xml version="1.0" encoding="UTF-8" standalone="no"?>
<!DOCTYPE svg PUBLIC "-//W3C//DTD SVG 1.1//EN"
 "http://www.w3.org/Graphics/SVG/1.1/DTD/svg11.dtd">
<!-- Generated by graphviz version 2.43.0 (0)
 -->
<!-- Title: sources/Debugger/MemoryBusDebug.hpp Pages: 1 -->
<svg width="650pt" height="263pt"
 viewBox="0.00 0.00 649.50 263.00" xmlns="http://www.w3.org/2000/svg" xmlns:xlink="http://www.w3.org/1999/xlink">
<g id="graph0" class="graph" transform="scale(1 1) rotate(0) translate(4 259)">
<title>sources/Debugger/MemoryBusDebug.hpp</title>
<polygon fill="white" stroke="transparent" points="-4,4 -4,-259 645.5,-259 645.5,4 -4,4"/>
<!-- Node1 -->
<g id="node1" class="node">
<title>Node1</title>
<g id="a_node1"><a xlink:title=" ">
<polygon fill="#bfbfbf" stroke="black" points="181.5,-224.5 181.5,-254.5 347.5,-254.5 347.5,-224.5 181.5,-224.5"/>
<text text-anchor="start" x="189.5" y="-242.5" font-family="Helvetica,sans-Serif" font-size="10.00">sources/Debugger/MemoryBus</text>
<text text-anchor="middle" x="264.5" y="-231.5" font-family="Helvetica,sans-Serif" font-size="10.00">Debug.hpp</text>
</a>
</g>
</g>
<!-- Node2 -->
<g id="node2" class="node">
<title>Node2</title>
<g id="a_node2"><a xlink:title=" ">
<polygon fill="white" stroke="#bfbfbf" points="0,-112.5 0,-131.5 141,-131.5 141,-112.5 0,-112.5"/>
<text text-anchor="middle" x="70.5" y="-119.5" font-family="Helvetica,sans-Serif" font-size="10.00">QtWidgets/QMainWindow</text>
</a>
</g>
</g>
<!-- Node1&#45;&gt;Node2 -->
<g id="edge1" class="edge">
<title>Node1&#45;&gt;Node2</title>
<path fill="none" stroke="midnightblue" d="M237.99,-224.3C219.72,-214.39 194.95,-200.71 173.5,-188 145.1,-171.18 113.04,-150.7 92.34,-137.29"/>
<polygon fill="midnightblue" stroke="midnightblue" points="93.98,-134.17 83.69,-131.66 90.16,-140.04 93.98,-134.17"/>
</g>
<!-- Node3 -->
<g id="node3" class="node">
<title>Node3</title>
<g id="a_node3"><a xlink:title=" ">
<polygon fill="white" stroke="#bfbfbf" points="183,-168.5 183,-187.5 346,-187.5 346,-168.5 183,-168.5"/>
<text text-anchor="middle" x="264.5" y="-175.5" font-family="Helvetica,sans-Serif" font-size="10.00">QtCore/QSortFilterProxyModel</text>
</a>
</g>
</g>
<!-- Node1&#45;&gt;Node3 -->
<g id="edge2" class="edge">
<title>Node1&#45;&gt;Node3</title>
<path fill="none" stroke="midnightblue" d="M264.5,-224.4C264.5,-216.47 264.5,-206.46 264.5,-197.86"/>
<polygon fill="midnightblue" stroke="midnightblue" points="268,-197.66 264.5,-187.66 261,-197.66 268,-197.66"/>
</g>
<!-- Node4 -->
<g id="node4" class="node">
<title>Node4</title>
<g id="a_node4"><a xlink:href="MemoryBus_8hpp.html" target="_top" xlink:title=" ">
<polygon fill="white" stroke="black" points="364,-168.5 364,-187.5 513,-187.5 513,-168.5 364,-168.5"/>
<text text-anchor="middle" x="438.5" y="-175.5" font-family="Helvetica,sans-Serif" font-size="10.00">../Memory/MemoryBus.hpp</text>
</a>
</g>
</g>
<!-- Node1&#45;&gt;Node4 -->
<g id="edge3" class="edge">
<title>Node1&#45;&gt;Node4</title>
<path fill="none" stroke="midnightblue" d="M305.74,-224.4C335.67,-214.16 375.71,-200.47 403.97,-190.81"/>
<polygon fill="midnightblue" stroke="midnightblue" points="405.11,-194.12 413.44,-187.57 402.84,-187.49 405.11,-194.12"/>
</g>
<!-- Node13 -->
<g id="node13" class="node">
<title>Node13</title>
<g id="a_node13"><a xlink:title=" ">
<polygon fill="white" stroke="#bfbfbf" points="531.5,-168.5 531.5,-187.5 641.5,-187.5 641.5,-168.5 531.5,-168.5"/>
<text text-anchor="middle" x="586.5" y="-175.5" font-family="Helvetica,sans-Serif" font-size="10.00">../../ui/ui_busView.h</text>
</a>
</g>
</g>
<!-- Node1&#45;&gt;Node13 -->
<g id="edge21" class="edge">
<title>Node1&#45;&gt;Node13</title>
<path fill="none" stroke="midnightblue" d="M340.4,-224.47C398.62,-213.72 477.68,-199.11 530.31,-189.38"/>
<polygon fill="midnightblue" stroke="midnightblue" points="531.27,-192.77 540.47,-187.51 530,-185.88 531.27,-192.77"/>
</g>
<!-- Node14 -->
<g id="node14" class="node">
<title>Node14</title>
<g id="a_node14"><a xlink:href="ClosableWindow_8hpp.html" target="_top" xlink:title=" ">
<polygon fill="white" stroke="black" points="8.5,-168.5 8.5,-187.5 126.5,-187.5 126.5,-168.5 8.5,-168.5"/>
<text text-anchor="middle" x="67.5" y="-175.5" font-family="Helvetica,sans-Serif" font-size="10.00">ClosableWindow.hpp</text>
</a>
</g>
</g>
<!-- Node1&#45;&gt;Node14 -->
<g id="edge22" class="edge">
<title>Node1&#45;&gt;Node14</title>
<path fill="none" stroke="midnightblue" d="M217.81,-224.4C183.62,-214.07 137.79,-200.23 105.76,-190.56"/>
<polygon fill="midnightblue" stroke="midnightblue" points="106.46,-187.11 95.88,-187.57 104.44,-193.81 106.46,-187.11"/>
</g>
<!-- Node5 -->
<g id="node5" class="node">
<title>Node5</title>
<g id="a_node5"><a xlink:title=" ">
<polygon fill="white" stroke="#bfbfbf" points="91.5,-0.5 91.5,-19.5 141.5,-19.5 141.5,-0.5 91.5,-0.5"/>
<text text-anchor="middle" x="116.5" y="-7.5" font-family="Helvetica,sans-Serif" font-size="10.00">cstdint</text>
</a>
</g>
</g>
<!-- Node4&#45;&gt;Node5 -->
<g id="edge4" class="edge">
<title>Node4&#45;&gt;Node5</title>
<path fill="none" stroke="midnightblue" d="M419.43,-168.43C382.26,-151.59 297.68,-112.64 228.5,-76 197.04,-59.34 161.64,-38.41 139.21,-24.88"/>
<polygon fill="midnightblue" stroke="midnightblue" points="140.81,-21.75 130.45,-19.56 137.18,-27.74 140.81,-21.75"/>
</g>
<!-- Node6 -->
<g id="node6" class="node">
<title>Node6</title>
<g id="a_node6"><a xlink:title=" ">
<polygon fill="white" stroke="#bfbfbf" points="590,-0.5 590,-19.5 637,-19.5 637,-0.5 590,-0.5"/>
<text text-anchor="middle" x="613.5" y="-7.5" font-family="Helvetica,sans-Serif" font-size="10.00">vector</text>
</a>
</g>
</g>
<!-- Node4&#45;&gt;Node6 -->
<g id="edge5" class="edge">
<title>Node4&#45;&gt;Node6</title>
<path fill="none" stroke="midnightblue" d="M447.91,-168.08C476.29,-141.15 561.3,-60.51 597.21,-26.45"/>
<polygon fill="midnightblue" stroke="midnightblue" points="599.62,-28.99 604.47,-19.57 594.8,-23.91 599.62,-28.99"/>
</g>
<!-- Node7 -->
<g id="node7" class="node">
<title>Node7</title>
<g id="a_node7"><a xlink:title=" ">
<polygon fill="white" stroke="#bfbfbf" points="513.5,-0.5 513.5,-19.5 571.5,-19.5 571.5,-0.5 513.5,-0.5"/>
<text text-anchor="middle" x="542.5" y="-7.5" font-family="Helvetica,sans-Serif" font-size="10.00">memory</text>
</a>
</g>
</g>
<!-- Node4&#45;&gt;Node7 -->
<g id="edge6" class="edge">
<title>Node4&#45;&gt;Node7</title>
<path fill="none" stroke="midnightblue" d="M444.09,-168.08C460.67,-141.61 509.79,-63.21 531.72,-28.21"/>
<polygon fill="midnightblue" stroke="midnightblue" points="534.79,-29.9 537.13,-19.57 528.86,-26.18 534.79,-29.9"/>
</g>
<!-- Node8 -->
<g id="node8" class="node">
<title>Node8</title>
<g id="a_node8"><a xlink:href="AMemory_8hpp.html" target="_top" xlink:title=" ">
<polygon fill="white" stroke="black" points="357,-112.5 357,-131.5 440,-131.5 440,-112.5 357,-112.5"/>
<text text-anchor="middle" x="398.5" y="-119.5" font-family="Helvetica,sans-Serif" font-size="10.00">AMemory.hpp</text>
</a>
</g>
</g>
<!-- Node4&#45;&gt;Node8 -->
<g id="edge7" class="edge">
<title>Node4&#45;&gt;Node8</title>
<path fill="none" stroke="midnightblue" d="M431.89,-168.08C426.24,-160.46 417.96,-149.26 411.05,-139.94"/>
<polygon fill="midnightblue" stroke="midnightblue" points="413.75,-137.7 404.98,-131.75 408.12,-141.87 413.75,-137.7"/>
</g>
<!-- Node8&#45;&gt;Node5 -->
<g id="edge8" class="edge">
<title>Node8&#45;&gt;Node5</title>
<path fill="none" stroke="midnightblue" d="M376.37,-112.37C326.54,-92.93 205.39,-45.67 147.85,-23.23"/>
<polygon fill="midnightblue" stroke="midnightblue" points="149.11,-19.96 138.53,-19.59 146.57,-26.49 149.11,-19.96"/>
</g>
<!-- Node8&#45;&gt;Node6 -->
<g id="edge9" class="edge">
<title>Node8&#45;&gt;Node6</title>
<path fill="none" stroke="midnightblue" d="M416.78,-112.41C435.61,-103.51 465.75,-89.08 491.5,-76 525.5,-58.73 564.3,-37.85 588.84,-24.5"/>
<polygon fill="midnightblue" stroke="midnightblue" points="590.7,-27.47 597.81,-19.61 587.35,-21.32 590.7,-27.47"/>
</g>
<!-- Node8&#45;&gt;Node7 -->
<g id="edge10" class="edge">
<title>Node8&#45;&gt;Node7</title>
<path fill="none" stroke="midnightblue" d="M412.65,-112.35C426.65,-103.63 448.53,-89.55 466.5,-76 487.55,-60.12 510.38,-40.21 525.46,-26.63"/>
<polygon fill="midnightblue" stroke="midnightblue" points="527.92,-29.12 532.98,-19.81 523.22,-23.94 527.92,-29.12"/>
</g>
<!-- Node9 -->
<g id="node9" class="node">
<title>Node9</title>
<g id="a_node9"><a xlink:title=" ">
<polygon fill="white" stroke="#bfbfbf" points="451.5,-0.5 451.5,-19.5 495.5,-19.5 495.5,-0.5 451.5,-0.5"/>
<text text-anchor="middle" x="473.5" y="-7.5" font-family="Helvetica,sans-Serif" font-size="10.00">string</text>
</a>
</g>
</g>
<!-- Node8&#45;&gt;Node9 -->
<g id="edge11" class="edge">
<title>Node8&#45;&gt;Node9</title>
<path fill="none" stroke="midnightblue" d="M410.83,-112.23C421.72,-103.95 437.39,-90.64 447.5,-76 457.42,-61.64 464.39,-42.93 468.6,-29.28"/>
<polygon fill="midnightblue" stroke="midnightblue" points="471.99,-30.17 471.39,-19.59 465.26,-28.23 471.99,-30.17"/>
</g>
<!-- Node10 -->
<g id="node10" class="node">
<title>Node10</title>
<g id="a_node10"><a xlink:href="Int24_8hpp.html" target="_top" xlink:title=" ">
<polygon fill="white" stroke="black" points="159.5,-0.5 159.5,-19.5 269.5,-19.5 269.5,-0.5 159.5,-0.5"/>
<text text-anchor="middle" x="214.5" y="-7.5" font-family="Helvetica,sans-Serif" font-size="10.00">../Models/Int24.hpp</text>
</a>
</g>
</g>
<!-- Node8&#45;&gt;Node10 -->
<g id="edge12" class="edge">
<title>Node8&#45;&gt;Node10</title>
<path fill="none" stroke="midnightblue" d="M384.06,-112.37C352.35,-93.41 276.39,-48 237.82,-24.94"/>
<polygon fill="midnightblue" stroke="midnightblue" points="239.25,-21.72 228.87,-19.59 235.66,-27.73 239.25,-21.72"/>
</g>
<!-- Node11 -->
<g id="node11" class="node">
<title>Node11</title>
<g id="a_node11"><a xlink:href="Components_8hpp.html" target="_top" xlink:title=" ">
<polygon fill="white" stroke="black" points="287.5,-0.5 287.5,-19.5 433.5,-19.5 433.5,-0.5 287.5,-0.5"/>
<text text-anchor="middle" x="360.5" y="-7.5" font-family="Helvetica,sans-Serif" font-size="10.00">../Models/Components.hpp</text>
</a>
</g>
</g>
<!-- Node8&#45;&gt;Node11 -->
<g id="edge13" class="edge">
<title>Node8&#45;&gt;Node11</title>
<path fill="none" stroke="midnightblue" d="M383.84,-112.4C372.09,-104.58 356.47,-91.86 349.5,-76 342.96,-61.12 347.06,-42.74 352.01,-29.33"/>
<polygon fill="midnightblue" stroke="midnightblue" points="355.37,-30.38 355.98,-19.8 348.9,-27.69 355.37,-30.38"/>
</g>
<!-- Node12 -->
<g id="node12" class="node">
<title>Node12</title>
<g id="a_node12"><a xlink:href="IMemory_8hpp.html" target="_top" xlink:title=" ">
<polygon fill="white" stroke="black" points="358.5,-56.5 358.5,-75.5 438.5,-75.5 438.5,-56.5 358.5,-56.5"/>
<text text-anchor="middle" x="398.5" y="-63.5" font-family="Helvetica,sans-Serif" font-size="10.00">IMemory.hpp</text>
</a>
</g>
</g>
<!-- Node8&#45;&gt;Node12 -->
<g id="edge14" class="edge">
<title>Node8&#45;&gt;Node12</title>
<path fill="none" stroke="midnightblue" d="M398.5,-112.08C398.5,-105.01 398.5,-94.86 398.5,-85.99"/>
<polygon fill="midnightblue" stroke="midnightblue" points="402,-85.75 398.5,-75.75 395,-85.75 402,-85.75"/>
</g>
<!-- Node12&#45;&gt;Node5 -->
<g id="edge15" class="edge">
<title>Node12&#45;&gt;Node5</title>
<path fill="none" stroke="midnightblue" d="M358.36,-58.72C311.17,-51.12 230.3,-37.4 151.76,-20.14"/>
<polygon fill="midnightblue" stroke="midnightblue" points="152.22,-16.66 141.7,-17.91 150.7,-23.49 152.22,-16.66"/>
</g>
<!-- Node12&#45;&gt;Node6 -->
<g id="edge16" class="edge">
<title>Node12&#45;&gt;Node6</title>
<path fill="none" stroke="midnightblue" d="M434.14,-56.46C468.86,-48.07 523.41,-34.74 579.9,-20.11"/>
<polygon fill="midnightblue" stroke="midnightblue" points="580.93,-23.46 589.73,-17.56 579.17,-16.68 580.93,-23.46"/>
</g>
<!-- Node12&#45;&gt;Node7 -->
<g id="edge17" class="edge">
<title>Node12&#45;&gt;Node7</title>
<path fill="none" stroke="midnightblue" d="M421.32,-56.44C445.33,-47.44 483.33,-33.19 510.37,-23.05"/>
<polygon fill="midnightblue" stroke="midnightblue" points="511.66,-26.3 519.79,-19.52 509.2,-19.75 511.66,-26.3"/>
</g>
<!-- Node12&#45;&gt;Node9 -->
<g id="edge18" class="edge">
<title>Node12&#45;&gt;Node9</title>
<path fill="none" stroke="midnightblue" d="M410.55,-56.32C421.96,-48.11 439.33,-35.6 452.93,-25.81"/>
<polygon fill="midnightblue" stroke="midnightblue" points="455.16,-28.52 461.23,-19.83 451.07,-22.84 455.16,-28.52"/>
</g>
<!-- Node12&#45;&gt;Node10 -->
<g id="edge19" class="edge">
<title>Node12&#45;&gt;Node10</title>
<path fill="none" stroke="midnightblue" d="M369.34,-56.44C337.99,-47.24 287.97,-32.56 253.3,-22.39"/>
<polygon fill="midnightblue" stroke="midnightblue" points="254.1,-18.97 243.52,-19.52 252.13,-25.69 254.1,-18.97"/>
</g>
<!-- Node12&#45;&gt;Node11 -->
<g id="edge20" class="edge">
<title>Node12&#45;&gt;Node11</title>
<path fill="none" stroke="midnightblue" d="M392.23,-56.08C386.86,-48.46 378.98,-37.26 372.42,-27.94"/>
<polygon fill="midnightblue" stroke="midnightblue" points="375.28,-25.91 366.66,-19.75 369.55,-29.94 375.28,-25.91"/>
</g>
<!-- Node14&#45;&gt;Node2 -->
<g id="edge23" class="edge">
<title>Node14&#45;&gt;Node2</title>
<path fill="none" stroke="midnightblue" d="M68,-168.08C68.39,-161.01 68.95,-150.86 69.45,-141.99"/>
<polygon fill="midnightblue" stroke="midnightblue" points="72.95,-141.93 70.01,-131.75 65.96,-141.54 72.95,-141.93"/>
</g>
</g>
</svg>
