<?xml version="1.0" encoding="UTF-8" standalone="no"?>
<!DOCTYPE svg PUBLIC "-//W3C//DTD SVG 1.1//EN"
 "http://www.w3.org/Graphics/SVG/1.1/DTD/svg11.dtd">
<!-- Generated by graphviz version 2.43.0 (0)
 -->
<!-- Title: sources/Memory/MemoryBus.cpp Pages: 1 -->
<svg width="1776pt" height="420pt"
 viewBox="0.00 0.00 1776.45 420.00" xmlns="http://www.w3.org/2000/svg" xmlns:xlink="http://www.w3.org/1999/xlink">
<g id="graph0" class="graph" transform="scale(1 1) rotate(0) translate(4 416)">
<title>sources/Memory/MemoryBus.cpp</title>
<polygon fill="white" stroke="transparent" points="-4,4 -4,-416 1772.45,-416 1772.45,4 -4,4"/>
<!-- Node1 -->
<g id="node1" class="node">
<title>Node1</title>
<g id="a_node1"><a xlink:title=" ">
<polygon fill="#bfbfbf" stroke="black" points="170.5,-392.5 170.5,-411.5 349.5,-411.5 349.5,-392.5 170.5,-392.5"/>
<text text-anchor="middle" x="260" y="-399.5" font-family="Helvetica,sans-Serif" font-size="10.00">sources/Memory/MemoryBus.cpp</text>
</a>
</g>
</g>
<!-- Node2 -->
<g id="node2" class="node">
<title>Node2</title>
<g id="a_node2"><a xlink:title=" ">
<polygon fill="white" stroke="#bfbfbf" points="0,-336.5 0,-355.5 64,-355.5 64,-336.5 0,-336.5"/>
<text text-anchor="middle" x="32" y="-343.5" font-family="Helvetica,sans-Serif" font-size="10.00">algorithm</text>
</a>
</g>
</g>
<!-- Node1&#45;&gt;Node2 -->
<g id="edge1" class="edge">
<title>Node1&#45;&gt;Node2</title>
<path fill="none" stroke="midnightblue" d="M223.87,-392.44C183.19,-382.81 117.15,-367.17 74.15,-356.98"/>
<polygon fill="midnightblue" stroke="midnightblue" points="74.81,-353.54 64.27,-354.64 73.2,-360.35 74.81,-353.54"/>
</g>
<!-- Node3 -->
<g id="node3" class="node">
<title>Node3</title>
<g id="a_node3"><a xlink:title=" ">
<polygon fill="white" stroke="#bfbfbf" points="82,-336.5 82,-355.5 142,-355.5 142,-336.5 82,-336.5"/>
<text text-anchor="middle" x="112" y="-343.5" font-family="Helvetica,sans-Serif" font-size="10.00">iostream</text>
</a>
</g>
</g>
<!-- Node1&#45;&gt;Node3 -->
<g id="edge2" class="edge">
<title>Node1&#45;&gt;Node3</title>
<path fill="none" stroke="midnightblue" d="M236.55,-392.44C211.87,-383.44 172.81,-369.19 145.02,-359.05"/>
<polygon fill="midnightblue" stroke="midnightblue" points="145.94,-355.66 135.34,-355.52 143.54,-362.23 145.94,-355.66"/>
</g>
<!-- Node4 -->
<g id="node4" class="node">
<title>Node4</title>
<g id="a_node4"><a xlink:href="MemoryBus_8hpp.html" target="_top" xlink:title=" ">
<polygon fill="white" stroke="black" points="484,-168.5 484,-187.5 580,-187.5 580,-168.5 484,-168.5"/>
<text text-anchor="middle" x="532" y="-175.5" font-family="Helvetica,sans-Serif" font-size="10.00">MemoryBus.hpp</text>
</a>
</g>
</g>
<!-- Node1&#45;&gt;Node4 -->
<g id="edge3" class="edge">
<title>Node1&#45;&gt;Node4</title>
<path fill="none" stroke="midnightblue" d="M273.77,-392.35C308.92,-369.99 404.09,-307.53 474,-244 490.71,-228.81 507.66,-209.23 518.88,-195.55"/>
<polygon fill="midnightblue" stroke="midnightblue" points="521.81,-197.49 525.37,-187.51 516.36,-193.09 521.81,-197.49"/>
</g>
<!-- Node13 -->
<g id="node13" class="node">
<title>Node13</title>
<g id="a_node13"><a xlink:href="SNES_8hpp.html" target="_top" xlink:title=" ">
<polygon fill="white" stroke="black" points="1056,-336.5 1056,-355.5 1128,-355.5 1128,-336.5 1056,-336.5"/>
<text text-anchor="middle" x="1092" y="-343.5" font-family="Helvetica,sans-Serif" font-size="10.00">../SNES.hpp</text>
</a>
</g>
</g>
<!-- Node1&#45;&gt;Node13 -->
<g id="edge21" class="edge">
<title>Node1&#45;&gt;Node13</title>
<path fill="none" stroke="midnightblue" d="M349.83,-395.17C526.16,-383.73 912,-358.68 1045.47,-350.02"/>
<polygon fill="midnightblue" stroke="midnightblue" points="1046,-353.49 1055.75,-349.35 1045.54,-346.51 1046,-353.49"/>
</g>
<!-- Node33 -->
<g id="node33" class="node">
<title>Node33</title>
<g id="a_node33"><a xlink:href="MemoryShadow_8hpp.html" target="_top" xlink:title=" ">
<polygon fill="white" stroke="black" points="122,-168.5 122,-187.5 238,-187.5 238,-168.5 122,-168.5"/>
<text text-anchor="middle" x="180" y="-175.5" font-family="Helvetica,sans-Serif" font-size="10.00">MemoryShadow.hpp</text>
</a>
</g>
</g>
<!-- Node1&#45;&gt;Node33 -->
<g id="edge72" class="edge">
<title>Node1&#45;&gt;Node33</title>
<path fill="none" stroke="midnightblue" d="M255.08,-392.48C242,-369.42 206.18,-303.49 189,-244 184.6,-228.76 182.32,-210.87 181.16,-197.73"/>
<polygon fill="midnightblue" stroke="midnightblue" points="184.64,-197.29 180.4,-187.58 177.66,-197.81 184.64,-197.29"/>
</g>
<!-- Node34 -->
<g id="node34" class="node">
<title>Node34</title>
<g id="a_node34"><a xlink:href="RectangleShadow_8hpp.html" target="_top" xlink:title=" ">
<polygon fill="white" stroke="black" points="198,-224.5 198,-243.5 322,-243.5 322,-224.5 198,-224.5"/>
<text text-anchor="middle" x="260" y="-231.5" font-family="Helvetica,sans-Serif" font-size="10.00">RectangleShadow.hpp</text>
</a>
</g>
</g>
<!-- Node1&#45;&gt;Node34 -->
<g id="edge75" class="edge">
<title>Node1&#45;&gt;Node34</title>
<path fill="none" stroke="midnightblue" d="M260,-392.08C260,-365.95 260,-289.21 260,-253.58"/>
<polygon fill="midnightblue" stroke="midnightblue" points="263.5,-253.57 260,-243.57 256.5,-253.57 263.5,-253.57"/>
</g>
<!-- Node35 -->
<g id="node35" class="node">
<title>Node35</title>
<g id="a_node35"><a xlink:href="InvalidAddress_8hpp.html" target="_top" xlink:title=" ">
<polygon fill="white" stroke="black" points="1529.5,-336.5 1529.5,-355.5 1704.5,-355.5 1704.5,-336.5 1529.5,-336.5"/>
<text text-anchor="middle" x="1617" y="-343.5" font-family="Helvetica,sans-Serif" font-size="10.00">../Exceptions/InvalidAddress.hpp</text>
</a>
</g>
</g>
<!-- Node1&#45;&gt;Node35 -->
<g id="edge79" class="edge">
<title>Node1&#45;&gt;Node35</title>
<path fill="none" stroke="midnightblue" d="M349.56,-397.44C593.14,-387.74 1266.27,-360.96 1519.22,-350.89"/>
<polygon fill="midnightblue" stroke="midnightblue" points="1519.64,-354.38 1529.5,-350.48 1519.36,-347.38 1519.64,-354.38"/>
</g>
<!-- Node5 -->
<g id="node5" class="node">
<title>Node5</title>
<g id="a_node5"><a xlink:title=" ">
<polygon fill="white" stroke="#bfbfbf" points="955,-0.5 955,-19.5 1005,-19.5 1005,-0.5 955,-0.5"/>
<text text-anchor="middle" x="980" y="-7.5" font-family="Helvetica,sans-Serif" font-size="10.00">cstdint</text>
</a>
</g>
</g>
<!-- Node4&#45;&gt;Node5 -->
<g id="edge4" class="edge">
<title>Node4&#45;&gt;Node5</title>
<path fill="none" stroke="midnightblue" d="M549.3,-168.5C575.3,-155.8 626.12,-131.29 670,-112 708.68,-94.99 719.2,-92.75 758,-76 777.72,-67.49 781.73,-63.11 802,-56 850.46,-39.01 908.42,-25.59 944.73,-17.96"/>
<polygon fill="midnightblue" stroke="midnightblue" points="945.74,-21.33 954.82,-15.88 944.32,-14.48 945.74,-21.33"/>
</g>
<!-- Node6 -->
<g id="node6" class="node">
<title>Node6</title>
<g id="a_node6"><a xlink:title=" ">
<polygon fill="white" stroke="#bfbfbf" points="652.5,-0.5 652.5,-19.5 699.5,-19.5 699.5,-0.5 652.5,-0.5"/>
<text text-anchor="middle" x="676" y="-7.5" font-family="Helvetica,sans-Serif" font-size="10.00">vector</text>
</a>
</g>
</g>
<!-- Node4&#45;&gt;Node6 -->
<g id="edge5" class="edge">
<title>Node4&#45;&gt;Node6</title>
<path fill="none" stroke="midnightblue" d="M533.7,-168.34C536.59,-155.21 543.41,-129.91 556,-112 582.33,-74.53 625.85,-42.7 652.61,-25.28"/>
<polygon fill="midnightblue" stroke="midnightblue" points="654.77,-28.05 661.33,-19.73 651.01,-22.15 654.77,-28.05"/>
</g>
<!-- Node7 -->
<g id="node7" class="node">
<title>Node7</title>
<g id="a_node7"><a xlink:title=" ">
<polygon fill="white" stroke="#bfbfbf" points="313,-0.5 313,-19.5 371,-19.5 371,-0.5 313,-0.5"/>
<text text-anchor="middle" x="342" y="-7.5" font-family="Helvetica,sans-Serif" font-size="10.00">memory</text>
</a>
</g>
</g>
<!-- Node4&#45;&gt;Node7 -->
<g id="edge6" class="edge">
<title>Node4&#45;&gt;Node7</title>
<path fill="none" stroke="midnightblue" d="M519.9,-168.34C496.64,-151.51 444.4,-112.78 404,-76 386.81,-60.35 368.62,-40.89 356.42,-27.36"/>
<polygon fill="midnightblue" stroke="midnightblue" points="358.93,-24.92 349.66,-19.79 353.71,-29.58 358.93,-24.92"/>
</g>
<!-- Node8 -->
<g id="node8" class="node">
<title>Node8</title>
<g id="a_node8"><a xlink:href="AMemory_8hpp.html" target="_top" xlink:title=" ">
<polygon fill="white" stroke="black" points="914.5,-112.5 914.5,-131.5 997.5,-131.5 997.5,-112.5 914.5,-112.5"/>
<text text-anchor="middle" x="956" y="-119.5" font-family="Helvetica,sans-Serif" font-size="10.00">AMemory.hpp</text>
</a>
</g>
</g>
<!-- Node4&#45;&gt;Node8 -->
<g id="edge7" class="edge">
<title>Node4&#45;&gt;Node8</title>
<path fill="none" stroke="midnightblue" d="M580.24,-172.11C649.71,-164.86 782.2,-150.28 904.39,-132.17"/>
<polygon fill="midnightblue" stroke="midnightblue" points="904.91,-135.63 914.29,-130.7 903.88,-128.71 904.91,-135.63"/>
</g>
<!-- Node8&#45;&gt;Node5 -->
<g id="edge8" class="edge">
<title>Node8&#45;&gt;Node5</title>
<path fill="none" stroke="midnightblue" d="M962.37,-112.23C968.26,-103.53 976.61,-89.57 980,-76 983.81,-60.76 983.48,-42.87 982.38,-29.72"/>
<polygon fill="midnightblue" stroke="midnightblue" points="985.84,-29.15 981.3,-19.57 978.88,-29.89 985.84,-29.15"/>
</g>
<!-- Node8&#45;&gt;Node6 -->
<g id="edge9" class="edge">
<title>Node8&#45;&gt;Node6</title>
<path fill="none" stroke="midnightblue" d="M952.28,-112.2C945.75,-97.93 930.84,-69.93 909,-56 900.63,-50.66 772.65,-27.83 710.02,-16.89"/>
<polygon fill="midnightblue" stroke="midnightblue" points="710.29,-13.39 699.84,-15.12 709.09,-20.28 710.29,-13.39"/>
</g>
<!-- Node8&#45;&gt;Node7 -->
<g id="edge10" class="edge">
<title>Node8&#45;&gt;Node7</title>
<path fill="none" stroke="midnightblue" d="M914.29,-113.3C911.49,-112.84 908.7,-112.4 906,-112 770.55,-91.86 734.68,-100.78 600,-76 521.16,-61.49 430.65,-36.78 380.52,-22.37"/>
<polygon fill="midnightblue" stroke="midnightblue" points="381.33,-18.96 370.75,-19.55 379.38,-25.69 381.33,-18.96"/>
</g>
<!-- Node9 -->
<g id="node9" class="node">
<title>Node9</title>
<g id="a_node9"><a xlink:title=" ">
<polygon fill="white" stroke="#bfbfbf" points="1170,-0.5 1170,-19.5 1214,-19.5 1214,-0.5 1170,-0.5"/>
<text text-anchor="middle" x="1192" y="-7.5" font-family="Helvetica,sans-Serif" font-size="10.00">string</text>
</a>
</g>
</g>
<!-- Node8&#45;&gt;Node9 -->
<g id="edge11" class="edge">
<title>Node8&#45;&gt;Node9</title>
<path fill="none" stroke="midnightblue" d="M974.52,-112.37C1015.79,-93.13 1115.52,-46.65 1164.26,-23.93"/>
<polygon fill="midnightblue" stroke="midnightblue" points="1165.98,-26.99 1173.57,-19.59 1163.03,-20.64 1165.98,-26.99"/>
</g>
<!-- Node10 -->
<g id="node10" class="node">
<title>Node10</title>
<g id="a_node10"><a xlink:href="Int24_8hpp.html" target="_top" xlink:title=" ">
<polygon fill="white" stroke="black" points="519,-0.5 519,-19.5 629,-19.5 629,-0.5 519,-0.5"/>
<text text-anchor="middle" x="574" y="-7.5" font-family="Helvetica,sans-Serif" font-size="10.00">../Models/Int24.hpp</text>
</a>
</g>
</g>
<!-- Node8&#45;&gt;Node10 -->
<g id="edge12" class="edge">
<title>Node8&#45;&gt;Node10</title>
<path fill="none" stroke="midnightblue" d="M914.28,-113.33C911.48,-112.87 908.7,-112.42 906,-112 782.44,-92.92 736.27,-136.77 627,-76 607.38,-65.09 592.16,-43.73 583.17,-28.48"/>
<polygon fill="midnightblue" stroke="midnightblue" points="586.09,-26.54 578.17,-19.51 579.98,-29.95 586.09,-26.54"/>
</g>
<!-- Node11 -->
<g id="node11" class="node">
<title>Node11</title>
<g id="a_node11"><a xlink:href="Components_8hpp.html" target="_top" xlink:title=" ">
<polygon fill="white" stroke="black" points="743,-0.5 743,-19.5 889,-19.5 889,-0.5 743,-0.5"/>
<text text-anchor="middle" x="816" y="-7.5" font-family="Helvetica,sans-Serif" font-size="10.00">../Models/Components.hpp</text>
</a>
</g>
</g>
<!-- Node8&#45;&gt;Node11 -->
<g id="edge13" class="edge">
<title>Node8&#45;&gt;Node11</title>
<path fill="none" stroke="midnightblue" d="M956.62,-112.26C957.11,-98.56 956,-71.97 942,-56 927.52,-39.49 906.56,-29.04 885.87,-22.42"/>
<polygon fill="midnightblue" stroke="midnightblue" points="886.67,-19.01 876.09,-19.56 884.7,-25.73 886.67,-19.01"/>
</g>
<!-- Node12 -->
<g id="node12" class="node">
<title>Node12</title>
<g id="a_node12"><a xlink:href="IMemory_8hpp.html" target="_top" xlink:title=" ">
<polygon fill="white" stroke="black" points="636,-56.5 636,-75.5 716,-75.5 716,-56.5 636,-56.5"/>
<text text-anchor="middle" x="676" y="-63.5" font-family="Helvetica,sans-Serif" font-size="10.00">IMemory.hpp</text>
</a>
</g>
</g>
<!-- Node8&#45;&gt;Node12 -->
<g id="edge14" class="edge">
<title>Node8&#45;&gt;Node12</title>
<path fill="none" stroke="midnightblue" d="M914.38,-112.97C864.15,-103.29 779.74,-87.01 726.02,-76.65"/>
<polygon fill="midnightblue" stroke="midnightblue" points="726.51,-73.18 716.03,-74.72 725.18,-80.05 726.51,-73.18"/>
</g>
<!-- Node12&#45;&gt;Node5 -->
<g id="edge15" class="edge">
<title>Node12&#45;&gt;Node5</title>
<path fill="none" stroke="midnightblue" d="M716.06,-57.88C776.01,-47.24 888.1,-27.32 944.98,-17.22"/>
<polygon fill="midnightblue" stroke="midnightblue" points="945.69,-20.65 954.93,-15.45 944.47,-13.76 945.69,-20.65"/>
</g>
<!-- Node12&#45;&gt;Node6 -->
<g id="edge16" class="edge">
<title>Node12&#45;&gt;Node6</title>
<path fill="none" stroke="midnightblue" d="M676,-56.08C676,-49.01 676,-38.86 676,-29.99"/>
<polygon fill="midnightblue" stroke="midnightblue" points="679.5,-29.75 676,-19.75 672.5,-29.75 679.5,-29.75"/>
</g>
<!-- Node12&#45;&gt;Node7 -->
<g id="edge17" class="edge">
<title>Node12&#45;&gt;Node7</title>
<path fill="none" stroke="midnightblue" d="M635.71,-58.49C571.12,-48.04 445.18,-27.68 381.25,-17.35"/>
<polygon fill="midnightblue" stroke="midnightblue" points="381.6,-13.86 371.17,-15.72 380.49,-20.77 381.6,-13.86"/>
</g>
<!-- Node12&#45;&gt;Node9 -->
<g id="edge18" class="edge">
<title>Node12&#45;&gt;Node9</title>
<path fill="none" stroke="midnightblue" d="M716.06,-60.81C815.04,-50.45 1069.64,-23.81 1159.78,-14.37"/>
<polygon fill="midnightblue" stroke="midnightblue" points="1160.35,-17.83 1169.93,-13.31 1159.62,-10.87 1160.35,-17.83"/>
</g>
<!-- Node12&#45;&gt;Node10 -->
<g id="edge19" class="edge">
<title>Node12&#45;&gt;Node10</title>
<path fill="none" stroke="midnightblue" d="M659.61,-56.32C643.33,-47.7 618.13,-34.36 599.28,-24.39"/>
<polygon fill="midnightblue" stroke="midnightblue" points="600.82,-21.24 590.35,-19.65 597.55,-27.43 600.82,-21.24"/>
</g>
<!-- Node12&#45;&gt;Node11 -->
<g id="edge20" class="edge">
<title>Node12&#45;&gt;Node11</title>
<path fill="none" stroke="midnightblue" d="M698.18,-56.44C721.43,-47.48 758.15,-33.31 784.42,-23.18"/>
<polygon fill="midnightblue" stroke="midnightblue" points="785.85,-26.38 793.92,-19.52 783.33,-19.85 785.85,-26.38"/>
</g>
<!-- Node13&#45;&gt;Node4 -->
<g id="edge22" class="edge">
<title>Node13&#45;&gt;Node4</title>
<path fill="none" stroke="midnightblue" d="M1055.82,-344.4C941.79,-342.19 595.28,-332.8 558,-300 528.92,-274.42 527.9,-224.87 529.84,-197.79"/>
<polygon fill="midnightblue" stroke="midnightblue" points="533.34,-197.98 530.79,-187.7 526.37,-197.33 533.34,-197.98"/>
</g>
<!-- Node14 -->
<g id="node14" class="node">
<title>Node14</title>
<g id="a_node14"><a xlink:href="CPU_8hpp.html" target="_top" xlink:title=" ">
<polygon fill="white" stroke="black" points="567.5,-280.5 567.5,-299.5 648.5,-299.5 648.5,-280.5 567.5,-280.5"/>
<text text-anchor="middle" x="608" y="-287.5" font-family="Helvetica,sans-Serif" font-size="10.00">CPU/CPU.hpp</text>
</a>
</g>
</g>
<!-- Node13&#45;&gt;Node14 -->
<g id="edge23" class="edge">
<title>Node13&#45;&gt;Node14</title>
<path fill="none" stroke="midnightblue" d="M1055.62,-340.94C970.16,-331.41 756.43,-307.56 658.48,-296.63"/>
<polygon fill="midnightblue" stroke="midnightblue" points="658.85,-293.15 648.52,-295.52 658.07,-300.11 658.85,-293.15"/>
</g>
<!-- Node15 -->
<g id="node15" class="node">
<title>Node15</title>
<g id="a_node15"><a xlink:href="Cartridge_8hpp.html" target="_top" xlink:title=" ">
<polygon fill="white" stroke="black" points="805,-224.5 805,-243.5 945,-243.5 945,-224.5 805,-224.5"/>
<text text-anchor="middle" x="875" y="-231.5" font-family="Helvetica,sans-Serif" font-size="10.00">../Cartridge/Cartridge.hpp</text>
</a>
</g>
</g>
<!-- Node13&#45;&gt;Node15 -->
<g id="edge45" class="edge">
<title>Node13&#45;&gt;Node15</title>
<path fill="none" stroke="midnightblue" d="M1074.97,-336.37C1037.18,-317.21 946.09,-271.04 901.07,-248.22"/>
<polygon fill="midnightblue" stroke="midnightblue" points="902.45,-244.99 891.95,-243.59 899.29,-251.23 902.45,-244.99"/>
</g>
<!-- Node18 -->
<g id="node18" class="node">
<title>Node18</title>
<g id="a_node18"><a xlink:href="Ram_8hpp.html" target="_top" xlink:title=" ">
<polygon fill="white" stroke="black" points="1220.5,-168.5 1220.5,-187.5 1315.5,-187.5 1315.5,-168.5 1220.5,-168.5"/>
<text text-anchor="middle" x="1268" y="-175.5" font-family="Helvetica,sans-Serif" font-size="10.00">../Ram/Ram.hpp</text>
</a>
</g>
</g>
<!-- Node13&#45;&gt;Node18 -->
<g id="edge46" class="edge">
<title>Node13&#45;&gt;Node18</title>
<path fill="none" stroke="midnightblue" d="M1100.77,-336.39C1121.14,-316.43 1173.35,-265.51 1218,-224 1228.72,-214.04 1240.92,-203.05 1250.59,-194.42"/>
<polygon fill="midnightblue" stroke="midnightblue" points="1253.18,-196.8 1258.33,-187.54 1248.53,-191.57 1253.18,-196.8"/>
</g>
<!-- Node21 -->
<g id="node21" class="node">
<title>Node21</title>
<g id="a_node21"><a xlink:href="PPU_8hpp.html" target="_top" xlink:title=" ">
<polygon fill="white" stroke="black" points="1227,-224.5 1227,-243.5 1307,-243.5 1307,-224.5 1227,-224.5"/>
<text text-anchor="middle" x="1267" y="-231.5" font-family="Helvetica,sans-Serif" font-size="10.00">PPU/PPU.hpp</text>
</a>
</g>
</g>
<!-- Node13&#45;&gt;Node21 -->
<g id="edge47" class="edge">
<title>Node13&#45;&gt;Node21</title>
<path fill="none" stroke="midnightblue" d="M1110.22,-336.45C1127.93,-327.91 1155.39,-314.06 1178,-300 1203.18,-284.34 1230.49,-263.82 1248.13,-250.06"/>
<polygon fill="midnightblue" stroke="midnightblue" points="1250.71,-252.48 1256.4,-243.54 1246.38,-246.98 1250.71,-252.48"/>
</g>
<!-- Node22 -->
<g id="node22" class="node">
<title>Node22</title>
<g id="a_node22"><a xlink:href="IRenderer_8hpp.html" target="_top" xlink:title=" ">
<polygon fill="white" stroke="black" points="1410,-168.5 1410,-187.5 1550,-187.5 1550,-168.5 1410,-168.5"/>
<text text-anchor="middle" x="1480" y="-175.5" font-family="Helvetica,sans-Serif" font-size="10.00">../Renderer/IRenderer.hpp</text>
</a>
</g>
</g>
<!-- Node13&#45;&gt;Node22 -->
<g id="edge69" class="edge">
<title>Node13&#45;&gt;Node22</title>
<path fill="none" stroke="midnightblue" d="M1114.18,-336.44C1137.03,-327.55 1173.64,-313.14 1205,-300 1295.88,-261.92 1402.38,-214.16 1451.96,-191.73"/>
<polygon fill="midnightblue" stroke="midnightblue" points="1453.43,-194.91 1461.1,-187.59 1450.54,-188.53 1453.43,-194.91"/>
</g>
<!-- Node27 -->
<g id="node27" class="node">
<title>Node27</title>
<g id="a_node27"><a xlink:href="APU_8hpp.html" target="_top" xlink:title=" ">
<polygon fill="white" stroke="black" points="1051.5,-224.5 1051.5,-243.5 1132.5,-243.5 1132.5,-224.5 1051.5,-224.5"/>
<text text-anchor="middle" x="1092" y="-231.5" font-family="Helvetica,sans-Serif" font-size="10.00">APU/APU.hpp</text>
</a>
</g>
</g>
<!-- Node13&#45;&gt;Node27 -->
<g id="edge58" class="edge">
<title>Node13&#45;&gt;Node27</title>
<path fill="none" stroke="midnightblue" d="M1092,-336.37C1092,-318.62 1092,-277.67 1092,-253.6"/>
<polygon fill="midnightblue" stroke="midnightblue" points="1095.5,-253.59 1092,-243.59 1088.5,-253.59 1095.5,-253.59"/>
</g>
<!-- Node31 -->
<g id="node31" class="node">
<title>Node31</title>
<g id="a_node31"><a xlink:href="DebuggableError_8hpp.html" target="_top" xlink:title=" ">
<polygon fill="white" stroke="black" points="1358.5,-280.5 1358.5,-299.5 1533.5,-299.5 1533.5,-280.5 1358.5,-280.5"/>
<text text-anchor="middle" x="1446" y="-287.5" font-family="Helvetica,sans-Serif" font-size="10.00">Exceptions/DebuggableError.hpp</text>
</a>
</g>
</g>
<!-- Node13&#45;&gt;Node31 -->
<g id="edge70" class="edge">
<title>Node13&#45;&gt;Node31</title>
<path fill="none" stroke="midnightblue" d="M1128.22,-339.47C1187.38,-330.45 1305.58,-312.42 1379.96,-301.07"/>
<polygon fill="midnightblue" stroke="midnightblue" points="1380.8,-304.49 1390.16,-299.52 1379.74,-297.57 1380.8,-304.49"/>
</g>
<!-- Node14&#45;&gt;Node4 -->
<g id="edge25" class="edge">
<title>Node14&#45;&gt;Node4</title>
<path fill="none" stroke="midnightblue" d="M602.04,-280.37C589.49,-262.22 560.19,-219.8 543.74,-195.99"/>
<polygon fill="midnightblue" stroke="midnightblue" points="546.5,-193.83 537.94,-187.59 540.74,-197.81 546.5,-193.83"/>
</g>
<!-- Node14&#45;&gt;Node8 -->
<g id="edge24" class="edge">
<title>Node14&#45;&gt;Node8</title>
<path fill="none" stroke="midnightblue" d="M612.06,-280.19C623.06,-257.41 655.82,-196.3 703,-168 778.89,-122.47 813.41,-146.34 904.38,-132.17"/>
<polygon fill="midnightblue" stroke="midnightblue" points="904.97,-135.62 914.26,-130.52 903.82,-128.72 904.97,-135.62"/>
</g>
<!-- Node14&#45;&gt;Node10 -->
<g id="edge26" class="edge">
<title>Node14&#45;&gt;Node10</title>
<path fill="none" stroke="midnightblue" d="M567.3,-287.39C505.8,-284.01 393.73,-273.82 369,-244 297.88,-158.24 475.39,-59.01 546.29,-24.02"/>
<polygon fill="midnightblue" stroke="midnightblue" points="548.08,-27.04 555.55,-19.52 545.02,-20.74 548.08,-27.04"/>
</g>
<!-- Node14&#45;&gt;Node15 -->
<g id="edge27" class="edge">
<title>Node14&#45;&gt;Node15</title>
<path fill="none" stroke="midnightblue" d="M648.55,-280.8C695.19,-271.37 771.87,-255.86 822.9,-245.54"/>
<polygon fill="midnightblue" stroke="midnightblue" points="823.63,-248.96 832.74,-243.55 822.25,-242.1 823.63,-248.96"/>
</g>
<!-- Node19 -->
<g id="node19" class="node">
<title>Node19</title>
<g id="a_node19"><a xlink:href="Instruction_8hpp.html" target="_top" xlink:title=" ">
<polygon fill="white" stroke="black" points="810.5,-56.5 810.5,-75.5 899.5,-75.5 899.5,-56.5 810.5,-56.5"/>
<text text-anchor="middle" x="855" y="-63.5" font-family="Helvetica,sans-Serif" font-size="10.00">Instruction.hpp</text>
</a>
</g>
</g>
<!-- Node14&#45;&gt;Node19 -->
<g id="edge37" class="edge">
<title>Node14&#45;&gt;Node19</title>
<path fill="none" stroke="midnightblue" d="M609.88,-280.25C616.65,-251.08 642.6,-156.43 703,-112 719.38,-99.95 767.51,-86.81 805.27,-77.86"/>
<polygon fill="midnightblue" stroke="midnightblue" points="806.17,-81.25 815.11,-75.57 804.58,-74.43 806.17,-81.25"/>
</g>
<!-- Node20 -->
<g id="node20" class="node">
<title>Node20</title>
<g id="a_node20"><a xlink:href="DMA_8hpp.html" target="_top" xlink:title=" ">
<polygon fill="white" stroke="black" points="378.5,-224.5 378.5,-243.5 465.5,-243.5 465.5,-224.5 378.5,-224.5"/>
<text text-anchor="middle" x="422" y="-231.5" font-family="Helvetica,sans-Serif" font-size="10.00">DMA/DMA.hpp</text>
</a>
</g>
</g>
<!-- Node14&#45;&gt;Node20 -->
<g id="edge40" class="edge">
<title>Node14&#45;&gt;Node20</title>
<path fill="none" stroke="midnightblue" d="M578.53,-280.44C546.83,-271.24 496.27,-256.56 461.23,-246.39"/>
<polygon fill="midnightblue" stroke="midnightblue" points="461.91,-242.94 451.33,-243.52 459.96,-249.67 461.91,-242.94"/>
</g>
<!-- Node15&#45;&gt;Node8 -->
<g id="edge29" class="edge">
<title>Node15&#45;&gt;Node8</title>
<path fill="none" stroke="midnightblue" d="M881.36,-224.37C894.78,-206.14 926.23,-163.43 943.72,-139.68"/>
<polygon fill="midnightblue" stroke="midnightblue" points="946.56,-141.72 949.67,-131.59 940.93,-137.57 946.56,-141.72"/>
</g>
<!-- Node15&#45;&gt;Node9 -->
<g id="edge28" class="edge">
<title>Node15&#45;&gt;Node9</title>
<path fill="none" stroke="midnightblue" d="M945.17,-226.89C1028.26,-218.98 1157.44,-204.25 1173,-188 1214.28,-144.9 1204.1,-66.11 1196.6,-30"/>
<polygon fill="midnightblue" stroke="midnightblue" points="1199.93,-28.86 1194.33,-19.87 1193.1,-30.4 1199.93,-28.86"/>
</g>
<!-- Node15&#45;&gt;Node10 -->
<g id="edge30" class="edge">
<title>Node15&#45;&gt;Node10</title>
<path fill="none" stroke="midnightblue" d="M807.4,-224.48C774.18,-218.08 734.61,-207.01 703,-188 645.05,-153.14 636.04,-133.22 600,-76 590.8,-61.39 583.81,-42.99 579.4,-29.49"/>
<polygon fill="midnightblue" stroke="midnightblue" points="582.73,-28.41 576.43,-19.89 576.04,-30.48 582.73,-28.41"/>
</g>
<!-- Node16 -->
<g id="node16" class="node">
<title>Node16</title>
<g id="a_node16"><a xlink:href="ARectangleMemory_8hpp.html" target="_top" xlink:title=" ">
<polygon fill="white" stroke="black" points="711.5,-112.5 711.5,-131.5 896.5,-131.5 896.5,-112.5 711.5,-112.5"/>
<text text-anchor="middle" x="804" y="-119.5" font-family="Helvetica,sans-Serif" font-size="10.00">../Memory/ARectangleMemory.hpp</text>
</a>
</g>
</g>
<!-- Node15&#45;&gt;Node16 -->
<g id="edge31" class="edge">
<title>Node15&#45;&gt;Node16</title>
<path fill="none" stroke="midnightblue" d="M870.36,-224.42C863.45,-211.81 849.91,-187.67 837,-168 830.75,-158.48 823.29,-148.22 817.04,-139.91"/>
<polygon fill="midnightblue" stroke="midnightblue" points="819.69,-137.61 810.85,-131.77 814.12,-141.85 819.69,-137.61"/>
</g>
<!-- Node17 -->
<g id="node17" class="node">
<title>Node17</title>
<g id="a_node17"><a xlink:href="InterruptVectors_8hpp.html" target="_top" xlink:title=" ">
<polygon fill="white" stroke="black" points="712,-168.5 712,-187.5 828,-187.5 828,-168.5 712,-168.5"/>
<text text-anchor="middle" x="770" y="-175.5" font-family="Helvetica,sans-Serif" font-size="10.00">InterruptVectors.hpp</text>
</a>
</g>
</g>
<!-- Node15&#45;&gt;Node17 -->
<g id="edge33" class="edge">
<title>Node15&#45;&gt;Node17</title>
<path fill="none" stroke="midnightblue" d="M858.13,-224.32C841.29,-215.66 815.19,-202.24 795.76,-192.25"/>
<polygon fill="midnightblue" stroke="midnightblue" points="797.32,-189.12 786.83,-187.65 794.12,-195.34 797.32,-189.12"/>
</g>
<!-- Node15&#45;&gt;Node18 -->
<g id="edge34" class="edge">
<title>Node15&#45;&gt;Node18</title>
<path fill="none" stroke="midnightblue" d="M939.1,-224.46C1005.79,-215.53 1113.25,-201.04 1206,-188 1207.3,-187.82 1208.62,-187.63 1209.95,-187.44"/>
<polygon fill="midnightblue" stroke="midnightblue" points="1210.87,-190.85 1220.28,-185.97 1209.89,-183.92 1210.87,-190.85"/>
</g>
<!-- Node16&#45;&gt;Node12 -->
<g id="edge32" class="edge">
<title>Node16&#45;&gt;Node12</title>
<path fill="none" stroke="midnightblue" d="M783.72,-112.44C762.65,-103.56 729.48,-89.56 705.51,-79.45"/>
<polygon fill="midnightblue" stroke="midnightblue" points="706.76,-76.18 696.19,-75.52 704.04,-82.63 706.76,-76.18"/>
</g>
<!-- Node18&#45;&gt;Node9 -->
<g id="edge36" class="edge">
<title>Node18&#45;&gt;Node9</title>
<path fill="none" stroke="midnightblue" d="M1263.91,-168.08C1251.85,-141.72 1216.21,-63.88 1200.09,-28.66"/>
<polygon fill="midnightblue" stroke="midnightblue" points="1203.27,-27.2 1195.92,-19.57 1196.9,-30.12 1203.27,-27.2"/>
</g>
<!-- Node18&#45;&gt;Node16 -->
<g id="edge35" class="edge">
<title>Node18&#45;&gt;Node16</title>
<path fill="none" stroke="midnightblue" d="M1220.09,-171.42C1141.6,-162.29 984.63,-144.02 887.52,-132.72"/>
<polygon fill="midnightblue" stroke="midnightblue" points="887.78,-129.23 877.45,-131.55 886.97,-136.18 887.78,-129.23"/>
</g>
<!-- Node19&#45;&gt;Node9 -->
<g id="edge38" class="edge">
<title>Node19&#45;&gt;Node9</title>
<path fill="none" stroke="midnightblue" d="M899.75,-57.83C968.66,-46.79 1099.12,-25.88 1159.65,-16.18"/>
<polygon fill="midnightblue" stroke="midnightblue" points="1160.45,-19.6 1169.77,-14.56 1159.34,-12.69 1160.45,-19.6"/>
</g>
<!-- Node19&#45;&gt;Node10 -->
<g id="edge39" class="edge">
<title>Node19&#45;&gt;Node10</title>
<path fill="none" stroke="midnightblue" d="M810.47,-56.44C761.04,-46.94 681.25,-31.61 628.22,-21.42"/>
<polygon fill="midnightblue" stroke="midnightblue" points="628.8,-17.97 618.32,-19.52 627.48,-24.84 628.8,-17.97"/>
</g>
<!-- Node20&#45;&gt;Node4 -->
<g id="edge44" class="edge">
<title>Node20&#45;&gt;Node4</title>
<path fill="none" stroke="midnightblue" d="M439.67,-224.32C457.39,-215.62 484.9,-202.12 505.29,-192.11"/>
<polygon fill="midnightblue" stroke="midnightblue" points="506.94,-195.2 514.37,-187.65 503.85,-188.92 506.94,-195.2"/>
</g>
<!-- Node20&#45;&gt;Node5 -->
<g id="edge41" class="edge">
<title>Node20&#45;&gt;Node5</title>
<path fill="none" stroke="midnightblue" d="M427.06,-224.19C435.4,-210.4 453.28,-183.68 475,-168 570.99,-98.69 617.91,-126.49 725,-76 740.51,-68.69 742.03,-62.24 758,-56 821.24,-31.29 900.16,-19.44 944.84,-14.35"/>
<polygon fill="midnightblue" stroke="midnightblue" points="945.34,-17.81 954.9,-13.25 944.58,-10.85 945.34,-17.81"/>
</g>
<!-- Node20&#45;&gt;Node7 -->
<g id="edge42" class="edge">
<title>Node20&#45;&gt;Node7</title>
<path fill="none" stroke="midnightblue" d="M418.44,-224.42C414.72,-215.39 408.79,-200.76 404,-188 382.42,-130.46 358.96,-61.55 348.12,-29.31"/>
<polygon fill="midnightblue" stroke="midnightblue" points="351.34,-27.89 344.84,-19.52 344.7,-30.12 351.34,-27.89"/>
</g>
<!-- Node20&#45;&gt;Node10 -->
<g id="edge43" class="edge">
<title>Node20&#45;&gt;Node10</title>
<path fill="none" stroke="midnightblue" d="M424.11,-224.42C427.34,-211.81 433.96,-187.67 442,-168 452.61,-142.06 454.34,-134.54 471,-112 496.23,-77.86 533.21,-44.65 555.31,-26.11"/>
<polygon fill="midnightblue" stroke="midnightblue" points="557.79,-28.6 563.27,-19.53 553.33,-23.21 557.79,-28.6"/>
</g>
<!-- Node21&#45;&gt;Node4 -->
<g id="edge50" class="edge">
<title>Node21&#45;&gt;Node4</title>
<path fill="none" stroke="midnightblue" d="M1226.96,-230.06C1104.51,-221.06 734.61,-193.89 590.43,-183.29"/>
<polygon fill="midnightblue" stroke="midnightblue" points="590.26,-179.77 580.03,-182.53 589.75,-186.75 590.26,-179.77"/>
</g>
<!-- Node21&#45;&gt;Node5 -->
<g id="edge48" class="edge">
<title>Node21&#45;&gt;Node5</title>
<path fill="none" stroke="midnightblue" d="M1291.36,-224.35C1318.63,-213.24 1357.03,-192.45 1341,-168 1266.71,-54.69 1090.99,-22.72 1015.48,-14.06"/>
<polygon fill="midnightblue" stroke="midnightblue" points="1015.41,-10.54 1005.09,-12.95 1014.66,-17.5 1015.41,-10.54"/>
</g>
<!-- Node21&#45;&gt;Node8 -->
<g id="edge49" class="edge">
<title>Node21&#45;&gt;Node8</title>
<path fill="none" stroke="midnightblue" d="M1284.46,-224.4C1307.44,-211.97 1342.95,-188.27 1325,-168 1314.59,-156.25 1106.76,-136.36 1007.68,-127.49"/>
<polygon fill="midnightblue" stroke="midnightblue" points="1007.86,-124 997.59,-126.6 1007.24,-130.97 1007.86,-124"/>
</g>
<!-- Node21&#45;&gt;Node18 -->
<g id="edge54" class="edge">
<title>Node21&#45;&gt;Node18</title>
<path fill="none" stroke="midnightblue" d="M1267.17,-224.08C1267.3,-217.01 1267.48,-206.86 1267.65,-197.99"/>
<polygon fill="midnightblue" stroke="midnightblue" points="1271.15,-197.81 1267.84,-187.75 1264.15,-197.68 1271.15,-197.81"/>
</g>
<!-- Node21&#45;&gt;Node22 -->
<g id="edge51" class="edge">
<title>Node21&#45;&gt;Node22</title>
<path fill="none" stroke="midnightblue" d="M1300.75,-224.44C1337.52,-215.12 1396.45,-200.18 1436.62,-190"/>
<polygon fill="midnightblue" stroke="midnightblue" points="1437.57,-193.37 1446.41,-187.52 1435.85,-186.58 1437.57,-193.37"/>
</g>
<!-- Node24 -->
<g id="node24" class="node">
<title>Node24</title>
<g id="a_node24"><a xlink:href="Vector2_8hpp.html" target="_top" xlink:title=" ">
<polygon fill="white" stroke="black" points="1568,-168.5 1568,-187.5 1690,-187.5 1690,-168.5 1568,-168.5"/>
<text text-anchor="middle" x="1629" y="-175.5" font-family="Helvetica,sans-Serif" font-size="10.00">../Models/Vector2.hpp</text>
</a>
</g>
</g>
<!-- Node21&#45;&gt;Node24 -->
<g id="edge55" class="edge">
<title>Node21&#45;&gt;Node24</title>
<path fill="none" stroke="midnightblue" d="M1307.12,-227.01C1368.57,-217.85 1486.71,-200.23 1561.5,-189.07"/>
<polygon fill="midnightblue" stroke="midnightblue" points="1562.38,-192.48 1571.75,-187.54 1561.35,-185.55 1562.38,-192.48"/>
</g>
<!-- Node22&#45;&gt;Node9 -->
<g id="edge52" class="edge">
<title>Node22&#45;&gt;Node9</title>
<path fill="none" stroke="midnightblue" d="M1479.83,-168.23C1479.09,-154.5 1475.71,-127.86 1461,-112 1396.77,-42.78 1280.44,-20.7 1224.19,-13.9"/>
<polygon fill="midnightblue" stroke="midnightblue" points="1224.42,-10.4 1214.09,-12.76 1223.64,-17.36 1224.42,-10.4"/>
</g>
<!-- Node23 -->
<g id="node23" class="node">
<title>Node23</title>
<g id="a_node23"><a xlink:title=" ">
<polygon fill="white" stroke="#bfbfbf" points="1412,-112.5 1412,-131.5 1452,-131.5 1452,-112.5 1412,-112.5"/>
<text text-anchor="middle" x="1432" y="-119.5" font-family="Helvetica,sans-Serif" font-size="10.00">span</text>
</a>
</g>
</g>
<!-- Node22&#45;&gt;Node23 -->
<g id="edge53" class="edge">
<title>Node22&#45;&gt;Node23</title>
<path fill="none" stroke="midnightblue" d="M1472.07,-168.08C1465.15,-160.3 1454.93,-148.8 1446.55,-139.37"/>
<polygon fill="midnightblue" stroke="midnightblue" points="1449.04,-136.9 1439.78,-131.75 1443.81,-141.55 1449.04,-136.9"/>
</g>
<!-- Node25 -->
<g id="node25" class="node">
<title>Node25</title>
<g id="a_node25"><a xlink:title=" ">
<polygon fill="white" stroke="#bfbfbf" points="1678.5,-112.5 1678.5,-131.5 1735.5,-131.5 1735.5,-112.5 1678.5,-112.5"/>
<text text-anchor="middle" x="1707" y="-119.5" font-family="Helvetica,sans-Serif" font-size="10.00">ostream</text>
</a>
</g>
</g>
<!-- Node24&#45;&gt;Node25 -->
<g id="edge56" class="edge">
<title>Node24&#45;&gt;Node25</title>
<path fill="none" stroke="midnightblue" d="M1641.53,-168.32C1653.59,-159.98 1672.03,-147.21 1686.27,-137.35"/>
<polygon fill="midnightblue" stroke="midnightblue" points="1688.27,-140.22 1694.5,-131.65 1684.28,-134.47 1688.27,-140.22"/>
</g>
<!-- Node26 -->
<g id="node26" class="node">
<title>Node26</title>
<g id="a_node26"><a xlink:title=" ">
<polygon fill="white" stroke="#bfbfbf" points="1517.5,-112.5 1517.5,-131.5 1660.5,-131.5 1660.5,-112.5 1517.5,-112.5"/>
<text text-anchor="middle" x="1589" y="-119.5" font-family="Helvetica,sans-Serif" font-size="10.00">SFML/System/Vector2.hpp</text>
</a>
</g>
</g>
<!-- Node24&#45;&gt;Node26 -->
<g id="edge57" class="edge">
<title>Node24&#45;&gt;Node26</title>
<path fill="none" stroke="midnightblue" d="M1622.39,-168.08C1616.74,-160.46 1608.46,-149.26 1601.55,-139.94"/>
<polygon fill="midnightblue" stroke="midnightblue" points="1604.25,-137.7 1595.48,-131.75 1598.62,-141.87 1604.25,-137.7"/>
</g>
<!-- Node27&#45;&gt;Node7 -->
<g id="edge59" class="edge">
<title>Node27&#45;&gt;Node7</title>
<path fill="none" stroke="midnightblue" d="M1057.83,-224.49C990.01,-207.52 833.66,-168.01 703,-132 617.31,-108.38 595.22,-104.42 511,-76 461.87,-59.42 405.9,-37.22 372.29,-23.53"/>
<polygon fill="midnightblue" stroke="midnightblue" points="373.19,-20.12 362.61,-19.57 370.54,-26.59 373.19,-20.12"/>
</g>
<!-- Node27&#45;&gt;Node8 -->
<g id="edge64" class="edge">
<title>Node27&#45;&gt;Node8</title>
<path fill="none" stroke="midnightblue" d="M1086.39,-224.08C1077.59,-210.63 1059.41,-184.9 1039,-168 1023.07,-154.8 1002.67,-143.68 986.08,-135.79"/>
<polygon fill="midnightblue" stroke="midnightblue" points="987.36,-132.53 976.82,-131.53 984.44,-138.89 987.36,-132.53"/>
</g>
<!-- Node27&#45;&gt;Node18 -->
<g id="edge65" class="edge">
<title>Node27&#45;&gt;Node18</title>
<path fill="none" stroke="midnightblue" d="M1119.89,-224.44C1149.75,-215.28 1197.31,-200.69 1230.46,-190.52"/>
<polygon fill="midnightblue" stroke="midnightblue" points="1231.71,-193.8 1240.24,-187.52 1229.66,-187.1 1231.71,-193.8"/>
</g>
<!-- Node27&#45;&gt;Node22 -->
<g id="edge68" class="edge">
<title>Node27&#45;&gt;Node22</title>
<path fill="none" stroke="midnightblue" d="M1132.79,-227.32C1198.28,-218.21 1327.73,-200.19 1408.73,-188.92"/>
<polygon fill="midnightblue" stroke="midnightblue" points="1409.43,-192.36 1418.85,-187.51 1408.47,-185.42 1409.43,-192.36"/>
</g>
<!-- Node28 -->
<g id="node28" class="node">
<title>Node28</title>
<g id="a_node28"><a xlink:href="DSP_8hpp.html" target="_top" xlink:title=" ">
<polygon fill="white" stroke="black" points="1086,-168.5 1086,-187.5 1164,-187.5 1164,-168.5 1086,-168.5"/>
<text text-anchor="middle" x="1125" y="-175.5" font-family="Helvetica,sans-Serif" font-size="10.00">DSP/DSP.hpp</text>
</a>
</g>
</g>
<!-- Node27&#45;&gt;Node28 -->
<g id="edge60" class="edge">
<title>Node27&#45;&gt;Node28</title>
<path fill="none" stroke="midnightblue" d="M1097.45,-224.08C1102.01,-216.61 1108.67,-205.72 1114.29,-196.52"/>
<polygon fill="midnightblue" stroke="midnightblue" points="1117.42,-198.11 1119.65,-187.75 1111.45,-194.46 1117.42,-198.11"/>
</g>
<!-- Node30 -->
<g id="node30" class="node">
<title>Node30</title>
<g id="a_node30"><a xlink:href="IPL_8hpp.html" target="_top" xlink:title=" ">
<polygon fill="white" stroke="black" points="960.5,-168.5 960.5,-187.5 1029.5,-187.5 1029.5,-168.5 960.5,-168.5"/>
<text text-anchor="middle" x="995" y="-175.5" font-family="Helvetica,sans-Serif" font-size="10.00">IPL/IPL.hpp</text>
</a>
</g>
</g>
<!-- Node27&#45;&gt;Node30 -->
<g id="edge66" class="edge">
<title>Node27&#45;&gt;Node30</title>
<path fill="none" stroke="midnightblue" d="M1076.42,-224.32C1061,-215.74 1037.19,-202.49 1019.29,-192.52"/>
<polygon fill="midnightblue" stroke="midnightblue" points="1020.99,-189.46 1010.55,-187.65 1017.58,-195.58 1020.99,-189.46"/>
</g>
<!-- Node28&#45;&gt;Node5 -->
<g id="edge61" class="edge">
<title>Node28&#45;&gt;Node5</title>
<path fill="none" stroke="midnightblue" d="M1117.2,-168.08C1093.89,-141.38 1024.43,-61.87 994.26,-27.32"/>
<polygon fill="midnightblue" stroke="midnightblue" points="996.7,-24.8 987.48,-19.57 991.43,-29.4 996.7,-24.8"/>
</g>
<!-- Node28&#45;&gt;Node8 -->
<g id="edge63" class="edge">
<title>Node28&#45;&gt;Node8</title>
<path fill="none" stroke="midnightblue" d="M1098.22,-168.44C1069.67,-159.32 1024.27,-144.81 992.46,-134.65"/>
<polygon fill="midnightblue" stroke="midnightblue" points="993.24,-131.23 982.65,-131.52 991.11,-137.89 993.24,-131.23"/>
</g>
<!-- Node29 -->
<g id="node29" class="node">
<title>Node29</title>
<g id="a_node29"><a xlink:title=" ">
<polygon fill="white" stroke="#bfbfbf" points="1108,-112.5 1108,-131.5 1150,-131.5 1150,-112.5 1108,-112.5"/>
<text text-anchor="middle" x="1129" y="-119.5" font-family="Helvetica,sans-Serif" font-size="10.00">array</text>
</a>
</g>
</g>
<!-- Node28&#45;&gt;Node29 -->
<g id="edge62" class="edge">
<title>Node28&#45;&gt;Node29</title>
<path fill="none" stroke="midnightblue" d="M1125.66,-168.08C1126.18,-161.01 1126.94,-150.86 1127.59,-141.99"/>
<polygon fill="midnightblue" stroke="midnightblue" points="1131.1,-141.98 1128.35,-131.75 1124.12,-141.47 1131.1,-141.98"/>
</g>
<!-- Node30&#45;&gt;Node8 -->
<g id="edge67" class="edge">
<title>Node30&#45;&gt;Node8</title>
<path fill="none" stroke="midnightblue" d="M988.56,-168.08C983.05,-160.46 974.97,-149.26 968.24,-139.94"/>
<polygon fill="midnightblue" stroke="midnightblue" points="971.01,-137.81 962.32,-131.75 965.34,-141.91 971.01,-137.81"/>
</g>
<!-- Node32 -->
<g id="node32" class="node">
<title>Node32</title>
<g id="a_node32"><a xlink:title=" ">
<polygon fill="white" stroke="#bfbfbf" points="1398.5,-224.5 1398.5,-243.5 1493.5,-243.5 1493.5,-224.5 1398.5,-224.5"/>
<text text-anchor="middle" x="1446" y="-231.5" font-family="Helvetica,sans-Serif" font-size="10.00">bits/exception.h</text>
</a>
</g>
</g>
<!-- Node31&#45;&gt;Node32 -->
<g id="edge71" class="edge">
<title>Node31&#45;&gt;Node32</title>
<path fill="none" stroke="midnightblue" d="M1446,-280.08C1446,-273.01 1446,-262.86 1446,-253.99"/>
<polygon fill="midnightblue" stroke="midnightblue" points="1449.5,-253.75 1446,-243.75 1442.5,-253.75 1449.5,-253.75"/>
</g>
<!-- Node33&#45;&gt;Node7 -->
<g id="edge73" class="edge">
<title>Node33&#45;&gt;Node7</title>
<path fill="none" stroke="midnightblue" d="M183.18,-168.25C191.44,-146.63 215.47,-89.95 252,-56 267.44,-41.65 288.32,-30.83 306.08,-23.4"/>
<polygon fill="midnightblue" stroke="midnightblue" points="307.57,-26.57 315.57,-19.62 304.98,-20.07 307.57,-26.57"/>
</g>
<!-- Node33&#45;&gt;Node8 -->
<g id="edge74" class="edge">
<title>Node33&#45;&gt;Node8</title>
<path fill="none" stroke="midnightblue" d="M238.08,-175.69C359.85,-172.45 650.89,-162.1 904.18,-132.09"/>
<polygon fill="midnightblue" stroke="midnightblue" points="904.8,-135.54 914.31,-130.88 903.97,-128.59 904.8,-135.54"/>
</g>
<!-- Node34&#45;&gt;Node7 -->
<g id="edge76" class="edge">
<title>Node34&#45;&gt;Node7</title>
<path fill="none" stroke="midnightblue" d="M263.21,-224.3C275.33,-191.49 318.4,-74.88 335.21,-29.38"/>
<polygon fill="midnightblue" stroke="midnightblue" points="338.54,-30.48 338.72,-19.88 331.97,-28.05 338.54,-30.48"/>
</g>
<!-- Node34&#45;&gt;Node16 -->
<g id="edge77" class="edge">
<title>Node34&#45;&gt;Node16</title>
<path fill="none" stroke="midnightblue" d="M283.86,-224.43C323.19,-210.62 404.33,-183.42 475,-168 550.65,-151.5 637.49,-139.92 702.94,-132.65"/>
<polygon fill="midnightblue" stroke="midnightblue" points="703.7,-136.09 713.26,-131.52 702.94,-129.13 703.7,-136.09"/>
</g>
<!-- Node34&#45;&gt;Node33 -->
<g id="edge78" class="edge">
<title>Node34&#45;&gt;Node33</title>
<path fill="none" stroke="midnightblue" d="M247.15,-224.32C234.78,-215.98 215.87,-203.21 201.26,-193.35"/>
<polygon fill="midnightblue" stroke="midnightblue" points="203.07,-190.35 192.82,-187.65 199.15,-196.15 203.07,-190.35"/>
</g>
<!-- Node35&#45;&gt;Node9 -->
<g id="edge81" class="edge">
<title>Node35&#45;&gt;Node9</title>
<path fill="none" stroke="midnightblue" d="M1679.2,-336.48C1703.87,-330.16 1730.67,-319.16 1749,-300 1769.81,-278.25 1768,-265.1 1768,-235 1768,-235 1768,-235 1768,-121 1768,-65.23 1345.94,-24.34 1224.39,-13.72"/>
<polygon fill="midnightblue" stroke="midnightblue" points="1224.49,-10.21 1214.23,-12.84 1223.89,-17.19 1224.49,-10.21"/>
</g>
<!-- Node35&#45;&gt;Node31 -->
<g id="edge84" class="edge">
<title>Node35&#45;&gt;Node31</title>
<path fill="none" stroke="midnightblue" d="M1589.9,-336.44C1561.01,-327.32 1515.08,-312.81 1482.89,-302.65"/>
<polygon fill="midnightblue" stroke="midnightblue" points="1483.56,-299.19 1472.97,-299.52 1481.45,-305.87 1483.56,-299.19"/>
</g>
<!-- Node36 -->
<g id="node36" class="node">
<title>Node36</title>
<g id="a_node36"><a xlink:title=" ">
<polygon fill="white" stroke="#bfbfbf" points="1551.5,-280.5 1551.5,-299.5 1616.5,-299.5 1616.5,-280.5 1551.5,-280.5"/>
<text text-anchor="middle" x="1584" y="-287.5" font-family="Helvetica,sans-Serif" font-size="10.00">exception</text>
</a>
</g>
</g>
<!-- Node35&#45;&gt;Node36 -->
<g id="edge80" class="edge">
<title>Node35&#45;&gt;Node36</title>
<path fill="none" stroke="midnightblue" d="M1611.55,-336.08C1606.99,-328.61 1600.33,-317.72 1594.71,-308.52"/>
<polygon fill="midnightblue" stroke="midnightblue" points="1597.55,-306.46 1589.35,-299.75 1591.58,-310.11 1597.55,-306.46"/>
</g>
<!-- Node37 -->
<g id="node37" class="node">
<title>Node37</title>
<g id="a_node37"><a xlink:title=" ">
<polygon fill="white" stroke="#bfbfbf" points="1634.5,-280.5 1634.5,-299.5 1665.5,-299.5 1665.5,-280.5 1634.5,-280.5"/>
<text text-anchor="middle" x="1650" y="-287.5" font-family="Helvetica,sans-Serif" font-size="10.00">ios</text>
</a>
</g>
</g>
<!-- Node35&#45;&gt;Node37 -->
<g id="edge82" class="edge">
<title>Node35&#45;&gt;Node37</title>
<path fill="none" stroke="midnightblue" d="M1622.45,-336.08C1627.01,-328.61 1633.67,-317.72 1639.29,-308.52"/>
<polygon fill="midnightblue" stroke="midnightblue" points="1642.42,-310.11 1644.65,-299.75 1636.45,-306.46 1642.42,-310.11"/>
</g>
<!-- Node38 -->
<g id="node38" class="node">
<title>Node38</title>
<g id="a_node38"><a xlink:title=" ">
<polygon fill="white" stroke="#bfbfbf" points="1684,-280.5 1684,-299.5 1740,-299.5 1740,-280.5 1684,-280.5"/>
<text text-anchor="middle" x="1712" y="-287.5" font-family="Helvetica,sans-Serif" font-size="10.00">sstream</text>
</a>
</g>
</g>
<!-- Node35&#45;&gt;Node38 -->
<g id="edge83" class="edge">
<title>Node35&#45;&gt;Node38</title>
<path fill="none" stroke="midnightblue" d="M1632.26,-336.32C1647.22,-327.82 1670.25,-314.73 1687.73,-304.8"/>
<polygon fill="midnightblue" stroke="midnightblue" points="1689.81,-307.64 1696.77,-299.65 1686.35,-301.55 1689.81,-307.64"/>
</g>
</g>
</svg>
