<?xml version="1.0" encoding="UTF-8" standalone="no"?>
<!DOCTYPE svg PUBLIC "-//W3C//DTD SVG 1.1//EN"
 "http://www.w3.org/Graphics/SVG/1.1/DTD/svg11.dtd">
<!-- Generated by graphviz version 2.43.0 (0)
 -->
<!-- Title: sources/Memory/MemoryShadow.hpp Pages: 1 -->
<svg width="702pt" height="162pt"
 viewBox="0.00 0.00 702.00 162.00" xmlns="http://www.w3.org/2000/svg" xmlns:xlink="http://www.w3.org/1999/xlink">
<g id="graph0" class="graph" transform="scale(1 1) rotate(0) translate(4 158)">
<title>sources/Memory/MemoryShadow.hpp</title>
<polygon fill="white" stroke="transparent" points="-4,4 -4,-158 698,-158 698,4 -4,4"/>
<!-- Node1 -->
<g id="node1" class="node">
<title>Node1</title>
<g id="a_node1"><a xlink:title=" ">
<polygon fill="#bfbfbf" stroke="black" points="260.5,-134.5 260.5,-153.5 460.5,-153.5 460.5,-134.5 260.5,-134.5"/>
<text text-anchor="middle" x="360.5" y="-141.5" font-family="Helvetica,sans-Serif" font-size="10.00">sources/Memory/MemoryShadow.hpp</text>
</a>
</g>
</g>
<!-- Node2 -->
<g id="node2" class="node">
<title>Node2</title>
<g id="a_node2"><a xlink:href="MemoryViewer_8cpp.html" target="_top" xlink:title=" ">
<polygon fill="white" stroke="black" points="29,-73 29,-92 230,-92 230,-73 29,-73"/>
<text text-anchor="middle" x="129.5" y="-80" font-family="Helvetica,sans-Serif" font-size="10.00">sources/Debugger/MemoryViewer.cpp</text>
</a>
</g>
</g>
<!-- Node1&#45;&gt;Node2 -->
<g id="edge1" class="edge">
<title>Node1&#45;&gt;Node2</title>
<path fill="none" stroke="midnightblue" d="M317.67,-131.97C272.82,-120.41 203.33,-102.52 162.54,-92.01"/>
<polygon fill="midnightblue" stroke="midnightblue" points="316.85,-135.37 327.4,-134.48 318.59,-128.59 316.85,-135.37"/>
</g>
<!-- Node3 -->
<g id="node3" class="node">
<title>Node3</title>
<g id="a_node3"><a xlink:href="MemoryBus_8cpp.html" target="_top" xlink:title=" ">
<polygon fill="white" stroke="black" points="0,-6 0,-25 179,-25 179,-6 0,-6"/>
<text text-anchor="middle" x="89.5" y="-13" font-family="Helvetica,sans-Serif" font-size="10.00">sources/Memory/MemoryBus.cpp</text>
</a>
</g>
</g>
<!-- Node1&#45;&gt;Node3 -->
<g id="edge2" class="edge">
<title>Node1&#45;&gt;Node3</title>
<path fill="none" stroke="midnightblue" d="M333.36,-129.81C316.8,-121.39 295.44,-109.86 277.5,-98 259.03,-85.79 257.94,-77.6 238.5,-67 202.29,-47.26 156.96,-33.23 125.86,-25.05"/>
<polygon fill="midnightblue" stroke="midnightblue" points="331.98,-133.03 342.49,-134.38 335.12,-126.77 331.98,-133.03"/>
</g>
<!-- Node4 -->
<g id="node4" class="node">
<title>Node4</title>
<g id="a_node4"><a xlink:href="RectangleShadow_8hpp.html" target="_top" xlink:title=" ">
<polygon fill="white" stroke="black" points="286,-67.5 286,-97.5 435,-97.5 435,-67.5 286,-67.5"/>
<text text-anchor="start" x="294" y="-85.5" font-family="Helvetica,sans-Serif" font-size="10.00">sources/Memory/Rectangle</text>
<text text-anchor="middle" x="360.5" y="-74.5" font-family="Helvetica,sans-Serif" font-size="10.00">Shadow.hpp</text>
</a>
</g>
</g>
<!-- Node1&#45;&gt;Node4 -->
<g id="edge3" class="edge">
<title>Node1&#45;&gt;Node4</title>
<path fill="none" stroke="midnightblue" d="M360.5,-124.23C360.5,-115.59 360.5,-105.5 360.5,-97.52"/>
<polygon fill="midnightblue" stroke="midnightblue" points="357,-124.48 360.5,-134.48 364,-124.48 357,-124.48"/>
</g>
<!-- Node6 -->
<g id="node6" class="node">
<title>Node6</title>
<g id="a_node6"><a xlink:href="testMemoryBus_8cpp.html" target="_top" xlink:title=" ">
<polygon fill="white" stroke="black" points="553,-6 553,-25 694,-25 694,-6 553,-6"/>
<text text-anchor="middle" x="623.5" y="-13" font-family="Helvetica,sans-Serif" font-size="10.00">tests/testMemoryBus.cpp</text>
</a>
</g>
</g>
<!-- Node1&#45;&gt;Node6 -->
<g id="edge9" class="edge">
<title>Node1&#45;&gt;Node6</title>
<path fill="none" stroke="midnightblue" d="M387.64,-129.81C404.2,-121.39 425.56,-109.86 443.5,-98 461.97,-85.79 463.15,-77.77 482.5,-67 517.26,-47.66 560.84,-33.4 590.27,-25.05"/>
<polygon fill="midnightblue" stroke="midnightblue" points="385.88,-126.77 378.51,-134.38 389.02,-133.03 385.88,-126.77"/>
</g>
<!-- Node8 -->
<g id="node8" class="node">
<title>Node8</title>
<g id="a_node8"><a xlink:href="MemoryShadow_8cpp.html" target="_top" xlink:title=" ">
<polygon fill="white" stroke="black" points="491,-73 491,-92 690,-92 690,-73 491,-73"/>
<text text-anchor="middle" x="590.5" y="-80" font-family="Helvetica,sans-Serif" font-size="10.00">sources/Memory/MemoryShadow.cpp</text>
</a>
</g>
</g>
<!-- Node1&#45;&gt;Node8 -->
<g id="edge8" class="edge">
<title>Node1&#45;&gt;Node8</title>
<path fill="none" stroke="midnightblue" d="M403.14,-131.97C447.8,-120.41 516.99,-102.52 557.61,-92.01"/>
<polygon fill="midnightblue" stroke="midnightblue" points="402.26,-128.58 393.45,-134.48 404.01,-135.36 402.26,-128.58"/>
</g>
<!-- Node4&#45;&gt;Node3 -->
<g id="edge4" class="edge">
<title>Node4&#45;&gt;Node3</title>
<path fill="none" stroke="midnightblue" d="M292,-65.07C238.85,-52.32 167.34,-35.17 125.06,-25.03"/>
<polygon fill="midnightblue" stroke="midnightblue" points="291.49,-68.55 302.03,-67.48 293.12,-61.74 291.49,-68.55"/>
</g>
<!-- Node5 -->
<g id="node5" class="node">
<title>Node5</title>
<g id="a_node5"><a xlink:href="RectangleShadow_8cpp.html" target="_top" xlink:title=" ">
<polygon fill="white" stroke="black" points="197,-0.5 197,-30.5 346,-30.5 346,-0.5 197,-0.5"/>
<text text-anchor="start" x="205" y="-18.5" font-family="Helvetica,sans-Serif" font-size="10.00">sources/Memory/Rectangle</text>
<text text-anchor="middle" x="271.5" y="-7.5" font-family="Helvetica,sans-Serif" font-size="10.00">Shadow.cpp</text>
</a>
</g>
</g>
<!-- Node4&#45;&gt;Node5 -->
<g id="edge5" class="edge">
<title>Node4&#45;&gt;Node5</title>
<path fill="none" stroke="midnightblue" d="M333.05,-61.45C319.36,-51.45 303.13,-39.6 290.77,-30.58"/>
<polygon fill="midnightblue" stroke="midnightblue" points="331.05,-64.32 341.19,-67.4 335.18,-58.67 331.05,-64.32"/>
</g>
<!-- Node4&#45;&gt;Node6 -->
<g id="edge6" class="edge">
<title>Node4&#45;&gt;Node6</title>
<path fill="none" stroke="midnightblue" d="M426.98,-65.07C478.56,-52.32 547.96,-35.17 588.99,-25.03"/>
<polygon fill="midnightblue" stroke="midnightblue" points="426.11,-61.68 417.24,-67.48 427.79,-68.47 426.11,-61.68"/>
</g>
<!-- Node7 -->
<g id="node7" class="node">
<title>Node7</title>
<g id="a_node7"><a xlink:href="testRectangleMemory_8cpp.html" target="_top" xlink:title=" ">
<polygon fill="white" stroke="black" points="364.5,-6 364.5,-25 534.5,-25 534.5,-6 364.5,-6"/>
<text text-anchor="middle" x="449.5" y="-13" font-family="Helvetica,sans-Serif" font-size="10.00">tests/testRectangleMemory.cpp</text>
</a>
</g>
</g>
<!-- Node4&#45;&gt;Node7 -->
<g id="edge7" class="edge">
<title>Node4&#45;&gt;Node7</title>
<path fill="none" stroke="midnightblue" d="M388.15,-61.31C404.86,-49.1 425.3,-34.18 437.85,-25.01"/>
<polygon fill="midnightblue" stroke="midnightblue" points="385.82,-58.67 379.81,-67.4 389.95,-64.32 385.82,-58.67"/>
</g>
</g>
</svg>
