<?xml version="1.0" encoding="UTF-8" standalone="no"?>
<!DOCTYPE svg PUBLIC "-//W3C//DTD SVG 1.1//EN"
 "http://www.w3.org/Graphics/SVG/1.1/DTD/svg11.dtd">
<!-- Generated by graphviz version 2.43.0 (0)
 -->
<!-- Title: sources/Debugger/MemoryViewer.hpp Pages: 1 -->
<svg width="901pt" height="252pt"
 viewBox="0.00 0.00 901.00 252.00" xmlns="http://www.w3.org/2000/svg" xmlns:xlink="http://www.w3.org/1999/xlink">
<g id="graph0" class="graph" transform="scale(1 1) rotate(0) translate(4 248)">
<title>sources/Debugger/MemoryViewer.hpp</title>
<polygon fill="white" stroke="transparent" points="-4,4 -4,-248 897,-248 897,4 -4,4"/>
<!-- Node1 -->
<g id="node1" class="node">
<title>Node1</title>
<g id="a_node1"><a xlink:title=" ">
<polygon fill="#bfbfbf" stroke="black" points="266,-224.5 266,-243.5 468,-243.5 468,-224.5 266,-224.5"/>
<text text-anchor="middle" x="367" y="-231.5" font-family="Helvetica,sans-Serif" font-size="10.00">sources/Debugger/MemoryViewer.hpp</text>
</a>
</g>
</g>
<!-- Node2 -->
<g id="node2" class="node">
<title>Node2</title>
<g id="a_node2"><a xlink:title=" ">
<polygon fill="white" stroke="#bfbfbf" points="32.5,-112.5 32.5,-131.5 173.5,-131.5 173.5,-112.5 32.5,-112.5"/>
<text text-anchor="middle" x="103" y="-119.5" font-family="Helvetica,sans-Serif" font-size="10.00">QtWidgets/QMainWindow</text>
</a>
</g>
</g>
<!-- Node1&#45;&gt;Node2 -->
<g id="edge1" class="edge">
<title>Node1&#45;&gt;Node2</title>
<path fill="none" stroke="midnightblue" d="M276.9,-224.49C240.4,-218.17 198.94,-207.17 165,-188 144.08,-176.19 125.89,-155.06 114.72,-140.1"/>
<polygon fill="midnightblue" stroke="midnightblue" points="117.38,-137.81 108.71,-131.72 111.69,-141.89 117.38,-137.81"/>
</g>
<!-- Node3 -->
<g id="node3" class="node">
<title>Node3</title>
<g id="a_node3"><a xlink:title=" ">
<polygon fill="white" stroke="#bfbfbf" points="174.5,-168.5 174.5,-187.5 287.5,-187.5 287.5,-168.5 174.5,-168.5"/>
<text text-anchor="middle" x="231" y="-175.5" font-family="Helvetica,sans-Serif" font-size="10.00">../../ui/ui_ramView.h</text>
</a>
</g>
</g>
<!-- Node1&#45;&gt;Node3 -->
<g id="edge2" class="edge">
<title>Node1&#45;&gt;Node3</title>
<path fill="none" stroke="midnightblue" d="M345.45,-224.44C322.97,-215.52 287.51,-201.44 262.02,-191.32"/>
<polygon fill="midnightblue" stroke="midnightblue" points="263.03,-187.95 252.45,-187.52 260.45,-194.46 263.03,-187.95"/>
</g>
<!-- Node4 -->
<g id="node4" class="node">
<title>Node4</title>
<g id="a_node4"><a xlink:title=" ">
<polygon fill="white" stroke="#bfbfbf" points="305.5,-168.5 305.5,-187.5 428.5,-187.5 428.5,-168.5 305.5,-168.5"/>
<text text-anchor="middle" x="367" y="-175.5" font-family="Helvetica,sans-Serif" font-size="10.00">../../ui/ui_gotoDialog.h</text>
</a>
</g>
</g>
<!-- Node1&#45;&gt;Node4 -->
<g id="edge3" class="edge">
<title>Node1&#45;&gt;Node4</title>
<path fill="none" stroke="midnightblue" d="M367,-224.08C367,-217.01 367,-206.86 367,-197.99"/>
<polygon fill="midnightblue" stroke="midnightblue" points="370.5,-197.75 367,-187.75 363.5,-197.75 370.5,-197.75"/>
</g>
<!-- Node5 -->
<g id="node5" class="node">
<title>Node5</title>
<g id="a_node5"><a xlink:href="Ram_8hpp.html" target="_top" xlink:title=" ">
<polygon fill="white" stroke="black" points="446.5,-168.5 446.5,-187.5 541.5,-187.5 541.5,-168.5 446.5,-168.5"/>
<text text-anchor="middle" x="494" y="-175.5" font-family="Helvetica,sans-Serif" font-size="10.00">../Ram/Ram.hpp</text>
</a>
</g>
</g>
<!-- Node1&#45;&gt;Node5 -->
<g id="edge4" class="edge">
<title>Node1&#45;&gt;Node5</title>
<path fill="none" stroke="midnightblue" d="M387.12,-224.44C408.02,-215.56 440.93,-201.56 464.72,-191.45"/>
<polygon fill="midnightblue" stroke="midnightblue" points="466.14,-194.65 473.97,-187.52 463.4,-188.21 466.14,-194.65"/>
</g>
<!-- Node10 -->
<g id="node10" class="node">
<title>Node10</title>
<g id="a_node10"><a xlink:title=" ">
<polygon fill="white" stroke="#bfbfbf" points="835,-0.5 835,-19.5 893,-19.5 893,-0.5 835,-0.5"/>
<text text-anchor="middle" x="864" y="-7.5" font-family="Helvetica,sans-Serif" font-size="10.00">memory</text>
</a>
</g>
</g>
<!-- Node1&#45;&gt;Node10 -->
<g id="edge28" class="edge">
<title>Node1&#45;&gt;Node10</title>
<path fill="none" stroke="midnightblue" d="M468.26,-230.07C563.52,-225.68 698.04,-214.82 743,-188 805.85,-150.51 843.53,-66.22 857.63,-29.11"/>
<polygon fill="midnightblue" stroke="midnightblue" points="860.96,-30.19 861.12,-19.6 854.39,-27.78 860.96,-30.19"/>
</g>
<!-- Node14 -->
<g id="node14" class="node">
<title>Node14</title>
<g id="a_node14"><a xlink:href="MemoryBus_8hpp.html" target="_top" xlink:title=" ">
<polygon fill="white" stroke="black" points="584.5,-168.5 584.5,-187.5 733.5,-187.5 733.5,-168.5 584.5,-168.5"/>
<text text-anchor="middle" x="659" y="-175.5" font-family="Helvetica,sans-Serif" font-size="10.00">../Memory/MemoryBus.hpp</text>
</a>
</g>
</g>
<!-- Node1&#45;&gt;Node14 -->
<g id="edge14" class="edge">
<title>Node1&#45;&gt;Node14</title>
<path fill="none" stroke="midnightblue" d="M413.27,-224.44C464.74,-214.92 547.89,-199.55 603,-189.36"/>
<polygon fill="midnightblue" stroke="midnightblue" points="603.75,-192.78 612.95,-187.52 602.48,-185.89 603.75,-192.78"/>
</g>
<!-- Node16 -->
<g id="node16" class="node">
<title>Node16</title>
<g id="a_node16"><a xlink:href="ClosableWindow_8hpp.html" target="_top" xlink:title=" ">
<polygon fill="white" stroke="black" points="0,-168.5 0,-187.5 118,-187.5 118,-168.5 0,-168.5"/>
<text text-anchor="middle" x="59" y="-175.5" font-family="Helvetica,sans-Serif" font-size="10.00">ClosableWindow.hpp</text>
</a>
</g>
</g>
<!-- Node1&#45;&gt;Node16 -->
<g id="edge26" class="edge">
<title>Node1&#45;&gt;Node16</title>
<path fill="none" stroke="midnightblue" d="M318.2,-224.44C263.79,-214.9 175.83,-199.48 117.71,-189.29"/>
<polygon fill="midnightblue" stroke="midnightblue" points="118.03,-185.8 107.58,-187.52 116.82,-192.69 118.03,-185.8"/>
</g>
<!-- Node6 -->
<g id="node6" class="node">
<title>Node6</title>
<g id="a_node6"><a xlink:href="ARectangleMemory_8hpp.html" target="_top" xlink:title=" ">
<polygon fill="white" stroke="black" points="376.5,-112.5 376.5,-131.5 561.5,-131.5 561.5,-112.5 376.5,-112.5"/>
<text text-anchor="middle" x="469" y="-119.5" font-family="Helvetica,sans-Serif" font-size="10.00">../Memory/ARectangleMemory.hpp</text>
</a>
</g>
</g>
<!-- Node5&#45;&gt;Node6 -->
<g id="edge5" class="edge">
<title>Node5&#45;&gt;Node6</title>
<path fill="none" stroke="midnightblue" d="M489.87,-168.08C486.49,-160.77 481.58,-150.18 477.38,-141.1"/>
<polygon fill="midnightblue" stroke="midnightblue" points="480.43,-139.36 473.05,-131.75 474.08,-142.3 480.43,-139.36"/>
</g>
<!-- Node11 -->
<g id="node11" class="node">
<title>Node11</title>
<g id="a_node11"><a xlink:title=" ">
<polygon fill="white" stroke="#bfbfbf" points="347,-0.5 347,-19.5 391,-19.5 391,-0.5 347,-0.5"/>
<text text-anchor="middle" x="369" y="-7.5" font-family="Helvetica,sans-Serif" font-size="10.00">string</text>
</a>
</g>
</g>
<!-- Node5&#45;&gt;Node11 -->
<g id="edge13" class="edge">
<title>Node5&#45;&gt;Node11</title>
<path fill="none" stroke="midnightblue" d="M455.18,-168.43C421.81,-160.18 377.46,-146.81 367,-132 345.36,-101.37 354.87,-54.63 362.61,-29.13"/>
<polygon fill="midnightblue" stroke="midnightblue" points="365.94,-30.21 365.72,-19.62 359.29,-28.03 365.94,-30.21"/>
</g>
<!-- Node7 -->
<g id="node7" class="node">
<title>Node7</title>
<g id="a_node7"><a xlink:href="IMemory_8hpp.html" target="_top" xlink:title=" ">
<polygon fill="white" stroke="black" points="532,-56.5 532,-75.5 612,-75.5 612,-56.5 532,-56.5"/>
<text text-anchor="middle" x="572" y="-63.5" font-family="Helvetica,sans-Serif" font-size="10.00">IMemory.hpp</text>
</a>
</g>
</g>
<!-- Node6&#45;&gt;Node7 -->
<g id="edge6" class="edge">
<title>Node6&#45;&gt;Node7</title>
<path fill="none" stroke="midnightblue" d="M485.55,-112.32C501.99,-103.7 527.43,-90.36 546.47,-80.39"/>
<polygon fill="midnightblue" stroke="midnightblue" points="548.26,-83.4 555.49,-75.65 545.01,-77.2 548.26,-83.4"/>
</g>
<!-- Node8 -->
<g id="node8" class="node">
<title>Node8</title>
<g id="a_node8"><a xlink:title=" ">
<polygon fill="white" stroke="#bfbfbf" points="767,-0.5 767,-19.5 817,-19.5 817,-0.5 767,-0.5"/>
<text text-anchor="middle" x="792" y="-7.5" font-family="Helvetica,sans-Serif" font-size="10.00">cstdint</text>
</a>
</g>
</g>
<!-- Node7&#45;&gt;Node8 -->
<g id="edge7" class="edge">
<title>Node7&#45;&gt;Node8</title>
<path fill="none" stroke="midnightblue" d="M608.41,-56.43C643.9,-48.03 699.63,-34.69 756.83,-20.26"/>
<polygon fill="midnightblue" stroke="midnightblue" points="757.93,-23.59 766.76,-17.74 756.21,-16.81 757.93,-23.59"/>
</g>
<!-- Node9 -->
<g id="node9" class="node">
<title>Node9</title>
<g id="a_node9"><a xlink:title=" ">
<polygon fill="white" stroke="#bfbfbf" points="409.5,-0.5 409.5,-19.5 456.5,-19.5 456.5,-0.5 409.5,-0.5"/>
<text text-anchor="middle" x="433" y="-7.5" font-family="Helvetica,sans-Serif" font-size="10.00">vector</text>
</a>
</g>
</g>
<!-- Node7&#45;&gt;Node9 -->
<g id="edge8" class="edge">
<title>Node7&#45;&gt;Node9</title>
<path fill="none" stroke="midnightblue" d="M549.98,-56.44C526.9,-47.48 490.44,-33.31 464.36,-23.18"/>
<polygon fill="midnightblue" stroke="midnightblue" points="465.51,-19.88 454.92,-19.52 462.98,-26.4 465.51,-19.88"/>
</g>
<!-- Node7&#45;&gt;Node10 -->
<g id="edge9" class="edge">
<title>Node7&#45;&gt;Node10</title>
<path fill="none" stroke="midnightblue" d="M612.17,-58.61C660.39,-50.78 743.94,-36.71 825.11,-20.09"/>
<polygon fill="midnightblue" stroke="midnightblue" points="825.91,-23.5 834.99,-18.05 824.49,-16.64 825.91,-23.5"/>
</g>
<!-- Node7&#45;&gt;Node11 -->
<g id="edge10" class="edge">
<title>Node7&#45;&gt;Node11</title>
<path fill="none" stroke="midnightblue" d="M538.31,-56.47C505.62,-48.13 454.36,-34.89 401.26,-20.3"/>
<polygon fill="midnightblue" stroke="midnightblue" points="401.9,-16.84 391.33,-17.56 400.04,-23.59 401.9,-16.84"/>
</g>
<!-- Node12 -->
<g id="node12" class="node">
<title>Node12</title>
<g id="a_node12"><a xlink:href="Int24_8hpp.html" target="_top" xlink:title=" ">
<polygon fill="white" stroke="black" points="475,-0.5 475,-19.5 585,-19.5 585,-0.5 475,-0.5"/>
<text text-anchor="middle" x="530" y="-7.5" font-family="Helvetica,sans-Serif" font-size="10.00">../Models/Int24.hpp</text>
</a>
</g>
</g>
<!-- Node7&#45;&gt;Node12 -->
<g id="edge11" class="edge">
<title>Node7&#45;&gt;Node12</title>
<path fill="none" stroke="midnightblue" d="M565.06,-56.08C559.07,-48.38 550.25,-37.03 542.95,-27.65"/>
<polygon fill="midnightblue" stroke="midnightblue" points="545.71,-25.5 536.81,-19.75 540.18,-29.79 545.71,-25.5"/>
</g>
<!-- Node13 -->
<g id="node13" class="node">
<title>Node13</title>
<g id="a_node13"><a xlink:href="Components_8hpp.html" target="_top" xlink:title=" ">
<polygon fill="white" stroke="black" points="603,-0.5 603,-19.5 749,-19.5 749,-0.5 603,-0.5"/>
<text text-anchor="middle" x="676" y="-7.5" font-family="Helvetica,sans-Serif" font-size="10.00">../Models/Components.hpp</text>
</a>
</g>
</g>
<!-- Node7&#45;&gt;Node13 -->
<g id="edge12" class="edge">
<title>Node7&#45;&gt;Node13</title>
<path fill="none" stroke="midnightblue" d="M588.71,-56.32C605.31,-47.7 631,-34.36 650.22,-24.39"/>
<polygon fill="midnightblue" stroke="midnightblue" points="652.07,-27.37 659.33,-19.65 648.84,-21.16 652.07,-27.37"/>
</g>
<!-- Node14&#45;&gt;Node8 -->
<g id="edge15" class="edge">
<title>Node14&#45;&gt;Node8</title>
<path fill="none" stroke="midnightblue" d="M670.28,-168.42C681.14,-159.86 697.67,-146.01 710,-132 739.76,-98.18 767.68,-53.07 782,-28.6"/>
<polygon fill="midnightblue" stroke="midnightblue" points="785.15,-30.15 787.11,-19.74 779.08,-26.65 785.15,-30.15"/>
</g>
<!-- Node14&#45;&gt;Node9 -->
<g id="edge16" class="edge">
<title>Node14&#45;&gt;Node9</title>
<path fill="none" stroke="midnightblue" d="M648.82,-168.42C632.79,-155.18 600.35,-129.47 570,-112 535.5,-92.15 519.9,-99.81 488,-76 470.12,-62.66 454.2,-42.45 444.15,-28.11"/>
<polygon fill="midnightblue" stroke="midnightblue" points="446.94,-25.99 438.43,-19.67 441.14,-29.91 446.94,-25.99"/>
</g>
<!-- Node14&#45;&gt;Node10 -->
<g id="edge17" class="edge">
<title>Node14&#45;&gt;Node10</title>
<path fill="none" stroke="midnightblue" d="M674.94,-168.34C690.12,-159.83 713.35,-146.09 732,-132 777.23,-97.81 825.01,-50.92 848.75,-26.78"/>
<polygon fill="midnightblue" stroke="midnightblue" points="851.36,-29.12 855.84,-19.52 846.35,-24.23 851.36,-29.12"/>
</g>
<!-- Node15 -->
<g id="node15" class="node">
<title>Node15</title>
<g id="a_node15"><a xlink:href="AMemory_8hpp.html" target="_top" xlink:title=" ">
<polygon fill="white" stroke="black" points="617.5,-112.5 617.5,-131.5 700.5,-131.5 700.5,-112.5 617.5,-112.5"/>
<text text-anchor="middle" x="659" y="-119.5" font-family="Helvetica,sans-Serif" font-size="10.00">AMemory.hpp</text>
</a>
</g>
</g>
<!-- Node14&#45;&gt;Node15 -->
<g id="edge18" class="edge">
<title>Node14&#45;&gt;Node15</title>
<path fill="none" stroke="midnightblue" d="M659,-168.08C659,-161.01 659,-150.86 659,-141.99"/>
<polygon fill="midnightblue" stroke="midnightblue" points="662.5,-141.75 659,-131.75 655.5,-141.75 662.5,-141.75"/>
</g>
<!-- Node15&#45;&gt;Node7 -->
<g id="edge25" class="edge">
<title>Node15&#45;&gt;Node7</title>
<path fill="none" stroke="midnightblue" d="M645.02,-112.32C631.45,-103.9 610.62,-90.97 594.68,-81.07"/>
<polygon fill="midnightblue" stroke="midnightblue" points="596.29,-77.95 585.94,-75.65 592.59,-83.9 596.29,-77.95"/>
</g>
<!-- Node15&#45;&gt;Node8 -->
<g id="edge19" class="edge">
<title>Node15&#45;&gt;Node8</title>
<path fill="none" stroke="midnightblue" d="M669.44,-112.37C691.97,-93.73 745.41,-49.53 773.7,-26.13"/>
<polygon fill="midnightblue" stroke="midnightblue" points="776.14,-28.66 781.61,-19.59 771.68,-23.27 776.14,-28.66"/>
</g>
<!-- Node15&#45;&gt;Node9 -->
<g id="edge20" class="edge">
<title>Node15&#45;&gt;Node9</title>
<path fill="none" stroke="midnightblue" d="M623.45,-112.45C595.29,-104.92 555.44,-92.58 523,-76 495.86,-62.13 467.91,-40.59 450.51,-26.16"/>
<polygon fill="midnightblue" stroke="midnightblue" points="452.76,-23.48 442.86,-19.7 448.24,-28.83 452.76,-23.48"/>
</g>
<!-- Node15&#45;&gt;Node10 -->
<g id="edge21" class="edge">
<title>Node15&#45;&gt;Node10</title>
<path fill="none" stroke="midnightblue" d="M675.09,-112.37C710.71,-93.25 796.48,-47.23 839.1,-24.36"/>
<polygon fill="midnightblue" stroke="midnightblue" points="840.83,-27.4 847.99,-19.59 837.52,-21.24 840.83,-27.4"/>
</g>
<!-- Node15&#45;&gt;Node11 -->
<g id="edge22" class="edge">
<title>Node15&#45;&gt;Node11</title>
<path fill="none" stroke="midnightblue" d="M617.33,-113C582.14,-105.55 530.79,-93.02 488,-76 452.43,-61.85 414.04,-39.45 390.76,-24.99"/>
<polygon fill="midnightblue" stroke="midnightblue" points="392.37,-21.87 382.05,-19.51 388.65,-27.8 392.37,-21.87"/>
</g>
<!-- Node15&#45;&gt;Node12 -->
<g id="edge23" class="edge">
<title>Node15&#45;&gt;Node12</title>
<path fill="none" stroke="midnightblue" d="M655.85,-112.36C650.53,-98.81 638.59,-72.4 621,-56 605.45,-41.5 584.34,-30.67 566.37,-23.27"/>
<polygon fill="midnightblue" stroke="midnightblue" points="567.35,-19.9 556.76,-19.52 564.8,-26.42 567.35,-19.9"/>
</g>
<!-- Node15&#45;&gt;Node13 -->
<g id="edge24" class="edge">
<title>Node15&#45;&gt;Node13</title>
<path fill="none" stroke="midnightblue" d="M660.33,-112.37C663.08,-94.62 669.41,-53.67 673.13,-29.6"/>
<polygon fill="midnightblue" stroke="midnightblue" points="676.6,-30.01 674.67,-19.59 669.69,-28.94 676.6,-30.01"/>
</g>
<!-- Node16&#45;&gt;Node2 -->
<g id="edge27" class="edge">
<title>Node16&#45;&gt;Node2</title>
<path fill="none" stroke="midnightblue" d="M66.27,-168.08C72.54,-160.38 81.79,-149.03 89.43,-139.65"/>
<polygon fill="midnightblue" stroke="midnightblue" points="92.27,-141.71 95.87,-131.75 86.84,-137.29 92.27,-141.71"/>
</g>
</g>
</svg>
