<?xml version="1.0" encoding="UTF-8" standalone="no"?>
<!DOCTYPE svg PUBLIC "-//W3C//DTD SVG 1.1//EN"
 "http://www.w3.org/Graphics/SVG/1.1/DTD/svg11.dtd">
<!-- Generated by graphviz version 2.43.0 (0)
 -->
<!-- Title: sources/Memory/MemoryBus.hpp Pages: 1 -->
<svg width="595pt" height="196pt"
 viewBox="0.00 0.00 595.00 196.00" xmlns="http://www.w3.org/2000/svg" xmlns:xlink="http://www.w3.org/1999/xlink">
<g id="graph0" class="graph" transform="scale(1 1) rotate(0) translate(4 192)">
<title>sources/Memory/MemoryBus.hpp</title>
<polygon fill="white" stroke="transparent" points="-4,4 -4,-192 591,-192 591,4 -4,4"/>
<!-- Node1 -->
<g id="node1" class="node">
<title>Node1</title>
<g id="a_node1"><a xlink:title=" ">
<polygon fill="#bfbfbf" stroke="black" points="0,-168.5 0,-187.5 180,-187.5 180,-168.5 0,-168.5"/>
<text text-anchor="middle" x="90" y="-175.5" font-family="Helvetica,sans-Serif" font-size="10.00">sources/Memory/MemoryBus.hpp</text>
</a>
</g>
</g>
<!-- Node2 -->
<g id="node2" class="node">
<title>Node2</title>
<g id="a_node2"><a xlink:title=" ">
<polygon fill="white" stroke="#bfbfbf" points="41,-0.5 41,-19.5 91,-19.5 91,-0.5 41,-0.5"/>
<text text-anchor="middle" x="66" y="-7.5" font-family="Helvetica,sans-Serif" font-size="10.00">cstdint</text>
</a>
</g>
</g>
<!-- Node1&#45;&gt;Node2 -->
<g id="edge1" class="edge">
<title>Node1&#45;&gt;Node2</title>
<path fill="none" stroke="midnightblue" d="M74.22,-168.47C61.8,-160.77 45.39,-148.18 38,-132 23.96,-101.28 28.72,-88.48 38,-56 40.9,-45.84 46.83,-35.75 52.49,-27.7"/>
<polygon fill="midnightblue" stroke="midnightblue" points="55.38,-29.69 58.59,-19.59 49.78,-25.48 55.38,-29.69"/>
</g>
<!-- Node3 -->
<g id="node3" class="node">
<title>Node3</title>
<g id="a_node3"><a xlink:title=" ">
<polygon fill="white" stroke="#bfbfbf" points="109.5,-0.5 109.5,-19.5 156.5,-19.5 156.5,-0.5 109.5,-0.5"/>
<text text-anchor="middle" x="133" y="-7.5" font-family="Helvetica,sans-Serif" font-size="10.00">vector</text>
</a>
</g>
</g>
<!-- Node1&#45;&gt;Node3 -->
<g id="edge2" class="edge">
<title>Node1&#45;&gt;Node3</title>
<path fill="none" stroke="midnightblue" d="M91.1,-168.34C93.78,-148.28 101.38,-97.15 114,-56 116.8,-46.88 120.81,-37.08 124.42,-28.97"/>
<polygon fill="midnightblue" stroke="midnightblue" points="127.66,-30.31 128.67,-19.77 121.3,-27.38 127.66,-30.31"/>
</g>
<!-- Node4 -->
<g id="node4" class="node">
<title>Node4</title>
<g id="a_node4"><a xlink:title=" ">
<polygon fill="white" stroke="#bfbfbf" points="175,-0.5 175,-19.5 233,-19.5 233,-0.5 175,-0.5"/>
<text text-anchor="middle" x="204" y="-7.5" font-family="Helvetica,sans-Serif" font-size="10.00">memory</text>
</a>
</g>
</g>
<!-- Node1&#45;&gt;Node4 -->
<g id="edge3" class="edge">
<title>Node1&#45;&gt;Node4</title>
<path fill="none" stroke="midnightblue" d="M96.13,-168.08C114.31,-141.61 168.15,-63.21 192.18,-28.21"/>
<polygon fill="midnightblue" stroke="midnightblue" points="195.34,-29.79 198.12,-19.57 189.57,-25.83 195.34,-29.79"/>
</g>
<!-- Node5 -->
<g id="node5" class="node">
<title>Node5</title>
<g id="a_node5"><a xlink:href="AMemory_8hpp.html" target="_top" xlink:title=" ">
<polygon fill="white" stroke="black" points="196.5,-112.5 196.5,-131.5 279.5,-131.5 279.5,-112.5 196.5,-112.5"/>
<text text-anchor="middle" x="238" y="-119.5" font-family="Helvetica,sans-Serif" font-size="10.00">AMemory.hpp</text>
</a>
</g>
</g>
<!-- Node1&#45;&gt;Node5 -->
<g id="edge4" class="edge">
<title>Node1&#45;&gt;Node5</title>
<path fill="none" stroke="midnightblue" d="M113.45,-168.44C138.13,-159.44 177.19,-145.19 204.98,-135.05"/>
<polygon fill="midnightblue" stroke="midnightblue" points="206.46,-138.23 214.66,-131.52 204.06,-131.66 206.46,-138.23"/>
</g>
<!-- Node5&#45;&gt;Node2 -->
<g id="edge5" class="edge">
<title>Node5&#45;&gt;Node2</title>
<path fill="none" stroke="midnightblue" d="M224.5,-112.37C194.99,-93.49 124.46,-48.38 88.26,-25.24"/>
<polygon fill="midnightblue" stroke="midnightblue" points="89.74,-22.03 79.43,-19.59 85.97,-27.93 89.74,-22.03"/>
</g>
<!-- Node5&#45;&gt;Node3 -->
<g id="edge6" class="edge">
<title>Node5&#45;&gt;Node3</title>
<path fill="none" stroke="midnightblue" d="M229.76,-112.37C212.2,-93.97 170.87,-50.67 148.32,-27.05"/>
<polygon fill="midnightblue" stroke="midnightblue" points="150.64,-24.41 141.2,-19.59 145.57,-29.24 150.64,-24.41"/>
</g>
<!-- Node5&#45;&gt;Node4 -->
<g id="edge7" class="edge">
<title>Node5&#45;&gt;Node4</title>
<path fill="none" stroke="midnightblue" d="M235.03,-112.4C231.93,-103.37 226.98,-88.73 223,-76 218.12,-60.4 212.94,-42.56 209.22,-29.53"/>
<polygon fill="midnightblue" stroke="midnightblue" points="212.57,-28.53 206.48,-19.86 205.84,-30.44 212.57,-28.53"/>
</g>
<!-- Node6 -->
<g id="node6" class="node">
<title>Node6</title>
<g id="a_node6"><a xlink:title=" ">
<polygon fill="white" stroke="#bfbfbf" points="251,-0.5 251,-19.5 295,-19.5 295,-0.5 251,-0.5"/>
<text text-anchor="middle" x="273" y="-7.5" font-family="Helvetica,sans-Serif" font-size="10.00">string</text>
</a>
</g>
</g>
<!-- Node5&#45;&gt;Node6 -->
<g id="edge8" class="edge">
<title>Node5&#45;&gt;Node6</title>
<path fill="none" stroke="midnightblue" d="M270.18,-112.49C288.54,-105.8 310.02,-94.45 321,-76 331.82,-57.83 313.26,-38.52 296.16,-25.72"/>
<polygon fill="midnightblue" stroke="midnightblue" points="297.72,-22.53 287.52,-19.65 293.7,-28.26 297.72,-22.53"/>
</g>
<!-- Node7 -->
<g id="node7" class="node">
<title>Node7</title>
<g id="a_node7"><a xlink:href="Int24_8hpp.html" target="_top" xlink:title=" ">
<polygon fill="white" stroke="black" points="313,-0.5 313,-19.5 423,-19.5 423,-0.5 313,-0.5"/>
<text text-anchor="middle" x="368" y="-7.5" font-family="Helvetica,sans-Serif" font-size="10.00">../Models/Int24.hpp</text>
</a>
</g>
</g>
<!-- Node5&#45;&gt;Node7 -->
<g id="edge9" class="edge">
<title>Node5&#45;&gt;Node7</title>
<path fill="none" stroke="midnightblue" d="M270.79,-112.46C291.88,-105.56 318.68,-93.99 337,-76 350.08,-63.16 358.35,-43.7 363.02,-29.42"/>
<polygon fill="midnightblue" stroke="midnightblue" points="366.42,-30.29 365.92,-19.71 359.71,-28.29 366.42,-30.29"/>
</g>
<!-- Node8 -->
<g id="node8" class="node">
<title>Node8</title>
<g id="a_node8"><a xlink:href="Components_8hpp.html" target="_top" xlink:title=" ">
<polygon fill="white" stroke="black" points="441,-0.5 441,-19.5 587,-19.5 587,-0.5 441,-0.5"/>
<text text-anchor="middle" x="514" y="-7.5" font-family="Helvetica,sans-Serif" font-size="10.00">../Models/Components.hpp</text>
</a>
</g>
</g>
<!-- Node5&#45;&gt;Node8 -->
<g id="edge10" class="edge">
<title>Node5&#45;&gt;Node8</title>
<path fill="none" stroke="midnightblue" d="M261.55,-112.45C285.82,-103.58 324.69,-89.18 358,-76 402.31,-58.47 453.19,-37.02 484.47,-23.68"/>
<polygon fill="midnightblue" stroke="midnightblue" points="486.08,-26.79 493.9,-19.65 483.33,-20.36 486.08,-26.79"/>
</g>
<!-- Node9 -->
<g id="node9" class="node">
<title>Node9</title>
<g id="a_node9"><a xlink:href="IMemory_8hpp.html" target="_top" xlink:title=" ">
<polygon fill="white" stroke="black" points="232,-56.5 232,-75.5 312,-75.5 312,-56.5 232,-56.5"/>
<text text-anchor="middle" x="272" y="-63.5" font-family="Helvetica,sans-Serif" font-size="10.00">IMemory.hpp</text>
</a>
</g>
</g>
<!-- Node5&#45;&gt;Node9 -->
<g id="edge11" class="edge">
<title>Node5&#45;&gt;Node9</title>
<path fill="none" stroke="midnightblue" d="M243.61,-112.08C248.37,-104.53 255.32,-93.49 261.15,-84.23"/>
<polygon fill="midnightblue" stroke="midnightblue" points="264.12,-86.08 266.49,-75.75 258.2,-82.35 264.12,-86.08"/>
</g>
<!-- Node9&#45;&gt;Node2 -->
<g id="edge12" class="edge">
<title>Node9&#45;&gt;Node2</title>
<path fill="none" stroke="midnightblue" d="M239.34,-56.48C206.7,-47.97 154.81,-34.41 100.96,-20.25"/>
<polygon fill="midnightblue" stroke="midnightblue" points="101.81,-16.85 91.25,-17.69 100.03,-23.62 101.81,-16.85"/>
</g>
<!-- Node9&#45;&gt;Node3 -->
<g id="edge13" class="edge">
<title>Node9&#45;&gt;Node3</title>
<path fill="none" stroke="midnightblue" d="M249.98,-56.44C226.9,-47.48 190.44,-33.31 164.36,-23.18"/>
<polygon fill="midnightblue" stroke="midnightblue" points="165.51,-19.88 154.92,-19.52 162.98,-26.4 165.51,-19.88"/>
</g>
<!-- Node9&#45;&gt;Node4 -->
<g id="edge14" class="edge">
<title>Node9&#45;&gt;Node4</title>
<path fill="none" stroke="midnightblue" d="M261.07,-56.32C250.83,-48.18 235.28,-35.84 223,-26.09"/>
<polygon fill="midnightblue" stroke="midnightblue" points="225.13,-23.31 215.12,-19.83 220.78,-28.79 225.13,-23.31"/>
</g>
<!-- Node9&#45;&gt;Node6 -->
<g id="edge15" class="edge">
<title>Node9&#45;&gt;Node6</title>
<path fill="none" stroke="midnightblue" d="M272.17,-56.08C272.3,-49.01 272.48,-38.86 272.65,-29.99"/>
<polygon fill="midnightblue" stroke="midnightblue" points="276.15,-29.81 272.84,-19.75 269.15,-29.68 276.15,-29.81"/>
</g>
<!-- Node9&#45;&gt;Node7 -->
<g id="edge16" class="edge">
<title>Node9&#45;&gt;Node7</title>
<path fill="none" stroke="midnightblue" d="M287.42,-56.32C302.54,-47.82 325.82,-34.73 343.47,-24.8"/>
<polygon fill="midnightblue" stroke="midnightblue" points="345.61,-27.61 352.61,-19.65 342.18,-21.51 345.61,-27.61"/>
</g>
<!-- Node9&#45;&gt;Node8 -->
<g id="edge17" class="edge">
<title>Node9&#45;&gt;Node8</title>
<path fill="none" stroke="midnightblue" d="M310.35,-56.44C352.47,-47.04 420.21,-31.93 465.87,-21.74"/>
<polygon fill="midnightblue" stroke="midnightblue" points="466.84,-25.11 475.83,-19.52 465.31,-18.28 466.84,-25.11"/>
</g>
</g>
</svg>
