<?xml version="1.0" encoding="UTF-8" standalone="no"?>
<!DOCTYPE svg PUBLIC "-//W3C//DTD SVG 1.1//EN"
 "http://www.w3.org/Graphics/SVG/1.1/DTD/svg11.dtd">
<!-- Generated by graphviz version 2.43.0 (0)
 -->
<!-- Title: sources/Debugger/MemoryBusDebug.cpp Pages: 1 -->
<svg width="1968pt" height="431pt"
 viewBox="0.00 0.00 1967.50 431.00" xmlns="http://www.w3.org/2000/svg" xmlns:xlink="http://www.w3.org/1999/xlink">
<g id="graph0" class="graph" transform="scale(1 1) rotate(0) translate(4 427)">
<title>sources/Debugger/MemoryBusDebug.cpp</title>
<polygon fill="white" stroke="transparent" points="-4,4 -4,-427 1963.5,-427 1963.5,4 -4,4"/>
<!-- Node1 -->
<g id="node1" class="node">
<title>Node1</title>
<g id="a_node1"><a xlink:title=" ">
<polygon fill="#bfbfbf" stroke="black" points="1462.5,-392.5 1462.5,-422.5 1628.5,-422.5 1628.5,-392.5 1462.5,-392.5"/>
<text text-anchor="start" x="1470.5" y="-410.5" font-family="Helvetica,sans-Serif" font-size="10.00">sources/Debugger/MemoryBus</text>
<text text-anchor="middle" x="1545.5" y="-399.5" font-family="Helvetica,sans-Serif" font-size="10.00">Debug.cpp</text>
</a>
</g>
</g>
<!-- Node2 -->
<g id="node2" class="node">
<title>Node2</title>
<g id="a_node2"><a xlink:href="MemoryBusDebug_8hpp.html" target="_top" xlink:title=" ">
<polygon fill="white" stroke="black" points="286.5,-336.5 286.5,-355.5 414.5,-355.5 414.5,-336.5 286.5,-336.5"/>
<text text-anchor="middle" x="350.5" y="-343.5" font-family="Helvetica,sans-Serif" font-size="10.00">MemoryBusDebug.hpp</text>
</a>
</g>
</g>
<!-- Node1&#45;&gt;Node2 -->
<g id="edge1" class="edge">
<title>Node1&#45;&gt;Node2</title>
<path fill="none" stroke="midnightblue" d="M1462.42,-402.36C1240.44,-391.31 636.09,-361.22 424.7,-350.69"/>
<polygon fill="midnightblue" stroke="midnightblue" points="424.8,-347.2 414.63,-350.19 424.45,-354.19 424.8,-347.2"/>
</g>
<!-- Node16 -->
<g id="node16" class="node">
<title>Node16</title>
<g id="a_node16"><a xlink:href="SNES_8hpp.html" target="_top" xlink:title=" ">
<polygon fill="white" stroke="black" points="1140.5,-336.5 1140.5,-355.5 1212.5,-355.5 1212.5,-336.5 1140.5,-336.5"/>
<text text-anchor="middle" x="1176.5" y="-343.5" font-family="Helvetica,sans-Serif" font-size="10.00">../SNES.hpp</text>
</a>
</g>
</g>
<!-- Node1&#45;&gt;Node16 -->
<g id="edge25" class="edge">
<title>Node1&#45;&gt;Node16</title>
<path fill="none" stroke="midnightblue" d="M1462.23,-393.07C1388.08,-381.12 1282.34,-364.07 1222.48,-354.41"/>
<polygon fill="midnightblue" stroke="midnightblue" points="1222.99,-350.95 1212.56,-352.81 1221.88,-357.86 1222.99,-350.95"/>
</g>
<!-- Node36 -->
<g id="node36" class="node">
<title>Node36</title>
<g id="a_node36"><a xlink:href="Utility_8hpp.html" target="_top" xlink:title=" ">
<polygon fill="white" stroke="black" points="1840.5,-336.5 1840.5,-355.5 1948.5,-355.5 1948.5,-336.5 1840.5,-336.5"/>
<text text-anchor="middle" x="1894.5" y="-343.5" font-family="Helvetica,sans-Serif" font-size="10.00">../Utility/Utility.hpp</text>
</a>
</g>
</g>
<!-- Node1&#45;&gt;Node36 -->
<g id="edge76" class="edge">
<title>Node1&#45;&gt;Node36</title>
<path fill="none" stroke="midnightblue" d="M1627.77,-392.47C1691.26,-381.65 1777.62,-366.93 1834.66,-357.2"/>
<polygon fill="midnightblue" stroke="midnightblue" points="1835.34,-360.64 1844.61,-355.51 1834.16,-353.74 1835.34,-360.64"/>
</g>
<!-- Node39 -->
<g id="node39" class="node">
<title>Node39</title>
<g id="a_node39"><a xlink:href="InvalidAction_8hpp.html" target="_top" xlink:title=" ">
<polygon fill="white" stroke="black" points="1462,-336.5 1462,-355.5 1629,-355.5 1629,-336.5 1462,-336.5"/>
<text text-anchor="middle" x="1545.5" y="-343.5" font-family="Helvetica,sans-Serif" font-size="10.00">../Exceptions/InvalidAction.hpp</text>
</a>
</g>
</g>
<!-- Node1&#45;&gt;Node39 -->
<g id="edge81" class="edge">
<title>Node1&#45;&gt;Node39</title>
<path fill="none" stroke="midnightblue" d="M1545.5,-392.4C1545.5,-384.47 1545.5,-374.46 1545.5,-365.86"/>
<polygon fill="midnightblue" stroke="midnightblue" points="1549,-365.66 1545.5,-355.66 1542,-365.66 1549,-365.66"/>
</g>
<!-- Node41 -->
<g id="node41" class="node">
<title>Node41</title>
<g id="a_node41"><a xlink:href="InvalidAddress_8hpp.html" target="_top" xlink:title=" ">
<polygon fill="white" stroke="black" points="1647,-336.5 1647,-355.5 1822,-355.5 1822,-336.5 1647,-336.5"/>
<text text-anchor="middle" x="1734.5" y="-343.5" font-family="Helvetica,sans-Serif" font-size="10.00">../Exceptions/InvalidAddress.hpp</text>
</a>
</g>
</g>
<!-- Node1&#45;&gt;Node41 -->
<g id="edge85" class="edge">
<title>Node1&#45;&gt;Node41</title>
<path fill="none" stroke="midnightblue" d="M1590.29,-392.4C1622.95,-382.12 1666.68,-368.35 1697.39,-358.68"/>
<polygon fill="midnightblue" stroke="midnightblue" points="1698.79,-361.91 1707.27,-355.57 1696.69,-355.24 1698.79,-361.91"/>
</g>
<!-- Node3 -->
<g id="node3" class="node">
<title>Node3</title>
<g id="a_node3"><a xlink:title=" ">
<polygon fill="white" stroke="#bfbfbf" points="0,-224.5 0,-243.5 141,-243.5 141,-224.5 0,-224.5"/>
<text text-anchor="middle" x="70.5" y="-231.5" font-family="Helvetica,sans-Serif" font-size="10.00">QtWidgets/QMainWindow</text>
</a>
</g>
</g>
<!-- Node2&#45;&gt;Node3 -->
<g id="edge2" class="edge">
<title>Node2&#45;&gt;Node3</title>
<path fill="none" stroke="midnightblue" d="M286.38,-344.96C206.27,-343.39 75.97,-335.3 45.5,-300 33.46,-286.05 44.61,-265.68 55.61,-251.47"/>
<polygon fill="midnightblue" stroke="midnightblue" points="58.51,-253.46 62.23,-243.54 53.14,-248.97 58.51,-253.46"/>
</g>
<!-- Node4 -->
<g id="node4" class="node">
<title>Node4</title>
<g id="a_node4"><a xlink:title=" ">
<polygon fill="white" stroke="#bfbfbf" points="191,-280.5 191,-299.5 354,-299.5 354,-280.5 191,-280.5"/>
<text text-anchor="middle" x="272.5" y="-287.5" font-family="Helvetica,sans-Serif" font-size="10.00">QtCore/QSortFilterProxyModel</text>
</a>
</g>
</g>
<!-- Node2&#45;&gt;Node4 -->
<g id="edge3" class="edge">
<title>Node2&#45;&gt;Node4</title>
<path fill="none" stroke="midnightblue" d="M337.97,-336.32C325.91,-327.98 307.47,-315.21 293.23,-305.35"/>
<polygon fill="midnightblue" stroke="midnightblue" points="295.22,-302.47 285,-299.65 291.23,-308.22 295.22,-302.47"/>
</g>
<!-- Node5 -->
<g id="node5" class="node">
<title>Node5</title>
<g id="a_node5"><a xlink:href="MemoryBus_8hpp.html" target="_top" xlink:title=" ">
<polygon fill="white" stroke="black" points="423,-168.5 423,-187.5 572,-187.5 572,-168.5 423,-168.5"/>
<text text-anchor="middle" x="497.5" y="-175.5" font-family="Helvetica,sans-Serif" font-size="10.00">../Memory/MemoryBus.hpp</text>
</a>
</g>
</g>
<!-- Node2&#45;&gt;Node5 -->
<g id="edge4" class="edge">
<title>Node2&#45;&gt;Node5</title>
<path fill="none" stroke="midnightblue" d="M414.58,-340.54C442.67,-335.08 473.33,-323.63 491.5,-300 514.29,-270.38 508.33,-223.58 502.55,-197.72"/>
<polygon fill="midnightblue" stroke="midnightblue" points="505.89,-196.61 500.1,-187.74 499.09,-198.29 505.89,-196.61"/>
</g>
<!-- Node14 -->
<g id="node14" class="node">
<title>Node14</title>
<g id="a_node14"><a xlink:title=" ">
<polygon fill="white" stroke="#bfbfbf" points="372.5,-280.5 372.5,-299.5 482.5,-299.5 482.5,-280.5 372.5,-280.5"/>
<text text-anchor="middle" x="427.5" y="-287.5" font-family="Helvetica,sans-Serif" font-size="10.00">../../ui/ui_busView.h</text>
</a>
</g>
</g>
<!-- Node2&#45;&gt;Node14 -->
<g id="edge22" class="edge">
<title>Node2&#45;&gt;Node14</title>
<path fill="none" stroke="midnightblue" d="M362.87,-336.32C374.66,-328.06 392.63,-315.45 406.64,-305.63"/>
<polygon fill="midnightblue" stroke="midnightblue" points="408.98,-308.26 415.16,-299.65 404.96,-302.53 408.98,-308.26"/>
</g>
<!-- Node15 -->
<g id="node15" class="node">
<title>Node15</title>
<g id="a_node15"><a xlink:href="ClosableWindow_8hpp.html" target="_top" xlink:title=" ">
<polygon fill="white" stroke="black" points="54.5,-280.5 54.5,-299.5 172.5,-299.5 172.5,-280.5 54.5,-280.5"/>
<text text-anchor="middle" x="113.5" y="-287.5" font-family="Helvetica,sans-Serif" font-size="10.00">ClosableWindow.hpp</text>
</a>
</g>
</g>
<!-- Node2&#45;&gt;Node15 -->
<g id="edge23" class="edge">
<title>Node2&#45;&gt;Node15</title>
<path fill="none" stroke="midnightblue" d="M312.95,-336.44C271.69,-327.04 205.36,-311.93 160.63,-301.74"/>
<polygon fill="midnightblue" stroke="midnightblue" points="161.41,-298.33 150.88,-299.52 159.85,-305.15 161.41,-298.33"/>
</g>
<!-- Node6 -->
<g id="node6" class="node">
<title>Node6</title>
<g id="a_node6"><a xlink:title=" ">
<polygon fill="white" stroke="#bfbfbf" points="536.5,-0.5 536.5,-19.5 586.5,-19.5 586.5,-0.5 536.5,-0.5"/>
<text text-anchor="middle" x="561.5" y="-7.5" font-family="Helvetica,sans-Serif" font-size="10.00">cstdint</text>
</a>
</g>
</g>
<!-- Node5&#45;&gt;Node6 -->
<g id="edge5" class="edge">
<title>Node5&#45;&gt;Node6</title>
<path fill="none" stroke="midnightblue" d="M496.29,-168.48C493.79,-147.84 489.78,-94.05 509.5,-56 515.94,-43.58 527.38,-33.1 537.89,-25.39"/>
<polygon fill="midnightblue" stroke="midnightblue" points="540.1,-28.12 546.38,-19.58 536.15,-22.34 540.1,-28.12"/>
</g>
<!-- Node7 -->
<g id="node7" class="node">
<title>Node7</title>
<g id="a_node7"><a xlink:title=" ">
<polygon fill="white" stroke="#bfbfbf" points="804,-0.5 804,-19.5 851,-19.5 851,-0.5 804,-0.5"/>
<text text-anchor="middle" x="827.5" y="-7.5" font-family="Helvetica,sans-Serif" font-size="10.00">vector</text>
</a>
</g>
</g>
<!-- Node5&#45;&gt;Node7 -->
<g id="edge6" class="edge">
<title>Node5&#45;&gt;Node7</title>
<path fill="none" stroke="midnightblue" d="M514.78,-168.31C569.02,-141.02 736.16,-56.95 801.21,-24.22"/>
<polygon fill="midnightblue" stroke="midnightblue" points="803.03,-27.23 810.39,-19.61 799.89,-20.97 803.03,-27.23"/>
</g>
<!-- Node8 -->
<g id="node8" class="node">
<title>Node8</title>
<g id="a_node8"><a xlink:title=" ">
<polygon fill="white" stroke="#bfbfbf" points="722.5,-0.5 722.5,-19.5 780.5,-19.5 780.5,-0.5 722.5,-0.5"/>
<text text-anchor="middle" x="751.5" y="-7.5" font-family="Helvetica,sans-Serif" font-size="10.00">memory</text>
</a>
</g>
</g>
<!-- Node5&#45;&gt;Node8 -->
<g id="edge7" class="edge">
<title>Node5&#45;&gt;Node8</title>
<path fill="none" stroke="midnightblue" d="M504.2,-168.39C521.6,-146.57 570.55,-88.58 623.5,-56 651.13,-39 686.07,-27.27 712.47,-20.05"/>
<polygon fill="midnightblue" stroke="midnightblue" points="713.71,-23.35 722.49,-17.42 711.93,-16.58 713.71,-23.35"/>
</g>
<!-- Node9 -->
<g id="node9" class="node">
<title>Node9</title>
<g id="a_node9"><a xlink:href="AMemory_8hpp.html" target="_top" xlink:title=" ">
<polygon fill="white" stroke="black" points="862,-112.5 862,-131.5 945,-131.5 945,-112.5 862,-112.5"/>
<text text-anchor="middle" x="903.5" y="-119.5" font-family="Helvetica,sans-Serif" font-size="10.00">AMemory.hpp</text>
</a>
</g>
</g>
<!-- Node5&#45;&gt;Node9 -->
<g id="edge8" class="edge">
<title>Node5&#45;&gt;Node9</title>
<path fill="none" stroke="midnightblue" d="M561.83,-168.44C642.13,-157.76 777.87,-139.71 851.78,-129.88"/>
<polygon fill="midnightblue" stroke="midnightblue" points="852.33,-133.34 861.78,-128.55 851.41,-126.4 852.33,-133.34"/>
</g>
<!-- Node9&#45;&gt;Node6 -->
<g id="edge9" class="edge">
<title>Node9&#45;&gt;Node6</title>
<path fill="none" stroke="midnightblue" d="M876.95,-112.46C815.89,-92.82 665.5,-44.45 596.78,-22.35"/>
<polygon fill="midnightblue" stroke="midnightblue" points="597.46,-18.89 586.87,-19.16 595.32,-25.55 597.46,-18.89"/>
</g>
<!-- Node9&#45;&gt;Node7 -->
<g id="edge10" class="edge">
<title>Node9&#45;&gt;Node7</title>
<path fill="none" stroke="midnightblue" d="M887.97,-112.46C875.06,-104.6 857.15,-91.78 846.5,-76 837.15,-62.14 832.33,-43.63 829.88,-29.9"/>
<polygon fill="midnightblue" stroke="midnightblue" points="833.3,-29.07 828.35,-19.71 826.38,-30.12 833.3,-29.07"/>
</g>
<!-- Node9&#45;&gt;Node8 -->
<g id="edge11" class="edge">
<title>Node9&#45;&gt;Node8</title>
<path fill="none" stroke="midnightblue" d="M889.28,-112.43C874.95,-103.66 852.3,-89.45 833.5,-76 810.72,-59.71 785.65,-39.48 769.3,-25.95"/>
<polygon fill="midnightblue" stroke="midnightblue" points="771.53,-23.25 761.6,-19.54 767.05,-28.63 771.53,-23.25"/>
</g>
<!-- Node10 -->
<g id="node10" class="node">
<title>Node10</title>
<g id="a_node10"><a xlink:title=" ">
<polygon fill="white" stroke="#bfbfbf" points="1515.5,-0.5 1515.5,-19.5 1559.5,-19.5 1559.5,-0.5 1515.5,-0.5"/>
<text text-anchor="middle" x="1537.5" y="-7.5" font-family="Helvetica,sans-Serif" font-size="10.00">string</text>
</a>
</g>
</g>
<!-- Node9&#45;&gt;Node10 -->
<g id="edge12" class="edge">
<title>Node9&#45;&gt;Node10</title>
<path fill="none" stroke="midnightblue" d="M945.1,-113.78C1063.35,-93.27 1399.72,-34.9 1505.35,-16.58"/>
<polygon fill="midnightblue" stroke="midnightblue" points="1506.15,-19.99 1515.4,-14.83 1504.95,-13.1 1506.15,-19.99"/>
</g>
<!-- Node11 -->
<g id="node11" class="node">
<title>Node11</title>
<g id="a_node11"><a xlink:href="Int24_8hpp.html" target="_top" xlink:title=" ">
<polygon fill="white" stroke="black" points="1152.5,-0.5 1152.5,-19.5 1262.5,-19.5 1262.5,-0.5 1152.5,-0.5"/>
<text text-anchor="middle" x="1207.5" y="-7.5" font-family="Helvetica,sans-Serif" font-size="10.00">../Models/Int24.hpp</text>
</a>
</g>
</g>
<!-- Node9&#45;&gt;Node11 -->
<g id="edge13" class="edge">
<title>Node9&#45;&gt;Node11</title>
<path fill="none" stroke="midnightblue" d="M916.88,-112.44C938.79,-98.76 984.04,-71.89 1025.5,-56 1065.78,-40.56 1113.14,-29.05 1149.45,-21.53"/>
<polygon fill="midnightblue" stroke="midnightblue" points="1150.27,-24.94 1159.38,-19.52 1148.88,-18.08 1150.27,-24.94"/>
</g>
<!-- Node12 -->
<g id="node12" class="node">
<title>Node12</title>
<g id="a_node12"><a xlink:href="Components_8hpp.html" target="_top" xlink:title=" ">
<polygon fill="white" stroke="black" points="880.5,-0.5 880.5,-19.5 1026.5,-19.5 1026.5,-0.5 880.5,-0.5"/>
<text text-anchor="middle" x="953.5" y="-7.5" font-family="Helvetica,sans-Serif" font-size="10.00">../Models/Components.hpp</text>
</a>
</g>
</g>
<!-- Node9&#45;&gt;Node12 -->
<g id="edge14" class="edge">
<title>Node9&#45;&gt;Node12</title>
<path fill="none" stroke="midnightblue" d="M914.55,-112.28C924.16,-104.03 937.59,-90.74 944.5,-76 951.23,-61.64 953.3,-43.67 953.79,-30.27"/>
<polygon fill="midnightblue" stroke="midnightblue" points="957.3,-29.91 953.89,-19.88 950.3,-29.84 957.3,-29.91"/>
</g>
<!-- Node13 -->
<g id="node13" class="node">
<title>Node13</title>
<g id="a_node13"><a xlink:href="IMemory_8hpp.html" target="_top" xlink:title=" ">
<polygon fill="white" stroke="black" points="855.5,-56.5 855.5,-75.5 935.5,-75.5 935.5,-56.5 855.5,-56.5"/>
<text text-anchor="middle" x="895.5" y="-63.5" font-family="Helvetica,sans-Serif" font-size="10.00">IMemory.hpp</text>
</a>
</g>
</g>
<!-- Node9&#45;&gt;Node13 -->
<g id="edge15" class="edge">
<title>Node9&#45;&gt;Node13</title>
<path fill="none" stroke="midnightblue" d="M902.18,-112.08C901.12,-104.93 899.59,-94.64 898.27,-85.69"/>
<polygon fill="midnightblue" stroke="midnightblue" points="901.72,-85.13 896.8,-75.75 894.8,-86.16 901.72,-85.13"/>
</g>
<!-- Node13&#45;&gt;Node6 -->
<g id="edge16" class="edge">
<title>Node13&#45;&gt;Node6</title>
<path fill="none" stroke="midnightblue" d="M855.21,-58.49C789.28,-47.83 659.42,-26.83 596.85,-16.71"/>
<polygon fill="midnightblue" stroke="midnightblue" points="597.12,-13.21 586.69,-15.07 596,-20.12 597.12,-13.21"/>
</g>
<!-- Node13&#45;&gt;Node7 -->
<g id="edge17" class="edge">
<title>Node13&#45;&gt;Node7</title>
<path fill="none" stroke="midnightblue" d="M884.57,-56.32C874.33,-48.18 858.78,-35.84 846.5,-26.09"/>
<polygon fill="midnightblue" stroke="midnightblue" points="848.63,-23.31 838.62,-19.83 844.28,-28.79 848.63,-23.31"/>
</g>
<!-- Node13&#45;&gt;Node8 -->
<g id="edge18" class="edge">
<title>Node13&#45;&gt;Node8</title>
<path fill="none" stroke="midnightblue" d="M872.68,-56.44C848.67,-47.44 810.67,-33.19 783.63,-23.05"/>
<polygon fill="midnightblue" stroke="midnightblue" points="784.8,-19.75 774.21,-19.52 782.34,-26.3 784.8,-19.75"/>
</g>
<!-- Node13&#45;&gt;Node10 -->
<g id="edge19" class="edge">
<title>Node13&#45;&gt;Node10</title>
<path fill="none" stroke="midnightblue" d="M935.66,-61.62C1053.63,-51.7 1397.56,-22.77 1505.02,-13.73"/>
<polygon fill="midnightblue" stroke="midnightblue" points="1505.57,-17.2 1515.24,-12.87 1504.98,-10.22 1505.57,-17.2"/>
</g>
<!-- Node13&#45;&gt;Node11 -->
<g id="edge20" class="edge">
<title>Node13&#45;&gt;Node11</title>
<path fill="none" stroke="midnightblue" d="M935.65,-58.05C989.59,-48.71 1085.87,-32.05 1148.18,-21.27"/>
<polygon fill="midnightblue" stroke="midnightblue" points="1149,-24.68 1158.26,-19.52 1147.81,-17.78 1149,-24.68"/>
</g>
<!-- Node13&#45;&gt;Node12 -->
<g id="edge21" class="edge">
<title>Node13&#45;&gt;Node12</title>
<path fill="none" stroke="midnightblue" d="M904.82,-56.32C913.39,-48.34 926.31,-36.31 936.69,-26.65"/>
<polygon fill="midnightblue" stroke="midnightblue" points="939.08,-29.21 944.01,-19.83 934.31,-24.09 939.08,-29.21"/>
</g>
<!-- Node15&#45;&gt;Node3 -->
<g id="edge24" class="edge">
<title>Node15&#45;&gt;Node3</title>
<path fill="none" stroke="midnightblue" d="M106.4,-280.08C100.26,-272.38 91.23,-261.03 83.76,-251.65"/>
<polygon fill="midnightblue" stroke="midnightblue" points="86.44,-249.39 77.47,-243.75 80.96,-253.75 86.44,-249.39"/>
</g>
<!-- Node16&#45;&gt;Node5 -->
<g id="edge26" class="edge">
<title>Node16&#45;&gt;Node5</title>
<path fill="none" stroke="midnightblue" d="M1140.47,-343.56C1048.39,-338.86 798.18,-319.52 606.5,-244 573.29,-230.91 538.45,-208.36 517.35,-193.56"/>
<polygon fill="midnightblue" stroke="midnightblue" points="519.11,-190.51 508.94,-187.55 515.05,-196.21 519.11,-190.51"/>
</g>
<!-- Node17 -->
<g id="node17" class="node">
<title>Node17</title>
<g id="a_node17"><a xlink:href="CPU_8hpp.html" target="_top" xlink:title=" ">
<polygon fill="white" stroke="black" points="1136,-280.5 1136,-299.5 1217,-299.5 1217,-280.5 1136,-280.5"/>
<text text-anchor="middle" x="1176.5" y="-287.5" font-family="Helvetica,sans-Serif" font-size="10.00">CPU/CPU.hpp</text>
</a>
</g>
</g>
<!-- Node16&#45;&gt;Node17 -->
<g id="edge27" class="edge">
<title>Node16&#45;&gt;Node17</title>
<path fill="none" stroke="midnightblue" d="M1176.5,-336.08C1176.5,-329.01 1176.5,-318.86 1176.5,-309.99"/>
<polygon fill="midnightblue" stroke="midnightblue" points="1180,-309.75 1176.5,-299.75 1173,-309.75 1180,-309.75"/>
</g>
<!-- Node18 -->
<g id="node18" class="node">
<title>Node18</title>
<g id="a_node18"><a xlink:href="Cartridge_8hpp.html" target="_top" xlink:title=" ">
<polygon fill="white" stroke="black" points="1308.5,-224.5 1308.5,-243.5 1448.5,-243.5 1448.5,-224.5 1308.5,-224.5"/>
<text text-anchor="middle" x="1378.5" y="-231.5" font-family="Helvetica,sans-Serif" font-size="10.00">../Cartridge/Cartridge.hpp</text>
</a>
</g>
</g>
<!-- Node16&#45;&gt;Node18 -->
<g id="edge49" class="edge">
<title>Node16&#45;&gt;Node18</title>
<path fill="none" stroke="midnightblue" d="M1194.82,-336.41C1213.34,-327.62 1242.68,-313.38 1267.5,-300 1298.63,-283.21 1333.73,-262.32 1355.97,-248.83"/>
<polygon fill="midnightblue" stroke="midnightblue" points="1357.94,-251.72 1364.66,-243.53 1354.3,-245.74 1357.94,-251.72"/>
</g>
<!-- Node21 -->
<g id="node21" class="node">
<title>Node21</title>
<g id="a_node21"><a xlink:href="Ram_8hpp.html" target="_top" xlink:title=" ">
<polygon fill="white" stroke="black" points="1236,-168.5 1236,-187.5 1331,-187.5 1331,-168.5 1236,-168.5"/>
<text text-anchor="middle" x="1283.5" y="-175.5" font-family="Helvetica,sans-Serif" font-size="10.00">../Ram/Ram.hpp</text>
</a>
</g>
</g>
<!-- Node16&#45;&gt;Node21 -->
<g id="edge50" class="edge">
<title>Node16&#45;&gt;Node21</title>
<path fill="none" stroke="midnightblue" d="M1188.45,-336.46C1199.44,-328.13 1215.63,-314.62 1226.5,-300 1250.99,-267.04 1268.85,-221.88 1277.55,-197.1"/>
<polygon fill="midnightblue" stroke="midnightblue" points="1280.89,-198.14 1280.8,-187.55 1274.26,-195.89 1280.89,-198.14"/>
</g>
<!-- Node24 -->
<g id="node24" class="node">
<title>Node24</title>
<g id="a_node24"><a xlink:href="PPU_8hpp.html" target="_top" xlink:title=" ">
<polygon fill="white" stroke="black" points="615.5,-224.5 615.5,-243.5 695.5,-243.5 695.5,-224.5 615.5,-224.5"/>
<text text-anchor="middle" x="655.5" y="-231.5" font-family="Helvetica,sans-Serif" font-size="10.00">PPU/PPU.hpp</text>
</a>
</g>
</g>
<!-- Node16&#45;&gt;Node24 -->
<g id="edge51" class="edge">
<title>Node16&#45;&gt;Node24</title>
<path fill="none" stroke="midnightblue" d="M1140.28,-337.35C1049.16,-318.11 810.26,-267.68 705.71,-245.6"/>
<polygon fill="midnightblue" stroke="midnightblue" points="706.23,-242.13 695.73,-243.49 704.79,-248.98 706.23,-242.13"/>
</g>
<!-- Node25 -->
<g id="node25" class="node">
<title>Node25</title>
<g id="a_node25"><a xlink:href="IRenderer_8hpp.html" target="_top" xlink:title=" ">
<polygon fill="white" stroke="black" points="1001.5,-168.5 1001.5,-187.5 1141.5,-187.5 1141.5,-168.5 1001.5,-168.5"/>
<text text-anchor="middle" x="1071.5" y="-175.5" font-family="Helvetica,sans-Serif" font-size="10.00">../Renderer/IRenderer.hpp</text>
</a>
</g>
</g>
<!-- Node16&#45;&gt;Node25 -->
<g id="edge73" class="edge">
<title>Node16&#45;&gt;Node25</title>
<path fill="none" stroke="midnightblue" d="M1164.77,-336.43C1154,-328.08 1138.13,-314.55 1127.5,-300 1103.36,-266.94 1085.85,-221.82 1077.33,-197.07"/>
<polygon fill="midnightblue" stroke="midnightblue" points="1080.63,-195.91 1074.14,-187.53 1073.99,-198.13 1080.63,-195.91"/>
</g>
<!-- Node30 -->
<g id="node30" class="node">
<title>Node30</title>
<g id="a_node30"><a xlink:href="APU_8hpp.html" target="_top" xlink:title=" ">
<polygon fill="white" stroke="black" points="933,-224.5 933,-243.5 1014,-243.5 1014,-224.5 933,-224.5"/>
<text text-anchor="middle" x="973.5" y="-231.5" font-family="Helvetica,sans-Serif" font-size="10.00">APU/APU.hpp</text>
</a>
</g>
</g>
<!-- Node16&#45;&gt;Node30 -->
<g id="edge62" class="edge">
<title>Node16&#45;&gt;Node30</title>
<path fill="none" stroke="midnightblue" d="M1156.1,-336.36C1136.24,-327.75 1105.35,-313.86 1079.5,-300 1049.5,-283.92 1016.25,-262.99 995.13,-249.28"/>
<polygon fill="midnightblue" stroke="midnightblue" points="996.88,-246.25 986.6,-243.71 993.06,-252.11 996.88,-246.25"/>
</g>
<!-- Node34 -->
<g id="node34" class="node">
<title>Node34</title>
<g id="a_node34"><a xlink:href="DebuggableError_8hpp.html" target="_top" xlink:title=" ">
<polygon fill="white" stroke="black" points="1434,-280.5 1434,-299.5 1609,-299.5 1609,-280.5 1434,-280.5"/>
<text text-anchor="middle" x="1521.5" y="-287.5" font-family="Helvetica,sans-Serif" font-size="10.00">Exceptions/DebuggableError.hpp</text>
</a>
</g>
</g>
<!-- Node16&#45;&gt;Node34 -->
<g id="edge74" class="edge">
<title>Node16&#45;&gt;Node34</title>
<path fill="none" stroke="midnightblue" d="M1212.77,-339.32C1270.77,-330.25 1385.17,-312.34 1457.25,-301.06"/>
<polygon fill="midnightblue" stroke="midnightblue" points="1457.79,-304.51 1467.13,-299.51 1456.71,-297.6 1457.79,-304.51"/>
</g>
<!-- Node17&#45;&gt;Node5 -->
<g id="edge29" class="edge">
<title>Node17&#45;&gt;Node5</title>
<path fill="none" stroke="midnightblue" d="M1135.7,-289.86C1057.59,-290.41 882.25,-286.3 742.5,-244 724.23,-238.47 722.43,-230.53 704.5,-224 659.97,-207.78 607.81,-196.49 566.99,-189.27"/>
<polygon fill="midnightblue" stroke="midnightblue" points="567.59,-185.82 557.14,-187.57 566.4,-192.72 567.59,-185.82"/>
</g>
<!-- Node17&#45;&gt;Node9 -->
<g id="edge28" class="edge">
<title>Node17&#45;&gt;Node9</title>
<path fill="none" stroke="midnightblue" d="M1177.55,-280.48C1179.75,-258.38 1182.29,-198.8 1150.5,-168 1123.33,-141.67 1019.44,-130.36 955.37,-125.8"/>
<polygon fill="midnightblue" stroke="midnightblue" points="955.27,-122.29 945.06,-125.1 954.8,-129.27 955.27,-122.29"/>
</g>
<!-- Node17&#45;&gt;Node11 -->
<g id="edge30" class="edge">
<title>Node17&#45;&gt;Node11</title>
<path fill="none" stroke="midnightblue" d="M1180.68,-280.39C1189.14,-262.16 1207.5,-218.09 1207.5,-179 1207.5,-179 1207.5,-179 1207.5,-121 1207.5,-88.95 1207.5,-51.64 1207.5,-29.75"/>
<polygon fill="midnightblue" stroke="midnightblue" points="1211,-29.56 1207.5,-19.56 1204,-29.56 1211,-29.56"/>
</g>
<!-- Node17&#45;&gt;Node18 -->
<g id="edge31" class="edge">
<title>Node17&#45;&gt;Node18</title>
<path fill="none" stroke="midnightblue" d="M1208.51,-280.44C1243.23,-271.16 1298.79,-256.31 1336.88,-246.13"/>
<polygon fill="midnightblue" stroke="midnightblue" points="1337.89,-249.48 1346.64,-243.52 1336.08,-242.72 1337.89,-249.48"/>
</g>
<!-- Node22 -->
<g id="node22" class="node">
<title>Node22</title>
<g id="a_node22"><a xlink:href="Instruction_8hpp.html" target="_top" xlink:title=" ">
<polygon fill="white" stroke="black" points="1420,-56.5 1420,-75.5 1509,-75.5 1509,-56.5 1420,-56.5"/>
<text text-anchor="middle" x="1464.5" y="-63.5" font-family="Helvetica,sans-Serif" font-size="10.00">Instruction.hpp</text>
</a>
</g>
</g>
<!-- Node17&#45;&gt;Node22 -->
<g id="edge41" class="edge">
<title>Node17&#45;&gt;Node22</title>
<path fill="none" stroke="midnightblue" d="M1217.22,-285.8C1312.96,-277.27 1547.37,-250.31 1588.5,-188 1618.9,-141.95 1542.05,-99.76 1496.06,-79.55"/>
<polygon fill="midnightblue" stroke="midnightblue" points="1497.33,-76.29 1486.76,-75.58 1494.58,-82.72 1497.33,-76.29"/>
</g>
<!-- Node23 -->
<g id="node23" class="node">
<title>Node23</title>
<g id="a_node23"><a xlink:href="DMA_8hpp.html" target="_top" xlink:title=" ">
<polygon fill="white" stroke="black" points="752,-224.5 752,-243.5 839,-243.5 839,-224.5 752,-224.5"/>
<text text-anchor="middle" x="795.5" y="-231.5" font-family="Helvetica,sans-Serif" font-size="10.00">DMA/DMA.hpp</text>
</a>
</g>
</g>
<!-- Node17&#45;&gt;Node23 -->
<g id="edge44" class="edge">
<title>Node17&#45;&gt;Node23</title>
<path fill="none" stroke="midnightblue" d="M1135.73,-283.22C1066.56,-273.42 926.24,-253.53 849.17,-242.61"/>
<polygon fill="midnightblue" stroke="midnightblue" points="849.58,-239.13 839.19,-241.19 848.6,-246.06 849.58,-239.13"/>
</g>
<!-- Node18&#45;&gt;Node9 -->
<g id="edge33" class="edge">
<title>Node18&#45;&gt;Node9</title>
<path fill="none" stroke="midnightblue" d="M1376.25,-224.49C1371.97,-210.12 1361.16,-181.31 1340.5,-168 1324.49,-157.69 1067.37,-136.07 955.18,-127.07"/>
<polygon fill="midnightblue" stroke="midnightblue" points="955.36,-123.57 945.11,-126.26 954.8,-130.55 955.36,-123.57"/>
</g>
<!-- Node18&#45;&gt;Node10 -->
<g id="edge32" class="edge">
<title>Node18&#45;&gt;Node10</title>
<path fill="none" stroke="midnightblue" d="M1448.74,-227.31C1502.76,-221.3 1571.04,-209.6 1588.5,-188 1627.81,-139.37 1577.32,-61.77 1551.27,-27.82"/>
<polygon fill="midnightblue" stroke="midnightblue" points="1553.9,-25.5 1544.96,-19.82 1548.41,-29.84 1553.9,-25.5"/>
</g>
<!-- Node18&#45;&gt;Node11 -->
<g id="edge34" class="edge">
<title>Node18&#45;&gt;Node11</title>
<path fill="none" stroke="midnightblue" d="M1390.39,-224.36C1410.82,-208.68 1451.89,-173.32 1467.5,-132 1470.64,-123.68 1473.08,-118.92 1467.5,-112 1420.11,-53.23 1370.76,-106.04 1301.5,-76 1272.4,-63.38 1243,-41.18 1225.01,-26.28"/>
<polygon fill="midnightblue" stroke="midnightblue" points="1227.04,-23.42 1217.15,-19.63 1222.52,-28.76 1227.04,-23.42"/>
</g>
<!-- Node19 -->
<g id="node19" class="node">
<title>Node19</title>
<g id="a_node19"><a xlink:href="ARectangleMemory_8hpp.html" target="_top" xlink:title=" ">
<polygon fill="white" stroke="black" points="1273,-112.5 1273,-131.5 1458,-131.5 1458,-112.5 1273,-112.5"/>
<text text-anchor="middle" x="1365.5" y="-119.5" font-family="Helvetica,sans-Serif" font-size="10.00">../Memory/ARectangleMemory.hpp</text>
</a>
</g>
</g>
<!-- Node18&#45;&gt;Node19 -->
<g id="edge35" class="edge">
<title>Node18&#45;&gt;Node19</title>
<path fill="none" stroke="midnightblue" d="M1378.1,-224.14C1377.46,-211.6 1376.04,-187.99 1373.5,-168 1372.39,-159.23 1370.73,-149.58 1369.21,-141.46"/>
<polygon fill="midnightblue" stroke="midnightblue" points="1372.63,-140.74 1367.29,-131.59 1365.76,-142.07 1372.63,-140.74"/>
</g>
<!-- Node20 -->
<g id="node20" class="node">
<title>Node20</title>
<g id="a_node20"><a xlink:href="InterruptVectors_8hpp.html" target="_top" xlink:title=" ">
<polygon fill="white" stroke="black" points="1463.5,-168.5 1463.5,-187.5 1579.5,-187.5 1579.5,-168.5 1463.5,-168.5"/>
<text text-anchor="middle" x="1521.5" y="-175.5" font-family="Helvetica,sans-Serif" font-size="10.00">InterruptVectors.hpp</text>
</a>
</g>
</g>
<!-- Node18&#45;&gt;Node20 -->
<g id="edge37" class="edge">
<title>Node18&#45;&gt;Node20</title>
<path fill="none" stroke="midnightblue" d="M1401.16,-224.44C1424.9,-215.48 1462.41,-201.31 1489.24,-191.18"/>
<polygon fill="midnightblue" stroke="midnightblue" points="1490.83,-194.32 1498.95,-187.52 1488.36,-187.77 1490.83,-194.32"/>
</g>
<!-- Node18&#45;&gt;Node21 -->
<g id="edge38" class="edge">
<title>Node18&#45;&gt;Node21</title>
<path fill="none" stroke="midnightblue" d="M1363.24,-224.32C1348.28,-215.82 1325.25,-202.73 1307.77,-192.8"/>
<polygon fill="midnightblue" stroke="midnightblue" points="1309.15,-189.55 1298.73,-187.65 1305.69,-195.64 1309.15,-189.55"/>
</g>
<!-- Node19&#45;&gt;Node13 -->
<g id="edge36" class="edge">
<title>Node19&#45;&gt;Node13</title>
<path fill="none" stroke="midnightblue" d="M1291.29,-112.47C1194.79,-101.39 1028.8,-82.32 945.81,-72.78"/>
<polygon fill="midnightblue" stroke="midnightblue" points="945.96,-69.27 935.63,-71.61 945.16,-76.23 945.96,-69.27"/>
</g>
<!-- Node21&#45;&gt;Node10 -->
<g id="edge40" class="edge">
<title>Node21&#45;&gt;Node10</title>
<path fill="none" stroke="midnightblue" d="M1276.47,-168.34C1266.34,-154.77 1250.32,-128.33 1264.5,-112 1339.25,-25.91 1432.3,-150.63 1518.5,-76 1531.67,-64.59 1535.96,-44.61 1537.24,-29.8"/>
<polygon fill="midnightblue" stroke="midnightblue" points="1540.74,-29.87 1537.72,-19.71 1533.75,-29.53 1540.74,-29.87"/>
</g>
<!-- Node21&#45;&gt;Node19 -->
<g id="edge39" class="edge">
<title>Node21&#45;&gt;Node19</title>
<path fill="none" stroke="midnightblue" d="M1296.67,-168.32C1309.35,-159.98 1328.73,-147.21 1343.71,-137.35"/>
<polygon fill="midnightblue" stroke="midnightblue" points="1345.93,-140.08 1352.36,-131.65 1342.08,-134.23 1345.93,-140.08"/>
</g>
<!-- Node22&#45;&gt;Node10 -->
<g id="edge42" class="edge">
<title>Node22&#45;&gt;Node10</title>
<path fill="none" stroke="midnightblue" d="M1476.23,-56.32C1487.34,-48.11 1504.24,-35.6 1517.48,-25.81"/>
<polygon fill="midnightblue" stroke="midnightblue" points="1519.6,-28.59 1525.56,-19.83 1515.44,-22.97 1519.6,-28.59"/>
</g>
<!-- Node22&#45;&gt;Node11 -->
<g id="edge43" class="edge">
<title>Node22&#45;&gt;Node11</title>
<path fill="none" stroke="midnightblue" d="M1423.78,-56.44C1378.85,-47 1306.5,-31.8 1258,-21.61"/>
<polygon fill="midnightblue" stroke="midnightblue" points="1258.54,-18.15 1248.03,-19.52 1257.1,-25 1258.54,-18.15"/>
</g>
<!-- Node23&#45;&gt;Node5 -->
<g id="edge48" class="edge">
<title>Node23&#45;&gt;Node5</title>
<path fill="none" stroke="midnightblue" d="M751.85,-225.09C699.69,-215.64 612.27,-199.8 554.74,-189.37"/>
<polygon fill="midnightblue" stroke="midnightblue" points="555.18,-185.89 544.72,-187.56 553.93,-192.78 555.18,-185.89"/>
</g>
<!-- Node23&#45;&gt;Node6 -->
<g id="edge45" class="edge">
<title>Node23&#45;&gt;Node6</title>
<path fill="none" stroke="midnightblue" d="M755.14,-224.44C717.45,-215.79 664.65,-201.76 648.5,-188 598.16,-145.13 574.26,-66.22 565.56,-30.04"/>
<polygon fill="midnightblue" stroke="midnightblue" points="568.88,-28.87 563.25,-19.89 562.06,-30.42 568.88,-28.87"/>
</g>
<!-- Node23&#45;&gt;Node8 -->
<g id="edge46" class="edge">
<title>Node23&#45;&gt;Node8</title>
<path fill="none" stroke="midnightblue" d="M753.54,-224.49C718.48,-216.42 672.5,-203.29 661.5,-188 622,-133.07 695.97,-58.33 732.63,-26.44"/>
<polygon fill="midnightblue" stroke="midnightblue" points="735.3,-28.77 740.66,-19.63 730.77,-23.43 735.3,-28.77"/>
</g>
<!-- Node23&#45;&gt;Node11 -->
<g id="edge47" class="edge">
<title>Node23&#45;&gt;Node11</title>
<path fill="none" stroke="midnightblue" d="M803.03,-224.39C815.23,-210.87 840.56,-184.51 866.5,-168 901.8,-145.53 915.26,-149 953.5,-132 1037.49,-94.65 1135.26,-46.82 1181.16,-24.11"/>
<polygon fill="midnightblue" stroke="midnightblue" points="1182.99,-27.11 1190.4,-19.53 1179.88,-20.83 1182.99,-27.11"/>
</g>
<!-- Node24&#45;&gt;Node5 -->
<g id="edge54" class="edge">
<title>Node24&#45;&gt;Node5</title>
<path fill="none" stroke="midnightblue" d="M630.46,-224.44C603.88,-215.36 561.69,-200.94 531.98,-190.78"/>
<polygon fill="midnightblue" stroke="midnightblue" points="533.01,-187.44 522.42,-187.52 530.75,-194.06 533.01,-187.44"/>
</g>
<!-- Node24&#45;&gt;Node6 -->
<g id="edge52" class="edge">
<title>Node24&#45;&gt;Node6</title>
<path fill="none" stroke="midnightblue" d="M615.42,-232.12C529.64,-229.64 331.38,-220.46 273.5,-188 245.89,-172.52 239.85,-161.91 229.5,-132 226.59,-123.6 224.21,-119.14 229.5,-112 265.39,-63.57 447.99,-29.15 526.04,-16.42"/>
<polygon fill="midnightblue" stroke="midnightblue" points="527.02,-19.81 536.34,-14.77 525.91,-12.9 527.02,-19.81"/>
</g>
<!-- Node24&#45;&gt;Node9 -->
<g id="edge53" class="edge">
<title>Node24&#45;&gt;Node9</title>
<path fill="none" stroke="midnightblue" d="M687,-224.45C714.8,-216.44 756.13,-203.43 790.5,-188 823.56,-173.16 859.47,-151.45 881.74,-137.28"/>
<polygon fill="midnightblue" stroke="midnightblue" points="883.88,-140.06 890.39,-131.7 880.09,-134.17 883.88,-140.06"/>
</g>
<!-- Node24&#45;&gt;Node21 -->
<g id="edge58" class="edge">
<title>Node24&#45;&gt;Node21</title>
<path fill="none" stroke="midnightblue" d="M695.77,-228.66C710.47,-227.13 727.23,-225.42 742.5,-224 918.33,-207.59 1126.59,-191.1 1225.61,-183.43"/>
<polygon fill="midnightblue" stroke="midnightblue" points="1226.01,-186.91 1235.71,-182.65 1225.47,-179.93 1226.01,-186.91"/>
</g>
<!-- Node24&#45;&gt;Node25 -->
<g id="edge55" class="edge">
<title>Node24&#45;&gt;Node25</title>
<path fill="none" stroke="midnightblue" d="M695.77,-227.77C764.98,-218.79 907.55,-200.28 995.8,-188.83"/>
<polygon fill="midnightblue" stroke="midnightblue" points="996.29,-192.29 1005.75,-187.53 995.39,-185.35 996.29,-192.29"/>
</g>
<!-- Node27 -->
<g id="node27" class="node">
<title>Node27</title>
<g id="a_node27"><a xlink:href="Vector2_8hpp.html" target="_top" xlink:title=" ">
<polygon fill="white" stroke="black" points="282.5,-168.5 282.5,-187.5 404.5,-187.5 404.5,-168.5 282.5,-168.5"/>
<text text-anchor="middle" x="343.5" y="-175.5" font-family="Helvetica,sans-Serif" font-size="10.00">../Models/Vector2.hpp</text>
</a>
</g>
</g>
<!-- Node24&#45;&gt;Node27 -->
<g id="edge59" class="edge">
<title>Node24&#45;&gt;Node27</title>
<path fill="none" stroke="midnightblue" d="M615.35,-226.05C561.41,-216.71 465.13,-200.05 402.82,-189.27"/>
<polygon fill="midnightblue" stroke="midnightblue" points="403.19,-185.78 392.74,-187.52 402,-192.68 403.19,-185.78"/>
</g>
<!-- Node25&#45;&gt;Node10 -->
<g id="edge56" class="edge">
<title>Node25&#45;&gt;Node10</title>
<path fill="none" stroke="midnightblue" d="M1095.57,-168.42C1173.38,-140.71 1418.11,-53.53 1505.83,-22.28"/>
<polygon fill="midnightblue" stroke="midnightblue" points="1507.24,-25.49 1515.49,-18.84 1504.89,-18.9 1507.24,-25.49"/>
</g>
<!-- Node26 -->
<g id="node26" class="node">
<title>Node26</title>
<g id="a_node26"><a xlink:title=" ">
<polygon fill="white" stroke="#bfbfbf" points="1051.5,-112.5 1051.5,-131.5 1091.5,-131.5 1091.5,-112.5 1051.5,-112.5"/>
<text text-anchor="middle" x="1071.5" y="-119.5" font-family="Helvetica,sans-Serif" font-size="10.00">span</text>
</a>
</g>
</g>
<!-- Node25&#45;&gt;Node26 -->
<g id="edge57" class="edge">
<title>Node25&#45;&gt;Node26</title>
<path fill="none" stroke="midnightblue" d="M1071.5,-168.08C1071.5,-161.01 1071.5,-150.86 1071.5,-141.99"/>
<polygon fill="midnightblue" stroke="midnightblue" points="1075,-141.75 1071.5,-131.75 1068,-141.75 1075,-141.75"/>
</g>
<!-- Node28 -->
<g id="node28" class="node">
<title>Node28</title>
<g id="a_node28"><a xlink:title=" ">
<polygon fill="white" stroke="#bfbfbf" points="239,-112.5 239,-131.5 296,-131.5 296,-112.5 239,-112.5"/>
<text text-anchor="middle" x="267.5" y="-119.5" font-family="Helvetica,sans-Serif" font-size="10.00">ostream</text>
</a>
</g>
</g>
<!-- Node27&#45;&gt;Node28 -->
<g id="edge60" class="edge">
<title>Node27&#45;&gt;Node28</title>
<path fill="none" stroke="midnightblue" d="M331.29,-168.32C319.72,-160.11 302.12,-147.6 288.34,-137.81"/>
<polygon fill="midnightblue" stroke="midnightblue" points="290.11,-134.77 279.93,-131.83 286.06,-140.48 290.11,-134.77"/>
</g>
<!-- Node29 -->
<g id="node29" class="node">
<title>Node29</title>
<g id="a_node29"><a xlink:title=" ">
<polygon fill="white" stroke="#bfbfbf" points="314,-112.5 314,-131.5 457,-131.5 457,-112.5 314,-112.5"/>
<text text-anchor="middle" x="385.5" y="-119.5" font-family="Helvetica,sans-Serif" font-size="10.00">SFML/System/Vector2.hpp</text>
</a>
</g>
</g>
<!-- Node27&#45;&gt;Node29 -->
<g id="edge61" class="edge">
<title>Node27&#45;&gt;Node29</title>
<path fill="none" stroke="midnightblue" d="M350.44,-168.08C356.43,-160.38 365.25,-149.03 372.55,-139.65"/>
<polygon fill="midnightblue" stroke="midnightblue" points="375.32,-141.79 378.69,-131.75 369.79,-137.5 375.32,-141.79"/>
</g>
<!-- Node30&#45;&gt;Node8 -->
<g id="edge63" class="edge">
<title>Node30&#45;&gt;Node8</title>
<path fill="none" stroke="midnightblue" d="M932.77,-229.33C859.07,-222.28 709.77,-205.93 694.5,-188 673.47,-163.3 720.59,-68.3 741.81,-28.6"/>
<polygon fill="midnightblue" stroke="midnightblue" points="744.91,-30.23 746.6,-19.77 738.76,-26.9 744.91,-30.23"/>
</g>
<!-- Node30&#45;&gt;Node9 -->
<g id="edge68" class="edge">
<title>Node30&#45;&gt;Node9</title>
<path fill="none" stroke="midnightblue" d="M972.35,-224.39C970.29,-211.32 965.06,-186.11 953.5,-168 945.94,-156.16 934.44,-145.51 924.38,-137.54"/>
<polygon fill="midnightblue" stroke="midnightblue" points="926.47,-134.74 916.38,-131.52 922.26,-140.33 926.47,-134.74"/>
</g>
<!-- Node30&#45;&gt;Node21 -->
<g id="edge69" class="edge">
<title>Node30&#45;&gt;Node21</title>
<path fill="none" stroke="midnightblue" d="M1014.03,-225.94C1068.13,-216.52 1164.27,-199.77 1225.89,-189.04"/>
<polygon fill="midnightblue" stroke="midnightblue" points="1226.6,-192.46 1235.85,-187.3 1225.4,-185.57 1226.6,-192.46"/>
</g>
<!-- Node30&#45;&gt;Node25 -->
<g id="edge72" class="edge">
<title>Node30&#45;&gt;Node25</title>
<path fill="none" stroke="midnightblue" d="M989.25,-224.32C1004.82,-215.74 1028.88,-202.49 1046.96,-192.52"/>
<polygon fill="midnightblue" stroke="midnightblue" points="1048.72,-195.55 1055.79,-187.65 1045.35,-189.42 1048.72,-195.55"/>
</g>
<!-- Node31 -->
<g id="node31" class="node">
<title>Node31</title>
<g id="a_node31"><a xlink:href="DSP_8hpp.html" target="_top" xlink:title=" ">
<polygon fill="white" stroke="black" points="703.5,-168.5 703.5,-187.5 781.5,-187.5 781.5,-168.5 703.5,-168.5"/>
<text text-anchor="middle" x="742.5" y="-175.5" font-family="Helvetica,sans-Serif" font-size="10.00">DSP/DSP.hpp</text>
</a>
</g>
</g>
<!-- Node30&#45;&gt;Node31 -->
<g id="edge64" class="edge">
<title>Node30&#45;&gt;Node31</title>
<path fill="none" stroke="midnightblue" d="M936.9,-224.44C896.77,-215.06 832.3,-199.99 788.72,-189.8"/>
<polygon fill="midnightblue" stroke="midnightblue" points="789.47,-186.38 778.93,-187.52 787.87,-193.2 789.47,-186.38"/>
</g>
<!-- Node33 -->
<g id="node33" class="node">
<title>Node33</title>
<g id="a_node33"><a xlink:href="IPL_8hpp.html" target="_top" xlink:title=" ">
<polygon fill="white" stroke="black" points="876,-168.5 876,-187.5 945,-187.5 945,-168.5 876,-168.5"/>
<text text-anchor="middle" x="910.5" y="-175.5" font-family="Helvetica,sans-Serif" font-size="10.00">IPL/IPL.hpp</text>
</a>
</g>
</g>
<!-- Node30&#45;&gt;Node33 -->
<g id="edge70" class="edge">
<title>Node30&#45;&gt;Node33</title>
<path fill="none" stroke="midnightblue" d="M963.38,-224.32C953.97,-216.26 939.76,-204.08 928.43,-194.37"/>
<polygon fill="midnightblue" stroke="midnightblue" points="930.68,-191.68 920.81,-187.83 926.12,-197 930.68,-191.68"/>
</g>
<!-- Node31&#45;&gt;Node6 -->
<g id="edge65" class="edge">
<title>Node31&#45;&gt;Node6</title>
<path fill="none" stroke="midnightblue" d="M732.77,-168.08C703.41,-141.15 615.49,-60.51 578.35,-26.45"/>
<polygon fill="midnightblue" stroke="midnightblue" points="580.58,-23.75 570.84,-19.57 575.85,-28.91 580.58,-23.75"/>
</g>
<!-- Node31&#45;&gt;Node9 -->
<g id="edge67" class="edge">
<title>Node31&#45;&gt;Node9</title>
<path fill="none" stroke="midnightblue" d="M768.01,-168.44C795.1,-159.36 838.09,-144.94 868.37,-134.78"/>
<polygon fill="midnightblue" stroke="midnightblue" points="869.74,-138.01 878.11,-131.52 867.51,-131.38 869.74,-138.01"/>
</g>
<!-- Node32 -->
<g id="node32" class="node">
<title>Node32</title>
<g id="a_node32"><a xlink:title=" ">
<polygon fill="white" stroke="#bfbfbf" points="741.5,-112.5 741.5,-131.5 783.5,-131.5 783.5,-112.5 741.5,-112.5"/>
<text text-anchor="middle" x="762.5" y="-119.5" font-family="Helvetica,sans-Serif" font-size="10.00">array</text>
</a>
</g>
</g>
<!-- Node31&#45;&gt;Node32 -->
<g id="edge66" class="edge">
<title>Node31&#45;&gt;Node32</title>
<path fill="none" stroke="midnightblue" d="M745.8,-168.08C748.48,-160.85 752.35,-150.41 755.69,-141.4"/>
<polygon fill="midnightblue" stroke="midnightblue" points="759.07,-142.34 759.26,-131.75 752.5,-139.91 759.07,-142.34"/>
</g>
<!-- Node33&#45;&gt;Node9 -->
<g id="edge71" class="edge">
<title>Node33&#45;&gt;Node9</title>
<path fill="none" stroke="midnightblue" d="M909.34,-168.08C908.42,-160.93 907.08,-150.64 905.92,-141.69"/>
<polygon fill="midnightblue" stroke="midnightblue" points="909.39,-141.22 904.63,-131.75 902.45,-142.12 909.39,-141.22"/>
</g>
<!-- Node35 -->
<g id="node35" class="node">
<title>Node35</title>
<g id="a_node35"><a xlink:title=" ">
<polygon fill="white" stroke="#bfbfbf" points="1560,-224.5 1560,-243.5 1655,-243.5 1655,-224.5 1560,-224.5"/>
<text text-anchor="middle" x="1607.5" y="-231.5" font-family="Helvetica,sans-Serif" font-size="10.00">bits/exception.h</text>
</a>
</g>
</g>
<!-- Node34&#45;&gt;Node35 -->
<g id="edge75" class="edge">
<title>Node34&#45;&gt;Node35</title>
<path fill="none" stroke="midnightblue" d="M1535.32,-280.32C1548.73,-271.9 1569.32,-258.97 1585.09,-249.07"/>
<polygon fill="midnightblue" stroke="midnightblue" points="1587.11,-251.94 1593.72,-243.65 1583.39,-246.01 1587.11,-251.94"/>
</g>
<!-- Node36&#45;&gt;Node10 -->
<g id="edge77" class="edge">
<title>Node36&#45;&gt;Node10</title>
<path fill="none" stroke="midnightblue" d="M1904.46,-336.21C1913.58,-327.72 1926.93,-314.09 1935.5,-300 1951.5,-273.69 1959.5,-265.8 1959.5,-235 1959.5,-235 1959.5,-235 1959.5,-121 1959.5,-40.54 1668.64,-17.86 1569.87,-12.48"/>
<polygon fill="midnightblue" stroke="midnightblue" points="1569.76,-8.97 1559.59,-11.94 1569.4,-15.96 1569.76,-8.97"/>
</g>
<!-- Node36&#45;&gt;Node11 -->
<g id="edge80" class="edge">
<title>Node36&#45;&gt;Node11</title>
<path fill="none" stroke="midnightblue" d="M1899.03,-336.14C1905.16,-322.76 1914.1,-297.14 1902.5,-280 1789.79,-113.52 1670.21,-184 1482.5,-112 1395.91,-78.79 1293.15,-41.65 1241.19,-23.02"/>
<polygon fill="midnightblue" stroke="midnightblue" points="1242.09,-19.63 1231.5,-19.55 1239.73,-26.22 1242.09,-19.63"/>
</g>
<!-- Node37 -->
<g id="node37" class="node">
<title>Node37</title>
<g id="a_node37"><a xlink:title=" ">
<polygon fill="white" stroke="#bfbfbf" points="1788,-280.5 1788,-299.5 1819,-299.5 1819,-280.5 1788,-280.5"/>
<text text-anchor="middle" x="1803.5" y="-287.5" font-family="Helvetica,sans-Serif" font-size="10.00">ios</text>
</a>
</g>
</g>
<!-- Node36&#45;&gt;Node37 -->
<g id="edge78" class="edge">
<title>Node36&#45;&gt;Node37</title>
<path fill="none" stroke="midnightblue" d="M1879.88,-336.32C1865.55,-327.82 1843.49,-314.73 1826.75,-304.8"/>
<polygon fill="midnightblue" stroke="midnightblue" points="1828.47,-301.75 1818.08,-299.65 1824.9,-307.77 1828.47,-301.75"/>
</g>
<!-- Node38 -->
<g id="node38" class="node">
<title>Node38</title>
<g id="a_node38"><a xlink:title=" ">
<polygon fill="white" stroke="#bfbfbf" points="1837.5,-280.5 1837.5,-299.5 1893.5,-299.5 1893.5,-280.5 1837.5,-280.5"/>
<text text-anchor="middle" x="1865.5" y="-287.5" font-family="Helvetica,sans-Serif" font-size="10.00">sstream</text>
</a>
</g>
</g>
<!-- Node36&#45;&gt;Node38 -->
<g id="edge79" class="edge">
<title>Node36&#45;&gt;Node38</title>
<path fill="none" stroke="midnightblue" d="M1889.71,-336.08C1885.74,-328.69 1879.97,-317.95 1875.07,-308.81"/>
<polygon fill="midnightblue" stroke="midnightblue" points="1878.01,-306.91 1870.2,-299.75 1871.85,-310.22 1878.01,-306.91"/>
</g>
<!-- Node39&#45;&gt;Node10 -->
<g id="edge83" class="edge">
<title>Node39&#45;&gt;Node10</title>
<path fill="none" stroke="midnightblue" d="M1562.81,-336.44C1578.32,-328.3 1601.23,-315.08 1618.5,-300 1664.48,-259.85 1683.5,-240.05 1683.5,-179 1683.5,-179 1683.5,-179 1683.5,-121 1683.5,-64.3 1612.38,-33.16 1569.41,-19.52"/>
<polygon fill="midnightblue" stroke="midnightblue" points="1570.26,-16.12 1559.67,-16.58 1568.23,-22.82 1570.26,-16.12"/>
</g>
<!-- Node39&#45;&gt;Node34 -->
<g id="edge84" class="edge">
<title>Node39&#45;&gt;Node34</title>
<path fill="none" stroke="midnightblue" d="M1541.54,-336.08C1538.29,-328.77 1533.58,-318.18 1529.55,-309.1"/>
<polygon fill="midnightblue" stroke="midnightblue" points="1532.65,-307.47 1525.39,-299.75 1526.25,-310.31 1532.65,-307.47"/>
</g>
<!-- Node40 -->
<g id="node40" class="node">
<title>Node40</title>
<g id="a_node40"><a xlink:title=" ">
<polygon fill="white" stroke="#bfbfbf" points="1666,-280.5 1666,-299.5 1731,-299.5 1731,-280.5 1666,-280.5"/>
<text text-anchor="middle" x="1698.5" y="-287.5" font-family="Helvetica,sans-Serif" font-size="10.00">exception</text>
</a>
</g>
</g>
<!-- Node39&#45;&gt;Node40 -->
<g id="edge82" class="edge">
<title>Node39&#45;&gt;Node40</title>
<path fill="none" stroke="midnightblue" d="M1569.74,-336.44C1595.37,-327.4 1635.99,-313.06 1664.74,-302.92"/>
<polygon fill="midnightblue" stroke="midnightblue" points="1666.11,-306.15 1674.37,-299.52 1663.78,-299.54 1666.11,-306.15"/>
</g>
<!-- Node41&#45;&gt;Node10 -->
<g id="edge87" class="edge">
<title>Node41&#45;&gt;Node10</title>
<path fill="none" stroke="midnightblue" d="M1737.87,-336.31C1744.7,-317.92 1759.5,-273.58 1759.5,-235 1759.5,-235 1759.5,-235 1759.5,-121 1759.5,-37.41 1631.57,-17.34 1569.94,-12.52"/>
<polygon fill="midnightblue" stroke="midnightblue" points="1569.82,-9.01 1559.6,-11.81 1569.33,-15.99 1569.82,-9.01"/>
</g>
<!-- Node41&#45;&gt;Node34 -->
<g id="edge90" class="edge">
<title>Node41&#45;&gt;Node34</title>
<path fill="none" stroke="midnightblue" d="M1700.75,-336.44C1663.98,-327.12 1605.05,-312.18 1564.88,-302"/>
<polygon fill="midnightblue" stroke="midnightblue" points="1565.65,-298.58 1555.09,-299.52 1563.93,-305.37 1565.65,-298.58"/>
</g>
<!-- Node41&#45;&gt;Node37 -->
<g id="edge88" class="edge">
<title>Node41&#45;&gt;Node37</title>
<path fill="none" stroke="midnightblue" d="M1745.59,-336.32C1755.99,-328.18 1771.76,-315.84 1784.22,-306.09"/>
<polygon fill="midnightblue" stroke="midnightblue" points="1786.49,-308.75 1792.21,-299.83 1782.18,-303.24 1786.49,-308.75"/>
</g>
<!-- Node41&#45;&gt;Node38 -->
<g id="edge89" class="edge">
<title>Node41&#45;&gt;Node38</title>
<path fill="none" stroke="midnightblue" d="M1755.26,-336.44C1776.82,-327.56 1810.76,-313.56 1835.29,-303.45"/>
<polygon fill="midnightblue" stroke="midnightblue" points="1836.93,-306.56 1844.84,-299.52 1834.26,-300.09 1836.93,-306.56"/>
</g>
<!-- Node41&#45;&gt;Node40 -->
<g id="edge86" class="edge">
<title>Node41&#45;&gt;Node40</title>
<path fill="none" stroke="midnightblue" d="M1728.56,-336.08C1723.52,-328.53 1716.16,-317.49 1709.99,-308.23"/>
<polygon fill="midnightblue" stroke="midnightblue" points="1712.79,-306.13 1704.33,-299.75 1706.97,-310.01 1712.79,-306.13"/>
</g>
</g>
</svg>
