<?xml version="1.0" encoding="UTF-8" standalone="no"?>
<!DOCTYPE svg PUBLIC "-//W3C//DTD SVG 1.1//EN"
 "http://www.w3.org/Graphics/SVG/1.1/DTD/svg11.dtd">
<!-- Generated by graphviz version 2.43.0 (0)
 -->
<!-- Title: sources/Memory/MemoryShadow.hpp Pages: 1 -->
<svg width="568pt" height="196pt"
 viewBox="0.00 0.00 568.00 196.00" xmlns="http://www.w3.org/2000/svg" xmlns:xlink="http://www.w3.org/1999/xlink">
<g id="graph0" class="graph" transform="scale(1 1) rotate(0) translate(4 192)">
<title>sources/Memory/MemoryShadow.hpp</title>
<polygon fill="white" stroke="transparent" points="-4,4 -4,-192 564,-192 564,4 -4,4"/>
<!-- Node1 -->
<g id="node1" class="node">
<title>Node1</title>
<g id="a_node1"><a xlink:title=" ">
<polygon fill="#bfbfbf" stroke="black" points="0,-168.5 0,-187.5 200,-187.5 200,-168.5 0,-168.5"/>
<text text-anchor="middle" x="100" y="-175.5" font-family="Helvetica,sans-Serif" font-size="10.00">sources/Memory/MemoryShadow.hpp</text>
</a>
</g>
</g>
<!-- Node2 -->
<g id="node2" class="node">
<title>Node2</title>
<g id="a_node2"><a xlink:title=" ">
<polygon fill="white" stroke="#bfbfbf" points="14,-0.5 14,-19.5 72,-19.5 72,-0.5 14,-0.5"/>
<text text-anchor="middle" x="43" y="-7.5" font-family="Helvetica,sans-Serif" font-size="10.00">memory</text>
</a>
</g>
</g>
<!-- Node1&#45;&gt;Node2 -->
<g id="edge1" class="edge">
<title>Node1&#45;&gt;Node2</title>
<path fill="none" stroke="midnightblue" d="M96.94,-168.08C87.92,-141.83 61.39,-64.55 49.22,-29.12"/>
<polygon fill="midnightblue" stroke="midnightblue" points="52.5,-27.89 45.94,-19.57 45.88,-30.16 52.5,-27.89"/>
</g>
<!-- Node3 -->
<g id="node3" class="node">
<title>Node3</title>
<g id="a_node3"><a xlink:href="AMemory_8hpp.html" target="_top" xlink:title=" ">
<polygon fill="white" stroke="black" points="149.5,-112.5 149.5,-131.5 232.5,-131.5 232.5,-112.5 149.5,-112.5"/>
<text text-anchor="middle" x="191" y="-119.5" font-family="Helvetica,sans-Serif" font-size="10.00">AMemory.hpp</text>
</a>
</g>
</g>
<!-- Node1&#45;&gt;Node3 -->
<g id="edge2" class="edge">
<title>Node1&#45;&gt;Node3</title>
<path fill="none" stroke="midnightblue" d="M114.62,-168.32C128.95,-159.82 151.01,-146.73 167.75,-136.8"/>
<polygon fill="midnightblue" stroke="midnightblue" points="169.6,-139.77 176.42,-131.65 166.03,-133.75 169.6,-139.77"/>
</g>
<!-- Node3&#45;&gt;Node2 -->
<g id="edge5" class="edge">
<title>Node3&#45;&gt;Node2</title>
<path fill="none" stroke="midnightblue" d="M179.39,-112.37C154.21,-93.65 94.33,-49.15 62.96,-25.83"/>
<polygon fill="midnightblue" stroke="midnightblue" points="64.67,-22.75 54.56,-19.59 60.5,-28.37 64.67,-22.75"/>
</g>
<!-- Node4 -->
<g id="node4" class="node">
<title>Node4</title>
<g id="a_node4"><a xlink:title=" ">
<polygon fill="white" stroke="#bfbfbf" points="90,-0.5 90,-19.5 140,-19.5 140,-0.5 90,-0.5"/>
<text text-anchor="middle" x="115" y="-7.5" font-family="Helvetica,sans-Serif" font-size="10.00">cstdint</text>
</a>
</g>
</g>
<!-- Node3&#45;&gt;Node4 -->
<g id="edge3" class="edge">
<title>Node3&#45;&gt;Node4</title>
<path fill="none" stroke="midnightblue" d="M185.04,-112.37C172.49,-94.22 143.19,-51.8 126.74,-27.99"/>
<polygon fill="midnightblue" stroke="midnightblue" points="129.5,-25.83 120.94,-19.59 123.74,-29.81 129.5,-25.83"/>
</g>
<!-- Node5 -->
<g id="node5" class="node">
<title>Node5</title>
<g id="a_node5"><a xlink:title=" ">
<polygon fill="white" stroke="#bfbfbf" points="158.5,-0.5 158.5,-19.5 205.5,-19.5 205.5,-0.5 158.5,-0.5"/>
<text text-anchor="middle" x="182" y="-7.5" font-family="Helvetica,sans-Serif" font-size="10.00">vector</text>
</a>
</g>
</g>
<!-- Node3&#45;&gt;Node5 -->
<g id="edge4" class="edge">
<title>Node3&#45;&gt;Node5</title>
<path fill="none" stroke="midnightblue" d="M187.14,-112.25C183.44,-103.33 178.11,-89.01 176,-76 173.5,-60.6 175.42,-42.96 177.74,-29.95"/>
<polygon fill="midnightblue" stroke="midnightblue" points="181.22,-30.37 179.77,-19.88 174.36,-28.99 181.22,-30.37"/>
</g>
<!-- Node6 -->
<g id="node6" class="node">
<title>Node6</title>
<g id="a_node6"><a xlink:title=" ">
<polygon fill="white" stroke="#bfbfbf" points="224,-0.5 224,-19.5 268,-19.5 268,-0.5 224,-0.5"/>
<text text-anchor="middle" x="246" y="-7.5" font-family="Helvetica,sans-Serif" font-size="10.00">string</text>
</a>
</g>
</g>
<!-- Node3&#45;&gt;Node6 -->
<g id="edge6" class="edge">
<title>Node3&#45;&gt;Node6</title>
<path fill="none" stroke="midnightblue" d="M223.18,-112.49C241.54,-105.8 263.02,-94.45 274,-76 283.28,-60.41 272.54,-41.18 261.79,-27.7"/>
<polygon fill="midnightblue" stroke="midnightblue" points="264.12,-25.04 254.93,-19.76 258.82,-29.61 264.12,-25.04"/>
</g>
<!-- Node7 -->
<g id="node7" class="node">
<title>Node7</title>
<g id="a_node7"><a xlink:href="Int24_8hpp.html" target="_top" xlink:title=" ">
<polygon fill="white" stroke="black" points="286,-0.5 286,-19.5 396,-19.5 396,-0.5 286,-0.5"/>
<text text-anchor="middle" x="341" y="-7.5" font-family="Helvetica,sans-Serif" font-size="10.00">../Models/Int24.hpp</text>
</a>
</g>
</g>
<!-- Node3&#45;&gt;Node7 -->
<g id="edge7" class="edge">
<title>Node3&#45;&gt;Node7</title>
<path fill="none" stroke="midnightblue" d="M218.56,-112.5C239.57,-105.11 268.48,-92.92 290,-76 306.86,-62.75 321.42,-42.81 330.62,-28.51"/>
<polygon fill="midnightblue" stroke="midnightblue" points="333.81,-30.01 336.09,-19.66 327.85,-26.33 333.81,-30.01"/>
</g>
<!-- Node8 -->
<g id="node8" class="node">
<title>Node8</title>
<g id="a_node8"><a xlink:href="Components_8hpp.html" target="_top" xlink:title=" ">
<polygon fill="white" stroke="black" points="414,-0.5 414,-19.5 560,-19.5 560,-0.5 414,-0.5"/>
<text text-anchor="middle" x="487" y="-7.5" font-family="Helvetica,sans-Serif" font-size="10.00">../Models/Components.hpp</text>
</a>
</g>
</g>
<!-- Node3&#45;&gt;Node8 -->
<g id="edge8" class="edge">
<title>Node3&#45;&gt;Node8</title>
<path fill="none" stroke="midnightblue" d="M214.6,-112.43C239.38,-103.42 279.46,-88.81 314,-76 363.15,-57.78 420.02,-36.34 454.75,-23.21"/>
<polygon fill="midnightblue" stroke="midnightblue" points="456.24,-26.39 464.35,-19.58 453.76,-19.84 456.24,-26.39"/>
</g>
<!-- Node9 -->
<g id="node9" class="node">
<title>Node9</title>
<g id="a_node9"><a xlink:href="IMemory_8hpp.html" target="_top" xlink:title=" ">
<polygon fill="white" stroke="black" points="185,-56.5 185,-75.5 265,-75.5 265,-56.5 185,-56.5"/>
<text text-anchor="middle" x="225" y="-63.5" font-family="Helvetica,sans-Serif" font-size="10.00">IMemory.hpp</text>
</a>
</g>
</g>
<!-- Node3&#45;&gt;Node9 -->
<g id="edge9" class="edge">
<title>Node3&#45;&gt;Node9</title>
<path fill="none" stroke="midnightblue" d="M196.61,-112.08C201.37,-104.53 208.32,-93.49 214.15,-84.23"/>
<polygon fill="midnightblue" stroke="midnightblue" points="217.12,-86.08 219.49,-75.75 211.2,-82.35 217.12,-86.08"/>
</g>
<!-- Node9&#45;&gt;Node2 -->
<g id="edge12" class="edge">
<title>Node9&#45;&gt;Node2</title>
<path fill="none" stroke="midnightblue" d="M196.16,-56.44C165.14,-47.24 115.67,-32.56 81.38,-22.39"/>
<polygon fill="midnightblue" stroke="midnightblue" points="82.29,-19.01 71.7,-19.52 80.29,-25.72 82.29,-19.01"/>
</g>
<!-- Node9&#45;&gt;Node4 -->
<g id="edge10" class="edge">
<title>Node9&#45;&gt;Node4</title>
<path fill="none" stroke="midnightblue" d="M207.33,-56.32C189.61,-47.62 162.1,-34.12 141.71,-24.11"/>
<polygon fill="midnightblue" stroke="midnightblue" points="143.15,-20.92 132.63,-19.65 140.06,-27.2 143.15,-20.92"/>
</g>
<!-- Node9&#45;&gt;Node5 -->
<g id="edge11" class="edge">
<title>Node9&#45;&gt;Node5</title>
<path fill="none" stroke="midnightblue" d="M217.9,-56.08C211.76,-48.38 202.73,-37.03 195.26,-27.65"/>
<polygon fill="midnightblue" stroke="midnightblue" points="197.94,-25.39 188.97,-19.75 192.46,-29.75 197.94,-25.39"/>
</g>
<!-- Node9&#45;&gt;Node6 -->
<g id="edge13" class="edge">
<title>Node9&#45;&gt;Node6</title>
<path fill="none" stroke="midnightblue" d="M228.47,-56.08C231.31,-48.77 235.43,-38.18 238.96,-29.1"/>
<polygon fill="midnightblue" stroke="midnightblue" points="242.23,-30.34 242.6,-19.75 235.71,-27.8 242.23,-30.34"/>
</g>
<!-- Node9&#45;&gt;Node7 -->
<g id="edge14" class="edge">
<title>Node9&#45;&gt;Node7</title>
<path fill="none" stroke="midnightblue" d="M243.38,-56.44C262.22,-47.68 291.73,-33.94 313.38,-23.86"/>
<polygon fill="midnightblue" stroke="midnightblue" points="315.12,-26.91 322.71,-19.52 312.16,-20.56 315.12,-26.91"/>
</g>
<!-- Node9&#45;&gt;Node8 -->
<g id="edge15" class="edge">
<title>Node9&#45;&gt;Node8</title>
<path fill="none" stroke="midnightblue" d="M265.08,-56.74C310.81,-47.31 385.71,-31.88 435.68,-21.58"/>
<polygon fill="midnightblue" stroke="midnightblue" points="436.54,-24.97 445.63,-19.53 435.13,-18.12 436.54,-24.97"/>
</g>
</g>
</svg>
