<?xml version="1.0" encoding="UTF-8" standalone="no"?>
<!DOCTYPE svg PUBLIC "-//W3C//DTD SVG 1.1//EN"
 "http://www.w3.org/Graphics/SVG/1.1/DTD/svg11.dtd">
<!-- Generated by graphviz version 2.43.0 (0)
 -->
<!-- Title: sources/Memory/MemoryShadow.cpp Pages: 1 -->
<svg width="554pt" height="252pt"
 viewBox="0.00 0.00 554.00 252.00" xmlns="http://www.w3.org/2000/svg" xmlns:xlink="http://www.w3.org/1999/xlink">
<g id="graph0" class="graph" transform="scale(1 1) rotate(0) translate(4 248)">
<title>sources/Memory/MemoryShadow.cpp</title>
<polygon fill="white" stroke="transparent" points="-4,4 -4,-248 550,-248 550,4 -4,4"/>
<!-- Node1 -->
<g id="node1" class="node">
<title>Node1</title>
<g id="a_node1"><a xlink:title=" ">
<polygon fill="#bfbfbf" stroke="black" points="35.5,-224.5 35.5,-243.5 234.5,-243.5 234.5,-224.5 35.5,-224.5"/>
<text text-anchor="middle" x="135" y="-231.5" font-family="Helvetica,sans-Serif" font-size="10.00">sources/Memory/MemoryShadow.cpp</text>
</a>
</g>
</g>
<!-- Node2 -->
<g id="node2" class="node">
<title>Node2</title>
<g id="a_node2"><a xlink:href="MemoryShadow_8hpp.html" target="_top" xlink:title=" ">
<polygon fill="white" stroke="black" points="28,-168.5 28,-187.5 144,-187.5 144,-168.5 28,-168.5"/>
<text text-anchor="middle" x="86" y="-175.5" font-family="Helvetica,sans-Serif" font-size="10.00">MemoryShadow.hpp</text>
</a>
</g>
</g>
<!-- Node1&#45;&gt;Node2 -->
<g id="edge1" class="edge">
<title>Node1&#45;&gt;Node2</title>
<path fill="none" stroke="midnightblue" d="M126.91,-224.08C119.84,-216.3 109.41,-204.8 100.85,-195.37"/>
<polygon fill="midnightblue" stroke="midnightblue" points="103.25,-192.8 93.94,-187.75 98.07,-197.51 103.25,-192.8"/>
</g>
<!-- Node11 -->
<g id="node11" class="node">
<title>Node11</title>
<g id="a_node11"><a xlink:title=" ">
<polygon fill="white" stroke="#bfbfbf" points="162.5,-168.5 162.5,-187.5 207.5,-187.5 207.5,-168.5 162.5,-168.5"/>
<text text-anchor="middle" x="185" y="-175.5" font-family="Helvetica,sans-Serif" font-size="10.00">utility</text>
</a>
</g>
</g>
<!-- Node1&#45;&gt;Node11 -->
<g id="edge17" class="edge">
<title>Node1&#45;&gt;Node11</title>
<path fill="none" stroke="midnightblue" d="M143.26,-224.08C150.46,-216.3 161.11,-204.8 169.85,-195.37"/>
<polygon fill="midnightblue" stroke="midnightblue" points="172.67,-197.47 176.9,-187.75 167.53,-192.71 172.67,-197.47"/>
</g>
<!-- Node3 -->
<g id="node3" class="node">
<title>Node3</title>
<g id="a_node3"><a xlink:title=" ">
<polygon fill="white" stroke="#bfbfbf" points="0,-0.5 0,-19.5 58,-19.5 58,-0.5 0,-0.5"/>
<text text-anchor="middle" x="29" y="-7.5" font-family="Helvetica,sans-Serif" font-size="10.00">memory</text>
</a>
</g>
</g>
<!-- Node2&#45;&gt;Node3 -->
<g id="edge2" class="edge">
<title>Node2&#45;&gt;Node3</title>
<path fill="none" stroke="midnightblue" d="M82.94,-168.08C73.92,-141.83 47.39,-64.55 35.22,-29.12"/>
<polygon fill="midnightblue" stroke="midnightblue" points="38.5,-27.89 31.94,-19.57 31.88,-30.16 38.5,-27.89"/>
</g>
<!-- Node4 -->
<g id="node4" class="node">
<title>Node4</title>
<g id="a_node4"><a xlink:href="AMemory_8hpp.html" target="_top" xlink:title=" ">
<polygon fill="white" stroke="black" points="135.5,-112.5 135.5,-131.5 218.5,-131.5 218.5,-112.5 135.5,-112.5"/>
<text text-anchor="middle" x="177" y="-119.5" font-family="Helvetica,sans-Serif" font-size="10.00">AMemory.hpp</text>
</a>
</g>
</g>
<!-- Node2&#45;&gt;Node4 -->
<g id="edge3" class="edge">
<title>Node2&#45;&gt;Node4</title>
<path fill="none" stroke="midnightblue" d="M100.62,-168.32C114.95,-159.82 137.01,-146.73 153.75,-136.8"/>
<polygon fill="midnightblue" stroke="midnightblue" points="155.6,-139.77 162.42,-131.65 152.03,-133.75 155.6,-139.77"/>
</g>
<!-- Node4&#45;&gt;Node3 -->
<g id="edge6" class="edge">
<title>Node4&#45;&gt;Node3</title>
<path fill="none" stroke="midnightblue" d="M165.39,-112.37C140.21,-93.65 80.33,-49.15 48.96,-25.83"/>
<polygon fill="midnightblue" stroke="midnightblue" points="50.67,-22.75 40.56,-19.59 46.5,-28.37 50.67,-22.75"/>
</g>
<!-- Node5 -->
<g id="node5" class="node">
<title>Node5</title>
<g id="a_node5"><a xlink:title=" ">
<polygon fill="white" stroke="#bfbfbf" points="76,-0.5 76,-19.5 126,-19.5 126,-0.5 76,-0.5"/>
<text text-anchor="middle" x="101" y="-7.5" font-family="Helvetica,sans-Serif" font-size="10.00">cstdint</text>
</a>
</g>
</g>
<!-- Node4&#45;&gt;Node5 -->
<g id="edge4" class="edge">
<title>Node4&#45;&gt;Node5</title>
<path fill="none" stroke="midnightblue" d="M171.04,-112.37C158.49,-94.22 129.19,-51.8 112.74,-27.99"/>
<polygon fill="midnightblue" stroke="midnightblue" points="115.5,-25.83 106.94,-19.59 109.74,-29.81 115.5,-25.83"/>
</g>
<!-- Node6 -->
<g id="node6" class="node">
<title>Node6</title>
<g id="a_node6"><a xlink:title=" ">
<polygon fill="white" stroke="#bfbfbf" points="144.5,-0.5 144.5,-19.5 191.5,-19.5 191.5,-0.5 144.5,-0.5"/>
<text text-anchor="middle" x="168" y="-7.5" font-family="Helvetica,sans-Serif" font-size="10.00">vector</text>
</a>
</g>
</g>
<!-- Node4&#45;&gt;Node6 -->
<g id="edge5" class="edge">
<title>Node4&#45;&gt;Node6</title>
<path fill="none" stroke="midnightblue" d="M173.14,-112.25C169.44,-103.33 164.11,-89.01 162,-76 159.5,-60.6 161.42,-42.96 163.74,-29.95"/>
<polygon fill="midnightblue" stroke="midnightblue" points="167.22,-30.37 165.77,-19.88 160.36,-28.99 167.22,-30.37"/>
</g>
<!-- Node7 -->
<g id="node7" class="node">
<title>Node7</title>
<g id="a_node7"><a xlink:title=" ">
<polygon fill="white" stroke="#bfbfbf" points="210,-0.5 210,-19.5 254,-19.5 254,-0.5 210,-0.5"/>
<text text-anchor="middle" x="232" y="-7.5" font-family="Helvetica,sans-Serif" font-size="10.00">string</text>
</a>
</g>
</g>
<!-- Node4&#45;&gt;Node7 -->
<g id="edge7" class="edge">
<title>Node4&#45;&gt;Node7</title>
<path fill="none" stroke="midnightblue" d="M209.18,-112.49C227.54,-105.8 249.02,-94.45 260,-76 269.28,-60.41 258.54,-41.18 247.79,-27.7"/>
<polygon fill="midnightblue" stroke="midnightblue" points="250.12,-25.04 240.93,-19.76 244.82,-29.61 250.12,-25.04"/>
</g>
<!-- Node8 -->
<g id="node8" class="node">
<title>Node8</title>
<g id="a_node8"><a xlink:href="Int24_8hpp.html" target="_top" xlink:title=" ">
<polygon fill="white" stroke="black" points="272,-0.5 272,-19.5 382,-19.5 382,-0.5 272,-0.5"/>
<text text-anchor="middle" x="327" y="-7.5" font-family="Helvetica,sans-Serif" font-size="10.00">../Models/Int24.hpp</text>
</a>
</g>
</g>
<!-- Node4&#45;&gt;Node8 -->
<g id="edge8" class="edge">
<title>Node4&#45;&gt;Node8</title>
<path fill="none" stroke="midnightblue" d="M204.56,-112.5C225.57,-105.11 254.48,-92.92 276,-76 292.86,-62.75 307.42,-42.81 316.62,-28.51"/>
<polygon fill="midnightblue" stroke="midnightblue" points="319.81,-30.01 322.09,-19.66 313.85,-26.33 319.81,-30.01"/>
</g>
<!-- Node9 -->
<g id="node9" class="node">
<title>Node9</title>
<g id="a_node9"><a xlink:href="Components_8hpp.html" target="_top" xlink:title=" ">
<polygon fill="white" stroke="black" points="400,-0.5 400,-19.5 546,-19.5 546,-0.5 400,-0.5"/>
<text text-anchor="middle" x="473" y="-7.5" font-family="Helvetica,sans-Serif" font-size="10.00">../Models/Components.hpp</text>
</a>
</g>
</g>
<!-- Node4&#45;&gt;Node9 -->
<g id="edge9" class="edge">
<title>Node4&#45;&gt;Node9</title>
<path fill="none" stroke="midnightblue" d="M200.6,-112.43C225.38,-103.42 265.46,-88.81 300,-76 349.15,-57.78 406.02,-36.34 440.75,-23.21"/>
<polygon fill="midnightblue" stroke="midnightblue" points="442.24,-26.39 450.35,-19.58 439.76,-19.84 442.24,-26.39"/>
</g>
<!-- Node10 -->
<g id="node10" class="node">
<title>Node10</title>
<g id="a_node10"><a xlink:href="IMemory_8hpp.html" target="_top" xlink:title=" ">
<polygon fill="white" stroke="black" points="171,-56.5 171,-75.5 251,-75.5 251,-56.5 171,-56.5"/>
<text text-anchor="middle" x="211" y="-63.5" font-family="Helvetica,sans-Serif" font-size="10.00">IMemory.hpp</text>
</a>
</g>
</g>
<!-- Node4&#45;&gt;Node10 -->
<g id="edge10" class="edge">
<title>Node4&#45;&gt;Node10</title>
<path fill="none" stroke="midnightblue" d="M182.61,-112.08C187.37,-104.53 194.32,-93.49 200.15,-84.23"/>
<polygon fill="midnightblue" stroke="midnightblue" points="203.12,-86.08 205.49,-75.75 197.2,-82.35 203.12,-86.08"/>
</g>
<!-- Node10&#45;&gt;Node3 -->
<g id="edge13" class="edge">
<title>Node10&#45;&gt;Node3</title>
<path fill="none" stroke="midnightblue" d="M182.16,-56.44C151.14,-47.24 101.67,-32.56 67.38,-22.39"/>
<polygon fill="midnightblue" stroke="midnightblue" points="68.29,-19.01 57.7,-19.52 66.29,-25.72 68.29,-19.01"/>
</g>
<!-- Node10&#45;&gt;Node5 -->
<g id="edge11" class="edge">
<title>Node10&#45;&gt;Node5</title>
<path fill="none" stroke="midnightblue" d="M193.33,-56.32C175.61,-47.62 148.1,-34.12 127.71,-24.11"/>
<polygon fill="midnightblue" stroke="midnightblue" points="129.15,-20.92 118.63,-19.65 126.06,-27.2 129.15,-20.92"/>
</g>
<!-- Node10&#45;&gt;Node6 -->
<g id="edge12" class="edge">
<title>Node10&#45;&gt;Node6</title>
<path fill="none" stroke="midnightblue" d="M203.9,-56.08C197.76,-48.38 188.73,-37.03 181.26,-27.65"/>
<polygon fill="midnightblue" stroke="midnightblue" points="183.94,-25.39 174.97,-19.75 178.46,-29.75 183.94,-25.39"/>
</g>
<!-- Node10&#45;&gt;Node7 -->
<g id="edge14" class="edge">
<title>Node10&#45;&gt;Node7</title>
<path fill="none" stroke="midnightblue" d="M214.47,-56.08C217.31,-48.77 221.43,-38.18 224.96,-29.1"/>
<polygon fill="midnightblue" stroke="midnightblue" points="228.23,-30.34 228.6,-19.75 221.71,-27.8 228.23,-30.34"/>
</g>
<!-- Node10&#45;&gt;Node8 -->
<g id="edge15" class="edge">
<title>Node10&#45;&gt;Node8</title>
<path fill="none" stroke="midnightblue" d="M229.38,-56.44C248.22,-47.68 277.73,-33.94 299.38,-23.86"/>
<polygon fill="midnightblue" stroke="midnightblue" points="301.12,-26.91 308.71,-19.52 298.16,-20.56 301.12,-26.91"/>
</g>
<!-- Node10&#45;&gt;Node9 -->
<g id="edge16" class="edge">
<title>Node10&#45;&gt;Node9</title>
<path fill="none" stroke="midnightblue" d="M251.08,-56.74C296.81,-47.31 371.71,-31.88 421.68,-21.58"/>
<polygon fill="midnightblue" stroke="midnightblue" points="422.54,-24.97 431.63,-19.53 421.13,-18.12 422.54,-24.97"/>
</g>
</g>
</svg>
