<?xml version="1.0" encoding="UTF-8" standalone="no"?>
<!DOCTYPE svg PUBLIC "-//W3C//DTD SVG 1.1//EN"
 "http://www.w3.org/Graphics/SVG/1.1/DTD/svg11.dtd">
<!-- Generated by graphviz version 2.43.0 (0)
 -->
<!-- Title: sources/Renderer/NoRenderer.hpp Pages: 1 -->
<svg width="2963pt" height="151pt"
 viewBox="0.00 0.00 2963.00 151.00" xmlns="http://www.w3.org/2000/svg" xmlns:xlink="http://www.w3.org/1999/xlink">
<g id="graph0" class="graph" transform="scale(1 1) rotate(0) translate(4 147)">
<title>sources/Renderer/NoRenderer.hpp</title>
<polygon fill="white" stroke="transparent" points="-4,4 -4,-147 2959,-147 2959,4 -4,4"/>
<!-- Node1 -->
<g id="node1" class="node">
<title>Node1</title>
<g id="a_node1"><a xlink:title=" ">
<polygon fill="#bfbfbf" stroke="black" points="1317,-123.5 1317,-142.5 1499,-142.5 1499,-123.5 1317,-123.5"/>
<text text-anchor="middle" x="1408" y="-130.5" font-family="Helvetica,sans-Serif" font-size="10.00">sources/Renderer/NoRenderer.hpp</text>
</a>
</g>
</g>
<!-- Node2 -->
<g id="node2" class="node">
<title>Node2</title>
<g id="a_node2"><a xlink:href="NoRenderer_8cpp.html" target="_top" xlink:title=" ">
<polygon fill="white" stroke="black" points="1240,-67.5 1240,-86.5 1422,-86.5 1422,-67.5 1240,-67.5"/>
<text text-anchor="middle" x="1331" y="-74.5" font-family="Helvetica,sans-Serif" font-size="10.00">sources/Renderer/NoRenderer.cpp</text>
</a>
</g>
</g>
<!-- Node1&#45;&gt;Node2 -->
<g id="edge1" class="edge">
<title>Node1&#45;&gt;Node2</title>
<path fill="none" stroke="midnightblue" d="M1387.1,-117.34C1373.09,-107.52 1355.12,-94.91 1343.34,-86.65"/>
<polygon fill="midnightblue" stroke="midnightblue" points="1385.43,-120.45 1395.63,-123.32 1389.45,-114.72 1385.43,-120.45"/>
</g>
<!-- Node3 -->
<g id="node3" class="node">
<title>Node3</title>
<g id="a_node3"><a xlink:href="tests_8hpp.html" target="_top" xlink:title=" ">
<polygon fill="white" stroke="black" points="1440.5,-67.5 1440.5,-86.5 1529.5,-86.5 1529.5,-67.5 1440.5,-67.5"/>
<text text-anchor="middle" x="1485" y="-74.5" font-family="Helvetica,sans-Serif" font-size="10.00">tests/tests.hpp</text>
</a>
</g>
</g>
<!-- Node1&#45;&gt;Node3 -->
<g id="edge2" class="edge">
<title>Node1&#45;&gt;Node3</title>
<path fill="none" stroke="midnightblue" d="M1428.9,-117.34C1442.91,-107.52 1460.88,-94.91 1472.66,-86.65"/>
<polygon fill="midnightblue" stroke="midnightblue" points="1426.55,-114.72 1420.37,-123.32 1430.57,-120.45 1426.55,-114.72"/>
</g>
<!-- Node3&#45;&gt;Node3 -->
<g id="edge4" class="edge">
<title>Node3&#45;&gt;Node3</title>
<path fill="none" stroke="midnightblue" d="M1521.69,-87.46C1535.79,-87.91 1547.5,-84.42 1547.5,-77 1547.5,-67.87 1529.77,-64.69 1511.66,-67.47"/>
<polygon fill="midnightblue" stroke="midnightblue" points="1521.94,-83.97 1511.66,-86.53 1521.29,-90.94 1521.94,-83.97"/>
</g>
<!-- Node4 -->
<g id="node4" class="node">
<title>Node4</title>
<g id="a_node4"><a xlink:href="testAPU_8cpp.html" target="_top" xlink:title=" ">
<polygon fill="white" stroke="black" points="0,-6 0,-25 126,-25 126,-6 0,-6"/>
<text text-anchor="middle" x="63" y="-13" font-family="Helvetica,sans-Serif" font-size="10.00">tests/APU/testAPU.cpp</text>
</a>
</g>
</g>
<!-- Node3&#45;&gt;Node4 -->
<g id="edge3" class="edge">
<title>Node3&#45;&gt;Node4</title>
<path fill="none" stroke="midnightblue" d="M1430.07,-67.08C855.69,-12.49 704.18,-95.74 135,-31 123.22,-29.66 110.49,-27.38 99.07,-25.02"/>
<polygon fill="midnightblue" stroke="midnightblue" points="1429.98,-70.59 1440.27,-68.06 1430.65,-63.62 1429.98,-70.59"/>
</g>
<!-- Node5 -->
<g id="node5" class="node">
<title>Node5</title>
<g id="a_node5"><a xlink:href="testAPUInstructions_8cpp.html" target="_top" xlink:title=" ">
<polygon fill="white" stroke="black" points="144.5,-6 144.5,-25 327.5,-25 327.5,-6 144.5,-6"/>
<text text-anchor="middle" x="236" y="-13" font-family="Helvetica,sans-Serif" font-size="10.00">tests/APU/testAPUInstructions.cpp</text>
</a>
</g>
</g>
<!-- Node3&#45;&gt;Node5 -->
<g id="edge5" class="edge">
<title>Node3&#45;&gt;Node5</title>
<path fill="none" stroke="midnightblue" d="M1430.2,-67.08C944.72,-19.62 817.71,-73.71 336,-31 320.01,-29.58 302.68,-27.33 287,-25.01"/>
<polygon fill="midnightblue" stroke="midnightblue" points="1429.98,-70.58 1440.27,-68.08 1430.66,-63.61 1429.98,-70.58"/>
</g>
<!-- Node6 -->
<g id="node6" class="node">
<title>Node6</title>
<g id="a_node6"><a xlink:href="testOperand_8cpp.html" target="_top" xlink:title=" ">
<polygon fill="white" stroke="black" points="345.5,-6 345.5,-25 492.5,-25 492.5,-6 345.5,-6"/>
<text text-anchor="middle" x="419" y="-13" font-family="Helvetica,sans-Serif" font-size="10.00">tests/APU/testOperand.cpp</text>
</a>
</g>
</g>
<!-- Node3&#45;&gt;Node6 -->
<g id="edge6" class="edge">
<title>Node3&#45;&gt;Node6</title>
<path fill="none" stroke="midnightblue" d="M1430.16,-67.07C1017.76,-25.72 908.97,-74.76 501,-31 487.92,-29.6 473.78,-27.36 460.98,-25.06"/>
<polygon fill="midnightblue" stroke="midnightblue" points="1429.97,-70.57 1440.27,-68.1 1430.67,-63.61 1429.97,-70.57"/>
</g>
<!-- Node7 -->
<g id="node7" class="node">
<title>Node7</title>
<g id="a_node7"><a xlink:href="testADC_8cpp.html" target="_top" xlink:title=" ">
<polygon fill="white" stroke="black" points="510.5,-6 510.5,-25 665.5,-25 665.5,-6 510.5,-6"/>
<text text-anchor="middle" x="588" y="-13" font-family="Helvetica,sans-Serif" font-size="10.00">tests/CPU/Math/testADC.cpp</text>
</a>
</g>
</g>
<!-- Node3&#45;&gt;Node7 -->
<g id="edge7" class="edge">
<title>Node3&#45;&gt;Node7</title>
<path fill="none" stroke="midnightblue" d="M1430.27,-67.07C1094.8,-31.97 1006.21,-66.36 675,-31 661.3,-29.54 646.48,-27.31 633.02,-25.04"/>
<polygon fill="midnightblue" stroke="midnightblue" points="1429.95,-70.56 1440.27,-68.13 1430.69,-63.59 1429.95,-70.56"/>
</g>
<!-- Node8 -->
<g id="node8" class="node">
<title>Node8</title>
<g id="a_node8"><a xlink:href="testCMP_8cpp.html" target="_top" xlink:title=" ">
<polygon fill="white" stroke="black" points="684,-6 684,-25 838,-25 838,-6 684,-6"/>
<text text-anchor="middle" x="761" y="-13" font-family="Helvetica,sans-Serif" font-size="10.00">tests/CPU/Math/testCMP.cpp</text>
</a>
</g>
</g>
<!-- Node3&#45;&gt;Node8 -->
<g id="edge8" class="edge">
<title>Node3&#45;&gt;Node8</title>
<path fill="none" stroke="midnightblue" d="M1430.16,-67.04C1170.88,-38.16 1102.07,-60.28 847,-31 833.76,-29.48 819.46,-27.29 806.4,-25.07"/>
<polygon fill="midnightblue" stroke="midnightblue" points="1429.93,-70.53 1440.26,-68.18 1430.72,-63.58 1429.93,-70.53"/>
</g>
<!-- Node9 -->
<g id="node9" class="node">
<title>Node9</title>
<g id="a_node9"><a xlink:href="testOthersMath_8cpp.html" target="_top" xlink:title=" ">
<polygon fill="white" stroke="black" points="856,-0.5 856,-30.5 1002,-30.5 1002,-0.5 856,-0.5"/>
<text text-anchor="start" x="864" y="-18.5" font-family="Helvetica,sans-Serif" font-size="10.00">tests/CPU/Math/testOthers</text>
<text text-anchor="middle" x="929" y="-7.5" font-family="Helvetica,sans-Serif" font-size="10.00">Math.cpp</text>
</a>
</g>
</g>
<!-- Node3&#45;&gt;Node9 -->
<g id="edge9" class="edge">
<title>Node3&#45;&gt;Node9</title>
<path fill="none" stroke="midnightblue" d="M1430.1,-66.99C1243.38,-43.98 1193.5,-54.91 1011,-31 1008.13,-30.62 1005.21,-30.22 1002.27,-29.79"/>
<polygon fill="midnightblue" stroke="midnightblue" points="1429.89,-70.49 1440.25,-68.26 1430.76,-63.55 1429.89,-70.49"/>
</g>
<!-- Node10 -->
<g id="node10" class="node">
<title>Node10</title>
<g id="a_node10"><a xlink:href="testSBC_8cpp.html" target="_top" xlink:title=" ">
<polygon fill="white" stroke="black" points="1020.5,-6 1020.5,-25 1173.5,-25 1173.5,-6 1020.5,-6"/>
<text text-anchor="middle" x="1097" y="-13" font-family="Helvetica,sans-Serif" font-size="10.00">tests/CPU/Math/testSBC.cpp</text>
</a>
</g>
</g>
<!-- Node3&#45;&gt;Node10 -->
<g id="edge10" class="edge">
<title>Node3&#45;&gt;Node10</title>
<path fill="none" stroke="midnightblue" d="M1430.31,-66.92C1319.3,-49.74 1289.92,-47.77 1183,-31 1171.18,-29.15 1158.47,-27.06 1146.54,-25.05"/>
<polygon fill="midnightblue" stroke="midnightblue" points="1429.8,-70.39 1440.22,-68.46 1430.88,-63.47 1429.8,-70.39"/>
</g>
<!-- Node11 -->
<g id="node11" class="node">
<title>Node11</title>
<g id="a_node11"><a xlink:href="testAddressingMode_8cpp.html" target="_top" xlink:title=" ">
<polygon fill="white" stroke="black" points="1192,-0.5 1192,-30.5 1332,-30.5 1332,-0.5 1192,-0.5"/>
<text text-anchor="start" x="1200" y="-18.5" font-family="Helvetica,sans-Serif" font-size="10.00">tests/CPU/testAddressing</text>
<text text-anchor="middle" x="1262" y="-7.5" font-family="Helvetica,sans-Serif" font-size="10.00">Mode.cpp</text>
</a>
</g>
</g>
<!-- Node3&#45;&gt;Node11 -->
<g id="edge11" class="edge">
<title>Node3&#45;&gt;Node11</title>
<path fill="none" stroke="midnightblue" d="M1443.24,-64.86C1406.83,-55.14 1353.84,-41.01 1314.56,-30.52"/>
<polygon fill="midnightblue" stroke="midnightblue" points="1442.49,-68.28 1453.05,-67.48 1444.29,-61.52 1442.49,-68.28"/>
</g>
<!-- Node12 -->
<g id="node12" class="node">
<title>Node12</title>
<g id="a_node12"><a xlink:href="testBits_8cpp.html" target="_top" xlink:title=" ">
<polygon fill="white" stroke="black" points="1350.5,-6 1350.5,-25 1475.5,-25 1475.5,-6 1350.5,-6"/>
<text text-anchor="middle" x="1413" y="-13" font-family="Helvetica,sans-Serif" font-size="10.00">tests/CPU/testBits.cpp</text>
</a>
</g>
</g>
<!-- Node3&#45;&gt;Node12 -->
<g id="edge12" class="edge">
<title>Node3&#45;&gt;Node12</title>
<path fill="none" stroke="midnightblue" d="M1466.82,-60.97C1453.04,-49.59 1434.62,-34.37 1423.3,-25.01"/>
<polygon fill="midnightblue" stroke="midnightblue" points="1464.75,-63.8 1474.68,-67.48 1469.21,-58.41 1464.75,-63.8"/>
</g>
<!-- Node13 -->
<g id="node13" class="node">
<title>Node13</title>
<g id="a_node13"><a xlink:href="testDMA_8cpp.html" target="_top" xlink:title=" ">
<polygon fill="white" stroke="black" points="1493.5,-6 1493.5,-25 1622.5,-25 1622.5,-6 1493.5,-6"/>
<text text-anchor="middle" x="1558" y="-13" font-family="Helvetica,sans-Serif" font-size="10.00">tests/CPU/testDMA.cpp</text>
</a>
</g>
</g>
<!-- Node3&#45;&gt;Node13 -->
<g id="edge13" class="edge">
<title>Node3&#45;&gt;Node13</title>
<path fill="none" stroke="midnightblue" d="M1503.44,-60.97C1517.4,-49.59 1536.08,-34.37 1547.56,-25.01"/>
<polygon fill="midnightblue" stroke="midnightblue" points="1501,-58.44 1495.46,-67.48 1505.42,-63.87 1501,-58.44"/>
</g>
<!-- Node14 -->
<g id="node14" class="node">
<title>Node14</title>
<g id="a_node14"><a xlink:href="testInternal_8cpp.html" target="_top" xlink:title=" ">
<polygon fill="white" stroke="black" points="1640.5,-6 1640.5,-25 1783.5,-25 1783.5,-6 1640.5,-6"/>
<text text-anchor="middle" x="1712" y="-13" font-family="Helvetica,sans-Serif" font-size="10.00">tests/CPU/testInternal.cpp</text>
</a>
</g>
</g>
<!-- Node3&#45;&gt;Node14 -->
<g id="edge14" class="edge">
<title>Node3&#45;&gt;Node14</title>
<path fill="none" stroke="midnightblue" d="M1527.36,-64.9C1571.45,-53.34 1639.53,-35.5 1679.54,-25.01"/>
<polygon fill="midnightblue" stroke="midnightblue" points="1526.31,-61.55 1517.52,-67.48 1528.08,-68.33 1526.31,-61.55"/>
</g>
<!-- Node15 -->
<g id="node15" class="node">
<title>Node15</title>
<g id="a_node15"><a xlink:href="testInterupts_8cpp.html" target="_top" xlink:title=" ">
<polygon fill="white" stroke="black" points="1801.5,-6 1801.5,-25 1950.5,-25 1950.5,-6 1801.5,-6"/>
<text text-anchor="middle" x="1876" y="-13" font-family="Helvetica,sans-Serif" font-size="10.00">tests/CPU/testInterupts.cpp</text>
</a>
</g>
</g>
<!-- Node3&#45;&gt;Node15 -->
<g id="edge15" class="edge">
<title>Node3&#45;&gt;Node15</title>
<path fill="none" stroke="midnightblue" d="M1539.97,-68.44C1601.63,-59.85 1704.6,-45.18 1793,-31 1804.55,-29.15 1816.99,-27.04 1828.63,-25.01"/>
<polygon fill="midnightblue" stroke="midnightblue" points="1539.11,-65.03 1529.69,-69.87 1540.08,-71.96 1539.11,-65.03"/>
</g>
<!-- Node16 -->
<g id="node16" class="node">
<title>Node16</title>
<g id="a_node16"><a xlink:href="testStore_8cpp.html" target="_top" xlink:title=" ">
<polygon fill="white" stroke="black" points="1968.5,-6 1968.5,-25 2099.5,-25 2099.5,-6 1968.5,-6"/>
<text text-anchor="middle" x="2034" y="-13" font-family="Helvetica,sans-Serif" font-size="10.00">tests/CPU/testStore.cpp</text>
</a>
</g>
</g>
<!-- Node3&#45;&gt;Node16 -->
<g id="edge16" class="edge">
<title>Node3&#45;&gt;Node16</title>
<path fill="none" stroke="midnightblue" d="M1539.8,-72.58C1628.43,-66.65 1808.6,-52.95 1960,-31 1971.14,-29.38 1983.15,-27.22 1994.18,-25.05"/>
<polygon fill="midnightblue" stroke="midnightblue" points="1539.45,-69.09 1529.71,-73.25 1539.92,-76.08 1539.45,-69.09"/>
</g>
<!-- Node17 -->
<g id="node17" class="node">
<title>Node17</title>
<g id="a_node17"><a xlink:href="testTransfers_8cpp.html" target="_top" xlink:title=" ">
<polygon fill="white" stroke="black" points="2118,-6 2118,-25 2268,-25 2268,-6 2118,-6"/>
<text text-anchor="middle" x="2193" y="-13" font-family="Helvetica,sans-Serif" font-size="10.00">tests/CPU/testTransfers.cpp</text>
</a>
</g>
</g>
<!-- Node3&#45;&gt;Node17 -->
<g id="edge17" class="edge">
<title>Node3&#45;&gt;Node17</title>
<path fill="none" stroke="midnightblue" d="M1539.87,-73.87C1648.73,-69.24 1899.59,-56.56 2109,-31 2121.78,-29.44 2135.58,-27.27 2148.22,-25.07"/>
<polygon fill="midnightblue" stroke="midnightblue" points="1539.63,-70.38 1529.79,-74.29 1539.93,-77.37 1539.63,-70.38"/>
</g>
<!-- Node18 -->
<g id="node18" class="node">
<title>Node18</title>
<g id="a_node18"><a xlink:href="testPpuWrite_8cpp.html" target="_top" xlink:title=" ">
<polygon fill="white" stroke="black" points="2285.5,-6 2285.5,-25 2434.5,-25 2434.5,-6 2285.5,-6"/>
<text text-anchor="middle" x="2360" y="-13" font-family="Helvetica,sans-Serif" font-size="10.00">tests/PPU/testPpuWrite.cpp</text>
</a>
</g>
</g>
<!-- Node3&#45;&gt;Node18 -->
<g id="edge18" class="edge">
<title>Node3&#45;&gt;Node18</title>
<path fill="none" stroke="midnightblue" d="M1539.84,-75.08C1668.81,-72.42 2001.26,-62.81 2277,-31 2289.93,-29.51 2303.91,-27.3 2316.63,-25.06"/>
<polygon fill="midnightblue" stroke="midnightblue" points="1539.74,-71.58 1529.81,-75.28 1539.88,-78.58 1539.74,-71.58"/>
</g>
<!-- Node19 -->
<g id="node19" class="node">
<title>Node19</title>
<g id="a_node19"><a xlink:href="testPpuWriteFromVmain_8cpp.html" target="_top" xlink:title=" ">
<polygon fill="white" stroke="black" points="2453,-0.5 2453,-30.5 2607,-30.5 2607,-0.5 2453,-0.5"/>
<text text-anchor="start" x="2461" y="-18.5" font-family="Helvetica,sans-Serif" font-size="10.00">tests/PPU/testPpuWriteFrom</text>
<text text-anchor="middle" x="2530" y="-7.5" font-family="Helvetica,sans-Serif" font-size="10.00">Vmain.cpp</text>
</a>
</g>
</g>
<!-- Node3&#45;&gt;Node19 -->
<g id="edge19" class="edge">
<title>Node3&#45;&gt;Node19</title>
<path fill="none" stroke="midnightblue" d="M1539.7,-75.73C1686.51,-74.51 2101.3,-67.8 2444,-31 2446.86,-30.69 2449.77,-30.35 2452.71,-29.98"/>
<polygon fill="midnightblue" stroke="midnightblue" points="1539.57,-72.23 1529.6,-75.81 1539.63,-79.23 1539.57,-72.23"/>
</g>
<!-- Node20 -->
<g id="node20" class="node">
<title>Node20</title>
<g id="a_node20"><a xlink:href="testMemoryBus_8cpp.html" target="_top" xlink:title=" ">
<polygon fill="white" stroke="black" points="2625.5,-6 2625.5,-25 2766.5,-25 2766.5,-6 2625.5,-6"/>
<text text-anchor="middle" x="2696" y="-13" font-family="Helvetica,sans-Serif" font-size="10.00">tests/testMemoryBus.cpp</text>
</a>
</g>
</g>
<!-- Node3&#45;&gt;Node20 -->
<g id="edge20" class="edge">
<title>Node3&#45;&gt;Node20</title>
<path fill="none" stroke="midnightblue" d="M1539.94,-76.52C1703.97,-77.5 2204.34,-76.27 2616,-31 2628.77,-29.6 2642.57,-27.36 2655.05,-25.06"/>
<polygon fill="midnightblue" stroke="midnightblue" points="1539.65,-73.02 1529.62,-76.46 1539.6,-80.02 1539.65,-73.02"/>
</g>
<!-- Node21 -->
<g id="node21" class="node">
<title>Node21</title>
<g id="a_node21"><a xlink:href="testRectangleMemory_8cpp.html" target="_top" xlink:title=" ">
<polygon fill="white" stroke="black" points="2785,-6 2785,-25 2955,-25 2955,-6 2785,-6"/>
<text text-anchor="middle" x="2870" y="-13" font-family="Helvetica,sans-Serif" font-size="10.00">tests/testRectangleMemory.cpp</text>
</a>
</g>
</g>
<!-- Node3&#45;&gt;Node21 -->
<g id="edge21" class="edge">
<title>Node3&#45;&gt;Node21</title>
<path fill="none" stroke="midnightblue" d="M1539.91,-76.4C1718.48,-77.22 2298.76,-75.97 2776,-31 2790.96,-29.59 2807.16,-27.35 2821.83,-25.05"/>
<polygon fill="midnightblue" stroke="midnightblue" points="1539.73,-72.9 1529.72,-76.35 1539.7,-79.9 1539.73,-72.9"/>
</g>
</g>
</svg>
