<?xml version="1.0" encoding="UTF-8" standalone="no"?>
<!DOCTYPE svg PUBLIC "-//W3C//DTD SVG 1.1//EN"
 "http://www.w3.org/Graphics/SVG/1.1/DTD/svg11.dtd">
<!-- Generated by graphviz version 2.43.0 (0)
 -->
<!-- Title: sources/APU/Operand.cpp Pages: 1 -->
<svg width="771pt" height="308pt"
 viewBox="0.00 0.00 771.00 308.00" xmlns="http://www.w3.org/2000/svg" xmlns:xlink="http://www.w3.org/1999/xlink">
<g id="graph0" class="graph" transform="scale(1 1) rotate(0) translate(4 304)">
<title>sources/APU/Operand.cpp</title>
<polygon fill="white" stroke="transparent" points="-4,4 -4,-304 767,-304 767,4 -4,4"/>
<!-- Node1 -->
<g id="node1" class="node">
<title>Node1</title>
<g id="a_node1"><a xlink:title=" ">
<polygon fill="#bfbfbf" stroke="black" points="115,-280.5 115,-299.5 257,-299.5 257,-280.5 115,-280.5"/>
<text text-anchor="middle" x="186" y="-287.5" font-family="Helvetica,sans-Serif" font-size="10.00">sources/APU/Operand.cpp</text>
</a>
</g>
</g>
<!-- Node2 -->
<g id="node2" class="node">
<title>Node2</title>
<g id="a_node2"><a xlink:href="Int24_8hpp.html" target="_top" xlink:title=" ">
<polygon fill="white" stroke="black" points="0,-0.5 0,-19.5 110,-19.5 110,-0.5 0,-0.5"/>
<text text-anchor="middle" x="55" y="-7.5" font-family="Helvetica,sans-Serif" font-size="10.00">../Models/Int24.hpp</text>
</a>
</g>
</g>
<!-- Node1&#45;&gt;Node2 -->
<g id="edge1" class="edge">
<title>Node1&#45;&gt;Node2</title>
<path fill="none" stroke="midnightblue" d="M159.81,-280.41C121.58,-266.03 55,-233.2 55,-179 55,-179 55,-179 55,-121 55,-88.95 55,-51.64 55,-29.75"/>
<polygon fill="midnightblue" stroke="midnightblue" points="58.5,-29.56 55,-19.56 51.5,-29.56 58.5,-29.56"/>
</g>
<!-- Node3 -->
<g id="node3" class="node">
<title>Node3</title>
<g id="a_node3"><a xlink:href="APU_8hpp.html" target="_top" xlink:title=" ">
<polygon fill="white" stroke="black" points="288,-224.5 288,-243.5 346,-243.5 346,-224.5 288,-224.5"/>
<text text-anchor="middle" x="317" y="-231.5" font-family="Helvetica,sans-Serif" font-size="10.00">APU.hpp</text>
</a>
</g>
</g>
<!-- Node1&#45;&gt;Node3 -->
<g id="edge2" class="edge">
<title>Node1&#45;&gt;Node3</title>
<path fill="none" stroke="midnightblue" d="M206.76,-280.44C228.32,-271.56 262.26,-257.56 286.79,-247.45"/>
<polygon fill="midnightblue" stroke="midnightblue" points="288.43,-250.56 296.34,-243.52 285.76,-244.09 288.43,-250.56"/>
</g>
<!-- Node4 -->
<g id="node4" class="node">
<title>Node4</title>
<g id="a_node4"><a xlink:title=" ">
<polygon fill="white" stroke="#bfbfbf" points="426,-0.5 426,-19.5 484,-19.5 484,-0.5 426,-0.5"/>
<text text-anchor="middle" x="455" y="-7.5" font-family="Helvetica,sans-Serif" font-size="10.00">memory</text>
</a>
</g>
</g>
<!-- Node3&#45;&gt;Node4 -->
<g id="edge3" class="edge">
<title>Node3&#45;&gt;Node4</title>
<path fill="none" stroke="midnightblue" d="M346.2,-231.23C383.25,-227.79 447.86,-217.67 494,-188 520.86,-170.73 528.4,-162.12 539,-132 554.16,-88.93 507.32,-47.09 477.59,-25.7"/>
<polygon fill="midnightblue" stroke="midnightblue" points="479.21,-22.57 468.99,-19.75 475.22,-28.32 479.21,-22.57"/>
</g>
<!-- Node5 -->
<g id="node5" class="node">
<title>Node5</title>
<g id="a_node5"><a xlink:href="DSP_8hpp.html" target="_top" xlink:title=" ">
<polygon fill="white" stroke="black" points="113,-168.5 113,-187.5 191,-187.5 191,-168.5 113,-168.5"/>
<text text-anchor="middle" x="152" y="-175.5" font-family="Helvetica,sans-Serif" font-size="10.00">DSP/DSP.hpp</text>
</a>
</g>
</g>
<!-- Node3&#45;&gt;Node5 -->
<g id="edge4" class="edge">
<title>Node3&#45;&gt;Node5</title>
<path fill="none" stroke="midnightblue" d="M290.86,-224.44C262.98,-215.32 218.65,-200.81 187.6,-190.65"/>
<polygon fill="midnightblue" stroke="midnightblue" points="188.62,-187.3 178.02,-187.52 186.44,-193.95 188.62,-187.3"/>
</g>
<!-- Node8 -->
<g id="node8" class="node">
<title>Node8</title>
<g id="a_node8"><a xlink:href="AMemory_8hpp.html" target="_top" xlink:title=" ">
<polygon fill="white" stroke="black" points="181.5,-112.5 181.5,-131.5 326.5,-131.5 326.5,-112.5 181.5,-112.5"/>
<text text-anchor="middle" x="254" y="-119.5" font-family="Helvetica,sans-Serif" font-size="10.00">../../Memory/AMemory.hpp</text>
</a>
</g>
</g>
<!-- Node3&#45;&gt;Node8 -->
<g id="edge21" class="edge">
<title>Node3&#45;&gt;Node8</title>
<path fill="none" stroke="midnightblue" d="M315.86,-224.48C313.85,-211.53 308.8,-186.47 298,-168 291.5,-156.88 281.65,-146.46 272.92,-138.45"/>
<polygon fill="midnightblue" stroke="midnightblue" points="275.17,-135.77 265.34,-131.82 270.57,-141.04 275.17,-135.77"/>
</g>
<!-- Node13 -->
<g id="node13" class="node">
<title>Node13</title>
<g id="a_node13"><a xlink:href="Ram_8hpp.html" target="_top" xlink:title=" ">
<polygon fill="white" stroke="black" points="389.5,-168.5 389.5,-187.5 484.5,-187.5 484.5,-168.5 389.5,-168.5"/>
<text text-anchor="middle" x="437" y="-175.5" font-family="Helvetica,sans-Serif" font-size="10.00">../Ram/Ram.hpp</text>
</a>
</g>
</g>
<!-- Node3&#45;&gt;Node13 -->
<g id="edge22" class="edge">
<title>Node3&#45;&gt;Node13</title>
<path fill="none" stroke="midnightblue" d="M336.01,-224.44C355.59,-215.64 386.31,-201.81 408.73,-191.72"/>
<polygon fill="midnightblue" stroke="midnightblue" points="410.39,-194.81 418.07,-187.52 407.52,-188.43 410.39,-194.81"/>
</g>
<!-- Node15 -->
<g id="node15" class="node">
<title>Node15</title>
<g id="a_node15"><a xlink:href="IPL_8hpp.html" target="_top" xlink:title=" ">
<polygon fill="white" stroke="black" points="219.5,-168.5 219.5,-187.5 288.5,-187.5 288.5,-168.5 219.5,-168.5"/>
<text text-anchor="middle" x="254" y="-175.5" font-family="Helvetica,sans-Serif" font-size="10.00">IPL/IPL.hpp</text>
</a>
</g>
</g>
<!-- Node3&#45;&gt;Node15 -->
<g id="edge26" class="edge">
<title>Node3&#45;&gt;Node15</title>
<path fill="none" stroke="midnightblue" d="M306.88,-224.32C297.47,-216.26 283.26,-204.08 271.93,-194.37"/>
<polygon fill="midnightblue" stroke="midnightblue" points="274.18,-191.68 264.31,-187.83 269.62,-197 274.18,-191.68"/>
</g>
<!-- Node16 -->
<g id="node16" class="node">
<title>Node16</title>
<g id="a_node16"><a xlink:href="IRenderer_8hpp.html" target="_top" xlink:title=" ">
<polygon fill="white" stroke="black" points="623,-168.5 623,-187.5 763,-187.5 763,-168.5 623,-168.5"/>
<text text-anchor="middle" x="693" y="-175.5" font-family="Helvetica,sans-Serif" font-size="10.00">../Renderer/IRenderer.hpp</text>
</a>
</g>
</g>
<!-- Node3&#45;&gt;Node16 -->
<g id="edge28" class="edge">
<title>Node3&#45;&gt;Node16</title>
<path fill="none" stroke="midnightblue" d="M346.19,-228.81C405.24,-220.33 540.3,-200.93 623.37,-189"/>
<polygon fill="midnightblue" stroke="midnightblue" points="624.08,-192.43 633.48,-187.55 623.09,-185.5 624.08,-192.43"/>
</g>
<!-- Node6 -->
<g id="node6" class="node">
<title>Node6</title>
<g id="a_node6"><a xlink:title=" ">
<polygon fill="white" stroke="#bfbfbf" points="128,-0.5 128,-19.5 178,-19.5 178,-0.5 128,-0.5"/>
<text text-anchor="middle" x="153" y="-7.5" font-family="Helvetica,sans-Serif" font-size="10.00">cstdint</text>
</a>
</g>
</g>
<!-- Node5&#45;&gt;Node6 -->
<g id="edge5" class="edge">
<title>Node5&#45;&gt;Node6</title>
<path fill="none" stroke="midnightblue" d="M140.73,-168.43C131.03,-160.27 117.72,-147.05 112,-132 98.01,-95.21 123.11,-51.29 139.84,-27.8"/>
<polygon fill="midnightblue" stroke="midnightblue" points="142.78,-29.7 145.94,-19.59 137.17,-25.52 142.78,-29.7"/>
</g>
<!-- Node7 -->
<g id="node7" class="node">
<title>Node7</title>
<g id="a_node7"><a xlink:title=" ">
<polygon fill="white" stroke="#bfbfbf" points="121,-112.5 121,-131.5 163,-131.5 163,-112.5 121,-112.5"/>
<text text-anchor="middle" x="142" y="-119.5" font-family="Helvetica,sans-Serif" font-size="10.00">array</text>
</a>
</g>
</g>
<!-- Node5&#45;&gt;Node7 -->
<g id="edge6" class="edge">
<title>Node5&#45;&gt;Node7</title>
<path fill="none" stroke="midnightblue" d="M150.35,-168.08C149.02,-160.93 147.12,-150.64 145.46,-141.69"/>
<polygon fill="midnightblue" stroke="midnightblue" points="148.88,-140.95 143.62,-131.75 142,-142.22 148.88,-140.95"/>
</g>
<!-- Node5&#45;&gt;Node8 -->
<g id="edge7" class="edge">
<title>Node5&#45;&gt;Node8</title>
<path fill="none" stroke="midnightblue" d="M168.39,-168.32C184.67,-159.7 209.87,-146.36 228.72,-136.39"/>
<polygon fill="midnightblue" stroke="midnightblue" points="230.45,-139.43 237.65,-131.65 227.18,-133.24 230.45,-139.43"/>
</g>
<!-- Node8&#45;&gt;Node2 -->
<g id="edge12" class="edge">
<title>Node8&#45;&gt;Node2</title>
<path fill="none" stroke="midnightblue" d="M238.38,-112.37C203.87,-93.29 120.89,-47.42 79.43,-24.51"/>
<polygon fill="midnightblue" stroke="midnightblue" points="80.99,-21.37 70.54,-19.59 77.6,-27.49 80.99,-21.37"/>
</g>
<!-- Node8&#45;&gt;Node4 -->
<g id="edge10" class="edge">
<title>Node8&#45;&gt;Node4</title>
<path fill="none" stroke="midnightblue" d="M307.16,-112.44C351.09,-104.43 409.04,-91.41 427,-76 440.82,-64.14 448.02,-44.22 451.64,-29.56"/>
<polygon fill="midnightblue" stroke="midnightblue" points="455.1,-30.09 453.75,-19.58 448.26,-28.64 455.1,-30.09"/>
</g>
<!-- Node8&#45;&gt;Node6 -->
<g id="edge8" class="edge">
<title>Node8&#45;&gt;Node6</title>
<path fill="none" stroke="midnightblue" d="M246.07,-112.37C229.19,-93.97 189.43,-50.67 167.74,-27.05"/>
<polygon fill="midnightblue" stroke="midnightblue" points="170.23,-24.59 160.89,-19.59 165.07,-29.32 170.23,-24.59"/>
</g>
<!-- Node9 -->
<g id="node9" class="node">
<title>Node9</title>
<g id="a_node9"><a xlink:title=" ">
<polygon fill="white" stroke="#bfbfbf" points="360.5,-0.5 360.5,-19.5 407.5,-19.5 407.5,-0.5 360.5,-0.5"/>
<text text-anchor="middle" x="384" y="-7.5" font-family="Helvetica,sans-Serif" font-size="10.00">vector</text>
</a>
</g>
</g>
<!-- Node8&#45;&gt;Node9 -->
<g id="edge9" class="edge">
<title>Node8&#45;&gt;Node9</title>
<path fill="none" stroke="midnightblue" d="M263.63,-112.5C277.84,-100 305.28,-75.98 329,-56 341.06,-45.84 354.79,-34.61 365.52,-25.91"/>
<polygon fill="midnightblue" stroke="midnightblue" points="367.81,-28.55 373.38,-19.54 363.41,-23.11 367.81,-28.55"/>
</g>
<!-- Node10 -->
<g id="node10" class="node">
<title>Node10</title>
<g id="a_node10"><a xlink:title=" ">
<polygon fill="white" stroke="#bfbfbf" points="519,-0.5 519,-19.5 563,-19.5 563,-0.5 519,-0.5"/>
<text text-anchor="middle" x="541" y="-7.5" font-family="Helvetica,sans-Serif" font-size="10.00">string</text>
</a>
</g>
</g>
<!-- Node8&#45;&gt;Node10 -->
<g id="edge11" class="edge">
<title>Node8&#45;&gt;Node10</title>
<path fill="none" stroke="midnightblue" d="M318,-112.47C356.79,-105.78 406.62,-94.43 448,-76 476.76,-63.19 505.87,-41.04 523.67,-26.2"/>
<polygon fill="midnightblue" stroke="midnightblue" points="526.1,-28.73 531.45,-19.58 521.57,-23.39 526.1,-28.73"/>
</g>
<!-- Node11 -->
<g id="node11" class="node">
<title>Node11</title>
<g id="a_node11"><a xlink:href="Components_8hpp.html" target="_top" xlink:title=" ">
<polygon fill="white" stroke="black" points="196,-0.5 196,-19.5 342,-19.5 342,-0.5 196,-0.5"/>
<text text-anchor="middle" x="269" y="-7.5" font-family="Helvetica,sans-Serif" font-size="10.00">../Models/Components.hpp</text>
</a>
</g>
</g>
<!-- Node8&#45;&gt;Node11 -->
<g id="edge13" class="edge">
<title>Node8&#45;&gt;Node11</title>
<path fill="none" stroke="midnightblue" d="M255.18,-112.37C257.6,-94.62 263.18,-53.67 266.46,-29.6"/>
<polygon fill="midnightblue" stroke="midnightblue" points="269.95,-29.97 267.83,-19.59 263.01,-29.03 269.95,-29.97"/>
</g>
<!-- Node12 -->
<g id="node12" class="node">
<title>Node12</title>
<g id="a_node12"><a xlink:href="IMemory_8hpp.html" target="_top" xlink:title=" ">
<polygon fill="white" stroke="black" points="338,-56.5 338,-75.5 418,-75.5 418,-56.5 338,-56.5"/>
<text text-anchor="middle" x="378" y="-63.5" font-family="Helvetica,sans-Serif" font-size="10.00">IMemory.hpp</text>
</a>
</g>
</g>
<!-- Node8&#45;&gt;Node12 -->
<g id="edge14" class="edge">
<title>Node8&#45;&gt;Node12</title>
<path fill="none" stroke="midnightblue" d="M273.65,-112.44C293.96,-103.6 325.9,-89.69 349.1,-79.59"/>
<polygon fill="midnightblue" stroke="midnightblue" points="350.67,-82.72 358.44,-75.52 347.88,-76.3 350.67,-82.72"/>
</g>
<!-- Node12&#45;&gt;Node2 -->
<g id="edge19" class="edge">
<title>Node12&#45;&gt;Node2</title>
<path fill="none" stroke="midnightblue" d="M337.74,-58.27C282.04,-48.96 180.99,-32.06 115.99,-21.2"/>
<polygon fill="midnightblue" stroke="midnightblue" points="116.32,-17.7 105.88,-19.51 115.17,-24.61 116.32,-17.7"/>
</g>
<!-- Node12&#45;&gt;Node4 -->
<g id="edge17" class="edge">
<title>Node12&#45;&gt;Node4</title>
<path fill="none" stroke="midnightblue" d="M390.37,-56.32C402.16,-48.06 420.13,-35.45 434.14,-25.63"/>
<polygon fill="midnightblue" stroke="midnightblue" points="436.48,-28.26 442.66,-19.65 432.46,-22.53 436.48,-28.26"/>
</g>
<!-- Node12&#45;&gt;Node6 -->
<g id="edge15" class="edge">
<title>Node12&#45;&gt;Node6</title>
<path fill="none" stroke="midnightblue" d="M340.24,-56.42C303.69,-48.05 246.48,-34.76 188.01,-20.2"/>
<polygon fill="midnightblue" stroke="midnightblue" points="188.78,-16.79 178.23,-17.76 187.08,-23.58 188.78,-16.79"/>
</g>
<!-- Node12&#45;&gt;Node9 -->
<g id="edge16" class="edge">
<title>Node12&#45;&gt;Node9</title>
<path fill="none" stroke="midnightblue" d="M378.99,-56.08C379.79,-48.93 380.93,-38.64 381.92,-29.69"/>
<polygon fill="midnightblue" stroke="midnightblue" points="385.4,-30.08 383.03,-19.75 378.44,-29.3 385.4,-30.08"/>
</g>
<!-- Node12&#45;&gt;Node10 -->
<g id="edge18" class="edge">
<title>Node12&#45;&gt;Node10</title>
<path fill="none" stroke="midnightblue" d="M403.83,-56.44C432.38,-46.99 478.39,-31.74 509.15,-21.55"/>
<polygon fill="midnightblue" stroke="midnightblue" points="510.56,-24.77 518.95,-18.3 508.36,-18.13 510.56,-24.77"/>
</g>
<!-- Node12&#45;&gt;Node11 -->
<g id="edge20" class="edge">
<title>Node12&#45;&gt;Node11</title>
<path fill="none" stroke="midnightblue" d="M360.49,-56.32C342.93,-47.62 315.67,-34.12 295.47,-24.11"/>
<polygon fill="midnightblue" stroke="midnightblue" points="296.98,-20.96 286.47,-19.65 293.88,-27.23 296.98,-20.96"/>
</g>
<!-- Node13&#45;&gt;Node10 -->
<g id="edge25" class="edge">
<title>Node13&#45;&gt;Node10</title>
<path fill="none" stroke="midnightblue" d="M482.95,-168.46C503.71,-162.08 526.37,-151.03 539,-132 559.64,-100.89 552.59,-54.67 546.35,-29.3"/>
<polygon fill="midnightblue" stroke="midnightblue" points="549.7,-28.28 543.72,-19.53 542.94,-30.09 549.7,-28.28"/>
</g>
<!-- Node14 -->
<g id="node14" class="node">
<title>Node14</title>
<g id="a_node14"><a xlink:href="ARectangleMemory_8hpp.html" target="_top" xlink:title=" ">
<polygon fill="white" stroke="black" points="344.5,-112.5 344.5,-131.5 529.5,-131.5 529.5,-112.5 344.5,-112.5"/>
<text text-anchor="middle" x="437" y="-119.5" font-family="Helvetica,sans-Serif" font-size="10.00">../Memory/ARectangleMemory.hpp</text>
</a>
</g>
</g>
<!-- Node13&#45;&gt;Node14 -->
<g id="edge23" class="edge">
<title>Node13&#45;&gt;Node14</title>
<path fill="none" stroke="midnightblue" d="M437,-168.08C437,-161.01 437,-150.86 437,-141.99"/>
<polygon fill="midnightblue" stroke="midnightblue" points="440.5,-141.75 437,-131.75 433.5,-141.75 440.5,-141.75"/>
</g>
<!-- Node14&#45;&gt;Node12 -->
<g id="edge24" class="edge">
<title>Node14&#45;&gt;Node12</title>
<path fill="none" stroke="midnightblue" d="M427.52,-112.32C418.8,-104.34 405.66,-92.31 395.1,-82.65"/>
<polygon fill="midnightblue" stroke="midnightblue" points="397.39,-80 387.65,-75.83 392.67,-85.17 397.39,-80"/>
</g>
<!-- Node15&#45;&gt;Node8 -->
<g id="edge27" class="edge">
<title>Node15&#45;&gt;Node8</title>
<path fill="none" stroke="midnightblue" d="M254,-168.08C254,-161.01 254,-150.86 254,-141.99"/>
<polygon fill="midnightblue" stroke="midnightblue" points="257.5,-141.75 254,-131.75 250.5,-141.75 257.5,-141.75"/>
</g>
<!-- Node16&#45;&gt;Node10 -->
<g id="edge29" class="edge">
<title>Node16&#45;&gt;Node10</title>
<path fill="none" stroke="midnightblue" d="M692.06,-168.36C690.3,-155.25 685.58,-129.99 674,-112 647.8,-71.3 599.22,-40.74 568.58,-24.39"/>
<polygon fill="midnightblue" stroke="midnightblue" points="569.81,-21.08 559.32,-19.59 566.58,-27.3 569.81,-21.08"/>
</g>
<!-- Node17 -->
<g id="node17" class="node">
<title>Node17</title>
<g id="a_node17"><a xlink:title=" ">
<polygon fill="white" stroke="#bfbfbf" points="625,-112.5 625,-131.5 665,-131.5 665,-112.5 625,-112.5"/>
<text text-anchor="middle" x="645" y="-119.5" font-family="Helvetica,sans-Serif" font-size="10.00">span</text>
</a>
</g>
</g>
<!-- Node16&#45;&gt;Node17 -->
<g id="edge30" class="edge">
<title>Node16&#45;&gt;Node17</title>
<path fill="none" stroke="midnightblue" d="M685.07,-168.08C678.15,-160.3 667.93,-148.8 659.55,-139.37"/>
<polygon fill="midnightblue" stroke="midnightblue" points="662.04,-136.9 652.78,-131.75 656.81,-141.55 662.04,-136.9"/>
</g>
</g>
</svg>
