<?xml version="1.0" encoding="UTF-8" standalone="no"?>
<!DOCTYPE svg PUBLIC "-//W3C//DTD SVG 1.1//EN"
 "http://www.w3.org/Graphics/SVG/1.1/DTD/svg11.dtd">
<!-- Generated by graphviz version 2.43.0 (0)
 -->
<!-- Title: sources/PPU/PPU.cpp Pages: 1 -->
<svg width="1202pt" height="319pt"
 viewBox="0.00 0.00 1202.00 319.00" xmlns="http://www.w3.org/2000/svg" xmlns:xlink="http://www.w3.org/1999/xlink">
<g id="graph0" class="graph" transform="scale(1 1) rotate(0) translate(4 315)">
<title>sources/PPU/PPU.cpp</title>
<polygon fill="white" stroke="transparent" points="-4,4 -4,-315 1198,-315 1198,4 -4,4"/>
<!-- Node1 -->
<g id="node1" class="node">
<title>Node1</title>
<g id="a_node1"><a xlink:title=" ">
<polygon fill="#bfbfbf" stroke="black" points="477,-291.5 477,-310.5 596,-310.5 596,-291.5 477,-291.5"/>
<text text-anchor="middle" x="536.5" y="-298.5" font-family="Helvetica,sans-Serif" font-size="10.00">sources/PPU/PPU.cpp</text>
</a>
</g>
</g>
<!-- Node2 -->
<g id="node2" class="node">
<title>Node2</title>
<g id="a_node2"><a xlink:title=" ">
<polygon fill="white" stroke="#bfbfbf" points="367.5,-230 367.5,-249 427.5,-249 427.5,-230 367.5,-230"/>
<text text-anchor="middle" x="397.5" y="-237" font-family="Helvetica,sans-Serif" font-size="10.00">iostream</text>
</a>
</g>
</g>
<!-- Node1&#45;&gt;Node2 -->
<g id="edge1" class="edge">
<title>Node1&#45;&gt;Node2</title>
<path fill="none" stroke="midnightblue" d="M516.58,-291.48C493.05,-281.4 453.69,-264.55 426.71,-253"/>
<polygon fill="midnightblue" stroke="midnightblue" points="427.95,-249.73 417.38,-249.01 425.19,-256.16 427.95,-249.73"/>
</g>
<!-- Node3 -->
<g id="node3" class="node">
<title>Node3</title>
<g id="a_node3"><a xlink:title=" ">
<polygon fill="white" stroke="#bfbfbf" points="445.5,-230 445.5,-249 489.5,-249 489.5,-230 445.5,-230"/>
<text text-anchor="middle" x="467.5" y="-237" font-family="Helvetica,sans-Serif" font-size="10.00">bitset</text>
</a>
</g>
</g>
<!-- Node1&#45;&gt;Node3 -->
<g id="edge2" class="edge">
<title>Node1&#45;&gt;Node3</title>
<path fill="none" stroke="midnightblue" d="M526.61,-291.48C515.85,-282.2 498.43,-267.17 485.28,-255.83"/>
<polygon fill="midnightblue" stroke="midnightblue" points="487.23,-252.89 477.37,-249.01 482.66,-258.19 487.23,-252.89"/>
</g>
<!-- Node4 -->
<g id="node4" class="node">
<title>Node4</title>
<g id="a_node4"><a xlink:href="PPU_8hpp.html" target="_top" xlink:title=" ">
<polygon fill="white" stroke="black" points="508,-230 508,-249 565,-249 565,-230 508,-230"/>
<text text-anchor="middle" x="536.5" y="-237" font-family="Helvetica,sans-Serif" font-size="10.00">PPU.hpp</text>
</a>
</g>
</g>
<!-- Node1&#45;&gt;Node4 -->
<g id="edge3" class="edge">
<title>Node1&#45;&gt;Node4</title>
<path fill="none" stroke="midnightblue" d="M536.5,-291.48C536.5,-283.08 536.5,-269.98 536.5,-259.16"/>
<polygon fill="midnightblue" stroke="midnightblue" points="540,-259.01 536.5,-249.01 533,-259.01 540,-259.01"/>
</g>
<!-- Node21 -->
<g id="node21" class="node">
<title>Node21</title>
<g id="a_node21"><a xlink:href="NotImplementedException_8hpp.html" target="_top" xlink:title=" ">
<polygon fill="white" stroke="black" points="635.5,-224.5 635.5,-254.5 799.5,-254.5 799.5,-224.5 635.5,-224.5"/>
<text text-anchor="start" x="643.5" y="-242.5" font-family="Helvetica,sans-Serif" font-size="10.00">../Exceptions/NotImplemented</text>
<text text-anchor="middle" x="717.5" y="-231.5" font-family="Helvetica,sans-Serif" font-size="10.00">Exception.hpp</text>
</a>
</g>
</g>
<!-- Node1&#45;&gt;Node21 -->
<g id="edge34" class="edge">
<title>Node1&#45;&gt;Node21</title>
<path fill="none" stroke="midnightblue" d="M562.43,-291.48C589.12,-282.7 631.45,-268.79 665.14,-257.71"/>
<polygon fill="midnightblue" stroke="midnightblue" points="666.44,-260.97 674.84,-254.52 664.25,-254.32 666.44,-260.97"/>
</g>
<!-- Node23 -->
<g id="node23" class="node">
<title>Node23</title>
<g id="a_node23"><a xlink:href="InvalidAddress_8hpp.html" target="_top" xlink:title=" ">
<polygon fill="white" stroke="black" points="864,-230 864,-249 1039,-249 1039,-230 864,-230"/>
<text text-anchor="middle" x="951.5" y="-237" font-family="Helvetica,sans-Serif" font-size="10.00">../Exceptions/InvalidAddress.hpp</text>
</a>
</g>
</g>
<!-- Node1&#45;&gt;Node23 -->
<g id="edge36" class="edge">
<title>Node1&#45;&gt;Node23</title>
<path fill="none" stroke="midnightblue" d="M595.96,-291.48C671.62,-280.63 802.06,-261.93 882.16,-250.44"/>
<polygon fill="midnightblue" stroke="midnightblue" points="882.75,-253.89 892.15,-249.01 881.76,-246.96 882.75,-253.89"/>
</g>
<!-- Node5 -->
<g id="node5" class="node">
<title>Node5</title>
<g id="a_node5"><a xlink:title=" ">
<polygon fill="white" stroke="#bfbfbf" points="275.5,-0.5 275.5,-19.5 325.5,-19.5 325.5,-0.5 275.5,-0.5"/>
<text text-anchor="middle" x="300.5" y="-7.5" font-family="Helvetica,sans-Serif" font-size="10.00">cstdint</text>
</a>
</g>
</g>
<!-- Node4&#45;&gt;Node5 -->
<g id="edge4" class="edge">
<title>Node4&#45;&gt;Node5</title>
<path fill="none" stroke="midnightblue" d="M515.81,-229.86C510.26,-227.74 504.2,-225.62 498.5,-224 417.1,-200.83 367.39,-251.56 311.5,-188 272.24,-143.36 285.95,-65.35 295.06,-29.72"/>
<polygon fill="midnightblue" stroke="midnightblue" points="298.52,-30.3 297.78,-19.73 291.77,-28.46 298.52,-30.3"/>
</g>
<!-- Node6 -->
<g id="node6" class="node">
<title>Node6</title>
<g id="a_node6"><a xlink:href="AMemory_8hpp.html" target="_top" xlink:title=" ">
<polygon fill="white" stroke="black" points="422.5,-112.5 422.5,-131.5 558.5,-131.5 558.5,-112.5 422.5,-112.5"/>
<text text-anchor="middle" x="490.5" y="-119.5" font-family="Helvetica,sans-Serif" font-size="10.00">../Memory/AMemory.hpp</text>
</a>
</g>
</g>
<!-- Node4&#45;&gt;Node6 -->
<g id="edge5" class="edge">
<title>Node4&#45;&gt;Node6</title>
<path fill="none" stroke="midnightblue" d="M533.04,-229.82C525.58,-211.09 507.84,-166.55 497.79,-141.29"/>
<polygon fill="midnightblue" stroke="midnightblue" points="500.95,-139.78 494,-131.78 494.45,-142.37 500.95,-139.78"/>
</g>
<!-- Node13 -->
<g id="node13" class="node">
<title>Node13</title>
<g id="a_node13"><a xlink:href="MemoryBus_8hpp.html" target="_top" xlink:title=" ">
<polygon fill="white" stroke="black" points="320,-168.5 320,-187.5 469,-187.5 469,-168.5 320,-168.5"/>
<text text-anchor="middle" x="394.5" y="-175.5" font-family="Helvetica,sans-Serif" font-size="10.00">../Memory/MemoryBus.hpp</text>
</a>
</g>
</g>
<!-- Node4&#45;&gt;Node13 -->
<g id="edge19" class="edge">
<title>Node4&#45;&gt;Node13</title>
<path fill="none" stroke="midnightblue" d="M516.15,-229.98C492.11,-219.9 451.9,-203.05 424.34,-191.5"/>
<polygon fill="midnightblue" stroke="midnightblue" points="425.38,-188.15 414.81,-187.51 422.68,-194.6 425.38,-188.15"/>
</g>
<!-- Node14 -->
<g id="node14" class="node">
<title>Node14</title>
<g id="a_node14"><a xlink:href="IRenderer_8hpp.html" target="_top" xlink:title=" ">
<polygon fill="white" stroke="black" points="671.5,-168.5 671.5,-187.5 811.5,-187.5 811.5,-168.5 671.5,-168.5"/>
<text text-anchor="middle" x="741.5" y="-175.5" font-family="Helvetica,sans-Serif" font-size="10.00">../Renderer/IRenderer.hpp</text>
</a>
</g>
</g>
<!-- Node4&#45;&gt;Node14 -->
<g id="edge24" class="edge">
<title>Node4&#45;&gt;Node14</title>
<path fill="none" stroke="midnightblue" d="M565,-230.23C600.7,-219.86 662.05,-202.06 702.19,-190.41"/>
<polygon fill="midnightblue" stroke="midnightblue" points="703.28,-193.74 711.91,-187.59 701.33,-187.01 703.28,-193.74"/>
</g>
<!-- Node16 -->
<g id="node16" class="node">
<title>Node16</title>
<g id="a_node16"><a xlink:href="Ram_8hpp.html" target="_top" xlink:title=" ">
<polygon fill="white" stroke="black" points="558,-168.5 558,-187.5 653,-187.5 653,-168.5 558,-168.5"/>
<text text-anchor="middle" x="605.5" y="-175.5" font-family="Helvetica,sans-Serif" font-size="10.00">../Ram/Ram.hpp</text>
</a>
</g>
</g>
<!-- Node4&#45;&gt;Node16 -->
<g id="edge27" class="edge">
<title>Node4&#45;&gt;Node16</title>
<path fill="none" stroke="midnightblue" d="M546.39,-229.98C557.15,-220.7 574.57,-205.67 587.72,-194.33"/>
<polygon fill="midnightblue" stroke="midnightblue" points="590.34,-196.69 595.63,-187.51 585.77,-191.39 590.34,-196.69"/>
</g>
<!-- Node18 -->
<g id="node18" class="node">
<title>Node18</title>
<g id="a_node18"><a xlink:href="Vector2_8hpp.html" target="_top" xlink:title=" ">
<polygon fill="white" stroke="black" points="112.5,-168.5 112.5,-187.5 234.5,-187.5 234.5,-168.5 112.5,-168.5"/>
<text text-anchor="middle" x="173.5" y="-175.5" font-family="Helvetica,sans-Serif" font-size="10.00">../Models/Vector2.hpp</text>
</a>
</g>
</g>
<!-- Node4&#45;&gt;Node18 -->
<g id="edge31" class="edge">
<title>Node4&#45;&gt;Node18</title>
<path fill="none" stroke="midnightblue" d="M516.66,-229.96C510.89,-227.74 504.52,-225.54 498.5,-224 474.49,-217.84 332.91,-199.26 244.72,-187.99"/>
<polygon fill="midnightblue" stroke="midnightblue" points="245.13,-184.51 234.77,-186.72 244.25,-191.46 245.13,-184.51"/>
</g>
<!-- Node6&#45;&gt;Node5 -->
<g id="edge6" class="edge">
<title>Node6&#45;&gt;Node5</title>
<path fill="none" stroke="midnightblue" d="M475.59,-112.37C442.71,-93.33 363.74,-47.62 324.08,-24.65"/>
<polygon fill="midnightblue" stroke="midnightblue" points="325.75,-21.57 315.34,-19.59 322.24,-27.63 325.75,-21.57"/>
</g>
<!-- Node7 -->
<g id="node7" class="node">
<title>Node7</title>
<g id="a_node7"><a xlink:title=" ">
<polygon fill="white" stroke="#bfbfbf" points="420,-0.5 420,-19.5 467,-19.5 467,-0.5 420,-0.5"/>
<text text-anchor="middle" x="443.5" y="-7.5" font-family="Helvetica,sans-Serif" font-size="10.00">vector</text>
</a>
</g>
</g>
<!-- Node6&#45;&gt;Node7 -->
<g id="edge7" class="edge">
<title>Node6&#45;&gt;Node7</title>
<path fill="none" stroke="midnightblue" d="M487.71,-112.46C483.53,-99.91 475.19,-75.83 466.5,-56 462.49,-46.86 457.51,-36.96 453.2,-28.77"/>
<polygon fill="midnightblue" stroke="midnightblue" points="456.21,-26.98 448.4,-19.81 450.04,-30.28 456.21,-26.98"/>
</g>
<!-- Node8 -->
<g id="node8" class="node">
<title>Node8</title>
<g id="a_node8"><a xlink:title=" ">
<polygon fill="white" stroke="#bfbfbf" points="343.5,-0.5 343.5,-19.5 401.5,-19.5 401.5,-0.5 343.5,-0.5"/>
<text text-anchor="middle" x="372.5" y="-7.5" font-family="Helvetica,sans-Serif" font-size="10.00">memory</text>
</a>
</g>
</g>
<!-- Node6&#45;&gt;Node8 -->
<g id="edge8" class="edge">
<title>Node6&#45;&gt;Node8</title>
<path fill="none" stroke="midnightblue" d="M481.24,-112.37C461.34,-93.81 414.24,-49.91 389.06,-26.44"/>
<polygon fill="midnightblue" stroke="midnightblue" points="391.42,-23.85 381.72,-19.59 386.64,-28.97 391.42,-23.85"/>
</g>
<!-- Node9 -->
<g id="node9" class="node">
<title>Node9</title>
<g id="a_node9"><a xlink:title=" ">
<polygon fill="white" stroke="#bfbfbf" points="777.5,-0.5 777.5,-19.5 821.5,-19.5 821.5,-0.5 777.5,-0.5"/>
<text text-anchor="middle" x="799.5" y="-7.5" font-family="Helvetica,sans-Serif" font-size="10.00">string</text>
</a>
</g>
</g>
<!-- Node6&#45;&gt;Node9 -->
<g id="edge9" class="edge">
<title>Node6&#45;&gt;Node9</title>
<path fill="none" stroke="midnightblue" d="M535.18,-112.46C571.67,-104.84 624.25,-92.36 668.5,-76 707.35,-61.64 749.89,-39.18 775.64,-24.78"/>
<polygon fill="midnightblue" stroke="midnightblue" points="777.66,-27.66 784.64,-19.69 774.21,-21.56 777.66,-27.66"/>
</g>
<!-- Node10 -->
<g id="node10" class="node">
<title>Node10</title>
<g id="a_node10"><a xlink:href="Int24_8hpp.html" target="_top" xlink:title=" ">
<polygon fill="white" stroke="black" points="485.5,-0.5 485.5,-19.5 595.5,-19.5 595.5,-0.5 485.5,-0.5"/>
<text text-anchor="middle" x="540.5" y="-7.5" font-family="Helvetica,sans-Serif" font-size="10.00">../Models/Int24.hpp</text>
</a>
</g>
</g>
<!-- Node6&#45;&gt;Node10 -->
<g id="edge10" class="edge">
<title>Node6&#45;&gt;Node10</title>
<path fill="none" stroke="midnightblue" d="M494.42,-112.37C502.57,-94.46 521.44,-52.92 532.34,-28.95"/>
<polygon fill="midnightblue" stroke="midnightblue" points="535.64,-30.14 536.59,-19.59 529.27,-27.25 535.64,-30.14"/>
</g>
<!-- Node11 -->
<g id="node11" class="node">
<title>Node11</title>
<g id="a_node11"><a xlink:href="Components_8hpp.html" target="_top" xlink:title=" ">
<polygon fill="white" stroke="black" points="613.5,-0.5 613.5,-19.5 759.5,-19.5 759.5,-0.5 613.5,-0.5"/>
<text text-anchor="middle" x="686.5" y="-7.5" font-family="Helvetica,sans-Serif" font-size="10.00">../Models/Components.hpp</text>
</a>
</g>
</g>
<!-- Node6&#45;&gt;Node11 -->
<g id="edge11" class="edge">
<title>Node6&#45;&gt;Node11</title>
<path fill="none" stroke="midnightblue" d="M557.49,-112.47C586.75,-106.14 620.09,-95.13 645.5,-76 661.45,-63.99 672.77,-43.8 679.41,-29.11"/>
<polygon fill="midnightblue" stroke="midnightblue" points="682.77,-30.15 683.43,-19.57 676.32,-27.43 682.77,-30.15"/>
</g>
<!-- Node12 -->
<g id="node12" class="node">
<title>Node12</title>
<g id="a_node12"><a xlink:href="IMemory_8hpp.html" target="_top" xlink:title=" ">
<polygon fill="white" stroke="black" points="556.5,-56.5 556.5,-75.5 636.5,-75.5 636.5,-56.5 556.5,-56.5"/>
<text text-anchor="middle" x="596.5" y="-63.5" font-family="Helvetica,sans-Serif" font-size="10.00">IMemory.hpp</text>
</a>
</g>
</g>
<!-- Node6&#45;&gt;Node12 -->
<g id="edge12" class="edge">
<title>Node6&#45;&gt;Node12</title>
<path fill="none" stroke="midnightblue" d="M507.53,-112.32C524.53,-103.66 550.88,-90.24 570.49,-80.25"/>
<polygon fill="midnightblue" stroke="midnightblue" points="572.19,-83.31 579.51,-75.65 569.01,-77.08 572.19,-83.31"/>
</g>
<!-- Node12&#45;&gt;Node5 -->
<g id="edge13" class="edge">
<title>Node12&#45;&gt;Node5</title>
<path fill="none" stroke="midnightblue" d="M556.34,-59.23C506.7,-51.86 419.48,-38.09 335.63,-20.09"/>
<polygon fill="midnightblue" stroke="midnightblue" points="336.21,-16.63 325.69,-17.93 334.72,-23.48 336.21,-16.63"/>
</g>
<!-- Node12&#45;&gt;Node7 -->
<g id="edge14" class="edge">
<title>Node12&#45;&gt;Node7</title>
<path fill="none" stroke="midnightblue" d="M572.26,-56.44C546.48,-47.35 505.54,-32.9 476.76,-22.74"/>
<polygon fill="midnightblue" stroke="midnightblue" points="477.72,-19.37 467.13,-19.34 475.39,-25.97 477.72,-19.37"/>
</g>
<!-- Node12&#45;&gt;Node8 -->
<g id="edge15" class="edge">
<title>Node12&#45;&gt;Node8</title>
<path fill="none" stroke="midnightblue" d="M561.01,-56.44C520.32,-46.64 453.83,-30.61 411.67,-20.44"/>
<polygon fill="midnightblue" stroke="midnightblue" points="412.3,-16.99 401.76,-18.05 410.66,-23.8 412.3,-16.99"/>
</g>
<!-- Node12&#45;&gt;Node9 -->
<g id="edge16" class="edge">
<title>Node12&#45;&gt;Node9</title>
<path fill="none" stroke="midnightblue" d="M630.19,-56.47C662.88,-48.13 714.14,-34.89 767.24,-20.3"/>
<polygon fill="midnightblue" stroke="midnightblue" points="768.46,-23.59 777.17,-17.56 766.6,-16.84 768.46,-23.59"/>
</g>
<!-- Node12&#45;&gt;Node10 -->
<g id="edge17" class="edge">
<title>Node12&#45;&gt;Node10</title>
<path fill="none" stroke="midnightblue" d="M587.5,-56.32C579.31,-48.42 566.99,-36.55 557.03,-26.94"/>
<polygon fill="midnightblue" stroke="midnightblue" points="559.29,-24.26 549.66,-19.83 554.43,-29.29 559.29,-24.26"/>
</g>
<!-- Node12&#45;&gt;Node11 -->
<g id="edge18" class="edge">
<title>Node12&#45;&gt;Node11</title>
<path fill="none" stroke="midnightblue" d="M610.96,-56.32C625,-47.9 646.55,-34.97 663.04,-25.07"/>
<polygon fill="midnightblue" stroke="midnightblue" points="665.3,-27.8 672.08,-19.65 661.7,-21.8 665.3,-27.8"/>
</g>
<!-- Node13&#45;&gt;Node5 -->
<g id="edge20" class="edge">
<title>Node13&#45;&gt;Node5</title>
<path fill="none" stroke="midnightblue" d="M389.45,-168.08C374.52,-141.72 330.44,-63.88 310.5,-28.66"/>
<polygon fill="midnightblue" stroke="midnightblue" points="313.32,-26.55 305.35,-19.57 307.23,-29.99 313.32,-26.55"/>
</g>
<!-- Node13&#45;&gt;Node6 -->
<g id="edge23" class="edge">
<title>Node13&#45;&gt;Node6</title>
<path fill="none" stroke="midnightblue" d="M409.92,-168.32C425.04,-159.82 448.32,-146.73 465.97,-136.8"/>
<polygon fill="midnightblue" stroke="midnightblue" points="468.11,-139.61 475.11,-131.65 464.68,-133.51 468.11,-139.61"/>
</g>
<!-- Node13&#45;&gt;Node7 -->
<g id="edge21" class="edge">
<title>Node13&#45;&gt;Node7</title>
<path fill="none" stroke="midnightblue" d="M397.07,-168.17C400.71,-155.66 407.58,-132.07 413.5,-112 422.01,-83.13 431.97,-49.65 438.01,-29.41"/>
<polygon fill="midnightblue" stroke="midnightblue" points="441.41,-30.23 440.92,-19.64 434.71,-28.23 441.41,-30.23"/>
</g>
<!-- Node13&#45;&gt;Node8 -->
<g id="edge22" class="edge">
<title>Node13&#45;&gt;Node8</title>
<path fill="none" stroke="midnightblue" d="M391.08,-168.19C387.76,-159.23 382.89,-144.87 380.5,-132 373.85,-96.25 372.53,-53.65 372.38,-29.73"/>
<polygon fill="midnightblue" stroke="midnightblue" points="375.88,-29.59 372.38,-19.59 368.88,-29.59 375.88,-29.59"/>
</g>
<!-- Node14&#45;&gt;Node9 -->
<g id="edge25" class="edge">
<title>Node14&#45;&gt;Node9</title>
<path fill="none" stroke="midnightblue" d="M761.72,-168.49C776.27,-161.17 794.8,-149.06 803.5,-132 820.31,-99.04 812.11,-54.19 805.35,-29.39"/>
<polygon fill="midnightblue" stroke="midnightblue" points="808.62,-28.13 802.44,-19.52 801.91,-30.11 808.62,-28.13"/>
</g>
<!-- Node15 -->
<g id="node15" class="node">
<title>Node15</title>
<g id="a_node15"><a xlink:title=" ">
<polygon fill="white" stroke="#bfbfbf" points="855.5,-112.5 855.5,-131.5 895.5,-131.5 895.5,-112.5 855.5,-112.5"/>
<text text-anchor="middle" x="875.5" y="-119.5" font-family="Helvetica,sans-Serif" font-size="10.00">span</text>
</a>
</g>
</g>
<!-- Node14&#45;&gt;Node15 -->
<g id="edge26" class="edge">
<title>Node14&#45;&gt;Node15</title>
<path fill="none" stroke="midnightblue" d="M762.73,-168.44C785.14,-159.41 820.64,-145.11 845.82,-134.96"/>
<polygon fill="midnightblue" stroke="midnightblue" points="847.28,-138.15 855.24,-131.16 844.66,-131.65 847.28,-138.15"/>
</g>
<!-- Node16&#45;&gt;Node9 -->
<g id="edge30" class="edge">
<title>Node16&#45;&gt;Node9</title>
<path fill="none" stroke="midnightblue" d="M653.07,-169.66C696.11,-162.06 755.19,-148.93 771.5,-132 798.21,-104.27 801.28,-56.35 800.7,-29.9"/>
<polygon fill="midnightblue" stroke="midnightblue" points="804.18,-29.54 800.26,-19.7 797.19,-29.84 804.18,-29.54"/>
</g>
<!-- Node17 -->
<g id="node17" class="node">
<title>Node17</title>
<g id="a_node17"><a xlink:href="ARectangleMemory_8hpp.html" target="_top" xlink:title=" ">
<polygon fill="white" stroke="black" points="577,-112.5 577,-131.5 762,-131.5 762,-112.5 577,-112.5"/>
<text text-anchor="middle" x="669.5" y="-119.5" font-family="Helvetica,sans-Serif" font-size="10.00">../Memory/ARectangleMemory.hpp</text>
</a>
</g>
</g>
<!-- Node16&#45;&gt;Node17 -->
<g id="edge28" class="edge">
<title>Node16&#45;&gt;Node17</title>
<path fill="none" stroke="midnightblue" d="M615.78,-168.32C625.34,-160.26 639.78,-148.08 651.28,-138.37"/>
<polygon fill="midnightblue" stroke="midnightblue" points="653.64,-140.96 659.03,-131.83 649.13,-135.61 653.64,-140.96"/>
</g>
<!-- Node17&#45;&gt;Node12 -->
<g id="edge29" class="edge">
<title>Node17&#45;&gt;Node12</title>
<path fill="none" stroke="midnightblue" d="M657.77,-112.32C646.66,-104.11 629.76,-91.6 616.52,-81.81"/>
<polygon fill="midnightblue" stroke="midnightblue" points="618.56,-78.97 608.44,-75.83 614.4,-84.59 618.56,-78.97"/>
</g>
<!-- Node19 -->
<g id="node19" class="node">
<title>Node19</title>
<g id="a_node19"><a xlink:title=" ">
<polygon fill="white" stroke="#bfbfbf" points="161,-112.5 161,-131.5 218,-131.5 218,-112.5 161,-112.5"/>
<text text-anchor="middle" x="189.5" y="-119.5" font-family="Helvetica,sans-Serif" font-size="10.00">ostream</text>
</a>
</g>
</g>
<!-- Node18&#45;&gt;Node19 -->
<g id="edge32" class="edge">
<title>Node18&#45;&gt;Node19</title>
<path fill="none" stroke="midnightblue" d="M176.14,-168.08C178.29,-160.85 181.38,-150.41 184.05,-141.4"/>
<polygon fill="midnightblue" stroke="midnightblue" points="187.42,-142.33 186.91,-131.75 180.71,-140.34 187.42,-142.33"/>
</g>
<!-- Node20 -->
<g id="node20" class="node">
<title>Node20</title>
<g id="a_node20"><a xlink:title=" ">
<polygon fill="white" stroke="#bfbfbf" points="0,-112.5 0,-131.5 143,-131.5 143,-112.5 0,-112.5"/>
<text text-anchor="middle" x="71.5" y="-119.5" font-family="Helvetica,sans-Serif" font-size="10.00">SFML/System/Vector2.hpp</text>
</a>
</g>
</g>
<!-- Node18&#45;&gt;Node20 -->
<g id="edge33" class="edge">
<title>Node18&#45;&gt;Node20</title>
<path fill="none" stroke="midnightblue" d="M157.11,-168.32C140.83,-159.7 115.63,-146.36 96.78,-136.39"/>
<polygon fill="midnightblue" stroke="midnightblue" points="98.32,-133.24 87.85,-131.65 95.05,-139.43 98.32,-133.24"/>
</g>
<!-- Node22 -->
<g id="node22" class="node">
<title>Node22</title>
<g id="a_node22"><a xlink:title=" ">
<polygon fill="white" stroke="#bfbfbf" points="830,-168.5 830,-187.5 895,-187.5 895,-168.5 830,-168.5"/>
<text text-anchor="middle" x="862.5" y="-175.5" font-family="Helvetica,sans-Serif" font-size="10.00">exception</text>
</a>
</g>
</g>
<!-- Node21&#45;&gt;Node22 -->
<g id="edge35" class="edge">
<title>Node21&#45;&gt;Node22</title>
<path fill="none" stroke="midnightblue" d="M751.86,-224.4C776.19,-214.42 808.53,-201.15 831.96,-191.53"/>
<polygon fill="midnightblue" stroke="midnightblue" points="833.48,-194.69 841.4,-187.66 830.82,-188.22 833.48,-194.69"/>
</g>
<!-- Node23&#45;&gt;Node9 -->
<g id="edge38" class="edge">
<title>Node23&#45;&gt;Node9</title>
<path fill="none" stroke="midnightblue" d="M949.71,-229.91C944.99,-208.57 930.7,-151.97 904.5,-112 881.14,-76.36 843.05,-43.89 819.73,-25.85"/>
<polygon fill="midnightblue" stroke="midnightblue" points="821.67,-22.92 811.58,-19.66 817.44,-28.5 821.67,-22.92"/>
</g>
<!-- Node23&#45;&gt;Node22 -->
<g id="edge37" class="edge">
<title>Node23&#45;&gt;Node22</title>
<path fill="none" stroke="midnightblue" d="M938.75,-229.98C924.47,-220.43 901.1,-204.81 883.99,-193.37"/>
<polygon fill="midnightblue" stroke="midnightblue" points="885.49,-190.16 875.23,-187.51 881.6,-195.98 885.49,-190.16"/>
</g>
<!-- Node24 -->
<g id="node24" class="node">
<title>Node24</title>
<g id="a_node24"><a xlink:title=" ">
<polygon fill="white" stroke="#bfbfbf" points="1163,-168.5 1163,-187.5 1194,-187.5 1194,-168.5 1163,-168.5"/>
<text text-anchor="middle" x="1178.5" y="-175.5" font-family="Helvetica,sans-Serif" font-size="10.00">ios</text>
</a>
</g>
</g>
<!-- Node23&#45;&gt;Node24 -->
<g id="edge39" class="edge">
<title>Node23&#45;&gt;Node24</title>
<path fill="none" stroke="midnightblue" d="M991.55,-229.97C1030.67,-221.31 1092.03,-206.91 1153.05,-188.21"/>
<polygon fill="midnightblue" stroke="midnightblue" points="1154.33,-191.48 1162.84,-185.17 1152.25,-184.79 1154.33,-191.48"/>
</g>
<!-- Node25 -->
<g id="node25" class="node">
<title>Node25</title>
<g id="a_node25"><a xlink:title=" ">
<polygon fill="white" stroke="#bfbfbf" points="951.5,-168.5 951.5,-187.5 1007.5,-187.5 1007.5,-168.5 951.5,-168.5"/>
<text text-anchor="middle" x="979.5" y="-175.5" font-family="Helvetica,sans-Serif" font-size="10.00">sstream</text>
</a>
</g>
</g>
<!-- Node23&#45;&gt;Node25 -->
<g id="edge40" class="edge">
<title>Node23&#45;&gt;Node25</title>
<path fill="none" stroke="midnightblue" d="M955.51,-229.98C959.59,-221.32 966.02,-207.65 971.2,-196.65"/>
<polygon fill="midnightblue" stroke="midnightblue" points="974.4,-198.05 975.5,-187.51 968.07,-195.07 974.4,-198.05"/>
</g>
<!-- Node26 -->
<g id="node26" class="node">
<title>Node26</title>
<g id="a_node26"><a xlink:href="DebuggableError_8hpp.html" target="_top" xlink:title=" ">
<polygon fill="white" stroke="black" points="1026,-168.5 1026,-187.5 1145,-187.5 1145,-168.5 1026,-168.5"/>
<text text-anchor="middle" x="1085.5" y="-175.5" font-family="Helvetica,sans-Serif" font-size="10.00">DebuggableError.hpp</text>
</a>
</g>
</g>
<!-- Node23&#45;&gt;Node26 -->
<g id="edge41" class="edge">
<title>Node23&#45;&gt;Node26</title>
<path fill="none" stroke="midnightblue" d="M970.7,-229.98C993.29,-219.95 1031,-203.2 1057,-191.65"/>
<polygon fill="midnightblue" stroke="midnightblue" points="1058.62,-194.77 1066.34,-187.51 1055.78,-188.37 1058.62,-194.77"/>
</g>
<!-- Node27 -->
<g id="node27" class="node">
<title>Node27</title>
<g id="a_node27"><a xlink:title=" ">
<polygon fill="white" stroke="#bfbfbf" points="1038,-112.5 1038,-131.5 1133,-131.5 1133,-112.5 1038,-112.5"/>
<text text-anchor="middle" x="1085.5" y="-119.5" font-family="Helvetica,sans-Serif" font-size="10.00">bits/exception.h</text>
</a>
</g>
</g>
<!-- Node26&#45;&gt;Node27 -->
<g id="edge42" class="edge">
<title>Node26&#45;&gt;Node27</title>
<path fill="none" stroke="midnightblue" d="M1085.5,-168.08C1085.5,-161.01 1085.5,-150.86 1085.5,-141.99"/>
<polygon fill="midnightblue" stroke="midnightblue" points="1089,-141.75 1085.5,-131.75 1082,-141.75 1089,-141.75"/>
</g>
</g>
</svg>
