<?xml version="1.0" encoding="UTF-8" standalone="no"?>
<!DOCTYPE svg PUBLIC "-//W3C//DTD SVG 1.1//EN"
 "http://www.w3.org/Graphics/SVG/1.1/DTD/svg11.dtd">
<!-- Generated by graphviz version 2.43.0 (0)
 -->
<!-- Title: sources/PPU/PPU.hpp Pages: 1 -->
<svg width="875pt" height="252pt"
 viewBox="0.00 0.00 874.50 252.00" xmlns="http://www.w3.org/2000/svg" xmlns:xlink="http://www.w3.org/1999/xlink">
<g id="graph0" class="graph" transform="scale(1 1) rotate(0) translate(4 248)">
<title>sources/PPU/PPU.hpp</title>
<polygon fill="white" stroke="transparent" points="-4,4 -4,-248 870.5,-248 870.5,4 -4,4"/>
<!-- Node1 -->
<g id="node1" class="node">
<title>Node1</title>
<g id="a_node1"><a xlink:title=" ">
<polygon fill="#bfbfbf" stroke="black" points="300,-224.5 300,-243.5 420,-243.5 420,-224.5 300,-224.5"/>
<text text-anchor="middle" x="360" y="-231.5" font-family="Helvetica,sans-Serif" font-size="10.00">sources/PPU/PPU.hpp</text>
</a>
</g>
</g>
<!-- Node2 -->
<g id="node2" class="node">
<title>Node2</title>
<g id="a_node2"><a xlink:title=" ">
<polygon fill="white" stroke="#bfbfbf" points="0,-0.5 0,-19.5 50,-19.5 50,-0.5 0,-0.5"/>
<text text-anchor="middle" x="25" y="-7.5" font-family="Helvetica,sans-Serif" font-size="10.00">cstdint</text>
</a>
</g>
</g>
<!-- Node1&#45;&gt;Node2 -->
<g id="edge1" class="edge">
<title>Node1&#45;&gt;Node2</title>
<path fill="none" stroke="midnightblue" d="M299.97,-232.84C218.55,-231.27 79.3,-223.32 45,-188 3.4,-145.16 13.18,-66.24 20.49,-30.05"/>
<polygon fill="midnightblue" stroke="midnightblue" points="24,-30.41 22.72,-19.9 17.16,-28.92 24,-30.41"/>
</g>
<!-- Node3 -->
<g id="node3" class="node">
<title>Node3</title>
<g id="a_node3"><a xlink:href="AMemory_8hpp.html" target="_top" xlink:title=" ">
<polygon fill="white" stroke="black" points="157,-112.5 157,-131.5 293,-131.5 293,-112.5 157,-112.5"/>
<text text-anchor="middle" x="225" y="-119.5" font-family="Helvetica,sans-Serif" font-size="10.00">../Memory/AMemory.hpp</text>
</a>
</g>
</g>
<!-- Node1&#45;&gt;Node3 -->
<g id="edge2" class="edge">
<title>Node1&#45;&gt;Node3</title>
<path fill="none" stroke="midnightblue" d="M349.41,-224.37C326.54,-205.73 272.29,-161.53 243.57,-138.13"/>
<polygon fill="midnightblue" stroke="midnightblue" points="245.51,-135.19 235.54,-131.59 241.09,-140.62 245.51,-135.19"/>
</g>
<!-- Node10 -->
<g id="node10" class="node">
<title>Node10</title>
<g id="a_node10"><a xlink:href="MemoryBus_8hpp.html" target="_top" xlink:title=" ">
<polygon fill="white" stroke="black" points="54.5,-168.5 54.5,-187.5 203.5,-187.5 203.5,-168.5 54.5,-168.5"/>
<text text-anchor="middle" x="129" y="-175.5" font-family="Helvetica,sans-Serif" font-size="10.00">../Memory/MemoryBus.hpp</text>
</a>
</g>
</g>
<!-- Node1&#45;&gt;Node10 -->
<g id="edge16" class="edge">
<title>Node1&#45;&gt;Node10</title>
<path fill="none" stroke="midnightblue" d="M323.4,-224.44C283.27,-215.06 218.8,-199.99 175.22,-189.8"/>
<polygon fill="midnightblue" stroke="midnightblue" points="175.97,-186.38 165.43,-187.52 174.37,-193.2 175.97,-186.38"/>
</g>
<!-- Node11 -->
<g id="node11" class="node">
<title>Node11</title>
<g id="a_node11"><a xlink:href="IRenderer_8hpp.html" target="_top" xlink:title=" ">
<polygon fill="white" stroke="black" points="501,-168.5 501,-187.5 641,-187.5 641,-168.5 501,-168.5"/>
<text text-anchor="middle" x="571" y="-175.5" font-family="Helvetica,sans-Serif" font-size="10.00">../Renderer/IRenderer.hpp</text>
</a>
</g>
</g>
<!-- Node1&#45;&gt;Node11 -->
<g id="edge21" class="edge">
<title>Node1&#45;&gt;Node11</title>
<path fill="none" stroke="midnightblue" d="M393.43,-224.44C429.86,-215.12 488.23,-200.18 528.03,-190"/>
<polygon fill="midnightblue" stroke="midnightblue" points="528.9,-193.39 537.72,-187.52 527.17,-186.61 528.9,-193.39"/>
</g>
<!-- Node13 -->
<g id="node13" class="node">
<title>Node13</title>
<g id="a_node13"><a xlink:href="Ram_8hpp.html" target="_top" xlink:title=" ">
<polygon fill="white" stroke="black" points="356.5,-168.5 356.5,-187.5 451.5,-187.5 451.5,-168.5 356.5,-168.5"/>
<text text-anchor="middle" x="404" y="-175.5" font-family="Helvetica,sans-Serif" font-size="10.00">../Ram/Ram.hpp</text>
</a>
</g>
</g>
<!-- Node1&#45;&gt;Node13 -->
<g id="edge24" class="edge">
<title>Node1&#45;&gt;Node13</title>
<path fill="none" stroke="midnightblue" d="M367.27,-224.08C373.54,-216.38 382.79,-205.03 390.43,-195.65"/>
<polygon fill="midnightblue" stroke="midnightblue" points="393.27,-197.71 396.87,-187.75 387.84,-193.29 393.27,-197.71"/>
</g>
<!-- Node15 -->
<g id="node15" class="node">
<title>Node15</title>
<g id="a_node15"><a xlink:href="Vector2_8hpp.html" target="_top" xlink:title=" ">
<polygon fill="white" stroke="black" points="659,-168.5 659,-187.5 781,-187.5 781,-168.5 659,-168.5"/>
<text text-anchor="middle" x="720" y="-175.5" font-family="Helvetica,sans-Serif" font-size="10.00">../Models/Vector2.hpp</text>
</a>
</g>
</g>
<!-- Node1&#45;&gt;Node15 -->
<g id="edge28" class="edge">
<title>Node1&#45;&gt;Node15</title>
<path fill="none" stroke="midnightblue" d="M417.04,-224.44C481.16,-214.83 585.15,-199.23 653.06,-189.04"/>
<polygon fill="midnightblue" stroke="midnightblue" points="653.85,-192.46 663.22,-187.52 652.82,-185.54 653.85,-192.46"/>
</g>
<!-- Node3&#45;&gt;Node2 -->
<g id="edge3" class="edge">
<title>Node3&#45;&gt;Node2</title>
<path fill="none" stroke="midnightblue" d="M209.31,-112.37C174.62,-93.29 91.22,-47.42 49.56,-24.51"/>
<polygon fill="midnightblue" stroke="midnightblue" points="51.07,-21.34 40.62,-19.59 47.7,-27.48 51.07,-21.34"/>
</g>
<!-- Node4 -->
<g id="node4" class="node">
<title>Node4</title>
<g id="a_node4"><a xlink:title=" ">
<polygon fill="white" stroke="#bfbfbf" points="144.5,-0.5 144.5,-19.5 191.5,-19.5 191.5,-0.5 144.5,-0.5"/>
<text text-anchor="middle" x="168" y="-7.5" font-family="Helvetica,sans-Serif" font-size="10.00">vector</text>
</a>
</g>
</g>
<!-- Node3&#45;&gt;Node4 -->
<g id="edge4" class="edge">
<title>Node3&#45;&gt;Node4</title>
<path fill="none" stroke="midnightblue" d="M220.53,-112.37C211.2,-94.38 189.53,-52.55 177.13,-28.63"/>
<polygon fill="midnightblue" stroke="midnightblue" points="180.16,-26.86 172.45,-19.59 173.95,-30.08 180.16,-26.86"/>
</g>
<!-- Node5 -->
<g id="node5" class="node">
<title>Node5</title>
<g id="a_node5"><a xlink:title=" ">
<polygon fill="white" stroke="#bfbfbf" points="68,-0.5 68,-19.5 126,-19.5 126,-0.5 68,-0.5"/>
<text text-anchor="middle" x="97" y="-7.5" font-family="Helvetica,sans-Serif" font-size="10.00">memory</text>
</a>
</g>
</g>
<!-- Node3&#45;&gt;Node5 -->
<g id="edge5" class="edge">
<title>Node3&#45;&gt;Node5</title>
<path fill="none" stroke="midnightblue" d="M214.96,-112.37C193.27,-93.73 141.84,-49.53 114.61,-26.13"/>
<polygon fill="midnightblue" stroke="midnightblue" points="116.86,-23.45 107,-19.59 112.3,-28.76 116.86,-23.45"/>
</g>
<!-- Node6 -->
<g id="node6" class="node">
<title>Node6</title>
<g id="a_node6"><a xlink:title=" ">
<polygon fill="white" stroke="#bfbfbf" points="502,-0.5 502,-19.5 546,-19.5 546,-0.5 502,-0.5"/>
<text text-anchor="middle" x="524" y="-7.5" font-family="Helvetica,sans-Serif" font-size="10.00">string</text>
</a>
</g>
</g>
<!-- Node3&#45;&gt;Node6 -->
<g id="edge6" class="edge">
<title>Node3&#45;&gt;Node6</title>
<path fill="none" stroke="midnightblue" d="M266.37,-112.46C301.04,-104.72 351.55,-92.07 394,-76 432.5,-61.42 474.73,-39.02 500.3,-24.69"/>
<polygon fill="midnightblue" stroke="midnightblue" points="502.26,-27.61 509.24,-19.63 498.81,-21.51 502.26,-27.61"/>
</g>
<!-- Node7 -->
<g id="node7" class="node">
<title>Node7</title>
<g id="a_node7"><a xlink:href="Int24_8hpp.html" target="_top" xlink:title=" ">
<polygon fill="white" stroke="black" points="210,-0.5 210,-19.5 320,-19.5 320,-0.5 210,-0.5"/>
<text text-anchor="middle" x="265" y="-7.5" font-family="Helvetica,sans-Serif" font-size="10.00">../Models/Int24.hpp</text>
</a>
</g>
</g>
<!-- Node3&#45;&gt;Node7 -->
<g id="edge7" class="edge">
<title>Node3&#45;&gt;Node7</title>
<path fill="none" stroke="midnightblue" d="M228.14,-112.37C234.62,-94.54 249.62,-53.3 258.36,-29.27"/>
<polygon fill="midnightblue" stroke="midnightblue" points="261.75,-30.19 261.88,-19.59 255.17,-27.79 261.75,-30.19"/>
</g>
<!-- Node8 -->
<g id="node8" class="node">
<title>Node8</title>
<g id="a_node8"><a xlink:href="Components_8hpp.html" target="_top" xlink:title=" ">
<polygon fill="white" stroke="black" points="338,-0.5 338,-19.5 484,-19.5 484,-0.5 338,-0.5"/>
<text text-anchor="middle" x="411" y="-7.5" font-family="Helvetica,sans-Serif" font-size="10.00">../Models/Components.hpp</text>
</a>
</g>
</g>
<!-- Node3&#45;&gt;Node8 -->
<g id="edge8" class="edge">
<title>Node3&#45;&gt;Node8</title>
<path fill="none" stroke="midnightblue" d="M284.11,-112.46C312.31,-106.07 345.22,-95.01 370,-76 385.84,-63.84 397.18,-43.68 403.86,-29.03"/>
<polygon fill="midnightblue" stroke="midnightblue" points="407.2,-30.11 407.9,-19.53 400.76,-27.37 407.2,-30.11"/>
</g>
<!-- Node9 -->
<g id="node9" class="node">
<title>Node9</title>
<g id="a_node9"><a xlink:href="IMemory_8hpp.html" target="_top" xlink:title=" ">
<polygon fill="white" stroke="black" points="281,-56.5 281,-75.5 361,-75.5 361,-56.5 281,-56.5"/>
<text text-anchor="middle" x="321" y="-63.5" font-family="Helvetica,sans-Serif" font-size="10.00">IMemory.hpp</text>
</a>
</g>
</g>
<!-- Node3&#45;&gt;Node9 -->
<g id="edge9" class="edge">
<title>Node3&#45;&gt;Node9</title>
<path fill="none" stroke="midnightblue" d="M240.42,-112.32C255.54,-103.82 278.82,-90.73 296.47,-80.8"/>
<polygon fill="midnightblue" stroke="midnightblue" points="298.61,-83.61 305.61,-75.65 295.18,-77.51 298.61,-83.61"/>
</g>
<!-- Node9&#45;&gt;Node2 -->
<g id="edge10" class="edge">
<title>Node9&#45;&gt;Node2</title>
<path fill="none" stroke="midnightblue" d="M280.84,-59.23C231.2,-51.86 143.98,-38.09 60.13,-20.09"/>
<polygon fill="midnightblue" stroke="midnightblue" points="60.71,-16.63 50.19,-17.93 59.22,-23.48 60.71,-16.63"/>
</g>
<!-- Node9&#45;&gt;Node4 -->
<g id="edge11" class="edge">
<title>Node9&#45;&gt;Node4</title>
<path fill="none" stroke="midnightblue" d="M296.76,-56.44C270.98,-47.35 230.04,-32.9 201.26,-22.74"/>
<polygon fill="midnightblue" stroke="midnightblue" points="202.22,-19.37 191.63,-19.34 199.89,-25.97 202.22,-19.37"/>
</g>
<!-- Node9&#45;&gt;Node5 -->
<g id="edge12" class="edge">
<title>Node9&#45;&gt;Node5</title>
<path fill="none" stroke="midnightblue" d="M285.51,-56.44C244.82,-46.64 178.33,-30.61 136.17,-20.44"/>
<polygon fill="midnightblue" stroke="midnightblue" points="136.8,-16.99 126.26,-18.05 135.16,-23.8 136.8,-16.99"/>
</g>
<!-- Node9&#45;&gt;Node6 -->
<g id="edge13" class="edge">
<title>Node9&#45;&gt;Node6</title>
<path fill="none" stroke="midnightblue" d="M354.69,-56.47C387.38,-48.13 438.64,-34.89 491.74,-20.3"/>
<polygon fill="midnightblue" stroke="midnightblue" points="492.96,-23.59 501.67,-17.56 491.1,-16.84 492.96,-23.59"/>
</g>
<!-- Node9&#45;&gt;Node7 -->
<g id="edge14" class="edge">
<title>Node9&#45;&gt;Node7</title>
<path fill="none" stroke="midnightblue" d="M312,-56.32C303.81,-48.42 291.49,-36.55 281.53,-26.94"/>
<polygon fill="midnightblue" stroke="midnightblue" points="283.79,-24.26 274.16,-19.83 278.93,-29.29 283.79,-24.26"/>
</g>
<!-- Node9&#45;&gt;Node8 -->
<g id="edge15" class="edge">
<title>Node9&#45;&gt;Node8</title>
<path fill="none" stroke="midnightblue" d="M335.46,-56.32C349.5,-47.9 371.05,-34.97 387.54,-25.07"/>
<polygon fill="midnightblue" stroke="midnightblue" points="389.8,-27.8 396.58,-19.65 386.2,-21.8 389.8,-27.8"/>
</g>
<!-- Node10&#45;&gt;Node2 -->
<g id="edge17" class="edge">
<title>Node10&#45;&gt;Node2</title>
<path fill="none" stroke="midnightblue" d="M123.41,-168.08C106.83,-141.61 57.71,-63.21 35.78,-28.21"/>
<polygon fill="midnightblue" stroke="midnightblue" points="38.64,-26.18 30.37,-19.57 32.71,-29.9 38.64,-26.18"/>
</g>
<!-- Node10&#45;&gt;Node3 -->
<g id="edge20" class="edge">
<title>Node10&#45;&gt;Node3</title>
<path fill="none" stroke="midnightblue" d="M144.42,-168.32C159.54,-159.82 182.82,-146.73 200.47,-136.8"/>
<polygon fill="midnightblue" stroke="midnightblue" points="202.61,-139.61 209.61,-131.65 199.18,-133.51 202.61,-139.61"/>
</g>
<!-- Node10&#45;&gt;Node4 -->
<g id="edge18" class="edge">
<title>Node10&#45;&gt;Node4</title>
<path fill="none" stroke="midnightblue" d="M131.1,-168.08C137.24,-141.95 155.26,-65.21 163.64,-29.58"/>
<polygon fill="midnightblue" stroke="midnightblue" points="167.11,-30.1 165.99,-19.57 160.29,-28.5 167.11,-30.1"/>
</g>
<!-- Node10&#45;&gt;Node5 -->
<g id="edge19" class="edge">
<title>Node10&#45;&gt;Node5</title>
<path fill="none" stroke="midnightblue" d="M125.92,-168.48C122.77,-159.51 117.95,-144.92 115,-132 106.83,-96.24 101.49,-53.65 98.88,-29.72"/>
<polygon fill="midnightblue" stroke="midnightblue" points="102.34,-29.17 97.82,-19.59 95.38,-29.9 102.34,-29.17"/>
</g>
<!-- Node11&#45;&gt;Node6 -->
<g id="edge22" class="edge">
<title>Node11&#45;&gt;Node6</title>
<path fill="none" stroke="midnightblue" d="M579.63,-168.41C590.81,-156.2 608.08,-132.96 601,-112 589.21,-77.09 560,-44.71 541.13,-26.44"/>
<polygon fill="midnightblue" stroke="midnightblue" points="543.45,-23.81 533.77,-19.51 538.65,-28.91 543.45,-23.81"/>
</g>
<!-- Node12 -->
<g id="node12" class="node">
<title>Node12</title>
<g id="a_node12"><a xlink:title=" ">
<polygon fill="white" stroke="#bfbfbf" points="552,-112.5 552,-131.5 592,-131.5 592,-112.5 552,-112.5"/>
<text text-anchor="middle" x="572" y="-119.5" font-family="Helvetica,sans-Serif" font-size="10.00">span</text>
</a>
</g>
</g>
<!-- Node11&#45;&gt;Node12 -->
<g id="edge23" class="edge">
<title>Node11&#45;&gt;Node12</title>
<path fill="none" stroke="midnightblue" d="M571.17,-168.08C571.3,-161.01 571.48,-150.86 571.65,-141.99"/>
<polygon fill="midnightblue" stroke="midnightblue" points="575.15,-141.81 571.84,-131.75 568.15,-141.68 575.15,-141.81"/>
</g>
<!-- Node13&#45;&gt;Node6 -->
<g id="edge27" class="edge">
<title>Node13&#45;&gt;Node6</title>
<path fill="none" stroke="midnightblue" d="M445.58,-168.44C466.57,-161.95 490.58,-150.82 505,-132 527.88,-102.14 528.21,-55.77 526.23,-29.96"/>
<polygon fill="midnightblue" stroke="midnightblue" points="529.68,-29.3 525.23,-19.69 522.72,-29.98 529.68,-29.3"/>
</g>
<!-- Node14 -->
<g id="node14" class="node">
<title>Node14</title>
<g id="a_node14"><a xlink:href="ARectangleMemory_8hpp.html" target="_top" xlink:title=" ">
<polygon fill="white" stroke="black" points="311.5,-112.5 311.5,-131.5 496.5,-131.5 496.5,-112.5 311.5,-112.5"/>
<text text-anchor="middle" x="404" y="-119.5" font-family="Helvetica,sans-Serif" font-size="10.00">../Memory/ARectangleMemory.hpp</text>
</a>
</g>
</g>
<!-- Node13&#45;&gt;Node14 -->
<g id="edge25" class="edge">
<title>Node13&#45;&gt;Node14</title>
<path fill="none" stroke="midnightblue" d="M404,-168.08C404,-161.01 404,-150.86 404,-141.99"/>
<polygon fill="midnightblue" stroke="midnightblue" points="407.5,-141.75 404,-131.75 400.5,-141.75 407.5,-141.75"/>
</g>
<!-- Node14&#45;&gt;Node9 -->
<g id="edge26" class="edge">
<title>Node14&#45;&gt;Node9</title>
<path fill="none" stroke="midnightblue" d="M390.66,-112.32C377.84,-103.98 358.22,-91.21 343.06,-81.35"/>
<polygon fill="midnightblue" stroke="midnightblue" points="344.59,-78.17 334.3,-75.65 340.78,-84.04 344.59,-78.17"/>
</g>
<!-- Node16 -->
<g id="node16" class="node">
<title>Node16</title>
<g id="a_node16"><a xlink:title=" ">
<polygon fill="white" stroke="#bfbfbf" points="809.5,-112.5 809.5,-131.5 866.5,-131.5 866.5,-112.5 809.5,-112.5"/>
<text text-anchor="middle" x="838" y="-119.5" font-family="Helvetica,sans-Serif" font-size="10.00">ostream</text>
</a>
</g>
</g>
<!-- Node15&#45;&gt;Node16 -->
<g id="edge29" class="edge">
<title>Node15&#45;&gt;Node16</title>
<path fill="none" stroke="midnightblue" d="M738.7,-168.44C757.94,-159.64 788.15,-145.81 810.2,-135.72"/>
<polygon fill="midnightblue" stroke="midnightblue" points="811.75,-138.86 819.39,-131.52 808.84,-132.5 811.75,-138.86"/>
</g>
<!-- Node17 -->
<g id="node17" class="node">
<title>Node17</title>
<g id="a_node17"><a xlink:title=" ">
<polygon fill="white" stroke="#bfbfbf" points="648.5,-112.5 648.5,-131.5 791.5,-131.5 791.5,-112.5 648.5,-112.5"/>
<text text-anchor="middle" x="720" y="-119.5" font-family="Helvetica,sans-Serif" font-size="10.00">SFML/System/Vector2.hpp</text>
</a>
</g>
</g>
<!-- Node15&#45;&gt;Node17 -->
<g id="edge30" class="edge">
<title>Node15&#45;&gt;Node17</title>
<path fill="none" stroke="midnightblue" d="M720,-168.08C720,-161.01 720,-150.86 720,-141.99"/>
<polygon fill="midnightblue" stroke="midnightblue" points="723.5,-141.75 720,-131.75 716.5,-141.75 723.5,-141.75"/>
</g>
</g>
</svg>
