<?xml version="1.0" encoding="UTF-8" standalone="no"?>
<!DOCTYPE svg PUBLIC "-//W3C//DTD SVG 1.1//EN"
 "http://www.w3.org/Graphics/SVG/1.1/DTD/svg11.dtd">
<!-- Generated by graphviz version 2.43.0 (0)
 -->
<!-- Title: sources/PPU/PPU.hpp Pages: 1 -->
<svg width="3948pt" height="352pt"
 viewBox="0.00 0.00 3948.00 352.00" xmlns="http://www.w3.org/2000/svg" xmlns:xlink="http://www.w3.org/1999/xlink">
<g id="graph0" class="graph" transform="scale(1 1) rotate(0) translate(4 348)">
<title>sources/PPU/PPU.hpp</title>
<polygon fill="white" stroke="transparent" points="-4,4 -4,-348 3944,-348 3944,4 -4,4"/>
<!-- Node1 -->
<g id="node1" class="node">
<title>Node1</title>
<g id="a_node1"><a xlink:title=" ">
<polygon fill="#bfbfbf" stroke="black" points="3532.5,-324.5 3532.5,-343.5 3652.5,-343.5 3652.5,-324.5 3532.5,-324.5"/>
<text text-anchor="middle" x="3592.5" y="-331.5" font-family="Helvetica,sans-Serif" font-size="10.00">sources/PPU/PPU.hpp</text>
</a>
</g>
</g>
<!-- Node2 -->
<g id="node2" class="node">
<title>Node2</title>
<g id="a_node2"><a xlink:href="SNES_8hpp.html" target="_top" xlink:title=" ">
<polygon fill="white" stroke="black" points="2008.5,-268.5 2008.5,-287.5 2112.5,-287.5 2112.5,-268.5 2008.5,-268.5"/>
<text text-anchor="middle" x="2060.5" y="-275.5" font-family="Helvetica,sans-Serif" font-size="10.00">sources/SNES.hpp</text>
</a>
</g>
</g>
<!-- Node1&#45;&gt;Node2 -->
<g id="edge1" class="edge">
<title>Node1&#45;&gt;Node2</title>
<path fill="none" stroke="midnightblue" d="M3522.29,-330.53C3260.08,-321.28 2341.52,-288.91 2112.52,-280.83"/>
<polygon fill="midnightblue" stroke="midnightblue" points="3522.33,-334.03 3532.44,-330.88 3522.57,-327.03 3522.33,-334.03"/>
</g>
<!-- Node37 -->
<g id="node37" class="node">
<title>Node37</title>
<g id="a_node37"><a xlink:href="testPpuWrite_8cpp.html" target="_top" xlink:title=" ">
<polygon fill="white" stroke="black" points="3502,-140 3502,-159 3651,-159 3651,-140 3502,-140"/>
<text text-anchor="middle" x="3576.5" y="-147" font-family="Helvetica,sans-Serif" font-size="10.00">tests/PPU/testPpuWrite.cpp</text>
</a>
</g>
</g>
<!-- Node1&#45;&gt;Node37 -->
<g id="edge63" class="edge">
<title>Node1&#45;&gt;Node37</title>
<path fill="none" stroke="midnightblue" d="M3590.85,-314.22C3587.44,-275.32 3579.72,-187.21 3577.26,-159.21"/>
<polygon fill="midnightblue" stroke="midnightblue" points="3587.37,-314.54 3591.73,-324.2 3594.34,-313.93 3587.37,-314.54"/>
</g>
<!-- Node38 -->
<g id="node38" class="node">
<title>Node38</title>
<g id="a_node38"><a xlink:href="testPpuWriteFromVmain_8cpp.html" target="_top" xlink:title=" ">
<polygon fill="white" stroke="black" points="3669.5,-134.5 3669.5,-164.5 3823.5,-164.5 3823.5,-134.5 3669.5,-134.5"/>
<text text-anchor="start" x="3677.5" y="-152.5" font-family="Helvetica,sans-Serif" font-size="10.00">tests/PPU/testPpuWriteFrom</text>
<text text-anchor="middle" x="3746.5" y="-141.5" font-family="Helvetica,sans-Serif" font-size="10.00">Vmain.cpp</text>
</a>
</g>
</g>
<!-- Node1&#45;&gt;Node38 -->
<g id="edge64" class="edge">
<title>Node1&#45;&gt;Node38</title>
<path fill="none" stroke="midnightblue" d="M3601.8,-315.02C3609.11,-301.54 3619.96,-282.94 3631.5,-268 3662.9,-227.33 3707,-185.76 3730.41,-164.67"/>
<polygon fill="midnightblue" stroke="midnightblue" points="3598.54,-313.7 3596.94,-324.17 3604.72,-316.98 3598.54,-313.7"/>
</g>
<!-- Node41 -->
<g id="node41" class="node">
<title>Node41</title>
<g id="a_node41"><a xlink:href="CGramDebug_8hpp.html" target="_top" xlink:title=" ">
<polygon fill="white" stroke="black" points="3351.5,-268.5 3351.5,-287.5 3545.5,-287.5 3545.5,-268.5 3351.5,-268.5"/>
<text text-anchor="middle" x="3448.5" y="-275.5" font-family="Helvetica,sans-Serif" font-size="10.00">sources/Debugger/CGramDebug.hpp</text>
</a>
</g>
</g>
<!-- Node1&#45;&gt;Node41 -->
<g id="edge59" class="edge">
<title>Node1&#45;&gt;Node41</title>
<path fill="none" stroke="midnightblue" d="M3560.25,-320.91C3533.18,-310.75 3495.18,-296.51 3471.21,-287.52"/>
<polygon fill="midnightblue" stroke="midnightblue" points="3559.09,-324.21 3569.68,-324.44 3561.55,-317.66 3559.09,-324.21"/>
</g>
<!-- Node42 -->
<g id="node42" class="node">
<title>Node42</title>
<g id="a_node42"><a xlink:href="Backgrounds_8cpp.html" target="_top" xlink:title=" ">
<polygon fill="white" stroke="black" points="3640,-268.5 3640,-287.5 3803,-287.5 3803,-268.5 3640,-268.5"/>
<text text-anchor="middle" x="3721.5" y="-275.5" font-family="Helvetica,sans-Serif" font-size="10.00">sources/PPU/Backgrounds.cpp</text>
</a>
</g>
</g>
<!-- Node1&#45;&gt;Node42 -->
<g id="edge61" class="edge">
<title>Node1&#45;&gt;Node42</title>
<path fill="none" stroke="midnightblue" d="M3622.35,-320.5C3646.54,-310.38 3679.96,-296.39 3701.16,-287.52"/>
<polygon fill="midnightblue" stroke="midnightblue" points="3620.81,-317.35 3612.94,-324.44 3623.52,-323.81 3620.81,-317.35"/>
</g>
<!-- Node43 -->
<g id="node43" class="node">
<title>Node43</title>
<g id="a_node43"><a xlink:href="PPU_8cpp.html" target="_top" xlink:title=" ">
<polygon fill="white" stroke="black" points="3821,-268.5 3821,-287.5 3940,-287.5 3940,-268.5 3821,-268.5"/>
<text text-anchor="middle" x="3880.5" y="-275.5" font-family="Helvetica,sans-Serif" font-size="10.00">sources/PPU/PPU.cpp</text>
</a>
</g>
</g>
<!-- Node1&#45;&gt;Node43 -->
<g id="edge62" class="edge">
<title>Node1&#45;&gt;Node43</title>
<path fill="none" stroke="midnightblue" d="M3648.3,-322.54C3702.73,-312.33 3784.5,-297 3835.08,-287.52"/>
<polygon fill="midnightblue" stroke="midnightblue" points="3647.32,-319.16 3638.13,-324.44 3648.61,-326.04 3647.32,-319.16"/>
</g>
<!-- Node3 -->
<g id="node3" class="node">
<title>Node3</title>
<g id="a_node3"><a xlink:href="APUDebug_8hpp.html" target="_top" xlink:title=" ">
<polygon fill="white" stroke="black" points="31.5,-207 31.5,-226 211.5,-226 211.5,-207 31.5,-207"/>
<text text-anchor="middle" x="121.5" y="-214" font-family="Helvetica,sans-Serif" font-size="10.00">sources/Debugger/APUDebug.hpp</text>
</a>
</g>
</g>
<!-- Node2&#45;&gt;Node3 -->
<g id="edge2" class="edge">
<title>Node2&#45;&gt;Node3</title>
<path fill="none" stroke="midnightblue" d="M1998.03,-277.37C1766.51,-278.35 935.5,-278.21 252.5,-232 231.61,-230.59 208.92,-228.33 188.38,-226.02"/>
<polygon fill="midnightblue" stroke="midnightblue" points="1998.3,-280.87 2008.28,-277.33 1998.27,-273.87 1998.3,-280.87"/>
</g>
<!-- Node5 -->
<g id="node5" class="node">
<title>Node5</title>
<g id="a_node5"><a xlink:href="CGramDebug_8cpp.html" target="_top" xlink:title=" ">
<polygon fill="white" stroke="black" points="3348,-207 3348,-226 3541,-226 3541,-207 3348,-207"/>
<text text-anchor="middle" x="3444.5" y="-214" font-family="Helvetica,sans-Serif" font-size="10.00">sources/Debugger/CGramDebug.cpp</text>
</a>
</g>
</g>
<!-- Node2&#45;&gt;Node5 -->
<g id="edge4" class="edge">
<title>Node2&#45;&gt;Node5</title>
<path fill="none" stroke="midnightblue" d="M2122.69,-276.65C2306.62,-275.21 2863.9,-267.96 3324.5,-232 3343.33,-230.53 3363.75,-228.3 3382.32,-226.03"/>
<polygon fill="midnightblue" stroke="midnightblue" points="2122.64,-273.15 2112.66,-276.72 2122.69,-280.15 2122.64,-273.15"/>
</g>
<!-- Node6 -->
<g id="node6" class="node">
<title>Node6</title>
<g id="a_node6"><a xlink:href="SFRenderer_8hpp.html" target="_top" xlink:title=" ">
<polygon fill="white" stroke="black" points="355,-207 355,-226 536,-226 536,-207 355,-207"/>
<text text-anchor="middle" x="445.5" y="-214" font-family="Helvetica,sans-Serif" font-size="10.00">sources/Renderer/SFRenderer.hpp</text>
</a>
</g>
</g>
<!-- Node2&#45;&gt;Node6 -->
<g id="edge5" class="edge">
<title>Node2&#45;&gt;Node6</title>
<path fill="none" stroke="midnightblue" d="M1998.16,-274.93C1813.78,-268.78 1254.98,-249.93 791.5,-232 704.84,-228.65 605.98,-224.47 536.19,-221.46"/>
<polygon fill="midnightblue" stroke="midnightblue" points="1998.1,-278.43 2008.22,-275.27 1998.34,-271.44 1998.1,-278.43"/>
</g>
<!-- Node7 -->
<g id="node7" class="node">
<title>Node7</title>
<g id="a_node7"><a xlink:href="CPUDebug_8hpp.html" target="_top" xlink:title=" ">
<polygon fill="white" stroke="black" points="197.5,-134.5 197.5,-164.5 325.5,-164.5 325.5,-134.5 197.5,-134.5"/>
<text text-anchor="start" x="205.5" y="-152.5" font-family="Helvetica,sans-Serif" font-size="10.00">sources/Debugger/CPU</text>
<text text-anchor="middle" x="261.5" y="-141.5" font-family="Helvetica,sans-Serif" font-size="10.00">/CPUDebug.hpp</text>
</a>
</g>
</g>
<!-- Node2&#45;&gt;Node7 -->
<g id="edge17" class="edge">
<title>Node2&#45;&gt;Node7</title>
<path fill="none" stroke="midnightblue" d="M1997.85,-276.63C1698.27,-274.7 423,-264.61 345.5,-232 312.16,-217.97 284.57,-184.05 270.86,-164.68"/>
<polygon fill="midnightblue" stroke="midnightblue" points="1998.07,-280.13 2008.1,-276.7 1998.12,-273.13 1998.07,-280.13"/>
</g>
<!-- Node10 -->
<g id="node10" class="node">
<title>Node10</title>
<g id="a_node10"><a xlink:href="main_8cpp.html" target="_top" xlink:title=" ">
<polygon fill="white" stroke="black" points="356.5,-6 356.5,-25 458.5,-25 458.5,-6 356.5,-6"/>
<text text-anchor="middle" x="407.5" y="-13" font-family="Helvetica,sans-Serif" font-size="10.00">sources/main.cpp</text>
</a>
</g>
</g>
<!-- Node2&#45;&gt;Node10 -->
<g id="edge22" class="edge">
<title>Node2&#45;&gt;Node10</title>
<path fill="none" stroke="midnightblue" d="M1998.02,-276.62C1753.53,-274.89 872.68,-266.3 824.5,-232 786.44,-204.91 810.59,-174.03 786.5,-134 766.19,-100.25 763.12,-85.78 728.5,-67 625.58,-11.15 582.55,-52.78 467.5,-31 458.66,-29.33 449.15,-27.19 440.38,-25.07"/>
<polygon fill="midnightblue" stroke="midnightblue" points="1998.13,-280.12 2008.16,-276.69 1998.18,-273.12 1998.13,-280.12"/>
</g>
<!-- Node16 -->
<g id="node16" class="node">
<title>Node16</title>
<g id="a_node16"><a xlink:href="HeaderViewer_8cpp.html" target="_top" xlink:title=" ">
<polygon fill="white" stroke="black" points="833.5,-207 833.5,-226 1029.5,-226 1029.5,-207 833.5,-207"/>
<text text-anchor="middle" x="931.5" y="-214" font-family="Helvetica,sans-Serif" font-size="10.00">sources/Debugger/HeaderViewer.cpp</text>
</a>
</g>
</g>
<!-- Node2&#45;&gt;Node16 -->
<g id="edge18" class="edge">
<title>Node2&#45;&gt;Node16</title>
<path fill="none" stroke="midnightblue" d="M1998.15,-276.22C1838.34,-273.8 1401.13,-264.49 1038.5,-232 1021.79,-230.5 1003.68,-228.28 987.2,-226.02"/>
<polygon fill="midnightblue" stroke="midnightblue" points="1998.22,-279.72 2008.27,-276.37 1998.33,-272.72 1998.22,-279.72"/>
</g>
<!-- Node17 -->
<g id="node17" class="node">
<title>Node17</title>
<g id="a_node17"><a xlink:href="MemoryBusDebug_8cpp.html" target="_top" xlink:title=" ">
<polygon fill="white" stroke="black" points="1047.5,-201.5 1047.5,-231.5 1213.5,-231.5 1213.5,-201.5 1047.5,-201.5"/>
<text text-anchor="start" x="1055.5" y="-219.5" font-family="Helvetica,sans-Serif" font-size="10.00">sources/Debugger/MemoryBus</text>
<text text-anchor="middle" x="1130.5" y="-208.5" font-family="Helvetica,sans-Serif" font-size="10.00">Debug.cpp</text>
</a>
</g>
</g>
<!-- Node2&#45;&gt;Node17 -->
<g id="edge19" class="edge">
<title>Node2&#45;&gt;Node17</title>
<path fill="none" stroke="midnightblue" d="M1998.32,-275.84C1859.04,-272.77 1511.57,-262.46 1222.5,-232 1219.61,-231.7 1216.66,-231.36 1213.69,-231"/>
<polygon fill="midnightblue" stroke="midnightblue" points="1998.3,-279.34 2008.38,-276.06 1998.46,-272.35 1998.3,-279.34"/>
</g>
<!-- Node18 -->
<g id="node18" class="node">
<title>Node18</title>
<g id="a_node18"><a xlink:href="MemoryViewer_8cpp.html" target="_top" xlink:title=" ">
<polygon fill="white" stroke="black" points="1232,-207 1232,-226 1433,-226 1433,-207 1232,-207"/>
<text text-anchor="middle" x="1332.5" y="-214" font-family="Helvetica,sans-Serif" font-size="10.00">sources/Debugger/MemoryViewer.cpp</text>
</a>
</g>
</g>
<!-- Node2&#45;&gt;Node18 -->
<g id="edge20" class="edge">
<title>Node2&#45;&gt;Node18</title>
<path fill="none" stroke="midnightblue" d="M1998.26,-273.67C1886.7,-267.44 1645.39,-252.74 1442.5,-232 1426.21,-230.33 1408.61,-228.18 1392.37,-226.04"/>
<polygon fill="midnightblue" stroke="midnightblue" points="1998.14,-277.17 2008.32,-274.23 1998.53,-270.18 1998.14,-277.17"/>
</g>
<!-- Node19 -->
<g id="node19" class="node">
<title>Node19</title>
<g id="a_node19"><a xlink:href="RegisterViewer_8cpp.html" target="_top" xlink:title=" ">
<polygon fill="white" stroke="black" points="1451.5,-201.5 1451.5,-231.5 1599.5,-231.5 1599.5,-201.5 1451.5,-201.5"/>
<text text-anchor="start" x="1459.5" y="-219.5" font-family="Helvetica,sans-Serif" font-size="10.00">sources/Debugger/Register</text>
<text text-anchor="middle" x="1525.5" y="-208.5" font-family="Helvetica,sans-Serif" font-size="10.00">Viewer.cpp</text>
</a>
</g>
</g>
<!-- Node2&#45;&gt;Node19 -->
<g id="edge21" class="edge">
<title>Node2&#45;&gt;Node19</title>
<path fill="none" stroke="midnightblue" d="M1998.29,-272.21C1911.14,-265.17 1747.87,-250.82 1609.5,-232 1606.27,-231.56 1602.98,-231.09 1599.66,-230.6"/>
<polygon fill="midnightblue" stroke="midnightblue" points="1998.03,-275.7 2008.27,-273.01 1998.59,-268.72 1998.03,-275.7"/>
</g>
<!-- Node20 -->
<g id="node20" class="node">
<title>Node20</title>
<g id="a_node20"><a xlink:href="MemoryBus_8cpp.html" target="_top" xlink:title=" ">
<polygon fill="white" stroke="black" points="1618,-207 1618,-226 1797,-226 1797,-207 1618,-207"/>
<text text-anchor="middle" x="1707.5" y="-214" font-family="Helvetica,sans-Serif" font-size="10.00">sources/Memory/MemoryBus.cpp</text>
</a>
</g>
</g>
<!-- Node2&#45;&gt;Node20 -->
<g id="edge23" class="edge">
<title>Node2&#45;&gt;Node20</title>
<path fill="none" stroke="midnightblue" d="M1999.74,-266.76C1931.44,-255.25 1821.77,-236.76 1757.98,-226.01"/>
<polygon fill="midnightblue" stroke="midnightblue" points="1999.48,-270.26 2009.92,-268.48 2000.64,-263.36 1999.48,-270.26"/>
</g>
<!-- Node21 -->
<g id="node21" class="node">
<title>Node21</title>
<g id="a_node21"><a xlink:href="SNES_8cpp.html" target="_top" xlink:title=" ">
<polygon fill="white" stroke="black" points="1815,-207 1815,-226 1918,-226 1918,-207 1815,-207"/>
<text text-anchor="middle" x="1866.5" y="-214" font-family="Helvetica,sans-Serif" font-size="10.00">sources/SNES.cpp</text>
</a>
</g>
</g>
<!-- Node2&#45;&gt;Node21 -->
<g id="edge24" class="edge">
<title>Node2&#45;&gt;Node21</title>
<path fill="none" stroke="midnightblue" d="M2023.1,-265.53C1985.39,-253.96 1928.07,-236.38 1894.24,-226.01"/>
<polygon fill="midnightblue" stroke="midnightblue" points="2022.12,-268.89 2032.7,-268.48 2024.17,-262.2 2022.12,-268.89"/>
</g>
<!-- Node22 -->
<g id="node22" class="node">
<title>Node22</title>
<g id="a_node22"><a xlink:href="tests_8hpp.html" target="_top" xlink:title=" ">
<polygon fill="white" stroke="black" points="2241,-207 2241,-226 2330,-226 2330,-207 2241,-207"/>
<text text-anchor="middle" x="2285.5" y="-214" font-family="Helvetica,sans-Serif" font-size="10.00">tests/tests.hpp</text>
</a>
</g>
</g>
<!-- Node2&#45;&gt;Node22 -->
<g id="edge25" class="edge">
<title>Node2&#45;&gt;Node22</title>
<path fill="none" stroke="midnightblue" d="M2102.49,-265.9C2146.19,-254.34 2213.67,-236.5 2253.32,-226.01"/>
<polygon fill="midnightblue" stroke="midnightblue" points="2101.51,-262.53 2092.74,-268.48 2103.3,-269.3 2101.51,-262.53"/>
</g>
<!-- Node23 -->
<g id="node23" class="node">
<title>Node23</title>
<g id="a_node23"><a xlink:href="testAPU_8cpp.html" target="_top" xlink:title=" ">
<polygon fill="white" stroke="black" points="868.5,-140 868.5,-159 994.5,-159 994.5,-140 868.5,-140"/>
<text text-anchor="middle" x="931.5" y="-147" font-family="Helvetica,sans-Serif" font-size="10.00">tests/APU/testAPU.cpp</text>
</a>
</g>
</g>
<!-- Node2&#45;&gt;Node23 -->
<g id="edge45" class="edge">
<title>Node2&#45;&gt;Node23</title>
<path fill="none" stroke="midnightblue" d="M2026.12,-264.81C2006.12,-256.94 1980.91,-245.62 1960.5,-232 1943.76,-220.83 1946.06,-208.77 1927.5,-201 1832.73,-161.32 1105.52,-177.18 1003.5,-165 991.85,-163.61 979.28,-161.35 967.95,-159.02"/>
<polygon fill="midnightblue" stroke="midnightblue" points="2024.89,-268.09 2035.48,-268.4 2027.4,-261.55 2024.89,-268.09"/>
</g>
<!-- Node24 -->
<g id="node24" class="node">
<title>Node24</title>
<g id="a_node24"><a xlink:href="testAPUInstructions_8cpp.html" target="_top" xlink:title=" ">
<polygon fill="white" stroke="black" points="1013,-140 1013,-159 1196,-159 1196,-140 1013,-140"/>
<text text-anchor="middle" x="1104.5" y="-147" font-family="Helvetica,sans-Serif" font-size="10.00">tests/APU/testAPUInstructions.cpp</text>
</a>
</g>
</g>
<!-- Node2&#45;&gt;Node24 -->
<g id="edge46" class="edge">
<title>Node2&#45;&gt;Node24</title>
<path fill="none" stroke="midnightblue" d="M2039.83,-262.44C2027.67,-253.77 2012.07,-242.45 1998.5,-232 1981.23,-218.7 1980.85,-208.8 1960.5,-201 1803.45,-140.82 1371.92,-181.09 1204.5,-165 1188.87,-163.5 1171.95,-161.27 1156.55,-159.02"/>
<polygon fill="midnightblue" stroke="midnightblue" points="2037.82,-265.3 2048,-268.24 2041.87,-259.6 2037.82,-265.3"/>
</g>
<!-- Node25 -->
<g id="node25" class="node">
<title>Node25</title>
<g id="a_node25"><a xlink:href="testOperand_8cpp.html" target="_top" xlink:title=" ">
<polygon fill="white" stroke="black" points="1214,-140 1214,-159 1361,-159 1361,-140 1214,-140"/>
<text text-anchor="middle" x="1287.5" y="-147" font-family="Helvetica,sans-Serif" font-size="10.00">tests/APU/testOperand.cpp</text>
</a>
</g>
</g>
<!-- Node2&#45;&gt;Node25 -->
<g id="edge47" class="edge">
<title>Node2&#45;&gt;Node25</title>
<path fill="none" stroke="midnightblue" d="M2051.81,-259.42C2041.75,-241.21 2023.33,-213.67 1998.5,-201 1873.79,-137.36 1508.56,-181.22 1369.5,-165 1356.72,-163.51 1342.92,-161.3 1330.34,-159.06"/>
<polygon fill="midnightblue" stroke="midnightblue" points="2048.79,-261.19 2056.53,-268.43 2054.99,-257.95 2048.79,-261.19"/>
</g>
<!-- Node26 -->
<g id="node26" class="node">
<title>Node26</title>
<g id="a_node26"><a xlink:href="testADC_8cpp.html" target="_top" xlink:title=" ">
<polygon fill="white" stroke="black" points="1379,-140 1379,-159 1534,-159 1534,-140 1379,-140"/>
<text text-anchor="middle" x="1456.5" y="-147" font-family="Helvetica,sans-Serif" font-size="10.00">tests/CPU/Math/testADC.cpp</text>
</a>
</g>
</g>
<!-- Node2&#45;&gt;Node26 -->
<g id="edge48" class="edge">
<title>Node2&#45;&gt;Node26</title>
<path fill="none" stroke="midnightblue" d="M2060.19,-258.16C2058.79,-240.41 2053.68,-214.58 2036.5,-201 1993.41,-166.94 1598.04,-171.52 1543.5,-165 1530.27,-163.42 1515.99,-161.24 1502.89,-159.05"/>
<polygon fill="midnightblue" stroke="midnightblue" points="2056.7,-258.39 2060.66,-268.21 2063.69,-258.06 2056.7,-258.39"/>
</g>
<!-- Node27 -->
<g id="node27" class="node">
<title>Node27</title>
<g id="a_node27"><a xlink:href="testCMP_8cpp.html" target="_top" xlink:title=" ">
<polygon fill="white" stroke="black" points="1552.5,-140 1552.5,-159 1706.5,-159 1706.5,-140 1552.5,-140"/>
<text text-anchor="middle" x="1629.5" y="-147" font-family="Helvetica,sans-Serif" font-size="10.00">tests/CPU/Math/testCMP.cpp</text>
</a>
</g>
</g>
<!-- Node2&#45;&gt;Node27 -->
<g id="edge49" class="edge">
<title>Node2&#45;&gt;Node27</title>
<path fill="none" stroke="midnightblue" d="M2071.2,-259.29C2079.96,-242.25 2088.8,-216.8 2074.5,-201 2047.6,-171.27 1755.23,-170.34 1715.5,-165 1702.89,-163.31 1689.3,-161.16 1676.73,-159.05"/>
<polygon fill="midnightblue" stroke="midnightblue" points="2068.04,-257.78 2066.22,-268.22 2074.15,-261.19 2068.04,-257.78"/>
</g>
<!-- Node28 -->
<g id="node28" class="node">
<title>Node28</title>
<g id="a_node28"><a xlink:href="testOthersMath_8cpp.html" target="_top" xlink:title=" ">
<polygon fill="white" stroke="black" points="1724.5,-134.5 1724.5,-164.5 1870.5,-164.5 1870.5,-134.5 1724.5,-134.5"/>
<text text-anchor="start" x="1732.5" y="-152.5" font-family="Helvetica,sans-Serif" font-size="10.00">tests/CPU/Math/testOthers</text>
<text text-anchor="middle" x="1797.5" y="-141.5" font-family="Helvetica,sans-Serif" font-size="10.00">Math.cpp</text>
</a>
</g>
</g>
<!-- Node2&#45;&gt;Node28 -->
<g id="edge50" class="edge">
<title>Node2&#45;&gt;Node28</title>
<path fill="none" stroke="midnightblue" d="M2082.29,-262.43C2103.31,-246.61 2129.6,-220.95 2112.5,-201 2078.55,-161.38 1931.98,-173.49 1880.5,-165 1877.32,-164.48 1874.08,-163.94 1870.81,-163.38"/>
<polygon fill="midnightblue" stroke="midnightblue" points="2080.11,-259.68 2074.04,-268.36 2084.2,-265.37 2080.11,-259.68"/>
</g>
<!-- Node29 -->
<g id="node29" class="node">
<title>Node29</title>
<g id="a_node29"><a xlink:href="testSBC_8cpp.html" target="_top" xlink:title=" ">
<polygon fill="white" stroke="black" points="1889,-140 1889,-159 2042,-159 2042,-140 1889,-140"/>
<text text-anchor="middle" x="1965.5" y="-147" font-family="Helvetica,sans-Serif" font-size="10.00">tests/CPU/Math/testSBC.cpp</text>
</a>
</g>
</g>
<!-- Node2&#45;&gt;Node29 -->
<g id="edge51" class="edge">
<title>Node2&#45;&gt;Node29</title>
<path fill="none" stroke="midnightblue" d="M2107.28,-264.85C2123.88,-258.04 2140.83,-247.65 2150.5,-232 2157.74,-220.28 2158.86,-211.95 2150.5,-201 2141.69,-189.46 2058.93,-170.19 2007.13,-159.09"/>
<polygon fill="midnightblue" stroke="midnightblue" points="2105.75,-261.68 2097.6,-268.46 2108.19,-268.24 2105.75,-261.68"/>
</g>
<!-- Node30 -->
<g id="node30" class="node">
<title>Node30</title>
<g id="a_node30"><a xlink:href="testAddressingMode_8cpp.html" target="_top" xlink:title=" ">
<polygon fill="white" stroke="black" points="2060.5,-134.5 2060.5,-164.5 2200.5,-164.5 2200.5,-134.5 2060.5,-134.5"/>
<text text-anchor="start" x="2068.5" y="-152.5" font-family="Helvetica,sans-Serif" font-size="10.00">tests/CPU/testAddressing</text>
<text text-anchor="middle" x="2130.5" y="-141.5" font-family="Helvetica,sans-Serif" font-size="10.00">Mode.cpp</text>
</a>
</g>
</g>
<!-- Node2&#45;&gt;Node30 -->
<g id="edge52" class="edge">
<title>Node2&#45;&gt;Node30</title>
<path fill="none" stroke="midnightblue" d="M2122.8,-270.54C2147.43,-264.58 2173.42,-253.29 2188.5,-232 2205.27,-208.33 2175.48,-180.86 2152.74,-164.62"/>
<polygon fill="midnightblue" stroke="midnightblue" points="2121.76,-267.18 2112.73,-272.71 2123.24,-274.02 2121.76,-267.18"/>
</g>
<!-- Node31 -->
<g id="node31" class="node">
<title>Node31</title>
<g id="a_node31"><a xlink:href="testBits_8cpp.html" target="_top" xlink:title=" ">
<polygon fill="white" stroke="black" points="2875,-140 2875,-159 3000,-159 3000,-140 2875,-140"/>
<text text-anchor="middle" x="2937.5" y="-147" font-family="Helvetica,sans-Serif" font-size="10.00">tests/CPU/testBits.cpp</text>
</a>
</g>
</g>
<!-- Node2&#45;&gt;Node31 -->
<g id="edge53" class="edge">
<title>Node2&#45;&gt;Node31</title>
<path fill="none" stroke="midnightblue" d="M2123.14,-269.59C2258.84,-253.27 2589.95,-211.87 2865.5,-165 2875.81,-163.25 2886.9,-161.13 2897.21,-159.06"/>
<polygon fill="midnightblue" stroke="midnightblue" points="2122.45,-266.15 2112.94,-270.82 2123.28,-273.1 2122.45,-266.15"/>
</g>
<!-- Node34 -->
<g id="node34" class="node">
<title>Node34</title>
<g id="a_node34"><a xlink:href="testInterupts_8cpp.html" target="_top" xlink:title=" ">
<polygon fill="white" stroke="black" points="3018,-140 3018,-159 3167,-159 3167,-140 3018,-140"/>
<text text-anchor="middle" x="3092.5" y="-147" font-family="Helvetica,sans-Serif" font-size="10.00">tests/CPU/testInterupts.cpp</text>
</a>
</g>
</g>
<!-- Node2&#45;&gt;Node34 -->
<g id="edge54" class="edge">
<title>Node2&#45;&gt;Node34</title>
<path fill="none" stroke="midnightblue" d="M2122.88,-272.1C2214.39,-264.69 2390.34,-249.63 2539.5,-232 2749.04,-207.24 2801.1,-198.05 3009.5,-165 3021.06,-163.17 3033.5,-161.06 3045.14,-159.04"/>
<polygon fill="midnightblue" stroke="midnightblue" points="2122.37,-268.63 2112.68,-272.92 2122.93,-275.61 2122.37,-268.63"/>
</g>
<!-- Node35 -->
<g id="node35" class="node">
<title>Node35</title>
<g id="a_node35"><a xlink:href="testStore_8cpp.html" target="_top" xlink:title=" ">
<polygon fill="white" stroke="black" points="3185,-140 3185,-159 3316,-159 3316,-140 3185,-140"/>
<text text-anchor="middle" x="3250.5" y="-147" font-family="Helvetica,sans-Serif" font-size="10.00">tests/CPU/testStore.cpp</text>
</a>
</g>
</g>
<!-- Node2&#45;&gt;Node35 -->
<g id="edge55" class="edge">
<title>Node2&#45;&gt;Node35</title>
<path fill="none" stroke="midnightblue" d="M2123.12,-273.58C2233.75,-267.28 2470.96,-252.55 2670.5,-232 2896.16,-208.76 2952.64,-201.72 3176.5,-165 3187.22,-163.24 3198.77,-161.1 3209.48,-159.01"/>
<polygon fill="midnightblue" stroke="midnightblue" points="2122.6,-270.11 2112.81,-274.17 2122.99,-277.1 2122.6,-270.11"/>
</g>
<!-- Node36 -->
<g id="node36" class="node">
<title>Node36</title>
<g id="a_node36"><a xlink:href="testTransfers_8cpp.html" target="_top" xlink:title=" ">
<polygon fill="white" stroke="black" points="3334.5,-140 3334.5,-159 3484.5,-159 3484.5,-140 3334.5,-140"/>
<text text-anchor="middle" x="3409.5" y="-147" font-family="Helvetica,sans-Serif" font-size="10.00">tests/CPU/testTransfers.cpp</text>
</a>
</g>
</g>
<!-- Node2&#45;&gt;Node36 -->
<g id="edge56" class="edge">
<title>Node2&#45;&gt;Node36</title>
<path fill="none" stroke="midnightblue" d="M2122.74,-274.84C2252.51,-269.99 2561.39,-256.71 2819.5,-232 3045.32,-210.38 3101.24,-199.19 3325.5,-165 3337.35,-163.19 3350.11,-161.08 3362.02,-159.03"/>
<polygon fill="midnightblue" stroke="midnightblue" points="2122.46,-271.35 2112.59,-275.21 2122.72,-278.34 2122.46,-271.35"/>
</g>
<!-- Node2&#45;&gt;Node37 -->
<g id="edge57" class="edge">
<title>Node2&#45;&gt;Node37</title>
<path fill="none" stroke="midnightblue" d="M2122.73,-275.54C2269.54,-271.73 2648.84,-259.81 2964.5,-232 3200.58,-211.2 3259.15,-200.29 3493.5,-165 3505.36,-163.21 3518.14,-161.08 3530.03,-159.01"/>
<polygon fill="midnightblue" stroke="midnightblue" points="2122.48,-272.04 2112.57,-275.8 2122.66,-279.04 2122.48,-272.04"/>
</g>
<!-- Node2&#45;&gt;Node38 -->
<g id="edge58" class="edge">
<title>Node2&#45;&gt;Node38</title>
<path fill="none" stroke="midnightblue" d="M2123.06,-276.47C2286.95,-274.62 2742.26,-266.51 3119.5,-232 3217.83,-223 3241.54,-213.39 3339.5,-201 3481.93,-182.98 3518.33,-184.94 3660.5,-165 3663.35,-164.6 3666.25,-164.18 3669.18,-163.74"/>
<polygon fill="midnightblue" stroke="midnightblue" points="2122.65,-272.97 2112.69,-276.58 2122.72,-279.97 2122.65,-272.97"/>
</g>
<!-- Node4 -->
<g id="node4" class="node">
<title>Node4</title>
<g id="a_node4"><a xlink:href="APUDebug_8cpp.html" target="_top" xlink:title=" ">
<polygon fill="white" stroke="black" points="0,-140 0,-159 179,-159 179,-140 0,-140"/>
<text text-anchor="middle" x="89.5" y="-147" font-family="Helvetica,sans-Serif" font-size="10.00">sources/Debugger/APUDebug.cpp</text>
</a>
</g>
</g>
<!-- Node3&#45;&gt;Node4 -->
<g id="edge3" class="edge">
<title>Node3&#45;&gt;Node4</title>
<path fill="none" stroke="midnightblue" d="M112.72,-197.66C106.55,-185.13 98.56,-168.91 93.75,-159.13"/>
<polygon fill="midnightblue" stroke="midnightblue" points="109.63,-199.31 117.18,-206.73 115.91,-196.22 109.63,-199.31"/>
</g>
<!-- Node6&#45;&gt;Node7 -->
<g id="edge6" class="edge">
<title>Node6&#45;&gt;Node7</title>
<path fill="none" stroke="midnightblue" d="M411.5,-203.49C380.31,-192.47 334.09,-176.14 301.21,-164.53"/>
<polygon fill="midnightblue" stroke="midnightblue" points="410.47,-206.84 421.07,-206.87 412.8,-200.24 410.47,-206.84"/>
</g>
<!-- Node6&#45;&gt;Node10 -->
<g id="edge9" class="edge">
<title>Node6&#45;&gt;Node10</title>
<path fill="none" stroke="midnightblue" d="M430.36,-199.24C411.8,-177.95 381.68,-138.53 372.5,-98 369.46,-84.56 368.39,-80.15 372.5,-67 377.66,-50.51 390.3,-34.66 398.89,-25.25"/>
<polygon fill="midnightblue" stroke="midnightblue" points="427.78,-201.61 437.06,-206.73 433,-196.94 427.78,-201.61"/>
</g>
<!-- Node11 -->
<g id="node11" class="node">
<title>Node11</title>
<g id="a_node11"><a xlink:href="QtSFML_8hpp.html" target="_top" xlink:title=" ">
<polygon fill="white" stroke="black" points="381.5,-67.5 381.5,-97.5 541.5,-97.5 541.5,-67.5 381.5,-67.5"/>
<text text-anchor="start" x="389.5" y="-85.5" font-family="Helvetica,sans-Serif" font-size="10.00">sources/Renderer/QtRenderer</text>
<text text-anchor="middle" x="461.5" y="-74.5" font-family="Helvetica,sans-Serif" font-size="10.00">/QtSFML.hpp</text>
</a>
</g>
</g>
<!-- Node6&#45;&gt;Node11 -->
<g id="edge10" class="edge">
<title>Node6&#45;&gt;Node11</title>
<path fill="none" stroke="midnightblue" d="M430.45,-199.33C417.08,-182.92 401.01,-156.75 410.5,-134 416.69,-119.16 429.59,-106.46 440.87,-97.5"/>
<polygon fill="midnightblue" stroke="midnightblue" points="427.85,-201.69 437.04,-206.96 433.15,-197.11 427.85,-201.69"/>
</g>
<!-- Node13 -->
<g id="node13" class="node">
<title>Node13</title>
<g id="a_node13"><a xlink:href="QtWidgetSFML_8hpp.html" target="_top" xlink:title=" ">
<polygon fill="white" stroke="black" points="419.5,-134.5 419.5,-164.5 579.5,-164.5 579.5,-134.5 419.5,-134.5"/>
<text text-anchor="start" x="427.5" y="-152.5" font-family="Helvetica,sans-Serif" font-size="10.00">sources/Renderer/QtRenderer</text>
<text text-anchor="middle" x="499.5" y="-141.5" font-family="Helvetica,sans-Serif" font-size="10.00">/QtWidgetSFML.hpp</text>
</a>
</g>
</g>
<!-- Node6&#45;&gt;Node13 -->
<g id="edge13" class="edge">
<title>Node6&#45;&gt;Node13</title>
<path fill="none" stroke="midnightblue" d="M459.22,-198.99C468.04,-188.36 479.39,-174.7 487.8,-164.59"/>
<polygon fill="midnightblue" stroke="midnightblue" points="456.48,-196.81 452.78,-206.73 461.87,-201.28 456.48,-196.81"/>
</g>
<!-- Node15 -->
<g id="node15" class="node">
<title>Node15</title>
<g id="a_node15"><a xlink:href="SFRenderer_8cpp.html" target="_top" xlink:title=" ">
<polygon fill="white" stroke="black" points="597.5,-140 597.5,-159 777.5,-159 777.5,-140 597.5,-140"/>
<text text-anchor="middle" x="687.5" y="-147" font-family="Helvetica,sans-Serif" font-size="10.00">sources/Renderer/SFRenderer.cpp</text>
</a>
</g>
</g>
<!-- Node6&#45;&gt;Node15 -->
<g id="edge16" class="edge">
<title>Node6&#45;&gt;Node15</title>
<path fill="none" stroke="midnightblue" d="M487.11,-204.32C534.9,-191.49 612.25,-170.71 655.54,-159.08"/>
<polygon fill="midnightblue" stroke="midnightblue" points="486.14,-200.96 477.39,-206.94 487.95,-207.72 486.14,-200.96"/>
</g>
<!-- Node8 -->
<g id="node8" class="node">
<title>Node8</title>
<g id="a_node8"><a xlink:href="CPUDebug_8cpp.html" target="_top" xlink:title=" ">
<polygon fill="white" stroke="black" points="51.5,-67.5 51.5,-97.5 179.5,-97.5 179.5,-67.5 51.5,-67.5"/>
<text text-anchor="start" x="59.5" y="-85.5" font-family="Helvetica,sans-Serif" font-size="10.00">sources/Debugger/CPU</text>
<text text-anchor="middle" x="115.5" y="-74.5" font-family="Helvetica,sans-Serif" font-size="10.00">/CPUDebug.cpp</text>
</a>
</g>
</g>
<!-- Node7&#45;&gt;Node8 -->
<g id="edge7" class="edge">
<title>Node7&#45;&gt;Node8</title>
<path fill="none" stroke="midnightblue" d="M220.55,-130.27C197.3,-119.92 168.63,-107.15 147.12,-97.58"/>
<polygon fill="midnightblue" stroke="midnightblue" points="219.26,-133.53 229.82,-134.4 222.11,-127.13 219.26,-133.53"/>
</g>
<!-- Node9 -->
<g id="node9" class="node">
<title>Node9</title>
<g id="a_node9"><a xlink:href="Disassembly_8cpp.html" target="_top" xlink:title=" ">
<polygon fill="white" stroke="black" points="197.5,-67.5 197.5,-97.5 325.5,-97.5 325.5,-67.5 197.5,-67.5"/>
<text text-anchor="start" x="205.5" y="-85.5" font-family="Helvetica,sans-Serif" font-size="10.00">sources/Debugger/CPU</text>
<text text-anchor="middle" x="261.5" y="-74.5" font-family="Helvetica,sans-Serif" font-size="10.00">/Disassembly.cpp</text>
</a>
</g>
</g>
<!-- Node7&#45;&gt;Node9 -->
<g id="edge8" class="edge">
<title>Node7&#45;&gt;Node9</title>
<path fill="none" stroke="midnightblue" d="M261.5,-124.11C261.5,-115.15 261.5,-105.32 261.5,-97.58"/>
<polygon fill="midnightblue" stroke="midnightblue" points="258,-124.4 261.5,-134.4 265,-124.4 258,-124.4"/>
</g>
<!-- Node11&#45;&gt;Node10 -->
<g id="edge11" class="edge">
<title>Node11&#45;&gt;Node10</title>
<path fill="none" stroke="midnightblue" d="M443.35,-59.66C433.56,-47.86 422.01,-33.97 414.72,-25.19"/>
<polygon fill="midnightblue" stroke="midnightblue" points="440.7,-61.94 449.78,-67.4 446.08,-57.47 440.7,-61.94"/>
</g>
<!-- Node12 -->
<g id="node12" class="node">
<title>Node12</title>
<g id="a_node12"><a xlink:href="QtSFML_8cpp.html" target="_top" xlink:title=" ">
<polygon fill="white" stroke="black" points="476.5,-0.5 476.5,-30.5 636.5,-30.5 636.5,-0.5 476.5,-0.5"/>
<text text-anchor="start" x="484.5" y="-18.5" font-family="Helvetica,sans-Serif" font-size="10.00">sources/Renderer/QtRenderer</text>
<text text-anchor="middle" x="556.5" y="-7.5" font-family="Helvetica,sans-Serif" font-size="10.00">/QtSFML.cpp</text>
</a>
</g>
</g>
<!-- Node11&#45;&gt;Node12 -->
<g id="edge12" class="edge">
<title>Node11&#45;&gt;Node12</title>
<path fill="none" stroke="midnightblue" d="M490.39,-61.73C505.09,-51.68 522.61,-39.68 535.93,-30.58"/>
<polygon fill="midnightblue" stroke="midnightblue" points="488.39,-58.86 482.11,-67.4 492.34,-64.64 488.39,-58.86"/>
</g>
<!-- Node13&#45;&gt;Node11 -->
<g id="edge14" class="edge">
<title>Node13&#45;&gt;Node11</title>
<path fill="none" stroke="midnightblue" d="M486.1,-125.58C480.64,-116.24 474.51,-105.75 469.73,-97.58"/>
<polygon fill="midnightblue" stroke="midnightblue" points="483.19,-127.53 491.25,-134.4 489.23,-124 483.19,-127.53"/>
</g>
<!-- Node14 -->
<g id="node14" class="node">
<title>Node14</title>
<g id="a_node14"><a xlink:href="QtWidgetSFML_8cpp.html" target="_top" xlink:title=" ">
<polygon fill="white" stroke="black" points="559.5,-67.5 559.5,-97.5 719.5,-97.5 719.5,-67.5 559.5,-67.5"/>
<text text-anchor="start" x="567.5" y="-85.5" font-family="Helvetica,sans-Serif" font-size="10.00">sources/Renderer/QtRenderer</text>
<text text-anchor="middle" x="639.5" y="-74.5" font-family="Helvetica,sans-Serif" font-size="10.00">/QtWidgetSFML.cpp</text>
</a>
</g>
</g>
<!-- Node13&#45;&gt;Node14 -->
<g id="edge15" class="edge">
<title>Node13&#45;&gt;Node14</title>
<path fill="none" stroke="midnightblue" d="M539.07,-130.13C561.31,-119.8 588.65,-107.11 609.18,-97.58"/>
<polygon fill="midnightblue" stroke="midnightblue" points="537.47,-127.01 529.88,-134.4 540.42,-133.36 537.47,-127.01"/>
</g>
<!-- Node22&#45;&gt;Node22 -->
<g id="edge27" class="edge">
<title>Node22&#45;&gt;Node22</title>
<path fill="none" stroke="midnightblue" d="M2318.49,-227.49C2334.19,-228.8 2348,-225.14 2348,-216.5 2348,-206.07 2327.86,-202.89 2308.58,-206.97"/>
<polygon fill="midnightblue" stroke="midnightblue" points="2318.98,-224.03 2308.58,-226.03 2317.96,-230.95 2318.98,-224.03"/>
</g>
<!-- Node22&#45;&gt;Node23 -->
<g id="edge26" class="edge">
<title>Node22&#45;&gt;Node23</title>
<path fill="none" stroke="midnightblue" d="M2230.46,-212.93C2165.83,-209.93 2055.38,-204.9 1960.5,-201 1535.23,-183.51 1426.17,-215.18 1003.5,-165 991.85,-163.62 979.28,-161.36 967.94,-159.03"/>
<polygon fill="midnightblue" stroke="midnightblue" points="2230.67,-216.44 2240.82,-213.41 2230.99,-209.45 2230.67,-216.44"/>
</g>
<!-- Node22&#45;&gt;Node24 -->
<g id="edge28" class="edge">
<title>Node22&#45;&gt;Node24</title>
<path fill="none" stroke="midnightblue" d="M2230.76,-212.65C2173.01,-209.66 2079.36,-204.88 1998.5,-201 1645.65,-184.09 1556.17,-198.39 1204.5,-165 1188.78,-163.51 1171.76,-161.27 1156.28,-159"/>
<polygon fill="midnightblue" stroke="midnightblue" points="2230.6,-216.15 2240.76,-213.17 2230.96,-209.16 2230.6,-216.15"/>
</g>
<!-- Node22&#45;&gt;Node25 -->
<g id="edge29" class="edge">
<title>Node22&#45;&gt;Node25</title>
<path fill="none" stroke="midnightblue" d="M2230.94,-212.26C2180.49,-209.27 2103.44,-204.76 2036.5,-201 1740.09,-184.37 1664.43,-198.91 1369.5,-165 1356.57,-163.51 1342.6,-161.28 1329.92,-159.01"/>
<polygon fill="midnightblue" stroke="midnightblue" points="2230.78,-215.75 2240.97,-212.85 2231.2,-208.77 2230.78,-215.75"/>
</g>
<!-- Node22&#45;&gt;Node26 -->
<g id="edge30" class="edge">
<title>Node22&#45;&gt;Node26</title>
<path fill="none" stroke="midnightblue" d="M2230.48,-211.71C2187.9,-208.77 2127.46,-204.62 2074.5,-201 1838.51,-184.89 1778.44,-192.48 1543.5,-165 1530.12,-163.43 1515.65,-161.23 1502.44,-159.02"/>
<polygon fill="midnightblue" stroke="midnightblue" points="2230.42,-215.21 2240.64,-212.4 2230.9,-208.23 2230.42,-215.21"/>
</g>
<!-- Node22&#45;&gt;Node27 -->
<g id="edge31" class="edge">
<title>Node22&#45;&gt;Node27</title>
<path fill="none" stroke="midnightblue" d="M2230.6,-210.88C2097.67,-199.67 1765.74,-171.45 1715.5,-165 1702.73,-163.36 1688.97,-161.21 1676.27,-159.07"/>
<polygon fill="midnightblue" stroke="midnightblue" points="2230.31,-214.37 2240.57,-211.72 2230.9,-207.4 2230.31,-214.37"/>
</g>
<!-- Node22&#45;&gt;Node28 -->
<g id="edge32" class="edge">
<title>Node22&#45;&gt;Node28</title>
<path fill="none" stroke="midnightblue" d="M2230.68,-209.53C2152.72,-200.83 2005.41,-183.69 1880.5,-165 1877.32,-164.52 1874.07,-164.02 1870.79,-163.5"/>
<polygon fill="midnightblue" stroke="midnightblue" points="2230.43,-213.02 2240.75,-210.64 2231.2,-206.06 2230.43,-213.02"/>
</g>
<!-- Node22&#45;&gt;Node29 -->
<g id="edge33" class="edge">
<title>Node22&#45;&gt;Node29</title>
<path fill="none" stroke="midnightblue" d="M2233.21,-204.88C2170.19,-192.08 2065.53,-170.82 2007.5,-159.03"/>
<polygon fill="midnightblue" stroke="midnightblue" points="2232.84,-208.37 2243.34,-206.94 2234.23,-201.51 2232.84,-208.37"/>
</g>
<!-- Node22&#45;&gt;Node30 -->
<g id="edge34" class="edge">
<title>Node22&#45;&gt;Node30</title>
<path fill="none" stroke="midnightblue" d="M2255.48,-202.91C2229.24,-191.91 2191.17,-175.94 2163.95,-164.53"/>
<polygon fill="midnightblue" stroke="midnightblue" points="2254.34,-206.23 2264.92,-206.87 2257.05,-199.77 2254.34,-206.23"/>
</g>
<!-- Node22&#45;&gt;Node31 -->
<g id="edge35" class="edge">
<title>Node22&#45;&gt;Node31</title>
<path fill="none" stroke="midnightblue" d="M2340.25,-212.78C2443.42,-207.2 2673.5,-192.6 2865.5,-165 2876.48,-163.42 2888.31,-161.24 2899.15,-159.05"/>
<polygon fill="midnightblue" stroke="midnightblue" points="2339.88,-209.29 2330.08,-213.32 2340.25,-216.28 2339.88,-209.29"/>
</g>
<!-- Node32 -->
<g id="node32" class="node">
<title>Node32</title>
<g id="a_node32"><a xlink:href="testDMA_8cpp.html" target="_top" xlink:title=" ">
<polygon fill="white" stroke="black" points="2219,-140 2219,-159 2348,-159 2348,-140 2219,-140"/>
<text text-anchor="middle" x="2283.5" y="-147" font-family="Helvetica,sans-Serif" font-size="10.00">tests/CPU/testDMA.cpp</text>
</a>
</g>
</g>
<!-- Node22&#45;&gt;Node32 -->
<g id="edge36" class="edge">
<title>Node22&#45;&gt;Node32</title>
<path fill="none" stroke="midnightblue" d="M2284.92,-196.54C2284.54,-184.17 2284.06,-168.62 2283.77,-159.13"/>
<polygon fill="midnightblue" stroke="midnightblue" points="2281.42,-196.85 2285.23,-206.73 2288.42,-196.63 2281.42,-196.85"/>
</g>
<!-- Node33 -->
<g id="node33" class="node">
<title>Node33</title>
<g id="a_node33"><a xlink:href="testInternal_8cpp.html" target="_top" xlink:title=" ">
<polygon fill="white" stroke="black" points="2366,-140 2366,-159 2509,-159 2509,-140 2366,-140"/>
<text text-anchor="middle" x="2437.5" y="-147" font-family="Helvetica,sans-Serif" font-size="10.00">tests/CPU/testInternal.cpp</text>
</a>
</g>
</g>
<!-- Node22&#45;&gt;Node33 -->
<g id="edge37" class="edge">
<title>Node22&#45;&gt;Node33</title>
<path fill="none" stroke="midnightblue" d="M2315.24,-202.78C2345.34,-189.91 2391.07,-170.35 2417.23,-159.17"/>
<polygon fill="midnightblue" stroke="midnightblue" points="2313.5,-199.72 2305.68,-206.87 2316.26,-206.15 2313.5,-199.72"/>
</g>
<!-- Node22&#45;&gt;Node34 -->
<g id="edge38" class="edge">
<title>Node22&#45;&gt;Node34</title>
<path fill="none" stroke="midnightblue" d="M2340.27,-213.61C2461.32,-209.02 2760.66,-195.33 3009.5,-165 3022.28,-163.44 3036.08,-161.24 3048.69,-159.03"/>
<polygon fill="midnightblue" stroke="midnightblue" points="2340,-210.12 2330.14,-213.99 2340.26,-217.12 2340,-210.12"/>
</g>
<!-- Node22&#45;&gt;Node35 -->
<g id="edge39" class="edge">
<title>Node22&#45;&gt;Node35</title>
<path fill="none" stroke="midnightblue" d="M2340.23,-215C2480.06,-213.16 2861.56,-204.59 3176.5,-165 3188.19,-163.53 3200.81,-161.3 3212.25,-159.03"/>
<polygon fill="midnightblue" stroke="midnightblue" points="2340.15,-211.5 2330.2,-215.13 2340.24,-218.5 2340.15,-211.5"/>
</g>
<!-- Node22&#45;&gt;Node36 -->
<g id="edge40" class="edge">
<title>Node22&#45;&gt;Node36</title>
<path fill="none" stroke="midnightblue" d="M2340.2,-215.2C2495.18,-213.84 2950.28,-206.34 3325.5,-165 3338.74,-163.54 3353.05,-161.32 3366.05,-159.04"/>
<polygon fill="midnightblue" stroke="midnightblue" points="2339.97,-211.7 2330,-215.28 2340.03,-218.7 2339.97,-211.7"/>
</g>
<!-- Node22&#45;&gt;Node37 -->
<g id="edge41" class="edge">
<title>Node22&#45;&gt;Node37</title>
<path fill="none" stroke="midnightblue" d="M2340.08,-215.76C2510.89,-216.04 3050.21,-212.78 3493.5,-165 3506.73,-163.57 3521.05,-161.33 3534,-159.03"/>
<polygon fill="midnightblue" stroke="midnightblue" points="2340.09,-212.26 2330.08,-215.74 2340.07,-219.26 2340.09,-212.26"/>
</g>
<!-- Node22&#45;&gt;Node38 -->
<g id="edge42" class="edge">
<title>Node22&#45;&gt;Node38</title>
<path fill="none" stroke="midnightblue" d="M2340.22,-216.04C2525.95,-217.35 3149.15,-217.27 3660.5,-165 3663.36,-164.71 3666.27,-164.38 3669.21,-164.02"/>
<polygon fill="midnightblue" stroke="midnightblue" points="2340.19,-212.54 2330.16,-215.97 2340.13,-219.54 2340.19,-212.54"/>
</g>
<!-- Node39 -->
<g id="node39" class="node">
<title>Node39</title>
<g id="a_node39"><a xlink:href="testMemoryBus_8cpp.html" target="_top" xlink:title=" ">
<polygon fill="white" stroke="black" points="2527,-140 2527,-159 2668,-159 2668,-140 2527,-140"/>
<text text-anchor="middle" x="2597.5" y="-147" font-family="Helvetica,sans-Serif" font-size="10.00">tests/testMemoryBus.cpp</text>
</a>
</g>
</g>
<!-- Node22&#45;&gt;Node39 -->
<g id="edge43" class="edge">
<title>Node22&#45;&gt;Node39</title>
<path fill="none" stroke="midnightblue" d="M2336.47,-204.88C2397.82,-192.1 2499.67,-170.88 2556.3,-159.08"/>
<polygon fill="midnightblue" stroke="midnightblue" points="2335.69,-201.47 2326.61,-206.94 2337.11,-208.32 2335.69,-201.47"/>
</g>
<!-- Node40 -->
<g id="node40" class="node">
<title>Node40</title>
<g id="a_node40"><a xlink:href="testRectangleMemory_8cpp.html" target="_top" xlink:title=" ">
<polygon fill="white" stroke="black" points="2686.5,-140 2686.5,-159 2856.5,-159 2856.5,-140 2686.5,-140"/>
<text text-anchor="middle" x="2771.5" y="-147" font-family="Helvetica,sans-Serif" font-size="10.00">tests/testRectangleMemory.cpp</text>
</a>
</g>
</g>
<!-- Node22&#45;&gt;Node40 -->
<g id="edge44" class="edge">
<title>Node22&#45;&gt;Node40</title>
<path fill="none" stroke="midnightblue" d="M2340.49,-208.85C2416.38,-199.58 2557.46,-181.99 2677.5,-165 2690.58,-163.15 2704.66,-161.04 2717.85,-159.01"/>
<polygon fill="midnightblue" stroke="midnightblue" points="2339.73,-205.42 2330.23,-210.11 2340.58,-212.37 2339.73,-205.42"/>
</g>
<!-- Node41&#45;&gt;Node5 -->
<g id="edge60" class="edge">
<title>Node41&#45;&gt;Node5</title>
<path fill="none" stroke="midnightblue" d="M3447.24,-258.32C3446.52,-247.5 3445.64,-234.4 3445.07,-226.01"/>
<polygon fill="midnightblue" stroke="midnightblue" points="3443.76,-258.73 3447.93,-268.48 3450.75,-258.26 3443.76,-258.73"/>
</g>
</g>
</svg>
