<?xml version="1.0" encoding="UTF-8" standalone="no"?>
<!DOCTYPE svg PUBLIC "-//W3C//DTD SVG 1.1//EN"
 "http://www.w3.org/Graphics/SVG/1.1/DTD/svg11.dtd">
<!-- Generated by graphviz version 2.43.0 (0)
 -->
<!-- Title: sources/Renderer/QtRenderer/QtSFML.hpp Pages: 1 -->
<svg width="288pt" height="106pt"
 viewBox="0.00 0.00 288.00 106.00" xmlns="http://www.w3.org/2000/svg" xmlns:xlink="http://www.w3.org/1999/xlink">
<g id="graph0" class="graph" transform="scale(1 1) rotate(0) translate(4 102)">
<title>sources/Renderer/QtRenderer/QtSFML.hpp</title>
<polygon fill="white" stroke="transparent" points="-4,4 -4,-102 284,-102 284,4 -4,4"/>
<!-- Node1 -->
<g id="node1" class="node">
<title>Node1</title>
<g id="a_node1"><a xlink:title=" ">
<polygon fill="#bfbfbf" stroke="black" points="45,-67.5 45,-97.5 205,-97.5 205,-67.5 45,-67.5"/>
<text text-anchor="start" x="53" y="-85.5" font-family="Helvetica,sans-Serif" font-size="10.00">sources/Renderer/QtRenderer</text>
<text text-anchor="middle" x="125" y="-74.5" font-family="Helvetica,sans-Serif" font-size="10.00">/QtSFML.hpp</text>
</a>
</g>
</g>
<!-- Node2 -->
<g id="node2" class="node">
<title>Node2</title>
<g id="a_node2"><a xlink:href="main_8cpp.html" target="_top" xlink:title=" ">
<polygon fill="white" stroke="black" points="0,-6 0,-25 102,-25 102,-6 0,-6"/>
<text text-anchor="middle" x="51" y="-13" font-family="Helvetica,sans-Serif" font-size="10.00">sources/main.cpp</text>
</a>
</g>
</g>
<!-- Node1&#45;&gt;Node2 -->
<g id="edge1" class="edge">
<title>Node1&#45;&gt;Node2</title>
<path fill="none" stroke="midnightblue" d="M101.29,-60.67C87.63,-48.67 71.17,-34.22 60.9,-25.19"/>
<polygon fill="midnightblue" stroke="midnightblue" points="99.12,-63.43 108.94,-67.4 103.74,-58.17 99.12,-63.43"/>
</g>
<!-- Node3 -->
<g id="node3" class="node">
<title>Node3</title>
<g id="a_node3"><a xlink:href="QtSFML_8cpp.html" target="_top" xlink:title=" ">
<polygon fill="white" stroke="black" points="120,-0.5 120,-30.5 280,-30.5 280,-0.5 120,-0.5"/>
<text text-anchor="start" x="128" y="-18.5" font-family="Helvetica,sans-Serif" font-size="10.00">sources/Renderer/QtRenderer</text>
<text text-anchor="middle" x="200" y="-7.5" font-family="Helvetica,sans-Serif" font-size="10.00">/QtSFML.cpp</text>
</a>
</g>
</g>
<!-- Node1&#45;&gt;Node3 -->
<g id="edge2" class="edge">
<title>Node1&#45;&gt;Node3</title>
<path fill="none" stroke="midnightblue" d="M149.12,-60.6C160.44,-50.78 173.64,-39.34 183.76,-30.58"/>
<polygon fill="midnightblue" stroke="midnightblue" points="146.54,-58.2 141.27,-67.4 151.12,-63.49 146.54,-58.2"/>
</g>
</g>
</svg>
