<?xml version="1.0" encoding="UTF-8" standalone="no"?>
<!DOCTYPE svg PUBLIC "-//W3C//DTD SVG 1.1//EN"
 "http://www.w3.org/Graphics/SVG/1.1/DTD/svg11.dtd">
<!-- Generated by graphviz version 2.43.0 (0)
 -->
<!-- Title: sources/Renderer/QtRenderer/QtSFML.hpp Pages: 1 -->
<svg width="1420pt" height="543pt"
 viewBox="0.00 0.00 1419.50 543.00" xmlns="http://www.w3.org/2000/svg" xmlns:xlink="http://www.w3.org/1999/xlink">
<g id="graph0" class="graph" transform="scale(1 1) rotate(0) translate(4 539)">
<title>sources/Renderer/QtRenderer/QtSFML.hpp</title>
<polygon fill="white" stroke="transparent" points="-4,4 -4,-539 1415.5,-539 1415.5,4 -4,4"/>
<!-- Node1 -->
<g id="node1" class="node">
<title>Node1</title>
<g id="a_node1"><a xlink:title=" ">
<polygon fill="#bfbfbf" stroke="black" points="717,-504.5 717,-534.5 877,-534.5 877,-504.5 717,-504.5"/>
<text text-anchor="start" x="725" y="-522.5" font-family="Helvetica,sans-Serif" font-size="10.00">sources/Renderer/QtRenderer</text>
<text text-anchor="middle" x="797" y="-511.5" font-family="Helvetica,sans-Serif" font-size="10.00">/QtSFML.hpp</text>
</a>
</g>
</g>
<!-- Node2 -->
<g id="node2" class="node">
<title>Node2</title>
<g id="a_node2"><a xlink:title=" ">
<polygon fill="white" stroke="#bfbfbf" points="341.5,-392.5 341.5,-411.5 454.5,-411.5 454.5,-392.5 341.5,-392.5"/>
<text text-anchor="middle" x="398" y="-399.5" font-family="Helvetica,sans-Serif" font-size="10.00">QtWidgets/QWidget</text>
</a>
</g>
</g>
<!-- Node1&#45;&gt;Node2 -->
<g id="edge1" class="edge">
<title>Node1&#45;&gt;Node2</title>
<path fill="none" stroke="midnightblue" d="M716.86,-513.39C655.99,-507.48 571.1,-494.86 501,-468 468.98,-455.73 436.2,-432.92 416.47,-417.85"/>
<polygon fill="midnightblue" stroke="midnightblue" points="418.41,-414.93 408.37,-411.54 414.1,-420.45 418.41,-414.93"/>
</g>
<!-- Node3 -->
<g id="node3" class="node">
<title>Node3</title>
<g id="a_node3"><a xlink:title=" ">
<polygon fill="white" stroke="#bfbfbf" points="544.5,-336.5 544.5,-355.5 729.5,-355.5 729.5,-336.5 544.5,-336.5"/>
<text text-anchor="middle" x="637" y="-343.5" font-family="Helvetica,sans-Serif" font-size="10.00">SFML/Graphics/RenderWindow.hpp</text>
</a>
</g>
</g>
<!-- Node1&#45;&gt;Node3 -->
<g id="edge2" class="edge">
<title>Node1&#45;&gt;Node3</title>
<path fill="none" stroke="midnightblue" d="M877.3,-510.5C904.21,-503.55 931.53,-490.88 948,-468 961.06,-449.86 950.88,-407.35 934,-392 919.32,-378.64 817.06,-365.26 736.59,-356.6"/>
<polygon fill="midnightblue" stroke="midnightblue" points="736.7,-353.1 726.39,-355.52 735.96,-360.06 736.7,-353.1"/>
</g>
<!-- Node4 -->
<g id="node4" class="node">
<title>Node4</title>
<g id="a_node4"><a xlink:title=" ">
<polygon fill="white" stroke="#bfbfbf" points="472.5,-392.5 472.5,-411.5 561.5,-411.5 561.5,-392.5 472.5,-392.5"/>
<text text-anchor="middle" x="517" y="-399.5" font-family="Helvetica,sans-Serif" font-size="10.00">QtCore/QTimer</text>
</a>
</g>
</g>
<!-- Node1&#45;&gt;Node4 -->
<g id="edge3" class="edge">
<title>Node1&#45;&gt;Node4</title>
<path fill="none" stroke="midnightblue" d="M716.66,-515.45C641.72,-510.72 537.71,-498.66 512,-468 501.34,-455.28 504.53,-435.81 509.2,-421.49"/>
<polygon fill="midnightblue" stroke="midnightblue" points="512.62,-422.34 512.86,-411.75 506.07,-419.88 512.62,-422.34"/>
</g>
<!-- Node5 -->
<g id="node5" class="node">
<title>Node5</title>
<g id="a_node5"><a xlink:title=" ">
<polygon fill="white" stroke="#bfbfbf" points="649.5,-448.5 649.5,-467.5 790.5,-467.5 790.5,-448.5 649.5,-448.5"/>
<text text-anchor="middle" x="720" y="-455.5" font-family="Helvetica,sans-Serif" font-size="10.00">QtWidgets/QMainWindow</text>
</a>
</g>
</g>
<!-- Node1&#45;&gt;Node5 -->
<g id="edge4" class="edge">
<title>Node1&#45;&gt;Node5</title>
<path fill="none" stroke="midnightblue" d="M778.75,-504.4C766.87,-495.22 751.39,-483.26 739.31,-473.92"/>
<polygon fill="midnightblue" stroke="midnightblue" points="741.26,-471 731.2,-467.66 736.98,-476.54 741.26,-471"/>
</g>
<!-- Node6 -->
<g id="node6" class="node">
<title>Node6</title>
<g id="a_node6"><a xlink:title=" ">
<polygon fill="white" stroke="#bfbfbf" points="808.5,-448.5 808.5,-467.5 939.5,-467.5 939.5,-448.5 808.5,-448.5"/>
<text text-anchor="middle" x="874" y="-455.5" font-family="Helvetica,sans-Serif" font-size="10.00">QtWidgets/QGridLayout</text>
</a>
</g>
</g>
<!-- Node1&#45;&gt;Node6 -->
<g id="edge5" class="edge">
<title>Node1&#45;&gt;Node6</title>
<path fill="none" stroke="midnightblue" d="M815.25,-504.4C827.13,-495.22 842.61,-483.26 854.69,-473.92"/>
<polygon fill="midnightblue" stroke="midnightblue" points="857.02,-476.54 862.8,-467.66 852.74,-471 857.02,-476.54"/>
</g>
<!-- Node7 -->
<g id="node7" class="node">
<title>Node7</title>
<g id="a_node7"><a xlink:href="IRenderer_8hpp.html" target="_top" xlink:title=" ">
<polygon fill="white" stroke="black" points="1318.5,-168.5 1318.5,-187.5 1411.5,-187.5 1411.5,-168.5 1318.5,-168.5"/>
<text text-anchor="middle" x="1365" y="-175.5" font-family="Helvetica,sans-Serif" font-size="10.00">../IRenderer.hpp</text>
</a>
</g>
</g>
<!-- Node1&#45;&gt;Node7 -->
<g id="edge6" class="edge">
<title>Node1&#45;&gt;Node7</title>
<path fill="none" stroke="midnightblue" d="M877.23,-518.94C1035.77,-517.63 1374,-503.12 1374,-403 1374,-403 1374,-403 1374,-289 1374,-256.84 1370.13,-219.57 1367.47,-197.71"/>
<polygon fill="midnightblue" stroke="midnightblue" points="1370.91,-197.02 1366.18,-187.54 1363.96,-197.9 1370.91,-197.02"/>
</g>
<!-- Node10 -->
<g id="node10" class="node">
<title>Node10</title>
<g id="a_node10"><a xlink:href="SFRenderer_8hpp.html" target="_top" xlink:title=" ">
<polygon fill="white" stroke="black" points="989,-392.5 989,-411.5 1091,-411.5 1091,-392.5 989,-392.5"/>
<text text-anchor="middle" x="1040" y="-399.5" font-family="Helvetica,sans-Serif" font-size="10.00">../SFRenderer.hpp</text>
</a>
</g>
</g>
<!-- Node1&#45;&gt;Node10 -->
<g id="edge9" class="edge">
<title>Node1&#45;&gt;Node10</title>
<path fill="none" stroke="midnightblue" d="M877.12,-507.07C911.27,-499.64 950.44,-487.54 982,-468 1001.62,-455.85 1018.46,-435.1 1028.86,-420.31"/>
<polygon fill="midnightblue" stroke="midnightblue" points="1032.04,-421.85 1034.73,-411.6 1026.23,-417.94 1032.04,-421.85"/>
</g>
<!-- Node41 -->
<g id="node41" class="node">
<title>Node41</title>
<g id="a_node41"><a xlink:href="QtWidgetSFML_8hpp.html" target="_top" xlink:title=" ">
<polygon fill="white" stroke="black" points="521,-448.5 521,-467.5 631,-467.5 631,-448.5 521,-448.5"/>
<text text-anchor="middle" x="576" y="-455.5" font-family="Helvetica,sans-Serif" font-size="10.00">QtWidgetSFML.hpp</text>
</a>
</g>
</g>
<!-- Node1&#45;&gt;Node41 -->
<g id="edge82" class="edge">
<title>Node1&#45;&gt;Node41</title>
<path fill="none" stroke="midnightblue" d="M744.91,-504.47C705.95,-493.99 653.39,-479.84 617.31,-470.12"/>
<polygon fill="midnightblue" stroke="midnightblue" points="618.16,-466.73 607.6,-467.51 616.34,-473.49 618.16,-466.73"/>
</g>
<!-- Node8 -->
<g id="node8" class="node">
<title>Node8</title>
<g id="a_node8"><a xlink:title=" ">
<polygon fill="white" stroke="#bfbfbf" points="431,-0.5 431,-19.5 475,-19.5 475,-0.5 431,-0.5"/>
<text text-anchor="middle" x="453" y="-7.5" font-family="Helvetica,sans-Serif" font-size="10.00">string</text>
</a>
</g>
</g>
<!-- Node7&#45;&gt;Node8 -->
<g id="edge7" class="edge">
<title>Node7&#45;&gt;Node8</title>
<path fill="none" stroke="midnightblue" d="M1351.29,-168.27C1327.36,-153.57 1275.95,-124.26 1228,-112 959.3,-43.29 874.99,-139.48 605,-76 557.81,-64.91 506.72,-40.16 477.42,-24.6"/>
<polygon fill="midnightblue" stroke="midnightblue" points="478.82,-21.38 468.36,-19.71 475.5,-27.54 478.82,-21.38"/>
</g>
<!-- Node9 -->
<g id="node9" class="node">
<title>Node9</title>
<g id="a_node9"><a xlink:title=" ">
<polygon fill="white" stroke="#bfbfbf" points="1351,-112.5 1351,-131.5 1391,-131.5 1391,-112.5 1351,-112.5"/>
<text text-anchor="middle" x="1371" y="-119.5" font-family="Helvetica,sans-Serif" font-size="10.00">span</text>
</a>
</g>
</g>
<!-- Node7&#45;&gt;Node9 -->
<g id="edge8" class="edge">
<title>Node7&#45;&gt;Node9</title>
<path fill="none" stroke="midnightblue" d="M1365.99,-168.08C1366.79,-160.93 1367.93,-150.64 1368.92,-141.69"/>
<polygon fill="midnightblue" stroke="midnightblue" points="1372.4,-142.08 1370.03,-131.75 1365.44,-141.3 1372.4,-142.08"/>
</g>
<!-- Node10&#45;&gt;Node3 -->
<g id="edge81" class="edge">
<title>Node10&#45;&gt;Node3</title>
<path fill="none" stroke="midnightblue" d="M988.91,-393.9C984.21,-393.25 979.52,-392.61 975,-392 884.61,-379.73 780.58,-365.92 712.07,-356.88"/>
<polygon fill="midnightblue" stroke="midnightblue" points="712.18,-353.36 701.81,-355.53 711.27,-360.3 712.18,-353.36"/>
</g>
<!-- Node10&#45;&gt;Node7 -->
<g id="edge10" class="edge">
<title>Node10&#45;&gt;Node7</title>
<path fill="none" stroke="midnightblue" d="M1091.02,-399.17C1161.75,-395.59 1284.56,-385.23 1317,-356 1340.67,-334.67 1356.67,-238.47 1362.53,-197.53"/>
<polygon fill="midnightblue" stroke="midnightblue" points="1366,-197.95 1363.9,-187.56 1359.07,-196.99 1366,-197.95"/>
</g>
<!-- Node11 -->
<g id="node11" class="node">
<title>Node11</title>
<g id="a_node11"><a xlink:href="SNES_8hpp.html" target="_top" xlink:title=" ">
<polygon fill="white" stroke="black" points="748,-336.5 748,-355.5 820,-355.5 820,-336.5 748,-336.5"/>
<text text-anchor="middle" x="784" y="-343.5" font-family="Helvetica,sans-Serif" font-size="10.00">../SNES.hpp</text>
</a>
</g>
</g>
<!-- Node10&#45;&gt;Node11 -->
<g id="edge11" class="edge">
<title>Node10&#45;&gt;Node11</title>
<path fill="none" stroke="midnightblue" d="M999.44,-392.44C953.37,-382.73 878.35,-366.9 830.1,-356.73"/>
<polygon fill="midnightblue" stroke="midnightblue" points="830.74,-353.28 820.24,-354.64 829.3,-360.13 830.74,-353.28"/>
</g>
<!-- Node37 -->
<g id="node37" class="node">
<title>Node37</title>
<g id="a_node37"><a xlink:title=" ">
<polygon fill="white" stroke="#bfbfbf" points="838,-336.5 838,-355.5 948,-355.5 948,-336.5 838,-336.5"/>
<text text-anchor="middle" x="893" y="-343.5" font-family="Helvetica,sans-Serif" font-size="10.00">SFML/Graphics.hpp</text>
</a>
</g>
</g>
<!-- Node10&#45;&gt;Node37 -->
<g id="edge77" class="edge">
<title>Node10&#45;&gt;Node37</title>
<path fill="none" stroke="midnightblue" d="M1016.71,-392.44C992.19,-383.44 953.4,-369.19 925.8,-359.05"/>
<polygon fill="midnightblue" stroke="midnightblue" points="926.78,-355.68 916.18,-355.52 924.36,-362.25 926.78,-355.68"/>
</g>
<!-- Node38 -->
<g id="node38" class="node">
<title>Node38</title>
<g id="a_node38"><a xlink:title=" ">
<polygon fill="white" stroke="#bfbfbf" points="966.5,-336.5 966.5,-355.5 1061.5,-355.5 1061.5,-336.5 966.5,-336.5"/>
<text text-anchor="middle" x="1014" y="-343.5" font-family="Helvetica,sans-Serif" font-size="10.00">SFML/Audio.hpp</text>
</a>
</g>
</g>
<!-- Node10&#45;&gt;Node38 -->
<g id="edge78" class="edge">
<title>Node10&#45;&gt;Node38</title>
<path fill="none" stroke="midnightblue" d="M1035.71,-392.08C1032.15,-384.69 1026.98,-373.95 1022.58,-364.81"/>
<polygon fill="midnightblue" stroke="midnightblue" points="1025.71,-363.24 1018.21,-355.75 1019.4,-366.28 1025.71,-363.24"/>
</g>
<!-- Node39 -->
<g id="node39" class="node">
<title>Node39</title>
<g id="a_node39"><a xlink:title=" ">
<polygon fill="white" stroke="#bfbfbf" points="1080,-336.5 1080,-355.5 1184,-355.5 1184,-336.5 1080,-336.5"/>
<text text-anchor="middle" x="1132" y="-343.5" font-family="Helvetica,sans-Serif" font-size="10.00">SFML/System.hpp</text>
</a>
</g>
</g>
<!-- Node10&#45;&gt;Node39 -->
<g id="edge79" class="edge">
<title>Node10&#45;&gt;Node39</title>
<path fill="none" stroke="midnightblue" d="M1054.78,-392.32C1069.27,-383.82 1091.57,-370.73 1108.49,-360.8"/>
<polygon fill="midnightblue" stroke="midnightblue" points="1110.4,-363.74 1117.26,-355.65 1106.86,-357.7 1110.4,-363.74"/>
</g>
<!-- Node40 -->
<g id="node40" class="node">
<title>Node40</title>
<g id="a_node40"><a xlink:title=" ">
<polygon fill="white" stroke="#bfbfbf" points="1202.5,-336.5 1202.5,-355.5 1307.5,-355.5 1307.5,-336.5 1202.5,-336.5"/>
<text text-anchor="middle" x="1255" y="-343.5" font-family="Helvetica,sans-Serif" font-size="10.00">SFML/Window.hpp</text>
</a>
</g>
</g>
<!-- Node10&#45;&gt;Node40 -->
<g id="edge80" class="edge">
<title>Node10&#45;&gt;Node40</title>
<path fill="none" stroke="midnightblue" d="M1074.07,-392.44C1111.18,-383.12 1170.66,-368.18 1211.21,-358"/>
<polygon fill="midnightblue" stroke="midnightblue" points="1212.25,-361.35 1221.09,-355.52 1210.54,-354.56 1212.25,-361.35"/>
</g>
<!-- Node11&#45;&gt;Node7 -->
<g id="edge74" class="edge">
<title>Node11&#45;&gt;Node7</title>
<path fill="none" stroke="midnightblue" d="M798.1,-336.42C835.79,-313.9 942.68,-252.88 1040,-224 1153.52,-190.3 1186.76,-204.64 1304,-188 1305.46,-187.79 1306.93,-187.58 1308.42,-187.37"/>
<polygon fill="midnightblue" stroke="midnightblue" points="1308.98,-190.82 1318.38,-185.93 1307.98,-183.9 1308.98,-190.82"/>
</g>
<!-- Node12 -->
<g id="node12" class="node">
<title>Node12</title>
<g id="a_node12"><a xlink:href="MemoryBus_8hpp.html" target="_top" xlink:title=" ">
<polygon fill="white" stroke="black" points="542,-168.5 542,-187.5 682,-187.5 682,-168.5 542,-168.5"/>
<text text-anchor="middle" x="612" y="-175.5" font-family="Helvetica,sans-Serif" font-size="10.00">Memory/MemoryBus.hpp</text>
</a>
</g>
</g>
<!-- Node11&#45;&gt;Node12 -->
<g id="edge12" class="edge">
<title>Node11&#45;&gt;Node12</title>
<path fill="none" stroke="midnightblue" d="M762.21,-336.48C728.91,-322.34 665.59,-290.86 631,-244 621.07,-230.55 616.31,-211.99 614.04,-198.14"/>
<polygon fill="midnightblue" stroke="midnightblue" points="617.46,-197.28 612.66,-187.84 610.52,-198.21 617.46,-197.28"/>
</g>
<!-- Node20 -->
<g id="node20" class="node">
<title>Node20</title>
<g id="a_node20"><a xlink:href="CPU_8hpp.html" target="_top" xlink:title=" ">
<polygon fill="white" stroke="black" points="473.5,-280.5 473.5,-299.5 554.5,-299.5 554.5,-280.5 473.5,-280.5"/>
<text text-anchor="middle" x="514" y="-287.5" font-family="Helvetica,sans-Serif" font-size="10.00">CPU/CPU.hpp</text>
</a>
</g>
</g>
<!-- Node11&#45;&gt;Node20 -->
<g id="edge30" class="edge">
<title>Node11&#45;&gt;Node20</title>
<path fill="none" stroke="midnightblue" d="M747.87,-337.77C700.75,-328.35 618.08,-311.82 564.71,-301.14"/>
<polygon fill="midnightblue" stroke="midnightblue" points="565.26,-297.68 554.77,-299.15 563.89,-304.55 565.26,-297.68"/>
</g>
<!-- Node21 -->
<g id="node21" class="node">
<title>Node21</title>
<g id="a_node21"><a xlink:href="Cartridge_8hpp.html" target="_top" xlink:title=" ">
<polygon fill="white" stroke="black" points="235,-224.5 235,-243.5 375,-243.5 375,-224.5 235,-224.5"/>
<text text-anchor="middle" x="305" y="-231.5" font-family="Helvetica,sans-Serif" font-size="10.00">../Cartridge/Cartridge.hpp</text>
</a>
</g>
</g>
<!-- Node11&#45;&gt;Node21 -->
<g id="edge52" class="edge">
<title>Node11&#45;&gt;Node21</title>
<path fill="none" stroke="midnightblue" d="M747.89,-337.66C744.55,-337.06 741.22,-336.5 738,-336 600.51,-314.63 559.83,-341.44 427,-300 389.18,-288.2 349.4,-264.59 325.92,-249.31"/>
<polygon fill="midnightblue" stroke="midnightblue" points="327.74,-246.32 317.47,-243.71 323.88,-252.15 327.74,-246.32"/>
</g>
<!-- Node24 -->
<g id="node24" class="node">
<title>Node24</title>
<g id="a_node24"><a xlink:href="Ram_8hpp.html" target="_top" xlink:title=" ">
<polygon fill="white" stroke="black" points="390.5,-168.5 390.5,-187.5 485.5,-187.5 485.5,-168.5 390.5,-168.5"/>
<text text-anchor="middle" x="438" y="-175.5" font-family="Helvetica,sans-Serif" font-size="10.00">../Ram/Ram.hpp</text>
</a>
</g>
</g>
<!-- Node11&#45;&gt;Node24 -->
<g id="edge53" class="edge">
<title>Node11&#45;&gt;Node24</title>
<path fill="none" stroke="midnightblue" d="M747.88,-337.71C744.54,-337.11 741.21,-336.52 738,-336 677.39,-326.1 509.15,-341.63 464,-300 435.53,-273.75 434.26,-224.48 436,-197.62"/>
<polygon fill="midnightblue" stroke="midnightblue" points="439.49,-197.87 436.86,-187.61 432.52,-197.27 439.49,-197.87"/>
</g>
<!-- Node27 -->
<g id="node27" class="node">
<title>Node27</title>
<g id="a_node27"><a xlink:href="PPU_8hpp.html" target="_top" xlink:title=" ">
<polygon fill="white" stroke="black" points="872,-224.5 872,-243.5 952,-243.5 952,-224.5 872,-224.5"/>
<text text-anchor="middle" x="912" y="-231.5" font-family="Helvetica,sans-Serif" font-size="10.00">PPU/PPU.hpp</text>
</a>
</g>
</g>
<!-- Node11&#45;&gt;Node27 -->
<g id="edge54" class="edge">
<title>Node11&#45;&gt;Node27</title>
<path fill="none" stroke="midnightblue" d="M794.04,-336.37C815.73,-317.73 867.16,-273.53 894.39,-250.13"/>
<polygon fill="midnightblue" stroke="midnightblue" points="896.7,-252.76 902,-243.59 892.14,-247.45 896.7,-252.76"/>
</g>
<!-- Node31 -->
<g id="node31" class="node">
<title>Node31</title>
<g id="a_node31"><a xlink:href="APU_8hpp.html" target="_top" xlink:title=" ">
<polygon fill="white" stroke="black" points="772.5,-224.5 772.5,-243.5 853.5,-243.5 853.5,-224.5 772.5,-224.5"/>
<text text-anchor="middle" x="813" y="-231.5" font-family="Helvetica,sans-Serif" font-size="10.00">APU/APU.hpp</text>
</a>
</g>
</g>
<!-- Node11&#45;&gt;Node31 -->
<g id="edge63" class="edge">
<title>Node11&#45;&gt;Node31</title>
<path fill="none" stroke="midnightblue" d="M786.28,-336.37C790.98,-318.54 801.85,-277.3 808.18,-253.27"/>
<polygon fill="midnightblue" stroke="midnightblue" points="811.57,-254.15 810.73,-243.59 804.8,-252.37 811.57,-254.15"/>
</g>
<!-- Node35 -->
<g id="node35" class="node">
<title>Node35</title>
<g id="a_node35"><a xlink:href="DebuggableError_8hpp.html" target="_top" xlink:title=" ">
<polygon fill="white" stroke="black" points="1008.5,-280.5 1008.5,-299.5 1183.5,-299.5 1183.5,-280.5 1008.5,-280.5"/>
<text text-anchor="middle" x="1096" y="-287.5" font-family="Helvetica,sans-Serif" font-size="10.00">Exceptions/DebuggableError.hpp</text>
</a>
</g>
</g>
<!-- Node11&#45;&gt;Node35 -->
<g id="edge75" class="edge">
<title>Node11&#45;&gt;Node35</title>
<path fill="none" stroke="midnightblue" d="M820.33,-337.64C823.26,-337.07 826.18,-336.52 829,-336 898.38,-323.22 978.18,-309.96 1032.33,-301.17"/>
<polygon fill="midnightblue" stroke="midnightblue" points="1033.16,-304.58 1042.47,-299.53 1032.04,-297.67 1033.16,-304.58"/>
</g>
<!-- Node13 -->
<g id="node13" class="node">
<title>Node13</title>
<g id="a_node13"><a xlink:title=" ">
<polygon fill="white" stroke="#bfbfbf" points="1024,-0.5 1024,-19.5 1074,-19.5 1074,-0.5 1024,-0.5"/>
<text text-anchor="middle" x="1049" y="-7.5" font-family="Helvetica,sans-Serif" font-size="10.00">cstdint</text>
</a>
</g>
</g>
<!-- Node12&#45;&gt;Node13 -->
<g id="edge13" class="edge">
<title>Node12&#45;&gt;Node13</title>
<path fill="none" stroke="midnightblue" d="M639.31,-168.42C666.7,-159.69 710,-145.56 747,-132 847.85,-95.03 965.51,-46.22 1019.36,-23.56"/>
<polygon fill="midnightblue" stroke="midnightblue" points="1020.8,-26.75 1028.66,-19.64 1018.08,-20.3 1020.8,-26.75"/>
</g>
<!-- Node14 -->
<g id="node14" class="node">
<title>Node14</title>
<g id="a_node14"><a xlink:title=" ">
<polygon fill="white" stroke="#bfbfbf" points="550.5,-0.5 550.5,-19.5 597.5,-19.5 597.5,-0.5 550.5,-0.5"/>
<text text-anchor="middle" x="574" y="-7.5" font-family="Helvetica,sans-Serif" font-size="10.00">vector</text>
</a>
</g>
</g>
<!-- Node12&#45;&gt;Node14 -->
<g id="edge14" class="edge">
<title>Node12&#45;&gt;Node14</title>
<path fill="none" stroke="midnightblue" d="M609.88,-168.37C605.62,-150.94 595.76,-110.28 588,-76 584.49,-60.5 580.71,-42.87 577.96,-29.89"/>
<polygon fill="midnightblue" stroke="midnightblue" points="581.33,-28.91 575.84,-19.84 574.48,-30.35 581.33,-28.91"/>
</g>
<!-- Node15 -->
<g id="node15" class="node">
<title>Node15</title>
<g id="a_node15"><a xlink:title=" ">
<polygon fill="white" stroke="#bfbfbf" points="780,-0.5 780,-19.5 838,-19.5 838,-0.5 780,-0.5"/>
<text text-anchor="middle" x="809" y="-7.5" font-family="Helvetica,sans-Serif" font-size="10.00">memory</text>
</a>
</g>
</g>
<!-- Node12&#45;&gt;Node15 -->
<g id="edge15" class="edge">
<title>Node12&#45;&gt;Node15</title>
<path fill="none" stroke="midnightblue" d="M646.07,-168.45C669.21,-161.42 699.56,-149.7 722,-132 758.76,-103 787.03,-54.53 800.44,-28.61"/>
<polygon fill="midnightblue" stroke="midnightblue" points="803.61,-30.09 804.98,-19.58 797.36,-26.95 803.61,-30.09"/>
</g>
<!-- Node16 -->
<g id="node16" class="node">
<title>Node16</title>
<g id="a_node16"><a xlink:href="AMemory_8hpp.html" target="_top" xlink:title=" ">
<polygon fill="white" stroke="black" points="630.5,-112.5 630.5,-131.5 713.5,-131.5 713.5,-112.5 630.5,-112.5"/>
<text text-anchor="middle" x="672" y="-119.5" font-family="Helvetica,sans-Serif" font-size="10.00">AMemory.hpp</text>
</a>
</g>
</g>
<!-- Node12&#45;&gt;Node16 -->
<g id="edge16" class="edge">
<title>Node12&#45;&gt;Node16</title>
<path fill="none" stroke="midnightblue" d="M621.64,-168.32C630.51,-160.34 643.87,-148.31 654.61,-138.65"/>
<polygon fill="midnightblue" stroke="midnightblue" points="657.09,-141.13 662.18,-131.83 652.41,-135.92 657.09,-141.13"/>
</g>
<!-- Node16&#45;&gt;Node8 -->
<g id="edge20" class="edge">
<title>Node16&#45;&gt;Node8</title>
<path fill="none" stroke="midnightblue" d="M633.6,-112.46C605.04,-105.17 565.7,-93.14 534,-76 509.38,-62.68 484.83,-41.61 469.32,-27.09"/>
<polygon fill="midnightblue" stroke="midnightblue" points="471.34,-24.18 461.69,-19.79 466.5,-29.23 471.34,-24.18"/>
</g>
<!-- Node16&#45;&gt;Node13 -->
<g id="edge17" class="edge">
<title>Node16&#45;&gt;Node13</title>
<path fill="none" stroke="midnightblue" d="M701.27,-112.46C769.67,-92.5 939.81,-42.86 1013.76,-21.28"/>
<polygon fill="midnightblue" stroke="midnightblue" points="1014.91,-24.59 1023.53,-18.43 1012.95,-17.87 1014.91,-24.59"/>
</g>
<!-- Node16&#45;&gt;Node14 -->
<g id="edge18" class="edge">
<title>Node16&#45;&gt;Node14</title>
<path fill="none" stroke="midnightblue" d="M654.12,-112.43C639.38,-104.62 618.74,-91.91 605,-76 593.15,-62.27 584.78,-43.24 579.75,-29.32"/>
<polygon fill="midnightblue" stroke="midnightblue" points="583.06,-28.19 576.55,-19.84 576.43,-30.43 583.06,-28.19"/>
</g>
<!-- Node16&#45;&gt;Node15 -->
<g id="edge19" class="edge">
<title>Node16&#45;&gt;Node15</title>
<path fill="none" stroke="midnightblue" d="M682.75,-112.37C705.96,-93.73 761.01,-49.53 790.15,-26.13"/>
<polygon fill="midnightblue" stroke="midnightblue" points="792.69,-28.58 798.3,-19.59 788.31,-23.12 792.69,-28.58"/>
</g>
<!-- Node17 -->
<g id="node17" class="node">
<title>Node17</title>
<g id="a_node17"><a xlink:href="Int24_8hpp.html" target="_top" xlink:title=" ">
<polygon fill="white" stroke="black" points="191,-0.5 191,-19.5 301,-19.5 301,-0.5 191,-0.5"/>
<text text-anchor="middle" x="246" y="-7.5" font-family="Helvetica,sans-Serif" font-size="10.00">../Models/Int24.hpp</text>
</a>
</g>
</g>
<!-- Node16&#45;&gt;Node17 -->
<g id="edge21" class="edge">
<title>Node16&#45;&gt;Node17</title>
<path fill="none" stroke="midnightblue" d="M638.93,-112.46C562.56,-92.74 374.01,-44.05 288.9,-22.08"/>
<polygon fill="midnightblue" stroke="midnightblue" points="289.61,-18.65 279.05,-19.53 287.86,-25.42 289.61,-18.65"/>
</g>
<!-- Node18 -->
<g id="node18" class="node">
<title>Node18</title>
<g id="a_node18"><a xlink:href="Components_8hpp.html" target="_top" xlink:title=" ">
<polygon fill="white" stroke="black" points="616,-0.5 616,-19.5 762,-19.5 762,-0.5 616,-0.5"/>
<text text-anchor="middle" x="689" y="-7.5" font-family="Helvetica,sans-Serif" font-size="10.00">../Models/Components.hpp</text>
</a>
</g>
</g>
<!-- Node16&#45;&gt;Node18 -->
<g id="edge22" class="edge">
<title>Node16&#45;&gt;Node18</title>
<path fill="none" stroke="midnightblue" d="M680.48,-112.23C688.05,-103.75 698.6,-90.13 703,-76 707.87,-60.34 703.03,-42.05 697.75,-28.87"/>
<polygon fill="midnightblue" stroke="midnightblue" points="700.86,-27.25 693.6,-19.54 694.47,-30.1 700.86,-27.25"/>
</g>
<!-- Node19 -->
<g id="node19" class="node">
<title>Node19</title>
<g id="a_node19"><a xlink:href="IMemory_8hpp.html" target="_top" xlink:title=" ">
<polygon fill="white" stroke="black" points="614,-56.5 614,-75.5 694,-75.5 694,-56.5 614,-56.5"/>
<text text-anchor="middle" x="654" y="-63.5" font-family="Helvetica,sans-Serif" font-size="10.00">IMemory.hpp</text>
</a>
</g>
</g>
<!-- Node16&#45;&gt;Node19 -->
<g id="edge23" class="edge">
<title>Node16&#45;&gt;Node19</title>
<path fill="none" stroke="midnightblue" d="M669.03,-112.08C666.62,-104.85 663.14,-94.41 660.13,-85.4"/>
<polygon fill="midnightblue" stroke="midnightblue" points="663.4,-84.13 656.92,-75.75 656.76,-86.34 663.4,-84.13"/>
</g>
<!-- Node19&#45;&gt;Node8 -->
<g id="edge27" class="edge">
<title>Node19&#45;&gt;Node8</title>
<path fill="none" stroke="midnightblue" d="M622.15,-56.44C584.61,-46.36 522.59,-29.7 484.99,-19.6"/>
<polygon fill="midnightblue" stroke="midnightblue" points="485.64,-16.15 475.08,-16.93 483.83,-22.91 485.64,-16.15"/>
</g>
<!-- Node19&#45;&gt;Node13 -->
<g id="edge24" class="edge">
<title>Node19&#45;&gt;Node13</title>
<path fill="none" stroke="midnightblue" d="M694.05,-59.53C771.44,-48.94 940.37,-25.85 1013.78,-15.82"/>
<polygon fill="midnightblue" stroke="midnightblue" points="1014.46,-19.26 1023.89,-14.43 1013.51,-12.32 1014.46,-19.26"/>
</g>
<!-- Node19&#45;&gt;Node14 -->
<g id="edge25" class="edge">
<title>Node19&#45;&gt;Node14</title>
<path fill="none" stroke="midnightblue" d="M641.15,-56.32C628.78,-47.98 609.87,-35.21 595.26,-25.35"/>
<polygon fill="midnightblue" stroke="midnightblue" points="597.07,-22.35 586.82,-19.65 593.15,-28.15 597.07,-22.35"/>
</g>
<!-- Node19&#45;&gt;Node15 -->
<g id="edge26" class="edge">
<title>Node19&#45;&gt;Node15</title>
<path fill="none" stroke="midnightblue" d="M678.56,-56.44C704.52,-47.4 745.67,-33.06 774.8,-22.92"/>
<polygon fill="midnightblue" stroke="midnightblue" points="776.26,-26.11 784.55,-19.52 773.96,-19.5 776.26,-26.11"/>
</g>
<!-- Node19&#45;&gt;Node17 -->
<g id="edge28" class="edge">
<title>Node19&#45;&gt;Node17</title>
<path fill="none" stroke="midnightblue" d="M613.76,-59.67C543.15,-50.33 396.36,-30.9 311.13,-19.62"/>
<polygon fill="midnightblue" stroke="midnightblue" points="311.42,-16.13 301.05,-18.29 310.5,-23.07 311.42,-16.13"/>
</g>
<!-- Node19&#45;&gt;Node18 -->
<g id="edge29" class="edge">
<title>Node19&#45;&gt;Node18</title>
<path fill="none" stroke="midnightblue" d="M659.78,-56.08C664.67,-48.53 671.83,-37.49 677.83,-28.23"/>
<polygon fill="midnightblue" stroke="midnightblue" points="680.83,-30.05 683.33,-19.75 674.95,-26.24 680.83,-30.05"/>
</g>
<!-- Node20&#45;&gt;Node12 -->
<g id="edge32" class="edge">
<title>Node20&#45;&gt;Node12</title>
<path fill="none" stroke="midnightblue" d="M521.69,-280.37C538.01,-262.05 576.32,-219.05 597.42,-195.36"/>
<polygon fill="midnightblue" stroke="midnightblue" points="600.31,-197.39 604.35,-187.59 595.08,-192.73 600.31,-197.39"/>
</g>
<!-- Node20&#45;&gt;Node16 -->
<g id="edge31" class="edge">
<title>Node20&#45;&gt;Node16</title>
<path fill="none" stroke="midnightblue" d="M512.59,-280.45C509.54,-258.8 504.69,-201.15 533,-168 554.51,-142.81 590.25,-131.61 620.1,-126.68"/>
<polygon fill="midnightblue" stroke="midnightblue" points="620.99,-130.09 630.38,-125.19 619.98,-123.16 620.99,-130.09"/>
</g>
<!-- Node20&#45;&gt;Node17 -->
<g id="edge33" class="edge">
<title>Node20&#45;&gt;Node17</title>
<path fill="none" stroke="midnightblue" d="M473.24,-288.94C351.67,-287.66 0,-275.62 0,-179 0,-179 0,-179 0,-121 0,-41.69 107.88,-19.18 180.76,-13.03"/>
<polygon fill="midnightblue" stroke="midnightblue" points="181.09,-16.51 190.79,-12.26 180.56,-9.53 181.09,-16.51"/>
</g>
<!-- Node20&#45;&gt;Node21 -->
<g id="edge34" class="edge">
<title>Node20&#45;&gt;Node21</title>
<path fill="none" stroke="midnightblue" d="M480.88,-280.44C444.88,-271.14 387.23,-256.25 347.81,-246.06"/>
<polygon fill="midnightblue" stroke="midnightblue" points="348.52,-242.63 337.96,-243.52 346.77,-249.41 348.52,-242.63"/>
</g>
<!-- Node25 -->
<g id="node25" class="node">
<title>Node25</title>
<g id="a_node25"><a xlink:href="Instruction_8hpp.html" target="_top" xlink:title=" ">
<polygon fill="white" stroke="black" points="238.5,-56.5 238.5,-75.5 327.5,-75.5 327.5,-56.5 238.5,-56.5"/>
<text text-anchor="middle" x="283" y="-63.5" font-family="Helvetica,sans-Serif" font-size="10.00">Instruction.hpp</text>
</a>
</g>
</g>
<!-- Node20&#45;&gt;Node25 -->
<g id="edge44" class="edge">
<title>Node20&#45;&gt;Node25</title>
<path fill="none" stroke="midnightblue" d="M473.3,-285.99C376.38,-277.82 136.89,-251.46 95,-188 56.99,-130.42 162.41,-94.46 230.4,-77.86"/>
<polygon fill="midnightblue" stroke="midnightblue" points="231.21,-81.27 240.14,-75.55 229.6,-74.46 231.21,-81.27"/>
</g>
<!-- Node26 -->
<g id="node26" class="node">
<title>Node26</title>
<g id="a_node26"><a xlink:href="DMA_8hpp.html" target="_top" xlink:title=" ">
<polygon fill="white" stroke="black" points="640.5,-224.5 640.5,-243.5 727.5,-243.5 727.5,-224.5 640.5,-224.5"/>
<text text-anchor="middle" x="684" y="-231.5" font-family="Helvetica,sans-Serif" font-size="10.00">DMA/DMA.hpp</text>
</a>
</g>
</g>
<!-- Node20&#45;&gt;Node26 -->
<g id="edge47" class="edge">
<title>Node20&#45;&gt;Node26</title>
<path fill="none" stroke="midnightblue" d="M540.94,-280.44C569.66,-271.32 615.33,-256.81 647.32,-246.65"/>
<polygon fill="midnightblue" stroke="midnightblue" points="648.72,-249.88 657.19,-243.52 646.6,-243.21 648.72,-249.88"/>
</g>
<!-- Node21&#45;&gt;Node8 -->
<g id="edge35" class="edge">
<title>Node21&#45;&gt;Node8</title>
<path fill="none" stroke="midnightblue" d="M297.43,-224.2C280.48,-203.39 242.78,-150.06 266,-112 284.22,-82.14 305.15,-92.5 336,-76 368.42,-58.67 405.45,-37.93 429.01,-24.62"/>
<polygon fill="midnightblue" stroke="midnightblue" points="430.96,-27.54 437.94,-19.57 427.51,-21.45 430.96,-27.54"/>
</g>
<!-- Node21&#45;&gt;Node16 -->
<g id="edge36" class="edge">
<title>Node21&#45;&gt;Node16</title>
<path fill="none" stroke="midnightblue" d="M312.36,-224.1C324.83,-209.68 351.65,-181.48 381,-168 459.17,-132.1 560.3,-123.95 620.44,-122.58"/>
<polygon fill="midnightblue" stroke="midnightblue" points="620.51,-126.08 630.45,-122.41 620.39,-119.09 620.51,-126.08"/>
</g>
<!-- Node21&#45;&gt;Node17 -->
<g id="edge37" class="edge">
<title>Node21&#45;&gt;Node17</title>
<path fill="none" stroke="midnightblue" d="M234.76,-227.31C180.74,-221.3 112.46,-209.6 95,-188 44.47,-125.49 163.73,-53.22 219.35,-24.13"/>
<polygon fill="midnightblue" stroke="midnightblue" points="221.02,-27.2 228.32,-19.52 217.83,-20.97 221.02,-27.2"/>
</g>
<!-- Node22 -->
<g id="node22" class="node">
<title>Node22</title>
<g id="a_node22"><a xlink:href="ARectangleMemory_8hpp.html" target="_top" xlink:title=" ">
<polygon fill="white" stroke="black" points="275.5,-112.5 275.5,-131.5 460.5,-131.5 460.5,-112.5 275.5,-112.5"/>
<text text-anchor="middle" x="368" y="-119.5" font-family="Helvetica,sans-Serif" font-size="10.00">../Memory/ARectangleMemory.hpp</text>
</a>
</g>
</g>
<!-- Node21&#45;&gt;Node22 -->
<g id="edge38" class="edge">
<title>Node21&#45;&gt;Node22</title>
<path fill="none" stroke="midnightblue" d="M303.56,-224.39C301.83,-211.34 300.24,-186.14 310,-168 317.08,-154.85 329.82,-144.32 341.56,-136.75"/>
<polygon fill="midnightblue" stroke="midnightblue" points="343.46,-139.7 350.24,-131.56 339.86,-133.69 343.46,-139.7"/>
</g>
<!-- Node23 -->
<g id="node23" class="node">
<title>Node23</title>
<g id="a_node23"><a xlink:href="InterruptVectors_8hpp.html" target="_top" xlink:title=" ">
<polygon fill="white" stroke="black" points="104,-168.5 104,-187.5 220,-187.5 220,-168.5 104,-168.5"/>
<text text-anchor="middle" x="162" y="-175.5" font-family="Helvetica,sans-Serif" font-size="10.00">InterruptVectors.hpp</text>
</a>
</g>
</g>
<!-- Node21&#45;&gt;Node23 -->
<g id="edge40" class="edge">
<title>Node21&#45;&gt;Node23</title>
<path fill="none" stroke="midnightblue" d="M282.34,-224.44C258.6,-215.48 221.09,-201.31 194.26,-191.18"/>
<polygon fill="midnightblue" stroke="midnightblue" points="195.14,-187.77 184.55,-187.52 192.67,-194.32 195.14,-187.77"/>
</g>
<!-- Node21&#45;&gt;Node24 -->
<g id="edge41" class="edge">
<title>Node21&#45;&gt;Node24</title>
<path fill="none" stroke="midnightblue" d="M326.07,-224.44C348.06,-215.52 382.73,-201.44 407.66,-191.32"/>
<polygon fill="midnightblue" stroke="midnightblue" points="409.08,-194.52 417.02,-187.52 406.44,-188.04 409.08,-194.52"/>
</g>
<!-- Node22&#45;&gt;Node19 -->
<g id="edge39" class="edge">
<title>Node22&#45;&gt;Node19</title>
<path fill="none" stroke="midnightblue" d="M413.32,-112.44C465.26,-102.64 550.13,-86.61 603.96,-76.45"/>
<polygon fill="midnightblue" stroke="midnightblue" points="604.79,-79.85 613.97,-74.56 603.49,-72.97 604.79,-79.85"/>
</g>
<!-- Node24&#45;&gt;Node8 -->
<g id="edge43" class="edge">
<title>Node24&#45;&gt;Node8</title>
<path fill="none" stroke="midnightblue" d="M446.48,-168.23C454.05,-159.75 464.6,-146.13 469,-132 479.97,-96.73 468.59,-53.4 460.2,-29.33"/>
<polygon fill="midnightblue" stroke="midnightblue" points="463.4,-27.89 456.65,-19.72 456.83,-30.32 463.4,-27.89"/>
</g>
<!-- Node24&#45;&gt;Node22 -->
<g id="edge42" class="edge">
<title>Node24&#45;&gt;Node22</title>
<path fill="none" stroke="midnightblue" d="M426.75,-168.32C416.2,-160.18 400.2,-147.84 387.56,-138.09"/>
<polygon fill="midnightblue" stroke="midnightblue" points="389.51,-135.17 379.45,-131.83 385.23,-140.71 389.51,-135.17"/>
</g>
<!-- Node25&#45;&gt;Node8 -->
<g id="edge45" class="edge">
<title>Node25&#45;&gt;Node8</title>
<path fill="none" stroke="midnightblue" d="M309.94,-56.44C340.1,-46.86 388.94,-31.35 421.01,-21.16"/>
<polygon fill="midnightblue" stroke="midnightblue" points="422.32,-24.42 430.79,-18.05 420.2,-17.75 422.32,-24.42"/>
</g>
<!-- Node25&#45;&gt;Node17 -->
<g id="edge46" class="edge">
<title>Node25&#45;&gt;Node17</title>
<path fill="none" stroke="midnightblue" d="M276.89,-56.08C271.72,-48.53 264.15,-37.49 257.81,-28.23"/>
<polygon fill="midnightblue" stroke="midnightblue" points="260.54,-26.02 252,-19.75 254.76,-29.98 260.54,-26.02"/>
</g>
<!-- Node26&#45;&gt;Node12 -->
<g id="edge51" class="edge">
<title>Node26&#45;&gt;Node12</title>
<path fill="none" stroke="midnightblue" d="M672.43,-224.32C661.58,-216.18 645.12,-203.84 632.12,-194.09"/>
<polygon fill="midnightblue" stroke="midnightblue" points="633.88,-191.03 623.78,-187.83 629.68,-196.63 633.88,-191.03"/>
</g>
<!-- Node26&#45;&gt;Node13 -->
<g id="edge48" class="edge">
<title>Node26&#45;&gt;Node13</title>
<path fill="none" stroke="midnightblue" d="M727.76,-228C828.64,-216.47 1069.06,-188.91 1071,-188 1109.73,-169.88 1144.18,-152.34 1130,-112 1117.55,-76.59 1086.88,-44.4 1067.05,-26.3"/>
<polygon fill="midnightblue" stroke="midnightblue" points="1069.36,-23.66 1059.55,-19.64 1064.71,-28.9 1069.36,-23.66"/>
</g>
<!-- Node26&#45;&gt;Node15 -->
<g id="edge49" class="edge">
<title>Node26&#45;&gt;Node15</title>
<path fill="none" stroke="midnightblue" d="M720.04,-224.49C740.14,-217.88 763.9,-206.6 778,-188 814.08,-140.43 813.54,-65.07 810.97,-30.05"/>
<polygon fill="midnightblue" stroke="midnightblue" points="814.43,-29.48 810.07,-19.82 807.46,-30.09 814.43,-29.48"/>
</g>
<!-- Node26&#45;&gt;Node17 -->
<g id="edge50" class="edge">
<title>Node26&#45;&gt;Node17</title>
<path fill="none" stroke="midnightblue" d="M640.43,-230.71C580.72,-226.64 470.66,-215.77 381,-188 326.7,-171.18 308.74,-169.49 266,-132 243.57,-112.33 237.59,-104.57 229,-76 224.28,-60.31 229.86,-42.27 235.85,-29.18"/>
<polygon fill="midnightblue" stroke="midnightblue" points="239.17,-30.39 240.56,-19.89 232.92,-27.23 239.17,-30.39"/>
</g>
<!-- Node27&#45;&gt;Node7 -->
<g id="edge58" class="edge">
<title>Node27&#45;&gt;Node7</title>
<path fill="none" stroke="midnightblue" d="M952.06,-226.05C956.76,-225.32 961.48,-224.62 966,-224 1115.68,-203.57 1154.13,-207.03 1304,-188 1305.46,-187.81 1306.94,-187.62 1308.43,-187.43"/>
<polygon fill="midnightblue" stroke="midnightblue" points="1308.96,-190.89 1318.4,-186.07 1308.02,-183.95 1308.96,-190.89"/>
</g>
<!-- Node27&#45;&gt;Node12 -->
<g id="edge57" class="edge">
<title>Node27&#45;&gt;Node12</title>
<path fill="none" stroke="midnightblue" d="M871.85,-225.77C819.78,-216.4 728.61,-199.99 669.28,-189.31"/>
<polygon fill="midnightblue" stroke="midnightblue" points="669.78,-185.84 659.32,-187.52 668.54,-192.73 669.78,-185.84"/>
</g>
<!-- Node27&#45;&gt;Node13 -->
<g id="edge55" class="edge">
<title>Node27&#45;&gt;Node13</title>
<path fill="none" stroke="midnightblue" d="M952.29,-227.94C1044.57,-216.33 1263.36,-188.73 1264,-188 1306.7,-139.49 1255.7,-93.42 1203,-56 1167.34,-30.68 1117.49,-19.49 1084.28,-14.62"/>
<polygon fill="midnightblue" stroke="midnightblue" points="1084.49,-11.12 1074.12,-13.26 1083.56,-18.06 1084.49,-11.12"/>
</g>
<!-- Node27&#45;&gt;Node16 -->
<g id="edge56" class="edge">
<title>Node27&#45;&gt;Node16</title>
<path fill="none" stroke="midnightblue" d="M898.99,-224.36C878.54,-211.04 837.36,-185.22 800,-168 770.92,-154.59 736.62,-142.73 710.86,-134.56"/>
<polygon fill="midnightblue" stroke="midnightblue" points="711.67,-131.15 701.08,-131.51 709.58,-137.83 711.67,-131.15"/>
</g>
<!-- Node27&#45;&gt;Node24 -->
<g id="edge59" class="edge">
<title>Node27&#45;&gt;Node24</title>
<path fill="none" stroke="midnightblue" d="M871.92,-225.52C868.57,-224.98 865.23,-224.46 862,-224 792.82,-214.12 595.03,-194.33 495.98,-184.63"/>
<polygon fill="midnightblue" stroke="midnightblue" points="496.14,-181.13 485.85,-183.64 495.46,-188.09 496.14,-181.13"/>
</g>
<!-- Node28 -->
<g id="node28" class="node">
<title>Node28</title>
<g id="a_node28"><a xlink:href="Vector2_8hpp.html" target="_top" xlink:title=" ">
<polygon fill="white" stroke="black" points="940,-168.5 940,-187.5 1062,-187.5 1062,-168.5 940,-168.5"/>
<text text-anchor="middle" x="1001" y="-175.5" font-family="Helvetica,sans-Serif" font-size="10.00">../Models/Vector2.hpp</text>
</a>
</g>
</g>
<!-- Node27&#45;&gt;Node28 -->
<g id="edge60" class="edge">
<title>Node27&#45;&gt;Node28</title>
<path fill="none" stroke="midnightblue" d="M926.3,-224.32C940.18,-215.9 961.49,-202.97 977.8,-193.07"/>
<polygon fill="midnightblue" stroke="midnightblue" points="980,-195.83 986.74,-187.65 976.37,-189.85 980,-195.83"/>
</g>
<!-- Node29 -->
<g id="node29" class="node">
<title>Node29</title>
<g id="a_node29"><a xlink:title=" ">
<polygon fill="white" stroke="#bfbfbf" points="1063.5,-112.5 1063.5,-131.5 1120.5,-131.5 1120.5,-112.5 1063.5,-112.5"/>
<text text-anchor="middle" x="1092" y="-119.5" font-family="Helvetica,sans-Serif" font-size="10.00">ostream</text>
</a>
</g>
</g>
<!-- Node28&#45;&gt;Node29 -->
<g id="edge61" class="edge">
<title>Node28&#45;&gt;Node29</title>
<path fill="none" stroke="midnightblue" d="M1015.62,-168.32C1029.95,-159.82 1052.01,-146.73 1068.75,-136.8"/>
<polygon fill="midnightblue" stroke="midnightblue" points="1070.6,-139.77 1077.42,-131.65 1067.03,-133.75 1070.6,-139.77"/>
</g>
<!-- Node30 -->
<g id="node30" class="node">
<title>Node30</title>
<g id="a_node30"><a xlink:title=" ">
<polygon fill="white" stroke="#bfbfbf" points="902.5,-112.5 902.5,-131.5 1045.5,-131.5 1045.5,-112.5 902.5,-112.5"/>
<text text-anchor="middle" x="974" y="-119.5" font-family="Helvetica,sans-Serif" font-size="10.00">SFML/System/Vector2.hpp</text>
</a>
</g>
</g>
<!-- Node28&#45;&gt;Node30 -->
<g id="edge62" class="edge">
<title>Node28&#45;&gt;Node30</title>
<path fill="none" stroke="midnightblue" d="M996.54,-168.08C992.85,-160.69 987.48,-149.95 982.91,-140.81"/>
<polygon fill="midnightblue" stroke="midnightblue" points="985.98,-139.13 978.38,-131.75 979.72,-142.26 985.98,-139.13"/>
</g>
<!-- Node31&#45;&gt;Node7 -->
<g id="edge73" class="edge">
<title>Node31&#45;&gt;Node7</title>
<path fill="none" stroke="midnightblue" d="M853.61,-225.38C856.78,-224.88 859.94,-224.41 863,-224 868.48,-223.26 1177.95,-195.66 1308.2,-184.06"/>
<polygon fill="midnightblue" stroke="midnightblue" points="1308.73,-187.53 1318.38,-183.15 1308.11,-180.55 1308.73,-187.53"/>
</g>
<!-- Node31&#45;&gt;Node15 -->
<g id="edge64" class="edge">
<title>Node31&#45;&gt;Node15</title>
<path fill="none" stroke="midnightblue" d="M818.25,-224.24C833.27,-197.96 873.92,-117.77 850,-56 845.55,-44.5 836.63,-34.13 828.25,-26.25"/>
<polygon fill="midnightblue" stroke="midnightblue" points="830.37,-23.46 820.54,-19.51 825.76,-28.73 830.37,-23.46"/>
</g>
<!-- Node31&#45;&gt;Node16 -->
<g id="edge69" class="edge">
<title>Node31&#45;&gt;Node16</title>
<path fill="none" stroke="midnightblue" d="M810.39,-224.24C805.88,-210.52 795.43,-183.89 778,-168 760.99,-152.49 737.83,-141.83 717.5,-134.79"/>
<polygon fill="midnightblue" stroke="midnightblue" points="718.38,-131.4 707.79,-131.62 716.21,-138.05 718.38,-131.4"/>
</g>
<!-- Node31&#45;&gt;Node24 -->
<g id="edge70" class="edge">
<title>Node31&#45;&gt;Node24</title>
<path fill="none" stroke="midnightblue" d="M772.15,-227.12C705.21,-217.48 571.95,-198.29 495.49,-187.28"/>
<polygon fill="midnightblue" stroke="midnightblue" points="495.95,-183.81 485.55,-185.85 494.95,-190.74 495.95,-183.81"/>
</g>
<!-- Node32 -->
<g id="node32" class="node">
<title>Node32</title>
<g id="a_node32"><a xlink:href="DSP_8hpp.html" target="_top" xlink:title=" ">
<polygon fill="white" stroke="black" points="1177,-168.5 1177,-187.5 1255,-187.5 1255,-168.5 1177,-168.5"/>
<text text-anchor="middle" x="1216" y="-175.5" font-family="Helvetica,sans-Serif" font-size="10.00">DSP/DSP.hpp</text>
</a>
</g>
</g>
<!-- Node31&#45;&gt;Node32 -->
<g id="edge65" class="edge">
<title>Node31&#45;&gt;Node32</title>
<path fill="none" stroke="midnightblue" d="M853.63,-225.48C856.79,-224.96 859.95,-224.46 863,-224 995.81,-204.1 1030.1,-207.25 1163,-188 1164.27,-187.82 1165.56,-187.63 1166.86,-187.43"/>
<polygon fill="midnightblue" stroke="midnightblue" points="1167.62,-190.85 1176.96,-185.85 1166.54,-183.94 1167.62,-190.85"/>
</g>
<!-- Node34 -->
<g id="node34" class="node">
<title>Node34</title>
<g id="a_node34"><a xlink:href="IPL_8hpp.html" target="_top" xlink:title=" ">
<polygon fill="white" stroke="black" points="700.5,-168.5 700.5,-187.5 769.5,-187.5 769.5,-168.5 700.5,-168.5"/>
<text text-anchor="middle" x="735" y="-175.5" font-family="Helvetica,sans-Serif" font-size="10.00">IPL/IPL.hpp</text>
</a>
</g>
</g>
<!-- Node31&#45;&gt;Node34 -->
<g id="edge71" class="edge">
<title>Node31&#45;&gt;Node34</title>
<path fill="none" stroke="midnightblue" d="M800.47,-224.32C788.41,-215.98 769.97,-203.21 755.73,-193.35"/>
<polygon fill="midnightblue" stroke="midnightblue" points="757.72,-190.47 747.5,-187.65 753.73,-196.22 757.72,-190.47"/>
</g>
<!-- Node32&#45;&gt;Node13 -->
<g id="edge66" class="edge">
<title>Node32&#45;&gt;Node13</title>
<path fill="none" stroke="midnightblue" d="M1220.82,-168.18C1227.18,-155.28 1236.61,-130.78 1228,-112 1202.07,-55.43 1128.38,-29.06 1084.05,-18"/>
<polygon fill="midnightblue" stroke="midnightblue" points="1084.8,-14.58 1074.26,-15.69 1083.19,-21.39 1084.8,-14.58"/>
</g>
<!-- Node32&#45;&gt;Node16 -->
<g id="edge68" class="edge">
<title>Node32&#45;&gt;Node16</title>
<path fill="none" stroke="midnightblue" d="M1176.88,-173.12C1080.59,-163.56 832.09,-138.89 723.76,-128.14"/>
<polygon fill="midnightblue" stroke="midnightblue" points="724.02,-124.65 713.73,-127.14 723.33,-131.61 724.02,-124.65"/>
</g>
<!-- Node33 -->
<g id="node33" class="node">
<title>Node33</title>
<g id="a_node33"><a xlink:title=" ">
<polygon fill="white" stroke="#bfbfbf" points="1177,-112.5 1177,-131.5 1219,-131.5 1219,-112.5 1177,-112.5"/>
<text text-anchor="middle" x="1198" y="-119.5" font-family="Helvetica,sans-Serif" font-size="10.00">array</text>
</a>
</g>
</g>
<!-- Node32&#45;&gt;Node33 -->
<g id="edge67" class="edge">
<title>Node32&#45;&gt;Node33</title>
<path fill="none" stroke="midnightblue" d="M1213.03,-168.08C1210.62,-160.85 1207.14,-150.41 1204.13,-141.4"/>
<polygon fill="midnightblue" stroke="midnightblue" points="1207.4,-140.13 1200.92,-131.75 1200.76,-142.34 1207.4,-140.13"/>
</g>
<!-- Node34&#45;&gt;Node16 -->
<g id="edge72" class="edge">
<title>Node34&#45;&gt;Node16</title>
<path fill="none" stroke="midnightblue" d="M724.88,-168.32C715.47,-160.26 701.26,-148.08 689.93,-138.37"/>
<polygon fill="midnightblue" stroke="midnightblue" points="692.18,-135.68 682.31,-131.83 687.62,-141 692.18,-135.68"/>
</g>
<!-- Node36 -->
<g id="node36" class="node">
<title>Node36</title>
<g id="a_node36"><a xlink:title=" ">
<polygon fill="white" stroke="#bfbfbf" points="1048.5,-224.5 1048.5,-243.5 1143.5,-243.5 1143.5,-224.5 1048.5,-224.5"/>
<text text-anchor="middle" x="1096" y="-231.5" font-family="Helvetica,sans-Serif" font-size="10.00">bits/exception.h</text>
</a>
</g>
</g>
<!-- Node35&#45;&gt;Node36 -->
<g id="edge76" class="edge">
<title>Node35&#45;&gt;Node36</title>
<path fill="none" stroke="midnightblue" d="M1096,-280.08C1096,-273.01 1096,-262.86 1096,-253.99"/>
<polygon fill="midnightblue" stroke="midnightblue" points="1099.5,-253.75 1096,-243.75 1092.5,-253.75 1099.5,-253.75"/>
</g>
<!-- Node41&#45;&gt;Node2 -->
<g id="edge83" class="edge">
<title>Node41&#45;&gt;Node2</title>
<path fill="none" stroke="midnightblue" d="M547.8,-448.44C517.59,-439.28 469.49,-424.69 435.97,-414.52"/>
<polygon fill="midnightblue" stroke="midnightblue" points="436.66,-411.07 426.07,-411.52 434.63,-417.77 436.66,-411.07"/>
</g>
<!-- Node41&#45;&gt;Node3 -->
<g id="edge84" class="edge">
<title>Node41&#45;&gt;Node3</title>
<path fill="none" stroke="midnightblue" d="M579.84,-448.43C585.56,-435.83 596.85,-411.7 608,-392 613.32,-382.6 619.79,-372.45 625.27,-364.18"/>
<polygon fill="midnightblue" stroke="midnightblue" points="628.24,-366.03 630.91,-355.78 622.43,-362.13 628.24,-366.03"/>
</g>
<!-- Node41&#45;&gt;Node4 -->
<g id="edge85" class="edge">
<title>Node41&#45;&gt;Node4</title>
<path fill="none" stroke="midnightblue" d="M566.52,-448.32C557.8,-440.34 544.66,-428.31 534.1,-418.65"/>
<polygon fill="midnightblue" stroke="midnightblue" points="536.39,-416 526.65,-411.83 531.67,-421.17 536.39,-416"/>
</g>
<!-- Node41&#45;&gt;Node10 -->
<g id="edge88" class="edge">
<title>Node41&#45;&gt;Node10</title>
<path fill="none" stroke="midnightblue" d="M631.15,-449.15C634.14,-448.75 637.11,-448.37 640,-448 759.76,-432.85 900.03,-417.65 978.6,-409.37"/>
<polygon fill="midnightblue" stroke="midnightblue" points="979.22,-412.83 988.8,-408.3 978.49,-405.87 979.22,-412.83"/>
</g>
<!-- Node42 -->
<g id="node42" class="node">
<title>Node42</title>
<g id="a_node42"><a xlink:title=" ">
<polygon fill="white" stroke="#bfbfbf" points="784.5,-392.5 784.5,-411.5 925.5,-411.5 925.5,-392.5 784.5,-392.5"/>
<text text-anchor="middle" x="855" y="-399.5" font-family="Helvetica,sans-Serif" font-size="10.00">SFML/Graphics/Sprite.hpp</text>
</a>
</g>
</g>
<!-- Node41&#45;&gt;Node42 -->
<g id="edge86" class="edge">
<title>Node41&#45;&gt;Node42</title>
<path fill="none" stroke="midnightblue" d="M620.21,-448.44C669.29,-438.94 748.51,-423.61 801.16,-413.42"/>
<polygon fill="midnightblue" stroke="midnightblue" points="801.85,-416.85 811,-411.52 800.52,-409.98 801.85,-416.85"/>
</g>
<!-- Node43 -->
<g id="node43" class="node">
<title>Node43</title>
<g id="a_node43"><a xlink:title=" ">
<polygon fill="white" stroke="#bfbfbf" points="617.5,-392.5 617.5,-411.5 766.5,-411.5 766.5,-392.5 617.5,-392.5"/>
<text text-anchor="middle" x="692" y="-399.5" font-family="Helvetica,sans-Serif" font-size="10.00">SFML/Graphics/Texture.hpp</text>
</a>
</g>
</g>
<!-- Node41&#45;&gt;Node43 -->
<g id="edge87" class="edge">
<title>Node41&#45;&gt;Node43</title>
<path fill="none" stroke="midnightblue" d="M594.38,-448.44C613.22,-439.68 642.73,-425.94 664.38,-415.86"/>
<polygon fill="midnightblue" stroke="midnightblue" points="666.12,-418.91 673.71,-411.52 663.16,-412.56 666.12,-418.91"/>
</g>
</g>
</svg>
