<?xml version="1.0" encoding="UTF-8" standalone="no"?>
<!DOCTYPE svg PUBLIC "-//W3C//DTD SVG 1.1//EN"
 "http://www.w3.org/Graphics/SVG/1.1/DTD/svg11.dtd">
<!-- Generated by graphviz version 2.43.0 (0)
 -->
<!-- Title: sources/Ram/Ram.hpp Pages: 1 -->
<svg width="4603pt" height="341pt"
 viewBox="0.00 0.00 4603.48 341.00" xmlns="http://www.w3.org/2000/svg" xmlns:xlink="http://www.w3.org/1999/xlink">
<g id="graph0" class="graph" transform="scale(1 1) rotate(0) translate(4 337)">
<title>sources/Ram/Ram.hpp</title>
<polygon fill="white" stroke="transparent" points="-4,4 -4,-337 4599.48,-337 4599.48,4 -4,4"/>
<!-- Node1 -->
<g id="node1" class="node">
<title>Node1</title>
<g id="a_node1"><a xlink:title=" ">
<polygon fill="#bfbfbf" stroke="black" points="3304.5,-313.5 3304.5,-332.5 3430.5,-332.5 3430.5,-313.5 3304.5,-313.5"/>
<text text-anchor="middle" x="3367.5" y="-320.5" font-family="Helvetica,sans-Serif" font-size="10.00">sources/Ram/Ram.hpp</text>
</a>
</g>
</g>
<!-- Node2 -->
<g id="node2" class="node">
<title>Node2</title>
<g id="a_node2"><a xlink:href="APU_8hpp.html" target="_top" xlink:title=" ">
<polygon fill="white" stroke="black" points="1772.5,-201.5 1772.5,-220.5 1894.5,-220.5 1894.5,-201.5 1772.5,-201.5"/>
<text text-anchor="middle" x="1833.5" y="-208.5" font-family="Helvetica,sans-Serif" font-size="10.00">sources/APU/APU.hpp</text>
</a>
</g>
</g>
<!-- Node1&#45;&gt;Node2 -->
<g id="edge1" class="edge">
<title>Node1&#45;&gt;Node2</title>
<path fill="none" stroke="midnightblue" d="M3293.8,-316.72C3030.28,-297.82 2137.57,-233.8 1894.85,-216.4"/>
<polygon fill="midnightblue" stroke="midnightblue" points="3293.8,-320.22 3304.02,-317.45 3294.3,-313.24 3293.8,-320.22"/>
</g>
<!-- Node24 -->
<g id="node23" class="node">
<title>Node24</title>
<g id="a_node23"><a xlink:href="SNES_8hpp.html" target="_top" xlink:title=" ">
<polygon fill="white" stroke="red" points="3177.5,-140 3177.5,-159 3281.5,-159 3281.5,-140 3177.5,-140"/>
<text text-anchor="middle" x="3229.5" y="-147" font-family="Helvetica,sans-Serif" font-size="10.00">sources/SNES.hpp</text>
</a>
</g>
</g>
<!-- Node1&#45;&gt;Node24 -->
<g id="edge67" class="edge">
<title>Node1&#45;&gt;Node24</title>
<path fill="none" stroke="midnightblue" d="M3294.1,-318.4C3265.15,-312.93 3234.56,-301.23 3216.5,-277 3189.45,-240.71 3214.06,-181.42 3224.94,-159.24"/>
<polygon fill="midnightblue" stroke="midnightblue" points="3293.81,-321.9 3304.25,-320.08 3294.96,-314.99 3293.81,-321.9"/>
</g>
<!-- Node61 -->
<g id="node44" class="node">
<title>Node61</title>
<g id="a_node44"><a xlink:href="Cartridge_8hpp.html" target="_top" xlink:title=" ">
<polygon fill="white" stroke="black" points="3364,-257.5 3364,-276.5 3535,-276.5 3535,-257.5 3364,-257.5"/>
<text text-anchor="middle" x="3449.5" y="-264.5" font-family="Helvetica,sans-Serif" font-size="10.00">sources/Cartridge/Cartridge.hpp</text>
</a>
</g>
</g>
<!-- Node1&#45;&gt;Node61 -->
<g id="edge59" class="edge">
<title>Node1&#45;&gt;Node61</title>
<path fill="none" stroke="midnightblue" d="M3389.33,-307.62C3404.31,-297.76 3423.7,-284.99 3436.36,-276.65"/>
<polygon fill="midnightblue" stroke="midnightblue" points="3387.1,-304.9 3380.67,-313.32 3390.95,-310.75 3387.1,-304.9"/>
</g>
<!-- Node73 -->
<g id="node48" class="node">
<title>Node73</title>
<g id="a_node48"><a xlink:href="PPU_8hpp.html" target="_top" xlink:title=" ">
<polygon fill="white" stroke="red" points="3225.5,-257.5 3225.5,-276.5 3345.5,-276.5 3345.5,-257.5 3225.5,-257.5"/>
<text text-anchor="middle" x="3285.5" y="-264.5" font-family="Helvetica,sans-Serif" font-size="10.00">sources/PPU/PPU.hpp</text>
</a>
</g>
</g>
<!-- Node1&#45;&gt;Node73 -->
<g id="edge68" class="edge">
<title>Node1&#45;&gt;Node73</title>
<path fill="none" stroke="midnightblue" d="M3345.67,-307.62C3330.69,-297.76 3311.3,-284.99 3298.64,-276.65"/>
<polygon fill="midnightblue" stroke="midnightblue" points="3344.05,-310.75 3354.33,-313.32 3347.9,-304.9 3344.05,-310.75"/>
</g>
<!-- Node77 -->
<g id="node49" class="node">
<title>Node77</title>
<g id="a_node49"><a xlink:href="MemoryViewer_8hpp.html" target="_top" xlink:title=" ">
<polygon fill="white" stroke="black" points="3553.5,-257.5 3553.5,-276.5 3755.5,-276.5 3755.5,-257.5 3553.5,-257.5"/>
<text text-anchor="middle" x="3654.5" y="-264.5" font-family="Helvetica,sans-Serif" font-size="10.00">sources/Debugger/MemoryViewer.hpp</text>
</a>
</g>
</g>
<!-- Node1&#45;&gt;Node77 -->
<g id="edge70" class="edge">
<title>Node1&#45;&gt;Node77</title>
<path fill="none" stroke="midnightblue" d="M3423.11,-311.54C3477.35,-301.33 3558.84,-286 3609.24,-276.52"/>
<polygon fill="midnightblue" stroke="midnightblue" points="3422.16,-308.15 3412.98,-313.44 3423.45,-315.03 3422.16,-308.15"/>
</g>
<!-- Node78 -->
<g id="node50" class="node">
<title>Node78</title>
<g id="a_node50"><a xlink:href="Ram_8cpp.html" target="_top" xlink:title=" ">
<polygon fill="white" stroke="black" points="3774,-257.5 3774,-276.5 3899,-276.5 3899,-257.5 3774,-257.5"/>
<text text-anchor="middle" x="3836.5" y="-264.5" font-family="Helvetica,sans-Serif" font-size="10.00">sources/Ram/Ram.cpp</text>
</a>
</g>
</g>
<!-- Node1&#45;&gt;Node78 -->
<g id="edge72" class="edge">
<title>Node1&#45;&gt;Node78</title>
<path fill="none" stroke="midnightblue" d="M3441.21,-313.9C3520.94,-305.08 3651.78,-290.43 3764.5,-277 3767.5,-276.64 3770.57,-276.27 3773.68,-275.9"/>
<polygon fill="midnightblue" stroke="midnightblue" points="3440.34,-310.48 3430.78,-315.05 3441.11,-317.43 3440.34,-310.48"/>
</g>
<!-- Node3 -->
<g id="node3" class="node">
<title>Node3</title>
<g id="a_node3"><a xlink:href="APU_8cpp.html" target="_top" xlink:title=" ">
<polygon fill="white" stroke="black" points="1773,-140 1773,-159 1894,-159 1894,-140 1773,-140"/>
<text text-anchor="middle" x="1833.5" y="-147" font-family="Helvetica,sans-Serif" font-size="10.00">sources/APU/APU.cpp</text>
</a>
</g>
</g>
<!-- Node2&#45;&gt;Node3 -->
<g id="edge2" class="edge">
<title>Node2&#45;&gt;Node3</title>
<path fill="none" stroke="midnightblue" d="M1833.5,-191.32C1833.5,-180.5 1833.5,-167.4 1833.5,-159.01"/>
<polygon fill="midnightblue" stroke="midnightblue" points="1830,-191.48 1833.5,-201.48 1837,-191.48 1830,-191.48"/>
</g>
<!-- Node4 -->
<g id="node4" class="node">
<title>Node4</title>
<g id="a_node4"><a xlink:href="DSP_8cpp.html" target="_top" xlink:title=" ">
<polygon fill="white" stroke="black" points="1912,-140 1912,-159 2053,-159 2053,-140 1912,-140"/>
<text text-anchor="middle" x="1982.5" y="-147" font-family="Helvetica,sans-Serif" font-size="10.00">sources/APU/DSP/DSP.cpp</text>
</a>
</g>
</g>
<!-- Node2&#45;&gt;Node4 -->
<g id="edge3" class="edge">
<title>Node2&#45;&gt;Node4</title>
<path fill="none" stroke="midnightblue" d="M1864.47,-197.63C1893.42,-186.07 1935.87,-169.12 1961.19,-159.01"/>
<polygon fill="midnightblue" stroke="midnightblue" points="1862.84,-194.52 1854.85,-201.48 1865.43,-201.02 1862.84,-194.52"/>
</g>
<!-- Node5 -->
<g id="node5" class="node">
<title>Node5</title>
<g id="a_node5"><a xlink:href="Voice_8cpp.html" target="_top" xlink:title=" ">
<polygon fill="white" stroke="black" points="2071,-140 2071,-159 2220,-159 2220,-140 2071,-140"/>
<text text-anchor="middle" x="2145.5" y="-147" font-family="Helvetica,sans-Serif" font-size="10.00">sources/APU/DSP/Voice.cpp</text>
</a>
</g>
</g>
<!-- Node2&#45;&gt;Node5 -->
<g id="edge4" class="edge">
<title>Node2&#45;&gt;Node5</title>
<path fill="none" stroke="midnightblue" d="M1888.32,-199.55C1948.76,-188.02 2044.85,-169.69 2100.88,-159.01"/>
<polygon fill="midnightblue" stroke="midnightblue" points="1887.37,-196.16 1878.2,-201.48 1888.68,-203.04 1887.37,-196.16"/>
</g>
<!-- Node6 -->
<g id="node6" class="node">
<title>Node6</title>
<g id="a_node6"><a xlink:href="16bitArithmetic_8cpp.html" target="_top" xlink:title=" ">
<polygon fill="white" stroke="black" points="2314,-134.5 2314,-164.5 2451,-164.5 2451,-134.5 2314,-134.5"/>
<text text-anchor="start" x="2322" y="-152.5" font-family="Helvetica,sans-Serif" font-size="10.00">sources/APU/Instructions</text>
<text text-anchor="middle" x="2382.5" y="-141.5" font-family="Helvetica,sans-Serif" font-size="10.00">/16bitArithmetic.cpp</text>
</a>
</g>
</g>
<!-- Node2&#45;&gt;Node6 -->
<g id="edge5" class="edge">
<title>Node2&#45;&gt;Node6</title>
<path fill="none" stroke="midnightblue" d="M1904.73,-204.83C1996.31,-197.79 2160.15,-183.87 2299.5,-165 2304.14,-164.37 2308.91,-163.67 2313.72,-162.93"/>
<polygon fill="midnightblue" stroke="midnightblue" points="1904.44,-201.34 1894.74,-205.59 1904.97,-208.32 1904.44,-201.34"/>
</g>
<!-- Node7 -->
<g id="node7" class="node">
<title>Node7</title>
<g id="a_node7"><a xlink:href="16bitDataTransmission_8cpp.html" target="_top" xlink:title=" ">
<polygon fill="white" stroke="black" points="2507.5,-134.5 2507.5,-164.5 2659.5,-164.5 2659.5,-134.5 2507.5,-134.5"/>
<text text-anchor="start" x="2515.5" y="-152.5" font-family="Helvetica,sans-Serif" font-size="10.00">sources/APU/Instructions</text>
<text text-anchor="middle" x="2583.5" y="-141.5" font-family="Helvetica,sans-Serif" font-size="10.00">/16bitDataTransmission.cpp</text>
</a>
</g>
</g>
<!-- Node2&#45;&gt;Node7 -->
<g id="edge6" class="edge">
<title>Node2&#45;&gt;Node7</title>
<path fill="none" stroke="midnightblue" d="M1904.9,-207.28C2026.18,-202.18 2280.07,-189.42 2493.5,-165 2498.06,-164.48 2502.74,-163.89 2507.46,-163.25"/>
<polygon fill="midnightblue" stroke="midnightblue" points="1904.48,-203.79 1894.63,-207.71 1904.77,-210.79 1904.48,-203.79"/>
</g>
<!-- Node8 -->
<g id="node8" class="node">
<title>Node8</title>
<g id="a_node8"><a xlink:href="8bitArithmetic_8cpp.html" target="_top" xlink:title=" ">
<polygon fill="white" stroke="black" points="2678,-134.5 2678,-164.5 2815,-164.5 2815,-134.5 2678,-134.5"/>
<text text-anchor="start" x="2686" y="-152.5" font-family="Helvetica,sans-Serif" font-size="10.00">sources/APU/Instructions</text>
<text text-anchor="middle" x="2746.5" y="-141.5" font-family="Helvetica,sans-Serif" font-size="10.00">/8bitArithmetic.cpp</text>
</a>
</g>
</g>
<!-- Node2&#45;&gt;Node8 -->
<g id="edge7" class="edge">
<title>Node2&#45;&gt;Node8</title>
<path fill="none" stroke="midnightblue" d="M1904.83,-209.27C2049.4,-207.12 2387.13,-198.59 2668.5,-165 2671.51,-164.64 2674.58,-164.24 2677.67,-163.8"/>
<polygon fill="midnightblue" stroke="midnightblue" points="1904.71,-205.78 1894.76,-209.42 1904.81,-212.78 1904.71,-205.78"/>
</g>
<!-- Node9 -->
<g id="node9" class="node">
<title>Node9</title>
<g id="a_node9"><a xlink:href="8bitDataTransmission_8cpp.html" target="_top" xlink:title=" ">
<polygon fill="white" stroke="black" points="2833.5,-134.5 2833.5,-164.5 2979.5,-164.5 2979.5,-134.5 2833.5,-134.5"/>
<text text-anchor="start" x="2841.5" y="-152.5" font-family="Helvetica,sans-Serif" font-size="10.00">sources/APU/Instructions</text>
<text text-anchor="middle" x="2906.5" y="-141.5" font-family="Helvetica,sans-Serif" font-size="10.00">/8bitDataTransmission.cpp</text>
</a>
</g>
</g>
<!-- Node2&#45;&gt;Node9 -->
<g id="edge8" class="edge">
<title>Node2&#45;&gt;Node9</title>
<path fill="none" stroke="midnightblue" d="M1904.93,-209.87C2068.16,-208.89 2480.84,-202.56 2823.5,-165 2826.7,-164.65 2829.96,-164.25 2833.25,-163.82"/>
<polygon fill="midnightblue" stroke="midnightblue" points="1904.52,-206.37 1894.54,-209.93 1904.56,-213.37 1904.52,-206.37"/>
</g>
<!-- Node10 -->
<g id="node10" class="node">
<title>Node10</title>
<g id="a_node10"><a xlink:href="8bitIncrementDecrement_8cpp.html" target="_top" xlink:title=" ">
<polygon fill="white" stroke="black" points="2997.5,-134.5 2997.5,-164.5 3159.5,-164.5 3159.5,-134.5 2997.5,-134.5"/>
<text text-anchor="start" x="3005.5" y="-152.5" font-family="Helvetica,sans-Serif" font-size="10.00">sources/APU/Instructions</text>
<text text-anchor="middle" x="3078.5" y="-141.5" font-family="Helvetica,sans-Serif" font-size="10.00">/8bitIncrementDecrement.cpp</text>
</a>
</g>
</g>
<!-- Node2&#45;&gt;Node10 -->
<g id="edge9" class="edge">
<title>Node2&#45;&gt;Node10</title>
<path fill="none" stroke="midnightblue" d="M1904.94,-210.21C2086.43,-210.1 2579.84,-205.73 2988.5,-165 2991.33,-164.72 2994.22,-164.4 2997.12,-164.06"/>
<polygon fill="midnightblue" stroke="midnightblue" points="1904.72,-206.71 1894.72,-210.21 1904.73,-213.71 1904.72,-206.71"/>
</g>
<!-- Node11 -->
<g id="node11" class="node">
<title>Node11</title>
<g id="a_node11"><a xlink:href="8bitLogical_8cpp.html" target="_top" xlink:title=" ">
<polygon fill="white" stroke="black" points="0,-134.5 0,-164.5 137,-164.5 137,-134.5 0,-134.5"/>
<text text-anchor="start" x="8" y="-152.5" font-family="Helvetica,sans-Serif" font-size="10.00">sources/APU/Instructions</text>
<text text-anchor="middle" x="68.5" y="-141.5" font-family="Helvetica,sans-Serif" font-size="10.00">/8bitLogical.cpp</text>
</a>
</g>
</g>
<!-- Node2&#45;&gt;Node11 -->
<g id="edge10" class="edge">
<title>Node2&#45;&gt;Node11</title>
<path fill="none" stroke="midnightblue" d="M1761.94,-209.61C1482.73,-207.87 466.22,-199.25 145.5,-165 142.79,-164.71 140.04,-164.38 137.27,-164.01"/>
<polygon fill="midnightblue" stroke="midnightblue" points="1762.32,-213.12 1772.34,-209.68 1762.37,-206.12 1762.32,-213.12"/>
</g>
<!-- Node12 -->
<g id="node12" class="node">
<title>Node12</title>
<g id="a_node12"><a xlink:href="8bitShiftRotation_8cpp.html" target="_top" xlink:title=" ">
<polygon fill="white" stroke="black" points="155,-134.5 155,-164.5 292,-164.5 292,-134.5 155,-134.5"/>
<text text-anchor="start" x="163" y="-152.5" font-family="Helvetica,sans-Serif" font-size="10.00">sources/APU/Instructions</text>
<text text-anchor="middle" x="223.5" y="-141.5" font-family="Helvetica,sans-Serif" font-size="10.00">/8bitShiftRotation.cpp</text>
</a>
</g>
</g>
<!-- Node2&#45;&gt;Node12 -->
<g id="edge11" class="edge">
<title>Node2&#45;&gt;Node12</title>
<path fill="none" stroke="midnightblue" d="M1762.03,-209.39C1499.58,-206.92 589.32,-196.24 300.5,-165 297.8,-164.71 295.04,-164.37 292.27,-164"/>
<polygon fill="midnightblue" stroke="midnightblue" points="1762.16,-212.89 1772.2,-209.48 1762.23,-205.89 1762.16,-212.89"/>
</g>
<!-- Node13 -->
<g id="node13" class="node">
<title>Node13</title>
<g id="a_node13"><a xlink:href="Bit_8cpp.html" target="_top" xlink:title=" ">
<polygon fill="white" stroke="black" points="310,-134.5 310,-164.5 447,-164.5 447,-134.5 310,-134.5"/>
<text text-anchor="start" x="318" y="-152.5" font-family="Helvetica,sans-Serif" font-size="10.00">sources/APU/Instructions</text>
<text text-anchor="middle" x="378.5" y="-141.5" font-family="Helvetica,sans-Serif" font-size="10.00">/Bit.cpp</text>
</a>
</g>
</g>
<!-- Node2&#45;&gt;Node13 -->
<g id="edge12" class="edge">
<title>Node2&#45;&gt;Node13</title>
<path fill="none" stroke="midnightblue" d="M1761.98,-209.12C1516.98,-205.86 712.49,-193.22 455.5,-165 452.8,-164.7 450.04,-164.36 447.27,-163.99"/>
<polygon fill="midnightblue" stroke="midnightblue" points="1762.14,-212.62 1772.19,-209.25 1762.24,-205.62 1762.14,-212.62"/>
</g>
<!-- Node14 -->
<g id="node14" class="node">
<title>Node14</title>
<g id="a_node14"><a xlink:href="DecimalCompensation_8cpp.html" target="_top" xlink:title=" ">
<polygon fill="white" stroke="black" points="465,-134.5 465,-164.5 616,-164.5 616,-134.5 465,-134.5"/>
<text text-anchor="start" x="473" y="-152.5" font-family="Helvetica,sans-Serif" font-size="10.00">sources/APU/Instructions</text>
<text text-anchor="middle" x="540.5" y="-141.5" font-family="Helvetica,sans-Serif" font-size="10.00">/DecimalCompensation.cpp</text>
</a>
</g>
</g>
<!-- Node2&#45;&gt;Node14 -->
<g id="edge13" class="edge">
<title>Node2&#45;&gt;Node14</title>
<path fill="none" stroke="midnightblue" d="M1762.08,-210.61C1574.97,-211.52 1055.24,-209.46 625.5,-165 622.52,-164.69 619.49,-164.34 616.43,-163.96"/>
<polygon fill="midnightblue" stroke="midnightblue" points="1762.35,-214.11 1772.34,-210.56 1762.32,-207.11 1762.35,-214.11"/>
</g>
<!-- Node15 -->
<g id="node15" class="node">
<title>Node15</title>
<g id="a_node15"><a xlink:href="MultiplicationDivision_8cpp.html" target="_top" xlink:title=" ">
<polygon fill="white" stroke="black" points="634.5,-134.5 634.5,-164.5 780.5,-164.5 780.5,-134.5 634.5,-134.5"/>
<text text-anchor="start" x="642.5" y="-152.5" font-family="Helvetica,sans-Serif" font-size="10.00">sources/APU/Instructions</text>
<text text-anchor="middle" x="707.5" y="-141.5" font-family="Helvetica,sans-Serif" font-size="10.00">/MultiplicationDivision.cpp</text>
</a>
</g>
</g>
<!-- Node2&#45;&gt;Node15 -->
<g id="edge14" class="edge">
<title>Node2&#45;&gt;Node15</title>
<path fill="none" stroke="midnightblue" d="M1762.36,-210.16C1593.19,-209.84 1153.79,-204.88 789.5,-165 786.63,-164.69 783.7,-164.33 780.75,-163.95"/>
<polygon fill="midnightblue" stroke="midnightblue" points="1762.38,-213.66 1772.39,-210.18 1762.39,-206.66 1762.38,-213.66"/>
</g>
<!-- Node16 -->
<g id="node16" class="node">
<title>Node16</title>
<g id="a_node16"><a xlink:href="ProgramFlow_8cpp.html" target="_top" xlink:title=" ">
<polygon fill="white" stroke="black" points="799,-134.5 799,-164.5 936,-164.5 936,-134.5 799,-134.5"/>
<text text-anchor="start" x="807" y="-152.5" font-family="Helvetica,sans-Serif" font-size="10.00">sources/APU/Instructions</text>
<text text-anchor="middle" x="867.5" y="-141.5" font-family="Helvetica,sans-Serif" font-size="10.00">/ProgramFlow.cpp</text>
</a>
</g>
</g>
<!-- Node2&#45;&gt;Node16 -->
<g id="edge15" class="edge">
<title>Node2&#45;&gt;Node16</title>
<path fill="none" stroke="midnightblue" d="M1762.28,-209.66C1611.1,-208.23 1247.15,-200.99 944.5,-165 941.8,-164.68 939.05,-164.32 936.28,-163.93"/>
<polygon fill="midnightblue" stroke="midnightblue" points="1762.33,-213.16 1772.36,-209.75 1762.39,-206.16 1762.33,-213.16"/>
</g>
<!-- Node17 -->
<g id="node17" class="node">
<title>Node17</title>
<g id="a_node17"><a xlink:href="ProgramStatusWord_8cpp.html" target="_top" xlink:title=" ">
<polygon fill="white" stroke="black" points="954,-134.5 954,-164.5 1091,-164.5 1091,-134.5 954,-134.5"/>
<text text-anchor="start" x="962" y="-152.5" font-family="Helvetica,sans-Serif" font-size="10.00">sources/APU/Instructions</text>
<text text-anchor="middle" x="1022.5" y="-141.5" font-family="Helvetica,sans-Serif" font-size="10.00">/ProgramStatusWord.cpp</text>
</a>
</g>
</g>
<!-- Node2&#45;&gt;Node17 -->
<g id="edge16" class="edge">
<title>Node2&#45;&gt;Node17</title>
<path fill="none" stroke="midnightblue" d="M1762.02,-208.58C1630.46,-205.31 1341.27,-195.06 1099.5,-165 1096.8,-164.66 1094.05,-164.29 1091.28,-163.89"/>
<polygon fill="midnightblue" stroke="midnightblue" points="1762.28,-212.09 1772.36,-208.83 1762.45,-205.09 1762.28,-212.09"/>
</g>
<!-- Node18 -->
<g id="node18" class="node">
<title>Node18</title>
<g id="a_node18"><a xlink:href="Stack_8cpp.html" target="_top" xlink:title=" ">
<polygon fill="white" stroke="black" points="1109,-134.5 1109,-164.5 1246,-164.5 1246,-134.5 1109,-134.5"/>
<text text-anchor="start" x="1117" y="-152.5" font-family="Helvetica,sans-Serif" font-size="10.00">sources/APU/Instructions</text>
<text text-anchor="middle" x="1177.5" y="-141.5" font-family="Helvetica,sans-Serif" font-size="10.00">/Stack.cpp</text>
</a>
</g>
</g>
<!-- Node2&#45;&gt;Node18 -->
<g id="edge17" class="edge">
<title>Node2&#45;&gt;Node18</title>
<path fill="none" stroke="midnightblue" d="M1762.16,-206.95C1652.61,-201.71 1436.53,-189.14 1254.5,-165 1251.8,-164.64 1249.06,-164.25 1246.29,-163.84"/>
<polygon fill="midnightblue" stroke="midnightblue" points="1762.27,-210.46 1772.42,-207.44 1762.6,-203.47 1762.27,-210.46"/>
</g>
<!-- Node19 -->
<g id="node19" class="node">
<title>Node19</title>
<g id="a_node19"><a xlink:href="Standbys_8cpp.html" target="_top" xlink:title=" ">
<polygon fill="white" stroke="black" points="1264,-134.5 1264,-164.5 1401,-164.5 1401,-134.5 1264,-134.5"/>
<text text-anchor="start" x="1272" y="-152.5" font-family="Helvetica,sans-Serif" font-size="10.00">sources/APU/Instructions</text>
<text text-anchor="middle" x="1332.5" y="-141.5" font-family="Helvetica,sans-Serif" font-size="10.00">/Standbys.cpp</text>
</a>
</g>
</g>
<!-- Node2&#45;&gt;Node19 -->
<g id="edge18" class="edge">
<title>Node2&#45;&gt;Node19</title>
<path fill="none" stroke="midnightblue" d="M1762.23,-204.2C1677.8,-196.92 1533.01,-183.15 1409.5,-165 1406.81,-164.6 1404.07,-164.18 1401.3,-163.74"/>
<polygon fill="midnightblue" stroke="midnightblue" points="1761.96,-207.69 1772.22,-205.05 1762.55,-200.71 1761.96,-207.69"/>
</g>
<!-- Node20 -->
<g id="node20" class="node">
<title>Node20</title>
<g id="a_node20"><a xlink:href="Subroutine_8cpp.html" target="_top" xlink:title=" ">
<polygon fill="white" stroke="black" points="1419,-134.5 1419,-164.5 1556,-164.5 1556,-134.5 1419,-134.5"/>
<text text-anchor="start" x="1427" y="-152.5" font-family="Helvetica,sans-Serif" font-size="10.00">sources/APU/Instructions</text>
<text text-anchor="middle" x="1487.5" y="-141.5" font-family="Helvetica,sans-Serif" font-size="10.00">/Subroutine.cpp</text>
</a>
</g>
</g>
<!-- Node2&#45;&gt;Node20 -->
<g id="edge19" class="edge">
<title>Node2&#45;&gt;Node20</title>
<path fill="none" stroke="midnightblue" d="M1770.9,-199.81C1716.56,-190.88 1635.77,-177.43 1565.5,-165 1562.52,-164.47 1559.47,-163.93 1556.39,-163.37"/>
<polygon fill="midnightblue" stroke="midnightblue" points="1770.64,-203.31 1781.07,-201.47 1771.77,-196.4 1770.64,-203.31"/>
</g>
<!-- Node21 -->
<g id="node21" class="node">
<title>Node21</title>
<g id="a_node21"><a xlink:href="Operand_8cpp.html" target="_top" xlink:title=" ">
<polygon fill="white" stroke="black" points="1574.5,-140 1574.5,-159 1716.5,-159 1716.5,-140 1574.5,-140"/>
<text text-anchor="middle" x="1645.5" y="-147" font-family="Helvetica,sans-Serif" font-size="10.00">sources/APU/Operand.cpp</text>
</a>
</g>
</g>
<!-- Node2&#45;&gt;Node21 -->
<g id="edge20" class="edge">
<title>Node2&#45;&gt;Node21</title>
<path fill="none" stroke="midnightblue" d="M1796.79,-198.38C1760.24,-186.82 1705.03,-169.34 1672.39,-159.01"/>
<polygon fill="midnightblue" stroke="midnightblue" points="1795.97,-201.79 1806.56,-201.48 1798.09,-195.12 1795.97,-201.79"/>
</g>
<!-- Node22 -->
<g id="node22" class="node">
<title>Node22</title>
<g id="a_node22"><a xlink:href="APUDebug_8hpp.html" target="_top" xlink:title=" ">
<polygon fill="white" stroke="red" points="2272.5,-73 2272.5,-92 2452.5,-92 2452.5,-73 2272.5,-73"/>
<text text-anchor="middle" x="2362.5" y="-80" font-family="Helvetica,sans-Serif" font-size="10.00">sources/Debugger/APUDebug.hpp</text>
</a>
</g>
</g>
<!-- Node2&#45;&gt;Node22 -->
<g id="edge21" class="edge">
<title>Node2&#45;&gt;Node22</title>
<path fill="none" stroke="midnightblue" d="M1904.88,-207.38C2009.47,-202.72 2198.77,-190.92 2261.5,-165 2272.02,-160.65 2328.82,-112.42 2352.32,-92.27"/>
<polygon fill="midnightblue" stroke="midnightblue" points="1904.56,-203.89 1894.72,-207.82 1904.86,-210.88 1904.56,-203.89"/>
</g>
<!-- Node2&#45;&gt;Node24 -->
<g id="edge22" class="edge">
<title>Node2&#45;&gt;Node24</title>
<path fill="none" stroke="midnightblue" d="M1904.89,-209.47C2144.81,-207.41 2920.96,-198.25 3168.5,-165 3178.53,-163.65 3189.33,-161.37 3199,-159.01"/>
<polygon fill="midnightblue" stroke="midnightblue" points="1904.85,-205.97 1894.88,-209.56 1904.91,-212.97 1904.85,-205.97"/>
</g>
<!-- Node43 -->
<g id="node35" class="node">
<title>Node43</title>
<g id="a_node35"><a xlink:href="testAPU_8cpp.html" target="_top" xlink:title=" ">
<polygon fill="white" stroke="black" points="2018.5,-6 2018.5,-25 2144.5,-25 2144.5,-6 2018.5,-6"/>
<text text-anchor="middle" x="2081.5" y="-13" font-family="Helvetica,sans-Serif" font-size="10.00">tests/APU/testAPU.cpp</text>
</a>
</g>
</g>
<!-- Node2&#45;&gt;Node43 -->
<g id="edge56" class="edge">
<title>Node2&#45;&gt;Node43</title>
<path fill="none" stroke="midnightblue" d="M1799.68,-196.96C1785.86,-189.76 1771.32,-179.32 1763.5,-165 1756.9,-152.91 1755.62,-145.31 1763.5,-134 1820.94,-51.54 1943.23,-26.81 2018.3,-19.48"/>
<polygon fill="midnightblue" stroke="midnightblue" points="1798.5,-200.28 1809.03,-201.44 1801.52,-193.97 1798.5,-200.28"/>
</g>
<!-- Node44 -->
<g id="node36" class="node">
<title>Node44</title>
<g id="a_node36"><a xlink:href="testAPUInstructions_8cpp.html" target="_top" xlink:title=" ">
<polygon fill="white" stroke="black" points="2163,-6 2163,-25 2346,-25 2346,-6 2163,-6"/>
<text text-anchor="middle" x="2254.5" y="-13" font-family="Helvetica,sans-Serif" font-size="10.00">tests/APU/testAPUInstructions.cpp</text>
</a>
</g>
</g>
<!-- Node2&#45;&gt;Node44 -->
<g id="edge57" class="edge">
<title>Node2&#45;&gt;Node44</title>
<path fill="none" stroke="midnightblue" d="M1904.91,-206.45C2012.33,-200.43 2205.44,-186.72 2228.5,-165 2268.7,-127.14 2260.3,-50.81 2256.1,-25.14"/>
<polygon fill="midnightblue" stroke="midnightblue" points="1904.59,-202.96 1894.8,-207.01 1904.97,-209.95 1904.59,-202.96"/>
</g>
<!-- Node45 -->
<g id="node37" class="node">
<title>Node45</title>
<g id="a_node37"><a xlink:href="testOperand_8cpp.html" target="_top" xlink:title=" ">
<polygon fill="white" stroke="black" points="2364,-6 2364,-25 2511,-25 2511,-6 2364,-6"/>
<text text-anchor="middle" x="2437.5" y="-13" font-family="Helvetica,sans-Serif" font-size="10.00">tests/APU/testOperand.cpp</text>
</a>
</g>
</g>
<!-- Node2&#45;&gt;Node45 -->
<g id="edge58" class="edge">
<title>Node2&#45;&gt;Node45</title>
<path fill="none" stroke="midnightblue" d="M1905.07,-210.13C2061.26,-209.66 2421.81,-204.3 2459.5,-165 2497.38,-125.5 2458.31,-50.88 2443.05,-25.33"/>
<polygon fill="midnightblue" stroke="midnightblue" points="1904.62,-206.63 1894.63,-210.15 1904.64,-213.63 1904.62,-206.63"/>
</g>
<!-- Node24&#45;&gt;Node22 -->
<g id="edge23" class="edge">
<title>Node24&#45;&gt;Node22</title>
<path fill="none" stroke="midnightblue" d="M3188.25,-137.65C3181.68,-136.22 3174.93,-134.94 3168.5,-134 2883.06,-92.48 2808.17,-119.18 2520.5,-98 2497.29,-96.29 2472.18,-94.13 2448.97,-92"/>
<polygon fill="midnightblue" stroke="midnightblue" points="3187.83,-141.14 3198.36,-139.97 3189.4,-134.32 3187.83,-141.14"/>
</g>
<!-- Node25 -->
<g id="node24" class="node">
<title>Node25</title>
<g id="a_node24"><a xlink:href="CGramDebug_8cpp.html" target="_top" xlink:title=" ">
<polygon fill="white" stroke="black" points="2894,-73 2894,-92 3087,-92 3087,-73 2894,-73"/>
<text text-anchor="middle" x="2990.5" y="-80" font-family="Helvetica,sans-Serif" font-size="10.00">sources/Debugger/CGramDebug.cpp</text>
</a>
</g>
</g>
<!-- Node24&#45;&gt;Node25 -->
<g id="edge24" class="edge">
<title>Node24&#45;&gt;Node25</title>
<path fill="none" stroke="midnightblue" d="M3187.85,-137.17C3140.59,-124.32 3064.56,-103.64 3021.99,-92.06"/>
<polygon fill="midnightblue" stroke="midnightblue" points="3187.19,-140.62 3197.76,-139.87 3189.03,-133.87 3187.19,-140.62"/>
</g>
<!-- Node26 -->
<g id="node25" class="node">
<title>Node26</title>
<g id="a_node25"><a xlink:href="SFRenderer_8hpp.html" target="_top" xlink:title=" ">
<polygon fill="white" stroke="red" points="3926,-73 3926,-92 4107,-92 4107,-73 3926,-73"/>
<text text-anchor="middle" x="4016.5" y="-80" font-family="Helvetica,sans-Serif" font-size="10.00">sources/Renderer/SFRenderer.hpp</text>
</a>
</g>
</g>
<!-- Node24&#45;&gt;Node26 -->
<g id="edge25" class="edge">
<title>Node24&#45;&gt;Node26</title>
<path fill="none" stroke="midnightblue" d="M3292.02,-145.43C3413.02,-139.14 3687.59,-123.24 3917.5,-98 3932.35,-96.37 3948.39,-94.2 3963.16,-92.03"/>
<polygon fill="midnightblue" stroke="midnightblue" points="3291.64,-141.94 3281.83,-145.95 3292,-148.93 3291.64,-141.94"/>
</g>
<!-- Node27 -->
<g id="node26" class="node">
<title>Node27</title>
<g id="a_node26"><a xlink:href="CPUDebug_8hpp.html" target="_top" xlink:title=" ">
<polygon fill="white" stroke="red" points="3938.5,-0.5 3938.5,-30.5 4066.5,-30.5 4066.5,-0.5 3938.5,-0.5"/>
<text text-anchor="start" x="3946.5" y="-18.5" font-family="Helvetica,sans-Serif" font-size="10.00">sources/Debugger/CPU</text>
<text text-anchor="middle" x="4002.5" y="-7.5" font-family="Helvetica,sans-Serif" font-size="10.00">/CPUDebug.hpp</text>
</a>
</g>
</g>
<!-- Node24&#45;&gt;Node27 -->
<g id="edge28" class="edge">
<title>Node24&#45;&gt;Node27</title>
<path fill="none" stroke="midnightblue" d="M3228.05,-129.86C3227.71,-110.92 3230.54,-82.26 3248.5,-67 3274.62,-44.81 3760.65,-25.19 3938.23,-18.74"/>
<polygon fill="midnightblue" stroke="midnightblue" points="3224.56,-130.13 3228.54,-139.95 3231.55,-129.79 3224.56,-130.13"/>
</g>
<!-- Node30 -->
<g id="node27" class="node">
<title>Node30</title>
<g id="a_node27"><a xlink:href="main_8cpp.html" target="_top" xlink:title=" ">
<polygon fill="white" stroke="black" points="4084.5,-6 4084.5,-25 4186.5,-25 4186.5,-6 4084.5,-6"/>
<text text-anchor="middle" x="4135.5" y="-13" font-family="Helvetica,sans-Serif" font-size="10.00">sources/main.cpp</text>
</a>
</g>
</g>
<!-- Node24&#45;&gt;Node30 -->
<g id="edge33" class="edge">
<title>Node24&#45;&gt;Node30</title>
<path fill="none" stroke="midnightblue" d="M3291.97,-146.98C3488.8,-141.93 4084.99,-124.5 4116.5,-98 4138.18,-79.76 4137.86,-42.02 4136.47,-25.07"/>
<polygon fill="midnightblue" stroke="midnightblue" points="3291.7,-143.49 3281.79,-147.24 3291.88,-150.48 3291.7,-143.49"/>
</g>
<!-- Node36 -->
<g id="node28" class="node">
<title>Node36</title>
<g id="a_node28"><a xlink:href="HeaderViewer_8cpp.html" target="_top" xlink:title=" ">
<polygon fill="white" stroke="black" points="4163.5,-73 4163.5,-92 4359.5,-92 4359.5,-73 4163.5,-73"/>
<text text-anchor="middle" x="4261.5" y="-80" font-family="Helvetica,sans-Serif" font-size="10.00">sources/Debugger/HeaderViewer.cpp</text>
</a>
</g>
</g>
<!-- Node24&#45;&gt;Node36 -->
<g id="edge29" class="edge">
<title>Node24&#45;&gt;Node36</title>
<path fill="none" stroke="midnightblue" d="M3292.03,-146.66C3440.84,-141.94 3827.69,-127.62 4149.5,-98 4166.58,-96.43 4185.07,-94.24 4202.01,-92.03"/>
<polygon fill="midnightblue" stroke="midnightblue" points="3291.61,-143.17 3281.73,-146.99 3291.83,-150.17 3291.61,-143.17"/>
</g>
<!-- Node37 -->
<g id="node29" class="node">
<title>Node37</title>
<g id="a_node29"><a xlink:href="MemoryBusDebug_8cpp.html" target="_top" xlink:title=" ">
<polygon fill="white" stroke="black" points="3257.5,-67.5 3257.5,-97.5 3423.5,-97.5 3423.5,-67.5 3257.5,-67.5"/>
<text text-anchor="start" x="3265.5" y="-85.5" font-family="Helvetica,sans-Serif" font-size="10.00">sources/Debugger/MemoryBus</text>
<text text-anchor="middle" x="3340.5" y="-74.5" font-family="Helvetica,sans-Serif" font-size="10.00">Debug.cpp</text>
</a>
</g>
</g>
<!-- Node24&#45;&gt;Node37 -->
<g id="edge30" class="edge">
<title>Node24&#45;&gt;Node37</title>
<path fill="none" stroke="midnightblue" d="M3253.23,-134.6C3271.87,-123.69 3297.72,-108.55 3316.44,-97.59"/>
<polygon fill="midnightblue" stroke="midnightblue" points="3251.33,-131.66 3244.47,-139.73 3254.87,-137.7 3251.33,-131.66"/>
</g>
<!-- Node38 -->
<g id="node30" class="node">
<title>Node38</title>
<g id="a_node30"><a xlink:href="MemoryViewer_8cpp.html" target="_top" xlink:title=" ">
<polygon fill="white" stroke="black" points="4378,-73 4378,-92 4579,-92 4579,-73 4378,-73"/>
<text text-anchor="middle" x="4478.5" y="-80" font-family="Helvetica,sans-Serif" font-size="10.00">sources/Debugger/MemoryViewer.cpp</text>
</a>
</g>
</g>
<!-- Node24&#45;&gt;Node38 -->
<g id="edge31" class="edge">
<title>Node24&#45;&gt;Node38</title>
<path fill="none" stroke="midnightblue" d="M3291.66,-147.64C3463.36,-144.85 3958.61,-134.03 4368.5,-98 4385.67,-96.49 4404.28,-94.26 4421.23,-92.01"/>
<polygon fill="midnightblue" stroke="midnightblue" points="3291.49,-144.14 3281.54,-147.8 3291.6,-151.14 3291.49,-144.14"/>
</g>
<!-- Node39 -->
<g id="node31" class="node">
<title>Node39</title>
<g id="a_node31"><a xlink:href="RegisterViewer_8cpp.html" target="_top" xlink:title=" ">
<polygon fill="white" stroke="black" points="3441.5,-67.5 3441.5,-97.5 3589.5,-97.5 3589.5,-67.5 3441.5,-67.5"/>
<text text-anchor="start" x="3449.5" y="-85.5" font-family="Helvetica,sans-Serif" font-size="10.00">sources/Debugger/Register</text>
<text text-anchor="middle" x="3515.5" y="-74.5" font-family="Helvetica,sans-Serif" font-size="10.00">Viewer.cpp</text>
</a>
</g>
</g>
<!-- Node24&#45;&gt;Node39 -->
<g id="edge32" class="edge">
<title>Node24&#45;&gt;Node39</title>
<path fill="none" stroke="midnightblue" d="M3277.08,-137.69C3325.47,-126.69 3400.66,-109.6 3453.64,-97.56"/>
<polygon fill="midnightblue" stroke="midnightblue" points="3276.16,-134.31 3267.18,-139.94 3277.71,-141.13 3276.16,-134.31"/>
</g>
<!-- Node40 -->
<g id="node32" class="node">
<title>Node40</title>
<g id="a_node32"><a xlink:href="MemoryBus_8cpp.html" target="_top" xlink:title=" ">
<polygon fill="white" stroke="black" points="3608,-73 3608,-92 3787,-92 3787,-73 3608,-73"/>
<text text-anchor="middle" x="3697.5" y="-80" font-family="Helvetica,sans-Serif" font-size="10.00">sources/Memory/MemoryBus.cpp</text>
</a>
</g>
</g>
<!-- Node24&#45;&gt;Node40 -->
<g id="edge34" class="edge">
<title>Node24&#45;&gt;Node40</title>
<path fill="none" stroke="midnightblue" d="M3291.77,-140.16C3365.15,-130.29 3490.73,-113.27 3598.5,-98 3611.92,-96.1 3626.35,-94.01 3639.93,-92.03"/>
<polygon fill="midnightblue" stroke="midnightblue" points="3291.21,-136.7 3281.77,-141.5 3292.15,-143.64 3291.21,-136.7"/>
</g>
<!-- Node41 -->
<g id="node33" class="node">
<title>Node41</title>
<g id="a_node33"><a xlink:href="SNES_8cpp.html" target="_top" xlink:title=" ">
<polygon fill="white" stroke="black" points="3805,-73 3805,-92 3908,-92 3908,-73 3805,-73"/>
<text text-anchor="middle" x="3856.5" y="-80" font-family="Helvetica,sans-Serif" font-size="10.00">sources/SNES.cpp</text>
</a>
</g>
</g>
<!-- Node24&#45;&gt;Node41 -->
<g id="edge35" class="edge">
<title>Node24&#45;&gt;Node41</title>
<path fill="none" stroke="midnightblue" d="M3291.9,-145.97C3396.73,-141.05 3614.59,-127.91 3796.5,-98 3805.81,-96.47 3815.8,-94.28 3824.92,-92.06"/>
<polygon fill="midnightblue" stroke="midnightblue" points="3291.64,-142.48 3281.81,-146.44 3291.96,-149.47 3291.64,-142.48"/>
</g>
<!-- Node42 -->
<g id="node34" class="node">
<title>Node42</title>
<g id="a_node34"><a xlink:href="tests_8hpp.html" target="_top" xlink:title=" ">
<polygon fill="white" stroke="red" points="2692,-73 2692,-92 2781,-92 2781,-73 2692,-73"/>
<text text-anchor="middle" x="2736.5" y="-80" font-family="Helvetica,sans-Serif" font-size="10.00">tests/tests.hpp</text>
</a>
</g>
</g>
<!-- Node24&#45;&gt;Node42 -->
<g id="edge36" class="edge">
<title>Node24&#45;&gt;Node42</title>
<path fill="none" stroke="midnightblue" d="M3186.9,-137.62C3180.75,-136.27 3174.48,-135.01 3168.5,-134 3012.13,-107.6 2970.45,-120.69 2813.5,-98 2802.06,-96.35 2789.72,-94.19 2778.35,-92.05"/>
<polygon fill="midnightblue" stroke="midnightblue" points="3186.53,-141.12 3197.06,-139.95 3188.09,-134.3 3186.53,-141.12"/>
</g>
<!-- Node24&#45;&gt;Node43 -->
<g id="edge47" class="edge">
<title>Node24&#45;&gt;Node43</title>
<path fill="none" stroke="midnightblue" d="M3188.25,-137.66C3181.68,-136.24 3174.93,-134.94 3168.5,-134 2895.4,-93.93 2819.01,-152.88 2548.5,-98 2508.27,-89.84 2501.47,-76.33 2461.5,-67 2327.29,-35.67 2289.61,-52.62 2153.5,-31 2142.92,-29.32 2131.53,-27.18 2121.01,-25.07"/>
<polygon fill="midnightblue" stroke="midnightblue" points="3187.83,-141.16 3198.36,-139.99 3189.4,-134.33 3187.83,-141.16"/>
</g>
<!-- Node24&#45;&gt;Node44 -->
<g id="edge48" class="edge">
<title>Node24&#45;&gt;Node44</title>
<path fill="none" stroke="midnightblue" d="M3188.03,-137.64C3181.53,-136.23 3174.86,-134.95 3168.5,-134 3042.09,-115.15 2715.5,-139.15 2594.5,-98 2571.16,-90.06 2571.38,-76.18 2548.5,-67 2526.93,-58.35 2391.07,-37 2311.79,-25.02"/>
<polygon fill="midnightblue" stroke="midnightblue" points="3187.51,-141.11 3198.04,-139.94 3189.08,-134.29 3187.51,-141.11"/>
</g>
<!-- Node24&#45;&gt;Node45 -->
<g id="edge49" class="edge">
<title>Node24&#45;&gt;Node45</title>
<path fill="none" stroke="midnightblue" d="M3188.03,-137.67C3181.53,-136.26 3174.86,-134.97 3168.5,-134 2935.96,-98.68 2862.98,-174.34 2640.5,-98 2617.18,-90 2616.68,-77.77 2594.5,-67 2554.97,-47.8 2506.39,-33.47 2473.84,-25.07"/>
<polygon fill="midnightblue" stroke="midnightblue" points="3187.5,-141.14 3198.03,-139.97 3189.07,-134.32 3187.5,-141.14"/>
</g>
<!-- Node46 -->
<g id="node38" class="node">
<title>Node46</title>
<g id="a_node38"><a xlink:href="testADC_8cpp.html" target="_top" xlink:title=" ">
<polygon fill="white" stroke="black" points="2529,-6 2529,-25 2684,-25 2684,-6 2529,-6"/>
<text text-anchor="middle" x="2606.5" y="-13" font-family="Helvetica,sans-Serif" font-size="10.00">tests/CPU/Math/testADC.cpp</text>
</a>
</g>
</g>
<!-- Node24&#45;&gt;Node46 -->
<g id="edge50" class="edge">
<title>Node24&#45;&gt;Node46</title>
<path fill="none" stroke="midnightblue" d="M3187.81,-137.66C3181.37,-136.26 3174.78,-134.97 3168.5,-134 3061.48,-117.43 2780.15,-144.82 2682.5,-98 2648.31,-81.6 2621.92,-42.54 2611.43,-25.13"/>
<polygon fill="midnightblue" stroke="midnightblue" points="3187.18,-141.11 3197.71,-139.93 3188.75,-134.28 3187.18,-141.11"/>
</g>
<!-- Node47 -->
<g id="node39" class="node">
<title>Node47</title>
<g id="a_node39"><a xlink:href="testCMP_8cpp.html" target="_top" xlink:title=" ">
<polygon fill="white" stroke="black" points="2702.5,-6 2702.5,-25 2856.5,-25 2856.5,-6 2702.5,-6"/>
<text text-anchor="middle" x="2779.5" y="-13" font-family="Helvetica,sans-Serif" font-size="10.00">tests/CPU/Math/testCMP.cpp</text>
</a>
</g>
</g>
<!-- Node24&#45;&gt;Node47 -->
<g id="edge51" class="edge">
<title>Node24&#45;&gt;Node47</title>
<path fill="none" stroke="midnightblue" d="M3186.67,-137.68C3180.59,-136.33 3174.4,-135.06 3168.5,-134 3038.93,-110.74 2994.94,-151.13 2874.5,-98 2835.73,-80.9 2800.9,-42.56 2786.51,-25.26"/>
<polygon fill="midnightblue" stroke="midnightblue" points="3186.19,-141.16 3196.72,-140 3187.76,-134.34 3186.19,-141.16"/>
</g>
<!-- Node48 -->
<g id="node40" class="node">
<title>Node48</title>
<g id="a_node40"><a xlink:href="testOthersMath_8cpp.html" target="_top" xlink:title=" ">
<polygon fill="white" stroke="black" points="2874.5,-0.5 2874.5,-30.5 3020.5,-30.5 3020.5,-0.5 2874.5,-0.5"/>
<text text-anchor="start" x="2882.5" y="-18.5" font-family="Helvetica,sans-Serif" font-size="10.00">tests/CPU/Math/testOthers</text>
<text text-anchor="middle" x="2947.5" y="-7.5" font-family="Helvetica,sans-Serif" font-size="10.00">Math.cpp</text>
</a>
</g>
</g>
<!-- Node24&#45;&gt;Node48 -->
<g id="edge52" class="edge">
<title>Node24&#45;&gt;Node48</title>
<path fill="none" stroke="midnightblue" d="M3186.45,-137.66C3180.44,-136.32 3174.33,-135.06 3168.5,-134 3105.91,-122.63 2926.56,-145.73 2884.5,-98 2864.64,-75.46 2897.98,-47.4 2923.24,-30.78"/>
<polygon fill="midnightblue" stroke="midnightblue" points="3185.86,-141.12 3196.39,-139.95 3187.43,-134.29 3185.86,-141.12"/>
</g>
<!-- Node49 -->
<g id="node41" class="node">
<title>Node49</title>
<g id="a_node41"><a xlink:href="testSBC_8cpp.html" target="_top" xlink:title=" ">
<polygon fill="white" stroke="black" points="3039,-6 3039,-25 3192,-25 3192,-6 3039,-6"/>
<text text-anchor="middle" x="3115.5" y="-13" font-family="Helvetica,sans-Serif" font-size="10.00">tests/CPU/Math/testSBC.cpp</text>
</a>
</g>
</g>
<!-- Node24&#45;&gt;Node49 -->
<g id="edge53" class="edge">
<title>Node24&#45;&gt;Node49</title>
<path fill="none" stroke="midnightblue" d="M3208.86,-133.52C3196.65,-124.1 3181.31,-111.25 3169.5,-98 3148.04,-73.93 3128.69,-40.69 3120.14,-25.16"/>
<polygon fill="midnightblue" stroke="midnightblue" points="3207.02,-136.51 3217.11,-139.73 3211.23,-130.92 3207.02,-136.51"/>
</g>
<!-- Node50 -->
<g id="node42" class="node">
<title>Node50</title>
<g id="a_node42"><a xlink:href="testAddressingMode_8cpp.html" target="_top" xlink:title=" ">
<polygon fill="white" stroke="black" points="3210.5,-0.5 3210.5,-30.5 3350.5,-30.5 3350.5,-0.5 3210.5,-0.5"/>
<text text-anchor="start" x="3218.5" y="-18.5" font-family="Helvetica,sans-Serif" font-size="10.00">tests/CPU/testAddressing</text>
<text text-anchor="middle" x="3280.5" y="-7.5" font-family="Helvetica,sans-Serif" font-size="10.00">Mode.cpp</text>
</a>
</g>
</g>
<!-- Node24&#45;&gt;Node50 -->
<g id="edge54" class="edge">
<title>Node24&#45;&gt;Node50</title>
<path fill="none" stroke="midnightblue" d="M3208.72,-133.69C3188.53,-117.4 3162.89,-90.43 3177.5,-67 3188.3,-49.68 3206.96,-38.13 3225.46,-30.51"/>
<polygon fill="midnightblue" stroke="midnightblue" points="3206.85,-136.66 3216.91,-139.97 3211.11,-131.11 3206.85,-136.66"/>
</g>
<!-- Node51 -->
<g id="node43" class="node">
<title>Node51</title>
<g id="a_node43"><a xlink:href="testBits_8cpp.html" target="_top" xlink:title=" ">
<polygon fill="white" stroke="black" points="3369,-6 3369,-25 3494,-25 3494,-6 3369,-6"/>
<text text-anchor="middle" x="3431.5" y="-13" font-family="Helvetica,sans-Serif" font-size="10.00">tests/CPU/testBits.cpp</text>
</a>
</g>
</g>
<!-- Node24&#45;&gt;Node51 -->
<g id="edge55" class="edge">
<title>Node24&#45;&gt;Node51</title>
<path fill="none" stroke="midnightblue" d="M3219.38,-130.97C3210.49,-113.02 3201.05,-85.22 3215.5,-67 3220.94,-60.15 3327.53,-37.57 3388.9,-25.05"/>
<polygon fill="midnightblue" stroke="midnightblue" points="3216.3,-132.64 3224.1,-139.81 3222.48,-129.35 3216.3,-132.64"/>
</g>
<!-- Node26&#45;&gt;Node27 -->
<g id="edge26" class="edge">
<title>Node26&#45;&gt;Node27</title>
<path fill="none" stroke="midnightblue" d="M4012.46,-62.74C4010.25,-52.49 4007.56,-40 4005.53,-30.59"/>
<polygon fill="midnightblue" stroke="midnightblue" points="4009.08,-63.69 4014.61,-72.73 4015.93,-62.22 4009.08,-63.69"/>
</g>
<!-- Node26&#45;&gt;Node30 -->
<g id="edge27" class="edge">
<title>Node26&#45;&gt;Node30</title>
<path fill="none" stroke="midnightblue" d="M4041.61,-67.79C4065.19,-54.9 4099.76,-36.02 4119.71,-25.13"/>
<polygon fill="midnightblue" stroke="midnightblue" points="4039.65,-64.87 4032.55,-72.73 4043,-71.01 4039.65,-64.87"/>
</g>
<!-- Node42&#45;&gt;Node42 -->
<g id="edge38" class="edge">
<title>Node42&#45;&gt;Node42</title>
<path fill="none" stroke="midnightblue" d="M2766.08,-94.2C2783.13,-96.58 2799,-92.68 2799,-82.5 2799,-70.32 2776.29,-67.13 2756.02,-72.94"/>
<polygon fill="midnightblue" stroke="midnightblue" points="2766.53,-90.71 2756.02,-92.06 2765.08,-97.56 2766.53,-90.71"/>
</g>
<!-- Node42&#45;&gt;Node43 -->
<g id="edge37" class="edge">
<title>Node42&#45;&gt;Node43</title>
<path fill="none" stroke="midnightblue" d="M2681.79,-77.11C2546.77,-66.24 2204.96,-38.39 2153.5,-31 2142.52,-29.42 2130.69,-27.24 2119.85,-25.05"/>
<polygon fill="midnightblue" stroke="midnightblue" points="2681.66,-80.61 2691.91,-77.93 2682.22,-73.64 2681.66,-80.61"/>
</g>
<!-- Node42&#45;&gt;Node44 -->
<g id="edge39" class="edge">
<title>Node42&#45;&gt;Node44</title>
<path fill="none" stroke="midnightblue" d="M2681.73,-74.48C2607.53,-64.92 2470.95,-47.14 2354.5,-31 2340.86,-29.11 2326.18,-27.01 2312.38,-25.02"/>
<polygon fill="midnightblue" stroke="midnightblue" points="2681.41,-77.97 2691.78,-75.77 2682.31,-71.02 2681.41,-77.97"/>
</g>
<!-- Node42&#45;&gt;Node45 -->
<g id="edge40" class="edge">
<title>Node42&#45;&gt;Node45</title>
<path fill="none" stroke="midnightblue" d="M2687.29,-70.8C2628.45,-58.01 2531.15,-36.86 2476.98,-25.08"/>
<polygon fill="midnightblue" stroke="midnightblue" points="2686.59,-74.23 2697.1,-72.94 2688.08,-67.39 2686.59,-74.23"/>
</g>
<!-- Node42&#45;&gt;Node46 -->
<g id="edge41" class="edge">
<title>Node42&#45;&gt;Node46</title>
<path fill="none" stroke="midnightblue" d="M2710.05,-68.27C2684.3,-55.4 2645.92,-36.21 2623.83,-25.17"/>
<polygon fill="midnightblue" stroke="midnightblue" points="2708.73,-71.53 2719.24,-72.87 2711.86,-65.27 2708.73,-71.53"/>
</g>
<!-- Node42&#45;&gt;Node47 -->
<g id="edge42" class="edge">
<title>Node42&#45;&gt;Node47</title>
<path fill="none" stroke="midnightblue" d="M2748.05,-64.03C2756.38,-51.45 2767.26,-35.01 2773.79,-25.13"/>
<polygon fill="midnightblue" stroke="midnightblue" points="2744.9,-62.46 2742.3,-72.73 2750.74,-66.32 2744.9,-62.46"/>
</g>
<!-- Node42&#45;&gt;Node48 -->
<g id="edge43" class="edge">
<title>Node42&#45;&gt;Node48</title>
<path fill="none" stroke="midnightblue" d="M2774.1,-69.92C2809.88,-58.9 2863.77,-42.29 2901.96,-30.53"/>
<polygon fill="midnightblue" stroke="midnightblue" points="2773.05,-66.58 2764.52,-72.87 2775.11,-73.27 2773.05,-66.58"/>
</g>
<!-- Node42&#45;&gt;Node49 -->
<g id="edge44" class="edge">
<title>Node42&#45;&gt;Node49</title>
<path fill="none" stroke="midnightblue" d="M2791.09,-72.14C2864.67,-59.52 2994.63,-37.23 3065.68,-25.04"/>
<polygon fill="midnightblue" stroke="midnightblue" points="2790.36,-68.71 2781.09,-73.85 2791.54,-75.61 2790.36,-68.71"/>
</g>
<!-- Node42&#45;&gt;Node50 -->
<g id="edge45" class="edge">
<title>Node42&#45;&gt;Node50</title>
<path fill="none" stroke="midnightblue" d="M2791.21,-76.04C2896.27,-65.47 3122.7,-42.27 3200.5,-31 3203.71,-30.53 3206.99,-30.04 3210.31,-29.51"/>
<polygon fill="midnightblue" stroke="midnightblue" points="2790.73,-72.57 2781.13,-77.05 2791.43,-79.53 2790.73,-72.57"/>
</g>
<!-- Node42&#45;&gt;Node51 -->
<g id="edge46" class="edge">
<title>Node42&#45;&gt;Node51</title>
<path fill="none" stroke="midnightblue" d="M2791.13,-75.86C2819.05,-73.05 2853.57,-69.69 2884.5,-67 3095.42,-48.68 3149.77,-59.95 3359.5,-31 3370.62,-29.47 3382.6,-27.27 3393.54,-25.06"/>
<polygon fill="midnightblue" stroke="midnightblue" points="2790.76,-72.38 2781.16,-76.87 2791.47,-79.34 2790.76,-72.38"/>
</g>
<!-- Node61&#45;&gt;Node24 -->
<g id="edge64" class="edge">
<title>Node61&#45;&gt;Node24</title>
<path fill="none" stroke="midnightblue" d="M3409.43,-254.46C3384.78,-246.61 3352.96,-235.1 3326.5,-221 3292.14,-202.69 3256.22,-173.51 3239.35,-159.11"/>
<polygon fill="midnightblue" stroke="midnightblue" points="3408.59,-257.86 3419.18,-257.49 3410.67,-251.18 3408.59,-257.86"/>
</g>
<!-- Node62 -->
<g id="node45" class="node">
<title>Node62</title>
<g id="a_node45"><a xlink:href="Cartridge_8cpp.html" target="_top" xlink:title=" ">
<polygon fill="white" stroke="black" points="3335.5,-201.5 3335.5,-220.5 3505.5,-220.5 3505.5,-201.5 3335.5,-201.5"/>
<text text-anchor="middle" x="3420.5" y="-208.5" font-family="Helvetica,sans-Serif" font-size="10.00">sources/Cartridge/Cartridge.cpp</text>
</a>
</g>
</g>
<!-- Node61&#45;&gt;Node62 -->
<g id="edge60" class="edge">
<title>Node61&#45;&gt;Node62</title>
<path fill="none" stroke="midnightblue" d="M3439.82,-247.98C3434.9,-238.82 3429.14,-228.09 3425.2,-220.75"/>
<polygon fill="midnightblue" stroke="midnightblue" points="3436.9,-249.93 3444.71,-257.08 3443.06,-246.62 3436.9,-249.93"/>
</g>
<!-- Node63 -->
<g id="node46" class="node">
<title>Node63</title>
<g id="a_node46"><a xlink:href="CPU_8hpp.html" target="_top" xlink:title=" ">
<polygon fill="white" stroke="red" points="3523.5,-201.5 3523.5,-220.5 3645.5,-220.5 3645.5,-201.5 3523.5,-201.5"/>
<text text-anchor="middle" x="3584.5" y="-208.5" font-family="Helvetica,sans-Serif" font-size="10.00">sources/CPU/CPU.hpp</text>
</a>
</g>
</g>
<!-- Node61&#45;&gt;Node63 -->
<g id="edge61" class="edge">
<title>Node61&#45;&gt;Node63</title>
<path fill="none" stroke="midnightblue" d="M3480.41,-253.64C3505.74,-243.5 3540.93,-229.43 3563.21,-220.52"/>
<polygon fill="midnightblue" stroke="midnightblue" points="3478.88,-250.48 3470.89,-257.44 3481.48,-256.98 3478.88,-250.48"/>
</g>
<!-- Node72 -->
<g id="node47" class="node">
<title>Node72</title>
<g id="a_node47"><a xlink:href="HeaderViewer_8hpp.html" target="_top" xlink:title=" ">
<polygon fill="white" stroke="black" points="3906,-201.5 3906,-220.5 4103,-220.5 4103,-201.5 3906,-201.5"/>
<text text-anchor="middle" x="4004.5" y="-208.5" font-family="Helvetica,sans-Serif" font-size="10.00">sources/Debugger/HeaderViewer.hpp</text>
</a>
</g>
</g>
<!-- Node61&#45;&gt;Node72 -->
<g id="edge65" class="edge">
<title>Node61&#45;&gt;Node72</title>
<path fill="none" stroke="midnightblue" d="M3545.24,-256.68C3649.82,-246.51 3815.89,-230.35 3917.07,-220.51"/>
<polygon fill="midnightblue" stroke="midnightblue" points="3544.62,-253.23 3535,-257.68 3545.29,-260.2 3544.62,-253.23"/>
</g>
<!-- Node63&#45;&gt;Node24 -->
<g id="edge62" class="edge">
<title>Node63&#45;&gt;Node24</title>
<path fill="none" stroke="midnightblue" d="M3523.4,-199.76C3454.71,-188.25 3344.41,-169.76 3280.27,-159.01"/>
<polygon fill="midnightblue" stroke="midnightblue" points="3523.2,-203.27 3533.64,-201.48 3524.35,-196.37 3523.2,-203.27"/>
</g>
<!-- Node63&#45;&gt;Node27 -->
<g id="edge63" class="edge">
<title>Node63&#45;&gt;Node27</title>
<path fill="none" stroke="midnightblue" d="M3655.85,-207.43C3874.84,-198.81 4526.34,-167.48 4588.5,-98 4597.69,-87.73 4597.9,-77.08 4588.5,-67 4549.54,-25.21 4132.14,-38.58 4075.5,-31 4072.55,-30.61 4069.55,-30.17 4066.52,-29.69"/>
<polygon fill="midnightblue" stroke="midnightblue" points="3655.61,-203.93 3645.75,-207.82 3655.88,-210.93 3655.61,-203.93"/>
</g>
<!-- Node72&#45;&gt;Node36 -->
<g id="edge66" class="edge">
<title>Node72&#45;&gt;Node36</title>
<path fill="none" stroke="midnightblue" d="M4031.24,-196.84C4083.95,-170.89 4199.98,-113.78 4244.05,-92.09"/>
<polygon fill="midnightblue" stroke="midnightblue" points="4029.59,-193.75 4022.16,-201.31 4032.68,-200.03 4029.59,-193.75"/>
</g>
<!-- Node73&#45;&gt;Node24 -->
<g id="edge69" class="edge">
<title>Node73&#45;&gt;Node24</title>
<path fill="none" stroke="midnightblue" d="M3276.86,-248.18C3264.68,-223.06 3242.92,-178.19 3233.76,-159.28"/>
<polygon fill="midnightblue" stroke="midnightblue" points="3273.78,-249.85 3281.29,-257.32 3280.08,-246.79 3273.78,-249.85"/>
</g>
<!-- Node77&#45;&gt;Node38 -->
<g id="edge71" class="edge">
<title>Node77&#45;&gt;Node38</title>
<path fill="none" stroke="midnightblue" d="M3765.47,-256.62C3890.18,-245.85 4079.59,-228.66 4112.5,-221 4251.33,-188.69 4408.68,-116.86 4460.74,-92.09"/>
<polygon fill="midnightblue" stroke="midnightblue" points="3765.15,-253.14 3755.49,-257.49 3765.75,-260.11 3765.15,-253.14"/>
</g>
</g>
</svg>
