<?xml version="1.0" encoding="UTF-8" standalone="no"?>
<!DOCTYPE svg PUBLIC "-//W3C//DTD SVG 1.1//EN"
 "http://www.w3.org/Graphics/SVG/1.1/DTD/svg11.dtd">
<!-- Generated by graphviz version 2.43.0 (0)
 -->
<!-- Title: sources/Memory/RectangleShadow.cpp Pages: 1 -->
<svg width="554pt" height="319pt"
 viewBox="0.00 0.00 554.00 319.00" xmlns="http://www.w3.org/2000/svg" xmlns:xlink="http://www.w3.org/1999/xlink">
<g id="graph0" class="graph" transform="scale(1 1) rotate(0) translate(4 315)">
<title>sources/Memory/RectangleShadow.cpp</title>
<polygon fill="white" stroke="transparent" points="-4,4 -4,-315 550,-315 550,4 -4,4"/>
<!-- Node1 -->
<g id="node1" class="node">
<title>Node1</title>
<g id="a_node1"><a xlink:title=" ">
<polygon fill="#bfbfbf" stroke="black" points="144.5,-280.5 144.5,-310.5 293.5,-310.5 293.5,-280.5 144.5,-280.5"/>
<text text-anchor="start" x="152.5" y="-298.5" font-family="Helvetica,sans-Serif" font-size="10.00">sources/Memory/Rectangle</text>
<text text-anchor="middle" x="219" y="-287.5" font-family="Helvetica,sans-Serif" font-size="10.00">Shadow.cpp</text>
</a>
</g>
</g>
<!-- Node2 -->
<g id="node2" class="node">
<title>Node2</title>
<g id="a_node2"><a xlink:href="RectangleShadow_8hpp.html" target="_top" xlink:title=" ">
<polygon fill="white" stroke="black" points="54,-224.5 54,-243.5 178,-243.5 178,-224.5 54,-224.5"/>
<text text-anchor="middle" x="116" y="-231.5" font-family="Helvetica,sans-Serif" font-size="10.00">RectangleShadow.hpp</text>
</a>
</g>
</g>
<!-- Node1&#45;&gt;Node2 -->
<g id="edge1" class="edge">
<title>Node1&#45;&gt;Node2</title>
<path fill="none" stroke="midnightblue" d="M194.59,-280.4C178.08,-270.86 156.38,-258.32 139.96,-248.84"/>
<polygon fill="midnightblue" stroke="midnightblue" points="141.4,-245.63 130.99,-243.66 137.9,-251.69 141.4,-245.63"/>
</g>
<!-- Node13 -->
<g id="node13" class="node">
<title>Node13</title>
<g id="a_node13"><a xlink:title=" ">
<polygon fill="white" stroke="#bfbfbf" points="196.5,-224.5 196.5,-243.5 241.5,-243.5 241.5,-224.5 196.5,-224.5"/>
<text text-anchor="middle" x="219" y="-231.5" font-family="Helvetica,sans-Serif" font-size="10.00">utility</text>
</a>
</g>
</g>
<!-- Node1&#45;&gt;Node13 -->
<g id="edge21" class="edge">
<title>Node1&#45;&gt;Node13</title>
<path fill="none" stroke="midnightblue" d="M219,-280.4C219,-272.47 219,-262.46 219,-253.86"/>
<polygon fill="midnightblue" stroke="midnightblue" points="222.5,-253.66 219,-243.66 215.5,-253.66 222.5,-253.66"/>
</g>
<!-- Node14 -->
<g id="node14" class="node">
<title>Node14</title>
<g id="a_node14"><a xlink:title=" ">
<polygon fill="white" stroke="#bfbfbf" points="260,-224.5 260,-243.5 320,-243.5 320,-224.5 260,-224.5"/>
<text text-anchor="middle" x="290" y="-231.5" font-family="Helvetica,sans-Serif" font-size="10.00">iostream</text>
</a>
</g>
</g>
<!-- Node1&#45;&gt;Node14 -->
<g id="edge22" class="edge">
<title>Node1&#45;&gt;Node14</title>
<path fill="none" stroke="midnightblue" d="M235.83,-280.4C246.67,-271.31 260.78,-259.49 271.87,-250.19"/>
<polygon fill="midnightblue" stroke="midnightblue" points="274.25,-252.76 279.67,-243.66 269.76,-247.4 274.25,-252.76"/>
</g>
<!-- Node3 -->
<g id="node3" class="node">
<title>Node3</title>
<g id="a_node3"><a xlink:title=" ">
<polygon fill="white" stroke="#bfbfbf" points="0,-0.5 0,-19.5 58,-19.5 58,-0.5 0,-0.5"/>
<text text-anchor="middle" x="29" y="-7.5" font-family="Helvetica,sans-Serif" font-size="10.00">memory</text>
</a>
</g>
</g>
<!-- Node2&#45;&gt;Node3 -->
<g id="edge2" class="edge">
<title>Node2&#45;&gt;Node3</title>
<path fill="none" stroke="midnightblue" d="M94.44,-224.45C79.09,-217.16 59.4,-205.12 49,-188 18.27,-137.42 22.31,-63.55 26.3,-29.48"/>
<polygon fill="midnightblue" stroke="midnightblue" points="29.78,-29.91 27.61,-19.54 22.84,-29 29.78,-29.91"/>
</g>
<!-- Node4 -->
<g id="node4" class="node">
<title>Node4</title>
<g id="a_node4"><a xlink:href="ARectangleMemory_8hpp.html" target="_top" xlink:title=" ">
<polygon fill="white" stroke="black" points="209,-112.5 209,-131.5 341,-131.5 341,-112.5 209,-112.5"/>
<text text-anchor="middle" x="275" y="-119.5" font-family="Helvetica,sans-Serif" font-size="10.00">ARectangleMemory.hpp</text>
</a>
</g>
</g>
<!-- Node2&#45;&gt;Node4 -->
<g id="edge3" class="edge">
<title>Node2&#45;&gt;Node4</title>
<path fill="none" stroke="midnightblue" d="M128.91,-224.46C142.44,-215.48 164.31,-200.88 183,-188 207.91,-170.84 236.31,-150.68 254.88,-137.42"/>
<polygon fill="midnightblue" stroke="midnightblue" points="257.06,-140.17 263.15,-131.5 252.98,-134.47 257.06,-140.17"/>
</g>
<!-- Node11 -->
<g id="node11" class="node">
<title>Node11</title>
<g id="a_node11"><a xlink:href="MemoryShadow_8hpp.html" target="_top" xlink:title=" ">
<polygon fill="white" stroke="black" points="58,-168.5 58,-187.5 174,-187.5 174,-168.5 58,-168.5"/>
<text text-anchor="middle" x="116" y="-175.5" font-family="Helvetica,sans-Serif" font-size="10.00">MemoryShadow.hpp</text>
</a>
</g>
</g>
<!-- Node2&#45;&gt;Node11 -->
<g id="edge11" class="edge">
<title>Node2&#45;&gt;Node11</title>
<path fill="none" stroke="midnightblue" d="M116,-224.08C116,-217.01 116,-206.86 116,-197.99"/>
<polygon fill="midnightblue" stroke="midnightblue" points="119.5,-197.75 116,-187.75 112.5,-197.75 119.5,-197.75"/>
</g>
<!-- Node5 -->
<g id="node5" class="node">
<title>Node5</title>
<g id="a_node5"><a xlink:href="IMemory_8hpp.html" target="_top" xlink:title=" ">
<polygon fill="white" stroke="black" points="225,-56.5 225,-75.5 305,-75.5 305,-56.5 225,-56.5"/>
<text text-anchor="middle" x="265" y="-63.5" font-family="Helvetica,sans-Serif" font-size="10.00">IMemory.hpp</text>
</a>
</g>
</g>
<!-- Node4&#45;&gt;Node5 -->
<g id="edge4" class="edge">
<title>Node4&#45;&gt;Node5</title>
<path fill="none" stroke="midnightblue" d="M273.35,-112.08C272.02,-104.93 270.12,-94.64 268.46,-85.69"/>
<polygon fill="midnightblue" stroke="midnightblue" points="271.88,-84.95 266.62,-75.75 265,-86.22 271.88,-84.95"/>
</g>
<!-- Node5&#45;&gt;Node3 -->
<g id="edge7" class="edge">
<title>Node5&#45;&gt;Node3</title>
<path fill="none" stroke="midnightblue" d="M227.02,-56.48C189.17,-47.96 129.12,-34.38 67.88,-20.19"/>
<polygon fill="midnightblue" stroke="midnightblue" points="68.57,-16.76 58.04,-17.91 66.99,-23.58 68.57,-16.76"/>
</g>
<!-- Node6 -->
<g id="node6" class="node">
<title>Node6</title>
<g id="a_node6"><a xlink:title=" ">
<polygon fill="white" stroke="#bfbfbf" points="496,-0.5 496,-19.5 546,-19.5 546,-0.5 496,-0.5"/>
<text text-anchor="middle" x="521" y="-7.5" font-family="Helvetica,sans-Serif" font-size="10.00">cstdint</text>
</a>
</g>
</g>
<!-- Node5&#45;&gt;Node6 -->
<g id="edge5" class="edge">
<title>Node5&#45;&gt;Node6</title>
<path fill="none" stroke="midnightblue" d="M305.26,-57.58C347.76,-49.58 416.94,-36.09 485.66,-20.21"/>
<polygon fill="midnightblue" stroke="midnightblue" points="486.85,-23.53 495.79,-17.85 485.26,-16.71 486.85,-23.53"/>
</g>
<!-- Node7 -->
<g id="node7" class="node">
<title>Node7</title>
<g id="a_node7"><a xlink:title=" ">
<polygon fill="white" stroke="#bfbfbf" points="76.5,-0.5 76.5,-19.5 123.5,-19.5 123.5,-0.5 76.5,-0.5"/>
<text text-anchor="middle" x="100" y="-7.5" font-family="Helvetica,sans-Serif" font-size="10.00">vector</text>
</a>
</g>
</g>
<!-- Node5&#45;&gt;Node7 -->
<g id="edge6" class="edge">
<title>Node5&#45;&gt;Node7</title>
<path fill="none" stroke="midnightblue" d="M238.86,-56.44C210.24,-47.08 164.29,-32.04 133.16,-21.85"/>
<polygon fill="midnightblue" stroke="midnightblue" points="134.21,-18.51 123.62,-18.73 132.03,-25.17 134.21,-18.51"/>
</g>
<!-- Node8 -->
<g id="node8" class="node">
<title>Node8</title>
<g id="a_node8"><a xlink:title=" ">
<polygon fill="white" stroke="#bfbfbf" points="142,-0.5 142,-19.5 186,-19.5 186,-0.5 142,-0.5"/>
<text text-anchor="middle" x="164" y="-7.5" font-family="Helvetica,sans-Serif" font-size="10.00">string</text>
</a>
</g>
</g>
<!-- Node5&#45;&gt;Node8 -->
<g id="edge8" class="edge">
<title>Node5&#45;&gt;Node8</title>
<path fill="none" stroke="midnightblue" d="M248.77,-56.32C232.65,-47.7 207.7,-34.36 189.04,-24.39"/>
<polygon fill="midnightblue" stroke="midnightblue" points="190.66,-21.28 180.19,-19.65 187.36,-27.46 190.66,-21.28"/>
</g>
<!-- Node9 -->
<g id="node9" class="node">
<title>Node9</title>
<g id="a_node9"><a xlink:href="Int24_8hpp.html" target="_top" xlink:title=" ">
<polygon fill="white" stroke="black" points="204,-0.5 204,-19.5 314,-19.5 314,-0.5 204,-0.5"/>
<text text-anchor="middle" x="259" y="-7.5" font-family="Helvetica,sans-Serif" font-size="10.00">../Models/Int24.hpp</text>
</a>
</g>
</g>
<!-- Node5&#45;&gt;Node9 -->
<g id="edge9" class="edge">
<title>Node5&#45;&gt;Node9</title>
<path fill="none" stroke="midnightblue" d="M264.01,-56.08C263.21,-48.93 262.07,-38.64 261.08,-29.69"/>
<polygon fill="midnightblue" stroke="midnightblue" points="264.56,-29.3 259.97,-19.75 257.6,-30.08 264.56,-29.3"/>
</g>
<!-- Node10 -->
<g id="node10" class="node">
<title>Node10</title>
<g id="a_node10"><a xlink:href="Components_8hpp.html" target="_top" xlink:title=" ">
<polygon fill="white" stroke="black" points="332,-0.5 332,-19.5 478,-19.5 478,-0.5 332,-0.5"/>
<text text-anchor="middle" x="405" y="-7.5" font-family="Helvetica,sans-Serif" font-size="10.00">../Models/Components.hpp</text>
</a>
</g>
</g>
<!-- Node5&#45;&gt;Node10 -->
<g id="edge10" class="edge">
<title>Node5&#45;&gt;Node10</title>
<path fill="none" stroke="midnightblue" d="M287.18,-56.44C310.43,-47.48 347.15,-33.31 373.42,-23.18"/>
<polygon fill="midnightblue" stroke="midnightblue" points="374.85,-26.38 382.92,-19.52 372.33,-19.85 374.85,-26.38"/>
</g>
<!-- Node11&#45;&gt;Node3 -->
<g id="edge12" class="edge">
<title>Node11&#45;&gt;Node3</title>
<path fill="none" stroke="midnightblue" d="M111.32,-168.08C97.51,-141.72 56.71,-63.88 38.26,-28.66"/>
<polygon fill="midnightblue" stroke="midnightblue" points="41.23,-26.8 33.49,-19.57 35.03,-30.05 41.23,-26.8"/>
</g>
<!-- Node12 -->
<g id="node12" class="node">
<title>Node12</title>
<g id="a_node12"><a xlink:href="AMemory_8hpp.html" target="_top" xlink:title=" ">
<polygon fill="white" stroke="black" points="107.5,-112.5 107.5,-131.5 190.5,-131.5 190.5,-112.5 107.5,-112.5"/>
<text text-anchor="middle" x="149" y="-119.5" font-family="Helvetica,sans-Serif" font-size="10.00">AMemory.hpp</text>
</a>
</g>
</g>
<!-- Node11&#45;&gt;Node12 -->
<g id="edge13" class="edge">
<title>Node11&#45;&gt;Node12</title>
<path fill="none" stroke="midnightblue" d="M121.45,-168.08C126.01,-160.61 132.67,-149.72 138.29,-140.52"/>
<polygon fill="midnightblue" stroke="midnightblue" points="141.42,-142.11 143.65,-131.75 135.45,-138.46 141.42,-142.11"/>
</g>
<!-- Node12&#45;&gt;Node3 -->
<g id="edge16" class="edge">
<title>Node12&#45;&gt;Node3</title>
<path fill="none" stroke="midnightblue" d="M139.58,-112.37C119.34,-93.81 71.45,-49.91 45.84,-26.44"/>
<polygon fill="midnightblue" stroke="midnightblue" points="48.11,-23.77 38.37,-19.59 43.38,-28.93 48.11,-23.77"/>
</g>
<!-- Node12&#45;&gt;Node5 -->
<g id="edge20" class="edge">
<title>Node12&#45;&gt;Node5</title>
<path fill="none" stroke="midnightblue" d="M167.38,-112.44C186.22,-103.68 215.73,-89.94 237.38,-79.86"/>
<polygon fill="midnightblue" stroke="midnightblue" points="239.12,-82.91 246.71,-75.52 236.16,-76.56 239.12,-82.91"/>
</g>
<!-- Node12&#45;&gt;Node6 -->
<g id="edge14" class="edge">
<title>Node12&#45;&gt;Node6</title>
<path fill="none" stroke="midnightblue" d="M190.63,-112.88C230.18,-104.81 291.13,-91.42 343,-76 395.67,-60.34 455.37,-37.45 490.52,-23.42"/>
<polygon fill="midnightblue" stroke="midnightblue" points="492.2,-26.52 500.18,-19.55 489.6,-20.02 492.2,-26.52"/>
</g>
<!-- Node12&#45;&gt;Node7 -->
<g id="edge15" class="edge">
<title>Node12&#45;&gt;Node7</title>
<path fill="none" stroke="midnightblue" d="M145.16,-112.37C137.18,-94.46 118.67,-52.92 108,-28.95"/>
<polygon fill="midnightblue" stroke="midnightblue" points="111.09,-27.3 103.83,-19.59 104.7,-30.15 111.09,-27.3"/>
</g>
<!-- Node12&#45;&gt;Node8 -->
<g id="edge17" class="edge">
<title>Node12&#45;&gt;Node8</title>
<path fill="none" stroke="midnightblue" d="M150.18,-112.37C152.6,-94.62 158.18,-53.67 161.46,-29.6"/>
<polygon fill="midnightblue" stroke="midnightblue" points="164.95,-29.97 162.83,-19.59 158.01,-29.03 164.95,-29.97"/>
</g>
<!-- Node12&#45;&gt;Node9 -->
<g id="edge18" class="edge">
<title>Node12&#45;&gt;Node9</title>
<path fill="none" stroke="midnightblue" d="M157.63,-112.37C176.11,-93.89 219.71,-50.29 243.26,-26.74"/>
<polygon fill="midnightblue" stroke="midnightblue" points="245.81,-29.14 250.41,-19.59 240.86,-24.19 245.81,-29.14"/>
</g>
<!-- Node12&#45;&gt;Node10 -->
<g id="edge19" class="edge">
<title>Node12&#45;&gt;Node10</title>
<path fill="none" stroke="midnightblue" d="M190.78,-113.86C225.03,-107.02 274.17,-94.91 314,-76 341.88,-62.76 370.23,-40.9 387.71,-26.23"/>
<polygon fill="midnightblue" stroke="midnightblue" points="390.05,-28.83 395.37,-19.67 385.5,-23.51 390.05,-28.83"/>
</g>
</g>
</svg>
