<?xml version="1.0" encoding="UTF-8" standalone="no"?>
<!DOCTYPE svg PUBLIC "-//W3C//DTD SVG 1.1//EN"
 "http://www.w3.org/Graphics/SVG/1.1/DTD/svg11.dtd">
<!-- Generated by graphviz version 2.43.0 (0)
 -->
<!-- Title: sources/Memory/RectangleShadow.hpp Pages: 1 -->
<svg width="702pt" height="106pt"
 viewBox="0.00 0.00 701.50 106.00" xmlns="http://www.w3.org/2000/svg" xmlns:xlink="http://www.w3.org/1999/xlink">
<g id="graph0" class="graph" transform="scale(1 1) rotate(0) translate(4 102)">
<title>sources/Memory/RectangleShadow.hpp</title>
<polygon fill="white" stroke="transparent" points="-4,4 -4,-102 697.5,-102 697.5,4 -4,4"/>
<!-- Node1 -->
<g id="node1" class="node">
<title>Node1</title>
<g id="a_node1"><a xlink:title=" ">
<polygon fill="#bfbfbf" stroke="black" points="278,-67.5 278,-97.5 427,-97.5 427,-67.5 278,-67.5"/>
<text text-anchor="start" x="286" y="-85.5" font-family="Helvetica,sans-Serif" font-size="10.00">sources/Memory/Rectangle</text>
<text text-anchor="middle" x="352.5" y="-74.5" font-family="Helvetica,sans-Serif" font-size="10.00">Shadow.hpp</text>
</a>
</g>
</g>
<!-- Node2 -->
<g id="node2" class="node">
<title>Node2</title>
<g id="a_node2"><a xlink:href="MemoryBus_8cpp.html" target="_top" xlink:title=" ">
<polygon fill="white" stroke="black" points="0,-6 0,-25 179,-25 179,-6 0,-6"/>
<text text-anchor="middle" x="89.5" y="-13" font-family="Helvetica,sans-Serif" font-size="10.00">sources/Memory/MemoryBus.cpp</text>
</a>
</g>
</g>
<!-- Node1&#45;&gt;Node2 -->
<g id="edge1" class="edge">
<title>Node1&#45;&gt;Node2</title>
<path fill="none" stroke="midnightblue" d="M286.02,-65.07C234.44,-52.32 165.04,-35.17 124.01,-25.03"/>
<polygon fill="midnightblue" stroke="midnightblue" points="285.21,-68.47 295.76,-67.48 286.89,-61.68 285.21,-68.47"/>
</g>
<!-- Node3 -->
<g id="node3" class="node">
<title>Node3</title>
<g id="a_node3"><a xlink:href="RectangleShadow_8cpp.html" target="_top" xlink:title=" ">
<polygon fill="white" stroke="black" points="197,-0.5 197,-30.5 346,-30.5 346,-0.5 197,-0.5"/>
<text text-anchor="start" x="205" y="-18.5" font-family="Helvetica,sans-Serif" font-size="10.00">sources/Memory/Rectangle</text>
<text text-anchor="middle" x="271.5" y="-7.5" font-family="Helvetica,sans-Serif" font-size="10.00">Shadow.cpp</text>
</a>
</g>
</g>
<!-- Node1&#45;&gt;Node3 -->
<g id="edge2" class="edge">
<title>Node1&#45;&gt;Node3</title>
<path fill="none" stroke="midnightblue" d="M326.81,-60.88C314.5,-51.01 300.07,-39.43 289.04,-30.58"/>
<polygon fill="midnightblue" stroke="midnightblue" points="324.93,-63.87 334.92,-67.4 329.32,-58.41 324.93,-63.87"/>
</g>
<!-- Node4 -->
<g id="node4" class="node">
<title>Node4</title>
<g id="a_node4"><a xlink:href="testMemoryBus_8cpp.html" target="_top" xlink:title=" ">
<polygon fill="white" stroke="black" points="364,-6 364,-25 505,-25 505,-6 364,-6"/>
<text text-anchor="middle" x="434.5" y="-13" font-family="Helvetica,sans-Serif" font-size="10.00">tests/testMemoryBus.cpp</text>
</a>
</g>
</g>
<!-- Node1&#45;&gt;Node4 -->
<g id="edge3" class="edge">
<title>Node1&#45;&gt;Node4</title>
<path fill="none" stroke="midnightblue" d="M378.35,-61.01C393.57,-48.94 412.04,-34.3 423.53,-25.19"/>
<polygon fill="midnightblue" stroke="midnightblue" points="375.96,-58.44 370.29,-67.4 380.3,-63.93 375.96,-58.44"/>
</g>
<!-- Node5 -->
<g id="node5" class="node">
<title>Node5</title>
<g id="a_node5"><a xlink:href="testRectangleMemory_8cpp.html" target="_top" xlink:title=" ">
<polygon fill="white" stroke="black" points="523.5,-6 523.5,-25 693.5,-25 693.5,-6 523.5,-6"/>
<text text-anchor="middle" x="608.5" y="-13" font-family="Helvetica,sans-Serif" font-size="10.00">tests/testRectangleMemory.cpp</text>
</a>
</g>
</g>
<!-- Node1&#45;&gt;Node5 -->
<g id="edge4" class="edge">
<title>Node1&#45;&gt;Node5</title>
<path fill="none" stroke="midnightblue" d="M417.52,-64.99C467.69,-52.25 535.05,-35.15 574.91,-25.03"/>
<polygon fill="midnightblue" stroke="midnightblue" points="416.56,-61.62 407.73,-67.48 418.29,-68.41 416.56,-61.62"/>
</g>
</g>
</svg>
