<?xml version="1.0" encoding="UTF-8" standalone="no"?>
<!DOCTYPE svg PUBLIC "-//W3C//DTD SVG 1.1//EN"
 "http://www.w3.org/Graphics/SVG/1.1/DTD/svg11.dtd">
<!-- Generated by graphviz version 2.43.0 (0)
 -->
<!-- Title: sources/Debugger/RegisterViewer.hpp Pages: 1 -->
<svg width="900pt" height="263pt"
 viewBox="0.00 0.00 899.50 263.00" xmlns="http://www.w3.org/2000/svg" xmlns:xlink="http://www.w3.org/1999/xlink">
<g id="graph0" class="graph" transform="scale(1 1) rotate(0) translate(4 259)">
<title>sources/Debugger/RegisterViewer.hpp</title>
<polygon fill="white" stroke="transparent" points="-4,4 -4,-259 895.5,-259 895.5,4 -4,4"/>
<!-- Node1 -->
<g id="node1" class="node">
<title>Node1</title>
<g id="a_node1"><a xlink:title=" ">
<polygon fill="#bfbfbf" stroke="black" points="240,-224.5 240,-254.5 388,-254.5 388,-224.5 240,-224.5"/>
<text text-anchor="start" x="248" y="-242.5" font-family="Helvetica,sans-Serif" font-size="10.00">sources/Debugger/Register</text>
<text text-anchor="middle" x="314" y="-231.5" font-family="Helvetica,sans-Serif" font-size="10.00">Viewer.hpp</text>
</a>
</g>
</g>
<!-- Node2 -->
<g id="node2" class="node">
<title>Node2</title>
<g id="a_node2"><a xlink:title=" ">
<polygon fill="white" stroke="#bfbfbf" points="0,-168.5 0,-187.5 92,-187.5 92,-168.5 0,-168.5"/>
<text text-anchor="middle" x="46" y="-175.5" font-family="Helvetica,sans-Serif" font-size="10.00">QtCore/QObject</text>
</a>
</g>
</g>
<!-- Node1&#45;&gt;Node2 -->
<g id="edge1" class="edge">
<title>Node1&#45;&gt;Node2</title>
<path fill="none" stroke="midnightblue" d="M250.83,-224.47C202.88,-213.83 137.94,-199.41 94.15,-189.69"/>
<polygon fill="midnightblue" stroke="midnightblue" points="94.84,-186.26 84.31,-187.51 93.32,-193.09 94.84,-186.26"/>
</g>
<!-- Node3 -->
<g id="node3" class="node">
<title>Node3</title>
<g id="a_node3"><a xlink:href="ClosableWindow_8hpp.html" target="_top" xlink:title=" ">
<polygon fill="white" stroke="black" points="110,-168.5 110,-187.5 228,-187.5 228,-168.5 110,-168.5"/>
<text text-anchor="middle" x="169" y="-175.5" font-family="Helvetica,sans-Serif" font-size="10.00">ClosableWindow.hpp</text>
</a>
</g>
</g>
<!-- Node1&#45;&gt;Node3 -->
<g id="edge2" class="edge">
<title>Node1&#45;&gt;Node3</title>
<path fill="none" stroke="midnightblue" d="M279.64,-224.4C255.31,-214.42 222.97,-201.15 199.54,-191.53"/>
<polygon fill="midnightblue" stroke="midnightblue" points="200.68,-188.22 190.1,-187.66 198.02,-194.69 200.68,-188.22"/>
</g>
<!-- Node5 -->
<g id="node5" class="node">
<title>Node5</title>
<g id="a_node5"><a xlink:title=" ">
<polygon fill="white" stroke="#bfbfbf" points="246,-168.5 246,-187.5 382,-187.5 382,-168.5 246,-168.5"/>
<text text-anchor="middle" x="314" y="-175.5" font-family="Helvetica,sans-Serif" font-size="10.00">../../ui/ui_registersView.h</text>
</a>
</g>
</g>
<!-- Node1&#45;&gt;Node5 -->
<g id="edge4" class="edge">
<title>Node1&#45;&gt;Node5</title>
<path fill="none" stroke="midnightblue" d="M314,-224.4C314,-216.47 314,-206.46 314,-197.86"/>
<polygon fill="midnightblue" stroke="midnightblue" points="317.5,-197.66 314,-187.66 310.5,-197.66 317.5,-197.66"/>
</g>
<!-- Node6 -->
<g id="node6" class="node">
<title>Node6</title>
<g id="a_node6"><a xlink:href="Int24_8hpp.html" target="_top" xlink:title=" ">
<polygon fill="white" stroke="black" points="346,-0.5 346,-19.5 456,-19.5 456,-0.5 346,-0.5"/>
<text text-anchor="middle" x="401" y="-7.5" font-family="Helvetica,sans-Serif" font-size="10.00">../Models/Int24.hpp</text>
</a>
</g>
</g>
<!-- Node1&#45;&gt;Node6 -->
<g id="edge5" class="edge">
<title>Node1&#45;&gt;Node6</title>
<path fill="none" stroke="midnightblue" d="M349.18,-224.33C364.76,-216.14 381.65,-204.2 391,-188 420.3,-137.22 411.54,-64.02 405.13,-29.88"/>
<polygon fill="midnightblue" stroke="midnightblue" points="408.52,-28.99 403.11,-19.88 401.66,-30.38 408.52,-28.99"/>
</g>
<!-- Node7 -->
<g id="node7" class="node">
<title>Node7</title>
<g id="a_node7"><a xlink:href="MemoryBus_8hpp.html" target="_top" xlink:title=" ">
<polygon fill="white" stroke="black" points="562.5,-168.5 562.5,-187.5 711.5,-187.5 711.5,-168.5 562.5,-168.5"/>
<text text-anchor="middle" x="637" y="-175.5" font-family="Helvetica,sans-Serif" font-size="10.00">../Memory/MemoryBus.hpp</text>
</a>
</g>
</g>
<!-- Node1&#45;&gt;Node7 -->
<g id="edge6" class="edge">
<title>Node1&#45;&gt;Node7</title>
<path fill="none" stroke="midnightblue" d="M388.1,-224.85C446.72,-214.05 527.32,-199.2 580.72,-189.37"/>
<polygon fill="midnightblue" stroke="midnightblue" points="581.5,-192.78 590.7,-187.53 580.23,-185.9 581.5,-192.78"/>
</g>
<!-- Node4 -->
<g id="node4" class="node">
<title>Node4</title>
<g id="a_node4"><a xlink:title=" ">
<polygon fill="white" stroke="#bfbfbf" points="98.5,-112.5 98.5,-131.5 239.5,-131.5 239.5,-112.5 98.5,-112.5"/>
<text text-anchor="middle" x="169" y="-119.5" font-family="Helvetica,sans-Serif" font-size="10.00">QtWidgets/QMainWindow</text>
</a>
</g>
</g>
<!-- Node3&#45;&gt;Node4 -->
<g id="edge3" class="edge">
<title>Node3&#45;&gt;Node4</title>
<path fill="none" stroke="midnightblue" d="M169,-168.08C169,-161.01 169,-150.86 169,-141.99"/>
<polygon fill="midnightblue" stroke="midnightblue" points="172.5,-141.75 169,-131.75 165.5,-141.75 172.5,-141.75"/>
</g>
<!-- Node8 -->
<g id="node8" class="node">
<title>Node8</title>
<g id="a_node8"><a xlink:title=" ">
<polygon fill="white" stroke="#bfbfbf" points="776,-0.5 776,-19.5 826,-19.5 826,-0.5 776,-0.5"/>
<text text-anchor="middle" x="801" y="-7.5" font-family="Helvetica,sans-Serif" font-size="10.00">cstdint</text>
</a>
</g>
</g>
<!-- Node7&#45;&gt;Node8 -->
<g id="edge7" class="edge">
<title>Node7&#45;&gt;Node8</title>
<path fill="none" stroke="midnightblue" d="M647.42,-168.32C657.92,-159.46 674.45,-145.17 688,-132 724.89,-96.13 765.45,-51.26 786.5,-27.52"/>
<polygon fill="midnightblue" stroke="midnightblue" points="789.33,-29.59 793.33,-19.78 784.09,-24.96 789.33,-29.59"/>
</g>
<!-- Node9 -->
<g id="node9" class="node">
<title>Node9</title>
<g id="a_node9"><a xlink:title=" ">
<polygon fill="white" stroke="#bfbfbf" points="844.5,-0.5 844.5,-19.5 891.5,-19.5 891.5,-0.5 844.5,-0.5"/>
<text text-anchor="middle" x="868" y="-7.5" font-family="Helvetica,sans-Serif" font-size="10.00">vector</text>
</a>
</g>
</g>
<!-- Node7&#45;&gt;Node9 -->
<g id="edge8" class="edge">
<title>Node7&#45;&gt;Node9</title>
<path fill="none" stroke="midnightblue" d="M652.33,-168.34C667.52,-159.61 691.29,-145.53 711,-132 762.94,-96.35 820.88,-49.81 849.68,-26.19"/>
<polygon fill="midnightblue" stroke="midnightblue" points="852.15,-28.69 857.64,-19.63 847.7,-23.29 852.15,-28.69"/>
</g>
<!-- Node10 -->
<g id="node10" class="node">
<title>Node10</title>
<g id="a_node10"><a xlink:title=" ">
<polygon fill="white" stroke="#bfbfbf" points="474,-0.5 474,-19.5 532,-19.5 532,-0.5 474,-0.5"/>
<text text-anchor="middle" x="503" y="-7.5" font-family="Helvetica,sans-Serif" font-size="10.00">memory</text>
</a>
</g>
</g>
<!-- Node7&#45;&gt;Node10 -->
<g id="edge9" class="edge">
<title>Node7&#45;&gt;Node10</title>
<path fill="none" stroke="midnightblue" d="M626,-168.35C615.39,-159.73 599.21,-145.83 587,-132 556.96,-97.96 528.18,-52.94 513.37,-28.54"/>
<polygon fill="midnightblue" stroke="midnightblue" points="516.22,-26.49 508.07,-19.71 510.22,-30.09 516.22,-26.49"/>
</g>
<!-- Node11 -->
<g id="node11" class="node">
<title>Node11</title>
<g id="a_node11"><a xlink:href="AMemory_8hpp.html" target="_top" xlink:title=" ">
<polygon fill="white" stroke="black" points="595.5,-112.5 595.5,-131.5 678.5,-131.5 678.5,-112.5 595.5,-112.5"/>
<text text-anchor="middle" x="637" y="-119.5" font-family="Helvetica,sans-Serif" font-size="10.00">AMemory.hpp</text>
</a>
</g>
</g>
<!-- Node7&#45;&gt;Node11 -->
<g id="edge10" class="edge">
<title>Node7&#45;&gt;Node11</title>
<path fill="none" stroke="midnightblue" d="M637,-168.08C637,-161.01 637,-150.86 637,-141.99"/>
<polygon fill="midnightblue" stroke="midnightblue" points="640.5,-141.75 637,-131.75 633.5,-141.75 640.5,-141.75"/>
</g>
<!-- Node11&#45;&gt;Node6 -->
<g id="edge15" class="edge">
<title>Node11&#45;&gt;Node6</title>
<path fill="none" stroke="midnightblue" d="M618.48,-112.37C577.21,-93.13 477.48,-46.65 428.74,-23.93"/>
<polygon fill="midnightblue" stroke="midnightblue" points="429.97,-20.64 419.43,-19.59 427.02,-26.99 429.97,-20.64"/>
</g>
<!-- Node11&#45;&gt;Node8 -->
<g id="edge11" class="edge">
<title>Node11&#45;&gt;Node8</title>
<path fill="none" stroke="midnightblue" d="M649.87,-112.37C678.01,-93.49 745.26,-48.38 779.77,-25.24"/>
<polygon fill="midnightblue" stroke="midnightblue" points="781.84,-28.07 788.19,-19.59 777.94,-22.26 781.84,-28.07"/>
</g>
<!-- Node11&#45;&gt;Node9 -->
<g id="edge12" class="edge">
<title>Node11&#45;&gt;Node9</title>
<path fill="none" stroke="midnightblue" d="M655.43,-112.43C674.78,-103.42 706.07,-88.8 733,-76 770.46,-58.2 813.62,-37.37 840.85,-24.17"/>
<polygon fill="midnightblue" stroke="midnightblue" points="842.65,-27.19 850.12,-19.68 839.6,-20.89 842.65,-27.19"/>
</g>
<!-- Node11&#45;&gt;Node10 -->
<g id="edge13" class="edge">
<title>Node11&#45;&gt;Node10</title>
<path fill="none" stroke="midnightblue" d="M624.36,-112.41C611.62,-103.63 591.53,-89.4 575,-76 555.31,-60.05 533.9,-40.39 519.58,-26.9"/>
<polygon fill="midnightblue" stroke="midnightblue" points="521.7,-24.09 512.04,-19.74 516.89,-29.16 521.7,-24.09"/>
</g>
<!-- Node12 -->
<g id="node12" class="node">
<title>Node12</title>
<g id="a_node12"><a xlink:title=" ">
<polygon fill="white" stroke="#bfbfbf" points="550,-0.5 550,-19.5 594,-19.5 594,-0.5 550,-0.5"/>
<text text-anchor="middle" x="572" y="-7.5" font-family="Helvetica,sans-Serif" font-size="10.00">string</text>
</a>
</g>
</g>
<!-- Node11&#45;&gt;Node12 -->
<g id="edge14" class="edge">
<title>Node11&#45;&gt;Node12</title>
<path fill="none" stroke="midnightblue" d="M623.74,-112.23C612.54,-104.14 596.95,-91.11 588,-76 579.58,-61.78 575.58,-43.31 573.68,-29.69"/>
<polygon fill="midnightblue" stroke="midnightblue" points="577.14,-29.13 572.54,-19.59 570.19,-29.92 577.14,-29.13"/>
</g>
<!-- Node13 -->
<g id="node13" class="node">
<title>Node13</title>
<g id="a_node13"><a xlink:href="Components_8hpp.html" target="_top" xlink:title=" ">
<polygon fill="white" stroke="black" points="612,-0.5 612,-19.5 758,-19.5 758,-0.5 612,-0.5"/>
<text text-anchor="middle" x="685" y="-7.5" font-family="Helvetica,sans-Serif" font-size="10.00">../Models/Components.hpp</text>
</a>
</g>
</g>
<!-- Node11&#45;&gt;Node13 -->
<g id="edge16" class="edge">
<title>Node11&#45;&gt;Node13</title>
<path fill="none" stroke="midnightblue" d="M651.66,-112.4C663.41,-104.58 679.03,-91.86 686,-76 692.38,-61.47 691.45,-43.29 689.32,-29.85"/>
<polygon fill="midnightblue" stroke="midnightblue" points="692.72,-29.01 687.37,-19.87 685.85,-30.35 692.72,-29.01"/>
</g>
<!-- Node14 -->
<g id="node14" class="node">
<title>Node14</title>
<g id="a_node14"><a xlink:href="IMemory_8hpp.html" target="_top" xlink:title=" ">
<polygon fill="white" stroke="black" points="597,-56.5 597,-75.5 677,-75.5 677,-56.5 597,-56.5"/>
<text text-anchor="middle" x="637" y="-63.5" font-family="Helvetica,sans-Serif" font-size="10.00">IMemory.hpp</text>
</a>
</g>
</g>
<!-- Node11&#45;&gt;Node14 -->
<g id="edge17" class="edge">
<title>Node11&#45;&gt;Node14</title>
<path fill="none" stroke="midnightblue" d="M637,-112.08C637,-105.01 637,-94.86 637,-85.99"/>
<polygon fill="midnightblue" stroke="midnightblue" points="640.5,-85.75 637,-75.75 633.5,-85.75 640.5,-85.75"/>
</g>
<!-- Node14&#45;&gt;Node6 -->
<g id="edge22" class="edge">
<title>Node14&#45;&gt;Node6</title>
<path fill="none" stroke="midnightblue" d="M599.61,-56.44C558.61,-47.06 492.75,-31.99 448.22,-21.8"/>
<polygon fill="midnightblue" stroke="midnightblue" points="448.75,-18.34 438.22,-19.52 447.19,-25.16 448.75,-18.34"/>
</g>
<!-- Node14&#45;&gt;Node8 -->
<g id="edge18" class="edge">
<title>Node14&#45;&gt;Node8</title>
<path fill="none" stroke="midnightblue" d="M662.99,-56.44C690.94,-47.24 735.53,-32.56 766.43,-22.38"/>
<polygon fill="midnightblue" stroke="midnightblue" points="767.54,-25.7 775.94,-19.25 765.35,-19.05 767.54,-25.7"/>
</g>
<!-- Node14&#45;&gt;Node9 -->
<g id="edge19" class="edge">
<title>Node14&#45;&gt;Node9</title>
<path fill="none" stroke="midnightblue" d="M676.94,-56.45C714.98,-48.19 774.07,-35.05 834.53,-20.04"/>
<polygon fill="midnightblue" stroke="midnightblue" points="835.38,-23.43 844.24,-17.61 833.69,-16.64 835.38,-23.43"/>
</g>
<!-- Node14&#45;&gt;Node10 -->
<g id="edge20" class="edge">
<title>Node14&#45;&gt;Node10</title>
<path fill="none" stroke="midnightblue" d="M615.77,-56.44C593.62,-47.52 558.68,-33.44 533.56,-23.32"/>
<polygon fill="midnightblue" stroke="midnightblue" points="534.72,-20.01 524.13,-19.52 532.1,-26.5 534.72,-20.01"/>
</g>
<!-- Node14&#45;&gt;Node12 -->
<g id="edge21" class="edge">
<title>Node14&#45;&gt;Node12</title>
<path fill="none" stroke="midnightblue" d="M626.56,-56.32C616.85,-48.26 602.18,-36.08 590.5,-26.37"/>
<polygon fill="midnightblue" stroke="midnightblue" points="592.56,-23.53 582.63,-19.83 588.09,-28.92 592.56,-23.53"/>
</g>
<!-- Node14&#45;&gt;Node13 -->
<g id="edge23" class="edge">
<title>Node14&#45;&gt;Node13</title>
<path fill="none" stroke="midnightblue" d="M644.93,-56.08C651.85,-48.3 662.07,-36.8 670.45,-27.37"/>
<polygon fill="midnightblue" stroke="midnightblue" points="673.19,-29.55 677.22,-19.75 667.96,-24.9 673.19,-29.55"/>
</g>
</g>
</svg>
