<?xml version="1.0" encoding="UTF-8" standalone="no"?>
<!DOCTYPE svg PUBLIC "-//W3C//DTD SVG 1.1//EN"
 "http://www.w3.org/Graphics/SVG/1.1/DTD/svg11.dtd">
<!-- Generated by graphviz version 2.43.0 (0)
 -->
<!-- Title: sources/Debugger/RegisterViewer.cpp Pages: 1 -->
<svg width="1981pt" height="431pt"
 viewBox="0.00 0.00 1980.50 431.00" xmlns="http://www.w3.org/2000/svg" xmlns:xlink="http://www.w3.org/1999/xlink">
<g id="graph0" class="graph" transform="scale(1 1) rotate(0) translate(4 427)">
<title>sources/Debugger/RegisterViewer.cpp</title>
<polygon fill="white" stroke="transparent" points="-4,4 -4,-427 1976.5,-427 1976.5,4 -4,4"/>
<!-- Node1 -->
<g id="node1" class="node">
<title>Node1</title>
<g id="a_node1"><a xlink:title=" ">
<polygon fill="#bfbfbf" stroke="black" points="1161.5,-392.5 1161.5,-422.5 1309.5,-422.5 1309.5,-392.5 1161.5,-392.5"/>
<text text-anchor="start" x="1169.5" y="-410.5" font-family="Helvetica,sans-Serif" font-size="10.00">sources/Debugger/Register</text>
<text text-anchor="middle" x="1235.5" y="-399.5" font-family="Helvetica,sans-Serif" font-size="10.00">Viewer.cpp</text>
</a>
</g>
</g>
<!-- Node2 -->
<g id="node2" class="node">
<title>Node2</title>
<g id="a_node2"><a xlink:href="RegisterViewer_8hpp.html" target="_top" xlink:title=" ">
<polygon fill="white" stroke="black" points="399,-224.5 399,-243.5 510,-243.5 510,-224.5 399,-224.5"/>
<text text-anchor="middle" x="454.5" y="-231.5" font-family="Helvetica,sans-Serif" font-size="10.00">RegisterViewer.hpp</text>
</a>
</g>
</g>
<!-- Node1&#45;&gt;Node2 -->
<g id="edge1" class="edge">
<title>Node1&#45;&gt;Node2</title>
<path fill="none" stroke="midnightblue" d="M1171.59,-392.47C1019.62,-359.1 639.3,-275.58 503.58,-245.78"/>
<polygon fill="midnightblue" stroke="midnightblue" points="504,-242.29 493.48,-243.56 502.5,-249.12 504,-242.29"/>
</g>
<!-- Node16 -->
<g id="node16" class="node">
<title>Node16</title>
<g id="a_node16"><a xlink:href="SNES_8hpp.html" target="_top" xlink:title=" ">
<polygon fill="white" stroke="black" points="1199.5,-336.5 1199.5,-355.5 1271.5,-355.5 1271.5,-336.5 1199.5,-336.5"/>
<text text-anchor="middle" x="1235.5" y="-343.5" font-family="Helvetica,sans-Serif" font-size="10.00">../SNES.hpp</text>
</a>
</g>
</g>
<!-- Node1&#45;&gt;Node16 -->
<g id="edge25" class="edge">
<title>Node1&#45;&gt;Node16</title>
<path fill="none" stroke="midnightblue" d="M1235.5,-392.4C1235.5,-384.47 1235.5,-374.46 1235.5,-365.86"/>
<polygon fill="midnightblue" stroke="midnightblue" points="1239,-365.66 1235.5,-355.66 1232,-365.66 1239,-365.66"/>
</g>
<!-- Node36 -->
<g id="node36" class="node">
<title>Node36</title>
<g id="a_node36"><a xlink:href="Utility_8hpp.html" target="_top" xlink:title=" ">
<polygon fill="white" stroke="black" points="1859.5,-56.5 1859.5,-75.5 1967.5,-75.5 1967.5,-56.5 1859.5,-56.5"/>
<text text-anchor="middle" x="1913.5" y="-63.5" font-family="Helvetica,sans-Serif" font-size="10.00">../Utility/Utility.hpp</text>
</a>
</g>
</g>
<!-- Node1&#45;&gt;Node36 -->
<g id="edge76" class="edge">
<title>Node1&#45;&gt;Node36</title>
<path fill="none" stroke="midnightblue" d="M1309.53,-401.32C1482.86,-388.2 1900.5,-350.43 1900.5,-291 1900.5,-291 1900.5,-291 1900.5,-177 1900.5,-144.58 1906.14,-107.15 1909.99,-85.37"/>
<polygon fill="midnightblue" stroke="midnightblue" points="1913.43,-85.99 1911.8,-75.52 1906.55,-84.72 1913.43,-85.99"/>
</g>
<!-- Node3 -->
<g id="node3" class="node">
<title>Node3</title>
<g id="a_node3"><a xlink:title=" ">
<polygon fill="white" stroke="#bfbfbf" points="301.5,-168.5 301.5,-187.5 393.5,-187.5 393.5,-168.5 301.5,-168.5"/>
<text text-anchor="middle" x="347.5" y="-175.5" font-family="Helvetica,sans-Serif" font-size="10.00">QtCore/QObject</text>
</a>
</g>
</g>
<!-- Node2&#45;&gt;Node3 -->
<g id="edge2" class="edge">
<title>Node2&#45;&gt;Node3</title>
<path fill="none" stroke="midnightblue" d="M437.31,-224.32C420.15,-215.66 393.55,-202.24 373.75,-192.25"/>
<polygon fill="midnightblue" stroke="midnightblue" points="375.15,-189.04 364.65,-187.65 372,-195.28 375.15,-189.04"/>
</g>
<!-- Node4 -->
<g id="node4" class="node">
<title>Node4</title>
<g id="a_node4"><a xlink:href="ClosableWindow_8hpp.html" target="_top" xlink:title=" ">
<polygon fill="white" stroke="black" points="11.5,-168.5 11.5,-187.5 129.5,-187.5 129.5,-168.5 11.5,-168.5"/>
<text text-anchor="middle" x="70.5" y="-175.5" font-family="Helvetica,sans-Serif" font-size="10.00">ClosableWindow.hpp</text>
</a>
</g>
</g>
<!-- Node2&#45;&gt;Node4 -->
<g id="edge3" class="edge">
<title>Node2&#45;&gt;Node4</title>
<path fill="none" stroke="midnightblue" d="M398.66,-225.15C330.12,-215.51 213.89,-199.16 139.73,-188.74"/>
<polygon fill="midnightblue" stroke="midnightblue" points="139.95,-185.23 129.56,-187.31 138.97,-192.16 139.95,-185.23"/>
</g>
<!-- Node6 -->
<g id="node6" class="node">
<title>Node6</title>
<g id="a_node6"><a xlink:title=" ">
<polygon fill="white" stroke="#bfbfbf" points="147.5,-168.5 147.5,-187.5 283.5,-187.5 283.5,-168.5 147.5,-168.5"/>
<text text-anchor="middle" x="215.5" y="-175.5" font-family="Helvetica,sans-Serif" font-size="10.00">../../ui/ui_registersView.h</text>
</a>
</g>
</g>
<!-- Node2&#45;&gt;Node6 -->
<g id="edge5" class="edge">
<title>Node2&#45;&gt;Node6</title>
<path fill="none" stroke="midnightblue" d="M416.63,-224.44C375.02,-215.04 308.13,-199.93 263.03,-189.74"/>
<polygon fill="midnightblue" stroke="midnightblue" points="263.72,-186.31 253.19,-187.52 262.18,-193.13 263.72,-186.31"/>
</g>
<!-- Node7 -->
<g id="node7" class="node">
<title>Node7</title>
<g id="a_node7"><a xlink:href="Int24_8hpp.html" target="_top" xlink:title=" ">
<polygon fill="white" stroke="black" points="1619.5,-0.5 1619.5,-19.5 1729.5,-19.5 1729.5,-0.5 1619.5,-0.5"/>
<text text-anchor="middle" x="1674.5" y="-7.5" font-family="Helvetica,sans-Serif" font-size="10.00">../Models/Int24.hpp</text>
</a>
</g>
</g>
<!-- Node2&#45;&gt;Node7 -->
<g id="edge6" class="edge">
<title>Node2&#45;&gt;Node7</title>
<path fill="none" stroke="midnightblue" d="M510.28,-230C597.88,-224.75 772.84,-212.1 919.5,-188 973.54,-179.12 1108.79,-152.67 1159.5,-132 1175.38,-125.53 1176.83,-118.96 1192.5,-112 1243.38,-89.39 1259.65,-93.52 1312.5,-76 1337.19,-67.82 1342.28,-62.36 1367.5,-56 1411.99,-44.77 1533.21,-28.56 1609.34,-18.97"/>
<polygon fill="midnightblue" stroke="midnightblue" points="1609.83,-22.44 1619.31,-17.72 1608.96,-15.49 1609.83,-22.44"/>
</g>
<!-- Node8 -->
<g id="node8" class="node">
<title>Node8</title>
<g id="a_node8"><a xlink:href="MemoryBus_8hpp.html" target="_top" xlink:title=" ">
<polygon fill="white" stroke="black" points="487,-168.5 487,-187.5 636,-187.5 636,-168.5 487,-168.5"/>
<text text-anchor="middle" x="561.5" y="-175.5" font-family="Helvetica,sans-Serif" font-size="10.00">../Memory/MemoryBus.hpp</text>
</a>
</g>
</g>
<!-- Node2&#45;&gt;Node8 -->
<g id="edge7" class="edge">
<title>Node2&#45;&gt;Node8</title>
<path fill="none" stroke="midnightblue" d="M471.69,-224.32C488.85,-215.66 515.45,-202.24 535.25,-192.25"/>
<polygon fill="midnightblue" stroke="midnightblue" points="537,-195.28 544.35,-187.65 533.85,-189.04 537,-195.28"/>
</g>
<!-- Node5 -->
<g id="node5" class="node">
<title>Node5</title>
<g id="a_node5"><a xlink:title=" ">
<polygon fill="white" stroke="#bfbfbf" points="0,-112.5 0,-131.5 141,-131.5 141,-112.5 0,-112.5"/>
<text text-anchor="middle" x="70.5" y="-119.5" font-family="Helvetica,sans-Serif" font-size="10.00">QtWidgets/QMainWindow</text>
</a>
</g>
</g>
<!-- Node4&#45;&gt;Node5 -->
<g id="edge4" class="edge">
<title>Node4&#45;&gt;Node5</title>
<path fill="none" stroke="midnightblue" d="M70.5,-168.08C70.5,-161.01 70.5,-150.86 70.5,-141.99"/>
<polygon fill="midnightblue" stroke="midnightblue" points="74,-141.75 70.5,-131.75 67,-141.75 74,-141.75"/>
</g>
<!-- Node9 -->
<g id="node9" class="node">
<title>Node9</title>
<g id="a_node9"><a xlink:title=" ">
<polygon fill="white" stroke="#bfbfbf" points="835.5,-0.5 835.5,-19.5 885.5,-19.5 885.5,-0.5 835.5,-0.5"/>
<text text-anchor="middle" x="860.5" y="-7.5" font-family="Helvetica,sans-Serif" font-size="10.00">cstdint</text>
</a>
</g>
</g>
<!-- Node8&#45;&gt;Node9 -->
<g id="edge8" class="edge">
<title>Node8&#45;&gt;Node9</title>
<path fill="none" stroke="midnightblue" d="M562.58,-168.34C564.69,-154.75 570.54,-128.31 585.5,-112 649.75,-41.96 766.73,-20.36 825.23,-13.8"/>
<polygon fill="midnightblue" stroke="midnightblue" points="825.85,-17.25 835.44,-12.74 825.13,-10.29 825.85,-17.25"/>
</g>
<!-- Node10 -->
<g id="node10" class="node">
<title>Node10</title>
<g id="a_node10"><a xlink:title=" ">
<polygon fill="white" stroke="#bfbfbf" points="1039,-0.5 1039,-19.5 1086,-19.5 1086,-0.5 1039,-0.5"/>
<text text-anchor="middle" x="1062.5" y="-7.5" font-family="Helvetica,sans-Serif" font-size="10.00">vector</text>
</a>
</g>
</g>
<!-- Node8&#45;&gt;Node10 -->
<g id="edge9" class="edge">
<title>Node8&#45;&gt;Node10</title>
<path fill="none" stroke="midnightblue" d="M566.58,-168.28C575.29,-154.13 594.52,-126.29 618.5,-112 755.04,-30.66 950.95,-14.79 1028.78,-11.72"/>
<polygon fill="midnightblue" stroke="midnightblue" points="1029.08,-15.21 1038.96,-11.37 1028.84,-8.22 1029.08,-15.21"/>
</g>
<!-- Node11 -->
<g id="node11" class="node">
<title>Node11</title>
<g id="a_node11"><a xlink:title=" ">
<polygon fill="white" stroke="#bfbfbf" points="494.5,-0.5 494.5,-19.5 552.5,-19.5 552.5,-0.5 494.5,-0.5"/>
<text text-anchor="middle" x="523.5" y="-7.5" font-family="Helvetica,sans-Serif" font-size="10.00">memory</text>
</a>
</g>
</g>
<!-- Node8&#45;&gt;Node11 -->
<g id="edge10" class="edge">
<title>Node8&#45;&gt;Node11</title>
<path fill="none" stroke="midnightblue" d="M558.54,-168.45C555.5,-159.45 550.76,-144.85 547.5,-132 538.39,-96.15 530.65,-53.59 526.58,-29.7"/>
<polygon fill="midnightblue" stroke="midnightblue" points="529.98,-28.86 524.88,-19.58 523.08,-30.02 529.98,-28.86"/>
</g>
<!-- Node12 -->
<g id="node12" class="node">
<title>Node12</title>
<g id="a_node12"><a xlink:href="AMemory_8hpp.html" target="_top" xlink:title=" ">
<polygon fill="white" stroke="black" points="1067,-112.5 1067,-131.5 1150,-131.5 1150,-112.5 1067,-112.5"/>
<text text-anchor="middle" x="1108.5" y="-119.5" font-family="Helvetica,sans-Serif" font-size="10.00">AMemory.hpp</text>
</a>
</g>
</g>
<!-- Node8&#45;&gt;Node12 -->
<g id="edge11" class="edge">
<title>Node8&#45;&gt;Node12</title>
<path fill="none" stroke="midnightblue" d="M636.15,-168.96C639.31,-168.64 642.44,-168.31 645.5,-168 794.89,-152.74 971.53,-135.91 1057.02,-127.84"/>
<polygon fill="midnightblue" stroke="midnightblue" points="1057.36,-131.32 1066.98,-126.9 1056.7,-124.35 1057.36,-131.32"/>
</g>
<!-- Node12&#45;&gt;Node7 -->
<g id="edge16" class="edge">
<title>Node12&#45;&gt;Node7</title>
<path fill="none" stroke="midnightblue" d="M1133.84,-112.46C1175.61,-98.69 1261.75,-71.55 1336.5,-56 1387.13,-45.47 1526.08,-28.35 1609.22,-18.55"/>
<polygon fill="midnightblue" stroke="midnightblue" points="1609.8,-22 1619.32,-17.36 1608.98,-15.05 1609.8,-22"/>
</g>
<!-- Node12&#45;&gt;Node9 -->
<g id="edge12" class="edge">
<title>Node12&#45;&gt;Node9</title>
<path fill="none" stroke="midnightblue" d="M1096.38,-112.42C1076.91,-98.95 1037.16,-72.65 1000.5,-56 966.03,-40.34 924.52,-27.73 895.69,-19.88"/>
<polygon fill="midnightblue" stroke="midnightblue" points="896.24,-16.4 885.68,-17.21 894.44,-23.17 896.24,-16.4"/>
</g>
<!-- Node12&#45;&gt;Node10 -->
<g id="edge13" class="edge">
<title>Node12&#45;&gt;Node10</title>
<path fill="none" stroke="midnightblue" d="M1102.42,-112.4C1096.43,-103.59 1087.34,-89.36 1081.5,-76 1074.87,-60.85 1069.79,-42.73 1066.56,-29.48"/>
<polygon fill="midnightblue" stroke="midnightblue" points="1069.95,-28.61 1064.29,-19.66 1063.13,-30.19 1069.95,-28.61"/>
</g>
<!-- Node12&#45;&gt;Node11 -->
<g id="edge14" class="edge">
<title>Node12&#45;&gt;Node11</title>
<path fill="none" stroke="midnightblue" d="M1066.9,-113.18C958.4,-92.78 667.93,-38.16 562.45,-18.32"/>
<polygon fill="midnightblue" stroke="midnightblue" points="563.02,-14.87 552.55,-16.46 561.73,-21.75 563.02,-14.87"/>
</g>
<!-- Node13 -->
<g id="node13" class="node">
<title>Node13</title>
<g id="a_node13"><a xlink:title=" ">
<polygon fill="white" stroke="#bfbfbf" points="1530.5,-0.5 1530.5,-19.5 1574.5,-19.5 1574.5,-0.5 1530.5,-0.5"/>
<text text-anchor="middle" x="1552.5" y="-7.5" font-family="Helvetica,sans-Serif" font-size="10.00">string</text>
</a>
</g>
</g>
<!-- Node12&#45;&gt;Node13 -->
<g id="edge15" class="edge">
<title>Node12&#45;&gt;Node13</title>
<path fill="none" stroke="midnightblue" d="M1124.87,-112.37C1152.19,-98.34 1209.17,-70.68 1260.5,-56 1352.74,-29.63 1466.06,-17.77 1520.42,-13.3"/>
<polygon fill="midnightblue" stroke="midnightblue" points="1520.79,-16.78 1530.49,-12.5 1520.24,-9.8 1520.79,-16.78"/>
</g>
<!-- Node14 -->
<g id="node14" class="node">
<title>Node14</title>
<g id="a_node14"><a xlink:href="Components_8hpp.html" target="_top" xlink:title=" ">
<polygon fill="white" stroke="black" points="1115.5,-0.5 1115.5,-19.5 1261.5,-19.5 1261.5,-0.5 1115.5,-0.5"/>
<text text-anchor="middle" x="1188.5" y="-7.5" font-family="Helvetica,sans-Serif" font-size="10.00">../Models/Components.hpp</text>
</a>
</g>
</g>
<!-- Node12&#45;&gt;Node14 -->
<g id="edge17" class="edge">
<title>Node12&#45;&gt;Node14</title>
<path fill="none" stroke="midnightblue" d="M1131.87,-112.39C1147.96,-105.2 1168.37,-93.3 1179.5,-76 1188.26,-62.38 1190.07,-43.84 1189.94,-30.04"/>
<polygon fill="midnightblue" stroke="midnightblue" points="1193.43,-29.62 1189.49,-19.78 1186.43,-29.93 1193.43,-29.62"/>
</g>
<!-- Node15 -->
<g id="node15" class="node">
<title>Node15</title>
<g id="a_node15"><a xlink:href="IMemory_8hpp.html" target="_top" xlink:title=" ">
<polygon fill="white" stroke="black" points="1090.5,-56.5 1090.5,-75.5 1170.5,-75.5 1170.5,-56.5 1090.5,-56.5"/>
<text text-anchor="middle" x="1130.5" y="-63.5" font-family="Helvetica,sans-Serif" font-size="10.00">IMemory.hpp</text>
</a>
</g>
</g>
<!-- Node12&#45;&gt;Node15 -->
<g id="edge18" class="edge">
<title>Node12&#45;&gt;Node15</title>
<path fill="none" stroke="midnightblue" d="M1112.13,-112.08C1115.11,-104.77 1119.43,-94.18 1123.12,-85.1"/>
<polygon fill="midnightblue" stroke="midnightblue" points="1126.4,-86.33 1126.93,-75.75 1119.92,-83.69 1126.4,-86.33"/>
</g>
<!-- Node15&#45;&gt;Node7 -->
<g id="edge23" class="edge">
<title>Node15&#45;&gt;Node7</title>
<path fill="none" stroke="midnightblue" d="M1170.5,-61.03C1263.63,-51.78 1495.65,-28.75 1609.46,-17.46"/>
<polygon fill="midnightblue" stroke="midnightblue" points="1609.83,-20.94 1619.43,-16.47 1609.14,-13.97 1609.83,-20.94"/>
</g>
<!-- Node15&#45;&gt;Node9 -->
<g id="edge19" class="edge">
<title>Node15&#45;&gt;Node9</title>
<path fill="none" stroke="midnightblue" d="M1090.37,-56.97C1037.71,-46.44 946.09,-28.12 895.89,-18.08"/>
<polygon fill="midnightblue" stroke="midnightblue" points="896.33,-14.6 885.84,-16.07 894.96,-21.46 896.33,-14.6"/>
</g>
<!-- Node15&#45;&gt;Node10 -->
<g id="edge20" class="edge">
<title>Node15&#45;&gt;Node10</title>
<path fill="none" stroke="midnightblue" d="M1119.57,-56.32C1109.33,-48.18 1093.78,-35.84 1081.5,-26.09"/>
<polygon fill="midnightblue" stroke="midnightblue" points="1083.63,-23.31 1073.62,-19.83 1079.28,-28.79 1083.63,-23.31"/>
</g>
<!-- Node15&#45;&gt;Node11 -->
<g id="edge21" class="edge">
<title>Node15&#45;&gt;Node11</title>
<path fill="none" stroke="midnightblue" d="M1090.2,-61.42C979.63,-51.58 672.44,-24.25 562.92,-14.51"/>
<polygon fill="midnightblue" stroke="midnightblue" points="562.92,-10.99 552.65,-13.59 562.3,-17.97 562.92,-10.99"/>
</g>
<!-- Node15&#45;&gt;Node13 -->
<g id="edge22" class="edge">
<title>Node15&#45;&gt;Node13</title>
<path fill="none" stroke="midnightblue" d="M1170.58,-59.87C1253.9,-49.21 1444.33,-24.84 1520.32,-15.12"/>
<polygon fill="midnightblue" stroke="midnightblue" points="1520.79,-18.59 1530.26,-13.85 1519.9,-11.64 1520.79,-18.59"/>
</g>
<!-- Node15&#45;&gt;Node14 -->
<g id="edge24" class="edge">
<title>Node15&#45;&gt;Node14</title>
<path fill="none" stroke="midnightblue" d="M1139.82,-56.32C1148.39,-48.34 1161.31,-36.31 1171.69,-26.65"/>
<polygon fill="midnightblue" stroke="midnightblue" points="1174.08,-29.21 1179.01,-19.83 1169.31,-24.09 1174.08,-29.21"/>
</g>
<!-- Node16&#45;&gt;Node8 -->
<g id="edge26" class="edge">
<title>Node16&#45;&gt;Node8</title>
<path fill="none" stroke="midnightblue" d="M1199.45,-344.34C1129.6,-342.32 971.44,-334.01 843.5,-300 744.03,-273.56 634.09,-218.12 586.13,-192.5"/>
<polygon fill="midnightblue" stroke="midnightblue" points="587.59,-189.31 577.13,-187.65 584.27,-195.48 587.59,-189.31"/>
</g>
<!-- Node17 -->
<g id="node17" class="node">
<title>Node17</title>
<g id="a_node17"><a xlink:href="CPU_8hpp.html" target="_top" xlink:title=" ">
<polygon fill="white" stroke="black" points="1441,-280.5 1441,-299.5 1522,-299.5 1522,-280.5 1441,-280.5"/>
<text text-anchor="middle" x="1481.5" y="-287.5" font-family="Helvetica,sans-Serif" font-size="10.00">CPU/CPU.hpp</text>
</a>
</g>
</g>
<!-- Node16&#45;&gt;Node17 -->
<g id="edge27" class="edge">
<title>Node16&#45;&gt;Node17</title>
<path fill="none" stroke="midnightblue" d="M1271.53,-337.09C1314.06,-327.76 1384.97,-312.19 1432.47,-301.76"/>
<polygon fill="midnightblue" stroke="midnightblue" points="1433.51,-305.12 1442.52,-299.56 1432.01,-298.28 1433.51,-305.12"/>
</g>
<!-- Node18 -->
<g id="node18" class="node">
<title>Node18</title>
<g id="a_node18"><a xlink:href="Cartridge_8hpp.html" target="_top" xlink:title=" ">
<polygon fill="white" stroke="black" points="1491.5,-224.5 1491.5,-243.5 1631.5,-243.5 1631.5,-224.5 1491.5,-224.5"/>
<text text-anchor="middle" x="1561.5" y="-231.5" font-family="Helvetica,sans-Serif" font-size="10.00">../Cartridge/Cartridge.hpp</text>
</a>
</g>
</g>
<!-- Node16&#45;&gt;Node18 -->
<g id="edge49" class="edge">
<title>Node16&#45;&gt;Node18</title>
<path fill="none" stroke="midnightblue" d="M1271.55,-343.72C1341.22,-340.57 1491.09,-330.38 1531.5,-300 1546.22,-288.93 1553.96,-268.89 1557.85,-253.98"/>
<polygon fill="midnightblue" stroke="midnightblue" points="1561.36,-254.33 1560.14,-243.81 1554.53,-252.79 1561.36,-254.33"/>
</g>
<!-- Node21 -->
<g id="node21" class="node">
<title>Node21</title>
<g id="a_node21"><a xlink:href="Ram_8hpp.html" target="_top" xlink:title=" ">
<polygon fill="white" stroke="black" points="1403,-168.5 1403,-187.5 1498,-187.5 1498,-168.5 1403,-168.5"/>
<text text-anchor="middle" x="1450.5" y="-175.5" font-family="Helvetica,sans-Serif" font-size="10.00">../Ram/Ram.hpp</text>
</a>
</g>
</g>
<!-- Node16&#45;&gt;Node21 -->
<g id="edge50" class="edge">
<title>Node16&#45;&gt;Node21</title>
<path fill="none" stroke="midnightblue" d="M1246.76,-336.31C1281.51,-309.47 1387.43,-227.69 1431.23,-193.88"/>
<polygon fill="midnightblue" stroke="midnightblue" points="1433.58,-196.49 1439.35,-187.61 1429.3,-190.95 1433.58,-196.49"/>
</g>
<!-- Node24 -->
<g id="node24" class="node">
<title>Node24</title>
<g id="a_node24"><a xlink:href="PPU_8hpp.html" target="_top" xlink:title=" ">
<polygon fill="white" stroke="black" points="1146.5,-224.5 1146.5,-243.5 1226.5,-243.5 1226.5,-224.5 1146.5,-224.5"/>
<text text-anchor="middle" x="1186.5" y="-231.5" font-family="Helvetica,sans-Serif" font-size="10.00">PPU/PPU.hpp</text>
</a>
</g>
</g>
<!-- Node16&#45;&gt;Node24 -->
<g id="edge51" class="edge">
<title>Node16&#45;&gt;Node24</title>
<path fill="none" stroke="midnightblue" d="M1231.66,-336.37C1223.68,-318.46 1205.17,-276.92 1194.5,-252.95"/>
<polygon fill="midnightblue" stroke="midnightblue" points="1197.59,-251.3 1190.33,-243.59 1191.2,-254.15 1197.59,-251.3"/>
</g>
<!-- Node25 -->
<g id="node25" class="node">
<title>Node25</title>
<g id="a_node25"><a xlink:href="IRenderer_8hpp.html" target="_top" xlink:title=" ">
<polygon fill="white" stroke="black" points="1206.5,-168.5 1206.5,-187.5 1346.5,-187.5 1346.5,-168.5 1206.5,-168.5"/>
<text text-anchor="middle" x="1276.5" y="-175.5" font-family="Helvetica,sans-Serif" font-size="10.00">../Renderer/IRenderer.hpp</text>
</a>
</g>
</g>
<!-- Node16&#45;&gt;Node25 -->
<g id="edge73" class="edge">
<title>Node16&#45;&gt;Node25</title>
<path fill="none" stroke="midnightblue" d="M1237.7,-336.08C1244.16,-309.95 1263.11,-233.21 1271.91,-197.58"/>
<polygon fill="midnightblue" stroke="midnightblue" points="1275.38,-198.12 1274.38,-187.57 1268.59,-196.44 1275.38,-198.12"/>
</g>
<!-- Node30 -->
<g id="node30" class="node">
<title>Node30</title>
<g id="a_node30"><a xlink:href="APU_8hpp.html" target="_top" xlink:title=" ">
<polygon fill="white" stroke="black" points="1047,-224.5 1047,-243.5 1128,-243.5 1128,-224.5 1047,-224.5"/>
<text text-anchor="middle" x="1087.5" y="-231.5" font-family="Helvetica,sans-Serif" font-size="10.00">APU/APU.hpp</text>
</a>
</g>
</g>
<!-- Node16&#45;&gt;Node30 -->
<g id="edge62" class="edge">
<title>Node16&#45;&gt;Node30</title>
<path fill="none" stroke="midnightblue" d="M1223.89,-336.37C1198.71,-317.65 1138.83,-273.15 1107.46,-249.83"/>
<polygon fill="midnightblue" stroke="midnightblue" points="1109.17,-246.75 1099.06,-243.59 1105,-252.37 1109.17,-246.75"/>
</g>
<!-- Node34 -->
<g id="node34" class="node">
<title>Node34</title>
<g id="a_node34"><a xlink:href="DebuggableError_8hpp.html" target="_top" xlink:title=" ">
<polygon fill="white" stroke="black" points="853,-280.5 853,-299.5 1028,-299.5 1028,-280.5 853,-280.5"/>
<text text-anchor="middle" x="940.5" y="-287.5" font-family="Helvetica,sans-Serif" font-size="10.00">Exceptions/DebuggableError.hpp</text>
</a>
</g>
</g>
<!-- Node16&#45;&gt;Node34 -->
<g id="edge74" class="edge">
<title>Node16&#45;&gt;Node34</title>
<path fill="none" stroke="midnightblue" d="M1199.33,-338.38C1148.86,-329.14 1056.82,-312.29 997.19,-301.38"/>
<polygon fill="midnightblue" stroke="midnightblue" points="997.65,-297.9 987.18,-299.55 996.39,-304.79 997.65,-297.9"/>
</g>
<!-- Node17&#45;&gt;Node7 -->
<g id="edge30" class="edge">
<title>Node17&#45;&gt;Node7</title>
<path fill="none" stroke="midnightblue" d="M1522.15,-289.24C1572.36,-287.86 1658.91,-279.84 1722.5,-244 1751.57,-227.62 1755.24,-216.55 1772.5,-188 1802.86,-137.79 1813.96,-99.43 1774.5,-56 1760.22,-40.28 1739.4,-29.72 1720.44,-22.8"/>
<polygon fill="midnightblue" stroke="midnightblue" points="1721.34,-19.41 1710.75,-19.51 1719.09,-26.04 1721.34,-19.41"/>
</g>
<!-- Node17&#45;&gt;Node8 -->
<g id="edge29" class="edge">
<title>Node17&#45;&gt;Node8</title>
<path fill="none" stroke="midnightblue" d="M1440.91,-287.95C1326.12,-284.64 1000.83,-272.92 898.5,-244 879.75,-238.7 878.04,-229.98 859.5,-224 820.97,-211.58 720.16,-197.74 646.43,-188.72"/>
<polygon fill="midnightblue" stroke="midnightblue" points="646.56,-185.22 636.21,-187.49 645.72,-192.16 646.56,-185.22"/>
</g>
<!-- Node17&#45;&gt;Node12 -->
<g id="edge28" class="edge">
<title>Node17&#45;&gt;Node12</title>
<path fill="none" stroke="midnightblue" d="M1475.32,-280.21C1458.82,-257.46 1411.13,-196.44 1355.5,-168 1322.14,-150.94 1222.18,-136.5 1160.13,-128.85"/>
<polygon fill="midnightblue" stroke="midnightblue" points="1160.48,-125.37 1150.13,-127.64 1159.64,-132.32 1160.48,-125.37"/>
</g>
<!-- Node17&#45;&gt;Node18 -->
<g id="edge31" class="edge">
<title>Node17&#45;&gt;Node18</title>
<path fill="none" stroke="midnightblue" d="M1494.35,-280.32C1506.72,-271.98 1525.63,-259.21 1540.24,-249.35"/>
<polygon fill="midnightblue" stroke="midnightblue" points="1542.35,-252.15 1548.68,-243.65 1538.43,-246.35 1542.35,-252.15"/>
</g>
<!-- Node22 -->
<g id="node22" class="node">
<title>Node22</title>
<g id="a_node22"><a xlink:href="Instruction_8hpp.html" target="_top" xlink:title=" ">
<polygon fill="white" stroke="black" points="1657,-56.5 1657,-75.5 1746,-75.5 1746,-56.5 1657,-56.5"/>
<text text-anchor="middle" x="1701.5" y="-63.5" font-family="Helvetica,sans-Serif" font-size="10.00">Instruction.hpp</text>
</a>
</g>
</g>
<!-- Node17&#45;&gt;Node22 -->
<g id="edge41" class="edge">
<title>Node17&#45;&gt;Node22</title>
<path fill="none" stroke="midnightblue" d="M1522.08,-288.32C1585.48,-284.76 1705.91,-267.31 1755.5,-188 1777.63,-152.6 1741.25,-106.58 1718.19,-82.79"/>
<polygon fill="midnightblue" stroke="midnightblue" points="1720.54,-80.19 1710.98,-75.62 1715.6,-85.16 1720.54,-80.19"/>
</g>
<!-- Node23 -->
<g id="node23" class="node">
<title>Node23</title>
<g id="a_node23"><a xlink:href="DMA_8hpp.html" target="_top" xlink:title=" ">
<polygon fill="white" stroke="black" points="908,-224.5 908,-243.5 995,-243.5 995,-224.5 908,-224.5"/>
<text text-anchor="middle" x="951.5" y="-231.5" font-family="Helvetica,sans-Serif" font-size="10.00">DMA/DMA.hpp</text>
</a>
</g>
</g>
<!-- Node17&#45;&gt;Node23 -->
<g id="edge44" class="edge">
<title>Node17&#45;&gt;Node23</title>
<path fill="none" stroke="midnightblue" d="M1440.88,-284.9C1362.88,-277.02 1186.73,-259.2 1038.5,-244 1027.85,-242.91 1016.48,-241.74 1005.58,-240.61"/>
<polygon fill="midnightblue" stroke="midnightblue" points="1005.62,-237.1 995.31,-239.55 1004.9,-244.06 1005.62,-237.1"/>
</g>
<!-- Node18&#45;&gt;Node7 -->
<g id="edge34" class="edge">
<title>Node18&#45;&gt;Node7</title>
<path fill="none" stroke="midnightblue" d="M1631.51,-225.89C1680.57,-219.29 1740.01,-207.49 1755.5,-188 1792,-142.07 1785.25,-106.56 1755.5,-56 1746.58,-40.84 1730.51,-30.43 1715.02,-23.46"/>
<polygon fill="midnightblue" stroke="midnightblue" points="1716.1,-20.12 1705.52,-19.56 1713.44,-26.6 1716.1,-20.12"/>
</g>
<!-- Node18&#45;&gt;Node12 -->
<g id="edge33" class="edge">
<title>Node18&#45;&gt;Node12</title>
<path fill="none" stroke="midnightblue" d="M1557.23,-224.45C1549.52,-210.01 1531.77,-181.1 1507.5,-168 1477.55,-151.83 1261.09,-134.14 1160.12,-126.66"/>
<polygon fill="midnightblue" stroke="midnightblue" points="1160.36,-123.17 1150.14,-125.93 1159.85,-130.15 1160.36,-123.17"/>
</g>
<!-- Node18&#45;&gt;Node13 -->
<g id="edge32" class="edge">
<title>Node18&#45;&gt;Node13</title>
<path fill="none" stroke="midnightblue" d="M1563.1,-224.44C1567.62,-198.72 1579.53,-119.94 1568.5,-56 1566.93,-46.91 1563.71,-37.22 1560.56,-29.17"/>
<polygon fill="midnightblue" stroke="midnightblue" points="1563.69,-27.6 1556.61,-19.72 1557.24,-30.3 1563.69,-27.6"/>
</g>
<!-- Node19 -->
<g id="node19" class="node">
<title>Node19</title>
<g id="a_node19"><a xlink:href="ARectangleMemory_8hpp.html" target="_top" xlink:title=" ">
<polygon fill="white" stroke="black" points="1340,-112.5 1340,-131.5 1525,-131.5 1525,-112.5 1340,-112.5"/>
<text text-anchor="middle" x="1432.5" y="-119.5" font-family="Helvetica,sans-Serif" font-size="10.00">../Memory/ARectangleMemory.hpp</text>
</a>
</g>
</g>
<!-- Node18&#45;&gt;Node19 -->
<g id="edge35" class="edge">
<title>Node18&#45;&gt;Node19</title>
<path fill="none" stroke="midnightblue" d="M1560.96,-224.28C1559.66,-210.61 1555.28,-184.05 1540.5,-168 1525.66,-151.89 1504.15,-141.36 1484.23,-134.58"/>
<polygon fill="midnightblue" stroke="midnightblue" points="1485.21,-131.22 1474.62,-131.54 1483.1,-137.89 1485.21,-131.22"/>
</g>
<!-- Node20 -->
<g id="node20" class="node">
<title>Node20</title>
<g id="a_node20"><a xlink:href="InterruptVectors_8hpp.html" target="_top" xlink:title=" ">
<polygon fill="white" stroke="black" points="1630.5,-168.5 1630.5,-187.5 1746.5,-187.5 1746.5,-168.5 1630.5,-168.5"/>
<text text-anchor="middle" x="1688.5" y="-175.5" font-family="Helvetica,sans-Serif" font-size="10.00">InterruptVectors.hpp</text>
</a>
</g>
</g>
<!-- Node18&#45;&gt;Node20 -->
<g id="edge37" class="edge">
<title>Node18&#45;&gt;Node20</title>
<path fill="none" stroke="midnightblue" d="M1581.62,-224.44C1602.52,-215.56 1635.43,-201.56 1659.22,-191.45"/>
<polygon fill="midnightblue" stroke="midnightblue" points="1660.64,-194.65 1668.47,-187.52 1657.9,-188.21 1660.64,-194.65"/>
</g>
<!-- Node18&#45;&gt;Node21 -->
<g id="edge38" class="edge">
<title>Node18&#45;&gt;Node21</title>
<path fill="none" stroke="midnightblue" d="M1543.67,-224.32C1525.78,-215.62 1498.02,-202.12 1477.45,-192.11"/>
<polygon fill="midnightblue" stroke="midnightblue" points="1478.81,-188.88 1468.29,-187.65 1475.75,-195.18 1478.81,-188.88"/>
</g>
<!-- Node19&#45;&gt;Node15 -->
<g id="edge36" class="edge">
<title>Node19&#45;&gt;Node15</title>
<path fill="none" stroke="midnightblue" d="M1384.65,-112.44C1329.06,-102.5 1237.76,-86.18 1181.05,-76.04"/>
<polygon fill="midnightblue" stroke="midnightblue" points="1181.34,-72.54 1170.88,-74.22 1180.11,-79.43 1181.34,-72.54"/>
</g>
<!-- Node21&#45;&gt;Node13 -->
<g id="edge40" class="edge">
<title>Node21&#45;&gt;Node13</title>
<path fill="none" stroke="midnightblue" d="M1480.85,-168.43C1499.32,-161.61 1521.74,-150.13 1534.5,-132 1556.13,-101.28 1556.46,-55.23 1554.6,-29.72"/>
<polygon fill="midnightblue" stroke="midnightblue" points="1558.07,-29.2 1553.66,-19.56 1551.1,-29.84 1558.07,-29.2"/>
</g>
<!-- Node21&#45;&gt;Node19 -->
<g id="edge39" class="edge">
<title>Node21&#45;&gt;Node19</title>
<path fill="none" stroke="midnightblue" d="M1447.53,-168.08C1445.12,-160.85 1441.64,-150.41 1438.63,-141.4"/>
<polygon fill="midnightblue" stroke="midnightblue" points="1441.9,-140.13 1435.42,-131.75 1435.26,-142.34 1441.9,-140.13"/>
</g>
<!-- Node22&#45;&gt;Node7 -->
<g id="edge43" class="edge">
<title>Node22&#45;&gt;Node7</title>
<path fill="none" stroke="midnightblue" d="M1697.04,-56.08C1693.35,-48.69 1687.98,-37.95 1683.41,-28.81"/>
<polygon fill="midnightblue" stroke="midnightblue" points="1686.48,-27.13 1678.88,-19.75 1680.22,-30.26 1686.48,-27.13"/>
</g>
<!-- Node22&#45;&gt;Node13 -->
<g id="edge42" class="edge">
<title>Node22&#45;&gt;Node13</title>
<path fill="none" stroke="midnightblue" d="M1677.89,-56.44C1652.6,-47.28 1612.33,-32.68 1584.28,-22.52"/>
<polygon fill="midnightblue" stroke="midnightblue" points="1585.14,-19.11 1574.54,-18.99 1582.75,-25.69 1585.14,-19.11"/>
</g>
<!-- Node23&#45;&gt;Node7 -->
<g id="edge47" class="edge">
<title>Node23&#45;&gt;Node7</title>
<path fill="none" stroke="midnightblue" d="M965.21,-224.45C987.18,-211.01 1031.95,-184.77 1072.5,-168 1123.95,-146.72 1140.45,-151.79 1192.5,-132 1212.2,-124.51 1215.57,-118.84 1235.5,-112 1307.28,-87.35 1522.55,-42.03 1622.48,-21.54"/>
<polygon fill="midnightblue" stroke="midnightblue" points="1623.26,-24.95 1632.36,-19.52 1621.86,-18.1 1623.26,-24.95"/>
</g>
<!-- Node23&#45;&gt;Node8 -->
<g id="edge48" class="edge">
<title>Node23&#45;&gt;Node8</title>
<path fill="none" stroke="midnightblue" d="M907.81,-226.13C902.98,-225.4 898.14,-224.67 893.5,-224 805.63,-211.23 704.49,-197.69 637.16,-188.83"/>
<polygon fill="midnightblue" stroke="midnightblue" points="637.44,-185.34 627.07,-187.51 636.53,-192.28 637.44,-185.34"/>
</g>
<!-- Node23&#45;&gt;Node9 -->
<g id="edge45" class="edge">
<title>Node23&#45;&gt;Node9</title>
<path fill="none" stroke="midnightblue" d="M958.59,-224.47C974.49,-204.23 1010.1,-152.05 990.5,-112 969.72,-69.54 921.53,-39.79 890.02,-24.05"/>
<polygon fill="midnightblue" stroke="midnightblue" points="891.35,-20.8 880.82,-19.61 888.31,-27.11 891.35,-20.8"/>
</g>
<!-- Node23&#45;&gt;Node11 -->
<g id="edge46" class="edge">
<title>Node23&#45;&gt;Node11</title>
<path fill="none" stroke="midnightblue" d="M907.99,-228.65C892.66,-227.14 875.32,-225.46 859.5,-224 813.52,-219.75 476.7,-222.03 445.5,-188 405.85,-144.76 416.16,-106.8 445.5,-56 454.18,-40.98 469.99,-30.52 485.12,-23.5"/>
<polygon fill="midnightblue" stroke="midnightblue" points="486.55,-26.69 494.38,-19.56 483.81,-20.25 486.55,-26.69"/>
</g>
<!-- Node24&#45;&gt;Node8 -->
<g id="edge54" class="edge">
<title>Node24&#45;&gt;Node8</title>
<path fill="none" stroke="midnightblue" d="M1146.44,-225.28C1143.42,-224.81 1140.42,-224.37 1137.5,-224 923.32,-196.58 865.6,-207.34 646.37,-188.04"/>
<polygon fill="midnightblue" stroke="midnightblue" points="646.41,-184.53 636.14,-187.13 645.79,-191.5 646.41,-184.53"/>
</g>
<!-- Node24&#45;&gt;Node9 -->
<g id="edge52" class="edge">
<title>Node24&#45;&gt;Node9</title>
<path fill="none" stroke="midnightblue" d="M1146.43,-225.37C1143.41,-224.88 1140.41,-224.41 1137.5,-224 1058.34,-212.77 844.32,-234.82 779.5,-188 750.68,-167.18 740.5,-144.68 754.5,-112 771.24,-72.92 811.37,-41.79 837.16,-24.9"/>
<polygon fill="midnightblue" stroke="midnightblue" points="839.06,-27.84 845.63,-19.53 835.31,-21.93 839.06,-27.84"/>
</g>
<!-- Node24&#45;&gt;Node12 -->
<g id="edge53" class="edge">
<title>Node24&#45;&gt;Node12</title>
<path fill="none" stroke="midnightblue" d="M1184.28,-224.38C1180.63,-211.31 1172.44,-186.09 1159.5,-168 1151.24,-156.44 1139.48,-145.81 1129.33,-137.79"/>
<polygon fill="midnightblue" stroke="midnightblue" points="1131.38,-134.95 1121.3,-131.69 1127.15,-140.53 1131.38,-134.95"/>
</g>
<!-- Node24&#45;&gt;Node21 -->
<g id="edge58" class="edge">
<title>Node24&#45;&gt;Node21</title>
<path fill="none" stroke="midnightblue" d="M1226.6,-224.8C1272.61,-215.39 1348.21,-199.92 1398.66,-189.6"/>
<polygon fill="midnightblue" stroke="midnightblue" points="1399.62,-192.98 1408.72,-187.55 1398.22,-186.12 1399.62,-192.98"/>
</g>
<!-- Node24&#45;&gt;Node25 -->
<g id="edge55" class="edge">
<title>Node24&#45;&gt;Node25</title>
<path fill="none" stroke="midnightblue" d="M1200.96,-224.32C1215,-215.9 1236.55,-202.97 1253.04,-193.07"/>
<polygon fill="midnightblue" stroke="midnightblue" points="1255.3,-195.8 1262.08,-187.65 1251.7,-189.8 1255.3,-195.8"/>
</g>
<!-- Node27 -->
<g id="node27" class="node">
<title>Node27</title>
<g id="a_node27"><a xlink:href="Vector2_8hpp.html" target="_top" xlink:title=" ">
<polygon fill="white" stroke="black" points="788.5,-168.5 788.5,-187.5 910.5,-187.5 910.5,-168.5 788.5,-168.5"/>
<text text-anchor="middle" x="849.5" y="-175.5" font-family="Helvetica,sans-Serif" font-size="10.00">../Models/Vector2.hpp</text>
</a>
</g>
</g>
<!-- Node24&#45;&gt;Node27 -->
<g id="edge59" class="edge">
<title>Node24&#45;&gt;Node27</title>
<path fill="none" stroke="midnightblue" d="M1146.4,-225.55C1143.39,-225.01 1140.4,-224.49 1137.5,-224 1062.2,-211.2 975.57,-197.85 917.16,-189.05"/>
<polygon fill="midnightblue" stroke="midnightblue" points="917.36,-185.54 906.95,-187.52 916.32,-192.46 917.36,-185.54"/>
</g>
<!-- Node25&#45;&gt;Node13 -->
<g id="edge56" class="edge">
<title>Node25&#45;&gt;Node13</title>
<path fill="none" stroke="midnightblue" d="M1281.96,-168.37C1290.89,-154.82 1309.82,-128.43 1331.5,-112 1391.67,-66.39 1475.72,-35.19 1520.85,-20.54"/>
<polygon fill="midnightblue" stroke="midnightblue" points="1521.93,-23.87 1530.4,-17.51 1519.81,-17.2 1521.93,-23.87"/>
</g>
<!-- Node26 -->
<g id="node26" class="node">
<title>Node26</title>
<g id="a_node26"><a xlink:title=" ">
<polygon fill="white" stroke="#bfbfbf" points="1244.5,-112.5 1244.5,-131.5 1284.5,-131.5 1284.5,-112.5 1244.5,-112.5"/>
<text text-anchor="middle" x="1264.5" y="-119.5" font-family="Helvetica,sans-Serif" font-size="10.00">span</text>
</a>
</g>
</g>
<!-- Node25&#45;&gt;Node26 -->
<g id="edge57" class="edge">
<title>Node25&#45;&gt;Node26</title>
<path fill="none" stroke="midnightblue" d="M1274.52,-168.08C1272.93,-160.93 1270.64,-150.64 1268.65,-141.69"/>
<polygon fill="midnightblue" stroke="midnightblue" points="1272.03,-140.75 1266.44,-131.75 1265.2,-142.27 1272.03,-140.75"/>
</g>
<!-- Node28 -->
<g id="node28" class="node">
<title>Node28</title>
<g id="a_node28"><a xlink:title=" ">
<polygon fill="white" stroke="#bfbfbf" points="764,-112.5 764,-131.5 821,-131.5 821,-112.5 764,-112.5"/>
<text text-anchor="middle" x="792.5" y="-119.5" font-family="Helvetica,sans-Serif" font-size="10.00">ostream</text>
</a>
</g>
</g>
<!-- Node27&#45;&gt;Node28 -->
<g id="edge60" class="edge">
<title>Node27&#45;&gt;Node28</title>
<path fill="none" stroke="midnightblue" d="M840.34,-168.32C832,-160.42 819.47,-148.55 809.32,-138.94"/>
<polygon fill="midnightblue" stroke="midnightblue" points="811.49,-136.17 801.82,-131.83 806.68,-141.25 811.49,-136.17"/>
</g>
<!-- Node29 -->
<g id="node29" class="node">
<title>Node29</title>
<g id="a_node29"><a xlink:title=" ">
<polygon fill="white" stroke="#bfbfbf" points="839,-112.5 839,-131.5 982,-131.5 982,-112.5 839,-112.5"/>
<text text-anchor="middle" x="910.5" y="-119.5" font-family="Helvetica,sans-Serif" font-size="10.00">SFML/System/Vector2.hpp</text>
</a>
</g>
</g>
<!-- Node27&#45;&gt;Node29 -->
<g id="edge61" class="edge">
<title>Node27&#45;&gt;Node29</title>
<path fill="none" stroke="midnightblue" d="M859.3,-168.32C868.32,-160.34 881.91,-148.31 892.82,-138.65"/>
<polygon fill="midnightblue" stroke="midnightblue" points="895.35,-141.08 900.52,-131.83 890.71,-135.84 895.35,-141.08"/>
</g>
<!-- Node30&#45;&gt;Node11 -->
<g id="edge63" class="edge">
<title>Node30&#45;&gt;Node11</title>
<path fill="none" stroke="midnightblue" d="M1046.58,-228.24C1033.18,-226.76 1018.22,-225.21 1004.5,-224 946.04,-218.84 517.56,-230.89 477.5,-188 434.93,-142.42 484.78,-62.57 510.28,-27.88"/>
<polygon fill="midnightblue" stroke="midnightblue" points="513.21,-29.81 516.45,-19.72 507.62,-25.59 513.21,-29.81"/>
</g>
<!-- Node30&#45;&gt;Node12 -->
<g id="edge68" class="edge">
<title>Node30&#45;&gt;Node12</title>
<path fill="none" stroke="midnightblue" d="M1082.49,-224.42C1075.82,-211.81 1065.6,-187.67 1072.5,-168 1076.29,-157.21 1083.87,-147.08 1091.1,-139.18"/>
<polygon fill="midnightblue" stroke="midnightblue" points="1093.83,-141.4 1098.34,-131.81 1088.83,-136.49 1093.83,-141.4"/>
</g>
<!-- Node30&#45;&gt;Node21 -->
<g id="edge69" class="edge">
<title>Node30&#45;&gt;Node21</title>
<path fill="none" stroke="midnightblue" d="M1128.14,-225.56C1131.3,-225.02 1134.45,-224.49 1137.5,-224 1226.44,-209.61 1329.98,-195.17 1392.85,-186.67"/>
<polygon fill="midnightblue" stroke="midnightblue" points="1393.52,-190.11 1402.96,-185.3 1392.58,-183.17 1393.52,-190.11"/>
</g>
<!-- Node30&#45;&gt;Node25 -->
<g id="edge72" class="edge">
<title>Node30&#45;&gt;Node25</title>
<path fill="none" stroke="midnightblue" d="M1117.45,-224.44C1149.66,-215.24 1201.03,-200.56 1236.64,-190.39"/>
<polygon fill="midnightblue" stroke="midnightblue" points="1238.04,-193.63 1246.69,-187.52 1236.12,-186.9 1238.04,-193.63"/>
</g>
<!-- Node31 -->
<g id="node31" class="node">
<title>Node31</title>
<g id="a_node31"><a xlink:href="DSP_8hpp.html" target="_top" xlink:title=" ">
<polygon fill="white" stroke="black" points="654.5,-168.5 654.5,-187.5 732.5,-187.5 732.5,-168.5 654.5,-168.5"/>
<text text-anchor="middle" x="693.5" y="-175.5" font-family="Helvetica,sans-Serif" font-size="10.00">DSP/DSP.hpp</text>
</a>
</g>
</g>
<!-- Node30&#45;&gt;Node31 -->
<g id="edge64" class="edge">
<title>Node30&#45;&gt;Node31</title>
<path fill="none" stroke="midnightblue" d="M1046.75,-228.12C982.73,-220.33 854.7,-204.32 746.5,-188 745.23,-187.81 743.94,-187.61 742.64,-187.41"/>
<polygon fill="midnightblue" stroke="midnightblue" points="742.97,-183.92 732.55,-185.8 741.87,-190.83 742.97,-183.92"/>
</g>
<!-- Node33 -->
<g id="node33" class="node">
<title>Node33</title>
<g id="a_node33"><a xlink:href="IPL_8hpp.html" target="_top" xlink:title=" ">
<polygon fill="white" stroke="black" points="1081,-168.5 1081,-187.5 1150,-187.5 1150,-168.5 1081,-168.5"/>
<text text-anchor="middle" x="1115.5" y="-175.5" font-family="Helvetica,sans-Serif" font-size="10.00">IPL/IPL.hpp</text>
</a>
</g>
</g>
<!-- Node30&#45;&gt;Node33 -->
<g id="edge70" class="edge">
<title>Node30&#45;&gt;Node33</title>
<path fill="none" stroke="midnightblue" d="M1092.12,-224.08C1095.96,-216.69 1101.52,-205.95 1106.26,-196.81"/>
<polygon fill="midnightblue" stroke="midnightblue" points="1109.47,-198.24 1110.96,-187.75 1103.25,-195.02 1109.47,-198.24"/>
</g>
<!-- Node31&#45;&gt;Node9 -->
<g id="edge65" class="edge">
<title>Node31&#45;&gt;Node9</title>
<path fill="none" stroke="midnightblue" d="M692.83,-168.38C691.64,-146.57 691.61,-88.57 721.5,-56 748.16,-26.95 793.68,-16.59 825.34,-12.93"/>
<polygon fill="midnightblue" stroke="midnightblue" points="825.89,-16.39 835.5,-11.93 825.2,-9.43 825.89,-16.39"/>
</g>
<!-- Node31&#45;&gt;Node12 -->
<g id="edge67" class="edge">
<title>Node31&#45;&gt;Node12</title>
<path fill="none" stroke="midnightblue" d="M732.54,-171.92C807.7,-162.14 972.47,-140.7 1056.7,-129.74"/>
<polygon fill="midnightblue" stroke="midnightblue" points="1057.34,-133.19 1066.8,-128.43 1056.43,-126.25 1057.34,-133.19"/>
</g>
<!-- Node32 -->
<g id="node32" class="node">
<title>Node32</title>
<g id="a_node32"><a xlink:title=" ">
<polygon fill="white" stroke="#bfbfbf" points="627.5,-112.5 627.5,-131.5 669.5,-131.5 669.5,-112.5 627.5,-112.5"/>
<text text-anchor="middle" x="648.5" y="-119.5" font-family="Helvetica,sans-Serif" font-size="10.00">array</text>
</a>
</g>
</g>
<!-- Node31&#45;&gt;Node32 -->
<g id="edge66" class="edge">
<title>Node31&#45;&gt;Node32</title>
<path fill="none" stroke="midnightblue" d="M686.07,-168.08C679.65,-160.38 670.19,-149.03 662.38,-139.65"/>
<polygon fill="midnightblue" stroke="midnightblue" points="664.88,-137.19 655.79,-131.75 659.51,-141.67 664.88,-137.19"/>
</g>
<!-- Node33&#45;&gt;Node12 -->
<g id="edge71" class="edge">
<title>Node33&#45;&gt;Node12</title>
<path fill="none" stroke="midnightblue" d="M1114.34,-168.08C1113.42,-160.93 1112.08,-150.64 1110.92,-141.69"/>
<polygon fill="midnightblue" stroke="midnightblue" points="1114.39,-141.22 1109.63,-131.75 1107.45,-142.12 1114.39,-141.22"/>
</g>
<!-- Node35 -->
<g id="node35" class="node">
<title>Node35</title>
<g id="a_node35"><a xlink:title=" ">
<polygon fill="white" stroke="#bfbfbf" points="756,-224.5 756,-243.5 851,-243.5 851,-224.5 756,-224.5"/>
<text text-anchor="middle" x="803.5" y="-231.5" font-family="Helvetica,sans-Serif" font-size="10.00">bits/exception.h</text>
</a>
</g>
</g>
<!-- Node34&#45;&gt;Node35 -->
<g id="edge75" class="edge">
<title>Node34&#45;&gt;Node35</title>
<path fill="none" stroke="midnightblue" d="M918.79,-280.44C896.15,-271.52 860.43,-257.44 834.75,-247.32"/>
<polygon fill="midnightblue" stroke="midnightblue" points="835.69,-243.93 825.11,-243.52 833.13,-250.44 835.69,-243.93"/>
</g>
<!-- Node36&#45;&gt;Node7 -->
<g id="edge80" class="edge">
<title>Node36&#45;&gt;Node7</title>
<path fill="none" stroke="midnightblue" d="M1875.63,-56.44C1834.02,-47.04 1767.13,-31.93 1722.03,-21.74"/>
<polygon fill="midnightblue" stroke="midnightblue" points="1722.72,-18.31 1712.19,-19.52 1721.18,-25.13 1722.72,-18.31"/>
</g>
<!-- Node36&#45;&gt;Node13 -->
<g id="edge77" class="edge">
<title>Node36&#45;&gt;Node13</title>
<path fill="none" stroke="midnightblue" d="M1859.3,-57.06C1798.66,-48.15 1697.52,-33.21 1610.5,-20 1602.05,-18.72 1592.91,-17.31 1584.44,-15.99"/>
<polygon fill="midnightblue" stroke="midnightblue" points="1584.95,-12.53 1574.53,-14.45 1583.87,-19.45 1584.95,-12.53"/>
</g>
<!-- Node37 -->
<g id="node37" class="node">
<title>Node37</title>
<g id="a_node37"><a xlink:title=" ">
<polygon fill="white" stroke="#bfbfbf" points="1867,-0.5 1867,-19.5 1898,-19.5 1898,-0.5 1867,-0.5"/>
<text text-anchor="middle" x="1882.5" y="-7.5" font-family="Helvetica,sans-Serif" font-size="10.00">ios</text>
</a>
</g>
</g>
<!-- Node36&#45;&gt;Node37 -->
<g id="edge78" class="edge">
<title>Node36&#45;&gt;Node37</title>
<path fill="none" stroke="midnightblue" d="M1908.38,-56.08C1904.09,-48.61 1897.84,-37.72 1892.56,-28.52"/>
<polygon fill="midnightblue" stroke="midnightblue" points="1895.54,-26.68 1887.52,-19.75 1889.47,-30.17 1895.54,-26.68"/>
</g>
<!-- Node38 -->
<g id="node38" class="node">
<title>Node38</title>
<g id="a_node38"><a xlink:title=" ">
<polygon fill="white" stroke="#bfbfbf" points="1916.5,-0.5 1916.5,-19.5 1972.5,-19.5 1972.5,-0.5 1916.5,-0.5"/>
<text text-anchor="middle" x="1944.5" y="-7.5" font-family="Helvetica,sans-Serif" font-size="10.00">sstream</text>
</a>
</g>
</g>
<!-- Node36&#45;&gt;Node38 -->
<g id="edge79" class="edge">
<title>Node36&#45;&gt;Node38</title>
<path fill="none" stroke="midnightblue" d="M1918.62,-56.08C1922.91,-48.61 1929.16,-37.72 1934.44,-28.52"/>
<polygon fill="midnightblue" stroke="midnightblue" points="1937.53,-30.17 1939.48,-19.75 1931.46,-26.68 1937.53,-30.17"/>
</g>
</g>
</svg>
