<?xml version="1.0" encoding="UTF-8" standalone="no"?>
<!DOCTYPE svg PUBLIC "-//W3C//DTD SVG 1.1//EN"
 "http://www.w3.org/Graphics/SVG/1.1/DTD/svg11.dtd">
<!-- Generated by graphviz version 2.43.0 (0)
 -->
<!-- Title: sources/Renderer/SFRenderer.hpp Pages: 1 -->
<svg width="1525pt" height="420pt"
 viewBox="0.00 0.00 1525.45 420.00" xmlns="http://www.w3.org/2000/svg" xmlns:xlink="http://www.w3.org/1999/xlink">
<g id="graph0" class="graph" transform="scale(1 1) rotate(0) translate(4 416)">
<title>sources/Renderer/SFRenderer.hpp</title>
<polygon fill="white" stroke="transparent" points="-4,4 -4,-416 1521.45,-416 1521.45,4 -4,4"/>
<!-- Node1 -->
<g id="node1" class="node">
<title>Node1</title>
<g id="a_node1"><a xlink:title=" ">
<polygon fill="#bfbfbf" stroke="black" points="663.45,-392.5 663.45,-411.5 844.45,-411.5 844.45,-392.5 663.45,-392.5"/>
<text text-anchor="middle" x="753.95" y="-399.5" font-family="Helvetica,sans-Serif" font-size="10.00">sources/Renderer/SFRenderer.hpp</text>
</a>
</g>
</g>
<!-- Node2 -->
<g id="node2" class="node">
<title>Node2</title>
<g id="a_node2"><a xlink:href="IRenderer_8hpp.html" target="_top" xlink:title=" ">
<polygon fill="white" stroke="black" points="25.95,-168.5 25.95,-187.5 109.95,-187.5 109.95,-168.5 25.95,-168.5"/>
<text text-anchor="middle" x="67.95" y="-175.5" font-family="Helvetica,sans-Serif" font-size="10.00">IRenderer.hpp</text>
</a>
</g>
</g>
<!-- Node1&#45;&gt;Node2 -->
<g id="edge1" class="edge">
<title>Node1&#45;&gt;Node2</title>
<path fill="none" stroke="midnightblue" d="M675.09,-392.48C619.61,-385.43 543.96,-373.67 478.95,-356 345.62,-319.76 314.5,-301.69 188.95,-244 154.14,-228 115.36,-206.48 91.31,-192.67"/>
<polygon fill="midnightblue" stroke="midnightblue" points="92.96,-189.58 82.55,-187.61 89.46,-195.65 92.96,-189.58"/>
</g>
<!-- Node5 -->
<g id="node5" class="node">
<title>Node5</title>
<g id="a_node5"><a xlink:href="SNES_8hpp.html" target="_top" xlink:title=" ">
<polygon fill="white" stroke="black" points="487.95,-336.5 487.95,-355.5 559.95,-355.5 559.95,-336.5 487.95,-336.5"/>
<text text-anchor="middle" x="523.95" y="-343.5" font-family="Helvetica,sans-Serif" font-size="10.00">../SNES.hpp</text>
</a>
</g>
</g>
<!-- Node1&#45;&gt;Node5 -->
<g id="edge4" class="edge">
<title>Node1&#45;&gt;Node5</title>
<path fill="none" stroke="midnightblue" d="M717.51,-392.44C677.55,-383.06 613.36,-367.99 569.97,-357.8"/>
<polygon fill="midnightblue" stroke="midnightblue" points="570.76,-354.39 560.23,-355.52 569.16,-361.21 570.76,-354.39"/>
</g>
<!-- Node31 -->
<g id="node31" class="node">
<title>Node31</title>
<g id="a_node31"><a xlink:title=" ">
<polygon fill="white" stroke="#bfbfbf" points="577.95,-336.5 577.95,-355.5 687.95,-355.5 687.95,-336.5 577.95,-336.5"/>
<text text-anchor="middle" x="632.95" y="-343.5" font-family="Helvetica,sans-Serif" font-size="10.00">SFML/Graphics.hpp</text>
</a>
</g>
</g>
<!-- Node1&#45;&gt;Node31 -->
<g id="edge70" class="edge">
<title>Node1&#45;&gt;Node31</title>
<path fill="none" stroke="midnightblue" d="M734.78,-392.44C715.04,-383.64 684.07,-369.81 661.46,-359.72"/>
<polygon fill="midnightblue" stroke="midnightblue" points="662.59,-356.4 652.03,-355.52 659.74,-362.79 662.59,-356.4"/>
</g>
<!-- Node32 -->
<g id="node32" class="node">
<title>Node32</title>
<g id="a_node32"><a xlink:title=" ">
<polygon fill="white" stroke="#bfbfbf" points="706.45,-336.5 706.45,-355.5 801.45,-355.5 801.45,-336.5 706.45,-336.5"/>
<text text-anchor="middle" x="753.95" y="-343.5" font-family="Helvetica,sans-Serif" font-size="10.00">SFML/Audio.hpp</text>
</a>
</g>
</g>
<!-- Node1&#45;&gt;Node32 -->
<g id="edge71" class="edge">
<title>Node1&#45;&gt;Node32</title>
<path fill="none" stroke="midnightblue" d="M753.95,-392.08C753.95,-385.01 753.95,-374.86 753.95,-365.99"/>
<polygon fill="midnightblue" stroke="midnightblue" points="757.45,-365.75 753.95,-355.75 750.45,-365.75 757.45,-365.75"/>
</g>
<!-- Node33 -->
<g id="node33" class="node">
<title>Node33</title>
<g id="a_node33"><a xlink:title=" ">
<polygon fill="white" stroke="#bfbfbf" points="819.95,-336.5 819.95,-355.5 923.95,-355.5 923.95,-336.5 819.95,-336.5"/>
<text text-anchor="middle" x="871.95" y="-343.5" font-family="Helvetica,sans-Serif" font-size="10.00">SFML/System.hpp</text>
</a>
</g>
</g>
<!-- Node1&#45;&gt;Node33 -->
<g id="edge72" class="edge">
<title>Node1&#45;&gt;Node33</title>
<path fill="none" stroke="midnightblue" d="M772.65,-392.44C791.9,-383.64 822.1,-369.81 844.15,-359.72"/>
<polygon fill="midnightblue" stroke="midnightblue" points="845.7,-362.86 853.34,-355.52 842.79,-356.5 845.7,-362.86"/>
</g>
<!-- Node34 -->
<g id="node34" class="node">
<title>Node34</title>
<g id="a_node34"><a xlink:title=" ">
<polygon fill="white" stroke="#bfbfbf" points="942.45,-336.5 942.45,-355.5 1047.45,-355.5 1047.45,-336.5 942.45,-336.5"/>
<text text-anchor="middle" x="994.95" y="-343.5" font-family="Helvetica,sans-Serif" font-size="10.00">SFML/Window.hpp</text>
</a>
</g>
</g>
<!-- Node1&#45;&gt;Node34 -->
<g id="edge73" class="edge">
<title>Node1&#45;&gt;Node34</title>
<path fill="none" stroke="midnightblue" d="M792.14,-392.44C834.09,-383.04 901.55,-367.93 947.02,-357.74"/>
<polygon fill="midnightblue" stroke="midnightblue" points="947.95,-361.12 956.94,-355.52 946.42,-354.29 947.95,-361.12"/>
</g>
<!-- Node35 -->
<g id="node35" class="node">
<title>Node35</title>
<g id="a_node35"><a xlink:title=" ">
<polygon fill="white" stroke="#bfbfbf" points="1065.45,-336.5 1065.45,-355.5 1250.45,-355.5 1250.45,-336.5 1065.45,-336.5"/>
<text text-anchor="middle" x="1157.95" y="-343.5" font-family="Helvetica,sans-Serif" font-size="10.00">SFML/Graphics/RenderWindow.hpp</text>
</a>
</g>
</g>
<!-- Node1&#45;&gt;Node35 -->
<g id="edge74" class="edge">
<title>Node1&#45;&gt;Node35</title>
<path fill="none" stroke="midnightblue" d="M817.97,-392.44C890.36,-382.77 1008.06,-367.04 1084.23,-356.85"/>
<polygon fill="midnightblue" stroke="midnightblue" points="1084.79,-360.31 1094.24,-355.52 1083.86,-353.37 1084.79,-360.31"/>
</g>
<!-- Node3 -->
<g id="node3" class="node">
<title>Node3</title>
<g id="a_node3"><a xlink:title=" ">
<polygon fill="white" stroke="#bfbfbf" points="635.95,-0.5 635.95,-19.5 679.95,-19.5 679.95,-0.5 635.95,-0.5"/>
<text text-anchor="middle" x="657.95" y="-7.5" font-family="Helvetica,sans-Serif" font-size="10.00">string</text>
</a>
</g>
</g>
<!-- Node2&#45;&gt;Node3 -->
<g id="edge2" class="edge">
<title>Node2&#45;&gt;Node3</title>
<path fill="none" stroke="midnightblue" d="M71.12,-168.18C76.76,-153.88 89.93,-125.84 110.95,-112 303.69,14.9 396.33,-68.46 621.95,-20 623.23,-19.73 624.53,-19.44 625.84,-19.14"/>
<polygon fill="midnightblue" stroke="midnightblue" points="627,-22.47 635.92,-16.76 625.38,-15.65 627,-22.47"/>
</g>
<!-- Node4 -->
<g id="node4" class="node">
<title>Node4</title>
<g id="a_node4"><a xlink:title=" ">
<polygon fill="white" stroke="#bfbfbf" points="23.95,-112.5 23.95,-131.5 63.95,-131.5 63.95,-112.5 23.95,-112.5"/>
<text text-anchor="middle" x="43.95" y="-119.5" font-family="Helvetica,sans-Serif" font-size="10.00">span</text>
</a>
</g>
</g>
<!-- Node2&#45;&gt;Node4 -->
<g id="edge3" class="edge">
<title>Node2&#45;&gt;Node4</title>
<path fill="none" stroke="midnightblue" d="M63.99,-168.08C60.74,-160.77 56.03,-150.18 52,-141.1"/>
<polygon fill="midnightblue" stroke="midnightblue" points="55.1,-139.47 47.84,-131.75 48.7,-142.31 55.1,-139.47"/>
</g>
<!-- Node5&#45;&gt;Node2 -->
<g id="edge67" class="edge">
<title>Node5&#45;&gt;Node2</title>
<path fill="none" stroke="midnightblue" d="M500.4,-336.42C424.8,-308.9 188.15,-222.76 100.79,-190.95"/>
<polygon fill="midnightblue" stroke="midnightblue" points="101.96,-187.66 91.37,-187.52 99.57,-194.23 101.96,-187.66"/>
</g>
<!-- Node6 -->
<g id="node6" class="node">
<title>Node6</title>
<g id="a_node6"><a xlink:href="MemoryBus_8hpp.html" target="_top" xlink:title=" ">
<polygon fill="white" stroke="black" points="927.95,-168.5 927.95,-187.5 1067.95,-187.5 1067.95,-168.5 927.95,-168.5"/>
<text text-anchor="middle" x="997.95" y="-175.5" font-family="Helvetica,sans-Serif" font-size="10.00">Memory/MemoryBus.hpp</text>
</a>
</g>
</g>
<!-- Node5&#45;&gt;Node6 -->
<g id="edge5" class="edge">
<title>Node5&#45;&gt;Node6</title>
<path fill="none" stroke="midnightblue" d="M548.44,-336.42C627.1,-308.88 873.51,-222.58 964.1,-190.86"/>
<polygon fill="midnightblue" stroke="midnightblue" points="965.33,-194.13 973.61,-187.52 963.02,-187.53 965.33,-194.13"/>
</g>
<!-- Node14 -->
<g id="node14" class="node">
<title>Node14</title>
<g id="a_node14"><a xlink:href="CPU_8hpp.html" target="_top" xlink:title=" ">
<polygon fill="white" stroke="black" points="966.45,-280.5 966.45,-299.5 1047.45,-299.5 1047.45,-280.5 966.45,-280.5"/>
<text text-anchor="middle" x="1006.95" y="-287.5" font-family="Helvetica,sans-Serif" font-size="10.00">CPU/CPU.hpp</text>
</a>
</g>
</g>
<!-- Node5&#45;&gt;Node14 -->
<g id="edge23" class="edge">
<title>Node5&#45;&gt;Node14</title>
<path fill="none" stroke="midnightblue" d="M560.24,-337.41C563.18,-336.89 566.11,-336.42 568.95,-336 738.12,-311.2 782.38,-321.82 951.95,-300 953.42,-299.81 954.91,-299.61 956.42,-299.41"/>
<polygon fill="midnightblue" stroke="midnightblue" points="957.05,-302.85 966.45,-297.95 956.05,-295.92 957.05,-302.85"/>
</g>
<!-- Node15 -->
<g id="node15" class="node">
<title>Node15</title>
<g id="a_node15"><a xlink:href="Cartridge_8hpp.html" target="_top" xlink:title=" ">
<polygon fill="white" stroke="black" points="662.95,-224.5 662.95,-243.5 802.95,-243.5 802.95,-224.5 662.95,-224.5"/>
<text text-anchor="middle" x="732.95" y="-231.5" font-family="Helvetica,sans-Serif" font-size="10.00">../Cartridge/Cartridge.hpp</text>
</a>
</g>
</g>
<!-- Node5&#45;&gt;Node15 -->
<g id="edge45" class="edge">
<title>Node5&#45;&gt;Node15</title>
<path fill="none" stroke="midnightblue" d="M540.35,-336.37C576.67,-317.25 664.12,-271.23 707.57,-248.36"/>
<polygon fill="midnightblue" stroke="midnightblue" points="709.41,-251.35 716.63,-243.59 706.15,-245.15 709.41,-251.35"/>
</g>
<!-- Node18 -->
<g id="node18" class="node">
<title>Node18</title>
<g id="a_node18"><a xlink:href="Ram_8hpp.html" target="_top" xlink:title=" ">
<polygon fill="white" stroke="black" points="402.45,-168.5 402.45,-187.5 497.45,-187.5 497.45,-168.5 402.45,-168.5"/>
<text text-anchor="middle" x="449.95" y="-175.5" font-family="Helvetica,sans-Serif" font-size="10.00">../Ram/Ram.hpp</text>
</a>
</g>
</g>
<!-- Node5&#45;&gt;Node18 -->
<g id="edge46" class="edge">
<title>Node5&#45;&gt;Node18</title>
<path fill="none" stroke="midnightblue" d="M519.36,-336.5C510.15,-319.3 489.04,-279.04 473.95,-244 467.26,-228.46 460.68,-210.38 456.1,-197.24"/>
<polygon fill="midnightblue" stroke="midnightblue" points="459.33,-195.85 452.78,-187.53 452.71,-198.12 459.33,-195.85"/>
</g>
<!-- Node21 -->
<g id="node21" class="node">
<title>Node21</title>
<g id="a_node21"><a xlink:href="PPU_8hpp.html" target="_top" xlink:title=" ">
<polygon fill="white" stroke="black" points="333.95,-224.5 333.95,-243.5 413.95,-243.5 413.95,-224.5 333.95,-224.5"/>
<text text-anchor="middle" x="373.95" y="-231.5" font-family="Helvetica,sans-Serif" font-size="10.00">PPU/PPU.hpp</text>
</a>
</g>
</g>
<!-- Node5&#45;&gt;Node21 -->
<g id="edge47" class="edge">
<title>Node5&#45;&gt;Node21</title>
<path fill="none" stroke="midnightblue" d="M503.45,-336.46C485.34,-328.42 458.67,-315.35 437.95,-300 418.77,-285.79 399.99,-265.78 387.79,-251.73"/>
<polygon fill="midnightblue" stroke="midnightblue" points="390.24,-249.21 381.1,-243.85 384.91,-253.74 390.24,-249.21"/>
</g>
<!-- Node25 -->
<g id="node25" class="node">
<title>Node25</title>
<g id="a_node25"><a xlink:href="APU_8hpp.html" target="_top" xlink:title=" ">
<polygon fill="white" stroke="black" points="483.45,-224.5 483.45,-243.5 564.45,-243.5 564.45,-224.5 483.45,-224.5"/>
<text text-anchor="middle" x="523.95" y="-231.5" font-family="Helvetica,sans-Serif" font-size="10.00">APU/APU.hpp</text>
</a>
</g>
</g>
<!-- Node5&#45;&gt;Node25 -->
<g id="edge56" class="edge">
<title>Node5&#45;&gt;Node25</title>
<path fill="none" stroke="midnightblue" d="M523.95,-336.37C523.95,-318.62 523.95,-277.67 523.95,-253.6"/>
<polygon fill="midnightblue" stroke="midnightblue" points="527.45,-253.59 523.95,-243.59 520.45,-253.59 527.45,-253.59"/>
</g>
<!-- Node29 -->
<g id="node29" class="node">
<title>Node29</title>
<g id="a_node29"><a xlink:href="DebuggableError_8hpp.html" target="_top" xlink:title=" ">
<polygon fill="white" stroke="black" points="1223.45,-280.5 1223.45,-299.5 1398.45,-299.5 1398.45,-280.5 1223.45,-280.5"/>
<text text-anchor="middle" x="1310.95" y="-287.5" font-family="Helvetica,sans-Serif" font-size="10.00">Exceptions/DebuggableError.hpp</text>
</a>
</g>
</g>
<!-- Node5&#45;&gt;Node29 -->
<g id="edge68" class="edge">
<title>Node5&#45;&gt;Node29</title>
<path fill="none" stroke="midnightblue" d="M560.23,-337.3C563.17,-336.81 566.11,-336.37 568.95,-336 690.67,-320.21 1041.15,-303.04 1213.24,-295.26"/>
<polygon fill="midnightblue" stroke="midnightblue" points="1213.48,-298.75 1223.31,-294.81 1213.16,-291.76 1213.48,-298.75"/>
</g>
<!-- Node7 -->
<g id="node7" class="node">
<title>Node7</title>
<g id="a_node7"><a xlink:title=" ">
<polygon fill="white" stroke="#bfbfbf" points="562.95,-0.5 562.95,-19.5 612.95,-19.5 612.95,-0.5 562.95,-0.5"/>
<text text-anchor="middle" x="587.95" y="-7.5" font-family="Helvetica,sans-Serif" font-size="10.00">cstdint</text>
</a>
</g>
</g>
<!-- Node6&#45;&gt;Node7 -->
<g id="edge6" class="edge">
<title>Node6&#45;&gt;Node7</title>
<path fill="none" stroke="midnightblue" d="M965.97,-168.43C937.22,-160.33 894.08,-147.18 857.95,-132 840.36,-124.61 837.7,-119.01 819.95,-112 763.8,-89.81 744.08,-100.62 688.95,-76 658.41,-62.36 626.48,-40.29 606.9,-25.71"/>
<polygon fill="midnightblue" stroke="midnightblue" points="608.91,-22.84 598.82,-19.6 604.68,-28.42 608.91,-22.84"/>
</g>
<!-- Node8 -->
<g id="node8" class="node">
<title>Node8</title>
<g id="a_node8"><a xlink:title=" ">
<polygon fill="white" stroke="#bfbfbf" points="929.45,-0.5 929.45,-19.5 976.45,-19.5 976.45,-0.5 929.45,-0.5"/>
<text text-anchor="middle" x="952.95" y="-7.5" font-family="Helvetica,sans-Serif" font-size="10.00">vector</text>
</a>
</g>
</g>
<!-- Node6&#45;&gt;Node8 -->
<g id="edge7" class="edge">
<title>Node6&#45;&gt;Node8</title>
<path fill="none" stroke="midnightblue" d="M995.53,-168.08C988.45,-141.95 967.65,-65.21 957.99,-29.58"/>
<polygon fill="midnightblue" stroke="midnightblue" points="961.27,-28.3 955.27,-19.57 954.51,-30.14 961.27,-28.3"/>
</g>
<!-- Node9 -->
<g id="node9" class="node">
<title>Node9</title>
<g id="a_node9"><a xlink:title=" ">
<polygon fill="white" stroke="#bfbfbf" points="1028.95,-0.5 1028.95,-19.5 1086.95,-19.5 1086.95,-0.5 1028.95,-0.5"/>
<text text-anchor="middle" x="1057.95" y="-7.5" font-family="Helvetica,sans-Serif" font-size="10.00">memory</text>
</a>
</g>
</g>
<!-- Node6&#45;&gt;Node9 -->
<g id="edge8" class="edge">
<title>Node6&#45;&gt;Node9</title>
<path fill="none" stroke="midnightblue" d="M1001.18,-168.08C1010.66,-141.83 1038.6,-64.55 1051.4,-29.12"/>
<polygon fill="midnightblue" stroke="midnightblue" points="1054.75,-30.16 1054.85,-19.57 1048.16,-27.78 1054.75,-30.16"/>
</g>
<!-- Node10 -->
<g id="node10" class="node">
<title>Node10</title>
<g id="a_node10"><a xlink:href="AMemory_8hpp.html" target="_top" xlink:title=" ">
<polygon fill="white" stroke="black" points="867.45,-112.5 867.45,-131.5 950.45,-131.5 950.45,-112.5 867.45,-112.5"/>
<text text-anchor="middle" x="908.95" y="-119.5" font-family="Helvetica,sans-Serif" font-size="10.00">AMemory.hpp</text>
</a>
</g>
</g>
<!-- Node6&#45;&gt;Node10 -->
<g id="edge9" class="edge">
<title>Node6&#45;&gt;Node10</title>
<path fill="none" stroke="midnightblue" d="M983.65,-168.32C969.77,-159.9 948.46,-146.97 932.15,-137.07"/>
<polygon fill="midnightblue" stroke="midnightblue" points="933.58,-133.85 923.22,-131.65 929.95,-139.83 933.58,-133.85"/>
</g>
<!-- Node10&#45;&gt;Node3 -->
<g id="edge13" class="edge">
<title>Node10&#45;&gt;Node3</title>
<path fill="none" stroke="midnightblue" d="M883.84,-112.42C859.35,-103.86 821.2,-90 788.95,-76 751.37,-59.68 709.11,-38.1 683.01,-24.39"/>
<polygon fill="midnightblue" stroke="midnightblue" points="684.31,-21.12 673.84,-19.54 681.04,-27.31 684.31,-21.12"/>
</g>
<!-- Node10&#45;&gt;Node7 -->
<g id="edge10" class="edge">
<title>Node10&#45;&gt;Node7</title>
<path fill="none" stroke="midnightblue" d="M872.73,-112.44C839.23,-104.2 788.24,-90.84 744.95,-76 698.87,-60.21 646.91,-37.74 615.83,-23.79"/>
<polygon fill="midnightblue" stroke="midnightblue" points="617.07,-20.5 606.51,-19.57 614.18,-26.88 617.07,-20.5"/>
</g>
<!-- Node10&#45;&gt;Node8 -->
<g id="edge11" class="edge">
<title>Node10&#45;&gt;Node8</title>
<path fill="none" stroke="midnightblue" d="M912.4,-112.37C919.57,-94.46 936.18,-52.92 945.77,-28.95"/>
<polygon fill="midnightblue" stroke="midnightblue" points="949.05,-30.18 949.51,-19.59 942.55,-27.58 949.05,-30.18"/>
</g>
<!-- Node10&#45;&gt;Node9 -->
<g id="edge12" class="edge">
<title>Node10&#45;&gt;Node9</title>
<path fill="none" stroke="midnightblue" d="M920.64,-112.37C946.1,-93.57 1006.79,-48.77 1038.27,-25.53"/>
<polygon fill="midnightblue" stroke="midnightblue" points="1040.35,-28.35 1046.31,-19.59 1036.19,-22.72 1040.35,-28.35"/>
</g>
<!-- Node11 -->
<g id="node11" class="node">
<title>Node11</title>
<g id="a_node11"><a xlink:href="Int24_8hpp.html" target="_top" xlink:title=" ">
<polygon fill="white" stroke="black" points="1171.95,-0.5 1171.95,-19.5 1281.95,-19.5 1281.95,-0.5 1171.95,-0.5"/>
<text text-anchor="middle" x="1226.95" y="-7.5" font-family="Helvetica,sans-Serif" font-size="10.00">../Models/Int24.hpp</text>
</a>
</g>
</g>
<!-- Node10&#45;&gt;Node11 -->
<g id="edge14" class="edge">
<title>Node10&#45;&gt;Node11</title>
<path fill="none" stroke="midnightblue" d="M933.64,-112.46C989.88,-93.01 1127.63,-45.36 1192.33,-22.98"/>
<polygon fill="midnightblue" stroke="midnightblue" points="1193.75,-26.19 1202.06,-19.61 1191.46,-19.57 1193.75,-26.19"/>
</g>
<!-- Node12 -->
<g id="node12" class="node">
<title>Node12</title>
<g id="a_node12"><a xlink:href="Components_8hpp.html" target="_top" xlink:title=" ">
<polygon fill="white" stroke="black" points="764.95,-0.5 764.95,-19.5 910.95,-19.5 910.95,-0.5 764.95,-0.5"/>
<text text-anchor="middle" x="837.95" y="-7.5" font-family="Helvetica,sans-Serif" font-size="10.00">../Models/Components.hpp</text>
</a>
</g>
</g>
<!-- Node10&#45;&gt;Node12 -->
<g id="edge15" class="edge">
<title>Node10&#45;&gt;Node12</title>
<path fill="none" stroke="midnightblue" d="M907.47,-112.4C904.91,-99.36 898.78,-74.17 886.95,-56 879.45,-44.47 868.32,-33.93 858.56,-25.95"/>
<polygon fill="midnightblue" stroke="midnightblue" points="860.51,-23.03 850.47,-19.64 856.2,-28.55 860.51,-23.03"/>
</g>
<!-- Node13 -->
<g id="node13" class="node">
<title>Node13</title>
<g id="a_node13"><a xlink:href="IMemory_8hpp.html" target="_top" xlink:title=" ">
<polygon fill="white" stroke="black" points="797.95,-56.5 797.95,-75.5 877.95,-75.5 877.95,-56.5 797.95,-56.5"/>
<text text-anchor="middle" x="837.95" y="-63.5" font-family="Helvetica,sans-Serif" font-size="10.00">IMemory.hpp</text>
</a>
</g>
</g>
<!-- Node10&#45;&gt;Node13 -->
<g id="edge16" class="edge">
<title>Node10&#45;&gt;Node13</title>
<path fill="none" stroke="midnightblue" d="M897.54,-112.32C886.84,-104.18 870.61,-91.84 857.79,-82.09"/>
<polygon fill="midnightblue" stroke="midnightblue" points="859.64,-79.1 849.57,-75.83 855.41,-84.67 859.64,-79.1"/>
</g>
<!-- Node13&#45;&gt;Node3 -->
<g id="edge20" class="edge">
<title>Node13&#45;&gt;Node3</title>
<path fill="none" stroke="midnightblue" d="M809.43,-56.44C776.91,-46.69 723.87,-30.78 689.96,-20.6"/>
<polygon fill="midnightblue" stroke="midnightblue" points="690.68,-17.17 680.1,-17.64 688.67,-23.87 690.68,-17.17"/>
</g>
<!-- Node13&#45;&gt;Node7 -->
<g id="edge17" class="edge">
<title>Node13&#45;&gt;Node7</title>
<path fill="none" stroke="midnightblue" d="M797.85,-56.66C755.37,-47.77 686.37,-33.19 626.95,-20 625.69,-19.72 624.41,-19.43 623.12,-19.14"/>
<polygon fill="midnightblue" stroke="midnightblue" points="623.64,-15.67 613.11,-16.87 622.09,-22.5 623.64,-15.67"/>
</g>
<!-- Node13&#45;&gt;Node8 -->
<g id="edge18" class="edge">
<title>Node13&#45;&gt;Node8</title>
<path fill="none" stroke="midnightblue" d="M856.17,-56.44C874.85,-47.68 904.11,-33.94 925.57,-23.86"/>
<polygon fill="midnightblue" stroke="midnightblue" points="927.25,-26.93 934.81,-19.52 924.28,-20.6 927.25,-26.93"/>
</g>
<!-- Node13&#45;&gt;Node9 -->
<g id="edge19" class="edge">
<title>Node13&#45;&gt;Node9</title>
<path fill="none" stroke="midnightblue" d="M872.81,-56.44C912.66,-46.66 977.71,-30.7 1019.14,-20.53"/>
<polygon fill="midnightblue" stroke="midnightblue" points="1020,-23.92 1028.88,-18.14 1018.33,-17.12 1020,-23.92"/>
</g>
<!-- Node13&#45;&gt;Node11 -->
<g id="edge21" class="edge">
<title>Node13&#45;&gt;Node11</title>
<path fill="none" stroke="midnightblue" d="M878.12,-59.42C945.23,-50.11 1080.75,-31.3 1161.7,-20.06"/>
<polygon fill="midnightblue" stroke="midnightblue" points="1162.36,-23.5 1171.78,-18.66 1161.39,-16.57 1162.36,-23.5"/>
</g>
<!-- Node13&#45;&gt;Node12 -->
<g id="edge22" class="edge">
<title>Node13&#45;&gt;Node12</title>
<path fill="none" stroke="midnightblue" d="M837.95,-56.08C837.95,-49.01 837.95,-38.86 837.95,-29.99"/>
<polygon fill="midnightblue" stroke="midnightblue" points="841.45,-29.75 837.95,-19.75 834.45,-29.75 841.45,-29.75"/>
</g>
<!-- Node14&#45;&gt;Node6 -->
<g id="edge25" class="edge">
<title>Node14&#45;&gt;Node6</title>
<path fill="none" stroke="midnightblue" d="M1006.25,-280.37C1004.79,-262.62 1001.44,-221.67 999.47,-197.6"/>
<polygon fill="midnightblue" stroke="midnightblue" points="1002.96,-197.27 998.65,-187.59 995.98,-197.84 1002.96,-197.27"/>
</g>
<!-- Node14&#45;&gt;Node10 -->
<g id="edge24" class="edge">
<title>Node14&#45;&gt;Node10</title>
<path fill="none" stroke="midnightblue" d="M996.13,-280.31C977.02,-264.3 937.56,-228.08 918.95,-188 912.26,-173.58 909.89,-155.62 909.12,-142.24"/>
<polygon fill="midnightblue" stroke="midnightblue" points="912.6,-141.74 908.78,-131.86 905.61,-141.96 912.6,-141.74"/>
</g>
<!-- Node14&#45;&gt;Node11 -->
<g id="edge26" class="edge">
<title>Node14&#45;&gt;Node11</title>
<path fill="none" stroke="midnightblue" d="M1047.64,-286.11C1147,-277.93 1393.95,-250.42 1393.95,-179 1393.95,-179 1393.95,-179 1393.95,-121 1393.95,-65.3 1328.35,-36.21 1279.38,-22.25"/>
<polygon fill="midnightblue" stroke="midnightblue" points="1280.09,-18.82 1269.52,-19.58 1278.26,-25.58 1280.09,-18.82"/>
</g>
<!-- Node14&#45;&gt;Node15 -->
<g id="edge27" class="edge">
<title>Node14&#45;&gt;Node15</title>
<path fill="none" stroke="midnightblue" d="M966.23,-280.97C918.33,-271.53 838.68,-255.84 786,-245.45"/>
<polygon fill="midnightblue" stroke="midnightblue" points="786.65,-242.02 776.16,-243.52 785.3,-248.88 786.65,-242.02"/>
</g>
<!-- Node19 -->
<g id="node19" class="node">
<title>Node19</title>
<g id="a_node19"><a xlink:href="Instruction_8hpp.html" target="_top" xlink:title=" ">
<polygon fill="white" stroke="black" points="1238.45,-56.5 1238.45,-75.5 1327.45,-75.5 1327.45,-56.5 1238.45,-56.5"/>
<text text-anchor="middle" x="1282.95" y="-63.5" font-family="Helvetica,sans-Serif" font-size="10.00">Instruction.hpp</text>
</a>
</g>
</g>
<!-- Node14&#45;&gt;Node19 -->
<g id="edge37" class="edge">
<title>Node14&#45;&gt;Node19</title>
<path fill="none" stroke="midnightblue" d="M1047.46,-288.03C1086.84,-285.14 1146.47,-275.38 1186.95,-244 1240.79,-202.27 1268.28,-121.53 1278.35,-85.33"/>
<polygon fill="midnightblue" stroke="midnightblue" points="1281.74,-86.19 1280.92,-75.62 1274.98,-84.39 1281.74,-86.19"/>
</g>
<!-- Node20 -->
<g id="node20" class="node">
<title>Node20</title>
<g id="a_node20"><a xlink:href="DMA_8hpp.html" target="_top" xlink:title=" ">
<polygon fill="white" stroke="black" points="1090.45,-224.5 1090.45,-243.5 1177.45,-243.5 1177.45,-224.5 1090.45,-224.5"/>
<text text-anchor="middle" x="1133.95" y="-231.5" font-family="Helvetica,sans-Serif" font-size="10.00">DMA/DMA.hpp</text>
</a>
</g>
</g>
<!-- Node14&#45;&gt;Node20 -->
<g id="edge40" class="edge">
<title>Node14&#45;&gt;Node20</title>
<path fill="none" stroke="midnightblue" d="M1027.07,-280.44C1047.98,-271.56 1080.89,-257.56 1104.67,-247.45"/>
<polygon fill="midnightblue" stroke="midnightblue" points="1106.09,-250.65 1113.92,-243.52 1103.35,-244.21 1106.09,-250.65"/>
</g>
<!-- Node15&#45;&gt;Node3 -->
<g id="edge28" class="edge">
<title>Node15&#45;&gt;Node3</title>
<path fill="none" stroke="midnightblue" d="M715.86,-224.38C688.88,-209.68 637.42,-176.96 616.95,-132 600.57,-96.02 626.87,-51.49 644.36,-27.75"/>
<polygon fill="midnightblue" stroke="midnightblue" points="647.21,-29.8 650.53,-19.74 641.66,-25.53 647.21,-29.8"/>
</g>
<!-- Node15&#45;&gt;Node10 -->
<g id="edge29" class="edge">
<title>Node15&#45;&gt;Node10</title>
<path fill="none" stroke="midnightblue" d="M762.5,-224.4C785.56,-216.89 817.8,-204.59 842.95,-188 863.41,-174.51 882.9,-154.05 895.32,-139.7"/>
<polygon fill="midnightblue" stroke="midnightblue" points="898.32,-141.57 902.09,-131.67 892.97,-137.06 898.32,-141.57"/>
</g>
<!-- Node15&#45;&gt;Node11 -->
<g id="edge30" class="edge">
<title>Node15&#45;&gt;Node11</title>
<path fill="none" stroke="midnightblue" d="M803.11,-231.58C897.72,-228.5 1060.09,-218.76 1109.95,-188 1171.58,-149.98 1207.56,-65.97 1220.93,-29.03"/>
<polygon fill="midnightblue" stroke="midnightblue" points="1224.25,-30.15 1224.23,-19.55 1217.64,-27.84 1224.25,-30.15"/>
</g>
<!-- Node16 -->
<g id="node16" class="node">
<title>Node16</title>
<g id="a_node16"><a xlink:href="ARectangleMemory_8hpp.html" target="_top" xlink:title=" ">
<polygon fill="white" stroke="black" points="626.45,-112.5 626.45,-131.5 811.45,-131.5 811.45,-112.5 626.45,-112.5"/>
<text text-anchor="middle" x="718.95" y="-119.5" font-family="Helvetica,sans-Serif" font-size="10.00">../Memory/ARectangleMemory.hpp</text>
</a>
</g>
</g>
<!-- Node15&#45;&gt;Node16 -->
<g id="edge31" class="edge">
<title>Node15&#45;&gt;Node16</title>
<path fill="none" stroke="midnightblue" d="M726.58,-224.23C720.69,-215.53 712.34,-201.57 708.95,-188 705.06,-172.42 708.46,-154.35 712.32,-141.22"/>
<polygon fill="midnightblue" stroke="midnightblue" points="715.71,-142.11 715.51,-131.51 709.06,-139.92 715.71,-142.11"/>
</g>
<!-- Node17 -->
<g id="node17" class="node">
<title>Node17</title>
<g id="a_node17"><a xlink:href="InterruptVectors_8hpp.html" target="_top" xlink:title=" ">
<polygon fill="white" stroke="black" points="717.95,-168.5 717.95,-187.5 833.95,-187.5 833.95,-168.5 717.95,-168.5"/>
<text text-anchor="middle" x="775.95" y="-175.5" font-family="Helvetica,sans-Serif" font-size="10.00">InterruptVectors.hpp</text>
</a>
</g>
</g>
<!-- Node15&#45;&gt;Node17 -->
<g id="edge33" class="edge">
<title>Node15&#45;&gt;Node17</title>
<path fill="none" stroke="midnightblue" d="M740.05,-224.08C746.19,-216.38 755.22,-205.03 762.69,-195.65"/>
<polygon fill="midnightblue" stroke="midnightblue" points="765.49,-197.75 768.98,-187.75 760.02,-193.39 765.49,-197.75"/>
</g>
<!-- Node15&#45;&gt;Node18 -->
<g id="edge34" class="edge">
<title>Node15&#45;&gt;Node18</title>
<path fill="none" stroke="midnightblue" d="M688.11,-224.44C638.33,-214.94 557.97,-199.61 504.56,-189.42"/>
<polygon fill="midnightblue" stroke="midnightblue" points="505.06,-185.95 494.58,-187.52 503.75,-192.83 505.06,-185.95"/>
</g>
<!-- Node16&#45;&gt;Node13 -->
<g id="edge32" class="edge">
<title>Node16&#45;&gt;Node13</title>
<path fill="none" stroke="midnightblue" d="M737.81,-112.44C757.22,-103.64 787.68,-89.81 809.92,-79.72"/>
<polygon fill="midnightblue" stroke="midnightblue" points="811.52,-82.84 819.18,-75.52 808.63,-76.46 811.52,-82.84"/>
</g>
<!-- Node18&#45;&gt;Node3 -->
<g id="edge36" class="edge">
<title>Node18&#45;&gt;Node3</title>
<path fill="none" stroke="midnightblue" d="M458.64,-168.2C479.41,-147.39 534.02,-94.05 584.95,-56 600.41,-44.45 618.93,-33.06 633.44,-24.63"/>
<polygon fill="midnightblue" stroke="midnightblue" points="635.39,-27.55 642.33,-19.55 631.92,-21.47 635.39,-27.55"/>
</g>
<!-- Node18&#45;&gt;Node16 -->
<g id="edge35" class="edge">
<title>Node18&#45;&gt;Node16</title>
<path fill="none" stroke="midnightblue" d="M492.58,-168.44C539.7,-158.98 615.64,-143.74 666.41,-133.55"/>
<polygon fill="midnightblue" stroke="midnightblue" points="667.41,-136.92 676.53,-131.52 666.03,-130.05 667.41,-136.92"/>
</g>
<!-- Node19&#45;&gt;Node3 -->
<g id="edge38" class="edge">
<title>Node19&#45;&gt;Node3</title>
<path fill="none" stroke="midnightblue" d="M1238.18,-61.27C1147.27,-53.69 934.54,-35.83 755.95,-20 733.98,-18.05 709.25,-15.78 690.13,-14.01"/>
<polygon fill="midnightblue" stroke="midnightblue" points="690.41,-10.52 680.13,-13.08 689.77,-17.49 690.41,-10.52"/>
</g>
<!-- Node19&#45;&gt;Node11 -->
<g id="edge39" class="edge">
<title>Node19&#45;&gt;Node11</title>
<path fill="none" stroke="midnightblue" d="M1273.95,-56.32C1265.76,-48.42 1253.45,-36.55 1243.48,-26.94"/>
<polygon fill="midnightblue" stroke="midnightblue" points="1245.74,-24.26 1236.11,-19.83 1240.88,-29.29 1245.74,-24.26"/>
</g>
<!-- Node20&#45;&gt;Node6 -->
<g id="edge44" class="edge">
<title>Node20&#45;&gt;Node6</title>
<path fill="none" stroke="midnightblue" d="M1112.4,-224.44C1089.92,-215.52 1054.46,-201.44 1028.97,-191.32"/>
<polygon fill="midnightblue" stroke="midnightblue" points="1029.99,-187.95 1019.4,-187.52 1027.4,-194.46 1029.99,-187.95"/>
</g>
<!-- Node20&#45;&gt;Node7 -->
<g id="edge41" class="edge">
<title>Node20&#45;&gt;Node7</title>
<path fill="none" stroke="midnightblue" d="M1128.19,-224.42C1118.79,-210.94 1098.99,-184.65 1076.95,-168 969.74,-87 918.24,-112.6 788.95,-76 763.52,-68.8 758.02,-64.36 732.95,-56 695.6,-43.54 652.46,-30.3 623.02,-21.43"/>
<polygon fill="midnightblue" stroke="midnightblue" points="623.79,-18.01 613.2,-18.48 621.77,-24.71 623.79,-18.01"/>
</g>
<!-- Node20&#45;&gt;Node9 -->
<g id="edge42" class="edge">
<title>Node20&#45;&gt;Node9</title>
<path fill="none" stroke="midnightblue" d="M1149.73,-224.47C1162.15,-216.77 1178.56,-204.18 1185.95,-188 1189.65,-179.92 1188.56,-176.5 1185.95,-168 1166.79,-105.62 1108.16,-51.19 1077.34,-25.95"/>
<polygon fill="midnightblue" stroke="midnightblue" points="1079.44,-23.15 1069.44,-19.63 1075.06,-28.61 1079.44,-23.15"/>
</g>
<!-- Node20&#45;&gt;Node11 -->
<g id="edge43" class="edge">
<title>Node20&#45;&gt;Node11</title>
<path fill="none" stroke="midnightblue" d="M1155.36,-224.47C1199.47,-205.56 1299.49,-155.38 1336.95,-76 1349.96,-48.43 1317.3,-31.73 1284.26,-22.17"/>
<polygon fill="midnightblue" stroke="midnightblue" points="1285.07,-18.77 1274.5,-19.55 1283.25,-25.53 1285.07,-18.77"/>
</g>
<!-- Node21&#45;&gt;Node2 -->
<g id="edge51" class="edge">
<title>Node21&#45;&gt;Node2</title>
<path fill="none" stroke="midnightblue" d="M333.95,-225.94C279.28,-216.29 181.11,-198.97 120.54,-188.28"/>
<polygon fill="midnightblue" stroke="midnightblue" points="120.88,-184.79 110.42,-186.5 119.66,-191.68 120.88,-184.79"/>
</g>
<!-- Node21&#45;&gt;Node6 -->
<g id="edge50" class="edge">
<title>Node21&#45;&gt;Node6</title>
<path fill="none" stroke="midnightblue" d="M414.33,-229.33C432.55,-227.68 454.33,-225.73 473.95,-224 631.08,-210.18 814.75,-194.52 917.6,-185.8"/>
<polygon fill="midnightblue" stroke="midnightblue" points="917.93,-189.28 927.6,-184.95 917.34,-182.31 917.93,-189.28"/>
</g>
<!-- Node21&#45;&gt;Node7 -->
<g id="edge48" class="edge">
<title>Node21&#45;&gt;Node7</title>
<path fill="none" stroke="midnightblue" d="M333.87,-230.83C245.1,-225.62 38.08,-211.11 16.95,-188 -5.85,-163.06 -4.65,-139.52 14.95,-112 77.82,-23.74 437.79,-12.48 552.7,-11.14"/>
<polygon fill="midnightblue" stroke="midnightblue" points="552.76,-14.64 562.73,-11.05 552.69,-7.64 552.76,-14.64"/>
</g>
<!-- Node21&#45;&gt;Node10 -->
<g id="edge49" class="edge">
<title>Node21&#45;&gt;Node10</title>
<path fill="none" stroke="midnightblue" d="M373.64,-224.18C373.66,-209.88 376.02,-181.84 392.95,-168 429.82,-137.87 772.54,-136.4 819.95,-132 832.03,-130.88 845.03,-129.61 857.26,-128.37"/>
<polygon fill="midnightblue" stroke="midnightblue" points="857.71,-131.85 867.31,-127.36 857.01,-124.88 857.71,-131.85"/>
</g>
<!-- Node21&#45;&gt;Node18 -->
<g id="edge52" class="edge">
<title>Node21&#45;&gt;Node18</title>
<path fill="none" stroke="midnightblue" d="M386.16,-224.32C397.73,-216.11 415.33,-203.6 429.11,-193.81"/>
<polygon fill="midnightblue" stroke="midnightblue" points="431.39,-196.48 437.52,-187.83 427.34,-190.77 431.39,-196.48"/>
</g>
<!-- Node22 -->
<g id="node22" class="node">
<title>Node22</title>
<g id="a_node22"><a xlink:href="Vector2_8hpp.html" target="_top" xlink:title=" ">
<polygon fill="white" stroke="black" points="127.95,-168.5 127.95,-187.5 249.95,-187.5 249.95,-168.5 127.95,-168.5"/>
<text text-anchor="middle" x="188.95" y="-175.5" font-family="Helvetica,sans-Serif" font-size="10.00">../Models/Vector2.hpp</text>
</a>
</g>
</g>
<!-- Node21&#45;&gt;Node22 -->
<g id="edge53" class="edge">
<title>Node21&#45;&gt;Node22</title>
<path fill="none" stroke="midnightblue" d="M344.64,-224.44C313.11,-215.24 262.82,-200.56 227.97,-190.39"/>
<polygon fill="midnightblue" stroke="midnightblue" points="228.71,-186.96 218.13,-187.52 226.75,-193.68 228.71,-186.96"/>
</g>
<!-- Node23 -->
<g id="node23" class="node">
<title>Node23</title>
<g id="a_node23"><a xlink:title=" ">
<polygon fill="white" stroke="#bfbfbf" points="281.45,-112.5 281.45,-131.5 338.45,-131.5 338.45,-112.5 281.45,-112.5"/>
<text text-anchor="middle" x="309.95" y="-119.5" font-family="Helvetica,sans-Serif" font-size="10.00">ostream</text>
</a>
</g>
</g>
<!-- Node22&#45;&gt;Node23 -->
<g id="edge54" class="edge">
<title>Node22&#45;&gt;Node23</title>
<path fill="none" stroke="midnightblue" d="M208.12,-168.44C227.86,-159.64 258.84,-145.81 281.44,-135.72"/>
<polygon fill="midnightblue" stroke="midnightblue" points="283.16,-138.79 290.87,-131.52 280.31,-132.4 283.16,-138.79"/>
</g>
<!-- Node24 -->
<g id="node24" class="node">
<title>Node24</title>
<g id="a_node24"><a xlink:title=" ">
<polygon fill="white" stroke="#bfbfbf" points="120.45,-112.5 120.45,-131.5 263.45,-131.5 263.45,-112.5 120.45,-112.5"/>
<text text-anchor="middle" x="191.95" y="-119.5" font-family="Helvetica,sans-Serif" font-size="10.00">SFML/System/Vector2.hpp</text>
</a>
</g>
</g>
<!-- Node22&#45;&gt;Node24 -->
<g id="edge55" class="edge">
<title>Node22&#45;&gt;Node24</title>
<path fill="none" stroke="midnightblue" d="M189.45,-168.08C189.84,-161.01 190.4,-150.86 190.9,-141.99"/>
<polygon fill="midnightblue" stroke="midnightblue" points="194.41,-141.93 191.47,-131.75 187.42,-141.54 194.41,-141.93"/>
</g>
<!-- Node25&#45;&gt;Node2 -->
<g id="edge66" class="edge">
<title>Node25&#45;&gt;Node2</title>
<path fill="none" stroke="midnightblue" d="M483.32,-229.35C411.94,-222.76 259.2,-207.81 120.2,-188.1"/>
<polygon fill="midnightblue" stroke="midnightblue" points="120.61,-184.62 110.22,-186.67 119.62,-191.55 120.61,-184.62"/>
</g>
<!-- Node25&#45;&gt;Node9 -->
<g id="edge57" class="edge">
<title>Node25&#45;&gt;Node9</title>
<path fill="none" stroke="midnightblue" d="M564.7,-230.05C691.77,-220.8 1072.6,-192.72 1076.95,-188 1117.75,-143.74 1085.47,-64.37 1067.69,-28.94"/>
<polygon fill="midnightblue" stroke="midnightblue" points="1070.66,-27.06 1062.94,-19.8 1064.45,-30.29 1070.66,-27.06"/>
</g>
<!-- Node25&#45;&gt;Node10 -->
<g id="edge62" class="edge">
<title>Node25&#45;&gt;Node10</title>
<path fill="none" stroke="midnightblue" d="M523.99,-224.23C524.57,-210 527.95,-182.05 544.95,-168 550.92,-163.07 758.18,-139.63 857.23,-128.67"/>
<polygon fill="midnightblue" stroke="midnightblue" points="857.77,-132.13 867.32,-127.56 857,-125.17 857.77,-132.13"/>
</g>
<!-- Node25&#45;&gt;Node18 -->
<g id="edge63" class="edge">
<title>Node25&#45;&gt;Node18</title>
<path fill="none" stroke="midnightblue" d="M512.06,-224.32C500.8,-216.11 483.66,-203.6 470.24,-193.81"/>
<polygon fill="midnightblue" stroke="midnightblue" points="472.2,-190.9 462.06,-187.83 468.07,-196.56 472.2,-190.9"/>
</g>
<!-- Node26 -->
<g id="node26" class="node">
<title>Node26</title>
<g id="a_node26"><a xlink:href="DSP_8hpp.html" target="_top" xlink:title=" ">
<polygon fill="white" stroke="black" points="267.95,-168.5 267.95,-187.5 345.95,-187.5 345.95,-168.5 267.95,-168.5"/>
<text text-anchor="middle" x="306.95" y="-175.5" font-family="Helvetica,sans-Serif" font-size="10.00">DSP/DSP.hpp</text>
</a>
</g>
</g>
<!-- Node25&#45;&gt;Node26 -->
<g id="edge58" class="edge">
<title>Node25&#45;&gt;Node26</title>
<path fill="none" stroke="midnightblue" d="M489.57,-224.44C452.03,-215.1 391.82,-200.12 350.88,-189.93"/>
<polygon fill="midnightblue" stroke="midnightblue" points="351.72,-186.53 341.17,-187.52 350.03,-193.33 351.72,-186.53"/>
</g>
<!-- Node28 -->
<g id="node28" class="node">
<title>Node28</title>
<g id="a_node28"><a xlink:href="IPL_8hpp.html" target="_top" xlink:title=" ">
<polygon fill="white" stroke="black" points="554.45,-168.5 554.45,-187.5 623.45,-187.5 623.45,-168.5 554.45,-168.5"/>
<text text-anchor="middle" x="588.95" y="-175.5" font-family="Helvetica,sans-Serif" font-size="10.00">IPL/IPL.hpp</text>
</a>
</g>
</g>
<!-- Node25&#45;&gt;Node28 -->
<g id="edge64" class="edge">
<title>Node25&#45;&gt;Node28</title>
<path fill="none" stroke="midnightblue" d="M534.39,-224.32C544.1,-216.26 558.77,-204.08 570.45,-194.37"/>
<polygon fill="midnightblue" stroke="midnightblue" points="572.86,-196.92 578.32,-187.83 568.39,-191.53 572.86,-196.92"/>
</g>
<!-- Node26&#45;&gt;Node7 -->
<g id="edge59" class="edge">
<title>Node26&#45;&gt;Node7</title>
<path fill="none" stroke="midnightblue" d="M316.14,-168.26C330.35,-155.03 358.84,-129.61 385.95,-112 443.67,-74.51 517.2,-40.95 557.73,-23.55"/>
<polygon fill="midnightblue" stroke="midnightblue" points="559.22,-26.72 567.05,-19.59 556.48,-20.28 559.22,-26.72"/>
</g>
<!-- Node26&#45;&gt;Node10 -->
<g id="edge61" class="edge">
<title>Node26&#45;&gt;Node10</title>
<path fill="none" stroke="midnightblue" d="M345.97,-169.96C350.67,-169.24 355.41,-168.56 359.95,-168 563.47,-142.81 615.7,-150.32 819.95,-132 832.04,-130.92 845.03,-129.66 857.26,-128.43"/>
<polygon fill="midnightblue" stroke="midnightblue" points="857.72,-131.9 867.31,-127.41 857.01,-124.93 857.72,-131.9"/>
</g>
<!-- Node27 -->
<g id="node27" class="node">
<title>Node27</title>
<g id="a_node27"><a xlink:title=" ">
<polygon fill="white" stroke="#bfbfbf" points="394.95,-112.5 394.95,-131.5 436.95,-131.5 436.95,-112.5 394.95,-112.5"/>
<text text-anchor="middle" x="415.95" y="-119.5" font-family="Helvetica,sans-Serif" font-size="10.00">array</text>
</a>
</g>
</g>
<!-- Node26&#45;&gt;Node27 -->
<g id="edge60" class="edge">
<title>Node26&#45;&gt;Node27</title>
<path fill="none" stroke="midnightblue" d="M324.46,-168.32C342.02,-159.62 369.28,-146.12 389.48,-136.11"/>
<polygon fill="midnightblue" stroke="midnightblue" points="391.08,-139.23 398.48,-131.65 387.97,-132.96 391.08,-139.23"/>
</g>
<!-- Node28&#45;&gt;Node10 -->
<g id="edge65" class="edge">
<title>Node28&#45;&gt;Node10</title>
<path fill="none" stroke="midnightblue" d="M623.5,-171.17C679.72,-161.68 791.33,-142.85 857.1,-131.75"/>
<polygon fill="midnightblue" stroke="midnightblue" points="857.97,-135.15 867.25,-130.04 856.8,-128.25 857.97,-135.15"/>
</g>
<!-- Node30 -->
<g id="node30" class="node">
<title>Node30</title>
<g id="a_node30"><a xlink:title=" ">
<polygon fill="white" stroke="#bfbfbf" points="1422.45,-224.5 1422.45,-243.5 1517.45,-243.5 1517.45,-224.5 1422.45,-224.5"/>
<text text-anchor="middle" x="1469.95" y="-231.5" font-family="Helvetica,sans-Serif" font-size="10.00">bits/exception.h</text>
</a>
</g>
</g>
<!-- Node29&#45;&gt;Node30 -->
<g id="edge69" class="edge">
<title>Node29&#45;&gt;Node30</title>
<path fill="none" stroke="midnightblue" d="M1336.15,-280.44C1362.89,-271.36 1405.35,-256.94 1435.26,-246.78"/>
<polygon fill="midnightblue" stroke="midnightblue" points="1436.53,-250.05 1444.88,-243.52 1434.28,-243.42 1436.53,-250.05"/>
</g>
</g>
</svg>
