<?xml version="1.0" encoding="UTF-8" standalone="no"?>
<!DOCTYPE svg PUBLIC "-//W3C//DTD SVG 1.1//EN"
 "http://www.w3.org/Graphics/SVG/1.1/DTD/svg11.dtd">
<!-- Generated by graphviz version 2.43.0 (0)
 -->
<!-- Title: sources/Renderer/SFRenderer.cpp Pages: 1 -->
<svg width="1526pt" height="476pt"
 viewBox="0.00 0.00 1526.04 476.00" xmlns="http://www.w3.org/2000/svg" xmlns:xlink="http://www.w3.org/1999/xlink">
<g id="graph0" class="graph" transform="scale(1 1) rotate(0) translate(4 472)">
<title>sources/Renderer/SFRenderer.cpp</title>
<polygon fill="white" stroke="transparent" points="-4,4 -4,-472 1522.04,-472 1522.04,4 -4,4"/>
<!-- Node1 -->
<g id="node1" class="node">
<title>Node1</title>
<g id="a_node1"><a xlink:title=" ">
<polygon fill="#bfbfbf" stroke="black" points="424.54,-448.5 424.54,-467.5 604.54,-467.5 604.54,-448.5 424.54,-448.5"/>
<text text-anchor="middle" x="514.54" y="-455.5" font-family="Helvetica,sans-Serif" font-size="10.00">sources/Renderer/SFRenderer.cpp</text>
</a>
</g>
</g>
<!-- Node2 -->
<g id="node2" class="node">
<title>Node2</title>
<g id="a_node2"><a xlink:href="SFRenderer_8hpp.html" target="_top" xlink:title=" ">
<polygon fill="white" stroke="black" points="378.04,-392.5 378.04,-411.5 471.04,-411.5 471.04,-392.5 378.04,-392.5"/>
<text text-anchor="middle" x="424.54" y="-399.5" font-family="Helvetica,sans-Serif" font-size="10.00">SFRenderer.hpp</text>
</a>
</g>
</g>
<!-- Node1&#45;&gt;Node2 -->
<g id="edge1" class="edge">
<title>Node1&#45;&gt;Node2</title>
<path fill="none" stroke="midnightblue" d="M500.08,-448.32C486.04,-439.9 464.49,-426.97 447.99,-417.07"/>
<polygon fill="midnightblue" stroke="midnightblue" points="449.34,-413.8 438.96,-411.65 445.73,-419.8 449.34,-413.8"/>
</g>
<!-- Node32 -->
<g id="node32" class="node">
<title>Node32</title>
<g id="a_node32"><a xlink:title=" ">
<polygon fill="white" stroke="#bfbfbf" points="100.54,-336.5 100.54,-355.5 210.54,-355.5 210.54,-336.5 100.54,-336.5"/>
<text text-anchor="middle" x="155.54" y="-343.5" font-family="Helvetica,sans-Serif" font-size="10.00">SFML/Graphics.hpp</text>
</a>
</g>
</g>
<!-- Node1&#45;&gt;Node32 -->
<g id="edge76" class="edge">
<title>Node1&#45;&gt;Node32</title>
<path fill="none" stroke="midnightblue" d="M474.79,-448.49C437.68,-440.24 380.93,-426.82 332.54,-412 280.4,-396.03 221.18,-373.33 186.16,-359.41"/>
<polygon fill="midnightblue" stroke="midnightblue" points="187.12,-356.02 176.53,-355.56 184.52,-362.52 187.12,-356.02"/>
</g>
<!-- Node33 -->
<g id="node33" class="node">
<title>Node33</title>
<g id="a_node33"><a xlink:title=" ">
<polygon fill="white" stroke="#bfbfbf" points="229.04,-336.5 229.04,-355.5 324.04,-355.5 324.04,-336.5 229.04,-336.5"/>
<text text-anchor="middle" x="276.54" y="-343.5" font-family="Helvetica,sans-Serif" font-size="10.00">SFML/Audio.hpp</text>
</a>
</g>
</g>
<!-- Node1&#45;&gt;Node33 -->
<g id="edge77" class="edge">
<title>Node1&#45;&gt;Node33</title>
<path fill="none" stroke="midnightblue" d="M475.15,-448.45C445.01,-441.07 402.93,-428.91 368.54,-412 340.63,-398.28 311.91,-376.53 294.14,-362.02"/>
<polygon fill="midnightblue" stroke="midnightblue" points="296.28,-359.24 286.35,-355.54 291.8,-364.63 296.28,-359.24"/>
</g>
<!-- Node34 -->
<g id="node34" class="node">
<title>Node34</title>
<g id="a_node34"><a xlink:title=" ">
<polygon fill="white" stroke="#bfbfbf" points="470.54,-336.5 470.54,-355.5 574.54,-355.5 574.54,-336.5 470.54,-336.5"/>
<text text-anchor="middle" x="522.54" y="-343.5" font-family="Helvetica,sans-Serif" font-size="10.00">SFML/System.hpp</text>
</a>
</g>
</g>
<!-- Node1&#45;&gt;Node34 -->
<g id="edge78" class="edge">
<title>Node1&#45;&gt;Node34</title>
<path fill="none" stroke="midnightblue" d="M515.16,-448.37C516.45,-430.62 519.43,-389.67 521.18,-365.6"/>
<polygon fill="midnightblue" stroke="midnightblue" points="524.68,-365.82 521.91,-355.59 517.69,-365.31 524.68,-365.82"/>
</g>
<!-- Node35 -->
<g id="node35" class="node">
<title>Node35</title>
<g id="a_node35"><a xlink:title=" ">
<polygon fill="white" stroke="#bfbfbf" points="593.04,-336.5 593.04,-355.5 698.04,-355.5 698.04,-336.5 593.04,-336.5"/>
<text text-anchor="middle" x="645.54" y="-343.5" font-family="Helvetica,sans-Serif" font-size="10.00">SFML/Window.hpp</text>
</a>
</g>
</g>
<!-- Node1&#45;&gt;Node35 -->
<g id="edge79" class="edge">
<title>Node1&#45;&gt;Node35</title>
<path fill="none" stroke="midnightblue" d="M521.61,-448.39C532.58,-435.34 554.71,-410.14 576.54,-392 590.57,-380.34 607.75,-369.13 621.45,-360.81"/>
<polygon fill="midnightblue" stroke="midnightblue" points="623.5,-363.66 630.31,-355.55 619.92,-357.65 623.5,-363.66"/>
</g>
<!-- Node36 -->
<g id="node36" class="node">
<title>Node36</title>
<g id="a_node36"><a xlink:title=" ">
<polygon fill="white" stroke="#bfbfbf" points="716.04,-336.5 716.04,-355.5 901.04,-355.5 901.04,-336.5 716.04,-336.5"/>
<text text-anchor="middle" x="808.54" y="-343.5" font-family="Helvetica,sans-Serif" font-size="10.00">SFML/Graphics/RenderWindow.hpp</text>
</a>
</g>
</g>
<!-- Node1&#45;&gt;Node36 -->
<g id="edge80" class="edge">
<title>Node1&#45;&gt;Node36</title>
<path fill="none" stroke="midnightblue" d="M526.08,-448.28C547.31,-432.4 591.95,-399.67 609.54,-392 648.43,-375.04 694.5,-364.1 732.51,-357.26"/>
<polygon fill="midnightblue" stroke="midnightblue" points="733.25,-360.68 742.5,-355.52 732.05,-353.78 733.25,-360.68"/>
</g>
<!-- Node37 -->
<g id="node37" class="node">
<title>Node37</title>
<g id="a_node37"><a xlink:title=" ">
<polygon fill="white" stroke="#bfbfbf" points="618.54,-392.5 618.54,-411.5 678.54,-411.5 678.54,-392.5 618.54,-392.5"/>
<text text-anchor="middle" x="648.54" y="-399.5" font-family="Helvetica,sans-Serif" font-size="10.00">iostream</text>
</a>
</g>
</g>
<!-- Node1&#45;&gt;Node37 -->
<g id="edge81" class="edge">
<title>Node1&#45;&gt;Node37</title>
<path fill="none" stroke="midnightblue" d="M535.77,-448.44C557.92,-439.52 592.85,-425.44 617.97,-415.32"/>
<polygon fill="midnightblue" stroke="midnightblue" points="619.44,-418.5 627.4,-411.52 616.82,-412.01 619.44,-418.5"/>
</g>
<!-- Node3 -->
<g id="node3" class="node">
<title>Node3</title>
<g id="a_node3"><a xlink:href="IRenderer_8hpp.html" target="_top" xlink:title=" ">
<polygon fill="white" stroke="black" points="26.54,-168.5 26.54,-187.5 110.54,-187.5 110.54,-168.5 26.54,-168.5"/>
<text text-anchor="middle" x="68.54" y="-175.5" font-family="Helvetica,sans-Serif" font-size="10.00">IRenderer.hpp</text>
</a>
</g>
</g>
<!-- Node2&#45;&gt;Node3 -->
<g id="edge2" class="edge">
<title>Node2&#45;&gt;Node3</title>
<path fill="none" stroke="midnightblue" d="M413.12,-392.49C395.92,-379.79 362.23,-355.27 332.54,-336 246.13,-279.9 139.79,-219.06 92.81,-192.58"/>
<polygon fill="midnightblue" stroke="midnightblue" points="94.4,-189.47 83.97,-187.61 90.97,-195.57 94.4,-189.47"/>
</g>
<!-- Node6 -->
<g id="node6" class="node">
<title>Node6</title>
<g id="a_node6"><a xlink:href="SNES_8hpp.html" target="_top" xlink:title=" ">
<polygon fill="white" stroke="black" points="380.54,-336.5 380.54,-355.5 452.54,-355.5 452.54,-336.5 380.54,-336.5"/>
<text text-anchor="middle" x="416.54" y="-343.5" font-family="Helvetica,sans-Serif" font-size="10.00">../SNES.hpp</text>
</a>
</g>
</g>
<!-- Node2&#45;&gt;Node6 -->
<g id="edge5" class="edge">
<title>Node2&#45;&gt;Node6</title>
<path fill="none" stroke="midnightblue" d="M423.21,-392.08C422.15,-384.93 420.63,-374.64 419.3,-365.69"/>
<polygon fill="midnightblue" stroke="midnightblue" points="422.76,-365.13 417.83,-355.75 415.84,-366.16 422.76,-365.13"/>
</g>
<!-- Node2&#45;&gt;Node32 -->
<g id="edge71" class="edge">
<title>Node2&#45;&gt;Node32</title>
<path fill="none" stroke="midnightblue" d="M381.91,-392.44C334.79,-382.98 258.84,-367.74 208.08,-357.55"/>
<polygon fill="midnightblue" stroke="midnightblue" points="208.45,-354.05 197.96,-355.52 207.08,-360.92 208.45,-354.05"/>
</g>
<!-- Node2&#45;&gt;Node33 -->
<g id="edge72" class="edge">
<title>Node2&#45;&gt;Node33</title>
<path fill="none" stroke="midnightblue" d="M401.08,-392.44C376.4,-383.44 337.35,-369.19 309.56,-359.05"/>
<polygon fill="midnightblue" stroke="midnightblue" points="310.47,-355.66 299.88,-355.52 308.07,-362.23 310.47,-355.66"/>
</g>
<!-- Node2&#45;&gt;Node34 -->
<g id="edge73" class="edge">
<title>Node2&#45;&gt;Node34</title>
<path fill="none" stroke="midnightblue" d="M440.28,-392.32C455.85,-383.74 479.91,-370.49 497.99,-360.52"/>
<polygon fill="midnightblue" stroke="midnightblue" points="499.76,-363.55 506.83,-355.65 496.38,-357.42 499.76,-363.55"/>
</g>
<!-- Node2&#45;&gt;Node35 -->
<g id="edge74" class="edge">
<title>Node2&#45;&gt;Node35</title>
<path fill="none" stroke="midnightblue" d="M459.55,-392.44C497.78,-383.1 559.1,-368.12 600.79,-357.93"/>
<polygon fill="midnightblue" stroke="midnightblue" points="601.8,-361.29 610.68,-355.52 600.14,-354.49 601.8,-361.29"/>
</g>
<!-- Node2&#45;&gt;Node36 -->
<g id="edge75" class="edge">
<title>Node2&#45;&gt;Node36</title>
<path fill="none" stroke="midnightblue" d="M471.24,-394.43C537.71,-385.08 660.14,-367.87 737.79,-356.95"/>
<polygon fill="midnightblue" stroke="midnightblue" points="738.55,-360.38 747.96,-355.52 737.57,-353.44 738.55,-360.38"/>
</g>
<!-- Node4 -->
<g id="node4" class="node">
<title>Node4</title>
<g id="a_node4"><a xlink:title=" ">
<polygon fill="white" stroke="#bfbfbf" points="636.54,-0.5 636.54,-19.5 680.54,-19.5 680.54,-0.5 636.54,-0.5"/>
<text text-anchor="middle" x="658.54" y="-7.5" font-family="Helvetica,sans-Serif" font-size="10.00">string</text>
</a>
</g>
</g>
<!-- Node3&#45;&gt;Node4 -->
<g id="edge3" class="edge">
<title>Node3&#45;&gt;Node4</title>
<path fill="none" stroke="midnightblue" d="M71.71,-168.19C77.36,-153.91 90.55,-125.89 111.54,-112 155.09,-83.19 515.53,-30.96 626.29,-15.46"/>
<polygon fill="midnightblue" stroke="midnightblue" points="627.08,-18.88 636.5,-14.03 626.11,-11.95 627.08,-18.88"/>
</g>
<!-- Node5 -->
<g id="node5" class="node">
<title>Node5</title>
<g id="a_node5"><a xlink:title=" ">
<polygon fill="white" stroke="#bfbfbf" points="24.54,-112.5 24.54,-131.5 64.54,-131.5 64.54,-112.5 24.54,-112.5"/>
<text text-anchor="middle" x="44.54" y="-119.5" font-family="Helvetica,sans-Serif" font-size="10.00">span</text>
</a>
</g>
</g>
<!-- Node3&#45;&gt;Node5 -->
<g id="edge4" class="edge">
<title>Node3&#45;&gt;Node5</title>
<path fill="none" stroke="midnightblue" d="M64.57,-168.08C61.32,-160.77 56.62,-150.18 52.58,-141.1"/>
<polygon fill="midnightblue" stroke="midnightblue" points="55.68,-139.47 48.42,-131.75 49.29,-142.31 55.68,-139.47"/>
</g>
<!-- Node6&#45;&gt;Node3 -->
<g id="edge68" class="edge">
<title>Node6&#45;&gt;Node3</title>
<path fill="none" stroke="midnightblue" d="M410.33,-336.27C393.74,-313.68 345.88,-252.99 290.54,-224 283,-220.05 184.14,-200.87 120.91,-188.86"/>
<polygon fill="midnightblue" stroke="midnightblue" points="121.18,-185.34 110.71,-186.92 119.88,-192.22 121.18,-185.34"/>
</g>
<!-- Node7 -->
<g id="node7" class="node">
<title>Node7</title>
<g id="a_node7"><a xlink:href="MemoryBus_8hpp.html" target="_top" xlink:title=" ">
<polygon fill="white" stroke="black" points="928.54,-168.5 928.54,-187.5 1068.54,-187.5 1068.54,-168.5 928.54,-168.5"/>
<text text-anchor="middle" x="998.54" y="-175.5" font-family="Helvetica,sans-Serif" font-size="10.00">Memory/MemoryBus.hpp</text>
</a>
</g>
</g>
<!-- Node6&#45;&gt;Node7 -->
<g id="edge6" class="edge">
<title>Node6&#45;&gt;Node7</title>
<path fill="none" stroke="midnightblue" d="M452.59,-336.91C522.52,-320.97 681.26,-283.6 812.54,-244 867.17,-227.52 929.58,-204.92 966.43,-191.17"/>
<polygon fill="midnightblue" stroke="midnightblue" points="967.99,-194.33 976.12,-187.54 965.53,-187.77 967.99,-194.33"/>
</g>
<!-- Node15 -->
<g id="node15" class="node">
<title>Node15</title>
<g id="a_node15"><a xlink:href="CPU_8hpp.html" target="_top" xlink:title=" ">
<polygon fill="white" stroke="black" points="967.04,-280.5 967.04,-299.5 1048.04,-299.5 1048.04,-280.5 967.04,-280.5"/>
<text text-anchor="middle" x="1007.54" y="-287.5" font-family="Helvetica,sans-Serif" font-size="10.00">CPU/CPU.hpp</text>
</a>
</g>
</g>
<!-- Node6&#45;&gt;Node15 -->
<g id="edge24" class="edge">
<title>Node6&#45;&gt;Node15</title>
<path fill="none" stroke="midnightblue" d="M452.82,-337.34C455.76,-336.84 458.69,-336.39 461.54,-336 678.34,-306.49 735.24,-325.69 952.54,-300 953.83,-299.85 955.15,-299.68 956.47,-299.51"/>
<polygon fill="midnightblue" stroke="midnightblue" points="957.32,-302.93 966.75,-298.09 956.36,-296 957.32,-302.93"/>
</g>
<!-- Node16 -->
<g id="node16" class="node">
<title>Node16</title>
<g id="a_node16"><a xlink:href="Cartridge_8hpp.html" target="_top" xlink:title=" ">
<polygon fill="white" stroke="black" points="663.54,-224.5 663.54,-243.5 803.54,-243.5 803.54,-224.5 663.54,-224.5"/>
<text text-anchor="middle" x="733.54" y="-231.5" font-family="Helvetica,sans-Serif" font-size="10.00">../Cartridge/Cartridge.hpp</text>
</a>
</g>
</g>
<!-- Node6&#45;&gt;Node16 -->
<g id="edge46" class="edge">
<title>Node6&#45;&gt;Node16</title>
<path fill="none" stroke="midnightblue" d="M441.15,-336.46C497.21,-317.01 634.53,-269.36 699.02,-246.98"/>
<polygon fill="midnightblue" stroke="midnightblue" points="700.42,-250.2 708.72,-243.61 698.13,-243.58 700.42,-250.2"/>
</g>
<!-- Node19 -->
<g id="node19" class="node">
<title>Node19</title>
<g id="a_node19"><a xlink:href="Ram_8hpp.html" target="_top" xlink:title=" ">
<polygon fill="white" stroke="black" points="403.04,-168.5 403.04,-187.5 498.04,-187.5 498.04,-168.5 403.04,-168.5"/>
<text text-anchor="middle" x="450.54" y="-175.5" font-family="Helvetica,sans-Serif" font-size="10.00">../Ram/Ram.hpp</text>
</a>
</g>
</g>
<!-- Node6&#45;&gt;Node19 -->
<g id="edge47" class="edge">
<title>Node6&#45;&gt;Node19</title>
<path fill="none" stroke="midnightblue" d="M418.36,-336.08C423.72,-309.95 439.43,-233.21 446.73,-197.58"/>
<polygon fill="midnightblue" stroke="midnightblue" points="450.2,-198.07 448.78,-187.57 443.35,-196.66 450.2,-198.07"/>
</g>
<!-- Node22 -->
<g id="node22" class="node">
<title>Node22</title>
<g id="a_node22"><a xlink:href="PPU_8hpp.html" target="_top" xlink:title=" ">
<polygon fill="white" stroke="black" points="342.54,-224.5 342.54,-243.5 422.54,-243.5 422.54,-224.5 342.54,-224.5"/>
<text text-anchor="middle" x="382.54" y="-231.5" font-family="Helvetica,sans-Serif" font-size="10.00">PPU/PPU.hpp</text>
</a>
</g>
</g>
<!-- Node6&#45;&gt;Node22 -->
<g id="edge48" class="edge">
<title>Node6&#45;&gt;Node22</title>
<path fill="none" stroke="midnightblue" d="M413.87,-336.37C408.36,-318.54 395.61,-277.3 388.18,-253.27"/>
<polygon fill="midnightblue" stroke="midnightblue" points="391.49,-252.11 385.19,-243.59 384.8,-254.18 391.49,-252.11"/>
</g>
<!-- Node26 -->
<g id="node26" class="node">
<title>Node26</title>
<g id="a_node26"><a xlink:href="APU_8hpp.html" target="_top" xlink:title=" ">
<polygon fill="white" stroke="black" points="479.04,-224.5 479.04,-243.5 560.04,-243.5 560.04,-224.5 479.04,-224.5"/>
<text text-anchor="middle" x="519.54" y="-231.5" font-family="Helvetica,sans-Serif" font-size="10.00">APU/APU.hpp</text>
</a>
</g>
</g>
<!-- Node6&#45;&gt;Node26 -->
<g id="edge57" class="edge">
<title>Node6&#45;&gt;Node26</title>
<path fill="none" stroke="midnightblue" d="M426.41,-336.35C436.34,-327.51 451.95,-313.25 464.54,-300 479.57,-284.18 495.56,-264.98 506.4,-251.57"/>
<polygon fill="midnightblue" stroke="midnightblue" points="509.2,-253.68 512.72,-243.69 503.73,-249.3 509.2,-253.68"/>
</g>
<!-- Node30 -->
<g id="node30" class="node">
<title>Node30</title>
<g id="a_node30"><a xlink:href="DebuggableError_8hpp.html" target="_top" xlink:title=" ">
<polygon fill="white" stroke="black" points="1224.04,-280.5 1224.04,-299.5 1399.04,-299.5 1399.04,-280.5 1224.04,-280.5"/>
<text text-anchor="middle" x="1311.54" y="-287.5" font-family="Helvetica,sans-Serif" font-size="10.00">Exceptions/DebuggableError.hpp</text>
</a>
</g>
</g>
<!-- Node6&#45;&gt;Node30 -->
<g id="edge69" class="edge">
<title>Node6&#45;&gt;Node30</title>
<path fill="none" stroke="midnightblue" d="M452.81,-337.28C455.75,-336.79 458.69,-336.36 461.54,-336 604.41,-318.03 1022.36,-301.34 1213.77,-294.4"/>
<polygon fill="midnightblue" stroke="midnightblue" points="1213.96,-297.89 1223.83,-294.03 1213.71,-290.9 1213.96,-297.89"/>
</g>
<!-- Node8 -->
<g id="node8" class="node">
<title>Node8</title>
<g id="a_node8"><a xlink:title=" ">
<polygon fill="white" stroke="#bfbfbf" points="503.54,-0.5 503.54,-19.5 553.54,-19.5 553.54,-0.5 503.54,-0.5"/>
<text text-anchor="middle" x="528.54" y="-7.5" font-family="Helvetica,sans-Serif" font-size="10.00">cstdint</text>
</a>
</g>
</g>
<!-- Node7&#45;&gt;Node8 -->
<g id="edge7" class="edge">
<title>Node7&#45;&gt;Node8</title>
<path fill="none" stroke="midnightblue" d="M967.06,-168.48C938.52,-160.37 895.53,-147.17 859.54,-132 841.95,-124.59 839.38,-118.76 821.54,-112 758.64,-88.16 738.18,-97.77 674.54,-76 631.14,-61.16 582.91,-38.38 554.18,-24.1"/>
<polygon fill="midnightblue" stroke="midnightblue" points="555.73,-20.97 545.22,-19.61 552.59,-27.22 555.73,-20.97"/>
</g>
<!-- Node9 -->
<g id="node9" class="node">
<title>Node9</title>
<g id="a_node9"><a xlink:title=" ">
<polygon fill="white" stroke="#bfbfbf" points="930.04,-0.5 930.04,-19.5 977.04,-19.5 977.04,-0.5 930.04,-0.5"/>
<text text-anchor="middle" x="953.54" y="-7.5" font-family="Helvetica,sans-Serif" font-size="10.00">vector</text>
</a>
</g>
</g>
<!-- Node7&#45;&gt;Node9 -->
<g id="edge8" class="edge">
<title>Node7&#45;&gt;Node9</title>
<path fill="none" stroke="midnightblue" d="M996.12,-168.08C989.03,-141.95 968.23,-65.21 958.57,-29.58"/>
<polygon fill="midnightblue" stroke="midnightblue" points="961.85,-28.3 955.86,-19.57 955.1,-30.14 961.85,-28.3"/>
</g>
<!-- Node10 -->
<g id="node10" class="node">
<title>Node10</title>
<g id="a_node10"><a xlink:title=" ">
<polygon fill="white" stroke="#bfbfbf" points="1029.54,-0.5 1029.54,-19.5 1087.54,-19.5 1087.54,-0.5 1029.54,-0.5"/>
<text text-anchor="middle" x="1058.54" y="-7.5" font-family="Helvetica,sans-Serif" font-size="10.00">memory</text>
</a>
</g>
</g>
<!-- Node7&#45;&gt;Node10 -->
<g id="edge9" class="edge">
<title>Node7&#45;&gt;Node10</title>
<path fill="none" stroke="midnightblue" d="M1001.76,-168.08C1011.25,-141.83 1039.18,-64.55 1051.99,-29.12"/>
<polygon fill="midnightblue" stroke="midnightblue" points="1055.33,-30.16 1055.44,-19.57 1048.75,-27.78 1055.33,-30.16"/>
</g>
<!-- Node11 -->
<g id="node11" class="node">
<title>Node11</title>
<g id="a_node11"><a xlink:href="AMemory_8hpp.html" target="_top" xlink:title=" ">
<polygon fill="white" stroke="black" points="868.04,-112.5 868.04,-131.5 951.04,-131.5 951.04,-112.5 868.04,-112.5"/>
<text text-anchor="middle" x="909.54" y="-119.5" font-family="Helvetica,sans-Serif" font-size="10.00">AMemory.hpp</text>
</a>
</g>
</g>
<!-- Node7&#45;&gt;Node11 -->
<g id="edge10" class="edge">
<title>Node7&#45;&gt;Node11</title>
<path fill="none" stroke="midnightblue" d="M984.24,-168.32C970.35,-159.9 949.04,-146.97 932.73,-137.07"/>
<polygon fill="midnightblue" stroke="midnightblue" points="934.16,-133.85 923.8,-131.65 930.53,-139.83 934.16,-133.85"/>
</g>
<!-- Node11&#45;&gt;Node4 -->
<g id="edge14" class="edge">
<title>Node11&#45;&gt;Node4</title>
<path fill="none" stroke="midnightblue" d="M884.42,-112.42C859.93,-103.86 821.78,-90 789.54,-76 751.95,-59.68 709.69,-38.1 683.59,-24.39"/>
<polygon fill="midnightblue" stroke="midnightblue" points="684.9,-21.12 674.42,-19.54 681.63,-27.31 684.9,-21.12"/>
</g>
<!-- Node11&#45;&gt;Node8 -->
<g id="edge11" class="edge">
<title>Node11&#45;&gt;Node8</title>
<path fill="none" stroke="midnightblue" d="M877.22,-112.45C843.9,-103.58 790.49,-89.18 744.54,-76 680.41,-57.61 605.99,-34.91 563.36,-21.79"/>
<polygon fill="midnightblue" stroke="midnightblue" points="564.33,-18.42 553.75,-18.82 562.27,-25.11 564.33,-18.42"/>
</g>
<!-- Node11&#45;&gt;Node9 -->
<g id="edge12" class="edge">
<title>Node11&#45;&gt;Node9</title>
<path fill="none" stroke="midnightblue" d="M912.99,-112.37C920.15,-94.46 936.77,-52.92 946.36,-28.95"/>
<polygon fill="midnightblue" stroke="midnightblue" points="949.63,-30.18 950.1,-19.59 943.14,-27.58 949.63,-30.18"/>
</g>
<!-- Node11&#45;&gt;Node10 -->
<g id="edge13" class="edge">
<title>Node11&#45;&gt;Node10</title>
<path fill="none" stroke="midnightblue" d="M921.23,-112.37C946.69,-93.57 1007.38,-48.77 1038.85,-25.53"/>
<polygon fill="midnightblue" stroke="midnightblue" points="1040.93,-28.35 1046.9,-19.59 1036.77,-22.72 1040.93,-28.35"/>
</g>
<!-- Node12 -->
<g id="node12" class="node">
<title>Node12</title>
<g id="a_node12"><a xlink:href="Int24_8hpp.html" target="_top" xlink:title=" ">
<polygon fill="white" stroke="black" points="1172.54,-0.5 1172.54,-19.5 1282.54,-19.5 1282.54,-0.5 1172.54,-0.5"/>
<text text-anchor="middle" x="1227.54" y="-7.5" font-family="Helvetica,sans-Serif" font-size="10.00">../Models/Int24.hpp</text>
</a>
</g>
</g>
<!-- Node11&#45;&gt;Node12 -->
<g id="edge15" class="edge">
<title>Node11&#45;&gt;Node12</title>
<path fill="none" stroke="midnightblue" d="M934.22,-112.46C990.46,-93.01 1128.22,-45.36 1192.91,-22.98"/>
<polygon fill="midnightblue" stroke="midnightblue" points="1194.34,-26.19 1202.64,-19.61 1192.05,-19.57 1194.34,-26.19"/>
</g>
<!-- Node13 -->
<g id="node13" class="node">
<title>Node13</title>
<g id="a_node13"><a xlink:href="Components_8hpp.html" target="_top" xlink:title=" ">
<polygon fill="white" stroke="black" points="765.54,-0.5 765.54,-19.5 911.54,-19.5 911.54,-0.5 765.54,-0.5"/>
<text text-anchor="middle" x="838.54" y="-7.5" font-family="Helvetica,sans-Serif" font-size="10.00">../Models/Components.hpp</text>
</a>
</g>
</g>
<!-- Node11&#45;&gt;Node13 -->
<g id="edge16" class="edge">
<title>Node11&#45;&gt;Node13</title>
<path fill="none" stroke="midnightblue" d="M908.05,-112.4C905.49,-99.36 899.37,-74.17 887.54,-56 880.03,-44.47 868.9,-33.93 859.14,-25.95"/>
<polygon fill="midnightblue" stroke="midnightblue" points="861.09,-23.03 851.05,-19.64 856.78,-28.55 861.09,-23.03"/>
</g>
<!-- Node14 -->
<g id="node14" class="node">
<title>Node14</title>
<g id="a_node14"><a xlink:href="IMemory_8hpp.html" target="_top" xlink:title=" ">
<polygon fill="white" stroke="black" points="798.54,-56.5 798.54,-75.5 878.54,-75.5 878.54,-56.5 798.54,-56.5"/>
<text text-anchor="middle" x="838.54" y="-63.5" font-family="Helvetica,sans-Serif" font-size="10.00">IMemory.hpp</text>
</a>
</g>
</g>
<!-- Node11&#45;&gt;Node14 -->
<g id="edge17" class="edge">
<title>Node11&#45;&gt;Node14</title>
<path fill="none" stroke="midnightblue" d="M898.13,-112.32C887.43,-104.18 871.19,-91.84 858.37,-82.09"/>
<polygon fill="midnightblue" stroke="midnightblue" points="860.23,-79.1 850.15,-75.83 855.99,-84.67 860.23,-79.1"/>
</g>
<!-- Node14&#45;&gt;Node4 -->
<g id="edge21" class="edge">
<title>Node14&#45;&gt;Node4</title>
<path fill="none" stroke="midnightblue" d="M810.01,-56.44C777.49,-46.69 724.46,-30.78 690.55,-20.6"/>
<polygon fill="midnightblue" stroke="midnightblue" points="691.27,-17.17 680.68,-17.64 689.25,-23.87 691.27,-17.17"/>
</g>
<!-- Node14&#45;&gt;Node8 -->
<g id="edge18" class="edge">
<title>Node14&#45;&gt;Node8</title>
<path fill="none" stroke="midnightblue" d="M798.33,-58C737.25,-47.36 622.09,-27.3 563.98,-17.17"/>
<polygon fill="midnightblue" stroke="midnightblue" points="564.27,-13.67 553.82,-15.4 563.07,-20.57 564.27,-13.67"/>
</g>
<!-- Node14&#45;&gt;Node9 -->
<g id="edge19" class="edge">
<title>Node14&#45;&gt;Node9</title>
<path fill="none" stroke="midnightblue" d="M856.76,-56.44C875.43,-47.68 904.69,-33.94 926.15,-23.86"/>
<polygon fill="midnightblue" stroke="midnightblue" points="927.83,-26.93 935.4,-19.52 924.86,-20.6 927.83,-26.93"/>
</g>
<!-- Node14&#45;&gt;Node10 -->
<g id="edge20" class="edge">
<title>Node14&#45;&gt;Node10</title>
<path fill="none" stroke="midnightblue" d="M873.4,-56.44C913.24,-46.66 978.29,-30.7 1019.72,-20.53"/>
<polygon fill="midnightblue" stroke="midnightblue" points="1020.58,-23.92 1029.46,-18.14 1018.91,-17.12 1020.58,-23.92"/>
</g>
<!-- Node14&#45;&gt;Node12 -->
<g id="edge22" class="edge">
<title>Node14&#45;&gt;Node12</title>
<path fill="none" stroke="midnightblue" d="M878.7,-59.42C945.81,-50.11 1081.33,-31.3 1162.29,-20.06"/>
<polygon fill="midnightblue" stroke="midnightblue" points="1162.94,-23.5 1172.36,-18.66 1161.98,-16.57 1162.94,-23.5"/>
</g>
<!-- Node14&#45;&gt;Node13 -->
<g id="edge23" class="edge">
<title>Node14&#45;&gt;Node13</title>
<path fill="none" stroke="midnightblue" d="M838.54,-56.08C838.54,-49.01 838.54,-38.86 838.54,-29.99"/>
<polygon fill="midnightblue" stroke="midnightblue" points="842.04,-29.75 838.54,-19.75 835.04,-29.75 842.04,-29.75"/>
</g>
<!-- Node15&#45;&gt;Node7 -->
<g id="edge26" class="edge">
<title>Node15&#45;&gt;Node7</title>
<path fill="none" stroke="midnightblue" d="M1006.83,-280.37C1005.38,-262.62 1002.03,-221.67 1000.06,-197.6"/>
<polygon fill="midnightblue" stroke="midnightblue" points="1003.54,-197.27 999.24,-187.59 996.57,-197.84 1003.54,-197.27"/>
</g>
<!-- Node15&#45;&gt;Node11 -->
<g id="edge25" class="edge">
<title>Node15&#45;&gt;Node11</title>
<path fill="none" stroke="midnightblue" d="M996.71,-280.31C977.6,-264.3 938.14,-228.08 919.54,-188 912.84,-173.58 910.47,-155.62 909.7,-142.24"/>
<polygon fill="midnightblue" stroke="midnightblue" points="913.19,-141.74 909.37,-131.86 906.19,-141.96 913.19,-141.74"/>
</g>
<!-- Node15&#45;&gt;Node12 -->
<g id="edge27" class="edge">
<title>Node15&#45;&gt;Node12</title>
<path fill="none" stroke="midnightblue" d="M1048.22,-286.11C1147.58,-277.93 1394.54,-250.42 1394.54,-179 1394.54,-179 1394.54,-179 1394.54,-121 1394.54,-65.3 1328.94,-36.21 1279.97,-22.25"/>
<polygon fill="midnightblue" stroke="midnightblue" points="1280.68,-18.82 1270.11,-19.58 1278.84,-25.58 1280.68,-18.82"/>
</g>
<!-- Node15&#45;&gt;Node16 -->
<g id="edge28" class="edge">
<title>Node15&#45;&gt;Node16</title>
<path fill="none" stroke="midnightblue" d="M966.81,-280.97C918.91,-271.53 839.27,-255.84 786.58,-245.45"/>
<polygon fill="midnightblue" stroke="midnightblue" points="787.24,-242.02 776.75,-243.52 785.88,-248.88 787.24,-242.02"/>
</g>
<!-- Node20 -->
<g id="node20" class="node">
<title>Node20</title>
<g id="a_node20"><a xlink:href="Instruction_8hpp.html" target="_top" xlink:title=" ">
<polygon fill="white" stroke="black" points="1239.04,-56.5 1239.04,-75.5 1328.04,-75.5 1328.04,-56.5 1239.04,-56.5"/>
<text text-anchor="middle" x="1283.54" y="-63.5" font-family="Helvetica,sans-Serif" font-size="10.00">Instruction.hpp</text>
</a>
</g>
</g>
<!-- Node15&#45;&gt;Node20 -->
<g id="edge38" class="edge">
<title>Node15&#45;&gt;Node20</title>
<path fill="none" stroke="midnightblue" d="M1048.04,-288.03C1087.42,-285.14 1147.06,-275.38 1187.54,-244 1241.37,-202.27 1268.87,-121.53 1278.93,-85.33"/>
<polygon fill="midnightblue" stroke="midnightblue" points="1282.33,-86.19 1281.51,-75.62 1275.56,-84.39 1282.33,-86.19"/>
</g>
<!-- Node21 -->
<g id="node21" class="node">
<title>Node21</title>
<g id="a_node21"><a xlink:href="DMA_8hpp.html" target="_top" xlink:title=" ">
<polygon fill="white" stroke="black" points="1091.04,-224.5 1091.04,-243.5 1178.04,-243.5 1178.04,-224.5 1091.04,-224.5"/>
<text text-anchor="middle" x="1134.54" y="-231.5" font-family="Helvetica,sans-Serif" font-size="10.00">DMA/DMA.hpp</text>
</a>
</g>
</g>
<!-- Node15&#45;&gt;Node21 -->
<g id="edge41" class="edge">
<title>Node15&#45;&gt;Node21</title>
<path fill="none" stroke="midnightblue" d="M1027.66,-280.44C1048.56,-271.56 1081.47,-257.56 1105.25,-247.45"/>
<polygon fill="midnightblue" stroke="midnightblue" points="1106.67,-250.65 1114.51,-243.52 1103.93,-244.21 1106.67,-250.65"/>
</g>
<!-- Node16&#45;&gt;Node4 -->
<g id="edge29" class="edge">
<title>Node16&#45;&gt;Node4</title>
<path fill="none" stroke="midnightblue" d="M716.58,-224.34C689.84,-209.59 638.81,-176.78 618.54,-132 602.27,-96.08 628.04,-51.52 645.2,-27.77"/>
<polygon fill="midnightblue" stroke="midnightblue" points="648.03,-29.84 651.25,-19.75 642.44,-25.62 648.03,-29.84"/>
</g>
<!-- Node16&#45;&gt;Node11 -->
<g id="edge30" class="edge">
<title>Node16&#45;&gt;Node11</title>
<path fill="none" stroke="midnightblue" d="M763.08,-224.4C786.15,-216.89 818.39,-204.59 843.54,-188 863.99,-174.51 883.48,-154.05 895.9,-139.7"/>
<polygon fill="midnightblue" stroke="midnightblue" points="898.9,-141.57 902.67,-131.67 893.55,-137.06 898.9,-141.57"/>
</g>
<!-- Node16&#45;&gt;Node12 -->
<g id="edge31" class="edge">
<title>Node16&#45;&gt;Node12</title>
<path fill="none" stroke="midnightblue" d="M803.7,-231.58C898.3,-228.5 1060.68,-218.76 1110.54,-188 1172.17,-149.98 1208.14,-65.97 1221.51,-29.03"/>
<polygon fill="midnightblue" stroke="midnightblue" points="1224.83,-30.15 1224.82,-19.55 1218.22,-27.84 1224.83,-30.15"/>
</g>
<!-- Node17 -->
<g id="node17" class="node">
<title>Node17</title>
<g id="a_node17"><a xlink:href="ARectangleMemory_8hpp.html" target="_top" xlink:title=" ">
<polygon fill="white" stroke="black" points="627.04,-112.5 627.04,-131.5 812.04,-131.5 812.04,-112.5 627.04,-112.5"/>
<text text-anchor="middle" x="719.54" y="-119.5" font-family="Helvetica,sans-Serif" font-size="10.00">../Memory/ARectangleMemory.hpp</text>
</a>
</g>
</g>
<!-- Node16&#45;&gt;Node17 -->
<g id="edge32" class="edge">
<title>Node16&#45;&gt;Node17</title>
<path fill="none" stroke="midnightblue" d="M727.17,-224.23C721.28,-215.53 712.93,-201.57 709.54,-188 705.64,-172.42 709.04,-154.35 712.9,-141.22"/>
<polygon fill="midnightblue" stroke="midnightblue" points="716.29,-142.11 716.1,-131.51 709.64,-139.92 716.29,-142.11"/>
</g>
<!-- Node18 -->
<g id="node18" class="node">
<title>Node18</title>
<g id="a_node18"><a xlink:href="InterruptVectors_8hpp.html" target="_top" xlink:title=" ">
<polygon fill="white" stroke="black" points="718.54,-168.5 718.54,-187.5 834.54,-187.5 834.54,-168.5 718.54,-168.5"/>
<text text-anchor="middle" x="776.54" y="-175.5" font-family="Helvetica,sans-Serif" font-size="10.00">InterruptVectors.hpp</text>
</a>
</g>
</g>
<!-- Node16&#45;&gt;Node18 -->
<g id="edge34" class="edge">
<title>Node16&#45;&gt;Node18</title>
<path fill="none" stroke="midnightblue" d="M740.64,-224.08C746.77,-216.38 755.81,-205.03 763.27,-195.65"/>
<polygon fill="midnightblue" stroke="midnightblue" points="766.08,-197.75 769.57,-187.75 760.6,-193.39 766.08,-197.75"/>
</g>
<!-- Node16&#45;&gt;Node19 -->
<g id="edge35" class="edge">
<title>Node16&#45;&gt;Node19</title>
<path fill="none" stroke="midnightblue" d="M688.69,-224.44C638.91,-214.94 558.55,-199.61 505.14,-189.42"/>
<polygon fill="midnightblue" stroke="midnightblue" points="505.65,-185.95 495.17,-187.52 504.33,-192.83 505.65,-185.95"/>
</g>
<!-- Node17&#45;&gt;Node14 -->
<g id="edge33" class="edge">
<title>Node17&#45;&gt;Node14</title>
<path fill="none" stroke="midnightblue" d="M738.39,-112.44C757.8,-103.64 788.27,-89.81 810.5,-79.72"/>
<polygon fill="midnightblue" stroke="midnightblue" points="812.11,-82.84 819.77,-75.52 809.22,-76.46 812.11,-82.84"/>
</g>
<!-- Node19&#45;&gt;Node4 -->
<g id="edge37" class="edge">
<title>Node19&#45;&gt;Node4</title>
<path fill="none" stroke="midnightblue" d="M459.22,-168.2C479.99,-147.39 534.6,-94.05 585.54,-56 600.99,-44.45 619.51,-33.06 634.03,-24.63"/>
<polygon fill="midnightblue" stroke="midnightblue" points="635.98,-27.55 642.92,-19.55 632.5,-21.47 635.98,-27.55"/>
</g>
<!-- Node19&#45;&gt;Node17 -->
<g id="edge36" class="edge">
<title>Node19&#45;&gt;Node17</title>
<path fill="none" stroke="midnightblue" d="M493.16,-168.44C540.28,-158.98 616.23,-143.74 666.99,-133.55"/>
<polygon fill="midnightblue" stroke="midnightblue" points="668,-136.92 677.11,-131.52 666.62,-130.05 668,-136.92"/>
</g>
<!-- Node20&#45;&gt;Node4 -->
<g id="edge39" class="edge">
<title>Node20&#45;&gt;Node4</title>
<path fill="none" stroke="midnightblue" d="M1238.76,-61.27C1147.85,-53.69 935.13,-35.83 756.54,-20 734.57,-18.05 709.83,-15.78 690.71,-14.01"/>
<polygon fill="midnightblue" stroke="midnightblue" points="691,-10.52 680.72,-13.08 690.35,-17.49 691,-10.52"/>
</g>
<!-- Node20&#45;&gt;Node12 -->
<g id="edge40" class="edge">
<title>Node20&#45;&gt;Node12</title>
<path fill="none" stroke="midnightblue" d="M1274.54,-56.32C1266.34,-48.42 1254.03,-36.55 1244.06,-26.94"/>
<polygon fill="midnightblue" stroke="midnightblue" points="1246.32,-24.26 1236.7,-19.83 1241.47,-29.29 1246.32,-24.26"/>
</g>
<!-- Node21&#45;&gt;Node7 -->
<g id="edge45" class="edge">
<title>Node21&#45;&gt;Node7</title>
<path fill="none" stroke="midnightblue" d="M1112.99,-224.44C1090.5,-215.52 1055.05,-201.44 1029.56,-191.32"/>
<polygon fill="midnightblue" stroke="midnightblue" points="1030.57,-187.95 1019.98,-187.52 1027.99,-194.46 1030.57,-187.95"/>
</g>
<!-- Node21&#45;&gt;Node8 -->
<g id="edge42" class="edge">
<title>Node21&#45;&gt;Node8</title>
<path fill="none" stroke="midnightblue" d="M1128.77,-224.43C1119.36,-210.96 1099.54,-184.68 1077.54,-168 1031.59,-133.17 1015.13,-130.51 960.54,-112 886.98,-87.06 864.69,-95.61 789.54,-76 760.7,-68.48 754.31,-63.77 725.54,-56 669.26,-40.8 603.05,-26.38 563.51,-18.12"/>
<polygon fill="midnightblue" stroke="midnightblue" points="564.07,-14.67 553.57,-16.06 562.65,-21.52 564.07,-14.67"/>
</g>
<!-- Node21&#45;&gt;Node10 -->
<g id="edge43" class="edge">
<title>Node21&#45;&gt;Node10</title>
<path fill="none" stroke="midnightblue" d="M1150.32,-224.47C1162.74,-216.77 1179.14,-204.18 1186.54,-188 1190.23,-179.92 1189.15,-176.5 1186.54,-168 1167.37,-105.62 1108.74,-51.19 1077.92,-25.95"/>
<polygon fill="midnightblue" stroke="midnightblue" points="1080.02,-23.15 1070.03,-19.63 1075.64,-28.61 1080.02,-23.15"/>
</g>
<!-- Node21&#45;&gt;Node12 -->
<g id="edge44" class="edge">
<title>Node21&#45;&gt;Node12</title>
<path fill="none" stroke="midnightblue" d="M1155.94,-224.47C1200.06,-205.56 1300.08,-155.38 1337.54,-76 1350.55,-48.43 1317.88,-31.73 1284.84,-22.17"/>
<polygon fill="midnightblue" stroke="midnightblue" points="1285.65,-18.77 1275.09,-19.55 1283.83,-25.53 1285.65,-18.77"/>
</g>
<!-- Node22&#45;&gt;Node3 -->
<g id="edge52" class="edge">
<title>Node22&#45;&gt;Node3</title>
<path fill="none" stroke="midnightblue" d="M342.42,-226.2C292.8,-217.78 205.47,-202.91 120.62,-188.18"/>
<polygon fill="midnightblue" stroke="midnightblue" points="121.01,-184.7 110.56,-186.43 119.81,-191.59 121.01,-184.7"/>
</g>
<!-- Node22&#45;&gt;Node7 -->
<g id="edge51" class="edge">
<title>Node22&#45;&gt;Node7</title>
<path fill="none" stroke="midnightblue" d="M422.8,-228.68C437.5,-227.14 454.27,-225.44 469.54,-224 628.5,-209.02 814.56,-193.71 918.25,-185.37"/>
<polygon fill="midnightblue" stroke="midnightblue" points="918.64,-188.85 928.33,-184.56 918.08,-181.87 918.64,-188.85"/>
</g>
<!-- Node22&#45;&gt;Node8 -->
<g id="edge49" class="edge">
<title>Node22&#45;&gt;Node8</title>
<path fill="none" stroke="midnightblue" d="M342.23,-230.94C251.86,-225.9 39.21,-211.65 17.54,-188 -5.3,-163.09 -5.38,-138.54 15.54,-112 75.02,-36.53 387.02,-16.81 493.15,-12.25"/>
<polygon fill="midnightblue" stroke="midnightblue" points="493.49,-15.73 503.34,-11.83 493.2,-8.74 493.49,-15.73"/>
</g>
<!-- Node22&#45;&gt;Node11 -->
<g id="edge50" class="edge">
<title>Node22&#45;&gt;Node11</title>
<path fill="none" stroke="midnightblue" d="M381.04,-224.31C379.16,-210.19 377.87,-182.41 393.54,-168 428.66,-135.7 774.02,-136.43 821.54,-132 833.24,-130.91 845.82,-129.67 857.7,-128.46"/>
<polygon fill="midnightblue" stroke="midnightblue" points="858.33,-131.91 867.92,-127.41 857.61,-124.95 858.33,-131.91"/>
</g>
<!-- Node22&#45;&gt;Node19 -->
<g id="edge53" class="edge">
<title>Node22&#45;&gt;Node19</title>
<path fill="none" stroke="midnightblue" d="M393.46,-224.32C403.71,-216.18 419.26,-203.84 431.54,-194.09"/>
<polygon fill="midnightblue" stroke="midnightblue" points="433.76,-196.79 439.41,-187.83 429.4,-191.31 433.76,-196.79"/>
</g>
<!-- Node23 -->
<g id="node23" class="node">
<title>Node23</title>
<g id="a_node23"><a xlink:href="Vector2_8hpp.html" target="_top" xlink:title=" ">
<polygon fill="white" stroke="black" points="128.54,-168.5 128.54,-187.5 250.54,-187.5 250.54,-168.5 128.54,-168.5"/>
<text text-anchor="middle" x="189.54" y="-175.5" font-family="Helvetica,sans-Serif" font-size="10.00">../Models/Vector2.hpp</text>
</a>
</g>
</g>
<!-- Node22&#45;&gt;Node23 -->
<g id="edge54" class="edge">
<title>Node22&#45;&gt;Node23</title>
<path fill="none" stroke="midnightblue" d="M351.95,-224.44C318.92,-215.2 266.15,-200.44 229.77,-190.26"/>
<polygon fill="midnightblue" stroke="midnightblue" points="230.55,-186.84 219.97,-187.52 228.66,-193.58 230.55,-186.84"/>
</g>
<!-- Node24 -->
<g id="node24" class="node">
<title>Node24</title>
<g id="a_node24"><a xlink:title=" ">
<polygon fill="white" stroke="#bfbfbf" points="282.04,-112.5 282.04,-131.5 339.04,-131.5 339.04,-112.5 282.04,-112.5"/>
<text text-anchor="middle" x="310.54" y="-119.5" font-family="Helvetica,sans-Serif" font-size="10.00">ostream</text>
</a>
</g>
</g>
<!-- Node23&#45;&gt;Node24 -->
<g id="edge55" class="edge">
<title>Node23&#45;&gt;Node24</title>
<path fill="none" stroke="midnightblue" d="M208.71,-168.44C228.44,-159.64 259.42,-145.81 282.03,-135.72"/>
<polygon fill="midnightblue" stroke="midnightblue" points="283.75,-138.79 291.45,-131.52 280.89,-132.4 283.75,-138.79"/>
</g>
<!-- Node25 -->
<g id="node25" class="node">
<title>Node25</title>
<g id="a_node25"><a xlink:title=" ">
<polygon fill="white" stroke="#bfbfbf" points="121.04,-112.5 121.04,-131.5 264.04,-131.5 264.04,-112.5 121.04,-112.5"/>
<text text-anchor="middle" x="192.54" y="-119.5" font-family="Helvetica,sans-Serif" font-size="10.00">SFML/System/Vector2.hpp</text>
</a>
</g>
</g>
<!-- Node23&#45;&gt;Node25 -->
<g id="edge56" class="edge">
<title>Node23&#45;&gt;Node25</title>
<path fill="none" stroke="midnightblue" d="M190.03,-168.08C190.42,-161.01 190.99,-150.86 191.48,-141.99"/>
<polygon fill="midnightblue" stroke="midnightblue" points="194.99,-141.93 192.05,-131.75 188,-141.54 194.99,-141.93"/>
</g>
<!-- Node26&#45;&gt;Node3 -->
<g id="edge67" class="edge">
<title>Node26&#45;&gt;Node3</title>
<path fill="none" stroke="midnightblue" d="M478.78,-228.74C394.96,-219.94 204.74,-199.68 120.95,-188.1"/>
<polygon fill="midnightblue" stroke="midnightblue" points="121.2,-184.6 110.8,-186.67 120.21,-191.54 121.2,-184.6"/>
</g>
<!-- Node26&#45;&gt;Node10 -->
<g id="edge58" class="edge">
<title>Node26&#45;&gt;Node10</title>
<path fill="none" stroke="midnightblue" d="M560.2,-230.09C687.97,-220.88 1073.14,-192.77 1077.54,-188 1118.35,-143.76 1086.06,-64.38 1068.28,-28.94"/>
<polygon fill="midnightblue" stroke="midnightblue" points="1071.25,-27.06 1063.52,-19.8 1065.04,-30.29 1071.25,-27.06"/>
</g>
<!-- Node26&#45;&gt;Node11 -->
<g id="edge63" class="edge">
<title>Node26&#45;&gt;Node11</title>
<path fill="none" stroke="midnightblue" d="M520.29,-224.17C522.02,-209.86 527.63,-181.8 545.54,-168 551.67,-163.27 758.84,-139.73 857.84,-128.71"/>
<polygon fill="midnightblue" stroke="midnightblue" points="858.38,-132.17 867.93,-127.58 857.61,-125.21 858.38,-132.17"/>
</g>
<!-- Node26&#45;&gt;Node19 -->
<g id="edge64" class="edge">
<title>Node26&#45;&gt;Node19</title>
<path fill="none" stroke="midnightblue" d="M508.45,-224.32C498.05,-216.18 482.27,-203.84 469.81,-194.09"/>
<polygon fill="midnightblue" stroke="midnightblue" points="471.86,-191.24 461.82,-187.83 467.54,-196.75 471.86,-191.24"/>
</g>
<!-- Node27 -->
<g id="node27" class="node">
<title>Node27</title>
<g id="a_node27"><a xlink:href="DSP_8hpp.html" target="_top" xlink:title=" ">
<polygon fill="white" stroke="black" points="268.54,-168.5 268.54,-187.5 346.54,-187.5 346.54,-168.5 268.54,-168.5"/>
<text text-anchor="middle" x="307.54" y="-175.5" font-family="Helvetica,sans-Serif" font-size="10.00">DSP/DSP.hpp</text>
</a>
</g>
</g>
<!-- Node26&#45;&gt;Node27 -->
<g id="edge59" class="edge">
<title>Node26&#45;&gt;Node27</title>
<path fill="none" stroke="midnightblue" d="M485.94,-224.44C449.35,-215.12 390.7,-200.18 350.71,-190"/>
<polygon fill="midnightblue" stroke="midnightblue" points="351.52,-186.59 340.97,-187.52 349.8,-193.38 351.52,-186.59"/>
</g>
<!-- Node29 -->
<g id="node29" class="node">
<title>Node29</title>
<g id="a_node29"><a xlink:href="IPL_8hpp.html" target="_top" xlink:title=" ">
<polygon fill="white" stroke="black" points="555.04,-168.5 555.04,-187.5 624.04,-187.5 624.04,-168.5 555.04,-168.5"/>
<text text-anchor="middle" x="589.54" y="-175.5" font-family="Helvetica,sans-Serif" font-size="10.00">IPL/IPL.hpp</text>
</a>
</g>
</g>
<!-- Node26&#45;&gt;Node29 -->
<g id="edge65" class="edge">
<title>Node26&#45;&gt;Node29</title>
<path fill="none" stroke="midnightblue" d="M530.78,-224.32C541.33,-216.18 557.34,-203.84 569.98,-194.09"/>
<polygon fill="midnightblue" stroke="midnightblue" points="572.3,-196.71 578.08,-187.83 568.03,-191.17 572.3,-196.71"/>
</g>
<!-- Node27&#45;&gt;Node8 -->
<g id="edge60" class="edge">
<title>Node27&#45;&gt;Node8</title>
<path fill="none" stroke="midnightblue" d="M317.58,-168.35C332.41,-155.67 361.15,-131.43 386.54,-112 428.4,-79.95 479.09,-44.72 507.17,-25.5"/>
<polygon fill="midnightblue" stroke="midnightblue" points="509.5,-28.15 515.78,-19.63 505.55,-22.37 509.5,-28.15"/>
</g>
<!-- Node27&#45;&gt;Node11 -->
<g id="edge62" class="edge">
<title>Node27&#45;&gt;Node11</title>
<path fill="none" stroke="midnightblue" d="M346.55,-169.96C351.25,-169.24 356,-168.56 360.54,-168 564.49,-142.77 616.85,-150.46 821.54,-132 833.25,-130.94 845.83,-129.71 857.7,-128.51"/>
<polygon fill="midnightblue" stroke="midnightblue" points="858.33,-131.96 867.92,-127.46 857.62,-125 858.33,-131.96"/>
</g>
<!-- Node28 -->
<g id="node28" class="node">
<title>Node28</title>
<g id="a_node28"><a xlink:title=" ">
<polygon fill="white" stroke="#bfbfbf" points="395.54,-112.5 395.54,-131.5 437.54,-131.5 437.54,-112.5 395.54,-112.5"/>
<text text-anchor="middle" x="416.54" y="-119.5" font-family="Helvetica,sans-Serif" font-size="10.00">array</text>
</a>
</g>
</g>
<!-- Node27&#45;&gt;Node28 -->
<g id="edge61" class="edge">
<title>Node27&#45;&gt;Node28</title>
<path fill="none" stroke="midnightblue" d="M325.05,-168.32C342.61,-159.62 369.87,-146.12 390.07,-136.11"/>
<polygon fill="midnightblue" stroke="midnightblue" points="391.66,-139.23 399.07,-131.65 388.55,-132.96 391.66,-139.23"/>
</g>
<!-- Node29&#45;&gt;Node11 -->
<g id="edge66" class="edge">
<title>Node29&#45;&gt;Node11</title>
<path fill="none" stroke="midnightblue" d="M624.09,-171.17C680.31,-161.68 791.91,-142.85 857.68,-131.75"/>
<polygon fill="midnightblue" stroke="midnightblue" points="858.55,-135.15 867.83,-130.04 857.39,-128.25 858.55,-135.15"/>
</g>
<!-- Node31 -->
<g id="node31" class="node">
<title>Node31</title>
<g id="a_node31"><a xlink:title=" ">
<polygon fill="white" stroke="#bfbfbf" points="1423.04,-224.5 1423.04,-243.5 1518.04,-243.5 1518.04,-224.5 1423.04,-224.5"/>
<text text-anchor="middle" x="1470.54" y="-231.5" font-family="Helvetica,sans-Serif" font-size="10.00">bits/exception.h</text>
</a>
</g>
</g>
<!-- Node30&#45;&gt;Node31 -->
<g id="edge70" class="edge">
<title>Node30&#45;&gt;Node31</title>
<path fill="none" stroke="midnightblue" d="M1336.73,-280.44C1363.48,-271.36 1405.94,-256.94 1435.84,-246.78"/>
<polygon fill="midnightblue" stroke="midnightblue" points="1437.12,-250.05 1445.46,-243.52 1434.86,-243.42 1437.12,-250.05"/>
</g>
</g>
</svg>
