<?xml version="1.0" encoding="UTF-8" standalone="no"?>
<!DOCTYPE svg PUBLIC "-//W3C//DTD SVG 1.1//EN"
 "http://www.w3.org/Graphics/SVG/1.1/DTD/svg11.dtd">
<!-- Generated by graphviz version 2.43.0 (0)
 -->
<!-- Title: sources/SNES.hpp Pages: 1 -->
<svg width="3900pt" height="296pt"
 viewBox="0.00 0.00 3899.50 296.00" xmlns="http://www.w3.org/2000/svg" xmlns:xlink="http://www.w3.org/1999/xlink">
<g id="graph0" class="graph" transform="scale(1 1) rotate(0) translate(4 292)">
<title>sources/SNES.hpp</title>
<polygon fill="white" stroke="transparent" points="-4,4 -4,-292 3895.5,-292 3895.5,4 -4,4"/>
<!-- Node1 -->
<g id="node1" class="node">
<title>Node1</title>
<g id="a_node1"><a xlink:title=" ">
<polygon fill="#bfbfbf" stroke="black" points="1937.5,-268.5 1937.5,-287.5 2041.5,-287.5 2041.5,-268.5 1937.5,-268.5"/>
<text text-anchor="middle" x="1989.5" y="-275.5" font-family="Helvetica,sans-Serif" font-size="10.00">sources/SNES.hpp</text>
</a>
</g>
</g>
<!-- Node2 -->
<g id="node2" class="node">
<title>Node2</title>
<g id="a_node2"><a xlink:href="APUDebug_8hpp.html" target="_top" xlink:title=" ">
<polygon fill="white" stroke="black" points="60.5,-207 60.5,-226 240.5,-226 240.5,-207 60.5,-207"/>
<text text-anchor="middle" x="150.5" y="-214" font-family="Helvetica,sans-Serif" font-size="10.00">sources/Debugger/APUDebug.hpp</text>
</a>
</g>
</g>
<!-- Node1&#45;&gt;Node2 -->
<g id="edge1" class="edge">
<title>Node1&#45;&gt;Node2</title>
<path fill="none" stroke="midnightblue" d="M1927.08,-276.77C1706.1,-275.66 940.27,-269.17 309.5,-232 284.6,-230.53 257.55,-228.3 232.95,-226.03"/>
<polygon fill="midnightblue" stroke="midnightblue" points="1927.17,-280.27 1937.19,-276.82 1927.21,-273.27 1927.17,-280.27"/>
</g>
<!-- Node4 -->
<g id="node4" class="node">
<title>Node4</title>
<g id="a_node4"><a xlink:href="CGramDebug_8cpp.html" target="_top" xlink:title=" ">
<polygon fill="white" stroke="black" points="319,-207 319,-226 512,-226 512,-207 319,-207"/>
<text text-anchor="middle" x="415.5" y="-214" font-family="Helvetica,sans-Serif" font-size="10.00">sources/Debugger/CGramDebug.cpp</text>
</a>
</g>
</g>
<!-- Node1&#45;&gt;Node4 -->
<g id="edge3" class="edge">
<title>Node1&#45;&gt;Node4</title>
<path fill="none" stroke="midnightblue" d="M1927.09,-277.29C1724.6,-277.76 1067.69,-275.56 526.5,-232 508.87,-230.58 489.75,-228.34 472.42,-226.04"/>
<polygon fill="midnightblue" stroke="midnightblue" points="1927.25,-280.79 1937.24,-277.26 1927.23,-273.79 1927.25,-280.79"/>
</g>
<!-- Node5 -->
<g id="node5" class="node">
<title>Node5</title>
<g id="a_node5"><a xlink:href="SFRenderer_8hpp.html" target="_top" xlink:title=" ">
<polygon fill="white" stroke="black" points="569,-207 569,-226 750,-226 750,-207 569,-207"/>
<text text-anchor="middle" x="659.5" y="-214" font-family="Helvetica,sans-Serif" font-size="10.00">sources/Renderer/SFRenderer.hpp</text>
</a>
</g>
</g>
<!-- Node1&#45;&gt;Node5 -->
<g id="edge4" class="edge">
<title>Node1&#45;&gt;Node5</title>
<path fill="none" stroke="midnightblue" d="M1927.42,-276.56C1748.6,-274.89 1217.09,-267.11 777.5,-232 758.98,-230.52 738.9,-228.29 720.64,-226.02"/>
<polygon fill="midnightblue" stroke="midnightblue" points="1927.4,-280.06 1937.43,-276.65 1927.46,-273.06 1927.4,-280.06"/>
</g>
<!-- Node6 -->
<g id="node6" class="node">
<title>Node6</title>
<g id="a_node6"><a xlink:href="CPUDebug_8hpp.html" target="_top" xlink:title=" ">
<polygon fill="white" stroke="black" points="197.5,-134.5 197.5,-164.5 325.5,-164.5 325.5,-134.5 197.5,-134.5"/>
<text text-anchor="start" x="205.5" y="-152.5" font-family="Helvetica,sans-Serif" font-size="10.00">sources/Debugger/CPU</text>
<text text-anchor="middle" x="261.5" y="-141.5" font-family="Helvetica,sans-Serif" font-size="10.00">/CPUDebug.hpp</text>
</a>
</g>
</g>
<!-- Node1&#45;&gt;Node6 -->
<g id="edge16" class="edge">
<title>Node1&#45;&gt;Node6</title>
<path fill="none" stroke="midnightblue" d="M1927.11,-277.34C1668.59,-278.45 688.88,-279.45 559.5,-232 538.71,-224.38 540.61,-210.26 520.5,-201 444.01,-165.79 417.13,-181.2 334.5,-165 331.58,-164.43 328.6,-163.84 325.59,-163.25"/>
<polygon fill="midnightblue" stroke="midnightblue" points="1927.46,-280.84 1937.44,-277.3 1927.43,-273.84 1927.46,-280.84"/>
</g>
<!-- Node9 -->
<g id="node9" class="node">
<title>Node9</title>
<g id="a_node9"><a xlink:href="main_8cpp.html" target="_top" xlink:title=" ">
<polygon fill="white" stroke="black" points="716.5,-6 716.5,-25 818.5,-25 818.5,-6 716.5,-6"/>
<text text-anchor="middle" x="767.5" y="-13" font-family="Helvetica,sans-Serif" font-size="10.00">sources/main.cpp</text>
</a>
</g>
</g>
<!-- Node1&#45;&gt;Node9 -->
<g id="edge21" class="edge">
<title>Node1&#45;&gt;Node9</title>
<path fill="none" stroke="midnightblue" d="M1926.95,-276.8C1689.12,-275.76 852.4,-269.45 810.5,-232 755.19,-182.58 803.59,-138.93 785.5,-67 781.73,-52.02 775.28,-35.23 771.21,-25.28"/>
<polygon fill="midnightblue" stroke="midnightblue" points="1927.14,-280.3 1937.15,-276.84 1927.17,-273.3 1927.14,-280.3"/>
</g>
<!-- Node15 -->
<g id="node15" class="node">
<title>Node15</title>
<g id="a_node15"><a xlink:href="HeaderViewer_8cpp.html" target="_top" xlink:title=" ">
<polygon fill="white" stroke="black" points="819.5,-207 819.5,-226 1015.5,-226 1015.5,-207 819.5,-207"/>
<text text-anchor="middle" x="917.5" y="-214" font-family="Helvetica,sans-Serif" font-size="10.00">sources/Debugger/HeaderViewer.cpp</text>
</a>
</g>
</g>
<!-- Node1&#45;&gt;Node15 -->
<g id="edge17" class="edge">
<title>Node1&#45;&gt;Node15</title>
<path fill="none" stroke="midnightblue" d="M1927.16,-275.99C1773.5,-273.1 1364.32,-262.89 1024.5,-232 1007.88,-230.49 989.89,-228.28 973.48,-226.03"/>
<polygon fill="midnightblue" stroke="midnightblue" points="1927.29,-279.5 1937.35,-276.18 1927.41,-272.5 1927.29,-279.5"/>
</g>
<!-- Node16 -->
<g id="node16" class="node">
<title>Node16</title>
<g id="a_node16"><a xlink:href="MemoryBusDebug_8cpp.html" target="_top" xlink:title=" ">
<polygon fill="white" stroke="black" points="1033.5,-201.5 1033.5,-231.5 1199.5,-231.5 1199.5,-201.5 1033.5,-201.5"/>
<text text-anchor="start" x="1041.5" y="-219.5" font-family="Helvetica,sans-Serif" font-size="10.00">sources/Debugger/MemoryBus</text>
<text text-anchor="middle" x="1116.5" y="-208.5" font-family="Helvetica,sans-Serif" font-size="10.00">Debug.cpp</text>
</a>
</g>
</g>
<!-- Node1&#45;&gt;Node16 -->
<g id="edge18" class="edge">
<title>Node1&#45;&gt;Node16</title>
<path fill="none" stroke="midnightblue" d="M1926.89,-275.49C1794.13,-271.83 1474.74,-260.58 1208.5,-232 1205.61,-231.69 1202.66,-231.35 1199.7,-230.99"/>
<polygon fill="midnightblue" stroke="midnightblue" points="1927.17,-279 1937.26,-275.77 1927.35,-272 1927.17,-279"/>
</g>
<!-- Node17 -->
<g id="node17" class="node">
<title>Node17</title>
<g id="a_node17"><a xlink:href="MemoryViewer_8cpp.html" target="_top" xlink:title=" ">
<polygon fill="white" stroke="black" points="1218,-207 1218,-226 1419,-226 1419,-207 1218,-207"/>
<text text-anchor="middle" x="1318.5" y="-214" font-family="Helvetica,sans-Serif" font-size="10.00">sources/Debugger/MemoryViewer.cpp</text>
</a>
</g>
</g>
<!-- Node1&#45;&gt;Node17 -->
<g id="edge19" class="edge">
<title>Node1&#45;&gt;Node17</title>
<path fill="none" stroke="midnightblue" d="M1926.92,-273.03C1823.18,-266.2 1609.1,-251.13 1428.5,-232 1412.41,-230.3 1395.04,-228.15 1378.95,-226.03"/>
<polygon fill="midnightblue" stroke="midnightblue" points="1927,-276.54 1937.21,-273.7 1927.46,-269.55 1927,-276.54"/>
</g>
<!-- Node18 -->
<g id="node18" class="node">
<title>Node18</title>
<g id="a_node18"><a xlink:href="RegisterViewer_8cpp.html" target="_top" xlink:title=" ">
<polygon fill="white" stroke="black" points="1437.5,-201.5 1437.5,-231.5 1585.5,-231.5 1585.5,-201.5 1437.5,-201.5"/>
<text text-anchor="start" x="1445.5" y="-219.5" font-family="Helvetica,sans-Serif" font-size="10.00">sources/Debugger/Register</text>
<text text-anchor="middle" x="1511.5" y="-208.5" font-family="Helvetica,sans-Serif" font-size="10.00">Viewer.cpp</text>
</a>
</g>
</g>
<!-- Node1&#45;&gt;Node18 -->
<g id="edge20" class="edge">
<title>Node1&#45;&gt;Node18</title>
<path fill="none" stroke="midnightblue" d="M1927.16,-271.06C1849.19,-263.36 1711.69,-248.9 1594.5,-232 1591.6,-231.58 1588.65,-231.14 1585.68,-230.68"/>
<polygon fill="midnightblue" stroke="midnightblue" points="1927,-274.56 1937.3,-272.05 1927.69,-267.59 1927,-274.56"/>
</g>
<!-- Node19 -->
<g id="node19" class="node">
<title>Node19</title>
<g id="a_node19"><a xlink:href="MemoryBus_8cpp.html" target="_top" xlink:title=" ">
<polygon fill="white" stroke="black" points="1604,-207 1604,-226 1783,-226 1783,-207 1604,-207"/>
<text text-anchor="middle" x="1693.5" y="-214" font-family="Helvetica,sans-Serif" font-size="10.00">sources/Memory/MemoryBus.cpp</text>
</a>
</g>
</g>
<!-- Node1&#45;&gt;Node19 -->
<g id="edge22" class="edge">
<title>Node1&#45;&gt;Node19</title>
<path fill="none" stroke="midnightblue" d="M1937.14,-266.47C1879.77,-254.94 1788.88,-236.67 1735.83,-226.01"/>
<polygon fill="midnightblue" stroke="midnightblue" points="1936.6,-269.94 1947.09,-268.48 1937.98,-263.07 1936.6,-269.94"/>
</g>
<!-- Node20 -->
<g id="node20" class="node">
<title>Node20</title>
<g id="a_node20"><a xlink:href="SNES_8cpp.html" target="_top" xlink:title=" ">
<polygon fill="white" stroke="black" points="1801,-207 1801,-226 1904,-226 1904,-207 1801,-207"/>
<text text-anchor="middle" x="1852.5" y="-214" font-family="Helvetica,sans-Serif" font-size="10.00">sources/SNES.cpp</text>
</a>
</g>
</g>
<!-- Node1&#45;&gt;Node20 -->
<g id="edge23" class="edge">
<title>Node1&#45;&gt;Node20</title>
<path fill="none" stroke="midnightblue" d="M1960.67,-264.48C1934.06,-252.92 1895.27,-236.08 1872.09,-226.01"/>
<polygon fill="midnightblue" stroke="midnightblue" points="1959.3,-267.7 1969.87,-268.48 1962.09,-261.28 1959.3,-267.7"/>
</g>
<!-- Node21 -->
<g id="node21" class="node">
<title>Node21</title>
<g id="a_node21"><a xlink:href="tests_8hpp.html" target="_top" xlink:title=" ">
<polygon fill="white" stroke="black" points="2305,-207 2305,-226 2394,-226 2394,-207 2305,-207"/>
<text text-anchor="middle" x="2349.5" y="-214" font-family="Helvetica,sans-Serif" font-size="10.00">tests/tests.hpp</text>
</a>
</g>
</g>
<!-- Node1&#45;&gt;Node21 -->
<g id="edge24" class="edge">
<title>Node1&#45;&gt;Node21</title>
<path fill="none" stroke="midnightblue" d="M2051.54,-267.48C2108.52,-258.64 2195.28,-244.92 2270.5,-232 2281.63,-230.09 2293.63,-227.93 2304.83,-225.88"/>
<polygon fill="midnightblue" stroke="midnightblue" points="2050.95,-264.03 2041.61,-269.02 2052.03,-270.95 2050.95,-264.03"/>
</g>
<!-- Node22 -->
<g id="node22" class="node">
<title>Node22</title>
<g id="a_node22"><a xlink:href="testAPU_8cpp.html" target="_top" xlink:title=" ">
<polygon fill="white" stroke="black" points="936.5,-140 936.5,-159 1062.5,-159 1062.5,-140 936.5,-140"/>
<text text-anchor="middle" x="999.5" y="-147" font-family="Helvetica,sans-Serif" font-size="10.00">tests/APU/testAPU.cpp</text>
</a>
</g>
</g>
<!-- Node1&#45;&gt;Node22 -->
<g id="edge44" class="edge">
<title>Node1&#45;&gt;Node22</title>
<path fill="none" stroke="midnightblue" d="M1974.32,-260.83C1954.14,-239.52 1920.13,-204.33 1912.5,-201 1826.75,-163.65 1164.35,-176.27 1071.5,-165 1059.98,-163.6 1047.55,-161.37 1036.32,-159.06"/>
<polygon fill="midnightblue" stroke="midnightblue" points="1971.89,-263.35 1981.29,-268.22 1976.98,-258.54 1971.89,-263.35"/>
</g>
<!-- Node23 -->
<g id="node23" class="node">
<title>Node23</title>
<g id="a_node23"><a xlink:href="testAPUInstructions_8cpp.html" target="_top" xlink:title=" ">
<polygon fill="white" stroke="black" points="1081,-140 1081,-159 1264,-159 1264,-140 1081,-140"/>
<text text-anchor="middle" x="1172.5" y="-147" font-family="Helvetica,sans-Serif" font-size="10.00">tests/APU/testAPUInstructions.cpp</text>
</a>
</g>
</g>
<!-- Node1&#45;&gt;Node23 -->
<g id="edge45" class="edge">
<title>Node1&#45;&gt;Node23</title>
<path fill="none" stroke="midnightblue" d="M1984.57,-258.26C1978.73,-240.19 1967.09,-213.75 1946.5,-201 1882.75,-161.5 1347.13,-172.39 1272.5,-165 1257.05,-163.47 1240.33,-161.27 1225.07,-159.04"/>
<polygon fill="midnightblue" stroke="midnightblue" points="1981.25,-259.39 1987.42,-268 1987.97,-257.42 1981.25,-259.39"/>
</g>
<!-- Node24 -->
<g id="node24" class="node">
<title>Node24</title>
<g id="a_node24"><a xlink:href="testOperand_8cpp.html" target="_top" xlink:title=" ">
<polygon fill="white" stroke="black" points="1282,-140 1282,-159 1429,-159 1429,-140 1282,-140"/>
<text text-anchor="middle" x="1355.5" y="-147" font-family="Helvetica,sans-Serif" font-size="10.00">tests/APU/testOperand.cpp</text>
</a>
</g>
</g>
<!-- Node1&#45;&gt;Node24 -->
<g id="edge46" class="edge">
<title>Node1&#45;&gt;Node24</title>
<path fill="none" stroke="midnightblue" d="M1994.39,-258.44C1997.72,-241.1 1999.23,-215.73 1984.5,-201 1941.43,-157.93 1497.97,-172.31 1437.5,-165 1424.87,-163.47 1411.23,-161.28 1398.78,-159.06"/>
<polygon fill="midnightblue" stroke="midnightblue" points="1990.91,-257.96 1992.08,-268.49 1997.73,-259.53 1990.91,-257.96"/>
</g>
<!-- Node25 -->
<g id="node25" class="node">
<title>Node25</title>
<g id="a_node25"><a xlink:href="testADC_8cpp.html" target="_top" xlink:title=" ">
<polygon fill="white" stroke="black" points="1447,-140 1447,-159 1602,-159 1602,-140 1447,-140"/>
<text text-anchor="middle" x="1524.5" y="-147" font-family="Helvetica,sans-Serif" font-size="10.00">tests/CPU/Math/testADC.cpp</text>
</a>
</g>
</g>
<!-- Node1&#45;&gt;Node25 -->
<g id="edge47" class="edge">
<title>Node1&#45;&gt;Node25</title>
<path fill="none" stroke="midnightblue" d="M2005.59,-261.13C2020.57,-244.46 2038.37,-218.32 2022.5,-201 1991.53,-167.2 1656.98,-170.77 1611.5,-165 1598.59,-163.36 1584.66,-161.21 1571.81,-159.07"/>
<polygon fill="midnightblue" stroke="midnightblue" points="2002.97,-258.8 1998.63,-268.47 2008.05,-263.62 2002.97,-258.8"/>
</g>
<!-- Node26 -->
<g id="node26" class="node">
<title>Node26</title>
<g id="a_node26"><a xlink:href="testCMP_8cpp.html" target="_top" xlink:title=" ">
<polygon fill="white" stroke="black" points="1620.5,-140 1620.5,-159 1774.5,-159 1774.5,-140 1620.5,-140"/>
<text text-anchor="middle" x="1697.5" y="-147" font-family="Helvetica,sans-Serif" font-size="10.00">tests/CPU/Math/testCMP.cpp</text>
</a>
</g>
</g>
<!-- Node1&#45;&gt;Node26 -->
<g id="edge48" class="edge">
<title>Node1&#45;&gt;Node26</title>
<path fill="none" stroke="midnightblue" d="M2024.1,-263.92C2038.01,-256.75 2052.61,-246.34 2060.5,-232 2067.14,-219.93 2069.59,-211.35 2060.5,-201 2019.53,-154.36 1844.89,-174.16 1783.5,-165 1771.37,-163.19 1758.31,-161.07 1746.11,-159.03"/>
<polygon fill="midnightblue" stroke="midnightblue" points="2022.21,-260.94 2014.66,-268.38 2025.2,-267.27 2022.21,-260.94"/>
</g>
<!-- Node27 -->
<g id="node27" class="node">
<title>Node27</title>
<g id="a_node27"><a xlink:href="testOthersMath_8cpp.html" target="_top" xlink:title=" ">
<polygon fill="white" stroke="black" points="1792.5,-134.5 1792.5,-164.5 1938.5,-164.5 1938.5,-134.5 1792.5,-134.5"/>
<text text-anchor="start" x="1800.5" y="-152.5" font-family="Helvetica,sans-Serif" font-size="10.00">tests/CPU/Math/testOthers</text>
<text text-anchor="middle" x="1865.5" y="-141.5" font-family="Helvetica,sans-Serif" font-size="10.00">Math.cpp</text>
</a>
</g>
</g>
<!-- Node1&#45;&gt;Node27 -->
<g id="edge49" class="edge">
<title>Node1&#45;&gt;Node27</title>
<path fill="none" stroke="midnightblue" d="M2051.32,-265.34C2069.59,-258.7 2087.59,-248.3 2098.5,-232 2106.16,-220.55 2107.15,-211.72 2098.5,-201 2093.34,-194.61 2004.98,-176.72 1938.59,-164.06"/>
<polygon fill="midnightblue" stroke="midnightblue" points="2050.18,-262.03 2041.78,-268.48 2052.37,-268.68 2050.18,-262.03"/>
</g>
<!-- Node28 -->
<g id="node28" class="node">
<title>Node28</title>
<g id="a_node28"><a xlink:href="testSBC_8cpp.html" target="_top" xlink:title=" ">
<polygon fill="white" stroke="black" points="1957,-140 1957,-159 2110,-159 2110,-140 1957,-140"/>
<text text-anchor="middle" x="2033.5" y="-147" font-family="Helvetica,sans-Serif" font-size="10.00">tests/CPU/Math/testSBC.cpp</text>
</a>
</g>
</g>
<!-- Node1&#45;&gt;Node28 -->
<g id="edge50" class="edge">
<title>Node1&#45;&gt;Node28</title>
<path fill="none" stroke="midnightblue" d="M2051.77,-274.51C2082.48,-269.74 2117.04,-258.31 2136.5,-232 2144.69,-220.92 2143.79,-212.69 2136.5,-201 2122.7,-178.86 2096.05,-166.16 2073.32,-159.03"/>
<polygon fill="midnightblue" stroke="midnightblue" points="2050.97,-271.09 2041.53,-275.88 2051.9,-278.02 2050.97,-271.09"/>
</g>
<!-- Node29 -->
<g id="node29" class="node">
<title>Node29</title>
<g id="a_node29"><a xlink:href="testAddressingMode_8cpp.html" target="_top" xlink:title=" ">
<polygon fill="white" stroke="black" points="2128.5,-134.5 2128.5,-164.5 2268.5,-164.5 2268.5,-134.5 2128.5,-134.5"/>
<text text-anchor="start" x="2136.5" y="-152.5" font-family="Helvetica,sans-Serif" font-size="10.00">tests/CPU/testAddressing</text>
<text text-anchor="middle" x="2198.5" y="-141.5" font-family="Helvetica,sans-Serif" font-size="10.00">Mode.cpp</text>
</a>
</g>
</g>
<!-- Node1&#45;&gt;Node29 -->
<g id="edge51" class="edge">
<title>Node1&#45;&gt;Node29</title>
<path fill="none" stroke="midnightblue" d="M2051.56,-271.65C2084.69,-266.11 2124.49,-254.84 2153.5,-232 2175.72,-214.5 2188.59,-182.84 2194.51,-164.56"/>
<polygon fill="midnightblue" stroke="midnightblue" points="2050.86,-268.22 2041.51,-273.2 2051.92,-275.14 2050.86,-268.22"/>
</g>
<!-- Node30 -->
<g id="node30" class="node">
<title>Node30</title>
<g id="a_node30"><a xlink:href="testBits_8cpp.html" target="_top" xlink:title=" ">
<polygon fill="white" stroke="black" points="2287,-140 2287,-159 2412,-159 2412,-140 2287,-140"/>
<text text-anchor="middle" x="2349.5" y="-147" font-family="Helvetica,sans-Serif" font-size="10.00">tests/CPU/testBits.cpp</text>
</a>
</g>
</g>
<!-- Node1&#45;&gt;Node30 -->
<g id="edge52" class="edge">
<title>Node1&#45;&gt;Node30</title>
<path fill="none" stroke="midnightblue" d="M2048.56,-266.55C2086.79,-258.94 2137.31,-247.29 2180.5,-232 2239.76,-211.01 2305.72,-175.35 2334.6,-159.07"/>
<polygon fill="midnightblue" stroke="midnightblue" points="2047.76,-263.14 2038.62,-268.49 2049.1,-270.01 2047.76,-263.14"/>
</g>
<!-- Node33 -->
<g id="node33" class="node">
<title>Node33</title>
<g id="a_node33"><a xlink:href="testInterupts_8cpp.html" target="_top" xlink:title=" ">
<polygon fill="white" stroke="black" points="3086,-140 3086,-159 3235,-159 3235,-140 3086,-140"/>
<text text-anchor="middle" x="3160.5" y="-147" font-family="Helvetica,sans-Serif" font-size="10.00">tests/CPU/testInterupts.cpp</text>
</a>
</g>
</g>
<!-- Node1&#45;&gt;Node33 -->
<g id="edge53" class="edge">
<title>Node1&#45;&gt;Node33</title>
<path fill="none" stroke="midnightblue" d="M2051.76,-272.08C2218.35,-258.6 2688.08,-218.47 3076.5,-165 3088.82,-163.3 3102.09,-161.16 3114.37,-159.05"/>
<polygon fill="midnightblue" stroke="midnightblue" points="2051.38,-268.6 2041.69,-272.9 2051.94,-275.58 2051.38,-268.6"/>
</g>
<!-- Node34 -->
<g id="node34" class="node">
<title>Node34</title>
<g id="a_node34"><a xlink:href="testStore_8cpp.html" target="_top" xlink:title=" ">
<polygon fill="white" stroke="black" points="3253,-140 3253,-159 3384,-159 3384,-140 3253,-140"/>
<text text-anchor="middle" x="3318.5" y="-147" font-family="Helvetica,sans-Serif" font-size="10.00">tests/CPU/testStore.cpp</text>
</a>
</g>
</g>
<!-- Node1&#45;&gt;Node34 -->
<g id="edge54" class="edge">
<title>Node1&#45;&gt;Node34</title>
<path fill="none" stroke="midnightblue" d="M2051.75,-274.25C2235.18,-265.54 2789.24,-234.91 3243.5,-165 3254.51,-163.31 3266.37,-161.16 3277.34,-159.05"/>
<polygon fill="midnightblue" stroke="midnightblue" points="2051.57,-270.75 2041.75,-274.72 2051.9,-277.74 2051.57,-270.75"/>
</g>
<!-- Node35 -->
<g id="node35" class="node">
<title>Node35</title>
<g id="a_node35"><a xlink:href="testTransfers_8cpp.html" target="_top" xlink:title=" ">
<polygon fill="white" stroke="black" points="3402.5,-140 3402.5,-159 3552.5,-159 3552.5,-140 3402.5,-140"/>
<text text-anchor="middle" x="3477.5" y="-147" font-family="Helvetica,sans-Serif" font-size="10.00">tests/CPU/testTransfers.cpp</text>
</a>
</g>
</g>
<!-- Node1&#45;&gt;Node35 -->
<g id="edge55" class="edge">
<title>Node1&#45;&gt;Node35</title>
<path fill="none" stroke="midnightblue" d="M2052.06,-275.22C2193.82,-270.85 2550.32,-258.03 2847.5,-232 3090.62,-210.71 3151.04,-200.42 3392.5,-165 3404.65,-163.22 3417.73,-161.09 3429.91,-159.02"/>
<polygon fill="midnightblue" stroke="midnightblue" points="2051.71,-271.73 2041.82,-275.53 2051.92,-278.72 2051.71,-271.73"/>
</g>
<!-- Node36 -->
<g id="node36" class="node">
<title>Node36</title>
<g id="a_node36"><a xlink:href="testPpuWrite_8cpp.html" target="_top" xlink:title=" ">
<polygon fill="white" stroke="black" points="3570,-140 3570,-159 3719,-159 3719,-140 3570,-140"/>
<text text-anchor="middle" x="3644.5" y="-147" font-family="Helvetica,sans-Serif" font-size="10.00">tests/PPU/testPpuWrite.cpp</text>
</a>
</g>
</g>
<!-- Node1&#45;&gt;Node36 -->
<g id="edge56" class="edge">
<title>Node1&#45;&gt;Node36</title>
<path fill="none" stroke="midnightblue" d="M2051.86,-275.9C2211.22,-272.72 2646.28,-261.78 3007.5,-232 3254.68,-211.62 3316.15,-201.24 3561.5,-165 3573.37,-163.25 3586.15,-161.13 3598.04,-159.06"/>
<polygon fill="midnightblue" stroke="midnightblue" points="2051.7,-272.4 2041.77,-276.09 2051.84,-279.4 2051.7,-272.4"/>
</g>
<!-- Node37 -->
<g id="node37" class="node">
<title>Node37</title>
<g id="a_node37"><a xlink:href="testPpuWriteFromVmain_8cpp.html" target="_top" xlink:title=" ">
<polygon fill="white" stroke="black" points="3737.5,-134.5 3737.5,-164.5 3891.5,-164.5 3891.5,-134.5 3737.5,-134.5"/>
<text text-anchor="start" x="3745.5" y="-152.5" font-family="Helvetica,sans-Serif" font-size="10.00">tests/PPU/testPpuWriteFrom</text>
<text text-anchor="middle" x="3814.5" y="-141.5" font-family="Helvetica,sans-Serif" font-size="10.00">Vmain.cpp</text>
</a>
</g>
</g>
<!-- Node1&#45;&gt;Node37 -->
<g id="edge57" class="edge">
<title>Node1&#45;&gt;Node37</title>
<path fill="none" stroke="midnightblue" d="M2051.79,-276.42C2227.77,-274.38 2743.58,-265.75 3170.5,-232 3419.06,-212.35 3480.68,-200.39 3727.5,-165 3730.68,-164.54 3733.93,-164.06 3737.21,-163.57"/>
<polygon fill="midnightblue" stroke="midnightblue" points="2051.64,-272.92 2041.68,-276.53 2051.72,-279.92 2051.64,-272.92"/>
</g>
<!-- Node3 -->
<g id="node3" class="node">
<title>Node3</title>
<g id="a_node3"><a xlink:href="APUDebug_8cpp.html" target="_top" xlink:title=" ">
<polygon fill="white" stroke="black" points="0,-140 0,-159 179,-159 179,-140 0,-140"/>
<text text-anchor="middle" x="89.5" y="-147" font-family="Helvetica,sans-Serif" font-size="10.00">sources/Debugger/APUDebug.cpp</text>
</a>
</g>
</g>
<!-- Node2&#45;&gt;Node3 -->
<g id="edge2" class="edge">
<title>Node2&#45;&gt;Node3</title>
<path fill="none" stroke="midnightblue" d="M135.14,-199.13C123.21,-186.42 107.14,-169.3 97.6,-159.13"/>
<polygon fill="midnightblue" stroke="midnightblue" points="132.88,-201.84 142.27,-206.73 137.98,-197.05 132.88,-201.84"/>
</g>
<!-- Node5&#45;&gt;Node6 -->
<g id="edge5" class="edge">
<title>Node5&#45;&gt;Node6</title>
<path fill="none" stroke="midnightblue" d="M589.51,-205.49C523.59,-195.86 422.16,-180.51 334.5,-165 331.57,-164.48 328.58,-163.94 325.57,-163.38"/>
<polygon fill="midnightblue" stroke="midnightblue" points="589.37,-209.01 599.77,-206.99 590.38,-202.08 589.37,-209.01"/>
</g>
<!-- Node5&#45;&gt;Node9 -->
<g id="edge8" class="edge">
<title>Node5&#45;&gt;Node9</title>
<path fill="none" stroke="midnightblue" d="M697.3,-203.23C715.72,-195.27 736.45,-182.96 748.5,-165 778.77,-119.89 772.28,-49.46 768.87,-25.12"/>
<polygon fill="midnightblue" stroke="midnightblue" points="695.91,-200.01 687.94,-207 698.52,-206.51 695.91,-200.01"/>
</g>
<!-- Node10 -->
<g id="node10" class="node">
<title>Node10</title>
<g id="a_node10"><a xlink:href="QtSFML_8hpp.html" target="_top" xlink:title=" ">
<polygon fill="white" stroke="black" points="401.5,-67.5 401.5,-97.5 561.5,-97.5 561.5,-67.5 401.5,-67.5"/>
<text text-anchor="start" x="409.5" y="-85.5" font-family="Helvetica,sans-Serif" font-size="10.00">sources/Renderer/QtRenderer</text>
<text text-anchor="middle" x="481.5" y="-74.5" font-family="Helvetica,sans-Serif" font-size="10.00">/QtSFML.hpp</text>
</a>
</g>
</g>
<!-- Node5&#45;&gt;Node10 -->
<g id="edge9" class="edge">
<title>Node5&#45;&gt;Node10</title>
<path fill="none" stroke="midnightblue" d="M632.32,-202.12C614.18,-192.71 590.14,-179.28 570.5,-165 541.53,-143.93 511.55,-114.64 494.84,-97.52"/>
<polygon fill="midnightblue" stroke="midnightblue" points="631.23,-205.5 641.73,-206.92 634.41,-199.26 631.23,-205.5"/>
</g>
<!-- Node12 -->
<g id="node12" class="node">
<title>Node12</title>
<g id="a_node12"><a xlink:href="QtWidgetSFML_8hpp.html" target="_top" xlink:title=" ">
<polygon fill="white" stroke="black" points="579.5,-134.5 579.5,-164.5 739.5,-164.5 739.5,-134.5 579.5,-134.5"/>
<text text-anchor="start" x="587.5" y="-152.5" font-family="Helvetica,sans-Serif" font-size="10.00">sources/Renderer/QtRenderer</text>
<text text-anchor="middle" x="659.5" y="-141.5" font-family="Helvetica,sans-Serif" font-size="10.00">/QtWidgetSFML.hpp</text>
</a>
</g>
</g>
<!-- Node5&#45;&gt;Node12 -->
<g id="edge12" class="edge">
<title>Node5&#45;&gt;Node12</title>
<path fill="none" stroke="midnightblue" d="M659.5,-196.41C659.5,-186.22 659.5,-173.9 659.5,-164.59"/>
<polygon fill="midnightblue" stroke="midnightblue" points="656,-196.73 659.5,-206.73 663,-196.73 656,-196.73"/>
</g>
<!-- Node14 -->
<g id="node14" class="node">
<title>Node14</title>
<g id="a_node14"><a xlink:href="SFRenderer_8cpp.html" target="_top" xlink:title=" ">
<polygon fill="white" stroke="black" points="343.5,-140 343.5,-159 523.5,-159 523.5,-140 343.5,-140"/>
<text text-anchor="middle" x="433.5" y="-147" font-family="Helvetica,sans-Serif" font-size="10.00">sources/Renderer/SFRenderer.cpp</text>
</a>
</g>
</g>
<!-- Node5&#45;&gt;Node14 -->
<g id="edge15" class="edge">
<title>Node5&#45;&gt;Node14</title>
<path fill="none" stroke="midnightblue" d="M619.83,-204.09C575.12,-191.23 503.45,-170.62 463.28,-159.06"/>
<polygon fill="midnightblue" stroke="midnightblue" points="618.91,-207.47 629.49,-206.87 620.85,-200.74 618.91,-207.47"/>
</g>
<!-- Node7 -->
<g id="node7" class="node">
<title>Node7</title>
<g id="a_node7"><a xlink:href="CPUDebug_8cpp.html" target="_top" xlink:title=" ">
<polygon fill="white" stroke="black" points="80.5,-67.5 80.5,-97.5 208.5,-97.5 208.5,-67.5 80.5,-67.5"/>
<text text-anchor="start" x="88.5" y="-85.5" font-family="Helvetica,sans-Serif" font-size="10.00">sources/Debugger/CPU</text>
<text text-anchor="middle" x="144.5" y="-74.5" font-family="Helvetica,sans-Serif" font-size="10.00">/CPUDebug.cpp</text>
</a>
</g>
</g>
<!-- Node6&#45;&gt;Node7 -->
<g id="edge6" class="edge">
<title>Node6&#45;&gt;Node7</title>
<path fill="none" stroke="midnightblue" d="M227.18,-129.44C208.83,-119.24 186.62,-106.9 169.84,-97.58"/>
<polygon fill="midnightblue" stroke="midnightblue" points="225.67,-132.6 236.11,-134.4 229.07,-126.48 225.67,-132.6"/>
</g>
<!-- Node8 -->
<g id="node8" class="node">
<title>Node8</title>
<g id="a_node8"><a xlink:href="Disassembly_8cpp.html" target="_top" xlink:title=" ">
<polygon fill="white" stroke="black" points="226.5,-67.5 226.5,-97.5 354.5,-97.5 354.5,-67.5 226.5,-67.5"/>
<text text-anchor="start" x="234.5" y="-85.5" font-family="Helvetica,sans-Serif" font-size="10.00">sources/Debugger/CPU</text>
<text text-anchor="middle" x="290.5" y="-74.5" font-family="Helvetica,sans-Serif" font-size="10.00">/Disassembly.cpp</text>
</a>
</g>
</g>
<!-- Node6&#45;&gt;Node8 -->
<g id="edge7" class="edge">
<title>Node6&#45;&gt;Node8</title>
<path fill="none" stroke="midnightblue" d="M271.99,-124.99C276.09,-115.8 280.65,-105.58 284.22,-97.58"/>
<polygon fill="midnightblue" stroke="midnightblue" points="268.67,-123.84 267.79,-134.4 275.06,-126.69 268.67,-123.84"/>
</g>
<!-- Node10&#45;&gt;Node9 -->
<g id="edge10" class="edge">
<title>Node10&#45;&gt;Node9</title>
<path fill="none" stroke="midnightblue" d="M553.1,-65.23C609.25,-52.47 685.17,-35.21 729.97,-25.03"/>
<polygon fill="midnightblue" stroke="midnightblue" points="552.18,-61.85 543.21,-67.48 553.73,-68.67 552.18,-61.85"/>
</g>
<!-- Node11 -->
<g id="node11" class="node">
<title>Node11</title>
<g id="a_node11"><a xlink:href="QtSFML_8cpp.html" target="_top" xlink:title=" ">
<polygon fill="white" stroke="black" points="401.5,-0.5 401.5,-30.5 561.5,-30.5 561.5,-0.5 401.5,-0.5"/>
<text text-anchor="start" x="409.5" y="-18.5" font-family="Helvetica,sans-Serif" font-size="10.00">sources/Renderer/QtRenderer</text>
<text text-anchor="middle" x="481.5" y="-7.5" font-family="Helvetica,sans-Serif" font-size="10.00">/QtSFML.cpp</text>
</a>
</g>
</g>
<!-- Node10&#45;&gt;Node11 -->
<g id="edge11" class="edge">
<title>Node10&#45;&gt;Node11</title>
<path fill="none" stroke="midnightblue" d="M481.5,-57.11C481.5,-48.15 481.5,-38.32 481.5,-30.58"/>
<polygon fill="midnightblue" stroke="midnightblue" points="478,-57.4 481.5,-67.4 485,-57.4 478,-57.4"/>
</g>
<!-- Node12&#45;&gt;Node10 -->
<g id="edge13" class="edge">
<title>Node12&#45;&gt;Node10</title>
<path fill="none" stroke="midnightblue" d="M611.45,-130.96C582.78,-120.48 546.86,-107.37 520.05,-97.58"/>
<polygon fill="midnightblue" stroke="midnightblue" points="610.28,-134.25 620.88,-134.4 612.68,-127.68 610.28,-134.25"/>
</g>
<!-- Node13 -->
<g id="node13" class="node">
<title>Node13</title>
<g id="a_node13"><a xlink:href="QtWidgetSFML_8cpp.html" target="_top" xlink:title=" ">
<polygon fill="white" stroke="black" points="579.5,-67.5 579.5,-97.5 739.5,-97.5 739.5,-67.5 579.5,-67.5"/>
<text text-anchor="start" x="587.5" y="-85.5" font-family="Helvetica,sans-Serif" font-size="10.00">sources/Renderer/QtRenderer</text>
<text text-anchor="middle" x="659.5" y="-74.5" font-family="Helvetica,sans-Serif" font-size="10.00">/QtWidgetSFML.cpp</text>
</a>
</g>
</g>
<!-- Node12&#45;&gt;Node13 -->
<g id="edge14" class="edge">
<title>Node12&#45;&gt;Node13</title>
<path fill="none" stroke="midnightblue" d="M659.5,-124.11C659.5,-115.15 659.5,-105.32 659.5,-97.58"/>
<polygon fill="midnightblue" stroke="midnightblue" points="656,-124.4 659.5,-134.4 663,-124.4 656,-124.4"/>
</g>
<!-- Node21&#45;&gt;Node21 -->
<g id="edge26" class="edge">
<title>Node21&#45;&gt;Node21</title>
<path fill="none" stroke="midnightblue" d="M2382.49,-227.49C2398.19,-228.8 2412,-225.14 2412,-216.5 2412,-206.07 2391.86,-202.89 2372.58,-206.97"/>
<polygon fill="midnightblue" stroke="midnightblue" points="2382.98,-224.03 2372.58,-226.03 2381.96,-230.95 2382.98,-224.03"/>
</g>
<!-- Node21&#45;&gt;Node22 -->
<g id="edge25" class="edge">
<title>Node21&#45;&gt;Node22</title>
<path fill="none" stroke="midnightblue" d="M2294.59,-213.45C2053.86,-204.44 1102.3,-168.69 1071.5,-165 1059.85,-163.61 1047.28,-161.34 1035.95,-159.01"/>
<polygon fill="midnightblue" stroke="midnightblue" points="2294.73,-216.96 2304.85,-213.83 2294.99,-209.96 2294.73,-216.96"/>
</g>
<!-- Node21&#45;&gt;Node23 -->
<g id="edge27" class="edge">
<title>Node21&#45;&gt;Node23</title>
<path fill="none" stroke="midnightblue" d="M2294.74,-213.25C2089.8,-204.76 1374.49,-174.76 1272.5,-165 1256.87,-163.5 1239.95,-161.28 1224.54,-159.02"/>
<polygon fill="midnightblue" stroke="midnightblue" points="2294.83,-216.75 2304.97,-213.67 2295.12,-209.76 2294.83,-216.75"/>
</g>
<!-- Node21&#45;&gt;Node24 -->
<g id="edge28" class="edge">
<title>Node21&#45;&gt;Node24</title>
<path fill="none" stroke="midnightblue" d="M2294.47,-212.84C2110.3,-203.88 1522.34,-174.81 1437.5,-165 1424.72,-163.52 1410.91,-161.32 1398.34,-159.07"/>
<polygon fill="midnightblue" stroke="midnightblue" points="2294.57,-216.35 2304.73,-213.34 2294.91,-209.36 2294.57,-216.35"/>
</g>
<!-- Node21&#45;&gt;Node25 -->
<g id="edge29" class="edge">
<title>Node21&#45;&gt;Node25</title>
<path fill="none" stroke="midnightblue" d="M2294.36,-212.42C2146.57,-204.06 1743.85,-180.52 1611.5,-165 1598.12,-163.43 1583.65,-161.23 1570.44,-159.01"/>
<polygon fill="midnightblue" stroke="midnightblue" points="2294.37,-215.93 2304.55,-213 2294.77,-208.94 2294.37,-215.93"/>
</g>
<!-- Node21&#45;&gt;Node26 -->
<g id="edge30" class="edge">
<title>Node21&#45;&gt;Node26</title>
<path fill="none" stroke="midnightblue" d="M2294.69,-212.04C2193.45,-205.33 1970.38,-189.05 1783.5,-165 1770.74,-163.36 1756.97,-161.21 1744.27,-159.07"/>
<polygon fill="midnightblue" stroke="midnightblue" points="2294.77,-215.55 2304.98,-212.71 2295.23,-208.57 2294.77,-215.55"/>
</g>
<!-- Node21&#45;&gt;Node27 -->
<g id="edge31" class="edge">
<title>Node21&#45;&gt;Node27</title>
<path fill="none" stroke="midnightblue" d="M2294.77,-209.5C2217.3,-200.82 2071.31,-183.71 1947.5,-165 1944.64,-164.57 1941.73,-164.11 1938.79,-163.65"/>
<polygon fill="midnightblue" stroke="midnightblue" points="2294.46,-212.99 2304.78,-210.62 2295.23,-206.03 2294.46,-212.99"/>
</g>
<!-- Node21&#45;&gt;Node28 -->
<g id="edge32" class="edge">
<title>Node21&#45;&gt;Node28</title>
<path fill="none" stroke="midnightblue" d="M2297.87,-204.88C2235.63,-192.08 2132.28,-170.82 2074.98,-159.03"/>
<polygon fill="midnightblue" stroke="midnightblue" points="2297.36,-208.35 2307.86,-206.94 2298.77,-201.49 2297.36,-208.35"/>
</g>
<!-- Node21&#45;&gt;Node29 -->
<g id="edge33" class="edge">
<title>Node21&#45;&gt;Node29</title>
<path fill="none" stroke="midnightblue" d="M2320.26,-202.91C2294.69,-191.91 2257.6,-175.94 2231.09,-164.53"/>
<polygon fill="midnightblue" stroke="midnightblue" points="2318.88,-206.13 2329.45,-206.87 2321.65,-199.7 2318.88,-206.13"/>
</g>
<!-- Node21&#45;&gt;Node30 -->
<g id="edge34" class="edge">
<title>Node21&#45;&gt;Node30</title>
<path fill="none" stroke="midnightblue" d="M2349.5,-196.54C2349.5,-184.17 2349.5,-168.62 2349.5,-159.13"/>
<polygon fill="midnightblue" stroke="midnightblue" points="2346,-196.73 2349.5,-206.73 2353,-196.73 2346,-196.73"/>
</g>
<!-- Node31 -->
<g id="node31" class="node">
<title>Node31</title>
<g id="a_node31"><a xlink:href="testDMA_8cpp.html" target="_top" xlink:title=" ">
<polygon fill="white" stroke="black" points="2619,-140 2619,-159 2748,-159 2748,-140 2619,-140"/>
<text text-anchor="middle" x="2683.5" y="-147" font-family="Helvetica,sans-Serif" font-size="10.00">tests/CPU/testDMA.cpp</text>
</a>
</g>
</g>
<!-- Node21&#45;&gt;Node31 -->
<g id="edge35" class="edge">
<title>Node21&#45;&gt;Node31</title>
<path fill="none" stroke="midnightblue" d="M2403.78,-204.98C2456.39,-194.79 2538.42,-178.87 2609.5,-165 2619.39,-163.07 2630.03,-160.99 2640.07,-159.02"/>
<polygon fill="midnightblue" stroke="midnightblue" points="2402.82,-201.61 2393.67,-206.94 2404.15,-208.48 2402.82,-201.61"/>
</g>
<!-- Node32 -->
<g id="node32" class="node">
<title>Node32</title>
<g id="a_node32"><a xlink:href="testInternal_8cpp.html" target="_top" xlink:title=" ">
<polygon fill="white" stroke="black" points="2766,-140 2766,-159 2909,-159 2909,-140 2766,-140"/>
<text text-anchor="middle" x="2837.5" y="-147" font-family="Helvetica,sans-Serif" font-size="10.00">tests/CPU/testInternal.cpp</text>
</a>
</g>
</g>
<!-- Node21&#45;&gt;Node32 -->
<g id="edge36" class="edge">
<title>Node21&#45;&gt;Node32</title>
<path fill="none" stroke="midnightblue" d="M2404.29,-209.65C2482.56,-201.07 2630.85,-184.03 2756.5,-165 2768.08,-163.25 2780.56,-161.13 2792.16,-159.06"/>
<polygon fill="midnightblue" stroke="midnightblue" points="2403.74,-206.19 2394.17,-210.75 2404.49,-213.15 2403.74,-206.19"/>
</g>
<!-- Node21&#45;&gt;Node33 -->
<g id="edge37" class="edge">
<title>Node21&#45;&gt;Node33</title>
<path fill="none" stroke="midnightblue" d="M2404.49,-213.59C2526.04,-208.95 2826.6,-195.17 3076.5,-165 3089.43,-163.44 3103.4,-161.24 3116.16,-159.02"/>
<polygon fill="midnightblue" stroke="midnightblue" points="2404.18,-210.1 2394.32,-213.97 2404.45,-217.09 2404.18,-210.1"/>
</g>
<!-- Node21&#45;&gt;Node34 -->
<g id="edge38" class="edge">
<title>Node21&#45;&gt;Node34</title>
<path fill="none" stroke="midnightblue" d="M2404.41,-214.96C2544.69,-213.04 2927.45,-204.3 3243.5,-165 3255.34,-163.53 3268.13,-161.3 3279.73,-159.03"/>
<polygon fill="midnightblue" stroke="midnightblue" points="2404.3,-211.47 2394.34,-215.1 2404.39,-218.46 2404.3,-211.47"/>
</g>
<!-- Node21&#45;&gt;Node35 -->
<g id="edge39" class="edge">
<title>Node21&#45;&gt;Node35</title>
<path fill="none" stroke="midnightblue" d="M2404.36,-215.17C2559.77,-213.74 3016.15,-206.06 3392.5,-165 3405.89,-163.54 3420.38,-161.31 3433.53,-159.04"/>
<polygon fill="midnightblue" stroke="midnightblue" points="2404.1,-211.67 2394.13,-215.26 2404.16,-218.67 2404.1,-211.67"/>
</g>
<!-- Node21&#45;&gt;Node36 -->
<g id="edge40" class="edge">
<title>Node21&#45;&gt;Node36</title>
<path fill="none" stroke="midnightblue" d="M2404.27,-215.77C2575.64,-216.08 3116.74,-212.91 3561.5,-165 3574.73,-163.57 3589.05,-161.33 3602,-159.03"/>
<polygon fill="midnightblue" stroke="midnightblue" points="2404.24,-212.27 2394.23,-215.75 2404.22,-219.27 2404.24,-212.27"/>
</g>
<!-- Node21&#45;&gt;Node37 -->
<g id="edge41" class="edge">
<title>Node21&#45;&gt;Node37</title>
<path fill="none" stroke="midnightblue" d="M2404.34,-216.01C2590.46,-217.23 3214.98,-216.88 3727.5,-165 3730.7,-164.68 3733.96,-164.31 3737.25,-163.9"/>
<polygon fill="midnightblue" stroke="midnightblue" points="2404.28,-212.51 2394.26,-215.95 2404.23,-219.51 2404.28,-212.51"/>
</g>
<!-- Node38 -->
<g id="node38" class="node">
<title>Node38</title>
<g id="a_node38"><a xlink:href="testMemoryBus_8cpp.html" target="_top" xlink:title=" ">
<polygon fill="white" stroke="black" points="2927,-140 2927,-159 3068,-159 3068,-140 2927,-140"/>
<text text-anchor="middle" x="2997.5" y="-147" font-family="Helvetica,sans-Serif" font-size="10.00">tests/testMemoryBus.cpp</text>
</a>
</g>
</g>
<!-- Node21&#45;&gt;Node38 -->
<g id="edge42" class="edge">
<title>Node21&#45;&gt;Node38</title>
<path fill="none" stroke="midnightblue" d="M2404.22,-212.29C2505.73,-205.97 2729.92,-190.28 2917.5,-165 2929.53,-163.38 2942.51,-161.21 2954.43,-159.04"/>
<polygon fill="midnightblue" stroke="midnightblue" points="2403.97,-208.8 2394.2,-212.91 2404.4,-215.79 2403.97,-208.8"/>
</g>
<!-- Node39 -->
<g id="node39" class="node">
<title>Node39</title>
<g id="a_node39"><a xlink:href="testRectangleMemory_8cpp.html" target="_top" xlink:title=" ">
<polygon fill="white" stroke="black" points="2430.5,-140 2430.5,-159 2600.5,-159 2600.5,-140 2430.5,-140"/>
<text text-anchor="middle" x="2515.5" y="-147" font-family="Helvetica,sans-Serif" font-size="10.00">tests/testRectangleMemory.cpp</text>
</a>
</g>
</g>
<!-- Node21&#45;&gt;Node39 -->
<g id="edge43" class="edge">
<title>Node21&#45;&gt;Node39</title>
<path fill="none" stroke="midnightblue" d="M2381.16,-203.1C2414.12,-190.2 2464.86,-170.33 2493.63,-159.06"/>
<polygon fill="midnightblue" stroke="midnightblue" points="2379.58,-199.96 2371.54,-206.87 2382.13,-206.48 2379.58,-199.96"/>
</g>
</g>
</svg>
