<?xml version="1.0" encoding="UTF-8" standalone="no"?>
<!DOCTYPE svg PUBLIC "-//W3C//DTD SVG 1.1//EN"
 "http://www.w3.org/Graphics/SVG/1.1/DTD/svg11.dtd">
<!-- Generated by graphviz version 2.43.0 (0)
 -->
<!-- Title: sources/SNES.hpp Pages: 1 -->
<svg width="1497pt" height="364pt"
 viewBox="0.00 0.00 1496.50 364.00" xmlns="http://www.w3.org/2000/svg" xmlns:xlink="http://www.w3.org/1999/xlink">
<g id="graph0" class="graph" transform="scale(1 1) rotate(0) translate(4 360)">
<title>sources/SNES.hpp</title>
<polygon fill="white" stroke="transparent" points="-4,4 -4,-360 1492.5,-360 1492.5,4 -4,4"/>
<!-- Node1 -->
<g id="node1" class="node">
<title>Node1</title>
<g id="a_node1"><a xlink:title=" ">
<polygon fill="#bfbfbf" stroke="black" points="796,-336.5 796,-355.5 900,-355.5 900,-336.5 796,-336.5"/>
<text text-anchor="middle" x="848" y="-343.5" font-family="Helvetica,sans-Serif" font-size="10.00">sources/SNES.hpp</text>
</a>
</g>
</g>
<!-- Node2 -->
<g id="node2" class="node">
<title>Node2</title>
<g id="a_node2"><a xlink:href="MemoryBus_8hpp.html" target="_top" xlink:title=" ">
<polygon fill="white" stroke="black" points="1074,-168.5 1074,-187.5 1214,-187.5 1214,-168.5 1074,-168.5"/>
<text text-anchor="middle" x="1144" y="-175.5" font-family="Helvetica,sans-Serif" font-size="10.00">Memory/MemoryBus.hpp</text>
</a>
</g>
</g>
<!-- Node1&#45;&gt;Node2 -->
<g id="edge1" class="edge">
<title>Node1&#45;&gt;Node2</title>
<path fill="none" stroke="midnightblue" d="M872.15,-336.35C894.41,-328.04 928.12,-314.63 956,-300 1019.77,-266.53 1089.87,-218.01 1123.61,-193.84"/>
<polygon fill="midnightblue" stroke="midnightblue" points="1126.07,-196.39 1132.13,-187.7 1121.97,-190.71 1126.07,-196.39"/>
</g>
<!-- Node11 -->
<g id="node11" class="node">
<title>Node11</title>
<g id="a_node11"><a xlink:href="CPU_8hpp.html" target="_top" xlink:title=" ">
<polygon fill="white" stroke="black" points="435.5,-280.5 435.5,-299.5 516.5,-299.5 516.5,-280.5 435.5,-280.5"/>
<text text-anchor="middle" x="476" y="-287.5" font-family="Helvetica,sans-Serif" font-size="10.00">CPU/CPU.hpp</text>
</a>
</g>
</g>
<!-- Node1&#45;&gt;Node11 -->
<g id="edge19" class="edge">
<title>Node1&#45;&gt;Node11</title>
<path fill="none" stroke="midnightblue" d="M795.88,-337.43C724.51,-327.07 597.18,-308.59 526.61,-298.35"/>
<polygon fill="midnightblue" stroke="midnightblue" points="527.02,-294.87 516.62,-296.9 526.01,-301.8 527.02,-294.87"/>
</g>
<!-- Node12 -->
<g id="node12" class="node">
<title>Node12</title>
<g id="a_node12"><a xlink:href="Cartridge_8hpp.html" target="_top" xlink:title=" ">
<polygon fill="white" stroke="black" points="226,-224.5 226,-243.5 366,-243.5 366,-224.5 226,-224.5"/>
<text text-anchor="middle" x="296" y="-231.5" font-family="Helvetica,sans-Serif" font-size="10.00">../Cartridge/Cartridge.hpp</text>
</a>
</g>
</g>
<!-- Node1&#45;&gt;Node12 -->
<g id="edge41" class="edge">
<title>Node1&#45;&gt;Node12</title>
<path fill="none" stroke="midnightblue" d="M795.64,-343.15C691.76,-338.95 463.32,-326.89 390,-300 359.9,-288.96 330.36,-265.97 312.65,-250.5"/>
<polygon fill="midnightblue" stroke="midnightblue" points="314.74,-247.68 304.96,-243.6 310.07,-252.89 314.74,-247.68"/>
</g>
<!-- Node15 -->
<g id="node15" class="node">
<title>Node15</title>
<g id="a_node15"><a xlink:href="Ram_8hpp.html" target="_top" xlink:title=" ">
<polygon fill="white" stroke="black" points="352.5,-168.5 352.5,-187.5 447.5,-187.5 447.5,-168.5 352.5,-168.5"/>
<text text-anchor="middle" x="400" y="-175.5" font-family="Helvetica,sans-Serif" font-size="10.00">../Ram/Ram.hpp</text>
</a>
</g>
</g>
<!-- Node1&#45;&gt;Node15 -->
<g id="edge42" class="edge">
<title>Node1&#45;&gt;Node15</title>
<path fill="none" stroke="midnightblue" d="M795.79,-342.82C688.93,-337.87 453.01,-324.3 426,-300 397.21,-274.1 396.07,-224.68 397.92,-197.71"/>
<polygon fill="midnightblue" stroke="midnightblue" points="401.41,-197.93 398.82,-187.66 394.44,-197.3 401.41,-197.93"/>
</g>
<!-- Node18 -->
<g id="node18" class="node">
<title>Node18</title>
<g id="a_node18"><a xlink:href="PPU_8hpp.html" target="_top" xlink:title=" ">
<polygon fill="white" stroke="black" points="946,-224.5 946,-243.5 1026,-243.5 1026,-224.5 946,-224.5"/>
<text text-anchor="middle" x="986" y="-231.5" font-family="Helvetica,sans-Serif" font-size="10.00">PPU/PPU.hpp</text>
</a>
</g>
</g>
<!-- Node1&#45;&gt;Node18 -->
<g id="edge43" class="edge">
<title>Node1&#45;&gt;Node18</title>
<path fill="none" stroke="midnightblue" d="M869.04,-336.47C886.9,-328.62 912.65,-315.8 932,-300 948.97,-286.15 964.51,-266.35 974.52,-252.24"/>
<polygon fill="midnightblue" stroke="midnightblue" points="977.46,-254.14 980.26,-243.92 971.7,-250.17 977.46,-254.14"/>
</g>
<!-- Node19 -->
<g id="node19" class="node">
<title>Node19</title>
<g id="a_node19"><a xlink:href="IRenderer_8hpp.html" target="_top" xlink:title=" ">
<polygon fill="white" stroke="black" points="916,-168.5 916,-187.5 1056,-187.5 1056,-168.5 916,-168.5"/>
<text text-anchor="middle" x="986" y="-175.5" font-family="Helvetica,sans-Serif" font-size="10.00">../Renderer/IRenderer.hpp</text>
</a>
</g>
</g>
<!-- Node1&#45;&gt;Node19 -->
<g id="edge65" class="edge">
<title>Node1&#45;&gt;Node19</title>
<path fill="none" stroke="midnightblue" d="M853.51,-336.35C866.75,-315.88 901.83,-263.22 937,-224 946.42,-213.49 958.02,-202.76 967.56,-194.42"/>
<polygon fill="midnightblue" stroke="midnightblue" points="970,-196.93 975.31,-187.76 965.44,-191.62 970,-196.93"/>
</g>
<!-- Node24 -->
<g id="node24" class="node">
<title>Node24</title>
<g id="a_node24"><a xlink:href="APU_8hpp.html" target="_top" xlink:title=" ">
<polygon fill="white" stroke="black" points="599.5,-224.5 599.5,-243.5 680.5,-243.5 680.5,-224.5 599.5,-224.5"/>
<text text-anchor="middle" x="640" y="-231.5" font-family="Helvetica,sans-Serif" font-size="10.00">APU/APU.hpp</text>
</a>
</g>
</g>
<!-- Node1&#45;&gt;Node24 -->
<g id="edge54" class="edge">
<title>Node1&#45;&gt;Node24</title>
<path fill="none" stroke="midnightblue" d="M831.68,-336.37C795.53,-317.25 708.51,-271.23 665.26,-248.36"/>
<polygon fill="midnightblue" stroke="midnightblue" points="666.72,-245.17 656.25,-243.59 663.45,-251.36 666.72,-245.17"/>
</g>
<!-- Node28 -->
<g id="node28" class="node">
<title>Node28</title>
<g id="a_node28"><a xlink:href="DebuggableError_8hpp.html" target="_top" xlink:title=" ">
<polygon fill="white" stroke="black" points="1082.5,-280.5 1082.5,-299.5 1257.5,-299.5 1257.5,-280.5 1082.5,-280.5"/>
<text text-anchor="middle" x="1170" y="-287.5" font-family="Helvetica,sans-Serif" font-size="10.00">Exceptions/DebuggableError.hpp</text>
</a>
</g>
</g>
<!-- Node1&#45;&gt;Node28 -->
<g id="edge66" class="edge">
<title>Node1&#45;&gt;Node28</title>
<path fill="none" stroke="midnightblue" d="M899.02,-336.44C956.02,-326.89 1048.24,-311.42 1109,-301.23"/>
<polygon fill="midnightblue" stroke="midnightblue" points="1109.93,-304.62 1119.22,-299.52 1108.78,-297.72 1109.93,-304.62"/>
</g>
<!-- Node3 -->
<g id="node3" class="node">
<title>Node3</title>
<g id="a_node3"><a xlink:title=" ">
<polygon fill="white" stroke="#bfbfbf" points="920,-0.5 920,-19.5 970,-19.5 970,-0.5 920,-0.5"/>
<text text-anchor="middle" x="945" y="-7.5" font-family="Helvetica,sans-Serif" font-size="10.00">cstdint</text>
</a>
</g>
</g>
<!-- Node2&#45;&gt;Node3 -->
<g id="edge2" class="edge">
<title>Node2&#45;&gt;Node3</title>
<path fill="none" stroke="midnightblue" d="M1139.99,-168.4C1129.42,-146.63 1098.75,-88.72 1057,-56 1034.3,-38.21 1003.64,-26.54 980.13,-19.55"/>
<polygon fill="midnightblue" stroke="midnightblue" points="980.79,-16.1 970.22,-16.76 978.89,-22.84 980.79,-16.1"/>
</g>
<!-- Node4 -->
<g id="node4" class="node">
<title>Node4</title>
<g id="a_node4"><a xlink:title=" ">
<polygon fill="white" stroke="#bfbfbf" points="683.5,-0.5 683.5,-19.5 730.5,-19.5 730.5,-0.5 683.5,-0.5"/>
<text text-anchor="middle" x="707" y="-7.5" font-family="Helvetica,sans-Serif" font-size="10.00">vector</text>
</a>
</g>
</g>
<!-- Node2&#45;&gt;Node4 -->
<g id="edge3" class="edge">
<title>Node2&#45;&gt;Node4</title>
<path fill="none" stroke="midnightblue" d="M1118.89,-168.47C1093.01,-159.61 1051.55,-145.21 1016,-132 993.18,-123.52 987.67,-120.88 965,-112 883.26,-79.97 786.93,-42.27 738.36,-23.27"/>
<polygon fill="midnightblue" stroke="midnightblue" points="739.34,-19.89 728.75,-19.51 736.78,-26.41 739.34,-19.89"/>
</g>
<!-- Node5 -->
<g id="node5" class="node">
<title>Node5</title>
<g id="a_node5"><a xlink:title=" ">
<polygon fill="white" stroke="#bfbfbf" points="783,-0.5 783,-19.5 841,-19.5 841,-0.5 783,-0.5"/>
<text text-anchor="middle" x="812" y="-7.5" font-family="Helvetica,sans-Serif" font-size="10.00">memory</text>
</a>
</g>
</g>
<!-- Node2&#45;&gt;Node5 -->
<g id="edge4" class="edge">
<title>Node2&#45;&gt;Node5</title>
<path fill="none" stroke="midnightblue" d="M1126.62,-168.31C1072.05,-141.02 903.89,-56.95 838.45,-24.22"/>
<polygon fill="midnightblue" stroke="midnightblue" points="839.72,-20.95 829.21,-19.61 836.59,-27.21 839.72,-20.95"/>
</g>
<!-- Node6 -->
<g id="node6" class="node">
<title>Node6</title>
<g id="a_node6"><a xlink:href="AMemory_8hpp.html" target="_top" xlink:title=" ">
<polygon fill="white" stroke="black" points="557.5,-112.5 557.5,-131.5 640.5,-131.5 640.5,-112.5 557.5,-112.5"/>
<text text-anchor="middle" x="599" y="-119.5" font-family="Helvetica,sans-Serif" font-size="10.00">AMemory.hpp</text>
</a>
</g>
</g>
<!-- Node2&#45;&gt;Node6 -->
<g id="edge5" class="edge">
<title>Node2&#45;&gt;Node6</title>
<path fill="none" stroke="midnightblue" d="M1073.8,-168.94C1070.82,-168.62 1067.88,-168.3 1065,-168 985.87,-159.67 755.23,-137.76 651.1,-127.92"/>
<polygon fill="midnightblue" stroke="midnightblue" points="651.11,-124.4 640.83,-126.95 650.45,-131.37 651.11,-124.4"/>
</g>
<!-- Node6&#45;&gt;Node3 -->
<g id="edge6" class="edge">
<title>Node6&#45;&gt;Node3</title>
<path fill="none" stroke="midnightblue" d="M625.86,-112.46C687.91,-92.73 841.15,-44.01 910.24,-22.05"/>
<polygon fill="midnightblue" stroke="midnightblue" points="911.33,-25.38 919.8,-19.01 909.21,-18.71 911.33,-25.38"/>
</g>
<!-- Node6&#45;&gt;Node4 -->
<g id="edge7" class="edge">
<title>Node6&#45;&gt;Node4</title>
<path fill="none" stroke="midnightblue" d="M612.21,-112.21C624.5,-103.72 642.97,-90.09 657,-76 671.86,-61.08 686.23,-41.71 695.73,-28.01"/>
<polygon fill="midnightblue" stroke="midnightblue" points="698.75,-29.79 701.47,-19.55 692.95,-25.86 698.75,-29.79"/>
</g>
<!-- Node6&#45;&gt;Node5 -->
<g id="edge8" class="edge">
<title>Node6&#45;&gt;Node5</title>
<path fill="none" stroke="midnightblue" d="M615.71,-112.37C652.81,-93.21 742.22,-47.04 786.41,-24.22"/>
<polygon fill="midnightblue" stroke="midnightblue" points="788.08,-27.29 795.36,-19.59 784.87,-21.07 788.08,-27.29"/>
</g>
<!-- Node7 -->
<g id="node7" class="node">
<title>Node7</title>
<g id="a_node7"><a xlink:title=" ">
<polygon fill="white" stroke="#bfbfbf" points="422,-0.5 422,-19.5 466,-19.5 466,-0.5 422,-0.5"/>
<text text-anchor="middle" x="444" y="-7.5" font-family="Helvetica,sans-Serif" font-size="10.00">string</text>
</a>
</g>
</g>
<!-- Node6&#45;&gt;Node7 -->
<g id="edge9" class="edge">
<title>Node6&#45;&gt;Node7</title>
<path fill="none" stroke="midnightblue" d="M577.45,-112.36C558.74,-104.34 531.37,-91.35 510,-76 490.31,-61.86 470.93,-41.84 458.32,-27.76"/>
<polygon fill="midnightblue" stroke="midnightblue" points="460.62,-25.08 451.4,-19.87 455.36,-29.7 460.62,-25.08"/>
</g>
<!-- Node8 -->
<g id="node8" class="node">
<title>Node8</title>
<g id="a_node8"><a xlink:href="Int24_8hpp.html" target="_top" xlink:title=" ">
<polygon fill="white" stroke="black" points="207,-0.5 207,-19.5 317,-19.5 317,-0.5 207,-0.5"/>
<text text-anchor="middle" x="262" y="-7.5" font-family="Helvetica,sans-Serif" font-size="10.00">../Models/Int24.hpp</text>
</a>
</g>
</g>
<!-- Node6&#45;&gt;Node8 -->
<g id="edge10" class="edge">
<title>Node6&#45;&gt;Node8</title>
<path fill="none" stroke="midnightblue" d="M572.84,-112.46C513.12,-92.97 366.65,-45.16 298.27,-22.84"/>
<polygon fill="midnightblue" stroke="midnightblue" points="298.97,-19.39 288.38,-19.61 296.8,-26.04 298.97,-19.39"/>
</g>
<!-- Node9 -->
<g id="node9" class="node">
<title>Node9</title>
<g id="a_node9"><a xlink:href="Components_8hpp.html" target="_top" xlink:title=" ">
<polygon fill="white" stroke="black" points="519,-0.5 519,-19.5 665,-19.5 665,-0.5 519,-0.5"/>
<text text-anchor="middle" x="592" y="-7.5" font-family="Helvetica,sans-Serif" font-size="10.00">../Models/Components.hpp</text>
</a>
</g>
</g>
<!-- Node6&#45;&gt;Node9 -->
<g id="edge11" class="edge">
<title>Node6&#45;&gt;Node9</title>
<path fill="none" stroke="midnightblue" d="M611.26,-112.47C626.83,-100.51 650.57,-77.77 641,-56 635.61,-43.73 625.04,-33.34 615.1,-25.65"/>
<polygon fill="midnightblue" stroke="midnightblue" points="616.83,-22.58 606.66,-19.6 612.75,-28.27 616.83,-22.58"/>
</g>
<!-- Node10 -->
<g id="node10" class="node">
<title>Node10</title>
<g id="a_node10"><a xlink:href="IMemory_8hpp.html" target="_top" xlink:title=" ">
<polygon fill="white" stroke="black" points="552,-56.5 552,-75.5 632,-75.5 632,-56.5 552,-56.5"/>
<text text-anchor="middle" x="592" y="-63.5" font-family="Helvetica,sans-Serif" font-size="10.00">IMemory.hpp</text>
</a>
</g>
</g>
<!-- Node6&#45;&gt;Node10 -->
<g id="edge12" class="edge">
<title>Node6&#45;&gt;Node10</title>
<path fill="none" stroke="midnightblue" d="M597.84,-112.08C596.92,-104.93 595.58,-94.64 594.42,-85.69"/>
<polygon fill="midnightblue" stroke="midnightblue" points="597.89,-85.22 593.13,-75.75 590.95,-86.12 597.89,-85.22"/>
</g>
<!-- Node10&#45;&gt;Node3 -->
<g id="edge13" class="edge">
<title>Node10&#45;&gt;Node3</title>
<path fill="none" stroke="midnightblue" d="M632.15,-58.86C701.79,-48.2 843.84,-26.47 909.84,-16.38"/>
<polygon fill="midnightblue" stroke="midnightblue" points="910.4,-19.83 919.76,-14.86 909.34,-12.91 910.4,-19.83"/>
</g>
<!-- Node10&#45;&gt;Node4 -->
<g id="edge14" class="edge">
<title>Node10&#45;&gt;Node4</title>
<path fill="none" stroke="midnightblue" d="M610.22,-56.44C628.9,-47.68 658.16,-33.94 679.62,-23.86"/>
<polygon fill="midnightblue" stroke="midnightblue" points="681.3,-26.93 688.86,-19.52 678.32,-20.6 681.3,-26.93"/>
</g>
<!-- Node10&#45;&gt;Node5 -->
<g id="edge15" class="edge">
<title>Node10&#45;&gt;Node5</title>
<path fill="none" stroke="midnightblue" d="M626.86,-56.44C666.71,-46.66 731.75,-30.7 773.18,-20.53"/>
<polygon fill="midnightblue" stroke="midnightblue" points="774.05,-23.92 782.92,-18.14 772.38,-17.12 774.05,-23.92"/>
</g>
<!-- Node10&#45;&gt;Node7 -->
<g id="edge16" class="edge">
<title>Node10&#45;&gt;Node7</title>
<path fill="none" stroke="midnightblue" d="M568.55,-56.44C543.58,-47.33 503.89,-32.85 476.05,-22.69"/>
<polygon fill="midnightblue" stroke="midnightblue" points="476.97,-19.3 466.37,-19.16 474.57,-25.88 476.97,-19.3"/>
</g>
<!-- Node10&#45;&gt;Node8 -->
<g id="edge17" class="edge">
<title>Node10&#45;&gt;Node8</title>
<path fill="none" stroke="midnightblue" d="M551.87,-58.43C495.09,-49.14 390.82,-32.08 324.03,-21.15"/>
<polygon fill="midnightblue" stroke="midnightblue" points="324.49,-17.68 314.05,-19.52 323.36,-24.59 324.49,-17.68"/>
</g>
<!-- Node10&#45;&gt;Node9 -->
<g id="edge18" class="edge">
<title>Node10&#45;&gt;Node9</title>
<path fill="none" stroke="midnightblue" d="M592,-56.08C592,-49.01 592,-38.86 592,-29.99"/>
<polygon fill="midnightblue" stroke="midnightblue" points="595.5,-29.75 592,-19.75 588.5,-29.75 595.5,-29.75"/>
</g>
<!-- Node11&#45;&gt;Node2 -->
<g id="edge21" class="edge">
<title>Node11&#45;&gt;Node2</title>
<path fill="none" stroke="midnightblue" d="M516.63,-286.09C587.02,-280.63 735.97,-267.26 860,-244 894.75,-237.48 902.61,-232.2 937,-224 989.71,-211.43 1050.32,-198.42 1092.28,-189.64"/>
<polygon fill="midnightblue" stroke="midnightblue" points="1093.18,-193.03 1102.26,-187.56 1091.75,-186.18 1093.18,-193.03"/>
</g>
<!-- Node11&#45;&gt;Node6 -->
<g id="edge20" class="edge">
<title>Node11&#45;&gt;Node6</title>
<path fill="none" stroke="midnightblue" d="M477.63,-280.42C482.04,-259.18 495.95,-203.31 526,-168 537.56,-154.42 554.28,-143.7 568.8,-136.13"/>
<polygon fill="midnightblue" stroke="midnightblue" points="570.53,-139.18 577.95,-131.62 567.44,-132.9 570.53,-139.18"/>
</g>
<!-- Node11&#45;&gt;Node8 -->
<g id="edge22" class="edge">
<title>Node11&#45;&gt;Node8</title>
<path fill="none" stroke="midnightblue" d="M435.42,-288.25C320.31,-285.03 0,-268.06 0,-179 0,-179 0,-179 0,-121 0,-35.9 118.97,-15.54 196.57,-11.31"/>
<polygon fill="midnightblue" stroke="midnightblue" points="196.93,-14.8 206.76,-10.84 196.6,-7.81 196.93,-14.8"/>
</g>
<!-- Node11&#45;&gt;Node12 -->
<g id="edge23" class="edge">
<title>Node11&#45;&gt;Node12</title>
<path fill="none" stroke="midnightblue" d="M447.48,-280.44C416.93,-271.28 368.29,-256.69 334.4,-246.52"/>
<polygon fill="midnightblue" stroke="midnightblue" points="334.97,-243.04 324.39,-243.52 332.96,-249.74 334.97,-243.04"/>
</g>
<!-- Node16 -->
<g id="node16" class="node">
<title>Node16</title>
<g id="a_node16"><a xlink:href="Instruction_8hpp.html" target="_top" xlink:title=" ">
<polygon fill="white" stroke="black" points="254.5,-56.5 254.5,-75.5 343.5,-75.5 343.5,-56.5 254.5,-56.5"/>
<text text-anchor="middle" x="299" y="-63.5" font-family="Helvetica,sans-Serif" font-size="10.00">Instruction.hpp</text>
</a>
</g>
</g>
<!-- Node11&#45;&gt;Node16 -->
<g id="edge33" class="edge">
<title>Node11&#45;&gt;Node16</title>
<path fill="none" stroke="midnightblue" d="M435.26,-284.96C344.77,-274.99 132.03,-245.75 95,-188 55.14,-125.84 171.21,-91.4 244.32,-76.34"/>
<polygon fill="midnightblue" stroke="midnightblue" points="245.21,-79.73 254.33,-74.34 243.84,-72.86 245.21,-79.73"/>
</g>
<!-- Node17 -->
<g id="node17" class="node">
<title>Node17</title>
<g id="a_node17"><a xlink:href="DMA_8hpp.html" target="_top" xlink:title=" ">
<polygon fill="white" stroke="black" points="764.5,-224.5 764.5,-243.5 851.5,-243.5 851.5,-224.5 764.5,-224.5"/>
<text text-anchor="middle" x="808" y="-231.5" font-family="Helvetica,sans-Serif" font-size="10.00">DMA/DMA.hpp</text>
</a>
</g>
</g>
<!-- Node11&#45;&gt;Node17 -->
<g id="edge36" class="edge">
<title>Node11&#45;&gt;Node17</title>
<path fill="none" stroke="midnightblue" d="M516.71,-282.38C576.37,-272.67 687.66,-254.57 754.06,-243.77"/>
<polygon fill="midnightblue" stroke="midnightblue" points="755.01,-247.16 764.32,-242.1 753.89,-240.26 755.01,-247.16"/>
</g>
<!-- Node12&#45;&gt;Node6 -->
<g id="edge25" class="edge">
<title>Node12&#45;&gt;Node6</title>
<path fill="none" stroke="midnightblue" d="M299.7,-224.16C306.18,-209.83 321.05,-181.75 343,-168 376.31,-147.14 482.8,-133.84 547.47,-127.46"/>
<polygon fill="midnightblue" stroke="midnightblue" points="547.86,-130.94 557.48,-126.5 547.19,-123.97 547.86,-130.94"/>
</g>
<!-- Node12&#45;&gt;Node7 -->
<g id="edge24" class="edge">
<title>Node12&#45;&gt;Node7</title>
<path fill="none" stroke="midnightblue" d="M289.54,-224.29C274.79,-203.23 241.66,-148.58 266,-112 288.96,-77.5 315.75,-96.07 352,-76 378.91,-61.1 407.47,-39.98 425.51,-25.9"/>
<polygon fill="midnightblue" stroke="midnightblue" points="427.79,-28.56 433.46,-19.61 423.45,-23.07 427.79,-28.56"/>
</g>
<!-- Node12&#45;&gt;Node8 -->
<g id="edge26" class="edge">
<title>Node12&#45;&gt;Node8</title>
<path fill="none" stroke="midnightblue" d="M225.86,-226.53C174.62,-220.19 111.35,-208.41 95,-188 42.59,-122.56 171.79,-52.21 232.53,-23.89"/>
<polygon fill="midnightblue" stroke="midnightblue" points="234.36,-26.9 242,-19.56 231.45,-20.54 234.36,-26.9"/>
</g>
<!-- Node13 -->
<g id="node13" class="node">
<title>Node13</title>
<g id="a_node13"><a xlink:href="ARectangleMemory_8hpp.html" target="_top" xlink:title=" ">
<polygon fill="white" stroke="black" points="275.5,-112.5 275.5,-131.5 460.5,-131.5 460.5,-112.5 275.5,-112.5"/>
<text text-anchor="middle" x="368" y="-119.5" font-family="Helvetica,sans-Serif" font-size="10.00">../Memory/ARectangleMemory.hpp</text>
</a>
</g>
</g>
<!-- Node12&#45;&gt;Node13 -->
<g id="edge27" class="edge">
<title>Node12&#45;&gt;Node13</title>
<path fill="none" stroke="midnightblue" d="M296.03,-224.3C296.46,-211.13 298.81,-185.78 310,-168 318.06,-155.19 331.12,-144.58 342.81,-136.89"/>
<polygon fill="midnightblue" stroke="midnightblue" points="344.71,-139.83 351.37,-131.59 341.03,-133.88 344.71,-139.83"/>
</g>
<!-- Node14 -->
<g id="node14" class="node">
<title>Node14</title>
<g id="a_node14"><a xlink:href="InterruptVectors_8hpp.html" target="_top" xlink:title=" ">
<polygon fill="white" stroke="black" points="104,-168.5 104,-187.5 220,-187.5 220,-168.5 104,-168.5"/>
<text text-anchor="middle" x="162" y="-175.5" font-family="Helvetica,sans-Serif" font-size="10.00">InterruptVectors.hpp</text>
</a>
</g>
</g>
<!-- Node12&#45;&gt;Node14 -->
<g id="edge29" class="edge">
<title>Node12&#45;&gt;Node14</title>
<path fill="none" stroke="midnightblue" d="M274.77,-224.44C252.62,-215.52 217.68,-201.44 192.56,-191.32"/>
<polygon fill="midnightblue" stroke="midnightblue" points="193.72,-188.01 183.13,-187.52 191.1,-194.5 193.72,-188.01"/>
</g>
<!-- Node12&#45;&gt;Node15 -->
<g id="edge30" class="edge">
<title>Node12&#45;&gt;Node15</title>
<path fill="none" stroke="midnightblue" d="M312.71,-224.32C329.31,-215.7 355,-202.36 374.22,-192.39"/>
<polygon fill="midnightblue" stroke="midnightblue" points="376.07,-195.37 383.33,-187.65 372.84,-189.16 376.07,-195.37"/>
</g>
<!-- Node13&#45;&gt;Node10 -->
<g id="edge28" class="edge">
<title>Node13&#45;&gt;Node10</title>
<path fill="none" stroke="midnightblue" d="M403.49,-112.44C442.32,-103.08 504.66,-88.06 546.92,-77.87"/>
<polygon fill="midnightblue" stroke="midnightblue" points="547.77,-81.26 556.67,-75.52 546.13,-74.46 547.77,-81.26"/>
</g>
<!-- Node15&#45;&gt;Node7 -->
<g id="edge32" class="edge">
<title>Node15&#45;&gt;Node7</title>
<path fill="none" stroke="midnightblue" d="M423.79,-168.5C439.72,-161.41 459.46,-149.61 469,-132 487.14,-98.51 468.09,-53.28 454.72,-28.69"/>
<polygon fill="midnightblue" stroke="midnightblue" points="457.63,-26.73 449.62,-19.79 451.55,-30.21 457.63,-26.73"/>
</g>
<!-- Node15&#45;&gt;Node13 -->
<g id="edge31" class="edge">
<title>Node15&#45;&gt;Node13</title>
<path fill="none" stroke="midnightblue" d="M394.72,-168.08C390.29,-160.61 383.84,-149.72 378.38,-140.52"/>
<polygon fill="midnightblue" stroke="midnightblue" points="381.29,-138.57 373.19,-131.75 375.27,-142.14 381.29,-138.57"/>
</g>
<!-- Node16&#45;&gt;Node7 -->
<g id="edge34" class="edge">
<title>Node16&#45;&gt;Node7</title>
<path fill="none" stroke="midnightblue" d="M321.98,-56.44C346.3,-47.39 384.87,-33.02 412.13,-22.87"/>
<polygon fill="midnightblue" stroke="midnightblue" points="413.46,-26.11 421.61,-19.34 411.02,-19.55 413.46,-26.11"/>
</g>
<!-- Node16&#45;&gt;Node8 -->
<g id="edge35" class="edge">
<title>Node16&#45;&gt;Node8</title>
<path fill="none" stroke="midnightblue" d="M292.89,-56.08C287.72,-48.53 280.15,-37.49 273.81,-28.23"/>
<polygon fill="midnightblue" stroke="midnightblue" points="276.54,-26.02 268,-19.75 270.76,-29.98 276.54,-26.02"/>
</g>
<!-- Node17&#45;&gt;Node2 -->
<g id="edge40" class="edge">
<title>Node17&#45;&gt;Node2</title>
<path fill="none" stroke="midnightblue" d="M851.58,-226C910.02,-216.6 1014.15,-199.87 1081.09,-189.11"/>
<polygon fill="midnightblue" stroke="midnightblue" points="1081.77,-192.55 1091.09,-187.5 1080.66,-185.63 1081.77,-192.55"/>
</g>
<!-- Node17&#45;&gt;Node3 -->
<g id="edge37" class="edge">
<title>Node17&#45;&gt;Node3</title>
<path fill="none" stroke="midnightblue" d="M817.43,-224.3C826.47,-215.65 840.17,-201.72 850,-188 888.86,-133.77 922.69,-61.75 937.31,-28.81"/>
<polygon fill="midnightblue" stroke="midnightblue" points="940.55,-30.13 941.36,-19.56 934.14,-27.32 940.55,-30.13"/>
</g>
<!-- Node17&#45;&gt;Node5 -->
<g id="edge38" class="edge">
<title>Node17&#45;&gt;Node5</title>
<path fill="none" stroke="midnightblue" d="M814.1,-224.19C819.75,-215.46 827.76,-201.48 831,-188 836.62,-164.66 850.44,-195.74 826,-56 824.43,-47.03 821.58,-37.36 818.86,-29.29"/>
<polygon fill="midnightblue" stroke="midnightblue" points="822.13,-28.04 815.48,-19.8 815.54,-30.39 822.13,-28.04"/>
</g>
<!-- Node17&#45;&gt;Node8 -->
<g id="edge39" class="edge">
<title>Node17&#45;&gt;Node8</title>
<path fill="none" stroke="midnightblue" d="M785.72,-224.44C720.85,-199.62 532.71,-128.34 469,-112 420.16,-99.47 277.7,-114.37 245,-76 233.58,-62.6 241.54,-42.41 249.99,-28.09"/>
<polygon fill="midnightblue" stroke="midnightblue" points="252.95,-29.96 255.42,-19.66 247.06,-26.17 252.95,-29.96"/>
</g>
<!-- Node18&#45;&gt;Node2 -->
<g id="edge46" class="edge">
<title>Node18&#45;&gt;Node2</title>
<path fill="none" stroke="midnightblue" d="M1011.04,-224.44C1037.62,-215.36 1079.81,-200.94 1109.52,-190.78"/>
<polygon fill="midnightblue" stroke="midnightblue" points="1110.75,-194.06 1119.08,-187.52 1108.49,-187.44 1110.75,-194.06"/>
</g>
<!-- Node18&#45;&gt;Node3 -->
<g id="edge44" class="edge">
<title>Node18&#45;&gt;Node3</title>
<path fill="none" stroke="midnightblue" d="M1026.36,-231.34C1087.35,-227.88 1198.49,-217.6 1223,-188 1228.67,-181.15 1226.88,-176 1223,-168 1176.73,-72.57 1044.31,-32.08 980.38,-17.72"/>
<polygon fill="midnightblue" stroke="midnightblue" points="980.88,-14.25 970.37,-15.56 979.41,-21.09 980.88,-14.25"/>
</g>
<!-- Node18&#45;&gt;Node6 -->
<g id="edge45" class="edge">
<title>Node18&#45;&gt;Node6</title>
<path fill="none" stroke="midnightblue" d="M945.63,-229.14C895.36,-223.56 807.27,-211.28 735,-188 729.36,-186.18 663.6,-154.39 625.63,-135.96"/>
<polygon fill="midnightblue" stroke="midnightblue" points="627.16,-132.8 616.63,-131.58 624.1,-139.1 627.16,-132.8"/>
</g>
<!-- Node18&#45;&gt;Node15 -->
<g id="edge50" class="edge">
<title>Node18&#45;&gt;Node15</title>
<path fill="none" stroke="midnightblue" d="M945.72,-229.29C843.96,-219.91 576.24,-195.24 457.79,-184.33"/>
<polygon fill="midnightblue" stroke="midnightblue" points="458.1,-180.84 447.82,-183.41 457.46,-187.81 458.1,-180.84"/>
</g>
<!-- Node18&#45;&gt;Node19 -->
<g id="edge47" class="edge">
<title>Node18&#45;&gt;Node19</title>
<path fill="none" stroke="midnightblue" d="M986,-224.08C986,-217.01 986,-206.86 986,-197.99"/>
<polygon fill="midnightblue" stroke="midnightblue" points="989.5,-197.75 986,-187.75 982.5,-197.75 989.5,-197.75"/>
</g>
<!-- Node21 -->
<g id="node21" class="node">
<title>Node21</title>
<g id="a_node21"><a xlink:href="Vector2_8hpp.html" target="_top" xlink:title=" ">
<polygon fill="white" stroke="black" points="1281,-168.5 1281,-187.5 1403,-187.5 1403,-168.5 1281,-168.5"/>
<text text-anchor="middle" x="1342" y="-175.5" font-family="Helvetica,sans-Serif" font-size="10.00">../Models/Vector2.hpp</text>
</a>
</g>
</g>
<!-- Node18&#45;&gt;Node21 -->
<g id="edge51" class="edge">
<title>Node18&#45;&gt;Node21</title>
<path fill="none" stroke="midnightblue" d="M1026.15,-226.91C1086.84,-217.7 1202.65,-200.14 1275.91,-189.03"/>
<polygon fill="midnightblue" stroke="midnightblue" points="1276.59,-192.46 1285.95,-187.5 1275.54,-185.54 1276.59,-192.46"/>
</g>
<!-- Node19&#45;&gt;Node7 -->
<g id="edge48" class="edge">
<title>Node19&#45;&gt;Node7</title>
<path fill="none" stroke="midnightblue" d="M959.21,-168.46C916.4,-155.04 829.79,-128.82 755,-112 661.76,-91.03 631.94,-110.97 543,-76 534.62,-72.7 491.34,-43.48 464.86,-25.35"/>
<polygon fill="midnightblue" stroke="midnightblue" points="466.82,-22.46 456.6,-19.69 462.86,-28.23 466.82,-22.46"/>
</g>
<!-- Node20 -->
<g id="node20" class="node">
<title>Node20</title>
<g id="a_node20"><a xlink:title=" ">
<polygon fill="white" stroke="#bfbfbf" points="916,-112.5 916,-131.5 956,-131.5 956,-112.5 916,-112.5"/>
<text text-anchor="middle" x="936" y="-119.5" font-family="Helvetica,sans-Serif" font-size="10.00">span</text>
</a>
</g>
</g>
<!-- Node19&#45;&gt;Node20 -->
<g id="edge49" class="edge">
<title>Node19&#45;&gt;Node20</title>
<path fill="none" stroke="midnightblue" d="M977.74,-168.08C970.54,-160.3 959.89,-148.8 951.15,-139.37"/>
<polygon fill="midnightblue" stroke="midnightblue" points="953.47,-136.71 944.1,-131.75 948.33,-141.47 953.47,-136.71"/>
</g>
<!-- Node22 -->
<g id="node22" class="node">
<title>Node22</title>
<g id="a_node22"><a xlink:title=" ">
<polygon fill="white" stroke="#bfbfbf" points="1431.5,-112.5 1431.5,-131.5 1488.5,-131.5 1488.5,-112.5 1431.5,-112.5"/>
<text text-anchor="middle" x="1460" y="-119.5" font-family="Helvetica,sans-Serif" font-size="10.00">ostream</text>
</a>
</g>
</g>
<!-- Node21&#45;&gt;Node22 -->
<g id="edge52" class="edge">
<title>Node21&#45;&gt;Node22</title>
<path fill="none" stroke="midnightblue" d="M1360.7,-168.44C1379.94,-159.64 1410.15,-145.81 1432.2,-135.72"/>
<polygon fill="midnightblue" stroke="midnightblue" points="1433.75,-138.86 1441.39,-131.52 1430.84,-132.5 1433.75,-138.86"/>
</g>
<!-- Node23 -->
<g id="node23" class="node">
<title>Node23</title>
<g id="a_node23"><a xlink:title=" ">
<polygon fill="white" stroke="#bfbfbf" points="1270.5,-112.5 1270.5,-131.5 1413.5,-131.5 1413.5,-112.5 1270.5,-112.5"/>
<text text-anchor="middle" x="1342" y="-119.5" font-family="Helvetica,sans-Serif" font-size="10.00">SFML/System/Vector2.hpp</text>
</a>
</g>
</g>
<!-- Node21&#45;&gt;Node23 -->
<g id="edge53" class="edge">
<title>Node21&#45;&gt;Node23</title>
<path fill="none" stroke="midnightblue" d="M1342,-168.08C1342,-161.01 1342,-150.86 1342,-141.99"/>
<polygon fill="midnightblue" stroke="midnightblue" points="1345.5,-141.75 1342,-131.75 1338.5,-141.75 1345.5,-141.75"/>
</g>
<!-- Node24&#45;&gt;Node5 -->
<g id="edge55" class="edge">
<title>Node24&#45;&gt;Node5</title>
<path fill="none" stroke="midnightblue" d="M642.49,-224.41C648.79,-203.61 666.93,-149.5 695,-112 722.33,-75.49 764.94,-42.94 790.5,-25.19"/>
<polygon fill="midnightblue" stroke="midnightblue" points="792.48,-28.07 798.77,-19.54 788.54,-22.28 792.48,-28.07"/>
</g>
<!-- Node24&#45;&gt;Node6 -->
<g id="edge60" class="edge">
<title>Node24&#45;&gt;Node6</title>
<path fill="none" stroke="midnightblue" d="M599.37,-227.15C575.71,-221.43 547.72,-210.16 533,-188 519.33,-167.42 545.83,-148.14 569.21,-136"/>
<polygon fill="midnightblue" stroke="midnightblue" points="570.82,-139.11 578.26,-131.56 567.74,-132.83 570.82,-139.11"/>
</g>
<!-- Node24&#45;&gt;Node15 -->
<g id="edge61" class="edge">
<title>Node24&#45;&gt;Node15</title>
<path fill="none" stroke="midnightblue" d="M601.97,-224.44C560.19,-215.04 493.02,-199.93 447.73,-189.74"/>
<polygon fill="midnightblue" stroke="midnightblue" points="448.38,-186.3 437.85,-187.52 446.84,-193.13 448.38,-186.3"/>
</g>
<!-- Node24&#45;&gt;Node19 -->
<g id="edge64" class="edge">
<title>Node24&#45;&gt;Node19</title>
<path fill="none" stroke="midnightblue" d="M680.71,-226.65C740.04,-217.39 850.88,-200.09 921.43,-189.08"/>
<polygon fill="midnightblue" stroke="midnightblue" points="922.19,-192.5 931.53,-187.5 921.11,-185.58 922.19,-192.5"/>
</g>
<!-- Node25 -->
<g id="node25" class="node">
<title>Node25</title>
<g id="a_node25"><a xlink:href="DSP_8hpp.html" target="_top" xlink:title=" ">
<polygon fill="white" stroke="black" points="744,-168.5 744,-187.5 822,-187.5 822,-168.5 744,-168.5"/>
<text text-anchor="middle" x="783" y="-175.5" font-family="Helvetica,sans-Serif" font-size="10.00">DSP/DSP.hpp</text>
</a>
</g>
</g>
<!-- Node24&#45;&gt;Node25 -->
<g id="edge56" class="edge">
<title>Node24&#45;&gt;Node25</title>
<path fill="none" stroke="midnightblue" d="M662.66,-224.44C686.4,-215.48 723.91,-201.31 750.74,-191.18"/>
<polygon fill="midnightblue" stroke="midnightblue" points="752.33,-194.32 760.45,-187.52 749.86,-187.77 752.33,-194.32"/>
</g>
<!-- Node27 -->
<g id="node27" class="node">
<title>Node27</title>
<g id="a_node27"><a xlink:href="IPL_8hpp.html" target="_top" xlink:title=" ">
<polygon fill="white" stroke="black" points="542.5,-168.5 542.5,-187.5 611.5,-187.5 611.5,-168.5 542.5,-168.5"/>
<text text-anchor="middle" x="577" y="-175.5" font-family="Helvetica,sans-Serif" font-size="10.00">IPL/IPL.hpp</text>
</a>
</g>
</g>
<!-- Node24&#45;&gt;Node27 -->
<g id="edge62" class="edge">
<title>Node24&#45;&gt;Node27</title>
<path fill="none" stroke="midnightblue" d="M629.88,-224.32C620.47,-216.26 606.26,-204.08 594.93,-194.37"/>
<polygon fill="midnightblue" stroke="midnightblue" points="597.18,-191.68 587.31,-187.83 592.62,-197 597.18,-191.68"/>
</g>
<!-- Node25&#45;&gt;Node3 -->
<g id="edge57" class="edge">
<title>Node25&#45;&gt;Node3</title>
<path fill="none" stroke="midnightblue" d="M791.71,-168.08C817.87,-141.27 896.02,-61.19 929.5,-26.89"/>
<polygon fill="midnightblue" stroke="midnightblue" points="932.16,-29.17 936.64,-19.57 927.15,-24.28 932.16,-29.17"/>
</g>
<!-- Node25&#45;&gt;Node6 -->
<g id="edge59" class="edge">
<title>Node25&#45;&gt;Node6</title>
<path fill="none" stroke="midnightblue" d="M753.84,-168.44C722.49,-159.24 672.47,-144.56 637.8,-134.39"/>
<polygon fill="midnightblue" stroke="midnightblue" points="638.6,-130.97 628.02,-131.52 636.63,-137.69 638.6,-130.97"/>
</g>
<!-- Node26 -->
<g id="node26" class="node">
<title>Node26</title>
<g id="a_node26"><a xlink:title=" ">
<polygon fill="white" stroke="#bfbfbf" points="704,-112.5 704,-131.5 746,-131.5 746,-112.5 704,-112.5"/>
<text text-anchor="middle" x="725" y="-119.5" font-family="Helvetica,sans-Serif" font-size="10.00">array</text>
</a>
</g>
</g>
<!-- Node25&#45;&gt;Node26 -->
<g id="edge58" class="edge">
<title>Node25&#45;&gt;Node26</title>
<path fill="none" stroke="midnightblue" d="M773.68,-168.32C765.11,-160.34 752.19,-148.31 741.81,-138.65"/>
<polygon fill="midnightblue" stroke="midnightblue" points="744.19,-136.09 734.49,-131.83 739.42,-141.21 744.19,-136.09"/>
</g>
<!-- Node27&#45;&gt;Node6 -->
<g id="edge63" class="edge">
<title>Node27&#45;&gt;Node6</title>
<path fill="none" stroke="midnightblue" d="M580.63,-168.08C583.61,-160.77 587.93,-150.18 591.62,-141.1"/>
<polygon fill="midnightblue" stroke="midnightblue" points="594.9,-142.33 595.43,-131.75 588.42,-139.69 594.9,-142.33"/>
</g>
<!-- Node29 -->
<g id="node29" class="node">
<title>Node29</title>
<g id="a_node29"><a xlink:title=" ">
<polygon fill="white" stroke="#bfbfbf" points="1122.5,-224.5 1122.5,-243.5 1217.5,-243.5 1217.5,-224.5 1122.5,-224.5"/>
<text text-anchor="middle" x="1170" y="-231.5" font-family="Helvetica,sans-Serif" font-size="10.00">bits/exception.h</text>
</a>
</g>
</g>
<!-- Node28&#45;&gt;Node29 -->
<g id="edge67" class="edge">
<title>Node28&#45;&gt;Node29</title>
<path fill="none" stroke="midnightblue" d="M1170,-280.08C1170,-273.01 1170,-262.86 1170,-253.99"/>
<polygon fill="midnightblue" stroke="midnightblue" points="1173.5,-253.75 1170,-243.75 1166.5,-253.75 1173.5,-253.75"/>
</g>
</g>
</svg>
