<?xml version="1.0" encoding="UTF-8" standalone="no"?>
<!DOCTYPE svg PUBLIC "-//W3C//DTD SVG 1.1//EN"
 "http://www.w3.org/Graphics/SVG/1.1/DTD/svg11.dtd">
<!-- Generated by graphviz version 2.43.0 (0)
 -->
<!-- Title: sources/SNES.cpp Pages: 1 -->
<svg width="1497pt" height="420pt"
 viewBox="0.00 0.00 1496.50 420.00" xmlns="http://www.w3.org/2000/svg" xmlns:xlink="http://www.w3.org/1999/xlink">
<g id="graph0" class="graph" transform="scale(1 1) rotate(0) translate(4 416)">
<title>sources/SNES.cpp</title>
<polygon fill="white" stroke="transparent" points="-4,4 -4,-416 1492.5,-416 1492.5,4 -4,4"/>
<!-- Node1 -->
<g id="node1" class="node">
<title>Node1</title>
<g id="a_node1"><a xlink:title=" ">
<polygon fill="#bfbfbf" stroke="black" points="716.5,-392.5 716.5,-411.5 819.5,-411.5 819.5,-392.5 716.5,-392.5"/>
<text text-anchor="middle" x="768" y="-399.5" font-family="Helvetica,sans-Serif" font-size="10.00">sources/SNES.cpp</text>
</a>
</g>
</g>
<!-- Node2 -->
<g id="node2" class="node">
<title>Node2</title>
<g id="a_node2"><a xlink:title=" ">
<polygon fill="white" stroke="#bfbfbf" points="688.5,-336.5 688.5,-355.5 719.5,-355.5 719.5,-336.5 688.5,-336.5"/>
<text text-anchor="middle" x="704" y="-343.5" font-family="Helvetica,sans-Serif" font-size="10.00">ios</text>
</a>
</g>
</g>
<!-- Node1&#45;&gt;Node2 -->
<g id="edge1" class="edge">
<title>Node1&#45;&gt;Node2</title>
<path fill="none" stroke="midnightblue" d="M757.72,-392.32C748.16,-384.26 733.72,-372.08 722.22,-362.37"/>
<polygon fill="midnightblue" stroke="midnightblue" points="724.37,-359.61 714.47,-355.83 719.86,-364.96 724.37,-359.61"/>
</g>
<!-- Node3 -->
<g id="node3" class="node">
<title>Node3</title>
<g id="a_node3"><a xlink:title=" ">
<polygon fill="white" stroke="#bfbfbf" points="738,-336.5 738,-355.5 798,-355.5 798,-336.5 738,-336.5"/>
<text text-anchor="middle" x="768" y="-343.5" font-family="Helvetica,sans-Serif" font-size="10.00">iostream</text>
</a>
</g>
</g>
<!-- Node1&#45;&gt;Node3 -->
<g id="edge2" class="edge">
<title>Node1&#45;&gt;Node3</title>
<path fill="none" stroke="midnightblue" d="M768,-392.08C768,-385.01 768,-374.86 768,-365.99"/>
<polygon fill="midnightblue" stroke="midnightblue" points="771.5,-365.75 768,-355.75 764.5,-365.75 771.5,-365.75"/>
</g>
<!-- Node4 -->
<g id="node4" class="node">
<title>Node4</title>
<g id="a_node4"><a xlink:href="SNES_8hpp.html" target="_top" xlink:title=" ">
<polygon fill="white" stroke="black" points="816.5,-336.5 816.5,-355.5 879.5,-355.5 879.5,-336.5 816.5,-336.5"/>
<text text-anchor="middle" x="848" y="-343.5" font-family="Helvetica,sans-Serif" font-size="10.00">SNES.hpp</text>
</a>
</g>
</g>
<!-- Node1&#45;&gt;Node4 -->
<g id="edge3" class="edge">
<title>Node1&#45;&gt;Node4</title>
<path fill="none" stroke="midnightblue" d="M780.85,-392.32C793.22,-383.98 812.13,-371.21 826.74,-361.35"/>
<polygon fill="midnightblue" stroke="midnightblue" points="828.85,-364.15 835.18,-355.65 824.93,-358.35 828.85,-364.15"/>
</g>
<!-- Node5 -->
<g id="node5" class="node">
<title>Node5</title>
<g id="a_node5"><a xlink:href="MemoryBus_8hpp.html" target="_top" xlink:title=" ">
<polygon fill="white" stroke="black" points="1074,-168.5 1074,-187.5 1214,-187.5 1214,-168.5 1074,-168.5"/>
<text text-anchor="middle" x="1144" y="-175.5" font-family="Helvetica,sans-Serif" font-size="10.00">Memory/MemoryBus.hpp</text>
</a>
</g>
</g>
<!-- Node4&#45;&gt;Node5 -->
<g id="edge4" class="edge">
<title>Node4&#45;&gt;Node5</title>
<path fill="none" stroke="midnightblue" d="M872.15,-336.35C894.41,-328.04 928.12,-314.63 956,-300 1019.77,-266.53 1089.87,-218.01 1123.61,-193.84"/>
<polygon fill="midnightblue" stroke="midnightblue" points="1126.07,-196.39 1132.13,-187.7 1121.97,-190.71 1126.07,-196.39"/>
</g>
<!-- Node14 -->
<g id="node14" class="node">
<title>Node14</title>
<g id="a_node14"><a xlink:href="CPU_8hpp.html" target="_top" xlink:title=" ">
<polygon fill="white" stroke="black" points="435.5,-280.5 435.5,-299.5 516.5,-299.5 516.5,-280.5 435.5,-280.5"/>
<text text-anchor="middle" x="476" y="-287.5" font-family="Helvetica,sans-Serif" font-size="10.00">CPU/CPU.hpp</text>
</a>
</g>
</g>
<!-- Node4&#45;&gt;Node14 -->
<g id="edge22" class="edge">
<title>Node4&#45;&gt;Node14</title>
<path fill="none" stroke="midnightblue" d="M816.27,-337.77C813.14,-337.14 810.01,-336.53 807,-336 708.22,-318.47 591.79,-304.08 526.67,-296.6"/>
<polygon fill="midnightblue" stroke="midnightblue" points="527.01,-293.11 516.67,-295.45 526.21,-300.07 527.01,-293.11"/>
</g>
<!-- Node15 -->
<g id="node15" class="node">
<title>Node15</title>
<g id="a_node15"><a xlink:href="Cartridge_8hpp.html" target="_top" xlink:title=" ">
<polygon fill="white" stroke="black" points="226,-224.5 226,-243.5 366,-243.5 366,-224.5 226,-224.5"/>
<text text-anchor="middle" x="296" y="-231.5" font-family="Helvetica,sans-Serif" font-size="10.00">../Cartridge/Cartridge.hpp</text>
</a>
</g>
</g>
<!-- Node4&#45;&gt;Node15 -->
<g id="edge44" class="edge">
<title>Node4&#45;&gt;Node15</title>
<path fill="none" stroke="midnightblue" d="M816.29,-337.61C813.16,-337.01 810.03,-336.46 807,-336 623.1,-308 565.03,-363.01 390,-300 359.84,-289.14 330.31,-266.1 312.62,-250.58"/>
<polygon fill="midnightblue" stroke="midnightblue" points="314.71,-247.75 304.94,-243.65 310.02,-252.95 314.71,-247.75"/>
</g>
<!-- Node18 -->
<g id="node18" class="node">
<title>Node18</title>
<g id="a_node18"><a xlink:href="Ram_8hpp.html" target="_top" xlink:title=" ">
<polygon fill="white" stroke="black" points="352.5,-168.5 352.5,-187.5 447.5,-187.5 447.5,-168.5 352.5,-168.5"/>
<text text-anchor="middle" x="400" y="-175.5" font-family="Helvetica,sans-Serif" font-size="10.00">../Ram/Ram.hpp</text>
</a>
</g>
</g>
<!-- Node4&#45;&gt;Node18 -->
<g id="edge45" class="edge">
<title>Node4&#45;&gt;Node18</title>
<path fill="none" stroke="midnightblue" d="M816.29,-337.64C813.16,-337.03 810.02,-336.47 807,-336 722.98,-322.86 489.56,-356.5 426,-300 397.05,-274.27 395.98,-224.79 397.88,-197.75"/>
<polygon fill="midnightblue" stroke="midnightblue" points="401.38,-197.96 398.8,-187.68 394.4,-197.32 401.38,-197.96"/>
</g>
<!-- Node21 -->
<g id="node21" class="node">
<title>Node21</title>
<g id="a_node21"><a xlink:href="PPU_8hpp.html" target="_top" xlink:title=" ">
<polygon fill="white" stroke="black" points="946,-224.5 946,-243.5 1026,-243.5 1026,-224.5 946,-224.5"/>
<text text-anchor="middle" x="986" y="-231.5" font-family="Helvetica,sans-Serif" font-size="10.00">PPU/PPU.hpp</text>
</a>
</g>
</g>
<!-- Node4&#45;&gt;Node21 -->
<g id="edge46" class="edge">
<title>Node4&#45;&gt;Node21</title>
<path fill="none" stroke="midnightblue" d="M869.04,-336.47C886.9,-328.62 912.65,-315.8 932,-300 948.97,-286.15 964.51,-266.35 974.52,-252.24"/>
<polygon fill="midnightblue" stroke="midnightblue" points="977.46,-254.14 980.26,-243.92 971.7,-250.17 977.46,-254.14"/>
</g>
<!-- Node22 -->
<g id="node22" class="node">
<title>Node22</title>
<g id="a_node22"><a xlink:href="IRenderer_8hpp.html" target="_top" xlink:title=" ">
<polygon fill="white" stroke="black" points="916,-168.5 916,-187.5 1056,-187.5 1056,-168.5 916,-168.5"/>
<text text-anchor="middle" x="986" y="-175.5" font-family="Helvetica,sans-Serif" font-size="10.00">../Renderer/IRenderer.hpp</text>
</a>
</g>
</g>
<!-- Node4&#45;&gt;Node22 -->
<g id="edge68" class="edge">
<title>Node4&#45;&gt;Node22</title>
<path fill="none" stroke="midnightblue" d="M853.51,-336.35C866.75,-315.88 901.83,-263.22 937,-224 946.42,-213.49 958.02,-202.76 967.56,-194.42"/>
<polygon fill="midnightblue" stroke="midnightblue" points="970,-196.93 975.31,-187.76 965.44,-191.62 970,-196.93"/>
</g>
<!-- Node27 -->
<g id="node27" class="node">
<title>Node27</title>
<g id="a_node27"><a xlink:href="APU_8hpp.html" target="_top" xlink:title=" ">
<polygon fill="white" stroke="black" points="599.5,-224.5 599.5,-243.5 680.5,-243.5 680.5,-224.5 599.5,-224.5"/>
<text text-anchor="middle" x="640" y="-231.5" font-family="Helvetica,sans-Serif" font-size="10.00">APU/APU.hpp</text>
</a>
</g>
</g>
<!-- Node4&#45;&gt;Node27 -->
<g id="edge57" class="edge">
<title>Node4&#45;&gt;Node27</title>
<path fill="none" stroke="midnightblue" d="M831.68,-336.37C795.53,-317.25 708.51,-271.23 665.26,-248.36"/>
<polygon fill="midnightblue" stroke="midnightblue" points="666.72,-245.17 656.25,-243.59 663.45,-251.36 666.72,-245.17"/>
</g>
<!-- Node31 -->
<g id="node31" class="node">
<title>Node31</title>
<g id="a_node31"><a xlink:href="DebuggableError_8hpp.html" target="_top" xlink:title=" ">
<polygon fill="white" stroke="black" points="1082.5,-280.5 1082.5,-299.5 1257.5,-299.5 1257.5,-280.5 1082.5,-280.5"/>
<text text-anchor="middle" x="1170" y="-287.5" font-family="Helvetica,sans-Serif" font-size="10.00">Exceptions/DebuggableError.hpp</text>
</a>
</g>
</g>
<!-- Node4&#45;&gt;Node31 -->
<g id="edge69" class="edge">
<title>Node4&#45;&gt;Node31</title>
<path fill="none" stroke="midnightblue" d="M879.76,-339.67C932.88,-330.77 1040.64,-312.69 1108.86,-301.25"/>
<polygon fill="midnightblue" stroke="midnightblue" points="1109.76,-304.65 1119.04,-299.55 1108.6,-297.75 1109.76,-304.65"/>
</g>
<!-- Node6 -->
<g id="node6" class="node">
<title>Node6</title>
<g id="a_node6"><a xlink:title=" ">
<polygon fill="white" stroke="#bfbfbf" points="920,-0.5 920,-19.5 970,-19.5 970,-0.5 920,-0.5"/>
<text text-anchor="middle" x="945" y="-7.5" font-family="Helvetica,sans-Serif" font-size="10.00">cstdint</text>
</a>
</g>
</g>
<!-- Node5&#45;&gt;Node6 -->
<g id="edge5" class="edge">
<title>Node5&#45;&gt;Node6</title>
<path fill="none" stroke="midnightblue" d="M1141.66,-168.26C1135.29,-146.17 1115.55,-87.56 1078,-56 1050.08,-32.54 1009.36,-21.13 980.34,-15.7"/>
<polygon fill="midnightblue" stroke="midnightblue" points="980.68,-12.2 970.23,-13.96 979.49,-19.1 980.68,-12.2"/>
</g>
<!-- Node7 -->
<g id="node7" class="node">
<title>Node7</title>
<g id="a_node7"><a xlink:title=" ">
<polygon fill="white" stroke="#bfbfbf" points="683.5,-0.5 683.5,-19.5 730.5,-19.5 730.5,-0.5 683.5,-0.5"/>
<text text-anchor="middle" x="707" y="-7.5" font-family="Helvetica,sans-Serif" font-size="10.00">vector</text>
</a>
</g>
</g>
<!-- Node5&#45;&gt;Node7 -->
<g id="edge6" class="edge">
<title>Node5&#45;&gt;Node7</title>
<path fill="none" stroke="midnightblue" d="M1118.89,-168.47C1093.01,-159.61 1051.55,-145.21 1016,-132 993.18,-123.52 987.67,-120.88 965,-112 883.26,-79.97 786.93,-42.27 738.36,-23.27"/>
<polygon fill="midnightblue" stroke="midnightblue" points="739.34,-19.89 728.75,-19.51 736.78,-26.41 739.34,-19.89"/>
</g>
<!-- Node8 -->
<g id="node8" class="node">
<title>Node8</title>
<g id="a_node8"><a xlink:title=" ">
<polygon fill="white" stroke="#bfbfbf" points="783,-0.5 783,-19.5 841,-19.5 841,-0.5 783,-0.5"/>
<text text-anchor="middle" x="812" y="-7.5" font-family="Helvetica,sans-Serif" font-size="10.00">memory</text>
</a>
</g>
</g>
<!-- Node5&#45;&gt;Node8 -->
<g id="edge7" class="edge">
<title>Node5&#45;&gt;Node8</title>
<path fill="none" stroke="midnightblue" d="M1126.62,-168.31C1072.05,-141.02 903.89,-56.95 838.45,-24.22"/>
<polygon fill="midnightblue" stroke="midnightblue" points="839.72,-20.95 829.21,-19.61 836.59,-27.21 839.72,-20.95"/>
</g>
<!-- Node9 -->
<g id="node9" class="node">
<title>Node9</title>
<g id="a_node9"><a xlink:href="AMemory_8hpp.html" target="_top" xlink:title=" ">
<polygon fill="white" stroke="black" points="559.5,-112.5 559.5,-131.5 642.5,-131.5 642.5,-112.5 559.5,-112.5"/>
<text text-anchor="middle" x="601" y="-119.5" font-family="Helvetica,sans-Serif" font-size="10.00">AMemory.hpp</text>
</a>
</g>
</g>
<!-- Node5&#45;&gt;Node9 -->
<g id="edge8" class="edge">
<title>Node5&#45;&gt;Node9</title>
<path fill="none" stroke="midnightblue" d="M1073.8,-168.94C1070.82,-168.62 1067.88,-168.3 1065,-168 1024.85,-163.77 765.44,-138.8 652.93,-127.99"/>
<polygon fill="midnightblue" stroke="midnightblue" points="653.12,-124.49 642.83,-127.02 652.45,-131.46 653.12,-124.49"/>
</g>
<!-- Node9&#45;&gt;Node6 -->
<g id="edge9" class="edge">
<title>Node9&#45;&gt;Node6</title>
<path fill="none" stroke="midnightblue" d="M627.71,-112.46C689.27,-92.77 841.13,-44.21 910.02,-22.19"/>
<polygon fill="midnightblue" stroke="midnightblue" points="911.49,-25.39 919.95,-19.01 909.35,-18.72 911.49,-25.39"/>
</g>
<!-- Node9&#45;&gt;Node7 -->
<g id="edge10" class="edge">
<title>Node9&#45;&gt;Node7</title>
<path fill="none" stroke="midnightblue" d="M613.28,-112.46C625.11,-103.92 643.21,-90.08 657,-76 671.73,-60.96 686.12,-41.6 695.66,-27.94"/>
<polygon fill="midnightblue" stroke="midnightblue" points="698.67,-29.74 701.43,-19.51 692.89,-25.79 698.67,-29.74"/>
</g>
<!-- Node9&#45;&gt;Node8 -->
<g id="edge11" class="edge">
<title>Node9&#45;&gt;Node8</title>
<path fill="none" stroke="midnightblue" d="M617.56,-112.37C654.3,-93.21 742.88,-47.04 786.65,-24.22"/>
<polygon fill="midnightblue" stroke="midnightblue" points="788.27,-27.32 795.52,-19.59 785.03,-21.11 788.27,-27.32"/>
</g>
<!-- Node10 -->
<g id="node10" class="node">
<title>Node10</title>
<g id="a_node10"><a xlink:title=" ">
<polygon fill="white" stroke="#bfbfbf" points="423,-0.5 423,-19.5 467,-19.5 467,-0.5 423,-0.5"/>
<text text-anchor="middle" x="445" y="-7.5" font-family="Helvetica,sans-Serif" font-size="10.00">string</text>
</a>
</g>
</g>
<!-- Node9&#45;&gt;Node10 -->
<g id="edge12" class="edge">
<title>Node9&#45;&gt;Node10</title>
<path fill="none" stroke="midnightblue" d="M578.92,-112.49C559.77,-104.55 531.77,-91.62 510,-76 490.46,-61.98 471.39,-41.94 459.02,-27.82"/>
<polygon fill="midnightblue" stroke="midnightblue" points="461.4,-25.22 452.24,-19.91 456.09,-29.78 461.4,-25.22"/>
</g>
<!-- Node11 -->
<g id="node11" class="node">
<title>Node11</title>
<g id="a_node11"><a xlink:href="Int24_8hpp.html" target="_top" xlink:title=" ">
<polygon fill="white" stroke="black" points="207,-0.5 207,-19.5 317,-19.5 317,-0.5 207,-0.5"/>
<text text-anchor="middle" x="262" y="-7.5" font-family="Helvetica,sans-Serif" font-size="10.00">../Models/Int24.hpp</text>
</a>
</g>
</g>
<!-- Node9&#45;&gt;Node11 -->
<g id="edge13" class="edge">
<title>Node9&#45;&gt;Node11</title>
<path fill="none" stroke="midnightblue" d="M574.68,-112.46C514.48,-92.93 366.67,-44.96 298.06,-22.7"/>
<polygon fill="midnightblue" stroke="midnightblue" points="299.13,-19.37 288.54,-19.61 296.97,-26.03 299.13,-19.37"/>
</g>
<!-- Node12 -->
<g id="node12" class="node">
<title>Node12</title>
<g id="a_node12"><a xlink:href="Components_8hpp.html" target="_top" xlink:title=" ">
<polygon fill="white" stroke="black" points="519,-0.5 519,-19.5 665,-19.5 665,-0.5 519,-0.5"/>
<text text-anchor="middle" x="592" y="-7.5" font-family="Helvetica,sans-Serif" font-size="10.00">../Models/Components.hpp</text>
</a>
</g>
</g>
<!-- Node9&#45;&gt;Node12 -->
<g id="edge14" class="edge">
<title>Node9&#45;&gt;Node12</title>
<path fill="none" stroke="midnightblue" d="M613.03,-112.18C627.96,-100.07 650.38,-77.35 641,-56 635.61,-43.73 625.04,-33.34 615.1,-25.65"/>
<polygon fill="midnightblue" stroke="midnightblue" points="616.83,-22.58 606.66,-19.6 612.75,-28.27 616.83,-22.58"/>
</g>
<!-- Node13 -->
<g id="node13" class="node">
<title>Node13</title>
<g id="a_node13"><a xlink:href="IMemory_8hpp.html" target="_top" xlink:title=" ">
<polygon fill="white" stroke="black" points="552,-56.5 552,-75.5 632,-75.5 632,-56.5 552,-56.5"/>
<text text-anchor="middle" x="592" y="-63.5" font-family="Helvetica,sans-Serif" font-size="10.00">IMemory.hpp</text>
</a>
</g>
</g>
<!-- Node9&#45;&gt;Node13 -->
<g id="edge15" class="edge">
<title>Node9&#45;&gt;Node13</title>
<path fill="none" stroke="midnightblue" d="M599.51,-112.08C598.32,-104.93 596.61,-94.64 595.12,-85.69"/>
<polygon fill="midnightblue" stroke="midnightblue" points="598.55,-85.04 593.46,-75.75 591.65,-86.19 598.55,-85.04"/>
</g>
<!-- Node13&#45;&gt;Node6 -->
<g id="edge16" class="edge">
<title>Node13&#45;&gt;Node6</title>
<path fill="none" stroke="midnightblue" d="M632.15,-58.86C701.79,-48.2 843.84,-26.47 909.84,-16.38"/>
<polygon fill="midnightblue" stroke="midnightblue" points="910.4,-19.83 919.76,-14.86 909.34,-12.91 910.4,-19.83"/>
</g>
<!-- Node13&#45;&gt;Node7 -->
<g id="edge17" class="edge">
<title>Node13&#45;&gt;Node7</title>
<path fill="none" stroke="midnightblue" d="M610.22,-56.44C628.9,-47.68 658.16,-33.94 679.62,-23.86"/>
<polygon fill="midnightblue" stroke="midnightblue" points="681.3,-26.93 688.86,-19.52 678.32,-20.6 681.3,-26.93"/>
</g>
<!-- Node13&#45;&gt;Node8 -->
<g id="edge18" class="edge">
<title>Node13&#45;&gt;Node8</title>
<path fill="none" stroke="midnightblue" d="M626.86,-56.44C666.71,-46.66 731.75,-30.7 773.18,-20.53"/>
<polygon fill="midnightblue" stroke="midnightblue" points="774.05,-23.92 782.92,-18.14 772.38,-17.12 774.05,-23.92"/>
</g>
<!-- Node13&#45;&gt;Node10 -->
<g id="edge19" class="edge">
<title>Node13&#45;&gt;Node10</title>
<path fill="none" stroke="midnightblue" d="M568.71,-56.44C543.9,-47.33 504.49,-32.85 476.83,-22.69"/>
<polygon fill="midnightblue" stroke="midnightblue" points="477.81,-19.33 467.22,-19.16 475.4,-25.9 477.81,-19.33"/>
</g>
<!-- Node13&#45;&gt;Node11 -->
<g id="edge20" class="edge">
<title>Node13&#45;&gt;Node11</title>
<path fill="none" stroke="midnightblue" d="M551.87,-58.43C495.09,-49.14 390.82,-32.08 324.03,-21.15"/>
<polygon fill="midnightblue" stroke="midnightblue" points="324.49,-17.68 314.05,-19.52 323.36,-24.59 324.49,-17.68"/>
</g>
<!-- Node13&#45;&gt;Node12 -->
<g id="edge21" class="edge">
<title>Node13&#45;&gt;Node12</title>
<path fill="none" stroke="midnightblue" d="M592,-56.08C592,-49.01 592,-38.86 592,-29.99"/>
<polygon fill="midnightblue" stroke="midnightblue" points="595.5,-29.75 592,-19.75 588.5,-29.75 595.5,-29.75"/>
</g>
<!-- Node14&#45;&gt;Node5 -->
<g id="edge24" class="edge">
<title>Node14&#45;&gt;Node5</title>
<path fill="none" stroke="midnightblue" d="M516.63,-286.09C587.02,-280.63 735.97,-267.26 860,-244 894.75,-237.48 902.61,-232.2 937,-224 989.71,-211.43 1050.32,-198.42 1092.28,-189.64"/>
<polygon fill="midnightblue" stroke="midnightblue" points="1093.18,-193.03 1102.26,-187.56 1091.75,-186.18 1093.18,-193.03"/>
</g>
<!-- Node14&#45;&gt;Node9 -->
<g id="edge23" class="edge">
<title>Node14&#45;&gt;Node9</title>
<path fill="none" stroke="midnightblue" d="M477.6,-280.4C481.95,-259.11 495.74,-203.13 526,-168 537.79,-154.32 554.81,-143.63 569.66,-136.12"/>
<polygon fill="midnightblue" stroke="midnightblue" points="571.52,-139.11 579.03,-131.64 568.5,-132.79 571.52,-139.11"/>
</g>
<!-- Node14&#45;&gt;Node11 -->
<g id="edge25" class="edge">
<title>Node14&#45;&gt;Node11</title>
<path fill="none" stroke="midnightblue" d="M435.42,-288.25C320.31,-285.03 0,-268.06 0,-179 0,-179 0,-179 0,-121 0,-35.9 118.97,-15.54 196.57,-11.31"/>
<polygon fill="midnightblue" stroke="midnightblue" points="196.93,-14.8 206.76,-10.84 196.6,-7.81 196.93,-14.8"/>
</g>
<!-- Node14&#45;&gt;Node15 -->
<g id="edge26" class="edge">
<title>Node14&#45;&gt;Node15</title>
<path fill="none" stroke="midnightblue" d="M447.48,-280.44C416.93,-271.28 368.29,-256.69 334.4,-246.52"/>
<polygon fill="midnightblue" stroke="midnightblue" points="334.97,-243.04 324.39,-243.52 332.96,-249.74 334.97,-243.04"/>
</g>
<!-- Node19 -->
<g id="node19" class="node">
<title>Node19</title>
<g id="a_node19"><a xlink:href="Instruction_8hpp.html" target="_top" xlink:title=" ">
<polygon fill="white" stroke="black" points="254.5,-56.5 254.5,-75.5 343.5,-75.5 343.5,-56.5 254.5,-56.5"/>
<text text-anchor="middle" x="299" y="-63.5" font-family="Helvetica,sans-Serif" font-size="10.00">Instruction.hpp</text>
</a>
</g>
</g>
<!-- Node14&#45;&gt;Node19 -->
<g id="edge36" class="edge">
<title>Node14&#45;&gt;Node19</title>
<path fill="none" stroke="midnightblue" d="M435.26,-284.96C344.77,-274.99 132.03,-245.75 95,-188 55.14,-125.84 171.21,-91.4 244.32,-76.34"/>
<polygon fill="midnightblue" stroke="midnightblue" points="245.21,-79.73 254.33,-74.34 243.84,-72.86 245.21,-79.73"/>
</g>
<!-- Node20 -->
<g id="node20" class="node">
<title>Node20</title>
<g id="a_node20"><a xlink:href="DMA_8hpp.html" target="_top" xlink:title=" ">
<polygon fill="white" stroke="black" points="764.5,-224.5 764.5,-243.5 851.5,-243.5 851.5,-224.5 764.5,-224.5"/>
<text text-anchor="middle" x="808" y="-231.5" font-family="Helvetica,sans-Serif" font-size="10.00">DMA/DMA.hpp</text>
</a>
</g>
</g>
<!-- Node14&#45;&gt;Node20 -->
<g id="edge39" class="edge">
<title>Node14&#45;&gt;Node20</title>
<path fill="none" stroke="midnightblue" d="M516.71,-282.38C576.37,-272.67 687.66,-254.57 754.06,-243.77"/>
<polygon fill="midnightblue" stroke="midnightblue" points="755.01,-247.16 764.32,-242.1 753.89,-240.26 755.01,-247.16"/>
</g>
<!-- Node15&#45;&gt;Node9 -->
<g id="edge28" class="edge">
<title>Node15&#45;&gt;Node9</title>
<path fill="none" stroke="midnightblue" d="M299.69,-224.16C306.18,-209.82 321.04,-181.73 343,-168 376.62,-146.98 484.19,-133.71 549.34,-127.39"/>
<polygon fill="midnightblue" stroke="midnightblue" points="549.79,-130.87 559.41,-126.44 549.13,-123.9 549.79,-130.87"/>
</g>
<!-- Node15&#45;&gt;Node10 -->
<g id="edge27" class="edge">
<title>Node15&#45;&gt;Node10</title>
<path fill="none" stroke="midnightblue" d="M289.54,-224.29C274.79,-203.23 241.66,-148.58 266,-112 288.96,-77.5 315.7,-95.98 352,-76 379.14,-61.06 408.03,-39.95 426.28,-25.88"/>
<polygon fill="midnightblue" stroke="midnightblue" points="428.6,-28.51 434.33,-19.6 424.29,-22.99 428.6,-28.51"/>
</g>
<!-- Node15&#45;&gt;Node11 -->
<g id="edge29" class="edge">
<title>Node15&#45;&gt;Node11</title>
<path fill="none" stroke="midnightblue" d="M225.86,-226.53C174.62,-220.19 111.35,-208.41 95,-188 42.59,-122.56 171.79,-52.21 232.53,-23.89"/>
<polygon fill="midnightblue" stroke="midnightblue" points="234.36,-26.9 242,-19.56 231.45,-20.54 234.36,-26.9"/>
</g>
<!-- Node16 -->
<g id="node16" class="node">
<title>Node16</title>
<g id="a_node16"><a xlink:href="ARectangleMemory_8hpp.html" target="_top" xlink:title=" ">
<polygon fill="white" stroke="black" points="275.5,-112.5 275.5,-131.5 460.5,-131.5 460.5,-112.5 275.5,-112.5"/>
<text text-anchor="middle" x="368" y="-119.5" font-family="Helvetica,sans-Serif" font-size="10.00">../Memory/ARectangleMemory.hpp</text>
</a>
</g>
</g>
<!-- Node15&#45;&gt;Node16 -->
<g id="edge30" class="edge">
<title>Node15&#45;&gt;Node16</title>
<path fill="none" stroke="midnightblue" d="M296.03,-224.3C296.46,-211.13 298.81,-185.78 310,-168 318.06,-155.19 331.12,-144.58 342.81,-136.89"/>
<polygon fill="midnightblue" stroke="midnightblue" points="344.71,-139.83 351.37,-131.59 341.03,-133.88 344.71,-139.83"/>
</g>
<!-- Node17 -->
<g id="node17" class="node">
<title>Node17</title>
<g id="a_node17"><a xlink:href="InterruptVectors_8hpp.html" target="_top" xlink:title=" ">
<polygon fill="white" stroke="black" points="104,-168.5 104,-187.5 220,-187.5 220,-168.5 104,-168.5"/>
<text text-anchor="middle" x="162" y="-175.5" font-family="Helvetica,sans-Serif" font-size="10.00">InterruptVectors.hpp</text>
</a>
</g>
</g>
<!-- Node15&#45;&gt;Node17 -->
<g id="edge32" class="edge">
<title>Node15&#45;&gt;Node17</title>
<path fill="none" stroke="midnightblue" d="M274.77,-224.44C252.62,-215.52 217.68,-201.44 192.56,-191.32"/>
<polygon fill="midnightblue" stroke="midnightblue" points="193.72,-188.01 183.13,-187.52 191.1,-194.5 193.72,-188.01"/>
</g>
<!-- Node15&#45;&gt;Node18 -->
<g id="edge33" class="edge">
<title>Node15&#45;&gt;Node18</title>
<path fill="none" stroke="midnightblue" d="M312.71,-224.32C329.31,-215.7 355,-202.36 374.22,-192.39"/>
<polygon fill="midnightblue" stroke="midnightblue" points="376.07,-195.37 383.33,-187.65 372.84,-189.16 376.07,-195.37"/>
</g>
<!-- Node16&#45;&gt;Node13 -->
<g id="edge31" class="edge">
<title>Node16&#45;&gt;Node13</title>
<path fill="none" stroke="midnightblue" d="M403.49,-112.44C442.32,-103.08 504.66,-88.06 546.92,-77.87"/>
<polygon fill="midnightblue" stroke="midnightblue" points="547.77,-81.26 556.67,-75.52 546.13,-74.46 547.77,-81.26"/>
</g>
<!-- Node18&#45;&gt;Node10 -->
<g id="edge35" class="edge">
<title>Node18&#45;&gt;Node10</title>
<path fill="none" stroke="midnightblue" d="M423.79,-168.5C439.72,-161.41 459.46,-149.61 469,-132 487.11,-98.57 468.56,-53.31 455.48,-28.71"/>
<polygon fill="midnightblue" stroke="midnightblue" points="458.44,-26.82 450.5,-19.8 452.33,-30.24 458.44,-26.82"/>
</g>
<!-- Node18&#45;&gt;Node16 -->
<g id="edge34" class="edge">
<title>Node18&#45;&gt;Node16</title>
<path fill="none" stroke="midnightblue" d="M394.72,-168.08C390.29,-160.61 383.84,-149.72 378.38,-140.52"/>
<polygon fill="midnightblue" stroke="midnightblue" points="381.29,-138.57 373.19,-131.75 375.27,-142.14 381.29,-138.57"/>
</g>
<!-- Node19&#45;&gt;Node10 -->
<g id="edge37" class="edge">
<title>Node19&#45;&gt;Node10</title>
<path fill="none" stroke="midnightblue" d="M322.13,-56.44C346.77,-47.33 385.92,-32.85 413.39,-22.69"/>
<polygon fill="midnightblue" stroke="midnightblue" points="414.76,-25.91 422.93,-19.16 412.34,-19.35 414.76,-25.91"/>
</g>
<!-- Node19&#45;&gt;Node11 -->
<g id="edge38" class="edge">
<title>Node19&#45;&gt;Node11</title>
<path fill="none" stroke="midnightblue" d="M292.89,-56.08C287.72,-48.53 280.15,-37.49 273.81,-28.23"/>
<polygon fill="midnightblue" stroke="midnightblue" points="276.54,-26.02 268,-19.75 270.76,-29.98 276.54,-26.02"/>
</g>
<!-- Node20&#45;&gt;Node5 -->
<g id="edge43" class="edge">
<title>Node20&#45;&gt;Node5</title>
<path fill="none" stroke="midnightblue" d="M851.58,-226C910.02,-216.6 1014.15,-199.87 1081.09,-189.11"/>
<polygon fill="midnightblue" stroke="midnightblue" points="1081.77,-192.55 1091.09,-187.5 1080.66,-185.63 1081.77,-192.55"/>
</g>
<!-- Node20&#45;&gt;Node6 -->
<g id="edge40" class="edge">
<title>Node20&#45;&gt;Node6</title>
<path fill="none" stroke="midnightblue" d="M817.43,-224.3C826.47,-215.65 840.17,-201.72 850,-188 888.86,-133.77 922.69,-61.75 937.31,-28.81"/>
<polygon fill="midnightblue" stroke="midnightblue" points="940.55,-30.13 941.36,-19.56 934.14,-27.32 940.55,-30.13"/>
</g>
<!-- Node20&#45;&gt;Node8 -->
<g id="edge41" class="edge">
<title>Node20&#45;&gt;Node8</title>
<path fill="none" stroke="midnightblue" d="M814.1,-224.19C819.75,-215.46 827.76,-201.48 831,-188 836.62,-164.66 850.44,-195.74 826,-56 824.43,-47.03 821.58,-37.36 818.86,-29.29"/>
<polygon fill="midnightblue" stroke="midnightblue" points="822.13,-28.04 815.48,-19.8 815.54,-30.39 822.13,-28.04"/>
</g>
<!-- Node20&#45;&gt;Node11 -->
<g id="edge42" class="edge">
<title>Node20&#45;&gt;Node11</title>
<path fill="none" stroke="midnightblue" d="M785.72,-224.44C720.85,-199.62 532.71,-128.34 469,-112 420.16,-99.47 277.7,-114.37 245,-76 233.58,-62.6 241.54,-42.41 249.99,-28.09"/>
<polygon fill="midnightblue" stroke="midnightblue" points="252.95,-29.96 255.42,-19.66 247.06,-26.17 252.95,-29.96"/>
</g>
<!-- Node21&#45;&gt;Node5 -->
<g id="edge49" class="edge">
<title>Node21&#45;&gt;Node5</title>
<path fill="none" stroke="midnightblue" d="M1011.04,-224.44C1037.62,-215.36 1079.81,-200.94 1109.52,-190.78"/>
<polygon fill="midnightblue" stroke="midnightblue" points="1110.75,-194.06 1119.08,-187.52 1108.49,-187.44 1110.75,-194.06"/>
</g>
<!-- Node21&#45;&gt;Node6 -->
<g id="edge47" class="edge">
<title>Node21&#45;&gt;Node6</title>
<path fill="none" stroke="midnightblue" d="M1026.36,-231.34C1087.35,-227.88 1198.49,-217.6 1223,-188 1228.67,-181.15 1226.58,-176.14 1223,-168 1193.39,-100.61 1165.18,-92.05 1101,-56 1062.64,-34.45 1013.05,-22.45 980.2,-16.37"/>
<polygon fill="midnightblue" stroke="midnightblue" points="980.61,-12.88 970.15,-14.59 979.39,-19.78 980.61,-12.88"/>
</g>
<!-- Node21&#45;&gt;Node9 -->
<g id="edge48" class="edge">
<title>Node21&#45;&gt;Node9</title>
<path fill="none" stroke="midnightblue" d="M945.61,-229.21C895.31,-223.7 807.2,-211.49 735,-188 729.46,-186.2 665.2,-154.66 627.72,-136.19"/>
<polygon fill="midnightblue" stroke="midnightblue" points="628.89,-132.87 618.37,-131.58 625.79,-139.15 628.89,-132.87"/>
</g>
<!-- Node21&#45;&gt;Node18 -->
<g id="edge53" class="edge">
<title>Node21&#45;&gt;Node18</title>
<path fill="none" stroke="midnightblue" d="M945.72,-229.29C843.96,-219.91 576.24,-195.24 457.79,-184.33"/>
<polygon fill="midnightblue" stroke="midnightblue" points="458.1,-180.84 447.82,-183.41 457.46,-187.81 458.1,-180.84"/>
</g>
<!-- Node21&#45;&gt;Node22 -->
<g id="edge50" class="edge">
<title>Node21&#45;&gt;Node22</title>
<path fill="none" stroke="midnightblue" d="M986,-224.08C986,-217.01 986,-206.86 986,-197.99"/>
<polygon fill="midnightblue" stroke="midnightblue" points="989.5,-197.75 986,-187.75 982.5,-197.75 989.5,-197.75"/>
</g>
<!-- Node24 -->
<g id="node24" class="node">
<title>Node24</title>
<g id="a_node24"><a xlink:href="Vector2_8hpp.html" target="_top" xlink:title=" ">
<polygon fill="white" stroke="black" points="1281,-168.5 1281,-187.5 1403,-187.5 1403,-168.5 1281,-168.5"/>
<text text-anchor="middle" x="1342" y="-175.5" font-family="Helvetica,sans-Serif" font-size="10.00">../Models/Vector2.hpp</text>
</a>
</g>
</g>
<!-- Node21&#45;&gt;Node24 -->
<g id="edge54" class="edge">
<title>Node21&#45;&gt;Node24</title>
<path fill="none" stroke="midnightblue" d="M1026.15,-226.91C1086.84,-217.7 1202.65,-200.14 1275.91,-189.03"/>
<polygon fill="midnightblue" stroke="midnightblue" points="1276.59,-192.46 1285.95,-187.5 1275.54,-185.54 1276.59,-192.46"/>
</g>
<!-- Node22&#45;&gt;Node10 -->
<g id="edge51" class="edge">
<title>Node22&#45;&gt;Node10</title>
<path fill="none" stroke="midnightblue" d="M959.21,-168.46C916.4,-155.04 829.79,-128.82 755,-112 661.76,-91.03 631.86,-111.18 543,-76 534.72,-72.72 492.23,-43.73 465.99,-25.59"/>
<polygon fill="midnightblue" stroke="midnightblue" points="467.68,-22.51 457.46,-19.69 463.69,-28.26 467.68,-22.51"/>
</g>
<!-- Node23 -->
<g id="node23" class="node">
<title>Node23</title>
<g id="a_node23"><a xlink:title=" ">
<polygon fill="white" stroke="#bfbfbf" points="916,-112.5 916,-131.5 956,-131.5 956,-112.5 916,-112.5"/>
<text text-anchor="middle" x="936" y="-119.5" font-family="Helvetica,sans-Serif" font-size="10.00">span</text>
</a>
</g>
</g>
<!-- Node22&#45;&gt;Node23 -->
<g id="edge52" class="edge">
<title>Node22&#45;&gt;Node23</title>
<path fill="none" stroke="midnightblue" d="M977.74,-168.08C970.54,-160.3 959.89,-148.8 951.15,-139.37"/>
<polygon fill="midnightblue" stroke="midnightblue" points="953.47,-136.71 944.1,-131.75 948.33,-141.47 953.47,-136.71"/>
</g>
<!-- Node25 -->
<g id="node25" class="node">
<title>Node25</title>
<g id="a_node25"><a xlink:title=" ">
<polygon fill="white" stroke="#bfbfbf" points="1431.5,-112.5 1431.5,-131.5 1488.5,-131.5 1488.5,-112.5 1431.5,-112.5"/>
<text text-anchor="middle" x="1460" y="-119.5" font-family="Helvetica,sans-Serif" font-size="10.00">ostream</text>
</a>
</g>
</g>
<!-- Node24&#45;&gt;Node25 -->
<g id="edge55" class="edge">
<title>Node24&#45;&gt;Node25</title>
<path fill="none" stroke="midnightblue" d="M1360.7,-168.44C1379.94,-159.64 1410.15,-145.81 1432.2,-135.72"/>
<polygon fill="midnightblue" stroke="midnightblue" points="1433.75,-138.86 1441.39,-131.52 1430.84,-132.5 1433.75,-138.86"/>
</g>
<!-- Node26 -->
<g id="node26" class="node">
<title>Node26</title>
<g id="a_node26"><a xlink:title=" ">
<polygon fill="white" stroke="#bfbfbf" points="1270.5,-112.5 1270.5,-131.5 1413.5,-131.5 1413.5,-112.5 1270.5,-112.5"/>
<text text-anchor="middle" x="1342" y="-119.5" font-family="Helvetica,sans-Serif" font-size="10.00">SFML/System/Vector2.hpp</text>
</a>
</g>
</g>
<!-- Node24&#45;&gt;Node26 -->
<g id="edge56" class="edge">
<title>Node24&#45;&gt;Node26</title>
<path fill="none" stroke="midnightblue" d="M1342,-168.08C1342,-161.01 1342,-150.86 1342,-141.99"/>
<polygon fill="midnightblue" stroke="midnightblue" points="1345.5,-141.75 1342,-131.75 1338.5,-141.75 1345.5,-141.75"/>
</g>
<!-- Node27&#45;&gt;Node8 -->
<g id="edge58" class="edge">
<title>Node27&#45;&gt;Node8</title>
<path fill="none" stroke="midnightblue" d="M642.49,-224.41C648.79,-203.61 666.93,-149.5 695,-112 722.33,-75.49 764.94,-42.94 790.5,-25.19"/>
<polygon fill="midnightblue" stroke="midnightblue" points="792.48,-28.07 798.77,-19.54 788.54,-22.28 792.48,-28.07"/>
</g>
<!-- Node27&#45;&gt;Node9 -->
<g id="edge63" class="edge">
<title>Node27&#45;&gt;Node9</title>
<path fill="none" stroke="midnightblue" d="M599.37,-227.15C575.71,-221.43 547.72,-210.16 533,-188 519.2,-167.22 546.07,-148.1 569.99,-136.06"/>
<polygon fill="midnightblue" stroke="midnightblue" points="571.73,-139.1 579.26,-131.65 568.73,-132.78 571.73,-139.1"/>
</g>
<!-- Node27&#45;&gt;Node18 -->
<g id="edge64" class="edge">
<title>Node27&#45;&gt;Node18</title>
<path fill="none" stroke="midnightblue" d="M601.97,-224.44C560.19,-215.04 493.02,-199.93 447.73,-189.74"/>
<polygon fill="midnightblue" stroke="midnightblue" points="448.38,-186.3 437.85,-187.52 446.84,-193.13 448.38,-186.3"/>
</g>
<!-- Node27&#45;&gt;Node22 -->
<g id="edge67" class="edge">
<title>Node27&#45;&gt;Node22</title>
<path fill="none" stroke="midnightblue" d="M680.71,-226.65C740.04,-217.39 850.88,-200.09 921.43,-189.08"/>
<polygon fill="midnightblue" stroke="midnightblue" points="922.19,-192.5 931.53,-187.5 921.11,-185.58 922.19,-192.5"/>
</g>
<!-- Node28 -->
<g id="node28" class="node">
<title>Node28</title>
<g id="a_node28"><a xlink:href="DSP_8hpp.html" target="_top" xlink:title=" ">
<polygon fill="white" stroke="black" points="744,-168.5 744,-187.5 822,-187.5 822,-168.5 744,-168.5"/>
<text text-anchor="middle" x="783" y="-175.5" font-family="Helvetica,sans-Serif" font-size="10.00">DSP/DSP.hpp</text>
</a>
</g>
</g>
<!-- Node27&#45;&gt;Node28 -->
<g id="edge59" class="edge">
<title>Node27&#45;&gt;Node28</title>
<path fill="none" stroke="midnightblue" d="M662.66,-224.44C686.4,-215.48 723.91,-201.31 750.74,-191.18"/>
<polygon fill="midnightblue" stroke="midnightblue" points="752.33,-194.32 760.45,-187.52 749.86,-187.77 752.33,-194.32"/>
</g>
<!-- Node30 -->
<g id="node30" class="node">
<title>Node30</title>
<g id="a_node30"><a xlink:href="IPL_8hpp.html" target="_top" xlink:title=" ">
<polygon fill="white" stroke="black" points="542.5,-168.5 542.5,-187.5 611.5,-187.5 611.5,-168.5 542.5,-168.5"/>
<text text-anchor="middle" x="577" y="-175.5" font-family="Helvetica,sans-Serif" font-size="10.00">IPL/IPL.hpp</text>
</a>
</g>
</g>
<!-- Node27&#45;&gt;Node30 -->
<g id="edge65" class="edge">
<title>Node27&#45;&gt;Node30</title>
<path fill="none" stroke="midnightblue" d="M629.88,-224.32C620.47,-216.26 606.26,-204.08 594.93,-194.37"/>
<polygon fill="midnightblue" stroke="midnightblue" points="597.18,-191.68 587.31,-187.83 592.62,-197 597.18,-191.68"/>
</g>
<!-- Node28&#45;&gt;Node6 -->
<g id="edge60" class="edge">
<title>Node28&#45;&gt;Node6</title>
<path fill="none" stroke="midnightblue" d="M791.71,-168.08C817.87,-141.27 896.02,-61.19 929.5,-26.89"/>
<polygon fill="midnightblue" stroke="midnightblue" points="932.16,-29.17 936.64,-19.57 927.15,-24.28 932.16,-29.17"/>
</g>
<!-- Node28&#45;&gt;Node9 -->
<g id="edge62" class="edge">
<title>Node28&#45;&gt;Node9</title>
<path fill="none" stroke="midnightblue" d="M754.16,-168.44C723.14,-159.24 673.67,-144.56 639.38,-134.39"/>
<polygon fill="midnightblue" stroke="midnightblue" points="640.29,-131.01 629.7,-131.52 638.29,-137.72 640.29,-131.01"/>
</g>
<!-- Node29 -->
<g id="node29" class="node">
<title>Node29</title>
<g id="a_node29"><a xlink:title=" ">
<polygon fill="white" stroke="#bfbfbf" points="704,-112.5 704,-131.5 746,-131.5 746,-112.5 704,-112.5"/>
<text text-anchor="middle" x="725" y="-119.5" font-family="Helvetica,sans-Serif" font-size="10.00">array</text>
</a>
</g>
</g>
<!-- Node28&#45;&gt;Node29 -->
<g id="edge61" class="edge">
<title>Node28&#45;&gt;Node29</title>
<path fill="none" stroke="midnightblue" d="M773.68,-168.32C765.11,-160.34 752.19,-148.31 741.81,-138.65"/>
<polygon fill="midnightblue" stroke="midnightblue" points="744.19,-136.09 734.49,-131.83 739.42,-141.21 744.19,-136.09"/>
</g>
<!-- Node30&#45;&gt;Node9 -->
<g id="edge66" class="edge">
<title>Node30&#45;&gt;Node9</title>
<path fill="none" stroke="midnightblue" d="M580.96,-168.08C584.21,-160.77 588.92,-150.18 592.95,-141.1"/>
<polygon fill="midnightblue" stroke="midnightblue" points="596.25,-142.31 597.11,-131.75 589.85,-139.47 596.25,-142.31"/>
</g>
<!-- Node32 -->
<g id="node32" class="node">
<title>Node32</title>
<g id="a_node32"><a xlink:title=" ">
<polygon fill="white" stroke="#bfbfbf" points="1122.5,-224.5 1122.5,-243.5 1217.5,-243.5 1217.5,-224.5 1122.5,-224.5"/>
<text text-anchor="middle" x="1170" y="-231.5" font-family="Helvetica,sans-Serif" font-size="10.00">bits/exception.h</text>
</a>
</g>
</g>
<!-- Node31&#45;&gt;Node32 -->
<g id="edge70" class="edge">
<title>Node31&#45;&gt;Node32</title>
<path fill="none" stroke="midnightblue" d="M1170,-280.08C1170,-273.01 1170,-262.86 1170,-253.99"/>
<polygon fill="midnightblue" stroke="midnightblue" points="1173.5,-253.75 1170,-243.75 1166.5,-253.75 1173.5,-253.75"/>
</g>
</g>
</svg>
