<?xml version="1.0" encoding="UTF-8" standalone="no"?>
<!DOCTYPE svg PUBLIC "-//W3C//DTD SVG 1.1//EN"
 "http://www.w3.org/Graphics/SVG/1.1/DTD/svg11.dtd">
<!-- Generated by graphviz version 2.43.0 (0)
 -->
<!-- Title: ComSquare::Debugger::DisassembledInstruction Pages: 1 -->
<svg width="172pt" height="292pt"
 viewBox="0.00 0.00 172.00 292.00" xmlns="http://www.w3.org/2000/svg" xmlns:xlink="http://www.w3.org/1999/xlink">
<g id="graph0" class="graph" transform="scale(1 1) rotate(0) translate(4 288)">
<title>ComSquare::Debugger::DisassembledInstruction</title>
<polygon fill="white" stroke="transparent" points="-4,4 -4,-288 168,-288 168,4 -4,4"/>
<!-- Node1 -->
<g id="node1" class="node">
<title>Node1</title>
<g id="a_node1"><a xlink:title="Struct representing an instruction in an human readable way (created by disassembling the rom).">
<polygon fill="#bfbfbf" stroke="black" points="0,-0.5 0,-145.5 164,-145.5 164,-0.5 0,-0.5"/>
<text text-anchor="start" x="8" y="-133.5" font-family="Helvetica,sans-Serif" font-size="10.00">ComSquare::Debugger</text>
<text text-anchor="middle" x="82" y="-122.5" font-family="Helvetica,sans-Serif" font-size="10.00">::DisassembledInstruction</text>
<polyline fill="none" stroke="black" points="0,-115.5 164,-115.5 "/>
<text text-anchor="start" x="8" y="-103.5" font-family="Helvetica,sans-Serif" font-size="10.00">+ address</text>
<text text-anchor="start" x="8" y="-92.5" font-family="Helvetica,sans-Serif" font-size="10.00">+ argument</text>
<text text-anchor="start" x="8" y="-81.5" font-family="Helvetica,sans-Serif" font-size="10.00">+ opcode</text>
<text text-anchor="start" x="8" y="-70.5" font-family="Helvetica,sans-Serif" font-size="10.00">+ level</text>
<polyline fill="none" stroke="black" points="0,-63.5 164,-63.5 "/>
<text text-anchor="start" x="8" y="-51.5" font-family="Helvetica,sans-Serif" font-size="10.00">+ DisassembledInstruction()</text>
<text text-anchor="start" x="8" y="-40.5" font-family="Helvetica,sans-Serif" font-size="10.00">+ DisassembledInstruction()</text>
<text text-anchor="start" x="8" y="-29.5" font-family="Helvetica,sans-Serif" font-size="10.00">+ operator=()</text>
<text text-anchor="start" x="8" y="-18.5" font-family="Helvetica,sans-Serif" font-size="10.00">+ ~DisassembledInstruction()</text>
<text text-anchor="start" x="8" y="-7.5" font-family="Helvetica,sans-Serif" font-size="10.00">+ toString()</text>
</a>
</g>
</g>
<!-- Node2 -->
<g id="node2" class="node">
<title>Node2</title>
<g id="a_node2"><a xlink:href="structComSquare_1_1CPU_1_1Instruction.html" target="_top" xlink:title="Struct containing basic information about instructions.">
<polygon fill="white" stroke="black" points="3.5,-182.5 3.5,-283.5 160.5,-283.5 160.5,-182.5 3.5,-182.5"/>
<text text-anchor="middle" x="82" y="-271.5" font-family="Helvetica,sans-Serif" font-size="10.00">ComSquare::CPU::Instruction</text>
<polyline fill="none" stroke="black" points="3.5,-264.5 160.5,-264.5 "/>
<text text-anchor="start" x="11.5" y="-252.5" font-family="Helvetica,sans-Serif" font-size="10.00">+ call</text>
<text text-anchor="start" x="11.5" y="-241.5" font-family="Helvetica,sans-Serif" font-size="10.00">+ cycleCount</text>
<text text-anchor="start" x="11.5" y="-230.5" font-family="Helvetica,sans-Serif" font-size="10.00">+ name</text>
<text text-anchor="start" x="11.5" y="-219.5" font-family="Helvetica,sans-Serif" font-size="10.00">+ addressingMode</text>
<text text-anchor="start" x="11.5" y="-208.5" font-family="Helvetica,sans-Serif" font-size="10.00">+ size</text>
<polyline fill="none" stroke="black" points="3.5,-201.5 160.5,-201.5 "/>
<text text-anchor="middle" x="82" y="-189.5" font-family="Helvetica,sans-Serif" font-size="10.00"> </text>
</a>
</g>
</g>
<!-- Node2&#45;&gt;Node1 -->
<g id="edge1" class="edge">
<title>Node2&#45;&gt;Node1</title>
<path fill="none" stroke="midnightblue" d="M82,-172.38C82,-163.66 82,-154.59 82,-145.66"/>
<polygon fill="none" stroke="midnightblue" points="78.5,-172.44 82,-182.44 85.5,-172.44 78.5,-172.44"/>
</g>
</g>
</svg>
