<?xml version="1.0" encoding="UTF-8" standalone="no"?>
<!DOCTYPE svg PUBLIC "-//W3C//DTD SVG 1.1//EN"
 "http://www.w3.org/Graphics/SVG/1.1/DTD/svg11.dtd">
<!-- Generated by graphviz version 2.43.0 (0)
 -->
<!-- Title: ComSquare::APU::MemoryMap Pages: 1 -->
<svg width="301pt" height="768pt"
 viewBox="0.00 0.00 301.00 768.00" xmlns="http://www.w3.org/2000/svg" xmlns:xlink="http://www.w3.org/1999/xlink">
<g id="graph0" class="graph" transform="scale(1 1) rotate(0) translate(4 764)">
<title>ComSquare::APU::MemoryMap</title>
<polygon fill="white" stroke="transparent" points="-4,4 -4,-764 297,-764 297,4 -4,4"/>
<!-- Node1 -->
<g id="node1" class="node">
<title>Node1</title>
<g id="a_node1"><a xlink:title=" ">
<polygon fill="#bfbfbf" stroke="black" points="62.5,-0.5 62.5,-90.5 229.5,-90.5 229.5,-0.5 62.5,-0.5"/>
<text text-anchor="middle" x="146" y="-78.5" font-family="Helvetica,sans-Serif" font-size="10.00">ComSquare::APU::MemoryMap</text>
<polyline fill="none" stroke="black" points="62.5,-71.5 229.5,-71.5 "/>
<text text-anchor="middle" x="146" y="-59.5" font-family="Helvetica,sans-Serif" font-size="10.00"> </text>
<polyline fill="none" stroke="black" points="62.5,-52.5 229.5,-52.5 "/>
<text text-anchor="start" x="70.5" y="-40.5" font-family="Helvetica,sans-Serif" font-size="10.00">+ MemoryMap()</text>
<text text-anchor="start" x="70.5" y="-29.5" font-family="Helvetica,sans-Serif" font-size="10.00">+ MemoryMap()</text>
<text text-anchor="start" x="70.5" y="-18.5" font-family="Helvetica,sans-Serif" font-size="10.00">+ operator=()</text>
<text text-anchor="start" x="70.5" y="-7.5" font-family="Helvetica,sans-Serif" font-size="10.00">+ ~MemoryMap()</text>
</a>
</g>
</g>
<!-- Node2 -->
<g id="node2" class="node">
<title>Node2</title>
<g id="a_node2"><a xlink:href="classComSquare_1_1Ram_1_1Ram.html" target="_top" xlink:title=" ">
<polygon fill="white" stroke="black" points="5,-160.5 5,-338.5 135,-338.5 135,-160.5 5,-160.5"/>
<text text-anchor="middle" x="70" y="-326.5" font-family="Helvetica,sans-Serif" font-size="10.00">ComSquare::Ram::Ram</text>
<polyline fill="none" stroke="black" points="5,-319.5 135,-319.5 "/>
<text text-anchor="start" x="13" y="-307.5" font-family="Helvetica,sans-Serif" font-size="10.00"># _data</text>
<text text-anchor="start" x="13" y="-296.5" font-family="Helvetica,sans-Serif" font-size="10.00"># _size</text>
<text text-anchor="start" x="13" y="-285.5" font-family="Helvetica,sans-Serif" font-size="10.00"># _ramType</text>
<text text-anchor="start" x="13" y="-274.5" font-family="Helvetica,sans-Serif" font-size="10.00"># _ramName</text>
<polyline fill="none" stroke="black" points="5,-267.5 135,-267.5 "/>
<text text-anchor="start" x="13" y="-255.5" font-family="Helvetica,sans-Serif" font-size="10.00">+ Ram()</text>
<text text-anchor="start" x="13" y="-244.5" font-family="Helvetica,sans-Serif" font-size="10.00">+ Ram()</text>
<text text-anchor="start" x="13" y="-233.5" font-family="Helvetica,sans-Serif" font-size="10.00">+ operator=()</text>
<text text-anchor="start" x="13" y="-222.5" font-family="Helvetica,sans-Serif" font-size="10.00">+ ~Ram()</text>
<text text-anchor="start" x="13" y="-211.5" font-family="Helvetica,sans-Serif" font-size="10.00">+ read()</text>
<text text-anchor="start" x="13" y="-200.5" font-family="Helvetica,sans-Serif" font-size="10.00">+ write()</text>
<text text-anchor="start" x="13" y="-189.5" font-family="Helvetica,sans-Serif" font-size="10.00">+ getName()</text>
<text text-anchor="start" x="13" y="-178.5" font-family="Helvetica,sans-Serif" font-size="10.00">+ getComponent()</text>
<text text-anchor="start" x="13" y="-167.5" font-family="Helvetica,sans-Serif" font-size="10.00">+ getSize()</text>
</a>
</g>
</g>
<!-- Node2&#45;&gt;Node1 -->
<g id="edge1" class="edge">
<title>Node2&#45;&gt;Node1</title>
<path fill="none" stroke="#404040" d="M103.11,-160.49C110.56,-140.69 118.27,-120.22 125.05,-102.17"/>
<polygon fill="none" stroke="#404040" points="125.14,-101.93 123.51,-94.91 129.37,-90.7 131,-97.73 125.14,-101.93"/>
<text text-anchor="middle" x="146.5" y="-134" font-family="Helvetica,sans-Serif" font-size="10.00"> +Page0</text>
<text text-anchor="middle" x="146.5" y="-123" font-family="Helvetica,sans-Serif" font-size="10.00">+Page1</text>
<text text-anchor="middle" x="146.5" y="-112" font-family="Helvetica,sans-Serif" font-size="10.00">+Memory</text>
</g>
<!-- Node3 -->
<g id="node3" class="node">
<title>Node3</title>
<g id="a_node3"><a xlink:href="classComSquare_1_1Memory_1_1ARectangleMemory.html" target="_top" xlink:title="Base memory class to map non continuous rectangle to the memory. (A rectangle that spam across more t...">
<polygon fill="white" stroke="black" points="0,-376.5 0,-543.5 140,-543.5 140,-376.5 0,-376.5"/>
<text text-anchor="start" x="8" y="-531.5" font-family="Helvetica,sans-Serif" font-size="10.00">ComSquare::Memory::</text>
<text text-anchor="middle" x="70" y="-520.5" font-family="Helvetica,sans-Serif" font-size="10.00">ARectangleMemory</text>
<polyline fill="none" stroke="black" points="0,-513.5 140,-513.5 "/>
<text text-anchor="start" x="8" y="-501.5" font-family="Helvetica,sans-Serif" font-size="10.00"># _startBank</text>
<text text-anchor="start" x="8" y="-490.5" font-family="Helvetica,sans-Serif" font-size="10.00"># _endBank</text>
<text text-anchor="start" x="8" y="-479.5" font-family="Helvetica,sans-Serif" font-size="10.00"># _startPage</text>
<text text-anchor="start" x="8" y="-468.5" font-family="Helvetica,sans-Serif" font-size="10.00"># _endPage</text>
<polyline fill="none" stroke="black" points="0,-461.5 140,-461.5 "/>
<text text-anchor="start" x="8" y="-449.5" font-family="Helvetica,sans-Serif" font-size="10.00">+ getRelativeAddress()</text>
<text text-anchor="start" x="8" y="-438.5" font-family="Helvetica,sans-Serif" font-size="10.00">+ hasMemoryAt()</text>
<text text-anchor="start" x="8" y="-427.5" font-family="Helvetica,sans-Serif" font-size="10.00">+ setMemoryRegion()</text>
<text text-anchor="start" x="8" y="-416.5" font-family="Helvetica,sans-Serif" font-size="10.00">+ isMirror()</text>
<text text-anchor="start" x="8" y="-405.5" font-family="Helvetica,sans-Serif" font-size="10.00">+ getValueName()</text>
<text text-anchor="start" x="8" y="-394.5" font-family="Helvetica,sans-Serif" font-size="10.00">+ getMirrored()</text>
<text text-anchor="start" x="8" y="-383.5" font-family="Helvetica,sans-Serif" font-size="10.00">+ ~ARectangleMemory()</text>
</a>
</g>
</g>
<!-- Node3&#45;&gt;Node2 -->
<g id="edge2" class="edge">
<title>Node3&#45;&gt;Node2</title>
<path fill="none" stroke="midnightblue" d="M70,-366.05C70,-356.92 70,-347.67 70,-338.59"/>
<polygon fill="none" stroke="midnightblue" points="66.5,-366.3 70,-376.3 73.5,-366.3 66.5,-366.3"/>
</g>
<!-- Node4 -->
<g id="node4" class="node">
<title>Node4</title>
<g id="a_node4"><a xlink:href="classComSquare_1_1Memory_1_1IMemory.html" target="_top" xlink:title="Common interface implemented by all components mapping memory.">
<polygon fill="white" stroke="black" points="80.5,-581.5 80.5,-759.5 211.5,-759.5 211.5,-581.5 80.5,-581.5"/>
<text text-anchor="start" x="88.5" y="-747.5" font-family="Helvetica,sans-Serif" font-size="10.00">ComSquare::Memory::</text>
<text text-anchor="middle" x="146" y="-736.5" font-family="Helvetica,sans-Serif" font-size="10.00">IMemory</text>
<polyline fill="none" stroke="black" points="80.5,-729.5 211.5,-729.5 "/>
<text text-anchor="middle" x="146" y="-717.5" font-family="Helvetica,sans-Serif" font-size="10.00"> </text>
<polyline fill="none" stroke="black" points="80.5,-710.5 211.5,-710.5 "/>
<text text-anchor="start" x="88.5" y="-698.5" font-family="Helvetica,sans-Serif" font-size="10.00">+ read()</text>
<text text-anchor="start" x="88.5" y="-687.5" font-family="Helvetica,sans-Serif" font-size="10.00">+ write()</text>
<text text-anchor="start" x="88.5" y="-676.5" font-family="Helvetica,sans-Serif" font-size="10.00">+ hasMemoryAt()</text>
<text text-anchor="start" x="88.5" y="-665.5" font-family="Helvetica,sans-Serif" font-size="10.00">+ getRelativeAddress()</text>
<text text-anchor="start" x="88.5" y="-654.5" font-family="Helvetica,sans-Serif" font-size="10.00">+ getSize()</text>
<text text-anchor="start" x="88.5" y="-643.5" font-family="Helvetica,sans-Serif" font-size="10.00">+ isMirror()</text>
<text text-anchor="start" x="88.5" y="-632.5" font-family="Helvetica,sans-Serif" font-size="10.00">+ getName()</text>
<text text-anchor="start" x="88.5" y="-621.5" font-family="Helvetica,sans-Serif" font-size="10.00">+ getComponent()</text>
<text text-anchor="start" x="88.5" y="-610.5" font-family="Helvetica,sans-Serif" font-size="10.00">+ getValueName()</text>
<text text-anchor="start" x="88.5" y="-599.5" font-family="Helvetica,sans-Serif" font-size="10.00">+ getMirrored()</text>
<text text-anchor="start" x="88.5" y="-588.5" font-family="Helvetica,sans-Serif" font-size="10.00">+ ~IMemory()</text>
</a>
</g>
</g>
<!-- Node4&#45;&gt;Node3 -->
<g id="edge3" class="edge">
<title>Node4&#45;&gt;Node3</title>
<path fill="none" stroke="midnightblue" d="M110.35,-571.7C106.95,-562.38 103.53,-552.99 100.19,-543.83"/>
<polygon fill="none" stroke="midnightblue" points="107.17,-573.18 113.88,-581.38 113.74,-570.79 107.17,-573.18"/>
</g>
<!-- Node6 -->
<g id="node6" class="node">
<title>Node6</title>
<g id="a_node6"><a xlink:href="classComSquare_1_1Memory_1_1AMemory.html" target="_top" xlink:title="Abstract class representing a continuous block of memory.">
<polygon fill="white" stroke="black" points="158.5,-387.5 158.5,-532.5 289.5,-532.5 289.5,-387.5 158.5,-387.5"/>
<text text-anchor="start" x="166.5" y="-520.5" font-family="Helvetica,sans-Serif" font-size="10.00">ComSquare::Memory::</text>
<text text-anchor="middle" x="224" y="-509.5" font-family="Helvetica,sans-Serif" font-size="10.00">AMemory</text>
<polyline fill="none" stroke="black" points="158.5,-502.5 289.5,-502.5 "/>
<text text-anchor="start" x="166.5" y="-490.5" font-family="Helvetica,sans-Serif" font-size="10.00"># _start</text>
<text text-anchor="start" x="166.5" y="-479.5" font-family="Helvetica,sans-Serif" font-size="10.00"># _end</text>
<polyline fill="none" stroke="black" points="158.5,-472.5 289.5,-472.5 "/>
<text text-anchor="start" x="166.5" y="-460.5" font-family="Helvetica,sans-Serif" font-size="10.00">+ getRelativeAddress()</text>
<text text-anchor="start" x="166.5" y="-449.5" font-family="Helvetica,sans-Serif" font-size="10.00">+ setMemoryRegion()</text>
<text text-anchor="start" x="166.5" y="-438.5" font-family="Helvetica,sans-Serif" font-size="10.00">+ hasMemoryAt()</text>
<text text-anchor="start" x="166.5" y="-427.5" font-family="Helvetica,sans-Serif" font-size="10.00">+ isMirror()</text>
<text text-anchor="start" x="166.5" y="-416.5" font-family="Helvetica,sans-Serif" font-size="10.00">+ getValueName()</text>
<text text-anchor="start" x="166.5" y="-405.5" font-family="Helvetica,sans-Serif" font-size="10.00">+ getMirrored()</text>
<text text-anchor="start" x="166.5" y="-394.5" font-family="Helvetica,sans-Serif" font-size="10.00">+ ~AMemory()</text>
</a>
</g>
</g>
<!-- Node4&#45;&gt;Node6 -->
<g id="edge6" class="edge">
<title>Node4&#45;&gt;Node6</title>
<path fill="none" stroke="midnightblue" d="M182.54,-571.82C187.47,-558.65 192.45,-545.33 197.17,-532.72"/>
<polygon fill="none" stroke="midnightblue" points="179.19,-570.79 178.97,-581.38 185.75,-573.24 179.19,-570.79"/>
</g>
<!-- Node5 -->
<g id="node5" class="node">
<title>Node5</title>
<g id="a_node5"><a xlink:href="classComSquare_1_1APU_1_1IPL_1_1IPL.html" target="_top" xlink:title=" ">
<polygon fill="white" stroke="black" points="153,-160.5 153,-338.5 293,-338.5 293,-160.5 153,-160.5"/>
<text text-anchor="middle" x="223" y="-326.5" font-family="Helvetica,sans-Serif" font-size="10.00">ComSquare::APU::IPL::IPL</text>
<polyline fill="none" stroke="black" points="153,-319.5 293,-319.5 "/>
<text text-anchor="start" x="161" y="-307.5" font-family="Helvetica,sans-Serif" font-size="10.00"># _data</text>
<text text-anchor="start" x="161" y="-296.5" font-family="Helvetica,sans-Serif" font-size="10.00"># _size</text>
<text text-anchor="start" x="161" y="-285.5" font-family="Helvetica,sans-Serif" font-size="10.00"># _iplType</text>
<text text-anchor="start" x="161" y="-274.5" font-family="Helvetica,sans-Serif" font-size="10.00"># _iplName</text>
<polyline fill="none" stroke="black" points="153,-267.5 293,-267.5 "/>
<text text-anchor="start" x="161" y="-255.5" font-family="Helvetica,sans-Serif" font-size="10.00">+ IPL()</text>
<text text-anchor="start" x="161" y="-244.5" font-family="Helvetica,sans-Serif" font-size="10.00">+ IPL()</text>
<text text-anchor="start" x="161" y="-233.5" font-family="Helvetica,sans-Serif" font-size="10.00">+ operator=()</text>
<text text-anchor="start" x="161" y="-222.5" font-family="Helvetica,sans-Serif" font-size="10.00">+ ~IPL()</text>
<text text-anchor="start" x="161" y="-211.5" font-family="Helvetica,sans-Serif" font-size="10.00">+ read()</text>
<text text-anchor="start" x="161" y="-200.5" font-family="Helvetica,sans-Serif" font-size="10.00">+ write()</text>
<text text-anchor="start" x="161" y="-189.5" font-family="Helvetica,sans-Serif" font-size="10.00">+ getSize()</text>
<text text-anchor="start" x="161" y="-178.5" font-family="Helvetica,sans-Serif" font-size="10.00">+ getName()</text>
<text text-anchor="start" x="161" y="-167.5" font-family="Helvetica,sans-Serif" font-size="10.00">+ getComponent()</text>
</a>
</g>
</g>
<!-- Node5&#45;&gt;Node1 -->
<g id="edge4" class="edge">
<title>Node5&#45;&gt;Node1</title>
<path fill="none" stroke="#404040" d="M194.15,-160.18C188.13,-143.08 181.6,-125.39 175,-109 174.06,-106.66 173.07,-104.28 172.06,-101.88"/>
<polygon fill="none" stroke="#404040" points="171.95,-101.64 165.89,-97.74 167.17,-90.64 173.23,-94.54 171.95,-101.64"/>
<text text-anchor="middle" x="200" y="-123" font-family="Helvetica,sans-Serif" font-size="10.00"> +IPL</text>
</g>
<!-- Node6&#45;&gt;Node5 -->
<g id="edge5" class="edge">
<title>Node6&#45;&gt;Node5</title>
<path fill="none" stroke="midnightblue" d="M223.61,-377.2C223.55,-364.53 223.48,-351.4 223.42,-338.6"/>
<polygon fill="none" stroke="midnightblue" points="220.11,-377.26 223.66,-387.25 227.11,-377.23 220.11,-377.26"/>
</g>
</g>
</svg>
