<?xml version="1.0" encoding="UTF-8" standalone="no"?>
<!DOCTYPE svg PUBLIC "-//W3C//DTD SVG 1.1//EN"
 "http://www.w3.org/Graphics/SVG/1.1/DTD/svg11.dtd">
<!-- Generated by graphviz version 2.43.0 (0)
 -->
<!-- Title: sources/APU/Instructions/Subroutine.cpp Pages: 1 -->
<svg width="695pt" height="319pt"
 viewBox="0.00 0.00 695.00 319.00" xmlns="http://www.w3.org/2000/svg" xmlns:xlink="http://www.w3.org/1999/xlink">
<g id="graph0" class="graph" transform="scale(1 1) rotate(0) translate(4 315)">
<title>sources/APU/Instructions/Subroutine.cpp</title>
<polygon fill="white" stroke="transparent" points="-4,4 -4,-315 691,-315 691,4 -4,4"/>
<!-- Node1 -->
<g id="node1" class="node">
<title>Node1</title>
<g id="a_node1"><a xlink:title=" ">
<polygon fill="#bfbfbf" stroke="black" points="366.5,-280.5 366.5,-310.5 503.5,-310.5 503.5,-280.5 366.5,-280.5"/>
<text text-anchor="start" x="374.5" y="-298.5" font-family="Helvetica,sans-Serif" font-size="10.00">sources/APU/Instructions</text>
<text text-anchor="middle" x="435" y="-287.5" font-family="Helvetica,sans-Serif" font-size="10.00">/Subroutine.cpp</text>
</a>
</g>
</g>
<!-- Node2 -->
<g id="node2" class="node">
<title>Node2</title>
<g id="a_node2"><a xlink:href="APU_8hpp.html" target="_top" xlink:title=" ">
<polygon fill="white" stroke="black" points="214.5,-224.5 214.5,-243.5 281.5,-243.5 281.5,-224.5 214.5,-224.5"/>
<text text-anchor="middle" x="248" y="-231.5" font-family="Helvetica,sans-Serif" font-size="10.00">../APU.hpp</text>
</a>
</g>
</g>
<!-- Node1&#45;&gt;Node2 -->
<g id="edge1" class="edge">
<title>Node1&#45;&gt;Node2</title>
<path fill="none" stroke="midnightblue" d="M390.68,-280.4C358.37,-270.12 315.1,-256.35 284.71,-246.68"/>
<polygon fill="midnightblue" stroke="midnightblue" points="285.53,-243.27 274.94,-243.57 283.41,-249.94 285.53,-243.27"/>
</g>
<!-- Node18 -->
<g id="node18" class="node">
<title>Node18</title>
<g id="a_node18"><a xlink:href="Utility_8hpp.html" target="_top" xlink:title=" ">
<polygon fill="white" stroke="black" points="554.5,-56.5 554.5,-75.5 671.5,-75.5 671.5,-56.5 554.5,-56.5"/>
<text text-anchor="middle" x="613" y="-63.5" font-family="Helvetica,sans-Serif" font-size="10.00">../../Utility/Utility.hpp</text>
</a>
</g>
</g>
<!-- Node1&#45;&gt;Node18 -->
<g id="edge30" class="edge">
<title>Node1&#45;&gt;Node18</title>
<path fill="none" stroke="midnightblue" d="M476.84,-280.45C516.65,-264.68 574.58,-234.98 603,-188 622.21,-156.25 619.73,-110.95 616.3,-85.75"/>
<polygon fill="midnightblue" stroke="midnightblue" points="619.74,-85.05 614.74,-75.7 612.82,-86.12 619.74,-85.05"/>
</g>
<!-- Node3 -->
<g id="node3" class="node">
<title>Node3</title>
<g id="a_node3"><a xlink:title=" ">
<polygon fill="white" stroke="#bfbfbf" points="0,-0.5 0,-19.5 58,-19.5 58,-0.5 0,-0.5"/>
<text text-anchor="middle" x="29" y="-7.5" font-family="Helvetica,sans-Serif" font-size="10.00">memory</text>
</a>
</g>
</g>
<!-- Node2&#45;&gt;Node3 -->
<g id="edge2" class="edge">
<title>Node2&#45;&gt;Node3</title>
<path fill="none" stroke="midnightblue" d="M214.23,-229.92C163.12,-224.54 69.69,-211.7 47,-188 5.75,-144.92 16.49,-66.12 24.26,-30"/>
<polygon fill="midnightblue" stroke="midnightblue" points="27.76,-30.41 26.6,-19.87 20.94,-28.83 27.76,-30.41"/>
</g>
<!-- Node4 -->
<g id="node4" class="node">
<title>Node4</title>
<g id="a_node4"><a xlink:href="DSP_8hpp.html" target="_top" xlink:title=" ">
<polygon fill="white" stroke="black" points="56,-168.5 56,-187.5 134,-187.5 134,-168.5 56,-168.5"/>
<text text-anchor="middle" x="95" y="-175.5" font-family="Helvetica,sans-Serif" font-size="10.00">DSP/DSP.hpp</text>
</a>
</g>
</g>
<!-- Node2&#45;&gt;Node4 -->
<g id="edge3" class="edge">
<title>Node2&#45;&gt;Node4</title>
<path fill="none" stroke="midnightblue" d="M223.76,-224.44C198.13,-215.4 157.51,-201.06 128.76,-190.92"/>
<polygon fill="midnightblue" stroke="midnightblue" points="129.72,-187.54 119.13,-187.52 127.39,-194.15 129.72,-187.54"/>
</g>
<!-- Node7 -->
<g id="node7" class="node">
<title>Node7</title>
<g id="a_node7"><a xlink:href="AMemory_8hpp.html" target="_top" xlink:title=" ">
<polygon fill="white" stroke="black" points="112.5,-112.5 112.5,-131.5 257.5,-131.5 257.5,-112.5 112.5,-112.5"/>
<text text-anchor="middle" x="185" y="-119.5" font-family="Helvetica,sans-Serif" font-size="10.00">../../Memory/AMemory.hpp</text>
</a>
</g>
</g>
<!-- Node2&#45;&gt;Node7 -->
<g id="edge20" class="edge">
<title>Node2&#45;&gt;Node7</title>
<path fill="none" stroke="midnightblue" d="M237.35,-224.42C227.63,-216.07 213.53,-202.54 205,-188 196.5,-173.52 191.28,-155.07 188.31,-141.53"/>
<polygon fill="midnightblue" stroke="midnightblue" points="191.7,-140.64 186.32,-131.51 184.83,-142 191.7,-140.64"/>
</g>
<!-- Node13 -->
<g id="node13" class="node">
<title>Node13</title>
<g id="a_node13"><a xlink:href="Ram_8hpp.html" target="_top" xlink:title=" ">
<polygon fill="white" stroke="black" points="320.5,-168.5 320.5,-187.5 415.5,-187.5 415.5,-168.5 320.5,-168.5"/>
<text text-anchor="middle" x="368" y="-175.5" font-family="Helvetica,sans-Serif" font-size="10.00">../Ram/Ram.hpp</text>
</a>
</g>
</g>
<!-- Node2&#45;&gt;Node13 -->
<g id="edge21" class="edge">
<title>Node2&#45;&gt;Node13</title>
<path fill="none" stroke="midnightblue" d="M267.01,-224.44C286.59,-215.64 317.31,-201.81 339.73,-191.72"/>
<polygon fill="midnightblue" stroke="midnightblue" points="341.39,-194.81 349.07,-187.52 338.52,-188.43 341.39,-194.81"/>
</g>
<!-- Node15 -->
<g id="node15" class="node">
<title>Node15</title>
<g id="a_node15"><a xlink:href="IPL_8hpp.html" target="_top" xlink:title=" ">
<polygon fill="white" stroke="black" points="213.5,-168.5 213.5,-187.5 282.5,-187.5 282.5,-168.5 213.5,-168.5"/>
<text text-anchor="middle" x="248" y="-175.5" font-family="Helvetica,sans-Serif" font-size="10.00">IPL/IPL.hpp</text>
</a>
</g>
</g>
<!-- Node2&#45;&gt;Node15 -->
<g id="edge25" class="edge">
<title>Node2&#45;&gt;Node15</title>
<path fill="none" stroke="midnightblue" d="M248,-224.08C248,-217.01 248,-206.86 248,-197.99"/>
<polygon fill="midnightblue" stroke="midnightblue" points="251.5,-197.75 248,-187.75 244.5,-197.75 251.5,-197.75"/>
</g>
<!-- Node16 -->
<g id="node16" class="node">
<title>Node16</title>
<g id="a_node16"><a xlink:href="IRenderer_8hpp.html" target="_top" xlink:title=" ">
<polygon fill="white" stroke="black" points="454,-168.5 454,-187.5 594,-187.5 594,-168.5 454,-168.5"/>
<text text-anchor="middle" x="524" y="-175.5" font-family="Helvetica,sans-Serif" font-size="10.00">../Renderer/IRenderer.hpp</text>
</a>
</g>
</g>
<!-- Node2&#45;&gt;Node16 -->
<g id="edge27" class="edge">
<title>Node2&#45;&gt;Node16</title>
<path fill="none" stroke="midnightblue" d="M281.57,-226.43C328.5,-217.25 414.23,-200.48 470.15,-189.54"/>
<polygon fill="midnightblue" stroke="midnightblue" points="471.08,-192.92 480.23,-187.56 469.74,-186.05 471.08,-192.92"/>
</g>
<!-- Node5 -->
<g id="node5" class="node">
<title>Node5</title>
<g id="a_node5"><a xlink:title=" ">
<polygon fill="white" stroke="#bfbfbf" points="76,-0.5 76,-19.5 126,-19.5 126,-0.5 76,-0.5"/>
<text text-anchor="middle" x="101" y="-7.5" font-family="Helvetica,sans-Serif" font-size="10.00">cstdint</text>
</a>
</g>
</g>
<!-- Node4&#45;&gt;Node5 -->
<g id="edge4" class="edge">
<title>Node4&#45;&gt;Node5</title>
<path fill="none" stroke="midnightblue" d="M79.22,-168.47C66.8,-160.77 50.39,-148.18 43,-132 39.3,-123.92 40.71,-120.59 43,-112 51.64,-79.62 73.4,-46.83 87.68,-27.73"/>
<polygon fill="midnightblue" stroke="midnightblue" points="90.5,-29.81 93.81,-19.75 84.95,-25.54 90.5,-29.81"/>
</g>
<!-- Node6 -->
<g id="node6" class="node">
<title>Node6</title>
<g id="a_node6"><a xlink:title=" ">
<polygon fill="white" stroke="#bfbfbf" points="52,-112.5 52,-131.5 94,-131.5 94,-112.5 52,-112.5"/>
<text text-anchor="middle" x="73" y="-119.5" font-family="Helvetica,sans-Serif" font-size="10.00">array</text>
</a>
</g>
</g>
<!-- Node4&#45;&gt;Node6 -->
<g id="edge5" class="edge">
<title>Node4&#45;&gt;Node6</title>
<path fill="none" stroke="midnightblue" d="M91.37,-168.08C88.39,-160.77 84.07,-150.18 80.38,-141.1"/>
<polygon fill="midnightblue" stroke="midnightblue" points="83.58,-139.69 76.57,-131.75 77.1,-142.33 83.58,-139.69"/>
</g>
<!-- Node4&#45;&gt;Node7 -->
<g id="edge6" class="edge">
<title>Node4&#45;&gt;Node7</title>
<path fill="none" stroke="midnightblue" d="M109.46,-168.32C123.5,-159.9 145.05,-146.97 161.54,-137.07"/>
<polygon fill="midnightblue" stroke="midnightblue" points="163.8,-139.8 170.58,-131.65 160.2,-133.8 163.8,-139.8"/>
</g>
<!-- Node7&#45;&gt;Node3 -->
<g id="edge9" class="edge">
<title>Node7&#45;&gt;Node3</title>
<path fill="none" stroke="midnightblue" d="M172.76,-112.37C146.1,-93.57 82.56,-48.77 49.61,-25.53"/>
<polygon fill="midnightblue" stroke="midnightblue" points="51.37,-22.49 41.18,-19.59 47.34,-28.21 51.37,-22.49"/>
</g>
<!-- Node7&#45;&gt;Node5 -->
<g id="edge7" class="edge">
<title>Node7&#45;&gt;Node5</title>
<path fill="none" stroke="midnightblue" d="M178.41,-112.37C164.48,-94.14 131.87,-51.43 113.73,-27.68"/>
<polygon fill="midnightblue" stroke="midnightblue" points="116.41,-25.41 107.56,-19.59 110.85,-29.66 116.41,-25.41"/>
</g>
<!-- Node8 -->
<g id="node8" class="node">
<title>Node8</title>
<g id="a_node8"><a xlink:title=" ">
<polygon fill="white" stroke="#bfbfbf" points="144.5,-0.5 144.5,-19.5 191.5,-19.5 191.5,-0.5 144.5,-0.5"/>
<text text-anchor="middle" x="168" y="-7.5" font-family="Helvetica,sans-Serif" font-size="10.00">vector</text>
</a>
</g>
</g>
<!-- Node7&#45;&gt;Node8 -->
<g id="edge8" class="edge">
<title>Node7&#45;&gt;Node8</title>
<path fill="none" stroke="midnightblue" d="M183.67,-112.37C180.92,-94.62 174.59,-53.67 170.87,-29.6"/>
<polygon fill="midnightblue" stroke="midnightblue" points="174.31,-28.94 169.33,-19.59 167.4,-30.01 174.31,-28.94"/>
</g>
<!-- Node9 -->
<g id="node9" class="node">
<title>Node9</title>
<g id="a_node9"><a xlink:title=" ">
<polygon fill="white" stroke="#bfbfbf" points="502,-0.5 502,-19.5 546,-19.5 546,-0.5 502,-0.5"/>
<text text-anchor="middle" x="524" y="-7.5" font-family="Helvetica,sans-Serif" font-size="10.00">string</text>
</a>
</g>
</g>
<!-- Node7&#45;&gt;Node9 -->
<g id="edge10" class="edge">
<title>Node7&#45;&gt;Node9</title>
<path fill="none" stroke="midnightblue" d="M219.28,-112.44C252.43,-103.94 303.99,-90.17 348,-76 399.36,-59.46 457.94,-37.11 492.9,-23.39"/>
<polygon fill="midnightblue" stroke="midnightblue" points="494.51,-26.52 502.53,-19.6 491.94,-20.01 494.51,-26.52"/>
</g>
<!-- Node10 -->
<g id="node10" class="node">
<title>Node10</title>
<g id="a_node10"><a xlink:href="Int24_8hpp.html" target="_top" xlink:title=" ">
<polygon fill="white" stroke="black" points="210,-0.5 210,-19.5 320,-19.5 320,-0.5 210,-0.5"/>
<text text-anchor="middle" x="265" y="-7.5" font-family="Helvetica,sans-Serif" font-size="10.00">../Models/Int24.hpp</text>
</a>
</g>
</g>
<!-- Node7&#45;&gt;Node10 -->
<g id="edge11" class="edge">
<title>Node7&#45;&gt;Node10</title>
<path fill="none" stroke="midnightblue" d="M188.97,-112.14C194.97,-99.19 207.13,-74.62 221,-56 228.89,-45.4 239.15,-34.77 247.78,-26.5"/>
<polygon fill="midnightblue" stroke="midnightblue" points="250.2,-29.03 255.13,-19.65 245.43,-23.91 250.2,-29.03"/>
</g>
<!-- Node11 -->
<g id="node11" class="node">
<title>Node11</title>
<g id="a_node11"><a xlink:href="Components_8hpp.html" target="_top" xlink:title=" ">
<polygon fill="white" stroke="black" points="338,-0.5 338,-19.5 484,-19.5 484,-0.5 338,-0.5"/>
<text text-anchor="middle" x="411" y="-7.5" font-family="Helvetica,sans-Serif" font-size="10.00">../Models/Components.hpp</text>
</a>
</g>
</g>
<!-- Node7&#45;&gt;Node11 -->
<g id="edge12" class="edge">
<title>Node7&#45;&gt;Node11</title>
<path fill="none" stroke="midnightblue" d="M219.41,-112.43C247.15,-104.82 286.72,-92.38 319,-76 346.58,-62.01 375.19,-40.5 393.03,-26.1"/>
<polygon fill="midnightblue" stroke="midnightblue" points="395.36,-28.72 400.88,-19.67 390.92,-23.3 395.36,-28.72"/>
</g>
<!-- Node12 -->
<g id="node12" class="node">
<title>Node12</title>
<g id="a_node12"><a xlink:href="IMemory_8hpp.html" target="_top" xlink:title=" ">
<polygon fill="white" stroke="black" points="230,-56.5 230,-75.5 310,-75.5 310,-56.5 230,-56.5"/>
<text text-anchor="middle" x="270" y="-63.5" font-family="Helvetica,sans-Serif" font-size="10.00">IMemory.hpp</text>
</a>
</g>
</g>
<!-- Node7&#45;&gt;Node12 -->
<g id="edge13" class="edge">
<title>Node7&#45;&gt;Node12</title>
<path fill="none" stroke="midnightblue" d="M198.66,-112.32C211.92,-103.9 232.27,-90.97 247.85,-81.07"/>
<polygon fill="midnightblue" stroke="midnightblue" points="249.81,-83.97 256.38,-75.65 246.06,-78.06 249.81,-83.97"/>
</g>
<!-- Node12&#45;&gt;Node3 -->
<g id="edge16" class="edge">
<title>Node12&#45;&gt;Node3</title>
<path fill="none" stroke="midnightblue" d="M230.67,-56.46C191.82,-47.98 130.46,-34.49 68.06,-20.22"/>
<polygon fill="midnightblue" stroke="midnightblue" points="68.57,-16.74 58.04,-17.92 67,-23.57 68.57,-16.74"/>
</g>
<!-- Node12&#45;&gt;Node5 -->
<g id="edge14" class="edge">
<title>Node12&#45;&gt;Node5</title>
<path fill="none" stroke="midnightblue" d="M243.22,-56.44C214.16,-47.16 167.66,-32.3 135.79,-22.12"/>
<polygon fill="midnightblue" stroke="midnightblue" points="136.59,-18.7 126,-18.99 134.46,-25.37 136.59,-18.7"/>
</g>
<!-- Node12&#45;&gt;Node8 -->
<g id="edge15" class="edge">
<title>Node12&#45;&gt;Node8</title>
<path fill="none" stroke="midnightblue" d="M253.61,-56.32C237.33,-47.7 212.13,-34.36 193.28,-24.39"/>
<polygon fill="midnightblue" stroke="midnightblue" points="194.82,-21.24 184.35,-19.65 191.55,-27.43 194.82,-21.24"/>
</g>
<!-- Node12&#45;&gt;Node9 -->
<g id="edge17" class="edge">
<title>Node12&#45;&gt;Node9</title>
<path fill="none" stroke="midnightblue" d="M310.1,-57.95C352.9,-50.2 422.88,-36.86 491.97,-20.1"/>
<polygon fill="midnightblue" stroke="midnightblue" points="492.83,-23.49 501.71,-17.71 491.16,-16.69 492.83,-23.49"/>
</g>
<!-- Node12&#45;&gt;Node10 -->
<g id="edge18" class="edge">
<title>Node12&#45;&gt;Node10</title>
<path fill="none" stroke="midnightblue" d="M269.17,-56.08C268.52,-49.01 267.58,-38.86 266.76,-29.99"/>
<polygon fill="midnightblue" stroke="midnightblue" points="270.22,-29.39 265.81,-19.75 263.25,-30.03 270.22,-29.39"/>
</g>
<!-- Node12&#45;&gt;Node11 -->
<g id="edge19" class="edge">
<title>Node12&#45;&gt;Node11</title>
<path fill="none" stroke="midnightblue" d="M292.34,-56.44C315.75,-47.48 352.74,-33.31 379.19,-23.18"/>
<polygon fill="midnightblue" stroke="midnightblue" points="380.68,-26.36 388.76,-19.52 378.17,-19.82 380.68,-26.36"/>
</g>
<!-- Node13&#45;&gt;Node9 -->
<g id="edge24" class="edge">
<title>Node13&#45;&gt;Node9</title>
<path fill="none" stroke="midnightblue" d="M403.38,-168.4C424.94,-161.6 451.76,-150.16 470,-132 499.11,-103.01 513.88,-55.59 520.16,-29.56"/>
<polygon fill="midnightblue" stroke="midnightblue" points="523.63,-30.05 522.4,-19.53 516.8,-28.52 523.63,-30.05"/>
</g>
<!-- Node14 -->
<g id="node14" class="node">
<title>Node14</title>
<g id="a_node14"><a xlink:href="ARectangleMemory_8hpp.html" target="_top" xlink:title=" ">
<polygon fill="white" stroke="black" points="275.5,-112.5 275.5,-131.5 460.5,-131.5 460.5,-112.5 275.5,-112.5"/>
<text text-anchor="middle" x="368" y="-119.5" font-family="Helvetica,sans-Serif" font-size="10.00">../Memory/ARectangleMemory.hpp</text>
</a>
</g>
</g>
<!-- Node13&#45;&gt;Node14 -->
<g id="edge22" class="edge">
<title>Node13&#45;&gt;Node14</title>
<path fill="none" stroke="midnightblue" d="M368,-168.08C368,-161.01 368,-150.86 368,-141.99"/>
<polygon fill="midnightblue" stroke="midnightblue" points="371.5,-141.75 368,-131.75 364.5,-141.75 371.5,-141.75"/>
</g>
<!-- Node14&#45;&gt;Node12 -->
<g id="edge23" class="edge">
<title>Node14&#45;&gt;Node12</title>
<path fill="none" stroke="midnightblue" d="M352.25,-112.32C336.68,-103.74 312.62,-90.49 294.54,-80.52"/>
<polygon fill="midnightblue" stroke="midnightblue" points="296.15,-77.42 285.71,-75.65 292.78,-83.55 296.15,-77.42"/>
</g>
<!-- Node15&#45;&gt;Node7 -->
<g id="edge26" class="edge">
<title>Node15&#45;&gt;Node7</title>
<path fill="none" stroke="midnightblue" d="M237.88,-168.32C228.47,-160.26 214.26,-148.08 202.93,-138.37"/>
<polygon fill="midnightblue" stroke="midnightblue" points="205.18,-135.68 195.31,-131.83 200.62,-141 205.18,-135.68"/>
</g>
<!-- Node16&#45;&gt;Node9 -->
<g id="edge28" class="edge">
<title>Node16&#45;&gt;Node9</title>
<path fill="none" stroke="midnightblue" d="M524,-168.08C524,-141.95 524,-65.21 524,-29.58"/>
<polygon fill="midnightblue" stroke="midnightblue" points="527.5,-29.57 524,-19.57 520.5,-29.57 527.5,-29.57"/>
</g>
<!-- Node17 -->
<g id="node17" class="node">
<title>Node17</title>
<g id="a_node17"><a xlink:title=" ">
<polygon fill="white" stroke="#bfbfbf" points="554,-112.5 554,-131.5 594,-131.5 594,-112.5 554,-112.5"/>
<text text-anchor="middle" x="574" y="-119.5" font-family="Helvetica,sans-Serif" font-size="10.00">span</text>
</a>
</g>
</g>
<!-- Node16&#45;&gt;Node17 -->
<g id="edge29" class="edge">
<title>Node16&#45;&gt;Node17</title>
<path fill="none" stroke="midnightblue" d="M532.26,-168.08C539.46,-160.3 550.11,-148.8 558.85,-139.37"/>
<polygon fill="midnightblue" stroke="midnightblue" points="561.67,-141.47 565.9,-131.75 556.53,-136.71 561.67,-141.47"/>
</g>
<!-- Node18&#45;&gt;Node9 -->
<g id="edge31" class="edge">
<title>Node18&#45;&gt;Node9</title>
<path fill="none" stroke="midnightblue" d="M598.7,-56.32C584.82,-47.9 563.51,-34.97 547.2,-25.07"/>
<polygon fill="midnightblue" stroke="midnightblue" points="548.63,-21.85 538.26,-19.65 545,-27.83 548.63,-21.85"/>
</g>
<!-- Node18&#45;&gt;Node10 -->
<g id="edge34" class="edge">
<title>Node18&#45;&gt;Node10</title>
<path fill="none" stroke="midnightblue" d="M557.86,-56.44C496.01,-46.85 395.77,-31.29 330.11,-21.1"/>
<polygon fill="midnightblue" stroke="midnightblue" points="330.3,-17.59 319.88,-19.52 329.23,-24.51 330.3,-17.59"/>
</g>
<!-- Node19 -->
<g id="node19" class="node">
<title>Node19</title>
<g id="a_node19"><a xlink:title=" ">
<polygon fill="white" stroke="#bfbfbf" points="581.5,-0.5 581.5,-19.5 612.5,-19.5 612.5,-0.5 581.5,-0.5"/>
<text text-anchor="middle" x="597" y="-7.5" font-family="Helvetica,sans-Serif" font-size="10.00">ios</text>
</a>
</g>
</g>
<!-- Node18&#45;&gt;Node19 -->
<g id="edge32" class="edge">
<title>Node18&#45;&gt;Node19</title>
<path fill="none" stroke="midnightblue" d="M610.36,-56.08C608.21,-48.85 605.12,-38.41 602.45,-29.4"/>
<polygon fill="midnightblue" stroke="midnightblue" points="605.79,-28.34 599.59,-19.75 599.08,-30.33 605.79,-28.34"/>
</g>
<!-- Node20 -->
<g id="node20" class="node">
<title>Node20</title>
<g id="a_node20"><a xlink:title=" ">
<polygon fill="white" stroke="#bfbfbf" points="631,-0.5 631,-19.5 687,-19.5 687,-0.5 631,-0.5"/>
<text text-anchor="middle" x="659" y="-7.5" font-family="Helvetica,sans-Serif" font-size="10.00">sstream</text>
</a>
</g>
</g>
<!-- Node18&#45;&gt;Node20 -->
<g id="edge33" class="edge">
<title>Node18&#45;&gt;Node20</title>
<path fill="none" stroke="midnightblue" d="M620.6,-56.08C627.23,-48.3 637.02,-36.8 645.06,-27.37"/>
<polygon fill="midnightblue" stroke="midnightblue" points="647.73,-29.63 651.55,-19.75 642.4,-25.09 647.73,-29.63"/>
</g>
</g>
</svg>
