<?xml version="1.0" encoding="UTF-8" standalone="no"?>
<!DOCTYPE svg PUBLIC "-//W3C//DTD SVG 1.1//EN"
 "http://www.w3.org/Graphics/SVG/1.1/DTD/svg11.dtd">
<!-- Generated by graphviz version 2.43.0 (0)
 -->
<!-- Title: tests/CPU/testAddressingMode.cpp Pages: 1 -->
<svg width="1415pt" height="509pt"
 viewBox="0.00 0.00 1415.22 509.00" xmlns="http://www.w3.org/2000/svg" xmlns:xlink="http://www.w3.org/1999/xlink">
<g id="graph0" class="graph" transform="scale(1 1) rotate(0) translate(4 505)">
<title>tests/CPU/testAddressingMode.cpp</title>
<polygon fill="white" stroke="transparent" points="-4,4 -4,-505 1411.22,-505 1411.22,4 -4,4"/>
<!-- Node1 -->
<g id="node1" class="node">
<title>Node1</title>
<g id="a_node1"><a xlink:title=" ">
<polygon fill="#bfbfbf" stroke="black" points="301.22,-470.5 301.22,-500.5 441.22,-500.5 441.22,-470.5 301.22,-470.5"/>
<text text-anchor="start" x="309.22" y="-488.5" font-family="Helvetica,sans-Serif" font-size="10.00">tests/CPU/testAddressing</text>
<text text-anchor="middle" x="371.22" y="-477.5" font-family="Helvetica,sans-Serif" font-size="10.00">Mode.cpp</text>
</a>
</g>
</g>
<!-- Node2 -->
<g id="node2" class="node">
<title>Node2</title>
<g id="a_node2"><a xlink:title=" ">
<polygon fill="white" stroke="#bfbfbf" points="213.22,-358.5 213.22,-377.5 323.22,-377.5 323.22,-358.5 213.22,-358.5"/>
<text text-anchor="middle" x="268.22" y="-365.5" font-family="Helvetica,sans-Serif" font-size="10.00">criterion/criterion.h</text>
</a>
</g>
</g>
<!-- Node1&#45;&gt;Node2 -->
<g id="edge1" class="edge">
<title>Node1&#45;&gt;Node2</title>
<path fill="none" stroke="midnightblue" d="M337.78,-470.29C321.44,-461.86 302.66,-449.72 290.22,-434 279.59,-420.59 273.97,-401.77 271.07,-387.83"/>
<polygon fill="midnightblue" stroke="midnightblue" points="274.5,-387.12 269.29,-377.89 267.61,-388.35 274.5,-387.12"/>
</g>
<!-- Node3 -->
<g id="node3" class="node">
<title>Node3</title>
<g id="a_node3"><a xlink:title=" ">
<polygon fill="white" stroke="#bfbfbf" points="299.22,-414.5 299.22,-433.5 343.22,-433.5 343.22,-414.5 299.22,-414.5"/>
<text text-anchor="middle" x="321.22" y="-421.5" font-family="Helvetica,sans-Serif" font-size="10.00">bitset</text>
</a>
</g>
</g>
<!-- Node1&#45;&gt;Node3 -->
<g id="edge2" class="edge">
<title>Node1&#45;&gt;Node3</title>
<path fill="none" stroke="midnightblue" d="M359.37,-470.4C352.1,-461.75 342.76,-450.64 335.14,-441.58"/>
<polygon fill="midnightblue" stroke="midnightblue" points="337.6,-439.06 328.49,-433.66 332.24,-443.57 337.6,-439.06"/>
</g>
<!-- Node4 -->
<g id="node4" class="node">
<title>Node4</title>
<g id="a_node4"><a xlink:title=" ">
<polygon fill="white" stroke="#bfbfbf" points="341.22,-358.5 341.22,-377.5 401.22,-377.5 401.22,-358.5 341.22,-358.5"/>
<text text-anchor="middle" x="371.22" y="-365.5" font-family="Helvetica,sans-Serif" font-size="10.00">iostream</text>
</a>
</g>
</g>
<!-- Node1&#45;&gt;Node4 -->
<g id="edge3" class="edge">
<title>Node1&#45;&gt;Node4</title>
<path fill="none" stroke="midnightblue" d="M371.22,-470.34C371.22,-449.62 371.22,-411.02 371.22,-387.9"/>
<polygon fill="midnightblue" stroke="midnightblue" points="374.72,-387.67 371.22,-377.67 367.72,-387.67 374.72,-387.67"/>
</g>
<!-- Node5 -->
<g id="node5" class="node">
<title>Node5</title>
<g id="a_node5"><a xlink:href="tests_8hpp.html" target="_top" xlink:title=" ">
<polygon fill="white" stroke="black" points="399.72,-414.5 399.72,-433.5 470.72,-433.5 470.72,-414.5 399.72,-414.5"/>
<text text-anchor="middle" x="435.22" y="-421.5" font-family="Helvetica,sans-Serif" font-size="10.00">../tests.hpp</text>
</a>
</g>
</g>
<!-- Node1&#45;&gt;Node5 -->
<g id="edge4" class="edge">
<title>Node1&#45;&gt;Node5</title>
<path fill="none" stroke="midnightblue" d="M386.38,-470.4C395.97,-461.49 408.38,-449.95 418.28,-440.74"/>
<polygon fill="midnightblue" stroke="midnightblue" points="420.96,-443.03 425.9,-433.66 416.2,-437.9 420.96,-443.03"/>
</g>
<!-- Node19 -->
<g id="node19" class="node">
<title>Node19</title>
<g id="a_node19"><a xlink:href="SNES_8hpp.html" target="_top" xlink:title=" ">
<polygon fill="white" stroke="black" points="526.72,-358.5 526.72,-377.5 639.72,-377.5 639.72,-358.5 526.72,-358.5"/>
<text text-anchor="middle" x="583.22" y="-365.5" font-family="Helvetica,sans-Serif" font-size="10.00">../sources/SNES.hpp</text>
</a>
</g>
</g>
<!-- Node1&#45;&gt;Node19 -->
<g id="edge80" class="edge">
<title>Node1&#45;&gt;Node19</title>
<path fill="none" stroke="midnightblue" d="M414.23,-470.48C439.21,-461.56 470.85,-448.89 497.22,-434 522.75,-419.58 549.24,-398.46 565.96,-384.25"/>
<polygon fill="midnightblue" stroke="midnightblue" points="568.47,-386.7 573.75,-377.51 563.89,-381.4 568.47,-386.7"/>
</g>
<!-- Node5&#45;&gt;Node2 -->
<g id="edge23" class="edge">
<title>Node5&#45;&gt;Node2</title>
<path fill="none" stroke="midnightblue" d="M408.75,-414.44C380.54,-405.32 335.68,-390.81 304.25,-380.65"/>
<polygon fill="midnightblue" stroke="midnightblue" points="305.15,-377.26 294.55,-377.52 302.99,-383.92 305.15,-377.26"/>
</g>
<!-- Node5&#45;&gt;Node4 -->
<g id="edge24" class="edge">
<title>Node5&#45;&gt;Node4</title>
<path fill="none" stroke="midnightblue" d="M424.93,-414.32C415.38,-406.26 400.94,-394.08 389.43,-384.37"/>
<polygon fill="midnightblue" stroke="midnightblue" points="391.59,-381.61 381.69,-377.83 387.07,-386.96 391.59,-381.61"/>
</g>
<!-- Node5&#45;&gt;Node5 -->
<g id="edge26" class="edge">
<title>Node5&#45;&gt;Node5</title>
<path fill="none" stroke="midnightblue" d="M458.03,-433.53C473.54,-436.31 488.72,-433.13 488.72,-424 488.72,-416.86 479.45,-413.37 468.01,-413.5"/>
<polygon fill="midnightblue" stroke="midnightblue" points="467.65,-410.02 458.03,-414.47 468.33,-416.99 467.65,-410.02"/>
</g>
<!-- Node6 -->
<g id="node6" class="node">
<title>Node6</title>
<g id="a_node6"><a xlink:href="MemoryBus_8hpp.html" target="_top" xlink:title=" ">
<polygon fill="white" stroke="black" points="893.22,-168.5 893.22,-198.5 1043.22,-198.5 1043.22,-168.5 893.22,-168.5"/>
<text text-anchor="start" x="901.22" y="-186.5" font-family="Helvetica,sans-Serif" font-size="10.00">../sources/Memory/Memory</text>
<text text-anchor="middle" x="968.22" y="-175.5" font-family="Helvetica,sans-Serif" font-size="10.00">Bus.hpp</text>
</a>
</g>
</g>
<!-- Node5&#45;&gt;Node6 -->
<g id="edge5" class="edge">
<title>Node5&#45;&gt;Node6</title>
<path fill="none" stroke="midnightblue" d="M470.82,-418.12C538.82,-407.78 690.58,-379.72 805.22,-322 853,-297.94 864.85,-290.11 905.22,-255 922.09,-240.32 938.85,-221.3 950.84,-206.71"/>
<polygon fill="midnightblue" stroke="midnightblue" points="953.74,-208.68 957.31,-198.7 948.3,-204.28 953.74,-208.68"/>
</g>
<!-- Node15 -->
<g id="node15" class="node">
<title>Node15</title>
<g id="a_node15"><a xlink:title=" ">
<polygon fill="white" stroke="#bfbfbf" points="457.72,-358.5 457.72,-377.5 508.72,-377.5 508.72,-358.5 457.72,-358.5"/>
<text text-anchor="middle" x="483.22" y="-365.5" font-family="Helvetica,sans-Serif" font-size="10.00">zconf.h</text>
</a>
</g>
</g>
<!-- Node5&#45;&gt;Node15 -->
<g id="edge25" class="edge">
<title>Node5&#45;&gt;Node15</title>
<path fill="none" stroke="midnightblue" d="M443.14,-414.08C450.06,-406.3 460.28,-394.8 468.67,-385.37"/>
<polygon fill="midnightblue" stroke="midnightblue" points="471.41,-387.55 475.44,-377.75 466.18,-382.9 471.41,-387.55"/>
</g>
<!-- Node16 -->
<g id="node16" class="node">
<title>Node16</title>
<g id="a_node16"><a xlink:href="NoRenderer_8hpp.html" target="_top" xlink:title=" ">
<polygon fill="white" stroke="black" points="55.22,-291.5 55.22,-321.5 165.22,-321.5 165.22,-291.5 55.22,-291.5"/>
<text text-anchor="start" x="63.22" y="-309.5" font-family="Helvetica,sans-Serif" font-size="10.00">../sources/Renderer</text>
<text text-anchor="middle" x="110.22" y="-298.5" font-family="Helvetica,sans-Serif" font-size="10.00">/NoRenderer.hpp</text>
</a>
</g>
</g>
<!-- Node5&#45;&gt;Node16 -->
<g id="edge27" class="edge">
<title>Node5&#45;&gt;Node16</title>
<path fill="none" stroke="midnightblue" d="M434.54,-414.27C432.94,-400.1 427.63,-372.23 410.22,-358 401.16,-350.6 261.14,-329.28 175.63,-316.84"/>
<polygon fill="midnightblue" stroke="midnightblue" points="175.88,-313.34 165.48,-315.36 174.88,-320.26 175.88,-313.34"/>
</g>
<!-- Node5&#45;&gt;Node19 -->
<g id="edge31" class="edge">
<title>Node5&#45;&gt;Node19</title>
<path fill="none" stroke="midnightblue" d="M458.67,-414.44C483.35,-405.44 522.4,-391.19 550.19,-381.05"/>
<polygon fill="midnightblue" stroke="midnightblue" points="551.68,-384.23 559.87,-377.52 549.28,-377.66 551.68,-384.23"/>
</g>
<!-- Node7 -->
<g id="node7" class="node">
<title>Node7</title>
<g id="a_node7"><a xlink:title=" ">
<polygon fill="white" stroke="#bfbfbf" points="546.22,-0.5 546.22,-19.5 596.22,-19.5 596.22,-0.5 546.22,-0.5"/>
<text text-anchor="middle" x="571.22" y="-7.5" font-family="Helvetica,sans-Serif" font-size="10.00">cstdint</text>
</a>
</g>
</g>
<!-- Node6&#45;&gt;Node7 -->
<g id="edge6" class="edge">
<title>Node6&#45;&gt;Node7</title>
<path fill="none" stroke="midnightblue" d="M936.84,-168.3C915.18,-158.39 885.8,-144.7 860.22,-132 843.12,-123.51 839.88,-119.22 822.22,-112 770.67,-90.94 754.01,-96.45 702.22,-76 663.9,-60.87 621.52,-38.81 595.63,-24.68"/>
<polygon fill="midnightblue" stroke="midnightblue" points="597,-21.44 586.55,-19.68 593.63,-27.57 597,-21.44"/>
</g>
<!-- Node8 -->
<g id="node8" class="node">
<title>Node8</title>
<g id="a_node8"><a xlink:title=" ">
<polygon fill="white" stroke="#bfbfbf" points="919.72,-0.5 919.72,-19.5 966.72,-19.5 966.72,-0.5 919.72,-0.5"/>
<text text-anchor="middle" x="943.22" y="-7.5" font-family="Helvetica,sans-Serif" font-size="10.00">vector</text>
</a>
</g>
</g>
<!-- Node6&#45;&gt;Node8 -->
<g id="edge7" class="edge">
<title>Node6&#45;&gt;Node8</title>
<path fill="none" stroke="midnightblue" d="M967.14,-168.42C965.98,-154.16 963.92,-131.49 961.22,-112 957.21,-83.11 950.96,-49.85 946.98,-29.63"/>
<polygon fill="midnightblue" stroke="midnightblue" points="950.37,-28.73 944.98,-19.61 943.51,-30.1 950.37,-28.73"/>
</g>
<!-- Node9 -->
<g id="node9" class="node">
<title>Node9</title>
<g id="a_node9"><a xlink:title=" ">
<polygon fill="white" stroke="#bfbfbf" points="1028.22,-0.5 1028.22,-19.5 1086.22,-19.5 1086.22,-0.5 1028.22,-0.5"/>
<text text-anchor="middle" x="1057.22" y="-7.5" font-family="Helvetica,sans-Serif" font-size="10.00">memory</text>
</a>
</g>
</g>
<!-- Node6&#45;&gt;Node9 -->
<g id="edge8" class="edge">
<title>Node6&#45;&gt;Node9</title>
<path fill="none" stroke="midnightblue" d="M975.5,-168.47C991.6,-137.44 1030.2,-63.05 1047.98,-28.81"/>
<polygon fill="midnightblue" stroke="midnightblue" points="1051.27,-30.05 1052.77,-19.56 1045.06,-26.82 1051.27,-30.05"/>
</g>
<!-- Node10 -->
<g id="node10" class="node">
<title>Node10</title>
<g id="a_node10"><a xlink:href="AMemory_8hpp.html" target="_top" xlink:title=" ">
<polygon fill="white" stroke="black" points="869.72,-112.5 869.72,-131.5 952.72,-131.5 952.72,-112.5 869.72,-112.5"/>
<text text-anchor="middle" x="911.22" y="-119.5" font-family="Helvetica,sans-Serif" font-size="10.00">AMemory.hpp</text>
</a>
</g>
</g>
<!-- Node6&#45;&gt;Node10 -->
<g id="edge9" class="edge">
<title>Node6&#45;&gt;Node10</title>
<path fill="none" stroke="midnightblue" d="M954.71,-168.4C946.25,-159.58 935.34,-148.18 926.56,-139.02"/>
<polygon fill="midnightblue" stroke="midnightblue" points="928.95,-136.46 919.51,-131.66 923.9,-141.3 928.95,-136.46"/>
</g>
<!-- Node10&#45;&gt;Node7 -->
<g id="edge10" class="edge">
<title>Node10&#45;&gt;Node7</title>
<path fill="none" stroke="midnightblue" d="M882.41,-112.44C852.72,-103.56 805.13,-89.15 764.22,-76 708.44,-58.08 644.01,-36.12 605.5,-22.87"/>
<polygon fill="midnightblue" stroke="midnightblue" points="606.42,-19.48 595.82,-19.53 604.13,-26.1 606.42,-19.48"/>
</g>
<!-- Node10&#45;&gt;Node8 -->
<g id="edge11" class="edge">
<title>Node10&#45;&gt;Node8</title>
<path fill="none" stroke="midnightblue" d="M913.73,-112.37C918.91,-94.54 930.91,-53.3 937.9,-29.27"/>
<polygon fill="midnightblue" stroke="midnightblue" points="941.28,-30.17 940.72,-19.59 934.56,-28.22 941.28,-30.17"/>
</g>
<!-- Node10&#45;&gt;Node9 -->
<g id="edge12" class="edge">
<title>Node10&#45;&gt;Node9</title>
<path fill="none" stroke="midnightblue" d="M922.67,-112.37C947.51,-93.65 1006.58,-49.15 1037.53,-25.83"/>
<polygon fill="midnightblue" stroke="midnightblue" points="1039.93,-28.4 1045.81,-19.59 1035.72,-22.81 1039.93,-28.4"/>
</g>
<!-- Node11 -->
<g id="node11" class="node">
<title>Node11</title>
<g id="a_node11"><a xlink:title=" ">
<polygon fill="white" stroke="#bfbfbf" points="647.22,-0.5 647.22,-19.5 691.22,-19.5 691.22,-0.5 647.22,-0.5"/>
<text text-anchor="middle" x="669.22" y="-7.5" font-family="Helvetica,sans-Serif" font-size="10.00">string</text>
</a>
</g>
</g>
<!-- Node10&#45;&gt;Node11 -->
<g id="edge13" class="edge">
<title>Node10&#45;&gt;Node11</title>
<path fill="none" stroke="midnightblue" d="M891.82,-112.45C871.46,-103.45 838.54,-88.84 810.22,-76 770.9,-58.18 725.61,-37.22 697.19,-24.03"/>
<polygon fill="midnightblue" stroke="midnightblue" points="698.43,-20.74 687.88,-19.7 695.48,-27.09 698.43,-20.74"/>
</g>
<!-- Node12 -->
<g id="node12" class="node">
<title>Node12</title>
<g id="a_node12"><a xlink:href="Int24_8hpp.html" target="_top" xlink:title=" ">
<polygon fill="white" stroke="black" points="1185.22,-0.5 1185.22,-19.5 1295.22,-19.5 1295.22,-0.5 1185.22,-0.5"/>
<text text-anchor="middle" x="1240.22" y="-7.5" font-family="Helvetica,sans-Serif" font-size="10.00">../Models/Int24.hpp</text>
</a>
</g>
</g>
<!-- Node10&#45;&gt;Node12 -->
<g id="edge14" class="edge">
<title>Node10&#45;&gt;Node12</title>
<path fill="none" stroke="midnightblue" d="M936.76,-112.46C995.06,-92.97 1138.05,-45.16 1204.81,-22.84"/>
<polygon fill="midnightblue" stroke="midnightblue" points="1206.09,-26.1 1214.46,-19.61 1203.87,-19.46 1206.09,-26.1"/>
</g>
<!-- Node13 -->
<g id="node13" class="node">
<title>Node13</title>
<g id="a_node13"><a xlink:href="Components_8hpp.html" target="_top" xlink:title=" ">
<polygon fill="white" stroke="black" points="725.22,-0.5 725.22,-19.5 871.22,-19.5 871.22,-0.5 725.22,-0.5"/>
<text text-anchor="middle" x="798.22" y="-7.5" font-family="Helvetica,sans-Serif" font-size="10.00">../Models/Components.hpp</text>
</a>
</g>
</g>
<!-- Node10&#45;&gt;Node13 -->
<g id="edge15" class="edge">
<title>Node10&#45;&gt;Node13</title>
<path fill="none" stroke="midnightblue" d="M884.83,-112.39C866.35,-105.2 842.18,-93.3 826.22,-76 814.12,-62.89 806.74,-43.74 802.61,-29.62"/>
<polygon fill="midnightblue" stroke="midnightblue" points="805.9,-28.37 799.98,-19.59 799.13,-30.15 805.9,-28.37"/>
</g>
<!-- Node14 -->
<g id="node14" class="node">
<title>Node14</title>
<g id="a_node14"><a xlink:href="IMemory_8hpp.html" target="_top" xlink:title=" ">
<polygon fill="white" stroke="black" points="835.22,-56.5 835.22,-75.5 915.22,-75.5 915.22,-56.5 835.22,-56.5"/>
<text text-anchor="middle" x="875.22" y="-63.5" font-family="Helvetica,sans-Serif" font-size="10.00">IMemory.hpp</text>
</a>
</g>
</g>
<!-- Node10&#45;&gt;Node14 -->
<g id="edge16" class="edge">
<title>Node10&#45;&gt;Node14</title>
<path fill="none" stroke="midnightblue" d="M905.27,-112.08C900.24,-104.53 892.88,-93.49 886.7,-84.23"/>
<polygon fill="midnightblue" stroke="midnightblue" points="889.51,-82.13 881.05,-75.75 883.68,-86.01 889.51,-82.13"/>
</g>
<!-- Node14&#45;&gt;Node7 -->
<g id="edge17" class="edge">
<title>Node14&#45;&gt;Node7</title>
<path fill="none" stroke="midnightblue" d="M835.16,-57.88C775.21,-47.24 663.11,-27.32 606.24,-17.22"/>
<polygon fill="midnightblue" stroke="midnightblue" points="606.75,-13.76 596.29,-15.45 605.52,-20.65 606.75,-13.76"/>
</g>
<!-- Node14&#45;&gt;Node8 -->
<g id="edge18" class="edge">
<title>Node14&#45;&gt;Node8</title>
<path fill="none" stroke="midnightblue" d="M886.14,-56.32C896.39,-48.18 911.94,-35.84 924.22,-26.09"/>
<polygon fill="midnightblue" stroke="midnightblue" points="926.44,-28.79 932.09,-19.83 922.08,-23.31 926.44,-28.79"/>
</g>
<!-- Node14&#45;&gt;Node9 -->
<g id="edge19" class="edge">
<title>Node14&#45;&gt;Node9</title>
<path fill="none" stroke="midnightblue" d="M904.05,-56.44C935.07,-47.24 984.54,-32.56 1018.83,-22.39"/>
<polygon fill="midnightblue" stroke="midnightblue" points="1019.92,-25.72 1028.51,-19.52 1017.93,-19.01 1019.92,-25.72"/>
</g>
<!-- Node14&#45;&gt;Node11 -->
<g id="edge20" class="edge">
<title>Node14&#45;&gt;Node11</title>
<path fill="none" stroke="midnightblue" d="M842.57,-56.44C803.89,-46.3 739.86,-29.52 701.38,-19.43"/>
<polygon fill="midnightblue" stroke="midnightblue" points="701.81,-15.93 691.25,-16.78 700.04,-22.7 701.81,-15.93"/>
</g>
<!-- Node14&#45;&gt;Node12 -->
<g id="edge21" class="edge">
<title>Node14&#45;&gt;Node12</title>
<path fill="none" stroke="midnightblue" d="M915.32,-59.07C977.84,-49.82 1099.18,-31.87 1174.58,-20.71"/>
<polygon fill="midnightblue" stroke="midnightblue" points="1175.53,-24.11 1184.91,-19.18 1174.5,-17.18 1175.53,-24.11"/>
</g>
<!-- Node14&#45;&gt;Node13 -->
<g id="edge22" class="edge">
<title>Node14&#45;&gt;Node13</title>
<path fill="none" stroke="midnightblue" d="M862.84,-56.32C851.06,-48.06 833.08,-35.45 819.08,-25.63"/>
<polygon fill="midnightblue" stroke="midnightblue" points="820.75,-22.53 810.56,-19.65 816.73,-28.26 820.75,-22.53"/>
</g>
<!-- Node17 -->
<g id="node17" class="node">
<title>Node17</title>
<g id="a_node17"><a xlink:href="IRenderer_8hpp.html" target="_top" xlink:title=" ">
<polygon fill="white" stroke="black" points="29.22,-174 29.22,-193 113.22,-193 113.22,-174 29.22,-174"/>
<text text-anchor="middle" x="71.22" y="-181" font-family="Helvetica,sans-Serif" font-size="10.00">IRenderer.hpp</text>
</a>
</g>
</g>
<!-- Node16&#45;&gt;Node17 -->
<g id="edge28" class="edge">
<title>Node16&#45;&gt;Node17</title>
<path fill="none" stroke="midnightblue" d="M105.59,-291.14C98.48,-269.1 84.9,-226.95 77.1,-202.76"/>
<polygon fill="midnightblue" stroke="midnightblue" points="80.37,-201.5 73.97,-193.05 73.71,-203.64 80.37,-201.5"/>
</g>
<!-- Node17&#45;&gt;Node11 -->
<g id="edge29" class="edge">
<title>Node17&#45;&gt;Node11</title>
<path fill="none" stroke="midnightblue" d="M73.84,-173.93C78.95,-158.78 91.76,-127.42 114.22,-112 136.19,-96.92 522.16,-34.45 637.15,-16.09"/>
<polygon fill="midnightblue" stroke="midnightblue" points="637.78,-19.54 647.1,-14.5 636.68,-12.62 637.78,-19.54"/>
</g>
<!-- Node18 -->
<g id="node18" class="node">
<title>Node18</title>
<g id="a_node18"><a xlink:title=" ">
<polygon fill="white" stroke="#bfbfbf" points="27.22,-112.5 27.22,-131.5 67.22,-131.5 67.22,-112.5 27.22,-112.5"/>
<text text-anchor="middle" x="47.22" y="-119.5" font-family="Helvetica,sans-Serif" font-size="10.00">span</text>
</a>
</g>
</g>
<!-- Node17&#45;&gt;Node18 -->
<g id="edge30" class="edge">
<title>Node17&#45;&gt;Node18</title>
<path fill="none" stroke="midnightblue" d="M67.78,-173.98C64.32,-165.4 58.88,-151.93 54.47,-140.98"/>
<polygon fill="midnightblue" stroke="midnightblue" points="57.63,-139.47 50.65,-131.51 51.14,-142.09 57.63,-139.47"/>
</g>
<!-- Node19&#45;&gt;Node6 -->
<g id="edge32" class="edge">
<title>Node19&#45;&gt;Node6</title>
<path fill="none" stroke="midnightblue" d="M637.59,-358.48C674.17,-351.54 722.88,-339.91 763.22,-322 833.74,-290.68 906.48,-235.39 943.42,-205.35"/>
<polygon fill="midnightblue" stroke="midnightblue" points="946.09,-207.69 951.6,-198.64 941.65,-202.28 946.09,-207.69"/>
</g>
<!-- Node19&#45;&gt;Node17 -->
<g id="edge77" class="edge">
<title>Node19&#45;&gt;Node17</title>
<path fill="none" stroke="midnightblue" d="M542.45,-358.44C506.06,-350.38 451.52,-337.3 405.22,-322 288.66,-283.5 155.07,-223.48 98.64,-197.37"/>
<polygon fill="midnightblue" stroke="midnightblue" points="99.88,-194.08 89.33,-193.04 96.93,-200.43 99.88,-194.08"/>
</g>
<!-- Node20 -->
<g id="node20" class="node">
<title>Node20</title>
<g id="a_node20"><a xlink:href="CPU_8hpp.html" target="_top" xlink:title=" ">
<polygon fill="white" stroke="black" points="1030.72,-297 1030.72,-316 1111.72,-316 1111.72,-297 1030.72,-297"/>
<text text-anchor="middle" x="1071.22" y="-304" font-family="Helvetica,sans-Serif" font-size="10.00">CPU/CPU.hpp</text>
</a>
</g>
</g>
<!-- Node19&#45;&gt;Node20 -->
<g id="edge33" class="edge">
<title>Node19&#45;&gt;Node20</title>
<path fill="none" stroke="midnightblue" d="M640.15,-360.06C736.14,-348.35 928.66,-324.88 1020.38,-313.7"/>
<polygon fill="midnightblue" stroke="midnightblue" points="1021.02,-317.15 1030.52,-312.46 1020.17,-310.2 1021.02,-317.15"/>
</g>
<!-- Node21 -->
<g id="node21" class="node">
<title>Node21</title>
<g id="a_node21"><a xlink:href="Cartridge_8hpp.html" target="_top" xlink:title=" ">
<polygon fill="white" stroke="black" points="708.22,-235.5 708.22,-254.5 848.22,-254.5 848.22,-235.5 708.22,-235.5"/>
<text text-anchor="middle" x="778.22" y="-242.5" font-family="Helvetica,sans-Serif" font-size="10.00">../Cartridge/Cartridge.hpp</text>
</a>
</g>
</g>
<!-- Node19&#45;&gt;Node21 -->
<g id="edge55" class="edge">
<title>Node19&#45;&gt;Node21</title>
<path fill="none" stroke="midnightblue" d="M639.8,-361.25C671.3,-355.59 709.6,-344.34 737.22,-322 755.65,-307.09 766.96,-281.59 772.91,-264.28"/>
<polygon fill="midnightblue" stroke="midnightblue" points="776.25,-265.32 775.93,-254.73 769.58,-263.2 776.25,-265.32"/>
</g>
<!-- Node24 -->
<g id="node24" class="node">
<title>Node24</title>
<g id="a_node24"><a xlink:href="Ram_8hpp.html" target="_top" xlink:title=" ">
<polygon fill="white" stroke="black" points="405.72,-174 405.72,-193 500.72,-193 500.72,-174 405.72,-174"/>
<text text-anchor="middle" x="453.22" y="-181" font-family="Helvetica,sans-Serif" font-size="10.00">../Ram/Ram.hpp</text>
</a>
</g>
</g>
<!-- Node19&#45;&gt;Node24 -->
<g id="edge56" class="edge">
<title>Node19&#45;&gt;Node24</title>
<path fill="none" stroke="midnightblue" d="M571.27,-358.35C548.69,-341.29 499.77,-300.99 475.22,-255 466.36,-238.42 460.43,-217.7 456.98,-203.03"/>
<polygon fill="midnightblue" stroke="midnightblue" points="460.38,-202.17 454.82,-193.15 453.54,-203.67 460.38,-202.17"/>
</g>
<!-- Node27 -->
<g id="node27" class="node">
<title>Node27</title>
<g id="a_node27"><a xlink:href="PPU_8hpp.html" target="_top" xlink:title=" ">
<polygon fill="white" stroke="black" points="337.22,-235.5 337.22,-254.5 417.22,-254.5 417.22,-235.5 337.22,-235.5"/>
<text text-anchor="middle" x="377.22" y="-242.5" font-family="Helvetica,sans-Serif" font-size="10.00">PPU/PPU.hpp</text>
</a>
</g>
</g>
<!-- Node19&#45;&gt;Node27 -->
<g id="edge57" class="edge">
<title>Node19&#45;&gt;Node27</title>
<path fill="none" stroke="midnightblue" d="M532.45,-358.44C503.61,-351.83 467.86,-340.58 440.22,-322 417.29,-306.59 398.26,-280.47 387.31,-263.22"/>
<polygon fill="midnightblue" stroke="midnightblue" points="390.29,-261.38 382.08,-254.68 384.32,-265.04 390.29,-261.38"/>
</g>
<!-- Node31 -->
<g id="node31" class="node">
<title>Node31</title>
<g id="a_node31"><a xlink:href="APU_8hpp.html" target="_top" xlink:title=" ">
<polygon fill="white" stroke="black" points="484.72,-235.5 484.72,-254.5 565.72,-254.5 565.72,-235.5 484.72,-235.5"/>
<text text-anchor="middle" x="525.22" y="-242.5" font-family="Helvetica,sans-Serif" font-size="10.00">APU/APU.hpp</text>
</a>
</g>
</g>
<!-- Node19&#45;&gt;Node31 -->
<g id="edge66" class="edge">
<title>Node19&#45;&gt;Node31</title>
<path fill="none" stroke="midnightblue" d="M573.42,-358.32C564.51,-349.89 551.66,-336.31 544.22,-322 534.82,-303.94 529.92,-281.02 527.47,-265.09"/>
<polygon fill="midnightblue" stroke="midnightblue" points="530.9,-264.34 526.08,-254.91 523.96,-265.29 530.9,-264.34"/>
</g>
<!-- Node35 -->
<g id="node35" class="node">
<title>Node35</title>
<g id="a_node35"><a xlink:href="DebuggableError_8hpp.html" target="_top" xlink:title=" ">
<polygon fill="white" stroke="black" points="553.72,-297 553.72,-316 728.72,-316 728.72,-297 553.72,-297"/>
<text text-anchor="middle" x="641.22" y="-304" font-family="Helvetica,sans-Serif" font-size="10.00">Exceptions/DebuggableError.hpp</text>
</a>
</g>
</g>
<!-- Node19&#45;&gt;Node35 -->
<g id="edge78" class="edge">
<title>Node19&#45;&gt;Node35</title>
<path fill="none" stroke="midnightblue" d="M591.53,-358.48C600.4,-349.37 614.66,-334.74 625.64,-323.48"/>
<polygon fill="midnightblue" stroke="midnightblue" points="628.45,-325.61 632.92,-316.01 623.43,-320.73 628.45,-325.61"/>
</g>
<!-- Node20&#45;&gt;Node6 -->
<g id="edge35" class="edge">
<title>Node20&#45;&gt;Node6</title>
<path fill="none" stroke="midnightblue" d="M1063.81,-296.8C1047.84,-278.04 1009.76,-233.31 986.77,-206.3"/>
<polygon fill="midnightblue" stroke="midnightblue" points="989.31,-203.89 980.17,-198.54 983.98,-208.42 989.31,-203.89"/>
</g>
<!-- Node20&#45;&gt;Node10 -->
<g id="edge34" class="edge">
<title>Node20&#45;&gt;Node10</title>
<path fill="none" stroke="midnightblue" d="M1072.87,-296.86C1076.86,-273.15 1084.49,-206.35 1052.22,-168 1030.36,-142.04 993.53,-130.88 962.99,-126.17"/>
<polygon fill="midnightblue" stroke="midnightblue" points="963.28,-122.68 952.91,-124.81 962.35,-129.62 963.28,-122.68"/>
</g>
<!-- Node20&#45;&gt;Node12 -->
<g id="edge36" class="edge">
<title>Node20&#45;&gt;Node12</title>
<path fill="none" stroke="midnightblue" d="M1111.75,-299.67C1201.11,-285.67 1407.22,-246.66 1407.22,-184.5 1407.22,-184.5 1407.22,-184.5 1407.22,-121 1407.22,-65.3 1341.62,-36.21 1292.65,-22.25"/>
<polygon fill="midnightblue" stroke="midnightblue" points="1293.36,-18.82 1282.79,-19.58 1291.52,-25.58 1293.36,-18.82"/>
</g>
<!-- Node20&#45;&gt;Node21 -->
<g id="edge37" class="edge">
<title>Node20&#45;&gt;Node21</title>
<path fill="none" stroke="midnightblue" d="M1030.48,-297.23C978.26,-286.62 887.67,-268.23 830.44,-256.61"/>
<polygon fill="midnightblue" stroke="midnightblue" points="831,-253.15 820.51,-254.59 829.61,-260.01 831,-253.15"/>
</g>
<!-- Node25 -->
<g id="node25" class="node">
<title>Node25</title>
<g id="a_node25"><a xlink:href="Instruction_8hpp.html" target="_top" xlink:title=" ">
<polygon fill="white" stroke="black" points="1251.72,-56.5 1251.72,-75.5 1340.72,-75.5 1340.72,-56.5 1251.72,-56.5"/>
<text text-anchor="middle" x="1296.22" y="-63.5" font-family="Helvetica,sans-Serif" font-size="10.00">Instruction.hpp</text>
</a>
</g>
</g>
<!-- Node20&#45;&gt;Node25 -->
<g id="edge47" class="edge">
<title>Node20&#45;&gt;Node25</title>
<path fill="none" stroke="midnightblue" d="M1111.89,-297.56C1139.53,-290.4 1175.44,-277.44 1200.22,-255 1253.14,-207.07 1281.12,-123.19 1291.46,-85.85"/>
<polygon fill="midnightblue" stroke="midnightblue" points="1294.93,-86.42 1294.11,-75.85 1288.17,-84.62 1294.93,-86.42"/>
</g>
<!-- Node26 -->
<g id="node26" class="node">
<title>Node26</title>
<g id="a_node26"><a xlink:href="DMA_8hpp.html" target="_top" xlink:title=" ">
<polygon fill="white" stroke="black" points="1103.72,-235.5 1103.72,-254.5 1190.72,-254.5 1190.72,-235.5 1103.72,-235.5"/>
<text text-anchor="middle" x="1147.22" y="-242.5" font-family="Helvetica,sans-Serif" font-size="10.00">DMA/DMA.hpp</text>
</a>
</g>
</g>
<!-- Node20&#45;&gt;Node26 -->
<g id="edge50" class="edge">
<title>Node20&#45;&gt;Node26</title>
<path fill="none" stroke="midnightblue" d="M1082.1,-296.98C1094.18,-287.52 1113.88,-272.1 1128.46,-260.69"/>
<polygon fill="midnightblue" stroke="midnightblue" points="1130.63,-263.43 1136.35,-254.51 1126.32,-257.92 1130.63,-263.43"/>
</g>
<!-- Node21&#45;&gt;Node10 -->
<g id="edge39" class="edge">
<title>Node21&#45;&gt;Node10</title>
<path fill="none" stroke="midnightblue" d="M793.66,-235.46C808.04,-227.14 829.67,-213.63 846.22,-199 866.85,-180.76 886.87,-155.94 899.11,-139.71"/>
<polygon fill="midnightblue" stroke="midnightblue" points="901.93,-141.78 905.07,-131.66 896.31,-137.61 901.93,-141.78"/>
</g>
<!-- Node21&#45;&gt;Node11 -->
<g id="edge38" class="edge">
<title>Node21&#45;&gt;Node11</title>
<path fill="none" stroke="midnightblue" d="M753.34,-235.45C715.75,-220.98 646.02,-187.67 619.22,-132 601.56,-95.34 633.05,-50.78 653.58,-27.3"/>
<polygon fill="midnightblue" stroke="midnightblue" points="656.4,-29.41 660.54,-19.66 651.22,-24.69 656.4,-29.41"/>
</g>
<!-- Node21&#45;&gt;Node12 -->
<g id="edge40" class="edge">
<title>Node21&#45;&gt;Node12</title>
<path fill="none" stroke="midnightblue" d="M848.51,-241.84C935.94,-237.98 1079.09,-227.4 1123.22,-199 1187.06,-157.91 1222.03,-68.32 1234.68,-29.52"/>
<polygon fill="midnightblue" stroke="midnightblue" points="1238.14,-30.21 1237.78,-19.62 1231.45,-28.12 1238.14,-30.21"/>
</g>
<!-- Node22 -->
<g id="node22" class="node">
<title>Node22</title>
<g id="a_node22"><a xlink:href="ARectangleMemory_8hpp.html" target="_top" xlink:title=" ">
<polygon fill="white" stroke="black" points="628.72,-112.5 628.72,-131.5 813.72,-131.5 813.72,-112.5 628.72,-112.5"/>
<text text-anchor="middle" x="721.22" y="-119.5" font-family="Helvetica,sans-Serif" font-size="10.00">../Memory/ARectangleMemory.hpp</text>
</a>
</g>
</g>
<!-- Node21&#45;&gt;Node22 -->
<g id="edge41" class="edge">
<title>Node21&#45;&gt;Node22</title>
<path fill="none" stroke="midnightblue" d="M755.76,-235.38C740.45,-228.18 721.35,-216.29 712.22,-199 702.64,-180.88 707.87,-157.01 713.54,-140.9"/>
<polygon fill="midnightblue" stroke="midnightblue" points="716.81,-142.15 717.18,-131.56 710.28,-139.61 716.81,-142.15"/>
</g>
<!-- Node23 -->
<g id="node23" class="node">
<title>Node23</title>
<g id="a_node23"><a xlink:href="InterruptVectors_8hpp.html" target="_top" xlink:title=" ">
<polygon fill="white" stroke="black" points="721.22,-174 721.22,-193 837.22,-193 837.22,-174 721.22,-174"/>
<text text-anchor="middle" x="779.22" y="-181" font-family="Helvetica,sans-Serif" font-size="10.00">InterruptVectors.hpp</text>
</a>
</g>
</g>
<!-- Node21&#45;&gt;Node23 -->
<g id="edge43" class="edge">
<title>Node21&#45;&gt;Node23</title>
<path fill="none" stroke="midnightblue" d="M778.36,-235.48C778.5,-227.08 778.72,-213.98 778.9,-203.16"/>
<polygon fill="midnightblue" stroke="midnightblue" points="782.4,-203.07 779.07,-193.01 775.4,-202.95 782.4,-203.07"/>
</g>
<!-- Node21&#45;&gt;Node24 -->
<g id="edge44" class="edge">
<title>Node21&#45;&gt;Node24</title>
<path fill="none" stroke="midnightblue" d="M731.65,-235.48C673.13,-224.76 572.74,-206.38 509.84,-194.87"/>
<polygon fill="midnightblue" stroke="midnightblue" points="510.16,-191.37 499.69,-193.01 508.9,-198.25 510.16,-191.37"/>
</g>
<!-- Node22&#45;&gt;Node14 -->
<g id="edge42" class="edge">
<title>Node22&#45;&gt;Node14</title>
<path fill="none" stroke="midnightblue" d="M745.62,-112.44C771.41,-103.4 812.29,-89.06 841.23,-78.92"/>
<polygon fill="midnightblue" stroke="midnightblue" points="842.65,-82.13 850.93,-75.52 840.33,-75.52 842.65,-82.13"/>
</g>
<!-- Node24&#45;&gt;Node11 -->
<g id="edge46" class="edge">
<title>Node24&#45;&gt;Node11</title>
<path fill="none" stroke="midnightblue" d="M461.02,-173.72C480.69,-151.93 534.45,-94.41 587.22,-56 604.23,-43.62 625.02,-32.24 641.42,-24.02"/>
<polygon fill="midnightblue" stroke="midnightblue" points="643.06,-27.12 650.5,-19.57 639.98,-20.83 643.06,-27.12"/>
</g>
<!-- Node24&#45;&gt;Node22 -->
<g id="edge45" class="edge">
<title>Node24&#45;&gt;Node22</title>
<path fill="none" stroke="midnightblue" d="M489.26,-173.98C497.76,-171.99 506.81,-169.9 515.22,-168 568.49,-155.95 629.64,-142.66 671.38,-133.67"/>
<polygon fill="midnightblue" stroke="midnightblue" points="672.26,-137.06 681.3,-131.54 670.79,-130.22 672.26,-137.06"/>
</g>
<!-- Node25&#45;&gt;Node11 -->
<g id="edge48" class="edge">
<title>Node25&#45;&gt;Node11</title>
<path fill="none" stroke="midnightblue" d="M1251.65,-63.24C1154.19,-59.03 914.92,-46.65 716.22,-20 711.42,-19.36 706.38,-18.54 701.45,-17.67"/>
<polygon fill="midnightblue" stroke="midnightblue" points="702.08,-14.22 691.6,-15.82 700.79,-21.1 702.08,-14.22"/>
</g>
<!-- Node25&#45;&gt;Node12 -->
<g id="edge49" class="edge">
<title>Node25&#45;&gt;Node12</title>
<path fill="none" stroke="midnightblue" d="M1287.22,-56.32C1279.02,-48.42 1266.71,-36.55 1256.74,-26.94"/>
<polygon fill="midnightblue" stroke="midnightblue" points="1259,-24.26 1249.38,-19.83 1254.15,-29.29 1259,-24.26"/>
</g>
<!-- Node26&#45;&gt;Node6 -->
<g id="edge54" class="edge">
<title>Node26&#45;&gt;Node6</title>
<path fill="none" stroke="midnightblue" d="M1121.57,-235.48C1095.17,-226.7 1053.32,-212.79 1020,-201.71"/>
<polygon fill="midnightblue" stroke="midnightblue" points="1021,-198.36 1010.4,-198.52 1018.79,-205 1021,-198.36"/>
</g>
<!-- Node26&#45;&gt;Node7 -->
<g id="edge51" class="edge">
<title>Node26&#45;&gt;Node7</title>
<path fill="none" stroke="midnightblue" d="M1140.37,-235.07C1128.32,-219.79 1101.95,-188.34 1074.22,-168 1029.02,-134.85 1013.69,-131.7 961.22,-112 955.51,-109.86 755.11,-57.52 749.22,-56 699.64,-43.19 642.19,-28.73 606.27,-19.75"/>
<polygon fill="midnightblue" stroke="midnightblue" points="606.84,-16.28 596.29,-17.25 605.15,-23.07 606.84,-16.28"/>
</g>
<!-- Node26&#45;&gt;Node9 -->
<g id="edge52" class="edge">
<title>Node26&#45;&gt;Node9</title>
<path fill="none" stroke="midnightblue" d="M1163,-235.47C1175.42,-227.77 1191.82,-215.18 1199.22,-199 1204.94,-186.47 1203.26,-181.17 1199.22,-168 1181.55,-110.5 1165.71,-98.58 1123.22,-56 1111.08,-43.83 1095.22,-32.9 1082.1,-24.86"/>
<polygon fill="midnightblue" stroke="midnightblue" points="1083.5,-21.62 1073.11,-19.54 1079.93,-27.65 1083.5,-21.62"/>
</g>
<!-- Node26&#45;&gt;Node12 -->
<g id="edge53" class="edge">
<title>Node26&#45;&gt;Node12</title>
<path fill="none" stroke="midnightblue" d="M1166.78,-235.4C1210.07,-215.12 1313.09,-159.62 1350.22,-76 1362.45,-48.44 1330.67,-31.82 1298.18,-22.29"/>
<polygon fill="midnightblue" stroke="midnightblue" points="1298.69,-18.81 1288.12,-19.56 1296.85,-25.56 1298.69,-18.81"/>
</g>
<!-- Node27&#45;&gt;Node6 -->
<g id="edge60" class="edge">
<title>Node27&#45;&gt;Node6</title>
<path fill="none" stroke="midnightblue" d="M417.5,-240.25C515.3,-231.14 763.36,-207.9 846.22,-199 858.06,-197.73 870.55,-196.32 882.83,-194.9"/>
<polygon fill="midnightblue" stroke="midnightblue" points="883.55,-198.34 893.08,-193.7 882.74,-191.38 883.55,-198.34"/>
</g>
<!-- Node27&#45;&gt;Node7 -->
<g id="edge58" class="edge">
<title>Node27&#45;&gt;Node7</title>
<path fill="none" stroke="midnightblue" d="M337.12,-241.84C248.33,-236.65 41.27,-222.17 20.22,-199 -5.8,-170.38 -6.55,-141.7 18.22,-112 84.9,-32.04 424.57,-15.21 535.86,-11.82"/>
<polygon fill="midnightblue" stroke="midnightblue" points="536.01,-15.31 545.9,-11.53 535.81,-8.32 536.01,-15.31"/>
</g>
<!-- Node27&#45;&gt;Node10 -->
<g id="edge59" class="edge">
<title>Node27&#45;&gt;Node10</title>
<path fill="none" stroke="midnightblue" d="M376.46,-235.3C375.58,-219.21 376.33,-184.92 396.22,-168 432.39,-137.21 774.92,-136.39 822.22,-132 834.3,-130.88 847.29,-129.6 859.52,-128.37"/>
<polygon fill="midnightblue" stroke="midnightblue" points="859.98,-131.84 869.57,-127.35 859.27,-124.88 859.98,-131.84"/>
</g>
<!-- Node27&#45;&gt;Node17 -->
<g id="edge61" class="edge">
<title>Node27&#45;&gt;Node17</title>
<path fill="none" stroke="midnightblue" d="M337.21,-238.24C286.78,-230.68 197.57,-216.31 122.22,-199 118.03,-198.04 113.67,-196.94 109.35,-195.8"/>
<polygon fill="midnightblue" stroke="midnightblue" points="109.98,-192.34 99.41,-193.07 108.12,-199.09 109.98,-192.34"/>
</g>
<!-- Node27&#45;&gt;Node24 -->
<g id="edge62" class="edge">
<title>Node27&#45;&gt;Node24</title>
<path fill="none" stroke="midnightblue" d="M388.1,-235.48C400.18,-226.02 419.88,-210.6 434.46,-199.19"/>
<polygon fill="midnightblue" stroke="midnightblue" points="436.63,-201.93 442.35,-193.01 432.32,-196.42 436.63,-201.93"/>
</g>
<!-- Node28 -->
<g id="node28" class="node">
<title>Node28</title>
<g id="a_node28"><a xlink:href="Vector2_8hpp.html" target="_top" xlink:title=" ">
<polygon fill="white" stroke="black" points="131.22,-174 131.22,-193 253.22,-193 253.22,-174 131.22,-174"/>
<text text-anchor="middle" x="192.22" y="-181" font-family="Helvetica,sans-Serif" font-size="10.00">../Models/Vector2.hpp</text>
</a>
</g>
</g>
<!-- Node27&#45;&gt;Node28 -->
<g id="edge63" class="edge">
<title>Node27&#45;&gt;Node28</title>
<path fill="none" stroke="midnightblue" d="M350.71,-235.48C318.56,-225.14 264.23,-207.66 228.29,-196.1"/>
<polygon fill="midnightblue" stroke="midnightblue" points="229.26,-192.74 218.67,-193.01 227.12,-199.4 229.26,-192.74"/>
</g>
<!-- Node29 -->
<g id="node29" class="node">
<title>Node29</title>
<g id="a_node29"><a xlink:title=" ">
<polygon fill="white" stroke="#bfbfbf" points="284.72,-112.5 284.72,-131.5 341.72,-131.5 341.72,-112.5 284.72,-112.5"/>
<text text-anchor="middle" x="313.22" y="-119.5" font-family="Helvetica,sans-Serif" font-size="10.00">ostream</text>
</a>
</g>
</g>
<!-- Node28&#45;&gt;Node29 -->
<g id="edge64" class="edge">
<title>Node28&#45;&gt;Node29</title>
<path fill="none" stroke="midnightblue" d="M209.55,-173.98C229.77,-164.03 263.4,-147.49 286.86,-135.96"/>
<polygon fill="midnightblue" stroke="midnightblue" points="288.48,-139.06 295.91,-131.51 285.39,-132.78 288.48,-139.06"/>
</g>
<!-- Node30 -->
<g id="node30" class="node">
<title>Node30</title>
<g id="a_node30"><a xlink:title=" ">
<polygon fill="white" stroke="#bfbfbf" points="123.72,-112.5 123.72,-131.5 266.72,-131.5 266.72,-112.5 123.72,-112.5"/>
<text text-anchor="middle" x="195.22" y="-119.5" font-family="Helvetica,sans-Serif" font-size="10.00">SFML/System/Vector2.hpp</text>
</a>
</g>
</g>
<!-- Node28&#45;&gt;Node30 -->
<g id="edge65" class="edge">
<title>Node28&#45;&gt;Node30</title>
<path fill="none" stroke="midnightblue" d="M192.65,-173.98C193.07,-165.58 193.73,-152.48 194.27,-141.66"/>
<polygon fill="midnightblue" stroke="midnightblue" points="197.78,-141.67 194.79,-131.51 190.79,-141.32 197.78,-141.67"/>
</g>
<!-- Node31&#45;&gt;Node9 -->
<g id="edge67" class="edge">
<title>Node31&#45;&gt;Node9</title>
<path fill="none" stroke="midnightblue" d="M565.79,-237.4C571.95,-236.52 578.24,-235.68 584.22,-235 636.03,-229.06 1016.27,-236.79 1052.22,-199 1096.45,-152.49 1075.69,-66.54 1063.68,-29.16"/>
<polygon fill="midnightblue" stroke="midnightblue" points="1066.96,-27.95 1060.45,-19.59 1060.33,-30.19 1066.96,-27.95"/>
</g>
<!-- Node31&#45;&gt;Node10 -->
<g id="edge72" class="edge">
<title>Node31&#45;&gt;Node10</title>
<path fill="none" stroke="midnightblue" d="M525.01,-235.32C525.16,-219.28 527.97,-185.05 548.22,-168 554.12,-163.02 760.83,-139.61 859.63,-128.66"/>
<polygon fill="midnightblue" stroke="midnightblue" points="860.14,-132.13 869.7,-127.55 859.37,-125.17 860.14,-132.13"/>
</g>
<!-- Node31&#45;&gt;Node17 -->
<g id="edge76" class="edge">
<title>Node31&#45;&gt;Node17</title>
<path fill="none" stroke="midnightblue" d="M484.4,-240.31C396.34,-232.21 190.95,-212.51 122.22,-199 117.5,-198.07 112.58,-196.92 107.74,-195.67"/>
<polygon fill="midnightblue" stroke="midnightblue" points="108.58,-192.27 98.01,-193.02 106.74,-199.03 108.58,-192.27"/>
</g>
<!-- Node31&#45;&gt;Node24 -->
<g id="edge73" class="edge">
<title>Node31&#45;&gt;Node24</title>
<path fill="none" stroke="midnightblue" d="M514.9,-235.48C503.57,-226.11 485.14,-210.88 471.38,-199.51"/>
<polygon fill="midnightblue" stroke="midnightblue" points="473.45,-196.68 463.51,-193.01 468.99,-202.08 473.45,-196.68"/>
</g>
<!-- Node32 -->
<g id="node32" class="node">
<title>Node32</title>
<g id="a_node32"><a xlink:href="DSP_8hpp.html" target="_top" xlink:title=" ">
<polygon fill="white" stroke="black" points="271.22,-174 271.22,-193 349.22,-193 349.22,-174 271.22,-174"/>
<text text-anchor="middle" x="310.22" y="-181" font-family="Helvetica,sans-Serif" font-size="10.00">DSP/DSP.hpp</text>
</a>
</g>
</g>
<!-- Node31&#45;&gt;Node32 -->
<g id="edge68" class="edge">
<title>Node31&#45;&gt;Node32</title>
<path fill="none" stroke="midnightblue" d="M494.41,-235.48C456.65,-225.03 392.55,-207.29 350.81,-195.73"/>
<polygon fill="midnightblue" stroke="midnightblue" points="351.53,-192.3 340.96,-193.01 349.67,-199.05 351.53,-192.3"/>
</g>
<!-- Node34 -->
<g id="node34" class="node">
<title>Node34</title>
<g id="a_node34"><a xlink:href="IPL_8hpp.html" target="_top" xlink:title=" ">
<polygon fill="white" stroke="black" points="557.72,-174 557.72,-193 626.72,-193 626.72,-174 557.72,-174"/>
<text text-anchor="middle" x="592.22" y="-181" font-family="Helvetica,sans-Serif" font-size="10.00">IPL/IPL.hpp</text>
</a>
</g>
</g>
<!-- Node31&#45;&gt;Node34 -->
<g id="edge74" class="edge">
<title>Node31&#45;&gt;Node34</title>
<path fill="none" stroke="midnightblue" d="M534.82,-235.48C545.26,-226.2 562.18,-211.17 574.95,-199.83"/>
<polygon fill="midnightblue" stroke="midnightblue" points="577.48,-202.27 582.63,-193.01 572.83,-197.03 577.48,-202.27"/>
</g>
<!-- Node32&#45;&gt;Node7 -->
<g id="edge69" class="edge">
<title>Node32&#45;&gt;Node7</title>
<path fill="none" stroke="midnightblue" d="M318.9,-173.56C332.89,-159.44 361.64,-131.59 389.22,-112 440.73,-75.41 506.79,-41.68 543.49,-23.98"/>
<polygon fill="midnightblue" stroke="midnightblue" points="545.08,-27.09 552.59,-19.62 542.06,-20.78 545.08,-27.09"/>
</g>
<!-- Node32&#45;&gt;Node10 -->
<g id="edge71" class="edge">
<title>Node32&#45;&gt;Node10</title>
<path fill="none" stroke="midnightblue" d="M337.5,-173.98C345.7,-171.71 354.76,-169.48 363.22,-168 564.8,-132.84 618.41,-150.29 822.22,-132 834.3,-130.92 847.3,-129.65 859.53,-128.43"/>
<polygon fill="midnightblue" stroke="midnightblue" points="859.98,-131.9 869.58,-127.41 859.28,-124.93 859.98,-131.9"/>
</g>
<!-- Node33 -->
<g id="node33" class="node">
<title>Node33</title>
<g id="a_node33"><a xlink:title=" ">
<polygon fill="white" stroke="#bfbfbf" points="398.22,-112.5 398.22,-131.5 440.22,-131.5 440.22,-112.5 398.22,-112.5"/>
<text text-anchor="middle" x="419.22" y="-119.5" font-family="Helvetica,sans-Serif" font-size="10.00">array</text>
</a>
</g>
</g>
<!-- Node32&#45;&gt;Node33 -->
<g id="edge70" class="edge">
<title>Node32&#45;&gt;Node33</title>
<path fill="none" stroke="midnightblue" d="M325.83,-173.98C343.8,-164.17 373.54,-147.93 394.62,-136.42"/>
<polygon fill="midnightblue" stroke="midnightblue" points="396.53,-139.37 403.63,-131.51 393.17,-133.23 396.53,-139.37"/>
</g>
<!-- Node34&#45;&gt;Node10 -->
<g id="edge75" class="edge">
<title>Node34&#45;&gt;Node10</title>
<path fill="none" stroke="midnightblue" d="M626.96,-176.02C683.06,-165.56 793.91,-144.88 859.37,-132.67"/>
<polygon fill="midnightblue" stroke="midnightblue" points="860.28,-136.06 869.47,-130.79 859,-129.18 860.28,-136.06"/>
</g>
<!-- Node36 -->
<g id="node36" class="node">
<title>Node36</title>
<g id="a_node36"><a xlink:title=" ">
<polygon fill="white" stroke="#bfbfbf" points="593.72,-235.5 593.72,-254.5 688.72,-254.5 688.72,-235.5 593.72,-235.5"/>
<text text-anchor="middle" x="641.22" y="-242.5" font-family="Helvetica,sans-Serif" font-size="10.00">bits/exception.h</text>
</a>
</g>
</g>
<!-- Node35&#45;&gt;Node36 -->
<g id="edge79" class="edge">
<title>Node35&#45;&gt;Node36</title>
<path fill="none" stroke="midnightblue" d="M641.22,-296.98C641.22,-288.58 641.22,-275.48 641.22,-264.66"/>
<polygon fill="midnightblue" stroke="midnightblue" points="644.72,-264.51 641.22,-254.51 637.72,-264.51 644.72,-264.51"/>
</g>
</g>
</svg>
