<?xml version="1.0" encoding="UTF-8" standalone="no"?>
<!DOCTYPE svg PUBLIC "-//W3C//DTD SVG 1.1//EN"
 "http://www.w3.org/Graphics/SVG/1.1/DTD/svg11.dtd">
<!-- Generated by graphviz version 2.43.0 (0)
 -->
<!-- Title: tests/CPU/Math/testCMP.cpp Pages: 1 -->
<svg width="1345pt" height="498pt"
 viewBox="0.00 0.00 1344.58 498.00" xmlns="http://www.w3.org/2000/svg" xmlns:xlink="http://www.w3.org/1999/xlink">
<g id="graph0" class="graph" transform="scale(1 1) rotate(0) translate(4 494)">
<title>tests/CPU/Math/testCMP.cpp</title>
<polygon fill="white" stroke="transparent" points="-4,4 -4,-494 1340.58,-494 1340.58,4 -4,4"/>
<!-- Node1 -->
<g id="node1" class="node">
<title>Node1</title>
<g id="a_node1"><a xlink:title=" ">
<polygon fill="#bfbfbf" stroke="black" points="675,-470.5 675,-489.5 829,-489.5 829,-470.5 675,-470.5"/>
<text text-anchor="middle" x="752" y="-477.5" font-family="Helvetica,sans-Serif" font-size="10.00">tests/CPU/Math/testCMP.cpp</text>
</a>
</g>
</g>
<!-- Node2 -->
<g id="node2" class="node">
<title>Node2</title>
<g id="a_node2"><a xlink:title=" ">
<polygon fill="white" stroke="#bfbfbf" points="592,-358.5 592,-377.5 702,-377.5 702,-358.5 592,-358.5"/>
<text text-anchor="middle" x="647" y="-365.5" font-family="Helvetica,sans-Serif" font-size="10.00">criterion/criterion.h</text>
</a>
</g>
</g>
<!-- Node1&#45;&gt;Node2 -->
<g id="edge1" class="edge">
<title>Node1&#45;&gt;Node2</title>
<path fill="none" stroke="midnightblue" d="M739.69,-470.49C727.83,-461.97 709.72,-448.15 696,-434 681.45,-419 667.36,-399.64 658.05,-385.96"/>
<polygon fill="midnightblue" stroke="midnightblue" points="660.89,-383.9 652.43,-377.52 655.06,-387.79 660.89,-383.9"/>
</g>
<!-- Node3 -->
<g id="node3" class="node">
<title>Node3</title>
<g id="a_node3"><a xlink:title=" ">
<polygon fill="white" stroke="#bfbfbf" points="705,-414.5 705,-433.5 749,-433.5 749,-414.5 705,-414.5"/>
<text text-anchor="middle" x="727" y="-421.5" font-family="Helvetica,sans-Serif" font-size="10.00">bitset</text>
</a>
</g>
</g>
<!-- Node1&#45;&gt;Node3 -->
<g id="edge2" class="edge">
<title>Node1&#45;&gt;Node3</title>
<path fill="none" stroke="midnightblue" d="M747.87,-470.08C744.49,-462.77 739.58,-452.18 735.38,-443.1"/>
<polygon fill="midnightblue" stroke="midnightblue" points="738.43,-441.36 731.05,-433.75 732.08,-444.3 738.43,-441.36"/>
</g>
<!-- Node4 -->
<g id="node4" class="node">
<title>Node4</title>
<g id="a_node4"><a xlink:href="tests_8hpp.html" target="_top" xlink:title=" ">
<polygon fill="white" stroke="black" points="837,-414.5 837,-433.5 917,-433.5 917,-414.5 837,-414.5"/>
<text text-anchor="middle" x="877" y="-421.5" font-family="Helvetica,sans-Serif" font-size="10.00">../../tests.hpp</text>
</a>
</g>
</g>
<!-- Node1&#45;&gt;Node4 -->
<g id="edge3" class="edge">
<title>Node1&#45;&gt;Node4</title>
<path fill="none" stroke="midnightblue" d="M771.81,-470.44C792.29,-461.6 824.48,-447.69 847.86,-437.59"/>
<polygon fill="midnightblue" stroke="midnightblue" points="849.49,-440.7 857.29,-433.52 846.72,-434.27 849.49,-440.7"/>
</g>
<!-- Node19 -->
<g id="node19" class="node">
<title>Node19</title>
<g id="a_node19"><a xlink:href="SNES_8hpp.html" target="_top" xlink:title=" ">
<polygon fill="white" stroke="black" points="720.5,-358.5 720.5,-377.5 833.5,-377.5 833.5,-358.5 720.5,-358.5"/>
<text text-anchor="middle" x="777" y="-365.5" font-family="Helvetica,sans-Serif" font-size="10.00">../sources/SNES.hpp</text>
</a>
</g>
</g>
<!-- Node1&#45;&gt;Node19 -->
<g id="edge79" class="edge">
<title>Node1&#45;&gt;Node19</title>
<path fill="none" stroke="midnightblue" d="M753.96,-470.37C758,-452.62 767.3,-411.67 772.77,-387.6"/>
<polygon fill="midnightblue" stroke="midnightblue" points="776.24,-388.12 775.05,-377.59 769.42,-386.57 776.24,-388.12"/>
</g>
<!-- Node4&#45;&gt;Node2 -->
<g id="edge22" class="edge">
<title>Node4&#45;&gt;Node2</title>
<path fill="none" stroke="midnightblue" d="M840.56,-414.44C800.6,-405.06 736.41,-389.99 693.02,-379.8"/>
<polygon fill="midnightblue" stroke="midnightblue" points="693.81,-376.39 683.27,-377.52 692.21,-383.21 693.81,-376.39"/>
</g>
<!-- Node4&#45;&gt;Node4 -->
<g id="edge25" class="edge">
<title>Node4&#45;&gt;Node4</title>
<path fill="none" stroke="midnightblue" d="M901.74,-433.53C918.55,-436.31 935,-433.13 935,-424 935,-416.72 924.55,-413.23 911.8,-413.52"/>
<polygon fill="midnightblue" stroke="midnightblue" points="911.36,-410.04 901.74,-414.47 912.02,-417.01 911.36,-410.04"/>
</g>
<!-- Node5 -->
<g id="node5" class="node">
<title>Node5</title>
<g id="a_node5"><a xlink:href="MemoryBus_8hpp.html" target="_top" xlink:title=" ">
<polygon fill="white" stroke="black" points="1018,-168.5 1018,-198.5 1168,-198.5 1168,-168.5 1018,-168.5"/>
<text text-anchor="start" x="1026" y="-186.5" font-family="Helvetica,sans-Serif" font-size="10.00">../sources/Memory/Memory</text>
<text text-anchor="middle" x="1093" y="-175.5" font-family="Helvetica,sans-Serif" font-size="10.00">Bus.hpp</text>
</a>
</g>
</g>
<!-- Node4&#45;&gt;Node5 -->
<g id="edge4" class="edge">
<title>Node4&#45;&gt;Node5</title>
<path fill="none" stroke="midnightblue" d="M917.11,-423.29C984.04,-421.31 1116.88,-406.34 1175,-322 1202.63,-281.91 1154.06,-232.31 1120.63,-204.98"/>
<polygon fill="midnightblue" stroke="midnightblue" points="1122.52,-202.02 1112.52,-198.53 1118.17,-207.5 1122.52,-202.02"/>
</g>
<!-- Node14 -->
<g id="node14" class="node">
<title>Node14</title>
<g id="a_node14"><a xlink:title=" ">
<polygon fill="white" stroke="#bfbfbf" points="959,-358.5 959,-377.5 1019,-377.5 1019,-358.5 959,-358.5"/>
<text text-anchor="middle" x="989" y="-365.5" font-family="Helvetica,sans-Serif" font-size="10.00">iostream</text>
</a>
</g>
</g>
<!-- Node4&#45;&gt;Node14 -->
<g id="edge23" class="edge">
<title>Node4&#45;&gt;Node14</title>
<path fill="none" stroke="midnightblue" d="M894.99,-414.32C913.04,-405.62 941.05,-392.12 961.8,-382.11"/>
<polygon fill="midnightblue" stroke="midnightblue" points="963.56,-385.15 971.05,-377.65 960.52,-378.84 963.56,-385.15"/>
</g>
<!-- Node15 -->
<g id="node15" class="node">
<title>Node15</title>
<g id="a_node15"><a xlink:title=" ">
<polygon fill="white" stroke="#bfbfbf" points="851.5,-358.5 851.5,-377.5 902.5,-377.5 902.5,-358.5 851.5,-358.5"/>
<text text-anchor="middle" x="877" y="-365.5" font-family="Helvetica,sans-Serif" font-size="10.00">zconf.h</text>
</a>
</g>
</g>
<!-- Node4&#45;&gt;Node15 -->
<g id="edge24" class="edge">
<title>Node4&#45;&gt;Node15</title>
<path fill="none" stroke="midnightblue" d="M877,-414.08C877,-407.01 877,-396.86 877,-387.99"/>
<polygon fill="midnightblue" stroke="midnightblue" points="880.5,-387.75 877,-377.75 873.5,-387.75 880.5,-387.75"/>
</g>
<!-- Node16 -->
<g id="node16" class="node">
<title>Node16</title>
<g id="a_node16"><a xlink:href="NoRenderer_8hpp.html" target="_top" xlink:title=" ">
<polygon fill="white" stroke="black" points="1056,-291.5 1056,-321.5 1166,-321.5 1166,-291.5 1056,-291.5"/>
<text text-anchor="start" x="1064" y="-309.5" font-family="Helvetica,sans-Serif" font-size="10.00">../sources/Renderer</text>
<text text-anchor="middle" x="1111" y="-298.5" font-family="Helvetica,sans-Serif" font-size="10.00">/NoRenderer.hpp</text>
</a>
</g>
</g>
<!-- Node4&#45;&gt;Node16 -->
<g id="edge26" class="edge">
<title>Node4&#45;&gt;Node16</title>
<path fill="none" stroke="midnightblue" d="M884.63,-414.12C897.01,-400.24 922.84,-373.4 950,-358 979.54,-341.26 1015.33,-329.32 1045.66,-321.28"/>
<polygon fill="midnightblue" stroke="midnightblue" points="1046.9,-324.57 1055.72,-318.69 1045.16,-317.79 1046.9,-324.57"/>
</g>
<!-- Node4&#45;&gt;Node19 -->
<g id="edge30" class="edge">
<title>Node4&#45;&gt;Node19</title>
<path fill="none" stroke="midnightblue" d="M860.93,-414.32C845.04,-405.74 820.49,-392.49 802.04,-382.52"/>
<polygon fill="midnightblue" stroke="midnightblue" points="803.49,-379.33 793.03,-377.65 800.16,-385.49 803.49,-379.33"/>
</g>
<!-- Node6 -->
<g id="node6" class="node">
<title>Node6</title>
<g id="a_node6"><a xlink:title=" ">
<polygon fill="white" stroke="#bfbfbf" points="946,-0.5 946,-19.5 996,-19.5 996,-0.5 946,-0.5"/>
<text text-anchor="middle" x="971" y="-7.5" font-family="Helvetica,sans-Serif" font-size="10.00">cstdint</text>
</a>
</g>
</g>
<!-- Node5&#45;&gt;Node6 -->
<g id="edge5" class="edge">
<title>Node5&#45;&gt;Node6</title>
<path fill="none" stroke="midnightblue" d="M1083.21,-168.4C1066.92,-144.96 1033.14,-96.56 1004,-56 997.28,-46.64 989.67,-36.26 983.46,-27.83"/>
<polygon fill="midnightblue" stroke="midnightblue" points="986.13,-25.55 977.38,-19.59 980.5,-29.71 986.13,-25.55"/>
</g>
<!-- Node7 -->
<g id="node7" class="node">
<title>Node7</title>
<g id="a_node7"><a xlink:title=" ">
<polygon fill="white" stroke="#bfbfbf" points="549.5,-0.5 549.5,-19.5 596.5,-19.5 596.5,-0.5 549.5,-0.5"/>
<text text-anchor="middle" x="573" y="-7.5" font-family="Helvetica,sans-Serif" font-size="10.00">vector</text>
</a>
</g>
</g>
<!-- Node5&#45;&gt;Node7 -->
<g id="edge6" class="edge">
<title>Node5&#45;&gt;Node7</title>
<path fill="none" stroke="midnightblue" d="M1050.45,-168.47C949.45,-135.15 696.94,-51.88 606.16,-21.94"/>
<polygon fill="midnightblue" stroke="midnightblue" points="607.24,-18.61 596.65,-18.8 605.05,-25.26 607.24,-18.61"/>
</g>
<!-- Node8 -->
<g id="node8" class="node">
<title>Node8</title>
<g id="a_node8"><a xlink:title=" ">
<polygon fill="white" stroke="#bfbfbf" points="649,-0.5 649,-19.5 707,-19.5 707,-0.5 649,-0.5"/>
<text text-anchor="middle" x="678" y="-7.5" font-family="Helvetica,sans-Serif" font-size="10.00">memory</text>
</a>
</g>
</g>
<!-- Node5&#45;&gt;Node8 -->
<g id="edge7" class="edge">
<title>Node5&#45;&gt;Node8</title>
<path fill="none" stroke="midnightblue" d="M1075.15,-168.32C1041.16,-142.06 963.95,-85.81 890,-56 832.29,-32.74 760.68,-20.75 717.2,-15.18"/>
<polygon fill="midnightblue" stroke="midnightblue" points="717.4,-11.68 707.05,-13.93 716.55,-18.62 717.4,-11.68"/>
</g>
<!-- Node9 -->
<g id="node9" class="node">
<title>Node9</title>
<g id="a_node9"><a xlink:href="AMemory_8hpp.html" target="_top" xlink:title=" ">
<polygon fill="white" stroke="black" points="509.5,-112.5 509.5,-131.5 592.5,-131.5 592.5,-112.5 509.5,-112.5"/>
<text text-anchor="middle" x="551" y="-119.5" font-family="Helvetica,sans-Serif" font-size="10.00">AMemory.hpp</text>
</a>
</g>
</g>
<!-- Node5&#45;&gt;Node9 -->
<g id="edge8" class="edge">
<title>Node5&#45;&gt;Node9</title>
<path fill="none" stroke="midnightblue" d="M1017.85,-173.43C1002.36,-171.6 986.15,-169.71 971,-168 838.5,-153.03 682.33,-136.62 602.96,-128.37"/>
<polygon fill="midnightblue" stroke="midnightblue" points="603.05,-124.86 592.75,-127.31 602.33,-131.83 603.05,-124.86"/>
</g>
<!-- Node9&#45;&gt;Node6 -->
<g id="edge9" class="edge">
<title>Node9&#45;&gt;Node6</title>
<path fill="none" stroke="midnightblue" d="M583.61,-112.46C661.08,-92.17 855.67,-41.21 935.74,-20.23"/>
<polygon fill="midnightblue" stroke="midnightblue" points="937.03,-23.52 945.81,-17.6 935.25,-16.74 937.03,-23.52"/>
</g>
<!-- Node9&#45;&gt;Node7 -->
<g id="edge10" class="edge">
<title>Node9&#45;&gt;Node7</title>
<path fill="none" stroke="midnightblue" d="M552.73,-112.37C556.28,-94.62 564.47,-53.67 569.28,-29.6"/>
<polygon fill="midnightblue" stroke="midnightblue" points="572.75,-30.08 571.28,-19.59 565.89,-28.71 572.75,-30.08"/>
</g>
<!-- Node9&#45;&gt;Node8 -->
<g id="edge11" class="edge">
<title>Node9&#45;&gt;Node8</title>
<path fill="none" stroke="midnightblue" d="M561.19,-112.17C575.61,-99.66 602.82,-76.08 626,-56 637.42,-46.11 650.26,-35 660.32,-26.29"/>
<polygon fill="midnightblue" stroke="midnightblue" points="662.76,-28.81 668.03,-19.62 658.18,-23.52 662.76,-28.81"/>
</g>
<!-- Node10 -->
<g id="node10" class="node">
<title>Node10</title>
<g id="a_node10"><a xlink:title=" ">
<polygon fill="white" stroke="#bfbfbf" points="273,-0.5 273,-19.5 317,-19.5 317,-0.5 273,-0.5"/>
<text text-anchor="middle" x="295" y="-7.5" font-family="Helvetica,sans-Serif" font-size="10.00">string</text>
</a>
</g>
</g>
<!-- Node9&#45;&gt;Node10 -->
<g id="edge12" class="edge">
<title>Node9&#45;&gt;Node10</title>
<path fill="none" stroke="midnightblue" d="M517.28,-112.48C488.03,-104.58 444.89,-91.71 409,-76 375.4,-61.29 338.97,-39.38 316.56,-25.13"/>
<polygon fill="midnightblue" stroke="midnightblue" points="318.17,-22.01 307.87,-19.54 314.39,-27.9 318.17,-22.01"/>
</g>
<!-- Node11 -->
<g id="node11" class="node">
<title>Node11</title>
<g id="a_node11"><a xlink:href="Int24_8hpp.html" target="_top" xlink:title=" ">
<polygon fill="white" stroke="black" points="73,-0.5 73,-19.5 183,-19.5 183,-0.5 73,-0.5"/>
<text text-anchor="middle" x="128" y="-7.5" font-family="Helvetica,sans-Serif" font-size="10.00">../Models/Int24.hpp</text>
</a>
</g>
</g>
<!-- Node9&#45;&gt;Node11 -->
<g id="edge13" class="edge">
<title>Node9&#45;&gt;Node11</title>
<path fill="none" stroke="midnightblue" d="M514.42,-112.42C477.04,-103.58 417.37,-89.26 366,-76 296.26,-58 215.45,-35.6 168.2,-22.35"/>
<polygon fill="midnightblue" stroke="midnightblue" points="168.93,-18.92 158.36,-19.58 167.04,-25.66 168.93,-18.92"/>
</g>
<!-- Node12 -->
<g id="node12" class="node">
<title>Node12</title>
<g id="a_node12"><a xlink:href="Components_8hpp.html" target="_top" xlink:title=" ">
<polygon fill="white" stroke="black" points="385,-0.5 385,-19.5 531,-19.5 531,-0.5 385,-0.5"/>
<text text-anchor="middle" x="458" y="-7.5" font-family="Helvetica,sans-Serif" font-size="10.00">../Models/Components.hpp</text>
</a>
</g>
</g>
<!-- Node9&#45;&gt;Node12 -->
<g id="edge14" class="edge">
<title>Node9&#45;&gt;Node12</title>
<path fill="none" stroke="midnightblue" d="M545.9,-112.13C538.26,-99.17 523.02,-74.58 507,-56 497.78,-45.31 486.2,-34.57 476.61,-26.27"/>
<polygon fill="midnightblue" stroke="midnightblue" points="478.7,-23.45 468.81,-19.66 474.18,-28.79 478.7,-23.45"/>
</g>
<!-- Node13 -->
<g id="node13" class="node">
<title>Node13</title>
<g id="a_node13"><a xlink:href="IMemory_8hpp.html" target="_top" xlink:title=" ">
<polygon fill="white" stroke="black" points="418,-56.5 418,-75.5 498,-75.5 498,-56.5 418,-56.5"/>
<text text-anchor="middle" x="458" y="-63.5" font-family="Helvetica,sans-Serif" font-size="10.00">IMemory.hpp</text>
</a>
</g>
</g>
<!-- Node9&#45;&gt;Node13 -->
<g id="edge15" class="edge">
<title>Node9&#45;&gt;Node13</title>
<path fill="none" stroke="midnightblue" d="M536.06,-112.32C521.41,-103.82 498.87,-90.73 481.76,-80.8"/>
<polygon fill="midnightblue" stroke="midnightblue" points="483.31,-77.65 472.9,-75.65 479.8,-83.7 483.31,-77.65"/>
</g>
<!-- Node13&#45;&gt;Node6 -->
<g id="edge16" class="edge">
<title>Node13&#45;&gt;Node6</title>
<path fill="none" stroke="midnightblue" d="M498.25,-60.76C595.73,-50.5 843.17,-24.46 935.52,-14.73"/>
<polygon fill="midnightblue" stroke="midnightblue" points="936.17,-18.19 945.75,-13.66 935.43,-11.22 936.17,-18.19"/>
</g>
<!-- Node13&#45;&gt;Node7 -->
<g id="edge17" class="edge">
<title>Node13&#45;&gt;Node7</title>
<path fill="none" stroke="midnightblue" d="M476.22,-56.44C494.9,-47.68 524.16,-33.94 545.62,-23.86"/>
<polygon fill="midnightblue" stroke="midnightblue" points="547.3,-26.93 554.86,-19.52 544.32,-20.6 547.3,-26.93"/>
</g>
<!-- Node13&#45;&gt;Node8 -->
<g id="edge18" class="edge">
<title>Node13&#45;&gt;Node8</title>
<path fill="none" stroke="midnightblue" d="M492.86,-56.44C532.71,-46.66 597.75,-30.7 639.18,-20.53"/>
<polygon fill="midnightblue" stroke="midnightblue" points="640.05,-23.92 648.92,-18.14 638.38,-17.12 640.05,-23.92"/>
</g>
<!-- Node13&#45;&gt;Node10 -->
<g id="edge19" class="edge">
<title>Node13&#45;&gt;Node10</title>
<path fill="none" stroke="midnightblue" d="M432.17,-56.44C403.62,-46.99 357.61,-31.74 326.85,-21.55"/>
<polygon fill="midnightblue" stroke="midnightblue" points="327.64,-18.13 317.05,-18.3 325.44,-24.77 327.64,-18.13"/>
</g>
<!-- Node13&#45;&gt;Node11 -->
<g id="edge20" class="edge">
<title>Node13&#45;&gt;Node11</title>
<path fill="none" stroke="midnightblue" d="M417.87,-58.43C361.09,-49.14 256.82,-32.08 190.03,-21.15"/>
<polygon fill="midnightblue" stroke="midnightblue" points="190.49,-17.68 180.05,-19.52 189.36,-24.59 190.49,-17.68"/>
</g>
<!-- Node13&#45;&gt;Node12 -->
<g id="edge21" class="edge">
<title>Node13&#45;&gt;Node12</title>
<path fill="none" stroke="midnightblue" d="M458,-56.08C458,-49.01 458,-38.86 458,-29.99"/>
<polygon fill="midnightblue" stroke="midnightblue" points="461.5,-29.75 458,-19.75 454.5,-29.75 461.5,-29.75"/>
</g>
<!-- Node17 -->
<g id="node17" class="node">
<title>Node17</title>
<g id="a_node17"><a xlink:href="IRenderer_8hpp.html" target="_top" xlink:title=" ">
<polygon fill="white" stroke="black" points="744,-174 744,-193 828,-193 828,-174 744,-174"/>
<text text-anchor="middle" x="786" y="-181" font-family="Helvetica,sans-Serif" font-size="10.00">IRenderer.hpp</text>
</a>
</g>
</g>
<!-- Node16&#45;&gt;Node17 -->
<g id="edge27" class="edge">
<title>Node16&#45;&gt;Node17</title>
<path fill="none" stroke="midnightblue" d="M1098.52,-291.48C1083.28,-275.28 1055.94,-249.06 1027,-235 1010.19,-226.83 903.87,-206.25 838.18,-194.03"/>
<polygon fill="midnightblue" stroke="midnightblue" points="838.48,-190.53 828.01,-192.15 837.2,-197.41 838.48,-190.53"/>
</g>
<!-- Node17&#45;&gt;Node10 -->
<g id="edge28" class="edge">
<title>Node17&#45;&gt;Node10</title>
<path fill="none" stroke="midnightblue" d="M743.8,-175.54C670.19,-163.33 523.94,-138.7 501,-132 469.83,-122.89 393.39,-93.45 366,-76 344.32,-62.19 323.06,-41.51 309.54,-27.2"/>
<polygon fill="midnightblue" stroke="midnightblue" points="311.89,-24.58 302.54,-19.61 306.75,-29.33 311.89,-24.58"/>
</g>
<!-- Node18 -->
<g id="node18" class="node">
<title>Node18</title>
<g id="a_node18"><a xlink:title=" ">
<polygon fill="white" stroke="#bfbfbf" points="748,-112.5 748,-131.5 788,-131.5 788,-112.5 748,-112.5"/>
<text text-anchor="middle" x="768" y="-119.5" font-family="Helvetica,sans-Serif" font-size="10.00">span</text>
</a>
</g>
</g>
<!-- Node17&#45;&gt;Node18 -->
<g id="edge29" class="edge">
<title>Node17&#45;&gt;Node18</title>
<path fill="none" stroke="midnightblue" d="M783.42,-173.98C780.85,-165.49 776.83,-152.2 773.54,-141.32"/>
<polygon fill="midnightblue" stroke="midnightblue" points="776.82,-140.07 770.57,-131.51 770.12,-142.09 776.82,-140.07"/>
</g>
<!-- Node19&#45;&gt;Node5 -->
<g id="edge31" class="edge">
<title>Node19&#45;&gt;Node5</title>
<path fill="none" stroke="midnightblue" d="M833.39,-358.5C897.36,-348.48 994.7,-331.93 1009,-322 1049.25,-294.05 1073.75,-239.96 1085.21,-208.59"/>
<polygon fill="midnightblue" stroke="midnightblue" points="1088.6,-209.5 1088.6,-198.9 1081.99,-207.19 1088.6,-209.5"/>
</g>
<!-- Node19&#45;&gt;Node17 -->
<g id="edge76" class="edge">
<title>Node19&#45;&gt;Node17</title>
<path fill="none" stroke="midnightblue" d="M777.43,-358.2C778.82,-330.19 783.13,-242.71 785.06,-203.66"/>
<polygon fill="midnightblue" stroke="midnightblue" points="788.57,-203.37 785.57,-193.21 781.58,-203.03 788.57,-203.37"/>
</g>
<!-- Node20 -->
<g id="node20" class="node">
<title>Node20</title>
<g id="a_node20"><a xlink:href="CPU_8hpp.html" target="_top" xlink:title=" ">
<polygon fill="white" stroke="black" points="435.5,-297 435.5,-316 516.5,-316 516.5,-297 435.5,-297"/>
<text text-anchor="middle" x="476" y="-304" font-family="Helvetica,sans-Serif" font-size="10.00">CPU/CPU.hpp</text>
</a>
</g>
</g>
<!-- Node19&#45;&gt;Node20 -->
<g id="edge32" class="edge">
<title>Node19&#45;&gt;Node20</title>
<path fill="none" stroke="midnightblue" d="M733.87,-358.48C679.13,-347.65 584.83,-329.01 526.7,-317.52"/>
<polygon fill="midnightblue" stroke="midnightblue" points="527.12,-314.04 516.64,-315.53 525.77,-320.91 527.12,-314.04"/>
</g>
<!-- Node21 -->
<g id="node21" class="node">
<title>Node21</title>
<g id="a_node21"><a xlink:href="Cartridge_8hpp.html" target="_top" xlink:title=" ">
<polygon fill="white" stroke="black" points="215,-235.5 215,-254.5 355,-254.5 355,-235.5 215,-235.5"/>
<text text-anchor="middle" x="285" y="-242.5" font-family="Helvetica,sans-Serif" font-size="10.00">../Cartridge/Cartridge.hpp</text>
</a>
</g>
</g>
<!-- Node19&#45;&gt;Node21 -->
<g id="edge54" class="edge">
<title>Node19&#45;&gt;Node21</title>
<path fill="none" stroke="midnightblue" d="M720.48,-359.26C717.27,-358.83 714.1,-358.41 711,-358 584.85,-341.4 548.22,-360.66 427,-322 381.01,-307.33 332.47,-277.88 305.73,-260.26"/>
<polygon fill="midnightblue" stroke="midnightblue" points="307.48,-257.22 297.23,-254.56 303.59,-263.04 307.48,-257.22"/>
</g>
<!-- Node24 -->
<g id="node24" class="node">
<title>Node24</title>
<g id="a_node24"><a xlink:href="Ram_8hpp.html" target="_top" xlink:title=" ">
<polygon fill="white" stroke="black" points="142.5,-174 142.5,-193 237.5,-193 237.5,-174 142.5,-174"/>
<text text-anchor="middle" x="190" y="-181" font-family="Helvetica,sans-Serif" font-size="10.00">../Ram/Ram.hpp</text>
</a>
</g>
</g>
<!-- Node19&#45;&gt;Node24 -->
<g id="edge55" class="edge">
<title>Node19&#45;&gt;Node24</title>
<path fill="none" stroke="midnightblue" d="M720.49,-359.16C717.28,-358.76 714.1,-358.37 711,-358 552.64,-339.22 508,-363.43 354,-322 284.27,-303.24 251.65,-310.94 206,-255 194.24,-240.59 190.73,-219.23 189.87,-203.8"/>
<polygon fill="midnightblue" stroke="midnightblue" points="193.36,-203.29 189.62,-193.37 186.36,-203.45 193.36,-203.29"/>
</g>
<!-- Node27 -->
<g id="node27" class="node">
<title>Node27</title>
<g id="a_node27"><a xlink:href="PPU_8hpp.html" target="_top" xlink:title=" ">
<polygon fill="white" stroke="black" points="824,-235.5 824,-254.5 904,-254.5 904,-235.5 824,-235.5"/>
<text text-anchor="middle" x="864" y="-242.5" font-family="Helvetica,sans-Serif" font-size="10.00">PPU/PPU.hpp</text>
</a>
</g>
</g>
<!-- Node19&#45;&gt;Node27 -->
<g id="edge56" class="edge">
<title>Node19&#45;&gt;Node27</title>
<path fill="none" stroke="midnightblue" d="M780.24,-358.47C786.05,-343.82 799.22,-313.26 816,-291 824.3,-279.99 835.43,-269.37 844.89,-261.21"/>
<polygon fill="midnightblue" stroke="midnightblue" points="847.23,-263.82 852.66,-254.72 842.74,-258.44 847.23,-263.82"/>
</g>
<!-- Node31 -->
<g id="node31" class="node">
<title>Node31</title>
<g id="a_node31"><a xlink:href="APU_8hpp.html" target="_top" xlink:title=" ">
<polygon fill="white" stroke="black" points="543.5,-235.5 543.5,-254.5 624.5,-254.5 624.5,-235.5 543.5,-235.5"/>
<text text-anchor="middle" x="584" y="-242.5" font-family="Helvetica,sans-Serif" font-size="10.00">APU/APU.hpp</text>
</a>
</g>
</g>
<!-- Node19&#45;&gt;Node31 -->
<g id="edge65" class="edge">
<title>Node19&#45;&gt;Node31</title>
<path fill="none" stroke="midnightblue" d="M763.43,-358.49C730.63,-337.93 646.8,-285.38 606.42,-260.05"/>
<polygon fill="midnightblue" stroke="midnightblue" points="608.15,-257.01 597.81,-254.66 604.43,-262.94 608.15,-257.01"/>
</g>
<!-- Node35 -->
<g id="node35" class="node">
<title>Node35</title>
<g id="a_node35"><a xlink:href="DebuggableError_8hpp.html" target="_top" xlink:title=" ">
<polygon fill="white" stroke="black" points="824.5,-297 824.5,-316 999.5,-316 999.5,-297 824.5,-297"/>
<text text-anchor="middle" x="912" y="-304" font-family="Helvetica,sans-Serif" font-size="10.00">Exceptions/DebuggableError.hpp</text>
</a>
</g>
</g>
<!-- Node19&#45;&gt;Node35 -->
<g id="edge77" class="edge">
<title>Node19&#45;&gt;Node35</title>
<path fill="none" stroke="midnightblue" d="M796.34,-358.48C819.1,-348.45 857.09,-331.7 883.29,-320.15"/>
<polygon fill="midnightblue" stroke="midnightblue" points="884.95,-323.24 892.69,-316.01 882.13,-316.84 884.95,-323.24"/>
</g>
<!-- Node20&#45;&gt;Node5 -->
<g id="edge34" class="edge">
<title>Node20&#45;&gt;Node5</title>
<path fill="none" stroke="midnightblue" d="M516.73,-298.56C568.57,-289.53 660.79,-272.78 739,-255 773.06,-247.26 780.9,-242.57 815,-235 850.87,-227.03 939.96,-211.1 1007.7,-199.25"/>
<polygon fill="midnightblue" stroke="midnightblue" points="1008.7,-202.63 1017.95,-197.46 1007.5,-195.73 1008.7,-202.63"/>
</g>
<!-- Node20&#45;&gt;Node9 -->
<g id="edge33" class="edge">
<title>Node20&#45;&gt;Node9</title>
<path fill="none" stroke="midnightblue" d="M475.19,-296.76C473.49,-273.93 471.54,-211.25 496,-168 503.14,-155.37 515.32,-144.85 526.41,-137.17"/>
<polygon fill="midnightblue" stroke="midnightblue" points="528.47,-140.01 534.95,-131.63 524.66,-134.13 528.47,-140.01"/>
</g>
<!-- Node20&#45;&gt;Node11 -->
<g id="edge35" class="edge">
<title>Node20&#45;&gt;Node11</title>
<path fill="none" stroke="midnightblue" d="M435.42,-303.86C320.31,-298.1 0,-274.03 0,-184.5 0,-184.5 0,-184.5 0,-121 0,-71.64 55.42,-39.61 93.33,-23.48"/>
<polygon fill="midnightblue" stroke="midnightblue" points="95.07,-26.55 103.02,-19.53 92.43,-20.06 95.07,-26.55"/>
</g>
<!-- Node20&#45;&gt;Node21 -->
<g id="edge36" class="edge">
<title>Node20&#45;&gt;Node21</title>
<path fill="none" stroke="midnightblue" d="M448.63,-296.98C415.45,-286.64 359.35,-269.16 322.24,-257.6"/>
<polygon fill="midnightblue" stroke="midnightblue" points="322.9,-254.14 312.31,-254.51 320.82,-260.82 322.9,-254.14"/>
</g>
<!-- Node25 -->
<g id="node25" class="node">
<title>Node25</title>
<g id="a_node25"><a xlink:href="Instruction_8hpp.html" target="_top" xlink:title=" ">
<polygon fill="white" stroke="black" points="120.5,-56.5 120.5,-75.5 209.5,-75.5 209.5,-56.5 120.5,-56.5"/>
<text text-anchor="middle" x="165" y="-63.5" font-family="Helvetica,sans-Serif" font-size="10.00">Instruction.hpp</text>
</a>
</g>
</g>
<!-- Node20&#45;&gt;Node25 -->
<g id="edge46" class="edge">
<title>Node20&#45;&gt;Node25</title>
<path fill="none" stroke="midnightblue" d="M435.18,-303.11C380.98,-298.78 283.12,-286.89 206,-255 165.22,-238.14 144.61,-238.03 124,-199 103.55,-160.28 133.09,-109.69 151.74,-83.82"/>
<polygon fill="midnightblue" stroke="midnightblue" points="154.58,-85.87 157.78,-75.77 148.98,-81.67 154.58,-85.87"/>
</g>
<!-- Node26 -->
<g id="node26" class="node">
<title>Node26</title>
<g id="a_node26"><a xlink:href="DMA_8hpp.html" target="_top" xlink:title=" ">
<polygon fill="white" stroke="black" points="642.5,-235.5 642.5,-254.5 729.5,-254.5 729.5,-235.5 642.5,-235.5"/>
<text text-anchor="middle" x="686" y="-242.5" font-family="Helvetica,sans-Serif" font-size="10.00">DMA/DMA.hpp</text>
</a>
</g>
</g>
<!-- Node20&#45;&gt;Node26 -->
<g id="edge49" class="edge">
<title>Node20&#45;&gt;Node26</title>
<path fill="none" stroke="midnightblue" d="M506.09,-296.98C542.89,-286.55 605.31,-268.86 646.09,-257.31"/>
<polygon fill="midnightblue" stroke="midnightblue" points="647.3,-260.6 655.97,-254.51 645.39,-253.87 647.3,-260.6"/>
</g>
<!-- Node21&#45;&gt;Node9 -->
<g id="edge38" class="edge">
<title>Node21&#45;&gt;Node9</title>
<path fill="none" stroke="midnightblue" d="M286.71,-235.34C290.36,-219.33 300.47,-185.16 323,-168 350.1,-147.36 440.65,-134.37 499.15,-127.92"/>
<polygon fill="midnightblue" stroke="midnightblue" points="499.75,-131.37 509.32,-126.83 499.01,-124.41 499.75,-131.37"/>
</g>
<!-- Node21&#45;&gt;Node10 -->
<g id="edge37" class="edge">
<title>Node21&#45;&gt;Node10</title>
<path fill="none" stroke="midnightblue" d="M214.7,-241.16C184.54,-236.01 151.94,-224.36 133,-199 124.76,-187.96 127.63,-180.69 133,-168 140.71,-149.78 237.19,-62.5 277.49,-26.54"/>
<polygon fill="midnightblue" stroke="midnightblue" points="279.83,-29.14 284.97,-19.87 275.18,-23.91 279.83,-29.14"/>
</g>
<!-- Node21&#45;&gt;Node11 -->
<g id="edge39" class="edge">
<title>Node21&#45;&gt;Node11</title>
<path fill="none" stroke="midnightblue" d="M214.65,-238.63C183.57,-232.95 148.59,-221.57 124,-199 74.82,-153.85 50.84,-116.99 78,-56 83.57,-43.5 94.52,-33.01 104.75,-25.32"/>
<polygon fill="midnightblue" stroke="midnightblue" points="106.85,-28.12 113.05,-19.53 102.84,-22.38 106.85,-28.12"/>
</g>
<!-- Node22 -->
<g id="node22" class="node">
<title>Node22</title>
<g id="a_node22"><a xlink:href="ARectangleMemory_8hpp.html" target="_top" xlink:title=" ">
<polygon fill="white" stroke="black" points="217.5,-112.5 217.5,-131.5 402.5,-131.5 402.5,-112.5 217.5,-112.5"/>
<text text-anchor="middle" x="310" y="-119.5" font-family="Helvetica,sans-Serif" font-size="10.00">../Memory/ARectangleMemory.hpp</text>
</a>
</g>
</g>
<!-- Node21&#45;&gt;Node22 -->
<g id="edge40" class="edge">
<title>Node21&#45;&gt;Node22</title>
<path fill="none" stroke="midnightblue" d="M284.6,-235.42C284.14,-221.18 284.11,-191.88 290,-168 292.3,-158.66 296.45,-148.84 300.36,-140.76"/>
<polygon fill="midnightblue" stroke="midnightblue" points="303.6,-142.13 305.05,-131.64 297.37,-138.93 303.6,-142.13"/>
</g>
<!-- Node23 -->
<g id="node23" class="node">
<title>Node23</title>
<g id="a_node23"><a xlink:href="InterruptVectors_8hpp.html" target="_top" xlink:title=" ">
<polygon fill="white" stroke="black" points="332,-174 332,-193 448,-193 448,-174 332,-174"/>
<text text-anchor="middle" x="390" y="-181" font-family="Helvetica,sans-Serif" font-size="10.00">InterruptVectors.hpp</text>
</a>
</g>
</g>
<!-- Node21&#45;&gt;Node23 -->
<g id="edge42" class="edge">
<title>Node21&#45;&gt;Node23</title>
<path fill="none" stroke="midnightblue" d="M300.04,-235.48C317.28,-225.71 345.74,-209.58 366.03,-198.08"/>
<polygon fill="midnightblue" stroke="midnightblue" points="368.01,-200.98 374.98,-193.01 364.56,-194.89 368.01,-200.98"/>
</g>
<!-- Node21&#45;&gt;Node24 -->
<g id="edge43" class="edge">
<title>Node21&#45;&gt;Node24</title>
<path fill="none" stroke="midnightblue" d="M271.39,-235.48C255.94,-225.8 230.51,-209.87 212.18,-198.39"/>
<polygon fill="midnightblue" stroke="midnightblue" points="213.92,-195.35 203.59,-193.01 210.2,-201.28 213.92,-195.35"/>
</g>
<!-- Node22&#45;&gt;Node13 -->
<g id="edge41" class="edge">
<title>Node22&#45;&gt;Node13</title>
<path fill="none" stroke="midnightblue" d="M333.45,-112.44C358.13,-103.44 397.19,-89.19 424.98,-79.05"/>
<polygon fill="midnightblue" stroke="midnightblue" points="426.46,-82.23 434.66,-75.52 424.06,-75.66 426.46,-82.23"/>
</g>
<!-- Node24&#45;&gt;Node10 -->
<g id="edge45" class="edge">
<title>Node24&#45;&gt;Node10</title>
<path fill="none" stroke="midnightblue" d="M190.68,-173.57C192.12,-159.48 196.44,-131.66 209,-112 222.42,-91 235.4,-94.59 252,-76 265.2,-61.22 277.37,-42.08 285.37,-28.4"/>
<polygon fill="midnightblue" stroke="midnightblue" points="288.5,-29.97 290.41,-19.55 282.42,-26.51 288.5,-29.97"/>
</g>
<!-- Node24&#45;&gt;Node22 -->
<g id="edge44" class="edge">
<title>Node24&#45;&gt;Node22</title>
<path fill="none" stroke="midnightblue" d="M207.19,-173.98C227.24,-164.03 260.6,-147.49 283.86,-135.96"/>
<polygon fill="midnightblue" stroke="midnightblue" points="285.43,-139.09 292.84,-131.51 282.32,-132.82 285.43,-139.09"/>
</g>
<!-- Node25&#45;&gt;Node10 -->
<g id="edge47" class="edge">
<title>Node25&#45;&gt;Node10</title>
<path fill="none" stroke="midnightblue" d="M185.6,-56.44C206.99,-47.56 240.68,-33.56 265.02,-23.45"/>
<polygon fill="midnightblue" stroke="midnightblue" points="266.61,-26.58 274.5,-19.52 263.92,-20.12 266.61,-26.58"/>
</g>
<!-- Node25&#45;&gt;Node11 -->
<g id="edge48" class="edge">
<title>Node25&#45;&gt;Node11</title>
<path fill="none" stroke="midnightblue" d="M158.89,-56.08C153.72,-48.53 146.15,-37.49 139.81,-28.23"/>
<polygon fill="midnightblue" stroke="midnightblue" points="142.54,-26.02 134,-19.75 136.76,-29.98 142.54,-26.02"/>
</g>
<!-- Node26&#45;&gt;Node5 -->
<g id="edge53" class="edge">
<title>Node26&#45;&gt;Node5</title>
<path fill="none" stroke="midnightblue" d="M729.51,-238.14C790.79,-229.81 906.02,-213.91 1004,-199 1005.26,-198.81 1006.53,-198.61 1007.81,-198.42"/>
<polygon fill="midnightblue" stroke="midnightblue" points="1008.41,-201.87 1017.75,-196.87 1007.34,-194.95 1008.41,-201.87"/>
</g>
<!-- Node26&#45;&gt;Node6 -->
<g id="edge50" class="edge">
<title>Node26&#45;&gt;Node6</title>
<path fill="none" stroke="midnightblue" d="M729.54,-235.93C731.38,-235.61 733.21,-235.3 735,-235 787.32,-226.21 936.43,-239.24 971,-199 1012.62,-150.55 990.61,-66.32 977.93,-29.32"/>
<polygon fill="midnightblue" stroke="midnightblue" points="981.19,-28.05 974.52,-19.83 974.61,-30.42 981.19,-28.05"/>
</g>
<!-- Node26&#45;&gt;Node8 -->
<g id="edge51" class="edge">
<title>Node26&#45;&gt;Node8</title>
<path fill="none" stroke="midnightblue" d="M687.39,-235.31C691.46,-208.46 702.4,-124.44 692,-56 690.63,-47 687.81,-37.33 685.05,-29.26"/>
<polygon fill="midnightblue" stroke="midnightblue" points="688.31,-27.98 681.6,-19.78 681.73,-30.37 688.31,-27.98"/>
</g>
<!-- Node26&#45;&gt;Node11 -->
<g id="edge52" class="edge">
<title>Node26&#45;&gt;Node11</title>
<path fill="none" stroke="midnightblue" d="M676.86,-235.32C659.79,-219.58 621.32,-186.25 583,-168 525.39,-140.56 502.63,-157.2 444,-132 428.59,-125.38 427.82,-117.57 412,-112 348.46,-89.61 155.72,-126.38 111,-76 99.31,-62.83 107.32,-42.6 115.86,-28.2"/>
<polygon fill="midnightblue" stroke="midnightblue" points="118.85,-30.02 121.34,-19.72 112.97,-26.22 118.85,-30.02"/>
</g>
<!-- Node27&#45;&gt;Node5 -->
<g id="edge59" class="edge">
<title>Node27&#45;&gt;Node5</title>
<path fill="none" stroke="midnightblue" d="M896.81,-235.48C931.23,-226.53 986.2,-212.25 1029.21,-201.07"/>
<polygon fill="midnightblue" stroke="midnightblue" points="1030.23,-204.43 1039.03,-198.52 1028.47,-197.65 1030.23,-204.43"/>
</g>
<!-- Node27&#45;&gt;Node6 -->
<g id="edge57" class="edge">
<title>Node27&#45;&gt;Node6</title>
<path fill="none" stroke="midnightblue" d="M904.07,-236.46C907.42,-235.93 910.77,-235.43 914,-235 958.56,-229.01 1286.66,-232.17 1317,-199 1415.01,-91.84 1112.13,-33.07 1006.18,-16.17"/>
<polygon fill="midnightblue" stroke="midnightblue" points="1006.69,-12.71 996.27,-14.62 1005.61,-19.63 1006.69,-12.71"/>
</g>
<!-- Node27&#45;&gt;Node9 -->
<g id="edge58" class="edge">
<title>Node27&#45;&gt;Node9</title>
<path fill="none" stroke="midnightblue" d="M863.66,-235.34C862.53,-219.33 857.69,-185.17 837,-168 802.26,-139.16 675.41,-128.64 602.86,-124.93"/>
<polygon fill="midnightblue" stroke="midnightblue" points="602.72,-121.41 592.56,-124.43 602.38,-128.41 602.72,-121.41"/>
</g>
<!-- Node27&#45;&gt;Node17 -->
<g id="edge60" class="edge">
<title>Node27&#45;&gt;Node17</title>
<path fill="none" stroke="midnightblue" d="M852.82,-235.48C840.43,-226.02 820.21,-210.6 805.25,-199.19"/>
<polygon fill="midnightblue" stroke="midnightblue" points="807.23,-196.29 797.15,-193.01 802.98,-201.86 807.23,-196.29"/>
</g>
<!-- Node27&#45;&gt;Node24 -->
<g id="edge61" class="edge">
<title>Node27&#45;&gt;Node24</title>
<path fill="none" stroke="midnightblue" d="M823.93,-241.02C734.17,-234.27 510.16,-216.98 323,-199 298.33,-196.63 271.12,-193.72 247.77,-191.12"/>
<polygon fill="midnightblue" stroke="midnightblue" points="248,-187.63 237.68,-190 247.23,-194.59 248,-187.63"/>
</g>
<!-- Node28 -->
<g id="node28" class="node">
<title>Node28</title>
<g id="a_node28"><a xlink:href="Vector2_8hpp.html" target="_top" xlink:title=" ">
<polygon fill="white" stroke="black" points="1186,-174 1186,-193 1308,-193 1308,-174 1186,-174"/>
<text text-anchor="middle" x="1247" y="-181" font-family="Helvetica,sans-Serif" font-size="10.00">../Models/Vector2.hpp</text>
</a>
</g>
</g>
<!-- Node27&#45;&gt;Node28 -->
<g id="edge62" class="edge">
<title>Node27&#45;&gt;Node28</title>
<path fill="none" stroke="midnightblue" d="M904.09,-236.63C907.44,-236.06 910.78,-235.51 914,-235 1030.53,-216.55 1060.72,-218.98 1177,-199 1183.82,-197.83 1190.99,-196.48 1198.04,-195.08"/>
<polygon fill="midnightblue" stroke="midnightblue" points="1199.1,-198.44 1208.21,-193.03 1197.72,-191.58 1199.1,-198.44"/>
</g>
<!-- Node29 -->
<g id="node29" class="node">
<title>Node29</title>
<g id="a_node29"><a xlink:title=" ">
<polygon fill="white" stroke="#bfbfbf" points="1242.5,-112.5 1242.5,-131.5 1299.5,-131.5 1299.5,-112.5 1242.5,-112.5"/>
<text text-anchor="middle" x="1271" y="-119.5" font-family="Helvetica,sans-Serif" font-size="10.00">ostream</text>
</a>
</g>
</g>
<!-- Node28&#45;&gt;Node29 -->
<g id="edge63" class="edge">
<title>Node28&#45;&gt;Node29</title>
<path fill="none" stroke="midnightblue" d="M1250.44,-173.98C1253.9,-165.4 1259.33,-151.93 1263.75,-140.98"/>
<polygon fill="midnightblue" stroke="midnightblue" points="1267.07,-142.09 1267.57,-131.51 1260.58,-139.47 1267.07,-142.09"/>
</g>
<!-- Node30 -->
<g id="node30" class="node">
<title>Node30</title>
<g id="a_node30"><a xlink:title=" ">
<polygon fill="white" stroke="#bfbfbf" points="1081.5,-112.5 1081.5,-131.5 1224.5,-131.5 1224.5,-112.5 1081.5,-112.5"/>
<text text-anchor="middle" x="1153" y="-119.5" font-family="Helvetica,sans-Serif" font-size="10.00">SFML/System/Vector2.hpp</text>
</a>
</g>
</g>
<!-- Node28&#45;&gt;Node30 -->
<g id="edge64" class="edge">
<title>Node28&#45;&gt;Node30</title>
<path fill="none" stroke="midnightblue" d="M1233.53,-173.98C1218.32,-164.34 1193.31,-148.52 1175.2,-137.05"/>
<polygon fill="midnightblue" stroke="midnightblue" points="1176.76,-133.9 1166.44,-131.51 1173.02,-139.81 1176.76,-133.9"/>
</g>
<!-- Node31&#45;&gt;Node8 -->
<g id="edge66" class="edge">
<title>Node31&#45;&gt;Node8</title>
<path fill="none" stroke="midnightblue" d="M587.46,-235.43C601.13,-201.54 651.61,-76.42 670.66,-29.2"/>
<polygon fill="midnightblue" stroke="midnightblue" points="673.92,-30.48 674.41,-19.9 667.42,-27.86 673.92,-30.48"/>
</g>
<!-- Node31&#45;&gt;Node9 -->
<g id="edge71" class="edge">
<title>Node31&#45;&gt;Node9</title>
<path fill="none" stroke="midnightblue" d="M585.53,-235.29C587.69,-220.88 590.62,-191.33 583,-168 579.59,-157.56 572.82,-147.45 566.39,-139.47"/>
<polygon fill="midnightblue" stroke="midnightblue" points="568.89,-137.01 559.71,-131.73 563.59,-141.59 568.89,-137.01"/>
</g>
<!-- Node31&#45;&gt;Node17 -->
<g id="edge75" class="edge">
<title>Node31&#45;&gt;Node17</title>
<path fill="none" stroke="midnightblue" d="M612.94,-235.48C648.27,-225.07 708.13,-207.44 747.36,-195.88"/>
<polygon fill="midnightblue" stroke="midnightblue" points="748.51,-199.19 757.11,-193.01 746.53,-192.48 748.51,-199.19"/>
</g>
<!-- Node31&#45;&gt;Node24 -->
<g id="edge72" class="edge">
<title>Node31&#45;&gt;Node24</title>
<path fill="none" stroke="midnightblue" d="M543.32,-237.86C472.99,-227.24 328.48,-205.41 247.76,-193.22"/>
<polygon fill="midnightblue" stroke="midnightblue" points="248.18,-189.75 237.77,-191.71 247.13,-196.67 248.18,-189.75"/>
</g>
<!-- Node32 -->
<g id="node32" class="node">
<title>Node32</title>
<g id="a_node32"><a xlink:href="DSP_8hpp.html" target="_top" xlink:title=" ">
<polygon fill="white" stroke="black" points="884,-174 884,-193 962,-193 962,-174 884,-174"/>
<text text-anchor="middle" x="923" y="-181" font-family="Helvetica,sans-Serif" font-size="10.00">DSP/DSP.hpp</text>
</a>
</g>
</g>
<!-- Node31&#45;&gt;Node32 -->
<g id="edge67" class="edge">
<title>Node31&#45;&gt;Node32</title>
<path fill="none" stroke="midnightblue" d="M624.66,-236.66C627.82,-236.1 630.96,-235.54 634,-235 718.21,-220.06 816.29,-202.99 873.81,-193.02"/>
<polygon fill="midnightblue" stroke="midnightblue" points="874.47,-196.46 883.72,-191.3 873.27,-189.56 874.47,-196.46"/>
</g>
<!-- Node34 -->
<g id="node34" class="node">
<title>Node34</title>
<g id="a_node34"><a xlink:href="IPL_8hpp.html" target="_top" xlink:title=" ">
<polygon fill="white" stroke="black" points="504.5,-174 504.5,-193 573.5,-193 573.5,-174 504.5,-174"/>
<text text-anchor="middle" x="539" y="-181" font-family="Helvetica,sans-Serif" font-size="10.00">IPL/IPL.hpp</text>
</a>
</g>
</g>
<!-- Node31&#45;&gt;Node34 -->
<g id="edge73" class="edge">
<title>Node31&#45;&gt;Node34</title>
<path fill="none" stroke="midnightblue" d="M577.55,-235.48C570.8,-226.55 560.03,-212.31 551.59,-201.14"/>
<polygon fill="midnightblue" stroke="midnightblue" points="554.26,-198.87 545.44,-193.01 548.68,-203.1 554.26,-198.87"/>
</g>
<!-- Node32&#45;&gt;Node6 -->
<g id="edge68" class="edge">
<title>Node32&#45;&gt;Node6</title>
<path fill="none" stroke="midnightblue" d="M925.45,-173.76C932.93,-147.04 955.6,-66.02 965.86,-29.36"/>
<polygon fill="midnightblue" stroke="midnightblue" points="969.29,-30.09 968.62,-19.52 962.55,-28.21 969.29,-30.09"/>
</g>
<!-- Node32&#45;&gt;Node9 -->
<g id="edge70" class="edge">
<title>Node32&#45;&gt;Node9</title>
<path fill="none" stroke="midnightblue" d="M894.28,-173.93C886.45,-171.79 877.94,-169.64 870,-168 776.6,-148.72 666.11,-135.16 602.72,-128.25"/>
<polygon fill="midnightblue" stroke="midnightblue" points="602.9,-124.75 592.58,-127.16 602.15,-131.71 602.9,-124.75"/>
</g>
<!-- Node33 -->
<g id="node33" class="node">
<title>Node33</title>
<g id="a_node33"><a xlink:title=" ">
<polygon fill="white" stroke="#bfbfbf" points="806,-112.5 806,-131.5 848,-131.5 848,-112.5 806,-112.5"/>
<text text-anchor="middle" x="827" y="-119.5" font-family="Helvetica,sans-Serif" font-size="10.00">array</text>
</a>
</g>
</g>
<!-- Node32&#45;&gt;Node33 -->
<g id="edge69" class="edge">
<title>Node32&#45;&gt;Node33</title>
<path fill="none" stroke="midnightblue" d="M909.25,-173.98C893.63,-164.3 867.94,-148.37 849.42,-136.89"/>
<polygon fill="midnightblue" stroke="midnightblue" points="851.07,-133.8 840.73,-131.51 847.38,-139.75 851.07,-133.8"/>
</g>
<!-- Node34&#45;&gt;Node9 -->
<g id="edge74" class="edge">
<title>Node34&#45;&gt;Node9</title>
<path fill="none" stroke="midnightblue" d="M540.72,-173.98C542.43,-165.49 545.11,-152.2 547.3,-141.32"/>
<polygon fill="midnightblue" stroke="midnightblue" points="550.74,-142 549.28,-131.51 543.88,-140.62 550.74,-142"/>
</g>
<!-- Node36 -->
<g id="node36" class="node">
<title>Node36</title>
<g id="a_node36"><a xlink:title=" ">
<polygon fill="white" stroke="#bfbfbf" points="922.5,-235.5 922.5,-254.5 1017.5,-254.5 1017.5,-235.5 922.5,-235.5"/>
<text text-anchor="middle" x="970" y="-242.5" font-family="Helvetica,sans-Serif" font-size="10.00">bits/exception.h</text>
</a>
</g>
</g>
<!-- Node35&#45;&gt;Node36 -->
<g id="edge78" class="edge">
<title>Node35&#45;&gt;Node36</title>
<path fill="none" stroke="midnightblue" d="M920.31,-296.98C929.18,-287.87 943.45,-273.24 954.42,-261.98"/>
<polygon fill="midnightblue" stroke="midnightblue" points="957.23,-264.11 961.71,-254.51 952.22,-259.23 957.23,-264.11"/>
</g>
</g>
</svg>
