<?xml version="1.0" encoding="UTF-8" standalone="no"?>
<!DOCTYPE svg PUBLIC "-//W3C//DTD SVG 1.1//EN"
 "http://www.w3.org/Graphics/SVG/1.1/DTD/svg11.dtd">
<!-- Generated by graphviz version 2.43.0 (0)
 -->
<!-- Title: tests/CPU/testInterupts.cpp Pages: 1 -->
<svg width="1359pt" height="498pt"
 viewBox="0.00 0.00 1359.00 498.00" xmlns="http://www.w3.org/2000/svg" xmlns:xlink="http://www.w3.org/1999/xlink">
<g id="graph0" class="graph" transform="scale(1 1) rotate(0) translate(4 494)">
<title>tests/CPU/testInterupts.cpp</title>
<polygon fill="white" stroke="transparent" points="-4,4 -4,-494 1355,-494 1355,4 -4,4"/>
<!-- Node1 -->
<g id="node1" class="node">
<title>Node1</title>
<g id="a_node1"><a xlink:title=" ">
<polygon fill="#bfbfbf" stroke="black" points="489.5,-470.5 489.5,-489.5 638.5,-489.5 638.5,-470.5 489.5,-470.5"/>
<text text-anchor="middle" x="564" y="-477.5" font-family="Helvetica,sans-Serif" font-size="10.00">tests/CPU/testInterupts.cpp</text>
</a>
</g>
</g>
<!-- Node2 -->
<g id="node2" class="node">
<title>Node2</title>
<g id="a_node2"><a xlink:title=" ">
<polygon fill="white" stroke="#bfbfbf" points="317,-358.5 317,-377.5 427,-377.5 427,-358.5 317,-358.5"/>
<text text-anchor="middle" x="372" y="-365.5" font-family="Helvetica,sans-Serif" font-size="10.00">criterion/criterion.h</text>
</a>
</g>
</g>
<!-- Node1&#45;&gt;Node2 -->
<g id="edge1" class="edge">
<title>Node1&#45;&gt;Node2</title>
<path fill="none" stroke="midnightblue" d="M547.67,-470.4C530.85,-461.48 503.94,-447.05 481,-434 450.84,-416.84 416.53,-396.19 394.6,-382.84"/>
<polygon fill="midnightblue" stroke="midnightblue" points="396.36,-379.82 386,-377.6 392.72,-385.79 396.36,-379.82"/>
</g>
<!-- Node3 -->
<g id="node3" class="node">
<title>Node3</title>
<g id="a_node3"><a xlink:title=" ">
<polygon fill="white" stroke="#bfbfbf" points="445,-358.5 445,-377.5 505,-377.5 505,-358.5 445,-358.5"/>
<text text-anchor="middle" x="475" y="-365.5" font-family="Helvetica,sans-Serif" font-size="10.00">iostream</text>
</a>
</g>
</g>
<!-- Node1&#45;&gt;Node3 -->
<g id="edge2" class="edge">
<title>Node1&#45;&gt;Node3</title>
<path fill="none" stroke="midnightblue" d="M543.69,-470.45C528.24,-462.97 507.56,-450.68 495,-434 484.8,-420.46 479.75,-401.65 477.28,-387.75"/>
<polygon fill="midnightblue" stroke="midnightblue" points="480.74,-387.23 475.81,-377.85 473.82,-388.26 480.74,-387.23"/>
</g>
<!-- Node4 -->
<g id="node4" class="node">
<title>Node4</title>
<g id="a_node4"><a xlink:title=" ">
<polygon fill="white" stroke="#bfbfbf" points="504,-414.5 504,-433.5 548,-433.5 548,-414.5 504,-414.5"/>
<text text-anchor="middle" x="526" y="-421.5" font-family="Helvetica,sans-Serif" font-size="10.00">bitset</text>
</a>
</g>
</g>
<!-- Node1&#45;&gt;Node4 -->
<g id="edge3" class="edge">
<title>Node1&#45;&gt;Node4</title>
<path fill="none" stroke="midnightblue" d="M557.73,-470.08C552.36,-462.46 544.48,-451.26 537.92,-441.94"/>
<polygon fill="midnightblue" stroke="midnightblue" points="540.78,-439.91 532.16,-433.75 535.05,-443.94 540.78,-439.91"/>
</g>
<!-- Node5 -->
<g id="node5" class="node">
<title>Node5</title>
<g id="a_node5"><a xlink:href="tests_8hpp.html" target="_top" xlink:title=" ">
<polygon fill="white" stroke="black" points="566.5,-414.5 566.5,-433.5 637.5,-433.5 637.5,-414.5 566.5,-414.5"/>
<text text-anchor="middle" x="602" y="-421.5" font-family="Helvetica,sans-Serif" font-size="10.00">../tests.hpp</text>
</a>
</g>
</g>
<!-- Node1&#45;&gt;Node5 -->
<g id="edge4" class="edge">
<title>Node1&#45;&gt;Node5</title>
<path fill="none" stroke="midnightblue" d="M570.27,-470.08C575.64,-462.46 583.52,-451.26 590.08,-441.94"/>
<polygon fill="midnightblue" stroke="midnightblue" points="592.95,-443.94 595.84,-433.75 587.22,-439.91 592.95,-443.94"/>
</g>
<!-- Node6 -->
<g id="node6" class="node">
<title>Node6</title>
<g id="a_node6"><a xlink:href="MemoryBus_8hpp.html" target="_top" xlink:title=" ">
<polygon fill="white" stroke="black" points="983,-168.5 983,-198.5 1133,-198.5 1133,-168.5 983,-168.5"/>
<text text-anchor="start" x="991" y="-186.5" font-family="Helvetica,sans-Serif" font-size="10.00">../sources/Memory/Memory</text>
<text text-anchor="middle" x="1058" y="-175.5" font-family="Helvetica,sans-Serif" font-size="10.00">Bus.hpp</text>
</a>
</g>
</g>
<!-- Node1&#45;&gt;Node6 -->
<g id="edge81" class="edge">
<title>Node1&#45;&gt;Node6</title>
<path fill="none" stroke="midnightblue" d="M638.76,-479.8C791.91,-479.42 1127,-467.35 1127,-369 1127,-369 1127,-369 1127,-305.5 1127,-266.56 1099.7,-228.74 1079.45,-206.03"/>
<polygon fill="midnightblue" stroke="midnightblue" points="1081.99,-203.62 1072.63,-198.65 1076.85,-208.37 1081.99,-203.62"/>
</g>
<!-- Node19 -->
<g id="node19" class="node">
<title>Node19</title>
<g id="a_node19"><a xlink:href="SNES_8hpp.html" target="_top" xlink:title=" ">
<polygon fill="white" stroke="black" points="631.5,-358.5 631.5,-377.5 744.5,-377.5 744.5,-358.5 631.5,-358.5"/>
<text text-anchor="middle" x="688" y="-365.5" font-family="Helvetica,sans-Serif" font-size="10.00">../sources/SNES.hpp</text>
</a>
</g>
</g>
<!-- Node1&#45;&gt;Node19 -->
<g id="edge80" class="edge">
<title>Node1&#45;&gt;Node19</title>
<path fill="none" stroke="midnightblue" d="M599.59,-470.49C620.8,-463.76 646.86,-452.37 664,-434 675.92,-421.23 682.03,-402.04 685.1,-387.82"/>
<polygon fill="midnightblue" stroke="midnightblue" points="688.6,-388.16 686.96,-377.69 681.71,-386.9 688.6,-388.16"/>
</g>
<!-- Node5&#45;&gt;Node2 -->
<g id="edge23" class="edge">
<title>Node5&#45;&gt;Node2</title>
<path fill="none" stroke="midnightblue" d="M566.31,-414.62C526.51,-405.28 462,-390.13 418.33,-379.88"/>
<polygon fill="midnightblue" stroke="midnightblue" points="419.06,-376.45 408.53,-377.58 417.46,-383.27 419.06,-376.45"/>
</g>
<!-- Node5&#45;&gt;Node3 -->
<g id="edge24" class="edge">
<title>Node5&#45;&gt;Node3</title>
<path fill="none" stroke="midnightblue" d="M581.88,-414.44C560.98,-405.56 528.07,-391.56 504.28,-381.45"/>
<polygon fill="midnightblue" stroke="midnightblue" points="505.6,-378.21 495.03,-377.52 502.86,-384.65 505.6,-378.21"/>
</g>
<!-- Node5&#45;&gt;Node5 -->
<g id="edge26" class="edge">
<title>Node5&#45;&gt;Node5</title>
<path fill="none" stroke="midnightblue" d="M624.82,-433.53C640.32,-436.31 655.5,-433.13 655.5,-424 655.5,-416.86 646.24,-413.37 634.79,-413.5"/>
<polygon fill="midnightblue" stroke="midnightblue" points="634.43,-410.02 624.82,-414.47 635.11,-416.99 634.43,-410.02"/>
</g>
<!-- Node5&#45;&gt;Node6 -->
<g id="edge5" class="edge">
<title>Node5&#45;&gt;Node6</title>
<path fill="none" stroke="midnightblue" d="M637.54,-414.73C668.62,-406.96 714.67,-394.11 753,-378 855.91,-334.74 879.96,-318.18 972,-255 994.3,-239.7 1017.94,-220.03 1034.78,-205.36"/>
<polygon fill="midnightblue" stroke="midnightblue" points="1037.27,-207.83 1042.47,-198.6 1032.65,-202.58 1037.27,-207.83"/>
</g>
<!-- Node15 -->
<g id="node15" class="node">
<title>Node15</title>
<g id="a_node15"><a xlink:title=" ">
<polygon fill="white" stroke="#bfbfbf" points="523.5,-358.5 523.5,-377.5 574.5,-377.5 574.5,-358.5 523.5,-358.5"/>
<text text-anchor="middle" x="549" y="-365.5" font-family="Helvetica,sans-Serif" font-size="10.00">zconf.h</text>
</a>
</g>
</g>
<!-- Node5&#45;&gt;Node15 -->
<g id="edge25" class="edge">
<title>Node5&#45;&gt;Node15</title>
<path fill="none" stroke="midnightblue" d="M593.25,-414.08C585.53,-406.22 574.1,-394.57 564.78,-385.08"/>
<polygon fill="midnightblue" stroke="midnightblue" points="567.09,-382.44 557.59,-377.75 562.1,-387.34 567.09,-382.44"/>
</g>
<!-- Node16 -->
<g id="node16" class="node">
<title>Node16</title>
<g id="a_node16"><a xlink:href="NoRenderer_8hpp.html" target="_top" xlink:title=" ">
<polygon fill="white" stroke="black" points="43,-291.5 43,-321.5 153,-321.5 153,-291.5 43,-291.5"/>
<text text-anchor="start" x="51" y="-309.5" font-family="Helvetica,sans-Serif" font-size="10.00">../sources/Renderer</text>
<text text-anchor="middle" x="98" y="-298.5" font-family="Helvetica,sans-Serif" font-size="10.00">/NoRenderer.hpp</text>
</a>
</g>
</g>
<!-- Node5&#45;&gt;Node16 -->
<g id="edge27" class="edge">
<title>Node5&#45;&gt;Node16</title>
<path fill="none" stroke="midnightblue" d="M602.28,-414.22C602.22,-399.97 599.8,-372 583,-358 523.1,-308.09 311.54,-330.13 234,-322 210.96,-319.58 185.73,-316.9 163.33,-314.51"/>
<polygon fill="midnightblue" stroke="midnightblue" points="163.56,-311.02 153.25,-313.43 162.82,-317.98 163.56,-311.02"/>
</g>
<!-- Node5&#45;&gt;Node19 -->
<g id="edge31" class="edge">
<title>Node5&#45;&gt;Node19</title>
<path fill="none" stroke="midnightblue" d="M615.82,-414.32C629.23,-405.9 649.82,-392.97 665.59,-383.07"/>
<polygon fill="midnightblue" stroke="midnightblue" points="667.61,-385.94 674.22,-377.65 663.89,-380.01 667.61,-385.94"/>
</g>
<!-- Node7 -->
<g id="node7" class="node">
<title>Node7</title>
<g id="a_node7"><a xlink:title=" ">
<polygon fill="white" stroke="#bfbfbf" points="693,-0.5 693,-19.5 743,-19.5 743,-0.5 693,-0.5"/>
<text text-anchor="middle" x="718" y="-7.5" font-family="Helvetica,sans-Serif" font-size="10.00">cstdint</text>
</a>
</g>
</g>
<!-- Node6&#45;&gt;Node7 -->
<g id="edge6" class="edge">
<title>Node6&#45;&gt;Node7</title>
<path fill="none" stroke="midnightblue" d="M1030.18,-168.47C965.74,-135.96 807.01,-55.9 744.2,-24.21"/>
<polygon fill="midnightblue" stroke="midnightblue" points="745.47,-20.94 734.97,-19.56 742.32,-27.19 745.47,-20.94"/>
</g>
<!-- Node8 -->
<g id="node8" class="node">
<title>Node8</title>
<g id="a_node8"><a xlink:title=" ">
<polygon fill="white" stroke="#bfbfbf" points="804.5,-0.5 804.5,-19.5 851.5,-19.5 851.5,-0.5 804.5,-0.5"/>
<text text-anchor="middle" x="828" y="-7.5" font-family="Helvetica,sans-Serif" font-size="10.00">vector</text>
</a>
</g>
</g>
<!-- Node6&#45;&gt;Node8 -->
<g id="edge7" class="edge">
<title>Node6&#45;&gt;Node8</title>
<path fill="none" stroke="midnightblue" d="M1039.18,-168.47C996.22,-136.43 891.29,-58.19 847.6,-25.61"/>
<polygon fill="midnightblue" stroke="midnightblue" points="849.59,-22.73 839.48,-19.56 845.4,-28.34 849.59,-22.73"/>
</g>
<!-- Node9 -->
<g id="node9" class="node">
<title>Node9</title>
<g id="a_node9"><a xlink:title=" ">
<polygon fill="white" stroke="#bfbfbf" points="913,-0.5 913,-19.5 971,-19.5 971,-0.5 913,-0.5"/>
<text text-anchor="middle" x="942" y="-7.5" font-family="Helvetica,sans-Serif" font-size="10.00">memory</text>
</a>
</g>
</g>
<!-- Node6&#45;&gt;Node9 -->
<g id="edge8" class="edge">
<title>Node6&#45;&gt;Node9</title>
<path fill="none" stroke="midnightblue" d="M1052.88,-168.19C1043.64,-143.6 1022.48,-92.47 994,-56 985.05,-44.53 972.83,-33.78 962.49,-25.67"/>
<polygon fill="midnightblue" stroke="midnightblue" points="964.44,-22.76 954.36,-19.51 960.22,-28.34 964.44,-22.76"/>
</g>
<!-- Node10 -->
<g id="node10" class="node">
<title>Node10</title>
<g id="a_node10"><a xlink:href="AMemory_8hpp.html" target="_top" xlink:title=" ">
<polygon fill="white" stroke="black" points="755.5,-112.5 755.5,-131.5 838.5,-131.5 838.5,-112.5 755.5,-112.5"/>
<text text-anchor="middle" x="797" y="-119.5" font-family="Helvetica,sans-Serif" font-size="10.00">AMemory.hpp</text>
</a>
</g>
</g>
<!-- Node6&#45;&gt;Node10 -->
<g id="edge9" class="edge">
<title>Node6&#45;&gt;Node10</title>
<path fill="none" stroke="midnightblue" d="M996.48,-168.47C949.88,-157.85 886.81,-143.47 844.16,-133.75"/>
<polygon fill="midnightblue" stroke="midnightblue" points="844.84,-130.32 834.31,-131.51 843.29,-137.14 844.84,-130.32"/>
</g>
<!-- Node10&#45;&gt;Node7 -->
<g id="edge10" class="edge">
<title>Node10&#45;&gt;Node7</title>
<path fill="none" stroke="midnightblue" d="M790.8,-112.37C777.76,-94.22 747.3,-51.8 730.2,-27.99"/>
<polygon fill="midnightblue" stroke="midnightblue" points="732.85,-25.67 724.17,-19.59 727.16,-29.76 732.85,-25.67"/>
</g>
<!-- Node10&#45;&gt;Node8 -->
<g id="edge11" class="edge">
<title>Node10&#45;&gt;Node8</title>
<path fill="none" stroke="midnightblue" d="M799.43,-112.37C804.46,-94.54 816.08,-53.3 822.85,-29.27"/>
<polygon fill="midnightblue" stroke="midnightblue" points="826.23,-30.17 825.58,-19.59 819.5,-28.27 826.23,-30.17"/>
</g>
<!-- Node10&#45;&gt;Node9 -->
<g id="edge12" class="edge">
<title>Node10&#45;&gt;Node9</title>
<path fill="none" stroke="midnightblue" d="M808.38,-112.37C833.05,-93.65 891.71,-49.15 922.45,-25.83"/>
<polygon fill="midnightblue" stroke="midnightblue" points="924.82,-28.42 930.67,-19.59 920.59,-22.85 924.82,-28.42"/>
</g>
<!-- Node11 -->
<g id="node11" class="node">
<title>Node11</title>
<g id="a_node11"><a xlink:title=" ">
<polygon fill="white" stroke="#bfbfbf" points="386,-0.5 386,-19.5 430,-19.5 430,-0.5 386,-0.5"/>
<text text-anchor="middle" x="408" y="-7.5" font-family="Helvetica,sans-Serif" font-size="10.00">string</text>
</a>
</g>
</g>
<!-- Node10&#45;&gt;Node11 -->
<g id="edge13" class="edge">
<title>Node10&#45;&gt;Node11</title>
<path fill="none" stroke="midnightblue" d="M755.18,-112.74C715.09,-104.51 653,-90.98 600,-76 542.8,-59.83 477.5,-36.7 439.69,-22.84"/>
<polygon fill="midnightblue" stroke="midnightblue" points="440.83,-19.53 430.23,-19.35 438.41,-26.09 440.83,-19.53"/>
</g>
<!-- Node12 -->
<g id="node12" class="node">
<title>Node12</title>
<g id="a_node12"><a xlink:href="Int24_8hpp.html" target="_top" xlink:title=" ">
<polygon fill="white" stroke="black" points="1148,-0.5 1148,-19.5 1258,-19.5 1258,-0.5 1148,-0.5"/>
<text text-anchor="middle" x="1203" y="-7.5" font-family="Helvetica,sans-Serif" font-size="10.00">../Models/Int24.hpp</text>
</a>
</g>
</g>
<!-- Node10&#45;&gt;Node12 -->
<g id="edge14" class="edge">
<title>Node10&#45;&gt;Node12</title>
<path fill="none" stroke="midnightblue" d="M828.52,-112.46C901.15,-92.78 1080.27,-44.25 1161.61,-22.21"/>
<polygon fill="midnightblue" stroke="midnightblue" points="1162.76,-25.53 1171.5,-19.53 1160.93,-18.77 1162.76,-25.53"/>
</g>
<!-- Node13 -->
<g id="node13" class="node">
<title>Node13</title>
<g id="a_node13"><a xlink:href="Components_8hpp.html" target="_top" xlink:title=" ">
<polygon fill="white" stroke="black" points="472,-0.5 472,-19.5 618,-19.5 618,-0.5 472,-0.5"/>
<text text-anchor="middle" x="545" y="-7.5" font-family="Helvetica,sans-Serif" font-size="10.00">../Models/Components.hpp</text>
</a>
</g>
</g>
<!-- Node10&#45;&gt;Node13 -->
<g id="edge15" class="edge">
<title>Node10&#45;&gt;Node13</title>
<path fill="none" stroke="midnightblue" d="M755.28,-113.66C721.67,-106.75 673.8,-94.66 635,-76 607.53,-62.79 579.66,-41.1 562.36,-26.45"/>
<polygon fill="midnightblue" stroke="midnightblue" points="564.62,-23.77 554.77,-19.89 560.05,-29.07 564.62,-23.77"/>
</g>
<!-- Node14 -->
<g id="node14" class="node">
<title>Node14</title>
<g id="a_node14"><a xlink:href="IMemory_8hpp.html" target="_top" xlink:title=" ">
<polygon fill="white" stroke="black" points="644,-56.5 644,-75.5 724,-75.5 724,-56.5 644,-56.5"/>
<text text-anchor="middle" x="684" y="-63.5" font-family="Helvetica,sans-Serif" font-size="10.00">IMemory.hpp</text>
</a>
</g>
</g>
<!-- Node10&#45;&gt;Node14 -->
<g id="edge16" class="edge">
<title>Node10&#45;&gt;Node14</title>
<path fill="none" stroke="midnightblue" d="M779.09,-112.44C760.75,-103.68 731.99,-89.94 710.91,-79.86"/>
<polygon fill="midnightblue" stroke="midnightblue" points="712.35,-76.67 701.82,-75.52 709.33,-82.99 712.35,-76.67"/>
</g>
<!-- Node14&#45;&gt;Node7 -->
<g id="edge17" class="edge">
<title>Node14&#45;&gt;Node7</title>
<path fill="none" stroke="midnightblue" d="M689.61,-56.08C694.37,-48.53 701.32,-37.49 707.15,-28.23"/>
<polygon fill="midnightblue" stroke="midnightblue" points="710.12,-30.08 712.49,-19.75 704.2,-26.35 710.12,-30.08"/>
</g>
<!-- Node14&#45;&gt;Node8 -->
<g id="edge18" class="edge">
<title>Node14&#45;&gt;Node8</title>
<path fill="none" stroke="midnightblue" d="M706.82,-56.44C730.83,-47.44 768.83,-33.19 795.87,-23.05"/>
<polygon fill="midnightblue" stroke="midnightblue" points="797.16,-26.3 805.29,-19.52 794.7,-19.75 797.16,-26.3"/>
</g>
<!-- Node14&#45;&gt;Node9 -->
<g id="edge19" class="edge">
<title>Node14&#45;&gt;Node9</title>
<path fill="none" stroke="midnightblue" d="M724.03,-56.62C772.69,-46.44 854.27,-29.36 902.63,-19.24"/>
<polygon fill="midnightblue" stroke="midnightblue" points="903.64,-22.6 912.71,-17.13 902.21,-15.75 903.64,-22.6"/>
</g>
<!-- Node14&#45;&gt;Node11 -->
<g id="edge20" class="edge">
<title>Node14&#45;&gt;Node11</title>
<path fill="none" stroke="midnightblue" d="M643.87,-57.15C588.73,-46.36 490.66,-27.17 440.1,-17.28"/>
<polygon fill="midnightblue" stroke="midnightblue" points="440.56,-13.8 430.07,-15.32 439.21,-20.67 440.56,-13.8"/>
</g>
<!-- Node14&#45;&gt;Node12 -->
<g id="edge21" class="edge">
<title>Node14&#45;&gt;Node12</title>
<path fill="none" stroke="midnightblue" d="M724.29,-60.81C813.58,-51.52 1028.78,-29.13 1137.62,-17.8"/>
<polygon fill="midnightblue" stroke="midnightblue" points="1138.23,-21.26 1147.81,-16.74 1137.51,-14.3 1138.23,-21.26"/>
</g>
<!-- Node14&#45;&gt;Node13 -->
<g id="edge22" class="edge">
<title>Node14&#45;&gt;Node13</title>
<path fill="none" stroke="midnightblue" d="M661.98,-56.44C638.9,-47.48 602.44,-33.31 576.36,-23.18"/>
<polygon fill="midnightblue" stroke="midnightblue" points="577.51,-19.88 566.92,-19.52 574.98,-26.4 577.51,-19.88"/>
</g>
<!-- Node17 -->
<g id="node17" class="node">
<title>Node17</title>
<g id="a_node17"><a xlink:href="IRenderer_8hpp.html" target="_top" xlink:title=" ">
<polygon fill="white" stroke="black" points="5,-174 5,-193 89,-193 89,-174 5,-174"/>
<text text-anchor="middle" x="47" y="-181" font-family="Helvetica,sans-Serif" font-size="10.00">IRenderer.hpp</text>
</a>
</g>
</g>
<!-- Node16&#45;&gt;Node17 -->
<g id="edge28" class="edge">
<title>Node16&#45;&gt;Node17</title>
<path fill="none" stroke="midnightblue" d="M91.95,-291.14C82.62,-269 64.73,-226.57 54.56,-202.44"/>
<polygon fill="midnightblue" stroke="midnightblue" points="57.71,-200.91 50.6,-193.05 51.26,-203.63 57.71,-200.91"/>
</g>
<!-- Node17&#45;&gt;Node11 -->
<g id="edge29" class="edge">
<title>Node17&#45;&gt;Node11</title>
<path fill="none" stroke="midnightblue" d="M49.61,-173.74C54.5,-158.86 66.42,-128.63 87,-112 175.05,-40.83 313.74,-19.53 375.94,-13.39"/>
<polygon fill="midnightblue" stroke="midnightblue" points="376.31,-16.87 385.95,-12.46 375.67,-9.9 376.31,-16.87"/>
</g>
<!-- Node18 -->
<g id="node18" class="node">
<title>Node18</title>
<g id="a_node18"><a xlink:title=" ">
<polygon fill="white" stroke="#bfbfbf" points="0,-112.5 0,-131.5 40,-131.5 40,-112.5 0,-112.5"/>
<text text-anchor="middle" x="20" y="-119.5" font-family="Helvetica,sans-Serif" font-size="10.00">span</text>
</a>
</g>
</g>
<!-- Node17&#45;&gt;Node18 -->
<g id="edge30" class="edge">
<title>Node17&#45;&gt;Node18</title>
<path fill="none" stroke="midnightblue" d="M43.13,-173.98C39.2,-165.32 33,-151.65 28.01,-140.65"/>
<polygon fill="midnightblue" stroke="midnightblue" points="31.18,-139.17 23.86,-131.51 24.81,-142.06 31.18,-139.17"/>
</g>
<!-- Node19&#45;&gt;Node6 -->
<g id="edge32" class="edge">
<title>Node19&#45;&gt;Node6</title>
<path fill="none" stroke="midnightblue" d="M714.42,-358.44C739.24,-350.1 777.22,-336.58 809,-322 889.79,-284.92 980.07,-232.01 1026.55,-203.86"/>
<polygon fill="midnightblue" stroke="midnightblue" points="1028.52,-206.75 1035.25,-198.57 1024.89,-200.77 1028.52,-206.75"/>
</g>
<!-- Node19&#45;&gt;Node17 -->
<g id="edge77" class="edge">
<title>Node19&#45;&gt;Node17</title>
<path fill="none" stroke="midnightblue" d="M631.35,-359.95C558.45,-350.62 435.96,-333.93 392,-322 269.06,-288.63 130.39,-224.87 73.5,-197.5"/>
<polygon fill="midnightblue" stroke="midnightblue" points="74.99,-194.34 64.47,-193.13 71.94,-200.64 74.99,-194.34"/>
</g>
<!-- Node20 -->
<g id="node20" class="node">
<title>Node20</title>
<g id="a_node20"><a xlink:href="CPU_8hpp.html" target="_top" xlink:title=" ">
<polygon fill="white" stroke="black" points="1017.5,-297 1017.5,-316 1098.5,-316 1098.5,-297 1017.5,-297"/>
<text text-anchor="middle" x="1058" y="-304" font-family="Helvetica,sans-Serif" font-size="10.00">CPU/CPU.hpp</text>
</a>
</g>
</g>
<!-- Node19&#45;&gt;Node20 -->
<g id="edge33" class="edge">
<title>Node19&#45;&gt;Node20</title>
<path fill="none" stroke="midnightblue" d="M741.01,-358.48C812.15,-347.04 937.61,-326.86 1007.46,-315.63"/>
<polygon fill="midnightblue" stroke="midnightblue" points="1008.03,-319.08 1017.35,-314.04 1006.92,-312.17 1008.03,-319.08"/>
</g>
<!-- Node21 -->
<g id="node21" class="node">
<title>Node21</title>
<g id="a_node21"><a xlink:href="Cartridge_8hpp.html" target="_top" xlink:title=" ">
<polygon fill="white" stroke="black" points="749,-235.5 749,-254.5 889,-254.5 889,-235.5 749,-235.5"/>
<text text-anchor="middle" x="819" y="-242.5" font-family="Helvetica,sans-Serif" font-size="10.00">../Cartridge/Cartridge.hpp</text>
</a>
</g>
</g>
<!-- Node19&#45;&gt;Node21 -->
<g id="edge55" class="edge">
<title>Node19&#45;&gt;Node21</title>
<path fill="none" stroke="midnightblue" d="M719.43,-358.47C739.98,-351.52 766.23,-339.89 784,-322 799.96,-305.94 809.46,-281.26 814.45,-264.42"/>
<polygon fill="midnightblue" stroke="midnightblue" points="817.86,-265.21 817.1,-254.65 811.1,-263.38 817.86,-265.21"/>
</g>
<!-- Node24 -->
<g id="node24" class="node">
<title>Node24</title>
<g id="a_node24"><a xlink:href="Ram_8hpp.html" target="_top" xlink:title=" ">
<polygon fill="white" stroke="black" points="285.5,-174 285.5,-193 380.5,-193 380.5,-174 285.5,-174"/>
<text text-anchor="middle" x="333" y="-181" font-family="Helvetica,sans-Serif" font-size="10.00">../Ram/Ram.hpp</text>
</a>
</g>
</g>
<!-- Node19&#45;&gt;Node24 -->
<g id="edge56" class="edge">
<title>Node19&#45;&gt;Node24</title>
<path fill="none" stroke="midnightblue" d="M662.87,-358.38C639.27,-350 603.16,-336.45 573,-322 489.85,-282.18 396.44,-224.76 354.92,-198.53"/>
<polygon fill="midnightblue" stroke="midnightblue" points="356.74,-195.53 346.42,-193.13 352.99,-201.44 356.74,-195.53"/>
</g>
<!-- Node27 -->
<g id="node27" class="node">
<title>Node27</title>
<g id="a_node27"><a xlink:href="PPU_8hpp.html" target="_top" xlink:title=" ">
<polygon fill="white" stroke="black" points="293,-235.5 293,-254.5 373,-254.5 373,-235.5 293,-235.5"/>
<text text-anchor="middle" x="333" y="-242.5" font-family="Helvetica,sans-Serif" font-size="10.00">PPU/PPU.hpp</text>
</a>
</g>
</g>
<!-- Node19&#45;&gt;Node27 -->
<g id="edge57" class="edge">
<title>Node19&#45;&gt;Node27</title>
<path fill="none" stroke="midnightblue" d="M631.27,-358.48C572.96,-349.29 486.4,-334.32 455,-322 415.63,-306.55 374.91,-278.24 351.89,-260.87"/>
<polygon fill="midnightblue" stroke="midnightblue" points="353.76,-257.9 343.7,-254.59 349.5,-263.46 353.76,-257.9"/>
</g>
<!-- Node31 -->
<g id="node31" class="node">
<title>Node31</title>
<g id="a_node31"><a xlink:href="APU_8hpp.html" target="_top" xlink:title=" ">
<polygon fill="white" stroke="black" points="531.5,-235.5 531.5,-254.5 612.5,-254.5 612.5,-235.5 531.5,-235.5"/>
<text text-anchor="middle" x="572" y="-242.5" font-family="Helvetica,sans-Serif" font-size="10.00">APU/APU.hpp</text>
</a>
</g>
</g>
<!-- Node19&#45;&gt;Node31 -->
<g id="edge66" class="edge">
<title>Node19&#45;&gt;Node31</title>
<path fill="none" stroke="midnightblue" d="M651.33,-358.39C630.77,-351.74 606.26,-340.46 591,-322 577.62,-305.82 573.47,-281.51 572.28,-264.77"/>
<polygon fill="midnightblue" stroke="midnightblue" points="575.77,-264.42 571.85,-254.58 568.78,-264.72 575.77,-264.42"/>
</g>
<!-- Node35 -->
<g id="node35" class="node">
<title>Node35</title>
<g id="a_node35"><a xlink:href="DebuggableError_8hpp.html" target="_top" xlink:title=" ">
<polygon fill="white" stroke="black" points="600.5,-297 600.5,-316 775.5,-316 775.5,-297 600.5,-297"/>
<text text-anchor="middle" x="688" y="-304" font-family="Helvetica,sans-Serif" font-size="10.00">Exceptions/DebuggableError.hpp</text>
</a>
</g>
</g>
<!-- Node19&#45;&gt;Node35 -->
<g id="edge78" class="edge">
<title>Node19&#45;&gt;Node35</title>
<path fill="none" stroke="midnightblue" d="M688,-358.48C688,-350.08 688,-336.98 688,-326.16"/>
<polygon fill="midnightblue" stroke="midnightblue" points="691.5,-326.01 688,-316.01 684.5,-326.01 691.5,-326.01"/>
</g>
<!-- Node20&#45;&gt;Node6 -->
<g id="edge35" class="edge">
<title>Node20&#45;&gt;Node6</title>
<path fill="none" stroke="midnightblue" d="M1058,-296.8C1058,-278.6 1058,-235.98 1058,-208.79"/>
<polygon fill="midnightblue" stroke="midnightblue" points="1061.5,-208.54 1058,-198.54 1054.5,-208.54 1061.5,-208.54"/>
</g>
<!-- Node20&#45;&gt;Node10 -->
<g id="edge34" class="edge">
<title>Node20&#45;&gt;Node10</title>
<path fill="none" stroke="midnightblue" d="M1051.18,-296.86C1032.09,-273.16 975.5,-206.36 915,-168 891.59,-153.16 862.52,-142 839.09,-134.51"/>
<polygon fill="midnightblue" stroke="midnightblue" points="840.02,-131.13 829.43,-131.52 837.95,-137.82 840.02,-131.13"/>
</g>
<!-- Node20&#45;&gt;Node12 -->
<g id="edge36" class="edge">
<title>Node20&#45;&gt;Node12</title>
<path fill="none" stroke="midnightblue" d="M1098.74,-306.45C1179.25,-305.99 1351,-292.37 1351,-184.5 1351,-184.5 1351,-184.5 1351,-121 1351,-68.02 1289.16,-37.57 1245.42,-22.66"/>
<polygon fill="midnightblue" stroke="midnightblue" points="1246.44,-19.31 1235.85,-19.54 1244.27,-25.97 1246.44,-19.31"/>
</g>
<!-- Node20&#45;&gt;Node21 -->
<g id="edge37" class="edge">
<title>Node20&#45;&gt;Node21</title>
<path fill="none" stroke="midnightblue" d="M1023.76,-296.98C981.43,-286.44 909.32,-268.49 862.95,-256.94"/>
<polygon fill="midnightblue" stroke="midnightblue" points="863.73,-253.53 853.18,-254.51 862.04,-260.32 863.73,-253.53"/>
</g>
<!-- Node25 -->
<g id="node25" class="node">
<title>Node25</title>
<g id="a_node25"><a xlink:href="Instruction_8hpp.html" target="_top" xlink:title=" ">
<polygon fill="white" stroke="black" points="1195.5,-56.5 1195.5,-75.5 1284.5,-75.5 1284.5,-56.5 1195.5,-56.5"/>
<text text-anchor="middle" x="1240" y="-63.5" font-family="Helvetica,sans-Serif" font-size="10.00">Instruction.hpp</text>
</a>
</g>
</g>
<!-- Node20&#45;&gt;Node25 -->
<g id="edge47" class="edge">
<title>Node20&#45;&gt;Node25</title>
<path fill="none" stroke="midnightblue" d="M1098.61,-300.68C1149.57,-293.69 1232.53,-278.92 1251,-255 1290.1,-204.36 1263,-121.29 1248.06,-84.96"/>
<polygon fill="midnightblue" stroke="midnightblue" points="1251.22,-83.45 1244.06,-75.64 1244.78,-86.21 1251.22,-83.45"/>
</g>
<!-- Node26 -->
<g id="node26" class="node">
<title>Node26</title>
<g id="a_node26"><a xlink:href="DMA_8hpp.html" target="_top" xlink:title=" ">
<polygon fill="white" stroke="black" points="1155.5,-235.5 1155.5,-254.5 1242.5,-254.5 1242.5,-235.5 1155.5,-235.5"/>
<text text-anchor="middle" x="1199" y="-242.5" font-family="Helvetica,sans-Serif" font-size="10.00">DMA/DMA.hpp</text>
</a>
</g>
</g>
<!-- Node20&#45;&gt;Node26 -->
<g id="edge50" class="edge">
<title>Node20&#45;&gt;Node26</title>
<path fill="none" stroke="midnightblue" d="M1078.2,-296.98C1102.07,-286.9 1142,-270.05 1169.37,-258.5"/>
<polygon fill="midnightblue" stroke="midnightblue" points="1170.98,-261.62 1178.84,-254.51 1168.26,-255.17 1170.98,-261.62"/>
</g>
<!-- Node21&#45;&gt;Node10 -->
<g id="edge39" class="edge">
<title>Node21&#45;&gt;Node10</title>
<path fill="none" stroke="midnightblue" d="M848.88,-235.39C866.54,-228.59 887.45,-217.15 898,-199 904.92,-187.09 905.5,-179.56 898,-168 886.83,-150.79 867.38,-140.11 848.52,-133.5"/>
<polygon fill="midnightblue" stroke="midnightblue" points="849.34,-130.09 838.75,-130.41 847.23,-136.77 849.34,-130.09"/>
</g>
<!-- Node21&#45;&gt;Node11 -->
<g id="edge38" class="edge">
<title>Node21&#45;&gt;Node11</title>
<path fill="none" stroke="midnightblue" d="M748.8,-236.06C636.45,-223.33 428.7,-199.71 428,-199 382.76,-153.37 395.01,-67.6 403.28,-29.76"/>
<polygon fill="midnightblue" stroke="midnightblue" points="406.78,-30.18 405.66,-19.65 399.96,-28.58 406.78,-30.18"/>
</g>
<!-- Node21&#45;&gt;Node12 -->
<g id="edge40" class="edge">
<title>Node21&#45;&gt;Node12</title>
<path fill="none" stroke="midnightblue" d="M889.26,-242.82C972.64,-239.97 1105.04,-230.48 1142,-199 1192.63,-155.89 1164.46,-118.91 1186,-56 1189.05,-47.1 1192.7,-37.32 1195.84,-29.16"/>
<polygon fill="midnightblue" stroke="midnightblue" points="1199.21,-30.16 1199.58,-19.57 1192.69,-27.62 1199.21,-30.16"/>
</g>
<!-- Node22 -->
<g id="node22" class="node">
<title>Node22</title>
<g id="a_node22"><a xlink:href="ARectangleMemory_8hpp.html" target="_top" xlink:title=" ">
<polygon fill="white" stroke="black" points="552.5,-112.5 552.5,-131.5 737.5,-131.5 737.5,-112.5 552.5,-112.5"/>
<text text-anchor="middle" x="645" y="-119.5" font-family="Helvetica,sans-Serif" font-size="10.00">../Memory/ARectangleMemory.hpp</text>
</a>
</g>
</g>
<!-- Node21&#45;&gt;Node22 -->
<g id="edge41" class="edge">
<title>Node21&#45;&gt;Node22</title>
<path fill="none" stroke="midnightblue" d="M806.76,-235.49C777.38,-215.06 702.57,-163.04 665.9,-137.54"/>
<polygon fill="midnightblue" stroke="midnightblue" points="667.66,-134.5 657.45,-131.66 663.67,-140.24 667.66,-134.5"/>
</g>
<!-- Node23 -->
<g id="node23" class="node">
<title>Node23</title>
<g id="a_node23"><a xlink:href="InterruptVectors_8hpp.html" target="_top" xlink:title=" ">
<polygon fill="white" stroke="black" points="773,-174 773,-193 889,-193 889,-174 773,-174"/>
<text text-anchor="middle" x="831" y="-181" font-family="Helvetica,sans-Serif" font-size="10.00">InterruptVectors.hpp</text>
</a>
</g>
</g>
<!-- Node21&#45;&gt;Node23 -->
<g id="edge43" class="edge">
<title>Node21&#45;&gt;Node23</title>
<path fill="none" stroke="midnightblue" d="M820.72,-235.48C822.43,-226.99 825.11,-213.7 827.3,-202.82"/>
<polygon fill="midnightblue" stroke="midnightblue" points="830.74,-203.5 829.28,-193.01 823.88,-202.12 830.74,-203.5"/>
</g>
<!-- Node21&#45;&gt;Node24 -->
<g id="edge44" class="edge">
<title>Node21&#45;&gt;Node24</title>
<path fill="none" stroke="midnightblue" d="M748.76,-236.07C745.46,-235.7 742.2,-235.35 739,-235 586.17,-218.41 546.59,-224.55 395,-199 388.78,-197.95 382.25,-196.65 375.85,-195.26"/>
<polygon fill="midnightblue" stroke="midnightblue" points="376.51,-191.82 365.99,-193.02 374.97,-198.65 376.51,-191.82"/>
</g>
<!-- Node22&#45;&gt;Node14 -->
<g id="edge42" class="edge">
<title>Node22&#45;&gt;Node14</title>
<path fill="none" stroke="midnightblue" d="M651.44,-112.08C656.95,-104.46 665.03,-93.26 671.76,-83.94"/>
<polygon fill="midnightblue" stroke="midnightblue" points="674.66,-85.91 677.68,-75.75 668.99,-81.81 674.66,-85.91"/>
</g>
<!-- Node24&#45;&gt;Node11 -->
<g id="edge46" class="edge">
<title>Node24&#45;&gt;Node11</title>
<path fill="none" stroke="midnightblue" d="M334.88,-173.85C339.67,-152.83 353.45,-97.74 375,-56 380.16,-46.01 387.42,-35.83 393.82,-27.69"/>
<polygon fill="midnightblue" stroke="midnightblue" points="396.68,-29.72 400.28,-19.76 391.25,-25.3 396.68,-29.72"/>
</g>
<!-- Node24&#45;&gt;Node22 -->
<g id="edge45" class="edge">
<title>Node24&#45;&gt;Node22</title>
<path fill="none" stroke="midnightblue" d="M377.7,-173.98C433.77,-163.28 529.86,-144.96 590.27,-133.44"/>
<polygon fill="midnightblue" stroke="midnightblue" points="591.21,-136.82 600.38,-131.51 589.9,-129.94 591.21,-136.82"/>
</g>
<!-- Node25&#45;&gt;Node11 -->
<g id="edge48" class="edge">
<title>Node25&#45;&gt;Node11</title>
<path fill="none" stroke="midnightblue" d="M1195.19,-64.04C1075.82,-61.13 740.34,-50.64 463,-20 455.53,-19.17 447.53,-18.02 440,-16.82"/>
<polygon fill="midnightblue" stroke="midnightblue" points="440.58,-13.36 430.14,-15.16 439.42,-20.27 440.58,-13.36"/>
</g>
<!-- Node25&#45;&gt;Node12 -->
<g id="edge49" class="edge">
<title>Node25&#45;&gt;Node12</title>
<path fill="none" stroke="midnightblue" d="M1233.89,-56.08C1228.72,-48.53 1221.15,-37.49 1214.81,-28.23"/>
<polygon fill="midnightblue" stroke="midnightblue" points="1217.54,-26.02 1209,-19.75 1211.76,-29.98 1217.54,-26.02"/>
</g>
<!-- Node26&#45;&gt;Node6 -->
<g id="edge54" class="edge">
<title>Node26&#45;&gt;Node6</title>
<path fill="none" stroke="midnightblue" d="M1178.8,-235.48C1158.45,-226.89 1126.44,-213.38 1100.49,-202.43"/>
<polygon fill="midnightblue" stroke="midnightblue" points="1101.8,-199.19 1091.23,-198.52 1099.08,-205.64 1101.8,-199.19"/>
</g>
<!-- Node26&#45;&gt;Node7 -->
<g id="edge51" class="edge">
<title>Node26&#45;&gt;Node7</title>
<path fill="none" stroke="midnightblue" d="M1194.59,-235.19C1186.34,-219.54 1167.09,-186.77 1142,-168 1017.14,-74.59 830.74,-31.61 753.5,-17.04"/>
<polygon fill="midnightblue" stroke="midnightblue" points="753.81,-13.54 743.34,-15.17 752.54,-20.43 753.81,-13.54"/>
</g>
<!-- Node26&#45;&gt;Node9 -->
<g id="edge52" class="edge">
<title>Node26&#45;&gt;Node9</title>
<path fill="none" stroke="midnightblue" d="M1204.1,-235.39C1212.14,-220.6 1225.6,-189.85 1213,-168 1162.72,-80.76 1043.37,-37.58 981.19,-20.37"/>
<polygon fill="midnightblue" stroke="midnightblue" points="981.92,-16.94 971.36,-17.73 980.11,-23.7 981.92,-16.94"/>
</g>
<!-- Node26&#45;&gt;Node12 -->
<g id="edge53" class="edge">
<title>Node26&#45;&gt;Node12</title>
<path fill="none" stroke="midnightblue" d="M1212.75,-235.2C1224.43,-227.09 1240.85,-214.05 1251,-199 1283.29,-151.1 1283.54,-132.99 1293,-76 1294.46,-67.23 1297.67,-63.56 1293,-56 1283.33,-40.35 1266.38,-29.96 1249.78,-23.15"/>
<polygon fill="midnightblue" stroke="midnightblue" points="1250.69,-19.76 1240.1,-19.54 1248.25,-26.32 1250.69,-19.76"/>
</g>
<!-- Node27&#45;&gt;Node6 -->
<g id="edge60" class="edge">
<title>Node27&#45;&gt;Node6</title>
<path fill="none" stroke="midnightblue" d="M373.09,-240.96C465.6,-233.91 701.17,-215.76 898,-199 922.2,-196.94 948.44,-194.6 972.54,-192.42"/>
<polygon fill="midnightblue" stroke="midnightblue" points="973.08,-195.88 982.73,-191.49 972.45,-188.91 973.08,-195.88"/>
</g>
<!-- Node27&#45;&gt;Node7 -->
<g id="edge58" class="edge">
<title>Node27&#45;&gt;Node7</title>
<path fill="none" stroke="midnightblue" d="M314.92,-235.39C301.44,-227.87 284.03,-215.57 276,-199 269.99,-186.6 268.06,-179.26 276,-168 300.68,-133.02 583.03,-49.58 683.1,-20.89"/>
<polygon fill="midnightblue" stroke="midnightblue" points="684.1,-24.24 692.75,-18.13 682.17,-17.51 684.1,-24.24"/>
</g>
<!-- Node27&#45;&gt;Node10 -->
<g id="edge59" class="edge">
<title>Node27&#45;&gt;Node10</title>
<path fill="none" stroke="midnightblue" d="M373.18,-239.88C413.11,-234.58 475.26,-223.02 524,-199 543.55,-189.37 542.25,-177.22 562,-168 570.3,-164.12 678.79,-144.21 745.42,-132.21"/>
<polygon fill="midnightblue" stroke="midnightblue" points="746.11,-135.65 755.33,-130.43 744.87,-128.76 746.11,-135.65"/>
</g>
<!-- Node27&#45;&gt;Node17 -->
<g id="edge61" class="edge">
<title>Node27&#45;&gt;Node17</title>
<path fill="none" stroke="midnightblue" d="M292.86,-237.42C245.89,-229.46 165.9,-215.12 98,-199 93.87,-198.02 89.57,-196.92 85.3,-195.78"/>
<polygon fill="midnightblue" stroke="midnightblue" points="86.05,-192.36 75.48,-193.07 84.19,-199.1 86.05,-192.36"/>
</g>
<!-- Node27&#45;&gt;Node24 -->
<g id="edge62" class="edge">
<title>Node27&#45;&gt;Node24</title>
<path fill="none" stroke="midnightblue" d="M333,-235.48C333,-227.08 333,-213.98 333,-203.16"/>
<polygon fill="midnightblue" stroke="midnightblue" points="336.5,-203.01 333,-193.01 329.5,-203.01 336.5,-203.01"/>
</g>
<!-- Node28 -->
<g id="node28" class="node">
<title>Node28</title>
<g id="a_node28"><a xlink:href="Vector2_8hpp.html" target="_top" xlink:title=" ">
<polygon fill="white" stroke="black" points="107,-174 107,-193 229,-193 229,-174 107,-174"/>
<text text-anchor="middle" x="168" y="-181" font-family="Helvetica,sans-Serif" font-size="10.00">../Models/Vector2.hpp</text>
</a>
</g>
</g>
<!-- Node27&#45;&gt;Node28 -->
<g id="edge63" class="edge">
<title>Node27&#45;&gt;Node28</title>
<path fill="none" stroke="midnightblue" d="M309.36,-235.48C281.06,-225.27 233.47,-208.11 201.41,-196.55"/>
<polygon fill="midnightblue" stroke="midnightblue" points="202.19,-193.11 191.6,-193.01 199.82,-199.69 202.19,-193.11"/>
</g>
<!-- Node29 -->
<g id="node29" class="node">
<title>Node29</title>
<g id="a_node29"><a xlink:title=" ">
<polygon fill="white" stroke="#bfbfbf" points="257.5,-112.5 257.5,-131.5 314.5,-131.5 314.5,-112.5 257.5,-112.5"/>
<text text-anchor="middle" x="286" y="-119.5" font-family="Helvetica,sans-Serif" font-size="10.00">ostream</text>
</a>
</g>
</g>
<!-- Node28&#45;&gt;Node29 -->
<g id="edge64" class="edge">
<title>Node28&#45;&gt;Node29</title>
<path fill="none" stroke="midnightblue" d="M184.91,-173.98C204.53,-164.08 237.13,-147.64 259.99,-136.12"/>
<polygon fill="midnightblue" stroke="midnightblue" points="261.77,-139.14 269.12,-131.51 258.62,-132.89 261.77,-139.14"/>
</g>
<!-- Node30 -->
<g id="node30" class="node">
<title>Node30</title>
<g id="a_node30"><a xlink:title=" ">
<polygon fill="white" stroke="#bfbfbf" points="96.5,-112.5 96.5,-131.5 239.5,-131.5 239.5,-112.5 96.5,-112.5"/>
<text text-anchor="middle" x="168" y="-119.5" font-family="Helvetica,sans-Serif" font-size="10.00">SFML/System/Vector2.hpp</text>
</a>
</g>
</g>
<!-- Node28&#45;&gt;Node30 -->
<g id="edge65" class="edge">
<title>Node28&#45;&gt;Node30</title>
<path fill="none" stroke="midnightblue" d="M168,-173.98C168,-165.58 168,-152.48 168,-141.66"/>
<polygon fill="midnightblue" stroke="midnightblue" points="171.5,-141.51 168,-131.51 164.5,-141.51 171.5,-141.51"/>
</g>
<!-- Node31&#45;&gt;Node9 -->
<g id="edge67" class="edge">
<title>Node31&#45;&gt;Node9</title>
<path fill="none" stroke="midnightblue" d="M598.57,-235.48C624.48,-226.97 664.86,-213.15 699,-199 728.57,-186.75 734.87,-181.26 764,-168 800.6,-151.34 815.17,-156.56 847,-132 885.27,-102.47 916.91,-54.22 932.16,-28.48"/>
<polygon fill="midnightblue" stroke="midnightblue" points="935.37,-29.92 937.35,-19.51 929.31,-26.41 935.37,-29.92"/>
</g>
<!-- Node31&#45;&gt;Node10 -->
<g id="edge72" class="edge">
<title>Node31&#45;&gt;Node10</title>
<path fill="none" stroke="midnightblue" d="M587.82,-235.49C626.38,-214.76 725.43,-161.49 772.04,-136.42"/>
<polygon fill="midnightblue" stroke="midnightblue" points="773.75,-139.48 780.89,-131.66 770.43,-133.31 773.75,-139.48"/>
</g>
<!-- Node31&#45;&gt;Node17 -->
<g id="edge76" class="edge">
<title>Node31&#45;&gt;Node17</title>
<path fill="none" stroke="midnightblue" d="M531.39,-242.64C449.01,-239.33 256.62,-228.82 98,-199 93.22,-198.1 88.24,-196.96 83.35,-195.7"/>
<polygon fill="midnightblue" stroke="midnightblue" points="84.08,-192.28 73.51,-193.03 82.24,-199.03 84.08,-192.28"/>
</g>
<!-- Node31&#45;&gt;Node24 -->
<g id="edge73" class="edge">
<title>Node31&#45;&gt;Node24</title>
<path fill="none" stroke="midnightblue" d="M537.76,-235.48C495.43,-224.94 423.32,-206.99 376.95,-195.44"/>
<polygon fill="midnightblue" stroke="midnightblue" points="377.73,-192.03 367.18,-193.01 376.04,-198.82 377.73,-192.03"/>
</g>
<!-- Node32 -->
<g id="node32" class="node">
<title>Node32</title>
<g id="a_node32"><a xlink:href="DSP_8hpp.html" target="_top" xlink:title=" ">
<polygon fill="white" stroke="black" points="437,-174 437,-193 515,-193 515,-174 437,-174"/>
<text text-anchor="middle" x="476" y="-181" font-family="Helvetica,sans-Serif" font-size="10.00">DSP/DSP.hpp</text>
</a>
</g>
</g>
<!-- Node31&#45;&gt;Node32 -->
<g id="edge68" class="edge">
<title>Node31&#45;&gt;Node32</title>
<path fill="none" stroke="midnightblue" d="M558.25,-235.48C542.63,-225.8 516.94,-209.87 498.42,-198.39"/>
<polygon fill="midnightblue" stroke="midnightblue" points="500.07,-195.3 489.73,-193.01 496.38,-201.25 500.07,-195.3"/>
</g>
<!-- Node34 -->
<g id="node34" class="node">
<title>Node34</title>
<g id="a_node34"><a xlink:href="IPL_8hpp.html" target="_top" xlink:title=" ">
<polygon fill="white" stroke="black" points="571.5,-174 571.5,-193 640.5,-193 640.5,-174 571.5,-174"/>
<text text-anchor="middle" x="606" y="-181" font-family="Helvetica,sans-Serif" font-size="10.00">IPL/IPL.hpp</text>
</a>
</g>
</g>
<!-- Node31&#45;&gt;Node34 -->
<g id="edge74" class="edge">
<title>Node31&#45;&gt;Node34</title>
<path fill="none" stroke="midnightblue" d="M576.87,-235.48C581.87,-226.73 589.79,-212.87 596.11,-201.81"/>
<polygon fill="midnightblue" stroke="midnightblue" points="599.22,-203.43 601.14,-193.01 593.14,-199.96 599.22,-203.43"/>
</g>
<!-- Node32&#45;&gt;Node7 -->
<g id="edge69" class="edge">
<title>Node32&#45;&gt;Node7</title>
<path fill="none" stroke="midnightblue" d="M482.81,-173.99C494.26,-160 518.56,-131.72 543,-112 590.17,-73.95 653.37,-41.26 689.48,-24.02"/>
<polygon fill="midnightblue" stroke="midnightblue" points="691.36,-27.01 698.92,-19.58 688.38,-20.67 691.36,-27.01"/>
</g>
<!-- Node32&#45;&gt;Node10 -->
<g id="edge71" class="edge">
<title>Node32&#45;&gt;Node10</title>
<path fill="none" stroke="midnightblue" d="M505.03,-173.98C512.78,-171.87 521.17,-169.72 529,-168 621.42,-147.75 647.95,-148.43 745.29,-132.09"/>
<polygon fill="midnightblue" stroke="midnightblue" points="745.98,-135.52 755.26,-130.4 744.81,-128.62 745.98,-135.52"/>
</g>
<!-- Node33 -->
<g id="node33" class="node">
<title>Node33</title>
<g id="a_node33"><a xlink:title=" ">
<polygon fill="white" stroke="#bfbfbf" points="455,-112.5 455,-131.5 497,-131.5 497,-112.5 455,-112.5"/>
<text text-anchor="middle" x="476" y="-119.5" font-family="Helvetica,sans-Serif" font-size="10.00">array</text>
</a>
</g>
</g>
<!-- Node32&#45;&gt;Node33 -->
<g id="edge70" class="edge">
<title>Node32&#45;&gt;Node33</title>
<path fill="none" stroke="midnightblue" d="M476,-173.98C476,-165.58 476,-152.48 476,-141.66"/>
<polygon fill="midnightblue" stroke="midnightblue" points="479.5,-141.51 476,-131.51 472.5,-141.51 479.5,-141.51"/>
</g>
<!-- Node34&#45;&gt;Node10 -->
<g id="edge75" class="edge">
<title>Node34&#45;&gt;Node10</title>
<path fill="none" stroke="midnightblue" d="M633.37,-173.98C666.55,-163.64 722.65,-146.16 759.76,-134.6"/>
<polygon fill="midnightblue" stroke="midnightblue" points="761.18,-137.82 769.69,-131.51 759.1,-131.14 761.18,-137.82"/>
</g>
<!-- Node36 -->
<g id="node36" class="node">
<title>Node36</title>
<g id="a_node36"><a xlink:title=" ">
<polygon fill="white" stroke="#bfbfbf" points="635.5,-235.5 635.5,-254.5 730.5,-254.5 730.5,-235.5 635.5,-235.5"/>
<text text-anchor="middle" x="683" y="-242.5" font-family="Helvetica,sans-Serif" font-size="10.00">bits/exception.h</text>
</a>
</g>
</g>
<!-- Node35&#45;&gt;Node36 -->
<g id="edge79" class="edge">
<title>Node35&#45;&gt;Node36</title>
<path fill="none" stroke="midnightblue" d="M687.28,-296.98C686.58,-288.58 685.48,-275.48 684.57,-264.66"/>
<polygon fill="midnightblue" stroke="midnightblue" points="688.04,-264.18 683.72,-254.51 681.06,-264.77 688.04,-264.18"/>
</g>
</g>
</svg>
