<?xml version="1.0" encoding="UTF-8" standalone="no"?>
<!DOCTYPE svg PUBLIC "-//W3C//DTD SVG 1.1//EN"
 "http://www.w3.org/Graphics/SVG/1.1/DTD/svg11.dtd">
<!-- Generated by graphviz version 2.43.0 (0)
 -->
<!-- Title: tests/CPU/testInternal.cpp Pages: 1 -->
<svg width="1351pt" height="498pt"
 viewBox="0.00 0.00 1350.94 498.00" xmlns="http://www.w3.org/2000/svg" xmlns:xlink="http://www.w3.org/1999/xlink">
<g id="graph0" class="graph" transform="scale(1 1) rotate(0) translate(4 494)">
<title>tests/CPU/testInternal.cpp</title>
<polygon fill="white" stroke="transparent" points="-4,4 -4,-494 1346.94,-494 1346.94,4 -4,4"/>
<!-- Node1 -->
<g id="node1" class="node">
<title>Node1</title>
<g id="a_node1"><a xlink:title=" ">
<polygon fill="#bfbfbf" stroke="black" points="379.5,-470.5 379.5,-489.5 522.5,-489.5 522.5,-470.5 379.5,-470.5"/>
<text text-anchor="middle" x="451" y="-477.5" font-family="Helvetica,sans-Serif" font-size="10.00">tests/CPU/testInternal.cpp</text>
</a>
</g>
</g>
<!-- Node2 -->
<g id="node2" class="node">
<title>Node2</title>
<g id="a_node2"><a xlink:title=" ">
<polygon fill="white" stroke="#bfbfbf" points="308,-358.5 308,-377.5 418,-377.5 418,-358.5 308,-358.5"/>
<text text-anchor="middle" x="363" y="-365.5" font-family="Helvetica,sans-Serif" font-size="10.00">criterion/criterion.h</text>
</a>
</g>
</g>
<!-- Node1&#45;&gt;Node2 -->
<g id="edge1" class="edge">
<title>Node1&#45;&gt;Node2</title>
<path fill="none" stroke="midnightblue" d="M444.09,-470.37C429.51,-452.14 395.34,-409.43 376.34,-385.68"/>
<polygon fill="midnightblue" stroke="midnightblue" points="378.85,-383.21 369.87,-377.59 373.39,-387.59 378.85,-383.21"/>
</g>
<!-- Node3 -->
<g id="node3" class="node">
<title>Node3</title>
<g id="a_node3"><a xlink:title=" ">
<polygon fill="white" stroke="#bfbfbf" points="429,-414.5 429,-433.5 473,-433.5 473,-414.5 429,-414.5"/>
<text text-anchor="middle" x="451" y="-421.5" font-family="Helvetica,sans-Serif" font-size="10.00">bitset</text>
</a>
</g>
</g>
<!-- Node1&#45;&gt;Node3 -->
<g id="edge2" class="edge">
<title>Node1&#45;&gt;Node3</title>
<path fill="none" stroke="midnightblue" d="M451,-470.08C451,-463.01 451,-452.86 451,-443.99"/>
<polygon fill="midnightblue" stroke="midnightblue" points="454.5,-443.75 451,-433.75 447.5,-443.75 454.5,-443.75"/>
</g>
<!-- Node4 -->
<g id="node4" class="node">
<title>Node4</title>
<g id="a_node4"><a xlink:href="tests_8hpp.html" target="_top" xlink:title=" ">
<polygon fill="white" stroke="black" points="504.5,-414.5 504.5,-433.5 575.5,-433.5 575.5,-414.5 504.5,-414.5"/>
<text text-anchor="middle" x="540" y="-421.5" font-family="Helvetica,sans-Serif" font-size="10.00">../tests.hpp</text>
</a>
</g>
</g>
<!-- Node1&#45;&gt;Node4 -->
<g id="edge3" class="edge">
<title>Node1&#45;&gt;Node4</title>
<path fill="none" stroke="midnightblue" d="M465.3,-470.32C479.18,-461.9 500.49,-448.97 516.8,-439.07"/>
<polygon fill="midnightblue" stroke="midnightblue" points="519,-441.83 525.74,-433.65 515.37,-435.85 519,-441.83"/>
</g>
<!-- Node4&#45;&gt;Node2 -->
<g id="edge22" class="edge">
<title>Node4&#45;&gt;Node2</title>
<path fill="none" stroke="midnightblue" d="M511.95,-414.44C481.92,-405.28 434.09,-390.69 400.76,-380.52"/>
<polygon fill="midnightblue" stroke="midnightblue" points="401.5,-377.09 390.91,-377.52 399.46,-383.78 401.5,-377.09"/>
</g>
<!-- Node4&#45;&gt;Node4 -->
<g id="edge25" class="edge">
<title>Node4&#45;&gt;Node4</title>
<path fill="none" stroke="midnightblue" d="M562.82,-433.53C578.32,-436.31 593.5,-433.13 593.5,-424 593.5,-416.86 584.24,-413.37 572.79,-413.5"/>
<polygon fill="midnightblue" stroke="midnightblue" points="572.43,-410.02 562.82,-414.47 573.11,-416.99 572.43,-410.02"/>
</g>
<!-- Node5 -->
<g id="node5" class="node">
<title>Node5</title>
<g id="a_node5"><a xlink:href="MemoryBus_8hpp.html" target="_top" xlink:title=" ">
<polygon fill="white" stroke="black" points="1168,-168.5 1168,-198.5 1318,-198.5 1318,-168.5 1168,-168.5"/>
<text text-anchor="start" x="1176" y="-186.5" font-family="Helvetica,sans-Serif" font-size="10.00">../sources/Memory/Memory</text>
<text text-anchor="middle" x="1243" y="-175.5" font-family="Helvetica,sans-Serif" font-size="10.00">Bus.hpp</text>
</a>
</g>
</g>
<!-- Node4&#45;&gt;Node5 -->
<g id="edge4" class="edge">
<title>Node4&#45;&gt;Node5</title>
<path fill="none" stroke="midnightblue" d="M575.56,-420.5C692.54,-411.79 1063.84,-380.08 1167,-322 1201.07,-302.82 1205.8,-289.6 1224,-255 1231.62,-240.52 1236.38,-222.71 1239.24,-208.62"/>
<polygon fill="midnightblue" stroke="midnightblue" points="1242.7,-209.15 1241.06,-198.68 1235.81,-207.89 1242.7,-209.15"/>
</g>
<!-- Node14 -->
<g id="node14" class="node">
<title>Node14</title>
<g id="a_node14"><a xlink:title=" ">
<polygon fill="white" stroke="#bfbfbf" points="436,-358.5 436,-377.5 496,-377.5 496,-358.5 436,-358.5"/>
<text text-anchor="middle" x="466" y="-365.5" font-family="Helvetica,sans-Serif" font-size="10.00">iostream</text>
</a>
</g>
</g>
<!-- Node4&#45;&gt;Node14 -->
<g id="edge23" class="edge">
<title>Node4&#45;&gt;Node14</title>
<path fill="none" stroke="midnightblue" d="M528.11,-414.32C516.85,-406.11 499.71,-393.6 486.29,-383.81"/>
<polygon fill="midnightblue" stroke="midnightblue" points="488.25,-380.9 478.11,-377.83 484.12,-386.56 488.25,-380.9"/>
</g>
<!-- Node15 -->
<g id="node15" class="node">
<title>Node15</title>
<g id="a_node15"><a xlink:title=" ">
<polygon fill="white" stroke="#bfbfbf" points="514.5,-358.5 514.5,-377.5 565.5,-377.5 565.5,-358.5 514.5,-358.5"/>
<text text-anchor="middle" x="540" y="-365.5" font-family="Helvetica,sans-Serif" font-size="10.00">zconf.h</text>
</a>
</g>
</g>
<!-- Node4&#45;&gt;Node15 -->
<g id="edge24" class="edge">
<title>Node4&#45;&gt;Node15</title>
<path fill="none" stroke="midnightblue" d="M540,-414.08C540,-407.01 540,-396.86 540,-387.99"/>
<polygon fill="midnightblue" stroke="midnightblue" points="543.5,-387.75 540,-377.75 536.5,-387.75 543.5,-387.75"/>
</g>
<!-- Node16 -->
<g id="node16" class="node">
<title>Node16</title>
<g id="a_node16"><a xlink:href="NoRenderer_8hpp.html" target="_top" xlink:title=" ">
<polygon fill="white" stroke="black" points="30,-291.5 30,-321.5 140,-321.5 140,-291.5 30,-291.5"/>
<text text-anchor="start" x="38" y="-309.5" font-family="Helvetica,sans-Serif" font-size="10.00">../sources/Renderer</text>
<text text-anchor="middle" x="85" y="-298.5" font-family="Helvetica,sans-Serif" font-size="10.00">/NoRenderer.hpp</text>
</a>
</g>
</g>
<!-- Node4&#45;&gt;Node16 -->
<g id="edge26" class="edge">
<title>Node4&#45;&gt;Node16</title>
<path fill="none" stroke="midnightblue" d="M550.77,-414.16C565.8,-400.8 589.53,-375.2 574,-358 547.65,-328.82 261.1,-326.07 222,-322 198.69,-319.57 173.15,-316.88 150.5,-314.48"/>
<polygon fill="midnightblue" stroke="midnightblue" points="150.64,-310.97 140.32,-313.4 149.9,-317.94 150.64,-310.97"/>
</g>
<!-- Node19 -->
<g id="node19" class="node">
<title>Node19</title>
<g id="a_node19"><a xlink:href="SNES_8hpp.html" target="_top" xlink:title=" ">
<polygon fill="white" stroke="black" points="622.5,-358.5 622.5,-377.5 735.5,-377.5 735.5,-358.5 622.5,-358.5"/>
<text text-anchor="middle" x="679" y="-365.5" font-family="Helvetica,sans-Serif" font-size="10.00">../sources/SNES.hpp</text>
</a>
</g>
</g>
<!-- Node4&#45;&gt;Node19 -->
<g id="edge30" class="edge">
<title>Node4&#45;&gt;Node19</title>
<path fill="none" stroke="midnightblue" d="M562.02,-414.44C585.1,-405.48 621.56,-391.31 647.64,-381.18"/>
<polygon fill="midnightblue" stroke="midnightblue" points="649.02,-384.4 657.08,-377.52 646.49,-377.88 649.02,-384.4"/>
</g>
<!-- Node6 -->
<g id="node6" class="node">
<title>Node6</title>
<g id="a_node6"><a xlink:title=" ">
<polygon fill="white" stroke="#bfbfbf" points="973,-0.5 973,-19.5 1023,-19.5 1023,-0.5 973,-0.5"/>
<text text-anchor="middle" x="998" y="-7.5" font-family="Helvetica,sans-Serif" font-size="10.00">cstdint</text>
</a>
</g>
</g>
<!-- Node5&#45;&gt;Node6 -->
<g id="edge5" class="edge">
<title>Node5&#45;&gt;Node6</title>
<path fill="none" stroke="midnightblue" d="M1229.97,-168.09C1203.07,-138.58 1141.74,-72.64 1116,-56 1090.27,-39.37 1057.47,-27.48 1032.98,-20.12"/>
<polygon fill="midnightblue" stroke="midnightblue" points="1033.95,-16.76 1023.38,-17.33 1032.01,-23.48 1033.95,-16.76"/>
</g>
<!-- Node7 -->
<g id="node7" class="node">
<title>Node7</title>
<g id="a_node7"><a xlink:title=" ">
<polygon fill="white" stroke="#bfbfbf" points="1041.5,-0.5 1041.5,-19.5 1088.5,-19.5 1088.5,-0.5 1041.5,-0.5"/>
<text text-anchor="middle" x="1065" y="-7.5" font-family="Helvetica,sans-Serif" font-size="10.00">vector</text>
</a>
</g>
</g>
<!-- Node5&#45;&gt;Node7 -->
<g id="edge6" class="edge">
<title>Node5&#45;&gt;Node7</title>
<path fill="none" stroke="midnightblue" d="M1236,-168.26C1222.93,-142.89 1192.59,-89.37 1154,-56 1137.64,-41.86 1116.07,-30.81 1098.26,-23.19"/>
<polygon fill="midnightblue" stroke="midnightblue" points="1099.39,-19.87 1088.81,-19.32 1096.73,-26.35 1099.39,-19.87"/>
</g>
<!-- Node8 -->
<g id="node8" class="node">
<title>Node8</title>
<g id="a_node8"><a xlink:title=" ">
<polygon fill="white" stroke="#bfbfbf" points="1225,-0.5 1225,-19.5 1283,-19.5 1283,-0.5 1225,-0.5"/>
<text text-anchor="middle" x="1254" y="-7.5" font-family="Helvetica,sans-Serif" font-size="10.00">memory</text>
</a>
</g>
</g>
<!-- Node5&#45;&gt;Node8 -->
<g id="edge7" class="edge">
<title>Node5&#45;&gt;Node8</title>
<path fill="none" stroke="midnightblue" d="M1249.14,-168.15C1258.4,-144.77 1274.22,-96.95 1268,-56 1266.63,-47 1263.81,-37.33 1261.05,-29.26"/>
<polygon fill="midnightblue" stroke="midnightblue" points="1264.31,-27.98 1257.6,-19.78 1257.73,-30.37 1264.31,-27.98"/>
</g>
<!-- Node9 -->
<g id="node9" class="node">
<title>Node9</title>
<g id="a_node9"><a xlink:href="AMemory_8hpp.html" target="_top" xlink:title=" ">
<polygon fill="white" stroke="black" points="864.5,-112.5 864.5,-131.5 947.5,-131.5 947.5,-112.5 864.5,-112.5"/>
<text text-anchor="middle" x="906" y="-119.5" font-family="Helvetica,sans-Serif" font-size="10.00">AMemory.hpp</text>
</a>
</g>
</g>
<!-- Node5&#45;&gt;Node9 -->
<g id="edge8" class="edge">
<title>Node5&#45;&gt;Node9</title>
<path fill="none" stroke="midnightblue" d="M1167.79,-169.22C1103.87,-157.94 1013.8,-142.03 957.71,-132.13"/>
<polygon fill="midnightblue" stroke="midnightblue" points="958.11,-128.65 947.65,-130.35 956.89,-135.54 958.11,-128.65"/>
</g>
<!-- Node9&#45;&gt;Node6 -->
<g id="edge9" class="edge">
<title>Node9&#45;&gt;Node6</title>
<path fill="none" stroke="midnightblue" d="M913.8,-112.49C921.96,-103.53 935.08,-88.94 946,-76 959.63,-59.84 974.66,-40.93 985.04,-27.69"/>
<polygon fill="midnightblue" stroke="midnightblue" points="988.01,-29.56 991.41,-19.53 982.49,-25.26 988.01,-29.56"/>
</g>
<!-- Node9&#45;&gt;Node7 -->
<g id="edge10" class="edge">
<title>Node9&#45;&gt;Node7</title>
<path fill="none" stroke="midnightblue" d="M918.48,-112.37C945.64,-93.57 1010.41,-48.77 1043.99,-25.53"/>
<polygon fill="midnightblue" stroke="midnightblue" points="1046.35,-28.16 1052.58,-19.59 1042.37,-22.4 1046.35,-28.16"/>
</g>
<!-- Node9&#45;&gt;Node8 -->
<g id="edge11" class="edge">
<title>Node9&#45;&gt;Node8</title>
<path fill="none" stroke="midnightblue" d="M933.02,-112.46C994.81,-92.93 1146.55,-44.96 1216.98,-22.7"/>
<polygon fill="midnightblue" stroke="midnightblue" points="1218.28,-25.96 1226.76,-19.61 1216.17,-19.29 1218.28,-25.96"/>
</g>
<!-- Node10 -->
<g id="node10" class="node">
<title>Node10</title>
<g id="a_node10"><a xlink:title=" ">
<polygon fill="white" stroke="#bfbfbf" points="203,-0.5 203,-19.5 247,-19.5 247,-0.5 203,-0.5"/>
<text text-anchor="middle" x="225" y="-7.5" font-family="Helvetica,sans-Serif" font-size="10.00">string</text>
</a>
</g>
</g>
<!-- Node9&#45;&gt;Node10 -->
<g id="edge12" class="edge">
<title>Node9&#45;&gt;Node10</title>
<path fill="none" stroke="midnightblue" d="M864.43,-114.28C739.37,-94.09 368.46,-34.17 257.02,-16.17"/>
<polygon fill="midnightblue" stroke="midnightblue" points="257.49,-12.7 247.06,-14.56 256.37,-19.61 257.49,-12.7"/>
</g>
<!-- Node11 -->
<g id="node11" class="node">
<title>Node11</title>
<g id="a_node11"><a xlink:href="Int24_8hpp.html" target="_top" xlink:title=" ">
<polygon fill="white" stroke="black" points="663,-0.5 663,-19.5 773,-19.5 773,-0.5 663,-0.5"/>
<text text-anchor="middle" x="718" y="-7.5" font-family="Helvetica,sans-Serif" font-size="10.00">../Models/Int24.hpp</text>
</a>
</g>
</g>
<!-- Node9&#45;&gt;Node11 -->
<g id="edge13" class="edge">
<title>Node9&#45;&gt;Node11</title>
<path fill="none" stroke="midnightblue" d="M891.25,-112.37C858.71,-93.33 780.58,-47.62 741.33,-24.65"/>
<polygon fill="midnightblue" stroke="midnightblue" points="743.08,-21.62 732.68,-19.59 739.55,-27.66 743.08,-21.62"/>
</g>
<!-- Node12 -->
<g id="node12" class="node">
<title>Node12</title>
<g id="a_node12"><a xlink:href="Components_8hpp.html" target="_top" xlink:title=" ">
<polygon fill="white" stroke="black" points="809,-0.5 809,-19.5 955,-19.5 955,-0.5 809,-0.5"/>
<text text-anchor="middle" x="882" y="-7.5" font-family="Helvetica,sans-Serif" font-size="10.00">../Models/Components.hpp</text>
</a>
</g>
</g>
<!-- Node9&#45;&gt;Node12 -->
<g id="edge14" class="edge">
<title>Node9&#45;&gt;Node12</title>
<path fill="none" stroke="midnightblue" d="M913.62,-112.48C923.84,-99.97 939.75,-75.92 931,-56 925.61,-43.73 915.04,-33.34 905.1,-25.65"/>
<polygon fill="midnightblue" stroke="midnightblue" points="906.83,-22.58 896.66,-19.6 902.75,-28.27 906.83,-22.58"/>
</g>
<!-- Node13 -->
<g id="node13" class="node">
<title>Node13</title>
<g id="a_node13"><a xlink:href="IMemory_8hpp.html" target="_top" xlink:title=" ">
<polygon fill="white" stroke="black" points="842,-56.5 842,-75.5 922,-75.5 922,-56.5 842,-56.5"/>
<text text-anchor="middle" x="882" y="-63.5" font-family="Helvetica,sans-Serif" font-size="10.00">IMemory.hpp</text>
</a>
</g>
</g>
<!-- Node9&#45;&gt;Node13 -->
<g id="edge15" class="edge">
<title>Node9&#45;&gt;Node13</title>
<path fill="none" stroke="midnightblue" d="M902.04,-112.08C898.79,-104.77 894.08,-94.18 890.05,-85.1"/>
<polygon fill="midnightblue" stroke="midnightblue" points="893.15,-83.47 885.89,-75.75 886.75,-86.31 893.15,-83.47"/>
</g>
<!-- Node13&#45;&gt;Node6 -->
<g id="edge16" class="edge">
<title>Node13&#45;&gt;Node6</title>
<path fill="none" stroke="midnightblue" d="M900.38,-56.44C919.22,-47.68 948.73,-33.94 970.38,-23.86"/>
<polygon fill="midnightblue" stroke="midnightblue" points="972.12,-26.91 979.71,-19.52 969.16,-20.56 972.12,-26.91"/>
</g>
<!-- Node13&#45;&gt;Node7 -->
<g id="edge17" class="edge">
<title>Node13&#45;&gt;Node7</title>
<path fill="none" stroke="midnightblue" d="M911,-56.44C943.84,-46.75 997.25,-30.99 1031.75,-20.81"/>
<polygon fill="midnightblue" stroke="midnightblue" points="1032.78,-24.16 1041.38,-17.97 1030.79,-17.44 1032.78,-24.16"/>
</g>
<!-- Node13&#45;&gt;Node8 -->
<g id="edge18" class="edge">
<title>Node13&#45;&gt;Node8</title>
<path fill="none" stroke="midnightblue" d="M922.16,-59.17C993.97,-48.75 1143.49,-27.04 1214.68,-16.71"/>
<polygon fill="midnightblue" stroke="midnightblue" points="1215.2,-20.17 1224.6,-15.27 1214.2,-13.24 1215.2,-20.17"/>
</g>
<!-- Node13&#45;&gt;Node10 -->
<g id="edge19" class="edge">
<title>Node13&#45;&gt;Node10</title>
<path fill="none" stroke="midnightblue" d="M841.89,-61.7C721.77,-51.83 366.52,-22.63 257.31,-13.66"/>
<polygon fill="midnightblue" stroke="midnightblue" points="257.49,-10.16 247.24,-12.83 256.91,-17.14 257.49,-10.16"/>
</g>
<!-- Node13&#45;&gt;Node11 -->
<g id="edge20" class="edge">
<title>Node13&#45;&gt;Node11</title>
<path fill="none" stroke="midnightblue" d="M856.01,-56.44C828.3,-47.32 784.25,-32.81 753.38,-22.65"/>
<polygon fill="midnightblue" stroke="midnightblue" points="754.46,-19.32 743.86,-19.52 752.27,-25.97 754.46,-19.32"/>
</g>
<!-- Node13&#45;&gt;Node12 -->
<g id="edge21" class="edge">
<title>Node13&#45;&gt;Node12</title>
<path fill="none" stroke="midnightblue" d="M882,-56.08C882,-49.01 882,-38.86 882,-29.99"/>
<polygon fill="midnightblue" stroke="midnightblue" points="885.5,-29.75 882,-19.75 878.5,-29.75 885.5,-29.75"/>
</g>
<!-- Node17 -->
<g id="node17" class="node">
<title>Node17</title>
<g id="a_node17"><a xlink:href="IRenderer_8hpp.html" target="_top" xlink:title=" ">
<polygon fill="white" stroke="black" points="0,-174 0,-193 84,-193 84,-174 0,-174"/>
<text text-anchor="middle" x="42" y="-181" font-family="Helvetica,sans-Serif" font-size="10.00">IRenderer.hpp</text>
</a>
</g>
</g>
<!-- Node16&#45;&gt;Node17 -->
<g id="edge27" class="edge">
<title>Node16&#45;&gt;Node17</title>
<path fill="none" stroke="midnightblue" d="M79.9,-291.14C72.07,-269.1 57.08,-226.95 48.49,-202.76"/>
<polygon fill="midnightblue" stroke="midnightblue" points="51.69,-201.3 45.04,-193.05 45.09,-203.65 51.69,-201.3"/>
</g>
<!-- Node17&#45;&gt;Node10 -->
<g id="edge28" class="edge">
<title>Node17&#45;&gt;Node10</title>
<path fill="none" stroke="midnightblue" d="M44.86,-173.74C53.42,-147.99 79.41,-73.22 98,-56 124.32,-31.61 164.7,-20.29 192.84,-15.14"/>
<polygon fill="midnightblue" stroke="midnightblue" points="193.68,-18.55 202.97,-13.45 192.53,-11.64 193.68,-18.55"/>
</g>
<!-- Node18 -->
<g id="node18" class="node">
<title>Node18</title>
<g id="a_node18"><a xlink:title=" ">
<polygon fill="white" stroke="#bfbfbf" points="6,-112.5 6,-131.5 46,-131.5 46,-112.5 6,-112.5"/>
<text text-anchor="middle" x="26" y="-119.5" font-family="Helvetica,sans-Serif" font-size="10.00">span</text>
</a>
</g>
</g>
<!-- Node17&#45;&gt;Node18 -->
<g id="edge29" class="edge">
<title>Node17&#45;&gt;Node18</title>
<path fill="none" stroke="midnightblue" d="M39.71,-173.98C37.43,-165.49 33.85,-152.2 30.93,-141.32"/>
<polygon fill="midnightblue" stroke="midnightblue" points="34.26,-140.26 28.29,-131.51 27.51,-142.07 34.26,-140.26"/>
</g>
<!-- Node19&#45;&gt;Node5 -->
<g id="edge31" class="edge">
<title>Node19&#45;&gt;Node5</title>
<path fill="none" stroke="midnightblue" d="M735.61,-366.88C842.11,-365.76 1067.61,-358.96 1135,-322 1182.27,-296.07 1215.94,-239.93 1232.12,-207.98"/>
<polygon fill="midnightblue" stroke="midnightblue" points="1235.31,-209.42 1236.58,-198.9 1229.03,-206.34 1235.31,-209.42"/>
</g>
<!-- Node19&#45;&gt;Node17 -->
<g id="edge76" class="edge">
<title>Node19&#45;&gt;Node17</title>
<path fill="none" stroke="midnightblue" d="M622.3,-360.54C567.99,-353.62 484.04,-340.99 413,-322 281.94,-286.96 132.28,-224.14 70.73,-197.27"/>
<polygon fill="midnightblue" stroke="midnightblue" points="71.85,-193.94 61.29,-193.12 69.04,-200.35 71.85,-193.94"/>
</g>
<!-- Node20 -->
<g id="node20" class="node">
<title>Node20</title>
<g id="a_node20"><a xlink:href="CPU_8hpp.html" target="_top" xlink:title=" ">
<polygon fill="white" stroke="black" points="687.5,-297 687.5,-316 768.5,-316 768.5,-297 687.5,-297"/>
<text text-anchor="middle" x="728" y="-304" font-family="Helvetica,sans-Serif" font-size="10.00">CPU/CPU.hpp</text>
</a>
</g>
</g>
<!-- Node19&#45;&gt;Node20 -->
<g id="edge32" class="edge">
<title>Node19&#45;&gt;Node20</title>
<path fill="none" stroke="midnightblue" d="M686.02,-358.48C693.44,-349.46 705.33,-335.02 714.57,-323.81"/>
<polygon fill="midnightblue" stroke="midnightblue" points="717.34,-325.95 720.99,-316.01 711.93,-321.5 717.34,-325.95"/>
</g>
<!-- Node21 -->
<g id="node21" class="node">
<title>Node21</title>
<g id="a_node21"><a xlink:href="Cartridge_8hpp.html" target="_top" xlink:title=" ">
<polygon fill="white" stroke="black" points="281,-235.5 281,-254.5 421,-254.5 421,-235.5 281,-235.5"/>
<text text-anchor="middle" x="351" y="-242.5" font-family="Helvetica,sans-Serif" font-size="10.00">../Cartridge/Cartridge.hpp</text>
</a>
</g>
</g>
<!-- Node19&#45;&gt;Node21 -->
<g id="edge54" class="edge">
<title>Node19&#45;&gt;Node21</title>
<path fill="none" stroke="midnightblue" d="M622.07,-360.05C579.58,-353.58 520.69,-341.87 472,-322 433.07,-306.11 392.65,-277.95 369.77,-260.73"/>
<polygon fill="midnightblue" stroke="midnightblue" points="371.71,-257.8 361.64,-254.5 367.45,-263.36 371.71,-257.8"/>
</g>
<!-- Node24 -->
<g id="node24" class="node">
<title>Node24</title>
<g id="a_node24"><a xlink:href="Ram_8hpp.html" target="_top" xlink:title=" ">
<polygon fill="white" stroke="black" points="388.5,-174 388.5,-193 483.5,-193 483.5,-174 388.5,-174"/>
<text text-anchor="middle" x="436" y="-181" font-family="Helvetica,sans-Serif" font-size="10.00">../Ram/Ram.hpp</text>
</a>
</g>
</g>
<!-- Node19&#45;&gt;Node24 -->
<g id="edge55" class="edge">
<title>Node19&#45;&gt;Node24</title>
<path fill="none" stroke="midnightblue" d="M667.61,-358.44C629.18,-329.58 504.06,-235.61 455.51,-199.15"/>
<polygon fill="midnightblue" stroke="midnightblue" points="457.47,-196.25 447.37,-193.04 453.26,-201.84 457.47,-196.25"/>
</g>
<!-- Node27 -->
<g id="node27" class="node">
<title>Node27</title>
<g id="a_node27"><a xlink:href="PPU_8hpp.html" target="_top" xlink:title=" ">
<polygon fill="white" stroke="black" points="561,-235.5 561,-254.5 641,-254.5 641,-235.5 561,-235.5"/>
<text text-anchor="middle" x="601" y="-242.5" font-family="Helvetica,sans-Serif" font-size="10.00">PPU/PPU.hpp</text>
</a>
</g>
</g>
<!-- Node19&#45;&gt;Node27 -->
<g id="edge56" class="edge">
<title>Node19&#45;&gt;Node27</title>
<path fill="none" stroke="midnightblue" d="M673.39,-358.3C660.57,-338.41 628.95,-289.35 612.05,-263.15"/>
<polygon fill="midnightblue" stroke="midnightblue" points="614.92,-261.13 606.56,-254.62 609.04,-264.92 614.92,-261.13"/>
</g>
<!-- Node31 -->
<g id="node31" class="node">
<title>Node31</title>
<g id="a_node31"><a xlink:href="APU_8hpp.html" target="_top" xlink:title=" ">
<polygon fill="white" stroke="black" points="832.5,-235.5 832.5,-254.5 913.5,-254.5 913.5,-235.5 832.5,-235.5"/>
<text text-anchor="middle" x="873" y="-242.5" font-family="Helvetica,sans-Serif" font-size="10.00">APU/APU.hpp</text>
</a>
</g>
</g>
<!-- Node19&#45;&gt;Node31 -->
<g id="edge65" class="edge">
<title>Node19&#45;&gt;Node31</title>
<path fill="none" stroke="midnightblue" d="M702.23,-358.35C722.83,-350.24 753.38,-337.12 778,-322 807.5,-303.89 838.17,-277.81 856.41,-261.4"/>
<polygon fill="midnightblue" stroke="midnightblue" points="858.84,-263.92 863.87,-254.6 854.13,-258.75 858.84,-263.92"/>
</g>
<!-- Node35 -->
<g id="node35" class="node">
<title>Node35</title>
<g id="a_node35"><a xlink:href="DebuggableError_8hpp.html" target="_top" xlink:title=" ">
<polygon fill="white" stroke="black" points="950.5,-297 950.5,-316 1125.5,-316 1125.5,-297 950.5,-297"/>
<text text-anchor="middle" x="1038" y="-304" font-family="Helvetica,sans-Serif" font-size="10.00">Exceptions/DebuggableError.hpp</text>
</a>
</g>
</g>
<!-- Node19&#45;&gt;Node35 -->
<g id="edge77" class="edge">
<title>Node19&#45;&gt;Node35</title>
<path fill="none" stroke="midnightblue" d="M730.44,-358.48C795.48,-347.69 907.35,-329.15 976.74,-317.65"/>
<polygon fill="midnightblue" stroke="midnightblue" points="977.37,-321.1 986.66,-316.01 976.22,-314.19 977.37,-321.1"/>
</g>
<!-- Node20&#45;&gt;Node5 -->
<g id="edge34" class="edge">
<title>Node20&#45;&gt;Node5</title>
<path fill="none" stroke="midnightblue" d="M768.88,-302.64C827.68,-297.64 938.97,-284.84 1029,-255 1047.49,-248.87 1049.89,-242.18 1068,-235 1102.1,-221.48 1141.23,-209.85 1173.83,-201.16"/>
<polygon fill="midnightblue" stroke="midnightblue" points="1174.94,-204.49 1183.72,-198.56 1173.16,-197.72 1174.94,-204.49"/>
</g>
<!-- Node20&#45;&gt;Node9 -->
<g id="edge33" class="edge">
<title>Node20&#45;&gt;Node9</title>
<path fill="none" stroke="midnightblue" d="M732.28,-296.74C744.07,-273.31 779.16,-208.26 824,-168 839.05,-154.49 858.87,-143.47 875.25,-135.72"/>
<polygon fill="midnightblue" stroke="midnightblue" points="876.78,-138.87 884.44,-131.54 873.88,-132.5 876.78,-138.87"/>
</g>
<!-- Node20&#45;&gt;Node11 -->
<g id="edge35" class="edge">
<title>Node20&#45;&gt;Node11</title>
<path fill="none" stroke="midnightblue" d="M727.7,-296.69C726.32,-256.13 720.58,-86.97 718.64,-29.9"/>
<polygon fill="midnightblue" stroke="midnightblue" points="722.14,-29.65 718.3,-19.78 715.14,-29.89 722.14,-29.65"/>
</g>
<!-- Node20&#45;&gt;Node21 -->
<g id="edge36" class="edge">
<title>Node20&#45;&gt;Node21</title>
<path fill="none" stroke="midnightblue" d="M687.3,-299.08C621.97,-288.77 493.18,-268.44 415.32,-256.15"/>
<polygon fill="midnightblue" stroke="midnightblue" points="415.58,-252.65 405.15,-254.55 414.48,-259.56 415.58,-252.65"/>
</g>
<!-- Node25 -->
<g id="node25" class="node">
<title>Node25</title>
<g id="a_node25"><a xlink:href="Instruction_8hpp.html" target="_top" xlink:title=" ">
<polygon fill="white" stroke="black" points="216.5,-56.5 216.5,-75.5 305.5,-75.5 305.5,-56.5 216.5,-56.5"/>
<text text-anchor="middle" x="261" y="-63.5" font-family="Helvetica,sans-Serif" font-size="10.00">Instruction.hpp</text>
</a>
</g>
</g>
<!-- Node20&#45;&gt;Node25 -->
<g id="edge46" class="edge">
<title>Node20&#45;&gt;Node25</title>
<path fill="none" stroke="midnightblue" d="M725.47,-296.96C722.55,-286.95 717.66,-269.84 714,-255 698.42,-191.86 731.38,-155.45 683,-112 656.18,-87.91 423.78,-74.36 315.77,-69.31"/>
<polygon fill="midnightblue" stroke="midnightblue" points="315.86,-65.81 305.71,-68.84 315.54,-72.8 315.86,-65.81"/>
</g>
<!-- Node26 -->
<g id="node26" class="node">
<title>Node26</title>
<g id="a_node26"><a xlink:href="DMA_8hpp.html" target="_top" xlink:title=" ">
<polygon fill="white" stroke="black" points="932.5,-235.5 932.5,-254.5 1019.5,-254.5 1019.5,-235.5 932.5,-235.5"/>
<text text-anchor="middle" x="976" y="-242.5" font-family="Helvetica,sans-Serif" font-size="10.00">DMA/DMA.hpp</text>
</a>
</g>
</g>
<!-- Node20&#45;&gt;Node26 -->
<g id="edge49" class="edge">
<title>Node20&#45;&gt;Node26</title>
<path fill="none" stroke="midnightblue" d="M763.53,-296.98C807.55,-286.42 882.59,-268.41 930.7,-256.87"/>
<polygon fill="midnightblue" stroke="midnightblue" points="931.63,-260.25 940.53,-254.51 929.99,-253.44 931.63,-260.25"/>
</g>
<!-- Node21&#45;&gt;Node9 -->
<g id="edge38" class="edge">
<title>Node21&#45;&gt;Node9</title>
<path fill="none" stroke="midnightblue" d="M351.35,-235.19C352.52,-218.94 357.53,-184.37 379,-168 397.73,-153.72 725.01,-133.42 854.18,-125.93"/>
<polygon fill="midnightblue" stroke="midnightblue" points="854.45,-129.42 864.23,-125.35 854.04,-122.43 854.45,-129.42"/>
</g>
<!-- Node21&#45;&gt;Node10 -->
<g id="edge37" class="edge">
<title>Node21&#45;&gt;Node10</title>
<path fill="none" stroke="midnightblue" d="M280.77,-238.72C225.22,-232.91 154.09,-221.27 136,-199 111.62,-168.99 122.34,-148.17 136,-112 149.78,-75.52 183.4,-43.69 205.15,-25.94"/>
<polygon fill="midnightblue" stroke="midnightblue" points="207.44,-28.59 213.11,-19.64 203.1,-23.1 207.44,-28.59"/>
</g>
<!-- Node21&#45;&gt;Node11 -->
<g id="edge39" class="edge">
<title>Node21&#45;&gt;Node11</title>
<path fill="none" stroke="midnightblue" d="M298.84,-235.49C259.49,-227.88 210.27,-215.4 198,-199 187.5,-184.97 199.45,-119.39 206,-112 221.87,-94.08 390.57,-60.87 414,-56 495.64,-39.03 590.91,-26 652.74,-18.44"/>
<polygon fill="midnightblue" stroke="midnightblue" points="653.24,-21.9 662.74,-17.22 652.39,-14.95 653.24,-21.9"/>
</g>
<!-- Node22 -->
<g id="node22" class="node">
<title>Node22</title>
<g id="a_node22"><a xlink:href="ARectangleMemory_8hpp.html" target="_top" xlink:title=" ">
<polygon fill="white" stroke="black" points="215.5,-112.5 215.5,-131.5 400.5,-131.5 400.5,-112.5 215.5,-112.5"/>
<text text-anchor="middle" x="308" y="-119.5" font-family="Helvetica,sans-Serif" font-size="10.00">../Memory/ARectangleMemory.hpp</text>
</a>
</g>
</g>
<!-- Node21&#45;&gt;Node22 -->
<g id="edge40" class="edge">
<title>Node21&#45;&gt;Node22</title>
<path fill="none" stroke="midnightblue" d="M280.94,-239.51C253.32,-233.89 224.14,-222.32 207,-199 198.84,-187.9 199.5,-179.56 207,-168 217.41,-151.97 235,-141.6 252.61,-134.92"/>
<polygon fill="midnightblue" stroke="midnightblue" points="254.03,-138.13 262.35,-131.57 251.75,-131.51 254.03,-138.13"/>
</g>
<!-- Node23 -->
<g id="node23" class="node">
<title>Node23</title>
<g id="a_node23"><a xlink:href="InterruptVectors_8hpp.html" target="_top" xlink:title=" ">
<polygon fill="white" stroke="black" points="216,-174 216,-193 332,-193 332,-174 216,-174"/>
<text text-anchor="middle" x="274" y="-181" font-family="Helvetica,sans-Serif" font-size="10.00">InterruptVectors.hpp</text>
</a>
</g>
</g>
<!-- Node21&#45;&gt;Node23 -->
<g id="edge42" class="edge">
<title>Node21&#45;&gt;Node23</title>
<path fill="none" stroke="midnightblue" d="M339.97,-235.48C327.73,-226.02 307.77,-210.6 293.01,-199.19"/>
<polygon fill="midnightblue" stroke="midnightblue" points="295.06,-196.35 285.01,-193.01 290.78,-201.89 295.06,-196.35"/>
</g>
<!-- Node21&#45;&gt;Node24 -->
<g id="edge43" class="edge">
<title>Node21&#45;&gt;Node24</title>
<path fill="none" stroke="midnightblue" d="M363.18,-235.48C376.81,-225.93 399.13,-210.31 415.47,-198.87"/>
<polygon fill="midnightblue" stroke="midnightblue" points="417.66,-201.61 423.84,-193.01 413.64,-195.88 417.66,-201.61"/>
</g>
<!-- Node22&#45;&gt;Node13 -->
<g id="edge41" class="edge">
<title>Node22&#45;&gt;Node13</title>
<path fill="none" stroke="midnightblue" d="M398.64,-112.47C521.02,-100.96 734.91,-80.84 831.79,-71.72"/>
<polygon fill="midnightblue" stroke="midnightblue" points="832.27,-75.19 841.9,-70.77 831.62,-68.22 832.27,-75.19"/>
</g>
<!-- Node24&#45;&gt;Node10 -->
<g id="edge45" class="edge">
<title>Node24&#45;&gt;Node10</title>
<path fill="none" stroke="midnightblue" d="M388.4,-175.28C324.44,-165.11 217.42,-146.2 206,-132 182,-102.16 201.17,-54.42 214.65,-28.73"/>
<polygon fill="midnightblue" stroke="midnightblue" points="217.83,-30.21 219.6,-19.76 211.7,-26.83 217.83,-30.21"/>
</g>
<!-- Node24&#45;&gt;Node22 -->
<g id="edge44" class="edge">
<title>Node24&#45;&gt;Node22</title>
<path fill="none" stroke="midnightblue" d="M417.66,-173.98C396.18,-163.99 360.38,-147.35 335.55,-135.81"/>
<polygon fill="midnightblue" stroke="midnightblue" points="336.85,-132.55 326.31,-131.51 333.9,-138.9 336.85,-132.55"/>
</g>
<!-- Node25&#45;&gt;Node10 -->
<g id="edge47" class="edge">
<title>Node25&#45;&gt;Node10</title>
<path fill="none" stroke="midnightblue" d="M255.06,-56.08C250.02,-48.53 242.66,-37.49 236.49,-28.23"/>
<polygon fill="midnightblue" stroke="midnightblue" points="239.29,-26.13 230.83,-19.75 233.47,-30.01 239.29,-26.13"/>
</g>
<!-- Node25&#45;&gt;Node11 -->
<g id="edge48" class="edge">
<title>Node25&#45;&gt;Node11</title>
<path fill="none" stroke="midnightblue" d="M305.75,-57.99C310.56,-57.29 315.38,-56.61 320,-56 436.93,-40.48 573.65,-25.77 652.59,-17.61"/>
<polygon fill="midnightblue" stroke="midnightblue" points="653.28,-21.06 662.87,-16.55 652.56,-14.09 653.28,-21.06"/>
</g>
<!-- Node26&#45;&gt;Node5 -->
<g id="edge53" class="edge">
<title>Node26&#45;&gt;Node5</title>
<path fill="none" stroke="midnightblue" d="M1014.25,-235.48C1054.81,-226.44 1119.83,-211.95 1170.21,-200.72"/>
<polygon fill="midnightblue" stroke="midnightblue" points="1171.07,-204.11 1180.07,-198.52 1169.55,-197.28 1171.07,-204.11"/>
</g>
<!-- Node26&#45;&gt;Node6 -->
<g id="edge50" class="edge">
<title>Node26&#45;&gt;Node6</title>
<path fill="none" stroke="midnightblue" d="M1006.09,-235.43C1034.51,-226.65 1074.08,-212.43 1083,-199 1104.4,-166.79 1096.25,-148.33 1083,-112 1069.88,-76.05 1037.71,-44.02 1016.92,-26.1"/>
<polygon fill="midnightblue" stroke="midnightblue" points="1018.98,-23.25 1009.06,-19.52 1014.48,-28.62 1018.98,-23.25"/>
</g>
<!-- Node26&#45;&gt;Node8 -->
<g id="edge51" class="edge">
<title>Node26&#45;&gt;Node8</title>
<path fill="none" stroke="midnightblue" d="M1017.62,-235.44C1043.84,-228.62 1077.44,-217.14 1103,-199 1170.4,-151.16 1223.65,-65.29 1244.49,-28.5"/>
<polygon fill="midnightblue" stroke="midnightblue" points="1247.69,-29.94 1249.49,-19.5 1241.58,-26.54 1247.69,-29.94"/>
</g>
<!-- Node26&#45;&gt;Node11 -->
<g id="edge52" class="edge">
<title>Node26&#45;&gt;Node11</title>
<path fill="none" stroke="midnightblue" d="M969.87,-235.32C959.08,-220.44 935.51,-189.56 911,-168 889.06,-148.7 879.34,-149.57 856,-132 825.54,-109.06 819.68,-101.12 791,-76 772.01,-59.36 750.43,-40.11 735.69,-26.9"/>
<polygon fill="midnightblue" stroke="midnightblue" points="737.65,-23.96 727.87,-19.88 732.98,-29.17 737.65,-23.96"/>
</g>
<!-- Node27&#45;&gt;Node5 -->
<g id="edge59" class="edge">
<title>Node27&#45;&gt;Node5</title>
<path fill="none" stroke="midnightblue" d="M641.16,-240.28C743.8,-230.77 1017.48,-205.4 1157.66,-192.41"/>
<polygon fill="midnightblue" stroke="midnightblue" points="1158.29,-195.87 1167.93,-191.46 1157.65,-188.9 1158.29,-195.87"/>
</g>
<!-- Node27&#45;&gt;Node6 -->
<g id="edge57" class="edge">
<title>Node27&#45;&gt;Node6</title>
<path fill="none" stroke="midnightblue" d="M586.78,-235.45C572.43,-226.68 549.78,-212.47 531,-199 530.7,-198.78 447.16,-132.34 447,-132 443.14,-123.99 441.29,-118.81 447,-112 519.96,-24.91 832.93,-44.06 962.68,-19.97"/>
<polygon fill="midnightblue" stroke="midnightblue" points="963.7,-23.34 972.81,-17.92 962.31,-16.48 963.7,-23.34"/>
</g>
<!-- Node27&#45;&gt;Node9 -->
<g id="edge58" class="edge">
<title>Node27&#45;&gt;Node9</title>
<path fill="none" stroke="midnightblue" d="M621.94,-235.48C656.77,-221.34 728.82,-192.17 790,-168 818.48,-156.75 850.98,-144.16 874.33,-135.17"/>
<polygon fill="midnightblue" stroke="midnightblue" points="875.66,-138.41 883.73,-131.55 873.14,-131.87 875.66,-138.41"/>
</g>
<!-- Node27&#45;&gt;Node17 -->
<g id="edge60" class="edge">
<title>Node27&#45;&gt;Node17</title>
<path fill="none" stroke="midnightblue" d="M560.8,-239.72C461.61,-229.16 205.25,-201.88 94.37,-190.07"/>
<polygon fill="midnightblue" stroke="midnightblue" points="94.42,-186.56 84.11,-188.98 93.68,-193.52 94.42,-186.56"/>
</g>
<!-- Node27&#45;&gt;Node24 -->
<g id="edge61" class="edge">
<title>Node27&#45;&gt;Node24</title>
<path fill="none" stroke="midnightblue" d="M577.36,-235.48C549.06,-225.27 501.47,-208.11 469.41,-196.55"/>
<polygon fill="midnightblue" stroke="midnightblue" points="470.19,-193.11 459.6,-193.01 467.82,-199.69 470.19,-193.11"/>
</g>
<!-- Node28 -->
<g id="node28" class="node">
<title>Node28</title>
<g id="a_node28"><a xlink:href="Vector2_8hpp.html" target="_top" xlink:title=" ">
<polygon fill="white" stroke="black" points="540,-174 540,-193 662,-193 662,-174 540,-174"/>
<text text-anchor="middle" x="601" y="-181" font-family="Helvetica,sans-Serif" font-size="10.00">../Models/Vector2.hpp</text>
</a>
</g>
</g>
<!-- Node27&#45;&gt;Node28 -->
<g id="edge62" class="edge">
<title>Node27&#45;&gt;Node28</title>
<path fill="none" stroke="midnightblue" d="M601,-235.48C601,-227.08 601,-213.98 601,-203.16"/>
<polygon fill="midnightblue" stroke="midnightblue" points="604.5,-203.01 601,-193.01 597.5,-203.01 604.5,-203.01"/>
</g>
<!-- Node29 -->
<g id="node29" class="node">
<title>Node29</title>
<g id="a_node29"><a xlink:title=" ">
<polygon fill="white" stroke="#bfbfbf" points="456.5,-112.5 456.5,-131.5 513.5,-131.5 513.5,-112.5 456.5,-112.5"/>
<text text-anchor="middle" x="485" y="-119.5" font-family="Helvetica,sans-Serif" font-size="10.00">ostream</text>
</a>
</g>
</g>
<!-- Node28&#45;&gt;Node29 -->
<g id="edge63" class="edge">
<title>Node28&#45;&gt;Node29</title>
<path fill="none" stroke="midnightblue" d="M584.38,-173.98C565.08,-164.08 533.04,-147.64 510.57,-136.12"/>
<polygon fill="midnightblue" stroke="midnightblue" points="512.08,-132.96 501.59,-131.51 508.89,-139.19 512.08,-132.96"/>
</g>
<!-- Node30 -->
<g id="node30" class="node">
<title>Node30</title>
<g id="a_node30"><a xlink:title=" ">
<polygon fill="white" stroke="#bfbfbf" points="531.5,-112.5 531.5,-131.5 674.5,-131.5 674.5,-112.5 531.5,-112.5"/>
<text text-anchor="middle" x="603" y="-119.5" font-family="Helvetica,sans-Serif" font-size="10.00">SFML/System/Vector2.hpp</text>
</a>
</g>
</g>
<!-- Node28&#45;&gt;Node30 -->
<g id="edge64" class="edge">
<title>Node28&#45;&gt;Node30</title>
<path fill="none" stroke="midnightblue" d="M601.29,-173.98C601.57,-165.58 602.01,-152.48 602.37,-141.66"/>
<polygon fill="midnightblue" stroke="midnightblue" points="605.88,-141.62 602.71,-131.51 598.88,-141.39 605.88,-141.62"/>
</g>
<!-- Node31&#45;&gt;Node8 -->
<g id="edge66" class="edge">
<title>Node31&#45;&gt;Node8</title>
<path fill="none" stroke="midnightblue" d="M913.59,-236.51C917.11,-235.96 920.61,-235.45 924,-235 968.57,-229.09 1296.66,-232.17 1327,-199 1374.04,-147.58 1303.8,-62.47 1270.22,-27.14"/>
<polygon fill="midnightblue" stroke="midnightblue" points="1272.41,-24.37 1262.93,-19.65 1267.39,-29.26 1272.41,-24.37"/>
</g>
<!-- Node31&#45;&gt;Node9 -->
<g id="edge71" class="edge">
<title>Node31&#45;&gt;Node9</title>
<path fill="none" stroke="midnightblue" d="M883.71,-235.3C892.94,-227.07 905.59,-213.79 911,-199 917.8,-180.41 914.94,-157.58 911.39,-141.82"/>
<polygon fill="midnightblue" stroke="midnightblue" points="914.68,-140.58 908.81,-131.76 907.9,-142.31 914.68,-140.58"/>
</g>
<!-- Node31&#45;&gt;Node17 -->
<g id="edge75" class="edge">
<title>Node31&#45;&gt;Node17</title>
<path fill="none" stroke="midnightblue" d="M832.44,-241.55C728.45,-235.19 443.86,-217.41 207,-199 169.23,-196.06 126.64,-192.31 94.19,-189.36"/>
<polygon fill="midnightblue" stroke="midnightblue" points="94.3,-185.85 84.03,-188.43 93.67,-192.82 94.3,-185.85"/>
</g>
<!-- Node31&#45;&gt;Node24 -->
<g id="edge72" class="edge">
<title>Node31&#45;&gt;Node24</title>
<path fill="none" stroke="midnightblue" d="M832.43,-238.94C768.34,-230.88 639.8,-214.46 531,-199 519,-197.29 506.16,-195.39 493.92,-193.54"/>
<polygon fill="midnightblue" stroke="midnightblue" points="494.23,-190.04 483.81,-191.99 493.17,-196.96 494.23,-190.04"/>
</g>
<!-- Node32 -->
<g id="node32" class="node">
<title>Node32</title>
<g id="a_node32"><a xlink:href="DSP_8hpp.html" target="_top" xlink:title=" ">
<polygon fill="white" stroke="black" points="996,-174 996,-193 1074,-193 1074,-174 996,-174"/>
<text text-anchor="middle" x="1035" y="-181" font-family="Helvetica,sans-Serif" font-size="10.00">DSP/DSP.hpp</text>
</a>
</g>
</g>
<!-- Node31&#45;&gt;Node32 -->
<g id="edge67" class="edge">
<title>Node31&#45;&gt;Node32</title>
<path fill="none" stroke="midnightblue" d="M896.21,-235.48C924,-225.27 970.72,-208.11 1002.19,-196.55"/>
<polygon fill="midnightblue" stroke="midnightblue" points="1003.65,-199.74 1011.83,-193.01 1001.24,-193.17 1003.65,-199.74"/>
</g>
<!-- Node34 -->
<g id="node34" class="node">
<title>Node34</title>
<g id="a_node34"><a xlink:href="IPL_8hpp.html" target="_top" xlink:title=" ">
<polygon fill="white" stroke="black" points="832.5,-174 832.5,-193 901.5,-193 901.5,-174 832.5,-174"/>
<text text-anchor="middle" x="867" y="-181" font-family="Helvetica,sans-Serif" font-size="10.00">IPL/IPL.hpp</text>
</a>
</g>
</g>
<!-- Node31&#45;&gt;Node34 -->
<g id="edge73" class="edge">
<title>Node31&#45;&gt;Node34</title>
<path fill="none" stroke="midnightblue" d="M872.14,-235.48C871.29,-227.08 869.97,-213.98 868.88,-203.16"/>
<polygon fill="midnightblue" stroke="midnightblue" points="872.34,-202.61 867.86,-193.01 865.38,-203.31 872.34,-202.61"/>
</g>
<!-- Node32&#45;&gt;Node6 -->
<g id="edge68" class="edge">
<title>Node32&#45;&gt;Node6</title>
<path fill="none" stroke="midnightblue" d="M1032.88,-173.94C1030.42,-163.91 1026.28,-146.78 1023,-132 1014.97,-95.83 1006.39,-53.38 1001.66,-29.6"/>
<polygon fill="midnightblue" stroke="midnightblue" points="1005.05,-28.66 999.67,-19.53 998.18,-30.02 1005.05,-28.66"/>
</g>
<!-- Node32&#45;&gt;Node9 -->
<g id="edge70" class="edge">
<title>Node32&#45;&gt;Node9</title>
<path fill="none" stroke="midnightblue" d="M1016.52,-173.98C994.87,-163.99 958.79,-147.35 933.77,-135.81"/>
<polygon fill="midnightblue" stroke="midnightblue" points="934.99,-132.52 924.45,-131.51 932.06,-138.88 934.99,-132.52"/>
</g>
<!-- Node33 -->
<g id="node33" class="node">
<title>Node33</title>
<g id="a_node33"><a xlink:title=" ">
<polygon fill="white" stroke="#bfbfbf" points="1032,-112.5 1032,-131.5 1074,-131.5 1074,-112.5 1032,-112.5"/>
<text text-anchor="middle" x="1053" y="-119.5" font-family="Helvetica,sans-Serif" font-size="10.00">array</text>
</a>
</g>
</g>
<!-- Node32&#45;&gt;Node33 -->
<g id="edge69" class="edge">
<title>Node32&#45;&gt;Node33</title>
<path fill="none" stroke="midnightblue" d="M1037.58,-173.98C1040.15,-165.49 1044.17,-152.2 1047.46,-141.32"/>
<polygon fill="midnightblue" stroke="midnightblue" points="1050.88,-142.09 1050.43,-131.51 1044.18,-140.07 1050.88,-142.09"/>
</g>
<!-- Node34&#45;&gt;Node9 -->
<g id="edge74" class="edge">
<title>Node34&#45;&gt;Node9</title>
<path fill="none" stroke="midnightblue" d="M872.59,-173.98C878.38,-165.14 887.59,-151.09 894.87,-139.98"/>
<polygon fill="midnightblue" stroke="midnightblue" points="897.87,-141.79 900.42,-131.51 892.01,-137.95 897.87,-141.79"/>
</g>
<!-- Node36 -->
<g id="node36" class="node">
<title>Node36</title>
<g id="a_node36"><a xlink:title=" ">
<polygon fill="white" stroke="#bfbfbf" points="1076.5,-235.5 1076.5,-254.5 1171.5,-254.5 1171.5,-235.5 1076.5,-235.5"/>
<text text-anchor="middle" x="1124" y="-242.5" font-family="Helvetica,sans-Serif" font-size="10.00">bits/exception.h</text>
</a>
</g>
</g>
<!-- Node35&#45;&gt;Node36 -->
<g id="edge78" class="edge">
<title>Node35&#45;&gt;Node36</title>
<path fill="none" stroke="midnightblue" d="M1050.32,-296.98C1064.12,-287.43 1086.7,-271.81 1103.23,-260.37"/>
<polygon fill="midnightblue" stroke="midnightblue" points="1105.47,-263.08 1111.7,-254.51 1101.49,-257.32 1105.47,-263.08"/>
</g>
</g>
</svg>
