<?xml version="1.0" encoding="UTF-8" standalone="no"?>
<!DOCTYPE svg PUBLIC "-//W3C//DTD SVG 1.1//EN"
 "http://www.w3.org/Graphics/SVG/1.1/DTD/svg11.dtd">
<!-- Generated by graphviz version 2.43.0 (0)
 -->
<!-- Title: tests/testRectangleMemory.cpp Pages: 1 -->
<svg width="1539pt" height="509pt"
 viewBox="0.00 0.00 1538.90 509.00" xmlns="http://www.w3.org/2000/svg" xmlns:xlink="http://www.w3.org/1999/xlink">
<g id="graph0" class="graph" transform="scale(1 1) rotate(0) translate(4 505)">
<title>tests/testRectangleMemory.cpp</title>
<polygon fill="white" stroke="transparent" points="-4,4 -4,-505 1534.9,-505 1534.9,4 -4,4"/>
<!-- Node1 -->
<g id="node1" class="node">
<title>Node1</title>
<g id="a_node1"><a xlink:title=" ">
<polygon fill="#bfbfbf" stroke="black" points="210.9,-481.5 210.9,-500.5 380.9,-500.5 380.9,-481.5 210.9,-481.5"/>
<text text-anchor="middle" x="295.9" y="-488.5" font-family="Helvetica,sans-Serif" font-size="10.00">tests/testRectangleMemory.cpp</text>
</a>
</g>
</g>
<!-- Node2 -->
<g id="node2" class="node">
<title>Node2</title>
<g id="a_node2"><a xlink:title=" ">
<polygon fill="white" stroke="#bfbfbf" points="110.9,-369.5 110.9,-388.5 220.9,-388.5 220.9,-369.5 110.9,-369.5"/>
<text text-anchor="middle" x="165.9" y="-376.5" font-family="Helvetica,sans-Serif" font-size="10.00">criterion/criterion.h</text>
</a>
</g>
</g>
<!-- Node1&#45;&gt;Node2 -->
<g id="edge1" class="edge">
<title>Node1&#45;&gt;Node2</title>
<path fill="none" stroke="midnightblue" d="M246.92,-481.43C224.15,-475.04 198.49,-463.99 181.9,-445 170.8,-432.29 167.14,-413.09 166.06,-398.85"/>
<polygon fill="midnightblue" stroke="midnightblue" points="169.55,-398.56 165.65,-388.71 162.56,-398.85 169.55,-398.56"/>
</g>
<!-- Node3 -->
<g id="node3" class="node">
<title>Node3</title>
<g id="a_node3"><a xlink:title=" ">
<polygon fill="white" stroke="#bfbfbf" points="191.4,-425.5 191.4,-444.5 298.4,-444.5 298.4,-425.5 191.4,-425.5"/>
<text text-anchor="middle" x="244.9" y="-432.5" font-family="Helvetica,sans-Serif" font-size="10.00">criterion/redirect.h</text>
</a>
</g>
</g>
<!-- Node1&#45;&gt;Node3 -->
<g id="edge2" class="edge">
<title>Node1&#45;&gt;Node3</title>
<path fill="none" stroke="midnightblue" d="M287.48,-481.08C280.05,-473.22 269.05,-461.57 260.09,-452.08"/>
<polygon fill="midnightblue" stroke="midnightblue" points="262.58,-449.62 253.16,-444.75 257.49,-454.42 262.58,-449.62"/>
</g>
<!-- Node4 -->
<g id="node4" class="node">
<title>Node4</title>
<g id="a_node4"><a xlink:href="tests_8hpp.html" target="_top" xlink:title=" ">
<polygon fill="white" stroke="black" points="316.9,-425.5 316.9,-444.5 378.9,-444.5 378.9,-425.5 316.9,-425.5"/>
<text text-anchor="middle" x="347.9" y="-432.5" font-family="Helvetica,sans-Serif" font-size="10.00">tests.hpp</text>
</a>
</g>
</g>
<!-- Node1&#45;&gt;Node4 -->
<g id="edge3" class="edge">
<title>Node1&#45;&gt;Node4</title>
<path fill="none" stroke="midnightblue" d="M304.49,-481.08C312.06,-473.22 323.28,-461.57 332.41,-452.08"/>
<polygon fill="midnightblue" stroke="midnightblue" points="335.06,-454.38 339.47,-444.75 330.02,-449.53 335.06,-454.38"/>
</g>
<!-- Node37 -->
<g id="node37" class="node">
<title>Node37</title>
<g id="a_node37"><a xlink:href="RectangleShadow_8hpp.html" target="_top" xlink:title=" ">
<polygon fill="white" stroke="black" points="1221.9,-235.5 1221.9,-265.5 1379.9,-265.5 1379.9,-235.5 1221.9,-235.5"/>
<text text-anchor="start" x="1229.9" y="-253.5" font-family="Helvetica,sans-Serif" font-size="10.00">../sources/Memory/Rectangle</text>
<text text-anchor="middle" x="1300.9" y="-242.5" font-family="Helvetica,sans-Serif" font-size="10.00">Shadow.hpp</text>
</a>
</g>
</g>
<!-- Node1&#45;&gt;Node37 -->
<g id="edge79" class="edge">
<title>Node1&#45;&gt;Node37</title>
<path fill="none" stroke="midnightblue" d="M331.96,-481.44C479.11,-446.52 1035.48,-314.49 1231.8,-267.9"/>
<polygon fill="midnightblue" stroke="midnightblue" points="1232.79,-271.26 1241.71,-265.55 1231.17,-264.45 1232.79,-271.26"/>
</g>
<!-- Node4&#45;&gt;Node2 -->
<g id="edge22" class="edge">
<title>Node4&#45;&gt;Node2</title>
<path fill="none" stroke="midnightblue" d="M319.06,-425.44C288.04,-416.24 238.57,-401.56 204.28,-391.39"/>
<polygon fill="midnightblue" stroke="midnightblue" points="205.19,-388.01 194.6,-388.52 203.19,-394.72 205.19,-388.01"/>
</g>
<!-- Node4&#45;&gt;Node4 -->
<g id="edge25" class="edge">
<title>Node4&#45;&gt;Node4</title>
<path fill="none" stroke="midnightblue" d="M368.8,-444.53C383,-447.31 396.9,-444.13 396.9,-435 396.9,-428.08 388.92,-424.58 378.87,-424.5"/>
<polygon fill="midnightblue" stroke="midnightblue" points="378.42,-421.03 368.8,-425.47 379.09,-428 378.42,-421.03"/>
</g>
<!-- Node5 -->
<g id="node5" class="node">
<title>Node5</title>
<g id="a_node5"><a xlink:href="MemoryBus_8hpp.html" target="_top" xlink:title=" ">
<polygon fill="white" stroke="black" points="293.9,-168.5 293.9,-198.5 443.9,-198.5 443.9,-168.5 293.9,-168.5"/>
<text text-anchor="start" x="301.9" y="-186.5" font-family="Helvetica,sans-Serif" font-size="10.00">../sources/Memory/Memory</text>
<text text-anchor="middle" x="368.9" y="-175.5" font-family="Helvetica,sans-Serif" font-size="10.00">Bus.hpp</text>
</a>
</g>
</g>
<!-- Node4&#45;&gt;Node5 -->
<g id="edge4" class="edge">
<title>Node4&#45;&gt;Node5</title>
<path fill="none" stroke="midnightblue" d="M336.91,-425.37C327.45,-417.17 314.46,-403.92 308.9,-389 305.79,-380.67 307.51,-377.78 308.9,-369 318.36,-309.35 344,-242.75 358.52,-208.2"/>
<polygon fill="midnightblue" stroke="midnightblue" points="361.76,-209.51 362.46,-198.94 355.32,-206.77 361.76,-209.51"/>
</g>
<!-- Node14 -->
<g id="node14" class="node">
<title>Node14</title>
<g id="a_node14"><a xlink:title=" ">
<polygon fill="white" stroke="#bfbfbf" points="317.9,-369.5 317.9,-388.5 377.9,-388.5 377.9,-369.5 317.9,-369.5"/>
<text text-anchor="middle" x="347.9" y="-376.5" font-family="Helvetica,sans-Serif" font-size="10.00">iostream</text>
</a>
</g>
</g>
<!-- Node4&#45;&gt;Node14 -->
<g id="edge23" class="edge">
<title>Node4&#45;&gt;Node14</title>
<path fill="none" stroke="midnightblue" d="M347.9,-425.08C347.9,-418.01 347.9,-407.86 347.9,-398.99"/>
<polygon fill="midnightblue" stroke="midnightblue" points="351.4,-398.75 347.9,-388.75 344.4,-398.75 351.4,-398.75"/>
</g>
<!-- Node15 -->
<g id="node15" class="node">
<title>Node15</title>
<g id="a_node15"><a xlink:title=" ">
<polygon fill="white" stroke="#bfbfbf" points="396.4,-369.5 396.4,-388.5 447.4,-388.5 447.4,-369.5 396.4,-369.5"/>
<text text-anchor="middle" x="421.9" y="-376.5" font-family="Helvetica,sans-Serif" font-size="10.00">zconf.h</text>
</a>
</g>
</g>
<!-- Node4&#45;&gt;Node15 -->
<g id="edge24" class="edge">
<title>Node4&#45;&gt;Node15</title>
<path fill="none" stroke="midnightblue" d="M359.79,-425.32C371.05,-417.11 388.19,-404.6 401.61,-394.81"/>
<polygon fill="midnightblue" stroke="midnightblue" points="403.78,-397.56 409.79,-388.83 399.65,-391.9 403.78,-397.56"/>
</g>
<!-- Node16 -->
<g id="node16" class="node">
<title>Node16</title>
<g id="a_node16"><a xlink:href="NoRenderer_8hpp.html" target="_top" xlink:title=" ">
<polygon fill="white" stroke="black" points="3.9,-302.5 3.9,-332.5 113.9,-332.5 113.9,-302.5 3.9,-302.5"/>
<text text-anchor="start" x="11.9" y="-320.5" font-family="Helvetica,sans-Serif" font-size="10.00">../sources/Renderer</text>
<text text-anchor="middle" x="58.9" y="-309.5" font-family="Helvetica,sans-Serif" font-size="10.00">/NoRenderer.hpp</text>
</a>
</g>
</g>
<!-- Node4&#45;&gt;Node16 -->
<g id="edge26" class="edge">
<title>Node4&#45;&gt;Node16</title>
<path fill="none" stroke="midnightblue" d="M334.57,-425.4C313.2,-411.9 269.62,-385.57 229.9,-369 195.86,-354.79 156.45,-342.87 124.05,-334.18"/>
<polygon fill="midnightblue" stroke="midnightblue" points="124.8,-330.76 114.24,-331.59 123.01,-337.53 124.8,-330.76"/>
</g>
<!-- Node19 -->
<g id="node19" class="node">
<title>Node19</title>
<g id="a_node19"><a xlink:href="SNES_8hpp.html" target="_top" xlink:title=" ">
<polygon fill="white" stroke="black" points="502.4,-369.5 502.4,-388.5 615.4,-388.5 615.4,-369.5 502.4,-369.5"/>
<text text-anchor="middle" x="558.9" y="-376.5" font-family="Helvetica,sans-Serif" font-size="10.00">../sources/SNES.hpp</text>
</a>
</g>
</g>
<!-- Node4&#45;&gt;Node19 -->
<g id="edge30" class="edge">
<title>Node4&#45;&gt;Node19</title>
<path fill="none" stroke="midnightblue" d="M379.03,-426.03C415.18,-416.78 475.01,-401.47 515.65,-391.07"/>
<polygon fill="midnightblue" stroke="midnightblue" points="516.73,-394.41 525.55,-388.54 514.99,-387.62 516.73,-394.41"/>
</g>
<!-- Node6 -->
<g id="node6" class="node">
<title>Node6</title>
<g id="a_node6"><a xlink:title=" ">
<polygon fill="white" stroke="#bfbfbf" points="418.9,-0.5 418.9,-19.5 468.9,-19.5 468.9,-0.5 418.9,-0.5"/>
<text text-anchor="middle" x="443.9" y="-7.5" font-family="Helvetica,sans-Serif" font-size="10.00">cstdint</text>
</a>
</g>
</g>
<!-- Node5&#45;&gt;Node6 -->
<g id="edge5" class="edge">
<title>Node5&#45;&gt;Node6</title>
<path fill="none" stroke="midnightblue" d="M375.04,-168.47C388.61,-137.44 421.14,-63.05 436.11,-28.81"/>
<polygon fill="midnightblue" stroke="midnightblue" points="439.36,-30.12 440.16,-19.56 432.94,-27.32 439.36,-30.12"/>
</g>
<!-- Node7 -->
<g id="node7" class="node">
<title>Node7</title>
<g id="a_node7"><a xlink:title=" ">
<polygon fill="white" stroke="#bfbfbf" points="563.4,-0.5 563.4,-19.5 610.4,-19.5 610.4,-0.5 563.4,-0.5"/>
<text text-anchor="middle" x="586.9" y="-7.5" font-family="Helvetica,sans-Serif" font-size="10.00">vector</text>
</a>
</g>
</g>
<!-- Node5&#45;&gt;Node7 -->
<g id="edge6" class="edge">
<title>Node5&#45;&gt;Node7</title>
<path fill="none" stroke="midnightblue" d="M386.74,-168.47C427.37,-136.5 526.49,-58.52 568.06,-25.82"/>
<polygon fill="midnightblue" stroke="midnightblue" points="570.32,-28.49 576.02,-19.56 566,-22.99 570.32,-28.49"/>
</g>
<!-- Node8 -->
<g id="node8" class="node">
<title>Node8</title>
<g id="a_node8"><a xlink:title=" ">
<polygon fill="white" stroke="#bfbfbf" points="968.9,-0.5 968.9,-19.5 1026.9,-19.5 1026.9,-0.5 968.9,-0.5"/>
<text text-anchor="middle" x="997.9" y="-7.5" font-family="Helvetica,sans-Serif" font-size="10.00">memory</text>
</a>
</g>
</g>
<!-- Node5&#45;&gt;Node8 -->
<g id="edge7" class="edge">
<title>Node5&#45;&gt;Node8</title>
<path fill="none" stroke="midnightblue" d="M397.37,-168.36C430.57,-152.43 487.48,-126.82 538.9,-112 630.73,-85.53 657.66,-96.99 750.9,-76 782.88,-68.8 790.24,-64.51 821.9,-56 868.89,-43.38 923.16,-29.63 958.87,-20.69"/>
<polygon fill="midnightblue" stroke="midnightblue" points="960.03,-24.01 968.88,-18.19 958.33,-17.22 960.03,-24.01"/>
</g>
<!-- Node9 -->
<g id="node9" class="node">
<title>Node9</title>
<g id="a_node9"><a xlink:href="AMemory_8hpp.html" target="_top" xlink:title=" ">
<polygon fill="white" stroke="black" points="646.4,-112.5 646.4,-131.5 729.4,-131.5 729.4,-112.5 646.4,-112.5"/>
<text text-anchor="middle" x="687.9" y="-119.5" font-family="Helvetica,sans-Serif" font-size="10.00">AMemory.hpp</text>
</a>
</g>
</g>
<!-- Node5&#45;&gt;Node9 -->
<g id="edge8" class="edge">
<title>Node5&#45;&gt;Node9</title>
<path fill="none" stroke="midnightblue" d="M444.09,-168.47C503.33,-157.43 584.33,-142.32 636.39,-132.61"/>
<polygon fill="midnightblue" stroke="midnightblue" points="637.21,-136.02 646.4,-130.74 635.93,-129.13 637.21,-136.02"/>
</g>
<!-- Node9&#45;&gt;Node6 -->
<g id="edge9" class="edge">
<title>Node9&#45;&gt;Node6</title>
<path fill="none" stroke="midnightblue" d="M668.75,-112.37C625.99,-93.09 522.54,-46.45 472.27,-23.79"/>
<polygon fill="midnightblue" stroke="midnightblue" points="473.51,-20.51 462.96,-19.59 470.64,-26.89 473.51,-20.51"/>
</g>
<!-- Node9&#45;&gt;Node7 -->
<g id="edge10" class="edge">
<title>Node9&#45;&gt;Node7</title>
<path fill="none" stroke="midnightblue" d="M679.97,-112.37C663.09,-93.97 623.33,-50.67 601.64,-27.05"/>
<polygon fill="midnightblue" stroke="midnightblue" points="604.13,-24.59 594.79,-19.59 598.97,-29.32 604.13,-24.59"/>
</g>
<!-- Node9&#45;&gt;Node8 -->
<g id="edge11" class="edge">
<title>Node9&#45;&gt;Node8</title>
<path fill="none" stroke="midnightblue" d="M714.17,-112.43C741.24,-103.55 784.64,-89.13 821.9,-76 872.37,-58.21 930.54,-36.49 965.75,-23.2"/>
<polygon fill="midnightblue" stroke="midnightblue" points="967.36,-26.34 975.47,-19.53 964.88,-19.79 967.36,-26.34"/>
</g>
<!-- Node10 -->
<g id="node10" class="node">
<title>Node10</title>
<g id="a_node10"><a xlink:title=" ">
<polygon fill="white" stroke="#bfbfbf" points="827.9,-0.5 827.9,-19.5 871.9,-19.5 871.9,-0.5 827.9,-0.5"/>
<text text-anchor="middle" x="849.9" y="-7.5" font-family="Helvetica,sans-Serif" font-size="10.00">string</text>
</a>
</g>
</g>
<!-- Node9&#45;&gt;Node10 -->
<g id="edge12" class="edge">
<title>Node9&#45;&gt;Node10</title>
<path fill="none" stroke="midnightblue" d="M700.61,-112.37C728.41,-93.49 794.84,-48.38 828.93,-25.24"/>
<polygon fill="midnightblue" stroke="midnightblue" points="830.94,-28.1 837.25,-19.59 827.01,-22.31 830.94,-28.1"/>
</g>
<!-- Node11 -->
<g id="node11" class="node">
<title>Node11</title>
<g id="a_node11"><a xlink:href="Int24_8hpp.html" target="_top" xlink:title=" ">
<polygon fill="white" stroke="black" points="1248.9,-0.5 1248.9,-19.5 1358.9,-19.5 1358.9,-0.5 1248.9,-0.5"/>
<text text-anchor="middle" x="1303.9" y="-7.5" font-family="Helvetica,sans-Serif" font-size="10.00">../Models/Int24.hpp</text>
</a>
</g>
</g>
<!-- Node9&#45;&gt;Node11 -->
<g id="edge13" class="edge">
<title>Node9&#45;&gt;Node11</title>
<path fill="none" stroke="midnightblue" d="M729.76,-113.53C837.22,-94.34 1123.02,-43.3 1246.14,-21.31"/>
<polygon fill="midnightblue" stroke="midnightblue" points="1246.9,-24.73 1256.13,-19.53 1245.67,-17.84 1246.9,-24.73"/>
</g>
<!-- Node12 -->
<g id="node12" class="node">
<title>Node12</title>
<g id="a_node12"><a xlink:href="Components_8hpp.html" target="_top" xlink:title=" ">
<polygon fill="white" stroke="black" points="628.9,-0.5 628.9,-19.5 774.9,-19.5 774.9,-0.5 628.9,-0.5"/>
<text text-anchor="middle" x="701.9" y="-7.5" font-family="Helvetica,sans-Serif" font-size="10.00">../Models/Components.hpp</text>
</a>
</g>
</g>
<!-- Node9&#45;&gt;Node12 -->
<g id="edge14" class="edge">
<title>Node9&#45;&gt;Node12</title>
<path fill="none" stroke="midnightblue" d="M677.58,-112.39C664.23,-100.15 643.72,-76.89 652.9,-56 658.29,-43.73 668.86,-33.34 678.8,-25.65"/>
<polygon fill="midnightblue" stroke="midnightblue" points="681.15,-28.27 687.24,-19.6 677.07,-22.58 681.15,-28.27"/>
</g>
<!-- Node13 -->
<g id="node13" class="node">
<title>Node13</title>
<g id="a_node13"><a xlink:href="IMemory_8hpp.html" target="_top" xlink:title=" ">
<polygon fill="white" stroke="black" points="661.9,-56.5 661.9,-75.5 741.9,-75.5 741.9,-56.5 661.9,-56.5"/>
<text text-anchor="middle" x="701.9" y="-63.5" font-family="Helvetica,sans-Serif" font-size="10.00">IMemory.hpp</text>
</a>
</g>
</g>
<!-- Node9&#45;&gt;Node13 -->
<g id="edge15" class="edge">
<title>Node9&#45;&gt;Node13</title>
<path fill="none" stroke="midnightblue" d="M690.21,-112.08C692.07,-104.93 694.74,-94.64 697.05,-85.69"/>
<polygon fill="midnightblue" stroke="midnightblue" points="700.51,-86.31 699.63,-75.75 693.73,-84.55 700.51,-86.31"/>
</g>
<!-- Node13&#45;&gt;Node6 -->
<g id="edge16" class="edge">
<title>Node13&#45;&gt;Node6</title>
<path fill="none" stroke="midnightblue" d="M661.87,-56.62C611.76,-46.13 526.74,-28.34 479.04,-18.35"/>
<polygon fill="midnightblue" stroke="midnightblue" points="479.67,-14.91 469.17,-16.29 478.24,-21.76 479.67,-14.91"/>
</g>
<!-- Node13&#45;&gt;Node7 -->
<g id="edge17" class="edge">
<title>Node13&#45;&gt;Node7</title>
<path fill="none" stroke="midnightblue" d="M683.68,-56.44C665,-47.68 635.74,-33.94 614.28,-23.86"/>
<polygon fill="midnightblue" stroke="midnightblue" points="615.58,-20.6 605.04,-19.52 612.6,-26.93 615.58,-20.6"/>
</g>
<!-- Node13&#45;&gt;Node8 -->
<g id="edge18" class="edge">
<title>Node13&#45;&gt;Node8</title>
<path fill="none" stroke="midnightblue" d="M742.13,-57.66C798.97,-47.29 902.15,-28.47 958.52,-18.18"/>
<polygon fill="midnightblue" stroke="midnightblue" points="959.27,-21.6 968.48,-16.37 958.02,-14.72 959.27,-21.6"/>
</g>
<!-- Node13&#45;&gt;Node10 -->
<g id="edge19" class="edge">
<title>Node13&#45;&gt;Node10</title>
<path fill="none" stroke="midnightblue" d="M725.35,-56.44C750.32,-47.33 790.01,-32.85 817.85,-22.69"/>
<polygon fill="midnightblue" stroke="midnightblue" points="819.33,-25.88 827.53,-19.16 816.93,-19.3 819.33,-25.88"/>
</g>
<!-- Node13&#45;&gt;Node11 -->
<g id="edge20" class="edge">
<title>Node13&#45;&gt;Node11</title>
<path fill="none" stroke="midnightblue" d="M742.33,-61.37C844.52,-52.21 1113.82,-28.05 1238.66,-16.85"/>
<polygon fill="midnightblue" stroke="midnightblue" points="1239.19,-20.32 1248.83,-15.94 1238.56,-13.35 1239.19,-20.32"/>
</g>
<!-- Node13&#45;&gt;Node12 -->
<g id="edge21" class="edge">
<title>Node13&#45;&gt;Node12</title>
<path fill="none" stroke="midnightblue" d="M701.9,-56.08C701.9,-49.01 701.9,-38.86 701.9,-29.99"/>
<polygon fill="midnightblue" stroke="midnightblue" points="705.4,-29.75 701.9,-19.75 698.4,-29.75 705.4,-29.75"/>
</g>
<!-- Node17 -->
<g id="node17" class="node">
<title>Node17</title>
<g id="a_node17"><a xlink:href="IRenderer_8hpp.html" target="_top" xlink:title=" ">
<polygon fill="white" stroke="black" points="13.9,-174 13.9,-193 97.9,-193 97.9,-174 13.9,-174"/>
<text text-anchor="middle" x="55.9" y="-181" font-family="Helvetica,sans-Serif" font-size="10.00">IRenderer.hpp</text>
</a>
</g>
</g>
<!-- Node16&#45;&gt;Node17 -->
<g id="edge27" class="edge">
<title>Node16&#45;&gt;Node17</title>
<path fill="none" stroke="midnightblue" d="M58.58,-302.37C58.04,-278.5 56.94,-230.18 56.33,-203.41"/>
<polygon fill="midnightblue" stroke="midnightblue" points="59.82,-203.02 56.1,-193.1 52.82,-203.17 59.82,-203.02"/>
</g>
<!-- Node17&#45;&gt;Node10 -->
<g id="edge28" class="edge">
<title>Node17&#45;&gt;Node10</title>
<path fill="none" stroke="midnightblue" d="M83.81,-173.94C91.27,-171.82 99.35,-169.68 106.9,-168 203.6,-146.42 229.71,-151.26 326.9,-132 472.84,-103.08 507.94,-89.45 652.9,-56 710.86,-42.62 778.47,-27.23 817.51,-18.35"/>
<polygon fill="midnightblue" stroke="midnightblue" points="818.76,-21.66 827.73,-16.03 817.21,-14.83 818.76,-21.66"/>
</g>
<!-- Node18 -->
<g id="node18" class="node">
<title>Node18</title>
<g id="a_node18"><a xlink:title=" ">
<polygon fill="white" stroke="#bfbfbf" points="35.9,-112.5 35.9,-131.5 75.9,-131.5 75.9,-112.5 35.9,-112.5"/>
<text text-anchor="middle" x="55.9" y="-119.5" font-family="Helvetica,sans-Serif" font-size="10.00">span</text>
</a>
</g>
</g>
<!-- Node17&#45;&gt;Node18 -->
<g id="edge29" class="edge">
<title>Node17&#45;&gt;Node18</title>
<path fill="none" stroke="midnightblue" d="M55.9,-173.98C55.9,-165.58 55.9,-152.48 55.9,-141.66"/>
<polygon fill="midnightblue" stroke="midnightblue" points="59.4,-141.51 55.9,-131.51 52.4,-141.51 59.4,-141.51"/>
</g>
<!-- Node19&#45;&gt;Node5 -->
<g id="edge31" class="edge">
<title>Node19&#45;&gt;Node5</title>
<path fill="none" stroke="midnightblue" d="M557.97,-369.34C554.8,-344.34 542.09,-271.49 498.9,-235 481.5,-220.3 459.33,-209.58 438.24,-201.91"/>
<polygon fill="midnightblue" stroke="midnightblue" points="439.25,-198.55 428.65,-198.59 436.96,-205.17 439.25,-198.55"/>
</g>
<!-- Node19&#45;&gt;Node17 -->
<g id="edge76" class="edge">
<title>Node19&#45;&gt;Node17</title>
<path fill="none" stroke="midnightblue" d="M502.34,-371.22C434.15,-362.62 323.86,-347.18 284.9,-333 230.03,-313.03 220.93,-297.7 171.9,-266 137.41,-243.71 98.6,-215.85 75.76,-199.16"/>
<polygon fill="midnightblue" stroke="midnightblue" points="77.68,-196.23 67.55,-193.14 73.54,-201.87 77.68,-196.23"/>
</g>
<!-- Node20 -->
<g id="node20" class="node">
<title>Node20</title>
<g id="a_node20"><a xlink:href="CPU_8hpp.html" target="_top" xlink:title=" ">
<polygon fill="white" stroke="black" points="804.4,-308 804.4,-327 885.4,-327 885.4,-308 804.4,-308"/>
<text text-anchor="middle" x="844.9" y="-315" font-family="Helvetica,sans-Serif" font-size="10.00">CPU/CPU.hpp</text>
</a>
</g>
</g>
<!-- Node19&#45;&gt;Node20 -->
<g id="edge32" class="edge">
<title>Node19&#45;&gt;Node20</title>
<path fill="none" stroke="midnightblue" d="M599.88,-369.48C651.06,-358.83 738.63,-340.61 794.04,-329.08"/>
<polygon fill="midnightblue" stroke="midnightblue" points="794.92,-332.47 804,-327.01 793.5,-325.62 794.92,-332.47"/>
</g>
<!-- Node21 -->
<g id="node21" class="node">
<title>Node21</title>
<g id="a_node21"><a xlink:href="Cartridge_8hpp.html" target="_top" xlink:title=" ">
<polygon fill="white" stroke="black" points="907.9,-241 907.9,-260 1047.9,-260 1047.9,-241 907.9,-241"/>
<text text-anchor="middle" x="977.9" y="-248" font-family="Helvetica,sans-Serif" font-size="10.00">../Cartridge/Cartridge.hpp</text>
</a>
</g>
</g>
<!-- Node19&#45;&gt;Node21 -->
<g id="edge54" class="edge">
<title>Node19&#45;&gt;Node21</title>
<path fill="none" stroke="midnightblue" d="M615.67,-374.67C698.03,-369.12 846.06,-356.22 893.9,-333 924.67,-318.06 951.3,-287.53 965.92,-268.37"/>
<polygon fill="midnightblue" stroke="midnightblue" points="968.81,-270.35 971.94,-260.23 963.18,-266.19 968.81,-270.35"/>
</g>
<!-- Node24 -->
<g id="node24" class="node">
<title>Node24</title>
<g id="a_node24"><a xlink:href="Ram_8hpp.html" target="_top" xlink:title=" ">
<polygon fill="white" stroke="black" points="683.4,-174 683.4,-193 778.4,-193 778.4,-174 683.4,-174"/>
<text text-anchor="middle" x="730.9" y="-181" font-family="Helvetica,sans-Serif" font-size="10.00">../Ram/Ram.hpp</text>
</a>
</g>
</g>
<!-- Node19&#45;&gt;Node24 -->
<g id="edge55" class="edge">
<title>Node19&#45;&gt;Node24</title>
<path fill="none" stroke="midnightblue" d="M568.31,-369.39C578.19,-360.35 594.16,-345.7 607.9,-333 640,-303.33 652.07,-299.71 679.9,-266 696.78,-245.56 712.35,-219.11 721.73,-201.98"/>
<polygon fill="midnightblue" stroke="midnightblue" points="724.86,-203.55 726.5,-193.08 718.69,-200.24 724.86,-203.55"/>
</g>
<!-- Node27 -->
<g id="node27" class="node">
<title>Node27</title>
<g id="a_node27"><a xlink:href="PPU_8hpp.html" target="_top" xlink:title=" ">
<polygon fill="white" stroke="black" points="180.9,-241 180.9,-260 260.9,-260 260.9,-241 180.9,-241"/>
<text text-anchor="middle" x="220.9" y="-248" font-family="Helvetica,sans-Serif" font-size="10.00">PPU/PPU.hpp</text>
</a>
</g>
</g>
<!-- Node19&#45;&gt;Node27 -->
<g id="edge56" class="edge">
<title>Node19&#45;&gt;Node27</title>
<path fill="none" stroke="midnightblue" d="M502.05,-371.79C458.14,-365.64 396.53,-353.99 345.9,-333 304.73,-315.93 262.45,-285 239.14,-266.55"/>
<polygon fill="midnightblue" stroke="midnightblue" points="241.16,-263.68 231.17,-260.14 236.77,-269.13 241.16,-263.68"/>
</g>
<!-- Node31 -->
<g id="node31" class="node">
<title>Node31</title>
<g id="a_node31"><a xlink:href="APU_8hpp.html" target="_top" xlink:title=" ">
<polygon fill="white" stroke="black" points="590.4,-241 590.4,-260 671.4,-260 671.4,-241 590.4,-241"/>
<text text-anchor="middle" x="630.9" y="-248" font-family="Helvetica,sans-Serif" font-size="10.00">APU/APU.hpp</text>
</a>
</g>
</g>
<!-- Node19&#45;&gt;Node31 -->
<g id="edge65" class="edge">
<title>Node19&#45;&gt;Node31</title>
<path fill="none" stroke="midnightblue" d="M563.85,-369.31C575.56,-348.72 605.18,-296.69 620.84,-269.18"/>
<polygon fill="midnightblue" stroke="midnightblue" points="624.01,-270.68 625.92,-260.26 617.93,-267.22 624.01,-270.68"/>
</g>
<!-- Node35 -->
<g id="node35" class="node">
<title>Node35</title>
<g id="a_node35"><a xlink:href="DebuggableError_8hpp.html" target="_top" xlink:title=" ">
<polygon fill="white" stroke="black" points="355.4,-308 355.4,-327 530.4,-327 530.4,-308 355.4,-308"/>
<text text-anchor="middle" x="442.9" y="-315" font-family="Helvetica,sans-Serif" font-size="10.00">Exceptions/DebuggableError.hpp</text>
</a>
</g>
</g>
<!-- Node19&#45;&gt;Node35 -->
<g id="edge77" class="edge">
<title>Node19&#45;&gt;Node35</title>
<path fill="none" stroke="midnightblue" d="M542.28,-369.48C522.98,-359.58 490.94,-343.14 468.47,-331.62"/>
<polygon fill="midnightblue" stroke="midnightblue" points="469.98,-328.46 459.49,-327.01 466.79,-334.69 469.98,-328.46"/>
</g>
<!-- Node20&#45;&gt;Node5 -->
<g id="edge34" class="edge">
<title>Node20&#45;&gt;Node5</title>
<path fill="none" stroke="midnightblue" d="M803.95,-314.16C750.63,-309.91 655.47,-298.13 580.9,-266 559.26,-256.68 559.04,-245.41 537.9,-235 508.53,-220.54 474.21,-209.35 444.21,-201.22"/>
<polygon fill="midnightblue" stroke="midnightblue" points="444.77,-197.75 434.21,-198.58 442.98,-204.52 444.77,-197.75"/>
</g>
<!-- Node20&#45;&gt;Node9 -->
<g id="edge33" class="edge">
<title>Node20&#45;&gt;Node9</title>
<path fill="none" stroke="midnightblue" d="M846.29,-307.89C849.78,-282.97 856.33,-209.86 820.9,-168 800.84,-144.3 767.83,-133.05 739.71,-127.72"/>
<polygon fill="midnightblue" stroke="midnightblue" points="740.04,-124.23 729.6,-126.01 738.88,-131.13 740.04,-124.23"/>
</g>
<!-- Node20&#45;&gt;Node11 -->
<g id="edge35" class="edge">
<title>Node20&#45;&gt;Node11</title>
<path fill="none" stroke="midnightblue" d="M885.64,-315.49C998.46,-312.27 1313.03,-300.37 1409.9,-266 1471.01,-244.32 1530.9,-249.34 1530.9,-184.5 1530.9,-184.5 1530.9,-184.5 1530.9,-121 1530.9,-48.62 1436.3,-23.85 1369.23,-15.38"/>
<polygon fill="midnightblue" stroke="midnightblue" points="1369.48,-11.89 1359.14,-14.2 1368.67,-18.84 1369.48,-11.89"/>
</g>
<!-- Node20&#45;&gt;Node21 -->
<g id="edge36" class="edge">
<title>Node20&#45;&gt;Node21</title>
<path fill="none" stroke="midnightblue" d="M862.56,-307.87C885.22,-296.8 924.73,-277.49 951.1,-264.6"/>
<polygon fill="midnightblue" stroke="midnightblue" points="952.72,-267.7 960.17,-260.17 949.64,-261.41 952.72,-267.7"/>
</g>
<!-- Node25 -->
<g id="node25" class="node">
<title>Node25</title>
<g id="a_node25"><a xlink:href="Instruction_8hpp.html" target="_top" xlink:title=" ">
<polygon fill="white" stroke="black" points="1223.4,-56.5 1223.4,-75.5 1312.4,-75.5 1312.4,-56.5 1223.4,-56.5"/>
<text text-anchor="middle" x="1267.9" y="-63.5" font-family="Helvetica,sans-Serif" font-size="10.00">Instruction.hpp</text>
</a>
</g>
</g>
<!-- Node20&#45;&gt;Node25 -->
<g id="edge46" class="edge">
<title>Node20&#45;&gt;Node25</title>
<path fill="none" stroke="midnightblue" d="M885.44,-315.81C1005.84,-313.36 1355.12,-303.07 1388.9,-266 1444.04,-205.5 1336.29,-116.23 1288.81,-81.54"/>
<polygon fill="midnightblue" stroke="midnightblue" points="1290.6,-78.52 1280.43,-75.53 1286.52,-84.2 1290.6,-78.52"/>
</g>
<!-- Node26 -->
<g id="node26" class="node">
<title>Node26</title>
<g id="a_node26"><a xlink:href="DMA_8hpp.html" target="_top" xlink:title=" ">
<polygon fill="white" stroke="black" points="729.4,-241 729.4,-260 816.4,-260 816.4,-241 729.4,-241"/>
<text text-anchor="middle" x="772.9" y="-248" font-family="Helvetica,sans-Serif" font-size="10.00">DMA/DMA.hpp</text>
</a>
</g>
</g>
<!-- Node20&#45;&gt;Node26 -->
<g id="edge49" class="edge">
<title>Node20&#45;&gt;Node26</title>
<path fill="none" stroke="midnightblue" d="M835.19,-307.73C823.64,-297.31 804.15,-279.71 790.04,-266.97"/>
<polygon fill="midnightblue" stroke="midnightblue" points="792.22,-264.23 782.46,-260.13 787.53,-269.43 792.22,-264.23"/>
</g>
<!-- Node21&#45;&gt;Node9 -->
<g id="edge38" class="edge">
<title>Node21&#45;&gt;Node9</title>
<path fill="none" stroke="midnightblue" d="M967.81,-240.77C948.17,-224.21 902.85,-188.1 858.9,-168 820.66,-150.51 774.38,-138.86 739.62,-131.8"/>
<polygon fill="midnightblue" stroke="midnightblue" points="740.17,-128.34 729.68,-129.84 738.82,-135.21 740.17,-128.34"/>
</g>
<!-- Node21&#45;&gt;Node10 -->
<g id="edge37" class="edge">
<title>Node21&#45;&gt;Node10</title>
<path fill="none" stroke="midnightblue" d="M984.66,-240.91C1001.45,-218.43 1042.01,-156.52 1016.9,-112 988.04,-60.82 921.66,-32.63 881.82,-19.77"/>
<polygon fill="midnightblue" stroke="midnightblue" points="882.65,-16.37 872.07,-16.76 880.59,-23.06 882.65,-16.37"/>
</g>
<!-- Node21&#45;&gt;Node11 -->
<g id="edge39" class="edge">
<title>Node21&#45;&gt;Node11</title>
<path fill="none" stroke="midnightblue" d="M1047.95,-245.04C1151.41,-237.73 1335.03,-221.71 1354.9,-199 1396.75,-151.17 1381.04,-113.93 1354.9,-56 1349.28,-43.56 1338.34,-33.17 1328.02,-25.53"/>
<polygon fill="midnightblue" stroke="midnightblue" points="1329.86,-22.54 1319.63,-19.76 1325.89,-28.31 1329.86,-22.54"/>
</g>
<!-- Node22 -->
<g id="node22" class="node">
<title>Node22</title>
<g id="a_node22"><a xlink:href="ARectangleMemory_8hpp.html" target="_top" xlink:title=" ">
<polygon fill="white" stroke="black" points="823.4,-112.5 823.4,-131.5 1008.4,-131.5 1008.4,-112.5 823.4,-112.5"/>
<text text-anchor="middle" x="915.9" y="-119.5" font-family="Helvetica,sans-Serif" font-size="10.00">../Memory/ARectangleMemory.hpp</text>
</a>
</g>
</g>
<!-- Node21&#45;&gt;Node22 -->
<g id="edge40" class="edge">
<title>Node21&#45;&gt;Node22</title>
<path fill="none" stroke="midnightblue" d="M979.56,-240.8C982.09,-225.2 985.38,-191.87 972.9,-168 966.06,-154.91 953.54,-144.38 941.98,-136.8"/>
<polygon fill="midnightblue" stroke="midnightblue" points="943.79,-133.81 933.43,-131.59 940.15,-139.79 943.79,-133.81"/>
</g>
<!-- Node23 -->
<g id="node23" class="node">
<title>Node23</title>
<g id="a_node23"><a xlink:href="InterruptVectors_8hpp.html" target="_top" xlink:title=" ">
<polygon fill="white" stroke="black" points="1062.9,-174 1062.9,-193 1178.9,-193 1178.9,-174 1062.9,-174"/>
<text text-anchor="middle" x="1120.9" y="-181" font-family="Helvetica,sans-Serif" font-size="10.00">InterruptVectors.hpp</text>
</a>
</g>
</g>
<!-- Node21&#45;&gt;Node23 -->
<g id="edge42" class="edge">
<title>Node21&#45;&gt;Node23</title>
<path fill="none" stroke="midnightblue" d="M996.89,-240.87C1021.36,-229.75 1064.1,-210.32 1092.46,-197.43"/>
<polygon fill="midnightblue" stroke="midnightblue" points="1094.18,-200.49 1101.83,-193.17 1091.28,-194.12 1094.18,-200.49"/>
</g>
<!-- Node21&#45;&gt;Node24 -->
<g id="edge43" class="edge">
<title>Node21&#45;&gt;Node24</title>
<path fill="none" stroke="midnightblue" d="M945.36,-240.94C901.21,-229.32 822.26,-208.54 773.45,-195.7"/>
<polygon fill="midnightblue" stroke="midnightblue" points="774.08,-192.24 763.52,-193.08 772.3,-199.01 774.08,-192.24"/>
</g>
<!-- Node22&#45;&gt;Node13 -->
<g id="edge41" class="edge">
<title>Node22&#45;&gt;Node13</title>
<path fill="none" stroke="midnightblue" d="M881.99,-112.44C845.05,-103.12 785.85,-88.18 745.48,-78"/>
<polygon fill="midnightblue" stroke="midnightblue" points="746.2,-74.57 735.65,-75.52 744.49,-81.36 746.2,-74.57"/>
</g>
<!-- Node24&#45;&gt;Node10 -->
<g id="edge45" class="edge">
<title>Node24&#45;&gt;Node10</title>
<path fill="none" stroke="midnightblue" d="M736.96,-173.76C755.75,-146.69 813.18,-63.91 838.13,-27.96"/>
<polygon fill="midnightblue" stroke="midnightblue" points="841.16,-29.73 843.99,-19.52 835.41,-25.74 841.16,-29.73"/>
</g>
<!-- Node24&#45;&gt;Node22 -->
<g id="edge44" class="edge">
<title>Node24&#45;&gt;Node22</title>
<path fill="none" stroke="midnightblue" d="M757.41,-173.98C789.55,-163.64 843.89,-146.16 879.83,-134.6"/>
<polygon fill="midnightblue" stroke="midnightblue" points="881,-137.9 889.44,-131.51 878.85,-131.24 881,-137.9"/>
</g>
<!-- Node25&#45;&gt;Node10 -->
<g id="edge47" class="edge">
<title>Node25&#45;&gt;Node10</title>
<path fill="none" stroke="midnightblue" d="M1223.17,-59.22C1138.46,-48.28 956.48,-24.77 882.34,-15.19"/>
<polygon fill="midnightblue" stroke="midnightblue" points="882.57,-11.69 872.21,-13.88 881.68,-18.63 882.57,-11.69"/>
</g>
<!-- Node25&#45;&gt;Node11 -->
<g id="edge48" class="edge">
<title>Node25&#45;&gt;Node11</title>
<path fill="none" stroke="midnightblue" d="M1273.84,-56.08C1278.88,-48.53 1286.24,-37.49 1292.41,-28.23"/>
<polygon fill="midnightblue" stroke="midnightblue" points="1295.43,-30.01 1298.07,-19.75 1289.61,-26.13 1295.43,-30.01"/>
</g>
<!-- Node26&#45;&gt;Node5 -->
<g id="edge53" class="edge">
<title>Node26&#45;&gt;Node5</title>
<path fill="none" stroke="midnightblue" d="M729.39,-242.71C658.56,-231.65 520.32,-210.01 454,-199.16"/>
<polygon fill="midnightblue" stroke="midnightblue" points="454.43,-195.69 444,-197.52 453.3,-202.59 454.43,-195.69"/>
</g>
<!-- Node26&#45;&gt;Node6 -->
<g id="edge50" class="edge">
<title>Node26&#45;&gt;Node6</title>
<path fill="none" stroke="midnightblue" d="M778.29,-240.82C787.56,-224.67 803.97,-189.65 786.9,-168 744.45,-114.16 700.52,-157.55 636.9,-132 613.98,-122.8 561.84,-89.1 540.9,-76 514.2,-59.29 484.17,-38.92 464.7,-25.48"/>
<polygon fill="midnightblue" stroke="midnightblue" points="466.51,-22.48 456.29,-19.67 462.52,-28.24 466.51,-22.48"/>
</g>
<!-- Node26&#45;&gt;Node8 -->
<g id="edge51" class="edge">
<title>Node26&#45;&gt;Node8</title>
<path fill="none" stroke="midnightblue" d="M816.72,-243.25C874.82,-232.3 974.89,-203.57 1016.9,-132 1036.11,-99.28 1019.31,-53.39 1007.37,-28.59"/>
<polygon fill="midnightblue" stroke="midnightblue" points="1010.47,-26.96 1002.82,-19.62 1004.22,-30.13 1010.47,-26.96"/>
</g>
<!-- Node26&#45;&gt;Node11 -->
<g id="edge52" class="edge">
<title>Node26&#45;&gt;Node11</title>
<path fill="none" stroke="midnightblue" d="M816.6,-244.15C840.83,-241.26 871.51,-237.74 898.9,-235 945.84,-230.3 1289.99,-233.74 1321.9,-199 1365.69,-151.32 1331.23,-65.36 1313.17,-28.53"/>
<polygon fill="midnightblue" stroke="midnightblue" points="1316.24,-26.84 1308.59,-19.51 1310,-30.02 1316.24,-26.84"/>
</g>
<!-- Node27&#45;&gt;Node5 -->
<g id="edge59" class="edge">
<title>Node27&#45;&gt;Node5</title>
<path fill="none" stroke="midnightblue" d="M240.55,-240.87C262.67,-231.16 299.21,-215.11 327.65,-202.61"/>
<polygon fill="midnightblue" stroke="midnightblue" points="329.21,-205.75 336.96,-198.53 326.4,-199.34 329.21,-205.75"/>
</g>
<!-- Node27&#45;&gt;Node6 -->
<g id="edge57" class="edge">
<title>Node27&#45;&gt;Node6</title>
<path fill="none" stroke="midnightblue" d="M180.79,-245.97C124.48,-240.09 26.44,-226.16 4.9,-199 -13.12,-176.28 26.29,-112.53 26.9,-112 84.69,-61.62 319.16,-26.96 408.81,-15.31"/>
<polygon fill="midnightblue" stroke="midnightblue" points="409.29,-18.78 418.76,-14.03 408.4,-11.83 409.29,-18.78"/>
</g>
<!-- Node27&#45;&gt;Node9 -->
<g id="edge58" class="edge">
<title>Node27&#45;&gt;Node9</title>
<path fill="none" stroke="midnightblue" d="M224.72,-241C232.94,-223.82 254.09,-185.16 284.9,-168 292.5,-163.77 528.63,-139.24 635.85,-128.29"/>
<polygon fill="midnightblue" stroke="midnightblue" points="636.52,-131.73 646.12,-127.24 635.81,-124.77 636.52,-131.73"/>
</g>
<!-- Node27&#45;&gt;Node17 -->
<g id="edge60" class="edge">
<title>Node27&#45;&gt;Node17</title>
<path fill="none" stroke="midnightblue" d="M198.99,-240.87C170.31,-229.57 119.86,-209.7 87.17,-196.82"/>
<polygon fill="midnightblue" stroke="midnightblue" points="88.23,-193.47 77.64,-193.06 85.66,-199.99 88.23,-193.47"/>
</g>
<!-- Node27&#45;&gt;Node24 -->
<g id="edge61" class="edge">
<title>Node27&#45;&gt;Node24</title>
<path fill="none" stroke="midnightblue" d="M260.95,-245.75C356.33,-236.71 594.88,-213.38 673.9,-199 679.36,-198.01 685.08,-196.78 690.69,-195.46"/>
<polygon fill="midnightblue" stroke="midnightblue" points="691.72,-198.81 700.6,-193.03 690.06,-192.02 691.72,-198.81"/>
</g>
<!-- Node28 -->
<g id="node28" class="node">
<title>Node28</title>
<g id="a_node28"><a xlink:href="Vector2_8hpp.html" target="_top" xlink:title=" ">
<polygon fill="white" stroke="black" points="115.9,-174 115.9,-193 237.9,-193 237.9,-174 115.9,-174"/>
<text text-anchor="middle" x="176.9" y="-181" font-family="Helvetica,sans-Serif" font-size="10.00">../Models/Vector2.hpp</text>
</a>
</g>
</g>
<!-- Node27&#45;&gt;Node28 -->
<g id="edge62" class="edge">
<title>Node27&#45;&gt;Node28</title>
<path fill="none" stroke="midnightblue" d="M214.97,-240.73C208.17,-230.7 196.88,-214.01 188.35,-201.42"/>
<polygon fill="midnightblue" stroke="midnightblue" points="191.24,-199.45 182.74,-193.13 185.45,-203.37 191.24,-199.45"/>
</g>
<!-- Node29 -->
<g id="node29" class="node">
<title>Node29</title>
<g id="a_node29"><a xlink:title=" ">
<polygon fill="white" stroke="#bfbfbf" points="261.4,-112.5 261.4,-131.5 318.4,-131.5 318.4,-112.5 261.4,-112.5"/>
<text text-anchor="middle" x="289.9" y="-119.5" font-family="Helvetica,sans-Serif" font-size="10.00">ostream</text>
</a>
</g>
</g>
<!-- Node28&#45;&gt;Node29 -->
<g id="edge63" class="edge">
<title>Node28&#45;&gt;Node29</title>
<path fill="none" stroke="midnightblue" d="M193.09,-173.98C211.8,-164.12 242.82,-147.79 264.7,-136.27"/>
<polygon fill="midnightblue" stroke="midnightblue" points="266.52,-139.27 273.74,-131.51 263.26,-133.07 266.52,-139.27"/>
</g>
<!-- Node30 -->
<g id="node30" class="node">
<title>Node30</title>
<g id="a_node30"><a xlink:title=" ">
<polygon fill="white" stroke="#bfbfbf" points="100.4,-112.5 100.4,-131.5 243.4,-131.5 243.4,-112.5 100.4,-112.5"/>
<text text-anchor="middle" x="171.9" y="-119.5" font-family="Helvetica,sans-Serif" font-size="10.00">SFML/System/Vector2.hpp</text>
</a>
</g>
</g>
<!-- Node28&#45;&gt;Node30 -->
<g id="edge64" class="edge">
<title>Node28&#45;&gt;Node30</title>
<path fill="none" stroke="midnightblue" d="M176.18,-173.98C175.48,-165.58 174.38,-152.48 173.47,-141.66"/>
<polygon fill="midnightblue" stroke="midnightblue" points="176.94,-141.18 172.62,-131.51 169.96,-141.77 176.94,-141.18"/>
</g>
<!-- Node31&#45;&gt;Node8 -->
<g id="edge66" class="edge">
<title>Node31&#45;&gt;Node8</title>
<path fill="none" stroke="midnightblue" d="M670.84,-240.94C711.39,-231.5 770.46,-215.47 786.9,-199 815.6,-170.25 789.08,-143.36 814.9,-112 852.92,-65.84 917.82,-37.26 959.24,-22.75"/>
<polygon fill="midnightblue" stroke="midnightblue" points="960.38,-26.06 968.72,-19.53 958.13,-19.43 960.38,-26.06"/>
</g>
<!-- Node31&#45;&gt;Node9 -->
<g id="edge71" class="edge">
<title>Node31&#45;&gt;Node9</title>
<path fill="none" stroke="midnightblue" d="M620.04,-240.91C602.22,-225.76 570.35,-193.49 586.9,-168 598.07,-150.79 617.52,-140.11 636.38,-133.5"/>
<polygon fill="midnightblue" stroke="midnightblue" points="637.67,-136.77 646.15,-130.41 635.56,-130.09 637.67,-136.77"/>
</g>
<!-- Node31&#45;&gt;Node17 -->
<g id="edge75" class="edge">
<title>Node31&#45;&gt;Node17</title>
<path fill="none" stroke="midnightblue" d="M590.19,-244.84C564.1,-241.9 529.52,-238.09 498.9,-235 324.83,-217.45 278.89,-231.06 106.9,-199 102.12,-198.11 97.14,-196.97 92.24,-195.72"/>
<polygon fill="midnightblue" stroke="midnightblue" points="92.98,-192.29 82.41,-193.04 91.14,-199.05 92.98,-192.29"/>
</g>
<!-- Node31&#45;&gt;Node24 -->
<g id="edge72" class="edge">
<title>Node31&#45;&gt;Node24</title>
<path fill="none" stroke="midnightblue" d="M644.39,-240.73C660.95,-229.96 689.28,-211.55 708.99,-198.74"/>
<polygon fill="midnightblue" stroke="midnightblue" points="711.15,-201.51 717.63,-193.13 707.34,-195.64 711.15,-201.51"/>
</g>
<!-- Node32 -->
<g id="node32" class="node">
<title>Node32</title>
<g id="a_node32"><a xlink:href="DSP_8hpp.html" target="_top" xlink:title=" ">
<polygon fill="white" stroke="black" points="461.9,-174 461.9,-193 539.9,-193 539.9,-174 461.9,-174"/>
<text text-anchor="middle" x="500.9" y="-181" font-family="Helvetica,sans-Serif" font-size="10.00">DSP/DSP.hpp</text>
</a>
</g>
</g>
<!-- Node31&#45;&gt;Node32 -->
<g id="edge67" class="edge">
<title>Node31&#45;&gt;Node32</title>
<path fill="none" stroke="midnightblue" d="M613.64,-240.87C591.59,-229.84 553.21,-210.66 527.44,-197.77"/>
<polygon fill="midnightblue" stroke="midnightblue" points="528.74,-194.51 518.23,-193.17 525.61,-200.77 528.74,-194.51"/>
</g>
<!-- Node34 -->
<g id="node34" class="node">
<title>Node34</title>
<g id="a_node34"><a xlink:href="IPL_8hpp.html" target="_top" xlink:title=" ">
<polygon fill="white" stroke="black" points="596.4,-174 596.4,-193 665.4,-193 665.4,-174 596.4,-174"/>
<text text-anchor="middle" x="630.9" y="-181" font-family="Helvetica,sans-Serif" font-size="10.00">IPL/IPL.hpp</text>
</a>
</g>
</g>
<!-- Node31&#45;&gt;Node34 -->
<g id="edge73" class="edge">
<title>Node31&#45;&gt;Node34</title>
<path fill="none" stroke="midnightblue" d="M630.9,-240.73C630.9,-231.18 630.9,-215.62 630.9,-203.28"/>
<polygon fill="midnightblue" stroke="midnightblue" points="634.4,-203.13 630.9,-193.13 627.4,-203.13 634.4,-203.13"/>
</g>
<!-- Node32&#45;&gt;Node6 -->
<g id="edge68" class="edge">
<title>Node32&#45;&gt;Node6</title>
<path fill="none" stroke="midnightblue" d="M498,-173.76C489.11,-147.04 462.19,-66.02 450,-29.36"/>
<polygon fill="midnightblue" stroke="midnightblue" points="453.21,-27.91 446.73,-19.52 446.56,-30.11 453.21,-27.91"/>
</g>
<!-- Node32&#45;&gt;Node9 -->
<g id="edge70" class="edge">
<title>Node32&#45;&gt;Node9</title>
<path fill="none" stroke="midnightblue" d="M527.69,-173.98C560.19,-163.64 615.11,-146.16 651.44,-134.6"/>
<polygon fill="midnightblue" stroke="midnightblue" points="652.69,-137.88 661.16,-131.51 650.57,-131.21 652.69,-137.88"/>
</g>
<!-- Node33 -->
<g id="node33" class="node">
<title>Node33</title>
<g id="a_node33"><a xlink:title=" ">
<polygon fill="white" stroke="#bfbfbf" points="547.9,-112.5 547.9,-131.5 589.9,-131.5 589.9,-112.5 547.9,-112.5"/>
<text text-anchor="middle" x="568.9" y="-119.5" font-family="Helvetica,sans-Serif" font-size="10.00">array</text>
</a>
</g>
</g>
<!-- Node32&#45;&gt;Node33 -->
<g id="edge69" class="edge">
<title>Node32&#45;&gt;Node33</title>
<path fill="none" stroke="midnightblue" d="M510.64,-173.98C521.25,-164.7 538.42,-149.67 551.38,-138.33"/>
<polygon fill="midnightblue" stroke="midnightblue" points="553.95,-140.73 559.18,-131.51 549.34,-135.46 553.95,-140.73"/>
</g>
<!-- Node34&#45;&gt;Node9 -->
<g id="edge74" class="edge">
<title>Node34&#45;&gt;Node9</title>
<path fill="none" stroke="midnightblue" d="M639.07,-173.98C647.79,-164.87 661.8,-150.24 672.59,-138.98"/>
<polygon fill="midnightblue" stroke="midnightblue" points="675.36,-141.15 679.75,-131.51 670.3,-136.31 675.36,-141.15"/>
</g>
<!-- Node36 -->
<g id="node36" class="node">
<title>Node36</title>
<g id="a_node36"><a xlink:title=" ">
<polygon fill="white" stroke="#bfbfbf" points="395.4,-241 395.4,-260 490.4,-260 490.4,-241 395.4,-241"/>
<text text-anchor="middle" x="442.9" y="-248" font-family="Helvetica,sans-Serif" font-size="10.00">bits/exception.h</text>
</a>
</g>
</g>
<!-- Node35&#45;&gt;Node36 -->
<g id="edge78" class="edge">
<title>Node35&#45;&gt;Node36</title>
<path fill="none" stroke="midnightblue" d="M442.9,-307.73C442.9,-298.18 442.9,-282.62 442.9,-270.28"/>
<polygon fill="midnightblue" stroke="midnightblue" points="446.4,-270.13 442.9,-260.13 439.4,-270.13 446.4,-270.13"/>
</g>
<!-- Node37&#45;&gt;Node8 -->
<g id="edge80" class="edge">
<title>Node37&#45;&gt;Node8</title>
<path fill="none" stroke="midnightblue" d="M1315.89,-235.44C1331.77,-218.77 1352.77,-190.44 1338.9,-168 1304.77,-112.78 1117.3,-48.44 1035.78,-22.61"/>
<polygon fill="midnightblue" stroke="midnightblue" points="1036.74,-19.24 1026.15,-19.58 1034.64,-25.92 1036.74,-19.24"/>
</g>
<!-- Node37&#45;&gt;Node22 -->
<g id="edge81" class="edge">
<title>Node37&#45;&gt;Node22</title>
<path fill="none" stroke="midnightblue" d="M1311.41,-235.29C1323.24,-217.43 1338.76,-186.83 1321.9,-168 1301.98,-145.75 1132.55,-133.3 1018.95,-127.39"/>
<polygon fill="midnightblue" stroke="midnightblue" points="1018.99,-123.88 1008.83,-126.87 1018.63,-130.87 1018.99,-123.88"/>
</g>
<!-- Node38 -->
<g id="node38" class="node">
<title>Node38</title>
<g id="a_node38"><a xlink:href="MemoryShadow_8hpp.html" target="_top" xlink:title=" ">
<polygon fill="white" stroke="black" points="1196.9,-174 1196.9,-193 1312.9,-193 1312.9,-174 1196.9,-174"/>
<text text-anchor="middle" x="1254.9" y="-181" font-family="Helvetica,sans-Serif" font-size="10.00">MemoryShadow.hpp</text>
</a>
</g>
</g>
<!-- Node37&#45;&gt;Node38 -->
<g id="edge82" class="edge">
<title>Node37&#45;&gt;Node38</title>
<path fill="none" stroke="midnightblue" d="M1290.92,-235.4C1283.89,-225.46 1274.44,-212.11 1266.98,-201.57"/>
<polygon fill="midnightblue" stroke="midnightblue" points="1269.69,-199.34 1261.05,-193.19 1263.97,-203.38 1269.69,-199.34"/>
</g>
<!-- Node38&#45;&gt;Node8 -->
<g id="edge83" class="edge">
<title>Node38&#45;&gt;Node8</title>
<path fill="none" stroke="midnightblue" d="M1244.83,-173.81C1219.55,-152.24 1150.92,-95.16 1087.9,-56 1068.37,-43.86 1045.13,-32.31 1027.16,-23.95"/>
<polygon fill="midnightblue" stroke="midnightblue" points="1028.32,-20.63 1017.77,-19.65 1025.41,-27 1028.32,-20.63"/>
</g>
<!-- Node38&#45;&gt;Node9 -->
<g id="edge84" class="edge">
<title>Node38&#45;&gt;Node9</title>
<path fill="none" stroke="midnightblue" d="M1219.24,-173.93C1209.15,-171.74 1198.14,-169.56 1187.9,-168 1102.56,-154.98 849.87,-135.16 739.95,-126.86"/>
<polygon fill="midnightblue" stroke="midnightblue" points="740,-123.36 729.77,-126.1 739.48,-130.34 740,-123.36"/>
</g>
</g>
</svg>
