<?xml version="1.0" encoding="UTF-8" standalone="no"?>
<!DOCTYPE svg PUBLIC "-//W3C//DTD SVG 1.1//EN"
 "http://www.w3.org/Graphics/SVG/1.1/DTD/svg11.dtd">
<!-- Generated by graphviz version 2.43.0 (0)
 -->
<!-- Title: tests/PPU/testPpuWriteFromVmain.cpp Pages: 1 -->
<svg width="1584pt" height="509pt"
 viewBox="0.00 0.00 1584.00 509.00" xmlns="http://www.w3.org/2000/svg" xmlns:xlink="http://www.w3.org/1999/xlink">
<g id="graph0" class="graph" transform="scale(1 1) rotate(0) translate(4 505)">
<title>tests/PPU/testPpuWriteFromVmain.cpp</title>
<polygon fill="white" stroke="transparent" points="-4,4 -4,-505 1580,-505 1580,4 -4,4"/>
<!-- Node1 -->
<g id="node1" class="node">
<title>Node1</title>
<g id="a_node1"><a xlink:title=" ">
<polygon fill="#bfbfbf" stroke="black" points="188,-470.5 188,-500.5 342,-500.5 342,-470.5 188,-470.5"/>
<text text-anchor="start" x="196" y="-488.5" font-family="Helvetica,sans-Serif" font-size="10.00">tests/PPU/testPpuWriteFrom</text>
<text text-anchor="middle" x="265" y="-477.5" font-family="Helvetica,sans-Serif" font-size="10.00">Vmain.cpp</text>
</a>
</g>
</g>
<!-- Node2 -->
<g id="node2" class="node">
<title>Node2</title>
<g id="a_node2"><a xlink:title=" ">
<polygon fill="white" stroke="#bfbfbf" points="28,-358.5 28,-377.5 138,-377.5 138,-358.5 28,-358.5"/>
<text text-anchor="middle" x="83" y="-365.5" font-family="Helvetica,sans-Serif" font-size="10.00">criterion/criterion.h</text>
</a>
</g>
</g>
<!-- Node1&#45;&gt;Node2 -->
<g id="edge1" class="edge">
<title>Node1&#45;&gt;Node2</title>
<path fill="none" stroke="midnightblue" d="M242.68,-470.34C207.66,-448.11 140.17,-405.28 105.21,-383.09"/>
<polygon fill="midnightblue" stroke="midnightblue" points="106.98,-380.07 96.66,-377.67 103.23,-385.98 106.98,-380.07"/>
</g>
<!-- Node3 -->
<g id="node3" class="node">
<title>Node3</title>
<g id="a_node3"><a xlink:title=" ">
<polygon fill="white" stroke="#bfbfbf" points="156,-358.5 156,-377.5 216,-377.5 216,-358.5 156,-358.5"/>
<text text-anchor="middle" x="186" y="-365.5" font-family="Helvetica,sans-Serif" font-size="10.00">iostream</text>
</a>
</g>
</g>
<!-- Node1&#45;&gt;Node3 -->
<g id="edge2" class="edge">
<title>Node1&#45;&gt;Node3</title>
<path fill="none" stroke="midnightblue" d="M250.59,-470.27C241.21,-460.57 229.08,-447.14 220,-434 209.61,-418.97 200.19,-400.38 193.91,-386.93"/>
<polygon fill="midnightblue" stroke="midnightblue" points="197.09,-385.46 189.76,-377.8 190.71,-388.35 197.09,-385.46"/>
</g>
<!-- Node4 -->
<g id="node4" class="node">
<title>Node4</title>
<g id="a_node4"><a xlink:title=" ">
<polygon fill="white" stroke="#bfbfbf" points="418,-414.5 418,-433.5 462,-433.5 462,-414.5 418,-414.5"/>
<text text-anchor="middle" x="440" y="-421.5" font-family="Helvetica,sans-Serif" font-size="10.00">bitset</text>
</a>
</g>
</g>
<!-- Node1&#45;&gt;Node4 -->
<g id="edge3" class="edge">
<title>Node1&#45;&gt;Node4</title>
<path fill="none" stroke="midnightblue" d="M306.47,-470.4C337.57,-459.82 379.52,-445.56 408.05,-435.86"/>
<polygon fill="midnightblue" stroke="midnightblue" points="409.19,-439.17 417.54,-432.64 406.94,-432.54 409.19,-439.17"/>
</g>
<!-- Node5 -->
<g id="node5" class="node">
<title>Node5</title>
<g id="a_node5"><a xlink:href="tests_8hpp.html" target="_top" xlink:title=" ">
<polygon fill="white" stroke="black" points="229.5,-414.5 229.5,-433.5 300.5,-433.5 300.5,-414.5 229.5,-414.5"/>
<text text-anchor="middle" x="265" y="-421.5" font-family="Helvetica,sans-Serif" font-size="10.00">../tests.hpp</text>
</a>
</g>
</g>
<!-- Node1&#45;&gt;Node5 -->
<g id="edge4" class="edge">
<title>Node1&#45;&gt;Node5</title>
<path fill="none" stroke="midnightblue" d="M265,-470.4C265,-462.47 265,-452.46 265,-443.86"/>
<polygon fill="midnightblue" stroke="midnightblue" points="268.5,-443.66 265,-433.66 261.5,-443.66 268.5,-443.66"/>
</g>
<!-- Node6 -->
<g id="node6" class="node">
<title>Node6</title>
<g id="a_node6"><a xlink:href="MemoryBus_8hpp.html" target="_top" xlink:title=" ">
<polygon fill="white" stroke="black" points="239,-168.5 239,-198.5 389,-198.5 389,-168.5 239,-168.5"/>
<text text-anchor="start" x="247" y="-186.5" font-family="Helvetica,sans-Serif" font-size="10.00">../sources/Memory/Memory</text>
<text text-anchor="middle" x="314" y="-175.5" font-family="Helvetica,sans-Serif" font-size="10.00">Bus.hpp</text>
</a>
</g>
</g>
<!-- Node1&#45;&gt;Node6 -->
<g id="edge81" class="edge">
<title>Node1&#45;&gt;Node6</title>
<path fill="none" stroke="midnightblue" d="M188,-482.45C109.75,-475.78 0,-451.68 0,-369 0,-369 0,-369 0,-305.5 0,-256.32 135.82,-219.49 228.8,-200.04"/>
<polygon fill="midnightblue" stroke="midnightblue" points="229.7,-203.43 238.79,-197.98 228.29,-196.57 229.7,-203.43"/>
</g>
<!-- Node19 -->
<g id="node19" class="node">
<title>Node19</title>
<g id="a_node19"><a xlink:href="SNES_8hpp.html" target="_top" xlink:title=" ">
<polygon fill="white" stroke="black" points="673.5,-358.5 673.5,-377.5 786.5,-377.5 786.5,-358.5 673.5,-358.5"/>
<text text-anchor="middle" x="730" y="-365.5" font-family="Helvetica,sans-Serif" font-size="10.00">../sources/SNES.hpp</text>
</a>
</g>
</g>
<!-- Node1&#45;&gt;Node19 -->
<g id="edge80" class="edge">
<title>Node1&#45;&gt;Node19</title>
<path fill="none" stroke="midnightblue" d="M293.29,-470.37C333.49,-450.32 402.98,-415.84 409,-414 494.42,-387.83 597.34,-376.81 663.21,-372.22"/>
<polygon fill="midnightblue" stroke="midnightblue" points="663.71,-375.69 673.46,-371.53 663.25,-368.71 663.71,-375.69"/>
</g>
<!-- Node27 -->
<g id="node27" class="node">
<title>Node27</title>
<g id="a_node27"><a xlink:href="PPU_8hpp.html" target="_top" xlink:title=" ">
<polygon fill="white" stroke="black" points="516,-235.5 516,-254.5 596,-254.5 596,-235.5 516,-235.5"/>
<text text-anchor="middle" x="556" y="-242.5" font-family="Helvetica,sans-Serif" font-size="10.00">PPU/PPU.hpp</text>
</a>
</g>
</g>
<!-- Node1&#45;&gt;Node27 -->
<g id="edge82" class="edge">
<title>Node1&#45;&gt;Node27</title>
<path fill="none" stroke="midnightblue" d="M288.55,-470.3C301.57,-461.36 317.07,-448.74 327,-434 364.15,-378.85 322.59,-336.59 371,-291 390.26,-272.86 457.8,-259.81 505.69,-252.57"/>
<polygon fill="midnightblue" stroke="midnightblue" points="506.2,-256.04 515.58,-251.12 505.18,-249.11 506.2,-256.04"/>
</g>
<!-- Node5&#45;&gt;Node2 -->
<g id="edge23" class="edge">
<title>Node5&#45;&gt;Node2</title>
<path fill="none" stroke="midnightblue" d="M236.16,-414.44C205.14,-405.24 155.67,-390.56 121.38,-380.39"/>
<polygon fill="midnightblue" stroke="midnightblue" points="122.29,-377.01 111.7,-377.52 120.29,-383.72 122.29,-377.01"/>
</g>
<!-- Node5&#45;&gt;Node3 -->
<g id="edge24" class="edge">
<title>Node5&#45;&gt;Node3</title>
<path fill="none" stroke="midnightblue" d="M252.31,-414.32C240.1,-405.98 221.42,-393.21 207,-383.35"/>
<polygon fill="midnightblue" stroke="midnightblue" points="208.89,-380.41 198.66,-377.65 204.94,-386.19 208.89,-380.41"/>
</g>
<!-- Node5&#45;&gt;Node5 -->
<g id="edge26" class="edge">
<title>Node5&#45;&gt;Node5</title>
<path fill="none" stroke="midnightblue" d="M287.82,-433.53C303.32,-436.31 318.5,-433.13 318.5,-424 318.5,-416.86 309.24,-413.37 297.79,-413.5"/>
<polygon fill="midnightblue" stroke="midnightblue" points="297.43,-410.02 287.82,-414.47 298.11,-416.99 297.43,-410.02"/>
</g>
<!-- Node5&#45;&gt;Node6 -->
<g id="edge5" class="edge">
<title>Node5&#45;&gt;Node6</title>
<path fill="none" stroke="midnightblue" d="M272.36,-414.36C279.23,-405.75 289.13,-391.86 294,-378 314.38,-319.96 315.89,-246.55 315.06,-209.02"/>
<polygon fill="midnightblue" stroke="midnightblue" points="318.54,-208.48 314.74,-198.59 311.54,-208.69 318.54,-208.48"/>
</g>
<!-- Node15 -->
<g id="node15" class="node">
<title>Node15</title>
<g id="a_node15"><a xlink:title=" ">
<polygon fill="white" stroke="#bfbfbf" points="234.5,-358.5 234.5,-377.5 285.5,-377.5 285.5,-358.5 234.5,-358.5"/>
<text text-anchor="middle" x="260" y="-365.5" font-family="Helvetica,sans-Serif" font-size="10.00">zconf.h</text>
</a>
</g>
</g>
<!-- Node5&#45;&gt;Node15 -->
<g id="edge25" class="edge">
<title>Node5&#45;&gt;Node15</title>
<path fill="none" stroke="midnightblue" d="M264.17,-414.08C263.52,-407.01 262.58,-396.86 261.76,-387.99"/>
<polygon fill="midnightblue" stroke="midnightblue" points="265.22,-387.39 260.81,-377.75 258.25,-388.03 265.22,-387.39"/>
</g>
<!-- Node16 -->
<g id="node16" class="node">
<title>Node16</title>
<g id="a_node16"><a xlink:href="NoRenderer_8hpp.html" target="_top" xlink:title=" ">
<polygon fill="white" stroke="black" points="380,-291.5 380,-321.5 490,-321.5 490,-291.5 380,-291.5"/>
<text text-anchor="start" x="388" y="-309.5" font-family="Helvetica,sans-Serif" font-size="10.00">../sources/Renderer</text>
<text text-anchor="middle" x="435" y="-298.5" font-family="Helvetica,sans-Serif" font-size="10.00">/NoRenderer.hpp</text>
</a>
</g>
</g>
<!-- Node5&#45;&gt;Node16 -->
<g id="edge27" class="edge">
<title>Node5&#45;&gt;Node16</title>
<path fill="none" stroke="midnightblue" d="M277.78,-414.32C304.8,-395.96 368.33,-352.8 405.84,-327.31"/>
<polygon fill="midnightblue" stroke="midnightblue" points="408.02,-330.06 414.33,-321.55 404.09,-324.27 408.02,-330.06"/>
</g>
<!-- Node5&#45;&gt;Node19 -->
<g id="edge31" class="edge">
<title>Node5&#45;&gt;Node19</title>
<path fill="none" stroke="midnightblue" d="M300.72,-418.85C378.33,-409.84 563.42,-388.34 663.33,-376.74"/>
<polygon fill="midnightblue" stroke="midnightblue" points="663.78,-380.21 673.31,-375.58 662.97,-373.26 663.78,-380.21"/>
</g>
<!-- Node7 -->
<g id="node7" class="node">
<title>Node7</title>
<g id="a_node7"><a xlink:title=" ">
<polygon fill="white" stroke="#bfbfbf" points="423,-0.5 423,-19.5 473,-19.5 473,-0.5 423,-0.5"/>
<text text-anchor="middle" x="448" y="-7.5" font-family="Helvetica,sans-Serif" font-size="10.00">cstdint</text>
</a>
</g>
</g>
<!-- Node6&#45;&gt;Node7 -->
<g id="edge6" class="edge">
<title>Node6&#45;&gt;Node7</title>
<path fill="none" stroke="midnightblue" d="M294.72,-168.42C278.22,-154.53 258.65,-132.48 269,-112 296.93,-56.72 369.28,-29.97 412.97,-18.48"/>
<polygon fill="midnightblue" stroke="midnightblue" points="414.04,-21.82 422.89,-16 412.34,-15.03 414.04,-21.82"/>
</g>
<!-- Node8 -->
<g id="node8" class="node">
<title>Node8</title>
<g id="a_node8"><a xlink:title=" ">
<polygon fill="white" stroke="#bfbfbf" points="908.5,-0.5 908.5,-19.5 955.5,-19.5 955.5,-0.5 908.5,-0.5"/>
<text text-anchor="middle" x="932" y="-7.5" font-family="Helvetica,sans-Serif" font-size="10.00">vector</text>
</a>
</g>
</g>
<!-- Node6&#45;&gt;Node8 -->
<g id="edge7" class="edge">
<title>Node6&#45;&gt;Node8</title>
<path fill="none" stroke="midnightblue" d="M322.88,-168.31C333.92,-151.95 354.35,-125.57 379,-112 470.13,-61.83 792.96,-25.18 898.41,-14.32"/>
<polygon fill="midnightblue" stroke="midnightblue" points="898.89,-17.79 908.48,-13.29 898.18,-10.83 898.89,-17.79"/>
</g>
<!-- Node9 -->
<g id="node9" class="node">
<title>Node9</title>
<g id="a_node9"><a xlink:title=" ">
<polygon fill="white" stroke="#bfbfbf" points="760,-0.5 760,-19.5 818,-19.5 818,-0.5 760,-0.5"/>
<text text-anchor="middle" x="789" y="-7.5" font-family="Helvetica,sans-Serif" font-size="10.00">memory</text>
</a>
</g>
</g>
<!-- Node6&#45;&gt;Node9 -->
<g id="edge8" class="edge">
<title>Node6&#45;&gt;Node9</title>
<path fill="none" stroke="midnightblue" d="M307.24,-168.36C300.89,-152.79 294.13,-127.85 307,-112 362.95,-43.1 645.18,-19.53 749.86,-13.08"/>
<polygon fill="midnightblue" stroke="midnightblue" points="750.22,-16.56 760,-12.47 749.81,-9.57 750.22,-16.56"/>
</g>
<!-- Node10 -->
<g id="node10" class="node">
<title>Node10</title>
<g id="a_node10"><a xlink:href="AMemory_8hpp.html" target="_top" xlink:title=" ">
<polygon fill="white" stroke="black" points="894.5,-112.5 894.5,-131.5 977.5,-131.5 977.5,-112.5 894.5,-112.5"/>
<text text-anchor="middle" x="936" y="-119.5" font-family="Helvetica,sans-Serif" font-size="10.00">AMemory.hpp</text>
</a>
</g>
</g>
<!-- Node6&#45;&gt;Node10 -->
<g id="edge9" class="edge">
<title>Node6&#45;&gt;Node10</title>
<path fill="none" stroke="midnightblue" d="M389.27,-175.25C413.45,-172.92 440.36,-170.34 465,-168 634.76,-151.85 677.28,-148.58 847,-132 859.08,-130.82 872.07,-129.52 884.3,-128.29"/>
<polygon fill="midnightblue" stroke="midnightblue" points="884.75,-131.76 894.35,-127.27 884.05,-124.8 884.75,-131.76"/>
</g>
<!-- Node10&#45;&gt;Node7 -->
<g id="edge10" class="edge">
<title>Node10&#45;&gt;Node7</title>
<path fill="none" stroke="midnightblue" d="M898.11,-112.46C806.13,-91.73 572.06,-38.96 483.06,-18.9"/>
<polygon fill="midnightblue" stroke="midnightblue" points="483.72,-15.46 473.19,-16.68 482.18,-22.29 483.72,-15.46"/>
</g>
<!-- Node10&#45;&gt;Node8 -->
<g id="edge11" class="edge">
<title>Node10&#45;&gt;Node8</title>
<path fill="none" stroke="midnightblue" d="M935.69,-112.37C935.04,-94.62 933.55,-53.67 932.68,-29.6"/>
<polygon fill="midnightblue" stroke="midnightblue" points="936.17,-29.46 932.31,-19.59 929.18,-29.71 936.17,-29.46"/>
</g>
<!-- Node10&#45;&gt;Node9 -->
<g id="edge12" class="edge">
<title>Node10&#45;&gt;Node9</title>
<path fill="none" stroke="midnightblue" d="M930.2,-112.47C920.74,-99.07 900.86,-72.87 879,-56 861.5,-42.49 839.3,-31.34 821.33,-23.52"/>
<polygon fill="midnightblue" stroke="midnightblue" points="822.42,-20.18 811.84,-19.52 819.7,-26.63 822.42,-20.18"/>
</g>
<!-- Node11 -->
<g id="node11" class="node">
<title>Node11</title>
<g id="a_node11"><a xlink:title=" ">
<polygon fill="white" stroke="#bfbfbf" points="1169,-0.5 1169,-19.5 1213,-19.5 1213,-0.5 1169,-0.5"/>
<text text-anchor="middle" x="1191" y="-7.5" font-family="Helvetica,sans-Serif" font-size="10.00">string</text>
</a>
</g>
</g>
<!-- Node10&#45;&gt;Node11 -->
<g id="edge13" class="edge">
<title>Node10&#45;&gt;Node11</title>
<path fill="none" stroke="midnightblue" d="M977.81,-112.58C1030.54,-101.75 1115.93,-83.47 1129,-76 1149.86,-64.08 1168.06,-42.98 1179.25,-28.05"/>
<polygon fill="midnightblue" stroke="midnightblue" points="1182.27,-29.85 1185.28,-19.69 1176.59,-25.76 1182.27,-29.85"/>
</g>
<!-- Node12 -->
<g id="node12" class="node">
<title>Node12</title>
<g id="a_node12"><a xlink:href="Int24_8hpp.html" target="_top" xlink:title=" ">
<polygon fill="white" stroke="black" points="1240,-0.5 1240,-19.5 1350,-19.5 1350,-0.5 1240,-0.5"/>
<text text-anchor="middle" x="1295" y="-7.5" font-family="Helvetica,sans-Serif" font-size="10.00">../Models/Int24.hpp</text>
</a>
</g>
</g>
<!-- Node10&#45;&gt;Node12 -->
<g id="edge14" class="edge">
<title>Node10&#45;&gt;Node12</title>
<path fill="none" stroke="midnightblue" d="M977.75,-113.61C1031.73,-103.86 1122.65,-86.67 1155,-76 1197.11,-62.11 1243.28,-39.01 1270.67,-24.42"/>
<polygon fill="midnightblue" stroke="midnightblue" points="1272.39,-27.47 1279.53,-19.64 1269.07,-21.31 1272.39,-27.47"/>
</g>
<!-- Node13 -->
<g id="node13" class="node">
<title>Node13</title>
<g id="a_node13"><a xlink:href="Components_8hpp.html" target="_top" xlink:title=" ">
<polygon fill="white" stroke="black" points="974,-0.5 974,-19.5 1120,-19.5 1120,-0.5 974,-0.5"/>
<text text-anchor="middle" x="1047" y="-7.5" font-family="Helvetica,sans-Serif" font-size="10.00">../Models/Components.hpp</text>
</a>
</g>
</g>
<!-- Node10&#45;&gt;Node13 -->
<g id="edge15" class="edge">
<title>Node10&#45;&gt;Node13</title>
<path fill="none" stroke="midnightblue" d="M943.85,-112.41C955.45,-99.81 977.96,-75.66 998,-56 1008.2,-45.99 1019.99,-35.14 1029.45,-26.61"/>
<polygon fill="midnightblue" stroke="midnightblue" points="1031.95,-29.06 1037.06,-19.78 1027.28,-23.85 1031.95,-29.06"/>
</g>
<!-- Node14 -->
<g id="node14" class="node">
<title>Node14</title>
<g id="a_node14"><a xlink:href="IMemory_8hpp.html" target="_top" xlink:title=" ">
<polygon fill="white" stroke="black" points="1007,-56.5 1007,-75.5 1087,-75.5 1087,-56.5 1007,-56.5"/>
<text text-anchor="middle" x="1047" y="-63.5" font-family="Helvetica,sans-Serif" font-size="10.00">IMemory.hpp</text>
</a>
</g>
</g>
<!-- Node10&#45;&gt;Node14 -->
<g id="edge16" class="edge">
<title>Node10&#45;&gt;Node14</title>
<path fill="none" stroke="midnightblue" d="M953.83,-112.32C971.72,-103.62 999.48,-90.12 1020.05,-80.11"/>
<polygon fill="midnightblue" stroke="midnightblue" points="1021.75,-83.18 1029.21,-75.65 1018.69,-76.88 1021.75,-83.18"/>
</g>
<!-- Node14&#45;&gt;Node7 -->
<g id="edge17" class="edge">
<title>Node14&#45;&gt;Node7</title>
<path fill="none" stroke="midnightblue" d="M1006.77,-61.37C895.94,-51.38 587.54,-23.58 483.1,-14.16"/>
<polygon fill="midnightblue" stroke="midnightblue" points="483.35,-10.67 473.08,-13.26 482.72,-17.64 483.35,-10.67"/>
</g>
<!-- Node14&#45;&gt;Node8 -->
<g id="edge18" class="edge">
<title>Node14&#45;&gt;Node8</title>
<path fill="none" stroke="midnightblue" d="M1028.78,-56.44C1010.1,-47.68 980.84,-33.94 959.38,-23.86"/>
<polygon fill="midnightblue" stroke="midnightblue" points="960.68,-20.6 950.14,-19.52 957.7,-26.93 960.68,-20.6"/>
</g>
<!-- Node14&#45;&gt;Node9 -->
<g id="edge19" class="edge">
<title>Node14&#45;&gt;Node9</title>
<path fill="none" stroke="midnightblue" d="M1006.97,-56.62C958.31,-46.44 876.73,-29.36 828.37,-19.24"/>
<polygon fill="midnightblue" stroke="midnightblue" points="828.79,-15.75 818.29,-17.13 827.36,-22.6 828.79,-15.75"/>
</g>
<!-- Node14&#45;&gt;Node11 -->
<g id="edge20" class="edge">
<title>Node14&#45;&gt;Node11</title>
<path fill="none" stroke="midnightblue" d="M1069.82,-56.44C1093.97,-47.39 1132.28,-33.02 1159.35,-22.87"/>
<polygon fill="midnightblue" stroke="midnightblue" points="1160.63,-26.13 1168.76,-19.34 1158.17,-19.57 1160.63,-26.13"/>
</g>
<!-- Node14&#45;&gt;Node12 -->
<g id="edge21" class="edge">
<title>Node14&#45;&gt;Node12</title>
<path fill="none" stroke="midnightblue" d="M1086.3,-56.44C1129.56,-47.02 1199.17,-31.87 1245.97,-21.68"/>
<polygon fill="midnightblue" stroke="midnightblue" points="1246.86,-25.06 1255.89,-19.52 1245.37,-18.22 1246.86,-25.06"/>
</g>
<!-- Node14&#45;&gt;Node13 -->
<g id="edge22" class="edge">
<title>Node14&#45;&gt;Node13</title>
<path fill="none" stroke="midnightblue" d="M1047,-56.08C1047,-49.01 1047,-38.86 1047,-29.99"/>
<polygon fill="midnightblue" stroke="midnightblue" points="1050.5,-29.75 1047,-19.75 1043.5,-29.75 1050.5,-29.75"/>
</g>
<!-- Node17 -->
<g id="node17" class="node">
<title>Node17</title>
<g id="a_node17"><a xlink:href="IRenderer_8hpp.html" target="_top" xlink:title=" ">
<polygon fill="white" stroke="black" points="614,-174 614,-193 698,-193 698,-174 614,-174"/>
<text text-anchor="middle" x="656" y="-181" font-family="Helvetica,sans-Serif" font-size="10.00">IRenderer.hpp</text>
</a>
</g>
</g>
<!-- Node16&#45;&gt;Node17 -->
<g id="edge28" class="edge">
<title>Node16&#45;&gt;Node17</title>
<path fill="none" stroke="midnightblue" d="M490.31,-298.43C525.67,-291.77 571.09,-279.04 605,-255 624.19,-241.4 638.9,-218.27 647.48,-202.23"/>
<polygon fill="midnightblue" stroke="midnightblue" points="650.61,-203.8 652.02,-193.3 644.37,-200.63 650.61,-203.8"/>
</g>
<!-- Node17&#45;&gt;Node11 -->
<g id="edge29" class="edge">
<title>Node17&#45;&gt;Node11</title>
<path fill="none" stroke="midnightblue" d="M668.3,-173.8C690.7,-158.43 740.19,-126.73 787,-112 918.89,-70.5 966.5,-124.45 1096,-76 1104.16,-72.95 1145.31,-43.88 1170.7,-25.66"/>
<polygon fill="midnightblue" stroke="midnightblue" points="1172.87,-28.41 1178.94,-19.73 1168.78,-22.73 1172.87,-28.41"/>
</g>
<!-- Node18 -->
<g id="node18" class="node">
<title>Node18</title>
<g id="a_node18"><a xlink:title=" ">
<polygon fill="white" stroke="#bfbfbf" points="624,-112.5 624,-131.5 664,-131.5 664,-112.5 624,-112.5"/>
<text text-anchor="middle" x="644" y="-119.5" font-family="Helvetica,sans-Serif" font-size="10.00">span</text>
</a>
</g>
</g>
<!-- Node17&#45;&gt;Node18 -->
<g id="edge30" class="edge">
<title>Node17&#45;&gt;Node18</title>
<path fill="none" stroke="midnightblue" d="M654.28,-173.98C652.57,-165.49 649.89,-152.2 647.7,-141.32"/>
<polygon fill="midnightblue" stroke="midnightblue" points="651.12,-140.62 645.72,-131.51 644.26,-142 651.12,-140.62"/>
</g>
<!-- Node19&#45;&gt;Node6 -->
<g id="edge32" class="edge">
<title>Node19&#45;&gt;Node6</title>
<path fill="none" stroke="midnightblue" d="M683.51,-358.46C647.84,-351.08 597.79,-338.93 556,-322 545.11,-317.59 411.16,-240.56 347.37,-203.77"/>
<polygon fill="midnightblue" stroke="midnightblue" points="348.9,-200.61 338.48,-198.64 345.4,-206.67 348.9,-200.61"/>
</g>
<!-- Node19&#45;&gt;Node17 -->
<g id="edge77" class="edge">
<title>Node19&#45;&gt;Node17</title>
<path fill="none" stroke="midnightblue" d="M740.99,-358.37C750.45,-350.17 763.44,-336.92 769,-322 782.64,-285.43 780.9,-265.86 757,-235 742.59,-216.4 719.5,-204.14 699.03,-196.37"/>
<polygon fill="midnightblue" stroke="midnightblue" points="700.14,-193.05 689.55,-193 697.8,-199.65 700.14,-193.05"/>
</g>
<!-- Node20 -->
<g id="node20" class="node">
<title>Node20</title>
<g id="a_node20"><a xlink:href="CPU_8hpp.html" target="_top" xlink:title=" ">
<polygon fill="white" stroke="black" points="1059.5,-297 1059.5,-316 1140.5,-316 1140.5,-297 1059.5,-297"/>
<text text-anchor="middle" x="1100" y="-304" font-family="Helvetica,sans-Serif" font-size="10.00">CPU/CPU.hpp</text>
</a>
</g>
</g>
<!-- Node19&#45;&gt;Node20 -->
<g id="edge33" class="edge">
<title>Node19&#45;&gt;Node20</title>
<path fill="none" stroke="midnightblue" d="M786.53,-360.1C848.29,-352.25 950.05,-338.35 1037,-322 1042.86,-320.9 1049.01,-319.63 1055.07,-318.31"/>
<polygon fill="midnightblue" stroke="midnightblue" points="1056.12,-321.66 1065.12,-316.06 1054.59,-314.83 1056.12,-321.66"/>
</g>
<!-- Node21 -->
<g id="node21" class="node">
<title>Node21</title>
<g id="a_node21"><a xlink:href="Cartridge_8hpp.html" target="_top" xlink:title=" ">
<polygon fill="white" stroke="black" points="1201,-235.5 1201,-254.5 1341,-254.5 1341,-235.5 1201,-235.5"/>
<text text-anchor="middle" x="1271" y="-242.5" font-family="Helvetica,sans-Serif" font-size="10.00">../Cartridge/Cartridge.hpp</text>
</a>
</g>
</g>
<!-- Node19&#45;&gt;Node21 -->
<g id="edge55" class="edge">
<title>Node19&#45;&gt;Node21</title>
<path fill="none" stroke="midnightblue" d="M786.62,-364.1C885.23,-358.52 1084.26,-344.79 1150,-322 1189.93,-308.15 1230.31,-279.07 1252.85,-261.17"/>
<polygon fill="midnightblue" stroke="midnightblue" points="1255.28,-263.71 1260.84,-254.69 1250.87,-258.27 1255.28,-263.71"/>
</g>
<!-- Node24 -->
<g id="node24" class="node">
<title>Node24</title>
<g id="a_node24"><a xlink:href="Ram_8hpp.html" target="_top" xlink:title=" ">
<polygon fill="white" stroke="black" points="1128.5,-174 1128.5,-193 1223.5,-193 1223.5,-174 1128.5,-174"/>
<text text-anchor="middle" x="1176" y="-181" font-family="Helvetica,sans-Serif" font-size="10.00">../Ram/Ram.hpp</text>
</a>
</g>
</g>
<!-- Node19&#45;&gt;Node24 -->
<g id="edge56" class="edge">
<title>Node19&#45;&gt;Node24</title>
<path fill="none" stroke="midnightblue" d="M754.85,-358.44C780,-349.67 819.92,-335.45 854,-322 963.61,-278.74 1091.87,-222.15 1147.67,-197.23"/>
<polygon fill="midnightblue" stroke="midnightblue" points="1149.22,-200.37 1156.92,-193.09 1146.36,-193.98 1149.22,-200.37"/>
</g>
<!-- Node19&#45;&gt;Node27 -->
<g id="edge57" class="edge">
<title>Node19&#45;&gt;Node27</title>
<path fill="none" stroke="midnightblue" d="M673.16,-363.88C640.57,-359.15 601.26,-347.95 576,-322 561.23,-306.83 557.02,-282.12 555.99,-265.02"/>
<polygon fill="midnightblue" stroke="midnightblue" points="559.48,-264.5 555.7,-254.6 552.48,-264.69 559.48,-264.5"/>
</g>
<!-- Node31 -->
<g id="node31" class="node">
<title>Node31</title>
<g id="a_node31"><a xlink:href="APU_8hpp.html" target="_top" xlink:title=" ">
<polygon fill="white" stroke="black" points="909.5,-235.5 909.5,-254.5 990.5,-254.5 990.5,-235.5 909.5,-235.5"/>
<text text-anchor="middle" x="950" y="-242.5" font-family="Helvetica,sans-Serif" font-size="10.00">APU/APU.hpp</text>
</a>
</g>
</g>
<!-- Node19&#45;&gt;Node31 -->
<g id="edge66" class="edge">
<title>Node19&#45;&gt;Node31</title>
<path fill="none" stroke="midnightblue" d="M745.47,-358.49C783.09,-337.8 879.62,-284.71 925.31,-259.58"/>
<polygon fill="midnightblue" stroke="midnightblue" points="927.18,-262.55 934.25,-254.66 923.8,-256.41 927.18,-262.55"/>
</g>
<!-- Node35 -->
<g id="node35" class="node">
<title>Node35</title>
<g id="a_node35"><a xlink:href="DebuggableError_8hpp.html" target="_top" xlink:title=" ">
<polygon fill="white" stroke="black" points="584.5,-297 584.5,-316 759.5,-316 759.5,-297 584.5,-297"/>
<text text-anchor="middle" x="672" y="-304" font-family="Helvetica,sans-Serif" font-size="10.00">Exceptions/DebuggableError.hpp</text>
</a>
</g>
</g>
<!-- Node19&#45;&gt;Node35 -->
<g id="edge78" class="edge">
<title>Node19&#45;&gt;Node35</title>
<path fill="none" stroke="midnightblue" d="M721.69,-358.48C712.82,-349.37 698.55,-334.74 687.58,-323.48"/>
<polygon fill="midnightblue" stroke="midnightblue" points="689.78,-320.73 680.29,-316.01 684.77,-325.61 689.78,-320.73"/>
</g>
<!-- Node20&#45;&gt;Node6 -->
<g id="edge35" class="edge">
<title>Node20&#45;&gt;Node6</title>
<path fill="none" stroke="midnightblue" d="M1059.18,-303.88C942.92,-298.97 611.71,-282.87 507,-255 486.63,-249.58 483.57,-242.82 464,-235 433.3,-222.74 398.32,-210.85 369.87,-201.69"/>
<polygon fill="midnightblue" stroke="midnightblue" points="370.69,-198.27 360.1,-198.56 368.56,-204.94 370.69,-198.27"/>
</g>
<!-- Node20&#45;&gt;Node10 -->
<g id="edge34" class="edge">
<title>Node20&#45;&gt;Node10</title>
<path fill="none" stroke="midnightblue" d="M1098.74,-296.83C1094.85,-273.06 1080.91,-206.1 1043,-168 1027.18,-152.1 1004.9,-141.52 984.75,-134.64"/>
<polygon fill="midnightblue" stroke="midnightblue" points="985.67,-131.26 975.08,-131.55 983.54,-137.93 985.67,-131.26"/>
</g>
<!-- Node20&#45;&gt;Node12 -->
<g id="edge36" class="edge">
<title>Node20&#45;&gt;Node12</title>
<path fill="none" stroke="midnightblue" d="M1140.58,-303.86C1255.69,-298.1 1576,-274.03 1576,-184.5 1576,-184.5 1576,-184.5 1576,-121 1576,-73.54 1435.23,-38.16 1352.96,-21.53"/>
<polygon fill="midnightblue" stroke="midnightblue" points="1353.48,-18.06 1342.99,-19.55 1352.11,-24.93 1353.48,-18.06"/>
</g>
<!-- Node20&#45;&gt;Node21 -->
<g id="edge37" class="edge">
<title>Node20&#45;&gt;Node21</title>
<path fill="none" stroke="midnightblue" d="M1124.5,-296.98C1153.96,-286.72 1203.58,-269.46 1236.8,-257.9"/>
<polygon fill="midnightblue" stroke="midnightblue" points="1238.25,-261.1 1246.55,-254.51 1235.95,-254.49 1238.25,-261.1"/>
</g>
<!-- Node25 -->
<g id="node25" class="node">
<title>Node25</title>
<g id="a_node25"><a xlink:href="Instruction_8hpp.html" target="_top" xlink:title=" ">
<polygon fill="white" stroke="black" points="1356.5,-56.5 1356.5,-75.5 1445.5,-75.5 1445.5,-56.5 1356.5,-56.5"/>
<text text-anchor="middle" x="1401" y="-63.5" font-family="Helvetica,sans-Serif" font-size="10.00">Instruction.hpp</text>
</a>
</g>
</g>
<!-- Node20&#45;&gt;Node25 -->
<g id="edge47" class="edge">
<title>Node20&#45;&gt;Node25</title>
<path fill="none" stroke="midnightblue" d="M1140.61,-300.76C1230.85,-289.24 1443.07,-256.46 1481,-199 1508.39,-157.5 1454.05,-106.81 1422.06,-82.06"/>
<polygon fill="midnightblue" stroke="midnightblue" points="1423.82,-79 1413.72,-75.79 1419.61,-84.6 1423.82,-79"/>
</g>
<!-- Node26 -->
<g id="node26" class="node">
<title>Node26</title>
<g id="a_node26"><a xlink:href="DMA_8hpp.html" target="_top" xlink:title=" ">
<polygon fill="white" stroke="black" points="804.5,-235.5 804.5,-254.5 891.5,-254.5 891.5,-235.5 804.5,-235.5"/>
<text text-anchor="middle" x="848" y="-242.5" font-family="Helvetica,sans-Serif" font-size="10.00">DMA/DMA.hpp</text>
</a>
</g>
</g>
<!-- Node20&#45;&gt;Node26 -->
<g id="edge50" class="edge">
<title>Node20&#45;&gt;Node26</title>
<path fill="none" stroke="midnightblue" d="M1063.89,-296.98C1019.17,-286.42 942.92,-268.41 894.03,-256.87"/>
<polygon fill="midnightblue" stroke="midnightblue" points="894.58,-253.4 884.04,-254.51 892.97,-260.21 894.58,-253.4"/>
</g>
<!-- Node21&#45;&gt;Node10 -->
<g id="edge39" class="edge">
<title>Node21&#45;&gt;Node10</title>
<path fill="none" stroke="midnightblue" d="M1269.37,-235.24C1265.85,-219.05 1255.95,-184.6 1233,-168 1146.09,-105.14 1098.9,-146.98 987.95,-131.98"/>
<polygon fill="midnightblue" stroke="midnightblue" points="988.14,-128.47 977.73,-130.47 987.11,-135.4 988.14,-128.47"/>
</g>
<!-- Node21&#45;&gt;Node11 -->
<g id="edge38" class="edge">
<title>Node21&#45;&gt;Node11</title>
<path fill="none" stroke="midnightblue" d="M1275.06,-235.46C1281.25,-221.27 1291.65,-192.05 1285,-168 1269.34,-111.36 1227.23,-54.6 1205.07,-27.47"/>
<polygon fill="midnightblue" stroke="midnightblue" points="1207.73,-25.18 1198.64,-19.74 1202.35,-29.66 1207.73,-25.18"/>
</g>
<!-- Node21&#45;&gt;Node12 -->
<g id="edge40" class="edge">
<title>Node21&#45;&gt;Node12</title>
<path fill="none" stroke="midnightblue" d="M1341.24,-238.31C1395.26,-232.3 1463.54,-220.6 1481,-199 1506.93,-166.93 1513.38,-117.13 1455,-56 1430.53,-30.37 1392.72,-18.98 1360,-14.06"/>
<polygon fill="midnightblue" stroke="midnightblue" points="1360.4,-10.58 1350.03,-12.73 1359.48,-17.52 1360.4,-10.58"/>
</g>
<!-- Node22 -->
<g id="node22" class="node">
<title>Node22</title>
<g id="a_node22"><a xlink:href="ARectangleMemory_8hpp.html" target="_top" xlink:title=" ">
<polygon fill="white" stroke="black" points="995.5,-112.5 995.5,-131.5 1180.5,-131.5 1180.5,-112.5 995.5,-112.5"/>
<text text-anchor="middle" x="1088" y="-119.5" font-family="Helvetica,sans-Serif" font-size="10.00">../Memory/ARectangleMemory.hpp</text>
</a>
</g>
</g>
<!-- Node21&#45;&gt;Node22 -->
<g id="edge41" class="edge">
<title>Node21&#45;&gt;Node22</title>
<path fill="none" stroke="midnightblue" d="M1273.38,-235.3C1277.04,-219.82 1282.08,-187.31 1266,-168 1252.64,-151.96 1206.34,-140.55 1164.32,-133.23"/>
<polygon fill="midnightblue" stroke="midnightblue" points="1164.75,-129.76 1154.31,-131.55 1163.59,-136.66 1164.75,-129.76"/>
</g>
<!-- Node23 -->
<g id="node23" class="node">
<title>Node23</title>
<g id="a_node23"><a xlink:href="InterruptVectors_8hpp.html" target="_top" xlink:title=" ">
<polygon fill="white" stroke="black" points="1356,-174 1356,-193 1472,-193 1472,-174 1356,-174"/>
<text text-anchor="middle" x="1414" y="-181" font-family="Helvetica,sans-Serif" font-size="10.00">InterruptVectors.hpp</text>
</a>
</g>
</g>
<!-- Node21&#45;&gt;Node23 -->
<g id="edge43" class="edge">
<title>Node21&#45;&gt;Node23</title>
<path fill="none" stroke="midnightblue" d="M1291.49,-235.48C1315.81,-225.36 1356.55,-208.4 1384.32,-196.85"/>
<polygon fill="midnightblue" stroke="midnightblue" points="1385.66,-200.08 1393.55,-193.01 1382.97,-193.62 1385.66,-200.08"/>
</g>
<!-- Node21&#45;&gt;Node24 -->
<g id="edge44" class="edge">
<title>Node21&#45;&gt;Node24</title>
<path fill="none" stroke="midnightblue" d="M1257.39,-235.48C1241.94,-225.8 1216.51,-209.87 1198.18,-198.39"/>
<polygon fill="midnightblue" stroke="midnightblue" points="1199.92,-195.35 1189.59,-193.01 1196.2,-201.28 1199.92,-195.35"/>
</g>
<!-- Node22&#45;&gt;Node14 -->
<g id="edge42" class="edge">
<title>Node22&#45;&gt;Node14</title>
<path fill="none" stroke="midnightblue" d="M1081.23,-112.08C1075.44,-104.46 1066.94,-93.26 1059.86,-83.94"/>
<polygon fill="midnightblue" stroke="midnightblue" points="1062.48,-81.6 1053.64,-75.75 1056.9,-85.83 1062.48,-81.6"/>
</g>
<!-- Node24&#45;&gt;Node11 -->
<g id="edge46" class="edge">
<title>Node24&#45;&gt;Node11</title>
<path fill="none" stroke="midnightblue" d="M1179.2,-173.71C1182.64,-163.75 1187.9,-146.96 1190,-132 1195.04,-96.06 1193.73,-53.53 1192.35,-29.67"/>
<polygon fill="midnightblue" stroke="midnightblue" points="1195.84,-29.32 1191.69,-19.57 1188.85,-29.77 1195.84,-29.32"/>
</g>
<!-- Node24&#45;&gt;Node22 -->
<g id="edge45" class="edge">
<title>Node24&#45;&gt;Node22</title>
<path fill="none" stroke="midnightblue" d="M1163.39,-173.98C1149.28,-164.43 1126.17,-148.81 1109.25,-137.37"/>
<polygon fill="midnightblue" stroke="midnightblue" points="1110.83,-134.21 1100.58,-131.51 1106.91,-140.01 1110.83,-134.21"/>
</g>
<!-- Node25&#45;&gt;Node11 -->
<g id="edge48" class="edge">
<title>Node25&#45;&gt;Node11</title>
<path fill="none" stroke="midnightblue" d="M1367.72,-56.44C1328.02,-46.23 1262.1,-29.28 1222.98,-19.22"/>
<polygon fill="midnightblue" stroke="midnightblue" points="1223.72,-15.8 1213.17,-16.7 1221.98,-22.58 1223.72,-15.8"/>
</g>
<!-- Node25&#45;&gt;Node12 -->
<g id="edge49" class="edge">
<title>Node25&#45;&gt;Node12</title>
<path fill="none" stroke="midnightblue" d="M1383.97,-56.32C1366.97,-47.66 1340.62,-34.24 1321.01,-24.25"/>
<polygon fill="midnightblue" stroke="midnightblue" points="1322.49,-21.08 1311.99,-19.65 1319.31,-27.31 1322.49,-21.08"/>
</g>
<!-- Node26&#45;&gt;Node6 -->
<g id="edge54" class="edge">
<title>Node26&#45;&gt;Node6</title>
<path fill="none" stroke="midnightblue" d="M804.4,-239.66C696.22,-228.89 422.73,-201.6 403,-199 401.73,-198.83 400.46,-198.66 399.18,-198.49"/>
<polygon fill="midnightblue" stroke="midnightblue" points="399.61,-195.01 389.22,-197.08 398.63,-201.94 399.61,-195.01"/>
</g>
<!-- Node26&#45;&gt;Node7 -->
<g id="edge51" class="edge">
<title>Node26&#45;&gt;Node7</title>
<path fill="none" stroke="midnightblue" d="M804.35,-239.51C707.23,-229.43 480.54,-205.38 465,-199 420.17,-180.61 400.27,-175.53 379,-132 359.84,-92.79 401.99,-48.73 428.52,-26.14"/>
<polygon fill="midnightblue" stroke="midnightblue" points="430.98,-28.65 436.49,-19.6 426.54,-23.24 430.98,-28.65"/>
</g>
<!-- Node26&#45;&gt;Node9 -->
<g id="edge52" class="edge">
<title>Node26&#45;&gt;Node9</title>
<path fill="none" stroke="midnightblue" d="M804.39,-236.52C782.63,-230.35 758.2,-219.17 745,-199 709.1,-144.13 753.75,-63.35 776.82,-28.29"/>
<polygon fill="midnightblue" stroke="midnightblue" points="779.94,-29.91 782.66,-19.67 774.15,-25.98 779.94,-29.91"/>
</g>
<!-- Node26&#45;&gt;Node12 -->
<g id="edge53" class="edge">
<title>Node26&#45;&gt;Node12</title>
<path fill="none" stroke="midnightblue" d="M891.68,-236.52C931.67,-229.07 992.17,-216.25 1043,-199 1060,-193.23 1175.62,-142.75 1190,-132 1230.3,-101.88 1266.07,-53.91 1283.6,-28.36"/>
<polygon fill="midnightblue" stroke="midnightblue" points="1286.71,-30 1289.39,-19.74 1280.9,-26.09 1286.71,-30"/>
</g>
<!-- Node27&#45;&gt;Node6 -->
<g id="edge60" class="edge">
<title>Node27&#45;&gt;Node6</title>
<path fill="none" stroke="midnightblue" d="M521.33,-235.48C484.8,-226.49 426.37,-212.13 380.84,-200.93"/>
<polygon fill="midnightblue" stroke="midnightblue" points="381.58,-197.51 371.03,-198.52 379.91,-204.31 381.58,-197.51"/>
</g>
<!-- Node27&#45;&gt;Node7 -->
<g id="edge58" class="edge">
<title>Node27&#45;&gt;Node7</title>
<path fill="none" stroke="midnightblue" d="M515.83,-244.7C437.03,-245.13 266.64,-241.05 230,-199 190.04,-153.15 219.9,-114.46 294,-56 328.53,-28.76 379.06,-18 412.71,-13.76"/>
<polygon fill="midnightblue" stroke="midnightblue" points="413.45,-17.2 423,-12.6 412.67,-10.24 413.45,-17.2"/>
</g>
<!-- Node27&#45;&gt;Node10 -->
<g id="edge59" class="edge">
<title>Node27&#45;&gt;Node10</title>
<path fill="none" stroke="midnightblue" d="M596.12,-238.83C669.3,-229.22 818.97,-208.72 841,-199 873.17,-184.8 903.68,-156.92 921.08,-139.17"/>
<polygon fill="midnightblue" stroke="midnightblue" points="923.74,-141.45 928.11,-131.8 918.67,-136.62 923.74,-141.45"/>
</g>
<!-- Node27&#45;&gt;Node17 -->
<g id="edge61" class="edge">
<title>Node27&#45;&gt;Node17</title>
<path fill="none" stroke="midnightblue" d="M570.33,-235.48C586.66,-225.75 613.6,-209.73 632.91,-198.24"/>
<polygon fill="midnightblue" stroke="midnightblue" points="634.89,-201.13 641.7,-193.01 631.32,-195.11 634.89,-201.13"/>
</g>
<!-- Node27&#45;&gt;Node24 -->
<g id="edge62" class="edge">
<title>Node27&#45;&gt;Node24</title>
<path fill="none" stroke="midnightblue" d="M596.29,-239.78C611.27,-238.23 628.41,-236.5 644,-235 821.23,-217.94 865.82,-216.65 1043,-199 1067.66,-196.54 1094.87,-193.62 1118.22,-191.04"/>
<polygon fill="midnightblue" stroke="midnightblue" points="1118.76,-194.5 1128.32,-189.92 1117.99,-187.54 1118.76,-194.5"/>
</g>
<!-- Node28 -->
<g id="node28" class="node">
<title>Node28</title>
<g id="a_node28"><a xlink:href="Vector2_8hpp.html" target="_top" xlink:title=" ">
<polygon fill="white" stroke="black" points="474,-174 474,-193 596,-193 596,-174 474,-174"/>
<text text-anchor="middle" x="535" y="-181" font-family="Helvetica,sans-Serif" font-size="10.00">../Models/Vector2.hpp</text>
</a>
</g>
</g>
<!-- Node27&#45;&gt;Node28 -->
<g id="edge63" class="edge">
<title>Node27&#45;&gt;Node28</title>
<path fill="none" stroke="midnightblue" d="M552.99,-235.48C549.97,-226.9 545.21,-213.43 541.35,-202.48"/>
<polygon fill="midnightblue" stroke="midnightblue" points="544.63,-201.27 538,-193.01 538.03,-203.6 544.63,-201.27"/>
</g>
<!-- Node29 -->
<g id="node29" class="node">
<title>Node29</title>
<g id="a_node29"><a xlink:title=" ">
<polygon fill="white" stroke="#bfbfbf" points="548.5,-112.5 548.5,-131.5 605.5,-131.5 605.5,-112.5 548.5,-112.5"/>
<text text-anchor="middle" x="577" y="-119.5" font-family="Helvetica,sans-Serif" font-size="10.00">ostream</text>
</a>
</g>
</g>
<!-- Node28&#45;&gt;Node29 -->
<g id="edge64" class="edge">
<title>Node28&#45;&gt;Node29</title>
<path fill="none" stroke="midnightblue" d="M541.02,-173.98C547.26,-165.14 557.17,-151.09 565.02,-139.98"/>
<polygon fill="midnightblue" stroke="midnightblue" points="568.09,-141.7 570.99,-131.51 562.37,-137.66 568.09,-141.7"/>
</g>
<!-- Node30 -->
<g id="node30" class="node">
<title>Node30</title>
<g id="a_node30"><a xlink:title=" ">
<polygon fill="white" stroke="#bfbfbf" points="387.5,-112.5 387.5,-131.5 530.5,-131.5 530.5,-112.5 387.5,-112.5"/>
<text text-anchor="middle" x="459" y="-119.5" font-family="Helvetica,sans-Serif" font-size="10.00">SFML/System/Vector2.hpp</text>
</a>
</g>
</g>
<!-- Node28&#45;&gt;Node30 -->
<g id="edge65" class="edge">
<title>Node28&#45;&gt;Node30</title>
<path fill="none" stroke="midnightblue" d="M524.11,-173.98C512.03,-164.52 492.33,-149.1 477.76,-137.69"/>
<polygon fill="midnightblue" stroke="midnightblue" points="479.9,-134.92 469.87,-131.51 475.59,-140.43 479.9,-134.92"/>
</g>
<!-- Node31&#45;&gt;Node9 -->
<g id="edge67" class="edge">
<title>Node31&#45;&gt;Node9</title>
<path fill="none" stroke="midnightblue" d="M944.08,-235.43C920.51,-201.33 833.11,-74.84 800.97,-28.32"/>
<polygon fill="midnightblue" stroke="midnightblue" points="803.71,-26.13 795.15,-19.9 797.95,-30.11 803.71,-26.13"/>
</g>
<!-- Node31&#45;&gt;Node10 -->
<g id="edge72" class="edge">
<title>Node31&#45;&gt;Node10</title>
<path fill="none" stroke="midnightblue" d="M948.99,-235.3C946.74,-215.85 941.26,-168.49 938.19,-141.9"/>
<polygon fill="midnightblue" stroke="midnightblue" points="941.62,-141.15 937,-131.62 934.67,-141.96 941.62,-141.15"/>
</g>
<!-- Node31&#45;&gt;Node17 -->
<g id="edge76" class="edge">
<title>Node31&#45;&gt;Node17</title>
<path fill="none" stroke="midnightblue" d="M909.43,-235.79C856.97,-225.17 765.55,-206.67 708.03,-195.03"/>
<polygon fill="midnightblue" stroke="midnightblue" points="708.55,-191.56 698.05,-193.01 707.16,-198.43 708.55,-191.56"/>
</g>
<!-- Node31&#45;&gt;Node24 -->
<g id="edge73" class="edge">
<title>Node31&#45;&gt;Node24</title>
<path fill="none" stroke="midnightblue" d="M982.38,-235.48C1022.24,-224.98 1090.02,-207.14 1133.89,-195.59"/>
<polygon fill="midnightblue" stroke="midnightblue" points="1134.9,-198.94 1143.68,-193.01 1133.12,-192.17 1134.9,-198.94"/>
</g>
<!-- Node32 -->
<g id="node32" class="node">
<title>Node32</title>
<g id="a_node32"><a xlink:href="DSP_8hpp.html" target="_top" xlink:title=" ">
<polygon fill="white" stroke="black" points="754,-174 754,-193 832,-193 832,-174 754,-174"/>
<text text-anchor="middle" x="793" y="-181" font-family="Helvetica,sans-Serif" font-size="10.00">DSP/DSP.hpp</text>
</a>
</g>
</g>
<!-- Node31&#45;&gt;Node32 -->
<g id="edge68" class="edge">
<title>Node31&#45;&gt;Node32</title>
<path fill="none" stroke="midnightblue" d="M927.51,-235.48C900.69,-225.31 855.68,-208.26 825.19,-196.7"/>
<polygon fill="midnightblue" stroke="midnightblue" points="826.04,-193.28 815.45,-193.01 823.56,-199.83 826.04,-193.28"/>
</g>
<!-- Node34 -->
<g id="node34" class="node">
<title>Node34</title>
<g id="a_node34"><a xlink:href="IPL_8hpp.html" target="_top" xlink:title=" ">
<polygon fill="white" stroke="black" points="964.5,-174 964.5,-193 1033.5,-193 1033.5,-174 964.5,-174"/>
<text text-anchor="middle" x="999" y="-181" font-family="Helvetica,sans-Serif" font-size="10.00">IPL/IPL.hpp</text>
</a>
</g>
</g>
<!-- Node31&#45;&gt;Node34 -->
<g id="edge74" class="edge">
<title>Node31&#45;&gt;Node34</title>
<path fill="none" stroke="midnightblue" d="M957.02,-235.48C964.44,-226.46 976.33,-212.02 985.57,-200.81"/>
<polygon fill="midnightblue" stroke="midnightblue" points="988.34,-202.95 991.99,-193.01 982.93,-198.5 988.34,-202.95"/>
</g>
<!-- Node32&#45;&gt;Node7 -->
<g id="edge69" class="edge">
<title>Node32&#45;&gt;Node7</title>
<path fill="none" stroke="midnightblue" d="M779.59,-173.97C757.7,-160.19 712.72,-132.51 673,-112 605.05,-76.92 522.41,-41.63 478.64,-23.5"/>
<polygon fill="midnightblue" stroke="midnightblue" points="479.72,-20.16 469.14,-19.58 477.05,-26.63 479.72,-20.16"/>
</g>
<!-- Node32&#45;&gt;Node10 -->
<g id="edge71" class="edge">
<title>Node32&#45;&gt;Node10</title>
<path fill="none" stroke="midnightblue" d="M813.49,-173.98C837.81,-163.86 878.55,-146.9 906.32,-135.35"/>
<polygon fill="midnightblue" stroke="midnightblue" points="907.66,-138.58 915.55,-131.51 904.97,-132.12 907.66,-138.58"/>
</g>
<!-- Node33 -->
<g id="node33" class="node">
<title>Node33</title>
<g id="a_node33"><a xlink:title=" ">
<polygon fill="white" stroke="#bfbfbf" points="796,-112.5 796,-131.5 838,-131.5 838,-112.5 796,-112.5"/>
<text text-anchor="middle" x="817" y="-119.5" font-family="Helvetica,sans-Serif" font-size="10.00">array</text>
</a>
</g>
</g>
<!-- Node32&#45;&gt;Node33 -->
<g id="edge70" class="edge">
<title>Node32&#45;&gt;Node33</title>
<path fill="none" stroke="midnightblue" d="M796.44,-173.98C799.9,-165.4 805.33,-151.93 809.75,-140.98"/>
<polygon fill="midnightblue" stroke="midnightblue" points="813.07,-142.09 813.57,-131.51 806.58,-139.47 813.07,-142.09"/>
</g>
<!-- Node34&#45;&gt;Node10 -->
<g id="edge75" class="edge">
<title>Node34&#45;&gt;Node10</title>
<path fill="none" stroke="midnightblue" d="M989.97,-173.98C980.24,-164.78 964.54,-149.96 952.58,-138.66"/>
<polygon fill="midnightblue" stroke="midnightblue" points="954.68,-135.83 945.01,-131.51 949.88,-140.92 954.68,-135.83"/>
</g>
<!-- Node36 -->
<g id="node36" class="node">
<title>Node36</title>
<g id="a_node36"><a xlink:title=" ">
<polygon fill="white" stroke="#bfbfbf" points="652.5,-235.5 652.5,-254.5 747.5,-254.5 747.5,-235.5 652.5,-235.5"/>
<text text-anchor="middle" x="700" y="-242.5" font-family="Helvetica,sans-Serif" font-size="10.00">bits/exception.h</text>
</a>
</g>
</g>
<!-- Node35&#45;&gt;Node36 -->
<g id="edge79" class="edge">
<title>Node35&#45;&gt;Node36</title>
<path fill="none" stroke="midnightblue" d="M676.01,-296.98C680.09,-288.32 686.52,-274.65 691.7,-263.65"/>
<polygon fill="midnightblue" stroke="midnightblue" points="694.9,-265.05 696,-254.51 688.57,-262.07 694.9,-265.05"/>
</g>
</g>
</svg>
