<?xml version="1.0" encoding="UTF-8" standalone="no"?>
<!DOCTYPE svg PUBLIC "-//W3C//DTD SVG 1.1//EN"
 "http://www.w3.org/Graphics/SVG/1.1/DTD/svg11.dtd">
<!-- Generated by graphviz version 2.43.0 (0)
 -->
<!-- Title: tests/testMemoryBus.cpp Pages: 1 -->
<svg width="1720pt" height="520pt"
 viewBox="0.00 0.00 1719.50 520.00" xmlns="http://www.w3.org/2000/svg" xmlns:xlink="http://www.w3.org/1999/xlink">
<g id="graph0" class="graph" transform="scale(1 1) rotate(0) translate(4 516)">
<title>tests/testMemoryBus.cpp</title>
<polygon fill="white" stroke="transparent" points="-4,4 -4,-516 1715.5,-516 1715.5,4 -4,4"/>
<!-- Node1 -->
<g id="node1" class="node">
<title>Node1</title>
<g id="a_node1"><a xlink:title=" ">
<polygon fill="#bfbfbf" stroke="black" points="725.5,-492.5 725.5,-511.5 866.5,-511.5 866.5,-492.5 725.5,-492.5"/>
<text text-anchor="middle" x="796" y="-499.5" font-family="Helvetica,sans-Serif" font-size="10.00">tests/testMemoryBus.cpp</text>
</a>
</g>
</g>
<!-- Node2 -->
<g id="node2" class="node">
<title>Node2</title>
<g id="a_node2"><a xlink:title=" ">
<polygon fill="white" stroke="#bfbfbf" points="510,-375 510,-394 620,-394 620,-375 510,-375"/>
<text text-anchor="middle" x="565" y="-382" font-family="Helvetica,sans-Serif" font-size="10.00">criterion/criterion.h</text>
</a>
</g>
</g>
<!-- Node1&#45;&gt;Node2 -->
<g id="edge1" class="edge">
<title>Node1&#45;&gt;Node2</title>
<path fill="none" stroke="midnightblue" d="M725.58,-492.49C675.19,-485.11 612.89,-472.94 593,-456 577.68,-442.96 570.68,-420.38 567.52,-404.29"/>
<polygon fill="midnightblue" stroke="midnightblue" points="570.96,-403.68 565.89,-394.38 564.06,-404.82 570.96,-403.68"/>
</g>
<!-- Node3 -->
<g id="node3" class="node">
<title>Node3</title>
<g id="a_node3"><a xlink:title=" ">
<polygon fill="white" stroke="#bfbfbf" points="601.5,-436.5 601.5,-455.5 708.5,-455.5 708.5,-436.5 601.5,-436.5"/>
<text text-anchor="middle" x="655" y="-443.5" font-family="Helvetica,sans-Serif" font-size="10.00">criterion/redirect.h</text>
</a>
</g>
</g>
<!-- Node1&#45;&gt;Node3 -->
<g id="edge2" class="edge">
<title>Node1&#45;&gt;Node3</title>
<path fill="none" stroke="midnightblue" d="M773.66,-492.44C750.25,-483.48 713.26,-469.31 686.81,-459.18"/>
<polygon fill="midnightblue" stroke="midnightblue" points="687.83,-455.82 677.24,-455.52 685.32,-462.36 687.83,-455.82"/>
</g>
<!-- Node4 -->
<g id="node4" class="node">
<title>Node4</title>
<g id="a_node4"><a xlink:title=" ">
<polygon fill="white" stroke="#bfbfbf" points="638,-375 638,-394 698,-394 698,-375 638,-375"/>
<text text-anchor="middle" x="668" y="-382" font-family="Helvetica,sans-Serif" font-size="10.00">iostream</text>
</a>
</g>
</g>
<!-- Node1&#45;&gt;Node4 -->
<g id="edge3" class="edge">
<title>Node1&#45;&gt;Node4</title>
<path fill="none" stroke="midnightblue" d="M786.38,-492.32C764.88,-472.92 712.7,-425.83 685.36,-401.16"/>
<polygon fill="midnightblue" stroke="midnightblue" points="687.5,-398.38 677.73,-394.28 682.81,-403.58 687.5,-398.38"/>
</g>
<!-- Node5 -->
<g id="node5" class="node">
<title>Node5</title>
<g id="a_node5"><a xlink:href="tests_8hpp.html" target="_top" xlink:title=" ">
<polygon fill="white" stroke="black" points="765,-436.5 765,-455.5 827,-455.5 827,-436.5 765,-436.5"/>
<text text-anchor="middle" x="796" y="-443.5" font-family="Helvetica,sans-Serif" font-size="10.00">tests.hpp</text>
</a>
</g>
</g>
<!-- Node1&#45;&gt;Node5 -->
<g id="edge4" class="edge">
<title>Node1&#45;&gt;Node5</title>
<path fill="none" stroke="midnightblue" d="M796,-492.08C796,-485.01 796,-474.86 796,-465.99"/>
<polygon fill="midnightblue" stroke="midnightblue" points="799.5,-465.75 796,-455.75 792.5,-465.75 799.5,-465.75"/>
</g>
<!-- Node37 -->
<g id="node37" class="node">
<title>Node37</title>
<g id="a_node37"><a xlink:href="MemoryShadow_8hpp.html" target="_top" xlink:title=" ">
<polygon fill="white" stroke="black" points="1440,-168.5 1440,-198.5 1590,-198.5 1590,-168.5 1440,-168.5"/>
<text text-anchor="start" x="1448" y="-186.5" font-family="Helvetica,sans-Serif" font-size="10.00">../sources/Memory/Memory</text>
<text text-anchor="middle" x="1515" y="-175.5" font-family="Helvetica,sans-Serif" font-size="10.00">Shadow.hpp</text>
</a>
</g>
</g>
<!-- Node1&#45;&gt;Node37 -->
<g id="edge80" class="edge">
<title>Node1&#45;&gt;Node37</title>
<path fill="none" stroke="midnightblue" d="M866.71,-497.24C1050.67,-486.53 1530,-452.22 1530,-385.5 1530,-385.5 1530,-385.5 1530,-316.5 1530,-278.59 1523.82,-234.95 1519.39,-208.56"/>
<polygon fill="midnightblue" stroke="midnightblue" points="1522.84,-207.95 1517.68,-198.7 1515.94,-209.15 1522.84,-207.95"/>
</g>
<!-- Node38 -->
<g id="node38" class="node">
<title>Node38</title>
<g id="a_node38"><a xlink:href="RectangleShadow_8hpp.html" target="_top" xlink:title=" ">
<polygon fill="white" stroke="black" points="1230,-235.5 1230,-265.5 1388,-265.5 1388,-235.5 1230,-235.5"/>
<text text-anchor="start" x="1238" y="-253.5" font-family="Helvetica,sans-Serif" font-size="10.00">../sources/Memory/Rectangle</text>
<text text-anchor="middle" x="1309" y="-242.5" font-family="Helvetica,sans-Serif" font-size="10.00">Shadow.hpp</text>
</a>
</g>
</g>
<!-- Node1&#45;&gt;Node38 -->
<g id="edge83" class="edge">
<title>Node1&#45;&gt;Node38</title>
<path fill="none" stroke="midnightblue" d="M864.1,-492.45C963.15,-476.84 1147.99,-435.32 1266,-333 1283.66,-317.69 1295.17,-293.3 1301.8,-275.19"/>
<polygon fill="midnightblue" stroke="midnightblue" points="1305.15,-276.21 1305.06,-265.62 1298.52,-273.95 1305.15,-276.21"/>
</g>
<!-- Node39 -->
<g id="node39" class="node">
<title>Node39</title>
<g id="a_node39"><a xlink:href="InvalidAction_8hpp.html" target="_top" xlink:title=" ">
<polygon fill="white" stroke="black" points="1558.5,-369.5 1558.5,-399.5 1677.5,-399.5 1677.5,-369.5 1558.5,-369.5"/>
<text text-anchor="start" x="1566.5" y="-387.5" font-family="Helvetica,sans-Serif" font-size="10.00">../sources/Exceptions</text>
<text text-anchor="middle" x="1618" y="-376.5" font-family="Helvetica,sans-Serif" font-size="10.00">/InvalidAction.hpp</text>
</a>
</g>
</g>
<!-- Node1&#45;&gt;Node39 -->
<g id="edge87" class="edge">
<title>Node1&#45;&gt;Node39</title>
<path fill="none" stroke="midnightblue" d="M866.59,-499.51C1041.07,-495.43 1482.94,-482.58 1544,-456 1567.69,-445.69 1588.37,-424.29 1601.8,-407.77"/>
<polygon fill="midnightblue" stroke="midnightblue" points="1604.75,-409.68 1608.14,-399.65 1599.23,-405.38 1604.75,-409.68"/>
</g>
<!-- Node5&#45;&gt;Node2 -->
<g id="edge23" class="edge">
<title>Node5&#45;&gt;Node2</title>
<path fill="none" stroke="midnightblue" d="M764.85,-436.98C724.43,-426.57 653.72,-408.35 608.15,-396.62"/>
<polygon fill="midnightblue" stroke="midnightblue" points="608.83,-393.17 598.27,-394.07 607.08,-399.95 608.83,-393.17"/>
</g>
<!-- Node5&#45;&gt;Node4 -->
<g id="edge24" class="edge">
<title>Node5&#45;&gt;Node4</title>
<path fill="none" stroke="midnightblue" d="M777.66,-436.48C756.18,-426.49 720.38,-409.85 695.55,-398.31"/>
<polygon fill="midnightblue" stroke="midnightblue" points="696.85,-395.05 686.31,-394.01 693.9,-401.4 696.85,-395.05"/>
</g>
<!-- Node5&#45;&gt;Node5 -->
<g id="edge26" class="edge">
<title>Node5&#45;&gt;Node5</title>
<path fill="none" stroke="midnightblue" d="M816.9,-455.53C831.1,-458.31 845,-455.13 845,-446 845,-439.08 837.02,-435.58 826.97,-435.5"/>
<polygon fill="midnightblue" stroke="midnightblue" points="826.52,-432.03 816.9,-436.47 827.19,-439 826.52,-432.03"/>
</g>
<!-- Node6 -->
<g id="node6" class="node">
<title>Node6</title>
<g id="a_node6"><a xlink:href="MemoryBus_8hpp.html" target="_top" xlink:title=" ">
<polygon fill="white" stroke="black" points="218,-168.5 218,-198.5 368,-198.5 368,-168.5 218,-168.5"/>
<text text-anchor="start" x="226" y="-186.5" font-family="Helvetica,sans-Serif" font-size="10.00">../sources/Memory/Memory</text>
<text text-anchor="middle" x="293" y="-175.5" font-family="Helvetica,sans-Serif" font-size="10.00">Bus.hpp</text>
</a>
</g>
</g>
<!-- Node5&#45;&gt;Node6 -->
<g id="edge5" class="edge">
<title>Node5&#45;&gt;Node6</title>
<path fill="none" stroke="midnightblue" d="M796.77,-436.28C797.67,-420.17 796.96,-385.84 777,-369 695.91,-300.61 375.19,-408.82 301,-333 268.9,-300.2 277.52,-241.35 285.79,-208.44"/>
<polygon fill="midnightblue" stroke="midnightblue" points="289.18,-209.3 288.41,-198.73 282.43,-207.48 289.18,-209.3"/>
</g>
<!-- Node15 -->
<g id="node15" class="node">
<title>Node15</title>
<g id="a_node15"><a xlink:title=" ">
<polygon fill="white" stroke="#bfbfbf" points="716.5,-375 716.5,-394 767.5,-394 767.5,-375 716.5,-375"/>
<text text-anchor="middle" x="742" y="-382" font-family="Helvetica,sans-Serif" font-size="10.00">zconf.h</text>
</a>
</g>
</g>
<!-- Node5&#45;&gt;Node15 -->
<g id="edge25" class="edge">
<title>Node5&#45;&gt;Node15</title>
<path fill="none" stroke="midnightblue" d="M788.26,-436.48C780,-427.37 766.72,-412.74 756.51,-401.48"/>
<polygon fill="midnightblue" stroke="midnightblue" points="759.03,-399.06 749.72,-394.01 753.85,-403.77 759.03,-399.06"/>
</g>
<!-- Node16 -->
<g id="node16" class="node">
<title>Node16</title>
<g id="a_node16"><a xlink:href="NoRenderer_8hpp.html" target="_top" xlink:title=" ">
<polygon fill="white" stroke="black" points="1147,-302.5 1147,-332.5 1257,-332.5 1257,-302.5 1147,-302.5"/>
<text text-anchor="start" x="1155" y="-320.5" font-family="Helvetica,sans-Serif" font-size="10.00">../sources/Renderer</text>
<text text-anchor="middle" x="1202" y="-309.5" font-family="Helvetica,sans-Serif" font-size="10.00">/NoRenderer.hpp</text>
</a>
</g>
</g>
<!-- Node5&#45;&gt;Node16 -->
<g id="edge27" class="edge">
<title>Node5&#45;&gt;Node16</title>
<path fill="none" stroke="midnightblue" d="M825.28,-436.46C855.74,-427.53 904.79,-413.03 947,-400 1017.09,-378.36 1097.68,-352.42 1149.18,-335.72"/>
<polygon fill="midnightblue" stroke="midnightblue" points="1150.34,-339.02 1158.77,-332.6 1148.18,-332.36 1150.34,-339.02"/>
</g>
<!-- Node19 -->
<g id="node19" class="node">
<title>Node19</title>
<g id="a_node19"><a xlink:href="SNES_8hpp.html" target="_top" xlink:title=" ">
<polygon fill="white" stroke="black" points="824.5,-375 824.5,-394 937.5,-394 937.5,-375 824.5,-375"/>
<text text-anchor="middle" x="881" y="-382" font-family="Helvetica,sans-Serif" font-size="10.00">../sources/SNES.hpp</text>
</a>
</g>
</g>
<!-- Node5&#45;&gt;Node19 -->
<g id="edge31" class="edge">
<title>Node5&#45;&gt;Node19</title>
<path fill="none" stroke="midnightblue" d="M808.18,-436.48C821.81,-426.93 844.13,-411.31 860.47,-399.87"/>
<polygon fill="midnightblue" stroke="midnightblue" points="862.66,-402.61 868.84,-394.01 858.64,-396.88 862.66,-402.61"/>
</g>
<!-- Node7 -->
<g id="node7" class="node">
<title>Node7</title>
<g id="a_node7"><a xlink:title=" ">
<polygon fill="white" stroke="#bfbfbf" points="443,-0.5 443,-19.5 493,-19.5 493,-0.5 443,-0.5"/>
<text text-anchor="middle" x="468" y="-7.5" font-family="Helvetica,sans-Serif" font-size="10.00">cstdint</text>
</a>
</g>
</g>
<!-- Node6&#45;&gt;Node7 -->
<g id="edge6" class="edge">
<title>Node6&#45;&gt;Node7</title>
<path fill="none" stroke="midnightblue" d="M296.98,-168.36C304.89,-142.66 324.92,-87.98 360,-56 380.53,-37.28 409.95,-25.72 432.9,-19.01"/>
<polygon fill="midnightblue" stroke="midnightblue" points="433.89,-22.37 442.61,-16.34 432.04,-15.62 433.89,-22.37"/>
</g>
<!-- Node8 -->
<g id="node8" class="node">
<title>Node8</title>
<g id="a_node8"><a xlink:title=" ">
<polygon fill="white" stroke="#bfbfbf" points="534.5,-0.5 534.5,-19.5 581.5,-19.5 581.5,-0.5 534.5,-0.5"/>
<text text-anchor="middle" x="558" y="-7.5" font-family="Helvetica,sans-Serif" font-size="10.00">vector</text>
</a>
</g>
</g>
<!-- Node6&#45;&gt;Node8 -->
<g id="edge7" class="edge">
<title>Node6&#45;&gt;Node8</title>
<path fill="none" stroke="midnightblue" d="M314.69,-168.47C364.49,-136.23 486.59,-57.21 536.36,-25.01"/>
<polygon fill="midnightblue" stroke="midnightblue" points="538.28,-27.93 544.77,-19.56 534.48,-22.05 538.28,-27.93"/>
</g>
<!-- Node9 -->
<g id="node9" class="node">
<title>Node9</title>
<g id="a_node9"><a xlink:title=" ">
<polygon fill="white" stroke="#bfbfbf" points="1127,-0.5 1127,-19.5 1185,-19.5 1185,-0.5 1127,-0.5"/>
<text text-anchor="middle" x="1156" y="-7.5" font-family="Helvetica,sans-Serif" font-size="10.00">memory</text>
</a>
</g>
</g>
<!-- Node6&#45;&gt;Node9 -->
<g id="edge8" class="edge">
<title>Node6&#45;&gt;Node9</title>
<path fill="none" stroke="midnightblue" d="M332.66,-168.42C377.96,-152.78 454.54,-127.68 522,-112 637.13,-85.25 996.68,-33.49 1116.62,-16.53"/>
<polygon fill="midnightblue" stroke="midnightblue" points="1117.4,-19.96 1126.81,-15.09 1116.42,-13.03 1117.4,-19.96"/>
</g>
<!-- Node10 -->
<g id="node10" class="node">
<title>Node10</title>
<g id="a_node10"><a xlink:href="AMemory_8hpp.html" target="_top" xlink:title=" ">
<polygon fill="white" stroke="black" points="766.5,-112.5 766.5,-131.5 849.5,-131.5 849.5,-112.5 766.5,-112.5"/>
<text text-anchor="middle" x="808" y="-119.5" font-family="Helvetica,sans-Serif" font-size="10.00">AMemory.hpp</text>
</a>
</g>
</g>
<!-- Node6&#45;&gt;Node10 -->
<g id="edge9" class="edge">
<title>Node6&#45;&gt;Node10</title>
<path fill="none" stroke="midnightblue" d="M368.21,-169.89C372.87,-169.22 377.5,-168.58 382,-168 545.24,-146.91 589.96,-154.57 756.22,-132.15"/>
<polygon fill="midnightblue" stroke="midnightblue" points="756.86,-135.59 766.3,-130.77 755.92,-128.66 756.86,-135.59"/>
</g>
<!-- Node10&#45;&gt;Node7 -->
<g id="edge10" class="edge">
<title>Node10&#45;&gt;Node7</title>
<path fill="none" stroke="midnightblue" d="M766.49,-113.24C707.23,-102.06 603.64,-82.08 587,-76 550.85,-62.79 512.35,-39.94 489.23,-25.16"/>
<polygon fill="midnightblue" stroke="midnightblue" points="490.89,-22.06 480.6,-19.55 487.08,-27.93 490.89,-22.06"/>
</g>
<!-- Node10&#45;&gt;Node8 -->
<g id="edge11" class="edge">
<title>Node10&#45;&gt;Node8</title>
<path fill="none" stroke="midnightblue" d="M766.14,-112.66C713.36,-101.93 627.91,-83.74 615,-76 595.36,-64.23 578.88,-43.4 568.77,-28.49"/>
<polygon fill="midnightblue" stroke="midnightblue" points="571.46,-26.19 563.08,-19.7 565.58,-30 571.46,-26.19"/>
</g>
<!-- Node10&#45;&gt;Node9 -->
<g id="edge12" class="edge">
<title>Node10&#45;&gt;Node9</title>
<path fill="none" stroke="midnightblue" d="M835.02,-112.46C896.81,-92.93 1048.55,-44.96 1118.98,-22.7"/>
<polygon fill="midnightblue" stroke="midnightblue" points="1120.28,-25.96 1128.76,-19.61 1118.17,-19.29 1120.28,-25.96"/>
</g>
<!-- Node11 -->
<g id="node11" class="node">
<title>Node11</title>
<g id="a_node11"><a xlink:title=" ">
<polygon fill="white" stroke="#bfbfbf" points="824,-0.5 824,-19.5 868,-19.5 868,-0.5 824,-0.5"/>
<text text-anchor="middle" x="846" y="-7.5" font-family="Helvetica,sans-Serif" font-size="10.00">string</text>
</a>
</g>
</g>
<!-- Node10&#45;&gt;Node11 -->
<g id="edge13" class="edge">
<title>Node10&#45;&gt;Node11</title>
<path fill="none" stroke="midnightblue" d="M810.98,-112.37C817.14,-94.54 831.39,-53.3 839.69,-29.27"/>
<polygon fill="midnightblue" stroke="midnightblue" points="843.07,-30.19 843.03,-19.59 836.46,-27.9 843.07,-30.19"/>
</g>
<!-- Node12 -->
<g id="node12" class="node">
<title>Node12</title>
<g id="a_node12"><a xlink:href="Int24_8hpp.html" target="_top" xlink:title=" ">
<polygon fill="white" stroke="black" points="98,-0.5 98,-19.5 208,-19.5 208,-0.5 98,-0.5"/>
<text text-anchor="middle" x="153" y="-7.5" font-family="Helvetica,sans-Serif" font-size="10.00">../Models/Int24.hpp</text>
</a>
</g>
</g>
<!-- Node10&#45;&gt;Node12 -->
<g id="edge14" class="edge">
<title>Node10&#45;&gt;Node12</title>
<path fill="none" stroke="midnightblue" d="M766.27,-113.44C763.47,-112.95 760.69,-112.46 758,-112 660.35,-95.22 635.74,-92.25 538,-76 423.2,-56.92 289.23,-34.2 213.43,-21.3"/>
<polygon fill="midnightblue" stroke="midnightblue" points="213.58,-17.77 203.13,-19.55 212.4,-24.67 213.58,-17.77"/>
</g>
<!-- Node13 -->
<g id="node13" class="node">
<title>Node13</title>
<g id="a_node13"><a xlink:href="Components_8hpp.html" target="_top" xlink:title=" ">
<polygon fill="white" stroke="black" points="630,-0.5 630,-19.5 776,-19.5 776,-0.5 630,-0.5"/>
<text text-anchor="middle" x="703" y="-7.5" font-family="Helvetica,sans-Serif" font-size="10.00">../Models/Components.hpp</text>
</a>
</g>
</g>
<!-- Node10&#45;&gt;Node13 -->
<g id="edge15" class="edge">
<title>Node10&#45;&gt;Node13</title>
<path fill="none" stroke="midnightblue" d="M799.76,-112.37C782.2,-93.97 740.87,-50.67 718.32,-27.05"/>
<polygon fill="midnightblue" stroke="midnightblue" points="720.64,-24.41 711.2,-19.59 715.57,-29.24 720.64,-24.41"/>
</g>
<!-- Node14 -->
<g id="node14" class="node">
<title>Node14</title>
<g id="a_node14"><a xlink:href="IMemory_8hpp.html" target="_top" xlink:title=" ">
<polygon fill="white" stroke="black" points="624,-56.5 624,-75.5 704,-75.5 704,-56.5 624,-56.5"/>
<text text-anchor="middle" x="664" y="-63.5" font-family="Helvetica,sans-Serif" font-size="10.00">IMemory.hpp</text>
</a>
</g>
</g>
<!-- Node10&#45;&gt;Node14 -->
<g id="edge16" class="edge">
<title>Node10&#45;&gt;Node14</title>
<path fill="none" stroke="midnightblue" d="M785.18,-112.44C761.17,-103.44 723.17,-89.19 696.13,-79.05"/>
<polygon fill="midnightblue" stroke="midnightblue" points="697.3,-75.75 686.71,-75.52 694.84,-82.3 697.3,-75.75"/>
</g>
<!-- Node14&#45;&gt;Node7 -->
<g id="edge17" class="edge">
<title>Node14&#45;&gt;Node7</title>
<path fill="none" stroke="midnightblue" d="M632.94,-56.44C597.52,-46.68 539.75,-30.77 502.83,-20.6"/>
<polygon fill="midnightblue" stroke="midnightblue" points="503.57,-17.17 493,-17.89 501.71,-23.92 503.57,-17.17"/>
</g>
<!-- Node14&#45;&gt;Node8 -->
<g id="edge18" class="edge">
<title>Node14&#45;&gt;Node8</title>
<path fill="none" stroke="midnightblue" d="M646.97,-56.32C629.97,-47.66 603.62,-34.24 584.01,-24.25"/>
<polygon fill="midnightblue" stroke="midnightblue" points="585.49,-21.08 574.99,-19.65 582.31,-27.31 585.49,-21.08"/>
</g>
<!-- Node14&#45;&gt;Node9 -->
<g id="edge19" class="edge">
<title>Node14&#45;&gt;Node9</title>
<path fill="none" stroke="midnightblue" d="M704.26,-60.58C797.08,-50.39 1025.11,-25.37 1116.84,-15.3"/>
<polygon fill="midnightblue" stroke="midnightblue" points="1117.26,-18.77 1126.82,-14.2 1116.5,-11.81 1117.26,-18.77"/>
</g>
<!-- Node14&#45;&gt;Node11 -->
<g id="edge20" class="edge">
<title>Node14&#45;&gt;Node11</title>
<path fill="none" stroke="midnightblue" d="M692.84,-56.44C725.81,-46.66 779.64,-30.69 813.92,-20.52"/>
<polygon fill="midnightblue" stroke="midnightblue" points="815.29,-23.76 823.88,-17.56 813.3,-17.05 815.29,-23.76"/>
</g>
<!-- Node14&#45;&gt;Node12 -->
<g id="edge21" class="edge">
<title>Node14&#45;&gt;Node12</title>
<path fill="none" stroke="midnightblue" d="M623.9,-60.76C535.92,-51.47 325.27,-29.2 218.06,-17.88"/>
<polygon fill="midnightblue" stroke="midnightblue" points="218.33,-14.38 208.02,-16.81 217.6,-21.35 218.33,-14.38"/>
</g>
<!-- Node14&#45;&gt;Node13 -->
<g id="edge22" class="edge">
<title>Node14&#45;&gt;Node13</title>
<path fill="none" stroke="midnightblue" d="M670.44,-56.08C675.95,-48.46 684.03,-37.26 690.76,-27.94"/>
<polygon fill="midnightblue" stroke="midnightblue" points="693.66,-29.91 696.68,-19.75 687.99,-25.81 693.66,-29.91"/>
</g>
<!-- Node17 -->
<g id="node17" class="node">
<title>Node17</title>
<g id="a_node17"><a xlink:href="IRenderer_8hpp.html" target="_top" xlink:title=" ">
<polygon fill="white" stroke="black" points="1262,-174 1262,-193 1346,-193 1346,-174 1262,-174"/>
<text text-anchor="middle" x="1304" y="-181" font-family="Helvetica,sans-Serif" font-size="10.00">IRenderer.hpp</text>
</a>
</g>
</g>
<!-- Node16&#45;&gt;Node17 -->
<g id="edge28" class="edge">
<title>Node16&#45;&gt;Node17</title>
<path fill="none" stroke="midnightblue" d="M1202.06,-302.47C1202.81,-285.07 1206.35,-255.24 1221,-235 1233.35,-217.94 1253.4,-205.51 1270.7,-197.25"/>
<polygon fill="midnightblue" stroke="midnightblue" points="1272.28,-200.38 1279.96,-193.08 1269.41,-193.99 1272.28,-200.38"/>
</g>
<!-- Node17&#45;&gt;Node11 -->
<g id="edge29" class="edge">
<title>Node17&#45;&gt;Node11</title>
<path fill="none" stroke="midnightblue" d="M1292.56,-173.95C1273.43,-159.9 1233.47,-131.54 1197,-112 1140.83,-81.9 1125.84,-74.95 1065,-56 999.95,-35.74 921.15,-22.11 878.03,-15.54"/>
<polygon fill="midnightblue" stroke="midnightblue" points="878.53,-12.07 868.12,-14.06 877.5,-19 878.53,-12.07"/>
</g>
<!-- Node18 -->
<g id="node18" class="node">
<title>Node18</title>
<g id="a_node18"><a xlink:title=" ">
<polygon fill="white" stroke="#bfbfbf" points="1284,-112.5 1284,-131.5 1324,-131.5 1324,-112.5 1284,-112.5"/>
<text text-anchor="middle" x="1304" y="-119.5" font-family="Helvetica,sans-Serif" font-size="10.00">span</text>
</a>
</g>
</g>
<!-- Node17&#45;&gt;Node18 -->
<g id="edge30" class="edge">
<title>Node17&#45;&gt;Node18</title>
<path fill="none" stroke="midnightblue" d="M1304,-173.98C1304,-165.58 1304,-152.48 1304,-141.66"/>
<polygon fill="midnightblue" stroke="midnightblue" points="1307.5,-141.51 1304,-131.51 1300.5,-141.51 1307.5,-141.51"/>
</g>
<!-- Node19&#45;&gt;Node6 -->
<g id="edge32" class="edge">
<title>Node19&#45;&gt;Node6</title>
<path fill="none" stroke="midnightblue" d="M855.73,-374.95C766.58,-344.78 465.53,-242.89 344.26,-201.85"/>
<polygon fill="midnightblue" stroke="midnightblue" points="345.06,-198.42 334.46,-198.53 342.81,-205.05 345.06,-198.42"/>
</g>
<!-- Node19&#45;&gt;Node17 -->
<g id="edge77" class="edge">
<title>Node19&#45;&gt;Node17</title>
<path fill="none" stroke="midnightblue" d="M899.18,-374.95C965.75,-343.63 1196.54,-235.05 1276.49,-197.44"/>
<polygon fill="midnightblue" stroke="midnightblue" points="1278.33,-200.44 1285.89,-193.02 1275.35,-194.11 1278.33,-200.44"/>
</g>
<!-- Node20 -->
<g id="node20" class="node">
<title>Node20</title>
<g id="a_node20"><a xlink:href="CPU_8hpp.html" target="_top" xlink:title=" ">
<polygon fill="white" stroke="black" points="310.5,-308 310.5,-327 391.5,-327 391.5,-308 310.5,-308"/>
<text text-anchor="middle" x="351" y="-315" font-family="Helvetica,sans-Serif" font-size="10.00">CPU/CPU.hpp</text>
</a>
</g>
</g>
<!-- Node19&#45;&gt;Node20 -->
<g id="edge33" class="edge">
<title>Node19&#45;&gt;Node20</title>
<path fill="none" stroke="midnightblue" d="M843.19,-374.96C832.5,-372.77 820.83,-370.58 810,-369 631.63,-342.92 583.57,-364.09 406,-333 400.59,-332.05 394.93,-330.83 389.39,-329.5"/>
<polygon fill="midnightblue" stroke="midnightblue" points="390.18,-326.09 379.63,-327.03 388.46,-332.88 390.18,-326.09"/>
</g>
<!-- Node21 -->
<g id="node21" class="node">
<title>Node21</title>
<g id="a_node21"><a xlink:href="Cartridge_8hpp.html" target="_top" xlink:title=" ">
<polygon fill="white" stroke="black" points="580,-241 580,-260 720,-260 720,-241 580,-241"/>
<text text-anchor="middle" x="650" y="-248" font-family="Helvetica,sans-Serif" font-size="10.00">../Cartridge/Cartridge.hpp</text>
</a>
</g>
</g>
<!-- Node19&#45;&gt;Node21 -->
<g id="edge55" class="edge">
<title>Node19&#45;&gt;Node21</title>
<path fill="none" stroke="midnightblue" d="M865.84,-374.84C826.59,-352.41 721.38,-292.29 673.87,-265.14"/>
<polygon fill="midnightblue" stroke="midnightblue" points="675.33,-261.94 664.91,-260.02 671.86,-268.02 675.33,-261.94"/>
</g>
<!-- Node24 -->
<g id="node24" class="node">
<title>Node24</title>
<g id="a_node24"><a xlink:href="Ram_8hpp.html" target="_top" xlink:title=" ">
<polygon fill="white" stroke="black" points="888.5,-174 888.5,-193 983.5,-193 983.5,-174 888.5,-174"/>
<text text-anchor="middle" x="936" y="-181" font-family="Helvetica,sans-Serif" font-size="10.00">../Ram/Ram.hpp</text>
</a>
</g>
</g>
<!-- Node19&#45;&gt;Node24 -->
<g id="edge56" class="edge">
<title>Node19&#45;&gt;Node24</title>
<path fill="none" stroke="midnightblue" d="M883.36,-374.95C891.63,-345.04 919.37,-244.66 930.91,-202.93"/>
<polygon fill="midnightblue" stroke="midnightblue" points="934.29,-203.81 933.58,-193.24 927.55,-201.95 934.29,-203.81"/>
</g>
<!-- Node27 -->
<g id="node27" class="node">
<title>Node27</title>
<g id="a_node27"><a xlink:href="PPU_8hpp.html" target="_top" xlink:title=" ">
<polygon fill="white" stroke="black" points="782,-241 782,-260 862,-260 862,-241 782,-241"/>
<text text-anchor="middle" x="822" y="-248" font-family="Helvetica,sans-Serif" font-size="10.00">PPU/PPU.hpp</text>
</a>
</g>
</g>
<!-- Node19&#45;&gt;Node27 -->
<g id="edge57" class="edge">
<title>Node19&#45;&gt;Node27</title>
<path fill="none" stroke="midnightblue" d="M877.13,-374.84C867.58,-353.49 842.77,-297.98 829.94,-269.27"/>
<polygon fill="midnightblue" stroke="midnightblue" points="833.08,-267.72 825.81,-260.02 826.69,-270.58 833.08,-267.72"/>
</g>
<!-- Node31 -->
<g id="node31" class="node">
<title>Node31</title>
<g id="a_node31"><a xlink:href="APU_8hpp.html" target="_top" xlink:title=" ">
<polygon fill="white" stroke="black" points="1009.5,-241 1009.5,-260 1090.5,-260 1090.5,-241 1009.5,-241"/>
<text text-anchor="middle" x="1050" y="-248" font-family="Helvetica,sans-Serif" font-size="10.00">APU/APU.hpp</text>
</a>
</g>
</g>
<!-- Node19&#45;&gt;Node31 -->
<g id="edge66" class="edge">
<title>Node19&#45;&gt;Node31</title>
<path fill="none" stroke="midnightblue" d="M892.09,-374.84C920.39,-352.74 995.54,-294.04 1030.99,-266.35"/>
<polygon fill="midnightblue" stroke="midnightblue" points="1033.36,-268.94 1039.09,-260.02 1029.05,-263.42 1033.36,-268.94"/>
</g>
<!-- Node35 -->
<g id="node35" class="node">
<title>Node35</title>
<g id="a_node35"><a xlink:href="DebuggableError_8hpp.html" target="_top" xlink:title=" ">
<polygon fill="white" stroke="black" points="1326.5,-308 1326.5,-327 1501.5,-327 1501.5,-308 1326.5,-308"/>
<text text-anchor="middle" x="1414" y="-315" font-family="Helvetica,sans-Serif" font-size="10.00">Exceptions/DebuggableError.hpp</text>
</a>
</g>
</g>
<!-- Node19&#45;&gt;Node35 -->
<g id="edge78" class="edge">
<title>Node19&#45;&gt;Node35</title>
<path fill="none" stroke="midnightblue" d="M937.54,-376.61C1032.76,-364.99 1225.36,-341.5 1334.27,-328.22"/>
<polygon fill="midnightblue" stroke="midnightblue" points="1334.72,-331.69 1344.22,-327.01 1333.87,-324.75 1334.72,-331.69"/>
</g>
<!-- Node20&#45;&gt;Node6 -->
<g id="edge35" class="edge">
<title>Node20&#45;&gt;Node6</title>
<path fill="none" stroke="midnightblue" d="M347.19,-307.84C338.41,-287.85 316.46,-237.9 303.35,-208.06"/>
<polygon fill="midnightblue" stroke="midnightblue" points="306.5,-206.53 299.28,-198.78 300.09,-209.35 306.5,-206.53"/>
</g>
<!-- Node20&#45;&gt;Node10 -->
<g id="edge34" class="edge">
<title>Node20&#45;&gt;Node10</title>
<path fill="none" stroke="midnightblue" d="M351.77,-307.97C354.63,-281.96 367.06,-203.27 415,-168 474.39,-124.32 666.69,-141.35 756.17,-131.99"/>
<polygon fill="midnightblue" stroke="midnightblue" points="756.8,-135.43 766.3,-130.74 755.94,-128.49 756.8,-135.43"/>
</g>
<!-- Node20&#45;&gt;Node12 -->
<g id="edge36" class="edge">
<title>Node20&#45;&gt;Node12</title>
<path fill="none" stroke="midnightblue" d="M310.21,-316.51C254.69,-314.89 153.71,-306.07 79,-266 34.54,-242.16 0,-234.95 0,-184.5 0,-184.5 0,-184.5 0,-121 0,-67.21 63.12,-37.13 108.28,-22.5"/>
<polygon fill="midnightblue" stroke="midnightblue" points="109.38,-25.83 117.9,-19.53 107.31,-19.14 109.38,-25.83"/>
</g>
<!-- Node20&#45;&gt;Node21 -->
<g id="edge37" class="edge">
<title>Node20&#45;&gt;Node21</title>
<path fill="none" stroke="midnightblue" d="M390.4,-307.94C444.51,-296.17 541.82,-275.02 600.7,-262.22"/>
<polygon fill="midnightblue" stroke="midnightblue" points="601.49,-265.63 610.52,-260.08 600,-258.79 601.49,-265.63"/>
</g>
<!-- Node25 -->
<g id="node25" class="node">
<title>Node25</title>
<g id="a_node25"><a xlink:href="Instruction_8hpp.html" target="_top" xlink:title=" ">
<polygon fill="white" stroke="black" points="72.5,-56.5 72.5,-75.5 161.5,-75.5 161.5,-56.5 72.5,-56.5"/>
<text text-anchor="middle" x="117" y="-63.5" font-family="Helvetica,sans-Serif" font-size="10.00">Instruction.hpp</text>
</a>
</g>
</g>
<!-- Node20&#45;&gt;Node25 -->
<g id="edge47" class="edge">
<title>Node20&#45;&gt;Node25</title>
<path fill="none" stroke="midnightblue" d="M310.42,-314.42C246.09,-310.18 125.27,-298.05 99,-266 55.59,-213.03 89.84,-123.4 107.79,-85.16"/>
<polygon fill="midnightblue" stroke="midnightblue" points="111.11,-86.34 112.34,-75.81 104.82,-83.27 111.11,-86.34"/>
</g>
<!-- Node26 -->
<g id="node26" class="node">
<title>Node26</title>
<g id="a_node26"><a xlink:href="DMA_8hpp.html" target="_top" xlink:title=" ">
<polygon fill="white" stroke="black" points="108.5,-241 108.5,-260 195.5,-260 195.5,-241 108.5,-241"/>
<text text-anchor="middle" x="152" y="-248" font-family="Helvetica,sans-Serif" font-size="10.00">DMA/DMA.hpp</text>
</a>
</g>
</g>
<!-- Node20&#45;&gt;Node26 -->
<g id="edge50" class="edge">
<title>Node20&#45;&gt;Node26</title>
<path fill="none" stroke="midnightblue" d="M324.57,-307.87C289.46,-296.4 227.3,-276.09 187.94,-263.24"/>
<polygon fill="midnightblue" stroke="midnightblue" points="188.81,-259.84 178.22,-260.06 186.64,-266.5 188.81,-259.84"/>
</g>
<!-- Node21&#45;&gt;Node10 -->
<g id="edge39" class="edge">
<title>Node21&#45;&gt;Node10</title>
<path fill="none" stroke="midnightblue" d="M683.66,-240.97C708.46,-233.31 741.78,-219.98 765,-199 782.53,-183.16 794.65,-158.44 801.46,-141.52"/>
<polygon fill="midnightblue" stroke="midnightblue" points="804.9,-142.29 805.16,-131.7 798.36,-139.82 804.9,-142.29"/>
</g>
<!-- Node21&#45;&gt;Node11 -->
<g id="edge38" class="edge">
<title>Node21&#45;&gt;Node11</title>
<path fill="none" stroke="midnightblue" d="M637.75,-240.89C601.71,-215.08 499.99,-138.55 522,-112 577.14,-45.5 631.01,-103.21 713,-76 753.41,-62.59 797.21,-39.32 823.1,-24.56"/>
<polygon fill="midnightblue" stroke="midnightblue" points="824.87,-27.58 831.78,-19.54 821.37,-21.52 824.87,-27.58"/>
</g>
<!-- Node21&#45;&gt;Node12 -->
<g id="edge40" class="edge">
<title>Node21&#45;&gt;Node12</title>
<path fill="none" stroke="midnightblue" d="M579.94,-245.75C462.63,-238.85 236.56,-222.65 209,-199 159.01,-156.1 190.33,-118.66 170,-56 167.1,-47.05 163.46,-37.27 160.29,-29.11"/>
<polygon fill="midnightblue" stroke="midnightblue" points="163.44,-27.55 156.5,-19.54 156.93,-30.13 163.44,-27.55"/>
</g>
<!-- Node22 -->
<g id="node22" class="node">
<title>Node22</title>
<g id="a_node22"><a xlink:href="ARectangleMemory_8hpp.html" target="_top" xlink:title=" ">
<polygon fill="white" stroke="black" points="905.5,-112.5 905.5,-131.5 1090.5,-131.5 1090.5,-112.5 905.5,-112.5"/>
<text text-anchor="middle" x="998" y="-119.5" font-family="Helvetica,sans-Serif" font-size="10.00">../Memory/ARectangleMemory.hpp</text>
</a>
</g>
</g>
<!-- Node21&#45;&gt;Node22 -->
<g id="edge41" class="edge">
<title>Node21&#45;&gt;Node22</title>
<path fill="none" stroke="midnightblue" d="M673.79,-240.95C701.66,-230.93 749.2,-213.81 790,-199 851.93,-176.52 924.15,-150.08 965.14,-135.05"/>
<polygon fill="midnightblue" stroke="midnightblue" points="966.43,-138.31 974.62,-131.58 964.02,-131.74 966.43,-138.31"/>
</g>
<!-- Node23 -->
<g id="node23" class="node">
<title>Node23</title>
<g id="a_node23"><a xlink:href="InterruptVectors_8hpp.html" target="_top" xlink:title=" ">
<polygon fill="white" stroke="black" points="424,-174 424,-193 540,-193 540,-174 424,-174"/>
<text text-anchor="middle" x="482" y="-181" font-family="Helvetica,sans-Serif" font-size="10.00">InterruptVectors.hpp</text>
</a>
</g>
</g>
<!-- Node21&#45;&gt;Node23 -->
<g id="edge43" class="edge">
<title>Node21&#45;&gt;Node23</title>
<path fill="none" stroke="midnightblue" d="M627.69,-240.87C598.49,-229.57 547.12,-209.7 513.84,-196.82"/>
<polygon fill="midnightblue" stroke="midnightblue" points="514.72,-193.41 504.13,-193.06 512.2,-199.94 514.72,-193.41"/>
</g>
<!-- Node21&#45;&gt;Node24 -->
<g id="edge44" class="edge">
<title>Node21&#45;&gt;Node24</title>
<path fill="none" stroke="midnightblue" d="M688.47,-240.93C733.11,-230.95 808.92,-213.95 874,-199 879.06,-197.84 884.34,-196.62 889.6,-195.39"/>
<polygon fill="midnightblue" stroke="midnightblue" points="890.68,-198.74 899.62,-193.06 889.09,-191.92 890.68,-198.74"/>
</g>
<!-- Node22&#45;&gt;Node14 -->
<g id="edge42" class="edge">
<title>Node22&#45;&gt;Node14</title>
<path fill="none" stroke="midnightblue" d="M945.08,-112.44C881.65,-102.19 776.18,-85.14 714.05,-75.09"/>
<polygon fill="midnightblue" stroke="midnightblue" points="714.53,-71.62 704.1,-73.48 713.41,-78.53 714.53,-71.62"/>
</g>
<!-- Node24&#45;&gt;Node11 -->
<g id="edge46" class="edge">
<title>Node24&#45;&gt;Node11</title>
<path fill="none" stroke="midnightblue" d="M983.55,-174.29C1026.83,-165.73 1086.02,-150.93 1100,-132 1105.28,-124.85 1104.99,-119.36 1100,-112 1049.56,-37.66 934.83,-18.04 878.47,-12.86"/>
<polygon fill="midnightblue" stroke="midnightblue" points="878.59,-9.36 868.33,-12.02 878.01,-16.33 878.59,-9.36"/>
</g>
<!-- Node24&#45;&gt;Node22 -->
<g id="edge45" class="edge">
<title>Node24&#45;&gt;Node22</title>
<path fill="none" stroke="midnightblue" d="M944.88,-173.98C954.46,-164.78 969.91,-149.96 981.69,-138.66"/>
<polygon fill="midnightblue" stroke="midnightblue" points="984.34,-140.96 989.13,-131.51 979.49,-135.91 984.34,-140.96"/>
</g>
<!-- Node25&#45;&gt;Node11 -->
<g id="edge48" class="edge">
<title>Node25&#45;&gt;Node11</title>
<path fill="none" stroke="midnightblue" d="M161.67,-63.22C269.21,-58.65 550.97,-45.11 785,-20 794.36,-19 804.48,-17.62 813.74,-16.25"/>
<polygon fill="midnightblue" stroke="midnightblue" points="814.39,-19.69 823.75,-14.72 813.33,-12.77 814.39,-19.69"/>
</g>
<!-- Node25&#45;&gt;Node12 -->
<g id="edge49" class="edge">
<title>Node25&#45;&gt;Node12</title>
<path fill="none" stroke="midnightblue" d="M122.94,-56.08C127.98,-48.53 135.34,-37.49 141.51,-28.23"/>
<polygon fill="midnightblue" stroke="midnightblue" points="144.53,-30.01 147.17,-19.75 138.71,-26.13 144.53,-30.01"/>
</g>
<!-- Node26&#45;&gt;Node6 -->
<g id="edge54" class="edge">
<title>Node26&#45;&gt;Node6</title>
<path fill="none" stroke="midnightblue" d="M170.72,-240.87C191.7,-231.2 226.3,-215.25 253.35,-202.78"/>
<polygon fill="midnightblue" stroke="midnightblue" points="254.95,-205.89 262.57,-198.53 252.02,-199.54 254.95,-205.89"/>
</g>
<!-- Node26&#45;&gt;Node7 -->
<g id="edge51" class="edge">
<title>Node26&#45;&gt;Node7</title>
<path fill="none" stroke="midnightblue" d="M147.06,-240.98C138.73,-225.37 124.08,-191.63 138,-168 201.09,-60.88 360.93,-25.76 432.45,-15.18"/>
<polygon fill="midnightblue" stroke="midnightblue" points="433.32,-18.59 442.74,-13.74 432.35,-11.66 433.32,-18.59"/>
</g>
<!-- Node26&#45;&gt;Node9 -->
<g id="edge52" class="edge">
<title>Node26&#45;&gt;Node9</title>
<path fill="none" stroke="midnightblue" d="M155.6,-240.87C163.01,-224.16 181.64,-187.32 209,-168 361.91,-60.03 430.71,-88.79 615,-56 800.69,-22.96 1026.65,-14.08 1116.46,-11.77"/>
<polygon fill="midnightblue" stroke="midnightblue" points="1116.81,-15.27 1126.72,-11.52 1116.64,-8.27 1116.81,-15.27"/>
</g>
<!-- Node26&#45;&gt;Node12 -->
<g id="edge53" class="edge">
<title>Node26&#45;&gt;Node12</title>
<path fill="none" stroke="midnightblue" d="M139.96,-240.78C128.16,-231.63 110.46,-216.21 100,-199 65.9,-142.9 28.49,-111.84 63,-56 72.67,-40.35 89.62,-29.96 106.22,-23.15"/>
<polygon fill="midnightblue" stroke="midnightblue" points="107.75,-26.32 115.9,-19.54 105.31,-19.76 107.75,-26.32"/>
</g>
<!-- Node27&#45;&gt;Node6 -->
<g id="edge60" class="edge">
<title>Node27&#45;&gt;Node6</title>
<path fill="none" stroke="midnightblue" d="M781.77,-242.86C765.42,-240.26 746.33,-237.34 729,-235 589.8,-216.18 554.52,-215.29 415,-199 403.17,-197.62 390.69,-196.15 378.41,-194.7"/>
<polygon fill="midnightblue" stroke="midnightblue" points="378.5,-191.18 368.16,-193.48 377.68,-198.13 378.5,-191.18"/>
</g>
<!-- Node27&#45;&gt;Node7 -->
<g id="edge58" class="edge">
<title>Node27&#45;&gt;Node7</title>
<path fill="none" stroke="midnightblue" d="M781.87,-243.17C741.15,-235.85 676.88,-221.79 625,-199 575,-177.04 557.47,-173.52 522,-132 495.45,-100.92 479.74,-54.68 472.61,-29.31"/>
<polygon fill="midnightblue" stroke="midnightblue" points="475.96,-28.29 470.01,-19.53 469.2,-30.1 475.96,-28.29"/>
</g>
<!-- Node27&#45;&gt;Node10 -->
<g id="edge59" class="edge">
<title>Node27&#45;&gt;Node10</title>
<path fill="none" stroke="midnightblue" d="M821.04,-240.81C818.79,-220.49 813.15,-169.55 810.08,-141.78"/>
<polygon fill="midnightblue" stroke="midnightblue" points="813.55,-141.31 808.97,-131.76 806.59,-142.08 813.55,-141.31"/>
</g>
<!-- Node27&#45;&gt;Node17 -->
<g id="edge61" class="edge">
<title>Node27&#45;&gt;Node17</title>
<path fill="none" stroke="midnightblue" d="M862.23,-244.78C933.45,-236.34 1086.34,-217.74 1215,-199 1226.98,-197.25 1239.85,-195.24 1251.97,-193.28"/>
<polygon fill="midnightblue" stroke="midnightblue" points="1252.64,-196.72 1261.94,-191.65 1251.51,-189.81 1252.64,-196.72"/>
</g>
<!-- Node27&#45;&gt;Node24 -->
<g id="edge62" class="edge">
<title>Node27&#45;&gt;Node24</title>
<path fill="none" stroke="midnightblue" d="M837.37,-240.73C856.52,-229.82 889.44,-211.05 911.94,-198.22"/>
<polygon fill="midnightblue" stroke="midnightblue" points="913.92,-201.12 920.87,-193.13 910.45,-195.04 913.92,-201.12"/>
</g>
<!-- Node28 -->
<g id="node28" class="node">
<title>Node28</title>
<g id="a_node28"><a xlink:href="Vector2_8hpp.html" target="_top" xlink:title=" ">
<polygon fill="white" stroke="black" points="634,-174 634,-193 756,-193 756,-174 634,-174"/>
<text text-anchor="middle" x="695" y="-181" font-family="Helvetica,sans-Serif" font-size="10.00">../Models/Vector2.hpp</text>
</a>
</g>
</g>
<!-- Node27&#45;&gt;Node28 -->
<g id="edge63" class="edge">
<title>Node27&#45;&gt;Node28</title>
<path fill="none" stroke="midnightblue" d="M805.14,-240.87C783.6,-229.84 746.1,-210.66 720.92,-197.77"/>
<polygon fill="midnightblue" stroke="midnightblue" points="722.43,-194.61 711.93,-193.17 719.24,-200.84 722.43,-194.61"/>
</g>
<!-- Node29 -->
<g id="node29" class="node">
<title>Node29</title>
<g id="a_node29"><a xlink:title=" ">
<polygon fill="white" stroke="#bfbfbf" points="691.5,-112.5 691.5,-131.5 748.5,-131.5 748.5,-112.5 691.5,-112.5"/>
<text text-anchor="middle" x="720" y="-119.5" font-family="Helvetica,sans-Serif" font-size="10.00">ostream</text>
</a>
</g>
</g>
<!-- Node28&#45;&gt;Node29 -->
<g id="edge64" class="edge">
<title>Node28&#45;&gt;Node29</title>
<path fill="none" stroke="midnightblue" d="M698.58,-173.98C702.18,-165.4 707.85,-151.93 712.44,-140.98"/>
<polygon fill="midnightblue" stroke="midnightblue" points="715.78,-142.08 716.42,-131.51 709.32,-139.37 715.78,-142.08"/>
</g>
<!-- Node30 -->
<g id="node30" class="node">
<title>Node30</title>
<g id="a_node30"><a xlink:title=" ">
<polygon fill="white" stroke="#bfbfbf" points="530.5,-112.5 530.5,-131.5 673.5,-131.5 673.5,-112.5 530.5,-112.5"/>
<text text-anchor="middle" x="602" y="-119.5" font-family="Helvetica,sans-Serif" font-size="10.00">SFML/System/Vector2.hpp</text>
</a>
</g>
</g>
<!-- Node28&#45;&gt;Node30 -->
<g id="edge65" class="edge">
<title>Node28&#45;&gt;Node30</title>
<path fill="none" stroke="midnightblue" d="M681.68,-173.98C666.62,-164.34 641.88,-148.52 623.96,-137.05"/>
<polygon fill="midnightblue" stroke="midnightblue" points="625.61,-133.95 615.3,-131.51 621.84,-139.85 625.61,-133.95"/>
</g>
<!-- Node31&#45;&gt;Node9 -->
<g id="edge67" class="edge">
<title>Node31&#45;&gt;Node9</title>
<path fill="none" stroke="midnightblue" d="M1090.57,-242.72C1134.44,-234.47 1200.12,-219.11 1215,-199 1255.13,-144.74 1198.37,-62.46 1170.22,-27.57"/>
<polygon fill="midnightblue" stroke="midnightblue" points="1172.83,-25.24 1163.76,-19.77 1167.44,-29.7 1172.83,-25.24"/>
</g>
<!-- Node31&#45;&gt;Node10 -->
<g id="edge72" class="edge">
<title>Node31&#45;&gt;Node10</title>
<path fill="none" stroke="midnightblue" d="M1046.46,-240.8C1039.13,-223.96 1020.65,-186.9 993,-168 971.52,-153.32 906.48,-139.67 859.59,-131.34"/>
<polygon fill="midnightblue" stroke="midnightblue" points="860.04,-127.87 849.59,-129.6 858.84,-134.77 860.04,-127.87"/>
</g>
<!-- Node31&#45;&gt;Node17 -->
<g id="edge76" class="edge">
<title>Node31&#45;&gt;Node17</title>
<path fill="none" stroke="midnightblue" d="M1082.27,-240.93C1089.73,-238.97 1097.64,-236.9 1105,-235 1168.47,-218.65 1184.5,-215.21 1248,-199 1252.33,-197.89 1256.85,-196.73 1261.36,-195.57"/>
<polygon fill="midnightblue" stroke="midnightblue" points="1262.33,-198.94 1271.14,-193.05 1260.58,-192.16 1262.33,-198.94"/>
</g>
<!-- Node31&#45;&gt;Node24 -->
<g id="edge73" class="edge">
<title>Node31&#45;&gt;Node24</title>
<path fill="none" stroke="midnightblue" d="M1034.63,-240.73C1015.48,-229.82 982.56,-211.05 960.06,-198.22"/>
<polygon fill="midnightblue" stroke="midnightblue" points="961.55,-195.04 951.13,-193.13 958.08,-201.12 961.55,-195.04"/>
</g>
<!-- Node32 -->
<g id="node32" class="node">
<title>Node32</title>
<g id="a_node32"><a xlink:href="DSP_8hpp.html" target="_top" xlink:title=" ">
<polygon fill="white" stroke="black" points="1128,-174 1128,-193 1206,-193 1206,-174 1128,-174"/>
<text text-anchor="middle" x="1167" y="-181" font-family="Helvetica,sans-Serif" font-size="10.00">DSP/DSP.hpp</text>
</a>
</g>
</g>
<!-- Node31&#45;&gt;Node32 -->
<g id="edge68" class="edge">
<title>Node31&#45;&gt;Node32</title>
<path fill="none" stroke="midnightblue" d="M1065.78,-240.73C1085.51,-229.77 1119.51,-210.88 1142.61,-198.05"/>
<polygon fill="midnightblue" stroke="midnightblue" points="1144.43,-201.04 1151.47,-193.13 1141.03,-194.92 1144.43,-201.04"/>
</g>
<!-- Node34 -->
<g id="node34" class="node">
<title>Node34</title>
<g id="a_node34"><a xlink:href="IPL_8hpp.html" target="_top" xlink:title=" ">
<polygon fill="white" stroke="black" points="1040.5,-174 1040.5,-193 1109.5,-193 1109.5,-174 1040.5,-174"/>
<text text-anchor="middle" x="1075" y="-181" font-family="Helvetica,sans-Serif" font-size="10.00">IPL/IPL.hpp</text>
</a>
</g>
</g>
<!-- Node31&#45;&gt;Node34 -->
<g id="edge74" class="edge">
<title>Node31&#45;&gt;Node34</title>
<path fill="none" stroke="midnightblue" d="M1053.37,-240.73C1057.12,-230.99 1063.28,-214.98 1068.06,-202.53"/>
<polygon fill="midnightblue" stroke="midnightblue" points="1071.36,-203.72 1071.68,-193.13 1064.83,-201.2 1071.36,-203.72"/>
</g>
<!-- Node32&#45;&gt;Node7 -->
<g id="edge69" class="edge">
<title>Node32&#45;&gt;Node7</title>
<path fill="none" stroke="midnightblue" d="M1141.01,-173.96C1133.92,-171.82 1126.21,-169.67 1119,-168 1021.61,-145.5 991.8,-163.69 897,-132 878.9,-125.95 877.14,-117.92 859,-112 754.79,-77.99 719.02,-110.59 615,-76 597.26,-70.1 594.9,-63.99 578,-56 552.45,-43.91 522.73,-31.87 500.64,-23.29"/>
<polygon fill="midnightblue" stroke="midnightblue" points="501.65,-19.93 491.06,-19.6 499.14,-26.46 501.65,-19.93"/>
</g>
<!-- Node32&#45;&gt;Node10 -->
<g id="edge71" class="edge">
<title>Node32&#45;&gt;Node10</title>
<path fill="none" stroke="midnightblue" d="M1141.28,-173.94C1134.13,-171.78 1126.31,-169.61 1119,-168 1007.22,-143.38 977.18,-149.08 864,-132 862.54,-131.78 861.06,-131.55 859.56,-131.32"/>
<polygon fill="midnightblue" stroke="midnightblue" points="860,-127.85 849.58,-129.77 858.92,-134.77 860,-127.85"/>
</g>
<!-- Node33 -->
<g id="node33" class="node">
<title>Node33</title>
<g id="a_node33"><a xlink:title=" ">
<polygon fill="white" stroke="#bfbfbf" points="1146,-112.5 1146,-131.5 1188,-131.5 1188,-112.5 1146,-112.5"/>
<text text-anchor="middle" x="1167" y="-119.5" font-family="Helvetica,sans-Serif" font-size="10.00">array</text>
</a>
</g>
</g>
<!-- Node32&#45;&gt;Node33 -->
<g id="edge70" class="edge">
<title>Node32&#45;&gt;Node33</title>
<path fill="none" stroke="midnightblue" d="M1167,-173.98C1167,-165.58 1167,-152.48 1167,-141.66"/>
<polygon fill="midnightblue" stroke="midnightblue" points="1170.5,-141.51 1167,-131.51 1163.5,-141.51 1170.5,-141.51"/>
</g>
<!-- Node34&#45;&gt;Node10 -->
<g id="edge75" class="edge">
<title>Node34&#45;&gt;Node10</title>
<path fill="none" stroke="midnightblue" d="M1047.64,-173.96C1040.62,-171.89 1033.06,-169.77 1026,-168 969.49,-153.83 903.93,-140.75 859.59,-132.38"/>
<polygon fill="midnightblue" stroke="midnightblue" points="860.1,-128.91 849.62,-130.51 858.81,-135.79 860.1,-128.91"/>
</g>
<!-- Node36 -->
<g id="node36" class="node">
<title>Node36</title>
<g id="a_node36"><a xlink:title=" ">
<polygon fill="white" stroke="#bfbfbf" points="1406.5,-241 1406.5,-260 1501.5,-260 1501.5,-241 1406.5,-241"/>
<text text-anchor="middle" x="1454" y="-248" font-family="Helvetica,sans-Serif" font-size="10.00">bits/exception.h</text>
</a>
</g>
</g>
<!-- Node35&#45;&gt;Node36 -->
<g id="edge79" class="edge">
<title>Node35&#45;&gt;Node36</title>
<path fill="none" stroke="midnightblue" d="M1419.39,-307.73C1425.51,-297.79 1435.64,-281.34 1443.36,-268.79"/>
<polygon fill="midnightblue" stroke="midnightblue" points="1446.43,-270.48 1448.69,-260.13 1440.47,-266.81 1446.43,-270.48"/>
</g>
<!-- Node37&#45;&gt;Node9 -->
<g id="edge81" class="edge">
<title>Node37&#45;&gt;Node9</title>
<path fill="none" stroke="midnightblue" d="M1509.45,-168.3C1498.18,-141.48 1469.87,-83.59 1426,-56 1388.28,-32.27 1260.9,-19.16 1195.49,-13.84"/>
<polygon fill="midnightblue" stroke="midnightblue" points="1195.41,-10.32 1185.17,-13.03 1194.86,-17.3 1195.41,-10.32"/>
</g>
<!-- Node37&#45;&gt;Node10 -->
<g id="edge82" class="edge">
<title>Node37&#45;&gt;Node10</title>
<path fill="none" stroke="midnightblue" d="M1439.73,-175.49C1412.98,-173.05 1382.65,-170.34 1355,-168 1151.54,-150.79 1100.36,-150.27 897,-132 884.92,-130.91 871.92,-129.65 859.69,-128.42"/>
<polygon fill="midnightblue" stroke="midnightblue" points="859.94,-124.93 849.64,-127.4 859.23,-131.9 859.94,-124.93"/>
</g>
<!-- Node38&#45;&gt;Node9 -->
<g id="edge84" class="edge">
<title>Node38&#45;&gt;Node9</title>
<path fill="none" stroke="midnightblue" d="M1336.3,-235.36C1349.7,-226.81 1364.54,-214.54 1372,-199 1377.96,-186.58 1376.13,-181.15 1372,-168 1346.9,-88.05 1249.57,-42.73 1194.51,-23"/>
<polygon fill="midnightblue" stroke="midnightblue" points="1195.35,-19.58 1184.75,-19.61 1193.05,-26.19 1195.35,-19.58"/>
</g>
<!-- Node38&#45;&gt;Node22 -->
<g id="edge85" class="edge">
<title>Node38&#45;&gt;Node22</title>
<path fill="none" stroke="midnightblue" d="M1326.92,-235.4C1346.68,-218.2 1373.38,-188.84 1355,-168 1346.53,-158.39 1202.33,-142.62 1099.83,-132.53"/>
<polygon fill="midnightblue" stroke="midnightblue" points="1100.03,-129.03 1089.73,-131.54 1099.34,-136 1100.03,-129.03"/>
</g>
<!-- Node38&#45;&gt;Node37 -->
<g id="edge86" class="edge">
<title>Node38&#45;&gt;Node37</title>
<path fill="none" stroke="midnightblue" d="M1353.45,-235.48C1384.88,-225.56 1427.21,-212.2 1460.65,-201.65"/>
<polygon fill="midnightblue" stroke="midnightblue" points="1461.8,-204.96 1470.28,-198.61 1459.69,-198.28 1461.8,-204.96"/>
</g>
<!-- Node39&#45;&gt;Node11 -->
<g id="edge89" class="edge">
<title>Node39&#45;&gt;Node11</title>
<path fill="none" stroke="midnightblue" d="M1621.79,-369.28C1630.99,-331.33 1650.1,-226.59 1599,-168 1501.88,-56.65 1010.06,-20.5 878.44,-12.74"/>
<polygon fill="midnightblue" stroke="midnightblue" points="878.39,-9.23 868.21,-12.15 877.99,-16.22 878.39,-9.23"/>
</g>
<!-- Node39&#45;&gt;Node35 -->
<g id="edge90" class="edge">
<title>Node39&#45;&gt;Node35</title>
<path fill="none" stroke="midnightblue" d="M1573.99,-369.48C1537.1,-357.72 1485.07,-341.14 1450.47,-330.12"/>
<polygon fill="midnightblue" stroke="midnightblue" points="1451.36,-326.73 1440.77,-327.03 1449.23,-333.4 1451.36,-326.73"/>
</g>
<!-- Node40 -->
<g id="node40" class="node">
<title>Node40</title>
<g id="a_node40"><a xlink:title=" ">
<polygon fill="white" stroke="#bfbfbf" points="1646.5,-308 1646.5,-327 1711.5,-327 1711.5,-308 1646.5,-308"/>
<text text-anchor="middle" x="1679" y="-315" font-family="Helvetica,sans-Serif" font-size="10.00">exception</text>
</a>
</g>
</g>
<!-- Node39&#45;&gt;Node40 -->
<g id="edge88" class="edge">
<title>Node39&#45;&gt;Node40</title>
<path fill="none" stroke="midnightblue" d="M1631.24,-369.4C1640.84,-359.16 1653.85,-345.3 1663.87,-334.62"/>
<polygon fill="midnightblue" stroke="midnightblue" points="1666.55,-336.88 1670.84,-327.19 1661.45,-332.09 1666.55,-336.88"/>
</g>
</g>
</svg>
