<?xml version="1.0" encoding="UTF-8" standalone="no"?>
<!DOCTYPE svg PUBLIC "-//W3C//DTD SVG 1.1//EN"
 "http://www.w3.org/Graphics/SVG/1.1/DTD/svg11.dtd">
<!-- Generated by graphviz version 2.43.0 (0)
 -->
<!-- Title: tests/APU/testAPUInstructions.cpp Pages: 1 -->
<svg width="1478pt" height="509pt"
 viewBox="0.00 0.00 1478.03 509.00" xmlns="http://www.w3.org/2000/svg" xmlns:xlink="http://www.w3.org/1999/xlink">
<g id="graph0" class="graph" transform="scale(1 1) rotate(0) translate(4 505)">
<title>tests/APU/testAPUInstructions.cpp</title>
<polygon fill="white" stroke="transparent" points="-4,4 -4,-505 1474.03,-505 1474.03,4 -4,4"/>
<!-- Node1 -->
<g id="node1" class="node">
<title>Node1</title>
<g id="a_node1"><a xlink:title=" ">
<polygon fill="#bfbfbf" stroke="black" points="260.53,-481.5 260.53,-500.5 443.53,-500.5 443.53,-481.5 260.53,-481.5"/>
<text text-anchor="middle" x="352.03" y="-488.5" font-family="Helvetica,sans-Serif" font-size="10.00">tests/APU/testAPUInstructions.cpp</text>
</a>
</g>
</g>
<!-- Node2 -->
<g id="node2" class="node">
<title>Node2</title>
<g id="a_node2"><a xlink:title=" ">
<polygon fill="white" stroke="#bfbfbf" points="68.03,-369.5 68.03,-388.5 178.03,-388.5 178.03,-369.5 68.03,-369.5"/>
<text text-anchor="middle" x="123.03" y="-376.5" font-family="Helvetica,sans-Serif" font-size="10.00">criterion/criterion.h</text>
</a>
</g>
</g>
<!-- Node1&#45;&gt;Node2 -->
<g id="edge1" class="edge">
<title>Node1&#45;&gt;Node2</title>
<path fill="none" stroke="midnightblue" d="M324.27,-481.46C299.13,-473.33 261.34,-460.11 230.03,-445 198.83,-429.94 164.99,-408.43 143.91,-394.35"/>
<polygon fill="midnightblue" stroke="midnightblue" points="145.68,-391.32 135.43,-388.62 141.76,-397.12 145.68,-391.32"/>
</g>
<!-- Node3 -->
<g id="node3" class="node">
<title>Node3</title>
<g id="a_node3"><a xlink:title=" ">
<polygon fill="white" stroke="#bfbfbf" points="196.03,-369.5 196.03,-388.5 256.03,-388.5 256.03,-369.5 196.03,-369.5"/>
<text text-anchor="middle" x="226.03" y="-376.5" font-family="Helvetica,sans-Serif" font-size="10.00">iostream</text>
</a>
</g>
</g>
<!-- Node1&#45;&gt;Node3 -->
<g id="edge2" class="edge">
<title>Node1&#45;&gt;Node3</title>
<path fill="none" stroke="midnightblue" d="M309.83,-481.47C287.71,-474.97 261.8,-463.8 245.03,-445 233.67,-432.26 229.08,-413.07 227.24,-398.83"/>
<polygon fill="midnightblue" stroke="midnightblue" points="230.71,-398.33 226.28,-388.7 223.74,-398.99 230.71,-398.33"/>
</g>
<!-- Node4 -->
<g id="node4" class="node">
<title>Node4</title>
<g id="a_node4"><a xlink:title=" ">
<polygon fill="white" stroke="#bfbfbf" points="254.03,-425.5 254.03,-444.5 298.03,-444.5 298.03,-425.5 254.03,-425.5"/>
<text text-anchor="middle" x="276.03" y="-432.5" font-family="Helvetica,sans-Serif" font-size="10.00">bitset</text>
</a>
</g>
</g>
<!-- Node1&#45;&gt;Node4 -->
<g id="edge3" class="edge">
<title>Node1&#45;&gt;Node4</title>
<path fill="none" stroke="midnightblue" d="M339.82,-481.32C328.26,-473.11 310.66,-460.6 296.87,-450.81"/>
<polygon fill="midnightblue" stroke="midnightblue" points="298.64,-447.77 288.46,-444.83 294.59,-453.48 298.64,-447.77"/>
</g>
<!-- Node5 -->
<g id="node5" class="node">
<title>Node5</title>
<g id="a_node5"><a xlink:href="tests_8hpp.html" target="_top" xlink:title=" ">
<polygon fill="white" stroke="black" points="316.53,-425.5 316.53,-444.5 387.53,-444.5 387.53,-425.5 316.53,-425.5"/>
<text text-anchor="middle" x="352.03" y="-432.5" font-family="Helvetica,sans-Serif" font-size="10.00">../tests.hpp</text>
</a>
</g>
</g>
<!-- Node1&#45;&gt;Node5 -->
<g id="edge4" class="edge">
<title>Node1&#45;&gt;Node5</title>
<path fill="none" stroke="midnightblue" d="M352.03,-481.08C352.03,-474.01 352.03,-463.86 352.03,-454.99"/>
<polygon fill="midnightblue" stroke="midnightblue" points="355.53,-454.75 352.03,-444.75 348.53,-454.75 355.53,-454.75"/>
</g>
<!-- Node19 -->
<g id="node19" class="node">
<title>Node19</title>
<g id="a_node19"><a xlink:href="SNES_8hpp.html" target="_top" xlink:title=" ">
<polygon fill="white" stroke="black" points="537.53,-369.5 537.53,-388.5 650.53,-388.5 650.53,-369.5 537.53,-369.5"/>
<text text-anchor="middle" x="594.03" y="-376.5" font-family="Helvetica,sans-Serif" font-size="10.00">../sources/SNES.hpp</text>
</a>
</g>
</g>
<!-- Node1&#45;&gt;Node19 -->
<g id="edge80" class="edge">
<title>Node1&#45;&gt;Node19</title>
<path fill="none" stroke="midnightblue" d="M371.02,-481.37C413.43,-462.09 516.03,-415.45 565.89,-392.79"/>
<polygon fill="midnightblue" stroke="midnightblue" points="567.47,-395.92 575.13,-388.59 564.58,-389.54 567.47,-395.92"/>
</g>
<!-- Node31 -->
<g id="node31" class="node">
<title>Node31</title>
<g id="a_node31"><a xlink:href="APU_8hpp.html" target="_top" xlink:title=" ">
<polygon fill="white" stroke="black" points="631.53,-246.5 631.53,-265.5 712.53,-265.5 712.53,-246.5 631.53,-246.5"/>
<text text-anchor="middle" x="672.03" y="-253.5" font-family="Helvetica,sans-Serif" font-size="10.00">APU/APU.hpp</text>
</a>
</g>
</g>
<!-- Node1&#45;&gt;Node31 -->
<g id="edge81" class="edge">
<title>Node1&#45;&gt;Node31</title>
<path fill="none" stroke="midnightblue" d="M431.98,-481.49C499.66,-470.5 595.52,-445.5 659.03,-389 689.18,-362.18 690.69,-341.96 685.03,-302 683.76,-293.04 681.14,-283.37 678.58,-275.3"/>
<polygon fill="midnightblue" stroke="midnightblue" points="681.89,-274.16 675.38,-265.8 675.26,-276.4 681.89,-274.16"/>
</g>
<!-- Node37 -->
<g id="node37" class="node">
<title>Node37</title>
<g id="a_node37"><a xlink:href="Utility_8hpp.html" target="_top" xlink:title=" ">
<polygon fill="white" stroke="black" points="1358.53,-56.5 1358.53,-86.5 1463.53,-86.5 1463.53,-56.5 1358.53,-56.5"/>
<text text-anchor="start" x="1366.53" y="-74.5" font-family="Helvetica,sans-Serif" font-size="10.00">../../sources/Utility</text>
<text text-anchor="middle" x="1411.03" y="-63.5" font-family="Helvetica,sans-Serif" font-size="10.00">/Utility.hpp</text>
</a>
</g>
</g>
<!-- Node1&#45;&gt;Node37 -->
<g id="edge82" class="edge">
<title>Node1&#45;&gt;Node37</title>
<path fill="none" stroke="midnightblue" d="M443.72,-489.97C700.15,-488.67 1406.03,-476.36 1406.03,-380 1406.03,-380 1406.03,-380 1406.03,-193.5 1406.03,-159.95 1407.97,-121.22 1409.44,-96.79"/>
<polygon fill="midnightblue" stroke="midnightblue" points="1412.94,-96.85 1410.07,-86.65 1405.95,-96.41 1412.94,-96.85"/>
</g>
<!-- Node5&#45;&gt;Node2 -->
<g id="edge23" class="edge">
<title>Node5&#45;&gt;Node2</title>
<path fill="none" stroke="midnightblue" d="M316.25,-425.56C276.57,-416.21 212.45,-401.08 169.06,-390.85"/>
<polygon fill="midnightblue" stroke="midnightblue" points="169.85,-387.45 159.32,-388.56 168.25,-394.26 169.85,-387.45"/>
</g>
<!-- Node5&#45;&gt;Node3 -->
<g id="edge24" class="edge">
<title>Node5&#45;&gt;Node3</title>
<path fill="none" stroke="midnightblue" d="M332.07,-425.44C311.42,-416.6 278.97,-402.69 255.4,-392.59"/>
<polygon fill="midnightblue" stroke="midnightblue" points="256.47,-389.24 245.9,-388.52 253.72,-395.67 256.47,-389.24"/>
</g>
<!-- Node5&#45;&gt;Node5 -->
<g id="edge26" class="edge">
<title>Node5&#45;&gt;Node5</title>
<path fill="none" stroke="midnightblue" d="M374.85,-444.53C390.35,-447.31 405.53,-444.13 405.53,-435 405.53,-427.86 396.27,-424.37 384.82,-424.5"/>
<polygon fill="midnightblue" stroke="midnightblue" points="384.46,-421.02 374.85,-425.47 385.14,-427.99 384.46,-421.02"/>
</g>
<!-- Node6 -->
<g id="node6" class="node">
<title>Node6</title>
<g id="a_node6"><a xlink:href="MemoryBus_8hpp.html" target="_top" xlink:title=" ">
<polygon fill="white" stroke="black" points="179.03,-179.5 179.03,-209.5 329.03,-209.5 329.03,-179.5 179.03,-179.5"/>
<text text-anchor="start" x="187.03" y="-197.5" font-family="Helvetica,sans-Serif" font-size="10.00">../sources/Memory/Memory</text>
<text text-anchor="middle" x="254.03" y="-186.5" font-family="Helvetica,sans-Serif" font-size="10.00">Bus.hpp</text>
</a>
</g>
</g>
<!-- Node5&#45;&gt;Node6 -->
<g id="edge5" class="edge">
<title>Node5&#45;&gt;Node6</title>
<path fill="none" stroke="midnightblue" d="M339.23,-425.5C317.15,-410.04 272.3,-375 252.03,-333 234.46,-296.58 241.01,-248.17 247.46,-219.57"/>
<polygon fill="midnightblue" stroke="midnightblue" points="250.91,-220.19 249.88,-209.65 244.11,-218.54 250.91,-220.19"/>
</g>
<!-- Node15 -->
<g id="node15" class="node">
<title>Node15</title>
<g id="a_node15"><a xlink:title=" ">
<polygon fill="white" stroke="#bfbfbf" points="365.53,-369.5 365.53,-388.5 416.53,-388.5 416.53,-369.5 365.53,-369.5"/>
<text text-anchor="middle" x="391.03" y="-376.5" font-family="Helvetica,sans-Serif" font-size="10.00">zconf.h</text>
</a>
</g>
</g>
<!-- Node5&#45;&gt;Node15 -->
<g id="edge25" class="edge">
<title>Node5&#45;&gt;Node15</title>
<path fill="none" stroke="midnightblue" d="M358.47,-425.08C363.98,-417.46 372.06,-406.26 378.8,-396.94"/>
<polygon fill="midnightblue" stroke="midnightblue" points="381.69,-398.91 384.71,-388.75 376.02,-394.81 381.69,-398.91"/>
</g>
<!-- Node16 -->
<g id="node16" class="node">
<title>Node16</title>
<g id="a_node16"><a xlink:href="NoRenderer_8hpp.html" target="_top" xlink:title=" ">
<polygon fill="white" stroke="black" points="282.03,-302.5 282.03,-332.5 392.03,-332.5 392.03,-302.5 282.03,-302.5"/>
<text text-anchor="start" x="290.03" y="-320.5" font-family="Helvetica,sans-Serif" font-size="10.00">../sources/Renderer</text>
<text text-anchor="middle" x="337.03" y="-309.5" font-family="Helvetica,sans-Serif" font-size="10.00">/NoRenderer.hpp</text>
</a>
</g>
</g>
<!-- Node5&#45;&gt;Node16 -->
<g id="edge27" class="edge">
<title>Node5&#45;&gt;Node16</title>
<path fill="none" stroke="midnightblue" d="M350.9,-425.32C348.65,-407.97 343.52,-368.46 340.17,-342.66"/>
<polygon fill="midnightblue" stroke="midnightblue" points="343.61,-342.01 338.86,-332.55 336.67,-342.91 343.61,-342.01"/>
</g>
<!-- Node5&#45;&gt;Node19 -->
<g id="edge31" class="edge">
<title>Node5&#45;&gt;Node19</title>
<path fill="none" stroke="midnightblue" d="M387.74,-426.03C429.63,-416.68 499.27,-401.14 545.9,-390.74"/>
<polygon fill="midnightblue" stroke="midnightblue" points="546.78,-394.13 555.78,-388.54 545.26,-387.3 546.78,-394.13"/>
</g>
<!-- Node7 -->
<g id="node7" class="node">
<title>Node7</title>
<g id="a_node7"><a xlink:title=" ">
<polygon fill="white" stroke="#bfbfbf" points="320.03,-0.5 320.03,-19.5 370.03,-19.5 370.03,-0.5 320.03,-0.5"/>
<text text-anchor="middle" x="345.03" y="-7.5" font-family="Helvetica,sans-Serif" font-size="10.00">cstdint</text>
</a>
</g>
</g>
<!-- Node6&#45;&gt;Node7 -->
<g id="edge6" class="edge">
<title>Node6&#45;&gt;Node7</title>
<path fill="none" stroke="midnightblue" d="M253.78,-179.38C253.97,-152.99 257.54,-95.3 283.03,-56 291.59,-42.8 305.48,-32.19 317.94,-24.6"/>
<polygon fill="midnightblue" stroke="midnightblue" points="319.73,-27.61 326.67,-19.61 316.25,-21.53 319.73,-27.61"/>
</g>
<!-- Node8 -->
<g id="node8" class="node">
<title>Node8</title>
<g id="a_node8"><a xlink:title=" ">
<polygon fill="white" stroke="#bfbfbf" points="393.53,-0.5 393.53,-19.5 440.53,-19.5 440.53,-0.5 393.53,-0.5"/>
<text text-anchor="middle" x="417.03" y="-7.5" font-family="Helvetica,sans-Serif" font-size="10.00">vector</text>
</a>
</g>
</g>
<!-- Node6&#45;&gt;Node8 -->
<g id="edge7" class="edge">
<title>Node6&#45;&gt;Node8</title>
<path fill="none" stroke="midnightblue" d="M266.55,-179.48C296.23,-146.26 370.73,-62.85 402.41,-27.37"/>
<polygon fill="midnightblue" stroke="midnightblue" points="405.1,-29.61 409.15,-19.82 399.88,-24.95 405.1,-29.61"/>
</g>
<!-- Node9 -->
<g id="node9" class="node">
<title>Node9</title>
<g id="a_node9"><a xlink:title=" ">
<polygon fill="white" stroke="#bfbfbf" points="638.03,-0.5 638.03,-19.5 696.03,-19.5 696.03,-0.5 638.03,-0.5"/>
<text text-anchor="middle" x="667.03" y="-7.5" font-family="Helvetica,sans-Serif" font-size="10.00">memory</text>
</a>
</g>
</g>
<!-- Node6&#45;&gt;Node9 -->
<g id="edge8" class="edge">
<title>Node6&#45;&gt;Node9</title>
<path fill="none" stroke="midnightblue" d="M272.78,-179.36C296.86,-161.36 337.54,-131.56 354.03,-123 447.73,-74.36 567.33,-38.05 627.98,-21.28"/>
<polygon fill="midnightblue" stroke="midnightblue" points="629.17,-24.58 637.9,-18.57 627.33,-17.83 629.17,-24.58"/>
</g>
<!-- Node10 -->
<g id="node10" class="node">
<title>Node10</title>
<g id="a_node10"><a xlink:href="AMemory_8hpp.html" target="_top" xlink:title=" ">
<polygon fill="white" stroke="black" points="557.53,-123.5 557.53,-142.5 640.53,-142.5 640.53,-123.5 557.53,-123.5"/>
<text text-anchor="middle" x="599.03" y="-130.5" font-family="Helvetica,sans-Serif" font-size="10.00">AMemory.hpp</text>
</a>
</g>
</g>
<!-- Node6&#45;&gt;Node10 -->
<g id="edge9" class="edge">
<title>Node6&#45;&gt;Node10</title>
<path fill="none" stroke="midnightblue" d="M329.27,-180.67C386.24,-170.94 466.74,-157.14 546.99,-143.17"/>
<polygon fill="midnightblue" stroke="midnightblue" points="548.03,-146.55 557.29,-141.38 546.83,-139.65 548.03,-146.55"/>
</g>
<!-- Node10&#45;&gt;Node7 -->
<g id="edge10" class="edge">
<title>Node10&#45;&gt;Node7</title>
<path fill="none" stroke="midnightblue" d="M574.19,-123.45C550.43,-115.02 513.76,-101.34 483.03,-87 441.35,-67.54 394.88,-40.85 367.9,-24.83"/>
<polygon fill="midnightblue" stroke="midnightblue" points="369.59,-21.76 359.21,-19.63 365.99,-27.77 369.59,-21.76"/>
</g>
<!-- Node10&#45;&gt;Node8 -->
<g id="edge11" class="edge">
<title>Node10&#45;&gt;Node8</title>
<path fill="none" stroke="midnightblue" d="M586.23,-123.49C555.37,-102.97 476.59,-50.6 438.41,-25.21"/>
<polygon fill="midnightblue" stroke="midnightblue" points="440.32,-22.28 430.06,-19.66 436.45,-28.11 440.32,-22.28"/>
</g>
<!-- Node10&#45;&gt;Node9 -->
<g id="edge12" class="edge">
<title>Node10&#45;&gt;Node9</title>
<path fill="none" stroke="midnightblue" d="M612.28,-123.23C623.47,-115.12 639.06,-102.09 648.03,-87 658.55,-69.32 663.27,-45.99 665.37,-29.87"/>
<polygon fill="midnightblue" stroke="midnightblue" points="668.89,-29.91 666.49,-19.59 661.93,-29.15 668.89,-29.91"/>
</g>
<!-- Node11 -->
<g id="node11" class="node">
<title>Node11</title>
<g id="a_node11"><a xlink:title=" ">
<polygon fill="white" stroke="#bfbfbf" points="925.03,-0.5 925.03,-19.5 969.03,-19.5 969.03,-0.5 925.03,-0.5"/>
<text text-anchor="middle" x="947.03" y="-7.5" font-family="Helvetica,sans-Serif" font-size="10.00">string</text>
</a>
</g>
</g>
<!-- Node10&#45;&gt;Node11 -->
<g id="edge13" class="edge">
<title>Node10&#45;&gt;Node11</title>
<path fill="none" stroke="midnightblue" d="M623.5,-123.49C685.01,-102.1 846.09,-46.1 915,-22.14"/>
<polygon fill="midnightblue" stroke="midnightblue" points="916.56,-25.3 924.86,-18.71 914.26,-18.69 916.56,-25.3"/>
</g>
<!-- Node12 -->
<g id="node12" class="node">
<title>Node12</title>
<g id="a_node12"><a xlink:href="Int24_8hpp.html" target="_top" xlink:title=" ">
<polygon fill="white" stroke="black" points="1079.03,-0.5 1079.03,-19.5 1189.03,-19.5 1189.03,-0.5 1079.03,-0.5"/>
<text text-anchor="middle" x="1134.03" y="-7.5" font-family="Helvetica,sans-Serif" font-size="10.00">../Models/Int24.hpp</text>
</a>
</g>
</g>
<!-- Node10&#45;&gt;Node12 -->
<g id="edge14" class="edge">
<title>Node10&#45;&gt;Node12</title>
<path fill="none" stroke="midnightblue" d="M636.65,-123.49C731.6,-102.02 980.86,-45.64 1086.07,-21.85"/>
<polygon fill="midnightblue" stroke="midnightblue" points="1087.11,-25.2 1096.1,-19.58 1085.57,-18.37 1087.11,-25.2"/>
</g>
<!-- Node13 -->
<g id="node13" class="node">
<title>Node13</title>
<g id="a_node13"><a xlink:href="Components_8hpp.html" target="_top" xlink:title=" ">
<polygon fill="white" stroke="black" points="467.03,-0.5 467.03,-19.5 613.03,-19.5 613.03,-0.5 467.03,-0.5"/>
<text text-anchor="middle" x="540.03" y="-7.5" font-family="Helvetica,sans-Serif" font-size="10.00">../Models/Components.hpp</text>
</a>
</g>
</g>
<!-- Node10&#45;&gt;Node13 -->
<g id="edge15" class="edge">
<title>Node10&#45;&gt;Node13</title>
<path fill="none" stroke="midnightblue" d="M585.35,-123.47C573.88,-115.52 558.13,-102.58 550.03,-87 540.75,-69.14 538.94,-45.85 539.02,-29.78"/>
<polygon fill="midnightblue" stroke="midnightblue" points="542.53,-29.64 539.33,-19.54 535.53,-29.43 542.53,-29.64"/>
</g>
<!-- Node14 -->
<g id="node14" class="node">
<title>Node14</title>
<g id="a_node14"><a xlink:href="IMemory_8hpp.html" target="_top" xlink:title=" ">
<polygon fill="white" stroke="black" points="559.03,-62 559.03,-81 639.03,-81 639.03,-62 559.03,-62"/>
<text text-anchor="middle" x="599.03" y="-69" font-family="Helvetica,sans-Serif" font-size="10.00">IMemory.hpp</text>
</a>
</g>
</g>
<!-- Node10&#45;&gt;Node14 -->
<g id="edge16" class="edge">
<title>Node10&#45;&gt;Node14</title>
<path fill="none" stroke="midnightblue" d="M599.03,-123.48C599.03,-115.08 599.03,-101.98 599.03,-91.16"/>
<polygon fill="midnightblue" stroke="midnightblue" points="602.53,-91.01 599.03,-81.01 595.53,-91.01 602.53,-91.01"/>
</g>
<!-- Node14&#45;&gt;Node7 -->
<g id="edge17" class="edge">
<title>Node14&#45;&gt;Node7</title>
<path fill="none" stroke="midnightblue" d="M562.64,-61.98C513.95,-50.57 428.18,-30.48 380.15,-19.23"/>
<polygon fill="midnightblue" stroke="midnightblue" points="380.75,-15.77 370.21,-16.9 379.15,-22.59 380.75,-15.77"/>
</g>
<!-- Node14&#45;&gt;Node8 -->
<g id="edge18" class="edge">
<title>Node14&#45;&gt;Node8</title>
<path fill="none" stroke="midnightblue" d="M572.96,-61.98C540.75,-51.45 485.91,-33.52 450.59,-21.97"/>
<polygon fill="midnightblue" stroke="midnightblue" points="451.34,-18.53 440.74,-18.75 449.16,-25.19 451.34,-18.53"/>
</g>
<!-- Node14&#45;&gt;Node9 -->
<g id="edge19" class="edge">
<title>Node14&#45;&gt;Node9</title>
<path fill="none" stroke="midnightblue" d="M608.77,-61.98C619.38,-52.7 636.55,-37.67 649.51,-26.33"/>
<polygon fill="midnightblue" stroke="midnightblue" points="652.09,-28.73 657.31,-19.51 647.48,-23.46 652.09,-28.73"/>
</g>
<!-- Node14&#45;&gt;Node11 -->
<g id="edge20" class="edge">
<title>Node14&#45;&gt;Node11</title>
<path fill="none" stroke="midnightblue" d="M639.29,-63.62C709.12,-51.68 851.3,-27.37 914.96,-16.48"/>
<polygon fill="midnightblue" stroke="midnightblue" points="915.57,-19.93 924.83,-14.8 914.39,-13.03 915.57,-19.93"/>
</g>
<!-- Node14&#45;&gt;Node12 -->
<g id="edge21" class="edge">
<title>Node14&#45;&gt;Node12</title>
<path fill="none" stroke="midnightblue" d="M639.24,-66.03C731.03,-55.82 956.67,-30.73 1068.71,-18.26"/>
<polygon fill="midnightblue" stroke="midnightblue" points="1069.32,-21.72 1078.87,-17.13 1068.54,-14.76 1069.32,-21.72"/>
</g>
<!-- Node14&#45;&gt;Node13 -->
<g id="edge22" class="edge">
<title>Node14&#45;&gt;Node13</title>
<path fill="none" stroke="midnightblue" d="M590.58,-61.98C581.47,-52.78 566.76,-37.96 555.56,-26.66"/>
<polygon fill="midnightblue" stroke="midnightblue" points="558,-24.15 548.47,-19.51 553.02,-29.07 558,-24.15"/>
</g>
<!-- Node17 -->
<g id="node17" class="node">
<title>Node17</title>
<g id="a_node17"><a xlink:href="IRenderer_8hpp.html" target="_top" xlink:title=" ">
<polygon fill="white" stroke="black" points="385.03,-185 385.03,-204 469.03,-204 469.03,-185 385.03,-185"/>
<text text-anchor="middle" x="427.03" y="-192" font-family="Helvetica,sans-Serif" font-size="10.00">IRenderer.hpp</text>
</a>
</g>
</g>
<!-- Node16&#45;&gt;Node17 -->
<g id="edge28" class="edge">
<title>Node16&#45;&gt;Node17</title>
<path fill="none" stroke="midnightblue" d="M356.57,-302.48C368.53,-293.17 383.5,-280.09 394.03,-266 406.01,-249.97 415.17,-228.9 420.77,-213.98"/>
<polygon fill="midnightblue" stroke="midnightblue" points="424.13,-214.96 424.2,-204.37 417.54,-212.61 424.13,-214.96"/>
</g>
<!-- Node17&#45;&gt;Node11 -->
<g id="edge29" class="edge">
<title>Node17&#45;&gt;Node11</title>
<path fill="none" stroke="midnightblue" d="M432.13,-184.53C441.26,-169.32 461.92,-138.63 488.03,-123 550.57,-85.56 578.3,-108.23 648.03,-87 684.51,-75.9 691.45,-66.76 728.03,-56 793.39,-36.77 872.08,-22.75 915.09,-15.84"/>
<polygon fill="midnightblue" stroke="midnightblue" points="915.65,-19.3 924.98,-14.28 914.55,-12.39 915.65,-19.3"/>
</g>
<!-- Node18 -->
<g id="node18" class="node">
<title>Node18</title>
<g id="a_node18"><a xlink:title=" ">
<polygon fill="white" stroke="#bfbfbf" points="363.03,-123.5 363.03,-142.5 403.03,-142.5 403.03,-123.5 363.03,-123.5"/>
<text text-anchor="middle" x="383.03" y="-130.5" font-family="Helvetica,sans-Serif" font-size="10.00">span</text>
</a>
</g>
</g>
<!-- Node17&#45;&gt;Node18 -->
<g id="edge30" class="edge">
<title>Node17&#45;&gt;Node18</title>
<path fill="none" stroke="midnightblue" d="M420.73,-184.98C414.13,-176.05 403.59,-161.81 395.34,-150.64"/>
<polygon fill="midnightblue" stroke="midnightblue" points="398.08,-148.47 389.32,-142.51 392.46,-152.63 398.08,-148.47"/>
</g>
<!-- Node19&#45;&gt;Node6 -->
<g id="edge32" class="edge">
<title>Node19&#45;&gt;Node6</title>
<path fill="none" stroke="midnightblue" d="M537.19,-373.73C450.01,-366.64 291.37,-351.37 273.03,-333 243.34,-303.25 245.29,-250.2 249.55,-219.42"/>
<polygon fill="midnightblue" stroke="midnightblue" points="253,-219.96 251.1,-209.53 246.09,-218.87 253,-219.96"/>
</g>
<!-- Node19&#45;&gt;Node17 -->
<g id="edge77" class="edge">
<title>Node19&#45;&gt;Node17</title>
<path fill="none" stroke="midnightblue" d="M604.75,-369.3C613.97,-361.07 626.62,-347.79 632.03,-333 636.76,-320.06 638.63,-314.09 632.03,-302 614.13,-269.19 513.61,-227.7 460.28,-207.56"/>
<polygon fill="midnightblue" stroke="midnightblue" points="461.5,-204.28 450.9,-204.06 459.05,-210.83 461.5,-204.28"/>
</g>
<!-- Node20 -->
<g id="node20" class="node">
<title>Node20</title>
<g id="a_node20"><a xlink:href="CPU_8hpp.html" target="_top" xlink:title=" ">
<polygon fill="white" stroke="black" points="858.53,-308 858.53,-327 939.53,-327 939.53,-308 858.53,-308"/>
<text text-anchor="middle" x="899.03" y="-315" font-family="Helvetica,sans-Serif" font-size="10.00">CPU/CPU.hpp</text>
</a>
</g>
</g>
<!-- Node19&#45;&gt;Node20 -->
<g id="edge33" class="edge">
<title>Node19&#45;&gt;Node20</title>
<path fill="none" stroke="midnightblue" d="M637.73,-369.48C693.47,-358.6 789.69,-339.83 848.52,-328.35"/>
<polygon fill="midnightblue" stroke="midnightblue" points="849.19,-331.79 858.34,-326.44 847.85,-324.92 849.19,-331.79"/>
</g>
<!-- Node21 -->
<g id="node21" class="node">
<title>Node21</title>
<g id="a_node21"><a xlink:href="Cartridge_8hpp.html" target="_top" xlink:title=" ">
<polygon fill="white" stroke="black" points="1067.03,-246.5 1067.03,-265.5 1207.03,-265.5 1207.03,-246.5 1067.03,-246.5"/>
<text text-anchor="middle" x="1137.03" y="-253.5" font-family="Helvetica,sans-Serif" font-size="10.00">../Cartridge/Cartridge.hpp</text>
</a>
</g>
</g>
<!-- Node19&#45;&gt;Node21 -->
<g id="edge55" class="edge">
<title>Node19&#45;&gt;Node21</title>
<path fill="none" stroke="midnightblue" d="M650.83,-375.32C721.65,-370.95 845.94,-359.89 949.03,-333 1008.82,-317.41 1074.99,-287.48 1110.69,-270.19"/>
<polygon fill="midnightblue" stroke="midnightblue" points="1112.48,-273.22 1119.92,-265.68 1109.4,-266.93 1112.48,-273.22"/>
</g>
<!-- Node24 -->
<g id="node24" class="node">
<title>Node24</title>
<g id="a_node24"><a xlink:href="Ram_8hpp.html" target="_top" xlink:title=" ">
<polygon fill="white" stroke="black" points="823.53,-185 823.53,-204 918.53,-204 918.53,-185 823.53,-185"/>
<text text-anchor="middle" x="871.03" y="-192" font-family="Helvetica,sans-Serif" font-size="10.00">../Ram/Ram.hpp</text>
</a>
</g>
</g>
<!-- Node19&#45;&gt;Node24 -->
<g id="edge56" class="edge">
<title>Node19&#45;&gt;Node24</title>
<path fill="none" stroke="midnightblue" d="M613.74,-369.48C632.54,-361.07 661.41,-347.41 685.03,-333 749.85,-293.44 820.4,-237.3 852.84,-210.66"/>
<polygon fill="midnightblue" stroke="midnightblue" points="855.12,-213.32 860.6,-204.26 850.66,-207.92 855.12,-213.32"/>
</g>
<!-- Node27 -->
<g id="node27" class="node">
<title>Node27</title>
<g id="a_node27"><a xlink:href="PPU_8hpp.html" target="_top" xlink:title=" ">
<polygon fill="white" stroke="black" points="305.03,-246.5 305.03,-265.5 385.03,-265.5 385.03,-246.5 305.03,-246.5"/>
<text text-anchor="middle" x="345.03" y="-253.5" font-family="Helvetica,sans-Serif" font-size="10.00">PPU/PPU.hpp</text>
</a>
</g>
</g>
<!-- Node19&#45;&gt;Node27 -->
<g id="edge57" class="edge">
<title>Node19&#45;&gt;Node27</title>
<path fill="none" stroke="midnightblue" d="M546.72,-369.44C515.02,-362.48 473.02,-350.84 439.03,-333 419.73,-322.87 417.97,-315.72 401.03,-302 388.64,-291.97 374.66,-280.73 363.77,-272"/>
<polygon fill="midnightblue" stroke="midnightblue" points="365.78,-269.13 355.79,-265.6 361.4,-274.59 365.78,-269.13"/>
</g>
<!-- Node19&#45;&gt;Node31 -->
<g id="edge66" class="edge">
<title>Node19&#45;&gt;Node31</title>
<path fill="none" stroke="midnightblue" d="M618.74,-369.37C635.09,-362.28 655.4,-350.52 666.03,-333 676.52,-315.72 676.63,-292 675.01,-275.68"/>
<polygon fill="midnightblue" stroke="midnightblue" points="678.48,-275.2 673.72,-265.74 671.53,-276.1 678.48,-275.2"/>
</g>
<!-- Node35 -->
<g id="node35" class="node">
<title>Node35</title>
<g id="a_node35"><a xlink:href="DebuggableError_8hpp.html" target="_top" xlink:title=" ">
<polygon fill="white" stroke="black" points="448.53,-308 448.53,-327 623.53,-327 623.53,-308 448.53,-308"/>
<text text-anchor="middle" x="536.03" y="-315" font-family="Helvetica,sans-Serif" font-size="10.00">Exceptions/DebuggableError.hpp</text>
</a>
</g>
</g>
<!-- Node19&#45;&gt;Node35 -->
<g id="edge78" class="edge">
<title>Node19&#45;&gt;Node35</title>
<path fill="none" stroke="midnightblue" d="M585.72,-369.48C576.85,-360.37 562.59,-345.74 551.61,-334.48"/>
<polygon fill="midnightblue" stroke="midnightblue" points="553.81,-331.73 544.33,-327.01 548.8,-336.61 553.81,-331.73"/>
</g>
<!-- Node20&#45;&gt;Node6 -->
<g id="edge35" class="edge">
<title>Node20&#45;&gt;Node6</title>
<path fill="none" stroke="midnightblue" d="M858.47,-310.07C804.34,-301.27 705.57,-284.44 622.03,-266 587.5,-258.38 579.59,-253.47 545.03,-246 476.1,-231.09 397.24,-217.63 339.01,-208.36"/>
<polygon fill="midnightblue" stroke="midnightblue" points="339.54,-204.9 329.12,-206.79 338.45,-211.81 339.54,-204.9"/>
</g>
<!-- Node20&#45;&gt;Node10 -->
<g id="edge34" class="edge">
<title>Node20&#45;&gt;Node10</title>
<path fill="none" stroke="midnightblue" d="M887.78,-307.68C858.08,-284.66 774.68,-221.57 699.03,-179 676.79,-166.48 650.42,-154.74 630.34,-146.38"/>
<polygon fill="midnightblue" stroke="midnightblue" points="631.62,-143.12 621.04,-142.57 628.96,-149.6 631.62,-143.12"/>
</g>
<!-- Node20&#45;&gt;Node12 -->
<g id="edge36" class="edge">
<title>Node20&#45;&gt;Node12</title>
<path fill="none" stroke="midnightblue" d="M939.85,-313.34C1038.89,-304.68 1286.88,-276.58 1328.03,-210 1378.8,-127.85 1231.59,-52.51 1164.95,-23.55"/>
<polygon fill="midnightblue" stroke="midnightblue" points="1166.3,-20.32 1155.73,-19.62 1163.56,-26.76 1166.3,-20.32"/>
</g>
<!-- Node20&#45;&gt;Node21 -->
<g id="edge37" class="edge">
<title>Node20&#45;&gt;Node21</title>
<path fill="none" stroke="midnightblue" d="M933.13,-307.98C975.28,-297.44 1047.09,-279.49 1093.27,-267.94"/>
<polygon fill="midnightblue" stroke="midnightblue" points="1094.14,-271.33 1102.99,-265.51 1092.44,-264.54 1094.14,-271.33"/>
</g>
<!-- Node25 -->
<g id="node25" class="node">
<title>Node25</title>
<g id="a_node25"><a xlink:href="Instruction_8hpp.html" target="_top" xlink:title=" ">
<polygon fill="white" stroke="black" points="1089.53,-62 1089.53,-81 1178.53,-81 1178.53,-62 1089.53,-62"/>
<text text-anchor="middle" x="1134.03" y="-69" font-family="Helvetica,sans-Serif" font-size="10.00">Instruction.hpp</text>
</a>
</g>
</g>
<!-- Node20&#45;&gt;Node25 -->
<g id="edge47" class="edge">
<title>Node20&#45;&gt;Node25</title>
<path fill="none" stroke="midnightblue" d="M912.65,-307.99C938.71,-291.29 996.63,-252.18 1037.03,-210 1074.11,-171.3 1107.86,-117.45 1124.01,-90.04"/>
<polygon fill="midnightblue" stroke="midnightblue" points="1127.14,-91.62 1129.14,-81.21 1121.09,-88.1 1127.14,-91.62"/>
</g>
<!-- Node26 -->
<g id="node26" class="node">
<title>Node26</title>
<g id="a_node26"><a xlink:href="DMA_8hpp.html" target="_top" xlink:title=" ">
<polygon fill="white" stroke="black" points="855.53,-246.5 855.53,-265.5 942.53,-265.5 942.53,-246.5 855.53,-246.5"/>
<text text-anchor="middle" x="899.03" y="-253.5" font-family="Helvetica,sans-Serif" font-size="10.00">DMA/DMA.hpp</text>
</a>
</g>
</g>
<!-- Node20&#45;&gt;Node26 -->
<g id="edge50" class="edge">
<title>Node20&#45;&gt;Node26</title>
<path fill="none" stroke="midnightblue" d="M899.03,-307.98C899.03,-299.58 899.03,-286.48 899.03,-275.66"/>
<polygon fill="midnightblue" stroke="midnightblue" points="902.53,-275.51 899.03,-265.51 895.53,-275.51 902.53,-275.51"/>
</g>
<!-- Node21&#45;&gt;Node10 -->
<g id="edge39" class="edge">
<title>Node21&#45;&gt;Node10</title>
<path fill="none" stroke="midnightblue" d="M1108.21,-246.49C1080.09,-237.98 1036.25,-224.15 999.03,-210 966.85,-197.76 961.18,-188.31 928.03,-179 832.28,-152.11 716.17,-141.02 650.62,-136.66"/>
<polygon fill="midnightblue" stroke="midnightblue" points="650.75,-133.16 640.55,-136.01 650.3,-140.14 650.75,-133.16"/>
</g>
<!-- Node21&#45;&gt;Node11 -->
<g id="edge38" class="edge">
<title>Node21&#45;&gt;Node11</title>
<path fill="none" stroke="midnightblue" d="M1132.19,-246.5C1115.72,-217.9 1059.44,-123.24 999.03,-56 989.18,-45.04 976.74,-34.18 966.5,-25.88"/>
<polygon fill="midnightblue" stroke="midnightblue" points="968.53,-23.03 958.52,-19.57 964.18,-28.52 968.53,-23.03"/>
</g>
<!-- Node21&#45;&gt;Node12 -->
<g id="edge40" class="edge">
<title>Node21&#45;&gt;Node12</title>
<path fill="none" stroke="midnightblue" d="M1143.31,-246.27C1163.02,-217.74 1220.4,-125.12 1188.03,-56 1181.99,-43.09 1170.22,-32.6 1159.21,-25"/>
<polygon fill="midnightblue" stroke="midnightblue" points="1160.97,-21.97 1150.66,-19.54 1157.2,-27.87 1160.97,-21.97"/>
</g>
<!-- Node22 -->
<g id="node22" class="node">
<title>Node22</title>
<g id="a_node22"><a xlink:href="ARectangleMemory_8hpp.html" target="_top" xlink:title=" ">
<polygon fill="white" stroke="black" points="734.53,-123.5 734.53,-142.5 919.53,-142.5 919.53,-123.5 734.53,-123.5"/>
<text text-anchor="middle" x="827.03" y="-130.5" font-family="Helvetica,sans-Serif" font-size="10.00">../Memory/ARectangleMemory.hpp</text>
</a>
</g>
</g>
<!-- Node21&#45;&gt;Node22 -->
<g id="edge41" class="edge">
<title>Node21&#45;&gt;Node22</title>
<path fill="none" stroke="midnightblue" d="M1123.87,-246.29C1099.94,-230.79 1047.3,-198.26 999.03,-179 960.94,-163.8 916.05,-152.26 881.68,-144.67"/>
<polygon fill="midnightblue" stroke="midnightblue" points="882.34,-141.23 871.83,-142.53 880.86,-148.07 882.34,-141.23"/>
</g>
<!-- Node23 -->
<g id="node23" class="node">
<title>Node23</title>
<g id="a_node23"><a xlink:href="InterruptVectors_8hpp.html" target="_top" xlink:title=" ">
<polygon fill="white" stroke="black" points="1203.03,-185 1203.03,-204 1319.03,-204 1319.03,-185 1203.03,-185"/>
<text text-anchor="middle" x="1261.03" y="-192" font-family="Helvetica,sans-Serif" font-size="10.00">InterruptVectors.hpp</text>
</a>
</g>
</g>
<!-- Node21&#45;&gt;Node23 -->
<g id="edge43" class="edge">
<title>Node21&#45;&gt;Node23</title>
<path fill="none" stroke="midnightblue" d="M1154.8,-246.48C1175.52,-236.53 1209.98,-219.99 1234.02,-208.46"/>
<polygon fill="midnightblue" stroke="midnightblue" points="1235.8,-211.49 1243.3,-204.01 1232.77,-205.18 1235.8,-211.49"/>
</g>
<!-- Node21&#45;&gt;Node24 -->
<g id="edge44" class="edge">
<title>Node21&#45;&gt;Node24</title>
<path fill="none" stroke="midnightblue" d="M1098.92,-246.48C1051.51,-235.87 970.55,-217.76 918.98,-206.22"/>
<polygon fill="midnightblue" stroke="midnightblue" points="919.59,-202.78 909.07,-204.01 918.07,-209.61 919.59,-202.78"/>
</g>
<!-- Node22&#45;&gt;Node14 -->
<g id="edge42" class="edge">
<title>Node22&#45;&gt;Node14</title>
<path fill="none" stroke="midnightblue" d="M794.36,-123.48C754.15,-112.98 685.77,-95.14 641.52,-83.59"/>
<polygon fill="midnightblue" stroke="midnightblue" points="642.2,-80.15 631.64,-81.01 640.43,-86.92 642.2,-80.15"/>
</g>
<!-- Node24&#45;&gt;Node11 -->
<g id="edge46" class="edge">
<title>Node24&#45;&gt;Node11</title>
<path fill="none" stroke="midnightblue" d="M885.88,-184.96C899.52,-176.26 919.07,-161.45 929.03,-143 948.65,-106.65 949.66,-56.79 948.47,-29.95"/>
<polygon fill="midnightblue" stroke="midnightblue" points="951.95,-29.43 947.85,-19.66 944.96,-29.85 951.95,-29.43"/>
</g>
<!-- Node24&#45;&gt;Node22 -->
<g id="edge45" class="edge">
<title>Node24&#45;&gt;Node22</title>
<path fill="none" stroke="midnightblue" d="M864.73,-184.98C858.13,-176.05 847.59,-161.81 839.34,-150.64"/>
<polygon fill="midnightblue" stroke="midnightblue" points="842.08,-148.47 833.32,-142.51 836.46,-152.63 842.08,-148.47"/>
</g>
<!-- Node25&#45;&gt;Node11 -->
<g id="edge48" class="edge">
<title>Node25&#45;&gt;Node11</title>
<path fill="none" stroke="midnightblue" d="M1107.24,-61.98C1073.27,-51.17 1014.78,-32.56 978.66,-21.06"/>
<polygon fill="midnightblue" stroke="midnightblue" points="979.69,-17.72 969.1,-18.02 977.57,-24.39 979.69,-17.72"/>
</g>
<!-- Node25&#45;&gt;Node12 -->
<g id="edge49" class="edge">
<title>Node25&#45;&gt;Node12</title>
<path fill="none" stroke="midnightblue" d="M1134.03,-61.98C1134.03,-53.58 1134.03,-40.48 1134.03,-29.66"/>
<polygon fill="midnightblue" stroke="midnightblue" points="1137.53,-29.51 1134.03,-19.51 1130.53,-29.51 1137.53,-29.51"/>
</g>
<!-- Node26&#45;&gt;Node6 -->
<g id="edge54" class="edge">
<title>Node26&#45;&gt;Node6</title>
<path fill="none" stroke="midnightblue" d="M855.25,-251.72C765.36,-244.87 553.5,-228.18 376.03,-210 364.18,-208.79 351.69,-207.41 339.41,-206"/>
<polygon fill="midnightblue" stroke="midnightblue" points="339.49,-202.49 329.16,-204.82 338.69,-209.44 339.49,-202.49"/>
</g>
<!-- Node26&#45;&gt;Node7 -->
<g id="edge51" class="edge">
<title>Node26&#45;&gt;Node7</title>
<path fill="none" stroke="midnightblue" d="M882.78,-246.34C829.23,-217.82 661.09,-128.35 649.03,-123 606.23,-104.03 593.98,-103.14 550.03,-87 489.1,-64.63 418.1,-38.23 377.67,-23.17"/>
<polygon fill="midnightblue" stroke="midnightblue" points="378.66,-19.81 368.07,-19.6 376.22,-26.37 378.66,-19.81"/>
</g>
<!-- Node26&#45;&gt;Node9 -->
<g id="edge52" class="edge">
<title>Node26&#45;&gt;Node9</title>
<path fill="none" stroke="midnightblue" d="M906.66,-246.44C913.73,-237.9 923.78,-224.06 928.03,-210 939.23,-172.99 950.33,-155.27 929.03,-123 879.16,-47.44 766.69,-22.68 706.62,-14.7"/>
<polygon fill="midnightblue" stroke="midnightblue" points="706.74,-11.18 696.39,-13.43 705.88,-18.13 706.74,-11.18"/>
</g>
<!-- Node26&#45;&gt;Node12 -->
<g id="edge53" class="edge">
<title>Node26&#45;&gt;Node12</title>
<path fill="none" stroke="midnightblue" d="M908.63,-246.27C918.3,-237.37 933.53,-223.06 946.03,-210 1008.96,-144.24 1016.16,-119.85 1081.03,-56 1091.78,-45.42 1104.67,-34.44 1115.05,-25.98"/>
<polygon fill="midnightblue" stroke="midnightblue" points="1117.47,-28.52 1123.07,-19.52 1113.08,-23.06 1117.47,-28.52"/>
</g>
<!-- Node27&#45;&gt;Node6 -->
<g id="edge60" class="edge">
<title>Node27&#45;&gt;Node6</title>
<path fill="none" stroke="midnightblue" d="M331.99,-246.48C319.55,-238.34 300.36,-225.79 284.13,-215.18"/>
<polygon fill="midnightblue" stroke="midnightblue" points="285.76,-212.07 275.48,-209.52 281.93,-217.92 285.76,-212.07"/>
</g>
<!-- Node27&#45;&gt;Node7 -->
<g id="edge58" class="edge">
<title>Node27&#45;&gt;Node7</title>
<path fill="none" stroke="midnightblue" d="M304.81,-254.14C229.72,-251.76 71.99,-242.89 30.03,-210 4.76,-190.19 9.14,-174.52 3.03,-143 1.34,-134.27 -2.19,-130.2 3.03,-123 74.87,-23.88 237.09,-10.88 309.26,-10.23"/>
<polygon fill="midnightblue" stroke="midnightblue" points="309.64,-13.73 319.63,-10.22 309.63,-6.73 309.64,-13.73"/>
</g>
<!-- Node27&#45;&gt;Node10 -->
<g id="edge59" class="edge">
<title>Node27&#45;&gt;Node10</title>
<path fill="none" stroke="midnightblue" d="M345.92,-246.4C348.05,-230.47 354.95,-196.44 376.03,-179 382.67,-173.51 483.78,-154.61 547.55,-143.12"/>
<polygon fill="midnightblue" stroke="midnightblue" points="548.22,-146.56 557.44,-141.35 546.98,-139.67 548.22,-146.56"/>
</g>
<!-- Node27&#45;&gt;Node17 -->
<g id="edge61" class="edge">
<title>Node27&#45;&gt;Node17</title>
<path fill="none" stroke="midnightblue" d="M356.78,-246.48C369.81,-237.02 391.07,-221.6 406.79,-210.19"/>
<polygon fill="midnightblue" stroke="midnightblue" points="409.27,-212.71 415.3,-204.01 405.16,-207.05 409.27,-212.71"/>
</g>
<!-- Node27&#45;&gt;Node24 -->
<g id="edge62" class="edge">
<title>Node27&#45;&gt;Node24</title>
<path fill="none" stroke="midnightblue" d="M385.43,-250.43C478.07,-239.95 706.05,-214.16 813.38,-202.02"/>
<polygon fill="midnightblue" stroke="midnightblue" points="813.84,-205.49 823.38,-200.89 813.05,-198.54 813.84,-205.49"/>
</g>
<!-- Node28 -->
<g id="node28" class="node">
<title>Node28</title>
<g id="a_node28"><a xlink:href="Vector2_8hpp.html" target="_top" xlink:title=" ">
<polygon fill="white" stroke="black" points="39.03,-185 39.03,-204 161.03,-204 161.03,-185 39.03,-185"/>
<text text-anchor="middle" x="100.03" y="-192" font-family="Helvetica,sans-Serif" font-size="10.00">../Models/Vector2.hpp</text>
</a>
</g>
</g>
<!-- Node27&#45;&gt;Node28 -->
<g id="edge63" class="edge">
<title>Node27&#45;&gt;Node28</title>
<path fill="none" stroke="midnightblue" d="M309.93,-246.48C266.54,-235.94 192.62,-217.99 145.08,-206.44"/>
<polygon fill="midnightblue" stroke="midnightblue" points="145.61,-202.97 135.07,-204.01 143.96,-209.77 145.61,-202.97"/>
</g>
<!-- Node29 -->
<g id="node29" class="node">
<title>Node29</title>
<g id="a_node29"><a xlink:title=" ">
<polygon fill="white" stroke="#bfbfbf" points="173.53,-123.5 173.53,-142.5 230.53,-142.5 230.53,-123.5 173.53,-123.5"/>
<text text-anchor="middle" x="202.03" y="-130.5" font-family="Helvetica,sans-Serif" font-size="10.00">ostream</text>
</a>
</g>
</g>
<!-- Node28&#45;&gt;Node29 -->
<g id="edge64" class="edge">
<title>Node28&#45;&gt;Node29</title>
<path fill="none" stroke="midnightblue" d="M114.65,-184.98C131.38,-175.21 159.04,-159.08 178.75,-147.58"/>
<polygon fill="midnightblue" stroke="midnightblue" points="180.57,-150.57 187.44,-142.51 177.04,-144.52 180.57,-150.57"/>
</g>
<!-- Node30 -->
<g id="node30" class="node">
<title>Node30</title>
<g id="a_node30"><a xlink:title=" ">
<polygon fill="white" stroke="#bfbfbf" points="12.53,-123.5 12.53,-142.5 155.53,-142.5 155.53,-123.5 12.53,-123.5"/>
<text text-anchor="middle" x="84.03" y="-130.5" font-family="Helvetica,sans-Serif" font-size="10.00">SFML/System/Vector2.hpp</text>
</a>
</g>
</g>
<!-- Node28&#45;&gt;Node30 -->
<g id="edge65" class="edge">
<title>Node28&#45;&gt;Node30</title>
<path fill="none" stroke="midnightblue" d="M97.74,-184.98C95.46,-176.49 91.88,-163.2 88.96,-152.32"/>
<polygon fill="midnightblue" stroke="midnightblue" points="92.3,-151.26 86.32,-142.51 85.54,-153.07 92.3,-151.26"/>
</g>
<!-- Node31&#45;&gt;Node9 -->
<g id="edge67" class="edge">
<title>Node31&#45;&gt;Node9</title>
<path fill="none" stroke="midnightblue" d="M679.18,-246.36C685.8,-237.76 695.19,-223.87 699.03,-210 717.06,-144.9 689.71,-64.83 675.16,-29.38"/>
<polygon fill="midnightblue" stroke="midnightblue" points="678.25,-27.71 671.12,-19.88 671.81,-30.45 678.25,-27.71"/>
</g>
<!-- Node31&#45;&gt;Node10 -->
<g id="edge72" class="edge">
<title>Node31&#45;&gt;Node10</title>
<path fill="none" stroke="midnightblue" d="M654.09,-246.36C640.31,-238.75 622.01,-226.33 612.03,-210 601.47,-192.72 598.86,-169.32 598.48,-153.07"/>
<polygon fill="midnightblue" stroke="midnightblue" points="601.98,-152.71 598.52,-142.69 594.98,-152.68 601.98,-152.71"/>
</g>
<!-- Node31&#45;&gt;Node17 -->
<g id="edge76" class="edge">
<title>Node31&#45;&gt;Node17</title>
<path fill="none" stroke="midnightblue" d="M632.51,-246.43C593.21,-237.77 531.26,-223.73 478.03,-210 474.13,-208.99 470.08,-207.91 466.03,-206.8"/>
<polygon fill="midnightblue" stroke="midnightblue" points="466.66,-203.34 456.09,-204.03 464.78,-210.09 466.66,-203.34"/>
</g>
<!-- Node31&#45;&gt;Node24 -->
<g id="edge73" class="edge">
<title>Node31&#45;&gt;Node24</title>
<path fill="none" stroke="midnightblue" d="M700.54,-246.48C735.27,-236.09 794.07,-218.51 832.72,-206.95"/>
<polygon fill="midnightblue" stroke="midnightblue" points="833.99,-210.23 842.57,-204.01 831.99,-203.52 833.99,-210.23"/>
</g>
<!-- Node32 -->
<g id="node32" class="node">
<title>Node32</title>
<g id="a_node32"><a xlink:href="DSP_8hpp.html" target="_top" xlink:title=" ">
<polygon fill="white" stroke="black" points="487.03,-185 487.03,-204 565.03,-204 565.03,-185 487.03,-185"/>
<text text-anchor="middle" x="526.03" y="-192" font-family="Helvetica,sans-Serif" font-size="10.00">DSP/DSP.hpp</text>
</a>
</g>
</g>
<!-- Node31&#45;&gt;Node32 -->
<g id="edge68" class="edge">
<title>Node31&#45;&gt;Node32</title>
<path fill="none" stroke="midnightblue" d="M651.11,-246.48C626.29,-236.36 584.69,-219.4 556.34,-207.85"/>
<polygon fill="midnightblue" stroke="midnightblue" points="557.49,-204.54 546.91,-204.01 554.85,-211.02 557.49,-204.54"/>
</g>
<!-- Node34 -->
<g id="node34" class="node">
<title>Node34</title>
<g id="a_node34"><a xlink:href="IPL_8hpp.html" target="_top" xlink:title=" ">
<polygon fill="white" stroke="black" points="621.53,-185 621.53,-204 690.53,-204 690.53,-185 621.53,-185"/>
<text text-anchor="middle" x="656.03" y="-192" font-family="Helvetica,sans-Serif" font-size="10.00">IPL/IPL.hpp</text>
</a>
</g>
</g>
<!-- Node31&#45;&gt;Node34 -->
<g id="edge74" class="edge">
<title>Node31&#45;&gt;Node34</title>
<path fill="none" stroke="midnightblue" d="M669.74,-246.48C667.46,-237.99 663.88,-224.7 660.96,-213.82"/>
<polygon fill="midnightblue" stroke="midnightblue" points="664.3,-212.76 658.32,-204.01 657.54,-214.57 664.3,-212.76"/>
</g>
<!-- Node32&#45;&gt;Node7 -->
<g id="edge69" class="edge">
<title>Node32&#45;&gt;Node7</title>
<path fill="none" stroke="midnightblue" d="M517.3,-184.7C488.81,-155.97 398.24,-64.65 361.13,-27.23"/>
<polygon fill="midnightblue" stroke="midnightblue" points="363.2,-24.35 353.67,-19.71 358.23,-29.28 363.2,-24.35"/>
</g>
<!-- Node32&#45;&gt;Node10 -->
<g id="edge71" class="edge">
<title>Node32&#45;&gt;Node10</title>
<path fill="none" stroke="midnightblue" d="M536.49,-184.98C547.98,-175.61 566.66,-160.38 580.62,-149.01"/>
<polygon fill="midnightblue" stroke="midnightblue" points="583.05,-151.54 588.59,-142.51 578.63,-146.11 583.05,-151.54"/>
</g>
<!-- Node33 -->
<g id="node33" class="node">
<title>Node33</title>
<g id="a_node33"><a xlink:title=" ">
<polygon fill="white" stroke="#bfbfbf" points="497.03,-123.5 497.03,-142.5 539.03,-142.5 539.03,-123.5 497.03,-123.5"/>
<text text-anchor="middle" x="518.03" y="-130.5" font-family="Helvetica,sans-Serif" font-size="10.00">array</text>
</a>
</g>
</g>
<!-- Node32&#45;&gt;Node33 -->
<g id="edge70" class="edge">
<title>Node32&#45;&gt;Node33</title>
<path fill="none" stroke="midnightblue" d="M524.89,-184.98C523.76,-176.58 522,-163.48 520.54,-152.66"/>
<polygon fill="midnightblue" stroke="midnightblue" points="523.98,-151.95 519.18,-142.51 517.04,-152.89 523.98,-151.95"/>
</g>
<!-- Node34&#45;&gt;Node10 -->
<g id="edge75" class="edge">
<title>Node34&#45;&gt;Node10</title>
<path fill="none" stroke="midnightblue" d="M647.86,-184.98C639.15,-175.87 625.13,-161.24 614.34,-149.98"/>
<polygon fill="midnightblue" stroke="midnightblue" points="616.63,-147.31 607.18,-142.51 611.57,-152.15 616.63,-147.31"/>
</g>
<!-- Node36 -->
<g id="node36" class="node">
<title>Node36</title>
<g id="a_node36"><a xlink:title=" ">
<polygon fill="white" stroke="#bfbfbf" points="441.53,-246.5 441.53,-265.5 536.53,-265.5 536.53,-246.5 441.53,-246.5"/>
<text text-anchor="middle" x="489.03" y="-253.5" font-family="Helvetica,sans-Serif" font-size="10.00">bits/exception.h</text>
</a>
</g>
</g>
<!-- Node35&#45;&gt;Node36 -->
<g id="edge79" class="edge">
<title>Node35&#45;&gt;Node36</title>
<path fill="none" stroke="midnightblue" d="M529.3,-307.98C522.25,-299.05 511,-284.81 502.18,-273.64"/>
<polygon fill="midnightblue" stroke="midnightblue" points="504.7,-271.19 495.75,-265.51 499.2,-275.53 504.7,-271.19"/>
</g>
<!-- Node37&#45;&gt;Node11 -->
<g id="edge83" class="edge">
<title>Node37&#45;&gt;Node11</title>
<path fill="none" stroke="midnightblue" d="M1358.26,-63.73C1261.62,-51.34 1058.89,-25.34 979.7,-15.19"/>
<polygon fill="midnightblue" stroke="midnightblue" points="979.74,-11.67 969.38,-13.87 978.85,-18.61 979.74,-11.67"/>
</g>
<!-- Node37&#45;&gt;Node12 -->
<g id="edge86" class="edge">
<title>Node37&#45;&gt;Node12</title>
<path fill="none" stroke="midnightblue" d="M1358.37,-59.09C1353.52,-58.05 1348.69,-57 1344.03,-56 1289.2,-44.19 1226.29,-30.72 1183.73,-21.62"/>
<polygon fill="midnightblue" stroke="midnightblue" points="1184.41,-18.19 1173.9,-19.52 1182.95,-25.03 1184.41,-18.19"/>
</g>
<!-- Node38 -->
<g id="node38" class="node">
<title>Node38</title>
<g id="a_node38"><a xlink:title=" ">
<polygon fill="white" stroke="#bfbfbf" points="1364.53,-0.5 1364.53,-19.5 1395.53,-19.5 1395.53,-0.5 1364.53,-0.5"/>
<text text-anchor="middle" x="1380.03" y="-7.5" font-family="Helvetica,sans-Serif" font-size="10.00">ios</text>
</a>
</g>
</g>
<!-- Node37&#45;&gt;Node38 -->
<g id="edge84" class="edge">
<title>Node37&#45;&gt;Node38</title>
<path fill="none" stroke="midnightblue" d="M1403.68,-56.4C1399.37,-48.11 1393.87,-37.55 1389.26,-28.71"/>
<polygon fill="midnightblue" stroke="midnightblue" points="1392.27,-26.91 1384.54,-19.66 1386.06,-30.14 1392.27,-26.91"/>
</g>
<!-- Node39 -->
<g id="node39" class="node">
<title>Node39</title>
<g id="a_node39"><a xlink:title=" ">
<polygon fill="white" stroke="#bfbfbf" points="1414.03,-0.5 1414.03,-19.5 1470.03,-19.5 1470.03,-0.5 1414.03,-0.5"/>
<text text-anchor="middle" x="1442.03" y="-7.5" font-family="Helvetica,sans-Serif" font-size="10.00">sstream</text>
</a>
</g>
</g>
<!-- Node37&#45;&gt;Node39 -->
<g id="edge85" class="edge">
<title>Node37&#45;&gt;Node39</title>
<path fill="none" stroke="midnightblue" d="M1418.38,-56.4C1422.7,-48.11 1428.2,-37.55 1432.81,-28.71"/>
<polygon fill="midnightblue" stroke="midnightblue" points="1436,-30.14 1437.52,-19.66 1429.8,-26.91 1436,-30.14"/>
</g>
</g>
</svg>
