<?xml version="1.0" encoding="UTF-8" standalone="no"?>
<!DOCTYPE svg PUBLIC "-//W3C//DTD SVG 1.1//EN"
 "http://www.w3.org/Graphics/SVG/1.1/DTD/svg11.dtd">
<!-- Generated by graphviz version 2.43.0 (0)
 -->
<!-- Title: tests/APU/testOperand.cpp Pages: 1 -->
<svg width="1633pt" height="509pt"
 viewBox="0.00 0.00 1632.50 509.00" xmlns="http://www.w3.org/2000/svg" xmlns:xlink="http://www.w3.org/1999/xlink">
<g id="graph0" class="graph" transform="scale(1 1) rotate(0) translate(4 505)">
<title>tests/APU/testOperand.cpp</title>
<polygon fill="white" stroke="transparent" points="-4,4 -4,-505 1628.5,-505 1628.5,4 -4,4"/>
<!-- Node1 -->
<g id="node1" class="node">
<title>Node1</title>
<g id="a_node1"><a xlink:title=" ">
<polygon fill="#bfbfbf" stroke="black" points="942.5,-481.5 942.5,-500.5 1089.5,-500.5 1089.5,-481.5 942.5,-481.5"/>
<text text-anchor="middle" x="1016" y="-488.5" font-family="Helvetica,sans-Serif" font-size="10.00">tests/APU/testOperand.cpp</text>
</a>
</g>
</g>
<!-- Node2 -->
<g id="node2" class="node">
<title>Node2</title>
<g id="a_node2"><a xlink:title=" ">
<polygon fill="white" stroke="#bfbfbf" points="182,-364 182,-383 292,-383 292,-364 182,-364"/>
<text text-anchor="middle" x="237" y="-371" font-family="Helvetica,sans-Serif" font-size="10.00">criterion/criterion.h</text>
</a>
</g>
</g>
<!-- Node1&#45;&gt;Node2 -->
<g id="edge1" class="edge">
<title>Node1&#45;&gt;Node2</title>
<path fill="none" stroke="midnightblue" d="M945.21,-481.5C817.23,-465.78 538.98,-430 306,-389 299.28,-387.82 292.21,-386.46 285.27,-385.06"/>
<polygon fill="midnightblue" stroke="midnightblue" points="285.73,-381.59 275.24,-383 284.33,-388.44 285.73,-381.59"/>
</g>
<!-- Node3 -->
<g id="node3" class="node">
<title>Node3</title>
<g id="a_node3"><a xlink:href="tests_8hpp.html" target="_top" xlink:title=" ">
<polygon fill="white" stroke="black" points="865.5,-425.5 865.5,-444.5 936.5,-444.5 936.5,-425.5 865.5,-425.5"/>
<text text-anchor="middle" x="901" y="-432.5" font-family="Helvetica,sans-Serif" font-size="10.00">../tests.hpp</text>
</a>
</g>
</g>
<!-- Node1&#45;&gt;Node3 -->
<g id="edge2" class="edge">
<title>Node1&#45;&gt;Node3</title>
<path fill="none" stroke="midnightblue" d="M997.78,-481.44C979.1,-472.68 949.84,-458.94 928.38,-448.86"/>
<polygon fill="midnightblue" stroke="midnightblue" points="929.68,-445.6 919.14,-444.52 926.7,-451.93 929.68,-445.6"/>
</g>
<!-- Node18 -->
<g id="node18" class="node">
<title>Node18</title>
<g id="a_node18"><a xlink:href="SNES_8hpp.html" target="_top" xlink:title=" ">
<polygon fill="white" stroke="black" points="739.5,-364 739.5,-383 852.5,-383 852.5,-364 739.5,-364"/>
<text text-anchor="middle" x="796" y="-371" font-family="Helvetica,sans-Serif" font-size="10.00">../sources/SNES.hpp</text>
</a>
</g>
</g>
<!-- Node1&#45;&gt;Node18 -->
<g id="edge78" class="edge">
<title>Node1&#45;&gt;Node18</title>
<path fill="none" stroke="midnightblue" d="M955.57,-481.44C924.33,-474.98 886.65,-463.87 857,-445 835.54,-431.35 817.44,-407.89 806.66,-391.81"/>
<polygon fill="midnightblue" stroke="midnightblue" points="809.55,-389.83 801.19,-383.32 803.67,-393.62 809.55,-389.83"/>
</g>
<!-- Node30 -->
<g id="node30" class="node">
<title>Node30</title>
<g id="a_node30"><a xlink:href="APU_8hpp.html" target="_top" xlink:title=" ">
<polygon fill="white" stroke="black" points="855.5,-235.5 855.5,-254.5 936.5,-254.5 936.5,-235.5 855.5,-235.5"/>
<text text-anchor="middle" x="896" y="-242.5" font-family="Helvetica,sans-Serif" font-size="10.00">APU/APU.hpp</text>
</a>
</g>
</g>
<!-- Node1&#45;&gt;Node30 -->
<g id="edge79" class="edge">
<title>Node1&#45;&gt;Node30</title>
<path fill="none" stroke="midnightblue" d="M1026.6,-481.25C1060.95,-451.86 1164.03,-354.99 1112,-291 1091.58,-265.89 1004,-254.32 946.83,-249.36"/>
<polygon fill="midnightblue" stroke="midnightblue" points="946.78,-245.84 936.53,-248.51 946.2,-252.82 946.78,-245.84"/>
</g>
<!-- Node36 -->
<g id="node36" class="node">
<title>Node36</title>
<g id="a_node36"><a xlink:href="InvalidAddress_8hpp.html" target="_top" xlink:title=" ">
<polygon fill="white" stroke="black" points="1445,-358.5 1445,-388.5 1573,-388.5 1573,-358.5 1445,-358.5"/>
<text text-anchor="start" x="1453" y="-376.5" font-family="Helvetica,sans-Serif" font-size="10.00">../../sources/Exceptions</text>
<text text-anchor="middle" x="1509" y="-365.5" font-family="Helvetica,sans-Serif" font-size="10.00">/InvalidAddress.hpp</text>
</a>
</g>
</g>
<!-- Node1&#45;&gt;Node36 -->
<g id="edge80" class="edge">
<title>Node1&#45;&gt;Node36</title>
<path fill="none" stroke="midnightblue" d="M1052.65,-481.41C1134.37,-462.27 1332.63,-415.82 1438.93,-390.92"/>
<polygon fill="midnightblue" stroke="midnightblue" points="1439.98,-394.26 1448.92,-388.58 1438.39,-387.45 1439.98,-394.26"/>
</g>
<!-- Node40 -->
<g id="node40" class="node">
<title>Node40</title>
<g id="a_node40"><a xlink:href="InvalidOpcode_8hpp.html" target="_top" xlink:title=" ">
<polygon fill="white" stroke="black" points="1299,-358.5 1299,-388.5 1427,-388.5 1427,-358.5 1299,-358.5"/>
<text text-anchor="start" x="1307" y="-376.5" font-family="Helvetica,sans-Serif" font-size="10.00">../../sources/Exceptions</text>
<text text-anchor="middle" x="1363" y="-365.5" font-family="Helvetica,sans-Serif" font-size="10.00">/InvalidOpcode.hpp</text>
</a>
</g>
</g>
<!-- Node1&#45;&gt;Node40 -->
<g id="edge86" class="edge">
<title>Node1&#45;&gt;Node40</title>
<path fill="none" stroke="midnightblue" d="M1041.8,-481.41C1098.62,-462.5 1235.5,-416.94 1310.94,-391.83"/>
<polygon fill="midnightblue" stroke="midnightblue" points="1312.33,-395.05 1320.71,-388.58 1310.12,-388.41 1312.33,-395.05"/>
</g>
<!-- Node3&#45;&gt;Node2 -->
<g id="edge21" class="edge">
<title>Node3&#45;&gt;Node2</title>
<path fill="none" stroke="midnightblue" d="M865.28,-432.94C772.56,-429.83 516.76,-418.98 306,-389 298.5,-387.93 290.59,-386.53 282.92,-385.03"/>
<polygon fill="midnightblue" stroke="midnightblue" points="283.51,-381.58 273.01,-383 282.11,-388.43 283.51,-381.58"/>
</g>
<!-- Node3&#45;&gt;Node3 -->
<g id="edge24" class="edge">
<title>Node3&#45;&gt;Node3</title>
<path fill="none" stroke="midnightblue" d="M923.82,-444.53C939.32,-447.31 954.5,-444.13 954.5,-435 954.5,-427.86 945.24,-424.37 933.79,-424.5"/>
<polygon fill="midnightblue" stroke="midnightblue" points="933.43,-421.02 923.82,-425.47 934.11,-427.99 933.43,-421.02"/>
</g>
<!-- Node4 -->
<g id="node4" class="node">
<title>Node4</title>
<g id="a_node4"><a xlink:href="MemoryBus_8hpp.html" target="_top" xlink:title=" ">
<polygon fill="white" stroke="black" points="218,-168.5 218,-198.5 368,-198.5 368,-168.5 218,-168.5"/>
<text text-anchor="start" x="226" y="-186.5" font-family="Helvetica,sans-Serif" font-size="10.00">../sources/Memory/Memory</text>
<text text-anchor="middle" x="293" y="-175.5" font-family="Helvetica,sans-Serif" font-size="10.00">Bus.hpp</text>
</a>
</g>
</g>
<!-- Node3&#45;&gt;Node4 -->
<g id="edge3" class="edge">
<title>Node3&#45;&gt;Node4</title>
<path fill="none" stroke="midnightblue" d="M865.38,-426.18C830.67,-418.19 776.6,-404.73 731,-389 589.49,-340.18 556.37,-320.98 422,-255 388.95,-238.77 352.17,-218.44 326.38,-203.79"/>
<polygon fill="midnightblue" stroke="midnightblue" points="327.81,-200.58 317.39,-198.66 324.35,-206.66 327.81,-200.58"/>
</g>
<!-- Node13 -->
<g id="node13" class="node">
<title>Node13</title>
<g id="a_node13"><a xlink:title=" ">
<polygon fill="white" stroke="#bfbfbf" points="871,-364 871,-383 931,-383 931,-364 871,-364"/>
<text text-anchor="middle" x="901" y="-371" font-family="Helvetica,sans-Serif" font-size="10.00">iostream</text>
</a>
</g>
</g>
<!-- Node3&#45;&gt;Node13 -->
<g id="edge22" class="edge">
<title>Node3&#45;&gt;Node13</title>
<path fill="none" stroke="midnightblue" d="M901,-425.48C901,-417.08 901,-403.98 901,-393.16"/>
<polygon fill="midnightblue" stroke="midnightblue" points="904.5,-393.01 901,-383.01 897.5,-393.01 904.5,-393.01"/>
</g>
<!-- Node14 -->
<g id="node14" class="node">
<title>Node14</title>
<g id="a_node14"><a xlink:title=" ">
<polygon fill="white" stroke="#bfbfbf" points="949.5,-364 949.5,-383 1000.5,-383 1000.5,-364 949.5,-364"/>
<text text-anchor="middle" x="975" y="-371" font-family="Helvetica,sans-Serif" font-size="10.00">zconf.h</text>
</a>
</g>
</g>
<!-- Node3&#45;&gt;Node14 -->
<g id="edge23" class="edge">
<title>Node3&#45;&gt;Node14</title>
<path fill="none" stroke="midnightblue" d="M911.6,-425.48C923.25,-416.11 942.19,-400.88 956.33,-389.51"/>
<polygon fill="midnightblue" stroke="midnightblue" points="958.82,-392 964.42,-383.01 954.43,-386.55 958.82,-392"/>
</g>
<!-- Node15 -->
<g id="node15" class="node">
<title>Node15</title>
<g id="a_node15"><a xlink:href="NoRenderer_8hpp.html" target="_top" xlink:title=" ">
<polygon fill="white" stroke="black" points="993,-291.5 993,-321.5 1103,-321.5 1103,-291.5 993,-291.5"/>
<text text-anchor="start" x="1001" y="-309.5" font-family="Helvetica,sans-Serif" font-size="10.00">../sources/Renderer</text>
<text text-anchor="middle" x="1048" y="-298.5" font-family="Helvetica,sans-Serif" font-size="10.00">/NoRenderer.hpp</text>
</a>
</g>
</g>
<!-- Node3&#45;&gt;Node15 -->
<g id="edge25" class="edge">
<title>Node3&#45;&gt;Node15</title>
<path fill="none" stroke="midnightblue" d="M936.62,-426.43C959.94,-419.91 989.73,-408.38 1010,-389 1026.32,-373.4 1036.33,-349.41 1041.95,-331.5"/>
<polygon fill="midnightblue" stroke="midnightblue" points="1045.35,-332.34 1044.76,-321.76 1038.62,-330.39 1045.35,-332.34"/>
</g>
<!-- Node3&#45;&gt;Node18 -->
<g id="edge29" class="edge">
<title>Node3&#45;&gt;Node18</title>
<path fill="none" stroke="midnightblue" d="M885.96,-425.48C868.72,-415.71 840.26,-399.58 819.97,-388.08"/>
<polygon fill="midnightblue" stroke="midnightblue" points="821.44,-384.89 811.02,-383.01 817.99,-390.98 821.44,-384.89"/>
</g>
<!-- Node5 -->
<g id="node5" class="node">
<title>Node5</title>
<g id="a_node5"><a xlink:title=" ">
<polygon fill="white" stroke="#bfbfbf" points="752,-0.5 752,-19.5 802,-19.5 802,-0.5 752,-0.5"/>
<text text-anchor="middle" x="777" y="-7.5" font-family="Helvetica,sans-Serif" font-size="10.00">cstdint</text>
</a>
</g>
</g>
<!-- Node4&#45;&gt;Node5 -->
<g id="edge4" class="edge">
<title>Node4&#45;&gt;Node5</title>
<path fill="none" stroke="midnightblue" d="M325.58,-168.38C361.15,-153.27 419.98,-129.17 472,-112 530.56,-92.67 548.05,-97.08 606,-76 625.81,-68.79 629.48,-63.95 649,-56 680.01,-43.37 716.04,-30.9 741.96,-22.29"/>
<polygon fill="midnightblue" stroke="midnightblue" points="743.31,-25.54 751.71,-19.08 741.12,-18.89 743.31,-25.54"/>
</g>
<!-- Node6 -->
<g id="node6" class="node">
<title>Node6</title>
<g id="a_node6"><a xlink:title=" ">
<polygon fill="white" stroke="#bfbfbf" points="522.5,-0.5 522.5,-19.5 569.5,-19.5 569.5,-0.5 522.5,-0.5"/>
<text text-anchor="middle" x="546" y="-7.5" font-family="Helvetica,sans-Serif" font-size="10.00">vector</text>
</a>
</g>
</g>
<!-- Node4&#45;&gt;Node6 -->
<g id="edge5" class="edge">
<title>Node4&#45;&gt;Node6</title>
<path fill="none" stroke="midnightblue" d="M313.7,-168.47C361.16,-136.3 477.34,-57.54 525.04,-25.21"/>
<polygon fill="midnightblue" stroke="midnightblue" points="527.06,-28.07 533.37,-19.56 523.13,-22.27 527.06,-28.07"/>
</g>
<!-- Node7 -->
<g id="node7" class="node">
<title>Node7</title>
<g id="a_node7"><a xlink:title=" ">
<polygon fill="white" stroke="#bfbfbf" points="422,-0.5 422,-19.5 480,-19.5 480,-0.5 422,-0.5"/>
<text text-anchor="middle" x="451" y="-7.5" font-family="Helvetica,sans-Serif" font-size="10.00">memory</text>
</a>
</g>
</g>
<!-- Node4&#45;&gt;Node7 -->
<g id="edge6" class="edge">
<title>Node4&#45;&gt;Node7</title>
<path fill="none" stroke="midnightblue" d="M297.45,-168.19C306.02,-142.7 327.01,-89 361,-56 376.02,-41.42 396.69,-30.63 414.44,-23.28"/>
<polygon fill="midnightblue" stroke="midnightblue" points="415.91,-26.46 423.94,-19.54 413.35,-19.94 415.91,-26.46"/>
</g>
<!-- Node8 -->
<g id="node8" class="node">
<title>Node8</title>
<g id="a_node8"><a xlink:href="AMemory_8hpp.html" target="_top" xlink:title=" ">
<polygon fill="white" stroke="black" points="716.5,-112.5 716.5,-131.5 799.5,-131.5 799.5,-112.5 716.5,-112.5"/>
<text text-anchor="middle" x="758" y="-119.5" font-family="Helvetica,sans-Serif" font-size="10.00">AMemory.hpp</text>
</a>
</g>
</g>
<!-- Node4&#45;&gt;Node8 -->
<g id="edge7" class="edge">
<title>Node4&#45;&gt;Node8</title>
<path fill="none" stroke="midnightblue" d="M368.22,-169.97C372.88,-169.28 377.5,-168.61 382,-168 523.18,-148.72 562.01,-152.73 706.19,-132.18"/>
<polygon fill="midnightblue" stroke="midnightblue" points="706.89,-135.62 716.29,-130.73 705.9,-128.69 706.89,-135.62"/>
</g>
<!-- Node8&#45;&gt;Node5 -->
<g id="edge8" class="edge">
<title>Node8&#45;&gt;Node5</title>
<path fill="none" stroke="midnightblue" d="M759.49,-112.37C762.56,-94.62 769.63,-53.67 773.79,-29.6"/>
<polygon fill="midnightblue" stroke="midnightblue" points="777.26,-30.04 775.52,-19.59 770.36,-28.85 777.26,-30.04"/>
</g>
<!-- Node8&#45;&gt;Node6 -->
<g id="edge9" class="edge">
<title>Node8&#45;&gt;Node6</title>
<path fill="none" stroke="midnightblue" d="M741.36,-112.37C704.44,-93.21 615.45,-47.04 571.47,-24.22"/>
<polygon fill="midnightblue" stroke="midnightblue" points="573.05,-21.09 562.56,-19.59 569.82,-27.3 573.05,-21.09"/>
</g>
<!-- Node8&#45;&gt;Node7 -->
<g id="edge10" class="edge">
<title>Node8&#45;&gt;Node7</title>
<path fill="none" stroke="midnightblue" d="M716.27,-113.41C713.47,-112.92 710.7,-112.45 708,-112 656.33,-103.36 515.57,-109.15 475,-76 461.19,-64.72 455.33,-44.71 452.84,-29.86"/>
<polygon fill="midnightblue" stroke="midnightblue" points="456.28,-29.21 451.52,-19.75 449.34,-30.12 456.28,-29.21"/>
</g>
<!-- Node9 -->
<g id="node9" class="node">
<title>Node9</title>
<g id="a_node9"><a xlink:title=" ">
<polygon fill="white" stroke="#bfbfbf" points="939,-0.5 939,-19.5 983,-19.5 983,-0.5 939,-0.5"/>
<text text-anchor="middle" x="961" y="-7.5" font-family="Helvetica,sans-Serif" font-size="10.00">string</text>
</a>
</g>
</g>
<!-- Node8&#45;&gt;Node9 -->
<g id="edge11" class="edge">
<title>Node8&#45;&gt;Node9</title>
<path fill="none" stroke="midnightblue" d="M773.93,-112.37C809.21,-93.25 894.14,-47.23 936.34,-24.36"/>
<polygon fill="midnightblue" stroke="midnightblue" points="938.02,-27.43 945.14,-19.59 934.69,-21.28 938.02,-27.43"/>
</g>
<!-- Node10 -->
<g id="node10" class="node">
<title>Node10</title>
<g id="a_node10"><a xlink:href="Int24_8hpp.html" target="_top" xlink:title=" ">
<polygon fill="white" stroke="black" points="153,-0.5 153,-19.5 263,-19.5 263,-0.5 153,-0.5"/>
<text text-anchor="middle" x="208" y="-7.5" font-family="Helvetica,sans-Serif" font-size="10.00">../Models/Int24.hpp</text>
</a>
</g>
</g>
<!-- Node8&#45;&gt;Node10 -->
<g id="edge12" class="edge">
<title>Node8&#45;&gt;Node10</title>
<path fill="none" stroke="midnightblue" d="M716.28,-113.37C713.48,-112.9 710.7,-112.44 708,-112 596.31,-93.98 566.9,-98.38 456,-76 380.85,-60.84 294.55,-36.65 246.13,-22.45"/>
<polygon fill="midnightblue" stroke="midnightblue" points="246.97,-19.05 236.39,-19.58 244.99,-25.76 246.97,-19.05"/>
</g>
<!-- Node11 -->
<g id="node11" class="node">
<title>Node11</title>
<g id="a_node11"><a xlink:href="Components_8hpp.html" target="_top" xlink:title=" ">
<polygon fill="white" stroke="black" points="588,-0.5 588,-19.5 734,-19.5 734,-0.5 588,-0.5"/>
<text text-anchor="middle" x="661" y="-7.5" font-family="Helvetica,sans-Serif" font-size="10.00">../Models/Components.hpp</text>
</a>
</g>
</g>
<!-- Node8&#45;&gt;Node11 -->
<g id="edge13" class="edge">
<title>Node8&#45;&gt;Node11</title>
<path fill="none" stroke="midnightblue" d="M753.42,-112.45C746.23,-99.46 731.43,-74.35 715,-56 705.08,-44.92 692.37,-34.19 681.77,-25.99"/>
<polygon fill="midnightblue" stroke="midnightblue" points="683.56,-22.96 673.47,-19.74 679.35,-28.55 683.56,-22.96"/>
</g>
<!-- Node12 -->
<g id="node12" class="node">
<title>Node12</title>
<g id="a_node12"><a xlink:href="IMemory_8hpp.html" target="_top" xlink:title=" ">
<polygon fill="white" stroke="black" points="517,-56.5 517,-75.5 597,-75.5 597,-56.5 517,-56.5"/>
<text text-anchor="middle" x="557" y="-63.5" font-family="Helvetica,sans-Serif" font-size="10.00">IMemory.hpp</text>
</a>
</g>
</g>
<!-- Node8&#45;&gt;Node12 -->
<g id="edge14" class="edge">
<title>Node8&#45;&gt;Node12</title>
<path fill="none" stroke="midnightblue" d="M726.15,-112.44C691.6,-103.16 636.32,-88.31 598.42,-78.13"/>
<polygon fill="midnightblue" stroke="midnightblue" points="599.27,-74.73 588.7,-75.52 597.45,-81.49 599.27,-74.73"/>
</g>
<!-- Node12&#45;&gt;Node5 -->
<g id="edge15" class="edge">
<title>Node12&#45;&gt;Node5</title>
<path fill="none" stroke="midnightblue" d="M593.41,-56.43C628.9,-48.03 684.63,-34.69 741.83,-20.26"/>
<polygon fill="midnightblue" stroke="midnightblue" points="742.93,-23.59 751.76,-17.74 741.21,-16.81 742.93,-23.59"/>
</g>
<!-- Node12&#45;&gt;Node6 -->
<g id="edge16" class="edge">
<title>Node12&#45;&gt;Node6</title>
<path fill="none" stroke="midnightblue" d="M555.18,-56.08C553.73,-48.93 551.63,-38.64 549.81,-29.69"/>
<polygon fill="midnightblue" stroke="midnightblue" points="553.21,-28.85 547.78,-19.75 546.35,-30.25 553.21,-28.85"/>
</g>
<!-- Node12&#45;&gt;Node7 -->
<g id="edge17" class="edge">
<title>Node12&#45;&gt;Node7</title>
<path fill="none" stroke="midnightblue" d="M539.97,-56.32C522.97,-47.66 496.62,-34.24 477.01,-24.25"/>
<polygon fill="midnightblue" stroke="midnightblue" points="478.49,-21.08 467.99,-19.65 475.31,-27.31 478.49,-21.08"/>
</g>
<!-- Node12&#45;&gt;Node9 -->
<g id="edge18" class="edge">
<title>Node12&#45;&gt;Node9</title>
<path fill="none" stroke="midnightblue" d="M597.21,-59.62C677.3,-48.92 855.3,-25.13 928.55,-15.34"/>
<polygon fill="midnightblue" stroke="midnightblue" points="929.12,-18.79 938.57,-14 928.2,-11.85 929.12,-18.79"/>
</g>
<!-- Node12&#45;&gt;Node10 -->
<g id="edge19" class="edge">
<title>Node12&#45;&gt;Node10</title>
<path fill="none" stroke="midnightblue" d="M516.97,-58.81C457.41,-49.59 344.83,-32.17 273.26,-21.1"/>
<polygon fill="midnightblue" stroke="midnightblue" points="273.42,-17.58 263.01,-19.51 272.35,-24.5 273.42,-17.58"/>
</g>
<!-- Node12&#45;&gt;Node11 -->
<g id="edge20" class="edge">
<title>Node12&#45;&gt;Node11</title>
<path fill="none" stroke="midnightblue" d="M573.71,-56.32C590.31,-47.7 616,-34.36 635.22,-24.39"/>
<polygon fill="midnightblue" stroke="midnightblue" points="637.07,-27.37 644.33,-19.65 633.84,-21.16 637.07,-27.37"/>
</g>
<!-- Node16 -->
<g id="node16" class="node">
<title>Node16</title>
<g id="a_node16"><a xlink:href="IRenderer_8hpp.html" target="_top" xlink:title=" ">
<polygon fill="white" stroke="black" points="1262,-174 1262,-193 1346,-193 1346,-174 1262,-174"/>
<text text-anchor="middle" x="1304" y="-181" font-family="Helvetica,sans-Serif" font-size="10.00">IRenderer.hpp</text>
</a>
</g>
</g>
<!-- Node15&#45;&gt;Node16 -->
<g id="edge26" class="edge">
<title>Node15&#45;&gt;Node16</title>
<path fill="none" stroke="midnightblue" d="M1077.68,-291.45C1107.75,-277.21 1155.6,-254.56 1197,-235 1224.06,-222.21 1254.97,-207.63 1276.59,-197.43"/>
<polygon fill="midnightblue" stroke="midnightblue" points="1278.27,-200.5 1285.82,-193.07 1275.28,-194.17 1278.27,-200.5"/>
</g>
<!-- Node16&#45;&gt;Node9 -->
<g id="edge27" class="edge">
<title>Node16&#45;&gt;Node9</title>
<path fill="none" stroke="midnightblue" d="M1309.32,-173.7C1317.28,-159.29 1329.92,-130.43 1316,-112 1276.46,-59.64 1072.97,-26.41 993.17,-15.22"/>
<polygon fill="midnightblue" stroke="midnightblue" points="993.58,-11.74 983.19,-13.85 992.62,-18.68 993.58,-11.74"/>
</g>
<!-- Node17 -->
<g id="node17" class="node">
<title>Node17</title>
<g id="a_node17"><a xlink:title=" ">
<polygon fill="white" stroke="#bfbfbf" points="1267,-112.5 1267,-131.5 1307,-131.5 1307,-112.5 1267,-112.5"/>
<text text-anchor="middle" x="1287" y="-119.5" font-family="Helvetica,sans-Serif" font-size="10.00">span</text>
</a>
</g>
</g>
<!-- Node16&#45;&gt;Node17 -->
<g id="edge28" class="edge">
<title>Node16&#45;&gt;Node17</title>
<path fill="none" stroke="midnightblue" d="M1301.56,-173.98C1299.14,-165.49 1295.34,-152.2 1292.23,-141.32"/>
<polygon fill="midnightblue" stroke="midnightblue" points="1295.54,-140.16 1289.43,-131.51 1288.81,-142.09 1295.54,-140.16"/>
</g>
<!-- Node18&#45;&gt;Node4 -->
<g id="edge30" class="edge">
<title>Node18&#45;&gt;Node4</title>
<path fill="none" stroke="midnightblue" d="M772.53,-363.99C745.06,-354.01 698.18,-336.92 658,-322 543.49,-279.48 409.14,-228.62 339.76,-202.28"/>
<polygon fill="midnightblue" stroke="midnightblue" points="340.59,-198.85 330,-198.57 338.11,-205.39 340.59,-198.85"/>
</g>
<!-- Node18&#45;&gt;Node16 -->
<g id="edge75" class="edge">
<title>Node18&#45;&gt;Node16</title>
<path fill="none" stroke="midnightblue" d="M814.19,-363.98C847.51,-348.52 920.71,-315.22 984,-291 1057.51,-262.88 1077.32,-259.85 1152,-235 1191.82,-221.75 1237.53,-206.57 1268.33,-196.34"/>
<polygon fill="midnightblue" stroke="midnightblue" points="1269.79,-199.54 1278.18,-193.07 1267.59,-192.9 1269.79,-199.54"/>
</g>
<!-- Node19 -->
<g id="node19" class="node">
<title>Node19</title>
<g id="a_node19"><a xlink:href="CPU_8hpp.html" target="_top" xlink:title=" ">
<polygon fill="white" stroke="black" points="210.5,-297 210.5,-316 291.5,-316 291.5,-297 210.5,-297"/>
<text text-anchor="middle" x="251" y="-304" font-family="Helvetica,sans-Serif" font-size="10.00">CPU/CPU.hpp</text>
</a>
</g>
</g>
<!-- Node18&#45;&gt;Node19 -->
<g id="edge31" class="edge">
<title>Node18&#45;&gt;Node19</title>
<path fill="none" stroke="midnightblue" d="M739.18,-366.95C653.42,-358.39 485.85,-340.97 344,-322 330.32,-320.17 315.54,-317.97 301.88,-315.84"/>
<polygon fill="midnightblue" stroke="midnightblue" points="302.11,-312.33 291.69,-314.24 301.02,-319.25 302.11,-312.33"/>
</g>
<!-- Node20 -->
<g id="node20" class="node">
<title>Node20</title>
<g id="a_node20"><a xlink:href="Cartridge_8hpp.html" target="_top" xlink:title=" ">
<polygon fill="white" stroke="black" points="517,-235.5 517,-254.5 657,-254.5 657,-235.5 517,-235.5"/>
<text text-anchor="middle" x="587" y="-242.5" font-family="Helvetica,sans-Serif" font-size="10.00">../Cartridge/Cartridge.hpp</text>
</a>
</g>
</g>
<!-- Node18&#45;&gt;Node20 -->
<g id="edge53" class="edge">
<title>Node18&#45;&gt;Node20</title>
<path fill="none" stroke="midnightblue" d="M781.02,-363.84C763.82,-353.87 734.77,-336.92 710,-322 674.54,-300.64 633.72,-275.25 609.16,-259.9"/>
<polygon fill="midnightblue" stroke="midnightblue" points="610.92,-256.87 600.59,-254.54 607.21,-262.81 610.92,-256.87"/>
</g>
<!-- Node23 -->
<g id="node23" class="node">
<title>Node23</title>
<g id="a_node23"><a xlink:href="Ram_8hpp.html" target="_top" xlink:title=" ">
<polygon fill="white" stroke="black" points="672.5,-174 672.5,-193 767.5,-193 767.5,-174 672.5,-174"/>
<text text-anchor="middle" x="720" y="-181" font-family="Helvetica,sans-Serif" font-size="10.00">../Ram/Ram.hpp</text>
</a>
</g>
</g>
<!-- Node18&#45;&gt;Node23 -->
<g id="edge54" class="edge">
<title>Node18&#45;&gt;Node23</title>
<path fill="none" stroke="midnightblue" d="M792.35,-363.98C784.09,-344.67 763.41,-296.04 747,-255 739.94,-237.35 732.22,-217.07 726.84,-202.81"/>
<polygon fill="midnightblue" stroke="midnightblue" points="730.03,-201.35 723.24,-193.21 723.48,-203.81 730.03,-201.35"/>
</g>
<!-- Node26 -->
<g id="node26" class="node">
<title>Node26</title>
<g id="a_node26"><a xlink:href="PPU_8hpp.html" target="_top" xlink:title=" ">
<polygon fill="white" stroke="black" points="756,-235.5 756,-254.5 836,-254.5 836,-235.5 756,-235.5"/>
<text text-anchor="middle" x="796" y="-242.5" font-family="Helvetica,sans-Serif" font-size="10.00">PPU/PPU.hpp</text>
</a>
</g>
</g>
<!-- Node18&#45;&gt;Node26 -->
<g id="edge55" class="edge">
<title>Node18&#45;&gt;Node26</title>
<path fill="none" stroke="midnightblue" d="M796,-363.81C796,-343.49 796,-292.55 796,-264.78"/>
<polygon fill="midnightblue" stroke="midnightblue" points="799.5,-264.76 796,-254.76 792.5,-264.76 799.5,-264.76"/>
</g>
<!-- Node18&#45;&gt;Node30 -->
<g id="edge64" class="edge">
<title>Node18&#45;&gt;Node30</title>
<path fill="none" stroke="midnightblue" d="M802.87,-363.81C819.36,-342.95 861.36,-289.81 882.87,-262.61"/>
<polygon fill="midnightblue" stroke="midnightblue" points="885.62,-264.77 889.08,-254.76 880.13,-260.43 885.62,-264.77"/>
</g>
<!-- Node34 -->
<g id="node34" class="node">
<title>Node34</title>
<g id="a_node34"><a xlink:href="DebuggableError_8hpp.html" target="_top" xlink:title=" ">
<polygon fill="white" stroke="black" points="1165.5,-297 1165.5,-316 1340.5,-316 1340.5,-297 1165.5,-297"/>
<text text-anchor="middle" x="1253" y="-304" font-family="Helvetica,sans-Serif" font-size="10.00">Exceptions/DebuggableError.hpp</text>
</a>
</g>
</g>
<!-- Node18&#45;&gt;Node34 -->
<g id="edge76" class="edge">
<title>Node18&#45;&gt;Node34</title>
<path fill="none" stroke="midnightblue" d="M832.2,-363.95C841.85,-361.83 852.29,-359.69 862,-358 963.69,-340.3 1081.25,-325.93 1160.7,-317.11"/>
<polygon fill="midnightblue" stroke="midnightblue" points="1161.12,-320.58 1170.68,-316.01 1160.36,-313.62 1161.12,-320.58"/>
</g>
<!-- Node19&#45;&gt;Node4 -->
<g id="edge33" class="edge">
<title>Node19&#45;&gt;Node4</title>
<path fill="none" stroke="midnightblue" d="M254.02,-296.8C260.39,-278.44 275.39,-235.22 284.82,-208.07"/>
<polygon fill="midnightblue" stroke="midnightblue" points="288.15,-209.13 288.13,-198.54 281.54,-206.84 288.15,-209.13"/>
</g>
<!-- Node19&#45;&gt;Node8 -->
<g id="edge32" class="edge">
<title>Node19&#45;&gt;Node8</title>
<path fill="none" stroke="midnightblue" d="M261.1,-296.97C296.46,-267.1 412.69,-169 415,-168 532.39,-116.98 576.13,-149.93 706.35,-132.12"/>
<polygon fill="midnightblue" stroke="midnightblue" points="706.89,-135.58 716.29,-130.69 705.89,-128.65 706.89,-135.58"/>
</g>
<!-- Node19&#45;&gt;Node10 -->
<g id="edge34" class="edge">
<title>Node19&#45;&gt;Node10</title>
<path fill="none" stroke="midnightblue" d="M210.19,-300.94C153.3,-293.82 54.05,-278.41 27,-255 1.63,-233.04 0,-218.05 0,-184.5 0,-184.5 0,-184.5 0,-121 0,-55.41 81.82,-28.82 142.83,-18.12"/>
<polygon fill="midnightblue" stroke="midnightblue" points="143.51,-21.55 152.81,-16.47 142.37,-14.65 143.51,-21.55"/>
</g>
<!-- Node19&#45;&gt;Node20 -->
<g id="edge35" class="edge">
<title>Node19&#45;&gt;Node20</title>
<path fill="none" stroke="midnightblue" d="M291.53,-298.32C350.63,-287.86 460.8,-268.35 528.63,-256.34"/>
<polygon fill="midnightblue" stroke="midnightblue" points="529.49,-259.74 538.73,-254.55 528.27,-252.85 529.49,-259.74"/>
</g>
<!-- Node24 -->
<g id="node24" class="node">
<title>Node24</title>
<g id="a_node24"><a xlink:href="Instruction_8hpp.html" target="_top" xlink:title=" ">
<polygon fill="white" stroke="black" points="219.5,-56.5 219.5,-75.5 308.5,-75.5 308.5,-56.5 219.5,-56.5"/>
<text text-anchor="middle" x="264" y="-63.5" font-family="Helvetica,sans-Serif" font-size="10.00">Instruction.hpp</text>
</a>
</g>
</g>
<!-- Node19&#45;&gt;Node24 -->
<g id="edge45" class="edge">
<title>Node19&#45;&gt;Node24</title>
<path fill="none" stroke="midnightblue" d="M244.95,-296.89C230.57,-275.36 196.44,-217.34 209,-168 217.17,-135.91 237.84,-103 251.38,-83.81"/>
<polygon fill="midnightblue" stroke="midnightblue" points="254.34,-85.7 257.37,-75.56 248.67,-81.59 254.34,-85.7"/>
</g>
<!-- Node25 -->
<g id="node25" class="node">
<title>Node25</title>
<g id="a_node25"><a xlink:href="DMA_8hpp.html" target="_top" xlink:title=" ">
<polygon fill="white" stroke="black" points="36.5,-235.5 36.5,-254.5 123.5,-254.5 123.5,-235.5 36.5,-235.5"/>
<text text-anchor="middle" x="80" y="-242.5" font-family="Helvetica,sans-Serif" font-size="10.00">DMA/DMA.hpp</text>
</a>
</g>
</g>
<!-- Node19&#45;&gt;Node25 -->
<g id="edge48" class="edge">
<title>Node19&#45;&gt;Node25</title>
<path fill="none" stroke="midnightblue" d="M226.5,-296.98C197.04,-286.72 147.42,-269.46 114.2,-257.9"/>
<polygon fill="midnightblue" stroke="midnightblue" points="115.05,-254.49 104.45,-254.51 112.75,-261.1 115.05,-254.49"/>
</g>
<!-- Node20&#45;&gt;Node8 -->
<g id="edge37" class="edge">
<title>Node20&#45;&gt;Node8</title>
<path fill="none" stroke="midnightblue" d="M594.3,-235.06C607.13,-219.78 635.11,-188.31 664,-168 683.03,-154.62 706.66,-143.33 725.47,-135.4"/>
<polygon fill="midnightblue" stroke="midnightblue" points="726.89,-138.6 734.81,-131.57 724.23,-132.13 726.89,-138.6"/>
</g>
<!-- Node20&#45;&gt;Node9 -->
<g id="edge36" class="edge">
<title>Node20&#45;&gt;Node9</title>
<path fill="none" stroke="midnightblue" d="M584.05,-235.35C578.69,-220.5 566.32,-189.66 549,-168 529.24,-143.28 485.19,-136.68 505,-112 511.79,-103.54 826.3,-38.56 928.96,-17.54"/>
<polygon fill="midnightblue" stroke="midnightblue" points="929.67,-20.96 938.77,-15.53 928.27,-14.11 929.67,-20.96"/>
</g>
<!-- Node20&#45;&gt;Node10 -->
<g id="edge38" class="edge">
<title>Node20&#45;&gt;Node10</title>
<path fill="none" stroke="midnightblue" d="M516.81,-240.59C413.14,-234.82 229.11,-221.52 209,-199 166.46,-151.36 188.37,-66.7 201.06,-29.46"/>
<polygon fill="midnightblue" stroke="midnightblue" points="204.4,-30.49 204.47,-19.89 197.81,-28.13 204.4,-30.49"/>
</g>
<!-- Node21 -->
<g id="node21" class="node">
<title>Node21</title>
<g id="a_node21"><a xlink:href="ARectangleMemory_8hpp.html" target="_top" xlink:title=" ">
<polygon fill="white" stroke="black" points="513.5,-112.5 513.5,-131.5 698.5,-131.5 698.5,-112.5 513.5,-112.5"/>
<text text-anchor="middle" x="606" y="-119.5" font-family="Helvetica,sans-Serif" font-size="10.00">../Memory/ARectangleMemory.hpp</text>
</a>
</g>
</g>
<!-- Node20&#45;&gt;Node21 -->
<g id="edge39" class="edge">
<title>Node20&#45;&gt;Node21</title>
<path fill="none" stroke="midnightblue" d="M588.37,-235.3C591.43,-215.76 598.92,-168.06 603.09,-141.55"/>
<polygon fill="midnightblue" stroke="midnightblue" points="606.55,-142.05 604.65,-131.62 599.64,-140.96 606.55,-142.05"/>
</g>
<!-- Node22 -->
<g id="node22" class="node">
<title>Node22</title>
<g id="a_node22"><a xlink:href="InterruptVectors_8hpp.html" target="_top" xlink:title=" ">
<polygon fill="white" stroke="black" points="424,-174 424,-193 540,-193 540,-174 424,-174"/>
<text text-anchor="middle" x="482" y="-181" font-family="Helvetica,sans-Serif" font-size="10.00">InterruptVectors.hpp</text>
</a>
</g>
</g>
<!-- Node20&#45;&gt;Node22 -->
<g id="edge41" class="edge">
<title>Node20&#45;&gt;Node22</title>
<path fill="none" stroke="midnightblue" d="M571.96,-235.48C554.72,-225.71 526.26,-209.58 505.97,-198.08"/>
<polygon fill="midnightblue" stroke="midnightblue" points="507.44,-194.89 497.02,-193.01 503.99,-200.98 507.44,-194.89"/>
</g>
<!-- Node20&#45;&gt;Node23 -->
<g id="edge42" class="edge">
<title>Node20&#45;&gt;Node23</title>
<path fill="none" stroke="midnightblue" d="M606.06,-235.48C628.47,-225.45 665.91,-208.7 691.71,-197.15"/>
<polygon fill="midnightblue" stroke="midnightblue" points="693.28,-200.29 700.98,-193.01 690.42,-193.9 693.28,-200.29"/>
</g>
<!-- Node21&#45;&gt;Node12 -->
<g id="edge40" class="edge">
<title>Node21&#45;&gt;Node12</title>
<path fill="none" stroke="midnightblue" d="M597.91,-112.08C590.84,-104.3 580.41,-92.8 571.85,-83.37"/>
<polygon fill="midnightblue" stroke="midnightblue" points="574.25,-80.8 564.94,-75.75 569.07,-85.51 574.25,-80.8"/>
</g>
<!-- Node23&#45;&gt;Node9 -->
<g id="edge44" class="edge">
<title>Node23&#45;&gt;Node9</title>
<path fill="none" stroke="midnightblue" d="M736.87,-173.94C755.12,-164.45 784.86,-148.31 809,-132 860.16,-97.43 915.88,-50.43 943.47,-26.45"/>
<polygon fill="midnightblue" stroke="midnightblue" points="945.87,-29 951.1,-19.79 941.27,-23.73 945.87,-29"/>
</g>
<!-- Node23&#45;&gt;Node21 -->
<g id="edge43" class="edge">
<title>Node23&#45;&gt;Node21</title>
<path fill="none" stroke="midnightblue" d="M703.67,-173.98C684.79,-164.12 653.49,-147.79 631.42,-136.27"/>
<polygon fill="midnightblue" stroke="midnightblue" points="632.79,-133.03 622.3,-131.51 629.55,-139.24 632.79,-133.03"/>
</g>
<!-- Node24&#45;&gt;Node9 -->
<g id="edge46" class="edge">
<title>Node24&#45;&gt;Node9</title>
<path fill="none" stroke="midnightblue" d="M308.66,-61.54C438.91,-51.45 816.27,-22.21 928.9,-13.49"/>
<polygon fill="midnightblue" stroke="midnightblue" points="929.25,-16.97 938.95,-12.71 928.71,-9.99 929.25,-16.97"/>
</g>
<!-- Node24&#45;&gt;Node10 -->
<g id="edge47" class="edge">
<title>Node24&#45;&gt;Node10</title>
<path fill="none" stroke="midnightblue" d="M255,-56.32C246.81,-48.42 234.49,-36.55 224.53,-26.94"/>
<polygon fill="midnightblue" stroke="midnightblue" points="226.79,-24.26 217.16,-19.83 221.93,-29.29 226.79,-24.26"/>
</g>
<!-- Node25&#45;&gt;Node4 -->
<g id="edge52" class="edge">
<title>Node25&#45;&gt;Node4</title>
<path fill="none" stroke="midnightblue" d="M110.52,-235.48C142.4,-226.57 193.23,-212.37 233.16,-201.22"/>
<polygon fill="midnightblue" stroke="midnightblue" points="234.11,-204.58 242.8,-198.52 232.23,-197.84 234.11,-204.58"/>
</g>
<!-- Node25&#45;&gt;Node5 -->
<g id="edge49" class="edge">
<title>Node25&#45;&gt;Node5</title>
<path fill="none" stroke="midnightblue" d="M82.92,-235.2C93.78,-204.04 135.13,-98.53 210,-56 310.6,1.15 610.12,-37.21 741.91,-19.71"/>
<polygon fill="midnightblue" stroke="midnightblue" points="742.49,-23.16 751.87,-18.23 741.46,-16.24 742.49,-23.16"/>
</g>
<!-- Node25&#45;&gt;Node7 -->
<g id="edge50" class="edge">
<title>Node25&#45;&gt;Node7</title>
<path fill="none" stroke="midnightblue" d="M79.13,-235.21C77.34,-212.82 75.32,-152.6 100,-112 121.98,-75.84 137.96,-72.31 177,-56 255.81,-23.07 356.79,-14.17 411.49,-11.81"/>
<polygon fill="midnightblue" stroke="midnightblue" points="411.93,-15.29 421.79,-11.42 411.67,-8.3 411.93,-15.29"/>
</g>
<!-- Node25&#45;&gt;Node10 -->
<g id="edge51" class="edge">
<title>Node25&#45;&gt;Node10</title>
<path fill="none" stroke="midnightblue" d="M75.54,-235.44C61.29,-206.77 20.13,-112.72 62,-56 80.61,-30.79 113.14,-19.26 142.78,-14.16"/>
<polygon fill="midnightblue" stroke="midnightblue" points="143.32,-17.62 152.69,-12.67 142.28,-10.7 143.32,-17.62"/>
</g>
<!-- Node26&#45;&gt;Node4 -->
<g id="edge58" class="edge">
<title>Node26&#45;&gt;Node4</title>
<path fill="none" stroke="midnightblue" d="M755.96,-239.28C686.54,-231.1 539.35,-213.73 415,-199 403.17,-197.6 390.69,-196.12 378.41,-194.66"/>
<polygon fill="midnightblue" stroke="midnightblue" points="378.51,-191.15 368.17,-193.44 377.68,-198.1 378.51,-191.15"/>
</g>
<!-- Node26&#45;&gt;Node5 -->
<g id="edge56" class="edge">
<title>Node26&#45;&gt;Node5</title>
<path fill="none" stroke="midnightblue" d="M836.24,-237C874.64,-229.39 928.45,-216.03 941,-199 949.17,-187.91 947.55,-180.12 941,-168 927.11,-142.3 908.18,-151.01 886,-132 847.19,-98.74 808.83,-52.11 789.64,-27.58"/>
<polygon fill="midnightblue" stroke="midnightblue" points="792.36,-25.38 783.48,-19.61 786.83,-29.66 792.36,-25.38"/>
</g>
<!-- Node26&#45;&gt;Node8 -->
<g id="edge57" class="edge">
<title>Node26&#45;&gt;Node8</title>
<path fill="none" stroke="midnightblue" d="M794.31,-235.44C791.41,-221.24 785.01,-191.99 777,-168 773.98,-158.95 769.94,-149.16 766.37,-141.04"/>
<polygon fill="midnightblue" stroke="midnightblue" points="769.51,-139.48 762.2,-131.81 763.13,-142.36 769.51,-139.48"/>
</g>
<!-- Node26&#45;&gt;Node16 -->
<g id="edge59" class="edge">
<title>Node26&#45;&gt;Node16</title>
<path fill="none" stroke="midnightblue" d="M836.04,-236.6C839.74,-236.02 843.43,-235.47 847,-235 1026.59,-211.24 1074.86,-231.92 1253,-199 1257.78,-198.12 1262.76,-196.98 1267.66,-195.73"/>
<polygon fill="midnightblue" stroke="midnightblue" points="1268.76,-199.06 1277.49,-193.06 1266.92,-192.3 1268.76,-199.06"/>
</g>
<!-- Node26&#45;&gt;Node23 -->
<g id="edge60" class="edge">
<title>Node26&#45;&gt;Node23</title>
<path fill="none" stroke="midnightblue" d="M785.11,-235.48C773.03,-226.02 753.33,-210.6 738.76,-199.19"/>
<polygon fill="midnightblue" stroke="midnightblue" points="740.9,-196.42 730.87,-193.01 736.59,-201.93 740.9,-196.42"/>
</g>
<!-- Node27 -->
<g id="node27" class="node">
<title>Node27</title>
<g id="a_node27"><a xlink:href="Vector2_8hpp.html" target="_top" xlink:title=" ">
<polygon fill="white" stroke="black" points="988,-174 988,-193 1110,-193 1110,-174 988,-174"/>
<text text-anchor="middle" x="1049" y="-181" font-family="Helvetica,sans-Serif" font-size="10.00">../Models/Vector2.hpp</text>
</a>
</g>
</g>
<!-- Node26&#45;&gt;Node27 -->
<g id="edge61" class="edge">
<title>Node26&#45;&gt;Node27</title>
<path fill="none" stroke="midnightblue" d="M832.25,-235.48C877.15,-224.92 953.71,-206.91 1002.78,-195.37"/>
<polygon fill="midnightblue" stroke="midnightblue" points="1003.89,-198.71 1012.82,-193.01 1002.28,-191.89 1003.89,-198.71"/>
</g>
<!-- Node28 -->
<g id="node28" class="node">
<title>Node28</title>
<g id="a_node28"><a xlink:title=" ">
<polygon fill="white" stroke="#bfbfbf" points="1055.5,-112.5 1055.5,-131.5 1112.5,-131.5 1112.5,-112.5 1055.5,-112.5"/>
<text text-anchor="middle" x="1084" y="-119.5" font-family="Helvetica,sans-Serif" font-size="10.00">ostream</text>
</a>
</g>
</g>
<!-- Node27&#45;&gt;Node28 -->
<g id="edge62" class="edge">
<title>Node27&#45;&gt;Node28</title>
<path fill="none" stroke="midnightblue" d="M1054.01,-173.98C1059.16,-165.23 1067.31,-151.37 1073.82,-140.31"/>
<polygon fill="midnightblue" stroke="midnightblue" points="1076.94,-141.9 1078.99,-131.51 1070.91,-138.35 1076.94,-141.9"/>
</g>
<!-- Node29 -->
<g id="node29" class="node">
<title>Node29</title>
<g id="a_node29"><a xlink:title=" ">
<polygon fill="white" stroke="#bfbfbf" points="894.5,-112.5 894.5,-131.5 1037.5,-131.5 1037.5,-112.5 894.5,-112.5"/>
<text text-anchor="middle" x="966" y="-119.5" font-family="Helvetica,sans-Serif" font-size="10.00">SFML/System/Vector2.hpp</text>
</a>
</g>
</g>
<!-- Node27&#45;&gt;Node29 -->
<g id="edge63" class="edge">
<title>Node27&#45;&gt;Node29</title>
<path fill="none" stroke="midnightblue" d="M1037.11,-173.98C1023.8,-164.43 1002,-148.81 986.04,-137.37"/>
<polygon fill="midnightblue" stroke="midnightblue" points="988.04,-134.49 977.87,-131.51 983.96,-140.18 988.04,-134.49"/>
</g>
<!-- Node30&#45;&gt;Node7 -->
<g id="edge65" class="edge">
<title>Node30&#45;&gt;Node7</title>
<path fill="none" stroke="midnightblue" d="M936.7,-241.63C994.46,-237.34 1095.81,-226.07 1119,-199 1144.17,-169.61 1148.54,-140.15 1122,-112 1075.11,-62.28 569.39,-106.02 508,-76 487.01,-65.74 470.47,-43.92 460.73,-28.39"/>
<polygon fill="midnightblue" stroke="midnightblue" points="463.68,-26.51 455.56,-19.7 457.66,-30.08 463.68,-26.51"/>
</g>
<!-- Node30&#45;&gt;Node8 -->
<g id="edge70" class="edge">
<title>Node30&#45;&gt;Node8</title>
<path fill="none" stroke="midnightblue" d="M886.08,-235.3C862.9,-214.98 804.97,-164.19 775.63,-138.46"/>
<polygon fill="midnightblue" stroke="midnightblue" points="777.66,-135.58 767.83,-131.62 773.05,-140.85 777.66,-135.58"/>
</g>
<!-- Node30&#45;&gt;Node16 -->
<g id="edge74" class="edge">
<title>Node30&#45;&gt;Node16</title>
<path fill="none" stroke="midnightblue" d="M936.52,-237.16C941.39,-236.4 946.31,-235.66 951,-235 1084.84,-216.08 1120.46,-225.57 1253,-199 1257.54,-198.09 1262.26,-196.98 1266.93,-195.78"/>
<polygon fill="midnightblue" stroke="midnightblue" points="1268.2,-199.06 1276.93,-193.06 1266.37,-192.3 1268.2,-199.06"/>
</g>
<!-- Node30&#45;&gt;Node23 -->
<g id="edge71" class="edge">
<title>Node30&#45;&gt;Node23</title>
<path fill="none" stroke="midnightblue" d="M870.78,-235.48C840.33,-225.18 788.95,-207.81 754.76,-196.25"/>
<polygon fill="midnightblue" stroke="midnightblue" points="755.76,-192.9 745.17,-193.01 753.52,-199.53 755.76,-192.9"/>
</g>
<!-- Node31 -->
<g id="node31" class="node">
<title>Node31</title>
<g id="a_node31"><a xlink:href="DSP_8hpp.html" target="_top" xlink:title=" ">
<polygon fill="white" stroke="black" points="1166,-174 1166,-193 1244,-193 1244,-174 1166,-174"/>
<text text-anchor="middle" x="1205" y="-181" font-family="Helvetica,sans-Serif" font-size="10.00">DSP/DSP.hpp</text>
</a>
</g>
</g>
<!-- Node30&#45;&gt;Node31 -->
<g id="edge66" class="edge">
<title>Node30&#45;&gt;Node31</title>
<path fill="none" stroke="midnightblue" d="M936.75,-237.31C998.21,-227.15 1111.71,-208.03 1152,-199 1156.47,-198 1161.12,-196.86 1165.74,-195.68"/>
<polygon fill="midnightblue" stroke="midnightblue" points="1166.92,-198.99 1175.69,-193.04 1165.12,-192.22 1166.92,-198.99"/>
</g>
<!-- Node33 -->
<g id="node33" class="node">
<title>Node33</title>
<g id="a_node33"><a xlink:href="IPL_8hpp.html" target="_top" xlink:title=" ">
<polygon fill="white" stroke="black" points="862.5,-174 862.5,-193 931.5,-193 931.5,-174 862.5,-174"/>
<text text-anchor="middle" x="897" y="-181" font-family="Helvetica,sans-Serif" font-size="10.00">IPL/IPL.hpp</text>
</a>
</g>
</g>
<!-- Node30&#45;&gt;Node33 -->
<g id="edge72" class="edge">
<title>Node30&#45;&gt;Node33</title>
<path fill="none" stroke="midnightblue" d="M896.14,-235.48C896.28,-227.08 896.5,-213.98 896.69,-203.16"/>
<polygon fill="midnightblue" stroke="midnightblue" points="900.19,-203.07 896.86,-193.01 893.19,-202.95 900.19,-203.07"/>
</g>
<!-- Node31&#45;&gt;Node5 -->
<g id="edge67" class="edge">
<title>Node31&#45;&gt;Node5</title>
<path fill="none" stroke="midnightblue" d="M1201.19,-173.63C1194.27,-158.58 1178.16,-128.1 1155,-112 1046.25,-36.39 883.86,-17.37 812.64,-12.59"/>
<polygon fill="midnightblue" stroke="midnightblue" points="812.61,-9.08 802.42,-11.96 812.18,-16.07 812.61,-9.08"/>
</g>
<!-- Node31&#45;&gt;Node8 -->
<g id="edge69" class="edge">
<title>Node31&#45;&gt;Node8</title>
<path fill="none" stroke="midnightblue" d="M1165.67,-175.5C1151.04,-173 1134.28,-170.24 1119,-168 1009.33,-151.93 880.38,-136.74 810.12,-128.78"/>
<polygon fill="midnightblue" stroke="midnightblue" points="810.1,-125.26 799.77,-127.62 809.31,-132.22 810.1,-125.26"/>
</g>
<!-- Node32 -->
<g id="node32" class="node">
<title>Node32</title>
<g id="a_node32"><a xlink:title=" ">
<polygon fill="white" stroke="#bfbfbf" points="1207,-112.5 1207,-131.5 1249,-131.5 1249,-112.5 1207,-112.5"/>
<text text-anchor="middle" x="1228" y="-119.5" font-family="Helvetica,sans-Serif" font-size="10.00">array</text>
</a>
</g>
</g>
<!-- Node31&#45;&gt;Node32 -->
<g id="edge68" class="edge">
<title>Node31&#45;&gt;Node32</title>
<path fill="none" stroke="midnightblue" d="M1208.3,-173.98C1211.61,-165.4 1216.82,-151.93 1221.05,-140.98"/>
<polygon fill="midnightblue" stroke="midnightblue" points="1224.37,-142.1 1224.71,-131.51 1217.84,-139.57 1224.37,-142.1"/>
</g>
<!-- Node33&#45;&gt;Node8 -->
<g id="edge73" class="edge">
<title>Node33&#45;&gt;Node8</title>
<path fill="none" stroke="midnightblue" d="M877.08,-173.98C853.55,-163.9 814.19,-147.05 787.21,-135.5"/>
<polygon fill="midnightblue" stroke="midnightblue" points="788.45,-132.23 777.88,-131.51 785.69,-138.66 788.45,-132.23"/>
</g>
<!-- Node35 -->
<g id="node35" class="node">
<title>Node35</title>
<g id="a_node35"><a xlink:title=" ">
<polygon fill="white" stroke="#bfbfbf" points="1205.5,-235.5 1205.5,-254.5 1300.5,-254.5 1300.5,-235.5 1205.5,-235.5"/>
<text text-anchor="middle" x="1253" y="-242.5" font-family="Helvetica,sans-Serif" font-size="10.00">bits/exception.h</text>
</a>
</g>
</g>
<!-- Node34&#45;&gt;Node35 -->
<g id="edge77" class="edge">
<title>Node34&#45;&gt;Node35</title>
<path fill="none" stroke="midnightblue" d="M1253,-296.98C1253,-288.58 1253,-275.48 1253,-264.66"/>
<polygon fill="midnightblue" stroke="midnightblue" points="1256.5,-264.51 1253,-254.51 1249.5,-264.51 1256.5,-264.51"/>
</g>
<!-- Node36&#45;&gt;Node9 -->
<g id="edge82" class="edge">
<title>Node36&#45;&gt;Node9</title>
<path fill="none" stroke="midnightblue" d="M1521.63,-358.44C1529.67,-348.8 1539.72,-335.38 1546,-322 1560.79,-290.48 1565,-280.82 1565,-246 1565,-246 1565,-246 1565,-121 1565,-62.35 1118.58,-23.24 993.33,-13.42"/>
<polygon fill="midnightblue" stroke="midnightblue" points="993.45,-9.92 983.21,-12.64 992.91,-16.9 993.45,-9.92"/>
</g>
<!-- Node36&#45;&gt;Node34 -->
<g id="edge85" class="edge">
<title>Node36&#45;&gt;Node34</title>
<path fill="none" stroke="midnightblue" d="M1453.77,-358.48C1406.68,-346.52 1339.93,-329.57 1296.55,-318.56"/>
<polygon fill="midnightblue" stroke="midnightblue" points="1297.14,-315.1 1286.59,-316.03 1295.42,-321.88 1297.14,-315.1"/>
</g>
<!-- Node37 -->
<g id="node37" class="node">
<title>Node37</title>
<g id="a_node37"><a xlink:title=" ">
<polygon fill="white" stroke="#bfbfbf" points="1397.5,-297 1397.5,-316 1462.5,-316 1462.5,-297 1397.5,-297"/>
<text text-anchor="middle" x="1430" y="-304" font-family="Helvetica,sans-Serif" font-size="10.00">exception</text>
</a>
</g>
</g>
<!-- Node36&#45;&gt;Node37 -->
<g id="edge81" class="edge">
<title>Node36&#45;&gt;Node37</title>
<path fill="none" stroke="midnightblue" d="M1491.86,-358.4C1479.05,-347.86 1461.57,-333.48 1448.46,-322.69"/>
<polygon fill="midnightblue" stroke="midnightblue" points="1450.51,-319.85 1440.57,-316.19 1446.07,-325.25 1450.51,-319.85"/>
</g>
<!-- Node38 -->
<g id="node38" class="node">
<title>Node38</title>
<g id="a_node38"><a xlink:title=" ">
<polygon fill="white" stroke="#bfbfbf" points="1593.5,-297 1593.5,-316 1624.5,-316 1624.5,-297 1593.5,-297"/>
<text text-anchor="middle" x="1609" y="-304" font-family="Helvetica,sans-Serif" font-size="10.00">ios</text>
</a>
</g>
</g>
<!-- Node36&#45;&gt;Node38 -->
<g id="edge83" class="edge">
<title>Node36&#45;&gt;Node38</title>
<path fill="none" stroke="midnightblue" d="M1530.7,-358.4C1547.47,-347.5 1570.57,-332.48 1587.33,-321.58"/>
<polygon fill="midnightblue" stroke="midnightblue" points="1589.44,-324.39 1595.91,-316.01 1585.62,-318.52 1589.44,-324.39"/>
</g>
<!-- Node39 -->
<g id="node39" class="node">
<title>Node39</title>
<g id="a_node39"><a xlink:title=" ">
<polygon fill="white" stroke="#bfbfbf" points="1481,-297 1481,-316 1537,-316 1537,-297 1481,-297"/>
<text text-anchor="middle" x="1509" y="-304" font-family="Helvetica,sans-Serif" font-size="10.00">sstream</text>
</a>
</g>
</g>
<!-- Node36&#45;&gt;Node39 -->
<g id="edge84" class="edge">
<title>Node36&#45;&gt;Node39</title>
<path fill="none" stroke="midnightblue" d="M1509,-358.4C1509,-349.06 1509,-336.71 1509,-326.52"/>
<polygon fill="midnightblue" stroke="midnightblue" points="1512.5,-326.19 1509,-316.19 1505.5,-326.19 1512.5,-326.19"/>
</g>
<!-- Node40&#45;&gt;Node9 -->
<g id="edge88" class="edge">
<title>Node40&#45;&gt;Node9</title>
<path fill="none" stroke="midnightblue" d="M1366.18,-358.33C1374.89,-315.53 1394.6,-186 1333,-112 1302.86,-75.79 1287.13,-72.48 1243,-56 1156.75,-23.79 1047.24,-14.63 993.6,-12.03"/>
<polygon fill="midnightblue" stroke="midnightblue" points="993.48,-8.52 983.34,-11.58 993.17,-15.51 993.48,-8.52"/>
</g>
<!-- Node40&#45;&gt;Node34 -->
<g id="edge90" class="edge">
<title>Node40&#45;&gt;Node34</title>
<path fill="none" stroke="midnightblue" d="M1339.13,-358.4C1320.43,-347.34 1294.56,-332.06 1276.07,-321.13"/>
<polygon fill="midnightblue" stroke="midnightblue" points="1277.79,-318.08 1267.4,-316.01 1274.23,-324.11 1277.79,-318.08"/>
</g>
<!-- Node40&#45;&gt;Node37 -->
<g id="edge87" class="edge">
<title>Node40&#45;&gt;Node37</title>
<path fill="none" stroke="midnightblue" d="M1377.54,-358.4C1388.19,-348.06 1402.66,-334.02 1413.7,-323.31"/>
<polygon fill="midnightblue" stroke="midnightblue" points="1416.3,-325.67 1421.04,-316.19 1411.42,-320.65 1416.3,-325.67"/>
</g>
<!-- Node40&#45;&gt;Node39 -->
<g id="edge89" class="edge">
<title>Node40&#45;&gt;Node39</title>
<path fill="none" stroke="midnightblue" d="M1394.68,-358.4C1420.3,-346.99 1456.04,-331.08 1480.7,-320.1"/>
<polygon fill="midnightblue" stroke="midnightblue" points="1482.18,-323.27 1489.89,-316.01 1479.33,-316.88 1482.18,-323.27"/>
</g>
</g>
</svg>
