<?xml version="1.0" encoding="UTF-8" standalone="no"?>
<!DOCTYPE svg PUBLIC "-//W3C//DTD SVG 1.1//EN"
 "http://www.w3.org/Graphics/SVG/1.1/DTD/svg11.dtd">
<!-- Generated by graphviz version 2.43.0 (0)
 -->
<!-- Title: sources/Utility/Utility.cpp Pages: 1 -->
<svg width="364pt" height="140pt"
 viewBox="0.00 0.00 364.00 140.00" xmlns="http://www.w3.org/2000/svg" xmlns:xlink="http://www.w3.org/1999/xlink">
<g id="graph0" class="graph" transform="scale(1 1) rotate(0) translate(4 136)">
<title>sources/Utility/Utility.cpp</title>
<polygon fill="white" stroke="transparent" points="-4,4 -4,-136 360,-136 360,4 -4,4"/>
<!-- Node1 -->
<g id="node1" class="node">
<title>Node1</title>
<g id="a_node1"><a xlink:title=" ">
<polygon fill="#bfbfbf" stroke="black" points="20.5,-112.5 20.5,-131.5 159.5,-131.5 159.5,-112.5 20.5,-112.5"/>
<text text-anchor="middle" x="90" y="-119.5" font-family="Helvetica,sans-Serif" font-size="10.00">sources/Utility/Utility.cpp</text>
</a>
</g>
</g>
<!-- Node2 -->
<g id="node2" class="node">
<title>Node2</title>
<g id="a_node2"><a xlink:title=" ">
<polygon fill="white" stroke="#bfbfbf" points="0,-56.5 0,-75.5 44,-75.5 44,-56.5 0,-56.5"/>
<text text-anchor="middle" x="22" y="-63.5" font-family="Helvetica,sans-Serif" font-size="10.00">bitset</text>
</a>
</g>
</g>
<!-- Node1&#45;&gt;Node2 -->
<g id="edge1" class="edge">
<title>Node1&#45;&gt;Node2</title>
<path fill="none" stroke="midnightblue" d="M79.07,-112.32C68.83,-104.18 53.28,-91.84 41,-82.09"/>
<polygon fill="midnightblue" stroke="midnightblue" points="43.13,-79.31 33.12,-75.83 38.78,-84.79 43.13,-79.31"/>
</g>
<!-- Node3 -->
<g id="node3" class="node">
<title>Node3</title>
<g id="a_node3"><a xlink:title=" ">
<polygon fill="white" stroke="#bfbfbf" points="62,-56.5 62,-75.5 118,-75.5 118,-56.5 62,-56.5"/>
<text text-anchor="middle" x="90" y="-63.5" font-family="Helvetica,sans-Serif" font-size="10.00">iomanip</text>
</a>
</g>
</g>
<!-- Node1&#45;&gt;Node3 -->
<g id="edge2" class="edge">
<title>Node1&#45;&gt;Node3</title>
<path fill="none" stroke="midnightblue" d="M90,-112.08C90,-105.01 90,-94.86 90,-85.99"/>
<polygon fill="midnightblue" stroke="midnightblue" points="93.5,-85.75 90,-75.75 86.5,-85.75 93.5,-85.75"/>
</g>
<!-- Node4 -->
<g id="node4" class="node">
<title>Node4</title>
<g id="a_node4"><a xlink:href="Utility_8hpp.html" target="_top" xlink:title=" ">
<polygon fill="white" stroke="black" points="136,-56.5 136,-75.5 202,-75.5 202,-56.5 136,-56.5"/>
<text text-anchor="middle" x="169" y="-63.5" font-family="Helvetica,sans-Serif" font-size="10.00">Utility.hpp</text>
</a>
</g>
</g>
<!-- Node1&#45;&gt;Node4 -->
<g id="edge3" class="edge">
<title>Node1&#45;&gt;Node4</title>
<path fill="none" stroke="midnightblue" d="M102.69,-112.32C114.9,-103.98 133.58,-91.21 148,-81.35"/>
<polygon fill="midnightblue" stroke="midnightblue" points="150.06,-84.19 156.34,-75.65 146.11,-78.41 150.06,-84.19"/>
</g>
<!-- Node5 -->
<g id="node5" class="node">
<title>Node5</title>
<g id="a_node5"><a xlink:title=" ">
<polygon fill="white" stroke="#bfbfbf" points="60,-0.5 60,-19.5 104,-19.5 104,-0.5 60,-0.5"/>
<text text-anchor="middle" x="82" y="-7.5" font-family="Helvetica,sans-Serif" font-size="10.00">string</text>
</a>
</g>
</g>
<!-- Node4&#45;&gt;Node5 -->
<g id="edge4" class="edge">
<title>Node4&#45;&gt;Node5</title>
<path fill="none" stroke="midnightblue" d="M155.02,-56.32C141.45,-47.9 120.62,-34.97 104.68,-25.07"/>
<polygon fill="midnightblue" stroke="midnightblue" points="106.29,-21.95 95.94,-19.65 102.59,-27.9 106.29,-21.95"/>
</g>
<!-- Node6 -->
<g id="node6" class="node">
<title>Node6</title>
<g id="a_node6"><a xlink:title=" ">
<polygon fill="white" stroke="#bfbfbf" points="122.5,-0.5 122.5,-19.5 153.5,-19.5 153.5,-0.5 122.5,-0.5"/>
<text text-anchor="middle" x="138" y="-7.5" font-family="Helvetica,sans-Serif" font-size="10.00">ios</text>
</a>
</g>
</g>
<!-- Node4&#45;&gt;Node6 -->
<g id="edge5" class="edge">
<title>Node4&#45;&gt;Node6</title>
<path fill="none" stroke="midnightblue" d="M163.88,-56.08C159.59,-48.61 153.34,-37.72 148.06,-28.52"/>
<polygon fill="midnightblue" stroke="midnightblue" points="151.04,-26.68 143.02,-19.75 144.97,-30.17 151.04,-26.68"/>
</g>
<!-- Node7 -->
<g id="node7" class="node">
<title>Node7</title>
<g id="a_node7"><a xlink:title=" ">
<polygon fill="white" stroke="#bfbfbf" points="172,-0.5 172,-19.5 228,-19.5 228,-0.5 172,-0.5"/>
<text text-anchor="middle" x="200" y="-7.5" font-family="Helvetica,sans-Serif" font-size="10.00">sstream</text>
</a>
</g>
</g>
<!-- Node4&#45;&gt;Node7 -->
<g id="edge6" class="edge">
<title>Node4&#45;&gt;Node7</title>
<path fill="none" stroke="midnightblue" d="M174.12,-56.08C178.41,-48.61 184.66,-37.72 189.94,-28.52"/>
<polygon fill="midnightblue" stroke="midnightblue" points="193.03,-30.17 194.98,-19.75 186.96,-26.68 193.03,-30.17"/>
</g>
<!-- Node8 -->
<g id="node8" class="node">
<title>Node8</title>
<g id="a_node8"><a xlink:href="Int24_8hpp.html" target="_top" xlink:title=" ">
<polygon fill="white" stroke="black" points="246,-0.5 246,-19.5 356,-19.5 356,-0.5 246,-0.5"/>
<text text-anchor="middle" x="301" y="-7.5" font-family="Helvetica,sans-Serif" font-size="10.00">../Models/Int24.hpp</text>
</a>
</g>
</g>
<!-- Node4&#45;&gt;Node8 -->
<g id="edge7" class="edge">
<title>Node4&#45;&gt;Node8</title>
<path fill="none" stroke="midnightblue" d="M189.92,-56.44C211.74,-47.52 246.15,-33.44 270.89,-23.32"/>
<polygon fill="midnightblue" stroke="midnightblue" points="272.25,-26.54 280.18,-19.52 269.6,-20.06 272.25,-26.54"/>
</g>
</g>
</svg>
