<?xml version="1.0" encoding="UTF-8" standalone="no"?>
<!DOCTYPE svg PUBLIC "-//W3C//DTD SVG 1.1//EN"
 "http://www.w3.org/Graphics/SVG/1.1/DTD/svg11.dtd">
<!-- Generated by graphviz version 2.43.0 (0)
 -->
<!-- Title: sources/Utility/Utility.hpp Pages: 1 -->
<svg width="2088pt" height="95pt"
 viewBox="0.00 0.00 2087.50 95.00" xmlns="http://www.w3.org/2000/svg" xmlns:xlink="http://www.w3.org/1999/xlink">
<g id="graph0" class="graph" transform="scale(1 1) rotate(0) translate(4 91)">
<title>sources/Utility/Utility.hpp</title>
<polygon fill="white" stroke="transparent" points="-4,4 -4,-91 2083.5,-91 2083.5,4 -4,4"/>
<!-- Node1 -->
<g id="node1" class="node">
<title>Node1</title>
<g id="a_node1"><a xlink:title=" ">
<polygon fill="#bfbfbf" stroke="black" points="950,-67.5 950,-86.5 1090,-86.5 1090,-67.5 950,-67.5"/>
<text text-anchor="middle" x="1020" y="-74.5" font-family="Helvetica,sans-Serif" font-size="10.00">sources/Utility/Utility.hpp</text>
</a>
</g>
</g>
<!-- Node2 -->
<g id="node2" class="node">
<title>Node2</title>
<g id="a_node2"><a xlink:href="8bitDataTransmission_8cpp.html" target="_top" xlink:title=" ">
<polygon fill="white" stroke="black" points="0,-0.5 0,-30.5 146,-30.5 146,-0.5 0,-0.5"/>
<text text-anchor="start" x="8" y="-18.5" font-family="Helvetica,sans-Serif" font-size="10.00">sources/APU/Instructions</text>
<text text-anchor="middle" x="73" y="-7.5" font-family="Helvetica,sans-Serif" font-size="10.00">/8bitDataTransmission.cpp</text>
</a>
</g>
</g>
<!-- Node1&#45;&gt;Node2 -->
<g id="edge1" class="edge">
<title>Node1&#45;&gt;Node2</title>
<path fill="none" stroke="midnightblue" d="M939.72,-75.12C786.61,-72.7 442.54,-63.78 155,-31 152.13,-30.67 149.2,-30.31 146.25,-29.91"/>
<polygon fill="midnightblue" stroke="midnightblue" points="939.91,-78.62 949.96,-75.27 940.02,-71.62 939.91,-78.62"/>
</g>
<!-- Node3 -->
<g id="node3" class="node">
<title>Node3</title>
<g id="a_node3"><a xlink:href="Bit_8cpp.html" target="_top" xlink:title=" ">
<polygon fill="white" stroke="black" points="164.5,-0.5 164.5,-30.5 301.5,-30.5 301.5,-0.5 164.5,-0.5"/>
<text text-anchor="start" x="172.5" y="-18.5" font-family="Helvetica,sans-Serif" font-size="10.00">sources/APU/Instructions</text>
<text text-anchor="middle" x="233" y="-7.5" font-family="Helvetica,sans-Serif" font-size="10.00">/Bit.cpp</text>
</a>
</g>
</g>
<!-- Node1&#45;&gt;Node3 -->
<g id="edge2" class="edge">
<title>Node1&#45;&gt;Node3</title>
<path fill="none" stroke="midnightblue" d="M939.93,-74.13C808.12,-70.33 537.38,-59.51 310,-31 307.3,-30.66 304.55,-30.29 301.78,-29.89"/>
<polygon fill="midnightblue" stroke="midnightblue" points="939.85,-77.63 949.94,-74.41 940.05,-70.63 939.85,-77.63"/>
</g>
<!-- Node4 -->
<g id="node4" class="node">
<title>Node4</title>
<g id="a_node4"><a xlink:href="Subroutine_8cpp.html" target="_top" xlink:title=" ">
<polygon fill="white" stroke="black" points="319.5,-0.5 319.5,-30.5 456.5,-30.5 456.5,-0.5 319.5,-0.5"/>
<text text-anchor="start" x="327.5" y="-18.5" font-family="Helvetica,sans-Serif" font-size="10.00">sources/APU/Instructions</text>
<text text-anchor="middle" x="388" y="-7.5" font-family="Helvetica,sans-Serif" font-size="10.00">/Subroutine.cpp</text>
</a>
</g>
</g>
<!-- Node1&#45;&gt;Node4 -->
<g id="edge3" class="edge">
<title>Node1&#45;&gt;Node4</title>
<path fill="none" stroke="midnightblue" d="M939.47,-72.13C831.23,-66.33 633,-53.56 465,-31 462.3,-30.64 459.56,-30.24 456.79,-29.82"/>
<polygon fill="midnightblue" stroke="midnightblue" points="939.49,-75.64 949.66,-72.67 939.86,-68.65 939.49,-75.64"/>
</g>
<!-- Node5 -->
<g id="node5" class="node">
<title>Node5</title>
<g id="a_node5"><a xlink:href="APUDebug_8cpp.html" target="_top" xlink:title=" ">
<polygon fill="white" stroke="black" points="474.5,-6 474.5,-25 653.5,-25 653.5,-6 474.5,-6"/>
<text text-anchor="middle" x="564" y="-13" font-family="Helvetica,sans-Serif" font-size="10.00">sources/Debugger/APUDebug.cpp</text>
</a>
</g>
</g>
<!-- Node1&#45;&gt;Node5 -->
<g id="edge4" class="edge">
<title>Node1&#45;&gt;Node5</title>
<path fill="none" stroke="midnightblue" d="M939.98,-66.45C867.38,-57.66 757.43,-44.06 662,-31 648.45,-29.15 633.87,-27.05 620.2,-25.03"/>
<polygon fill="midnightblue" stroke="midnightblue" points="939.62,-69.93 949.97,-67.66 940.46,-62.98 939.62,-69.93"/>
</g>
<!-- Node6 -->
<g id="node6" class="node">
<title>Node6</title>
<g id="a_node6"><a xlink:href="CGramDebug_8cpp.html" target="_top" xlink:title=" ">
<polygon fill="white" stroke="black" points="671.5,-6 671.5,-25 864.5,-25 864.5,-6 671.5,-6"/>
<text text-anchor="middle" x="768" y="-13" font-family="Helvetica,sans-Serif" font-size="10.00">sources/Debugger/CGramDebug.cpp</text>
</a>
</g>
</g>
<!-- Node1&#45;&gt;Node6 -->
<g id="edge5" class="edge">
<title>Node1&#45;&gt;Node6</title>
<path fill="none" stroke="midnightblue" d="M973.89,-65.11C924.98,-53.57 848.73,-35.56 804.04,-25.01"/>
<polygon fill="midnightblue" stroke="midnightblue" points="973.36,-68.58 983.89,-67.48 974.97,-61.77 973.36,-68.58"/>
</g>
<!-- Node7 -->
<g id="node7" class="node">
<title>Node7</title>
<g id="a_node7"><a xlink:href="CPUDebug_8cpp.html" target="_top" xlink:title=" ">
<polygon fill="white" stroke="black" points="883,-0.5 883,-30.5 1011,-30.5 1011,-0.5 883,-0.5"/>
<text text-anchor="start" x="891" y="-18.5" font-family="Helvetica,sans-Serif" font-size="10.00">sources/Debugger/CPU</text>
<text text-anchor="middle" x="947" y="-7.5" font-family="Helvetica,sans-Serif" font-size="10.00">/CPUDebug.cpp</text>
</a>
</g>
</g>
<!-- Node1&#45;&gt;Node7 -->
<g id="edge6" class="edge">
<title>Node1&#45;&gt;Node7</title>
<path fill="none" stroke="midnightblue" d="M1001.5,-60.92C990.04,-51.58 975.42,-39.66 964.2,-30.52"/>
<polygon fill="midnightblue" stroke="midnightblue" points="999.58,-63.87 1009.54,-67.48 1004,-58.44 999.58,-63.87"/>
</g>
<!-- Node8 -->
<g id="node8" class="node">
<title>Node8</title>
<g id="a_node8"><a xlink:href="Disassembly_8cpp.html" target="_top" xlink:title=" ">
<polygon fill="white" stroke="black" points="1029,-0.5 1029,-30.5 1157,-30.5 1157,-0.5 1029,-0.5"/>
<text text-anchor="start" x="1037" y="-18.5" font-family="Helvetica,sans-Serif" font-size="10.00">sources/Debugger/CPU</text>
<text text-anchor="middle" x="1093" y="-7.5" font-family="Helvetica,sans-Serif" font-size="10.00">/Disassembly.cpp</text>
</a>
</g>
</g>
<!-- Node1&#45;&gt;Node8 -->
<g id="edge7" class="edge">
<title>Node1&#45;&gt;Node8</title>
<path fill="none" stroke="midnightblue" d="M1038.5,-60.92C1049.96,-51.58 1064.58,-39.66 1075.8,-30.52"/>
<polygon fill="midnightblue" stroke="midnightblue" points="1036,-58.44 1030.46,-67.48 1040.42,-63.87 1036,-58.44"/>
</g>
<!-- Node9 -->
<g id="node9" class="node">
<title>Node9</title>
<g id="a_node9"><a xlink:href="HeaderViewer_8cpp.html" target="_top" xlink:title=" ">
<polygon fill="white" stroke="black" points="1175,-6 1175,-25 1371,-25 1371,-6 1175,-6"/>
<text text-anchor="middle" x="1273" y="-13" font-family="Helvetica,sans-Serif" font-size="10.00">sources/Debugger/HeaderViewer.cpp</text>
</a>
</g>
</g>
<!-- Node1&#45;&gt;Node9 -->
<g id="edge8" class="edge">
<title>Node1&#45;&gt;Node9</title>
<path fill="none" stroke="midnightblue" d="M1066.29,-65.11C1115.39,-53.57 1191.95,-35.56 1236.82,-25.01"/>
<polygon fill="midnightblue" stroke="midnightblue" points="1065.18,-61.78 1056.25,-67.48 1066.78,-68.59 1065.18,-61.78"/>
</g>
<!-- Node10 -->
<g id="node10" class="node">
<title>Node10</title>
<g id="a_node10"><a xlink:href="MemoryBusDebug_8cpp.html" target="_top" xlink:title=" ">
<polygon fill="white" stroke="black" points="1389,-0.5 1389,-30.5 1555,-30.5 1555,-0.5 1389,-0.5"/>
<text text-anchor="start" x="1397" y="-18.5" font-family="Helvetica,sans-Serif" font-size="10.00">sources/Debugger/MemoryBus</text>
<text text-anchor="middle" x="1472" y="-7.5" font-family="Helvetica,sans-Serif" font-size="10.00">Debug.cpp</text>
</a>
</g>
</g>
<!-- Node1&#45;&gt;Node10 -->
<g id="edge9" class="edge">
<title>Node1&#45;&gt;Node10</title>
<path fill="none" stroke="midnightblue" d="M1100.16,-66.72C1173.18,-58.1 1283.95,-44.57 1380,-31 1382.88,-30.59 1385.81,-30.17 1388.77,-29.74"/>
<polygon fill="midnightblue" stroke="midnightblue" points="1099.63,-63.26 1090.11,-67.91 1100.45,-70.21 1099.63,-63.26"/>
</g>
<!-- Node11 -->
<g id="node11" class="node">
<title>Node11</title>
<g id="a_node11"><a xlink:href="RegisterViewer_8cpp.html" target="_top" xlink:title=" ">
<polygon fill="white" stroke="black" points="1573,-0.5 1573,-30.5 1721,-30.5 1721,-0.5 1573,-0.5"/>
<text text-anchor="start" x="1581" y="-18.5" font-family="Helvetica,sans-Serif" font-size="10.00">sources/Debugger/Register</text>
<text text-anchor="middle" x="1647" y="-7.5" font-family="Helvetica,sans-Serif" font-size="10.00">Viewer.cpp</text>
</a>
</g>
</g>
<!-- Node1&#45;&gt;Node11 -->
<g id="edge10" class="edge">
<title>Node1&#45;&gt;Node11</title>
<path fill="none" stroke="midnightblue" d="M1100.22,-71.64C1206.54,-65.34 1399.87,-52.08 1564,-31 1566.9,-30.63 1569.86,-30.22 1572.84,-29.8"/>
<polygon fill="midnightblue" stroke="midnightblue" points="1099.98,-68.15 1090.2,-72.23 1100.39,-75.14 1099.98,-68.15"/>
</g>
<!-- Node12 -->
<g id="node12" class="node">
<title>Node12</title>
<g id="a_node12"><a xlink:href="Utility_8cpp.html" target="_top" xlink:title=" ">
<polygon fill="white" stroke="black" points="1739.5,-6 1739.5,-25 1878.5,-25 1878.5,-6 1739.5,-6"/>
<text text-anchor="middle" x="1809" y="-13" font-family="Helvetica,sans-Serif" font-size="10.00">sources/Utility/Utility.cpp</text>
</a>
</g>
</g>
<!-- Node1&#45;&gt;Node12 -->
<g id="edge11" class="edge">
<title>Node1&#45;&gt;Node12</title>
<path fill="none" stroke="midnightblue" d="M1100.06,-74.01C1231.84,-70.04 1502.55,-58.98 1730,-31 1742.32,-29.48 1755.62,-27.27 1767.73,-25.03"/>
<polygon fill="midnightblue" stroke="midnightblue" points="1099.93,-70.51 1090.04,-74.3 1100.14,-77.51 1099.93,-70.51"/>
</g>
<!-- Node13 -->
<g id="node13" class="node">
<title>Node13</title>
<g id="a_node13"><a xlink:href="testAPUInstructions_8cpp.html" target="_top" xlink:title=" ">
<polygon fill="white" stroke="black" points="1896.5,-6 1896.5,-25 2079.5,-25 2079.5,-6 1896.5,-6"/>
<text text-anchor="middle" x="1988" y="-13" font-family="Helvetica,sans-Serif" font-size="10.00">tests/APU/testAPUInstructions.cpp</text>
</a>
</g>
</g>
<!-- Node1&#45;&gt;Node13 -->
<g id="edge12" class="edge">
<title>Node1&#45;&gt;Node13</title>
<path fill="none" stroke="midnightblue" d="M1100.48,-74.31C1253.96,-70.52 1598.99,-59.38 1888,-31 1903.54,-29.47 1920.36,-27.26 1935.69,-25.01"/>
<polygon fill="midnightblue" stroke="midnightblue" points="1100.11,-70.81 1090.2,-74.55 1100.28,-77.81 1100.11,-70.81"/>
</g>
</g>
</svg>
