<?xml version="1.0" encoding="UTF-8" standalone="no"?>
<!DOCTYPE svg PUBLIC "-//W3C//DTD SVG 1.1//EN"
 "http://www.w3.org/Graphics/SVG/1.1/DTD/svg11.dtd">
<!-- Generated by graphviz version 2.43.0 (0)
 -->
<!-- Title: sources/APU/DSP/Voice.cpp Pages: 1 -->
<svg width="663pt" height="308pt"
 viewBox="0.00 0.00 663.00 308.00" xmlns="http://www.w3.org/2000/svg" xmlns:xlink="http://www.w3.org/1999/xlink">
<g id="graph0" class="graph" transform="scale(1 1) rotate(0) translate(4 304)">
<title>sources/APU/DSP/Voice.cpp</title>
<polygon fill="white" stroke="transparent" points="-4,4 -4,-304 659,-304 659,4 -4,4"/>
<!-- Node1 -->
<g id="node1" class="node">
<title>Node1</title>
<g id="a_node1"><a xlink:title=" ">
<polygon fill="#bfbfbf" stroke="black" points="194.5,-280.5 194.5,-299.5 343.5,-299.5 343.5,-280.5 194.5,-280.5"/>
<text text-anchor="middle" x="269" y="-287.5" font-family="Helvetica,sans-Serif" font-size="10.00">sources/APU/DSP/Voice.cpp</text>
</a>
</g>
</g>
<!-- Node2 -->
<g id="node2" class="node">
<title>Node2</title>
<g id="a_node2"><a xlink:href="DSP_8hpp.html" target="_top" xlink:title=" ">
<polygon fill="white" stroke="black" points="97,-168.5 97,-187.5 153,-187.5 153,-168.5 97,-168.5"/>
<text text-anchor="middle" x="125" y="-175.5" font-family="Helvetica,sans-Serif" font-size="10.00">DSP.hpp</text>
</a>
</g>
</g>
<!-- Node1&#45;&gt;Node2 -->
<g id="edge1" class="edge">
<title>Node1&#45;&gt;Node2</title>
<path fill="none" stroke="midnightblue" d="M257.7,-280.37C233.2,-261.65 174.94,-217.15 144.42,-193.83"/>
<polygon fill="midnightblue" stroke="midnightblue" points="146.32,-190.88 136.25,-187.59 142.07,-196.44 146.32,-190.88"/>
</g>
<!-- Node12 -->
<g id="node12" class="node">
<title>Node12</title>
<g id="a_node12"><a xlink:href="APU_8hpp.html" target="_top" xlink:title=" ">
<polygon fill="white" stroke="black" points="235.5,-224.5 235.5,-243.5 302.5,-243.5 302.5,-224.5 235.5,-224.5"/>
<text text-anchor="middle" x="269" y="-231.5" font-family="Helvetica,sans-Serif" font-size="10.00">../APU.hpp</text>
</a>
</g>
</g>
<!-- Node1&#45;&gt;Node12 -->
<g id="edge18" class="edge">
<title>Node1&#45;&gt;Node12</title>
<path fill="none" stroke="midnightblue" d="M269,-280.08C269,-273.01 269,-262.86 269,-253.99"/>
<polygon fill="midnightblue" stroke="midnightblue" points="272.5,-253.75 269,-243.75 265.5,-253.75 272.5,-253.75"/>
</g>
<!-- Node18 -->
<g id="node18" class="node">
<title>Node18</title>
<g id="a_node18"><a xlink:title=" ">
<polygon fill="white" stroke="#bfbfbf" points="321,-224.5 321,-243.5 385,-243.5 385,-224.5 321,-224.5"/>
<text text-anchor="middle" x="353" y="-231.5" font-family="Helvetica,sans-Serif" font-size="10.00">algorithm</text>
</a>
</g>
</g>
<!-- Node1&#45;&gt;Node18 -->
<g id="edge31" class="edge">
<title>Node1&#45;&gt;Node18</title>
<path fill="none" stroke="midnightblue" d="M282.5,-280.32C295.6,-271.9 315.71,-258.97 331.11,-249.07"/>
<polygon fill="midnightblue" stroke="midnightblue" points="333.02,-252.01 339.54,-243.65 329.23,-246.12 333.02,-252.01"/>
</g>
<!-- Node3 -->
<g id="node3" class="node">
<title>Node3</title>
<g id="a_node3"><a xlink:title=" ">
<polygon fill="white" stroke="#bfbfbf" points="0,-0.5 0,-19.5 50,-19.5 50,-0.5 0,-0.5"/>
<text text-anchor="middle" x="25" y="-7.5" font-family="Helvetica,sans-Serif" font-size="10.00">cstdint</text>
</a>
</g>
</g>
<!-- Node2&#45;&gt;Node3 -->
<g id="edge2" class="edge">
<title>Node2&#45;&gt;Node3</title>
<path fill="none" stroke="midnightblue" d="M108.21,-168.49C94.49,-160.72 75.53,-148.03 64,-132 41.31,-100.46 31.39,-55.08 27.4,-29.81"/>
<polygon fill="midnightblue" stroke="midnightblue" points="30.84,-29.14 25.96,-19.73 23.91,-30.13 30.84,-29.14"/>
</g>
<!-- Node4 -->
<g id="node4" class="node">
<title>Node4</title>
<g id="a_node4"><a xlink:title=" ">
<polygon fill="white" stroke="#bfbfbf" points="73,-112.5 73,-131.5 115,-131.5 115,-112.5 73,-112.5"/>
<text text-anchor="middle" x="94" y="-119.5" font-family="Helvetica,sans-Serif" font-size="10.00">array</text>
</a>
</g>
</g>
<!-- Node2&#45;&gt;Node4 -->
<g id="edge3" class="edge">
<title>Node2&#45;&gt;Node4</title>
<path fill="none" stroke="midnightblue" d="M119.88,-168.08C115.59,-160.61 109.34,-149.72 104.06,-140.52"/>
<polygon fill="midnightblue" stroke="midnightblue" points="107.04,-138.68 99.02,-131.75 100.97,-142.17 107.04,-138.68"/>
</g>
<!-- Node5 -->
<g id="node5" class="node">
<title>Node5</title>
<g id="a_node5"><a xlink:href="AMemory_8hpp.html" target="_top" xlink:title=" ">
<polygon fill="white" stroke="black" points="133.5,-112.5 133.5,-131.5 278.5,-131.5 278.5,-112.5 133.5,-112.5"/>
<text text-anchor="middle" x="206" y="-119.5" font-family="Helvetica,sans-Serif" font-size="10.00">../../Memory/AMemory.hpp</text>
</a>
</g>
</g>
<!-- Node2&#45;&gt;Node5 -->
<g id="edge4" class="edge">
<title>Node2&#45;&gt;Node5</title>
<path fill="none" stroke="midnightblue" d="M138.01,-168.32C150.53,-159.98 169.68,-147.21 184.47,-137.35"/>
<polygon fill="midnightblue" stroke="midnightblue" points="186.64,-140.11 193.02,-131.65 182.76,-134.29 186.64,-140.11"/>
</g>
<!-- Node5&#45;&gt;Node3 -->
<g id="edge5" class="edge">
<title>Node5&#45;&gt;Node3</title>
<path fill="none" stroke="midnightblue" d="M191.8,-112.37C160.61,-93.41 85.88,-48 47.94,-24.94"/>
<polygon fill="midnightblue" stroke="midnightblue" points="49.5,-21.79 39.14,-19.59 45.86,-27.78 49.5,-21.79"/>
</g>
<!-- Node6 -->
<g id="node6" class="node">
<title>Node6</title>
<g id="a_node6"><a xlink:title=" ">
<polygon fill="white" stroke="#bfbfbf" points="360.5,-0.5 360.5,-19.5 407.5,-19.5 407.5,-0.5 360.5,-0.5"/>
<text text-anchor="middle" x="384" y="-7.5" font-family="Helvetica,sans-Serif" font-size="10.00">vector</text>
</a>
</g>
</g>
<!-- Node5&#45;&gt;Node6 -->
<g id="edge6" class="edge">
<title>Node5&#45;&gt;Node6</title>
<path fill="none" stroke="midnightblue" d="M206.02,-112.08C206.54,-98.15 209.64,-71.23 225,-56 226.15,-54.86 304.2,-33.1 350.5,-20.27"/>
<polygon fill="midnightblue" stroke="midnightblue" points="351.71,-23.56 360.42,-17.52 349.84,-16.82 351.71,-23.56"/>
</g>
<!-- Node7 -->
<g id="node7" class="node">
<title>Node7</title>
<g id="a_node7"><a xlink:title=" ">
<polygon fill="white" stroke="#bfbfbf" points="426,-0.5 426,-19.5 484,-19.5 484,-0.5 426,-0.5"/>
<text text-anchor="middle" x="455" y="-7.5" font-family="Helvetica,sans-Serif" font-size="10.00">memory</text>
</a>
</g>
</g>
<!-- Node5&#45;&gt;Node7 -->
<g id="edge7" class="edge">
<title>Node5&#45;&gt;Node7</title>
<path fill="none" stroke="midnightblue" d="M230.01,-112.49C253.84,-103.87 291.3,-89.87 323,-76 343.25,-67.14 396.47,-40.54 428.81,-24.25"/>
<polygon fill="midnightblue" stroke="midnightblue" points="430.76,-27.18 438.11,-19.55 427.61,-20.93 430.76,-27.18"/>
</g>
<!-- Node8 -->
<g id="node8" class="node">
<title>Node8</title>
<g id="a_node8"><a xlink:title=" ">
<polygon fill="white" stroke="#bfbfbf" points="514,-0.5 514,-19.5 558,-19.5 558,-0.5 514,-0.5"/>
<text text-anchor="middle" x="536" y="-7.5" font-family="Helvetica,sans-Serif" font-size="10.00">string</text>
</a>
</g>
</g>
<!-- Node5&#45;&gt;Node8 -->
<g id="edge8" class="edge">
<title>Node5&#45;&gt;Node8</title>
<path fill="none" stroke="midnightblue" d="M236.53,-112.47C267.15,-103.78 315.57,-89.68 357,-76 409.08,-58.8 468.84,-36.59 504.45,-23.09"/>
<polygon fill="midnightblue" stroke="midnightblue" points="505.72,-26.36 513.82,-19.53 503.23,-19.81 505.72,-26.36"/>
</g>
<!-- Node9 -->
<g id="node9" class="node">
<title>Node9</title>
<g id="a_node9"><a xlink:href="Int24_8hpp.html" target="_top" xlink:title=" ">
<polygon fill="white" stroke="black" points="68,-0.5 68,-19.5 178,-19.5 178,-0.5 68,-0.5"/>
<text text-anchor="middle" x="123" y="-7.5" font-family="Helvetica,sans-Serif" font-size="10.00">../Models/Int24.hpp</text>
</a>
</g>
</g>
<!-- Node5&#45;&gt;Node9 -->
<g id="edge9" class="edge">
<title>Node5&#45;&gt;Node9</title>
<path fill="none" stroke="midnightblue" d="M199.49,-112.37C185.73,-94.14 153.5,-51.43 135.58,-27.68"/>
<polygon fill="midnightblue" stroke="midnightblue" points="138.3,-25.47 129.48,-19.59 132.71,-29.68 138.3,-25.47"/>
</g>
<!-- Node10 -->
<g id="node10" class="node">
<title>Node10</title>
<g id="a_node10"><a xlink:href="Components_8hpp.html" target="_top" xlink:title=" ">
<polygon fill="white" stroke="black" points="196,-0.5 196,-19.5 342,-19.5 342,-0.5 196,-0.5"/>
<text text-anchor="middle" x="269" y="-7.5" font-family="Helvetica,sans-Serif" font-size="10.00">../Models/Components.hpp</text>
</a>
</g>
</g>
<!-- Node5&#45;&gt;Node10 -->
<g id="edge10" class="edge">
<title>Node5&#45;&gt;Node10</title>
<path fill="none" stroke="midnightblue" d="M200.55,-112.41C193.03,-99.39 181.54,-74.22 192,-56 200.62,-40.99 216.39,-30.5 231.43,-23.46"/>
<polygon fill="midnightblue" stroke="midnightblue" points="232.82,-26.67 240.63,-19.51 230.06,-20.24 232.82,-26.67"/>
</g>
<!-- Node11 -->
<g id="node11" class="node">
<title>Node11</title>
<g id="a_node11"><a xlink:href="IMemory_8hpp.html" target="_top" xlink:title=" ">
<polygon fill="white" stroke="black" points="234,-56.5 234,-75.5 314,-75.5 314,-56.5 234,-56.5"/>
<text text-anchor="middle" x="274" y="-63.5" font-family="Helvetica,sans-Serif" font-size="10.00">IMemory.hpp</text>
</a>
</g>
</g>
<!-- Node5&#45;&gt;Node11 -->
<g id="edge11" class="edge">
<title>Node5&#45;&gt;Node11</title>
<path fill="none" stroke="midnightblue" d="M216.93,-112.32C227.17,-104.18 242.72,-91.84 255,-82.09"/>
<polygon fill="midnightblue" stroke="midnightblue" points="257.22,-84.79 262.88,-75.83 252.87,-79.31 257.22,-84.79"/>
</g>
<!-- Node11&#45;&gt;Node3 -->
<g id="edge12" class="edge">
<title>Node11&#45;&gt;Node3</title>
<path fill="none" stroke="midnightblue" d="M233.84,-57.25C192.57,-49.14 126.26,-35.7 59.99,-20.14"/>
<polygon fill="midnightblue" stroke="midnightblue" points="60.75,-16.73 50.21,-17.83 59.14,-23.54 60.75,-16.73"/>
</g>
<!-- Node11&#45;&gt;Node6 -->
<g id="edge13" class="edge">
<title>Node11&#45;&gt;Node6</title>
<path fill="none" stroke="midnightblue" d="M291.67,-56.32C309.39,-47.62 336.9,-34.12 357.29,-24.11"/>
<polygon fill="midnightblue" stroke="midnightblue" points="358.94,-27.2 366.37,-19.65 355.85,-20.92 358.94,-27.2"/>
</g>
<!-- Node11&#45;&gt;Node7 -->
<g id="edge14" class="edge">
<title>Node11&#45;&gt;Node7</title>
<path fill="none" stroke="midnightblue" d="M302.68,-56.44C333.53,-47.24 382.73,-32.56 416.83,-22.39"/>
<polygon fill="midnightblue" stroke="midnightblue" points="417.87,-25.73 426.45,-19.52 415.87,-19.02 417.87,-25.73"/>
</g>
<!-- Node11&#45;&gt;Node8 -->
<g id="edge15" class="edge">
<title>Node11&#45;&gt;Node8</title>
<path fill="none" stroke="midnightblue" d="M314.37,-56.75C358.32,-47.76 430.67,-32.93 493,-20 496.47,-19.28 500.09,-18.53 503.7,-17.77"/>
<polygon fill="midnightblue" stroke="midnightblue" points="504.61,-21.16 513.69,-15.69 503.18,-14.31 504.61,-21.16"/>
</g>
<!-- Node11&#45;&gt;Node9 -->
<g id="edge16" class="edge">
<title>Node11&#45;&gt;Node9</title>
<path fill="none" stroke="midnightblue" d="M250.07,-56.44C224.78,-47.4 184.7,-33.06 156.32,-22.92"/>
<polygon fill="midnightblue" stroke="midnightblue" points="157.41,-19.59 146.81,-19.52 155.05,-26.18 157.41,-19.59"/>
</g>
<!-- Node11&#45;&gt;Node10 -->
<g id="edge17" class="edge">
<title>Node11&#45;&gt;Node10</title>
<path fill="none" stroke="midnightblue" d="M273.17,-56.08C272.52,-49.01 271.58,-38.86 270.76,-29.99"/>
<polygon fill="midnightblue" stroke="midnightblue" points="274.22,-29.39 269.81,-19.75 267.25,-30.03 274.22,-29.39"/>
</g>
<!-- Node12&#45;&gt;Node2 -->
<g id="edge20" class="edge">
<title>Node12&#45;&gt;Node2</title>
<path fill="none" stroke="midnightblue" d="M246.18,-224.44C222.17,-215.44 184.17,-201.19 157.13,-191.05"/>
<polygon fill="midnightblue" stroke="midnightblue" points="158.3,-187.75 147.71,-187.52 155.84,-194.3 158.3,-187.75"/>
</g>
<!-- Node12&#45;&gt;Node5 -->
<g id="edge21" class="edge">
<title>Node12&#45;&gt;Node5</title>
<path fill="none" stroke="midnightblue" d="M267.86,-224.48C265.85,-211.53 260.8,-186.47 250,-168 243.5,-156.88 233.65,-146.46 224.92,-138.45"/>
<polygon fill="midnightblue" stroke="midnightblue" points="227.17,-135.77 217.34,-131.82 222.57,-141.04 227.17,-135.77"/>
</g>
<!-- Node12&#45;&gt;Node7 -->
<g id="edge19" class="edge">
<title>Node12&#45;&gt;Node7</title>
<path fill="none" stroke="midnightblue" d="M271.54,-224.33C277.99,-203.34 296.6,-148.85 326,-112 355.96,-74.44 402.54,-42.48 430.77,-25.08"/>
<polygon fill="midnightblue" stroke="midnightblue" points="432.84,-27.91 439.59,-19.74 429.22,-21.92 432.84,-27.91"/>
</g>
<!-- Node13 -->
<g id="node13" class="node">
<title>Node13</title>
<g id="a_node13"><a xlink:href="Ram_8hpp.html" target="_top" xlink:title=" ">
<polygon fill="white" stroke="black" points="379.5,-168.5 379.5,-187.5 474.5,-187.5 474.5,-168.5 379.5,-168.5"/>
<text text-anchor="middle" x="427" y="-175.5" font-family="Helvetica,sans-Serif" font-size="10.00">../Ram/Ram.hpp</text>
</a>
</g>
</g>
<!-- Node12&#45;&gt;Node13 -->
<g id="edge22" class="edge">
<title>Node12&#45;&gt;Node13</title>
<path fill="none" stroke="midnightblue" d="M294.04,-224.44C320.62,-215.36 362.81,-200.94 392.52,-190.78"/>
<polygon fill="midnightblue" stroke="midnightblue" points="393.75,-194.06 402.08,-187.52 391.49,-187.44 393.75,-194.06"/>
</g>
<!-- Node15 -->
<g id="node15" class="node">
<title>Node15</title>
<g id="a_node15"><a xlink:href="IPL_8hpp.html" target="_top" xlink:title=" ">
<polygon fill="white" stroke="black" points="171.5,-168.5 171.5,-187.5 240.5,-187.5 240.5,-168.5 171.5,-168.5"/>
<text text-anchor="middle" x="206" y="-175.5" font-family="Helvetica,sans-Serif" font-size="10.00">IPL/IPL.hpp</text>
</a>
</g>
</g>
<!-- Node12&#45;&gt;Node15 -->
<g id="edge26" class="edge">
<title>Node12&#45;&gt;Node15</title>
<path fill="none" stroke="midnightblue" d="M258.88,-224.32C249.47,-216.26 235.26,-204.08 223.93,-194.37"/>
<polygon fill="midnightblue" stroke="midnightblue" points="226.18,-191.68 216.31,-187.83 221.62,-197 226.18,-191.68"/>
</g>
<!-- Node16 -->
<g id="node16" class="node">
<title>Node16</title>
<g id="a_node16"><a xlink:href="IRenderer_8hpp.html" target="_top" xlink:title=" ">
<polygon fill="white" stroke="black" points="515,-168.5 515,-187.5 655,-187.5 655,-168.5 515,-168.5"/>
<text text-anchor="middle" x="585" y="-175.5" font-family="Helvetica,sans-Serif" font-size="10.00">../Renderer/IRenderer.hpp</text>
</a>
</g>
</g>
<!-- Node12&#45;&gt;Node16 -->
<g id="edge28" class="edge">
<title>Node12&#45;&gt;Node16</title>
<path fill="none" stroke="midnightblue" d="M302.77,-225.79C305.89,-225.17 309,-224.56 312,-224 382.45,-210.83 463.52,-197.72 518.9,-189.08"/>
<polygon fill="midnightblue" stroke="midnightblue" points="519.59,-192.52 528.93,-187.52 518.51,-185.6 519.59,-192.52"/>
</g>
<!-- Node13&#45;&gt;Node8 -->
<g id="edge25" class="edge">
<title>Node13&#45;&gt;Node8</title>
<path fill="none" stroke="midnightblue" d="M471.83,-168.47C492.71,-162.07 515.82,-151 529,-132 550.31,-101.28 545.41,-54.9 540.42,-29.41"/>
<polygon fill="midnightblue" stroke="midnightblue" points="543.83,-28.61 538.28,-19.58 536.99,-30.1 543.83,-28.61"/>
</g>
<!-- Node14 -->
<g id="node14" class="node">
<title>Node14</title>
<g id="a_node14"><a xlink:href="ARectangleMemory_8hpp.html" target="_top" xlink:title=" ">
<polygon fill="white" stroke="black" points="334.5,-112.5 334.5,-131.5 519.5,-131.5 519.5,-112.5 334.5,-112.5"/>
<text text-anchor="middle" x="427" y="-119.5" font-family="Helvetica,sans-Serif" font-size="10.00">../Memory/ARectangleMemory.hpp</text>
</a>
</g>
</g>
<!-- Node13&#45;&gt;Node14 -->
<g id="edge23" class="edge">
<title>Node13&#45;&gt;Node14</title>
<path fill="none" stroke="midnightblue" d="M427,-168.08C427,-161.01 427,-150.86 427,-141.99"/>
<polygon fill="midnightblue" stroke="midnightblue" points="430.5,-141.75 427,-131.75 423.5,-141.75 430.5,-141.75"/>
</g>
<!-- Node14&#45;&gt;Node11 -->
<g id="edge24" class="edge">
<title>Node14&#45;&gt;Node11</title>
<path fill="none" stroke="midnightblue" d="M402.76,-112.44C377.13,-103.4 336.51,-89.06 307.76,-78.92"/>
<polygon fill="midnightblue" stroke="midnightblue" points="308.72,-75.54 298.13,-75.52 306.39,-82.15 308.72,-75.54"/>
</g>
<!-- Node15&#45;&gt;Node5 -->
<g id="edge27" class="edge">
<title>Node15&#45;&gt;Node5</title>
<path fill="none" stroke="midnightblue" d="M206,-168.08C206,-161.01 206,-150.86 206,-141.99"/>
<polygon fill="midnightblue" stroke="midnightblue" points="209.5,-141.75 206,-131.75 202.5,-141.75 209.5,-141.75"/>
</g>
<!-- Node16&#45;&gt;Node8 -->
<g id="edge29" class="edge">
<title>Node16&#45;&gt;Node8</title>
<path fill="none" stroke="midnightblue" d="M584.2,-168.24C582.16,-147.96 575.82,-96.42 561,-56 557.46,-46.35 552.06,-36.29 547.18,-28.13"/>
<polygon fill="midnightblue" stroke="midnightblue" points="550.1,-26.2 541.83,-19.57 544.16,-29.91 550.1,-26.2"/>
</g>
<!-- Node17 -->
<g id="node17" class="node">
<title>Node17</title>
<g id="a_node17"><a xlink:title=" ">
<polygon fill="white" stroke="#bfbfbf" points="613,-112.5 613,-131.5 653,-131.5 653,-112.5 613,-112.5"/>
<text text-anchor="middle" x="633" y="-119.5" font-family="Helvetica,sans-Serif" font-size="10.00">span</text>
</a>
</g>
</g>
<!-- Node16&#45;&gt;Node17 -->
<g id="edge30" class="edge">
<title>Node16&#45;&gt;Node17</title>
<path fill="none" stroke="midnightblue" d="M592.93,-168.08C599.85,-160.3 610.07,-148.8 618.45,-139.37"/>
<polygon fill="midnightblue" stroke="midnightblue" points="621.19,-141.55 625.22,-131.75 615.96,-136.9 621.19,-141.55"/>
</g>
</g>
</svg>
